<svg xmlns="http://www.w3.org/2000/svg" viewBox="0 0 24 24" fill-rule="evenodd">
  <!-- Bell body outline: outer minus inner cutout -->
  <path d="M12 1.5a.75.75 0 0 1 .75.75v.82A6.75 6.75 0 0 1 18.75 9.75c0 3.08.58 5.37 1.15 6.85.28.74.57 1.26.78 1.58.1.16.19.27.24.33l.05.06H3.03l.05-.06c.05-.06.14-.17.24-.33.21-.32.5-.84.78-1.58.57-1.48 1.15-3.77 1.15-6.85a6.75 6.75 0 0 1 5.25-6.68v-.82A.75.75 0 0 1 12 1.5zM5.81 17h12.38c-.32-.72-.66-1.69-.93-2.89A22.2 22.2 0 0 1 16.75 9.75a4.75 4.75 0 1 0-9.5 0c0 1.72-.19 3.2-.51 4.36-.27 1.2-.61 2.17-.93 2.89z" fill="#000"/>
  <!-- Clapper at bottom -->
  <path d="M9.3 19.5a.75.75 0 0 1 1.02.27 1 1 0 0 0 .84.48h1.68a1 1 0 0 0 .84-.48.75.75 0 1 1 1.29.76A2.5 2.5 0 0 1 12.84 21.75h-1.68a2.5 2.5 0 0 1-2.13-1.22.75.75 0 0 1 .27-1.03z" fill="#000"/>
</svg>
