<svg xmlns="http://www.w3.org/2000/svg" viewBox="0 0 24 24" fill-rule="evenodd">
  <path d="M6.5 20C4.01 20 2 17.99 2 15.5c0-2.07 1.4-3.82 3.3-4.35C6.08 7.97 8.82 5.5 12.15 5.5c2.77 0 5.16 1.72 6.13 4.15C20.86 10.12 22 11.57 22 13.5c0 2.49-2.01 4.5-4.5 4.5H8c-.52 0-1.02-.03-1.5-.04zM12.15 7.5c-2.38 0-4.36 1.74-4.73 4.02l-.18 1.12-1.08.32C5.26 13.24 4 14.24 4 15.5c0 1.38 1.12 2.5 2.5 2.5h11c1.38 0 2.5-1.12 2.5-2.5 0-1.17-.82-2.17-1.95-2.42l-1-.22-.27-1C16.34 9.58 14.42 7.5 12.15 7.5z" fill="#000"/>
</svg>
