<svg xmlns="http://www.w3.org/2000/svg" viewBox="0 0 24 24" fill-rule="evenodd">
  <!-- Left box: outlined rectangle with rounded corners -->
  <path d="M2 2.5 Q2 2 2.5 2 L8.5 2 Q9 2 9 2.5 L9 8.5 Q9 9 8.5 9 L2.5 9 Q2 9 2 8.5 Z
            M3.5 3.5 L3.5 7.5 L7.5 7.5 L7.5 3.5 Z" fill="#000"/>
  <!-- Right box: outlined rectangle with rounded corners -->
  <path d="M15 15.5 Q15 15 15.5 15 L21.5 15 Q22 15 22 15.5 L22 21.5 Q22 22 21.5 22 L15.5 22 Q15 22 15 21.5 Z
            M16.5 16.5 L16.5 20.5 L20.5 20.5 L20.5 16.5 Z" fill="#000"/>
  <!-- Top-right arrow: diagonal line + arrowhead pointing toward top-right -->
  <path d="M13.3 9.3 L17.6 5 L14.2 5 L14.2 3.5 L19.5 3.5 L19.5 8.8 L18 8.8 L18 5.5 L13.7 9.8 Z" fill="#000"/>
  <!-- Bottom-left arrow: diagonal line + arrowhead pointing toward bottom-left -->
  <path d="M10.7 14.7 L6.4 19 L9.8 19 L9.8 20.5 L4.5 20.5 L4.5 15.2 L6 15.2 L6 18.5 L10.3 14.2 Z" fill="#000"/>
</svg>
