<svg xmlns="http://www.w3.org/2000/svg" viewBox="0 0 24 24" fill-rule="evenodd">
  <!-- Database cylinder: top ellipse outlined, body outlined, middle band -->
  <!-- Top ellipse ring -->
  <path d="M12 2 Q3 2 3 5 Q3 8 12 8 Q21 8 21 5 Q21 2 12 2 Z
            M12 3.5 Q5.5 3.5 4.5 5 Q5.5 6.5 12 6.5 Q18.5 6.5 19.5 5 Q18.5 3.5 12 3.5 Z" fill="#000"/>
  <!-- Left wall -->
  <rect x="3" y="5" width="1.5" height="14" fill="#000"/>
  <!-- Right wall (shorter, stops before gear area) -->
  <rect x="19.5" y="5" width="1.5" height="8" fill="#000"/>
  <!-- Bottom ellipse (partial, left portion) -->
  <path d="M3 19 Q3 22 12 22 Q13.5 22 14.5 21.8 L14.5 20.3 Q13.5 20.5 12 20.5 Q5.5 20.5 4.5 19 Z" fill="#000"/>
  <!-- Middle band ellipse (partial) -->
  <path d="M3 12 Q3 13.5 7 14.2 L7 12.7 Q4.5 12.2 4.5 12 Z
            M17 12.7 L17 14.2 Q21 13.5 21 12 L19.5 12 Q19.5 12.2 17 12.7 Z" fill="#000"/>
  <!-- Small gear overlay at bottom-right -->
  <path d="M17.8 14.5 L19.2 14.5 L19.4 15.5 Q19.7 15.65 20 15.85 L21 15.3 L21.7 16 L21.15 17 Q21.35 17.3 21.5 17.6 L22.5 17.8 L22.5 19.2 L21.5 19.4 Q21.35 19.7 21.15 20 L21.7 21 L21 21.7 L20 21.15 Q19.7 21.35 19.4 21.5 L19.2 22.5 L17.8 22.5 L17.6 21.5 Q17.3 21.35 17 21.15 L16 21.7 L15.3 21 L15.85 20 Q15.65 19.7 15.5 19.4 L14.5 19.2 L14.5 17.8 L15.5 17.6 Q15.65 17.3 15.85 17 L15.3 16 L16 15.3 L17 15.85 Q17.3 15.65 17.6 15.5 Z
            M18.5 17.2 Q17.85 17.2 17.52 17.52 Q17.2 17.85 17.2 18.5 Q17.2 19.15 17.52 19.48 Q17.85 19.8 18.5 19.8 Q19.15 19.8 19.48 19.48 Q19.8 19.15 19.8 18.5 Q19.8 17.85 19.48 17.52 Q19.15 17.2 18.5 17.2 Z" fill="#000"/>
</svg>
