<svg xmlns="http://www.w3.org/2000/svg" viewBox="0 0 24 24" fill-rule="evenodd">
  <!-- Outlined cylinder top: filled ellipse top cap, using evenodd for outline -->
  <path d="M12 2C7.03 2 3 3.34 3 5s4.03 3 9 3 9-1.34 9-3-4.03-3-9-3zM12 3.5c4.14 0 7.5.67 7.5 1.5S16.14 6.5 12 6.5 4.5 5.83 4.5 5 7.86 3.5 12 3.5z" fill="#000"/>
  <!-- Left wall -->
  <rect x="3" y="5" width="1.5" height="14" fill="#000"/>
  <!-- Right wall -->
  <rect x="19.5" y="5" width="1.5" height="14" fill="#000"/>
  <!-- Bottom ellipse outlined -->
  <path d="M3 19c0-1.66 4.03-3 9-3s9 1.34 9 3-4.03 3-9 3-9-1.34-9-3zM4.5 19c0 .83 3.36 1.5 7.5 1.5s7.5-.67 7.5-1.5-3.36-1.5-7.5-1.5S4.5 18.17 4.5 19z" fill="#000"/>
  <!-- Middle divider: thin elliptical band -->
  <path d="M3 12c0-.83 4.03-1.5 9-1.5s9 .67 9 1.5-4.03 1.5-9 1.5-9-.67-9-1.5zM4.5 12c0 .28 3.36.5 7.5.5s7.5-.22 7.5-.5-3.36-.5-7.5-.5S4.5 11.72 4.5 12z" fill="#000"/>
</svg>
