<svg xmlns="http://www.w3.org/2000/svg" viewBox="0 0 24 24" fill-rule="evenodd">
  <!-- Gear: outer shape with teeth, center hole cutout -->
  <path d="M10.5 1 L13.5 1 L14 3.5 Q14.8 3.8 15.5 4.2 L17.8 3 L20 5.2 L18.8 7.5 Q19.2 8.2 19.5 9 L22 9.5 L22 12.5 L19.5 13 Q19.2 13.8 18.8 14.5 L20 16.8 L17.8 19 L15.5 17.8 Q14.8 18.2 14 18.5 L13.5 21 L10.5 21 L10 18.5 Q9.2 18.2 8.5 17.8 L6.2 19 L4 16.8 L5.2 14.5 Q4.8 13.8 4.5 13 L2 12.5 L2 9.5 L4.5 9 Q4.8 8.2 5.2 7.5 L4 5.2 L6.2 3 L8.5 4.2 Q9.2 3.8 10 3.5 Z
            M12 8 Q10.35 8 9.17 9.17 Q8 10.35 8 12 Q8 13.65 9.17 14.83 Q10.35 16 12 16 Q13.65 16 14.83 14.83 Q16 13.65 16 12 Q16 10.35 14.83 9.17 Q13.65 8 12 8 Z
            M12 9.5 Q13.05 9.5 13.77 10.23 Q14.5 10.95 14.5 12 Q14.5 13.05 13.77 13.77 Q13.05 14.5 12 14.5 Q10.95 14.5 10.23 13.77 Q9.5 13.05 9.5 12 Q9.5 10.95 10.23 10.23 Q10.95 9.5 12 9.5 Z" fill="#000"/>
</svg>
