<svg xmlns="http://www.w3.org/2000/svg" viewBox="0 0 24 24" fill-rule="evenodd">
  <!-- Outlined main circle: outer r=10.25, inner r=8.75 -->
  <path d="M12 1.75 C17.66 1.75 22.25 6.34 22.25 12 C22.25 17.66 17.66 22.25 12 22.25 C6.34 22.25 1.75 17.66 1.75 12 C1.75 6.34 6.34 1.75 12 1.75 Z
            M12 3.25 C7.17 3.25 3.25 7.17 3.25 12 C3.25 16.83 7.17 20.75 12 20.75 C16.83 20.75 20.75 16.83 20.75 12 C20.75 7.17 16.83 3.25 12 3.25 Z" fill="#000"/>
  <!-- Vertical meridian ellipse outlined: outer rx=4.75 ry=10.25, inner rx=3.25 ry=8.75 -->
  <path d="M12 2.5 C14.62 2.5 16.75 6.75 16.75 12 C16.75 17.25 14.62 21.5 12 21.5 C9.38 21.5 7.25 17.25 7.25 12 C7.25 6.75 9.38 2.5 12 2.5 Z
            M12 4 C10.21 4 8.75 7.58 8.75 12 C8.75 16.42 10.21 20 12 20 C13.79 20 15.25 16.42 15.25 12 C15.25 7.58 13.79 4 12 4 Z" fill="#000"/>
  <!-- Horizontal equator line -->
  <rect x="2.5" y="11.25" width="19" height="1.5" rx="0.75" fill="#000"/>
  <!-- Upper latitude line -->
  <rect x="5" y="6.25" width="14" height="1.5" rx="0.75" fill="#000"/>
  <!-- Lower latitude line -->
  <rect x="5" y="16.25" width="14" height="1.5" rx="0.75" fill="#000"/>
  <!-- Dot detail -->
  <circle cx="15.5" cy="9" r="0.8" fill="#000"/>
</svg>
