<svg xmlns="http://www.w3.org/2000/svg" viewBox="0 0 24 24" fill-rule="evenodd">
  <path d="M12 1.75 C17.66 1.75 22.25 6.34 22.25 12 C22.25 17.66 17.66 22.25 12 22.25 C6.34 22.25 1.75 17.66 1.75 12 C1.75 6.34 6.34 1.75 12 1.75 Z
            M12 2.95 C7.0 2.95 2.95 7.0 2.95 12 C2.95 17.0 7.0 21.05 12 21.05 C17.0 21.05 21.05 17.0 21.05 12 C21.05 7.0 17.0 2.95 12 2.95 Z" fill="#000"/>
  <path d="M12 2.5 C14.62 2.5 16.75 6.75 16.75 12 C16.75 17.25 14.62 21.5 12 21.5 C9.38 21.5 7.25 17.25 7.25 12 C7.25 6.75 9.38 2.5 12 2.5 Z
            M12 3.7 C10.04 3.7 8.45 7.42 8.45 12 C8.45 16.58 10.04 20.3 12 20.3 C13.96 20.3 15.55 16.58 15.55 12 C15.55 7.42 13.96 3.7 12 3.7 Z" fill="#000"/>
  <rect x="2.5" y="11.4" width="19" height="1.2" rx="0.6" fill="#000"/>
  <rect x="5" y="6.4" width="14" height="1.2" rx="0.6" fill="#000"/>
  <rect x="5" y="16.4" width="14" height="1.2" rx="0.6" fill="#000"/>
  <circle cx="15.5" cy="9" r="0.8" fill="#000"/>
</svg>
