<svg xmlns="http://www.w3.org/2000/svg" viewBox="0 0 24 24" fill-rule="evenodd">
  <!-- House outline: outer boundary CW, inner boundary CCW for evenodd cutout -->
  <path d="M12 2.5 L21.5 10.5 L21.5 19.5 C21.5 20.6 20.6 21.5 19.5 21.5 L4.5 21.5 C3.4 21.5 2.5 20.6 2.5 19.5 L2.5 10.5 Z
            M12 5 L5 10.83 L5 19.5 C5 19.78 5.22 20 5.5 20 L18.5 20 C18.78 20 19 19.78 19 19.5 L19 10.83 Z" fill="#000"/>
  <!-- Door: solid filled rectangle at center bottom -->
  <rect x="9.5" y="14" width="5" height="6" rx="0.75" fill="#000"/>
  <!-- Window: outlined small rectangle (outer + inner cutout) -->
  <path d="M5.75 13.25 L8.75 13.25 L8.75 16.75 L5.75 16.75 Z
            M6.75 14.25 L6.75 15.75 L7.75 15.75 L7.75 14.25 Z" fill="#000"/>
</svg>
