<svg xmlns="http://www.w3.org/2000/svg" viewBox="0 0 24 24" fill-rule="evenodd">
  <!-- Key: outlined circle head with triangular hole, shaft with teeth -->
  <path d="M15.5 2A5.5 5.5 0 0 0 10.05 6.6L2.7 13.95a1 1 0 0 0-.29.6L2 17.5a1 1 0 0 0 .27.77l1.5 1.5A1 1 0 0 0 4.5 20h1.25v-1.5a.75.75 0 0 1 .75-.75H8v-1.5a.75.75 0 0 1 .75-.75h1.13l1.57-1.57A5.5 5.5 0 1 0 15.5 2zm0 2a3.5 3.5 0 0 1 .43 6.97l-.72.09-.4.6-1.66 1.66a1 1 0 0 0-.29.71v.72H11.5a.75.75 0 0 0-.75.75V16.5H9.25a.75.75 0 0 0-.75.75V19H4.83l-1-1 .32-2.2 7.3-7.3.55-.55.1-.75A3.5 3.5 0 0 1 15.5 4zm1 2a1.5 1.5 0 1 0 0 3 1.5 1.5 0 0 0 0-3z" fill="#000"/>
</svg>
