<svg xmlns="http://www.w3.org/2000/svg" viewBox="0 0 24 24" fill-rule="evenodd">
  <path d="M4.5 3 L8.5 3 A1.5 1.5 0 0 1 10 4.5 L10 9.5 A1.5 1.5 0 0 1 8.5 11 L4.5 11 A1.5 1.5 0 0 1 3 9.5 L3 4.5 A1.5 1.5 0 0 1 4.5 3 Z
            M4.2 4.2 L8.8 4.2 L8.8 9.8 L4.2 9.8 Z" fill="#000"/>
  <path d="M15.5 3 L19.5 3 A1.5 1.5 0 0 1 21 4.5 L21 9.5 A1.5 1.5 0 0 1 19.5 11 L15.5 11 A1.5 1.5 0 0 1 14 9.5 L14 4.5 A1.5 1.5 0 0 1 15.5 3 Z
            M15.2 4.2 L19.8 4.2 L19.8 9.8 L15.2 9.8 Z" fill="#000"/>
  <path d="M4.5 13 L8.5 13 A1.5 1.5 0 0 1 10 14.5 L10 19.5 A1.5 1.5 0 0 1 8.5 21 L4.5 21 A1.5 1.5 0 0 1 3 19.5 L3 14.5 A1.5 1.5 0 0 1 4.5 13 Z
            M4.2 14.2 L8.8 14.2 L8.8 19.8 L4.2 19.8 Z" fill="#000"/>
  <path d="M15.5 13 L19.5 13 A1.5 1.5 0 0 1 21 14.5 L21 19.5 A1.5 1.5 0 0 1 19.5 21 L15.5 21 A1.5 1.5 0 0 1 14 19.5 L14 14.5 A1.5 1.5 0 0 1 15.5 13 Z
            M15.2 14.2 L19.8 14.2 L19.8 19.8 L15.2 19.8 Z" fill="#000"/>
  <circle cx="6.5" cy="7" r="0.8" fill="#000"/>
</svg>
