<svg xmlns="http://www.w3.org/2000/svg" viewBox="0 0 24 24" fill-rule="evenodd">
  <!-- Upper-right link: outlined capsule shape -->
  <path d="M13.06 3.88a4.25 4.25 0 0 1 6.01 0l1.05 1.05a4.25 4.25 0 0 1 0 6.01l-3 3a4.25 4.25 0 0 1-6.01 0 .75.75 0 0 1 1.06-1.06 2.75 2.75 0 0 0 3.89 0l3-3a2.75 2.75 0 0 0 0-3.89l-1.05-1.05a2.75 2.75 0 0 0-3.89 0l-1.72 1.71a.75.75 0 0 1-1.06-1.06l1.72-1.71z" fill="#000"/>
  <!-- Lower-left link: outlined capsule shape -->
  <path d="M10.94 20.12a4.25 4.25 0 0 1-6.01 0l-1.05-1.05a4.25 4.25 0 0 1 0-6.01l3-3a4.25 4.25 0 0 1 6.01 0 .75.75 0 0 1-1.06 1.06 2.75 2.75 0 0 0-3.89 0l-3 3a2.75 2.75 0 0 0 0 3.89l1.05 1.05a2.75 2.75 0 0 0 3.89 0l1.72-1.71a.75.75 0 0 1 1.06 1.06l-1.72 1.71z" fill="#000"/>
</svg>