<svg xmlns="http://www.w3.org/2000/svg" viewBox="0 0 24 24" fill-rule="evenodd">
  <path d="M13.06 3.88a4.25 4.25 0 0 1 6.01 0l1.05 1.05a4.25 4.25 0 0 1 0 6.01l-3 3a4.25 4.25 0 0 1-6.01 0 .6.6 0 0 1 .85-.85 3.05 3.05 0 0 0 4.31 0l3-3a3.05 3.05 0 0 0 0-4.31l-1.05-1.05a3.05 3.05 0 0 0-4.31 0l-1.72 1.71a.6.6 0 0 1-.85-.85l1.72-1.71z" fill="#000"/>
  <path d="M10.94 20.12a4.25 4.25 0 0 1-6.01 0l-1.05-1.05a4.25 4.25 0 0 1 0-6.01l3-3a4.25 4.25 0 0 1 6.01 0 .6.6 0 0 1-.85.85 3.05 3.05 0 0 0-4.31 0l-3 3a3.05 3.05 0 0 0 0 4.31l1.05 1.05a3.05 3.05 0 0 0 4.31 0l1.72-1.71a.6.6 0 0 1 .85.85l-1.72 1.71z" fill="#000"/>
</svg>
