<svg xmlns="http://www.w3.org/2000/svg" viewBox="0 0 24 24" fill-rule="evenodd">
  <path d="M4 5.5A2.5 2.5 0 0 0 1.5 8v9A2.5 2.5 0 0 0 4 19.5h16a2.5 2.5 0 0 0 2.5-2.5V8A2.5 2.5 0 0 0 20 5.5H4zM2.7 8a1.3 1.3 0 0 1 1.3-1.3h16a1.3 1.3 0 0 1 1.3 1.3v9a1.3 1.3 0 0 1-1.3 1.3H4a1.3 1.3 0 0 1-1.3-1.3V8z" fill="#000"/>
  <path d="M12 9a3.5 3.5 0 1 0 0 7 3.5 3.5 0 0 0 0-7zm-2.3 3.5a2.3 2.3 0 1 1 4.6 0 2.3 2.3 0 0 1-4.6 0z" fill="#000"/>
  <rect x="2.5" y="8.9" width="2" height="1.2" rx="0.6" fill="#000"/>
  <rect x="19.5" y="14.9" width="2" height="1.2" rx="0.6" fill="#000"/>
</svg>
