<svg xmlns="http://www.w3.org/2000/svg" viewBox="0 0 24 24" fill-rule="evenodd">
  <!-- Banknote outline: outer rectangle minus inner cutout -->
  <path d="M4 5.5A2.5 2.5 0 0 0 1.5 8v9A2.5 2.5 0 0 0 4 19.5h16a2.5 2.5 0 0 0 2.5-2.5V8A2.5 2.5 0 0 0 20 5.5H4zM3 8a1 1 0 0 1 1-1h16a1 1 0 0 1 1 1v9a1 1 0 0 1-1 1H4a1 1 0 0 1-1-1V8z" fill="#000"/>
  <!-- Center circle outline -->
  <path d="M12 9a3.5 3.5 0 1 0 0 7 3.5 3.5 0 0 0 0-7zm-2 3.5a2 2 0 1 1 4 0 2 2 0 0 1-4 0z" fill="#000"/>
  <!-- Left corner accent -->
  <rect x="2.5" y="8.75" width="2" height="1.5" rx="0.75" fill="#000"/>
  <!-- Right corner accent -->
  <rect x="19.5" y="14.75" width="2" height="1.5" rx="0.75" fill="#000"/>
</svg>
