<svg xmlns="http://www.w3.org/2000/svg" viewBox="0 0 24 24" fill-rule="evenodd">
  <!-- Screen outline: outer minus inner -->
  <path d="M4 2.5A2.5 2.5 0 0 0 1.5 5v10A2.5 2.5 0 0 0 4 17.5h16a2.5 2.5 0 0 0 2.5-2.5V5A2.5 2.5 0 0 0 20 2.5H4zM3 5a1 1 0 0 1 1-1h16a1 1 0 0 1 1 1v10a1 1 0 0 1-1 1H4a1 1 0 0 1-1-1V5z" fill="#000"/>
  <!-- Stand vertical bar -->
  <rect x="11.25" y="17.5" width="1.5" height="3.5" fill="#000"/>
  <!-- Stand base -->
  <rect x="8" y="20.25" width="8" height="1.5" rx="0.75" fill="#000"/>
</svg>
