<svg xmlns="http://www.w3.org/2000/svg" viewBox="0 0 24 24" fill-rule="evenodd">
  <!-- Crescent moon: outlined version -->
  <!-- Outer crescent (original path slightly expanded) and inner crescent (slightly contracted) -->
  <path d="M21.5 13 C21.17 17.93 17.03 21.75 12 21.75 C6.62 21.75 2.25 17.38 2.25 12 C2.25 6.97 6.07 2.83 11 2.5 C10.14 4.05 9.65 5.84 9.65 7.75 C9.65 13.17 14.08 17.6 19.5 17.6 C20.19 17.6 20.86 17.53 21.5 17.39 L21.5 13 Z
            M12 20.25 C16.07 20.25 19.45 17.23 19.95 13.3 C19.8 13.31 19.65 13.32 19.5 13.32 C18.68 13.32 17.89 13.21 17.14 13 C14.23 12.13 12.08 9.5 11.68 6.33 C11.58 5.57 11.59 4.79 11.72 4.03 C7.57 4.52 4.32 7.98 4.25 12.21 C4.25 16.49 7.72 20.06 12 20.25 Z" fill="#000"/>
  <!-- Star dots -->
  <circle cx="6" cy="5" r="0.9" fill="#000"/>
  <circle cx="4" cy="9" r="0.65" fill="#000"/>
</svg>
