<svg xmlns="http://www.w3.org/2000/svg" viewBox="0 0 24 24" fill-rule="evenodd">
  <!-- Rocket body -->
  <path d="M12 15l-3-3c1.35-3.39 3.6-6.97 5-10.29A22 22 0 0 1 22 2a22 22 0 0 1-.29 8c-1.73 3.4-3.61 5.65-5 7L12 15z" fill="#000"/>
  <!-- Left fin -->
  <path d="M9 12H4c.18-1.16.55-2.32 1.24-3.24C6.32 7.48 8 7 9.5 7L11 8c-.62 1.14-1.3 2.53-2 4z" fill="#000"/>
  <!-- Right fin -->
  <path d="M12 15v5c1.16-.18 2.32-.55 3.24-1.24C16.52 17.68 17 16 17 14.5L16 13c-1.14.62-2.53 1.3-4 2z" fill="#000"/>
  <!-- Flame/exhaust -->
  <path d="M4.5 16.5c-1.5 1.26-2 5-2 5s3.74-.5 5-2c.71-.84.7-2.13-.09-2.91a2.18 2.18 0 0 0-2.91-.09z" fill="#000"/>
</svg>
