<svg xmlns="http://www.w3.org/2000/svg" viewBox="0 0 24 24" fill-rule="evenodd">
  <!-- Gauge arc: half-circle outline -->
  <path d="M12 3a9.75 9.75 0 0 0-8.44 14.63.75.75 0 0 0 .65.37h15.58a.75.75 0 0 0 .65-.37A9.75 9.75 0 0 0 12 3zm-7.56 13.5A8.25 8.25 0 0 1 12 4.5a8.25 8.25 0 0 1 7.56 12H4.44z" fill="#000"/>
  <!-- Tick mark: bottom-left -->
  <rect x="5" y="14" width="2" height="1.5" rx="0.75" transform="rotate(-30 6 14.75)" fill="#000"/>
  <!-- Tick mark: left -->
  <rect x="6.25" y="9.25" width="2" height="1.5" rx="0.75" transform="rotate(-60 7.25 10)" fill="#000"/>
  <!-- Tick mark: top -->
  <rect x="11.25" y="6" width="1.5" height="2" rx="0.75" fill="#000"/>
  <!-- Tick mark: right -->
  <rect x="15.75" y="9.25" width="2" height="1.5" rx="0.75" transform="rotate(60 16.75 10)" fill="#000"/>
  <!-- Tick mark: bottom-right -->
  <rect x="17" y="14" width="2" height="1.5" rx="0.75" transform="rotate(30 18 14.75)" fill="#000"/>
  <!-- Center dot -->
  <circle cx="12" cy="14" r="2" fill="#000"/>
  <!-- Needle pointing upper-right -->
  <rect x="12" y="7" width="1.5" height="7" rx="0.75" transform="rotate(35 12.75 10.5)" fill="#000"/>
</svg>
