<svg xmlns="http://www.w3.org/2000/svg" viewBox="0 0 24 24" fill-rule="evenodd">
  <path d="M1.25 7.25a.75.75 0 0 1 .75-.75h7a2.75 2.75 0 1 1-2.75 2.75.75.75 0 0 1 1.5 0A1.25 1.25 0 1 0 9 8h-7a.75.75 0 0 1-.75-.75z" fill="#000"/>
  <path d="M1.25 16.75a.75.75 0 0 1 .75-.75h11a2.75 2.75 0 1 0-2.75-2.75.75.75 0 0 1 1.5 0A1.25 1.25 0 1 1 13 15h-11a.75.75 0 0 1-.75-.75z" fill="#000"/>
  <path d="M1.25 12a.75.75 0 0 1 .75-.75h15.5a3.25 3.25 0 1 1-3.25 3.25.75.75 0 0 1 1.5 0A1.75 1.75 0 1 0 17.5 12.75H2a.75.75 0 0 1-.75-.75z" fill="#000"/>
</svg>
