<svg xmlns="http://www.w3.org/2000/svg" viewBox="0 0 24 24" fill-rule="evenodd">
  <path d="M12 3a9.75 9.75 0 0 0-8.44 14.63.6.6 0 0 0 .52.3h15.84a.6.6 0 0 0 .52-.3A9.75 9.75 0 0 0 12 3zm-7.69 13.5A8.55 8.55 0 0 1 12 4.2a8.55 8.55 0 0 1 7.69 12.3H4.31z" fill="#000"/>
  <rect x="5" y="14.15" width="2" height="1.2" rx="0.6" transform="rotate(-30 6 14.75)" fill="#000"/>
  <rect x="6.25" y="9.4" width="2" height="1.2" rx="0.6" transform="rotate(-60 7.25 10)" fill="#000"/>
  <rect x="11.4" y="6" width="1.2" height="2" rx="0.6" fill="#000"/>
  <rect x="15.75" y="9.4" width="2" height="1.2" rx="0.6" transform="rotate(60 16.75 10)" fill="#000"/>
  <rect x="17" y="14.15" width="2" height="1.2" rx="0.6" transform="rotate(30 18 14.75)" fill="#000"/>
  <circle cx="12" cy="14" r="2" fill="#000"/>
  <rect x="12.15" y="7" width="1.2" height="7" rx="0.6" transform="rotate(35 12.75 10.5)" fill="#000"/>
</svg>
