<svg xmlns="http://www.w3.org/2000/svg" viewBox="0 0 24 24" fill-rule="evenodd">
  <!-- Clipboard body outline -->
  <path d="M8 3.5H6A2.5 2.5 0 0 0 3.5 6v14A2.5 2.5 0 0 0 6 22.5h12a2.5 2.5 0 0 0 2.5-2.5V6A2.5 2.5 0 0 0 18 3.5h-2V4a1 1 0 0 1-1 1h-6a1 1 0 0 1-1-1v-.5zM5 6a1 1 0 0 1 1-1h1.17A2.5 2.5 0 0 0 9.5 6.5h5A2.5 2.5 0 0 0 16.83 5H18a1 1 0 0 1 1 1v14a1 1 0 0 1-1 1H6a1 1 0 0 1-1-1V6z" fill="#000"/>
  <!-- Clipboard clip tab -->
  <path d="M9 1.5a1.5 1.5 0 0 0-1.5 1.5v1A1.5 1.5 0 0 0 9 5.5h6A1.5 1.5 0 0 0 16.5 4V3A1.5 1.5 0 0 0 15 1.5H9zM9 3h6v1H9V3z" fill="#000"/>
  <!-- Line 1 -->
  <rect x="8" y="9.25" width="8" height="1.5" rx="0.75" fill="#000"/>
  <!-- Line 2 -->
  <rect x="8" y="13.25" width="8" height="1.5" rx="0.75" fill="#000"/>
  <!-- Line 3 -->
  <rect x="8" y="17.25" width="4" height="1.5" rx="0.75" fill="#000"/>
</svg>
