<svg xmlns="http://www.w3.org/2000/svg" viewBox="0 0 24 24" fill-rule="evenodd">
  <!-- Top-right arrow corner + curved arc going clockwise -->
  <path d="M21 2.25a.75.75 0 0 1 .75.75v6a.75.75 0 0 1-.75.75h-6a.75.75 0 0 1 0-1.5h4.19A8.25 8.25 0 0 0 4.84 5.66a.75.75 0 0 1-1.05-1.07A9.75 9.75 0 0 1 20.25 8.3V3a.75.75 0 0 1 .75-.75z" fill="#000"/>
  <!-- Bottom-left arrow corner + curved arc going counter-clockwise -->
  <path d="M3 21.75a.75.75 0 0 1-.75-.75v-6a.75.75 0 0 1 .75-.75h6a.75.75 0 0 1 0 1.5H4.81a8.25 8.25 0 0 0 14.35 2.59.75.75 0 0 1 1.05 1.07A9.75 9.75 0 0 1 3.75 15.7V21a.75.75 0 0 1-.75.75z" fill="#000"/>
</svg>