<svg xmlns="http://www.w3.org/2000/svg" viewBox="0 0 24 24" fill-rule="evenodd">
  <!-- Top arrow: arc from left to top-right, arrowhead pointing left -->
  <path d="M4.06 8.3a9 9 0 0 1 15.38-.73V5.5a1 1 0 1 1 2 0v4.25a1 1 0 0 1-1 1h-4.25a1 1 0 1 1 0-2h1.94A7 7 0 0 0 5.88 7.12a1 1 0 1 1-1.82-1.18z" fill="#000"/>
  <!-- Bottom arrow: arc from right to bottom-left, arrowhead pointing right -->
  <path d="M19.94 15.7a9 9 0 0 1-15.38.73v2.07a1 1 0 1 1-2 0v-4.25a1 1 0 0 1 1-1h4.25a1 1 0 1 1 0 2H5.87a7 7 0 0 0 12.25 1.63 1 1 0 1 1 1.82 1.18z" fill="#000"/>
</svg>
