<?xml version="1.0" encoding="UTF-8"?>
<!-- Generator: visioncortex VTracer 0.6.12 -->
<svg version="1.1" xmlns="http://www.w3.org/2000/svg" width="512" height="512">
<path d="M0 0 C2.67814128 2.46739961 5.29485318 4.99510874 7.90722656 7.53173828 C8.48069824 8.07942871 9.05416992 8.62711914 9.64501953 9.19140625 C17.69597852 16.8908909 24.99754603 24.85891546 31.63232422 33.8125 C32.86993636 35.4814515 34.12776476 37.13351381 35.38769531 38.78564453 C58.08005465 69.03311337 72.0138823 105.36185414 77.90722656 142.53173828 C77.97216309 142.93013916 77.97216309 142.93013916 78.30078125 144.94628906 C87.49808608 204.18775254 70.90461913 267.60732277 35.71582031 315.76220703 C28.97067953 324.85563939 21.70698549 333.33450816 13.90722656 341.53173828 C13.6375708 341.81573486 13.6375708 341.81573486 12.27294922 343.25292969 C4.56823705 351.30937387 -3.41434167 358.61790141 -12.37353516 365.25683594 C-14.04248666 366.49444808 -15.69454897 367.75227648 -17.34667969 369.01220703 C-66.43078389 405.83625125 -130.43930817 419.96888976 -190.78027344 411.57080078 C-240.00019297 403.90115409 -284.10501452 381.77450559 -320.09277344 347.53173828 C-320.37677002 347.26208252 -320.37677002 347.26208252 -321.81396484 345.89746094 C-329.87040903 338.19274877 -337.17893657 330.21017005 -343.81787109 321.25097656 C-345.05548324 319.58202506 -346.31331163 317.92996275 -347.57324219 316.27783203 C-370.26560152 286.03036319 -384.19942918 249.70162242 -390.09277344 212.53173828 C-390.22264648 211.73493652 -390.35251953 210.93813477 -390.48632812 210.1171875 C-399.68363296 150.87572402 -383.090166 87.45615379 -347.90136719 39.30126953 C-341.15622641 30.20783717 -333.89253236 21.72896841 -326.09277344 13.53173828 C-325.55346191 12.96374512 -325.01415039 12.39575195 -324.45849609 11.81054688 C-316.75378393 3.75410269 -308.77120521 -3.55442485 -299.81201172 -10.19335938 C-298.14306022 -11.43097152 -296.49099791 -12.68879991 -294.83886719 -13.94873047 C-264.2541345 -36.89411304 -227.69397829 -50.72752259 -190.09277344 -56.46826172 C-189.26970703 -56.59813477 -188.44664062 -56.72800781 -187.59863281 -56.86181641 C-121.04208593 -66.93844373 -49.86197391 -44.87577652 0 0 Z M-312.09277344 29.53173828 C-351.36104195 69.16304163 -371.17519869 125.94442485 -371.08886719 181.02392578 C-370.41714955 241.09467408 -343.5807103 294.40552298 -301.53417969 336.06689453 C-259.95618335 374.70007494 -203.28992946 393.91224879 -147.00585938 392.44018555 C-88.58999909 389.99060882 -34.9329787 363.19744467 4.59472656 320.65673828 C42.04517003 277.51495162 61.77743895 221.40923134 58.58276367 164.26953125 C54.45679696 106.88771935 28.2364164 52.61269623 -15.36621094 14.76220703 C-88.30081227 -44.90205853 -193.55933038 -56.20626759 -312.09277344 29.53173828 Z " fill="#000000" transform="translate(412.0927734375,78.46826171875)"/>
<path d="M0 0 C2.89213289 2.89213289 3.94076993 5.64429197 4.12025452 9.75248718 C4.11803391 10.86501358 4.11581329 11.97753998 4.11352539 13.1237793 C4.11348763 13.75431969 4.11348763 13.75431969 4.11329651 16.94523621 C4.10818989 18.32156412 4.10297389 19.69789163 4.09765625 21.07421875 C4.09579086 22.48240611 4.09436753 23.89059411 4.09336853 25.29878235 C4.08955288 29.0026733 4.07973072 32.70652495 4.06866455 36.41040039 C4.05842997 40.19091256 4.05386652 43.97143109 4.04882812 47.75195312 C4.0381076 55.16798665 4.0210426 62.58398782 4 70 C4.77594513 69.99333817 5.55189026 69.98667633 6.35134888 69.97981262 C13.67810072 69.91960238 21.00473191 69.87397545 28.33166695 69.84456348 C32.09817214 69.82893394 35.86447221 69.80774576 39.63085938 69.77368164 C43.26835002 69.74099065 46.90564385 69.7231266 50.54327011 69.71536827 C51.92830374 69.70984215 53.31332709 69.69905095 54.69827652 69.68280983 C56.64395821 69.66090872 58.58983961 69.65977352 60.53564453 69.65942383 C61.64150909 69.65276199 62.74737366 69.64610016 63.88674927 69.63923645 C67.52446749 70.0607753 69.89167784 71.0832054 73 73 C75.46720886 76.93211413 76.35899294 79.74215615 75.4375 84.25 C74.60939522 86.89277884 74.06399644 87.93600356 72.0625 89.9375 C68.19498666 91.92985536 65.16848058 92.12209278 60.8762207 92.11352539 C59.61513992 92.11344986 58.35405914 92.11337433 57.05476379 92.11329651 C55.67843588 92.10818989 54.30210837 92.10297389 52.92578125 92.09765625 C51.51759389 92.09579086 50.10940589 92.09436753 48.70121765 92.09336853 C44.9973267 92.08955288 41.29347505 92.07973072 37.58959961 92.06866455 C33.80908744 92.05842997 30.02856891 92.05386652 26.24804688 92.04882812 C18.83201335 92.0381076 11.41601218 92.0210426 4 92 C4.00333092 92.38797256 4.00333092 92.38797256 4.02018738 94.35134888 C4.08039762 101.67810072 4.12602455 109.00473191 4.15543652 116.33166695 C4.17106606 120.09817214 4.19225424 123.86447221 4.22631836 127.63085938 C4.25900935 131.26835002 4.2768734 134.90564385 4.28463173 138.54327011 C4.29015785 139.92830374 4.30094905 141.31332709 4.31719017 142.69827652 C4.33909128 144.64395821 4.34022648 146.58983961 4.34057617 148.53564453 C4.34390709 149.08857681 4.34390709 149.08857681 4.36076355 151.88674927 C3.9392247 155.52446749 2.9167946 157.89167784 1 161 C-2.93211413 163.46720886 -5.74215615 164.35899294 -10.25 163.4375 C-12.89277884 162.60939522 -13.93600356 162.06399644 -15.9375 160.0625 C-17.92985536 156.19498666 -18.12209278 153.16848058 -18.11352539 148.8762207 C-18.11348763 148.24568031 -18.11348763 148.24568031 -18.11329651 145.05476379 C-18.10818989 143.67843588 -18.10297389 142.30210837 -18.09765625 140.92578125 C-18.09579086 139.51759389 -18.09436753 138.10940589 -18.09336853 136.70121765 C-18.08955288 132.9973267 -18.07973072 129.29347505 -18.06866455 125.58959961 C-18.05842997 121.80908744 -18.05386652 118.02856891 -18.04882812 114.24804688 C-18.0381076 106.83201335 -18.0210426 99.41601218 -18 92 C-18.38797256 92.00333092 -18.38797256 92.00333092 -20.35134888 92.02018738 C-27.67810072 92.08039762 -35.00473191 92.12602455 -42.33166695 92.15543652 C-46.09817214 92.17106606 -49.86447221 92.19225424 -53.63085938 92.22631836 C-57.26835002 92.25900935 -60.90564385 92.2768734 -64.54327011 92.28463173 C-65.92830374 92.29015785 -67.31332709 92.30094905 -68.69827652 92.31719017 C-70.64395821 92.33909128 -72.58983961 92.34022648 -74.53564453 92.34057617 C-75.64150909 92.34723801 -76.74737366 92.35389984 -77.88674927 92.36076355 C-81.52446749 91.9392247 -83.89167784 90.9167946 -87 89 C-89.46720886 85.06788587 -90.35899294 82.25784385 -89.4375 77.75 C-88.60939522 75.10722116 -88.06399644 74.06399644 -86.0625 72.0625 C-82.19498666 70.07014464 -79.16848058 69.87790722 -74.8762207 69.88647461 C-73.61513992 69.88655014 -72.35405914 69.88662567 -71.05476379 69.88670349 C-69.67843588 69.89181011 -68.30210837 69.89702611 -66.92578125 69.90234375 C-65.51759389 69.90420914 -64.10940589 69.90563247 -62.70121765 69.90663147 C-58.9973267 69.91044712 -55.29347505 69.92026928 -51.58959961 69.93133545 C-47.80908744 69.94157003 -44.02856891 69.94613348 -40.24804688 69.95117188 C-32.83201335 69.9618924 -25.41601218 69.9789574 -18 70 C-18.00333092 69.61202744 -18.00333092 69.61202744 -18.02018738 67.64865112 C-18.08039762 60.32189928 -18.12602455 52.99526809 -18.15543652 45.66833305 C-18.17106606 41.90182786 -18.19225424 38.13552779 -18.22631836 34.36914062 C-18.25900935 30.73164998 -18.2768734 27.09435615 -18.28463173 23.45672989 C-18.29015785 22.07169626 -18.30094905 20.68667291 -18.31719017 19.30172348 C-18.33909128 17.35604179 -18.34022648 15.41016039 -18.34057617 13.46435547 C-18.34390709 12.91142319 -18.34390709 12.91142319 -18.36076355 10.11325073 C-17.9392247 6.47553251 -16.9167946 4.10832216 -15 1 C-9.69245187 -2.33022628 -5.58088319 -2.59517367 0 0 Z " fill="#000000" transform="translate(263,175)"/>
</svg>
