<?xml version="1.0" encoding="UTF-8"?>
<!-- Generator: visioncortex VTracer 0.6.12 -->
<svg version="1.1" xmlns="http://www.w3.org/2000/svg" width="512" height="512">
<path d="M0 0 C22.9363141 19.96272671 38.64720989 44.69497336 45.27197266 74.54492188 C45.50400391 75.56972656 45.73603516 76.59453125 45.97509766 77.65039062 C47.36959367 84.55314592 47.90876785 91.52000939 48.27197266 98.54492188 C48.29324219 98.93744141 48.29324219 98.93744141 48.40087891 100.92382812 C49.00783795 124.19059166 42.90573298 147.75953943 35.27197266 169.54492188 C34.95776367 170.44758789 34.64355469 171.35025391 34.31982422 172.28027344 C28.61152599 188.49891363 21.72472652 204.0593649 14.27197266 219.54492188 C14.05734375 219.99343506 14.05734375 219.99343506 12.97119141 222.26318359 C-4.49010424 258.57852108 -26.11346738 293.23869044 -48.72802734 326.54492188 C-49.15116211 327.16995605 -49.57429687 327.79499023 -50.01025391 328.43896484 C-61.11495827 344.81655436 -72.79509622 360.7633517 -84.72802734 376.54492188 C-88.11511183 375.41589371 -88.60270706 374.72762461 -90.62646484 371.92382812 C-91.18188965 371.16207275 -91.73731445 370.40031738 -92.30957031 369.61547852 C-92.90141113 368.78781982 -93.49325195 367.96016113 -94.10302734 367.10742188 C-94.71936035 366.25720459 -95.33569336 365.4069873 -95.97070312 364.53100586 C-97.25755422 362.75407433 -98.54119535 360.97481416 -99.82177734 359.19335938 C-101.62453922 356.6887025 -103.43932705 354.19335606 -105.25927734 351.70117188 C-106.3742091 350.17017555 -107.48880659 348.63893573 -108.60302734 347.10742188 C-109.10108887 346.42429932 -109.59915039 345.74117676 -110.11230469 345.03735352 C-114.48770604 338.98569946 -118.61271406 332.7753873 -122.72802734 326.54492188 C-123.37884277 325.56305908 -124.0296582 324.58119629 -124.70019531 323.56958008 C-216.06920401 185.49455017 -216.06920401 185.49455017 -219.72802734 108.54492188 C-219.76927734 107.79082031 -219.81052734 107.03671875 -219.85302734 106.25976562 C-220.83006644 70.65890347 -206.96020213 36.72125772 -182.87597656 10.8371582 C-135.09811404 -39.44792503 -53.38589674 -44.95336883 0 0 Z M-168.37939453 26.82983398 C-188.42845761 47.70610074 -198.33805864 76.6573879 -198.07714844 105.2565918 C-196.64766584 161.48776958 -163.86955154 218.49568832 -135.72802734 265.54492188 C-135.17034668 266.48513184 -134.61266602 267.4253418 -134.03808594 268.39404297 C-119.72496978 292.50539971 -104.46215413 316.77649137 -86.72802734 338.54492188 C-83.66781681 337.21861326 -81.9897287 335.9641957 -80.05615234 333.25585938 C-79.56493896 332.57402588 -79.07372559 331.89219238 -78.56762695 331.18969727 C-78.04305908 330.44067139 -77.51849121 329.69164551 -76.97802734 328.91992188 C-76.6980188 328.52575073 -76.6980188 328.52575073 -75.28100586 326.53100586 C-54.70163905 297.34802697 -35.63460069 267.00512264 -18.72802734 235.54492188 C-18.20096191 234.56458984 -17.67389648 233.58425781 -17.13085938 232.57421875 C8.75531952 184.15487815 38.03843007 125.39643024 21.63867188 69.38183594 C16.88452922 54.21843561 9.02430552 40.24802372 -1.72802734 28.54492188 C-1.94894043 28.30281982 -1.94894043 28.30281982 -3.06689453 27.07763672 C-23.4722102 4.96122813 -50.83635815 -7.58281396 -80.90234375 -9.33154297 C-114.46965395 -10.66539218 -144.94817008 3.26743665 -168.37939453 26.82983398 Z " fill="#000000" transform="translate(341.72802734375,50.455078125)"/>
<path d="M0 0 C26.4 0 52.8 0 80 0 C92 21 92 21 92 22 C66.59 22 41.18 22 15 22 C14.835 22.825 14.835 22.825 14 27 C13.1284872 29.69292088 12.22806403 32.36213356 11.2890625 35.03125 C11.00912445 35.83477905 10.7291864 36.63830811 10.44076538 37.46618652 C9.50585373 40.14542551 8.56565967 42.82277412 7.625 45.5 C6.96220892 47.39321843 6.29944919 49.28644784 5.63671875 51.1796875 C0.15616373 66.80959807 -5.41146627 82.40842346 -11 98 C-11.39805847 99.11076904 -11.79611694 100.22153809 -12.20623779 101.3659668 C-16.10385919 112.23542954 -20.01800948 123.09861962 -24 133.9375 C-24.29092529 134.73099854 -24.58185059 135.52449707 -24.8815918 136.34204102 C-26.87869339 141.75738679 -26.87869339 141.75738679 -28 144 C110.6 144 249.2 144 392 144 C389.69 138.06 387.38 132.12 385 126 C383.5377289 121.97440986 382.09306775 117.95094911 380.6875 113.90625 C380.3159227 112.84574936 379.9443454 111.78524872 379.56150818 110.69261169 C378.77521781 108.44777872 377.99023282 106.2024881 377.20651245 103.95675659 C375.1351852 98.02223506 373.05334576 92.09140038 370.97265625 86.16015625 C370.76403206 85.56507515 370.76403206 85.56507515 369.70826721 82.55360413 C365.65575669 71.00139861 361.55636244 59.46619082 357.4375 47.9375 C357.27890503 47.49293457 357.27890503 47.49293457 356.47631836 45.24316406 C355.58821563 42.7541485 354.69871514 40.26563801 353.80859375 37.77734375 C353.55113876 37.05590683 353.29368378 36.33446991 353.02842712 35.59117126 C352.01597053 32.76691217 350.98658087 29.96805328 349.82446289 27.20141602 C349 25 349 25 349 22 C323.59 22 298.18 22 272 22 C273.65 18.7 275.3 15.4 277 12 C277.45548721 10.82507996 277.91097443 9.65015991 278.38026428 8.43963623 C279.89008439 4.95406558 281.24643328 2.63960543 284 0 C290.06873978 -1.68994416 295.93345017 -1.40231386 302.18359375 -1.171875 C303.96715064 -1.14947357 305.75078174 -1.13240139 307.53443909 -1.12042236 C312.21359659 -1.07475188 316.88823349 -0.95703463 321.56561279 -0.82397461 C326.34455192 -0.7008778 331.12422701 -0.64634117 335.90429688 -0.5859375 C345.2715102 -0.45750734 354.63537827 -0.25290543 364 0 C371.55949321 20.9029738 379.0968458 41.81329169 386.5625 62.75 C387.40365619 65.10728446 388.24488538 67.46454287 389.08618164 69.82177734 C390.83149189 74.71214171 392.57649503 79.6026155 394.32128906 84.49316406 C397.06425667 92.18087387 399.80919098 99.86788053 402.5546875 107.5546875 C402.78208303 108.19134842 403.00947857 108.82800934 403.24376488 109.48396301 C404.37080782 112.63942349 405.4978818 115.79487288 406.62496948 118.95031738 C407.90508055 122.5342355 409.18510523 126.11818446 410.46508789 129.70214844 C410.86378586 130.81827515 411.26248383 131.93440186 411.67326355 133.08435059 C412.43707382 135.22353486 413.20029052 137.36293118 413.96284485 139.50256348 C415.51857664 143.86604532 417.07828963 148.22750911 418.67236328 152.57714844 C418.79267159 152.90724411 418.79267159 152.90724411 419.40150452 154.57772827 C420.00563635 156.23203048 420.61495625 157.88443576 421.22485352 159.53662109 C422 162 422 162 422 165 C263.6 165 105.2 165 -58 165 C-55.75008535 154.87538409 -55.75008535 154.87538409 -54.25439453 150.72631836 C-53.91789886 149.78439133 -53.5814032 148.84246429 -53.23471069 147.87199402 C-52.87108429 146.87138443 -52.50745789 145.87077484 -52.1328125 144.83984375 C-51.93951859 144.30100807 -51.93951859 144.30100807 -50.96133423 141.57417297 C-49.68756571 138.02679154 -48.40627533 134.4821762 -47.125 130.9375 C-46.22502629 128.4354204 -45.32550942 125.93318232 -44.42675781 123.43066406 C-43.02902908 119.53984694 -41.63075873 115.64922849 -40.2298584 111.759552 C-37.06688928 102.9768996 -33.92116269 94.18825153 -30.7890625 85.39453125 C-30.3691806 84.21583969 -29.94929871 83.03714813 -29.51669312 81.82273865 C-28.67707885 79.46574053 -27.83746903 77.10874083 -26.99786377 74.7517395 C-18.10450879 49.79531943 -9.08105276 24.88881127 0 0 Z " fill="#000000" transform="translate(74,327)"/>
<path d="M0 0 C11.48341849 8.78561384 19.38996303 20.31823745 21.56640625 34.7578125 C23.12411174 49.54250855 20.10389328 62.74588615 10.9609375 74.65625 C2.56715195 84.50337651 -7.98693394 92.01369748 -21 94 C-38.38248121 95.04363322 -51.46522721 92.07777241 -65.40234375 81.109375 C-74.86235038 72.63579641 -81.10885676 59.65828469 -82 47 C-82.05671875 46.24589844 -82.1134375 45.49179688 -82.171875 44.71484375 C-82.66329842 30.78298992 -77.72292187 18.10382551 -68.6875 7.5625 C-50.48638446 -11.19296423 -21.90292371 -15.32029189 0 0 Z M-55.23046875 25.65625 C-60.57938573 32.74090825 -60.92973141 40.30857827 -60 49 C-58.12814171 56.61433881 -54.37324345 62.99938041 -47.859375 67.46875 C-39.18570596 72.54314141 -30.87006143 74.39698135 -21.0625 71.9375 C-13.06544525 69.30462351 -7.2238558 64.29707452 -2.97265625 57.08984375 C0.53583429 49.55152071 1.41440218 41.55597501 -0.65234375 33.4375 C-4.13449756 24.82925712 -10.61454231 17.96024484 -19 14 C-33.4319608 8.80884272 -45.74118851 14.47958341 -55.23046875 25.65625 Z " fill="#000000" transform="translate(286,111)"/>
</svg>
