<?xml version="1.0" encoding="UTF-8"?>
<!-- Generator: visioncortex VTracer 0.6.12 -->
<svg version="1.1" xmlns="http://www.w3.org/2000/svg" width="512" height="512">
<path d="M0 0 C1.1089003 -0.00445784 2.2178006 -0.00891569 3.36030394 -0.01350862 C4.57847081 -0.01332426 5.79663769 -0.01313989 7.05171871 -0.01294994 C7.69883177 -0.01478829 7.69883177 -0.01478829 10.97361606 -0.02409142 C14.56904394 -0.03410344 18.16445513 -0.03782693 21.75989497 -0.04048073 C25.63669742 -0.0443862 29.51348669 -0.05396442 33.39028072 -0.0626936 C42.75470722 -0.08245191 52.11913479 -0.09252374 61.48357692 -0.10142139 C65.89481022 -0.10580561 70.30604232 -0.1111721 74.71727467 -0.11641026 C89.38383294 -0.13342245 104.05039047 -0.14791601 118.71695709 -0.155159 C122.52263102 -0.15706885 126.32830494 -0.15898919 130.13397884 -0.16094494 C130.60691288 -0.16118681 130.60691288 -0.16118681 133.00024574 -0.16241082 C148.31826535 -0.17070883 163.6362068 -0.19604191 178.95419229 -0.22852562 C194.68527624 -0.261613 210.41632049 -0.27960931 226.14743942 -0.28280324 C234.97805498 -0.28496686 243.8085566 -0.29369373 252.63913822 -0.31926441 C260.16071091 -0.34099442 267.68214199 -0.34901056 275.20374251 -0.33929763 C279.03907345 -0.33475947 282.87411234 -0.33661059 286.70940304 -0.35605907 C290.87441249 -0.37699641 295.03877711 -0.36668447 299.20381832 -0.35352612 C299.80509423 -0.35901074 299.80509423 -0.35901074 302.84791476 -0.38676625 C314.14239462 -0.30078273 323.06242333 2.65647125 331.57221127 10.13422108 C332.17807064 10.63566639 332.78393002 11.1371117 333.40814877 11.65375233 C339.53520592 17.15205034 343.94415715 25.03892196 345.57221127 33.13422108 C345.66447775 34.94168363 345.70305531 36.75219695 345.70643234 38.56200981 C345.71089019 39.67091011 345.71534803 40.77981041 345.71994096 41.92231375 C345.71984878 42.53139719 345.71984878 42.53139719 345.71938229 45.61372852 C345.72305897 46.90795465 345.72673566 48.20218078 345.73052377 49.53562587 C345.74053578 53.13105375 345.74425928 56.72646494 345.74691308 60.32190478 C345.75081854 64.19870724 345.76039676 68.0754965 345.76912594 71.95229053 C345.78888425 81.31671703 345.79895609 90.6811446 345.80785373 100.04558674 C345.81223796 104.45682003 345.81760445 108.86805213 345.8228426 113.27928448 C345.83985479 127.94584275 345.85434835 142.61240028 345.86159134 157.2789669 C345.8635012 161.08464083 345.86542153 164.89031475 345.86737728 168.69598866 C345.86786102 169.64185673 345.86834476 170.58772481 345.86884316 171.56225555 C345.87714117 186.88027516 345.90247425 202.19821661 345.93495796 217.5162021 C345.96804534 233.24728605 345.98604165 248.97833031 345.98923558 264.70944923 C345.9913992 273.54006479 346.00012607 282.37056642 346.02569675 291.20114803 C346.04742676 298.72272073 346.0554429 306.2441518 346.04572997 313.76575232 C346.04119181 317.60108326 346.04304293 321.43612215 346.06249142 325.27141285 C346.08342875 329.4364223 346.07311681 333.60078692 346.05995846 337.76582813 C346.06544308 338.36710404 346.06544308 338.36710404 346.0931986 341.40992457 C346.00721507 352.70440443 343.04996109 361.62443314 335.57221127 370.13422108 C335.07076595 370.74008045 334.56932064 371.34593983 334.05268002 371.97015858 C328.554382 378.09721573 320.66751038 382.50616697 312.57221127 384.13422108 C310.76474871 384.22648756 308.95423539 384.26506512 307.14442253 384.26844215 C306.58997238 384.27067108 306.58997238 384.27067108 303.78411859 384.28195077 C302.56595172 384.28176641 301.34778484 384.28158205 300.09270382 384.2813921 C298.79847769 384.28506879 297.50425157 384.28874547 296.17080647 384.29253358 C292.57537859 384.30254559 288.97996741 384.30626909 285.38452756 384.30892289 C281.50772511 384.31282835 277.63093584 384.32240657 273.75414181 384.33113575 C264.38971531 384.35089406 255.02528774 384.3609659 245.66084561 384.36986354 C241.24961231 384.37424777 236.83838021 384.37961426 232.42714787 384.38485241 C217.76058959 384.4018646 203.09403206 384.41635816 188.42746544 384.42360115 C184.62179151 384.42551101 180.81611759 384.42743135 177.01044369 384.42938709 C176.53750965 384.42962896 176.53750965 384.42962896 174.14417679 384.43085297 C158.82615719 384.43915098 143.50821573 384.46448406 128.19023024 384.49696777 C112.45914629 384.53005516 96.72810204 384.54805146 80.99698311 384.55124539 C72.16636755 384.55340901 63.33586593 384.56213588 54.50528431 384.58770657 C46.98371162 384.60943657 39.46228054 384.61745272 31.94068002 384.60773978 C28.10534908 384.60320162 24.27031019 384.60505274 20.43501949 384.62450123 C16.27001004 384.64543856 12.10564542 384.63512662 7.94060421 384.62196827 C7.3393283 384.62745289 7.3393283 384.62745289 4.29650778 384.65520841 C-6.99797209 384.56922488 -15.9180008 381.6119709 -24.42778873 374.13422108 C-25.03364811 373.63277576 -25.63950748 373.13133045 -26.26372623 372.61468983 C-32.39078339 367.11639181 -36.79973462 359.22952019 -38.42778873 351.13422108 C-38.52005522 349.32675852 -38.55863278 347.5162452 -38.56200981 345.70643234 C-38.56646766 344.59753204 -38.5709255 343.48863174 -38.57551843 342.3461284 C-38.57533407 341.12796153 -38.5751497 339.90979465 -38.57495975 338.65471363 C-38.57863644 337.3604875 -38.58231313 336.06626138 -38.58610123 334.73281628 C-38.59611325 331.1373884 -38.59983675 327.54197722 -38.60249054 323.94653738 C-38.60639601 320.06973492 -38.61597423 316.19294565 -38.62470341 312.31615162 C-38.64446172 302.95172512 -38.65453355 293.58729755 -38.6634312 284.22285542 C-38.66781543 279.81162212 -38.67318191 275.40039003 -38.67842007 270.98915768 C-38.69543226 256.3225994 -38.70992582 241.65604187 -38.71716881 226.98947525 C-38.71907867 223.18380132 -38.720999 219.3781274 -38.72295475 215.5724535 C-38.72343849 214.62658542 -38.72392223 213.68071735 -38.72442063 212.7061866 C-38.73271864 197.388167 -38.75805172 182.07022554 -38.79053543 166.75224005 C-38.82362281 151.02115611 -38.84161912 135.29011185 -38.84481305 119.55899292 C-38.84697667 110.72837736 -38.85570354 101.89787574 -38.88127422 93.06729412 C-38.90300423 85.54572143 -38.91102037 78.02429035 -38.90130744 70.50268983 C-38.89676928 66.66735889 -38.8986204 62.83232 -38.91806889 58.9970293 C-38.93900622 54.83201985 -38.92869428 50.66765524 -38.91553593 46.50261402 C-38.92650517 45.3000622 -38.93747442 44.09751037 -38.94877607 42.85851759 C-38.86279254 31.56403772 -35.90553856 22.64400901 -28.42778873 14.13422108 C-27.92634342 13.5283617 -27.42489811 12.92250233 -26.90825748 12.29828358 C-20.05944917 4.6662782 -10.22812657 0.01908525 0 0 Z " fill="#020F16" transform="translate(102.42778873443604,63.86577892303467)"/>
<path d="M0 0 C1.1089003 -0.00445784 2.2178006 -0.00891569 3.36030394 -0.01350862 C4.57847081 -0.01332426 5.79663769 -0.01313989 7.05171871 -0.01294994 C7.69883177 -0.01478829 7.69883177 -0.01478829 10.97361606 -0.02409142 C14.56904394 -0.03410344 18.16445513 -0.03782693 21.75989497 -0.04048073 C25.63669742 -0.0443862 29.51348669 -0.05396442 33.39028072 -0.0626936 C42.75470722 -0.08245191 52.11913479 -0.09252374 61.48357692 -0.10142139 C65.89481022 -0.10580561 70.30604232 -0.1111721 74.71727467 -0.11641026 C89.38383294 -0.13342245 104.05039047 -0.14791601 118.71695709 -0.155159 C122.52263102 -0.15706885 126.32830494 -0.15898919 130.13397884 -0.16094494 C130.60691288 -0.16118681 130.60691288 -0.16118681 133.00024574 -0.16241082 C148.31826535 -0.17070883 163.6362068 -0.19604191 178.95419229 -0.22852562 C194.68527624 -0.261613 210.41632049 -0.27960931 226.14743942 -0.28280324 C234.97805498 -0.28496686 243.8085566 -0.29369373 252.63913822 -0.31926441 C260.16071091 -0.34099442 267.68214199 -0.34901056 275.20374251 -0.33929763 C279.03907345 -0.33475947 282.87411234 -0.33661059 286.70940304 -0.35605907 C290.87441249 -0.37699641 295.03877711 -0.36668447 299.20381832 -0.35352612 C299.80509423 -0.35901074 299.80509423 -0.35901074 302.84791476 -0.38676625 C314.14239462 -0.30078273 323.06242333 2.65647125 331.57221127 10.13422108 C332.17807064 10.63566639 332.78393002 11.1371117 333.40814877 11.65375233 C339.53520592 17.15205034 343.94415715 25.03892196 345.57221127 33.13422108 C345.66447775 34.94168363 345.70305531 36.75219695 345.70643234 38.56200981 C345.71089019 39.67091011 345.71534803 40.77981041 345.71994096 41.92231375 C345.71984878 42.53139719 345.71984878 42.53139719 345.71938229 45.61372852 C345.72305897 46.90795465 345.72673566 48.20218078 345.73052377 49.53562587 C345.74053578 53.13105375 345.74425928 56.72646494 345.74691308 60.32190478 C345.75081854 64.19870724 345.76039676 68.0754965 345.76912594 71.95229053 C345.78888425 81.31671703 345.79895609 90.6811446 345.80785373 100.04558674 C345.81223796 104.45682003 345.81760445 108.86805213 345.8228426 113.27928448 C345.83985479 127.94584275 345.85434835 142.61240028 345.86159134 157.2789669 C345.8635012 161.08464083 345.86542153 164.89031475 345.86737728 168.69598866 C345.86786102 169.64185673 345.86834476 170.58772481 345.86884316 171.56225555 C345.87714117 186.88027516 345.90247425 202.19821661 345.93495796 217.5162021 C345.96804534 233.24728605 345.98604165 248.97833031 345.98923558 264.70944923 C345.9913992 273.54006479 346.00012607 282.37056642 346.02569675 291.20114803 C346.04742676 298.72272073 346.0554429 306.2441518 346.04572997 313.76575232 C346.04119181 317.60108326 346.04304293 321.43612215 346.06249142 325.27141285 C346.08342875 329.4364223 346.07311681 333.60078692 346.05995846 337.76582813 C346.06544308 338.36710404 346.06544308 338.36710404 346.0931986 341.40992457 C346.00721507 352.70440443 343.04996109 361.62443314 335.57221127 370.13422108 C335.07076595 370.74008045 334.56932064 371.34593983 334.05268002 371.97015858 C328.554382 378.09721573 320.66751038 382.50616697 312.57221127 384.13422108 C310.76474871 384.22648756 308.95423539 384.26506512 307.14442253 384.26844215 C306.58997238 384.27067108 306.58997238 384.27067108 303.78411859 384.28195077 C302.56595172 384.28176641 301.34778484 384.28158205 300.09270382 384.2813921 C298.79847769 384.28506879 297.50425157 384.28874547 296.17080647 384.29253358 C292.57537859 384.30254559 288.97996741 384.30626909 285.38452756 384.30892289 C281.50772511 384.31282835 277.63093584 384.32240657 273.75414181 384.33113575 C264.38971531 384.35089406 255.02528774 384.3609659 245.66084561 384.36986354 C241.24961231 384.37424777 236.83838021 384.37961426 232.42714787 384.38485241 C217.76058959 384.4018646 203.09403206 384.41635816 188.42746544 384.42360115 C184.62179151 384.42551101 180.81611759 384.42743135 177.01044369 384.42938709 C176.53750965 384.42962896 176.53750965 384.42962896 174.14417679 384.43085297 C158.82615719 384.43915098 143.50821573 384.46448406 128.19023024 384.49696777 C112.45914629 384.53005516 96.72810204 384.54805146 80.99698311 384.55124539 C72.16636755 384.55340901 63.33586593 384.56213588 54.50528431 384.58770657 C46.98371162 384.60943657 39.46228054 384.61745272 31.94068002 384.60773978 C28.10534908 384.60320162 24.27031019 384.60505274 20.43501949 384.62450123 C16.27001004 384.64543856 12.10564542 384.63512662 7.94060421 384.62196827 C7.3393283 384.62745289 7.3393283 384.62745289 4.29650778 384.65520841 C-6.99797209 384.56922488 -15.9180008 381.6119709 -24.42778873 374.13422108 C-25.03364811 373.63277576 -25.63950748 373.13133045 -26.26372623 372.61468983 C-32.39078339 367.11639181 -36.79973462 359.22952019 -38.42778873 351.13422108 C-38.52005522 349.32675852 -38.55863278 347.5162452 -38.56200981 345.70643234 C-38.56646766 344.59753204 -38.5709255 343.48863174 -38.57551843 342.3461284 C-38.57533407 341.12796153 -38.5751497 339.90979465 -38.57495975 338.65471363 C-38.57863644 337.3604875 -38.58231313 336.06626138 -38.58610123 334.73281628 C-38.59611325 331.1373884 -38.59983675 327.54197722 -38.60249054 323.94653738 C-38.60639601 320.06973492 -38.61597423 316.19294565 -38.62470341 312.31615162 C-38.64446172 302.95172512 -38.65453355 293.58729755 -38.6634312 284.22285542 C-38.66781543 279.81162212 -38.67318191 275.40039003 -38.67842007 270.98915768 C-38.69543226 256.3225994 -38.70992582 241.65604187 -38.71716881 226.98947525 C-38.71907867 223.18380132 -38.720999 219.3781274 -38.72295475 215.5724535 C-38.72343849 214.62658542 -38.72392223 213.68071735 -38.72442063 212.7061866 C-38.73271864 197.388167 -38.75805172 182.07022554 -38.79053543 166.75224005 C-38.82362281 151.02115611 -38.84161912 135.29011185 -38.84481305 119.55899292 C-38.84697667 110.72837736 -38.85570354 101.89787574 -38.88127422 93.06729412 C-38.90300423 85.54572143 -38.91102037 78.02429035 -38.90130744 70.50268983 C-38.89676928 66.66735889 -38.8986204 62.83232 -38.91806889 58.9970293 C-38.93900622 54.83201985 -38.92869428 50.66765524 -38.91553593 46.50261402 C-38.92650517 45.3000622 -38.93747442 44.09751037 -38.94877607 42.85851759 C-38.86279254 31.56403772 -35.90553856 22.64400901 -28.42778873 14.13422108 C-27.92634342 13.5283617 -27.42489811 12.92250233 -26.90825748 12.29828358 C-20.05944917 4.6662782 -10.22812657 0.01908525 0 0 Z M-6.42778873 32.13422108 C-6.42778873 137.73422108 -6.42778873 243.33422108 -6.42778873 352.13422108 C99.17221127 352.13422108 204.77221127 352.13422108 313.57221127 352.13422108 C313.57221127 246.53422108 313.57221127 140.93422108 313.57221127 32.13422108 C207.97221127 32.13422108 102.37221127 32.13422108 -6.42778873 32.13422108 Z " fill="#02A8F4" transform="translate(102.42778873443604,63.86577892303467)"/>
<path d="M0 0 C74.09798593 0 74.09798593 0 87.34375 12.21484375 C100.09219909 25.95550704 101.75676471 40.29830641 101.17480469 58.23535156 C100.4261188 70.07629987 94.73674515 79.78139092 86.1875 87.8125 C73.88920865 97.84033757 60.63193935 98.31526176 45.3125 98.125 C40.589375 98.08375 35.86625 98.0425 31 98 C31 115.82 31 133.64 31 152 C20.77 152 10.54 152 0 152 C0 101.84 0 51.68 0 0 Z " fill="#02A6F1" transform="translate(161,179)"/>
<path d="M0 0 C5.48857418 4.51523098 9.26911609 10.15881852 11.37890625 16.95703125 C11.37890625 20.25703125 11.37890625 23.55703125 11.37890625 26.95703125 C1.80890625 26.95703125 -7.76109375 26.95703125 -17.62109375 26.95703125 C-18.28109375 24.31703125 -18.94109375 21.67703125 -19.62109375 18.95703125 C-21.12109375 16.45703125 -21.12109375 16.45703125 -23.62109375 14.95703125 C-28.72168793 14.05083431 -32.37307681 14.13334007 -36.74609375 17.01953125 C-39.1113217 20.72505503 -39.31608354 22.63265031 -38.62109375 26.95703125 C-35.44886378 32.1966512 -31.13745084 33.95747551 -25.74609375 36.33203125 C-24.0334669 37.1176459 -22.32123023 37.90411166 -20.609375 38.69140625 C-19.76455566 39.07490234 -18.91973633 39.45839844 -18.04931641 39.85351562 C5.63319394 50.61612841 5.63319394 50.61612841 11.37890625 63.95703125 C14.05550579 72.10693369 13.30605695 82.0120408 9.703125 89.7109375 C3.70912339 99.87775439 -4.75027055 105.05279987 -15.9296875 108.2265625 C-29.25240766 110.8629103 -42.78032666 109.42583723 -54.49609375 102.20703125 C-62.70583042 96.16249986 -67.85315641 88.84252173 -70.62109375 78.95703125 C-70.62109375 76.64703125 -70.62109375 74.33703125 -70.62109375 71.95703125 C-61.38109375 71.95703125 -52.14109375 71.95703125 -42.62109375 71.95703125 C-41.96109375 74.59703125 -41.30109375 77.23703125 -40.62109375 79.95703125 C-37.52431956 84.50541835 -37.52431956 84.50541835 -34.62109375 85.95703125 C-29.02698917 86.53544679 -24.24994376 86.95940049 -19.37109375 83.95703125 C-17.46752982 80.69377881 -17.03155398 78.71585865 -16.95703125 75.01953125 C-18.32795409 70.76160619 -21.96601376 68.32810064 -25.72387695 66.19946289 C-26.86171631 65.67731201 -27.99955566 65.15516113 -29.171875 64.6171875 C-29.78951218 64.32774765 -30.40714935 64.0383078 -31.04350281 63.74009705 C-33.00224511 62.82287252 -34.96697825 61.91973746 -36.93359375 61.01953125 C-50.1532941 54.95483181 -60.95239465 49.77992461 -66.99609375 35.76953125 C-68.53312785 26.39362326 -69.00814643 17.13211997 -63.62109375 8.95703125 C-48.57633584 -10.97192532 -20.54373233 -14.20418174 0 0 Z " fill="#02A7F1" transform="translate(347.62109375,224.04296875)"/>
<path d="M0 0 C27.95393474 0 27.95393474 0 34.05859375 6.03515625 C34.28611328 6.36966797 34.28611328 6.36966797 35.4375 8.0625 C35.91058594 8.73410156 36.38367188 9.40570313 36.87109375 10.09765625 C39.62194108 14.73316715 39.2920357 19.46452035 39.375 24.6875 C39.39369141 25.12416992 39.39369141 25.12416992 39.48828125 27.33398438 C39.5876176 34.72350509 37.35376095 39.04575498 32.64599609 44.59643555 C28.74419681 47.9235557 24.79989518 48.24433394 19.82421875 48.1953125 C19.30259155 48.19281494 19.30259155 48.19281494 16.6628418 48.18017578 C15.350979 48.16196777 14.03911621 48.14375977 12.6875 48.125 C8.500625 48.08375 4.31375 48.0425 0 48 C0 32.16 0 16.32 0 0 Z " fill="#02111A" transform="translate(192,204)"/>
</svg>
