<?xml version="1.0" encoding="UTF-8"?>
<!-- Generator: visioncortex VTracer 0.6.12 -->
<svg version="1.1" xmlns="http://www.w3.org/2000/svg" width="512" height="512">
<path d="M0 0 C1.1089003 -0.00445784 2.2178006 -0.00891569 3.36030394 -0.01350862 C4.57847081 -0.01332426 5.79663769 -0.01313989 7.05171871 -0.01294994 C7.69883177 -0.01478829 7.69883177 -0.01478829 10.97361606 -0.02409142 C14.56904394 -0.03410344 18.16445513 -0.03782693 21.75989497 -0.04048073 C25.63669742 -0.0443862 29.51348669 -0.05396442 33.39028072 -0.0626936 C42.75470722 -0.08245191 52.11913479 -0.09252374 61.48357692 -0.10142139 C65.89481022 -0.10580561 70.30604232 -0.1111721 74.71727467 -0.11641026 C89.38383294 -0.13342245 104.05039047 -0.14791601 118.71695709 -0.155159 C122.52263102 -0.15706885 126.32830494 -0.15898919 130.13397884 -0.16094494 C130.60691288 -0.16118681 130.60691288 -0.16118681 133.00024574 -0.16241082 C148.31826535 -0.17070883 163.6362068 -0.19604191 178.95419229 -0.22852562 C194.68527624 -0.261613 210.41632049 -0.27960931 226.14743942 -0.28280324 C234.97805498 -0.28496686 243.8085566 -0.29369373 252.63913822 -0.31926441 C260.16071091 -0.34099442 267.68214199 -0.34901056 275.20374251 -0.33929763 C279.03907345 -0.33475947 282.87411234 -0.33661059 286.70940304 -0.35605907 C290.87441249 -0.37699641 295.03877711 -0.36668447 299.20381832 -0.35352612 C299.80509423 -0.35901074 299.80509423 -0.35901074 302.84791476 -0.38676625 C314.14239462 -0.30078273 323.06242333 2.65647125 331.57221127 10.13422108 C332.17807064 10.63566639 332.78393002 11.1371117 333.40814877 11.65375233 C339.53520592 17.15205034 343.94415715 25.03892196 345.57221127 33.13422108 C345.66447775 34.94168363 345.70305531 36.75219695 345.70643234 38.56200981 C345.71089019 39.67091011 345.71534803 40.77981041 345.71994096 41.92231375 C345.71984878 42.53139719 345.71984878 42.53139719 345.71938229 45.61372852 C345.72305897 46.90795465 345.72673566 48.20218078 345.73052377 49.53562587 C345.74053578 53.13105375 345.74425928 56.72646494 345.74691308 60.32190478 C345.75081854 64.19870724 345.76039676 68.0754965 345.76912594 71.95229053 C345.78888425 81.31671703 345.79895609 90.6811446 345.80785373 100.04558674 C345.81223796 104.45682003 345.81760445 108.86805213 345.8228426 113.27928448 C345.83985479 127.94584275 345.85434835 142.61240028 345.86159134 157.2789669 C345.8635012 161.08464083 345.86542153 164.89031475 345.86737728 168.69598866 C345.86786102 169.64185673 345.86834476 170.58772481 345.86884316 171.56225555 C345.87714117 186.88027516 345.90247425 202.19821661 345.93495796 217.5162021 C345.96804534 233.24728605 345.98604165 248.97833031 345.98923558 264.70944923 C345.9913992 273.54006479 346.00012607 282.37056642 346.02569675 291.20114803 C346.04742676 298.72272073 346.0554429 306.2441518 346.04572997 313.76575232 C346.04119181 317.60108326 346.04304293 321.43612215 346.06249142 325.27141285 C346.08342875 329.4364223 346.07311681 333.60078692 346.05995846 337.76582813 C346.06544308 338.36710404 346.06544308 338.36710404 346.0931986 341.40992457 C346.00721507 352.70440443 343.04996109 361.62443314 335.57221127 370.13422108 C335.07076595 370.74008045 334.56932064 371.34593983 334.05268002 371.97015858 C328.554382 378.09721573 320.66751038 382.50616697 312.57221127 384.13422108 C310.76474871 384.22648756 308.95423539 384.26506512 307.14442253 384.26844215 C306.58997238 384.27067108 306.58997238 384.27067108 303.78411859 384.28195077 C302.56595172 384.28176641 301.34778484 384.28158205 300.09270382 384.2813921 C298.79847769 384.28506879 297.50425157 384.28874547 296.17080647 384.29253358 C292.57537859 384.30254559 288.97996741 384.30626909 285.38452756 384.30892289 C281.50772511 384.31282835 277.63093584 384.32240657 273.75414181 384.33113575 C264.38971531 384.35089406 255.02528774 384.3609659 245.66084561 384.36986354 C241.24961231 384.37424777 236.83838021 384.37961426 232.42714787 384.38485241 C217.76058959 384.4018646 203.09403206 384.41635816 188.42746544 384.42360115 C184.62179151 384.42551101 180.81611759 384.42743135 177.01044369 384.42938709 C176.53750965 384.42962896 176.53750965 384.42962896 174.14417679 384.43085297 C158.82615719 384.43915098 143.50821573 384.46448406 128.19023024 384.49696777 C112.45914629 384.53005516 96.72810204 384.54805146 80.99698311 384.55124539 C72.16636755 384.55340901 63.33586593 384.56213588 54.50528431 384.58770657 C46.98371162 384.60943657 39.46228054 384.61745272 31.94068002 384.60773978 C28.10534908 384.60320162 24.27031019 384.60505274 20.43501949 384.62450123 C16.27001004 384.64543856 12.10564542 384.63512662 7.94060421 384.62196827 C7.3393283 384.62745289 7.3393283 384.62745289 4.29650778 384.65520841 C-6.99797209 384.56922488 -15.9180008 381.6119709 -24.42778873 374.13422108 C-25.03364811 373.63277576 -25.63950748 373.13133045 -26.26372623 372.61468983 C-32.39078339 367.11639181 -36.79973462 359.22952019 -38.42778873 351.13422108 C-38.52005522 349.32675852 -38.55863278 347.5162452 -38.56200981 345.70643234 C-38.56646766 344.59753204 -38.5709255 343.48863174 -38.57551843 342.3461284 C-38.57533407 341.12796153 -38.5751497 339.90979465 -38.57495975 338.65471363 C-38.57863644 337.3604875 -38.58231313 336.06626138 -38.58610123 334.73281628 C-38.59611325 331.1373884 -38.59983675 327.54197722 -38.60249054 323.94653738 C-38.60639601 320.06973492 -38.61597423 316.19294565 -38.62470341 312.31615162 C-38.64446172 302.95172512 -38.65453355 293.58729755 -38.6634312 284.22285542 C-38.66781543 279.81162212 -38.67318191 275.40039003 -38.67842007 270.98915768 C-38.69543226 256.3225994 -38.70992582 241.65604187 -38.71716881 226.98947525 C-38.71907867 223.18380132 -38.720999 219.3781274 -38.72295475 215.5724535 C-38.72343849 214.62658542 -38.72392223 213.68071735 -38.72442063 212.7061866 C-38.73271864 197.388167 -38.75805172 182.07022554 -38.79053543 166.75224005 C-38.82362281 151.02115611 -38.84161912 135.29011185 -38.84481305 119.55899292 C-38.84697667 110.72837736 -38.85570354 101.89787574 -38.88127422 93.06729412 C-38.90300423 85.54572143 -38.91102037 78.02429035 -38.90130744 70.50268983 C-38.89676928 66.66735889 -38.8986204 62.83232 -38.91806889 58.9970293 C-38.93900622 54.83201985 -38.92869428 50.66765524 -38.91553593 46.50261402 C-38.92650517 45.3000622 -38.93747442 44.09751037 -38.94877607 42.85851759 C-38.86279254 31.56403772 -35.90553856 22.64400901 -28.42778873 14.13422108 C-27.92634342 13.5283617 -27.42489811 12.92250233 -26.90825748 12.29828358 C-20.05944917 4.6662782 -10.22812657 0.01908525 0 0 Z " fill="#1C0802" transform="translate(102.42778873443604,63.86577892303467)"/>
<path d="M0 0 C1.1089003 -0.00445784 2.2178006 -0.00891569 3.36030394 -0.01350862 C4.57847081 -0.01332426 5.79663769 -0.01313989 7.05171871 -0.01294994 C7.69883177 -0.01478829 7.69883177 -0.01478829 10.97361606 -0.02409142 C14.56904394 -0.03410344 18.16445513 -0.03782693 21.75989497 -0.04048073 C25.63669742 -0.0443862 29.51348669 -0.05396442 33.39028072 -0.0626936 C42.75470722 -0.08245191 52.11913479 -0.09252374 61.48357692 -0.10142139 C65.89481022 -0.10580561 70.30604232 -0.1111721 74.71727467 -0.11641026 C89.38383294 -0.13342245 104.05039047 -0.14791601 118.71695709 -0.155159 C122.52263102 -0.15706885 126.32830494 -0.15898919 130.13397884 -0.16094494 C130.60691288 -0.16118681 130.60691288 -0.16118681 133.00024574 -0.16241082 C148.31826535 -0.17070883 163.6362068 -0.19604191 178.95419229 -0.22852562 C194.68527624 -0.261613 210.41632049 -0.27960931 226.14743942 -0.28280324 C234.97805498 -0.28496686 243.8085566 -0.29369373 252.63913822 -0.31926441 C260.16071091 -0.34099442 267.68214199 -0.34901056 275.20374251 -0.33929763 C279.03907345 -0.33475947 282.87411234 -0.33661059 286.70940304 -0.35605907 C290.87441249 -0.37699641 295.03877711 -0.36668447 299.20381832 -0.35352612 C299.80509423 -0.35901074 299.80509423 -0.35901074 302.84791476 -0.38676625 C314.14239462 -0.30078273 323.06242333 2.65647125 331.57221127 10.13422108 C332.17807064 10.63566639 332.78393002 11.1371117 333.40814877 11.65375233 C339.53520592 17.15205034 343.94415715 25.03892196 345.57221127 33.13422108 C345.66447775 34.94168363 345.70305531 36.75219695 345.70643234 38.56200981 C345.71089019 39.67091011 345.71534803 40.77981041 345.71994096 41.92231375 C345.71984878 42.53139719 345.71984878 42.53139719 345.71938229 45.61372852 C345.72305897 46.90795465 345.72673566 48.20218078 345.73052377 49.53562587 C345.74053578 53.13105375 345.74425928 56.72646494 345.74691308 60.32190478 C345.75081854 64.19870724 345.76039676 68.0754965 345.76912594 71.95229053 C345.78888425 81.31671703 345.79895609 90.6811446 345.80785373 100.04558674 C345.81223796 104.45682003 345.81760445 108.86805213 345.8228426 113.27928448 C345.83985479 127.94584275 345.85434835 142.61240028 345.86159134 157.2789669 C345.8635012 161.08464083 345.86542153 164.89031475 345.86737728 168.69598866 C345.86786102 169.64185673 345.86834476 170.58772481 345.86884316 171.56225555 C345.87714117 186.88027516 345.90247425 202.19821661 345.93495796 217.5162021 C345.96804534 233.24728605 345.98604165 248.97833031 345.98923558 264.70944923 C345.9913992 273.54006479 346.00012607 282.37056642 346.02569675 291.20114803 C346.04742676 298.72272073 346.0554429 306.2441518 346.04572997 313.76575232 C346.04119181 317.60108326 346.04304293 321.43612215 346.06249142 325.27141285 C346.08342875 329.4364223 346.07311681 333.60078692 346.05995846 337.76582813 C346.06544308 338.36710404 346.06544308 338.36710404 346.0931986 341.40992457 C346.00721507 352.70440443 343.04996109 361.62443314 335.57221127 370.13422108 C335.07076595 370.74008045 334.56932064 371.34593983 334.05268002 371.97015858 C328.554382 378.09721573 320.66751038 382.50616697 312.57221127 384.13422108 C310.76474871 384.22648756 308.95423539 384.26506512 307.14442253 384.26844215 C306.58997238 384.27067108 306.58997238 384.27067108 303.78411859 384.28195077 C302.56595172 384.28176641 301.34778484 384.28158205 300.09270382 384.2813921 C298.79847769 384.28506879 297.50425157 384.28874547 296.17080647 384.29253358 C292.57537859 384.30254559 288.97996741 384.30626909 285.38452756 384.30892289 C281.50772511 384.31282835 277.63093584 384.32240657 273.75414181 384.33113575 C264.38971531 384.35089406 255.02528774 384.3609659 245.66084561 384.36986354 C241.24961231 384.37424777 236.83838021 384.37961426 232.42714787 384.38485241 C217.76058959 384.4018646 203.09403206 384.41635816 188.42746544 384.42360115 C184.62179151 384.42551101 180.81611759 384.42743135 177.01044369 384.42938709 C176.53750965 384.42962896 176.53750965 384.42962896 174.14417679 384.43085297 C158.82615719 384.43915098 143.50821573 384.46448406 128.19023024 384.49696777 C112.45914629 384.53005516 96.72810204 384.54805146 80.99698311 384.55124539 C72.16636755 384.55340901 63.33586593 384.56213588 54.50528431 384.58770657 C46.98371162 384.60943657 39.46228054 384.61745272 31.94068002 384.60773978 C28.10534908 384.60320162 24.27031019 384.60505274 20.43501949 384.62450123 C16.27001004 384.64543856 12.10564542 384.63512662 7.94060421 384.62196827 C7.3393283 384.62745289 7.3393283 384.62745289 4.29650778 384.65520841 C-6.99797209 384.56922488 -15.9180008 381.6119709 -24.42778873 374.13422108 C-25.03364811 373.63277576 -25.63950748 373.13133045 -26.26372623 372.61468983 C-32.39078339 367.11639181 -36.79973462 359.22952019 -38.42778873 351.13422108 C-38.52005522 349.32675852 -38.55863278 347.5162452 -38.56200981 345.70643234 C-38.56646766 344.59753204 -38.5709255 343.48863174 -38.57551843 342.3461284 C-38.57533407 341.12796153 -38.5751497 339.90979465 -38.57495975 338.65471363 C-38.57863644 337.3604875 -38.58231313 336.06626138 -38.58610123 334.73281628 C-38.59611325 331.1373884 -38.59983675 327.54197722 -38.60249054 323.94653738 C-38.60639601 320.06973492 -38.61597423 316.19294565 -38.62470341 312.31615162 C-38.64446172 302.95172512 -38.65453355 293.58729755 -38.6634312 284.22285542 C-38.66781543 279.81162212 -38.67318191 275.40039003 -38.67842007 270.98915768 C-38.69543226 256.3225994 -38.70992582 241.65604187 -38.71716881 226.98947525 C-38.71907867 223.18380132 -38.720999 219.3781274 -38.72295475 215.5724535 C-38.72343849 214.62658542 -38.72392223 213.68071735 -38.72442063 212.7061866 C-38.73271864 197.388167 -38.75805172 182.07022554 -38.79053543 166.75224005 C-38.82362281 151.02115611 -38.84161912 135.29011185 -38.84481305 119.55899292 C-38.84697667 110.72837736 -38.85570354 101.89787574 -38.88127422 93.06729412 C-38.90300423 85.54572143 -38.91102037 78.02429035 -38.90130744 70.50268983 C-38.89676928 66.66735889 -38.8986204 62.83232 -38.91806889 58.9970293 C-38.93900622 54.83201985 -38.92869428 50.66765524 -38.91553593 46.50261402 C-38.92650517 45.3000622 -38.93747442 44.09751037 -38.94877607 42.85851759 C-38.86279254 31.56403772 -35.90553856 22.64400901 -28.42778873 14.13422108 C-27.92634342 13.5283617 -27.42489811 12.92250233 -26.90825748 12.29828358 C-20.05944917 4.6662782 -10.22812657 0.01908525 0 0 Z M-6.42778873 32.13422108 C-6.42778873 137.73422108 -6.42778873 243.33422108 -6.42778873 352.13422108 C99.17221127 352.13422108 204.77221127 352.13422108 313.57221127 352.13422108 C313.57221127 246.53422108 313.57221127 140.93422108 313.57221127 32.13422108 C207.97221127 32.13422108 102.37221127 32.13422108 -6.42778873 32.13422108 Z " fill="#FF5621" transform="translate(102.42778873443604,63.86577892303467)"/>
<path d="M0 0 C9.57 0 19.14 0 29 0 C30.340625 3.980625 31.68125 7.96125 33.0625 12.0625 C33.46863525 13.26269775 33.87477051 14.46289551 34.29321289 15.69946289 C37.08988358 24.04932825 39.6748002 32.45443175 42.22189331 40.88352966 C45.5901816 52.00253619 49.13688236 63.06315123 52.6875 74.125 C53.9840442 78.16896018 55.27959017 82.21323866 56.57421875 86.2578125 C56.88015961 87.21343079 57.18610046 88.16904907 57.50131226 89.15362549 C59.42262612 95.16501253 61.30560337 101.18600866 63.14770508 107.22216797 C64.56052087 111.82687095 66.03225712 116.41257587 67.5 121 C68.10707284 122.90745599 68.71384501 124.8150077 69.3203125 126.72265625 C70.31030676 129.83620484 71.30473023 132.94823381 72.3046875 136.05859375 C72.65789062 137.17363281 73.01109375 138.28867187 73.375 139.4375 C73.67148437 140.36433594 73.96796875 141.29117188 74.2734375 142.24609375 C75.11574127 145.43869674 75.53304841 148.73133886 76 152 C65.11 152 54.22 152 43 152 C42.030625 147.99875 41.06125 143.9975 40.0625 139.875 C39.75836182 138.62444824 39.45422363 137.37389648 39.14086914 136.08544922 C38.89973389 135.08529785 38.65859863 134.08514648 38.41015625 133.0546875 C38.16402588 132.03874512 37.91789551 131.02280273 37.66430664 129.97607422 C37.00137101 127.00614208 36.50026967 124.00161803 36 121 C21.81 121 7.62 121 -7 121 C-7.33 123.64 -7.66 126.28 -8 129 C-8.42837678 130.94713855 -8.89577207 132.88629541 -9.41015625 134.8125 C-9.6512915 135.72644531 -9.89242676 136.64039063 -10.14086914 137.58203125 C-10.44500732 138.70996094 -10.74914551 139.83789062 -11.0625 141 C-12.031875 144.63 -13.00125 148.26 -14 152 C-24.89 152 -35.78 152 -47 152 C-45.29126643 145.73464359 -43.60380538 139.55749347 -41.66601562 133.37548828 C-41.45189813 132.69042458 -41.23778063 132.00536087 -41.01717472 131.29953766 C-40.31541453 129.05586862 -39.61083838 126.81309482 -38.90625 124.5703125 C-38.40117587 122.95728283 -37.89629282 121.34419332 -37.3915863 119.73104858 C-36.31922574 116.30479997 -35.24566604 112.87893048 -34.17111206 109.45336914 C-32.48912338 104.09127874 -30.80980874 98.72835351 -29.13110352 93.36523438 C-28.56404227 91.55364955 -27.99697989 89.74206508 -27.42991638 87.93048096 C-27.14850737 87.03145302 -26.86709835 86.13242508 -26.57716179 85.20615387 C-25.72079154 82.47060595 -24.86415859 79.73514042 -24.00746155 76.99969482 C-18.84124864 60.50250632 -13.69555516 43.99896172 -8.55783081 27.49288177 C-7.93657911 25.49704155 -7.31523072 23.50123146 -6.69384766 21.50543213 C-6.59242966 21.17968987 -6.59242966 21.17968987 -6.07919312 19.53123665 C-5.8841922 18.90491781 -5.68919128 18.27859898 -5.48828125 17.63330078 C-3.65837253 11.75568357 -1.82919421 5.87783978 0 0 Z " fill="#FB5521" transform="translate(209,179)"/>
<path d="M0 0 C9.9 0 19.8 0 30 0 C30 37.29 30 74.58 30 113 C20.1 113 10.2 113 0 113 C0 75.71 0 38.42 0 0 Z " fill="#FA5521" transform="translate(299,218)"/>
<path d="M0 0 C4.07881561 1.64655705 7.04734955 3.95803857 10 7.1875 C11.94267184 12.65126456 11.75347957 17.96560516 9.75 23.375 C7.23835644 27.14246535 5.34933967 29.55022011 1 31 C-9.70321571 32.1426406 -9.70321571 32.1426406 -14.33984375 29.8359375 C-18.4351456 26.45926156 -20.6221209 23.22696753 -21.24609375 17.8984375 C-21.54935107 12.40304733 -20.69347534 9.29241728 -17 5 C-11.40727103 0.0730721 -7.38524459 -0.95954273 0 0 Z " fill="#FA5521" transform="translate(319,173)"/>
<path d="M0 0 C2.24243106 3.36364659 3.1547798 6.58846484 4.1875 10.4375 C4.39528076 11.2001416 4.60306152 11.9627832 4.81713867 12.74853516 C6.88901924 20.43809695 8.85709375 28.1551415 10.8125 35.875 C11.12662842 37.10532959 11.44075684 38.33565918 11.7644043 39.60327148 C12.05484619 40.76286377 12.34528809 41.92245605 12.64453125 43.1171875 C12.90596924 44.15472168 13.16740723 45.19225586 13.43676758 46.26123047 C14 49 14 49 14 53 C5.09 53 -3.82 53 -13 53 C-11.68154468 45.08926809 -10.26359089 37.56886687 -8.1875 29.875 C-8.05754639 29.38511597 -8.05754639 29.38511597 -7.39990234 26.90600586 C-5.00539851 17.91750773 -2.52589093 8.95238335 0 0 Z " fill="#200902" transform="translate(223,221)"/>
</svg>
