<?xml version="1.0" encoding="UTF-8"?>
<!-- Generator: visioncortex VTracer 0.6.12 -->
<svg version="1.1" xmlns="http://www.w3.org/2000/svg" width="512" height="512">
<path d="M0 0 C1.1089003 -0.00445784 2.2178006 -0.00891569 3.36030394 -0.01350862 C4.57847081 -0.01332426 5.79663769 -0.01313989 7.05171871 -0.01294994 C7.69883177 -0.01478829 7.69883177 -0.01478829 10.97361606 -0.02409142 C14.56904394 -0.03410344 18.16445513 -0.03782693 21.75989497 -0.04048073 C25.63669742 -0.0443862 29.51348669 -0.05396442 33.39028072 -0.0626936 C42.75470722 -0.08245191 52.11913479 -0.09252374 61.48357692 -0.10142139 C65.89481022 -0.10580561 70.30604232 -0.1111721 74.71727467 -0.11641026 C89.38383294 -0.13342245 104.05039047 -0.14791601 118.71695709 -0.155159 C122.52263102 -0.15706885 126.32830494 -0.15898919 130.13397884 -0.16094494 C130.60691288 -0.16118681 130.60691288 -0.16118681 133.00024574 -0.16241082 C148.31826535 -0.17070883 163.6362068 -0.19604191 178.95419229 -0.22852562 C194.68527624 -0.261613 210.41632049 -0.27960931 226.14743942 -0.28280324 C234.97805498 -0.28496686 243.8085566 -0.29369373 252.63913822 -0.31926441 C260.16071091 -0.34099442 267.68214199 -0.34901056 275.20374251 -0.33929763 C279.03907345 -0.33475947 282.87411234 -0.33661059 286.70940304 -0.35605907 C290.87441249 -0.37699641 295.03877711 -0.36668447 299.20381832 -0.35352612 C299.80509423 -0.35901074 299.80509423 -0.35901074 302.84791476 -0.38676625 C314.14239462 -0.30078273 323.06242333 2.65647125 331.57221127 10.13422108 C332.17807064 10.63566639 332.78393002 11.1371117 333.40814877 11.65375233 C339.53520592 17.15205034 343.94415715 25.03892196 345.57221127 33.13422108 C345.66447775 34.94168363 345.70305531 36.75219695 345.70643234 38.56200981 C345.71089019 39.67091011 345.71534803 40.77981041 345.71994096 41.92231375 C345.71984878 42.53139719 345.71984878 42.53139719 345.71938229 45.61372852 C345.72305897 46.90795465 345.72673566 48.20218078 345.73052377 49.53562587 C345.74053578 53.13105375 345.74425928 56.72646494 345.74691308 60.32190478 C345.75081854 64.19870724 345.76039676 68.0754965 345.76912594 71.95229053 C345.78888425 81.31671703 345.79895609 90.6811446 345.80785373 100.04558674 C345.81223796 104.45682003 345.81760445 108.86805213 345.8228426 113.27928448 C345.83985479 127.94584275 345.85434835 142.61240028 345.86159134 157.2789669 C345.8635012 161.08464083 345.86542153 164.89031475 345.86737728 168.69598866 C345.86786102 169.64185673 345.86834476 170.58772481 345.86884316 171.56225555 C345.87714117 186.88027516 345.90247425 202.19821661 345.93495796 217.5162021 C345.96804534 233.24728605 345.98604165 248.97833031 345.98923558 264.70944923 C345.9913992 273.54006479 346.00012607 282.37056642 346.02569675 291.20114803 C346.04742676 298.72272073 346.0554429 306.2441518 346.04572997 313.76575232 C346.04119181 317.60108326 346.04304293 321.43612215 346.06249142 325.27141285 C346.08342875 329.4364223 346.07311681 333.60078692 346.05995846 337.76582813 C346.06544308 338.36710404 346.06544308 338.36710404 346.0931986 341.40992457 C346.00721507 352.70440443 343.04996109 361.62443314 335.57221127 370.13422108 C335.07076595 370.74008045 334.56932064 371.34593983 334.05268002 371.97015858 C328.554382 378.09721573 320.66751038 382.50616697 312.57221127 384.13422108 C310.76474871 384.22648756 308.95423539 384.26506512 307.14442253 384.26844215 C306.58997238 384.27067108 306.58997238 384.27067108 303.78411859 384.28195077 C302.56595172 384.28176641 301.34778484 384.28158205 300.09270382 384.2813921 C298.79847769 384.28506879 297.50425157 384.28874547 296.17080647 384.29253358 C292.57537859 384.30254559 288.97996741 384.30626909 285.38452756 384.30892289 C281.50772511 384.31282835 277.63093584 384.32240657 273.75414181 384.33113575 C264.38971531 384.35089406 255.02528774 384.3609659 245.66084561 384.36986354 C241.24961231 384.37424777 236.83838021 384.37961426 232.42714787 384.38485241 C217.76058959 384.4018646 203.09403206 384.41635816 188.42746544 384.42360115 C184.62179151 384.42551101 180.81611759 384.42743135 177.01044369 384.42938709 C176.53750965 384.42962896 176.53750965 384.42962896 174.14417679 384.43085297 C158.82615719 384.43915098 143.50821573 384.46448406 128.19023024 384.49696777 C112.45914629 384.53005516 96.72810204 384.54805146 80.99698311 384.55124539 C72.16636755 384.55340901 63.33586593 384.56213588 54.50528431 384.58770657 C46.98371162 384.60943657 39.46228054 384.61745272 31.94068002 384.60773978 C28.10534908 384.60320162 24.27031019 384.60505274 20.43501949 384.62450123 C16.27001004 384.64543856 12.10564542 384.63512662 7.94060421 384.62196827 C7.3393283 384.62745289 7.3393283 384.62745289 4.29650778 384.65520841 C-6.99797209 384.56922488 -15.9180008 381.6119709 -24.42778873 374.13422108 C-25.03364811 373.63277576 -25.63950748 373.13133045 -26.26372623 372.61468983 C-32.39078339 367.11639181 -36.79973462 359.22952019 -38.42778873 351.13422108 C-38.52005522 349.32675852 -38.55863278 347.5162452 -38.56200981 345.70643234 C-38.56646766 344.59753204 -38.5709255 343.48863174 -38.57551843 342.3461284 C-38.57533407 341.12796153 -38.5751497 339.90979465 -38.57495975 338.65471363 C-38.57863644 337.3604875 -38.58231313 336.06626138 -38.58610123 334.73281628 C-38.59611325 331.1373884 -38.59983675 327.54197722 -38.60249054 323.94653738 C-38.60639601 320.06973492 -38.61597423 316.19294565 -38.62470341 312.31615162 C-38.64446172 302.95172512 -38.65453355 293.58729755 -38.6634312 284.22285542 C-38.66781543 279.81162212 -38.67318191 275.40039003 -38.67842007 270.98915768 C-38.69543226 256.3225994 -38.70992582 241.65604187 -38.71716881 226.98947525 C-38.71907867 223.18380132 -38.720999 219.3781274 -38.72295475 215.5724535 C-38.72343849 214.62658542 -38.72392223 213.68071735 -38.72442063 212.7061866 C-38.73271864 197.388167 -38.75805172 182.07022554 -38.79053543 166.75224005 C-38.82362281 151.02115611 -38.84161912 135.29011185 -38.84481305 119.55899292 C-38.84697667 110.72837736 -38.85570354 101.89787574 -38.88127422 93.06729412 C-38.90300423 85.54572143 -38.91102037 78.02429035 -38.90130744 70.50268983 C-38.89676928 66.66735889 -38.8986204 62.83232 -38.91806889 58.9970293 C-38.93900622 54.83201985 -38.92869428 50.66765524 -38.91553593 46.50261402 C-38.92650517 45.3000622 -38.93747442 44.09751037 -38.94877607 42.85851759 C-38.86279254 31.56403772 -35.90553856 22.64400901 -28.42778873 14.13422108 C-27.92634342 13.5283617 -27.42489811 12.92250233 -26.90825748 12.29828358 C-20.05944917 4.6662782 -10.22812657 0.01908525 0 0 Z " fill="#170B40" transform="translate(102.42778873443604,63.86577892303467)"/>
<path d="M0 0 C1.1089003 -0.00445784 2.2178006 -0.00891569 3.36030394 -0.01350862 C4.57847081 -0.01332426 5.79663769 -0.01313989 7.05171871 -0.01294994 C7.69883177 -0.01478829 7.69883177 -0.01478829 10.97361606 -0.02409142 C14.56904394 -0.03410344 18.16445513 -0.03782693 21.75989497 -0.04048073 C25.63669742 -0.0443862 29.51348669 -0.05396442 33.39028072 -0.0626936 C42.75470722 -0.08245191 52.11913479 -0.09252374 61.48357692 -0.10142139 C65.89481022 -0.10580561 70.30604232 -0.1111721 74.71727467 -0.11641026 C89.38383294 -0.13342245 104.05039047 -0.14791601 118.71695709 -0.155159 C122.52263102 -0.15706885 126.32830494 -0.15898919 130.13397884 -0.16094494 C130.60691288 -0.16118681 130.60691288 -0.16118681 133.00024574 -0.16241082 C148.31826535 -0.17070883 163.6362068 -0.19604191 178.95419229 -0.22852562 C194.68527624 -0.261613 210.41632049 -0.27960931 226.14743942 -0.28280324 C234.97805498 -0.28496686 243.8085566 -0.29369373 252.63913822 -0.31926441 C260.16071091 -0.34099442 267.68214199 -0.34901056 275.20374251 -0.33929763 C279.03907345 -0.33475947 282.87411234 -0.33661059 286.70940304 -0.35605907 C290.87441249 -0.37699641 295.03877711 -0.36668447 299.20381832 -0.35352612 C299.80509423 -0.35901074 299.80509423 -0.35901074 302.84791476 -0.38676625 C314.14239462 -0.30078273 323.06242333 2.65647125 331.57221127 10.13422108 C332.17807064 10.63566639 332.78393002 11.1371117 333.40814877 11.65375233 C339.53520592 17.15205034 343.94415715 25.03892196 345.57221127 33.13422108 C345.66447775 34.94168363 345.70305531 36.75219695 345.70643234 38.56200981 C345.71089019 39.67091011 345.71534803 40.77981041 345.71994096 41.92231375 C345.71984878 42.53139719 345.71984878 42.53139719 345.71938229 45.61372852 C345.72305897 46.90795465 345.72673566 48.20218078 345.73052377 49.53562587 C345.74053578 53.13105375 345.74425928 56.72646494 345.74691308 60.32190478 C345.75081854 64.19870724 345.76039676 68.0754965 345.76912594 71.95229053 C345.78888425 81.31671703 345.79895609 90.6811446 345.80785373 100.04558674 C345.81223796 104.45682003 345.81760445 108.86805213 345.8228426 113.27928448 C345.83985479 127.94584275 345.85434835 142.61240028 345.86159134 157.2789669 C345.8635012 161.08464083 345.86542153 164.89031475 345.86737728 168.69598866 C345.86786102 169.64185673 345.86834476 170.58772481 345.86884316 171.56225555 C345.87714117 186.88027516 345.90247425 202.19821661 345.93495796 217.5162021 C345.96804534 233.24728605 345.98604165 248.97833031 345.98923558 264.70944923 C345.9913992 273.54006479 346.00012607 282.37056642 346.02569675 291.20114803 C346.04742676 298.72272073 346.0554429 306.2441518 346.04572997 313.76575232 C346.04119181 317.60108326 346.04304293 321.43612215 346.06249142 325.27141285 C346.08342875 329.4364223 346.07311681 333.60078692 346.05995846 337.76582813 C346.06544308 338.36710404 346.06544308 338.36710404 346.0931986 341.40992457 C346.00721507 352.70440443 343.04996109 361.62443314 335.57221127 370.13422108 C335.07076595 370.74008045 334.56932064 371.34593983 334.05268002 371.97015858 C328.554382 378.09721573 320.66751038 382.50616697 312.57221127 384.13422108 C310.76474871 384.22648756 308.95423539 384.26506512 307.14442253 384.26844215 C306.58997238 384.27067108 306.58997238 384.27067108 303.78411859 384.28195077 C302.56595172 384.28176641 301.34778484 384.28158205 300.09270382 384.2813921 C298.79847769 384.28506879 297.50425157 384.28874547 296.17080647 384.29253358 C292.57537859 384.30254559 288.97996741 384.30626909 285.38452756 384.30892289 C281.50772511 384.31282835 277.63093584 384.32240657 273.75414181 384.33113575 C264.38971531 384.35089406 255.02528774 384.3609659 245.66084561 384.36986354 C241.24961231 384.37424777 236.83838021 384.37961426 232.42714787 384.38485241 C217.76058959 384.4018646 203.09403206 384.41635816 188.42746544 384.42360115 C184.62179151 384.42551101 180.81611759 384.42743135 177.01044369 384.42938709 C176.53750965 384.42962896 176.53750965 384.42962896 174.14417679 384.43085297 C158.82615719 384.43915098 143.50821573 384.46448406 128.19023024 384.49696777 C112.45914629 384.53005516 96.72810204 384.54805146 80.99698311 384.55124539 C72.16636755 384.55340901 63.33586593 384.56213588 54.50528431 384.58770657 C46.98371162 384.60943657 39.46228054 384.61745272 31.94068002 384.60773978 C28.10534908 384.60320162 24.27031019 384.60505274 20.43501949 384.62450123 C16.27001004 384.64543856 12.10564542 384.63512662 7.94060421 384.62196827 C7.3393283 384.62745289 7.3393283 384.62745289 4.29650778 384.65520841 C-6.99797209 384.56922488 -15.9180008 381.6119709 -24.42778873 374.13422108 C-25.03364811 373.63277576 -25.63950748 373.13133045 -26.26372623 372.61468983 C-32.39078339 367.11639181 -36.79973462 359.22952019 -38.42778873 351.13422108 C-38.52005522 349.32675852 -38.55863278 347.5162452 -38.56200981 345.70643234 C-38.56646766 344.59753204 -38.5709255 343.48863174 -38.57551843 342.3461284 C-38.57533407 341.12796153 -38.5751497 339.90979465 -38.57495975 338.65471363 C-38.57863644 337.3604875 -38.58231313 336.06626138 -38.58610123 334.73281628 C-38.59611325 331.1373884 -38.59983675 327.54197722 -38.60249054 323.94653738 C-38.60639601 320.06973492 -38.61597423 316.19294565 -38.62470341 312.31615162 C-38.64446172 302.95172512 -38.65453355 293.58729755 -38.6634312 284.22285542 C-38.66781543 279.81162212 -38.67318191 275.40039003 -38.67842007 270.98915768 C-38.69543226 256.3225994 -38.70992582 241.65604187 -38.71716881 226.98947525 C-38.71907867 223.18380132 -38.720999 219.3781274 -38.72295475 215.5724535 C-38.72343849 214.62658542 -38.72392223 213.68071735 -38.72442063 212.7061866 C-38.73271864 197.388167 -38.75805172 182.07022554 -38.79053543 166.75224005 C-38.82362281 151.02115611 -38.84161912 135.29011185 -38.84481305 119.55899292 C-38.84697667 110.72837736 -38.85570354 101.89787574 -38.88127422 93.06729412 C-38.90300423 85.54572143 -38.91102037 78.02429035 -38.90130744 70.50268983 C-38.89676928 66.66735889 -38.8986204 62.83232 -38.91806889 58.9970293 C-38.93900622 54.83201985 -38.92869428 50.66765524 -38.91553593 46.50261402 C-38.92650517 45.3000622 -38.93747442 44.09751037 -38.94877607 42.85851759 C-38.86279254 31.56403772 -35.90553856 22.64400901 -28.42778873 14.13422108 C-27.92634342 13.5283617 -27.42489811 12.92250233 -26.90825748 12.29828358 C-20.05944917 4.6662782 -10.22812657 0.01908525 0 0 Z M-6.42778873 32.13422108 C-6.42778873 137.73422108 -6.42778873 243.33422108 -6.42778873 352.13422108 C99.17221127 352.13422108 204.77221127 352.13422108 313.57221127 352.13422108 C313.57221127 246.53422108 313.57221127 140.93422108 313.57221127 32.13422108 C207.97221127 32.13422108 102.37221127 32.13422108 -6.42778873 32.13422108 Z " fill="#B288FF" transform="translate(102.42778873443604,63.86577892303467)"/>
<path d="M0 0 C1.084021 0.00523682 2.16804199 0.01047363 3.28491211 0.01586914 C4.45473633 0.0190918 5.62456055 0.02231445 6.82983398 0.02563477 C8.0615332 0.03401367 9.29323242 0.04239258 10.56225586 0.05102539 C11.18003906 0.05328125 11.18003906 0.05328125 14.30639648 0.06469727 C17.37089703 0.07652931 20.43530307 0.09301366 23.49975586 0.11352539 C23.74206436 0.83236404 23.98437286 1.5512027 24.23402405 2.29182434 C44.94634189 63.72560145 44.94634189 63.72560145 53.56225586 88.30102539 C53.85610168 89.1394397 54.14994751 89.977854 54.45269775 90.8416748 C55.03740639 92.50985343 55.62213317 94.1780257 56.20687866 95.84619141 C56.49173126 96.65886475 56.77658386 97.47153809 57.07006836 98.30883789 C57.35000641 99.10733154 57.62994446 99.9058252 57.91836548 100.72851562 C60.99459262 109.51159967 64.03417326 118.30721949 67.05563354 127.10928345 C67.63761682 128.80366079 68.22070408 130.49765938 68.80496216 132.19125366 C69.60079289 134.49895113 70.39266951 136.80796523 71.18334961 139.11743164 C71.42000336 139.80155121 71.6566571 140.48567078 71.90048218 141.19052124 C73.49975586 145.88450811 73.49975586 145.88450811 73.49975586 148.11352539 C63.59975586 148.11352539 53.69975586 148.11352539 43.49975586 148.11352539 C41.00981034 140.71285399 38.53021081 133.31227464 36.18725586 125.86352539 C35.86112305 124.82711914 35.53499023 123.79071289 35.19897461 122.72290039 C34.49975586 120.11352539 34.49975586 120.11352539 34.49975586 117.11352539 C18.32975586 117.11352539 2.15975586 117.11352539 -14.50024414 117.11352539 C-15.16024414 120.08352539 -15.82024414 123.05352539 -16.50024414 126.11352539 C-17.30742069 129.04212748 -18.1320426 131.95373476 -19.00024414 134.86352539 C-19.21293945 135.5918457 -19.42563477 136.32016602 -19.64477539 137.07055664 C-20.76892972 140.87061206 -22.01941575 144.41145441 -23.50024414 148.11352539 C-33.07024414 148.11352539 -42.64024414 148.11352539 -52.50024414 148.11352539 C-51.19618156 142.24524377 -49.8554338 136.76039118 -47.92504883 131.12329102 C-47.6741449 130.37828842 -47.42324097 129.63328583 -47.16473389 128.8657074 C-46.33830722 126.41553558 -45.50527567 123.96766612 -44.67211914 121.51977539 C-44.08035939 119.77011074 -43.48899847 118.02031115 -42.89801025 116.27038574 C-41.33591028 111.6487486 -39.7681338 107.0290563 -38.19921875 102.409729 C-36.65791912 97.86820855 -35.12237958 93.3247422 -33.58618164 88.78149414 C-29.90129031 77.88862615 -26.20349484 67.00016409 -22.50024414 56.11352539 C-22.1823996 55.17905579 -21.86455505 54.24458618 -21.53707886 53.28179932 C-19.62624229 47.66481573 -17.71362153 42.04844373 -15.79880524 36.43281555 C-15.20438407 34.68933663 -14.61025158 32.94575924 -14.01644135 31.20207214 C-11.26560202 23.12642084 -8.50439453 15.05444568 -5.66333008 7.01000977 C-5.26853455 5.89057983 -4.87373901 4.7711499 -4.46697998 3.61779785 C-3.12516323 0.14190029 -3.12516323 0.14190029 0 0 Z " fill="#B086FC" transform="translate(191.500244140625,180.886474609375)"/>
<path d="M0 0 C7.93883615 7.0173641 11.57165293 17.58348672 14.0625 27.546875 C14.0625 36.786875 14.0625 46.026875 14.0625 55.546875 C-6.7275 55.546875 -27.5175 55.546875 -48.9375 55.546875 C-45.86929428 65.77422741 -43.14869596 72.42954391 -33.9375 77.546875 C-26.16305608 80.13835631 -17.90356219 78.90272533 -10.4296875 75.90234375 C-6.54276308 73.78829552 -3.73086485 70.94086096 -0.9375 67.546875 C3.93322783 72.11318234 7.95406398 77.29664039 12.0625 82.546875 C9.33337931 90.14942549 4.37274187 94.10170945 -2.6875 97.796875 C-16.32907982 104.12683884 -29.44340312 105.797733 -43.89453125 100.81640625 C-57.94239036 94.95561779 -67.01532676 85.45110783 -72.9375 71.546875 C-79.03969462 53.56145927 -77.50056313 31.13950426 -69.3125 14.171875 C-63.03545697 2.00837988 -54.00628701 -5.1279031 -41.1875 -9.828125 C-25.6211718 -12.93498474 -12.44433047 -9.33324785 0 0 Z " fill="#B186FC" transform="translate(347.9375,227.453125)"/>
<path d="M0 0 C2.90040522 2.90040522 3.46721953 6.4590425 4.5625 10.3125 C6.44139227 16.77521015 8.36675856 23.21902202 10.39453125 29.63671875 C10.59939651 30.28707596 10.80426178 30.93743317 11.01533508 31.60749817 C11.83865497 34.22053311 12.66212317 36.83346326 13.49563599 39.44326782 C14.0828915 41.28348442 14.66267888 43.12607913 15.2421875 44.96875 C15.5810498 46.03544922 15.91991211 47.10214844 16.26904297 48.20117188 C17 51 17 51 17 55 C6.11 55 -4.78 55 -16 55 C-14.7559156 48.77957802 -13.59362607 43.25439787 -11.6875 37.3125 C-11.4716626 36.63461426 -11.2558252 35.95672852 -11.03344727 35.25830078 C-9.54721658 30.61497375 -7.99505985 25.99479942 -6.4375 21.375 C-4.05911519 14.30758438 -1.98221459 7.18691213 0 0 Z " fill="#1B0E45" transform="translate(201,219)"/>
<path d="M0 0 C5.88132543 2.25812278 8.20814129 6.06862632 10.92578125 11.50390625 C10.92578125 14.80390625 10.92578125 18.10390625 10.92578125 21.50390625 C-0.95421875 21.50390625 -12.83421875 21.50390625 -25.07421875 21.50390625 C-24.04984337 12.2845278 -23.04456921 8.10492179 -16.38671875 2.06640625 C-11.35708024 -1.33199815 -5.88309768 -1.40706856 0 0 Z " fill="#180C41" transform="translate(325.07421875,241.49609375)"/>
<path d="M0 0 C0.66 1.32 1.32 2.64 2 4 C1.01 4 0.02 4 -1 4 C-0.67 2.68 -0.34 1.36 0 0 Z " fill="#432E76" transform="translate(201,219)"/>
</svg>
