<?xml version="1.0" encoding="UTF-8"?>
<!-- Generator: visioncortex VTracer 0.6.12 -->
<svg version="1.1" xmlns="http://www.w3.org/2000/svg" width="512" height="512">
<path d="M0 0 C0.91523438 -0.00257812 1.83046875 -0.00515625 2.7734375 -0.0078125 C3.25039062 -0.00394531 3.25039062 -0.00394531 5.6640625 0.015625 C6.61023438 0.00789063 7.55640625 0.00015625 8.53125 -0.0078125 C9.4490625 -0.00523438 10.366875 -0.00265625 11.3125 0 C12.14700684 0.00225586 12.98151367 0.00451172 13.84130859 0.00683594 C16.71427819 0.31058098 18.7098309 0.95290772 21.2890625 2.265625 C22.55302906 4.27345181 22.55302906 4.27345181 23.42500305 6.72398376 C23.7464863 7.62421202 24.06796955 8.52444027 24.39919472 9.45194817 C25.8088555 13.90916076 27.01043687 18.38988612 28.11401367 22.93188477 C28.36658432 23.94611008 28.61915497 24.96033539 28.87937927 26.0052948 C29.70346967 29.32095777 30.5176748 32.63896554 31.33203125 35.95703125 C31.90612312 38.27222809 32.48094834 40.58724321 33.05647278 42.90208435 C34.56302932 48.96805213 36.06168648 55.03594052 37.55804443 61.10443115 C39.96180398 70.8493289 42.37530754 80.59180648 44.79320717 90.33320427 C45.6369124 93.73877813 46.47581656 97.14550956 47.31425476 100.55238342 C47.82677528 102.62293378 48.33944689 104.69344675 48.85229492 106.76391602 C49.08553467 107.7170871 49.31877441 108.67025818 49.55908203 109.65231323 C49.77344406 110.51430832 49.98780609 111.37630341 50.20866394 112.26441956 C50.39427981 113.01744134 50.57989569 113.77046312 50.77113628 114.54630375 C51.2890625 116.265625 51.2890625 116.265625 52.2890625 117.265625 C52.41937237 116.69816968 52.54968224 116.13071436 52.68394089 115.54606342 C55.85776081 101.72941099 59.04648054 87.91626875 62.25175095 74.10687733 C63.80144841 67.42862817 65.34610932 60.74928895 66.87890625 54.06713867 C68.35797044 47.61929859 69.85108046 41.17481724 71.35282135 34.73221397 C71.92364422 32.27291393 72.48974288 29.81251245 73.05104828 27.35102272 C73.83765842 23.90522053 74.64092978 20.46370667 75.44824219 17.02270508 C75.56261124 16.51272728 75.56261124 16.51272728 76.14138794 13.93193054 C77.34955016 8.86344345 78.36441502 4.95641565 82.2890625 1.265625 C86.57250681 -0.16218977 90.67753493 0.08131599 95.1640625 0.078125 C95.61330078 0.07200195 95.61330078 0.07200195 97.88671875 0.04101562 C98.75941406 0.03908203 99.63210938 0.03714844 100.53125 0.03515625 C101.3238623 0.03104736 102.11647461 0.02693848 102.93310547 0.02270508 C105.78644079 0.31690908 107.73709563 0.93693383 110.2890625 2.265625 C111.55892563 4.49311161 111.55892563 4.49311161 112.43548584 7.2256012 C112.75688286 8.21712755 113.07827988 9.20865391 113.4094162 10.23022652 C114.72309431 14.76334005 115.89292699 19.30565306 116.94628906 23.90600586 C117.18095886 24.90580475 117.41562866 25.90560364 117.65740967 26.93569946 C118.42152666 30.19910271 119.17586599 33.46467335 119.9296875 36.73046875 C120.4615882 39.01455917 120.99396488 41.2985388 121.52679443 43.58241272 C122.63705976 48.34798437 123.74266466 53.11460483 124.84472656 57.88208008 C126.25827713 63.99602341 127.6818551 70.1075781 129.10867691 76.21843624 C130.20669308 80.92472841 131.30028851 85.63203876 132.39244843 90.33969307 C132.91598415 92.59465253 133.44070275 94.84933771 133.9666214 97.1037426 C134.69859444 100.24516975 135.42481258 103.38787141 136.14941406 106.53100586 C136.25848083 106.99673759 136.25848083 106.99673759 136.8104248 109.35362244 C137.00658386 110.2098822 137.20274292 111.06614197 137.40484619 111.948349 C137.57663517 112.68993224 137.74842415 113.43151548 137.92541885 114.19557095 C138.2890625 116.265625 138.2890625 116.265625 138.2890625 120.265625 C138.9490625 120.265625 139.6090625 120.265625 140.2890625 120.265625 C140.40380417 119.15485596 140.51854584 118.04408691 140.63676453 116.8996582 C141.26993277 111.86646451 142.47090672 107.03041246 143.72583008 102.12109375 C143.97314377 101.13791168 144.22045746 100.15472961 144.4752655 99.14175415 C145.28959069 95.91089275 146.11115928 92.68193095 146.93359375 89.453125 C147.5056673 87.196899 148.07757948 84.94063208 148.64933777 82.68432617 C149.84717707 77.96282246 151.04896876 73.24234487 152.25317383 68.52246094 C153.79265532 62.48595256 155.3192059 56.44625702 156.84241199 50.40562439 C158.01912675 45.74734574 159.20426213 41.09123975 160.39175987 36.43569946 C160.9580372 34.21020151 161.52135764 31.98394893 162.08161354 29.75692749 C162.86700739 26.6390251 163.66410629 23.52433684 164.46411133 20.41015625 C164.69127838 19.49771149 164.91844543 18.58526672 165.15249634 17.64517212 C168.67120848 4.1010208 168.67120848 4.1010208 173.40625 0.78125 C177.75256683 0.00386 182.00742289 -0.02230877 186.4140625 0.015625 C186.86716797 0.01175781 186.86716797 0.01175781 189.16015625 -0.0078125 C190.03027344 -0.00523438 190.90039062 -0.00265625 191.796875 0 C192.58723145 0.00225586 193.37758789 0.00451172 194.19189453 0.00683594 C196.2890625 0.265625 196.2890625 0.265625 199.2890625 2.265625 C200.35654693 9.24654738 197.52508731 15.85347843 195.43359375 22.43359375 C195.01905446 23.76287624 194.60542804 25.09244369 194.19264221 26.42227173 C193.07330153 30.02000598 191.9420597 33.61389634 190.80864716 37.20721817 C189.6220975 40.97604549 188.44634614 44.74823554 187.27001953 48.52026367 C185.79785804 53.23900006 184.32479159 57.95744358 182.84710693 62.67445374 C179.30374224 73.98824478 175.80260995 85.31451542 172.32421875 96.6484375 C171.84128704 98.22064365 171.35830101 99.79283311 170.8752594 101.36500549 C167.07657126 113.73005918 167.07657126 113.73005918 165.29360962 119.55282593 C164.21334426 123.08005123 163.12930539 126.60609624 162.04255486 130.13132858 C161.45710125 132.03395544 160.87564431 133.93781068 160.29432678 135.84170532 C155.51382698 151.32467114 155.51382698 151.32467114 152.4453125 153.68212891 C147.82286895 154.93299395 143.04491404 154.63501668 138.2890625 154.640625 C137.1959375 154.66511719 136.1028125 154.68960938 134.9765625 154.71484375 C133.9246875 154.71871094 132.8728125 154.72257813 131.7890625 154.7265625 C130.83 154.73478027 129.8709375 154.74299805 128.8828125 154.75146484 C125.41051506 154.10106274 124.50735196 153.01071886 122.2890625 150.265625 C121.31863598 147.61073553 120.55022381 145.12365032 119.87036133 142.39697266 C119.66286412 141.60802927 119.45536692 140.81908588 119.24158192 140.00623512 C118.5719405 137.43040099 117.92691517 134.84950529 117.2890625 132.265625 C117.07700039 131.40998711 116.86493828 130.55434921 116.64645004 129.6727829 C115.04813219 123.18052677 113.51503041 116.67345 111.98828125 110.1640625 C111.50249232 108.10463259 111.0163871 106.04527726 110.52998352 103.98599243 C109.26597772 98.63086211 108.00619872 93.2747466 106.74737549 87.918396 C105.45593988 82.42675243 104.1604014 76.936077 102.86523438 71.4453125 C100.33588568 60.71967994 97.81101279 49.99299939 95.2890625 39.265625 C90.91753725 57.13482089 86.56647232 75.00820324 82.34442902 92.91339111 C81.79665702 95.23529896 81.24764607 97.5569102 80.69818115 99.87841797 C80.51705654 100.64371826 80.33593193 101.40901855 80.1493187 102.19750977 C79.78514766 103.73609188 79.42094343 105.27466615 79.05670547 106.81323242 C78.12844056 110.73668103 77.20352343 114.66087651 76.28417969 118.58642578 C75.36698997 122.50174612 74.44150454 126.41502195 73.51034164 130.32704163 C73.16363938 131.7902927 72.81995159 133.25426179 72.479496 134.71897888 C72.01002073 136.73714481 71.52996063 138.75251606 71.04736328 140.76757812 C70.91326553 141.33688049 70.91326553 141.33688049 70.23464966 144.21789551 C68.79699048 148.85162623 67.351133 151.557578 63.2890625 154.265625 C60.90063477 154.52441406 60.90063477 154.52441406 58.10546875 154.53125 C57.09548828 154.53382813 56.08550781 154.53640625 55.04492188 154.5390625 C53.99111328 154.53132812 52.93730469 154.52359375 51.8515625 154.515625 C50.80162109 154.52335938 49.75167969 154.53109375 48.66992188 154.5390625 C47.65865234 154.53648437 46.64738281 154.53390625 45.60546875 154.53125 C44.68193604 154.52899414 43.75840332 154.52673828 42.80688477 154.52441406 C40.06959017 154.243067 38.61114041 153.7205198 36.2890625 152.265625 C32.76905351 146.7219993 31.08411002 139.85866558 29.23974609 133.60375977 C28.9626178 132.68170242 28.6854895 131.75964508 28.39996338 130.80964661 C27.49009193 127.77711976 26.58873386 124.74213519 25.6875 121.70703125 C25.04506549 119.55917157 24.4021214 117.41146426 23.75869751 115.26390076 C22.06392984 109.60193764 20.37646666 103.93782248 18.69042969 98.27325439 C17.01055381 92.63454164 15.32323079 86.99805881 13.63671875 81.36132812 C10.72709102 71.63353777 7.83016501 61.90202994 4.94027328 52.16835976 C3.25996957 46.51374545 1.56737368 40.86310491 -0.14198494 35.217206 C-1.10469607 32.03429877 -2.06040966 28.84931806 -3.01475143 25.66389275 C-3.44578619 24.23169388 -3.88012603 22.80048467 -4.31810379 21.37039375 C-4.90874555 19.44089219 -5.4866926 17.50751818 -6.06396484 15.57397461 C-6.38505219 14.51440048 -6.70613953 13.45482635 -7.03695679 12.36314392 C-7.79984115 8.85703653 -8.03241357 5.84163666 -7.7109375 2.265625 C-4.51837482 0.13724988 -3.66821285 0.00994288 0 0 Z " fill="#242E3D" transform="translate(167.7109375,120.734375)"/>
<path d="M0 0 C2.57850011 1.22139479 4.89108457 2.46261324 7.3125 3.9375 C8.74906569 4.7750421 10.18659561 5.61093215 11.625 6.4453125 C12.35589844 6.87360352 13.08679688 7.30189453 13.83984375 7.74316406 C81.52795157 47.12589226 165.09261391 67.39301958 252.375 68.1875 C253.19460205 68.18689575 254.0142041 68.1862915 254.85864258 68.18566895 C320.24820307 68.05611584 385.39717704 54.09753132 445.67578125 28.88061523 C448.69039394 27.73841902 450.79823129 27.59977891 454 28 C456.875 29.5625 456.875 29.5625 459 32 C459.63649885 35.88971521 459.6313712 38.01804736 457.48046875 41.36328125 C454.25488768 44.79204853 450.6847425 47.19553359 446.75 49.75 C445.95223145 50.27368164 445.15446289 50.79736328 444.33251953 51.33691406 C436.74978005 56.25991268 428.98489549 60.76546346 421 65 C420.38543945 65.32919434 419.77087891 65.65838867 419.13769531 65.99755859 C337.37750903 109.46909979 237.75889648 118.15280096 132 90 C89.13388584 76.60396572 49.11580395 54.89276019 14 27 C13.05511719 26.24976563 12.11023438 25.49953125 11.13671875 24.7265625 C8.39575665 22.5167345 5.69488119 20.26571073 3 18 C2.49065918 17.58717773 1.98131836 17.17435547 1.45654297 16.74902344 C-0.10890724 15.47718554 -1.6493338 14.17962785 -3.1875 12.875 C-4.10917969 12.10929687 -5.03085938 11.34359375 -5.98046875 10.5546875 C-8.60560595 7.23391433 -8.38832788 5.12535329 -8 1 C-5.11874746 -0.44062627 -3.21475065 -0.29773189 0 0 Z " fill="#FF9900" transform="translate(8,320)"/>
<path d="M0 0 C17.19399915 -0.48289871 35.59969238 1.64040095 49.25 13.08984375 C58.78840387 22.79333538 63.34569938 36.40233412 63.45483398 49.81982422 C63.461521 50.46945633 63.46820801 51.11908844 63.47509766 51.78840637 C63.48909652 53.19389896 63.50100678 54.59941358 63.51104546 56.00494003 C63.52759001 58.24426873 63.5508394 60.48343858 63.57594299 62.72268677 C63.64629646 69.08815413 63.70630475 75.45369079 63.75805664 81.81933594 C63.79025628 85.72207405 63.83163805 89.62463428 63.87825203 93.52722549 C63.89404453 94.99965263 63.90646777 96.47212061 63.91515923 97.94460678 C64.07105979 124.00970878 64.07105979 124.00970878 69.40625 134.71875 C71.57429776 139.12227285 72.82145156 142.21024874 72.28125 147.15625 C68.06569488 152.59567596 61.57073453 157.0808416 55.03125 159.21875 C51.54735938 159.13957067 50.11883942 158.152108 47.28125 156.15625 C43.21165846 151.33087718 39.85779207 145.91557933 37.28125 140.15625 C36.311875 141.001875 35.3425 141.8475 34.34375 142.71875 C22.13594958 153.11253992 9.76983733 161.1744427 -6.71875 162.15625 C-7.65074219 162.22070312 -8.58273438 162.28515625 -9.54296875 162.3515625 C-24.02653537 162.88601145 -36.72082657 159.44324691 -47.53125 149.59375 C-56.5480702 139.54643606 -60.12092912 129.75617849 -60.03125 116.28125 C-60.02561035 115.39646973 -60.0199707 114.51168945 -60.01416016 113.60009766 C-59.77527378 100.7782852 -55.39093889 90.97914302 -46.71875 81.46875 C-34.62119169 69.98115262 -18.53544853 66.58234142 -2.34375 66.71875 C-1.74159668 66.72036133 -1.74159668 66.72036133 1.30566406 66.72851562 C12.582967 66.90105152 23.31094413 68.64875152 34.28125 71.15625 C35.2036681 44.0986524 35.2036681 44.0986524 28.28125 35.15625 C19.46176649 26.33676649 9.41326444 25.85756578 -2.29394531 25.83935547 C-15.31812508 26.01932111 -27.10168498 29.50622875 -39.10058594 34.40087891 C-42.4021149 35.68088345 -44.23721627 36.29112987 -47.703125 35.3203125 C-48.36828125 34.93617188 -49.0334375 34.55203125 -49.71875 34.15625 C-49.85414281 31.25884378 -49.95301829 28.36779379 -50.03125 25.46875 C-50.05219727 25.06043945 -50.05219727 25.06043945 -50.15820312 22.99414062 C-50.24375054 18.76809828 -50.16577332 16.77225979 -47.62109375 13.265625 C-34.7347787 3.90006628 -15.57723243 0.65450556 0 0 Z M-26.09375 99.78125 C-30.12128762 108.14613583 -30.75687342 117.36594625 -27.71875 126.15625 C-24.96754987 131.66791355 -21.24763855 135.35125666 -15.45703125 137.53125 C-3.23429929 140.3210319 9.54466015 137.96679372 20.15625 131.40625 C28.36903657 125.39763041 32.84030054 118.83701569 34.96875 108.96875 C35.42814399 103.36414327 35.35730835 97.7761173 35.28125 92.15625 C33.28252261 91.67180236 31.28219063 91.1939734 29.28125 90.71875 C28.1675 90.45191406 27.05375 90.18507813 25.90625 89.91015625 C7.9601827 86.17783837 -12.93678742 85.23934399 -26.09375 99.78125 Z " fill="#242E3D" transform="translate(80.71875,116.84375)"/>
<path d="M0 0 C0.50261353 0.00209473 0.50261353 0.00209473 3.04614258 0.01269531 C11.29202234 0.13688224 18.83671673 1.11326035 26.8125 3.3125 C27.91207031 3.60253906 29.01164062 3.89257812 30.14453125 4.19140625 C36.46062447 6.05274568 41.40019292 8.31474117 45.8125 13.3125 C47.32179383 16.33108766 47.03760073 19.44150954 47.0625 22.75 C47.083125 23.43126953 47.10375 24.11253906 47.125 24.81445312 C47.14807941 27.75996241 47.15636671 29.80474361 45.4765625 32.28515625 C43.25168205 33.65873268 41.5976324 33.43618796 39.08203125 32.96484375 C36.17501335 32.12926373 33.42970199 31.00695757 30.625 29.875 C17.76770941 24.81399597 -0.86830624 22.04425906 -14.1875 27.3125 C-19.31147787 29.87902343 -23.76754468 32.56898143 -25.875 38.125 C-26.84089556 44.8862689 -26.28051216 49.82236028 -22.1875 55.3125 C-13.77045865 62.39081849 -2.00703186 64.9968401 8.25 68.3125 C43.04613121 79.58245225 43.04613121 79.58245225 51.25 95.5625 C56.21171278 105.99967238 56.59508732 118.88051542 53.1875 129.9375 C48.43230812 142.08592307 38.21603453 151.38163828 26.625 157 C15.94512373 161.4956715 5.45448881 162.82499493 -6.0625 162.6875 C-7.29121826 162.67807373 -8.51993652 162.66864746 -9.78588867 162.65893555 C-18.60700089 162.51231617 -26.69122762 161.82548197 -35.1875 159.3125 C-35.83525391 159.12494141 -36.48300781 158.93738281 -37.15039062 158.74414062 C-53.31729771 153.99097765 -53.31729771 153.99097765 -57.546875 148.5703125 C-58.52270199 145.13111736 -58.47552891 141.73052672 -58.4375 138.1875 C-58.44523437 137.45917969 -58.45296875 136.73085937 -58.4609375 135.98046875 C-58.44092069 130.56592069 -58.44092069 130.56592069 -56.1875 128.3125 C-50.46700917 128.40784151 -45.90922189 129.68096378 -40.5625 131.6875 C-23.18638193 138.09215891 -2.30642981 141.11215497 15.10546875 133.28125 C19.57636353 130.87071292 22.20557087 128.18651504 24.1875 123.48828125 C25.73828243 118.0896199 25.39096833 113.86384689 23.4375 108.625 C16.59537064 98.42951377 1.05675869 95.95132936 -9.94799805 92.63793945 C-25.82117433 87.82581045 -41.48545118 82.48319036 -50.84375 67.6953125 C-56.34368268 57.17509243 -57.88895979 45.85210516 -55.5703125 34.21484375 C-51.71756975 22.36680743 -43.81791749 13.55733805 -33.1875 7.3125 C-22.41343298 1.84880754 -12.00024553 -0.06889124 0 0 Z " fill="#242E3D" transform="translate(436.1875,116.6875)"/>
<path d="M0 0 C0.62519531 -0.00696899 0.62519531 -0.00696899 3.7890625 -0.04223633 C14.13099557 0.01004366 26.74089654 0.17050837 34.875 7.375 C40.66287572 18.95075143 34.60706183 38.85079279 30.875 50.375 C26.03313985 64.19068367 19.58684523 76.08836047 10.25 87.375 C9.79455811 87.92784668 9.33911621 88.48069336 8.86987305 89.05029297 C6.17178343 92.20581029 3.64470853 94.59398578 -0.125 96.375 C-2.9375 96.0625 -2.9375 96.0625 -5.125 95.375 C-6.52685764 91.62285515 -5.68960689 89.46842521 -4.24609375 85.81640625 C-3.82191162 84.718125 -3.39772949 83.61984375 -2.96069336 82.48828125 C-2.49928955 81.31652344 -2.03788574 80.14476562 -1.5625 78.9375 C12.45503155 42.2063074 12.45503155 42.2063074 10.3125 28.875 C8.37328774 25.50245694 6.48118978 24.71848247 2.875 23.375 C-3.24321267 21.88591461 -9.42685623 22.18430314 -15.6875 22.1875 C-16.98131592 22.18685547 -18.27513184 22.18621094 -19.6081543 22.18554688 C-28.82583718 22.23582618 -37.84650442 22.80173107 -46.98828125 23.9375 C-51.06690924 24.421747 -55.01861725 24.52084267 -59.125 24.375 C-59.455 24.045 -59.785 23.715 -60.125 23.375 C-60.07421875 20.0703125 -60.07421875 20.0703125 -59.125 16.375 C-43.14899346 2.85504132 -20.05008893 0.14374145 0 0 Z " fill="#FF9900" transform="translate(476.125,309.625)"/>
</svg>
