<?xml version="1.0" encoding="UTF-8"?>
<!-- Generator: visioncortex VTracer 0.6.12 -->
<svg version="1.1" xmlns="http://www.w3.org/2000/svg" width="512" height="512">
<path d="M0 0 C0.70892395 -0.00067474 1.4178479 -0.00134949 2.14825439 -0.00204468 C13.88026297 0.01563645 25.20816387 0.70325149 36.6875 3.25 C37.43563965 3.41097168 38.1837793 3.57194336 38.95458984 3.73779297 C62.17643072 8.92421999 84.3874553 20.25827619 97.92578125 40.3984375 C114.13629896 66.63719122 113.81280955 96.31607228 113.85616493 126.18283463 C113.86343397 130.15373988 113.87882999 134.12456482 113.89750671 138.09542847 C113.9038401 139.46708103 113.91016577 140.83873364 113.91648388 142.21038628 C113.91964969 142.89621906 113.9228155 143.58205184 113.92607725 144.28866744 C113.96781664 153.50183872 114.00114626 162.71496276 114.01342773 171.92822266 C114.02185688 178.18827363 114.04450656 184.44810614 114.0827834 190.70804775 C114.10234615 194.00205859 114.11276757 197.2956782 114.10994911 200.58975601 C114.09398503 225.31489808 117.5637343 243.10342442 133.6875 262.51928711 C137.36032838 267.11561993 138.84300193 270.28709925 138.6875 276.25 C136.21946129 281.33162842 132.35380242 284.5514872 128.0625 288.0625 C126.80644291 289.11356988 125.55123973 290.16566101 124.296875 291.21875 C123.68263672 291.73179687 123.06839844 292.24484375 122.43554688 292.7734375 C119.18984316 295.51505986 116.06035847 298.38406813 112.9140625 301.23828125 C110.22794233 303.66521439 107.5010823 306.04246509 104.76953125 308.41796875 C101.43874635 311.3488095 98.1646284 314.34228948 94.88671875 317.33203125 C91.62690544 320.17495902 89.61782581 321.54045908 85.3125 321.5625 C84.56226563 321.57925781 83.81203125 321.59601563 83.0390625 321.61328125 C77.30065078 320.72678243 73.44460158 316.39330616 69.5 312.4375 C69.21668823 312.15374512 69.21668823 312.15374512 67.78295898 310.71777344 C61.97162493 304.74544476 57.2929337 298.17059766 52.6875 291.25 C52.04425781 290.29867188 51.40101563 289.34734375 50.73828125 288.3671875 C49.37328943 286.33719967 48.02178355 284.30024058 46.6875 282.25 C40.34080189 287.63089623 40.34080189 287.63089623 37.5234375 290.30078125 C12.7552662 313.61931042 -17.40932751 322.12002117 -50.84765625 321.43359375 C-74.18240034 320.6351041 -94.80672743 312.59746546 -111 295.5 C-125.95671325 278.12072051 -130.67973237 256.39648771 -130.625 234 C-130.64111328 232.69675781 -130.65722656 231.39351562 -130.67382812 230.05078125 C-130.68544423 206.60948933 -123.20620775 183.74451285 -107.3125 166.25 C-106.91289062 165.80398437 -106.91289062 165.80398437 -104.890625 163.546875 C-85.55613724 143.06833471 -58.67980452 133.89512886 -31.3125 130.25 C-30.52858887 130.14558594 -29.74467773 130.04117188 -28.93701172 129.93359375 C-9.49236953 127.50637395 10.13317353 128.0512927 29.6875 128.25 C29.59285703 123.75138101 29.48654185 119.25322258 29.37011719 114.75512695 C29.33219716 113.22981 29.29728517 111.7044148 29.265625 110.17895508 C28.71683458 84.05138598 28.71683458 84.05138598 20.6875 75.25 C11.19014646 67.09155909 0.89070062 65.23662268 -11.31103516 66.03857422 C-21.92064848 67.15932625 -31.43244006 71.77043828 -38.625 79.625 C-43.81509672 86.20198206 -46.0535606 93.25649619 -48.1875 101.296875 C-49.43704312 104.57692568 -50.53339329 106.12596845 -53.3125 108.25 C-56.85210539 109.21043176 -59.79151883 109.27737552 -63.41894531 108.86035156 C-63.91476105 108.80509308 -63.91476105 108.80509308 -66.42388916 108.52545166 C-67.48541199 108.39845886 -68.54693481 108.27146606 -69.640625 108.140625 C-70.74420349 108.0131488 -71.84778198 107.88567261 -72.98480225 107.7543335 C-75.31861574 107.48239249 -77.6519643 107.20643566 -79.98486328 106.92675781 C-83.53411043 106.50338645 -87.08513277 106.09853212 -90.63671875 105.6953125 C-92.90898643 105.42820613 -95.18112655 105.16001184 -97.453125 104.890625 C-98.5065509 104.77172913 -99.55997681 104.65283325 -100.64532471 104.53033447 C-116.12905486 102.63194015 -116.12905486 102.63194015 -120.375 98 C-122.66988715 91.26833102 -120.71954432 84.88461614 -118.8125 78.3125 C-118.67863892 77.85101563 -118.67863892 77.85101563 -118.0012207 75.515625 C-109.85500882 48.66028757 -92.69031214 27.98796094 -68.125 14.625 C-47.00925086 3.54189257 -23.61570301 0.02024419 0 0 Z M-39.3125 186.25 C-40.364375 186.971875 -41.41625 187.69375 -42.5 188.4375 C-50.66400789 196.60150789 -55.30837585 206.80298467 -56.3125 218.25 C-56.37695312 218.97574219 -56.44140625 219.70148438 -56.5078125 220.44921875 C-56.98133907 230.25121875 -54.48759952 239.25969393 -48.125 246.8125 C-41.65927041 253.3849248 -34.08601046 256.34961353 -24.9375 256.5 C-11.12250033 256.3317296 0.99464612 252.65709119 11.375 243.375 C23.99383544 229.94058454 27.42720617 211.32944021 28.25 193.5625 C28.2924585 192.68561523 28.33491699 191.80873047 28.37866211 190.90527344 C28.67861898 184.35088378 28.80752518 177.81137641 28.6875 171.25 C5.12882041 171.25 -19.31003334 172.4820684 -39.3125 186.25 Z " fill="#36464E" transform="translate(259.3125,52.75)"/>
<path d="M0 0 C4.9348178 0.2988781 8.56843263 1.50421373 12.88671875 3.84375 C13.4329187 4.13491699 13.4329187 4.13491699 16.19702148 5.60839844 C17.34887939 6.23262695 18.5007373 6.85685547 19.6875 7.5 C22.12619389 8.79412973 24.57045963 10.07752217 27.015625 11.359375 C27.61990829 11.67682678 28.22419159 11.99427856 28.8467865 12.3213501 C115.90839596 57.91576548 220.40745836 61.74309932 327.4375 32.5 C336.92895807 29.51438424 346.27412438 26.19650802 355.39624023 22.2109375 C359.19183592 20.63724063 361.88035307 19.60831772 365.9453125 20.66796875 C369 22 369 22 371 24 C371.75 27.125 371.75 27.125 371 31 C364.43656641 38.38949503 354.55690514 43.20113081 346 48 C345.61642334 48.2160791 345.61642334 48.2160791 343.67529297 49.30957031 C307.38177771 69.54639671 267.17771728 81.22935286 226 86 C225.45537109 86.06574219 225.45537109 86.06574219 222.69921875 86.3984375 C172.72158072 91.29690798 121.14564403 80.31644973 76 59 C75.34644531 58.69513672 74.69289063 58.39027344 74.01953125 58.07617188 C50.54390238 47.05262607 28.67701108 32.88374452 9 16 C8.05898438 15.21625 7.11796875 14.4325 6.1484375 13.625 C5.23320313 12.84125 4.31796875 12.0575 3.375 11.25 C2.55773438 10.55390625 1.74046875 9.8578125 0.8984375 9.140625 C-1.26785699 6.69797195 -1.86024865 5.24653133 -2 2 C-1.34 1.34 -0.68 0.68 0 0 Z " fill="#FFB300" transform="translate(55,383)"/>
<path d="M0 0 C2.92646481 3.31593887 2.86864101 6.23572866 2.73828125 10.45703125 C2.7228125 11.24706543 2.70734375 12.03709961 2.69140625 12.85107422 C1.85934052 33.14467722 -7.10549448 55.59460335 -22.07421875 69.64453125 C-24.88671875 71.39453125 -24.88671875 71.39453125 -27.76171875 71.20703125 C-28.46296875 70.93890625 -29.16421875 70.67078125 -29.88671875 70.39453125 C-29.31026529 64.06227734 -27.27428146 58.62050151 -25.01171875 52.70703125 C-15.80963049 27.92951123 -15.80963049 27.92951123 -17.88671875 18.39453125 C-21.82560468 14.52490046 -25.94769712 14.2680883 -31.26171875 14.26171875 C-31.79128174 14.26075195 -31.79128174 14.26075195 -34.47119141 14.25585938 C-35.59831543 14.26037109 -36.72543945 14.26488281 -37.88671875 14.26953125 C-39.03833496 14.27146484 -40.18995117 14.27339844 -41.37646484 14.27539062 C-51.56782504 14.3260869 -61.71720386 14.75176281 -71.88671875 15.39453125 C-72.21671875 13.74453125 -72.54671875 12.09453125 -72.88671875 10.39453125 C-56.93181106 -5.1977649 -20.23648994 -11.25466491 0 0 Z " fill="#FFB200" transform="translate(455.88671875,376.60546875)"/>
</svg>
