<?xml version="1.0" encoding="UTF-8"?>
<!-- Generator: visioncortex VTracer 0.6.12 -->
<svg version="1.1" xmlns="http://www.w3.org/2000/svg" width="512" height="512">
<path d="M0 0 C2.53927511 -0.00542761 5.07854706 -0.01255383 7.61781311 -0.02124023 C13.77056501 -0.03752013 19.92306064 -0.03522876 26.07581561 -0.02358967 C31.08156648 -0.0145165 36.08726274 -0.01334803 41.09301949 -0.01768494 C41.4507026 -0.0179914 41.4507026 -0.0179914 43.26079591 -0.01954231 C44.71454848 -0.02082135 46.16830103 -0.02211821 47.62205357 -0.02343267 C61.22073906 -0.03481043 74.81931629 -0.02176941 88.41798402 -0.00023121 C100.05703051 0.0176334 111.69591733 0.01453551 123.33496094 -0.00390625 C136.88699499 -0.02536939 150.43893439 -0.03370803 163.99098307 -0.0214572 C165.43937304 -0.02018315 166.88776303 -0.01892566 168.33615303 -0.01768494 C169.04858119 -0.01706783 169.76100935 -0.01645073 170.49502624 -0.01581493 C175.4875465 -0.01237802 180.48000615 -0.01815441 185.47251701 -0.02760315 C192.20733461 -0.04007047 198.94180674 -0.03104506 205.67661095 -0.00802612 C208.1391424 -0.00276536 210.60169933 -0.00420728 213.06422043 -0.01307678 C237.43763459 -0.09272872 257.62265591 4.04290334 275.78149414 21.51757812 C294.39984786 40.86487229 297.39183797 62.1100885 297.29907227 87.86547852 C297.30450075 90.40652364 297.31162747 92.94756561 297.3203125 95.48860168 C297.33658215 101.64154944 297.3343069 107.79424077 297.32266194 113.94719154 C297.31358554 118.95245035 297.31242166 123.95765454 297.3167572 128.96291924 C297.31737013 129.67843869 297.31798307 130.39395814 297.31861457 131.13116 C297.31989362 132.58523677 297.32119048 134.03931352 297.32250494 135.49339025 C297.3338787 149.09014231 297.32084715 162.68678605 297.29930347 176.28352033 C297.28143154 187.92287306 297.28454357 199.56206616 297.30297852 211.20141602 C297.32443547 224.75491264 297.33278438 238.30831464 297.32052946 251.86182588 C297.31925541 253.3099015 297.31799793 254.75797713 297.3167572 256.20605278 C297.31644865 256.56218972 297.31644865 256.56218972 297.3148872 258.36445849 C297.31144902 263.35796108 297.31722929 268.35140311 297.32667542 273.34489632 C297.33913395 280.07808263 297.33013143 286.81092313 297.30709839 293.54409599 C297.30183392 296.00704832 297.30328601 298.47002613 297.31214905 300.93296814 C297.36384196 316.7638722 296.54047925 330.38815314 289.09399414 344.70507812 C288.75150635 345.371604 288.40901855 346.03812988 288.05615234 346.72485352 C280.93035735 360.10767998 270.38832544 369.9346862 256.96899414 376.83007812 C256.36627686 377.14356201 255.76355957 377.4570459 255.14257812 377.7800293 C240.17253413 385.05030511 225.86203941 385.09380932 209.56298828 385.03515625 C207.02371317 385.04058386 204.48444122 385.04771008 201.94517517 385.05639648 C195.79242327 385.07267638 189.63992764 385.07038501 183.48717267 385.05874592 C178.4814218 385.04967275 173.47572555 385.04850428 168.4699688 385.05284119 C168.11228569 385.05314765 168.11228569 385.05314765 166.30219237 385.05469856 C164.8484398 385.0559776 163.39468725 385.05727446 161.94093471 385.05858892 C148.34224922 385.06996668 134.74367199 385.05692566 121.14500427 385.03538746 C109.50595778 385.01752285 97.86707095 385.02062074 86.22802734 385.0390625 C72.67599329 385.06052564 59.12405389 385.06886428 45.57200521 385.05661345 C44.12361524 385.0553394 42.67522525 385.05408191 41.22683525 385.05284119 C40.51440709 385.05222408 39.80197893 385.05160698 39.06796204 385.05097118 C34.07544178 385.04753427 29.08298214 385.05331066 24.09047127 385.0627594 C17.35565367 385.07522672 10.62118154 385.06620131 3.88637733 385.04318237 C1.42384588 385.03792161 -1.03871105 385.03936353 -3.50123215 385.04823303 C-27.87464631 385.12788497 -48.05966763 380.99225291 -66.21850586 363.51757812 C-84.83685958 344.17028396 -87.82884968 322.92506775 -87.73608398 297.16967773 C-87.74151247 294.62863261 -87.74863919 292.08759064 -87.75732422 289.54655457 C-87.77359387 283.39360681 -87.77131862 277.24091548 -87.75967366 271.08796471 C-87.75059726 266.0827059 -87.74943338 261.07750171 -87.75376892 256.07223701 C-87.75438185 255.35671756 -87.75499479 254.64119811 -87.75562629 253.90399625 C-87.75690534 252.44991948 -87.75820219 250.99584273 -87.75951666 249.541766 C-87.77089041 235.94501394 -87.75785886 222.3483702 -87.73631519 208.75163592 C-87.71844326 197.11228319 -87.72155529 185.47309009 -87.73999023 173.83374023 C-87.76144719 160.28024361 -87.7697961 146.72684161 -87.75754118 133.17333037 C-87.75626713 131.72525475 -87.75500965 130.27717912 -87.75376892 128.82910347 C-87.75315182 128.11682959 -87.75253472 127.4045557 -87.75189891 126.67069776 C-87.74846073 121.67719517 -87.75424101 116.68375314 -87.76368713 111.69025993 C-87.77614567 104.95707362 -87.76714315 98.22423312 -87.74411011 91.49106026 C-87.73884564 89.02810793 -87.74029773 86.56513012 -87.74916077 84.10218811 C-87.80085368 68.27128405 -86.97749097 54.64700311 -79.53100586 40.33007812 C-79.35976196 39.99681519 -79.35976196 39.99681519 -78.49316406 38.31030273 C-71.36736907 24.92747627 -60.82533716 15.10047005 -47.40600586 8.20507812 C-46.80328857 7.89159424 -46.20057129 7.57811035 -45.57958984 7.25512695 C-30.60954585 -0.01514886 -16.29905112 -0.05865307 0 0 Z " fill="#0277BD" transform="translate(151.218505859375,63.482421875)"/>
<path d="M0 0 C2.53927511 -0.00542761 5.07854706 -0.01255383 7.61781311 -0.02124023 C13.77056501 -0.03752013 19.92306064 -0.03522876 26.07581561 -0.02358967 C31.08156648 -0.0145165 36.08726274 -0.01334803 41.09301949 -0.01768494 C41.4507026 -0.0179914 41.4507026 -0.0179914 43.26079591 -0.01954231 C44.71454848 -0.02082135 46.16830103 -0.02211821 47.62205357 -0.02343267 C61.22073906 -0.03481043 74.81931629 -0.02176941 88.41798402 -0.00023121 C100.05703051 0.0176334 111.69591733 0.01453551 123.33496094 -0.00390625 C136.88699499 -0.02536939 150.43893439 -0.03370803 163.99098307 -0.0214572 C165.43937304 -0.02018315 166.88776303 -0.01892566 168.33615303 -0.01768494 C169.04858119 -0.01706783 169.76100935 -0.01645073 170.49502624 -0.01581493 C175.4875465 -0.01237802 180.48000615 -0.01815441 185.47251701 -0.02760315 C192.20733461 -0.04007047 198.94180674 -0.03104506 205.67661095 -0.00802612 C208.1391424 -0.00276536 210.60169933 -0.00420728 213.06422043 -0.01307678 C237.43763459 -0.09272872 257.62265591 4.04290334 275.78149414 21.51757812 C294.39984786 40.86487229 297.39183797 62.1100885 297.29907227 87.86547852 C297.30450075 90.40652364 297.31162747 92.94756561 297.3203125 95.48860168 C297.33658215 101.64154944 297.3343069 107.79424077 297.32266194 113.94719154 C297.31358554 118.95245035 297.31242166 123.95765454 297.3167572 128.96291924 C297.31737013 129.67843869 297.31798307 130.39395814 297.31861457 131.13116 C297.31989362 132.58523677 297.32119048 134.03931352 297.32250494 135.49339025 C297.3338787 149.09014231 297.32084715 162.68678605 297.29930347 176.28352033 C297.28143154 187.92287306 297.28454357 199.56206616 297.30297852 211.20141602 C297.32443547 224.75491264 297.33278438 238.30831464 297.32052946 251.86182588 C297.31925541 253.3099015 297.31799793 254.75797713 297.3167572 256.20605278 C297.31644865 256.56218972 297.31644865 256.56218972 297.3148872 258.36445849 C297.31144902 263.35796108 297.31722929 268.35140311 297.32667542 273.34489632 C297.33913395 280.07808263 297.33013143 286.81092313 297.30709839 293.54409599 C297.30183392 296.00704832 297.30328601 298.47002613 297.31214905 300.93296814 C297.39012701 324.81364075 297.39012701 324.81364075 292.78149414 336.51757812 C273.11482747 316.85091146 253.44816081 297.18424479 233.78149414 277.51757812 C232.16814734 280.6366867 230.94322961 283.7881527 229.77734375 287.10229492 C226.43279014 296.53163706 222.50569807 304.8661803 214.78149414 311.51757812 C214.12149414 311.51757812 213.46149414 311.51757812 212.78149414 311.51757812 C212.35263639 307.44342946 213.02564713 304.58982203 214.59399414 300.89257812 C218.05180967 292.72179695 220.44207833 284.43546471 219.78149414 275.51757812 C218.78149414 273.51757812 218.78149414 273.51757812 217.15356445 272.89868164 C214.02033157 272.3952876 211.00211732 272.40647379 207.82836914 272.41992188 C207.16814758 272.42133682 206.50792603 272.42275177 205.82769775 272.42420959 C203.7289162 272.42978568 201.63024319 272.44233366 199.53149414 272.45507812 C198.10441235 272.46009622 196.67732889 272.46465859 195.25024414 272.46875 C191.76062582 272.47974724 188.27107058 272.49699532 184.78149414 272.51757812 C185.50366211 268.72167969 185.50366211 268.72167969 188.00415039 266.88476562 C196.61414329 262.36067032 204.11213486 260.36812362 213.78149414 259.51757812 C213.78149414 257.51757812 213.78149414 257.51757812 212.49633789 256.03710938 C211.90981445 255.47378906 211.32329102 254.91046875 210.71899414 254.33007812 C210.40317383 254.02199219 210.40317383 254.02199219 208.80493164 252.46289062 C208.13719727 251.8209375 207.46946289 251.17898438 206.78149414 250.51757812 C205.4644848 249.25141857 204.1517428 247.98080029 202.84399414 246.70507812 C202.2574707 246.14175781 201.67094727 245.5784375 201.06665039 244.99804688 C199.78149414 243.51757812 199.78149414 243.51757812 199.78149414 241.51757812 C198.95649414 241.33195313 198.13149414 241.14632812 197.28149414 240.95507812 C189.50444908 237.76093462 186.01451816 233.06130084 182.78149414 225.51757812 C180.29038974 222.96190946 177.54778568 220.76623362 174.78149414 218.51757812 C173.43139133 217.20122788 172.08734468 215.8778391 170.78149414 214.51757812 C170.05961914 214.80632812 169.33774414 215.09507812 168.59399414 215.39257812 C167.66586914 215.76382813 166.73774414 216.13507813 165.78149414 216.51757812 C165.07508789 216.86691406 164.36868164 217.21625 163.64086914 217.57617188 C159.77835035 218.84784814 156.25563654 218.77091178 152.21899414 218.70507812 C151.46424805 218.70443359 150.70950195 218.70378906 149.93188477 218.703125 C146.38608007 218.67500849 143.19204098 218.46930344 139.78149414 217.51757812 C140.15378841 218.96135347 140.55546282 220.39756909 140.96899414 221.83007812 C141.18942383 222.63058594 141.40985352 223.43109375 141.63696289 224.25585938 C143.21511761 227.37446546 144.55923382 228.16561099 147.78149414 229.51757812 C150.60777377 229.88206048 153.37425538 229.8466673 156.21899414 229.76757812 C156.95698242 229.76242187 157.6949707 229.75726563 158.45532227 229.75195312 C162.67064631 229.69200185 166.61789306 229.21258418 170.78149414 228.51757812 C171.78149414 229.51757812 171.78149414 229.51757812 171.87915039 231.58398438 C171.87334961 231.99583984 171.87334961 231.99583984 171.84399414 234.08007812 C171.8349707 234.90636719 171.82594727 235.73265625 171.81665039 236.58398438 C171.81084961 236.90302734 171.81084961 236.90302734 171.78149414 238.51757812 C161.84766259 242.82848616 151.22125524 244.60214887 140.54711914 241.61132812 C133.98830848 238.51079945 129.80095411 234.44722135 126.96899414 227.70507812 C124.54296942 219.49284501 124.10794037 208.47547002 127.34399414 200.45507812 C130.88519971 193.98798286 135.45340542 189.21496125 141.78149414 185.51757812 C141.16761841 184.90814362 140.55374268 184.29870911 139.92126465 183.67080688 C134.14756137 177.93711527 128.37863489 172.19867011 122.61507416 166.45478249 C119.65153407 163.50169639 116.68615532 160.55050625 113.71655273 157.60351562 C110.85281361 154.76144735 107.99393418 151.91457461 105.13841248 149.06425095 C104.04606655 147.97561115 102.95195689 146.88873824 101.85609436 145.80363846 C100.32592213 144.28790463 98.80204311 142.76610825 97.27954102 141.24267578 C96.40906128 140.37663727 95.53858154 139.51059875 94.64172363 138.61831665 C92.78149414 136.51757812 92.78149414 136.51757812 92.78149414 134.51757812 C92.12149414 134.51757812 91.46149414 134.51757812 90.78149414 134.51757812 C90.45149414 136.16757813 90.12149414 137.81757813 89.78149414 139.51757812 C87.63572778 139.54443751 85.48986769 139.563909 83.34399414 139.58007812 C82.1490332 139.59167969 80.95407227 139.60328125 79.72290039 139.61523438 C76.78149414 139.51757812 76.78149414 139.51757812 75.78149414 138.51757812 C75.82209961 137.87240234 75.82209961 137.87240234 76.02758789 134.60742188 C76.42424578 126.70848565 76.4931936 120.06325718 71.40258789 113.63085938 C70.02520443 112.14041318 68.60901535 110.68489855 67.15649414 109.26757812 C66.45709717 108.58300537 65.7577002 107.89843262 65.03710938 107.19311523 C60.44519738 103.0991791 58.10152113 102.17667566 51.78149414 102.51757812 C51.78673096 103.60288818 51.79196777 104.68819824 51.79736328 105.80639648 C51.8154125 109.81875794 51.82692585 113.83111579 51.83642578 117.84350586 C51.84146618 119.5827698 51.84829844 121.32202949 51.85693359 123.0612793 C51.86901206 125.55583749 51.87472522 128.05033986 51.87915039 130.54492188 C51.88431168 131.32721664 51.88947296 132.10951141 51.89479065 132.91551208 C51.8949864 134.78324927 51.84349108 136.65087017 51.78149414 138.51757812 C50.78149414 139.51757812 50.78149414 139.51757812 47.87524414 139.65039062 C46.68930664 139.6478125 45.50336914 139.64523438 44.28149414 139.64257812 C43.09555664 139.64515625 41.90961914 139.64773437 40.68774414 139.65039062 C37.78149414 139.51757812 37.78149414 139.51757812 36.78149414 138.51757812 C36.68822698 136.95210764 36.66403832 135.3824504 36.66796875 133.81420898 C36.66800652 133.31372795 36.66800652 133.31372795 36.66819763 130.7809906 C36.67335892 129.69246292 36.6785202 128.60393524 36.68383789 127.48242188 C36.68525284 126.37403458 36.68666779 125.26564728 36.68812561 124.12367249 C36.69374381 120.56744743 36.70629939 117.01128429 36.71899414 113.45507812 C36.7240068 111.05078216 36.72857011 108.64648521 36.73266602 106.2421875 C36.74371915 100.33396309 36.76047497 94.42577503 36.78149414 88.51757812 C38.76149414 87.85757813 40.74149414 87.19757813 42.78149414 86.51757812 C42.37103914 86.10712313 41.96058414 85.69666813 41.53769112 85.2737751 C14.61895879 58.35504278 -12.29977353 31.43631045 -39.21850586 4.51757812 C-26.40066225 -0.52967507 -13.58498782 -0.04888636 0 0 Z " fill="#14AEF4" transform="translate(151.218505859375,63.482421875)"/>
<path d="M0 0 C3.97526224 1.6006756 6.64020304 4.37143556 9.59472656 7.36767578 C10.14151062 7.91416779 10.68829468 8.46065979 11.25164795 9.02371216 C13.05275649 10.82621093 14.84668247 12.63568396 16.640625 14.4453125 C17.89000495 15.69842367 19.13982801 16.95109319 20.39007568 18.20333862 C23.67586872 21.49675955 26.9556107 24.79614291 30.23413086 28.09680176 C33.58214253 31.46528994 36.93583907 34.8281076 40.2890625 38.19140625 C46.86495609 44.7887349 53.43393503 51.39288923 60 58 C60.33 51.4 60.66 44.8 61 38 C64.96 38 68.92 38 73 38 C73.33 38.99 73.66 39.98 74 41 C74.33322266 40.81953125 74.33322266 40.81953125 76.01953125 39.90625 C83.93150811 35.92259732 90.63037933 34.34780902 99.25 37 C104.533272 40.84237964 109.14424307 45.62856787 111 52 C112.01547572 61.44575389 112.62187562 72.91266496 107 81 C102.87041778 85.59525851 98.51597664 88.28717062 93 91 C93.37080688 91.35771484 93.37080688 91.35771484 95.24731445 93.16796875 C98.01655649 95.84615935 100.76876551 98.54131679 103.51635742 101.24169922 C104.70389227 102.40421464 105.89589222 103.56218814 107.0925293 104.71533203 C108.81996559 106.38156279 110.53024817 108.06391144 112.23828125 109.75 C112.76964188 110.2555542 113.3010025 110.7611084 113.84846497 111.28198242 C116.67443497 114.10581919 118.35015249 116.46936367 119.67260742 120.265625 C121 124 121 124 124 126 C124.9585791 126.28601074 125.9171582 126.57202148 126.90478516 126.86669922 C130.35196928 128.12887217 131.98151083 129.5172068 134.5234375 132.1328125 C135.31621094 132.93847656 136.10898438 133.74414062 136.92578125 134.57421875 C137.73402344 135.41597656 138.54226562 136.25773438 139.375 137.125 C139.79072266 137.54974609 139.79072266 137.54974609 141.89453125 139.69921875 C143.9390326 141.79072013 145.97359359 143.89098687 148 146 C148.57621094 145.24203125 149.15242187 144.4840625 149.74609375 143.703125 C151.74647519 141.30405402 153.55986472 139.58237265 156.0625 137.75 C156.73410156 137.24984375 157.40570313 136.7496875 158.09765625 136.234375 C161.36188225 134.1163146 164.25991728 133.7914555 168.0625 133.6875 C168.50142578 133.66880859 168.50142578 133.66880859 170.72265625 133.57421875 C174 134 174 134 184 138 C184 129.09 184 120.18 184 111 C188.95 111 193.9 111 199 111 C199 137.07 199 163.14 199 190 C197.02 190.33 195.04 190.66 193 191 C210.16 208.16 227.32 225.32 245 243 C269.22684585 236.07804404 269.22684585 236.07804404 276.5625 233.25 C277.34044922 232.95996094 278.11839844 232.66992188 278.91992188 232.37109375 C284.43447761 230.29424473 284.43447761 230.29424473 287.07397461 228.92089844 C289.53731594 227.74309092 291.30164171 227.71596228 294 228 C294.66 228.66 295.32 229.32 296 230 C295.8823567 233.24588571 295.32167943 234.65796942 293.0859375 237.03515625 C255.30078234 265.29235442 207.06602191 274.49015112 160.86962891 268.4453125 C123.96640833 262.7186259 91.42821172 244.82525111 64 220 C63.37222656 219.43796875 62.74445313 218.8759375 62.09765625 218.296875 C61.73542969 217.86890625 61.37320313 217.4409375 61 217 C61.3125 214.8125 61.3125 214.8125 62 213 C66.34320434 213.5828197 69.27601718 215.16933889 73 217.4375 C95.26676257 230.49042978 124.82933838 245.27981092 151.2355957 245.03491211 C152.47784912 245.02339111 153.72010254 245.01187012 155 245 C147.47814489 237.43188786 139.95095882 229.86912345 132.41684151 222.31321716 C128.91895104 218.80487127 125.42295266 215.29468165 121.93115234 211.78027344 C118.56388968 208.39134507 115.19182285 205.0072675 111.81631088 201.6265564 C110.52671399 200.33325244 109.23888415 199.0381841 107.95282364 197.74136353 C106.15689444 195.93100281 104.35489184 194.12691039 102.55126953 192.32421875 C102.28369339 192.05304733 102.28369339 192.05304733 100.92959595 190.68075562 C97.22810432 187 97.22810432 187 95 187 C94.60167969 187.65484375 94.20335937 188.3096875 93.79296875 188.984375 C92 191 92 191 88.86328125 191.390625 C87.69152344 191.34421875 86.51976562 191.2978125 85.3125 191.25 C84.13300781 191.21390625 82.95351562 191.1778125 81.73828125 191.140625 C80.83464844 191.09421875 79.93101562 191.0478125 79 191 C75.99104547 185.45591016 73.50523654 179.87021948 71.38671875 173.92578125 C71.16581573 173.30758514 70.94491272 172.68938904 70.71731567 172.05245972 C69.8064895 169.49605535 68.89992233 166.93906323 68.02856445 164.36889648 C67.37864635 162.4634165 66.69539317 160.56941184 66.01171875 158.67578125 C65.62459717 157.56114502 65.23747559 156.44650879 64.83862305 155.2980957 C62.31572465 150.77255668 59.03243255 148.18775415 55 145 C54.02491989 144.22908524 53.04983978 143.45817047 52.04521179 142.66389465 C51.78059489 142.45470697 51.78059489 142.45470697 50.44147301 141.39609051 C-3.03707987 99.0705748 -3.03707987 99.0705748 -6.49795532 72.02709961 C-7.30962659 63.54047973 -7.26892754 55.12991872 -6.8125 46.625 C-6.76948761 45.80175735 -6.72647522 44.97851471 -6.68215942 44.13032532 C-5.83461361 29.15637015 -4.00282918 14.48931631 0 0 Z " fill="#0388D1" transform="translate(67,114)"/>
<path d="M0 0 C1.88024616 1.26221371 1.88024616 1.26221371 3.67634583 3.06834412 C4.36476562 3.74844543 5.05318542 4.42854675 5.76246643 5.1292572 C6.50189987 5.88509598 7.24133331 6.64093475 8.00317383 7.41967773 C8.79394318 8.20811066 9.58471252 8.99654358 10.39944458 9.80886841 C13.01413894 12.42194582 15.61055541 15.0524227 18.20703125 17.68359375 C20.01490567 19.49825434 21.8238133 21.31188612 23.63371277 23.12452698 C27.42475459 26.92625488 31.20796901 30.73551167 34.98413086 34.55200195 C40.3165157 39.94128146 45.66615307 45.31318187 51.01898539 50.68214118 C55.16860479 54.84570565 59.31288356 59.01458446 63.45703125 63.18359375 C64.3463566 64.07782988 65.23568195 64.972066 66.15195656 65.89340019 C68.6521119 68.40974666 71.1486155 70.92965216 73.64379883 73.45092773 C74.39335342 74.20474228 75.14290802 74.95855682 75.91517639 75.73521423 C76.58949707 76.41813538 77.26381775 77.10105652 77.95857239 77.80467224 C78.54940015 78.4010723 79.14022791 78.99747236 79.74895954 79.61194515 C81 81 81 81 81 82 C79.02 82.33 77.04 82.66 75 83 C75 99.5 75 116 75 133 C79.29 133 83.58 133 88 133 C88.33 121.12 88.66 109.24 89 97 C96 96 96 96 98.33935547 97.12963867 C100.57577963 99.1019246 102.75683367 101.08761146 104.875 103.1875 C105.6393335 103.93894287 106.40366699 104.69038574 107.19116211 105.46459961 C113.37889419 112.16791889 114.68670193 117.79372094 114.50927734 126.7487793 C114.39925496 128.83652607 114.20866579 130.91979566 114 133 C118.29 133 122.58 133 127 133 C127.33 131.68 127.66 130.36 128 129 C128.66 129 129.32 129 130 129 C131.37184143 130.3918457 131.37184143 130.3918457 132.99438477 132.36328125 C137.42997642 137.57541777 142.23884048 142.3641794 147.08984375 147.1875 C148.04412993 148.13991612 148.99819188 149.09255695 149.95204163 150.04541016 C152.4370797 152.52666925 154.92510796 155.00490791 157.41381836 157.48248291 C159.96327496 160.02162485 162.50982688 162.56367646 165.05664062 165.10546875 C170.03495631 170.07312882 175.01644371 175.03759686 180 180 C178.07511587 181.44440956 176.15007619 182.8884302 174.21875 184.32421875 C168.71808677 188.68724482 166.1959045 193.4122865 164 200 C163.28054697 211.05127028 163.13194766 220.7797109 170.25 229.875 C176.55351018 234.74589423 181.98566426 236.66823387 189.9375 236.4375 C190.72366699 236.4271875 191.50983398 236.416875 192.31982422 236.40625 C198.02858285 236.24533991 202.74484293 235.33562536 208 233 C208 230.03 208 227.06 208 224 C207.1853125 224.15855469 206.370625 224.31710937 205.53125 224.48046875 C201.49288796 225.0746083 197.57567083 225.2587785 193.5 225.3125 C192.76652344 225.34150391 192.03304687 225.37050781 191.27734375 225.40039062 C186.04793769 225.46119767 183.16425199 224.42563849 179 221 C176.84410807 217.96215227 176.93994394 215.64540266 177 212 C177.59425781 212.02094727 178.18851563 212.04189453 178.80078125 212.06347656 C181.53367705 212.14741854 184.26630057 212.19890281 187 212.25 C187.46728516 212.26675781 187.46728516 212.26675781 189.83203125 212.3515625 C195.58349926 212.43200261 199.39307138 211.85995256 204.24609375 208.67089844 C206 208 206 208 208.09545898 208.76660156 C210.41258632 210.26719473 212.15776543 212.00351521 214.0625 214 C216.33653856 216.37442798 218.24521929 218.16347952 221 220 C221.95703125 221.76953125 221.95703125 221.76953125 222.8125 223.8125 C225.32588074 229.08773258 228.5282572 231.89560428 233.9375 234.3125 C237.53424936 236.2943823 239.45974512 238.59634053 242.0546875 241.7265625 C245.46528452 245.71244094 249.25483 249.33126204 253 253 C250.36240719 255.63759281 248.67469626 255.45032991 245 255.875 C237.17228223 256.97469044 229.43985716 259.22204146 223 264 C222.67 264.99 222.34 265.98 222 267 C223.26328125 266.83886719 224.5265625 266.67773438 225.828125 266.51171875 C231.14244596 265.92389742 236.40717369 265.81631086 241.75 265.8125 C242.66910156 265.80025391 243.58820313 265.78800781 244.53515625 265.77539062 C253.1274228 265.75673882 253.1274228 265.75673882 257 268 C260.66272232 275.32544463 256.31880801 284.86007317 254 292 C253.45214488 293.50541058 252.8925848 295.00671239 252.3125 296.5 C251.10808438 299.71177499 250.42413345 302.60693242 250 306 C257.24287043 303.05213589 260.83143228 294.82468705 263.75 288 C265.80900709 282.75394894 267.52058846 277.4365367 269 272 C273.19069166 272 274.77902789 274.32106111 277.58886719 277.12133789 C278.14686508 277.66604736 278.70486298 278.21075684 279.2797699 278.77197266 C281.1271632 280.58058138 282.96272493 282.40062417 284.796875 284.22265625 C286.07285547 285.48392344 287.34891858 286.74510703 288.62506104 288.00621033 C291.30050262 290.65463194 293.96912761 293.30973014 296.63427734 295.96850586 C300.05146502 299.37482339 303.49332847 302.75498656 306.94193649 306.12944889 C309.5873778 308.72653125 312.21468676 311.34138887 314.83731842 313.96148491 C316.0986702 315.2155991 317.36665089 316.46308231 318.64125824 317.703722 C320.42320759 319.44176985 322.17815052 321.20331823 323.92871094 322.97290039 C324.46058517 323.48072556 324.99245941 323.98855072 325.54045105 324.51176453 C326.97650146 325.99427795 326.97650146 325.99427795 329 329 C328.61802427 341.34921014 318.95905701 352.16390766 310.5390625 360.41015625 C305.30108293 364.99535458 299.71483999 368.49257375 293.5625 371.6875 C293.21924683 371.86937866 293.21924683 371.86937866 291.48217773 372.78979492 C289.50390625 373.76171875 289.50390625 373.76171875 286 375 C283.05013939 373.91793413 281.07336128 372.32181848 278.87496948 370.11547852 C278.57916992 369.82105362 278.57916992 369.82105362 277.08224487 368.33108521 C276.44521637 367.68686615 275.80818787 367.04264709 275.15185547 366.37890625 C274.47173401 365.69907684 273.79161255 365.01924744 273.09088135 364.31881714 C270.84487673 362.07141975 268.60603975 359.81702078 266.3671875 357.5625 C264.80871518 356.00029656 263.24979997 354.43853485 261.69046021 352.87719727 C257.58673274 348.76583446 253.48904476 344.64850291 249.39257812 340.52990723 C245.21975613 336.33665006 241.04129103 332.14902465 236.86328125 327.9609375 C229.01312406 320.09028138 221.16852611 312.21411249 213.32813835 304.33372498 C212.22016013 303.2210862 211.11031094 302.11031094 210 301 C210.28665527 300.86948242 210.28665527 300.86948242 211.73730469 300.20898438 C224.83341828 294.2098822 236.76068203 288.11187564 248 279 C247.67 277.35 247.34 275.7 247 274 C241.96540765 274.54307151 237.89173478 275.68693331 233.25 277.6875 C227.29419663 280.17453877 221.28016665 282.3087831 215.125 284.25 C214.35317383 284.49580811 213.58134766 284.74161621 212.78613281 284.99487305 C207.57561847 286.61464395 202.3385806 287.88050687 197 289 C196.61142822 288.54282089 196.22285645 288.08564178 195.82250977 287.61460876 C188.01087253 278.54464424 179.48386842 270.14552265 171.05761719 261.65258789 C169.01091819 259.58797271 166.97311116 257.5151381 164.94238281 255.43481445 C162.47074733 252.90294153 159.9846568 250.38615355 157.48757935 247.87937737 C156.08910188 246.46824878 154.7053916 245.04253428 153.32202148 243.61659241 C146.23727426 236.55476065 146.23727426 236.55476065 141.87109375 235.90991211 C141.39736328 235.92477661 141.39736328 235.92477661 139 236 C139 235.67 139 235.34 139 235 C143.29 235 147.58 235 152 235 C152 208.93 152 182.86 152 156 C147.05 156 142.1 156 137 156 C137 164.91 137 173.82 137 183 C133.7 182.01 130.4 181.02 127 180 C119.93573935 179.01242704 113.8401243 179.72370045 108 184 C105.6875 186.5 105.6875 186.5 104 189 C103.00465586 190.33681256 102.00539896 191.67073302 101 193 C100.63390625 192.56171875 100.2678125 192.1234375 99.890625 191.671875 C96.06704482 187.19282393 92.08337642 182.86710327 88 178.625 C87.75717285 178.36315918 87.75717285 178.36315918 86.52832031 177.03808594 C82.93561206 173.36399722 79.90768496 172.23718223 75 171 C72.77766987 168.29716606 71.32176648 165.98429331 70.23486328 162.65942383 C68.63079329 159.20486978 66.2495441 156.8754971 63.5546875 154.26171875 C63.02481232 153.73608841 62.49493713 153.21045807 61.94900513 152.66889954 C60.26461389 151.0012234 58.57006739 149.34431651 56.875 147.6875 C55.72717684 146.55473292 54.58003359 145.42127645 53.43359375 144.28710938 C50.63020563 141.5166953 47.81766569 138.75588867 45 136 C46.6106734 134.92621773 48.23162083 133.86445188 49.90234375 132.88671875 C57.06959596 128.66340507 60.71892629 124.13574246 63 116 C63.42188684 112.82016709 63.46578849 109.70431471 63.4375 106.5 C63.45748047 105.69691406 63.47746094 104.89382812 63.49804688 104.06640625 C63.4921302 96.76523536 61.25967291 91.66525523 56.5625 86.125 C51.61576918 82.02283298 47.03807636 81.57978305 40.79296875 81.6640625 C37.23212609 82.09235966 34.69267062 83.27226878 31.65625 85.125 C30 86 30 86 27 86 C26.67 85.34 26.34 84.68 26 84 C22.01434954 83.39386091 18.02725031 83.25435265 14 83 C14 89.93 14 96.86 14 104 C9.56987865 100.20275313 5.4313924 96.55472907 1.34008789 92.45361328 C0.82212646 91.93579788 0.30416504 91.41798248 -0.22949219 90.88447571 C-1.91449522 89.19878466 -3.5959437 87.50959669 -5.27734375 85.8203125 C-6.45539258 84.64039553 -7.63366466 83.46070142 -8.81214905 82.28121948 C-11.89347142 79.19610309 -14.97177716 76.10799411 -18.04943848 73.01922607 C-21.19844034 69.85994267 -24.35032171 66.70353484 -27.50195312 63.546875 C-33.6707711 57.36737473 -39.83640129 51.1847061 -46 45 C-45.5331514 43.56413563 -45.06323609 42.12926812 -44.59204102 40.69482422 C-44.46136482 40.29525009 -44.46136482 40.29525009 -43.80006409 38.27316284 C-37.86561494 21.41205195 -23.75166989 9.66764639 -8.5 1.4375 C-5.12704238 0.05217812 -3.53985962 -0.39700115 0 0 Z " fill="#049BE5" transform="translate(114,69)"/>
<path d="M0 0 C12.12733451 -0.09311462 24.25458248 -0.1639741 36.3822031 -0.20724869 C42.01494126 -0.22802942 47.64743294 -0.25617136 53.2800293 -0.30175781 C58.72656071 -0.34555721 64.17285662 -0.36920845 69.6195507 -0.37950897 C71.68655028 -0.38683961 73.75353852 -0.40115265 75.82043648 -0.42292023 C99.141083 -0.65851786 118.73001765 4.38069203 136 21 C153.63883132 39.32942178 157.64900241 59.71237132 157.390625 84.24609375 C157.38314725 86.35457314 157.37746159 88.46305958 157.37347412 90.57154846 C157.35833845 96.0706871 157.31916316 101.56939049 157.2746582 107.06835938 C157.23344251 112.69980993 157.2154074 118.33133211 157.1953125 123.96289062 C157.15265519 134.97544968 157.08455339 145.98768838 157 157 C152.60953092 153.31850993 148.41525326 149.53592641 144.37182617 145.46948242 C143.85707733 144.95327332 143.34232849 144.43706421 142.8119812 143.9052124 C141.70873747 142.79819901 140.60664889 141.69003338 139.50563622 140.58080101 C137.76368424 138.82596769 136.01852404 137.07438095 134.27253723 135.32356262 C130.57469046 131.61435867 126.88082139 127.90120925 123.1875 124.1875 C118.88842635 119.86481727 114.58773345 115.54377125 110.28283119 111.22689247 C108.56241176 109.49998508 106.84502578 107.77009903 105.12773132 106.04008484 C104.07903508 104.98775821 103.03019939 103.93557052 101.98120117 102.88354492 C101.06521652 101.96232346 100.14923187 101.04110199 99.20549011 100.09196472 C97 98 97 98 95 97 C95.06960938 97.71285156 95.13921875 98.42570312 95.2109375 99.16015625 C95.48759292 104.0543223 95.7012961 107.98180425 92.625 112 C86.05369563 118.38749166 77.3520091 118.32573598 68.6875 118.203125 C66 118 66 118 64 117 C64.39753821 118.46366342 64.81881384 119.9208935 65.25 121.375 C65.48203125 122.18710938 65.7140625 122.99921875 65.953125 123.8359375 C67.27522569 126.56893668 68.20265141 126.91442565 71 128 C73.47363281 128.22705078 73.47363281 128.22705078 76.203125 128.1953125 C77.1828125 128.18886719 78.1625 128.18242187 79.171875 128.17578125 C80.18765625 128.15902344 81.2034375 128.14226562 82.25 128.125 C82.765625 128.12048828 82.765625 128.12048828 85.375 128.09765625 C87.91690287 128.07412011 90.4583328 128.04124023 93 128 C93.21972656 134.06079102 93.21972656 134.06079102 93 136 C86.60790488 141.50430414 77.02384573 140.63935192 69.05566406 140.21777344 C63.45704647 139.62466573 59.0546344 137.33836963 55.359375 133.1328125 C49.73968606 124.83246733 49.11143448 115.78532778 50 106 C51.59525969 99.82743267 55.06736449 94.07708203 60 90 C68.75869521 84.95666272 76.35054008 85.60526101 86 87 C85.55677902 86.55770082 85.11355804 86.11540163 84.65690613 85.65969944 C73.88874059 74.91358694 63.12332123 64.16473171 52.36097717 53.41278934 C47.15639356 48.21336919 41.95087362 43.01489289 36.74316406 37.81860352 C32.20585624 33.29124102 27.67028967 28.76214273 23.13683414 24.23092264 C20.73478903 21.83018489 18.33186167 19.430345 15.92684937 17.03257942 C13.24710269 14.36003619 10.5704453 11.68443653 7.89453125 9.00805664 C7.09036774 8.2074884 6.28620422 7.40692017 5.45767212 6.58209229 C4.73405487 5.85710037 4.01043762 5.13210846 3.26489258 4.38514709 C2.63069901 3.75187531 1.99650543 3.11860353 1.34309387 2.4661417 C0 1 0 1 0 0 Z " fill="#4EC2F7" transform="translate(291,64)"/>
<path d="M0 0 C4.72244116 3.94488761 9.19487098 8.05069317 13.53636169 12.40937805 C14.15487552 13.02633189 14.77338935 13.64328573 15.41064602 14.27893513 C17.46420623 16.32853481 19.51420699 18.38165635 21.56420898 20.43481445 C23.04284839 21.91209771 24.52170021 23.38916839 26.00074768 24.86604309 C30.00254413 28.86329308 34.00118608 32.86368462 37.99912143 36.86479592 C42.18297954 41.05118918 46.3692807 45.2351383 50.55519104 49.41947937 C57.57692377 56.43939499 64.59654982 63.46141201 71.61499023 70.48461914 C79.74015156 78.61523492 87.8689263 86.74222476 95.99956268 94.86736518 C102.97812966 101.84140311 109.95475725 108.81737666 116.92974907 115.79499024 C121.096986 119.96378946 125.26490348 124.13190223 129.43456841 128.29827309 C133.34791476 132.20874333 137.25883079 136.12162761 141.16783714 140.03643608 C142.60698194 141.47690934 144.04698985 142.91652083 145.48789597 144.35523224 C147.44508193 146.30971037 149.39920104 148.26720226 151.3525238 150.22554016 C151.93139121 150.80217685 152.51025862 151.37881353 153.10666746 151.97292405 C157 155.88584937 157 155.88584937 157 157 C144.87266549 157.09311462 132.74541752 157.1639741 120.6177969 157.20724869 C114.98505874 157.22802942 109.35256706 157.25617136 103.7199707 157.30175781 C98.27343929 157.34555721 92.82714338 157.36920845 87.3804493 157.37950897 C85.31344972 157.38683961 83.24646148 157.40115265 81.17956352 157.42292023 C57.858917 157.65851786 38.26998235 152.61930797 21 136 C3.36116868 117.67057822 -0.64900241 97.28762868 -0.390625 72.75390625 C-0.38314725 70.64542686 -0.37746159 68.53694042 -0.37347412 66.42845154 C-0.35833845 60.9293129 -0.31916316 55.43060951 -0.2746582 49.93164062 C-0.23344251 44.30019007 -0.2154074 38.66866789 -0.1953125 33.03710938 C-0.15265519 22.02455032 -0.08455339 11.01231162 0 0 Z " fill="#0E5FA0" transform="translate(64,291)"/>
<path d="M0 0 C2.57293406 1.98849023 4.80844313 4.28298798 7.08520508 6.59936523 C7.4318219 6.94408371 7.4318219 6.94408371 9.18591309 8.68856812 C11.47367272 10.96892077 13.74671876 13.26335054 16.01953125 15.55859375 C17.60349315 17.14493952 19.1881947 18.73054707 20.77360535 20.31544495 C24.09253111 23.63749873 27.40462812 26.96616537 30.71166992 30.30004883 C34.9599134 34.58232717 39.22125988 38.85126582 43.48730946 43.115798 C46.75887044 46.38790158 50.02520236 49.66518205 53.28977013 52.94426155 C54.85992358 54.52079699 56.43130691 56.09610848 58.00391579 57.67019463 C60.19495967 59.86555344 62.3793026 62.06735713 64.56176758 64.27124023 C65.21781479 64.92638107 65.873862 65.58152191 66.54978943 66.2565155 C71 70.77104579 71 70.77104579 71 73 C55.76407721 77.15145025 40.41697426 79.20717941 24.6875 80.125 C23.86731258 80.17461254 23.04712517 80.22422508 22.20208359 80.27534103 C0.62626513 81.4293539 -16.04248309 78.49505143 -32.68266487 64.04945374 C-49.64322103 48.76325537 -65.28391778 31.25849675 -79 13 C-79 12.67 -79 12.34 -79 12 C-77.82308594 11.96261719 -76.64617187 11.92523438 -75.43359375 11.88671875 C-52.41274691 11.02322999 -29.44258749 8.53782267 -7.953125 -0.14453125 C-4.50806281 -1.14250561 -3.37431615 -1.18166866 0 0 Z " fill="#0288D1" transform="translate(327,372)"/>
<path d="M0 0 C4.34320434 0.5828197 7.27601718 2.16933889 11 4.4375 C35.46009759 18.7761779 62.07102595 28.18116665 90 33 C90.93811523 33.16226074 91.87623047 33.32452148 92.84277344 33.49169922 C115.56816935 37.24057709 139.22722795 37.61472572 162 34 C163.299375 33.79375 164.59875 33.5875 165.9375 33.375 C169.98136921 32.6689276 173.98989549 31.87476447 178 31 C178.37471436 30.91830566 178.37471436 30.91830566 180.27099609 30.50488281 C196.19237573 26.94927233 212.42390249 22.42427397 227 15 C229.75 14.6875 229.75 14.6875 232 15 C232.33 15.33 232.33 15.33 234 17 C233.8823567 20.24588571 233.32167943 21.65796942 231.0859375 24.03515625 C193.30078234 52.29235442 145.06602191 61.49015112 98.86962891 55.4453125 C61.96640833 49.7186259 29.42821172 31.82525111 2 7 C1.37222656 6.43796875 0.74445313 5.8759375 0.09765625 5.296875 C-0.26457031 4.86890625 -0.62679687 4.4409375 -1 4 C-0.6875 1.8125 -0.6875 1.8125 0 0 Z " fill="#FAFCFE" transform="translate(129,327)"/>
<path d="M0 0 C4.95 0 9.9 0 15 0 C15 26.07 15 52.14 15 79 C10.38 79 5.76 79 1 79 C1 77.68 1 76.36 1 75 C0.38511719 75.34933594 -0.22976562 75.69867188 -0.86328125 76.05859375 C-1.67152344 76.51363281 -2.47976562 76.96867187 -3.3125 77.4375 C-4.11300781 77.88996094 -4.91351563 78.34242188 -5.73828125 78.80859375 C-11.11221421 81.639422 -16.59011996 81.96558092 -22.4140625 80.31640625 C-30.18494749 77.18466163 -33.88146202 72.01245679 -37.14233398 64.49926758 C-38.55000498 60.39726701 -38.68179282 56.49456747 -38.625 52.1875 C-38.61662109 51.31528809 -38.60824219 50.44307617 -38.59960938 49.54443359 C-38.30267107 41.02325182 -36.16843635 34.05853407 -29.92578125 27.98046875 C-25.43296846 24.43438546 -21.70586428 22.84519629 -15.9375 22.6875 C-15.05964844 22.65011719 -14.18179688 22.61273438 -13.27734375 22.57421875 C-10 23 -10 23 0 27 C0 18.09 0 9.18 0 0 Z " fill="#FCFDFE" transform="translate(251,225)"/>
<path d="M0 0 C5.283272 3.84237964 9.89424307 8.62856787 11.75 15 C12.76424781 24.43433207 13.38117892 35.92864355 7.75 44 C3.83365079 48.26946266 -0.63275935 52.4709478 -6.546875 53.3359375 C-7.35640625 53.34882813 -8.1659375 53.36171875 -9 53.375 C-9.79921875 53.40335938 -10.5984375 53.43171875 -11.421875 53.4609375 C-14.25 53 -14.25 53 -22.25 49 C-22.58 56.59 -22.91 64.18 -23.25 72 C-34.08984375 72.09765625 -34.08984375 72.09765625 -37.25 72 C-38.25 71 -38.25 71 -38.37025452 68.22227478 C-38.36803391 66.98095291 -38.36581329 65.73963104 -38.36352539 64.46069336 C-38.36367142 63.77779739 -38.36381744 63.09490143 -38.3639679 62.39131165 C-38.36326876 60.12412386 -38.3554764 57.85701726 -38.34765625 55.58984375 C-38.34579207 54.02185613 -38.34436817 52.45386793 -38.34336853 50.88587952 C-38.33954334 46.75123497 -38.32971306 42.61662534 -38.31866455 38.48199463 C-38.30845044 34.26599602 -38.30387091 30.04999178 -38.29882812 25.83398438 C-38.28809079 17.55597353 -38.27101436 9.2779911 -38.25 1 C-34.29 1 -30.33 1 -26.25 1 C-25.92 1.99 -25.59 2.98 -25.25 4 C-24.58355469 3.6390625 -23.91710937 3.278125 -23.23046875 2.90625 C-15.31849189 -1.07740268 -8.61962067 -2.65219098 0 0 Z " fill="#FBFDFE" transform="translate(166.25,151)"/>
<path d="M0 0 C0.57234375 0.36222656 1.1446875 0.72445312 1.734375 1.09765625 C6.87102697 4.84842934 9.05121748 10.15365243 11 16 C11.76490646 26.93440056 11.49442181 37.22393394 4.75 46.4375 C-2.61700436 53.30220861 -10.59279583 54.43143434 -20.3828125 54.33984375 C-28.12878632 53.61209027 -33.792486 50.0071136 -38.74609375 44.13671875 C-42.5004228 37.73915491 -43.55806801 31.91878268 -43.5 24.625 C-43.49427979 23.79009033 -43.48855957 22.95518066 -43.48266602 22.0949707 C-43.26081786 14.43037836 -41.55761589 8.93788362 -36.35546875 3.1796875 C-26.49633817 -6.03403724 -11.46444287 -7.34591402 0 0 Z " fill="#FAFDFE" transform="translate(376,252)"/>
<path d="M0 0 C1.94140625 1.08984375 1.94140625 1.08984375 4.75390625 3.08984375 C4.75390625 3.74984375 4.75390625 4.40984375 4.75390625 5.08984375 C5.56472656 4.65671875 6.37554687 4.22359375 7.2109375 3.77734375 C14.54764522 0.08763742 20.5049559 -2.2668915 28.75390625 -0.91015625 C33.53013631 0.73981414 36.10147406 2.80293046 38.75390625 7.08984375 C39.31074924 10.45382178 39.24349804 13.76569424 39.1796875 17.16796875 C39.17804344 17.65155853 39.17804344 17.65155853 39.16972351 20.09881592 C39.15932378 22.13625857 39.13940974 24.17367206 39.1105957 26.2109375 C39.06636716 29.3426119 39.04913645 32.47352013 39.03710938 35.60546875 C39.02369166 37.58464658 39.00877045 39.56381491 38.9921875 41.54296875 C38.98480057 42.48456848 38.97741364 43.42616821 38.96980286 44.39630127 C38.95696762 45.26100037 38.94413239 46.12569946 38.9309082 47.01660156 C38.921064 47.7809552 38.91121979 48.54530884 38.90107727 49.33282471 C38.75390625 51.08984375 38.75390625 51.08984375 37.75390625 52.08984375 C35.75591053 52.18858191 33.75433467 52.21956174 31.75390625 52.21484375 C30.66078125 52.21742188 29.56765625 52.22 28.44140625 52.22265625 C25.75390625 52.08984375 25.75390625 52.08984375 24.75390625 51.08984375 C24.63082619 48.38779813 24.56780487 45.70734378 24.54296875 43.00390625 C24.51489953 41.33462562 24.48623506 39.66535491 24.45703125 37.99609375 C24.4157461 35.35384401 24.37887571 32.71177938 24.35253906 30.06933594 C24.32496969 27.52629916 24.2790968 24.98411573 24.23046875 22.44140625 C24.22721588 21.65069733 24.22396301 20.8599884 24.22061157 20.0453186 C24.09855758 14.61313702 24.09855758 14.61313702 22.43505859 12.08740234 C19.57111775 10.38800323 16.99406298 10.81051989 13.75390625 11.08984375 C12.07255073 11.71854546 10.4022064 12.37897891 8.75390625 13.08984375 C8.74137817 13.66279175 8.74137817 13.66279175 8.67797852 16.56225586 C8.58407519 20.79837973 8.4838135 25.03433303 8.3815918 29.27026367 C8.33817805 31.10648622 8.29650786 32.94275083 8.2565918 34.77905273 C8.19904456 37.41272686 8.13530627 40.04618796 8.0703125 42.6796875 C8.05360001 43.50572983 8.03688751 44.33177216 8.01966858 45.18284607 C7.86777796 50.97597204 7.86777796 50.97597204 6.75390625 52.08984375 C4.58909828 52.18877315 2.4209684 52.21955475 0.25390625 52.21484375 C-0.93203125 52.21742188 -2.11796875 52.22 -3.33984375 52.22265625 C-6.24609375 52.08984375 -6.24609375 52.08984375 -7.24609375 51.08984375 C-7.39392414 48.29173447 -7.48114691 45.51516739 -7.52734375 42.71484375 C-7.53654846 42.29501221 -7.53654846 42.29501221 -7.58312988 40.17041016 C-7.66208435 36.56230855 -7.72964072 32.9540122 -7.79833984 29.34570312 C-7.84995277 26.71865264 -7.90724901 24.09176876 -7.96484375 21.46484375 C-7.97841919 20.64193848 -7.99199463 19.8190332 -8.00598145 18.97119141 C-8.13329194 13.20264556 -8.13329194 13.20264556 -9.24609375 12.08984375 C-11.22322182 11.99084176 -13.20399413 11.96013602 -15.18359375 11.96484375 C-16.26511719 11.96226562 -17.34664063 11.9596875 -18.4609375 11.95703125 C-21.24609375 12.08984375 -21.24609375 12.08984375 -23.24609375 13.08984375 C-23.2711499 14.23573975 -23.29620605 15.38163574 -23.32202148 16.56225586 C-23.41592481 20.79837973 -23.5161865 25.03433303 -23.6184082 29.27026367 C-23.66182195 31.10648622 -23.70349214 32.94275083 -23.7434082 34.77905273 C-23.80095544 37.41272686 -23.86469373 40.04618796 -23.9296875 42.6796875 C-23.94639999 43.50572983 -23.96311249 44.33177216 -23.98033142 45.18284607 C-24.13222204 50.97597204 -24.13222204 50.97597204 -25.24609375 52.08984375 C-27.41090172 52.18877315 -29.5790316 52.21955475 -31.74609375 52.21484375 C-32.93203125 52.21742188 -34.11796875 52.22 -35.33984375 52.22265625 C-38.24609375 52.08984375 -38.24609375 52.08984375 -39.24609375 51.08984375 C-39.34448589 49.56049745 -39.37407914 48.02664809 -39.37548828 46.49414062 C-39.37864044 45.516427 -39.3817926 44.53871338 -39.38504028 43.53137207 C-39.38301605 42.46785522 -39.38099182 41.40433838 -39.37890625 40.30859375 C-39.37986298 39.22477417 -39.3808197 38.14095459 -39.38180542 37.02429199 C-39.3824874 34.72761985 -39.38063186 32.4309458 -39.37646484 30.13427734 C-39.37111687 26.60509947 -39.37640925 23.07604888 -39.3828125 19.546875 C-39.38215172 17.3216143 -39.38087057 15.09635368 -39.37890625 12.87109375 C-39.38093048 11.8075769 -39.38295471 10.74406006 -39.38504028 9.64831543 C-39.38188812 8.67060181 -39.37873596 7.69288818 -39.37548828 6.68554688 C-39.37469269 5.82030396 -39.37389709 4.95506104 -39.37307739 4.06359863 C-39.24609375 2.08984375 -39.24609375 2.08984375 -38.24609375 1.08984375 C-36.45888805 0.93848431 -34.66447499 0.86808597 -32.87109375 0.83984375 C-31.89398438 0.8140625 -30.916875 0.78828125 -29.91015625 0.76171875 C-27.24609375 1.08984375 -27.24609375 1.08984375 -25.39453125 2.60546875 C-25.01554687 3.0953125 -24.6365625 3.58515625 -24.24609375 4.08984375 C-23.57964844 3.72890625 -22.91320312 3.36796875 -22.2265625 2.99609375 C-15.03810881 -0.62326755 -7.85648677 -3.18358507 0 0 Z " fill="#F9FDFE" transform="translate(293.24609375,150.91015625)"/>
<path d="M0 0 C3.98076069 3.22039067 6.85244033 6.25999405 7.52734375 11.52734375 C7.70051113 16.68773161 7.73668879 20.83626793 4.1875 24.875 C-1.69585032 30.2938753 -6.67206061 31.18812734 -14.375 31.0625 C-15.12974609 31.06185547 -15.88449219 31.06121094 -16.66210938 31.06054688 C-20.20791407 31.03243036 -23.40195316 30.82672532 -26.8125 29.875 C-26.44020573 31.31877535 -26.03853132 32.75499097 -25.625 34.1875 C-25.40457031 34.98800781 -25.18414062 35.78851563 -24.95703125 36.61328125 C-23.37887653 39.73188733 -22.03476032 40.52303287 -18.8125 41.875 C-15.98622037 42.23948236 -13.21973876 42.20408917 -10.375 42.125 C-9.63701172 42.11984375 -8.89902344 42.1146875 -8.13867188 42.109375 C-3.92334783 42.04942372 0.02389892 41.57000605 4.1875 40.875 C5.1875 41.875 5.1875 41.875 5.28515625 43.94140625 C5.27355469 44.76511719 5.26195312 45.58882813 5.25 46.4375 C5.24097656 47.26378906 5.23195313 48.09007812 5.22265625 48.94140625 C5.21105469 49.57949219 5.19945312 50.21757812 5.1875 50.875 C-4.74633155 55.18590803 -15.3727389 56.95957074 -26.046875 53.96875 C-32.60568566 50.86822133 -36.79304003 46.80464323 -39.625 40.0625 C-42.05102472 31.85026689 -42.48605377 20.83289189 -39.25 12.8125 C-35.88460561 6.73117329 -31.39459548 0.35240885 -24.4453125 -1.71875 C-16.67863088 -2.91716972 -7.03318594 -4.10600309 0 0 Z " fill="#FAFDFE" transform="translate(317.8125,251.125)"/>
<path d="M0 0 C4.40681383 3.99107667 7.13408522 7.68356515 7.4375 13.6875 C7.36079691 18.51282144 6.38521939 21.19779599 2.94921875 24.59375 C-4.2753018 29.80582895 -13.44567427 29.64654787 -22 29 C-22.66 28.67 -23.32 28.34 -24 28 C-23.60246179 29.46366342 -23.18118616 30.9208935 -22.75 32.375 C-22.51796875 33.18710938 -22.2859375 33.99921875 -22.046875 34.8359375 C-20.72477431 37.56893668 -19.79734859 37.91442565 -17 39 C-14.52636719 39.22705078 -14.52636719 39.22705078 -11.796875 39.1953125 C-10.8171875 39.18886719 -9.8375 39.18242187 -8.828125 39.17578125 C-7.81234375 39.15902344 -6.7965625 39.14226562 -5.75 39.125 C-4.71875 39.11597656 -3.6875 39.10695312 -2.625 39.09765625 C-0.08309713 39.07412011 2.4583328 39.04124023 5 39 C5.21972656 45.06079102 5.21972656 45.06079102 5 47 C-1.39209512 52.50430414 -10.97615427 51.63935192 -18.94433594 51.21777344 C-24.54295353 50.62466573 -28.9453656 48.33836963 -32.640625 44.1328125 C-38.26031394 35.83246733 -38.88856552 26.78532778 -38 17 C-36.40474031 10.82743267 -32.93263551 5.07708203 -28 1 C-19.1571354 -4.09180278 -9.1368071 -4.93696143 0 0 Z " fill="#FAFDFE" transform="translate(379,153)"/>
<path d="M0 0 C5.28 0 10.56 0 16 0 C19.27826619 9.63810261 22.46419109 19.2567015 25.140625 29.08203125 C25.94355665 31.80834917 26.92672414 34.37136024 28 37 C28.19110352 36.33581055 28.38220703 35.67162109 28.57910156 34.98730469 C38.12280702 1.87719298 38.12280702 1.87719298 40 0 C42.53049402 -0.07313567 45.03304837 -0.09247527 47.5625 -0.0625 C47.91795898 -0.06024414 47.91795898 -0.06024414 49.71679688 -0.04882812 C51.47790013 -0.03700864 53.23896036 -0.01907263 55 0 C54.42040259 5.72893285 52.85735399 10.58743424 50.76171875 15.93359375 C50.60069923 16.35197762 50.60069923 16.35197762 49.7858429 18.46925354 C49.10593556 20.23126706 48.42245304 21.99190475 47.7355957 23.7512207 C46.69328778 26.42266587 45.66314406 29.09855672 44.63476562 31.77539062 C43.96946599 33.49506884 43.30347287 35.21447895 42.63671875 36.93359375 C42.33239426 37.72342148 42.02806976 38.51324921 41.71452332 39.32701111 C36.58914904 52.41085096 36.58914904 52.41085096 34 55 C31.81360547 55.07258946 29.62499611 55.08373783 27.4375 55.0625 C26.83873047 55.05798828 26.83873047 55.05798828 23.80859375 55.03515625 C22.88175781 55.02355469 21.95492187 55.01195312 21 55 C17.59140353 48.44446133 14.62331043 41.85095439 12.01171875 34.94140625 C11.66365677 34.03043686 11.31559479 33.11946747 10.95698547 32.18089294 C10.23106593 30.27691892 9.50771425 28.37196397 8.78686523 26.46606445 C7.68002465 23.54275664 6.56222392 20.62380208 5.44335938 17.70507812 C4.73632538 15.84660276 4.02992205 13.98788732 3.32421875 12.12890625 C2.98992355 11.25706192 2.65562836 10.38521759 2.311203 9.48695374 C2.00700943 8.67858566 1.70281586 7.87021759 1.3894043 7.03735352 C1.12024704 6.32805191 0.85108978 5.61875031 0.57377625 4.88795471 C0 3 0 3 0 0 Z " fill="#F9FCFD" transform="translate(125,250)"/>
<path d="M0 0 C1 1 1 1 1.1328125 3.6875 C1.13023437 4.780625 1.12765625 5.87375 1.125 7 C1.12628906 7.5465625 1.12628906 7.5465625 1.1328125 10.3125 C1 13 1 13 0 14 C-2.85877909 14.23701239 -5.69883297 14.42219182 -8.5625 14.5625 C-9.36880859 14.60568359 -10.17511719 14.64886719 -11.00585938 14.69335938 C-13.00368805 14.79975262 -15.0018207 14.90040888 -17 15 C-16.99476318 16.08531006 -16.98952637 17.17062012 -16.98413086 18.28881836 C-16.96608164 22.30117982 -16.95456829 26.31353767 -16.94506836 30.32592773 C-16.94002796 32.06519168 -16.9331957 33.80445136 -16.92456055 35.54370117 C-16.91248208 38.03825937 -16.90676892 40.53276173 -16.90234375 43.02734375 C-16.89718246 43.80963852 -16.89202118 44.59193329 -16.88670349 45.39793396 C-16.88650774 47.26567114 -16.93800306 49.13329204 -17 51 C-18 52 -18 52 -20.90625 52.1328125 C-22.0921875 52.13023437 -23.278125 52.12765625 -24.5 52.125 C-25.6859375 52.12757813 -26.871875 52.13015625 -28.09375 52.1328125 C-31 52 -31 52 -32 51 C-32.09326716 49.43452952 -32.11745582 47.86487228 -32.11352539 46.29663086 C-32.11344986 45.29566879 -32.11337433 44.29470673 -32.11329651 43.26341248 C-32.10813522 42.1748848 -32.10297394 41.08635712 -32.09765625 39.96484375 C-32.0962413 38.85645645 -32.09482635 37.74806915 -32.09336853 36.60609436 C-32.08775033 33.04986931 -32.07519475 29.49370617 -32.0625 25.9375 C-32.05748734 23.53320403 -32.05292403 21.12890708 -32.04882812 18.72460938 C-32.03777499 12.81638496 -32.02101917 6.9081969 -32 1 C-30.02090602 0.97313447 -28.04171029 0.95366625 -26.0625 0.9375 C-24.96035156 0.92589844 -23.85820312 0.91429687 -22.72265625 0.90234375 C-20 1 -20 1 -19 2 C-18.95936168 3.66617115 -18.957279 5.33388095 -19 7 C-16.53408786 5.56155125 -14.18220472 4.14355523 -11.9375 2.375 C-8.18099926 -0.29090375 -4.5185966 -0.20082652 0 0 Z " fill="#F8FCFE" transform="translate(220,151)"/>
<path d="M0 0 C2.47923801 -0.02685095 4.9581884 -0.04676547 7.4375 -0.0625 C8.14455078 -0.07087891 8.85160156 -0.07925781 9.58007812 -0.08789062 C11.38693559 -0.09653588 13.19387603 -0.05220011 15 0 C16.65181693 1.65181693 16.12741921 3.58213733 16.12939453 5.85522461 C16.13254669 6.8897728 16.13569885 7.92432098 16.13894653 8.99021912 C16.1369223 10.11622025 16.13489807 11.24222137 16.1328125 12.40234375 C16.13329086 12.97636177 16.13329086 12.97636177 16.13571167 15.88124084 C16.13639374 18.31495213 16.13453758 20.74866523 16.13037109 23.18237305 C16.12502811 26.91784743 16.13031269 30.65320129 16.13671875 34.38867188 C16.13605788 36.7473961 16.13477653 39.10612025 16.1328125 41.46484375 C16.13483673 42.58882065 16.13686096 43.71279755 16.13894653 44.87083435 C16.13579437 45.9085347 16.13264221 46.94623505 16.12939453 48.01538086 C16.12859894 48.93169785 16.12780334 49.84801483 16.12698364 50.792099 C16 53 16 53 15 55 C12.68756208 55.02685412 10.3750373 55.04632841 8.0625 55.0625 C6.77472656 55.07410156 5.48695313 55.08570313 4.16015625 55.09765625 C1 55 1 55 0 54 C-0.09353163 52.31198015 -0.11744791 50.62004793 -0.11352539 48.92944336 C-0.11344986 47.84839828 -0.11337433 46.76735321 -0.11329651 45.65354919 C-0.10813522 44.4775264 -0.10297394 43.3015036 -0.09765625 42.08984375 C-0.0962413 40.89267227 -0.09482635 39.69550079 -0.09336853 38.46205139 C-0.08774979 34.62050934 -0.07519411 30.77902457 -0.0625 26.9375 C-0.05748741 24.34049563 -0.05292409 21.74349035 -0.04882812 19.14648438 C-0.03777427 12.76430321 -0.02101792 6.3821557 0 0 Z " fill="#F7FBFD" transform="translate(187,250)"/>
<path d="M0 0 C0.78689209 0.00273926 1.57378418 0.00547852 2.38452148 0.00830078 C8.13416807 0.11189802 12.80676061 0.82796865 18.0625 3.3125 C21.60014636 10.38779272 18.28138441 20.27112083 16.0625 27.3125 C13.18345315 35.8078693 9.27484731 43.72963496 3.0625 50.3125 C0.81640625 51.11328125 0.81640625 51.11328125 -0.9375 51.3125 C-1.36635775 47.23835133 -0.69334701 44.3847439 0.875 40.6875 C4.33281553 32.51671883 6.72308419 24.23038659 6.0625 15.3125 C5.0625 13.3125 5.0625 13.3125 3.43457031 12.69360352 C0.30133743 12.19020947 -2.71687682 12.20139566 -5.890625 12.21484375 C-6.55084656 12.2162587 -7.21106812 12.21767365 -7.89129639 12.21913147 C-9.99007794 12.22470755 -12.08875095 12.23725553 -14.1875 12.25 C-15.61458179 12.2550181 -17.04166525 12.25958046 -18.46875 12.26367188 C-21.95836832 12.27466912 -25.44792356 12.2919172 -28.9375 12.3125 C-28.21533203 8.51660156 -28.21533203 8.51660156 -25.71484375 6.6796875 C-25.24626953 6.43347656 -25.24626953 6.43347656 -22.875 5.1875 C-21.95589844 4.68992187 -21.03679687 4.19234375 -20.08984375 3.6796875 C-13.39162835 0.77463745 -7.21440775 -0.05078943 0 0 Z " fill="#F8FCFE" transform="translate(364.9375,323.6875)"/>
<path d="M0 0 C1.08152344 0.01417969 2.16304687 0.02835938 3.27734375 0.04296875 C3.81939453 0.04619141 3.81939453 0.04619141 6.5625 0.0625 C9.21484375 0.23046875 9.21484375 0.23046875 10.21484375 1.23046875 C10.31331342 2.79045923 10.34282993 4.35487419 10.34423828 5.91796875 C10.34739044 6.91570312 10.3505426 7.9134375 10.35379028 8.94140625 C10.35176605 10.02679688 10.34974182 11.1121875 10.34765625 12.23046875 C10.34861298 13.33648437 10.3495697 14.4425 10.35055542 15.58203125 C10.35123742 17.92578183 10.34938179 20.26953428 10.34521484 22.61328125 C10.33986689 26.21488663 10.34515922 29.81636728 10.3515625 33.41796875 C10.35090172 35.68880236 10.34962057 37.95963589 10.34765625 40.23046875 C10.34968048 41.31585938 10.35170471 42.40125 10.35379028 43.51953125 C10.35063812 44.51726562 10.34748596 45.515 10.34423828 46.54296875 C10.34384048 46.98447266 10.34384048 46.98447266 10.34182739 49.21875 C10.21484375 51.23046875 10.21484375 51.23046875 9.21484375 52.23046875 C7.05003578 52.32939815 4.8819059 52.36017975 2.71484375 52.35546875 C1.52890625 52.35804688 0.34296875 52.360625 -0.87890625 52.36328125 C-3.78515625 52.23046875 -3.78515625 52.23046875 -4.78515625 51.23046875 C-4.88874404 49.70660644 -4.92366763 48.17799889 -4.93041992 46.65063477 C-4.93679977 45.67614883 -4.94317963 44.7016629 -4.94975281 43.69764709 C-4.95086563 42.6372673 -4.95197845 41.57688751 -4.953125 40.484375 C-4.9564534 39.40292709 -4.9597818 38.32147919 -4.96321106 37.20726013 C-4.96828502 34.91478909 -4.97061924 32.62231063 -4.97045898 30.32983398 C-4.9726447 26.81156308 -4.99079353 23.29360594 -5.00976562 19.77539062 C-5.01269953 17.5533865 -5.01468434 15.33138087 -5.015625 13.109375 C-5.02281052 12.05101944 -5.02999603 10.99266388 -5.03739929 9.90223694 C-5.03432266 8.92459885 -5.03124603 7.94696075 -5.02807617 6.93969727 C-5.02950119 6.07667496 -5.03092621 5.21365265 -5.03239441 4.32447815 C-4.62321451 0.85888629 -3.34989927 0.27720064 0 0 Z " fill="#F3FAFE" transform="translate(231.78515625,150.76953125)"/>
<path d="M0 0 C4.36363636 1.36363636 4.36363636 1.36363636 6 3 C6.08767112 5.07262076 6.10695873 7.14820294 6.09765625 9.22265625 C6.09443359 10.48271484 6.09121094 11.74277344 6.08789062 13.04101562 C6.07953403 14.38151109 6.07106907 15.72200588 6.0625 17.0625 C6.0574866 18.40689942 6.05292342 19.7513006 6.04882812 21.09570312 C6.03699488 24.39717941 6.02050971 27.69856803 6 31 C0.98848515 33.26056398 -2.34537944 34.62829117 -8 34 C-11.72516638 32.56073117 -12.76690753 31.45038206 -14.61328125 27.8828125 C-16.21201684 23.94805046 -16.48159438 20.15051743 -16.4375 15.9375 C-16.45748047 15.25623047 -16.47746094 14.57496094 -16.49804688 13.87304688 C-16.49315477 8.78036605 -15.20466774 5.90007484 -12 2 C-7.9497118 -0.70019213 -4.74947804 -0.4249533 0 0 Z " fill="#0B9EE5" transform="translate(245,260)"/>
<path d="M0 0 C3.40835388 1.39432659 4.69837735 2.50338159 6.61328125 5.65625 C9.28835544 12.10656974 9.13998508 19.98374487 7.23828125 26.68359375 C5.47833033 30.47479237 3.83879077 32.4746048 0 34 C-4.13151725 34.45071097 -6.25050691 34.46635126 -9.8125 32.25 C-14.37528773 27.55684691 -14.3648436 23.41181417 -14.375 17.125 C-14.39949219 16.33480469 -14.42398437 15.54460937 -14.44921875 14.73046875 C-14.47612716 9.33981824 -13.60295056 6.25330264 -10 2 C-6.27420911 -0.48386059 -4.41288598 -0.3804212 0 0 Z " fill="#07AAF4" transform="translate(363,260)"/>
<path d="M0 0 C2.7665577 1.20285118 4.38129586 2.11861797 6.11328125 4.5859375 C7.41856212 8.13952153 7.32854578 11.63954297 7.3125 15.375 C7.32861328 16.1175 7.34472656 16.86 7.36132812 17.625 C7.36562166 22.48528054 6.63386634 25.77024421 4 30 C1.04390377 32.408671 -2.17183055 32.2668664 -5.90234375 32.36328125 C-8.86601636 31.85001951 -10.61075996 30.82829013 -13 29 C-13.64697266 26.3203125 -13.64697266 26.3203125 -13.6640625 23.125 C-13.67050781 21.97515625 -13.67695313 20.8253125 -13.68359375 19.640625 C-13.66425781 18.43921875 -13.64492187 17.2378125 -13.625 16 C-13.64433594 14.79859375 -13.66367188 13.5971875 -13.68359375 12.359375 C-13.67714844 11.20953125 -13.67070312 10.0596875 -13.6640625 8.875 C-13.65842285 7.82054687 -13.6527832 6.76609375 -13.64697266 5.6796875 C-13 3 -13 3 -10.58740234 1.15771484 C-6.90546524 -0.48974182 -3.9571495 -0.59277138 0 0 Z " fill="#079CE5" transform="translate(156,161)"/>
<path d="M0 0 C3.375 2.0625 3.375 2.0625 6 5 C6.625 8.5625 6.625 8.5625 6 12 C4.13291495 14.36497439 2.67938569 15.66030715 0 17 C-4.33327174 17.49055907 -6.32000344 17.47744439 -9.9375 14.9375 C-12.52001338 11.25937488 -12.72125695 9.40768137 -12 5 C-8.49865085 0.56495774 -5.61352261 -0.64771415 0 0 Z " fill="#F5FBFD" transform="translate(198,224)"/>
<path d="M0 0 C2.19042969 1.50683594 2.19042969 1.50683594 4 4 C4.3491005 6.8896512 4.4681562 9.3859271 4.390625 12.265625 C4.38496521 13.05902283 4.37930542 13.85242065 4.37347412 14.66986084 C4.35113147 17.19719473 4.30094176 19.72309665 4.25 22.25 C4.22993214 23.96612532 4.21168187 25.68227292 4.1953125 27.3984375 C4.15127395 31.5995078 4.08226326 35.79951135 4 40 C3.67 40 3.34 40 3 40 C3.10183594 38.73027344 3.20367187 37.46054688 3.30859375 36.15234375 C3.612761 28.33090026 3.83813046 21.58212753 -1.40625 15.33203125 C-5.01461773 11.59167654 -8.90038683 8.19144774 -13 5 C-12 2 -12 2 -9.875 0.8125 C-6.35940595 -0.18103745 -3.63776902 -0.39684753 0 0 Z " fill="#33B9F6" transform="translate(314,161)"/>
<path d="M0 0 C2.5625 1.5625 2.5625 1.5625 4 4 C4.125 7.5625 4.125 7.5625 3 11 C-1.73548011 14.76409957 -7.21322882 14.517921 -13 14 C-13.99 13.67 -14.98 13.34 -16 13 C-15.59709958 7.35939411 -13.78085674 4.96528877 -10 1 C-6.79370768 -0.60314616 -3.47853436 -0.48027102 0 0 Z " fill="#0D9FE6" transform="translate(307,259)"/>
<path d="M0 0 C2.9375 1.5625 2.9375 1.5625 5 4 C5.52295836 7.66070853 5.60131296 9.92608963 3.77734375 13.18359375 C2 15 2 15 -0.33984375 15.56640625 C-7.27554561 15.55597662 -7.27554561 15.55597662 -10.6875 12.9375 C-12.40553017 9.09238485 -12.18896834 7.01276815 -11 3 C-7.91488564 -0.67840558 -4.57457341 -0.56178972 0 0 Z " fill="#F6FCFE" transform="translate(238,128)"/>
<path d="M0 0 C2.5875885 0.58148056 3.54221876 1.32634547 5.0859375 3.46875 C4.9609375 7.03125 4.9609375 7.03125 4.0859375 10.46875 C0.3491532 12.95993953 -1.65858069 12.6752726 -6.1015625 12.59375 C-7.37386719 12.57570312 -8.64617187 12.55765625 -9.95703125 12.5390625 C-10.44494141 12.52746094 -10.44494141 12.52746094 -12.9140625 12.46875 C-12.67444974 8.395333 -12.23083676 5.9340122 -9.9140625 2.53125 C-6.33267728 0.06904766 -4.23560497 -0.05782396 0 0 Z " fill="#31B8F6" transform="translate(367.9140625,160.53125)"/>
<path d="M0 0 C5.99959229 4.95618494 11.80855449 10.19226619 17 16 C17 16.66 17 17.32 17 18 C13.93570224 19.53214888 11.3834358 19.22938548 8 19 C4.28034668 17.56286122 3.19969652 16.34430435 1.1875 12.875 C-0.42623819 8.64120375 -0.27343849 4.46616199 0 0 Z " fill="#098BD2" transform="translate(229,275)"/>
<path d="M0 0 C0.66 0.33 1.32 0.66 2 1 C-1.96 4.96 -5.92 8.92 -10 13 C-10.66 12.67 -11.32 12.34 -12 12 C-8.27653164 7.57905197 -4.70478962 3.42166518 0 0 Z " fill="#13AAEB" transform="translate(93,78)"/>
<path d="M0 0 C7.28089888 -0.48539326 7.28089888 -0.48539326 10.5 1.6875 C12.24633224 4.37976221 12.34982212 5.85160094 12 9 C11.38125 8.21625 10.7625 7.4325 10.125 6.625 C6.77971259 2.49258614 5.2602315 1.68611715 0 1 C0 0.67 0 0.34 0 0 Z " fill="#3AB7F1" transform="translate(299,259)"/>
<path d="M0 0 C-0.66 0.33 -0.66 0.33 -4 2 C-4.66 1.34 -5.32 0.68 -6 0 C-3.50907189 -1.24546405 -2.58919267 -0.7767578 0 0 Z " fill="#1BAFF3" transform="translate(118,68)"/>
</svg>
