<?xml version="1.0" encoding="UTF-8"?>
<!-- Generator: visioncortex VTracer 0.6.12 -->
<svg version="1.1" xmlns="http://www.w3.org/2000/svg" width="512" height="512">
<path d="M0 0 C70.62 0 141.24 0 214 0 C214.0825 27.225 214.165 54.45 214.25 82.5 C214.28641602 91.09353516 214.32283203 99.68707031 214.36035156 108.54101562 C214.37841797 119.04199219 214.37841797 119.04199219 214.3817749 123.95935059 C214.38549866 127.39077111 214.40047687 130.82194363 214.42230225 134.2532959 C214.44979796 138.63436174 214.45795381 143.01506845 214.4522891 147.39621258 C214.45347311 149.00147354 214.46137032 150.60674743 214.47686052 152.21193409 C214.56758236 162.07358791 214.49515285 169.40268458 207.25 176.8125 C199.25437469 182.19417088 192.39972008 182.39745938 183 182.1875 C181.84371094 182.17396484 180.68742188 182.16042969 179.49609375 182.14648438 C176.66356996 182.11137044 173.83203693 182.06219 171 182 C171.00888245 182.7213916 171.01776489 183.4427832 171.0269165 184.18603516 C171.1073374 191.01174187 171.16810344 197.83737702 171.20724869 204.66343689 C171.22805108 208.17215319 171.25623163 211.68047533 171.30175781 215.18896484 C171.35386357 219.23017993 171.37300577 223.27098629 171.390625 227.3125 C171.41127014 228.5617627 171.43191528 229.81102539 171.45318604 231.09814453 C171.45523655 239.11099745 170.84296623 245.11277696 164.96484375 251.05859375 C164.63033203 251.28611328 164.63033203 251.28611328 162.9375 252.4375 C162.26589844 252.91058594 161.59429687 253.38367188 160.90234375 253.87109375 C155.47085172 257.09429949 149.09960699 256.41366015 143 256 C136.87394178 253.92151596 133.30877672 250.05432815 129.87597656 244.66601562 C127.05742006 238.8473584 127.50279197 232.86779321 127.609375 226.53125 C127.61503479 225.25519897 127.62069458 223.97914795 127.62652588 222.66442871 C127.64504202 219.29717342 127.68087911 215.93103409 127.7253418 212.56408691 C127.76650567 209.11834447 127.7848019 205.67248261 127.8046875 202.2265625 C127.84525795 195.48375357 127.92356939 188.74287819 128 182 C114.14 182 100.28 182 86 182 C86.04640625 186.0940625 86.0928125 190.188125 86.140625 194.40625 C86.16638202 197.68815627 86.18806137 200.97003366 86.20700073 204.25198364 C86.22804935 207.70693529 86.256136 211.16148896 86.30175781 214.61621094 C86.35387244 218.58784035 86.37300789 222.55931207 86.390625 226.53125 C86.41127014 227.75863892 86.43191528 228.98602783 86.45318604 230.25061035 C86.45542555 238.85362341 85.2846577 244.11027378 79.625 250.8125 C73.63680332 255.8026639 68.8759121 256.55840194 61.19140625 256.33984375 C55.64523853 255.74924817 52.0014691 254.18142575 48.21875 250.05859375 C44.34966233 245.10360648 42.87293315 241.59435488 42.88647461 235.2434082 C42.88655014 234.06241043 42.88662567 232.88141266 42.88670349 231.66462708 C42.89186478 230.38955795 42.89702606 229.11448883 42.90234375 227.80078125 C42.9037587 226.49545944 42.90517365 225.19013763 42.90663147 223.84526062 C42.9104462 220.37810344 42.92026756 216.91098826 42.93133545 213.44384766 C42.94157202 209.90462818 42.9461339 206.3654019 42.95117188 202.82617188 C42.96189077 195.88409735 42.97895466 188.94205069 43 182 C42.29504395 182.02094727 41.59008789 182.04189453 40.86376953 182.06347656 C37.61766269 182.14748719 34.37178561 182.19892697 31.125 182.25 C30.01640625 182.28351563 28.9078125 182.31703125 27.765625 182.3515625 C19.84860981 182.44470386 12.18272118 181.77339325 6.05908203 176.24902344 C1.2136162 171.00748288 -0.25129473 166.23146091 -0.24050903 159.09672546 C-0.24222107 158.41622131 -0.24393311 157.73571716 -0.24569702 157.03459167 C-0.24899917 154.75431745 -0.23797402 152.47433904 -0.22705078 150.1940918 C-0.22643795 148.53143988 -0.22670537 146.86878744 -0.2277813 145.20613575 C-0.22823258 140.75601401 -0.21664582 136.30599997 -0.20256042 131.85590363 C-0.19116561 127.67920087 -0.19063392 123.50252423 -0.18920898 119.32580566 C-0.17871678 107.11302286 -0.15079445 94.90026007 -0.125 82.6875 C-0.08375 55.400625 -0.0425 28.11375 0 0 Z " fill="#7BB241" transform="translate(149,192)"/>
<path d="M0 0 C6.77678876 4.43203824 9.83424572 11.11856406 13.67578125 18.046875 C14.17722656 18.9234375 14.67867187 19.8 15.1953125 20.703125 C15.63891113 21.50395508 16.08250977 22.30478516 16.53955078 23.12988281 C18 25 18 25 19.97924805 25.80126953 C23.05264071 26.10352175 25.69592821 25.34245066 28.6875 24.625 C49.27372985 19.72460713 71.38648803 20.86444095 92 25 C93.99919498 25.338128 95.99907203 25.67228312 98 26 C98.42821045 25.35450195 98.8564209 24.70900391 99.29760742 24.04394531 C101.2526444 21.10703359 103.21990584 18.17851224 105.1875 15.25 C105.86103516 14.23421875 106.53457031 13.2184375 107.22851562 12.171875 C107.88916016 11.1921875 108.54980469 10.2125 109.23046875 9.203125 C109.83270264 8.30239258 110.43493652 7.40166016 111.05541992 6.47363281 C113.50803872 3.35374158 116.10543664 0.4556999 120.0625 -0.49609375 C124.48526356 -0.36234082 127.46648043 0.07222664 131 3 C133.93435942 6.74383788 134.39534834 9.30738709 134 14 C132.6796875 16.9296875 132.6796875 16.9296875 130.875 19.875 C130.24335938 20.91269531 129.61171875 21.95039062 128.9609375 23.01953125 C126.80343348 26.29876545 124.49791346 29.37875062 121.96875 32.37890625 C121.6490625 32.91386719 121.329375 33.44882813 121 34 C122.27032589 37.81097766 123.51902451 38.14007875 126.9375 40.125 C146.59059792 52.26817061 158.97699126 71.77581471 164.74609375 93.85546875 C165.83608445 98.82432292 166 102.75456608 166 108 C95.38 108 24.76 108 -48 108 C-46.46374799 88.02872386 -40.97031248 72.41754125 -28 57 C-27.5771875 56.4328125 -27.154375 55.865625 -26.71875 55.28125 C-21.19066997 48.13519532 -12.35186025 40.59420851 -4 37 C-4.60371345 34.13736916 -5.4622783 31.95479057 -6.99609375 29.46875 C-7.38990234 28.82292969 -7.78371094 28.17710938 -8.18945312 27.51171875 C-8.60130859 26.84785156 -9.01316406 26.18398437 -9.4375 25.5 C-16.49822756 14.01098043 -16.49822756 14.01098043 -15.546875 7.125 C-14.7792448 4.14220836 -13.49076863 2.75818962 -11 1 C-7.32872385 -0.22375872 -3.78168337 -0.88747035 0 0 Z M9 64 C6.4709203 67.03489564 6 68.51887435 6 72.5 C7.19745819 76.69110365 8.57017879 78.34968361 12 81 C14.97573162 82.11589936 16.482764 82.12615512 19.5625 81.375 C22.70492214 79.60235161 24.16572888 78.1250545 26 75 C26.61499081 72.1869865 26.64693334 69.80905265 26 67 C23.44295652 63.35815019 21.77727291 62.22207798 17.5 61 C13.51887435 61 12.03489564 61.4709203 9 64 Z M93 65 C91.25965501 68.48068998 91.41628543 72.20257598 92 76 C94.23581789 79.06626454 95.89473984 80.5346273 99.375 82 C103.24791063 82 105.6555841 80.91994246 109 79 C111.5109828 75.54739865 112.01114138 73.64619985 111.9375 69.375 C110.88086664 65.57111989 110.27588147 64.18392098 107 62 C101.17395715 60.086971 97.74820178 60.94665702 93 65 Z " fill="#7BB241" transform="translate(197,63)"/>
<path d="M0 0 C1.21171875 -0.02578125 2.4234375 -0.0515625 3.671875 -0.078125 C10.07036817 0.50863638 14.17031839 3.41879809 18.25 8.25 C22.25960956 14.33354844 22.8280327 19.69179194 22.76757812 26.85351562 C22.7745874 27.88546555 22.78159668 28.91741547 22.78881836 29.9806366 C22.8063429 33.372786 22.79479471 36.76409293 22.78125 40.15625 C22.78394649 42.52461913 22.78783022 44.89298718 22.79284668 47.26135254 C22.79873425 52.21747409 22.79020228 57.17330666 22.77148438 62.12939453 C22.74869575 68.47124486 22.76182274 74.81241797 22.78577423 81.15424347 C22.80025196 86.0425524 22.79561705 90.93070168 22.78526306 95.8190155 C22.78260126 98.15691712 22.78584622 100.4948334 22.79518127 102.8327179 C22.80537898 106.10436205 22.78979945 109.37492073 22.76757812 112.64648438 C22.77567505 113.60568283 22.78377197 114.56488129 22.79211426 115.55314636 C22.70417352 122.56818655 21.13656554 127.90494194 16.50390625 133.2734375 C15.94574219 133.71945312 15.38757813 134.16546875 14.8125 134.625 C14.53470703 134.85574219 14.53470703 134.85574219 13.12890625 136.0234375 C7.4579735 139.72546013 1.84221707 140.09719256 -4.75 139.25 C-11.87453171 136.99272262 -16.05535508 133.68583309 -19.75 127.25 C-20.68665047 124.44004859 -20.88145253 122.71312521 -20.89717102 119.80500793 C-20.90432632 118.89530243 -20.91148163 117.98559692 -20.91885376 117.04832458 C-20.92154266 116.05244827 -20.92423157 115.05657196 -20.92700195 114.03051758 C-20.93357315 112.97979065 -20.94014435 111.92906372 -20.94691467 110.84649658 C-20.96665606 107.36250743 -20.97831275 103.87856143 -20.98828125 100.39453125 C-20.99235678 99.20471838 -20.9964323 98.01490551 -21.00063133 96.7890377 C-21.02149654 90.49046375 -21.03579583 84.1919116 -21.04516602 77.89331055 C-21.05622594 71.39109255 -21.09062022 64.88921719 -21.13033772 58.38712025 C-21.15649888 53.38475412 -21.16485749 48.38246964 -21.16844749 43.38004112 C-21.1733154 40.98350399 -21.18493511 38.58697054 -21.20348549 36.19050026 C-21.22786326 32.83221017 -21.2269138 29.47480678 -21.2199707 26.11645508 C-21.23278076 25.13069992 -21.24559082 24.14494476 -21.25878906 23.12931824 C-21.20528671 16.01137146 -19.8427069 10.32520102 -14.6796875 5.19140625 C-14.00164062 4.73636719 -13.32359375 4.28132812 -12.625 3.8125 C-11.94179688 3.33941406 -11.25859375 2.86632812 -10.5546875 2.37890625 C-6.89934666 0.09234023 -4.33014442 0.05481195 0 0 Z " fill="#7BB341" transform="translate(404.75,191.75)"/>
<path d="M0 0 C4.83415824 2.84723727 8.0861835 7.547367 10.5625 12.5 C10.66078215 13.95615792 10.69752558 15.41669883 10.70294189 16.87615967 C10.70865204 17.79579498 10.71436218 18.7154303 10.72024536 19.66293335 C10.72136322 20.67489777 10.72248108 21.68686218 10.72363281 22.72949219 C10.72611526 23.26126572 10.72611526 23.26126572 10.73867798 25.95236206 C10.75332707 29.48387287 10.76010666 33.01533875 10.765625 36.546875 C10.77137479 38.99586997 10.77713254 41.44486493 10.78289795 43.89385986 C10.79341617 49.03536184 10.79925326 54.17684815 10.80273438 59.31835938 C10.80821666 65.90705649 10.8322358 72.49554668 10.86070633 79.08417892 C10.87933055 84.14565638 10.88453823 89.20708401 10.88607025 94.26859283 C10.88909847 96.69747294 10.89713265 99.12635213 10.91025543 101.55519867 C10.92730875 104.95460224 10.92543698 108.3535007 10.91894531 111.75292969 C10.9235527 112.25486343 10.9235527 112.25486343 10.9468689 114.79495239 C10.90637506 121.56371968 9.80494364 125.80906764 5.375 131.125 C-0.64379451 136.20753758 -5.80364959 138.2201236 -13.76171875 137.87890625 C-20.60746991 136.90950791 -24.87540611 133.59849851 -29.2109375 128.37890625 C-32.8322376 122.83162808 -32.73947641 117.69830385 -32.74389648 111.26879883 C-32.75222 110.24049957 -32.76054352 109.21220032 -32.76911926 108.15274048 C-32.79320816 104.75413215 -32.80199104 101.3557159 -32.80859375 97.95703125 C-32.81756237 95.5891667 -32.82668426 93.22130273 -32.83595276 90.85343933 C-32.85244333 85.88787459 -32.86014276 80.92237727 -32.86303711 75.95678711 C-32.86841453 69.60940391 -32.90606879 63.26265903 -32.95178127 56.91545582 C-32.98160081 52.02279884 -32.98876178 47.13029448 -32.98976326 42.23755455 C-32.99395738 39.89848603 -33.00635899 37.55941671 -33.02728081 35.220438 C-33.05428944 31.93921364 -33.04934007 28.65945447 -33.03686523 25.37817383 C-33.05169952 24.42145279 -33.06653381 23.46473175 -33.08181763 22.47901917 C-33.0077609 15.60071936 -31.31980675 10.2258033 -27.4375 4.5 C-20.27653243 -2.34733638 -9.13673348 -4.01945446 0 0 Z " fill="#7BB341" transform="translate(117.4375,193.5)"/>
</svg>
