<?xml version="1.0" encoding="UTF-8"?>
<!-- Generator: visioncortex VTracer 0.6.12 -->
<svg version="1.1" xmlns="http://www.w3.org/2000/svg" width="512" height="512">
<path d="M0 0 C2.28031526 -0.00271612 4.56062964 -0.00628052 6.84094238 -0.01062012 C12.98553148 -0.01967248 19.13005279 -0.0162296 25.27464294 -0.00986195 C31.7342038 -0.00476467 38.19375921 -0.00950369 44.65332031 -0.01263428 C56.18941567 -0.01649492 67.72547666 -0.0103168 79.26156664 -0.0001156 C89.68611163 0.00881783 100.11061206 0.00726515 110.53515625 -0.00195312 C122.68929885 -0.01269608 134.84340654 -0.01661903 146.99755478 -0.0107286 C153.41362323 -0.00762586 159.8296611 -0.00715259 166.24572754 -0.01380157 C172.28038049 -0.01961955 178.31495008 -0.01549742 184.34959412 -0.00401306 C186.55166994 -0.00139013 188.75375291 -0.00209055 190.95582581 -0.00653839 C221.61514176 -0.06271071 250.13253887 3.9814846 273.859375 25.25878906 C274.91978188 26.09478425 275.98204146 26.9284396 277.046875 27.75878906 C298.72459598 47.02787438 307.95453027 74.08503264 309.859375 102.25878906 C310.18308491 109.85006102 310.13401068 117.44741626 310.11816406 125.04394531 C310.12088152 127.26219802 310.12444666 129.48044982 310.12878418 131.69869995 C310.13782068 137.66562534 310.13440037 143.63248075 310.12802601 149.5994072 C310.12292035 155.87918012 310.12767004 162.15894752 310.13079834 168.4387207 C310.13465628 179.65220026 310.12848733 190.86565443 310.11827967 202.07912791 C310.10934665 212.20511126 310.11089947 222.33104872 310.12011719 232.45703125 C310.1308684 244.27280334 310.13477875 256.08855314 310.12889266 267.90433025 C310.12579368 274.1382272 310.12530608 280.37209269 310.13196564 286.60598755 C310.13779378 292.4699527 310.13364339 298.33383222 310.12217712 304.19778824 C310.11955952 306.33452335 310.12024516 308.47126583 310.12470245 310.60799789 C310.19127334 345.79718059 304.51601851 376.50928469 279.171875 402.50878906 C260.55481941 420.90691032 235.66008277 431.41101869 209.52713013 431.40596008 C208.50000502 431.40963677 207.47287992 431.41331346 206.41462982 431.41710156 C202.97970252 431.42809694 199.54480551 431.43197523 196.10986328 431.43579102 C193.64383346 431.4420589 191.17780459 431.44870599 188.71177673 431.45570374 C181.31669881 431.47489744 173.92162892 431.48552766 166.52653342 431.49443153 C163.03606854 431.49882412 159.54560515 431.50418843 156.05514145 431.50942039 C144.43808113 431.52642785 132.82102173 431.54091896 121.20395088 431.54816914 C118.19325891 431.55007874 115.18256694 431.55199912 112.171875 431.55395508 C111.79777113 431.55419695 111.79777113 431.55419695 109.90457879 431.55542096 C97.80142363 431.56370996 85.69836766 431.58902989 73.59525575 431.62153576 C61.14334345 431.6547032 48.69148139 431.67262665 36.23952472 431.67581338 C29.25875304 431.67796966 22.27812597 431.68658785 15.29739761 431.71227455 C8.72278398 431.73641234 2.14838223 431.73974686 -4.42628288 431.72951317 C-6.82831754 431.72902018 -9.23036539 431.73526991 -11.63236046 431.74906921 C-43.0401537 431.91928737 -69.57971654 423.54540077 -92.140625 401.25878906 C-92.46160156 400.97390625 -92.46160156 400.97390625 -94.0859375 399.53222656 C-113.33324928 382.07536239 -120.47286966 355.16660234 -122.140625 330.25878906 C-122.46040458 322.6409072 -122.4052266 315.01720691 -122.38354492 307.39428711 C-122.38462075 305.16792241 -122.38656388 302.94155799 -122.38929749 300.7151947 C-122.39409954 294.72793918 -122.38654951 288.74075946 -122.37634444 282.7535131 C-122.36748951 276.45805701 -122.3693228 270.16260277 -122.3697052 263.86714172 C-122.36877205 253.30554 -122.36018913 242.74396405 -122.34643555 232.18237305 C-122.33233613 221.34935991 -122.32526572 210.51637205 -122.32592773 199.68334961 C-122.32594771 199.34928581 -122.32594771 199.34928581 -122.32604881 197.65872052 C-122.32608917 196.99166629 -122.32612952 196.32461206 -122.3261711 195.63734406 C-122.32689824 182.61749308 -122.31990039 169.59765237 -122.3107245 156.5778048 C-122.30860125 152.84618283 -122.30788444 149.11456282 -122.30748558 145.38294029 C-122.30647567 139.50669909 -122.30032646 133.63048403 -122.29031944 127.75425148 C-122.28741749 125.60735357 -122.28616436 123.46045265 -122.28674698 121.31355286 C-122.29232004 88.25547422 -118.28314681 57.99912569 -94.140625 33.25878906 C-93.33625 32.41316406 -92.531875 31.56753906 -91.703125 30.69628906 C-90.8575 29.89191406 -90.011875 29.08753906 -89.140625 28.25878906 C-88.4703125 27.59363281 -87.8 26.92847656 -87.109375 26.24316406 C-63.01914191 3.24794157 -31.71647584 -0.06406236 0 0 Z M-18.140625 99.25878906 C-18.63175781 99.78214844 -19.12289062 100.30550781 -19.62890625 100.84472656 C-27.12226431 109.06324831 -29.45567118 117.10222245 -29.2890625 128.16503906 C-27.20922371 171.513258 -8.79812271 212.216309 18.859375 245.25878906 C19.36001465 245.86094238 19.8606543 246.4630957 20.37646484 247.08349609 C26.24795414 254.12228681 32.24613543 260.90154586 38.859375 267.25878906 C41.38263192 269.76563456 43.88711159 272.28730331 46.3671875 274.83691406 C52.52876176 281.12723763 58.89540029 286.8483164 65.859375 292.25878906 C66.14329102 292.48356934 66.14329102 292.48356934 67.58007812 293.62109375 C101.47418506 320.39200067 146.88327 342.77893711 191.328125 339.05175781 C198.49905127 338.04472959 203.34501773 334.81334031 208.859375 330.25878906 C209.57222656 329.68257812 210.28507813 329.10636719 211.01953125 328.51269531 C220.01687283 320.45149331 225.45109991 308.04563565 226.23046875 296.04003906 C226.6376576 281.93118888 226.6376576 281.93118888 222.6328125 276.93066406 C214.22162095 269.00117071 203.75793366 263.39210775 193.89160156 257.48486328 C192.15880171 256.4394379 190.4410042 255.36921236 188.7265625 254.29394531 C188.30503906 254.03033203 188.30503906 254.03033203 186.171875 252.69628906 C185.48738281 252.261875 184.80289063 251.82746094 184.09765625 251.37988281 C175.86095327 247.25434397 166.15689897 247.0347896 157.2265625 248.77050781 C147.94573654 251.99520158 139.79098423 258.9460412 131.9128418 264.67407227 C125.0823929 269.61705445 119.24188993 271.36613834 110.859375 270.25878906 C83.06466723 262.48100862 60.39940492 238.07328736 46.421875 213.88378906 C41.7966844 205.59665949 38.19751918 197.99438534 39.859375 188.25878906 C42.26504089 181.96873748 46.25669352 176.82421211 50.296875 171.50878906 C58.78183841 159.95532325 63.99205447 150.06988028 61.859375 135.25878906 C59.62282726 127.09515338 55.75594306 120.33307768 51.109375 113.32128906 C50.48683838 112.36561035 49.86430176 111.40993164 49.22290039 110.42529297 C47.99533885 108.54423591 46.76316918 106.66617609 45.52587891 104.79150391 C44.11156467 102.6420612 42.71872256 100.48180821 41.33984375 98.30957031 C40.66566406 97.2615625 39.99148437 96.21355469 39.296875 95.13378906 C39.01779297 94.699375 39.01779297 94.699375 37.60546875 92.50097656 C34.77963783 88.87228093 31.22671913 85.80571954 26.859375 84.25878906 C10.1962143 82.72613471 -6.64770717 86.16963265 -18.140625 99.25878906 Z " fill="#000000" transform="translate(162.140625,39.7412109375)"/>
</svg>
