<?xml version="1.0" encoding="UTF-8"?>
<!-- Generator: visioncortex VTracer 0.6.12 -->
<svg version="1.1" xmlns="http://www.w3.org/2000/svg" width="512" height="512">
<path d="M0 0 C2.19618791 -0.00299751 4.3923753 -0.00640139 6.58856201 -0.01017761 C12.51864163 -0.01896195 18.44870679 -0.02135338 24.37879229 -0.0219934 C28.09405572 -0.02270711 31.80931556 -0.02484748 35.52457809 -0.02749062 C47.84683404 -0.03625057 60.16908126 -0.04091262 72.49134035 -0.04016014 C73.15323124 -0.04012019 73.81512213 -0.04008023 74.49707031 -0.04003906 C75.15978602 -0.03999818 75.82250173 -0.0399573 76.50529973 -0.03991518 C86.56507 -0.03953445 96.62480918 -0.04732417 106.68457031 -0.06054688 C118.41241784 -0.0759086 130.14024241 -0.08430253 141.86810052 -0.08358365 C148.05907227 -0.08333012 154.25000415 -0.08610047 160.44096756 -0.0967617 C166.27039019 -0.10652748 172.09973553 -0.10646447 177.92916107 -0.09924507 C180.05257405 -0.09820966 182.17599206 -0.10049898 184.29939651 -0.10660553 C220.00770643 -0.20253778 251.1775515 5.21723797 277.41943359 31.14526367 C303.19567291 57.44819362 307.13673948 89.02410972 307.12719727 124.24926758 C307.13019409 126.46663468 307.13359782 128.68400127 307.13737488 130.90136719 C307.14616628 136.89342034 307.14855095 142.88545919 307.14919066 148.87751818 C307.14990398 152.6304581 307.15204364 156.38339444 307.15468788 160.13633347 C307.16344997 172.58023781 307.16810959 185.02413526 307.16735741 197.46804233 C307.16733743 197.80238883 307.16733743 197.80238883 307.16723633 199.49438477 C307.16719545 200.16390952 307.16715457 200.83343427 307.16711245 201.52324764 C307.16670646 212.36043179 307.1762678 223.19758111 307.19037469 234.03475519 C307.2047991 245.2054318 307.21145915 256.37609572 307.21078092 267.54678285 C307.21052724 273.80089466 307.21330586 280.05496702 307.22395897 286.30907059 C307.23371648 292.19757247 307.23366724 298.08599781 307.22644234 303.97450256 C307.22540591 306.12091052 307.22770252 308.26732345 307.2338028 310.41372299 C307.32768528 345.77031877 301.63444223 376.61973375 275.98193359 402.58276367 C249.41636049 428.61638697 217.51791553 432.30027225 181.96386719 432.29052734 C179.76767928 432.29352485 177.57149189 432.29692873 175.37530518 432.30070496 C169.44522556 432.30948929 163.5151604 432.31188072 157.5850749 432.31252074 C153.86981146 432.31323445 150.15455163 432.31537483 146.43928909 432.31801796 C134.11703315 432.32677792 121.79478593 432.33143996 109.47252683 432.33068749 C108.81063595 432.33064753 108.14874506 432.33060757 107.46679688 432.33056641 C106.80408117 432.33052553 106.14136546 432.33048464 105.45856746 432.33044253 C95.39879719 432.33006179 85.33905801 432.33785151 75.27929688 432.35107422 C63.55144935 432.36643594 51.82362478 432.37482987 40.09576666 432.374111 C33.90479492 432.37385747 27.71386303 432.37662781 21.52289963 432.38728905 C15.693477 432.39705482 9.86413166 432.39699181 4.03470612 432.38977242 C1.91129314 432.388737 -0.21212488 432.39102633 -2.33552933 432.39713287 C-38.04383925 432.49306512 -69.21368431 427.07328937 -95.45556641 401.14526367 C-121.23180573 374.84233372 -125.1728723 343.26641763 -125.16333008 308.04125977 C-125.1663269 305.82389266 -125.16973063 303.60652607 -125.17350769 301.38916016 C-125.18229909 295.397107 -125.18468376 289.40506815 -125.18532348 283.41300917 C-125.1860368 279.66006925 -125.18817645 275.90713291 -125.19082069 272.15419388 C-125.19958278 259.71028953 -125.2042424 247.26639208 -125.20349022 234.82248501 C-125.20345026 234.15379201 -125.20341031 233.48509901 -125.20336914 232.79614258 C-125.20332826 232.12661783 -125.20328738 231.45709308 -125.20324526 230.7672797 C-125.20283928 219.93009556 -125.21240061 209.09294624 -125.22650751 198.25577216 C-125.24093191 187.08509555 -125.24759197 175.91443162 -125.24691373 164.74374449 C-125.24666006 158.48963268 -125.24943867 152.23556032 -125.26009178 145.98145676 C-125.26984929 140.09295487 -125.26980005 134.20452953 -125.26257515 128.31602478 C-125.26153872 126.16961682 -125.26383533 124.02320389 -125.26993561 121.87680435 C-125.36381809 86.52020858 -119.67057504 55.67079359 -94.01806641 29.70776367 C-67.4524933 3.67414037 -35.55404835 -0.00974491 0 0 Z M-34.01806641 124.14526367 C-34.01806641 128.05053803 -32.95492175 128.58517424 -30.23754883 131.30673218 C-29.81841469 131.73009605 -29.81841469 131.73009605 -27.69734192 133.87257385 C-26.76548569 134.79835739 -25.83362946 135.72414093 -24.87353516 136.67797852 C-23.89082943 137.664748 -22.90876335 138.65215486 -21.92729187 139.64015198 C-19.25410519 142.32705024 -16.57147164 145.00432895 -13.8866806 147.67962599 C-11.07654009 150.48217912 -8.27371815 153.29203589 -5.46972656 156.10073853 C-0.75376156 160.82216827 3.96850712 165.53722403 8.69433594 170.2487793 C14.14732795 175.68549068 19.58949205 181.13286107 25.02606487 186.58598745 C29.69747147 191.271045 34.37474596 195.95018403 39.05689716 200.62450373 C41.85148011 203.41442388 44.64403109 206.20629689 47.43130493 209.00352097 C50.05761226 211.63854649 52.69125027 214.26602592 55.33052635 216.88805962 C56.75097832 218.30270169 58.16412338 219.72466905 59.57698059 221.14689636 C68.78947465 230.26885789 77.6005465 236.06358402 90.85693359 236.58276367 C107.30156136 236.07612559 117.08994357 226.3528546 128.09155273 215.26269531 C129.067807 214.2858755 130.04450465 213.30949865 131.02160645 212.33352661 C133.64738557 209.70831638 136.26699445 207.0770291 138.88545918 204.44452596 C141.63245734 201.68494233 144.38520029 198.93110087 147.13731384 196.17662048 C152.33656723 190.97117514 157.53070553 185.76065723 162.72298187 180.54825348 C168.639285 174.60951986 174.56133451 168.6765305 180.4838506 162.74399388 C192.65623996 150.55075433 204.82146822 138.35039496 216.98193359 126.14526367 C216.65193359 125.48526367 216.32193359 124.82526367 215.98193359 124.14526367 C133.48193359 124.14526367 50.98193359 124.14526367 -34.01806641 124.14526367 Z M-52.01806641 141.14526367 C-52.01806641 190.64526367 -52.01806641 240.14526367 -52.01806641 291.14526367 C-48.75202687 289.5122439 -47.23963389 288.61585762 -44.8036499 286.1713562 C-44.19233215 285.56278778 -43.5810144 284.95421936 -42.95117188 284.32720947 C-42.2922998 283.66114685 -41.63342773 282.99508423 -40.95458984 282.30883789 C-40.60316925 281.95756332 -40.60316925 281.95756332 -38.82476807 280.17990112 C-36.50422016 277.85796056 -34.19083561 275.52901739 -31.87744141 273.19995117 C-30.26933693 271.58811635 -28.66079015 269.9767227 -27.05181885 268.36575317 C-22.81909376 264.12539338 -18.59240926 259.87906161 -14.36694336 255.63146973 C-10.0537537 251.29781824 -5.73489391 246.96982579 -1.41650391 242.64135742 C7.0552095 234.14819695 15.52055393 225.64871839 23.98193359 217.14526367 C22.66985391 214.24876976 21.26458376 212.17715904 19.02148438 209.93084717 C18.41580627 209.31952942 17.81012817 208.70821167 17.18609619 208.07836914 C16.52317566 207.41949707 15.86025513 206.760625 15.17724609 206.08178711 C14.47790955 205.37894592 13.778573 204.67610474 13.05804443 203.95196533 C10.74601305 201.63113381 8.42674555 199.31769115 6.10693359 197.00463867 C4.5000324 195.39639064 2.89342823 193.78784579 1.28710938 192.17901611 C-2.07894935 188.8100087 -5.44859993 185.44464622 -8.82080078 182.08178711 C-13.15229409 177.76170641 -17.4747238 173.43268596 -21.79452515 169.10091782 C-25.10906888 165.77916428 -28.42834009 162.46216783 -31.74908447 159.14661407 C-33.34542869 157.55160784 -34.94027805 155.9551041 -36.53363037 154.35710907 C-38.75542313 152.13026361 -40.98348 149.90988615 -43.21337891 147.69116211 C-43.87629944 147.02419312 -44.53921997 146.35722412 -45.222229 145.67004395 C-45.52506805 145.37002472 -45.52506805 145.37002472 -47.05761719 143.85174561 C-47.58412872 143.32598812 -48.11064026 142.80023064 -48.65310669 142.25854111 C-50.01806641 141.14526367 -50.01806641 141.14526367 -52.01806641 141.14526367 Z M230.58015251 142.3009491 C230.03629465 142.84665054 229.49243679 143.39235199 228.93209839 143.95458984 C228.30670166 144.57723724 227.68130493 145.19988464 227.03695679 145.84140015 C226.69457474 146.18737747 226.69457474 146.18737747 224.96191406 147.93823242 C224.23985779 148.65999664 223.51780151 149.38176086 222.77386475 150.12539673 C220.37751543 152.52314446 217.98833641 154.92790895 215.59912109 157.33276367 C213.94331661 158.99229646 212.28707134 160.65138956 210.63040161 162.31005859 C206.26284833 166.68526269 201.90133313 171.06643883 197.54101562 175.44885254 C193.09393807 179.91635737 188.64122147 184.37823377 184.18896484 188.84057617 C175.4477349 197.60328156 166.71286848 206.37230136 157.98193359 215.14526367 C159.29401328 218.04175758 160.69928343 220.11336831 162.94238281 222.35968018 C163.54806091 222.97099792 164.15373901 223.58231567 164.777771 224.2121582 C165.44069153 224.87103027 166.10361206 225.52990234 166.78662109 226.20874023 C167.48595764 226.91158142 168.18529419 227.61442261 168.90582275 228.33856201 C171.21785413 230.65939353 173.53712163 232.97283619 175.85693359 235.28588867 C177.46383479 236.8941367 179.07043896 238.50268156 180.67675781 240.11151123 C184.04281653 243.48051864 187.41246712 246.84588112 190.78466797 250.20874023 C195.11616127 254.52882093 199.43859099 258.85784139 203.75839233 263.18960953 C207.07293607 266.51136306 210.39220728 269.82835951 213.71295166 273.14391327 C215.30929588 274.7389195 216.90414524 276.33542324 218.49749756 277.93341827 C220.71929032 280.16026373 222.94734719 282.38064119 225.17724609 284.59936523 C225.50870636 284.93284973 225.50870636 284.93284973 227.18609619 286.6204834 C227.79177429 287.22052185 228.39745239 287.8205603 229.02148438 288.43878174 C229.28474014 288.70166048 229.28474014 288.70166048 230.61697388 290.03198624 C231.98193359 291.14526367 231.98193359 291.14526367 233.98193359 291.14526367 C233.98193359 241.64526367 233.98193359 192.14526367 233.98193359 141.14526367 C231.98193359 141.14526367 231.98193359 141.14526367 230.58015251 142.3009491 Z M37.58015251 233.3009491 C37.03629465 233.84665054 36.49243679 234.39235199 35.93209839 234.95458984 C35.30670166 235.57723724 34.68130493 236.19988464 34.03695679 236.84140015 C33.69457474 237.18737747 33.69457474 237.18737747 31.96191406 238.93823242 C31.23985779 239.65999664 30.51780151 240.38176086 29.77386475 241.12539673 C27.37751543 243.52314446 24.98833641 245.92790895 22.59912109 248.33276367 C20.94331661 249.99229646 19.28707134 251.65138956 17.63040161 253.31005859 C13.26284833 257.68526269 8.90133313 262.06643883 4.54101562 266.44885254 C0.09393807 270.91635737 -4.35877853 275.37823377 -8.81103516 279.84057617 C-17.5522651 288.60328156 -26.28713152 297.37230136 -35.01806641 306.14526367 C-34.68806641 306.80526367 -34.35806641 307.46526367 -34.01806641 308.14526367 C48.48193359 308.14526367 130.98193359 308.14526367 215.98193359 308.14526367 C215.98193359 305.14526367 215.98193359 305.14526367 214.84186554 303.63605213 C214.57270199 303.36827127 214.57270199 303.36827127 213.21057129 302.01313782 C212.59633804 301.39478058 211.9821048 300.77642334 211.34925842 300.139328 C210.66665451 299.46750992 209.9840506 298.79569183 209.28076172 298.10351562 C208.56875107 297.39106689 207.85674042 296.67861816 207.12315369 295.94458008 C204.7602028 293.5837247 202.38679159 291.23368144 200.01318359 288.88354492 C198.37585377 287.25180832 196.73918361 285.61940954 195.10314941 283.9863739 C190.78931692 279.68401165 186.46655194 275.39073292 182.14190674 271.09924316 C177.73292366 266.72091386 173.3323905 262.3341103 168.93115234 257.94799805 C160.28969228 249.33874061 151.63877821 240.73904941 142.98193359 232.14526367 C139.53928264 233.75977606 137.50543931 235.5244098 134.91943359 238.33276367 C124.00256097 249.48267298 109.74313468 256.2723887 94.11572266 256.52539062 C84.29352542 256.50754136 76.11203719 256.07863213 66.98193359 252.14526367 C66.12986328 251.8178418 65.27779297 251.49041992 64.39990234 251.15307617 C55.75504043 247.42285229 49.16317292 240.53923272 42.75537109 233.80541992 C40.65157595 231.83600817 39.86309007 231.41880238 37.58015251 233.3009491 Z " fill="#000000" transform="translate(165.01806640625,39.854736328125)"/>
</svg>
