<?xml version="1.0" encoding="UTF-8"?>
<!-- Generator: visioncortex VTracer 0.6.12 -->
<svg version="1.1" xmlns="http://www.w3.org/2000/svg" width="512" height="512">
<path d="M0 0 C2.41676946 -0.00271612 4.83353809 -0.00628051 7.25030518 -0.01062012 C13.08928795 -0.01873657 18.92821269 -0.01762702 24.76719713 -0.01179484 C29.51966808 -0.00724754 34.27212466 -0.00667857 39.02459717 -0.00884247 C39.70525092 -0.00914893 40.38590468 -0.0094554 41.08718431 -0.00977115 C42.47062954 -0.01041071 43.85407476 -0.01105914 45.23751998 -0.01171634 C58.16004883 -0.01739698 71.08254914 -0.01089751 84.00507331 -0.0001156 C95.05352668 0.00881784 106.10193801 0.00726515 117.15039062 -0.00195312 C130.03188835 -0.01269603 142.91336117 -0.01684787 155.79486275 -0.0107286 C157.17275111 -0.01009161 158.55063947 -0.00946287 159.92852783 -0.00884247 C160.26735621 -0.00868819 160.26735621 -0.00868819 161.98203313 -0.00790747 C166.71969736 -0.00619254 171.45734558 -0.00906943 176.19500732 -0.01380157 C182.59081628 -0.01961948 188.98654657 -0.01549753 195.38234711 -0.00401306 C197.71623352 -0.0013901 200.05012667 -0.0020906 202.38401031 -0.00653839 C232.1939807 -0.0580694 260.42990774 2.26072584 283.4765625 23.25878906 C283.96511719 23.7009375 283.96511719 23.7009375 286.4375 25.93847656 C296.79167702 35.62712136 304.37507366 46.97602368 309.4765625 60.25878906 C309.84523438 61.2165625 310.21390625 62.17433594 310.59375 63.16113281 C316.5185406 80.30842824 315.76952294 98.99471669 315.73535156 116.89575195 C315.73806816 119.31266891 315.74163282 121.72958504 315.74597168 124.14649963 C315.75408294 129.98200321 315.7529815 135.8174487 315.7471464 141.65295393 C315.74259705 146.40254055 315.742031 151.15211279 315.74419403 155.90170097 C315.7445005 156.58221924 315.74480696 157.26273751 315.74512272 157.96387754 C315.74576228 159.34708123 315.74641071 160.73028492 315.7470679 162.11348861 C315.75274663 175.02934539 315.7462519 187.94517359 315.73546717 200.86102568 C315.72653188 211.90321434 315.72808831 222.94536093 315.73730469 233.98754883 C315.74804751 246.86429279 315.75219965 259.74101183 315.74608016 272.61775964 C315.74544318 273.99507073 315.74481443 275.37238182 315.74419403 276.74969292 C315.74388548 277.42705468 315.74357693 278.10441644 315.74325903 278.80230432 C315.74154423 283.53747543 315.74442067 288.27263052 315.74915314 293.00779915 C315.75497089 299.39951749 315.75084937 305.79115712 315.73936462 312.18286705 C315.73674169 314.51514175 315.73744211 316.84742319 315.74188995 319.17969513 C315.79344939 348.98496145 313.47090868 377.21621398 292.4765625 400.25878906 C291.59226562 401.23589844 290.70796875 402.21300781 289.796875 403.21972656 C271.45283709 422.82385282 247.20042953 431.284916 220.74698639 432.37083912 C213.48313406 432.55438331 206.21874675 432.53142454 198.953125 432.51757812 C196.53635554 432.52029424 194.11958691 432.52385863 191.70281982 432.52819824 C185.86383705 432.53631469 180.02491231 432.53520514 174.18592787 432.52937296 C169.43345692 432.52482567 164.68100034 432.52425669 159.92852783 432.52642059 C159.24787408 432.52672706 158.56722032 432.52703353 157.86594069 432.52734928 C156.48249546 432.52798884 155.09905024 432.52863726 153.71560502 432.52929446 C140.79307617 432.53497511 127.87057586 432.52847564 114.94805169 432.51769373 C103.89959832 432.50876029 92.85118699 432.51031297 81.80273438 432.51953125 C68.92123665 432.53027415 56.03976383 432.534426 43.15826225 432.52830672 C41.78037389 432.52766973 40.40248553 432.52704099 39.02459717 432.52642059 C38.34694042 432.52611204 37.66928367 432.52580349 36.97109187 432.52548559 C32.23342764 432.52377066 27.49577942 432.52664756 22.75811768 432.5313797 C16.36230872 432.53719761 9.96657843 432.53307565 3.57077789 432.52159119 C1.23689148 432.51896822 -1.09700167 432.51966873 -3.43088531 432.52411652 C-36.66025183 432.58155847 -65.4090039 428.12365102 -90.1484375 404.13378906 C-114.30069933 379.87514522 -116.84352933 348.98953976 -116.78222656 316.55175781 C-116.78494261 314.11528418 -116.78850696 311.67881137 -116.79284668 309.24234009 C-116.80096385 303.35523302 -116.79985318 297.468173 -116.7940214 291.58106732 C-116.78947445 286.78950411 -116.78890499 281.99795515 -116.79106903 277.20639038 C-116.7913755 276.5201859 -116.79168196 275.83398142 -116.79199772 275.12698287 C-116.79263727 273.73226364 -116.7932857 272.33754442 -116.7939429 270.9428252 C-116.7996238 257.91442619 -116.79312368 244.88605549 -116.78234217 231.85766113 C-116.7734087 220.71824431 -116.77496138 209.57886919 -116.78417969 198.43945312 C-116.79492214 185.45248003 -116.79907468 172.46553164 -116.79295516 159.47855473 C-116.79231817 158.0894324 -116.79168943 156.70031008 -116.79106903 155.31118774 C-116.79091476 154.96959526 -116.79091476 154.96959526 -116.79013403 153.24093026 C-116.78841897 148.46419275 -116.79129629 143.68747113 -116.79602814 138.91073608 C-116.80227647 132.46240431 -116.79772506 126.01413224 -116.78623962 119.56580734 C-116.78361637 117.21257023 -116.78431768 114.85932644 -116.78876495 112.50609207 C-116.84873588 77.52247923 -116.84873588 77.52247923 -111.8359375 63.94628906 C-111.57538574 63.20830078 -111.31483398 62.4703125 -111.04638672 61.70996094 C-107.01471293 50.68798137 -101.39183199 41.0044488 -93.5234375 32.25878906 C-93.09434082 31.78054687 -92.66524414 31.30230469 -92.22314453 30.80957031 C-67.30556506 3.43805343 -35.0924806 -0.0668773 0 0 Z M170.83178711 75.30078125 C170.21332664 75.41534164 170.21332664 75.41534164 167.08354187 75.99508667 C163.71356573 76.6198223 160.34683454 77.26062862 156.98054576 77.90489864 C153.44383254 78.57932085 149.90455775 79.24004118 146.36561584 79.90264893 C140.4252224 81.01701493 134.48681275 82.14148496 128.54956055 83.27246094 C121.70181634 84.57678668 114.85152107 85.86692763 107.99959177 87.14907336 C101.38655007 88.38669868 94.7750969 89.63260309 88.16443062 90.88285065 C85.36085718 91.41304097 82.55682445 91.94069532 79.75239372 92.46633148 C75.83057606 93.20201885 71.91119216 93.94996681 67.99194336 94.69921875 C66.83795044 94.91442169 65.68395752 95.12962463 64.49499512 95.35134888 C48.1830824 98.50005407 48.1830824 98.50005407 43.6015625 104.13378906 C43.04726562 104.79121094 42.49296875 105.44863281 41.921875 106.12597656 C38.87003459 110.62950322 38.2272324 114.43066669 38.23173523 119.82902527 C38.23060294 120.15227591 38.23060294 120.15227591 38.22487289 121.78812009 C38.21959119 123.9466571 38.22839646 126.10490514 38.23706055 128.26342773 C38.23594722 129.81442354 38.23388872 131.36541892 38.23095703 132.91641235 C38.22623832 136.2536116 38.22735141 139.59074046 38.23273277 142.92793846 C38.24035024 148.21131319 38.22967744 153.49455274 38.2155304 158.77790833 C38.1778155 173.80091869 38.15958495 188.82386822 38.17114258 203.84692383 C38.17737021 212.14637846 38.16572017 220.44561489 38.13469726 228.74501592 C38.11609511 233.99016155 38.11931193 239.23468663 38.13886487 244.47982156 C38.14577687 247.75379583 38.13172996 251.0274383 38.11191559 254.30134964 C38.10689443 255.81134099 38.11028526 257.32138931 38.12304878 258.83133507 C38.191158 267.51088788 37.76886617 275.00373689 32.4765625 282.25878906 C28.31275509 286.16440269 23.91386145 287.36291212 18.3203125 287.46972656 C17.29679687 287.49808594 16.27328125 287.52644531 15.21875 287.55566406 C13.08869999 287.60699057 10.95847196 287.65147302 8.828125 287.68847656 C-4.08680964 288.0749584 -13.47882049 291.17480165 -23.2734375 299.63378906 C-30.10057522 307.59878307 -33.60500462 315.69584685 -33.5234375 326.25878906 C-32.07939551 337.37224946 -27.27283299 345.65332555 -18.671875 352.75488281 C-8.30568293 360.01121726 3.75925327 360.41197571 15.9609375 358.79785156 C30.2916094 355.88371972 42.1230675 348.09644976 50.3515625 335.94628906 C58.17242239 322.75781071 58.62008651 309.39927105 58.68188477 294.4675293 C58.69148016 292.98838538 58.70149117 291.50924412 58.71188354 290.03010559 C58.73875891 286.03904734 58.75986172 282.04797747 58.77988553 278.05687976 C58.80185311 273.87685234 58.82918876 269.69686 58.85594177 265.51686096 C58.90572377 257.61233605 58.95071596 249.70779151 58.99396414 241.80322844 C59.0527265 231.11408593 59.11893491 220.42498968 59.18471432 209.73588848 C59.28806211 192.9102199 59.38150192 176.08451123 59.4765625 159.25878906 C99.7365625 151.66878906 139.9965625 144.07878906 181.4765625 136.25878906 C181.3940625 153.76941406 181.3115625 171.28003906 181.2265625 189.32128906 C181.21077148 194.84371338 181.19498047 200.3661377 181.17871094 206.0559082 C181.13330078 212.81628418 181.13330078 212.81628418 181.10699463 215.98435974 C181.09241148 218.18984941 181.08561033 220.39539909 181.08502197 222.60093689 C181.08260132 225.9483068 181.05523863 229.29465343 181.02246094 232.6418457 C181.02748501 233.61907372 181.03250908 234.59630175 181.03768539 235.60314274 C180.93276352 242.45435752 179.6161206 246.83521226 174.87890625 252.00097656 C170.74185414 255.20029686 167.88876732 256.35812672 162.72265625 256.50488281 C161.78486328 256.53775391 160.84707031 256.570625 159.88085938 256.60449219 C157.93043074 256.6648412 155.97990754 256.72222024 154.02929688 256.77636719 C140.75931041 257.25513457 129.30739564 259.92581933 119.30078125 269.16113281 C112.09258737 277.44978402 110.02958786 285.82763151 110.140625 296.52050781 C110.94020332 305.41814102 114.96833823 312.86922078 121.08984375 319.28222656 C132.27720695 328.5470478 144.62670879 329.30508307 158.4765625 328.25878906 C173.19406519 325.60356951 184.59210939 317.51478605 193.3203125 305.62988281 C199.57875427 296.31581681 201.62976759 286.09109743 201.61700439 275.06079102 C201.61997552 274.25135449 201.62294664 273.44191797 201.6260078 272.60795307 C201.63465743 269.9043149 201.63619984 267.2007212 201.63769531 264.49707031 C201.64232596 262.55520534 201.64735095 260.61334128 201.65274048 258.67147827 C201.66583867 253.40300403 201.67230385 248.13454251 201.67675114 242.86605453 C201.67968472 239.57440775 201.68378997 236.28276442 201.68825531 232.99111938 C201.70192054 222.69150274 201.71159319 212.39189403 201.7154572 202.09226894 C201.71994222 190.20323249 201.73751479 178.31431075 201.7664578 166.42530918 C201.78806009 157.23281143 201.79816063 148.04034601 201.79949832 138.84782314 C201.80054696 133.35802738 201.80646787 127.8683396 201.82431793 122.37857056 C201.84077448 117.21737639 201.84296586 112.0563717 201.83417892 106.89516068 C201.83340738 105.00130329 201.83776667 103.1074358 201.84763718 101.21360397 C201.86032412 98.62777191 201.85449782 96.04261437 201.84405518 93.45678711 C201.85211158 92.70794911 201.86016798 91.95911112 201.86846852 91.18758106 C201.8089765 84.88652788 200.11732048 81.01674404 195.8515625 76.44628906 C188.68728108 70.99785577 178.91322152 73.73426018 170.83178711 75.30078125 Z " fill="#000000" transform="translate(156.5234375,39.7412109375)"/>
</svg>
