<?xml version="1.0" encoding="UTF-8"?>
<!-- Generator: visioncortex VTracer 0.6.12 -->
<svg version="1.1" xmlns="http://www.w3.org/2000/svg" width="512" height="512">
<path d="M0 0 C9.47389856 6.55323619 16.35622587 15.39582661 18.83984375 26.71484375 C19.05334084 29.67079167 19.02495041 32.62688649 19.02734375 35.58984375 C19.03958984 36.38003906 19.05183594 37.17023437 19.06445312 37.984375 C19.07605325 42.63215923 18.61859086 46.34179748 16.83984375 50.71484375 C18.01546875 50.92109375 19.19109375 51.12734375 20.40234375 51.33984375 C49.00666765 57.79599209 75.11017418 78.53905684 90.73144531 102.92626953 C106.87820961 128.98159889 111.53102085 156.70471822 112.22634888 186.94073486 C113.35030912 235.68603644 120.61287964 286.00163139 156.2421875 322.15234375 C161.60422515 327.14858515 167.43631784 331.4044729 173.35986328 335.6953125 C182.83180951 342.57872737 190.90972978 348.73703932 193.77734375 360.58984375 C194.53580579 372.15064394 190.03776896 381.1134191 182.83984375 389.77734375 C155.99588613 418.3488828 103.38226715 419.67153794 66.83984375 422.71484375 C66.40865234 422.75085693 66.40865234 422.75085693 64.2265625 422.93310547 C54.75901253 423.6931707 45.33281773 423.83759772 35.83984375 423.71484375 C36.04480469 424.30652344 36.24976563 424.89820313 36.4609375 425.5078125 C36.73035156 426.29800781 36.99976563 427.08820313 37.27734375 427.90234375 C37.54417969 428.67964844 37.81101562 429.45695312 38.0859375 430.2578125 C42.52603108 444.72837656 39.9487268 461.28436024 33.08984375 474.58984375 C24.90977273 488.23011218 14.51255951 497.50938689 -0.16015625 503.71484375 C-0.56169922 503.88564453 -0.56169922 503.88564453 -2.59375 504.75 C-17.56539562 509.90024609 -36.26391779 507.9073722 -50.32421875 501.20703125 C-66.06846211 492.6373798 -76.76370017 479.69875224 -82.1328125 462.62109375 C-85.36379787 450.23815449 -86.04930829 435.49314784 -80.16015625 423.71484375 C-81.03196533 423.7293457 -81.90377441 423.74384766 -82.80200195 423.75878906 C-93.04030267 423.85282318 -103.14610283 423.29803912 -113.34765625 422.46484375 C-114.17242462 422.39859802 -114.99719299 422.33235229 -115.84695435 422.26409912 C-203.64774374 415.1325235 -203.64774374 415.1325235 -228.97265625 387.77734375 C-235.66853608 379.65548951 -238.42403916 370.81981887 -238.078125 360.1953125 C-235.94339196 346.80044912 -222.27375573 338.73345358 -212.22265625 331.33984375 C-179.61036419 306.95445589 -165.46109631 271.15199282 -159.72949219 231.71606445 C-157.95139813 218.61342123 -157.05593668 205.57927489 -156.77282715 192.36508179 C-155.75609186 147.52297374 -146.35546903 109.4378659 -113.15234375 77.3359375 C-101.07884802 66.08710202 -78.29145372 50.71484375 -61.16015625 50.71484375 C-61.48242188 49.90402344 -61.8046875 49.09320313 -62.13671875 48.2578125 C-65.13276392 37.88600729 -64.30174674 25.21317136 -59.16015625 15.71484375 C-53.28214896 5.83478895 -44.39050552 -1.69308827 -33.27880859 -4.81347656 C-22.09270077 -7.30386148 -9.79334383 -5.82641975 0 0 Z M-38.09765625 22.58984375 C-41.64028826 27.95746801 -43.23883425 33.27683926 -42.16015625 39.71484375 C-39.99065378 46.32425826 -37.15922827 50.52274407 -31.02734375 53.875 C-25.77903475 56.23564108 -21.03514614 56.64987086 -15.58984375 54.87890625 C-9.36761253 52.11140639 -5.95570765 48.93006965 -3.16015625 42.71484375 C-1.13407862 36.63661087 -1.66409357 32.16005358 -4.34765625 26.46484375 C-7.07833014 21.4637219 -9.72968847 18.79505165 -14.97265625 16.46484375 C-23.56602201 14.44287534 -31.97878576 15.75110615 -38.09765625 22.58984375 Z M-7.49609375 73.234375 C-15.08551999 77.45195938 -26.3147861 76.87006759 -34.6171875 74.890625 C-38.48872462 73.49645701 -41.73151365 72.00060548 -45.16015625 69.71484375 C-61.8391046 68.41388578 -82.62148733 80.18484015 -95.22265625 90.18359375 C-105.42409259 98.97419315 -113.49180827 107.99102058 -120.16015625 119.71484375 C-120.711875 120.65457031 -121.26359375 121.59429687 -121.83203125 122.5625 C-125.15696117 128.65534838 -127.3715387 134.98036554 -129.41015625 141.58984375 C-129.65660889 142.37955566 -129.90306152 143.16926758 -130.15698242 143.98291016 C-133.65581109 155.92948105 -134.4290759 168.01850138 -134.66015625 180.40234375 C-134.72934724 183.13955915 -134.8084596 185.87642692 -134.890625 188.61328125 C-134.91106369 189.29644913 -134.93150238 189.979617 -134.95256042 190.68348694 C-136.35642823 235.28027394 -142.68145056 285.43896321 -171.16015625 321.71484375 C-171.58409668 322.25544434 -172.00803711 322.79604492 -172.44482422 323.35302734 C-182.05495669 335.47717328 -193.07606662 344.89582967 -205.61132812 353.89428711 C-213.78816128 359.77869862 -213.78816128 359.77869862 -216.16015625 362.71484375 C-216.42751351 367.34903634 -215.15060849 370.16993356 -212.34765625 373.71484375 C-188.89918941 398.25283531 -140.81099057 398.97784988 -109.41015625 401.40234375 C-108.62746368 401.46319153 -107.84477112 401.52403931 -107.0383606 401.58673096 C-101.4152772 402.01616792 -95.7898452 402.38368959 -90.16015625 402.71484375 C-89.33926514 402.76430145 -88.51837402 402.81375916 -87.67260742 402.86471558 C-68.11627498 403.99215399 -48.53063615 403.9022698 -28.94921875 403.90014648 C-25.11844092 403.90006583 -21.28778424 403.90692606 -17.45703125 403.9206543 C135.51430633 404.45973479 135.51430633 404.45973479 166.83984375 374.71484375 C169.59625411 371.95843339 170.71817835 370.02190404 172.15234375 366.40234375 C171.79503473 362.18609736 171.38660114 361.77240493 168.40234375 359.02734375 C164.73442174 356.06676596 160.92877182 353.29100864 157.14135742 350.48608398 C117.88578121 321.37725435 101.00066122 280.18979421 93.83984375 232.71484375 C92.95853785 226.39751824 92.3207251 220.0743147 91.83984375 213.71484375 C91.74058594 212.44382813 91.64132812 211.1728125 91.5390625 209.86328125 C91.08094184 203.03933475 90.81929196 196.22852629 90.6640625 189.390625 C89.92697422 157.56605658 85.65825541 129.18379065 64.83984375 103.71484375 C64.52724609 103.31974609 64.52724609 103.31974609 62.9453125 101.3203125 C49.92694025 85.6708587 31.1232693 76.18595518 11.83984375 70.71484375 C10.9375 70.4003125 10.03515625 70.08578125 9.10546875 69.76171875 C2.41756651 67.75960789 -1.57933811 69.8232639 -7.49609375 73.234375 Z M-57.16015625 424.71484375 C-57.81108215 425.96219942 -58.45567294 427.21286207 -59.09765625 428.46484375 C-59.27748047 428.81289063 -59.27748047 428.81289063 -60.1875 430.57421875 C-63.96802861 438.89441827 -63.43983836 451.15185919 -60.59765625 459.71484375 C-55.61697482 471.27212919 -47.09456096 478.7381517 -35.80859375 483.734375 C-26.20836267 487.28844285 -15.51949522 486.67456409 -6.16015625 482.71484375 C5.00486415 477.40465112 12.24090144 469.14311671 16.83984375 457.71484375 C20.0008738 448.43438374 18.51244104 436.42668819 14.8125 427.62109375 C13.83984375 425.71484375 13.83984375 425.71484375 12.83984375 424.71484375 C10.66178656 424.62055033 8.48063095 424.59741837 6.30053711 424.60131836 C5.61764114 424.60117233 4.93474518 424.60102631 4.2311554 424.60087585 C1.96396761 424.60157499 -0.30313899 424.60936735 -2.5703125 424.6171875 C-4.13830012 424.61905168 -5.70628832 424.62047558 -7.27427673 424.62147522 C-11.40892128 424.62530041 -15.54353091 424.63513069 -19.67816162 424.6461792 C-23.89416023 424.65639331 -28.11016447 424.66097284 -32.32617188 424.66601562 C-40.60418272 424.67675296 -48.88216515 424.69382939 -57.16015625 424.71484375 Z " fill="#000000" transform="translate(278.16015625,5.28515625)"/>
</svg>
