<?xml version="1.0" encoding="UTF-8"?>
<!-- Generator: visioncortex VTracer 0.6.12 -->
<svg version="1.1" xmlns="http://www.w3.org/2000/svg" width="512" height="512">
<path d="M0 0 C2.37064551 1.29091613 4.21980941 2.48464796 6.3125 4.125 C6.90442139 4.56803467 7.49634277 5.01106934 8.10620117 5.4675293 C10.08607519 6.95939002 12.04387108 8.47716113 14 10 C15.43744676 11.10814198 16.87494828 12.21621293 18.3125 13.32421875 C21.35720104 15.67969808 24.392186 18.04712405 27.421875 20.421875 C31.77809643 23.83381812 36.16366335 27.2057475 40.5625 30.5625 C40.91107056 30.82857056 40.91107056 30.82857056 42.67504883 32.17504883 C44.08024557 33.24727751 45.48560007 34.31929947 46.89111328 35.39111328 C50.42986881 38.09085847 53.96472723 40.79569689 57.5 43.5 C58.91664819 44.5833575 60.33331485 45.66669084 61.75 46.75 C87.25 66.25 112.75 85.75 138.25 105.25 C138.95181396 105.78665283 139.65362793 106.32330566 140.37670898 106.8762207 C141.78779001 107.95533993 143.19876078 109.03460335 144.60961914 110.11401367 C148.23583735 112.88803918 151.86416611 115.65923399 155.49609375 118.42578125 C159.67143836 121.60762525 163.83998642 124.79813643 168 128 C168.54897949 128.42216797 169.09795898 128.84433594 169.66357422 129.27929688 C171.07238817 130.367247 172.47401551 131.46448603 173.875 132.5625 C174.61492187 133.14128906 175.35484375 133.72007812 176.1171875 134.31640625 C179.52811955 137.36643055 180.88417237 139.21494606 181.5625 143.8125 C181.35845564 148.91537298 178.48294093 151.53248952 175 155 C172.67667855 156.99289351 170.2396544 158.78381905 167.75 160.5625 C166.32694449 161.60385745 164.90511624 162.64689361 163.484375 163.69140625 C162.74896484 164.23039551 162.01355469 164.76938477 161.25585938 165.32470703 C157.45189556 168.14968536 153.72885077 171.0770284 150 174 C143.73535694 178.89784834 137.41574128 183.71018478 131.0390625 188.4609375 C125.97547687 192.2436161 120.9798383 196.10790795 116 200 C109.73457519 204.89686785 103.41576438 209.71016758 97.0390625 214.4609375 C91.97547687 218.2436161 86.9798383 222.10790795 82 226 C75.73457519 230.89686785 69.41576438 235.71016758 63.0390625 240.4609375 C57.97547687 244.2436161 52.9798383 248.10790795 48 252 C41.74194812 256.89110539 35.43607556 261.70655841 29.05883789 266.44116211 C25.41065333 269.15924808 21.8099818 271.925937 18.24609375 274.75390625 C17.44494141 275.38748047 16.64378906 276.02105469 15.81835938 276.67382812 C14.27398815 277.89893639 12.73459138 279.13035194 11.20117188 280.36914062 C6.23982716 284.29932163 1.47083242 288.06941665 -5.125 287.9375 C-8.48460783 286.84197571 -10.47212067 285.4556542 -13 283 C-14.24166136 279.27501593 -14.13152545 275.82697035 -14.11352539 271.94848633 C-14.11367142 271.12874832 -14.11381744 270.30901031 -14.1139679 269.46443176 C-14.11327096 266.75360472 -14.10548878 264.0428463 -14.09765625 261.33203125 C-14.09579129 259.45301857 -14.09436776 257.5740054 -14.09336853 255.69499207 C-14.08954948 250.74824685 -14.07972438 245.80153098 -14.06866455 240.85479736 C-14.0584373 235.80749915 -14.05386809 230.76019621 -14.04882812 225.71289062 C-14.03810159 215.80858086 -14.02103248 205.90429287 -14 196 C-14.58218324 196.00138269 -14.58218324 196.00138269 -17.52838326 196.00837994 C-45.16856565 196.07335455 -72.80874039 196.12282208 -100.44898338 196.15319599 C-103.8510802 196.1569481 -107.25317686 196.16083107 -110.65527344 196.16479492 C-111.33256913 196.16558185 -112.00986482 196.16636878 -112.70768462 196.16717956 C-123.67411842 196.1802332 -134.64050503 196.20388681 -145.60691084 196.23145839 C-156.85959891 196.25951377 -168.11226341 196.27595198 -179.36498821 196.28226548 C-185.68542095 196.28618014 -192.00574669 196.29539563 -198.32614517 196.31719017 C-204.27354545 196.3375326 -210.22079448 196.34383828 -216.16822624 196.33932304 C-218.35234206 196.34014924 -220.53646287 196.34612813 -222.72054863 196.35761642 C-225.70077718 196.37252519 -228.68043346 196.36895927 -231.66067505 196.36076355 C-232.52644326 196.36950207 -233.39221148 196.3782406 -234.28421509 196.38724393 C-239.24655674 196.35031651 -242.73452869 195.82200708 -247 193 C-250.00886023 187.85797222 -250.4357232 183.47128817 -250.38818359 177.60546875 C-250.39081207 177.20092972 -250.39081207 177.20092972 -250.40411377 175.15371704 C-250.41724117 172.49811084 -250.40860166 169.84311154 -250.3984375 167.1875 C-250.40046033 165.33097215 -250.4033735 163.47444507 -250.40713501 161.61791992 C-250.41154853 157.7344605 -250.40515867 153.85120865 -250.39111328 149.96777344 C-250.374022 145.00133236 -250.3838684 140.03537772 -250.40183067 135.06895447 C-250.4126948 131.23755254 -250.40921011 127.40626508 -250.4014473 123.57485962 C-250.39945256 121.74410951 -250.40187894 119.91334887 -250.40888596 118.08261108 C-250.41654384 115.5196396 -250.40483604 112.95744518 -250.38818359 110.39453125 C-250.39425629 109.64523346 -250.40032898 108.89593567 -250.40658569 108.12393188 C-250.3458237 103.05081167 -249.58523253 99.41806413 -247 95 C-241.91835982 91.6380211 -237.53396448 91.57995513 -231.66067505 91.63923645 C-230.72858211 91.63667318 -229.79648918 91.6341099 -228.836151 91.63146895 C-225.7175762 91.62653347 -222.59948713 91.64302036 -219.48095703 91.65942383 C-217.24364737 91.66027015 -215.00633688 91.65979486 -212.76902771 91.65809631 C-206.69718965 91.65723514 -200.62552917 91.6748809 -194.5537324 91.69581819 C-188.20761419 91.71456448 -181.86149197 91.71633382 -175.51535034 91.71989441 C-164.86436527 91.72816106 -154.21345038 91.74690317 -143.5625 91.77368164 C-132.59342779 91.8012312 -121.62437328 91.82246038 -110.65527344 91.83520508 C-109.97880178 91.83599325 -109.30233013 91.83678142 -108.60535933 91.83759347 C-105.21159907 91.84150867 -101.81783869 91.84529977 -98.42407823 91.84902918 C-70.2826735 91.88011429 -42.1413408 91.93316411 -14 92 C-14.01110306 90.94843719 -14.02220612 89.89687439 -14.03364563 88.81344604 C-14.13506523 78.89672984 -14.20998634 68.98011905 -14.25906086 59.06300163 C-14.28513905 53.96463253 -14.32050487 48.86668257 -14.37719727 43.76855469 C-14.43158011 38.84723932 -14.46143391 33.92632674 -14.47438622 29.00473404 C-14.48361482 27.12843613 -14.50163646 25.25215992 -14.52865028 23.37603378 C-14.56502461 20.74483604 -14.56994194 18.11529601 -14.56762695 15.48388672 C-14.57661514 15.09726616 -14.57661514 15.09726616 -14.62210083 13.14073181 C-14.58427183 9.15904262 -14.06356088 6.5940606 -11.58952332 3.53225708 C-7.67452656 -0.29616114 -5.45431873 -0.46347579 0 0 Z M7 33 C6.98969254 33.93294388 6.97938507 34.86588776 6.96876526 35.82710266 C6.87108254 44.61177147 6.7683533 53.39636863 6.66066074 62.1809206 C6.60545549 66.69733042 6.55203927 71.21374675 6.50268555 75.73022461 C6.45500669 80.08744669 6.40266253 84.44458985 6.34705925 88.80171776 C6.32665167 90.4654971 6.30793594 92.12929807 6.29092598 93.79311562 C6.26684664 96.12037611 6.23679691 98.44748763 6.20532227 100.7746582 C6.1995668 101.46517776 6.19381134 102.15569733 6.18788147 102.86714172 C6.14189938 105.85086866 5.95191451 108.14425648 5 111 C-0.02202446 113.37060935 -4.90814535 113.29060997 -10.33932495 113.2784729 C-11.27141789 113.2842653 -12.20351082 113.2900577 -13.163849 113.29602563 C-16.28228221 113.31300992 -19.40056727 113.31590081 -22.51904297 113.31884766 C-24.75635643 113.3281469 -26.99366642 113.33831557 -29.23097229 113.34928894 C-35.30273003 113.37660329 -41.37446456 113.39174267 -47.4462676 113.40471697 C-53.79242207 113.42034116 -60.13852907 113.44713367 -66.48464966 113.4727478 C-77.1355869 113.51422999 -87.78652412 113.54882082 -98.4375 113.578125 C-109.4065945 113.60832332 -120.37566301 113.64267947 -131.34472656 113.68261719 C-132.02119822 113.68507874 -132.69766987 113.68754028 -133.39464067 113.69007643 C-136.78840129 113.70245128 -140.1821616 113.71490776 -143.57592177 113.72740483 C-171.71724948 113.83092597 -199.85859938 113.91851905 -228 114 C-228 133.8 -228 153.6 -228 174 C-224.57484009 174.00990967 -224.57484009 174.00990967 -207.24145508 174.06005859 C-185.32758896 174.12485472 -163.41376457 174.19938645 -141.49995129 174.28005161 C-138.09656611 174.29257061 -134.69318062 174.30500336 -131.28979492 174.31738281 C-130.61223692 174.31984881 -129.93467892 174.3223148 -129.23658886 174.32485552 C-118.26305146 174.36458835 -107.28950375 174.39733337 -96.31593636 174.42749982 C-85.05756831 174.45860458 -73.79924418 174.49735786 -62.5409233 174.54279006 C-56.21665912 174.56806819 -49.89242598 174.58984564 -43.56812477 174.60334396 C-37.61825025 174.6161523 -31.6684821 174.6381936 -25.71866608 174.66738319 C-23.5325377 174.67646855 -21.34639218 174.68215143 -19.1602459 174.68421364 C-16.17973262 174.68752936 -13.1995222 174.70298837 -10.21907043 174.7215271 C-9.35038938 174.71959237 -8.48170832 174.71765763 -7.5867036 174.71566427 C-3.33555046 174.75530147 0.21060915 174.83583979 4 177 C6.37484022 180.56226033 6.30597717 183.1111972 6.31884766 187.2253418 C6.32889328 187.95729767 6.3389389 188.68925354 6.34928894 189.44338989 C6.38017185 191.86199155 6.39717004 194.28048225 6.4140625 196.69921875 C6.43277006 198.37645933 6.45234317 200.05369046 6.4727478 201.73091125 C6.52411859 206.14493238 6.56371777 210.55898405 6.60089111 214.97314453 C6.6408998 219.4776162 6.69200642 223.98196033 6.7421875 228.48632812 C6.83900532 237.32412922 6.92339133 246.16200225 7 255 C9.60632921 253.72154361 11.93829539 252.4204233 14.2578125 250.671875 C14.87398437 250.20910156 15.49015625 249.74632812 16.125 249.26953125 C16.785 248.76808594 17.445 248.26664063 18.125 247.75 C18.82367188 247.22277344 19.52234375 246.69554687 20.2421875 246.15234375 C26.30207339 241.56445142 32.29680944 236.89388401 38.28564453 232.21386719 C43.14943333 228.41921489 48.05311818 224.68553776 53 221 C58.63919469 216.79856231 64.21107286 212.52021479 69.75 208.1875 C76.11012276 203.21383999 82.52897975 198.3284391 89 193.5 C96.20393236 188.12327779 103.33606497 182.6652002 110.41967773 177.13110352 C115.44597147 173.20488333 120.49435717 169.3095331 125.5625 165.4375 C126.24779785 164.91148193 126.9330957 164.38546387 127.63916016 163.84350586 C131.34661545 161.00263233 135.07776847 158.20042106 138.84375 155.4375 C139.63322021 154.85170166 140.42269043 154.26590332 141.23608398 153.66235352 C142.7564754 152.5351035 144.28439262 151.41791527 145.82055664 150.31225586 C146.49981201 149.80573486 147.17906738 149.29921387 147.87890625 148.77734375 C148.4829126 148.33640381 149.08691895 147.89546387 149.70922852 147.44116211 C151 146 151 146 151 142 C149.61743164 140.46704102 149.61743164 140.46704102 147.66015625 139.00390625 C147.2978894 138.72800659 147.2978894 138.72800659 145.46459961 137.33178711 C144.67190674 136.74792236 143.87921387 136.16405762 143.0625 135.5625 C142.6555188 135.25477661 142.6555188 135.25477661 140.59594727 133.69750977 C138.90008566 132.4160646 137.20039221 131.13967608 135.49707031 129.86816406 C132.48492306 127.61464912 129.50020438 125.3269468 126.51733398 123.03491211 C124.41977961 121.42388989 122.31801679 119.81852231 120.21484375 118.21484375 C115.97353563 114.98051442 111.73646007 111.74067559 107.5 108.5 C106.08335181 107.4166425 104.66668515 106.33330916 103.25 105.25 C100.41666667 103.08333333 97.58333333 100.91666667 94.75 98.75 C94.04842773 98.2135083 93.34685547 97.6770166 92.62402344 97.12426758 C91.21059349 96.04339983 89.79718196 94.96250799 88.38378906 93.8815918 C84.79275299 91.13533495 81.2013752 88.38952697 77.609375 85.64453125 C70.1834238 79.96898284 62.76522047 74.28379536 55.359375 68.58203125 C51.49527993 65.60973963 47.6228758 62.64833637 43.75 59.6875 C43.03908203 59.14399902 42.32816406 58.60049805 41.59570312 58.04052734 C37.88214206 55.20197202 34.16783575 52.3643943 30.453125 49.52734375 C30.08239868 49.24407227 30.08239868 49.24407227 28.20629883 47.81054688 C26.75344211 46.70060743 25.30016495 45.59121809 23.84643555 44.48242188 C19.37516382 41.06790027 14.94220407 37.61082246 10.56640625 34.07421875 C9 33 9 33 7 33 Z " fill="#000000" transform="translate(290,112)"/>
</svg>
