<?xml version="1.0" encoding="UTF-8"?>
<!-- Generator: visioncortex VTracer 0.6.12 -->
<svg version="1.1" xmlns="http://www.w3.org/2000/svg" width="512" height="512">
<path d="M0 0 C6.18389943 3.47990154 11.7645949 8.03970856 17.3125 12.4375 C23.8132212 17.54403793 30.37243711 22.5592542 37 27.5 C44.20418732 32.87637334 51.33607279 38.33480591 58.41967773 43.86889648 C65.53715126 49.42861298 72.70953201 54.91459559 79.89111328 60.39111328 C83.42986881 63.09085847 86.96472723 65.79569689 90.5 68.5 C91.91664819 69.5833575 93.33331485 70.66669084 94.75 71.75 C137.25 104.25 137.25 104.25 139.3762207 105.87597656 C140.78876289 106.95612723 142.20136029 108.0362057 143.61401367 109.11621094 C147.21924772 111.87264089 150.82342761 114.63043145 154.42578125 117.390625 C155.15394043 117.9479834 155.88209961 118.5053418 156.63232422 119.07958984 C158.07153016 120.18228268 159.50938559 121.28674068 160.94580078 122.39306641 C164.13570326 124.84367176 167.33577021 127.25975445 170.62890625 129.5703125 C180.85792451 136.83279237 180.85792451 136.83279237 182 143 C180.75574029 152.02088291 173.4507108 156.3702485 166.6875 161.5625 C165.89279297 162.17673828 165.09808594 162.79097656 164.27929688 163.42382812 C158.57321127 167.82255283 152.81879788 172.15435047 147.04174805 176.45922852 C141.9769475 180.24205414 136.98067083 184.10725727 132 188 C125.73457519 192.89686785 119.41576438 197.71016758 113.0390625 202.4609375 C107.97547687 206.2436161 102.9798383 210.10790795 98 214 C91.73457519 218.89686785 85.41576438 223.71016758 79.0390625 228.4609375 C73.97547687 232.2436161 68.9798383 236.10790795 64 240 C57.73457519 244.89686785 51.41576438 249.71016758 45.0390625 254.4609375 C39.97546996 258.24362126 34.980059 262.10818203 30 266 C24.09694467 270.60883324 18.17021721 275.18240839 12.1875 279.6875 C11.53587891 280.18056641 10.88425781 280.67363281 10.21289062 281.18164062 C0.38177088 288.55239602 0.38177088 288.55239602 -4.5 288.0625 C-5.2321875 288.01222656 -5.964375 287.96195312 -6.71875 287.91015625 C-10.1588306 286.53765834 -12.16553257 284.12664097 -14 281 C-14.46101989 277.97256001 -14.63765364 275.5282612 -14.56762695 272.51611328 C-14.56799202 272.10114845 -14.56799202 272.10114845 -14.56983948 270.00117493 C-14.56637183 267.27354264 -14.52755135 264.54764431 -14.48828125 261.8203125 C-14.47895016 259.9231764 -14.47183544 258.02602821 -14.46684265 256.12887573 C-14.44779617 251.14732313 -14.39871559 246.16650506 -14.34332275 241.1852417 C-14.29207956 236.09755387 -14.26931778 231.00974678 -14.24414062 225.921875 C-14.19059461 215.9475948 -14.10531024 205.9738586 -14 196 C-14.58218324 196.00138269 -14.58218324 196.00138269 -17.52838326 196.00837994 C-45.16856565 196.07335455 -72.80874039 196.12282208 -100.44898338 196.15319599 C-103.8510802 196.1569481 -107.25317686 196.16083107 -110.65527344 196.16479492 C-111.33256913 196.16558185 -112.00986482 196.16636878 -112.70768462 196.16717956 C-123.67411842 196.1802332 -134.64050503 196.20388681 -145.60691084 196.23145839 C-156.85959891 196.25951377 -168.11226341 196.27595198 -179.36498821 196.28226548 C-185.68542095 196.28618014 -192.00574669 196.29539563 -198.32614517 196.31719017 C-204.27354545 196.3375326 -210.22079448 196.34383828 -216.16822624 196.33932304 C-218.35234206 196.34014924 -220.53646287 196.34612813 -222.72054863 196.35761642 C-225.70077718 196.37252519 -228.68043346 196.36895927 -231.66067505 196.36076355 C-232.52644326 196.36950207 -233.39221148 196.3782406 -234.28421509 196.38724393 C-239.24655674 196.35031651 -242.73452869 195.82200708 -247 193 C-250.00886023 187.85797222 -250.4357232 183.47128817 -250.38818359 177.60546875 C-250.39081207 177.20092972 -250.39081207 177.20092972 -250.40411377 175.15371704 C-250.41724117 172.49811084 -250.40860166 169.84311154 -250.3984375 167.1875 C-250.40046033 165.33097215 -250.4033735 163.47444507 -250.40713501 161.61791992 C-250.41154853 157.7344605 -250.40515867 153.85120865 -250.39111328 149.96777344 C-250.374022 145.00133236 -250.3838684 140.03537772 -250.40183067 135.06895447 C-250.4126948 131.23755254 -250.40921011 127.40626508 -250.4014473 123.57485962 C-250.39945256 121.74410951 -250.40187894 119.91334887 -250.40888596 118.08261108 C-250.41654384 115.5196396 -250.40483604 112.95744518 -250.38818359 110.39453125 C-250.39425629 109.64523346 -250.40032898 108.89593567 -250.40658569 108.12393188 C-250.3458237 103.05081167 -249.58523253 99.41806413 -247 95 C-241.91835982 91.6380211 -237.53396448 91.57995513 -231.66067505 91.63923645 C-230.72858211 91.63667318 -229.79648918 91.6341099 -228.836151 91.63146895 C-225.7175762 91.62653347 -222.59948713 91.64302036 -219.48095703 91.65942383 C-217.24364737 91.66027015 -215.00633688 91.65979486 -212.76902771 91.65809631 C-206.69718965 91.65723514 -200.62552917 91.6748809 -194.5537324 91.69581819 C-188.20761419 91.71456448 -181.86149197 91.71633382 -175.51535034 91.71989441 C-164.86436527 91.72816106 -154.21345038 91.74690317 -143.5625 91.77368164 C-132.59342779 91.8012312 -121.62437328 91.82246038 -110.65527344 91.83520508 C-109.97880178 91.83599325 -109.30233013 91.83678142 -108.60535933 91.83759347 C-105.21159907 91.84150867 -101.81783869 91.84529977 -98.42407823 91.84902918 C-70.2826735 91.88011429 -42.1413408 91.93316411 -14 92 C-14.01110306 90.94843719 -14.02220612 89.89687439 -14.03364563 88.81344604 C-14.13506523 78.89672984 -14.20998634 68.98011905 -14.25906086 59.06300163 C-14.28513905 53.96463253 -14.32050487 48.86668257 -14.37719727 43.76855469 C-14.43158011 38.84723932 -14.46143391 33.92632674 -14.47438622 29.00473404 C-14.48361482 27.12843613 -14.50163646 25.25215992 -14.52865028 23.37603378 C-14.56502461 20.74483604 -14.56994194 18.11529601 -14.56762695 15.48388672 C-14.57661514 15.09726616 -14.57661514 15.09726616 -14.62210083 13.14073181 C-14.58464601 9.19842685 -14.07335692 6.59176001 -11.65202332 3.53225708 C-7.93639411 -0.0155731 -5.02516207 -0.6514099 0 0 Z " fill="#000000" transform="translate(290,112)"/>
</svg>
