<?xml version="1.0" encoding="UTF-8"?>
<!-- Generator: visioncortex VTracer 0.6.12 -->
<svg version="1.1" xmlns="http://www.w3.org/2000/svg" width="512" height="512">
<path d="M0 0 C1.70328319 1.6292274 3.38161281 3.28641357 5 5 C5.99 5.33 6.98 5.66 8 6 C8.66 5.278125 9.32 4.55625 10 3.8125 C20.64756459 -6.74533792 34.17922554 -8.25502852 48.48120117 -8.2487793 C75.64853469 -7.92582887 101.61685529 0.47528219 121.53125 19.40625 C127.52233371 25.72561227 134.42255025 34.22423347 136.75 42.74609375 C138 45 138 45 141.31640625 46.265625 C142.72869679 46.60673838 144.14438857 46.93395746 145.5625 47.25 C172.24256906 54.20655569 193.25496416 73.34216641 207.19921875 96.6015625 C223.30861135 124.64579564 226.60065223 157.74750619 218.4375 188.75 C215.48551505 199.45520857 211.32499582 209.61615896 206.84448242 219.76196289 C205.93102465 222.18279765 205.33804767 224.4340572 205 227 C206.22265625 228.88671875 206.22265625 228.88671875 208.0625 230.6875 C218.52354954 241.85706684 223.14410111 255.77331622 223 271 C222.12200259 290.89147232 218.09844449 309.86358029 203 324 C197.67228307 328.22370023 191.96610546 331.75755138 186 335 C186.433125 336.2375 186.86625 337.475 187.3125 338.75 C192.93418404 355.85598145 194.13930829 371.42733204 186.375 388.25 C183.10606336 394.33362898 178.89855247 399.17068502 174 404 C173.71769531 404.28746094 173.71769531 404.28746094 172.2890625 405.7421875 C157.65835087 419.51646723 135.16770001 422.51038254 116 422 C115.73445313 422.88042969 115.46890625 423.76085937 115.1953125 424.66796875 C110.24600554 438.46456626 99.08006055 449.91157437 86.15234375 456.4375 C68.68865781 464.16845978 45.25559406 467.90978208 26.8671875 461.265625 C19.40764767 457.9728581 13.47120484 454.04712114 8 448 C4.92345779 449.37261114 2.84186187 450.97045421 0.4375 453.3125 C-8.54179379 461.3386844 -20.05592045 464.39793018 -31.875 464.3125 C-32.69436035 464.30758545 -33.5137207 464.3026709 -34.35791016 464.29760742 C-54.12341504 463.9283534 -73.47476899 459.11773122 -88.25 445.25 C-93.31250052 439.90682696 -102 429.80926401 -102 422 C-102.45439453 421.95681641 -102.45439453 421.95681641 -104.75390625 421.73828125 C-125.50855396 419.41801807 -143.83167702 411.88005608 -157.171875 395.30078125 C-166.15782336 382.14827137 -167.69901495 367.53621126 -166 352 C-164.88005412 346.15390403 -163.06909007 340.57176397 -161 335 C-161.43699219 334.87044922 -161.43699219 334.87044922 -163.6484375 334.21484375 C-180.05975637 328.26621885 -195.50597282 311.80968429 -202.875 296.4375 C-209.78836229 279.77391295 -210.97345604 262.41121088 -204.8125 245.25 C-202.23319667 239.03203661 -198.82012301 233.52330128 -195 228 C-193 225 -193 225 -193.20703125 222.22265625 C-194.05956313 218.7579331 -195.26855669 215.71112512 -196.6875 212.4375 C-211.28968278 177.42443259 -213.07282554 139.39797322 -198.76171875 103.98828125 C-194.05250032 92.98017746 -187.8858109 83.00784011 -180 74 C-179.38769531 73.24460937 -178.77539062 72.48921875 -178.14453125 71.7109375 C-168.34588189 59.95255827 -153.57013163 49.82264011 -138.375 46.6875 C-135.29295274 45.88237285 -134.27611528 45.37990802 -132.37890625 42.76953125 C-131.39577267 40.88052933 -130.45313034 38.97003418 -129.546875 37.04296875 C-119.7083665 17.6889331 -97.80394752 5.10524313 -77.75 -1.44140625 C-54.65711431 -8.48651947 -21.06605295 -15.07236424 0 0 Z M-107.67871094 42.51708984 C-112.98636663 48.47398207 -115.90347352 55.38629856 -118 63 C-118.97839844 63.17015625 -119.95679688 63.3403125 -120.96484375 63.515625 C-128.38871479 64.86231597 -135.35057908 66.29120746 -142 70 C-142.85851562 70.47050781 -143.71703125 70.94101563 -144.6015625 71.42578125 C-165.58341686 83.80803051 -177.81595282 106.04406729 -184 129 C-190.37294016 154.51685096 -186.56502058 178.95074231 -177.41992188 203.23022461 C-177.28648376 203.58485527 -177.28648376 203.58485527 -176.61120605 205.37950134 C-176.51035706 205.64688362 -176.51035706 205.64688362 -176 207 C-170.27109258 207.22304079 -164.54472602 207.38603876 -158.8125 207.49438477 C-156.864461 207.53955622 -154.91672569 207.6009115 -152.96972656 207.67895508 C-136.76592263 208.31204548 -136.76592263 208.31204548 -132.39160156 205.06201172 C-130.79843782 202.71226185 -129.81719904 200.70914757 -129 198 C-128 195 -128 195 -126.203125 193.9765625 C-125.47609375 193.65429688 -124.7490625 193.33203125 -124 193 C-123.33484375 192.57460937 -122.6696875 192.14921875 -121.984375 191.7109375 C-113.78918833 186.8110182 -104.43058088 186.44495199 -95.25390625 188.6640625 C-88.22451276 191.46607377 -81.18867876 197.03197746 -77.75 203.86328125 C-74.44173671 213.28838551 -74.04932955 222.51045355 -78.1953125 231.62890625 C-82.26280552 239.0859768 -87.37977148 243.8010677 -95.3125 246.875 C-104.63978752 249.54679591 -113.40653026 248.40757629 -122 244 C-128.40408583 239.78879535 -131.48825694 234.6676981 -135 228 C-139.41056424 227.80077368 -143.81868386 227.65641434 -148.23242188 227.56054688 C-149.73028216 227.52055233 -151.22783479 227.46613236 -152.72460938 227.39648438 C-165.09958425 226.83548551 -165.09958425 226.83548551 -169.68457031 229.64501953 C-171.72041576 231.65121675 -173.3705497 233.65655824 -175 236 C-175.35835937 236.43183594 -175.35835937 236.43183594 -177.171875 238.6171875 C-185.3364245 250.29815188 -188.2936387 261.79464857 -187 276 C-185.38001555 284.42391915 -182.27983259 291.28138091 -177 298 C-176.76087891 298.33193359 -176.76087891 298.33193359 -175.55078125 300.01171875 C-165.61167492 312.75480471 -148.04467417 319.67737291 -133 324 C-132.34 324 -131.68 324 -131 324 C-131.34780518 324.60884033 -131.69561035 325.21768066 -132.05395508 325.8449707 C-133.65281615 328.66048968 -135.23265416 331.48627059 -136.8125 334.3125 C-137.35970703 335.26962891 -137.90691406 336.22675781 -138.47070312 337.21289062 C-144.15264058 347.44037804 -148.54988665 358.95117147 -145.23828125 370.703125 C-143.40471043 375.54433174 -141.18860116 379.90036994 -138 384 C-137.58878906 384.54011719 -137.17757812 385.08023437 -136.75390625 385.63671875 C-125.68206793 398.43403837 -107.88452146 401.27057086 -92 402.6875 C-90.33390844 402.80049291 -88.66740559 402.90841901 -87 403 C-86.70867187 404.05058594 -86.41734375 405.10117187 -86.1171875 406.18359375 C-82.5734671 418.51462415 -78.48912926 428.13391828 -67 435 C-52.97913024 441.55002218 -34.17526763 446.34913648 -19 441 C-12.50231857 437.62620387 -7.46711665 432.11724936 -4.64174461 425.339674 C-3.19679481 420.07167268 -3.61486926 414.49798931 -3.65942383 409.07836914 C-3.66027098 407.66848773 -3.65979324 406.25860501 -3.65809631 404.84872437 C-3.65723837 401.03715983 -3.67483129 397.22588065 -3.69581819 393.41438222 C-3.71461867 389.42523106 -3.71633808 385.43607278 -3.71989441 381.44688416 C-3.729205 373.89991181 -3.75380535 366.35307041 -3.78394288 358.80615562 C-3.81751766 350.21125392 -3.83398062 341.61634584 -3.84902918 333.02139485 C-3.88035587 315.34750733 -3.93535553 297.67379923 -4 280 C-20.5 280 -37 280 -54 280 C-54.20625 286.80625 -54.4125 293.6125 -54.625 300.625 C-54.67052002 301.69403564 -54.67052002 301.69403564 -54.90087891 307.10400391 C-55.23450896 320.53204897 -55.23450896 320.53204897 -51.8503418 324.55615234 C-49.26885157 326.07040667 -46.80911595 326.99974085 -44 328 C-37.44087194 333.67895547 -34.67923616 341.14277866 -34.0078125 349.65234375 C-33.97935081 358.20508161 -36.75307609 365.27882977 -42 372 C-48.47587294 378.35545381 -55.38844468 381.11090772 -64.375 381.4375 C-73.50977695 381.18404954 -80.56330456 378.32616901 -87.2421875 372.06640625 C-93.07734256 365.2068573 -95.32274712 357.48691164 -95.21875 348.66015625 C-94.40617831 338.77870404 -89.34029911 331.90873321 -82.09765625 325.515625 C-80 324 -80 324 -75 322 C-75 300.88 -75 279.76 -75 258 C-51.57 258 -28.14 258 -4 258 C-4 231.27 -4 204.54 -4 177 C-20.83 177 -37.66 177 -55 177 C-55 160.17 -55 143.34 -55 126 C-62.26 126 -69.52 126 -77 126 C-78.32 128.64 -79.64 131.28 -81 134 C-87.40172879 141.34838 -94.66307189 145.31496037 -104.39453125 145.9921875 C-113.81981581 146.02044922 -122.07886142 142.82789595 -128.85546875 136.1796875 C-134.20312761 129.6568641 -136.63712927 121.69280391 -136.28125 113.28515625 C-135.176587 104.30976938 -131.89755602 97.08129668 -124.890625 91.2421875 C-117.47774442 85.95092447 -110.06197309 84.05322669 -101 85 C-93.98508777 86.2982497 -87.97650982 88.78462275 -83 94 C-82.62633301 94.89887939 -82.25266602 95.79775879 -81.86767578 96.72387695 C-80.33605919 100.3851613 -79.04673661 102.41538942 -76 105 C-68.99354926 106.9229691 -61.21555122 106.01591734 -54.0625 105.6875 C-50.5871875 105.5740625 -50.5871875 105.5740625 -33 105 C-33 121.83 -33 138.66 -33 156 C-23.43 156 -13.86 156 -4 156 C-3.93204096 141.24765984 -3.87687821 126.49541823 -3.84456348 111.74295616 C-3.82915432 104.8917311 -3.80818009 98.04061086 -3.77368164 91.18945312 C-3.74036292 84.56937537 -3.72311249 77.94937734 -3.71536827 71.32921219 C-3.7098541 68.81204141 -3.69908678 66.29487611 -3.68280983 63.77775192 C-3.46811634 29.17961068 -3.46811634 29.17961068 -11 19 C-34.76277207 -2.49965092 -89.87436157 23.87760632 -107.67871094 42.51708984 Z M25 19 C17.38691433 29.28935811 17.56446622 44.19639962 17.70703125 56.3671875 C17.71005249 57.61121338 17.71307373 58.85523926 17.71618652 60.13696289 C17.73170197 64.71639485 17.77358347 69.29570712 17.8125 73.875 C17.874375 84.14625 17.93625 94.4175 18 105 C45.39 105 72.78 105 101 105 C102.32 102.36 103.64 99.72 105 97 C109.95479761 90.29715944 116.92530701 86.67440339 125 85 C133.49578928 84.07621543 141.12261874 85.79818169 148.296875 90.5078125 C154.13105131 95.22340613 158.61702141 101.51808582 160 109 C160.84385701 119.20928641 159.67010612 127.5777177 153.3125 135.8125 C146.4370385 143.06423053 137.85481925 145.72369666 128 146 C120.16395945 145.1631413 113.52175627 142.73082054 108 137 C105.32409143 133.5219044 102.96328113 129.92656225 101 126 C73.61 126 46.22 126 18 126 C18 196.62 18 267.24 18 340 C31.86 340 45.72 340 60 340 C61.98 336.7 63.96 333.4 66 330 C74.35095433 322.59189535 81.34854377 320.38521731 92.5234375 320.6484375 C100.27848376 321.43265566 106.57821123 324.45212312 112 330 C118.34730092 338.53968341 119.81007447 346.45637451 119 357 C117.40511158 365.28594373 113.50629833 371.46750424 106.625 376.3125 C98.48751615 381.32326592 89.87315565 382.28198358 80.5078125 380.53515625 C74.92043135 378.9014756 70.06371743 376.19244193 66 372 C65.35738117 370.27788913 64.7237757 368.55239676 64.09765625 366.82421875 C62.54077148 364.1496582 62.54077148 364.1496582 60 362 C53.1346578 360.21036302 45.63722137 361.07032076 38.625 361.375 C36.62901683 361.42518287 34.63291346 361.47080641 32.63671875 361.51171875 C27.75484232 361.62170939 22.87873459 361.79410612 18 362 C17.8835752 369.78055619 17.79501839 377.56090406 17.74093914 385.3421154 C17.71496866 388.95625701 17.67980591 392.56979782 17.62280273 396.18359375 C17.568027 399.67849662 17.53848538 403.17282578 17.52561378 406.66812515 C17.51203101 408.63448279 17.4730716 410.60061318 17.43351746 412.56661987 C17.43043131 422.5404528 19.54686791 429.69666993 26.5625 436.9375 C34.80594046 443.43093634 44.87567554 443.59544795 54.90625 442.5703125 C68.2731737 440.87403464 83.04314742 436.53335348 91.87890625 425.6953125 C95.29585366 420.47871994 97.585513 415.65676362 99.21484375 409.6171875 C99.55507568 408.37308105 99.89530762 407.12897461 100.24584961 405.84716797 C100.37028442 405.37738525 100.37028442 405.37738525 101 403 C101.44279297 402.96765259 101.44279297 402.96765259 103.68359375 402.80395508 C149.26700917 399.35021685 149.26700917 399.35021685 162.875 385.3125 C169.00756887 377.64316446 170.74337956 369.24140886 170.45703125 359.55859375 C169.69019422 353.58775159 167.49685442 348.43394369 165 343 C161 334 161 334 160 290 C129.64 290 99.28 290 68 290 C68.5625 263.875 68.5625 263.875 68.81079102 255.65576172 C68.83708521 253.49711105 68.86001717 251.33841567 68.87890625 249.1796875 C68.92494995 248.06601807 68.97099365 246.95234863 69.01843262 245.80493164 C69.026284 238.04253247 69.026284 238.04253247 66.01751709 234.98612976 C63.73783169 233.46839742 61.44327118 232.22946962 59 231 C52.4846219 225.09198765 48.71092697 218.28726871 48.00390625 209.45703125 C47.99198736 201.96004841 49.51090076 195.77404998 53.87890625 189.65625 C55 188 55 188 56 185 C57.75390625 183.97265625 57.75390625 183.97265625 60 183 C60.79277344 182.58621094 61.58554687 182.17242187 62.40234375 181.74609375 C63.23894531 181.31425781 64.07554687 180.88242188 64.9375 180.4375 C65.35451172 180.22029297 65.35451172 180.22029297 67.46484375 179.12109375 C74.96331348 175.80512948 82.53430334 176.63954796 90.21875 178.8984375 C97.91334419 181.94601554 103.56737441 187.51456856 107 195 C110.4079981 203.87873189 109.78677529 212.74180397 106.25 221.4609375 C102.27567474 229.53378567 97.04393626 232.17363824 89 237 C89 247.23 89 257.46 89 268 C119.69 268 150.38 268 182 268 C182 282.52 182 297.04 182 312 C189.5601725 308.21991375 194.91551809 301.27156621 198.01171875 293.44140625 C201.83873932 281.17627205 203.95546363 263.932273 198 252 C195.23814178 247.53853672 191.89959119 243.79619945 188.0625 240.23828125 C187.80984375 240.00040894 187.80984375 240.00040894 186.53125 238.79663086 C185.06237807 237.43291255 183.56296941 236.10231068 182.0625 234.7734375 C180 232 180 232 179.9609375 228.6484375 C181.12540759 224.55965908 182.70148217 221.02488132 184.625 217.25 C199.3468577 187.09017615 206.64444845 155.0941544 195.52734375 122.48828125 C186.94483464 99.2897044 170.11325875 80.07980532 147.6953125 69.47265625 C139.10035385 66.0473926 130.31222895 63.69960552 121 64 C120.938125 63.0925 120.87625 62.185 120.8125 61.25 C119.37392627 51.51499419 114.46235872 43.21945514 108 36 C107.40445313 35.31164062 106.80890625 34.62328125 106.1953125 33.9140625 C92.07911571 18.6263971 71.13105904 14.3080238 51.1875 13.1875 C50.75800049 13.16095337 50.75800049 13.16095337 48.58447266 13.02661133 C40.25381016 12.67049751 31.42616297 13.18585255 25 19 Z M-114 110 C-115.55024464 113.10048928 -115.28992015 115.57894218 -115 119 C-113.20437595 121.75329021 -111.94745078 123.52627461 -109 125 C-104.36445612 125.41204834 -101.69583902 124.87454146 -98 122 C-95.88845129 119.40855385 -95.8649828 117.22611429 -96.0625 114 C-96.56824795 110.88412759 -96.98933951 110.01254175 -99.125 107.5 C-105.09332754 104.38608998 -109.32819658 105.32819658 -114 110 Z M121 111 C119.70657129 114.79944684 119.80534565 116.46726177 121.1875 120.25 C123.06487377 123.09842917 123.77379357 124.07822673 127 125 C131.19869866 125.63893241 132.68831196 125.19995082 136.3125 122.875 C139.3168738 119.66101872 140.08901233 118.36160415 140 114 C138.47126129 110.02527937 137.57219503 108.38146335 134 106 C127.7381384 105.29301563 124.88990242 105.57771178 121 111 Z M70 202 C68.64294937 206.0125139 68.55662467 208.98023674 70.25 212.875 C72.77860956 215.94545446 74.40210211 216.9335669 78.375 217.375 C82.5634385 216.94171326 84.06240039 215.93759961 87 213 C88.55024464 209.89951072 88.28992015 207.42105782 88 204 C86.20437595 201.24670979 84.94745078 199.47372539 82 198 C76.60284881 197.49083479 73.59983337 197.76490192 70 202 Z M-113 211 C-115.51250583 214.76875875 -115.53016086 216.53150134 -115 221 C-113 224.4375 -113 224.4375 -110 227 C-107.17390816 227.74640732 -104.83459723 227.68717509 -102 227 C-99.1899654 225.20636089 -97.49059532 223.98119065 -96 221 C-95.58795166 216.36445612 -96.12545854 213.69583902 -99 210 C-103.98034029 206.5137618 -108.30832206 207.57634312 -113 211 Z M-73 345 C-74.61201223 348.22402446 -74.59436848 351.51392867 -74 355 C-71.72090262 358.0605022 -70.07086825 359.59842441 -66.5 360.9375 C-63.3858502 361.01535375 -61.71891828 360.53374877 -59 359 C-56.31300401 356.38562552 -55.14508002 354.75764011 -54.4375 351.0625 C-55.22286168 346.78664194 -56.81084395 344.91773852 -60 342 C-65.72667856 340.12581429 -68.44867951 341.20723293 -73 345 Z M82 344 C79.68858396 346.85074644 79 348.3139451 79 352 C80.26924115 355.80772345 81.87252474 357.51223559 85 360 C88.35441389 361.3761698 89.67058945 361.11199959 93.125 359.9375 C96.63021286 357.57529133 97.75811719 356.03611915 99 352 C98.41983969 348.57705416 97.6696837 346.05739532 95.8125 343.125 C90.89666427 340.07379162 86.35394906 340.37170911 82 344 Z " fill="#000000" transform="translate(249,28)"/>
</svg>
