<?xml version="1.0" encoding="UTF-8"?>
<!-- Generator: visioncortex VTracer 0.6.12 -->
<svg version="1.1" xmlns="http://www.w3.org/2000/svg" width="512" height="512">
<path d="M0 0 C1.24074783 -0.00571014 2.48149567 -0.01142029 3.75984192 -0.01730347 C5.13731374 -0.01854881 6.51478568 -0.01967391 7.89225769 -0.02069092 C9.34107591 -0.0253196 10.78989291 -0.03034433 12.2387085 -0.03573608 C16.17682418 -0.04885746 20.11492282 -0.05530456 24.05305696 -0.05974674 C26.51367246 -0.06267796 28.97428331 -0.06678287 31.43489647 -0.07125092 C39.13425513 -0.08492532 46.83360315 -0.09459219 54.53297311 -0.09845281 C63.41949965 -0.10293321 72.30587235 -0.12048048 81.19235212 -0.1494534 C88.06209179 -0.17107325 94.9317882 -0.18115725 101.80156153 -0.18249393 C105.90419375 -0.18354176 110.00668134 -0.18944493 114.10927773 -0.20731354 C117.96952177 -0.22379946 121.82951256 -0.2259473 125.68977928 -0.21717453 C127.10470635 -0.21640442 128.51964707 -0.22074346 129.93453979 -0.23063278 C131.86997396 -0.24336446 133.80550999 -0.23567934 135.7409668 -0.22705078 C136.82294248 -0.22851734 137.90491816 -0.2299839 139.01968098 -0.2314949 C144.80973469 0.4766068 149.03139127 3.26070279 152.59074402 7.72686768 C155.58387045 12.64052557 157.18906137 18.15879798 158.94898987 23.60458374 C159.78716213 26.19768017 160.64522265 28.78353409 161.50749207 31.36871338 C162.88630097 35.50751929 164.25665981 39.6490224 165.62345886 43.79180908 C168.3889041 52.15219696 171.2080631 60.49421007 174.02970886 68.83575439 C174.16293454 69.22969296 174.16293454 69.22969296 174.83713722 71.22326088 C175.94604093 74.50220724 177.0550126 77.78113059 178.1642046 81.05997944 C181.09936773 89.73757629 184.02670835 98.4178068 186.95336342 107.09827614 C188.46088661 111.56958759 189.96868245 116.04080708 191.47648621 120.51202393 C191.77480882 121.39667611 192.07313143 122.2813283 192.38049412 123.19278812 C195.53942802 132.55995396 198.7003762 141.92643969 201.86174011 151.29278564 C202.00024352 151.70313962 202.00024352 151.70313962 202.70115471 153.77977943 C204.09662259 157.91420119 205.49212565 162.04861107 206.88764954 166.18301392 C209.69038456 174.48647299 212.49286182 182.79001906 215.29533386 191.09356689 C215.57335909 191.91733007 215.85138432 192.74109325 216.13783455 193.58981895 C219.54662383 203.68977733 222.95511747 213.78983538 226.36290455 223.89013195 C227.80033959 228.15050786 229.23792714 232.41083217 230.6758728 236.67103577 C233.22817649 244.23312552 235.7796611 251.7954833 238.32555294 259.35973454 C239.70656199 263.46270304 241.08854848 267.56534175 242.47111511 271.66778564 C242.74249109 272.47305883 243.01386707 273.27833202 243.29346657 274.10800743 C247.16021563 285.57563182 251.07871711 297.0245601 255.03056717 308.46311569 C256.66566327 313.20133701 258.29229011 317.94247384 259.918787 322.68365288 C261.4408621 327.11671348 262.9774553 331.54436873 264.52571774 335.9683466 C265.46972274 338.67681698 266.39969795 341.38995286 267.32596016 344.10453606 C267.95354521 345.92989721 268.59814419 347.74938174 269.24343872 349.56855774 C272.07065651 357.91683635 274.05231706 366.19646044 270.37345886 374.57794189 C267.70557472 379.18781945 263.9636279 382.12901591 259.06095886 384.14044189 C256.22730446 384.39491749 256.22730446 384.39491749 252.88777161 384.40113831 C252.25408913 384.40468071 252.25408913 384.40468071 249.04727173 384.42260742 C247.64509547 384.42031365 246.24291955 384.41780395 244.84074402 384.4151001 C243.36222069 384.41944792 241.88369961 384.4246313 240.40518188 384.43058777 C236.39065573 384.44398256 232.3762237 384.44455584 228.36167955 384.44202447 C225.00932888 384.44095493 221.65699726 384.44583777 218.30465066 384.45062989 C210.39462953 384.46172706 202.48465589 384.46216152 194.57463074 384.45611572 C186.41758469 384.4500769 178.26071117 384.46238409 170.10369456 384.48368579 C163.09804677 384.50130728 156.09245386 384.50730223 149.08678472 384.50404805 C144.90369628 384.50223568 140.72073087 384.50486662 136.53766251 384.51876259 C132.60270056 384.531345 128.66800725 384.52939304 124.73304939 384.5163517 C123.29071397 384.51398713 121.84835963 384.51671636 120.40604591 384.52497482 C118.43342658 384.53545321 116.46073062 384.52553291 114.4881134 384.5146637 C113.93671346 384.51474757 113.93671346 384.51474757 111.14629555 384.515172 C106.17937803 383.91191416 102.29831616 381.71299761 98.72111511 378.27716064 C98.14103699 377.72737549 97.56095886 377.17759033 96.96330261 376.61114502 C96.35615417 376.02268799 95.74900574 375.43423096 95.12345886 374.82794189 C93.7916037 373.5608297 92.45956739 372.29390789 91.12736511 371.02716064 C90.4520575 370.38053467 89.77674988 369.73390869 89.08097839 369.06768799 C85.93318881 366.06446693 82.74634745 363.10366231 79.56095886 360.14044189 C78.31074751 358.97400171 77.06074804 357.8073344 75.81095886 356.64044189 C75.19220886 356.06294189 74.57345886 355.48544189 73.93595886 354.89044189 C53.31095886 335.64044189 53.31095886 335.64044189 51.43400574 333.88848877 C50.19068952 332.72814673 48.94720141 331.56798884 47.70353699 330.40802002 C44.47480233 327.3961154 41.24959837 324.38055257 38.02970886 321.35919189 C37.36519714 320.73657471 36.70068542 320.11395752 36.01603699 319.47247314 C34.7583993 318.29398748 33.50180249 317.11438951 32.24650574 315.93341064 C28.27981104 312.21934343 24.21467819 308.64395896 20.06095886 305.14044189 C18.275035 307.81932768 17.37975663 309.79680515 16.36857605 312.80108643 C16.04774048 313.74702667 15.72690491 314.69296692 15.39634705 315.66757202 C15.0536377 316.6924472 14.71092834 317.71732239 14.35783386 318.77325439 C13.99756104 319.83849335 13.63728821 320.9037323 13.26609802 322.00125122 C12.11023823 325.42126499 10.96035643 328.84325149 9.81095886 332.26544189 C7.23316816 339.91519808 4.64857886 347.56260992 2.0533905 355.20648193 C1.13336417 357.92638759 0.22436488 360.64975235 -0.68318176 363.37384033 C-1.20014383 364.89781247 -1.71767554 366.42159156 -2.23591614 367.94512939 C-2.45491577 368.61456573 -2.67391541 369.28400208 -2.89955139 369.97372437 C-5.05239055 376.22299755 -7.98422393 380.07335113 -13.81562614 383.29539108 C-17.90028607 384.92095424 -22.08774716 384.70331467 -26.42903137 384.67388916 C-27.46083527 384.68250473 -28.49263916 384.6911203 -29.55570984 384.69999695 C-32.95327621 384.72262751 -36.35001578 384.71592288 -39.74763489 384.70684814 C-42.11743413 384.71208508 -44.48723127 384.71836182 -46.85702515 384.72563171 C-51.81911541 384.73603068 -56.78091882 384.73148153 -61.74299622 384.71685791 C-68.09282368 384.69967368 -74.44174596 384.72316474 -80.79147243 384.75834751 C-85.68408166 384.78033833 -90.57647489 384.77887579 -95.46911812 384.7705822 C-97.8098201 384.76976357 -100.15053808 384.77661 -102.49119377 384.79135323 C-105.76790916 384.80882872 -109.04300525 384.79422965 -112.31965637 384.77154541 C-113.28042587 384.78323761 -114.24119537 384.79492981 -115.2310791 384.80697632 C-121.64387512 384.71693231 -126.00984435 383.33107636 -130.93904114 379.14044189 C-135.52116254 374.09208648 -136.54537634 369.66740895 -136.41242981 362.93380737 C-135.35275743 354.44242412 -132.14203753 346.41895821 -129.34529114 338.37091064 C-128.64745258 336.31956604 -127.95125729 334.26766178 -127.2565918 332.21524048 C-125.39191686 326.72027428 -123.50533307 321.23306565 -121.61466599 315.74699783 C-119.63742067 309.9965985 -117.68129196 304.23902791 -115.72346497 298.48199463 C-112.58704382 289.26618891 -109.44032234 280.05397372 -106.28523254 270.84454346 C-102.61749627 260.13645661 -98.97478523 249.42019206 -95.35700989 238.69512939 C-95.11205025 237.96904921 -94.86709061 237.24296902 -94.61470795 236.4948864 C-93.65277132 233.64328364 -92.6910529 230.79160752 -91.7297821 227.93978024 C-89.36938077 220.93745257 -87.00088703 213.93786956 -84.63234711 206.93829155 C-78.52313193 188.88250049 -72.43218989 170.82055255 -66.34291458 152.75802898 C-64.19781071 146.39504064 -62.05220046 140.03222323 -59.90632629 133.66949463 C-58.68933688 130.06086209 -57.47238019 126.45221852 -56.25544739 122.84356689 C-55.95434555 121.95069536 -55.65324371 121.05782383 -55.34301758 120.13789558 C-51.65478292 109.20052175 -47.96941101 98.26218993 -44.28798294 87.32252312 C-41.88379842 80.17846253 -39.47784448 73.03499946 -37.07064438 65.89195442 C-35.38965103 60.90341399 -33.71094635 55.91411182 -32.03406811 50.92418671 C-30.99824562 47.84381698 -29.96010459 44.76423225 -28.92134285 41.6848526 C-28.44862062 40.28199442 -27.97680909 38.8788289 -27.50607109 37.47530365 C-26.01161898 33.02054707 -24.48853877 28.57637526 -22.93904114 24.14044189 C-22.69401226 23.43258293 -22.44898338 22.72472397 -22.19652939 21.99541473 C-21.43485989 19.81085169 -20.65603115 17.63312656 -19.87239075 15.45635986 C-19.75699463 15.12302171 -19.75699463 15.12302171 -19.17302036 13.43612862 C-17.1136569 7.81512074 -14.10084687 4.14507508 -8.93904114 1.14044189 C-5.71634068 0.06620841 -3.38951333 0.0093285 0 0 Z M68.06095886 159.14044189 C65.31873268 165.81739193 62.82367049 172.5383146 60.52189636 179.37872314 C60.19903656 180.33048935 59.87617676 181.28225555 59.54353333 182.26286316 C58.50515064 185.32537438 57.47045127 188.38911462 56.43595886 191.45294189 C55.00744376 195.67339154 53.57731266 199.89329254 52.14689636 204.11309814 C51.97141266 204.63117538 51.97141266 204.63117538 51.08335876 207.25296021 C49.00946665 213.36873903 46.9143723 219.47647705 44.78752136 225.57403564 C44.54826935 226.26109085 44.30901733 226.94814606 44.06251526 227.65602112 C42.98230402 230.75616329 41.89719836 233.85445119 40.80461121 236.95025635 C40.43545593 238.00817383 40.06630066 239.06609131 39.68595886 240.15606689 C39.36884949 241.05615479 39.05174011 241.95624268 38.72502136 242.88360596 C38.06095886 245.14044189 38.06095886 245.14044189 38.06095886 248.14044189 C57.86095886 248.14044189 77.66095886 248.14044189 98.06095886 248.14044189 C95.81115199 238.01631096 95.81115199 238.01631096 94.53971863 234.32794189 C94.25467972 233.49306747 93.96964081 232.65819305 93.67596436 231.79801941 C93.37117661 230.92101883 93.06638885 230.04401825 92.75236511 229.14044189 C92.59088737 228.66925179 92.59088737 228.66925179 91.77371216 226.28474426 C90.72783599 223.23517966 89.67558313 220.18785577 88.62345886 217.14044189 C87.17474654 212.92110823 85.72934214 208.70064296 84.28361511 204.48028564 C84.10391678 203.95648064 84.10391678 203.95648064 83.1945343 201.30570984 C79.93205329 191.78841828 76.73194725 182.2510543 73.56095886 172.70294189 C73.32603729 171.99613281 73.09111572 171.28932373 72.84907532 170.56109619 C71.58418683 166.75493328 70.32135577 162.94809444 69.06095886 159.14044189 C68.73095886 159.14044189 68.40095886 159.14044189 68.06095886 159.14044189 Z " fill="#0B59A4" transform="translate(187.9390411376953,63.85955810546875)"/>
<path d="M0 0 C17.49816844 -0.07010641 34.99629299 -0.12299615 52.49456978 -0.15543652 C60.61947451 -0.17090005 68.74429193 -0.1919797 76.86914062 -0.22631836 C83.95143438 -0.2562365 91.03366489 -0.27557874 98.11602008 -0.28226548 C101.86548305 -0.28617367 105.61476513 -0.29534761 109.36417007 -0.31719017 C113.55161791 -0.34138633 117.738752 -0.34196844 121.92626953 -0.34057617 C123.16704758 -0.351362 124.40782562 -0.36214783 125.686203 -0.3732605 C132.49889106 -0.34870492 137.09775078 0.09617016 142.69848633 4.26391602 C147.74028495 9.71196564 149.65095404 16.54190503 151.88803101 23.46414185 C152.72620327 26.05723827 153.58426379 28.6430922 154.4465332 31.22827148 C155.82534211 35.36707739 157.19570095 39.5085805 158.5625 43.65136719 C161.32794524 52.01175506 164.14710423 60.35376817 166.96875 68.6953125 C167.10197568 69.08925107 167.10197568 69.08925107 167.77617836 71.08281898 C168.88508206 74.36176535 169.99405374 77.64068869 171.10324574 80.91953754 C174.03840887 89.5971344 176.96574949 98.27736491 179.89240456 106.95783424 C181.39992775 111.42914569 182.90772359 115.90036519 184.41552734 120.37158203 C184.71384995 121.25623422 185.01217257 122.1408864 185.31953526 123.05234623 C188.47846915 132.41951206 191.63941734 141.7859978 194.80078125 151.15234375 C195.07778807 151.9730517 195.35479488 152.79375965 195.64019585 153.63933754 C197.03566372 157.77375929 198.43116678 161.90816917 199.82669067 166.04257202 C202.62942569 174.3460311 205.43190296 182.64957716 208.234375 190.953125 C208.51240023 191.77688818 208.79042545 192.60065136 209.07687569 193.44937706 C212.48566497 203.54933543 215.89415861 213.64939348 219.30194569 223.74969006 C220.73938072 228.01006597 222.17696828 232.27039027 223.61491394 236.53059387 C226.16721763 244.09268363 228.71870224 251.65504141 231.26459408 259.21929264 C232.64560313 263.32226115 234.02758962 267.42489985 235.41015625 271.52734375 C235.68153223 272.33261694 235.95290821 273.13789013 236.23250771 273.96756554 C240.09925677 285.43518992 244.01775825 296.88411821 247.96960831 308.3226738 C249.60470441 313.06089512 251.23133125 317.80203195 252.85782814 322.54321098 C254.37990323 326.97627158 255.91649644 331.40392684 257.46475887 335.8279047 C258.40876388 338.53637508 259.33873909 341.24951096 260.2650013 343.96409416 C260.89258635 345.78945531 261.53718533 347.60893985 262.18247986 349.42811584 C265.00969765 357.77639445 266.99135819 366.05601855 263.3125 374.4375 C260.63905363 379.05698861 256.90055485 381.96418721 252 384 C249.36822891 384.24609566 249.36822891 384.24609566 246.31793213 384.24050903 C245.15969437 384.24325836 244.0014566 384.24600769 242.80812073 384.24884033 C241.54145065 384.24164978 240.27478058 384.23445923 238.96972656 384.22705078 C237.61940011 384.2264865 236.26907304 384.22680356 234.91874695 384.22793579 C231.25582369 384.22850964 227.59303141 384.21675011 223.93013859 384.20278788 C220.10111721 384.19028593 216.27209284 384.18911044 212.4430542 384.18673706 C205.19350995 384.18052072 197.94402601 384.16410781 190.69450831 384.14403808 C182.44065121 384.12168389 174.18679123 384.11068686 165.9329114 384.10064721 C148.95523938 384.07974172 131.97762607 384.04456273 115 384 C115.598125 383.70351563 116.19625 383.40703125 116.8125 383.1015625 C122.11129275 380.43324187 125.87828353 378.02023636 128.23510742 372.47705078 C131.05509025 363.34473485 128.34125351 354.38830208 125.1875 345.75 C124.83107422 344.72648437 124.47464844 343.70296875 124.10742188 342.6484375 C122.66776889 338.53816219 121.17359572 334.45433831 119.61914062 330.38598633 C117.61383137 325.04595564 115.84170806 319.62970775 114.05078125 314.21484375 C113.67447067 313.0821254 113.2981601 311.94940704 112.91044617 310.78236389 C111.31437255 305.97798842 109.7217885 301.17245859 108.12915039 296.36694336 C104.03419313 284.01735611 99.92464788 271.67387093 95.66796875 259.37890625 C95.35587967 258.47349594 95.04379059 257.56808563 94.72224426 256.63523865 C93.23835524 252.37526932 91.68491894 248.16311853 89.98974609 243.98242188 C87.97711117 239.01289332 86.2114585 233.98105431 84.49609375 228.90234375 C84.17619476 227.9621489 83.85629578 227.02195404 83.52670288 226.05326843 C82.49411119 223.01564024 81.46557965 219.97665797 80.4375 216.9375 C79.72169038 214.82662893 79.00578788 212.71578936 78.28979492 210.60498047 C76.18828969 204.40497428 74.09356056 198.20269243 72 192 C71.42025538 190.28433975 70.84050328 188.56868203 70.26074219 186.85302734 C68.99950542 183.11829156 67.74255393 179.38214357 66.48977661 175.64456177 C65.8411129 173.71032042 65.19002145 171.77689375 64.53881836 169.84350586 C62.41208863 163.46934019 60.4166291 157.07516852 58.55078125 150.62109375 C56.31762482 142.9189784 53.80901063 135.33827365 51.18136597 127.76278687 C49.68364669 123.44387077 48.19907919 119.1204402 46.71484375 114.796875 C46.37036697 113.79379807 46.0258902 112.79072113 45.67097473 111.75724792 C42.46356036 102.39580785 39.30690517 93.01755875 36.15563965 83.63709831 C35.25174222 80.94668385 34.34726999 78.25646328 33.44262695 75.56629944 C28.36181775 60.45602783 28.36181775 60.45602783 26.11907959 53.75997925 C24.6605454 49.40539304 23.19789961 45.05220746 21.73249626 40.69992828 C21.18761981 39.07908112 20.64426097 37.45772283 20.10257149 35.8358078 C11.09660094 8.87728075 11.09660094 8.87728075 5 4 C3.33333333 2.66666667 1.66666667 1.33333333 0 0 Z " fill="#32AFE9" transform="translate(195,64)"/>
<path d="M0 0 C17.74599705 -0.04648882 35.49131939 -0.0396145 53.23730469 0.02099609 C56.53218729 7.93395088 59.34380371 15.98334585 62.08105469 24.10302734 C62.53639199 25.44771091 62.99192164 26.79232936 63.44763184 28.1368866 C64.39732066 30.9408547 65.34513672 33.74544623 66.29150391 36.55053711 C67.49183048 40.10809364 68.69616374 43.66427734 69.90184784 47.22002125 C70.84187982 49.9934371 71.7800785 52.76747048 72.71772766 55.54169273 C73.16051756 56.85129376 73.60376839 58.16073906 74.04753113 59.47001076 C76.60340723 67.0154758 79.05917589 74.57781282 81.34338379 82.21025085 C82.17707382 84.83161288 83.12533367 87.35453782 84.17480469 89.89599609 C93.83539266 113.60484943 93.83539266 113.60484943 90.50292969 124.39990234 C88.1274616 129.68629239 84.96940416 132.93676751 79.51074219 135.10302734 C75.95532484 136.10007159 72.92553298 136.32136376 69.23730469 136.33349609 C68.06167969 136.35025391 66.88605469 136.36701172 65.67480469 136.38427734 C58.47803964 135.62371013 54.27100221 131.5266525 49.29980469 126.70849609 C47.96794953 125.4413839 46.63591321 124.17446209 45.30371094 122.90771484 C44.62840332 122.26108887 43.9530957 121.61446289 43.25732422 120.94824219 C40.10953463 117.94502113 36.92269328 114.98421651 33.73730469 112.02099609 C32.48709334 110.85455591 31.23709386 109.6878886 29.98730469 108.52099609 C29.36855469 107.94349609 28.74980469 107.36599609 28.11230469 106.77099609 C7.48730469 87.52099609 7.48730469 87.52099609 5.6105957 85.76928711 C4.36644399 84.60815452 3.12214174 83.44718321 1.87768555 82.28637695 C-1.33807641 79.28637573 -4.55080269 76.28321828 -7.75878906 73.27490234 C-9.07242523 72.04425647 -10.38622464 70.81378482 -11.70019531 69.58349609 C-12.33119141 68.9922998 -12.9621875 68.40110352 -13.61230469 67.79199219 C-16.77416154 64.83974725 -19.96542038 61.94772681 -23.26269531 59.14599609 C-26.51668641 56.35485718 -29.21666697 53.2544082 -31.98535156 49.98974609 C-34.37130015 47.3468492 -37.01524695 45.10168449 -39.72753906 42.80224609 C-41.83638059 40.9565038 -43.79868073 39.01960193 -45.76269531 37.02099609 C-48.98093345 33.75237458 -52.34251482 30.7347642 -55.81738281 27.74365234 C-58.37482299 25.47893123 -60.77797815 23.08821056 -63.15722656 20.63818359 C-64.58622306 19.19875646 -66.10713255 17.85192024 -67.63769531 16.52099609 C-70.4252661 13.24150105 -70.91330851 11.31347215 -70.76269531 7.02099609 C-69.15206595 4.23535547 -68.29990128 2.83342986 -65.76269531 1.02099609 C-62.17767513 0.12012402 -58.66701799 0.18363986 -54.98535156 0.21630859 C-53.89419037 0.20255692 -52.80302917 0.18880524 -51.67880249 0.17463684 C-48.06053517 0.1365116 -44.44363955 0.14099771 -40.82519531 0.14599609 C-38.30507642 0.12829226 -35.78497358 0.1081521 -33.26489258 0.08569336 C-26.5177738 0.03439924 -19.77129914 0.02239684 -13.02404785 0.0223999 C-8.68267433 0.02213431 -4.34135526 0.01186535 0 0 Z " fill="#0076D0" transform="translate(233.7626953125,311.97900390625)"/>
<path d="M0 0 C4.74896632 1.35684752 7.31139089 3.99616943 10 8 C11.29720244 10.71566404 12.22465551 13.50849844 13.14453125 16.37109375 C13.42728912 17.21264008 13.710047 18.0541864 14.00137329 18.92123413 C14.95077009 21.75603074 15.88128803 24.59668291 16.8125 27.4375 C17.49150325 29.47467521 18.17196872 31.51136353 18.85375977 33.54760742 C20.37932695 38.10828233 21.89799865 42.67118498 23.41308594 47.23535156 C27.57992706 59.76663548 31.82508135 72.27163219 36.05871487 84.78046894 C37.61949647 89.3924769 39.17804315 94.00523014 40.73395824 98.61888218 C41.4799593 100.83070075 42.22663215 103.04229171 42.97337341 105.25386047 C43.93838627 108.11226306 44.9004059 110.97164895 45.86048889 113.83171082 C48.08685607 120.44935679 50.360113 127.04153117 52.75830078 133.59912109 C53.1857106 134.78173019 53.61312042 135.96433929 54.05348206 137.18278503 C54.84523817 139.36289758 55.65178666 141.53772519 56.47666931 143.70552063 C59.56957509 152.26495961 59.25968865 158.5962773 55.9375 167.0625 C55.57527344 168.00222656 55.21304688 168.94195312 54.83984375 169.91015625 C54.56269531 170.59980469 54.28554687 171.28945312 54 172 C52.99373094 168.98119281 52.52259234 166.13555403 52 163 C51.49989663 160.87002606 50.97921945 158.74477178 50.4375 156.625 C50.16808594 155.56539062 49.89867187 154.50578125 49.62109375 153.4140625 C49.41613281 152.61742187 49.21117187 151.82078125 49 151 C48.34 151.66 47.68 152.32 47 153 C46.95875 151.865625 46.9175 150.73125 46.875 149.5625 C46.26139542 143.85056324 44.26838952 138.73350578 42.29882812 133.37890625 C40.80315878 129.30437296 39.45304104 125.27284918 38.375 121.0625 C37.03824679 115.84355931 35.11469413 110.94859897 33 106 C32.67 106 32.34 106 32 106 C31.875 99.25 31.875 99.25 33 97 C32.01 96.67 31.02 96.34 30 96 C27.70986347 92.5647952 27.82157027 91.014669 28 87 C27.34 87 26.68 87 26 87 C25.68546875 85.76765625 25.3709375 84.5353125 25.046875 83.265625 C22.86853984 74.81549631 20.65240357 66.46755775 17.69921875 58.25 C17 56 17 56 17 53 C16.34 53 15.68 53 15 53 C14.896875 52.0925 14.79375 51.185 14.6875 50.25 C13.97434837 46.87873774 13.11123025 45.61792551 11 43 C9.08928491 39.07241899 8.57958385 35.30548 8 31 C7.67 30.67 7.34 30.34 7 30 C6.53036753 27.73559376 6.10017493 25.4629757 5.6875 23.1875 C4.53438379 17.04835348 2.91435704 11.27082154 0.76953125 5.390625 C0 3 0 3 0 0 Z " fill="#0D4279" transform="translate(197,66)"/>
<path d="M0 0 C5.28 0 10.56 0 16 0 C19.26613781 7.92808911 22.10530497 15.95880775 24.84375 24.08203125 C25.29908731 25.42671482 25.75461695 26.77133326 26.21032715 28.1158905 C27.16001597 30.91985861 28.10783203 33.72445013 29.05419922 36.52954102 C30.25452579 40.08709755 31.45885906 43.64328125 32.66454315 47.19902515 C33.60457513 49.97244101 34.54277381 52.74647438 35.48042297 55.52069664 C35.92321287 56.83029767 36.3664637 58.13974296 36.81022644 59.44901466 C39.36610254 66.9944797 41.8218712 74.55681673 44.1060791 82.18925476 C44.93976914 84.81061678 45.88802898 87.33354173 46.9375 89.875 C56.70365789 113.84294127 56.70365789 113.84294127 53.3125 124.07421875 C52.5 125.75 52.5 125.75 51 128 C50.34 128 49.68 128 49 128 C48.64373535 126.78248047 48.2874707 125.56496094 47.92041016 124.31054688 C44.62037816 113.12105302 41.06866514 102.05016414 37.25036621 91.02746582 C35.71311929 86.58893597 34.18915263 82.1458436 32.6640625 77.703125 C32.35533203 76.8046283 32.04660156 75.90613159 31.72851562 74.98040771 C28.67797096 66.08934777 25.70777815 57.17226157 22.75 48.25 C17.62193092 32.79044883 12.35286207 17.38319153 7 2 C4.69 1.67 2.38 1.34 0 1 C0 0.67 0 0.34 0 0 Z " fill="#0066B4" transform="translate(271,312)"/>
<path d="M0 0 C1.82939148 0.07096863 1.82939148 0.07096863 4 1 C5.13582179 3.3251507 5.95197623 5.4177466 6.72973633 7.86450195 C6.85120277 8.22402451 6.85120277 8.22402451 7.46589661 10.04342651 C8.27022479 12.43680533 9.05096307 14.83722091 9.83203125 17.23828125 C10.39099521 18.91579104 10.95145947 20.59280158 11.51335144 22.26933289 C12.99644625 26.70724689 14.45994771 31.15138276 15.91925049 35.59716797 C17.38133833 40.04167524 18.85985845 44.48069666 20.33789062 48.91992188 C22.0434358 54.04513915 23.7479879 59.17066391 25.44483948 64.29876709 C29.5834571 76.80137741 33.79023796 89.27607642 38.33813477 101.63696289 C40.65701432 107.93959823 41.53471084 113.2864084 41 120 C38.75931833 117.75931833 38.320762 116.40405546 37.36767578 113.41772461 C37.06040558 112.46590805 36.75313538 111.51409149 36.43655396 110.53343201 C36.10944427 109.50017288 35.78233459 108.46691376 35.4453125 107.40234375 C35.27390244 106.87062813 35.27390244 106.87062813 34.40646362 104.17982483 C33.30684529 100.76754739 32.21515184 97.35281263 31.125 93.9375 C30.04162285 90.54730576 28.95637004 87.15777408 27.86495972 83.77015686 C27.18563107 81.66137238 26.51083981 79.55111896 25.84133911 77.43919373 C24.133934 72.13643334 22.21035912 67.08872623 19.87838745 62.03129578 C18.61070007 59.09973293 17.82295161 56.08214559 17 53 C16.118658 50.24064761 15.18255849 47.50022044 14.25 44.7578125 C13.7185732 43.18104916 13.18732885 41.60422432 12.65625 40.02734375 C11.82883193 37.57597066 11.00003179 35.12509359 10.16796875 32.67529297 C9.35780568 30.28751971 8.55352005 27.8978281 7.75 25.5078125 C7.50411133 24.7887674 7.25822266 24.06972229 7.00488281 23.32888794 C5.31430437 18.28214693 4.06426829 13.21375202 3 8 C2.34 8 1.68 8 1 8 C-0.35439668 5.29120665 -0.06501451 2.99066732 0 0 Z " fill="#0261A8" transform="translate(284,312)"/>
<path d="M0 0 C1.69946788 2.54920182 2.56531331 4.32099564 3.5078125 7.16015625 C3.77207031 7.95357422 4.03632813 8.74699219 4.30859375 9.56445312 C4.57800781 10.38880859 4.84742188 11.21316406 5.125 12.0625 C5.40214844 12.89072266 5.67929687 13.71894531 5.96484375 14.57226562 C8 20.73287408 8 20.73287408 8 23 C5 22 5 22 4.09277344 20.29760742 C3.85075195 19.57420166 3.60873047 18.8507959 3.359375 18.10546875 C3.09382813 17.31462891 2.82828125 16.52378906 2.5546875 15.70898438 C2.28914063 14.87689453 2.02359375 14.04480469 1.75 13.1875 C1.46898437 12.36701172 1.18796875 11.54652344 0.8984375 10.70117188 C-1.30615573 3.97279699 -1.30615573 3.97279699 0 0 Z " fill="#0866AB" transform="translate(316,398)"/>
<path d="M0 0 C0.66 0 1.32 0 2 0 C2.69848264 1.93356782 3.38344814 3.87202298 4.0625 5.8125 C4.44535156 6.89144531 4.82820312 7.97039062 5.22265625 9.08203125 C6 12 6 12 5 15 C2.82813579 12.82813579 2.3206752 11.50023469 1.375 8.625 C1.11460937 7.85414063 0.85421875 7.08328125 0.5859375 6.2890625 C0 4 0 4 0 0 Z " fill="#104E82" transform="translate(250,206)"/>
<path d="M0 0 C0.99 0.33 1.98 0.66 3 1 C2.45144652 5.571279 1.58255197 9.67435795 0 14 C-0.33 14 -0.66 14 -1 14 C-0.67 9.38 -0.34 4.76 0 0 Z " fill="#093767" transform="translate(253,219)"/>
</svg>
