<?xml version="1.0" encoding="UTF-8"?>
<!-- Generator: visioncortex VTracer 0.6.12 -->
<svg version="1.1" xmlns="http://www.w3.org/2000/svg" width="512" height="512">
<path d="M0 0 C3.83728691 3.3474205 4.79564754 4.84819521 5.6875 9.875 C5.12268343 18.11835174 -3.50650261 24.79096137 -9.0105896 30.25109863 C-9.7997582 31.04197608 -10.5889268 31.83285354 -11.40200961 32.64769697 C-14.03200187 35.28096801 -16.66904953 37.90705449 -19.30615234 40.53320312 C-21.1990701 42.42555642 -23.09158692 44.31830289 -24.98361206 46.21154785 C-29.04981188 50.27879324 -33.11963944 54.34237864 -37.19199753 58.40345764 C-43.07984007 64.27500345 -48.96211177 70.15210461 -54.84306534 76.03054947 C-64.38609462 85.56920818 -73.93357592 95.10339773 -83.48388672 104.63476562 C-92.75772239 113.89022596 -102.02944226 123.14779742 -111.29833984 132.40820312 C-111.87026665 132.97960449 -112.44219346 133.55100585 -113.03145139 134.13972241 C-115.90080371 137.00646454 -118.77011465 139.87324808 -121.63940501 142.74005222 C-145.419858 166.49979259 -169.20754835 190.25227484 -193 214 C-191.63827811 217.04510926 -190.10560621 219.1423462 -187.74813175 221.49237728 C-187.07370441 222.16955333 -186.39927706 222.84672937 -185.70441252 223.5444259 C-185.33287203 223.91237143 -185.33287203 223.91237143 -183.45265198 225.7743988 C-182.66493422 226.56241428 -181.87721646 227.35042976 -181.06562847 228.16232449 C-178.41638912 230.81017131 -175.76006445 233.45079527 -173.10375977 236.09155273 C-171.206434 237.98504149 -169.30951458 239.87892898 -167.41311646 241.77334595 C-163.32434453 245.85634339 -159.2320376 249.93576972 -155.13742256 254.01290703 C-149.21302031 259.91220687 -143.29509702 265.81797228 -137.37893163 271.72553123 C-127.77459515 281.31573074 -118.16653288 290.90218764 -108.55541992 300.4855957 C-107.98014921 301.0592108 -107.40487849 301.63282589 -106.81217533 302.22382326 C-102.14492515 306.87758526 -97.4774948 311.53116656 -92.81005478 316.18473816 C-88.73160317 320.25108586 -84.6532228 324.31750499 -80.57495117 328.3840332 C-80.00068268 328.95664544 -79.42641419 329.52925768 -78.83474363 330.1192218 C-69.2610428 339.66555447 -59.69126571 349.21581116 -50.12428516 358.76887852 C-44.22261809 364.66158129 -38.31741617 370.5506991 -32.40762233 376.43525172 C-28.35870306 380.46732357 -24.31332097 384.50292104 -20.27070803 388.54131561 C-17.93774834 390.87158446 -15.60261146 393.19959718 -13.26415443 395.52435112 C-10.72959183 398.04452555 -8.20123207 400.57076399 -5.67433167 403.09861755 C-4.93348141 403.83227789 -4.19263115 404.56593822 -3.42933089 405.32183069 C4.67768368 413.46175898 4.67768368 413.46175898 5.5 419.9375 C5.34745503 423.29348936 4.79984161 424.34402223 3 427.4375 C-0.225432 430.1925565 -1.86904227 430.81761171 -5.9375 431.28515625 C-10.42094438 430.6652861 -13.74571434 427.50425025 -16.84524155 424.40364742 C-17.57564297 423.67784479 -18.3060444 422.95204216 -19.05857921 422.20424551 C-19.45366919 421.80658374 -19.45366919 421.80658374 -21.45306396 419.79417419 C-22.30192586 418.94772671 -23.15078776 418.10127923 -24.02537274 417.22918183 C-26.37592389 414.88328856 -28.72191167 412.53299551 -31.06606793 410.18072236 C-33.59684242 407.64336361 -36.13338289 405.1117804 -38.66920471 402.57946777 C-43.63343908 397.62027268 -48.59231959 392.65575707 -53.54940501 387.68941718 C-59.31950286 381.90893441 -65.09482513 376.13368326 -70.87036052 370.35863424 C-81.17176051 360.05773478 -91.46832252 349.75201286 -101.76220703 339.44360352 C-111.75760167 329.43411247 -121.7565007 319.42813947 -131.75927734 309.42602539 C-132.06749188 309.11783084 -132.06749188 309.11783084 -133.6272442 307.55817961 C-134.24259485 306.94286932 -134.85794549 306.32755903 -135.49194312 305.69360298 C-146.87303185 294.31320346 -158.25083076 282.92951995 -169.62709503 271.54429786 C-173.65448883 267.51388391 -177.68286225 263.48445064 -181.71154022 259.45532036 C-186.61681458 254.54936501 -191.52020006 249.64153059 -196.42121139 244.73131638 C-198.92335508 242.2245453 -201.42628986 239.71857789 -203.9313755 237.21474648 C-206.64192605 234.50548729 -209.34860607 231.79238303 -212.05487061 229.07884216 C-212.85397346 228.28128791 -213.65307632 227.48373365 -214.47639441 226.66201109 C-215.19636485 225.9388162 -215.91633529 225.21562132 -216.65812302 224.47051144 C-216.97098641 224.15729583 -216.97098641 224.15729583 -218.55426478 222.57223505 C-221.1725506 219.72485284 -221.52389281 217.03790533 -221.4686659 213.19419152 C-220.88664649 210.46930358 -219.88528807 209.30667956 -218.00134563 207.26793575 C-217.68177228 206.92016077 -217.68177228 206.92016077 -216.06453741 205.16020858 C-212.57653524 201.51057153 -209.05025582 197.90577752 -205.47846985 194.33802795 C-204.64635001 193.50293699 -203.81423017 192.66784603 -202.95689458 191.80744928 C-200.66770714 189.51113503 -198.37633191 187.21703153 -196.08394992 184.92390716 C-193.60436812 182.44246121 -191.1276349 179.95817459 -188.65048218 177.4743042 C-183.2465352 172.0568359 -177.83886705 166.64309251 -172.43036294 161.2301743 C-169.05259761 157.84963949 -165.67556739 154.46837098 -162.298666 151.08697319 C-152.94375062 141.71987983 -143.58790004 132.35372279 -134.22858906 122.99102116 C-133.92975256 122.69207488 -133.92975256 122.69207488 -132.41745878 121.17922553 C-131.81840288 120.57995135 -131.21934698 119.98067717 -130.60213786 119.36324316 C-129.38832148 118.14898332 -128.17450665 116.93472192 -126.96069336 115.72045898 C-126.35860631 115.11815051 -125.75651927 114.51584203 -125.13618716 113.89528178 C-115.35970114 104.11483958 -105.58999832 94.32765125 -95.8231648 84.5375709 C-85.78951378 74.48023095 -75.75027041 64.428502 -65.70535153 54.38241571 C-60.06779141 48.74393815 -54.43268228 43.1030581 -48.80373573 37.4559803 C-44.0164365 32.65331423 -39.2240728 27.85577616 -34.42494551 23.06492818 C-31.97607933 20.61997885 -29.52973099 18.17263977 -27.08982277 15.71874809 C-24.44691878 13.0632384 -21.79502787 10.41704867 -19.14057922 7.77308655 C-18.36714292 6.99159384 -17.59370662 6.21010114 -16.79683286 5.40492684 C-16.08605626 4.70074008 -15.37527965 3.99655332 -14.64296436 3.27102757 C-14.03161194 2.65907805 -13.42025951 2.04712854 -12.79038125 1.4166351 C-8.80500345 -1.73678603 -4.75582312 -1.2515324 0 0 Z " fill="#000000" transform="translate(364,41)"/>
</svg>
