<?xml version="1.0" encoding="UTF-8"?>
<!-- Generator: visioncortex VTracer 0.6.12 -->
<svg version="1.1" xmlns="http://www.w3.org/2000/svg" width="512" height="512">
<path d="M0 0 C5.87939086 3.21702519 9.97388886 6.41209057 12.3125 12.8125 C13.91792217 19.39597543 13.34093049 24.7537735 10.3125 30.8125 C5.91059319 36.5882334 0.58397981 41.6826663 -4.55259705 46.79785156 C-5.31403521 47.56014415 -6.07547337 48.32243673 -6.85998541 49.10782909 C-9.39249136 51.6419721 -11.92853621 54.17254253 -14.46459961 56.703125 C-16.28848393 58.52672704 -18.11214767 60.35054972 -19.93560791 62.17457581 C-23.85172486 66.09121521 -27.76965765 70.0060304 -31.68885612 73.91958618 C-37.35524444 79.57782162 -43.01884492 85.23884088 -48.68178505 90.90052712 C-57.87126754 100.08782503 -67.06297749 109.27289102 -76.25610352 118.45654297 C-85.18241039 127.37366035 -94.10765856 136.29183521 -103.03149414 145.21142578 C-103.58224926 145.76191818 -104.13300438 146.31241057 -104.70044904 146.87958455 C-107.46362502 149.64145542 -110.22678029 152.403347 -112.98992527 155.16524887 C-135.88590825 178.05087774 -158.78551251 200.93287987 -181.6875 223.8125 C-180.33740137 226.82429351 -178.83819291 228.90755884 -176.50089455 231.22844124 C-176.17095601 231.55852072 -176.17095601 231.55852072 -174.50126708 233.22892296 C-173.77443201 233.94583963 -173.04759694 234.66275629 -172.29873657 235.40139771 C-171.52805859 236.16955114 -170.75738061 236.93770458 -169.96334875 237.72913539 C-167.37168597 240.31001631 -164.77297009 242.88367921 -162.17431641 245.45751953 C-160.31799576 247.30345669 -158.46215702 249.14987858 -156.60676575 250.99674988 C-152.60611794 254.977975 -148.60216163 258.95584716 -144.59627151 262.93179703 C-138.2614111 269.21989528 -131.93693456 275.51838065 -125.61410522 281.818573 C-123.44991304 283.97476217 -121.28565378 286.13088402 -119.12137413 288.2869854 C-118.85093096 288.55640934 -118.85093096 288.55640934 -117.48232461 289.91985778 C-111.3255642 296.0531335 -105.1666737 302.18426821 -99.00683594 308.31445312 C-98.44378999 308.87479421 -97.88074404 309.43513529 -97.3006361 310.0124564 C-88.18173024 319.08702752 -79.05515983 328.15385989 -69.92661805 337.21873619 C-60.55000851 346.53050904 -51.18498783 355.85383203 -41.82974184 365.18706787 C-36.06193688 370.94044377 -30.28485925 376.68418012 -24.49542056 382.41578762 C-20.05558794 386.81304078 -15.6315932 391.22591782 -11.21321678 395.64472389 C-9.40120553 397.4518956 -7.58404368 399.25392004 -5.76135826 401.05032539 C-3.27018455 403.50707329 -0.7983037 405.98177692 1.66976929 408.46170044 C2.39214291 409.16523277 3.11451653 409.86876511 3.85878026 410.5936166 C9.09701607 415.91622662 13.09649815 421.8757486 13.43230379 429.55063164 C13.12500307 435.83334337 11.32618995 440.69945763 6.890625 445.28125 C1.44963903 450.10521694 -3.1052627 451.24368383 -10.203125 451.0546875 C-21.06903655 449.99543197 -29.01308126 439.63585547 -36.2913208 432.35585022 C-37.12021151 431.5306362 -37.94910223 430.70542217 -38.80311084 429.85520166 C-41.0822275 427.58513558 -43.35914272 425.31288927 -45.63507271 423.0396291 C-48.09819367 420.58044221 -50.56413007 418.1240809 -53.02963257 415.6672821 C-58.96819036 409.74838952 -64.90198955 403.8247376 -70.83517849 397.90046397 C-73.63366142 395.10637547 -76.43262834 392.31277189 -79.23152924 389.5191021 C-88.53968728 380.22793728 -97.84659689 370.93552458 -107.1498909 361.63948917 C-109.5582511 359.23303861 -111.96661667 356.82659343 -114.375 354.42016602 C-114.97353093 353.82211883 -115.57206186 353.22407164 -116.18873009 352.6079018 C-125.89785973 342.90708349 -135.61548501 333.21482221 -145.3366653 323.52608139 C-155.32921821 313.5666013 -165.3142236 303.59960495 -175.29185176 293.62517256 C-180.88943403 288.02975387 -186.49025354 282.4376623 -192.09952545 276.85396004 C-196.87251352 272.10268094 -201.6386147 267.34462673 -206.3958979 262.57762081 C-208.82174782 260.14722843 -211.25069438 257.72016336 -213.68851089 255.30176926 C-216.33222755 252.67571137 -218.96331316 250.03760752 -221.59161377 247.39613342 C-222.360477 246.63823944 -223.12934023 245.88034545 -223.92150235 245.09948498 C-229.00969808 239.94950531 -232.97024057 235.03167313 -234.21875 227.6875 C-234.2084375 226.73875 -234.198125 225.79 -234.1875 224.8125 C-234.1978125 223.86375 -234.208125 222.915 -234.21875 221.9375 C-232.75060246 213.30133798 -227.36263429 207.91058573 -221.37055969 201.980896 C-220.52411319 201.12750397 -219.6776667 200.27411194 -218.8055703 199.39485955 C-216.46757495 197.04178803 -214.1209964 194.69793754 -211.77022707 192.35766935 C-209.23189938 189.82635469 -206.70512753 187.28354797 -204.17680359 184.74224854 C-199.22715354 179.7709886 -194.26671146 174.81063556 -189.30217538 169.85424587 C-185.2662725 165.82465009 -181.2341152 161.79134214 -177.20458031 157.75537872 C-176.63044563 157.1803424 -176.05631096 156.60530607 -175.46477827 156.0128444 C-174.29833435 154.84454922 -173.13189609 153.6762484 -171.96546342 152.50794199 C-161.0340639 141.55997454 -150.0900626 130.62467341 -139.14195438 119.69341853 C-129.13240076 109.69856151 -119.1375852 99.68911662 -109.14980827 89.67250225 C-98.88625693 79.37953894 -88.61350879 69.09584173 -78.33046979 58.82234597 C-77.1667987 57.6596974 -76.00314155 56.49703487 -74.83949852 55.33435822 C-74.26700994 54.76234603 -73.69452137 54.19033384 -73.10468465 53.60098796 C-69.07751355 49.57597857 -65.05635057 45.54502684 -61.03756142 41.51165009 C-56.13721713 36.59376635 -51.22812047 31.68482647 -46.30764303 26.78708336 C-43.79895693 24.28952455 -41.29439728 21.78817643 -38.80060196 19.27574158 C-36.09369694 16.54886594 -33.36757663 13.84173011 -30.63935852 11.13616943 C-29.85898533 10.34396051 -29.07861213 9.55175159 -28.27459127 8.73553634 C-20.03887433 0.63806877 -11.44859715 -3.68683637 0 0 Z " fill="#000000" transform="translate(366.6875,31.1875)"/>
</svg>
