<?xml version="1.0" encoding="UTF-8"?>
<!-- Generator: visioncortex VTracer 0.6.12 -->
<svg version="1.1" xmlns="http://www.w3.org/2000/svg" width="512" height="512">
<path d="M0 0 C0.65610921 -0.00235223 1.31221842 -0.00470446 1.98820972 -0.00712797 C4.19616895 -0.01380761 6.40406918 -0.01336006 8.61203766 -0.01294994 C10.20736102 -0.01624922 11.80268355 -0.01997493 13.39800501 -0.02409142 C17.78961215 -0.03411243 22.18120562 -0.03782839 26.57282257 -0.04048073 C31.30650158 -0.04438354 36.04016976 -0.05396196 40.77384186 -0.0626936 C52.21022459 -0.08245967 63.64660821 -0.09252483 75.08300376 -0.10142139 C80.46888776 -0.10580444 85.85477077 -0.11117124 91.24065399 -0.11641026 C109.14554134 -0.1334234 127.05042807 -0.14791717 144.95532227 -0.155159 C149.60216523 -0.15706889 154.24900819 -0.15898922 158.89585114 -0.16094494 C159.47332554 -0.16118681 159.47332554 -0.16118681 162.39569598 -0.16241082 C181.1014931 -0.17070957 199.80722624 -0.19604351 218.51299542 -0.22852562 C237.71887205 -0.26160414 256.92471617 -0.27960852 276.13062143 -0.28280324 C286.91354495 -0.2849677 297.69637519 -0.29370696 308.47927094 -0.31926441 C317.66344631 -0.34098229 326.84750575 -0.34901648 336.03170389 -0.33929763 C340.71572529 -0.33475598 345.39950756 -0.33663133 350.08349609 -0.35605907 C354.37708182 -0.37371331 358.67025435 -0.37267478 362.9638446 -0.35716178 C364.51171261 -0.35478912 366.0596094 -0.35909144 367.6074335 -0.37099043 C383.41931495 -0.48495181 396.91569988 3.62213501 408.82553864 14.38031483 C419.56650847 25.75459656 423.80699651 38.89425852 423.74248505 54.24709034 C423.74631059 55.22636594 423.75013614 56.20564154 423.75407761 57.21459216 C423.76434446 60.47537368 423.76042748 63.73597703 423.75644684 66.99676991 C423.76079683 69.34313081 423.76598093 71.68949028 423.77193451 74.03584766 C423.78530545 80.39543781 423.78590524 86.75496845 423.78337121 93.1145699 C423.78216446 99.10322987 423.7883842 105.09188156 423.79380467 111.08053824 C423.80466699 123.668064 423.80252405 136.25556294 423.79641982 148.8430902 C423.7912531 160.33839567 423.80250195 171.83361633 423.82151804 183.32890502 C423.8409281 195.15370566 423.84914682 206.97846625 423.84539479 218.80328292 C423.84348738 225.43338881 423.84619248 232.06343164 423.86010933 238.69352627 C423.87271213 244.93081575 423.87072021 251.16793592 423.85769844 257.40522289 C423.8553384 259.68840944 423.85804673 261.971608 423.86632156 264.25478077 C423.92887936 282.86407863 422.85186031 298.95049011 409.44663239 313.29437733 C399.58238828 322.53107509 387.43810461 328.24759417 373.8745575 328.26844215 C373.22097079 328.27079438 372.56738408 328.27314661 371.89399171 328.27557012 C369.70062502 328.28223501 367.50731791 328.28180266 365.31394196 328.2813921 C363.72671783 328.28469229 362.13949454 328.28841819 360.55227232 328.29253358 C356.18765828 328.30254409 351.823058 328.30626885 347.4584341 328.30892289 C342.75202031 328.31282877 338.04561737 328.32240694 333.33921051 328.33113575 C321.97146469 328.35089247 310.60371799 328.36096552 299.23595929 328.36986354 C293.88108846 328.37424787 288.52621862 328.37961432 283.17134857 328.38485241 C265.36764735 328.40186415 247.56394675 328.41635787 229.76023865 328.42360115 C225.14072926 328.42551101 220.52121988 328.42743135 215.90171051 328.42938709 C214.75357075 328.42987083 213.60543099 328.43035457 212.42249912 328.43085297 C193.82737191 328.43915158 175.23230906 328.4644859 156.63720995 328.49696777 C137.54090804 328.53005285 118.44463881 328.54805124 99.34830809 328.55124539 C88.62852455 328.55340918 77.90883487 328.56213862 67.18907928 328.58770657 C58.05875533 328.60943336 48.92854802 328.61745423 39.79820114 328.60773978 C35.14240205 328.6032008 30.48684354 328.60505794 25.83107758 328.62450123 C21.56215105 328.64217448 17.29363988 328.64110164 13.02470869 328.62560394 C11.48694688 328.62323416 9.949156 328.62751848 8.41143852 328.63943259 C-7.66634728 328.75620553 -21.77015355 324.88671726 -33.86586761 313.87250233 C-44.35294879 302.83999377 -48.67282484 289.40775867 -48.65865326 274.49564075 C-48.66162438 273.51907729 -48.6645955 272.54251382 -48.66765666 271.53635752 C-48.67633489 268.26086457 -48.67785118 264.98540821 -48.67934418 261.70990467 C-48.68397301 259.36251211 -48.68899776 257.01512031 -48.69438934 254.66772938 C-48.70751004 248.28732535 -48.7139578 241.90693185 -48.7184 235.52651644 C-48.72133158 231.53916851 -48.72543658 227.55182345 -48.72990417 223.56447697 C-48.74209527 212.51537128 -48.75239436 201.46626753 -48.75577927 190.41715527 C-48.75599883 189.71037135 -48.7562184 189.00358744 -48.75644462 188.27538583 C-48.7566629 187.56694887 -48.75688117 186.85851191 -48.75710607 186.12860715 C-48.75754953 184.69314122 -48.75799609 183.25767529 -48.75844574 181.82220936 C-48.75866717 181.11017474 -48.7588886 180.39814011 -48.75911674 179.66452868 C-48.76306183 168.13596532 -48.78050774 156.60746529 -48.80380526 145.07892637 C-48.82755498 133.23053243 -48.83998279 121.3821702 -48.84114718 109.53375208 C-48.842062 102.88628585 -48.84808643 96.23889249 -48.8659668 89.59144688 C-48.88246698 83.33534555 -48.8845934 77.07940046 -48.87582779 70.8232851 C-48.87505843 68.53161545 -48.87938667 66.23993732 -48.88928604 63.94828892 C-48.90204273 60.81024255 -48.89610826 57.67274649 -48.88570404 54.53470325 C-48.89376045 53.63632752 -48.90181685 52.73795178 -48.91011739 51.81235254 C-48.80275664 37.8855426 -43.39848158 24.2786909 -33.77993011 14.16547108 C-24.43174545 5.76986482 -12.6296864 0.01929655 0 0 Z M-21.51821136 33.13422108 C-29.38312591 44.26128767 -27.51821136 58.16292089 -27.51821136 71.13422108 C114.38178864 71.13422108 256.28178864 71.13422108 402.48178864 71.13422108 C402.48178864 40.18422108 402.48178864 40.18422108 393.76303864 30.15765858 C384.41553746 21.15494228 373.21640593 20.54636783 360.88266754 20.62628651 C359.32183311 20.62167048 357.76100304 20.61531287 356.20018196 20.60737753 C351.93635686 20.5907573 347.6728922 20.59889707 343.4090662 20.6113224 C338.80093824 20.62040065 334.19287075 20.60638944 329.58475494 20.59540272 C320.5674178 20.57764247 311.55021404 20.58144636 302.53287172 20.59305328 C295.20245808 20.60209715 287.87208175 20.60330747 280.54166412 20.59895802 C279.49724392 20.59834508 278.45282371 20.59773215 277.3767544 20.59710065 C275.25484831 20.59582171 273.13294223 20.59452485 271.01103616 20.59321028 C251.12704869 20.58181179 231.24313506 20.59490673 211.35915971 20.61641175 C194.30820217 20.63428205 177.25735358 20.63117774 160.20639801 20.6127367 C140.39219559 20.59131709 120.57805783 20.58291036 100.76384544 20.59518576 C98.64986802 20.59645992 96.53589059 20.5977174 94.42191315 20.59895802 C93.38187216 20.59957512 92.34183118 20.60019222 91.2702738 20.60082802 C83.95105345 20.60427764 76.63187421 20.59846093 69.31266022 20.5890398 C60.38954707 20.57780634 51.46657462 20.58088823 42.54347754 20.60216278 C37.99321088 20.61265502 33.44317859 20.61682622 28.89291382 20.60356617 C24.72299385 20.59159852 20.55352425 20.59827637 16.38364482 20.61947638 C14.87975467 20.623924 13.37582603 20.62171779 11.87196088 20.61197323 C-1.5914554 20.53146458 -12.32612235 22.67821983 -21.51821136 33.13422108 Z M-27.51821136 124.13422108 C-27.51821136 288.30922108 -27.51821136 288.30922108 -19.64321136 297.26703358 C-9.87067281 306.72545482 1.03058103 307.72671759 14.08090973 307.64215565 C15.64174416 307.64677167 17.20257423 307.65312928 18.76339531 307.66106462 C23.02722041 307.67768486 27.29068507 307.66954508 31.55451107 307.65711975 C36.16263903 307.6480415 40.77070652 307.66205272 45.37882233 307.67303944 C54.39615947 307.69079968 63.41336323 307.6869958 72.43070555 307.67538887 C79.76111919 307.666345 87.09149552 307.66513468 94.42191315 307.66948414 C95.46633335 307.67009707 96.51075356 307.67071 97.58682287 307.67134151 C99.70872896 307.67262045 101.83063504 307.6739173 103.95254111 307.67523187 C123.83652858 307.68663037 143.72044221 307.67353543 163.60441756 307.65203041 C180.6553751 307.6341601 197.70622369 307.63726441 214.75717926 307.65570545 C234.57138169 307.67712506 254.38551944 307.6855318 274.19973183 307.6732564 C276.31370925 307.67198224 278.42768668 307.67072475 280.54166412 307.66948414 C281.58170511 307.66886704 282.62174609 307.66824993 283.69330347 307.66761413 C291.01252382 307.66416451 298.33170306 307.66998122 305.65091705 307.67940235 C314.5740302 307.69063582 323.49700265 307.68755392 332.42009974 307.66627938 C336.97036639 307.65578713 341.52039868 307.65161593 346.07066345 307.66487598 C350.24058342 307.67684363 354.41005302 307.67016579 358.57993245 307.64896578 C360.0838226 307.64451816 361.58775124 307.64672436 363.09161639 307.65646893 C375.43018983 307.73025123 385.48580164 306.09484599 394.60678864 297.26703358 C432.75016137 253.87894709 402.48178864 181.9048272 402.48178864 124.13422108 C260.58178864 124.13422108 118.68178864 124.13422108 -27.51821136 124.13422108 Z " fill="#000000" transform="translate(68.5182113647461,91.86577892303467)"/>
<path d="M0 0 C54.12 0 108.24 0 164 0 C164 7.26 164 14.52 164 22 C109.88 22 55.76 22 0 22 C0 14.74 0 7.48 0 0 Z " fill="#000000" transform="translate(92,245)"/>
</svg>
