<?xml version="1.0" encoding="UTF-8"?>
<!-- Generator: visioncortex VTracer 0.6.12 -->
<svg version="1.1" xmlns="http://www.w3.org/2000/svg" width="512" height="512">
<path d="M0 0 C0.54333984 -0.01869141 0.54333984 -0.01869141 3.29296875 -0.11328125 C11.91366386 0.92962193 18.30321114 6.73121951 24.9375 11.9375 C26.8125602 13.38832519 28.68886224 14.83754685 30.56640625 16.28515625 C31.01830322 16.63392822 31.01830322 16.63392822 33.30517578 18.39892578 C36.44651916 20.79637947 39.64103563 23.10481282 42.875 25.375 C48.4969542 29.33284229 54.00731338 33.42727369 59.5 37.5625 C66.10154143 42.53242467 72.71901462 47.47817528 79.375 52.375 C79.76510254 52.66201782 79.76510254 52.66201782 81.73925781 54.11450195 C84.09650797 55.84784578 86.45437846 57.58034187 88.8125 59.3125 C99.3575669 67.05837868 109.87069043 74.84266254 120.32958984 82.70458984 C125.99081908 86.95629303 131.67323965 91.17782182 137.375 95.375 C138.15053223 95.94645752 138.92606445 96.51791504 139.72509766 97.10668945 C143.73069991 100.0553156 147.74460417 102.99186598 151.76953125 105.9140625 C185.01344818 130.10757171 212.31215806 159.07778265 221.8125 200.3125 C221.97476074 200.99054688 222.13702148 201.66859375 222.30419922 202.3671875 C230.31314923 237.41150955 225.72590833 279.11434334 207.8125 310.3125 C207.46848145 310.91255859 207.12446289 311.51261719 206.77001953 312.13085938 C186.11136528 347.4576397 151.03276356 368.57253935 112.24316406 379.00341797 C107.13710929 380.30514294 102.01107528 381.44555444 96.8125 382.3125 C95.77706055 382.48837646 94.74162109 382.66425293 93.67480469 382.84545898 C82.83112029 384.49906939 72.13649748 384.66947097 61.1875 384.625 C60.25807587 384.62317719 59.32865173 384.62135437 58.37106323 384.61947632 C44.99103495 384.57524649 31.91522792 384.27805393 18.8125 381.3125 C18.04147949 381.14621094 17.27045898 380.97992188 16.47607422 380.80859375 C-25.67124979 371.494268 -62.00549153 347.79080924 -85.8125 311.625 C-96.67635111 294.52830815 -105.73325655 273.95382605 -106.50390625 253.4765625 C-106.52485352 252.94482422 -106.52485352 252.94482422 -106.63085938 250.25390625 C-106.67017578 249.15949219 -106.70949219 248.06507813 -106.75 246.9375 C-106.79318359 245.81988281 -106.83636719 244.70226562 -106.88085938 243.55078125 C-106.98647411 240.80479801 -107.0885797 238.05873119 -107.1875 235.3125 C-112.63711941 239.69498861 -118.01896925 244.10099367 -123.1875 248.8125 C-127.48741791 252.73141252 -131.94669547 256.40420869 -136.46875 260.0625 C-139.10897729 262.24751569 -141.6547972 264.50421391 -144.1875 266.8125 C-148.48741791 270.73141252 -152.94669547 274.40420869 -157.46875 278.0625 C-160.10897729 280.24751569 -162.6547972 282.50421391 -165.1875 284.8125 C-169.49091176 288.73459679 -173.95339526 292.41066428 -178.48046875 296.0703125 C-181.06053591 298.20733782 -183.53464485 300.41985745 -186 302.6875 C-190.04856244 306.36624183 -194.22059157 309.84591242 -198.5 313.25 C-199.08692627 313.7229248 -199.67385254 314.19584961 -200.27856445 314.68310547 C-208.20650661 320.91632688 -215.44156218 321.11786515 -225.1875 320.3125 C-232.78606612 318.49969923 -238.25675025 313.74330806 -242.5078125 307.31640625 C-246.17634842 300.32566472 -246.53044942 292.30706468 -244.4921875 284.7265625 C-240.95300486 276.01244054 -234.573085 270.63658274 -227.37109375 264.890625 C-223.76764853 262.00241078 -220.29173676 258.97326974 -216.8125 255.9375 C-212.11058481 251.84188128 -207.39230327 247.76937642 -202.625 243.75 C-198.15066516 239.97676981 -193.69223995 236.18598076 -189.25 232.375 C-188.96036377 232.12661377 -188.96036377 232.12661377 -187.49462891 230.86962891 C-184.51975354 228.31726011 -181.54764229 225.7617253 -178.578125 223.203125 C-173.24629366 218.6141409 -167.90420329 214.05372166 -162.4375 209.625 C-158.05598205 206.06982096 -153.87039319 202.34480463 -149.69921875 198.546875 C-147.18598768 196.31115467 -144.61438521 194.17872318 -142 192.0625 C-137.54897808 188.45779915 -133.19551395 184.75879733 -128.875 181 C-128.24150635 180.44892578 -127.6080127 179.89785156 -126.95532227 179.33007812 C-125.66918345 178.21087515 -124.38313212 177.09157163 -123.09716797 175.97216797 C-115.95358759 169.76377377 -108.79104128 163.58426028 -101.4375 157.625 C-96.98088236 154.0097497 -92.70345994 150.23601506 -88.4765625 146.35546875 C-86.11414677 144.24703287 -83.66639682 142.2817003 -81.1875 140.3125 C-82.15945312 140.30663376 -83.13140625 140.30076752 -84.1328125 140.29472351 C-93.3133548 140.23739511 -102.49366252 140.16458088 -111.67396545 140.07678509 C-116.39314043 140.03214611 -121.11223036 139.99287582 -125.83154297 139.96606445 C-130.38990729 139.93996677 -134.94794322 139.89951894 -139.50610352 139.84931374 C-141.24108786 139.83268864 -142.97612894 139.82114731 -144.71118164 139.81488609 C-147.15024871 139.80519728 -149.58848387 139.77708245 -152.02734375 139.74487305 C-152.73728989 139.74630814 -153.44723602 139.74774323 -154.17869568 139.7492218 C-162.37422351 139.5971508 -168.48436289 136.73604392 -174.42578125 131.21484375 C-180.50263167 124.65292323 -181.5101024 118.00107984 -181.39453125 109.34375 C-180.84136058 101.24449646 -177.07396452 95.76382546 -171.1875 90.3125 C-164.90983401 85.76479625 -159.36616037 85.16354707 -151.80999756 85.15428162 C-150.95720097 85.14934364 -150.10440438 85.14440566 -149.22576547 85.13931805 C-146.36372843 85.1239408 -143.50171382 85.11558179 -140.63964844 85.10717773 C-138.58982139 85.09759939 -136.53999633 85.08758934 -134.49017334 85.07717896 C-128.92035254 85.0501191 -123.35052326 85.02911536 -117.78067303 85.00917697 C-111.96169675 84.98732411 -106.14274666 84.95993199 -100.3237915 84.93312073 C-89.30249001 84.88318438 -78.28117399 84.83824903 -67.25984406 84.79509836 C-54.71341891 84.74573405 -42.16702001 84.69081293 -29.62062025 84.63541877 C-3.80960467 84.52158426 22.00143611 84.4147484 47.8125 84.3125 C47.29791103 83.9418275 46.78332207 83.57115499 46.2531395 83.18924999 C43.89451966 81.48970185 41.53661067 79.78917008 39.17871094 78.08862305 C38.36929047 77.50560173 37.55987 76.92258041 36.72592163 76.32189178 C30.76078841 72.01825245 24.88304854 67.62256267 19.0625 63.125 C13.15129059 58.58602593 7.21777401 54.1051749 1.125 49.8125 C-18.5165189 35.94285602 -18.5165189 35.94285602 -21.1875 27.3125 C-22.34433398 19.38514295 -20.89064439 12.8218395 -16.1875 6.3125 C-11.29947415 1.65978393 -6.64032541 0.14790877 0 0 Z M-15.1875 158.3125 C-15.87199219 158.92351562 -16.55648437 159.53453125 -17.26171875 160.1640625 C-31.64443863 173.44476651 -40.57129625 193.71606411 -41.57421875 213.11328125 C-42.34689908 239.91017556 -33.64574265 261.00784281 -15.4375 280.5 C5.46316117 300.39340039 34.08605151 310.27975026 62.7265625 309.59375 C87.45488863 308.14553178 111.28587559 300.16844653 129.8125 283.3125 C130.78832031 282.42949219 131.76414062 281.54648437 132.76953125 280.63671875 C148.39198819 266.01977726 159.0065041 245.94647023 160.1640625 224.3359375 C160.83709073 200.52161542 153.46995552 179.11612263 137.06274414 161.65820312 C135.6577429 160.1982391 134.23531763 158.75510647 132.8125 157.3125 C132.01972656 156.50683594 131.22695313 155.70117188 130.41015625 154.87109375 C90.69834755 116.87726679 23.06344505 121.20037468 -15.1875 158.3125 Z " fill="#FF6C00" transform="translate(266.1875,63.6875)"/>
<path d="M0 0 C12.34435345 9.58401886 21.05583526 21.41685517 24 36.93359375 C25.69255707 52.4017366 22.09858393 66.20952044 13 78.93359375 C-0.04305898 94.46952408 -18.14416162 102.50315233 -38 104.93359375 C-58.98663896 106.18652742 -78.57278775 101.44504091 -95 87.93359375 C-95.99644531 87.155 -96.99289062 86.37640625 -98.01953125 85.57421875 C-108.88752109 75.94543614 -114.21351724 62.96064209 -115.8125 48.8125 C-116.61509189 32.20888019 -110.57743607 20.15003034 -100.16015625 7.7421875 C-75.1760591 -19.2490887 -29.12301602 -20.05999411 0 0 Z " fill="#00569B" transform="translate(371,237.06640625)"/>
</svg>
