<?xml version="1.0" encoding="UTF-8"?>
<!-- Generator: visioncortex VTracer 0.6.12 -->
<svg version="1.1" xmlns="http://www.w3.org/2000/svg" width="512" height="512">
<path d="M0 0 C6.34391024 3.57547276 11.41936746 8.82735969 16.61279297 13.86083984 C18.441576 15.61324393 20.33230039 17.28324195 22.25 18.9375 C25.21976789 21.50713074 28.14761071 24.11819555 31.0625 26.75 C34.04312721 29.43983431 37.03495233 32.11310364 40.0625 34.75 C43.95762811 38.14253093 47.79032763 41.60194201 51.625 45.0625 C53.75667481 46.97554149 55.9026911 48.86887612 58.0625 50.75 C61.95762811 54.14253093 65.79032763 57.60194201 69.625 61.0625 C71.75667481 62.97554149 73.9026911 64.86887612 76.0625 66.75 C79.95762811 70.14253093 83.79032763 73.60194201 87.625 77.0625 C90.39747308 79.55061687 93.20094849 82.00067464 96.01171875 84.4453125 C98.32338797 86.47958141 100.5978143 88.5522231 102.875 90.625 C106.25190982 93.67858867 109.69467132 96.59429205 113.25 99.4375 C119.31570218 104.34003486 124.94414977 109.67258037 130.6171875 115.01953125 C133.74025922 117.96032579 136.92522092 120.81399177 140.17578125 123.61328125 C142.49908787 125.62873772 144.77998465 127.68848462 147.0625 129.75 C150.04312721 132.43983431 153.03495233 135.11310364 156.0625 137.75 C159.95762811 141.14253093 163.79032763 144.60194201 167.625 148.0625 C169.75667481 149.97554149 171.9026911 151.86887612 174.0625 153.75 C177.95762811 157.14253093 181.79032763 160.60194201 185.625 164.0625 C187.75667481 165.97554149 189.9026911 167.86887612 192.0625 169.75 C195.95762811 173.14253093 199.79032763 176.60194201 203.625 180.0625 C205.75667481 181.97554149 207.9026911 183.86887612 210.0625 185.75 C213.95762811 189.14253093 217.79032763 192.60194201 221.625 196.0625 C223.75667481 197.97554149 225.9026911 199.86887612 228.0625 201.75 C231.95762811 205.14253093 235.79032763 208.60194201 239.625 212.0625 C242.39747308 214.55061687 245.20094849 217.00067464 248.01171875 219.4453125 C250.32338797 221.47958141 252.5978143 223.5522231 254.875 225.625 C258.25190982 228.67858867 261.69467132 231.59429205 265.25 234.4375 C271.30930149 239.33486158 276.93241281 244.6606595 282.59765625 250.00390625 C285.24631148 252.49847866 287.9337667 254.93356594 290.6875 257.3125 C296.9739165 262.77068452 303.45297069 268.71614147 305.0625 277.25 C305.6869755 286.6171325 303.20809501 292.43932788 297.07421875 299.48828125 C292.96474544 303.08706273 288.42740618 304.60730458 283.11425781 305.49951172 C282.50367523 305.60376968 282.50367523 305.60376968 279.41375732 306.13137817 C278.03111557 306.35623942 276.64840133 306.58065531 275.265625 306.8046875 C273.75703592 307.05616243 272.24851423 307.3080419 270.74005127 307.56027222 C255.57840715 310.07372514 240.38523179 312.39573695 225.19776344 314.7469759 C223.10735898 315.07062463 221.01698589 315.39447531 218.92662048 315.71837616 C214.67901094 316.37647971 210.43131419 317.0340189 206.18359375 317.69140625 C205.47418042 317.80123101 204.76476709 317.91105577 204.03385639 318.02420855 C195.99975473 319.26776303 187.96487899 320.50596724 179.92822266 321.73291016 C173.43876864 322.72370189 166.95095639 323.72457129 160.46484303 324.73700893 C157.06190301 325.26776768 153.65835976 325.79345348 150.25270844 326.30655289 C146.48630487 326.8763857 142.72301992 327.46371603 138.95996094 328.05517578 C137.85257065 328.21838318 136.74518036 328.38159058 135.60423279 328.54974365 C128.05535121 329.76262188 122.51388675 331.80870437 116.703125 336.94921875 C116.15068115 337.43140869 115.5982373 337.91359863 115.02905273 338.41040039 C114.46259033 338.91434326 113.89612793 339.41828613 113.3125 339.9375 C112.08029923 341.01401993 110.84721734 342.08953209 109.61328125 343.1640625 C109.01080566 343.69032227 108.40833008 344.21658203 107.78759766 344.75878906 C105.39717016 346.8251252 102.95384596 348.82211836 100.5 350.8125 C96.45540715 354.09575772 92.46699799 357.43654026 88.5 360.8125 C83.94612574 364.68552052 79.32754699 368.45622891 74.640625 372.16796875 C71.65282832 374.58084092 68.73193803 377.06796079 65.8125 379.5625 C61.35611056 383.36743964 56.82081196 387.03802479 52.1875 390.625 C47.16986731 394.51401476 42.33270538 398.56158711 37.5625 402.75 C32.24226242 407.42136106 26.81409471 411.88703083 21.20678711 416.20898438 C18.25322045 418.49496693 15.36291315 420.82369396 12.54296875 423.2734375 C11.96885254 423.77149902 11.39473633 424.26956055 10.80322266 424.78271484 C9.72449617 425.72585511 8.65197104 426.67616169 7.58740234 427.63525391 C1.94338772 432.56891074 -4.35307865 435.22180513 -11.9375 435.25 C-18.8733354 434.69026591 -24.00831292 432.14697017 -28.9375 427.25 C-33.69315844 421.11366653 -35.06088309 416.32482173 -35.06892776 408.58285236 C-35.0709804 407.910649 -35.07303303 407.23844564 -35.07514787 406.54587248 C-35.0808227 404.28319295 -35.07936002 402.0205742 -35.07794189 399.75788879 C-35.08052526 398.12330435 -35.08353833 396.48872054 -35.0869453 394.8541376 C-35.095022 390.35412255 -35.09680524 385.85412345 -35.09754276 381.35410202 C-35.09939216 376.50391643 -35.10693894 371.65373914 -35.11367798 366.80355835 C-35.12726673 356.19402628 -35.1332869 345.58449798 -35.13768864 334.97495866 C-35.14045022 328.35153196 -35.14468743 321.72810672 -35.14919281 315.10468102 C-35.16138633 296.77001061 -35.17168539 278.43534137 -35.1750679 260.100667 C-35.17528747 258.92692988 -35.17550703 257.75319275 -35.17573325 256.54388783 C-35.17595153 255.36732502 -35.17616981 254.1907622 -35.1763947 252.97854596 C-35.17683817 250.59433989 -35.17728473 248.21013381 -35.17773438 245.82592773 C-35.1779558 244.64327647 -35.17817723 243.46062521 -35.17840537 242.24213602 C-35.18235348 223.07843516 -35.19980753 203.91477233 -35.2230939 184.75108615 C-35.24680312 165.08078869 -35.25926956 145.4105103 -35.26043582 125.74019831 C-35.26135284 114.69414143 -35.26711187 103.64813408 -35.28525543 92.60209084 C-35.30065063 83.19605984 -35.30578031 73.79009369 -35.29751733 64.38405249 C-35.29360874 59.58500439 -35.29455065 54.78608689 -35.30857468 49.98705482 C-35.32130096 45.59191264 -35.32012724 41.19699937 -35.30798396 36.80185755 C-35.30602476 35.21366919 -35.30911572 33.62546469 -35.31782833 32.03729901 C-35.42123902 11.90938562 -35.42123902 11.90938562 -28.5625 4.6015625 C-20.25786845 -2.30565509 -10.05993251 -4.33702115 0 0 Z " fill="#000000" transform="translate(140.9375,49.75)"/>
</svg>
