<?xml version="1.0" encoding="UTF-8"?>
<!-- Generator: visioncortex VTracer 0.6.12 -->
<svg version="1.1" xmlns="http://www.w3.org/2000/svg" width="512" height="512">
<path d="M0 0 C1.39381079 -0.00131585 2.78762085 -0.00395314 4.181427 -0.00778198 C7.98150207 -0.01445185 11.78131939 -0.00255243 15.58136179 0.01254536 C19.75342876 0.02572533 23.92548545 0.02125629 28.09756756 0.01909161 C36.18179937 0.01750207 44.26593052 0.03130075 52.35013653 0.05059559 C61.70887253 0.07226034 71.06754873 0.07458338 80.42631531 0.07695007 C105.11533671 0.09267836 129.80433584 0.13456195 154.49333191 0.17326355 C182.07926941 0.20420105 182.07926941 0.20420105 321.68083191 0.36076355 C321.68083191 125.76076355 321.68083191 251.16076355 321.68083191 380.36076355 C154.30583191 380.67326355 154.30583191 380.67326355 101.42546082 380.748703 C80.14250183 380.79862976 80.14250183 380.79862976 70.18409729 380.82577515 C63.21786145 380.84373694 56.25167208 380.85356918 49.28541565 380.85787964 C41.25029605 380.86287949 33.215275 380.8782037 25.18020155 380.90624739 C21.07040831 380.92026733 16.96075292 380.92967381 12.85093427 380.92580283 C9.13116843 380.92238798 5.41170209 380.93279096 1.69199753 380.9540062 C-0.28301188 380.96173199 -2.25806198 380.95483787 -4.23307228 380.94734478 C-16.69049822 381.04628766 -27.83762227 383.99222926 -37.13166809 392.67326355 C-43.39416255 399.42863952 -45.9203128 407.18709188 -46.31916809 416.36076355 C-45.5088593 425.53251958 -41.63846385 432.74996815 -35.31916809 439.36076355 C-22.6386051 449.57618028 -9.5550328 450.5067729 6.13298035 450.51898193 C7.49694557 450.52355365 8.86090941 450.52855456 10.22487164 450.5339455 C13.95791161 450.5474666 17.69094252 450.5549274 21.4240005 450.56137216 C25.4552648 450.56940273 29.48651042 450.5830913 33.51776123 450.59608459 C40.49721184 450.61780976 47.47666437 450.63596866 54.45613098 450.65168953 C64.54720635 450.6744243 74.63826099 450.70256208 84.72931874 450.73200881 C101.10230745 450.77964055 117.47530466 450.82291667 133.84831238 450.8634491 C149.75098837 450.90282652 165.65365682 450.94425812 181.55632019 450.9884491 C182.04663007 450.98981123 182.04663007 450.98981123 184.52789521 450.99670447 C189.44748967 451.01038432 194.36708402 451.02410452 199.28667831 451.03784478 C240.08471383 451.15174013 280.88276571 451.25849215 321.68083191 451.36076355 C321.68083191 458.29076355 321.68083191 465.22076355 321.68083191 472.36076355 C279.14878767 472.45210403 236.6167574 472.52284871 194.08463436 472.56502487 C189.0581063 472.57002742 184.03157843 472.57520474 179.00505066 472.58049011 C178.00440106 472.58153935 177.00375147 472.5825886 175.97277915 472.58366963 C159.79137564 472.60105313 143.61002924 472.63257946 127.42865956 472.66937473 C110.81288352 472.70684141 94.1971373 472.72901149 77.58132076 472.73711753 C67.3366192 472.74259344 57.09207909 472.75985988 46.84742725 472.79242942 C39.81286844 472.81364807 32.77839255 472.81994703 25.7438041 472.81476906 C21.69117811 472.81221867 17.63883333 472.81600085 13.58625793 472.83758545 C-11.62118342 472.96508124 -34.13532398 472.10190357 -53.31916809 453.36076355 C-65.3929896 439.45320464 -68.62867453 425.34788852 -68.58659363 407.3707428 C-68.59033433 405.85161207 -68.59493752 404.33248326 -68.60032427 402.81335747 C-68.61251805 398.65544783 -68.61229809 394.49761888 -68.60993552 390.33969545 C-68.60952643 385.84871471 -68.62057536 381.35775952 -68.63005066 376.86679077 C-68.64664225 368.073805 -68.65215939 359.28084606 -68.65327542 350.48784594 C-68.65422686 343.33715532 -68.65834195 336.18647351 -68.66467667 329.03578568 C-68.68228481 308.74539149 -68.69151632 288.45501845 -68.69001572 268.16461657 C-68.68993581 267.07144468 -68.68985589 265.9782728 -68.68977356 264.85197449 C-68.6896918 263.75746181 -68.68961004 262.66294913 -68.6895258 261.53526939 C-68.68871324 243.80502318 -68.70784446 226.07486199 -68.73605029 208.34464036 C-68.76480851 190.12282699 -68.77858894 171.90105504 -68.77686274 153.67921841 C-68.77619981 143.45574993 -68.78164957 133.23237056 -68.80321884 123.00892258 C-68.82146941 114.30291301 -68.82574628 105.59703294 -68.81219999 96.89101247 C-68.8056896 92.4536671 -68.80548294 88.01656988 -68.82290649 83.57924843 C-68.8387284 79.5077411 -68.83568164 75.4366768 -68.81833823 71.36517967 C-68.81528823 69.90152863 -68.81882425 68.43784376 -68.83005838 66.97423266 C-68.9609439 48.69416042 -64.40492279 33.0919538 -51.58869934 19.6381073 C-50.83975403 18.88658386 -50.09080872 18.13506042 -49.31916809 17.36076355 C-48.70428528 16.72267761 -48.08940247 16.08459167 -47.45588684 15.4271698 C-34.45540497 2.92777716 -17.36130579 -0.11953362 0 0 Z M-38.70979309 36.90763855 C-47.27236908 47.739813 -47.47171467 60.97277274 -47.43942261 74.12956238 C-47.44027703 75.40638256 -47.44113146 76.68320274 -47.44201177 77.99871445 C-47.44423921 81.52654056 -47.44025951 85.0543361 -47.43523371 88.58215833 C-47.43090417 92.3925509 -47.43237741 96.20294184 -47.43313599 100.01333618 C-47.43365963 106.60974026 -47.43052944 113.20613443 -47.42489815 119.80253601 C-47.41676161 129.33975554 -47.41416572 138.87697029 -47.41291016 148.41419291 C-47.41072302 163.8887361 -47.40407211 179.36327401 -47.39460754 194.83781433 C-47.38542467 209.86743646 -47.37834812 224.89705715 -47.37409973 239.92668152 C-47.37383701 240.85353536 -47.37357428 241.78038919 -47.3733036 242.73532951 C-47.37199854 247.38521058 -47.37073483 252.03509167 -47.3694917 256.68497276 C-47.35912963 295.24357339 -47.34152052 333.80216812 -47.31916809 372.36076355 C-46.56485001 371.94630981 -45.81053192 371.53185608 -45.03335571 371.10484314 C-44.04333054 370.56249023 -43.05330536 370.02013733 -42.03327942 369.46134949 C-41.05208633 368.92314575 -40.07089325 368.38494202 -39.05996704 367.83042908 C-25.3423297 360.47478604 -11.20800582 359.05680507 4.13319397 359.08229065 C5.40800629 359.07650497 6.6828186 359.0707193 7.9962616 359.0647583 C11.49767988 359.04912845 14.99901774 359.04556078 18.50046667 359.04411933 C22.34825992 359.04031183 26.19601143 359.02497007 30.04377937 359.01114845 C37.49537906 358.9860764 44.94696458 358.97101935 52.39859629 358.95956454 C61.02729301 358.94586121 69.65592147 358.91952727 78.28459167 358.89323425 C101.04164462 358.83006821 123.79874231 358.78395014 146.55583191 358.73576355 C171.98645691 358.67388855 171.98645691 358.67388855 300.68083191 358.36076355 C300.68083191 247.15076355 300.68083191 135.94076355 300.68083191 21.36076355 C250.08770691 21.31951355 199.49458191 21.27826355 147.36833191 21.23576355 C139.37852112 21.22665955 139.37852112 21.22665955 98.94523621 21.18058777 C79.44413757 21.17155457 79.44413757 21.17155457 70.31713867 21.1698761 C63.93760707 21.16801152 57.55811053 21.16067723 51.17858887 21.14961243 C43.81790836 21.13686479 36.45726145 21.13109565 29.09656982 21.13387365 C25.3327903 21.13507639 21.56908584 21.1331943 17.80532014 21.12233329 C13.76899783 21.11075688 9.73283789 21.11478789 5.69650269 21.12025452 C4.53046918 21.11442919 3.36443567 21.10860386 2.16306782 21.10260201 C-13.6798972 21.16020514 -27.79406895 24.76542855 -38.70979309 36.90763855 Z " fill="#000000" transform="translate(129.3191680908203,19.639236450195313)"/>
<path d="M0 0 C0.92559398 -0.00523668 1.85118797 -0.01047336 2.80483025 -0.01586872 C5.90770618 -0.03087572 9.0104173 -0.03157403 12.11332703 -0.03224182 C14.33751199 -0.03986281 16.56169431 -0.0482902 18.78587341 -0.0574646 C24.82931525 -0.07942198 30.87270649 -0.08821015 36.91618371 -0.09329104 C40.69178064 -0.09693305 44.46736429 -0.10317229 48.24295616 -0.11029243 C58.70273265 -0.12974725 69.16250118 -0.14626103 79.62229633 -0.14916897 C80.29125599 -0.14935654 80.96021564 -0.14954411 81.6494468 -0.14973736 C83.00550282 -0.1501036 84.36155884 -0.1504673 85.71761487 -0.15082847 C86.39073406 -0.15101128 87.06385325 -0.1511941 87.75737 -0.15138245 C88.43131356 -0.151563 89.10525712 -0.15174354 89.79962321 -0.15192956 C100.7191858 -0.155471 111.63855117 -0.18249332 122.55804536 -0.21988034 C133.77701153 -0.25798443 144.99588311 -0.27688573 156.21492547 -0.27762848 C162.51081278 -0.27842181 168.80644558 -0.28718686 175.10227394 -0.31562614 C181.02440765 -0.34177901 186.94607532 -0.34402711 192.86824036 -0.3279705 C195.0402344 -0.32615385 197.21225508 -0.33286617 199.38419151 -0.34878922 C202.35287076 -0.36922434 205.31991553 -0.35871238 208.28857422 -0.34057617 C209.14510615 -0.35377614 210.00163808 -0.36697611 210.88412553 -0.38057607 C217.73143258 -0.28523714 222.3492586 2.0653733 227.36339074 6.68142134 C233.23444611 13.08169162 233.14346756 20.51559734 233.13554382 28.70384216 C233.13982895 29.69361053 233.14411407 30.68337891 233.14852905 31.70314026 C233.15425119 33.78914122 233.15478829 35.87516212 233.1504364 37.96116638 C233.1472794 41.13225267 233.17075245 44.30240241 233.1960907 47.47337341 C233.19836438 49.5085285 233.19906687 51.54368607 233.19804382 53.57884216 C233.20725357 54.51662506 233.21646332 55.45440796 233.22595215 56.42060852 C233.1748788 63.78119911 232.26710734 70.40523519 227.39726257 76.14915466 C226.55163757 76.85040466 225.70601257 77.55165466 224.83476257 78.27415466 C224.23663757 78.83102966 223.63851257 79.38790466 223.02226257 79.96165466 C217.1220789 83.50176486 210.33545667 83.56567654 203.65716553 83.53485107 C202.76646581 83.53867662 201.87576609 83.54250217 200.95807546 83.54644364 C197.99121023 83.55671342 195.0245407 83.55279299 192.05766296 83.54881287 C189.92332786 83.55316264 187.78899432 83.55834668 185.65466309 83.56430054 C179.86957541 83.57767241 174.08455314 83.57827127 168.29945302 83.57573724 C163.46593115 83.57466641 158.63242245 83.5795537 153.79890341 83.58434266 C142.39458664 83.59543135 130.99030282 83.59587868 119.58598328 83.58982849 C107.82871413 83.58378691 96.0715646 83.59610592 84.31431586 83.61739856 C74.21132968 83.63502118 64.10838155 83.64101491 54.00538057 83.63776082 C47.97506134 83.63594906 41.94482746 83.63857368 35.91452217 83.65247536 C30.24358482 83.66505993 24.57283386 83.66310349 18.90189934 83.65006447 C16.8238608 83.64770062 14.74580911 83.65042648 12.66778564 83.65868759 C9.82475638 83.66917274 6.98235052 83.66104012 4.13934326 83.64837646 C3.73106616 83.65206361 3.73106616 83.65206361 1.6649366 83.67072278 C-5.29196818 83.60581155 -12.71473939 82.27049991 -18.04023743 77.46165466 C-18.5739093 77.00145935 -19.10758118 76.54126404 -19.65742493 76.06712341 C-24.83027941 69.91598298 -24.63261464 63.82541801 -24.63398743 56.15696716 C-24.64160095 54.98584381 -24.64921448 53.81472046 -24.65705872 52.60810852 C-24.66784514 50.13532132 -24.67071878 47.66248862 -24.66621399 45.18968201 C-24.66524251 41.41888424 -24.70686818 37.65012724 -24.75117493 33.87962341 C-24.7563829 31.47207555 -24.7590701 29.06452065 -24.75898743 26.65696716 C-24.77538269 25.53589569 -24.79177795 24.41482422 -24.80867004 23.25978088 C-24.74765033 16.30135388 -23.73389079 11.63922056 -19.16523743 6.27415466 C-13.21440806 0.62086676 -7.86139127 -0.0219942 0 0 Z M-3.16523743 21.27415466 C-3.16523743 34.47415466 -3.16523743 47.67415466 -3.16523743 61.27415466 C67.45476257 61.27415466 138.07476257 61.27415466 210.83476257 61.27415466 C210.83476257 48.07415466 210.83476257 34.87415466 210.83476257 21.27415466 C140.21476257 21.27415466 69.59476257 21.27415466 -3.16523743 21.27415466 Z " fill="#000000" transform="translate(157.1652374267578,91.72584533691406)"/>
</svg>
