<?xml version="1.0" encoding="UTF-8"?>
<!-- Generator: visioncortex VTracer 0.6.12 -->
<svg version="1.1" xmlns="http://www.w3.org/2000/svg" width="512" height="512">
<path d="M0 0 C1.39381 -0.00132 2.78762 -0.00395 4.18143 -0.00778 C7.9815 -0.01445 11.78132 -0.00255 15.58136 0.01255 C19.75343 0.02573 23.92549 0.02126 28.09757 0.01909 C36.1818 0.0175 44.26593 0.0313 52.35014 0.0506 C61.70887 0.07226 71.06755 0.07458 80.42632 0.07695 C105.11534 0.09268 129.80434 0.13456 154.49333 0.17326 C182.07927 0.2042 182.07927 0.2042 321.68083 0.36076 C321.68083 125.76076 321.68083 251.16076 321.68083 380.36076 C154.30583 380.67326 154.30583 380.67326 101.42546 380.7487 C80.1425 380.79863 80.1425 380.79863 70.1841 380.82578 C63.21786 380.84374 56.25167 380.85357 49.28542 380.85788 C41.2503 380.86288 33.21528 380.8782 25.1802 380.90625 C21.07041 380.92027 16.96075 380.92967 12.85093 380.9258 C9.13117 380.92239 5.4117 380.93279 1.692 380.95401 C-0.28301 380.96173 -2.25806 380.95484 -4.23307 380.94734 C-16.6905 381.04629 -27.83762 383.99223 -37.13167 392.67326 C-43.1352 399.1354 -45.7322 406.59293 -46.31917 415.36076 C-45.68826 424.25913 -42.02271 433.30088 -35.31917 439.36076 C-22.05306 449.22042 -9.97275 450.50645 6.13298 450.51898 C7.49695 450.52355 8.86091 450.52855 10.22487 450.53395 C13.95791 450.54747 17.69094 450.55493 21.424 450.56137 C25.45526 450.5694 29.48651 450.58309 33.51776 450.59608 C40.49721 450.61781 47.47666 450.63597 54.45613 450.65169 C64.54721 450.67442 74.63826 450.70256 84.72932 450.73201 C101.10231 450.77964 117.4753 450.82292 133.84831 450.86345 C149.75099 450.90283 165.65366 450.94426 181.55632 450.98845 C182.04663 450.98981 182.04663 450.98981 184.5279 450.9967 C189.44749 451.01038 194.36708 451.0241 199.28668 451.03784 C240.08471 451.15174 280.88277 451.25849 321.68083 451.36076 C321.68083 458.29076 321.68083 465.22076 321.68083 472.36076 C279.14879 472.4521 236.61676 472.52285 194.08463 472.56502 C189.05811 472.57003 184.03158 472.5752 179.00505 472.58049 C178.0044 472.58154 177.00375 472.58259 175.97278 472.58367 C159.79138 472.60105 143.61003 472.63258 127.42866 472.66937 C110.81288 472.70684 94.19714 472.72901 77.58132 472.73712 C67.33662 472.74259 57.09208 472.75986 46.84743 472.79243 C39.81287 472.81365 32.77839 472.81995 25.7438 472.81477 C21.69118 472.81222 17.63883 472.816 13.58626 472.83759 C-11.62118 472.96508 -34.13532 472.1019 -53.31917 453.36076 C-65.39299 439.4532 -68.62867 425.34789 -68.58659 407.37074 C-68.59033 405.85161 -68.59494 404.33248 -68.60032 402.81336 C-68.61252 398.65545 -68.6123 394.49762 -68.60994 390.3397 C-68.60953 385.84871 -68.62058 381.35776 -68.63005 376.86679 C-68.64664 368.07381 -68.65216 359.28085 -68.65328 350.48785 C-68.65423 343.33716 -68.65834 336.18647 -68.66468 329.03579 C-68.68228 308.74539 -68.69152 288.45502 -68.69002 268.16462 C-68.68994 267.07144 -68.68986 265.97827 -68.68977 264.85197 C-68.68969 263.75746 -68.68961 262.66295 -68.68953 261.53527 C-68.68871 243.80502 -68.70784 226.07486 -68.73605 208.34464 C-68.76481 190.12283 -68.77859 171.90106 -68.77686 153.67922 C-68.7762 143.45575 -68.78165 133.23237 -68.80322 123.00892 C-68.82147 114.30291 -68.82575 105.59703 -68.8122 96.89101 C-68.80569 92.45367 -68.80548 88.01657 -68.82291 83.57925 C-68.83873 79.50774 -68.83568 75.43668 -68.81834 71.36518 C-68.81529 69.90153 -68.81882 68.43784 -68.83006 66.97423 C-68.96094 48.69416 -64.40492 33.09195 -51.5887 19.63811 C-50.83975 18.88658 -50.09081 18.13506 -49.31917 17.36076 C-48.70429 16.72268 -48.0894 16.08459 -47.45589 15.42717 C-34.4554 2.92778 -17.36131 -0.11953 0 0 Z M14.68083 85.36076 C14.30661 87.71379 14.30661 87.71379 14.30852 90.6967 C14.30229 91.81126 14.29606 92.92581 14.28964 94.07414 C14.29885 95.28248 14.30806 96.49081 14.31755 97.73576 C14.31705 98.97117 14.31655 100.20657 14.31604 101.47942 C14.31899 104.76678 14.33604 108.05371 14.35826 111.34099 C14.36832 113.35872 14.36864 115.37621 14.36516 117.39397 C14.35876 121.25801 14.36665 125.12174 14.38005 128.98576 C14.37914 130.1941 14.37823 131.40243 14.37729 132.64738 C14.38682 133.76194 14.39635 134.8765 14.40617 136.02483 C14.41078 137.00919 14.41539 137.99355 14.42014 139.00774 C14.68083 141.36076 14.68083 141.36076 16.68083 143.36076 C19.69722 143.55885 22.62194 143.6299 25.63957 143.61473 C26.57909 143.61785 27.5186 143.62097 28.48659 143.62419 C31.65426 143.6322 34.82175 143.62583 37.98943 143.61955 C40.25246 143.62226 42.51549 143.62582 44.77852 143.63017 C50.93952 143.63932 57.10045 143.63574 63.26145 143.62941 C69.69608 143.62437 76.13072 143.62904 82.56535 143.63219 C94.06618 143.63606 105.56698 143.62983 117.0678 143.61967 C127.50295 143.61073 137.93806 143.61228 148.37321 143.62151 C160.48096 143.6322 172.58867 143.6362 184.69642 143.63028 C191.10943 143.62716 197.52242 143.62677 203.93544 143.63335 C209.96328 143.63911 215.99104 143.63516 222.01887 143.62357 C224.23691 143.62091 226.45496 143.6217 228.67299 143.62609 C231.68946 143.63152 234.70565 143.62475 237.72209 143.61473 C238.60982 143.61919 239.49755 143.62365 240.41218 143.62825 C246.45253 143.58906 246.45253 143.58906 248.68083 141.36076 C248.9348 139.00774 248.9348 139.00774 248.93962 136.02483 C248.94277 135.46755 248.94277 135.46755 248.95872 132.64738 C248.95468 131.43905 248.95063 130.23071 248.94646 128.98576 C248.94741 128.36806 248.94741 128.36806 248.95226 125.24211 C248.95397 121.95485 248.9459 118.66778 248.93474 115.38054 C248.93084 113.36282 248.93472 111.34527 248.94157 109.32756 C248.95389 105.46355 248.95244 101.59979 248.94646 97.73576 C248.94848 97.1316 248.94848 97.1316 248.95872 94.07414 C248.95242 92.95959 248.94612 91.84503 248.93962 90.6967 C248.93803 89.71234 248.93644 88.72798 248.9348 87.71379 C248.68083 85.36076 248.68083 85.36076 246.68083 83.36076 C243.67919 83.16269 240.76967 83.09163 237.76678 83.1068 C236.83206 83.10368 235.89733 83.10056 234.93428 83.09734 C231.78276 83.08933 228.63143 83.0957 225.4799 83.10197 C223.22835 83.09927 220.97679 83.09571 218.72523 83.09135 C212.59516 83.08221 206.46515 83.08578 200.33508 83.09211 C193.9316 83.09716 187.52814 83.09248 181.12466 83.08934 C169.67839 83.08546 158.23216 83.0917 146.7859 83.10186 C136.4028 83.11079 126.01974 83.10924 115.63664 83.10002 C103.58785 83.08932 91.5391 83.08533 79.4903 83.09125 C73.10911 83.09437 66.72795 83.09476 60.34676 83.08817 C54.34764 83.08241 48.34861 83.08638 42.3495 83.09796 C40.14317 83.10061 37.93683 83.09983 35.7305 83.09544 C32.72752 83.09 29.72482 83.09679 26.72186 83.1068 C26.2814 83.10457 26.2814 83.10457 24.05239 83.09328 C18.02328 83.13246 18.02328 83.13246 14.68083 85.36076 Z " fill="#000000" transform="translate(129.3191680908203,19.639236450195313)"/>
</svg>
