<?xml version="1.0" encoding="UTF-8"?>
<!-- Generator: visioncortex VTracer 0.6.12 -->
<svg version="1.1" xmlns="http://www.w3.org/2000/svg" width="512" height="512">
<path d="M0 0 C3.41502511 1.5813803 6.67504811 3.42072192 9.93310547 5.30078125 C12.76572375 6.92799458 15.62460528 8.50231687 18.48828125 10.07421875 C23.0921027 12.60720276 27.68568587 15.15763962 32.26953125 17.7265625 C38.09541991 20.99149816 43.9325859 24.23561639 49.77416992 27.47241211 C60.12039697 33.20643878 70.43773771 38.98841598 80.72851562 44.82128906 C92.58406532 51.53344211 104.5059894 58.12624063 116.421875 64.73046875 C145.62105904 80.91374533 145.62105904 80.91374533 158.46020508 88.22998047 C162.65398464 90.61804824 166.85283111 92.97730917 171.125 95.22265625 C179.48747521 99.65128492 187.70993659 104.14653467 191.49116611 113.32645035 C192.6220923 117.46275292 192.70889609 121.16791901 192.69602966 125.43304443 C192.70126634 126.29682842 192.70650302 127.16061242 192.71189839 128.05057168 C192.72687273 130.938384 192.72760298 133.82601874 192.72827148 136.71386719 C192.73589471 138.78717344 192.74432249 140.86047687 192.75349426 142.93377686 C192.77543051 148.56201814 192.78423706 154.1902051 192.78932071 159.81848431 C192.79296543 163.33664022 192.79920612 166.85478194 192.8063221 170.37293243 C192.83081396 182.65194829 192.84386784 194.93092191 192.84741211 207.20996094 C192.85104673 218.64686562 192.88093771 230.08350183 192.92281669 241.52032447 C192.95753333 251.34643209 192.97296079 261.17245079 192.97365814 270.99861932 C192.97445051 276.86419991 192.9831709 282.72950701 193.01165581 288.59502411 C193.03785953 294.11418678 193.04002844 299.63284964 193.02400017 305.1520462 C193.02218751 307.17323396 193.02885972 309.19445061 193.04481888 311.21557617 C193.19524303 331.50938669 193.19524303 331.50938669 187.421875 338.73046875 C181.84859378 344.09450627 174.72006607 347.54182577 167.984375 351.23046875 C165.74861967 352.46860871 163.51294485 353.70689407 161.27734375 354.9453125 C160.70846436 355.25911865 160.70846436 355.25911865 157.82958984 356.84716797 C152.47319806 359.8074206 147.13515397 362.80021469 141.796875 365.79296875 C140.76183838 366.37240234 139.72680176 366.95183594 138.66040039 367.54882812 C131.73786649 371.42566369 124.82675572 375.32229202 117.921875 379.23046875 C106.82714796 385.51010714 95.70574107 391.74147573 84.57910156 397.96435547 C79.35893791 400.88445011 74.14046727 403.80756707 68.921875 406.73046875 C62.64928652 410.24370727 56.37633381 413.75628624 50.1015625 417.265625 C47.99998444 418.44137843 45.89842187 419.61715956 43.796875 420.79296875 C43.28338501 421.08010742 43.28338501 421.08010742 40.68481445 422.53320312 C34.47587407 426.00868163 28.28265499 429.51047127 22.09985352 433.03222656 C18.33648411 435.16938042 14.56087027 437.28424359 10.78320312 439.39599609 C8.77609996 440.5302833 6.7919107 441.69346003 4.8125 442.875 C-2.57779333 447.04914716 -9.15956527 448.31735381 -17.578125 446.73046875 C-23.2522711 444.62780451 -28.34604539 441.74550958 -33.578125 438.73046875 C-35.32699272 437.75058058 -37.0770558 436.77282366 -38.828125 435.796875 C-42.71461942 433.62171205 -46.58944828 431.42735752 -50.45703125 429.21875 C-56.6036057 425.70965774 -62.77523268 422.24655699 -68.953125 418.79296875 C-71.0546884 417.61718912 -73.1562509 416.44140786 -75.2578125 415.265625 C-76.30163086 414.68184082 -77.34544922 414.09805664 -78.42089844 413.49658203 C-84.68141408 409.99452743 -90.93961112 406.48833122 -97.19824219 402.98291016 C-102.43087548 400.0523409 -107.66406722 397.12277831 -112.8984375 394.1953125 C-123.91840067 388.03067964 -134.92608884 381.84537164 -145.91455078 375.62475586 C-151.90749958 372.23415706 -157.90916751 368.85960081 -163.91845703 365.49804688 C-166.01375792 364.32589586 -168.10849114 363.15272946 -170.20263672 361.97851562 C-175.46791215 359.026333 -180.73947026 356.08657888 -186.0234375 353.16796875 C-188.08340475 352.02226381 -190.14330325 350.87643526 -192.203125 349.73046875 C-193.14478516 349.21484375 -194.08644531 348.69921875 -195.05664062 348.16796875 C-204.12988834 343.10014748 -210.20747147 338.86294341 -213.578125 328.73046875 C-214.0845737 325.6790419 -214.12477359 322.71765299 -214.0927887 319.62916565 C-214.09973422 318.75873483 -214.10667975 317.88830401 -214.11383575 316.9914965 C-214.13201088 314.09896306 -214.12186805 311.20725863 -214.11157227 308.31469727 C-214.11863553 306.23109324 -214.12738225 304.14749435 -214.13768005 302.06390381 C-214.16013775 296.42129885 -214.15724271 290.77897486 -214.14835858 285.13634229 C-214.14324022 280.41966099 -214.15054815 275.7030321 -214.15783066 270.9863562 C-214.17481814 259.85666136 -214.17127529 248.72710368 -214.15454102 237.59741211 C-214.13761866 226.12804283 -214.15345866 214.65905413 -214.1857639 203.18972641 C-214.21248111 193.32956907 -214.21973007 183.46953003 -214.21124882 173.60934013 C-214.20632614 167.72594533 -214.20849986 161.84277948 -214.22903633 155.95941353 C-214.24742684 150.42622137 -214.24139308 144.89357561 -214.21683693 139.3604126 C-214.21183989 137.33439848 -214.2152899 135.30834249 -214.22798538 133.28236198 C-214.34359718 113.24130383 -214.34359718 113.24130383 -208.578125 105.73046875 C-206.26049805 103.42041016 -206.26049805 103.42041016 -203.90234375 101.95703125 C-203.03013184 101.40563477 -202.15791992 100.85423828 -201.25927734 100.28613281 C-200.37449707 99.77276367 -199.4897168 99.25939453 -198.578125 98.73046875 C-197.75393066 98.25061523 -196.92973633 97.77076172 -196.08056641 97.27636719 C-193.53738805 95.84498538 -190.97051416 94.46947997 -188.390625 93.10546875 C-186.44187525 92.05884133 -184.49398481 91.01061266 -182.546875 89.9609375 C-181.556875 89.42774902 -180.566875 88.89456055 -179.546875 88.34521484 C-174.79520408 85.76071225 -170.09266212 83.09141154 -165.390625 80.41796875 C-156.97893723 75.64152977 -148.5390603 70.91911954 -140.078125 66.23046875 C-131.72398248 61.59991391 -123.38693628 56.94188967 -115.078125 52.23046875 C-105.62445622 46.86986886 -96.13014683 41.58509624 -86.625 36.31640625 C-79.42353855 32.3210749 -72.2421778 28.29245726 -65.078125 24.23046875 C-57.04594592 19.67906615 -48.99851483 15.15598126 -40.93212891 10.66552734 C-39.19111961 9.69608554 -37.45101477 8.72501999 -35.7109375 7.75390625 C-32.673884 6.0658441 -29.62839711 4.39449589 -26.578125 2.73046875 C-25.81483887 2.30362793 -25.05155273 1.87678711 -24.26513672 1.43701172 C-16.41342265 -2.78184785 -8.30636424 -2.94712705 0 0 Z " fill="#0086D3" transform="translate(266.578125,33.26953125)"/>
<path d="M0 0 C0.78052734 0.20399414 1.56105469 0.40798828 2.36523438 0.61816406 C41.97862455 11.14190693 72.29345941 33.94018912 95 68 C95 68.99 95 69.98 95 71 C94.36835938 71.35078613 93.73671875 71.70157227 93.0859375 72.06298828 C81.09810225 78.72841469 69.15012495 85.44556616 57.3125 92.375 C56.31847168 92.95668945 55.32444336 93.53837891 54.30029297 94.13769531 C52.40233319 95.24905302 50.50453838 96.36069251 48.60693359 97.47265625 C44.95081495 99.61469392 41.29303804 101.75343064 37.625 103.875 C37.09519531 104.18308594 37.09519531 104.18308594 34.4140625 105.7421875 C32 107 32 107 30 107 C28.70925452 105.35912126 27.49238973 103.65981448 26.3125 101.9375 C14.22639028 85.06865167 -2.87043574 76.13292993 -23.18359375 72.5078125 C-43.63448737 69.78660864 -63.08307252 75.38800282 -79.4375 87.875 C-94.02141637 100.48019405 -104.78244766 117.53481832 -107 137 C-108.43031433 159.05695253 -102.15466247 179.29305887 -87.8125 196.125 C-74.63227891 210.17498188 -57.31974825 218.60729561 -38.17578125 220.34765625 C-16.31812759 220.87297081 3.57487193 213.36374042 19.5625 198.5546875 C23.85332491 194.05757293 27.43677697 189.08662998 31 184 C34.82644949 185.4481545 38.37703558 187.19011978 41.98046875 189.125 C43.13595215 189.74431396 44.29143555 190.36362793 45.48193359 191.00170898 C46.71722046 191.66762412 47.95240727 192.33372488 49.1875 193 C50.45651089 193.6824327 51.72555407 194.36480536 52.99462891 195.04711914 C67.44676869 202.8271461 81.77492764 210.81257893 96 219 C95.50039108 223.75520632 93.26803956 226.9413855 90.5 230.6875 C90.05366211 231.30181885 89.60732422 231.9161377 89.14746094 232.54907227 C85.69607908 237.22673132 81.97898175 241.58803172 78.0078125 245.8359375 C76.28645685 247.69125078 74.70342909 249.58720874 73.125 251.5625 C51.46797436 276.88820211 15.21889687 291.01844294 -17 295 C-21.5819792 295.20680478 -26.16235246 295.22793001 -30.74829102 295.24023438 C-32.90096246 295.24983701 -35.05263408 295.28087185 -37.20507812 295.3125 C-72.40400089 295.57976401 -107.07034054 280.83899962 -132.73046875 257.078125 C-134.62603879 255.34242231 -136.55737095 253.72910324 -138.5625 252.125 C-143.37679024 248.02268226 -147.13913926 242.97830224 -151 238 C-151.67160156 237.1440625 -152.34320313 236.288125 -153.03515625 235.40625 C-164.50727203 220.26214487 -171.92982881 203.53505917 -177.25 185.375 C-177.37322632 184.95786743 -177.37322632 184.95786743 -177.99682617 182.84692383 C-181.25597352 171.26022126 -182.35315313 159.7910607 -182.31567383 147.79907227 C-182.31251804 145.69950093 -182.33606962 143.60135152 -182.36132812 141.50195312 C-182.50683084 110.04972745 -170.46732622 78.52883104 -151 54 C-150.59555664 53.48872559 -150.19111328 52.97745117 -149.77441406 52.45068359 C-125.89675532 22.52725196 -92.06925217 3.83301264 -54.41796875 -2.61328125 C-36.99411914 -4.54998424 -16.94171028 -4.60926259 0 0 Z " fill="#FEFEFE" transform="translate(289,110)"/>
<path d="M0 0 C3.9479309 3.42154011 5.68662092 6.66948281 6.18206656 11.93495941 C6.2603363 14.20217508 6.27136923 16.46094003 6.26069641 18.72949219 C6.26452196 19.59609844 6.26834751 20.4627047 6.27228898 21.35557175 C6.28258883 24.25273494 6.27863257 27.14969884 6.2746582 30.046875 C6.27900629 32.12667016 6.28418976 34.20646371 6.29014587 36.28625488 C6.30353534 41.93076859 6.30411469 47.57521533 6.30158257 53.21974182 C6.30051303 57.93166519 6.30539572 62.64357499 6.310188 67.35549545 C6.32128258 78.4700802 6.32172057 89.58463115 6.31567383 100.69921875 C6.30963044 112.1679441 6.32195448 123.63654688 6.3432439 135.10525131 C6.36085023 144.95167702 6.36686286 154.79806367 6.36360615 164.64450455 C6.36179192 170.5255288 6.36444367 176.40646558 6.37832069 182.28747559 C6.39087893 187.81638459 6.38897385 193.34510217 6.37590981 198.87400818 C6.37354027 200.90331588 6.37629216 202.93263697 6.38453293 204.96192932 C6.39496989 207.7316786 6.38692424 210.5007819 6.3742218 213.27050781 C6.38159609 214.07381908 6.38897037 214.87713036 6.39656812 215.70478439 C6.34986845 220.54370038 5.5582753 223.74766303 3 228 C-0.75952972 226.57289042 -4.25987961 224.87676113 -7.8046875 222.98046875 C-8.93438965 222.37654297 -10.0640918 221.77261719 -11.22802734 221.15039062 C-12.44378811 220.49628555 -13.65944326 219.84198415 -14.875 219.1875 C-15.49304504 218.85596924 -16.11109009 218.52443848 -16.74786377 218.18286133 C-26.31362715 213.05047854 -35.78641924 207.76993051 -45.20898438 202.37841797 C-51.57777608 198.75066851 -58.01920958 195.39428666 -64.6484375 192.26953125 C-67 191 -67 191 -68 189 C-69.65112115 188.2957123 -71.32127512 187.63569253 -73 187 C-74.80182129 186.09127455 -76.59015726 185.15551653 -78.3671875 184.19921875 C-79.40689697 183.64032959 -80.44660645 183.08144043 -81.51782227 182.50561523 C-82.62569092 181.90563721 -83.73355957 181.30565918 -84.875 180.6875 C-86.020896 180.06883057 -87.16679199 179.45016113 -88.34741211 178.81274414 C-97.96668448 173.6069059 -107.50039701 168.2540648 -117.00390625 162.83984375 C-117.83680176 162.36659668 -118.66969727 161.89334961 -119.52783203 161.40576172 C-121.21314449 160.44743374 -122.89633156 159.48536068 -124.57763672 158.52001953 C-125.38604004 158.06095215 -126.19444336 157.60188477 -127.02734375 157.12890625 C-127.745271 156.71842041 -128.46319824 156.30793457 -129.20288086 155.88500977 C-131 155 -131 155 -133 155 C-134.26921613 156.62078303 -135.46502621 158.2993213 -136.625 160 C-149.04820472 177.34811801 -166.28418274 186.76244646 -187.18359375 190.4921875 C-206.80528239 193.10305702 -224.79505882 188.0859687 -240.98046875 176.94921875 C-243.41614172 175.05153103 -245.71961438 173.08042643 -248 171 C-248.30421875 170.74154297 -248.30421875 170.74154297 -249.84375 169.43359375 C-264.04198688 156.5583744 -270.72040898 136.87134445 -272.3203125 118.27734375 C-272.94786423 98.38395398 -265.3515541 79.63483231 -252 65 C-251.48308594 64.3915625 -250.96617187 63.783125 -250.43359375 63.15625 C-238.78311771 50.30860725 -219.70270185 41.86131269 -202.58203125 40.78515625 C-180.37935802 40.20995746 -160.60139262 47.47228319 -144.37109375 62.5859375 C-134 73.14497529 -134 73.14497529 -134 77 C-121.37086424 69.98631925 -108.78011484 62.92262942 -96.3125 55.625 C-95.31774658 55.04331055 -94.32299316 54.46162109 -93.2980957 53.86230469 C-89.74551952 51.78329938 -86.19345855 49.70349155 -82.64746094 47.61328125 C-80.66399808 46.44495243 -78.67641131 45.28401931 -76.6875 44.125 C-76.16349609 43.81691406 -76.16349609 43.81691406 -73.51171875 42.2578125 C-71 41 -71 41 -68 41 C-67.67 40.01 -67.34 39.02 -67 38 C-64.78881836 36.50463867 -64.78881836 36.50463867 -61.83984375 34.91796875 C-60.74776611 34.32258301 -59.65568848 33.72719727 -58.53051758 33.11376953 C-58.23788528 32.95691681 -58.23788528 32.95691681 -56.75698853 32.16314697 C-53.66343202 30.50431869 -50.58666108 28.81482782 -47.5078125 27.12890625 C-46.87847305 26.78531067 -46.24913361 26.44171509 -45.60072327 26.08770752 C-39.43771293 22.71409111 -33.36800017 19.18766486 -27.3125 15.625 C-18.26545111 10.31103978 -9.1705376 5.09774002 0 0 Z " fill="#0074BF" transform="translate(453,140)"/>
<path d="M0 0 C3.64298308 3.31786559 6.07029939 7.0057628 8.6875 11.125 C12.39931552 16.8384136 16.35807803 21.96218581 21.046875 26.9296875 C22.65269153 28.63185302 24.1193543 30.34989448 25.5625 32.1875 C46.52714388 56.37747371 83.39942577 73.59984174 115 76 C149.32541585 77.24885829 149.32541585 77.24885829 165 73 C165.76989258 72.80132324 166.53978516 72.60264648 167.33300781 72.39794922 C190.80780004 66.24583936 211.68813552 56.04107683 230 40 C230.80050781 39.32066406 231.60101563 38.64132812 232.42578125 37.94140625 C244.34744821 27.66272532 252.9227141 14.73113924 262 2 C272.5712162 7.15598828 282.89454794 12.64945864 293.1484375 18.40722656 C299.78364703 22.1134001 306.44857513 25.76630412 313.10653687 29.43139648 C325.89313002 36.47158624 325.89313002 36.47158624 332 40 C327.09993474 49.18137103 316.58091477 53.512297 307.6875 58.1875 C299.95719128 62.31215445 292.27754436 66.49729357 284.6875 70.875 C276.70779455 75.47157983 268.68088767 79.97576886 260.625 84.4375 C252.1883924 89.11118719 243.76642804 93.80813335 235.375 98.5625 C222.22223455 106.01451759 209.02811474 113.39205058 195.83398438 120.77050781 C192.68075914 122.53409364 189.52784316 124.29823122 186.375 126.0625 C185.34818115 126.63669678 184.3213623 127.21089355 183.26342773 127.80249023 C177.05430361 131.27801306 170.86093801 134.77991252 164.67797852 138.30175781 C160.91460911 140.43891167 157.13899527 142.55377484 153.36132812 144.66552734 C151.35422496 145.79981455 149.3700357 146.96299128 147.390625 148.14453125 C140.00033167 152.31867841 133.41855973 153.58688506 125 152 C119.3258539 149.89733576 114.23207961 147.01504083 109 144 C107.25113228 143.02011183 105.5010692 142.04235491 103.75 141.06640625 C99.86350558 138.8912433 95.98867672 136.69688877 92.12109375 134.48828125 C85.9745193 130.97918899 79.80289232 127.51608824 73.625 124.0625 C71.5234366 122.88672037 69.4218741 121.71093911 67.3203125 120.53515625 C66.79840332 120.24326416 66.79840332 120.24326416 64.15722656 118.76611328 C57.89671092 115.26405868 51.63851388 111.75786247 45.37988281 108.25244141 C40.14724952 105.32187215 34.91405778 102.39230956 29.6796875 99.46484375 C18.65972433 93.30021089 7.65203616 87.11490289 -3.33642578 80.89428711 C-9.32937458 77.50368831 -15.33104251 74.12913206 -21.34033203 70.76757812 C-23.43563292 69.59542711 -25.53036614 68.42226071 -27.62451172 67.24804688 C-32.88978715 64.29586425 -38.16134526 61.35611013 -43.4453125 58.4375 C-45.50527975 57.29179506 -47.56517825 56.14596651 -49.625 55 C-50.56666016 54.484375 -51.50832031 53.96875 -52.47851562 53.4375 C-65.69970598 46.05286422 -65.69970598 46.05286422 -68.4375 39.625 C-68.623125 38.75875 -68.80875 37.8925 -69 37 C-68.56405518 36.94880005 -68.56405518 36.94880005 -66.35791016 36.68969727 C-62.77854679 35.95451466 -60.41835817 34.80345726 -57.2734375 32.96484375 C-56.17217529 32.32772461 -55.07091309 31.69060547 -53.9362793 31.03417969 C-52.74912706 30.33538691 -51.56203545 29.63649114 -50.375 28.9375 C-49.14224473 28.22071264 -47.90891771 27.50490777 -46.67504883 26.79003906 C-44.09674764 25.29526529 -41.52099157 23.79623371 -38.94677734 22.29443359 C-33.15706924 18.92204736 -27.33407135 15.60797151 -21.51275635 12.29055786 C-18.61525487 10.63872526 -15.71982695 8.98327419 -12.82421875 7.328125 C-8.54947917 4.88541667 -4.27473958 2.44270833 0 0 Z " fill="#00549D" transform="translate(124,328)"/>
<path d="M0 0 C5.70805574 4.93363964 11.46305173 10.39417756 15.375 16.90234375 C14.07313222 20.80794708 12.68854055 21.1488469 9.13671875 23.1328125 C8.01934326 23.76348633 6.90196777 24.39416016 5.75073242 25.04394531 C4.52137703 25.72601135 3.2919648 26.40797495 2.0625 27.08984375 C0.80585494 27.79558607 -0.45024171 28.5023057 -1.70581055 29.20996094 C-4.33432756 30.69046246 -6.96520693 32.16663954 -9.59765625 33.64013672 C-15.45880725 36.92603563 -21.28718368 40.26919382 -27.11727905 43.60977173 C-31.03607772 45.8543508 -34.95783209 48.0937551 -38.88134766 50.33007812 C-40.55816831 51.29098977 -42.23083633 52.25925442 -43.89599609 53.24023438 C-48.42414623 55.90234375 -48.42414623 55.90234375 -50.625 55.90234375 C-49.30487648 59.86271431 -47.86924616 60.12141212 -44.2109375 62.01953125 C-43.06842529 62.62015381 -41.92591309 63.22077637 -40.7487793 63.83959961 C-40.13771332 64.15540985 -39.52664734 64.47122009 -38.89706421 64.79660034 C-35.6854722 66.45692774 -32.49019566 68.148162 -29.29296875 69.8359375 C-28.64477676 70.17708084 -27.99658478 70.51822418 -27.32875061 70.8697052 C-21.25562953 74.07475348 -15.27498533 77.43364935 -9.3125 80.83984375 C-0.82615577 85.67859386 7.71828023 90.37568617 16.375 94.90234375 C14.37816936 100.454507 11.13969464 104.42499086 7.375 108.90234375 C6.87226563 109.50304687 6.36953125 110.10375 5.8515625 110.72265625 C-7.1346973 124.89547786 -26.66185965 131.61485423 -45.34765625 133.22265625 C-65.24104602 133.85020798 -83.99016769 126.25389785 -98.625 112.90234375 C-98.92921875 112.64388672 -98.92921875 112.64388672 -100.46875 111.3359375 C-114.66698688 98.46071815 -121.34540898 78.7736882 -122.9453125 60.1796875 C-123.57286423 40.28629773 -115.9765541 21.53717606 -102.625 6.90234375 C-102.10808594 6.29390625 -101.59117187 5.68546875 -101.05859375 5.05859375 C-74.98129477 -23.69832743 -29.1809888 -23.31873658 0 0 Z " fill="#0186D4" transform="translate(303.625,198.09765625)"/>
<path d="M0 0 C1.0415625 0.6703125 2.083125 1.340625 3.15625 2.03125 C9.13276974 5.76395356 15.32397813 9.11316879 21.5 12.5 C22.78212791 13.20528712 24.06419085 13.91069236 25.34619141 14.61621094 C34.64931193 19.73111575 43.97591378 24.80238098 53.32226562 29.83789062 C58.25293771 32.49662052 63.1510394 35.19481618 68 38 C66.00316936 43.55216325 62.76469464 47.52264711 59 52 C58.74863281 52.30035156 58.74863281 52.30035156 57.4765625 53.8203125 C44.4903027 67.99313411 24.96314035 74.71251048 6.27734375 76.3203125 C-13.58121021 76.94676531 -32.40868527 69.3708516 -47 56 C-47.63164062 55.43667969 -48.26328125 54.87335938 -48.9140625 54.29296875 C-53.58273248 49.90195095 -58.17620405 44.77763513 -61 39 C-60.90332031 36.55737305 -60.90332031 36.55737305 -60 34 C-57.74121094 32.24584961 -57.74121094 32.24584961 -54.734375 30.65234375 C-54.18044067 30.35263672 -54.18044067 30.35263672 -51.37719727 28.8359375 C-50.16818666 28.20301964 -48.95911965 27.57020952 -47.75 26.9375 C-46.51841009 26.27667379 -45.2878662 25.61389457 -44.05834961 24.94921875 C-41.56722706 23.60333088 -39.07264581 22.26421762 -36.57568359 20.92919922 C-31.51774628 18.21347257 -26.53740469 15.36433906 -21.5625 12.5 C-21.13779419 12.25648804 -21.13779419 12.25648804 -18.98852539 11.02416992 C-12.64066941 7.38092684 -6.30923277 3.70977662 0 0 Z " fill="#01549D" transform="translate(252,255)"/>
<path d="M0 0 C7.26 0 14.52 0 22 0 C22 6.93 22 13.86 22 21 C28.93 21 35.86 21 43 21 C43 28.26 43 35.52 43 43 C36.07 43 29.14 43 22 43 C22 49.93 22 56.86 22 64 C14.74 64 7.48 64 0 64 C0 57.07 0 50.14 0 43 C-6.93 43 -13.86 43 -21 43 C-21 35.74 -21 28.48 -21 21 C-14.07 21 -7.14 21 0 21 C0 14.07 0 7.14 0 0 Z " fill="#F8FBFD" transform="translate(405,224)"/>
<path d="M0 0 C7.26 0 14.52 0 22 0 C22 6.93 22 13.86 22 21 C28.93 21 35.86 21 43 21 C43 28.26 43 35.52 43 43 C36.07 43 29.14 43 22 43 C22 49.93 22 56.86 22 64 C14.74 64 7.48 64 0 64 C0 57.07 0 50.14 0 43 C-6.93 43 -13.86 43 -21 43 C-21 35.74 -21 28.48 -21 21 C-14.07 21 -7.14 21 0 21 C0 14.07 0 7.14 0 0 Z " fill="#F8FBFD" transform="translate(330,224)"/>
</svg>
