<?xml version="1.0" encoding="UTF-8"?>
<!-- Generator: visioncortex VTracer 0.6.12 -->
<svg version="1.1" xmlns="http://www.w3.org/2000/svg" width="512" height="512">
<path d="M0 0 C0.73003235 -0.00902847 1.4600647 -0.01805695 2.21221924 -0.02735901 C3.75537025 -0.04184033 5.29858236 -0.05074299 6.84179688 -0.05444336 C9.18206744 -0.06629957 11.51966371 -0.11546326 13.859375 -0.16601562 C28.55579184 -0.32526533 28.55579184 -0.32526533 34.453125 5.37109375 C44.39179018 16.09439039 40.453125 22.7480375 40.453125 40.37109375 C101.173125 40.37109375 161.893125 40.37109375 224.453125 40.37109375 C224.453125 31.79109375 224.453125 23.21109375 224.453125 14.37109375 C231.46844229 3.14658609 231.46844229 3.14658609 238.453125 0.37109375 C241.00527904 0.14431994 243.44645684 0.01961968 246 0 C246.73003235 -0.00902847 247.4600647 -0.01805695 248.21221924 -0.02735901 C249.75537025 -0.04184033 251.29858236 -0.05074299 252.84179688 -0.05444336 C255.18206744 -0.06629957 257.51966371 -0.11546326 259.859375 -0.16601562 C273.399298 -0.31428313 273.399298 -0.31428313 279.02270508 3.9387207 C283.00308236 7.92453287 286.31619172 12.19218023 286.56665039 18.0065918 C286.56141357 19.03824463 286.55617676 20.06989746 286.55078125 21.1328125 C286.54755859 22.25107422 286.54433594 23.36933594 286.54101562 24.52148438 C286.53263672 25.68873047 286.52425781 26.85597656 286.515625 28.05859375 C286.51111328 29.23744141 286.50660156 30.41628906 286.50195312 31.63085938 C286.49015773 34.54432164 286.4736977 37.45768238 286.453125 40.37109375 C286.83150261 40.36887314 286.83150261 40.36887314 288.74632263 40.3576355 C295.91027364 40.31740764 303.07416915 40.287033 310.238204 40.26746941 C313.92048943 40.25707317 317.6026808 40.2429909 321.28491211 40.22021484 C324.84459915 40.19833688 328.40419625 40.18649391 331.96394539 40.18133926 C333.96951898 40.17589579 335.97505687 40.16030721 337.98057556 40.14450073 C355.95325679 40.1423123 355.95325679 40.1423123 361.828125 45.55859375 C362.45460938 46.10902344 363.08109375 46.65945312 363.7265625 47.2265625 C367.86377893 52.36532227 368.82818689 57.2903927 368.83344173 63.7665844 C368.83810165 64.48108189 368.84276157 65.19557938 368.8475627 65.9317283 C368.85949161 68.32038685 368.85012568 70.70847438 368.84080505 73.09713745 C368.8449789 74.82918427 368.8504567 76.56122836 368.85712487 78.29326737 C368.87159158 83.0487919 368.8673309 87.8041433 368.85995805 92.55967736 C368.85523171 97.68998868 368.86773153 102.82026226 368.87797546 107.95056152 C368.89517943 117.99980567 368.89600013 128.04898733 368.89076256 138.09824239 C368.8867225 146.26591159 368.88816247 154.43356231 368.89351082 162.60123062 C368.89425924 163.76333541 368.89500766 164.92544019 368.89577876 166.12276027 C368.89731023 168.48351796 368.89884858 170.84427564 368.90039373 173.20503332 C368.91412462 195.34844495 368.908677 217.49182127 368.89720852 239.63523211 C368.88727612 259.89483604 368.9002159 280.15434866 368.92414271 300.41393851 C368.94852323 321.21435135 368.95814412 342.01472163 368.95148998 362.81514847 C368.94799536 374.49385682 368.95024586 386.17249492 368.96774101 397.85119247 C368.9824499 407.79333103 368.98311561 417.73534988 368.9656701 427.67748605 C368.95714684 432.7499921 368.95504298 437.8222842 368.97032166 442.89477921 C368.98413915 447.5396727 368.97944338 452.18416833 368.96008242 456.82903863 C368.95631307 458.50798128 368.95927127 460.18695558 368.96969407 461.8658701 C369.07489921 480.11209036 369.07489921 480.11209036 363.07666487 486.93733394 C357.71916022 491.8397933 351.86053317 492.67016507 344.86833477 492.62836266 C344.49477921 492.63011569 344.49477921 492.63011569 342.60436168 492.63898712 C340.09885295 492.64829704 337.59357685 492.64337888 335.08805847 492.63851929 C333.27438029 492.64225575 331.46070371 492.64685725 329.6470297 492.65224993 C324.6612504 492.66449577 319.67553812 492.6642176 314.68974721 492.66186118 C309.31334164 492.66145342 303.93695767 492.67248828 298.56056213 492.68197632 C288.02658314 492.69859582 277.49262653 492.70408629 266.95863553 492.70520107 C258.39716219 492.70615107 249.83569624 492.71025892 241.27422523 492.71660233 C217.00674884 492.73421707 192.73929015 492.74344079 168.47180732 492.74194138 C167.81754676 492.74190142 167.81754676 492.74190142 164.5065918 492.74169922 C163.1964751 492.74161746 161.8863584 492.7415357 160.5365412 492.74145146 C139.30043286 492.74063842 118.06439542 492.75978002 96.82830759 492.78797595 C75.0289999 492.81669157 53.22972681 492.83051698 31.43039972 492.8287884 C19.18940602 492.82812406 6.94848667 492.83363578 -5.29249001 492.8551445 C-15.71407633 492.87333885 -26.13555461 492.87771794 -36.55714992 492.86412565 C-41.87470693 492.85758732 -47.19205657 492.85751018 -52.50959396 492.87483215 C-57.37841539 492.89052938 -62.24686444 492.88773342 -67.1156766 492.87026389 C-68.87607807 492.86718663 -70.6365071 492.87085367 -72.39687607 492.88198404 C-91.29723051 492.99356213 -91.29723051 492.99356213 -98.11012298 486.99460733 C-102.97116231 481.69402685 -103.796425 476.04989115 -103.80414391 469.09585762 C-103.80764998 468.38221438 -103.81115605 467.66857114 -103.81476837 466.93330234 C-103.82407329 464.54164874 -103.81916145 462.15023911 -103.81430054 459.75857544 C-103.81803725 458.02668048 -103.82263885 456.29478721 -103.82803118 454.56289661 C-103.84027386 449.80321729 -103.83999922 445.04360819 -103.83764243 440.28391671 C-103.83723459 435.15088583 -103.84827023 430.01787755 -103.85775757 424.88485718 C-103.87437505 414.82847238 -103.87986744 404.77211102 -103.88098232 394.71571364 C-103.88193236 386.54277089 -103.88604043 378.36983589 -103.89238358 370.1968956 C-103.90999735 347.03110394 -103.91922213 323.86533081 -103.91772263 300.6995324 C-103.91764272 299.45048847 -103.9175628 298.20144453 -103.91748047 296.91455078 C-103.91739871 295.66398407 -103.91731695 294.41341736 -103.91723271 293.12495469 C-103.91641957 272.85168178 -103.93556381 252.57848313 -103.9637572 232.30523171 C-103.99246975 211.49468945 -104.00629842 190.68418344 -104.00456965 169.87362087 C-104.00390523 158.18765876 -104.00942051 146.50177452 -104.03092575 134.81583023 C-104.04911601 124.86742333 -104.05350254 114.91912959 -104.0399069 104.97071327 C-104.03336663 99.89428328 -104.03329834 94.81807054 -104.0506134 89.74166107 C-104.06630208 85.09431979 -104.06352357 80.44736877 -104.04604514 75.80003725 C-104.04296599 74.11906078 -104.046642 72.43805548 -104.05776529 70.75711299 C-104.11601363 61.33014559 -104.0703219 54.07217768 -97.94140625 46.34765625 C-97.68037109 46.12464844 -97.68037109 46.12464844 -96.359375 44.99609375 C-95.85019531 44.53460938 -95.34101562 44.073125 -94.81640625 43.59765625 C-86.99739699 39.37189221 -77.70641202 40.10799297 -69.10546875 40.17578125 C-67.72827868 40.17951918 -66.35108591 40.18236246 -64.97389221 40.18435669 C-61.37853435 40.19193181 -57.78334239 40.21152634 -54.18804932 40.23376465 C-50.50755049 40.25435628 -46.82702441 40.26338666 -43.14648438 40.2734375 C-35.94653959 40.29477914 -28.74673069 40.32883945 -21.546875 40.37109375 C-21.55734863 40.01337891 -21.55734863 40.01337891 -21.61035156 38.203125 C-21.69408333 34.92592723 -21.74571551 31.64895534 -21.796875 28.37109375 C-21.83039063 27.24574219 -21.86390625 26.12039062 -21.8984375 24.9609375 C-21.98574192 17.49640932 -21.43360575 11.4373532 -16.09863281 5.85595703 C-10.85647039 1.26205447 -6.85787773 0.05269125 0 0 Z M-0.546875 21.37109375 C-0.546875 41.17109375 -0.546875 60.97109375 -0.546875 81.37109375 C6.053125 81.37109375 12.653125 81.37109375 19.453125 81.37109375 C19.453125 61.57109375 19.453125 41.77109375 19.453125 21.37109375 C12.853125 21.37109375 6.253125 21.37109375 -0.546875 21.37109375 Z M245.453125 21.37109375 C245.453125 41.17109375 245.453125 60.97109375 245.453125 81.37109375 C252.053125 81.37109375 258.653125 81.37109375 265.453125 81.37109375 C265.453125 61.57109375 265.453125 41.77109375 265.453125 21.37109375 C258.853125 21.37109375 252.253125 21.37109375 245.453125 21.37109375 Z M-82.546875 62.37109375 C-82.546875 85.80109375 -82.546875 109.23109375 -82.546875 133.37109375 C59.353125 133.37109375 201.253125 133.37109375 347.453125 133.37109375 C347.453125 109.94109375 347.453125 86.51109375 347.453125 62.37109375 C327.323125 62.37109375 307.193125 62.37109375 286.453125 62.37109375 C286.123125 70.62109375 285.793125 78.87109375 285.453125 87.37109375 C279.82414838 98.62904699 279.82414838 98.62904699 272.66894531 101.48071289 C266.93208011 103.06910853 261.12077981 102.78193765 255.203125 102.80859375 C254.56697266 102.8250293 254.56697266 102.8250293 251.34765625 102.90820312 C243.3479842 102.9536089 237.06213754 102.13553518 230.453125 97.37109375 C221.65408728 88.00856359 224.91686563 74.42835018 224.453125 62.37109375 C163.733125 62.37109375 103.013125 62.37109375 40.453125 62.37109375 C40.123125 70.95109375 39.793125 79.53109375 39.453125 88.37109375 C36.26135568 94.75463239 33.54545906 98.99746196 26.81689453 101.75805664 C21.35756536 103.17391861 15.61524702 102.79651556 10.015625 102.74609375 C9.37334961 102.75189453 9.37334961 102.75189453 6.12304688 102.78125 C-8.416116 102.73630668 -8.416116 102.73630668 -14.5703125 97.72265625 C-15.01632813 97.15289062 -15.46234375 96.583125 -15.921875 95.99609375 C-16.38335937 95.43148437 -16.84484375 94.866875 -17.3203125 94.28515625 C-23.7037931 84.32367379 -21.02633876 75.38449973 -21.546875 62.37109375 C-41.676875 62.37109375 -61.806875 62.37109375 -82.546875 62.37109375 Z M-82.546875 154.37109375 C-82.546875 258.98109375 -82.546875 363.59109375 -82.546875 471.37109375 C59.353125 471.37109375 201.253125 471.37109375 347.453125 471.37109375 C347.453125 366.76109375 347.453125 262.15109375 347.453125 154.37109375 C205.553125 154.37109375 63.653125 154.37109375 -82.546875 154.37109375 Z " fill="#000000" transform="translate(123.546875,-0.37109375)"/>
<path d="M0 0 C101.64 0 203.28 0 308 0 C308 78.21 308 156.42 308 237 C206.36 237 104.72 237 0 237 C0 158.79 0 80.58 0 0 Z M21 22 C21 38.5 21 55 21 72 C37.83 72 54.66 72 72 72 C72 55.5 72 39 72 22 C55.17 22 38.34 22 21 22 Z M93 22 C93 38.5 93 55 93 72 C109.5 72 126 72 143 72 C143 55.5 143 39 143 22 C126.5 22 110 22 93 22 Z M165 22 C165 38.5 165 55 165 72 C181.5 72 198 72 215 72 C215 55.5 215 39 215 22 C198.5 22 182 22 165 22 Z M236 22 C236 38.5 236 55 236 72 C252.83 72 269.66 72 287 72 C287 55.5 287 39 287 22 C270.17 22 253.34 22 236 22 Z M21 93 C21 109.5 21 126 21 143 C37.83 143 54.66 143 72 143 C72 126.5 72 110 72 93 C55.17 93 38.34 93 21 93 Z M93 93 C93 109.5 93 126 93 143 C109.5 143 126 143 143 143 C143 126.5 143 110 143 93 C126.5 93 110 93 93 93 Z M165 93 C165 109.5 165 126 165 143 C181.5 143 198 143 215 143 C215 126.5 215 110 215 93 C198.5 93 182 93 165 93 Z M236 93 C236 109.5 236 126 236 143 C252.83 143 269.66 143 287 143 C287 126.5 287 110 287 93 C270.17 93 253.34 93 236 93 Z M21 165 C21 181.5 21 198 21 215 C37.83 215 54.66 215 72 215 C72 198.5 72 182 72 165 C55.17 165 38.34 165 21 165 Z M93 165 C93 181.5 93 198 93 215 C109.5 215 126 215 143 215 C143 198.5 143 182 143 165 C126.5 165 110 165 93 165 Z M165 165 C165 181.5 165 198 165 215 C181.5 215 198 215 215 215 C215 198.5 215 182 215 165 C198.5 165 182 165 165 165 Z M236 165 C236 181.5 236 198 236 215 C252.83 215 269.66 215 287 215 C287 198.5 287 182 287 165 C270.17 165 253.34 165 236 165 Z " fill="#000000" transform="translate(102,194)"/>
</svg>
