<?xml version="1.0" encoding="UTF-8"?>
<!-- Generator: visioncortex VTracer 0.6.12 -->
<svg version="1.1" xmlns="http://www.w3.org/2000/svg" width="512" height="512">
<path d="M0 0 C1.28262222 -0.00700928 2.56524445 -0.01401855 3.88673401 -0.02124023 C7.37652815 -0.03933818 10.86584459 -0.03246293 14.35564613 -0.01972389 C18.0251548 -0.00952534 21.6946253 -0.01900845 25.36413574 -0.02526855 C31.52391832 -0.03252518 37.68350843 -0.02300974 43.84326172 -0.00390625 C50.94275765 0.01785884 58.04179393 0.01080604 65.14127874 -0.01121187 C71.26052172 -0.02942282 77.37962714 -0.03189653 83.49888849 -0.0214572 C87.14325133 -0.01525338 90.78739883 -0.01429996 94.43174744 -0.02760315 C98.49773939 -0.04141144 102.56295152 -0.02221964 106.62890625 0 C107.82089127 -0.00809692 109.01287628 -0.01619385 110.24098206 -0.02453613 C120.45548629 0.07848134 128.47180352 2.41908195 136.00097656 9.51904297 C139.14891847 12.98822074 141.54755868 16.81672425 143.93945312 20.83007812 C144.42542969 21.62091797 144.91140625 22.41175781 145.41210938 23.2265625 C145.89808594 24.01998047 146.3840625 24.81339844 146.88476562 25.63085938 C147.36195038 26.37873718 147.83913513 27.12661499 148.33078003 27.89715576 C149.81445312 30.51757812 149.81445312 30.51757812 150.62039185 33.14398193 C151.88539039 36.55599634 152.96609542 38.20441759 155.81445312 40.51757812 C163.01983839 42.51114294 170.96621337 41.74286706 178.36132812 41.60742188 C180.61565856 41.60358923 182.87000198 41.60460286 185.12432861 41.61024475 C191.05930542 41.61405991 196.99234072 41.56077288 202.92687988 41.49291992 C212.4098576 41.39426819 221.89333973 41.38332239 231.37674713 41.37014961 C234.67950587 41.35763715 237.98134716 41.32168209 241.28387451 41.28172302 C243.32629122 41.26868015 245.36871062 41.25604991 247.41113281 41.24389648 C247.86533096 41.23532372 247.86533096 41.23532372 250.16384888 41.19194031 C264.33168719 41.16053886 276.21267455 47.20585311 286.33398438 56.84179688 C294.25904379 65.39087672 299.92201111 77.42716344 299.9486742 89.20387268 C299.95313205 90.12194387 299.95758989 91.04001507 299.96218282 91.9859066 C299.96209064 92.48585042 299.96209064 92.48585042 299.96162415 95.01586914 C299.96530083 96.08494318 299.96897752 97.15401722 299.97276562 98.25548744 C299.98379418 101.84415794 299.98764494 105.43279947 299.99145508 109.02148438 C299.99772041 111.59223014 300.00436727 114.162975 300.0113678 116.73371887 C300.03110501 124.45293231 300.04119543 132.172147 300.05009559 139.89137936 C300.05448342 143.53079755 300.05984899 147.1702143 300.06508446 150.80963135 C300.08209482 162.9155853 300.09658722 175.02153837 300.1038332 187.12750244 C300.10574295 190.26713055 300.1076633 193.40675864 300.10961914 196.54638672 C300.11010288 197.32668086 300.11058662 198.106975 300.11108502 198.91091442 C300.11937875 211.5406856 300.1447054 224.17036186 300.17719982 236.80009162 C300.21032354 249.78076703 300.22828679 262.76139429 300.23147744 275.74211216 C300.23363774 283.02459667 300.2423157 290.3069428 300.26793861 297.58938599 C300.29200358 304.44468535 300.29543804 311.29973259 300.28517723 318.15506554 C300.28468261 320.66520706 300.29098104 323.17536096 300.30473328 325.68546486 C300.40822739 345.7026058 298.78899525 360.67350438 284.87695312 376.20507812 C280.93257709 379.96034024 276.69124662 382.49636777 271.87695312 384.95507812 C271.23314697 385.28531982 270.58934082 385.61556152 269.92602539 385.95581055 C259.55649446 390.9128952 248.78343394 390.80763673 237.51383972 390.77827454 C235.86455227 390.78129851 234.21526623 390.78518922 232.56598264 390.7898671 C228.05302024 390.80012424 223.54013749 390.79797111 219.02716863 390.79368651 C214.15246758 390.79121512 209.27778549 390.80023859 204.40309143 390.807724 C194.86026449 390.82046169 185.31746571 390.82226584 175.7746317 390.81992374 C168.01611087 390.81813933 160.25759857 390.81989285 152.49907875 390.82414818 C151.94656065 390.82444577 151.94656065 390.82444577 149.15048421 390.82595178 C146.90545405 390.82716356 144.6604239 390.82837769 142.41539375 390.82959416 C121.36966235 390.84046618 100.32394697 390.83830884 79.27821467 390.83220931 C60.03676329 390.82704083 40.79536255 390.83829439 21.55392119 390.85730753 C1.78397009 390.87669273 -17.98595706 390.88494071 -37.75591773 390.88118428 C-48.85007531 390.87927323 -59.9441898 390.88175046 -71.03833961 390.89589882 C-80.4832751 390.90782229 -89.92814097 390.90920666 -99.37307743 390.89710865 C-104.18886137 390.8912267 -109.00451802 390.89010163 -113.82029343 390.90211105 C-118.2351483 390.91299242 -122.64976996 390.90983978 -127.06461402 390.89584937 C-128.65538369 390.89320863 -130.24617177 390.89554924 -131.83692334 390.90358523 C-149.23548861 390.9853251 -164.4873552 388.13193171 -177.56054688 375.83007812 C-188.24783192 364.36079662 -192.66800465 351.79026069 -192.57322693 336.29776001 C-192.57861247 335.22355942 -192.583998 334.14935883 -192.58954674 333.04260671 C-192.60376087 329.47245832 -192.59673864 325.90268414 -192.58959961 322.33251953 C-192.59530659 319.76088668 -192.60227212 317.18925636 -192.61039734 314.61763 C-192.62753107 308.37495659 -192.62843667 302.13238408 -192.62318444 295.88969328 C-192.61913125 290.81187231 -192.62059988 285.73408101 -192.62593269 280.65626144 C-192.62668112 279.93158522 -192.62742954 279.20690901 -192.62820064 278.4602729 C-192.62973223 276.98775327 -192.63127058 275.51523366 -192.63281561 274.04271404 C-192.64652108 260.25575229 -192.64111678 246.46884739 -192.62963039 232.68188696 C-192.61970064 220.09128527 -192.63263766 207.50083059 -192.65656459 194.91025157 C-192.68099466 181.95649314 -192.69055384 169.00280307 -192.68391186 156.04902208 C-192.68042823 148.78676412 -192.68259483 141.52461914 -192.70016289 134.26237869 C-192.7164834 127.43159861 -192.7116426 120.60110292 -192.69285774 113.77033043 C-192.68918023 111.26986811 -192.69225573 108.76938491 -192.70274353 106.26894188 C-192.78129581 85.98540828 -191.00304589 70.17419837 -176.56835938 54.81054688 C-169.20206822 47.72200112 -158.59155569 41.88199001 -148.14672756 41.42919254 C-147.78331028 41.43765563 -147.78331028 41.43765563 -145.94419861 41.48048401 C-145.10476715 41.49670807 -144.26533569 41.51293213 -143.40046692 41.52964783 C-142.48770493 41.55217117 -141.57494293 41.57469452 -140.63452148 41.59790039 C-138.62818563 41.63730825 -136.6218317 41.675804 -134.61546326 41.71351624 C-134.08393111 41.72396249 -134.08393111 41.72396249 -131.39405632 41.77682686 C-124.57018735 41.89479899 -117.74533242 41.93115601 -110.92066097 41.97691441 C-104.92776746 42.02163391 -98.93878704 42.09887372 -92.94750977 42.24780273 C-87.14513675 42.39040512 -81.34787776 42.44421174 -75.54382515 42.43861198 C-73.33915503 42.45209601 -71.13443137 42.49722434 -68.93110466 42.57534981 C-52.15236294 43.14312608 -52.15236294 43.14312608 -47.20643997 38.76612473 C-43.73086887 34.47473892 -41.37578949 29.76478225 -39.18892097 24.71975517 C-34.24508574 13.86916567 -27.24531435 5.66549429 -16.09568787 1.35462952 C-10.78181213 -0.17381432 -5.49312138 -0.03731371 0 0 Z M-14.93481445 26.56079102 C-15.19597046 26.95133667 -15.19597046 26.95133667 -16.51757812 28.92773438 C-16.81510986 29.37125244 -16.81510986 29.37125244 -18.32080078 31.61572266 C-22.26377684 37.75165005 -26.06718464 43.97155746 -29.84375 50.2109375 C-30.47603516 51.23896484 -31.10832031 52.26699219 -31.75976562 53.32617188 C-32.32268311 54.25228271 -32.88560059 55.17839355 -33.46557617 56.13256836 C-35.62353288 59.12491458 -37.5695045 61.23238201 -41.30245304 61.89116573 C-41.68430618 61.89087258 -41.68430618 61.89087258 -43.61671448 61.88938904 C-44.05746559 61.89276779 -44.05746559 61.89276779 -46.28793335 61.90986633 C-46.76769119 61.9060067 -46.76769119 61.9060067 -49.19555664 61.88647461 C-50.21235001 61.89024109 -51.22914337 61.89400757 -52.27674866 61.89788818 C-54.48549541 61.90432468 -56.69426985 61.90398687 -58.90301704 61.89770317 C-62.40566101 61.88859724 -65.90776907 61.89881374 -69.41038513 61.9143219 C-79.36936587 61.95442183 -89.32830549 61.9556315 -99.28735352 61.95336914 C-105.38047707 61.95331787 -111.47331373 61.972577 -117.56635857 62.00270271 C-121.00460068 62.01348419 -124.44228455 62.00141942 -127.88050842 61.98887634 C-130.01026956 61.99778835 -132.14002624 62.00786536 -134.26977539 62.01928711 C-135.21512146 62.00954361 -136.16046753 61.99980011 -137.13446045 61.98976135 C-147.27806721 62.0975557 -155.89592196 65.19083201 -163.24023438 72.23242188 C-170.34612673 80.57970506 -171.33545202 89.13806103 -171.32598877 99.66314697 C-171.32895989 100.69420775 -171.33193101 101.72526853 -171.33499217 102.78757358 C-171.34367357 106.24738798 -171.34518695 109.70716775 -171.34667969 113.16699219 C-171.35130823 115.64570693 -171.35633294 118.12442096 -171.36172485 120.60313416 C-171.37484684 127.34083212 -171.38133019 134.07851653 -171.38573551 140.8162241 C-171.38850068 145.02533913 -171.39273852 149.23445188 -171.39723969 153.44356537 C-171.40942991 165.10345439 -171.41972986 176.76334159 -171.42311478 188.42323685 C-171.42333434 189.16910283 -171.42355391 189.91496881 -171.42378013 190.6834368 C-171.42399841 191.431059 -171.42421668 192.17868121 -171.42444158 192.94895864 C-171.42488504 194.46385654 -171.4253316 195.97875444 -171.42578125 197.49365234 C-171.42600268 198.24508958 -171.42622411 198.99652682 -171.42645225 199.77073488 C-171.43039947 211.94406717 -171.44785225 224.11733957 -171.47114077 236.29064873 C-171.49487224 248.7967001 -171.50731744 261.30272144 -171.50848269 273.80879569 C-171.50939842 280.82731881 -171.51512495 287.84576387 -171.53330231 294.86426544 C-171.55034222 301.46671289 -171.5519425 308.06903852 -171.5431633 314.6715107 C-171.54239249 317.09302479 -171.54674138 319.51454682 -171.55662155 321.93604088 C-171.56933176 325.24556174 -171.56346882 328.55455733 -171.55303955 331.86407471 C-171.56109596 332.81885845 -171.56915236 333.7736422 -171.5774529 334.75735879 C-171.5053798 344.55838307 -168.66950938 353.05119706 -162.18554688 360.51757812 C-155.48225124 366.13969705 -148.99404853 368.76463368 -140.19701004 368.77484703 C-139.51435672 368.77835311 -138.8317034 368.78185918 -138.12836361 368.7854715 C-135.84210621 368.79477142 -133.55610432 368.78986589 -131.26983643 368.78500366 C-129.61361317 368.78874064 -127.95739167 368.79334235 -126.30117297 368.79873431 C-121.75058231 368.81097395 -117.20006512 368.8107027 -112.64946175 368.80834556 C-107.74134308 368.80793763 -102.83324805 368.81897423 -97.92514038 368.82846069 C-88.30924785 368.84507711 -78.69337983 368.85057054 -69.07747415 368.85168545 C-61.26114651 368.85263565 -53.44482697 368.85674454 -45.62850189 368.8630867 C-23.46891689 368.8807011 -1.30935126 368.8899253 20.8502408 368.88842575 C22.04499337 368.88834584 23.23974593 368.88826593 24.47070312 368.88818359 C25.66691415 368.88810183 26.86312517 368.88802007 28.09558502 368.88793583 C47.48159415 368.88712294 66.86752558 368.90626083 86.25351223 368.93446033 C106.15779444 368.96318533 126.06203875 368.97700082 145.96634221 368.97527277 C157.14152256 368.97460873 168.31662146 368.98010751 179.49178314 369.00162888 C189.00681646 369.01983563 198.52173141 369.02419215 208.03677461 369.01061003 C212.89067672 369.00407778 217.74435172 369.00397253 222.59823227 369.02131653 C227.04460469 369.03704086 231.49056979 369.03419013 235.93693224 369.01674826 C237.54257476 369.01367696 239.14824764 369.0173157 240.75385436 369.02846842 C251.12679029 369.09572871 259.24745357 368.15753937 268.06445312 362.39257812 C276.62981376 353.43788291 279.12263098 344.16397411 279.07514954 332.13822937 C279.07897508 331.10616531 279.08280063 330.07410124 279.0867421 329.01076251 C279.09704419 325.55945037 279.09308519 322.10830546 279.08911133 318.65698242 C279.09345937 316.17959438 279.09864282 313.70220769 279.104599 311.224823 C279.11660054 305.19785035 279.11914145 299.1709432 279.11679874 293.14396461 C279.11501359 288.24289634 279.11676944 283.34184157 279.12102318 278.44077492 C279.12132077 278.09160955 279.12132077 278.09160955 279.12282678 276.32462117 C279.12403857 274.90580822 279.12525271 273.48699527 279.12646916 272.06818233 C279.13733941 258.76967899 279.13518481 245.47120103 279.12908431 232.17269627 C279.12391719 220.01956192 279.1351661 207.86650778 279.15418253 195.7133893 C279.17357783 183.22195474 279.18181387 170.73055809 279.17805928 158.23910838 C279.1761496 151.23120885 279.17861191 144.22337756 279.19277382 137.21549034 C279.20596049 130.62367413 279.2034046 124.03199162 279.19036293 117.44016647 C279.18799828 115.02391188 279.19072782 112.60764598 279.19898605 110.19140434 C279.20946439 106.88671015 279.20134355 103.58255298 279.18867493 100.27787781 C279.19604921 99.32737114 279.2034235 98.37686448 279.21102124 97.39755458 C279.13057741 87.38589063 276.81657081 78.8840594 269.81445312 71.51757812 C261.62896658 63.90196723 252.99382675 62.05867588 242.04980469 62.16455078 C241.01288986 62.16239059 239.97597504 62.16023041 238.90763855 62.15800476 C236.67167371 62.15493268 234.43569178 62.15847931 232.19974518 62.16801834 C228.66054555 62.18181421 225.12190289 62.17528637 221.58270264 62.16317749 C211.52596266 62.13228545 201.46935562 62.13714999 191.41259766 62.15722656 C185.24886079 62.16813046 179.0855456 62.15498923 172.92186737 62.12733078 C170.57590752 62.12188669 168.22990558 62.12596301 165.8839798 62.13972855 C162.60935708 62.15873244 159.33612152 62.14740592 156.06152344 62.12939453 C155.0931102 62.14273331 154.12469696 62.15607208 153.12693787 62.16981506 C148.51513302 62.11332936 146.49519241 62.05528349 142.77613831 59.11766052 C141.02842035 56.80117736 139.3204629 54.52470396 137.76367188 52.07617188 C137.23386719 51.25044678 136.7040625 50.42472168 136.15820312 49.57397461 C135.88492188 49.14185669 135.88492188 49.14185669 134.50195312 46.95507812 C133.34979882 45.16328963 132.19745555 43.37162262 131.04492188 41.58007812 C129.53021954 39.21084922 128.01825391 36.84010302 126.51611328 34.46289062 C125.45733572 32.78825221 124.38645809 31.12128013 123.31445312 29.45507812 C123.03085937 29.00583984 123.03085937 29.00583984 121.59570312 26.73242188 C119.02989903 23.54204704 116.38280608 21.75232867 112.29224396 21.1400547 C111.39630272 21.13892363 110.50036148 21.13779255 109.57727051 21.1366272 C108.54268204 21.12816772 107.50809357 21.11970825 106.44215393 21.11099243 C105.3178447 21.11706512 104.19353546 21.12313782 103.03515625 21.12939453 C101.8427684 21.12413757 100.65038055 21.11888062 99.42185974 21.11346436 C96.15940355 21.10253564 92.89731348 21.10507942 89.6348629 21.11460161 C86.21656922 21.12221047 82.79829955 21.1151492 79.38000488 21.11044312 C73.6401736 21.10498912 67.90045821 21.11216776 62.16064453 21.12646484 C55.5298466 21.14279078 48.89932541 21.13750201 42.26853418 21.12098563 C36.56986454 21.10736055 30.87127808 21.10545606 25.17259741 21.11330163 C21.77147735 21.11797257 18.37048726 21.11861907 14.96937561 21.10869217 C11.17730947 21.10108234 7.3857764 21.11267638 3.59375 21.12939453 C3.03159538 21.12635818 3.03159538 21.12635818 0.18675232 21.11099243 C-0.84783615 21.1194519 -1.88242462 21.12791138 -2.94836426 21.1366272 C-3.8443055 21.13775827 -4.74024673 21.13888935 -5.66333771 21.1400547 C-9.66162961 21.73851769 -12.33112968 23.51958545 -14.93481445 26.56079102 Z " fill="#000000" transform="translate(202.185546875,50.482421875)"/>
<path d="M0 0 C21.43955828 19.73969241 36.48910783 46.61664222 38.24853516 76.12402344 C39.40777627 105.87626197 32.57658453 135.70011593 12.08007812 158.29882812 C11.39558594 159.11222656 10.71109375 159.925625 10.00585938 160.76367188 C-7.45835073 181.11245528 -33.85993902 196.20680465 -60.91992188 198.29882812 C-93.35872032 199.93553343 -122.88695224 194.05761796 -147.91992188 172.29882812 C-148.32984375 171.95529297 -148.32984375 171.95529297 -150.40429688 170.21679688 C-171.35462922 152.16177443 -184.88855793 125.80988579 -187.91992188 98.29882812 C-189.61052164 67.35350196 -183.13928257 36.98163552 -162.43164062 13.02148438 C-154.57816011 4.50845807 -146.87214234 -3.61761871 -136.91992188 -9.70117188 C-135.88609375 -10.35601562 -134.85226563 -11.01085937 -133.78710938 -11.68554688 C-92.37212909 -37.16061729 -36.36679985 -32.2232784 0 0 Z M-143.71679688 24.25195312 C-160.53332152 43.71835438 -168.50999592 68.03779149 -166.68164062 93.63476562 C-164.54054676 113.92108935 -156.51109288 132.04766676 -142.91992188 147.29882812 C-142.5821875 147.6778125 -142.5821875 147.6778125 -140.87304688 149.59570312 C-126.36141646 164.95472802 -104.31381551 176.4089608 -82.91992188 177.29882812 C-81.77394531 177.35039062 -80.62796875 177.40195312 -79.44726562 177.45507812 C-53.14881481 178.24151895 -29.86820723 168.75327423 -10.48242188 151.07617188 C7.42341195 133.92649657 16.68530103 109.8184548 17.33007812 85.23632812 C16.59722449 59.06914242 5.76237013 35.56595808 -12.91992188 17.29882812 C-51.35323026 -15.92881601 -108.97189189 -13.37593396 -143.71679688 24.25195312 Z " fill="#000000" transform="translate(330.919921875,180.701171875)"/>
<path d="M0 0 C7.81682941 5.20610053 13.85872254 11.39291984 16.36328125 20.63671875 C18.1154911 30.42550649 16.06703631 39.32541144 10.51953125 47.484375 C5.57110023 53.72826791 -1.13761612 57.82438968 -9.01171875 59.32421875 C-19.22456228 60.23768423 -27.29769658 58.63046209 -35.32421875 52.07421875 C-42.48215637 45.29225361 -45.84692328 37.79768826 -46.38671875 28.01171875 C-46.17700427 19.91673991 -42.74683012 11.11726054 -37.01171875 5.32421875 C-26.65215436 -2.96343276 -12.32126842 -6.61311017 0 0 Z M-23.01171875 22.32421875 C-24.58627614 25.47333354 -24.35970993 27.84430691 -24.01171875 31.32421875 C-22.24181937 34.62901013 -20.05821258 36.86805477 -16.57421875 38.38671875 C-12.22634914 38.28067315 -9.22224464 36.49439378 -6.13671875 33.51171875 C-4.61194349 30.54687797 -4.60782917 28.62265028 -5.01171875 25.32421875 C-6.30486647 22.47929378 -7.32329864 20.80611283 -9.88671875 19.01171875 C-15.52012615 17.18914577 -18.41124937 18.76931059 -23.01171875 22.32421875 Z " fill="#000000" transform="translate(117.01171875,135.67578125)"/>
</svg>
