<?xml version="1.0" encoding="UTF-8"?>
<!-- Generator: visioncortex VTracer 0.6.12 -->
<svg version="1.1" xmlns="http://www.w3.org/2000/svg" width="512" height="512">
<path d="M0 0 C1.11013 -0.00716 2.22026 -0.01431 3.36403 -0.02168 C3.97081 -0.02303 3.97081 -0.02303 7.04147 -0.02983 C8.32322 -0.0364 9.60497 -0.04297 10.92555 -0.04974 C15.17365 -0.07074 19.42175 -0.08114 23.66989 -0.09111 C25.13573 -0.09516 26.60157 -0.09928 28.06741 -0.10346 C34.95732 -0.12251 41.84723 -0.13674 48.73716 -0.14507 C56.67284 -0.15483 64.60823 -0.18113 72.54381 -0.22157 C78.68837 -0.25181 84.83286 -0.26655 90.97749 -0.26985 C94.64212 -0.2722 98.30644 -0.28105 101.97098 -0.30631 C106.06627 -0.33409 110.16094 -0.32974 114.25632 -0.3228 C115.45773 -0.33561 116.65914 -0.34842 117.89696 -0.36162 C128.04907 -0.29907 136.15519 1.97406 143.65231 9.0417 C147.24417 13.05416 149.99839 17.55695 152.78708 22.14717 C153.3852 23.10623 153.98333 24.0653 154.59958 25.05342 C159.36064 32.72168 159.36064 32.72168 161.03716 36.76468 C162.34445 39.02709 162.9826 39.96575 165.49217 40.78686 C168.06765 41.02442 170.56224 41.03236 173.14816 40.97017 C174.12273 40.97452 175.0973 40.97887 176.10139 40.98335 C179.32954 40.99038 182.5553 40.94894 185.78317 40.90889 C188.03318 40.90812 190.28319 40.911 192.53319 40.91739 C198.46824 40.927 204.40241 40.89831 210.33731 40.85823 C219.80385 40.79691 229.27015 40.77708 238.73686 40.78805 C242.03007 40.78397 245.32229 40.75373 248.61531 40.72107 C266.039 40.6402 279.98224 43.06802 293.28708 55.39717 C301.85079 64.57846 307.64256 76.13924 307.6713 88.83347 C307.67576 89.75154 307.68022 90.66961 307.68481 91.6155 C307.68472 92.11544 307.68472 92.11544 307.68425 94.64546 C307.68793 95.71454 307.6916 96.78361 307.69539 97.88508 C307.70642 101.47375 307.71027 105.06239 307.71408 108.65108 C307.72035 111.22182 307.72699 113.79257 307.73399 116.36331 C307.75373 124.08253 307.76382 131.80174 307.77272 139.52097 C307.77711 143.16039 307.78247 146.79981 307.78771 150.43922 C307.80472 162.54518 307.81921 174.65113 307.82646 186.7571 C307.82837 189.89672 307.83029 193.03635 307.83224 196.17598 C307.83273 196.95627 307.83321 197.73657 307.83371 198.54051 C307.842 211.17028 307.86733 223.79995 307.89983 236.42968 C307.93295 249.41036 307.95091 262.39099 307.9541 275.37171 C307.95626 282.65419 307.96494 289.93654 307.99056 297.21898 C308.01463 304.07428 308.01806 310.92933 308.0078 317.78466 C308.00731 320.2948 308.01361 322.80495 308.02736 325.31506 C308.12873 344.92163 306.90368 360.65015 292.66208 375.45967 C281.94973 385.64597 269.41174 390.26327 254.58816 390.2786 C253.90978 390.28065 253.2314 390.2827 252.53247 390.28482 C250.26079 390.29047 247.98917 390.28903 245.71748 390.28761 C244.07165 390.2902 242.42582 390.29321 240.77998 390.29662 C236.258 390.30468 231.73604 390.30648 227.21406 390.30721 C222.33656 390.30907 217.45908 390.31661 212.58159 390.32335 C201.91612 390.33693 191.25066 390.34296 180.58519 390.34736 C173.92386 390.35012 167.26254 390.35436 160.60121 390.35886 C142.15324 390.37106 123.70526 390.38136 105.25728 390.38474 C104.667 390.38485 104.667 390.38485 101.67981 390.3854 C100.49644 390.38562 99.31307 390.38584 98.09384 390.38607 C95.69593 390.38651 93.29803 390.38696 90.90012 390.38741 C89.71067 390.38763 88.52123 390.38785 87.29574 390.38808 C68.02817 390.39202 48.76064 390.40947 29.49309 390.43276 C9.70519 390.45649 -10.08269 390.46894 -29.87061 390.47011 C-40.97825 390.47102 -52.08583 390.47676 -63.19345 390.49493 C-72.65312 390.51034 -82.11272 390.51544 -91.5724 390.50719 C-96.39626 390.50329 -101.21999 390.50418 -106.04383 390.51825 C-110.46625 390.53102 -114.88843 390.52976 -119.31084 390.51765 C-120.90442 390.5157 -122.49802 390.51875 -124.09158 390.5275 C-141.63048 390.61767 -156.18436 387.78996 -169.20901 375.39717 C-169.9528 374.65467 -170.69659 373.91217 -171.46292 373.14717 C-172.05202 372.56967 -172.64112 371.99217 -173.24808 371.39717 C-182.32832 361.73635 -184.77029 349.07206 -184.73035 336.28812 C-184.73488 335.21648 -184.73941 334.14484 -184.74408 333.04073 C-184.75671 329.46134 -184.7551 325.8821 -184.75345 322.30269 C-184.75943 319.7315 -184.76624 317.16031 -184.7738 314.58913 C-184.79038 308.33604 -184.79591 302.08299 -184.79703 295.82988 C-184.79798 290.74341 -184.8021 285.65695 -184.80843 280.57049 C-184.82603 266.12983 -184.83527 251.6892 -184.83377 237.24853 C-184.83369 236.47089 -184.83361 235.69325 -184.83353 234.89204 C-184.83344 234.11345 -184.83336 233.33485 -184.83328 232.53266 C-184.83247 219.92247 -184.85159 207.3124 -184.8798 194.70225 C-184.90858 181.73503 -184.92234 168.76788 -184.92062 155.80063 C-184.91995 148.52826 -184.92538 141.25601 -184.94697 133.98367 C-184.96716 127.14063 -184.96646 120.29786 -184.95194 113.4548 C-184.94985 110.9495 -184.95454 108.44418 -184.96666 105.93891 C-185.05784 85.77824 -183.3554 69.79322 -168.97073 54.50655 C-154.34659 40.748 -137.99442 40.57073 -119.09964 40.75655 C-116.85378 40.76402 -114.60791 40.76971 -112.36205 40.7737 C-106.49135 40.78887 -100.62106 40.82807 -94.75052 40.87251 C-88.7439 40.91365 -82.73722 40.93175 -76.7305 40.95186 C-64.97446 40.99458 -53.21873 41.06272 -41.46292 41.14717 C-41.16437 40.37546 -40.86581 39.60375 -40.55821 38.80865 C-39.36217 35.90235 -37.87778 33.47064 -36.16214 30.83858 C-35.51439 29.84407 -34.86663 28.84955 -34.19925 27.82491 C-33.52314 26.79688 -32.84702 25.76885 -32.15042 24.70967 C-31.48591 23.68551 -30.8214 22.66135 -30.13675 21.60616 C-20.97435 7.60426 -20.97435 7.60426 -14.40042 3.83467 C-13.56382 3.34354 -12.72722 2.85241 -11.86526 2.34639 C-7.86867 0.35134 -4.44531 0.0197 0 0 Z M-109.2637 102.1003 C-111.92515 106.64296 -112.90084 111.36771 -112.08011 116.57686 C-110.38281 122.3711 -107.6952 127.19687 -102.3848 130.40108 C-97.67392 132.70043 -93.74473 133.98114 -88.46292 133.14717 C-81.40073 130.6337 -77.19464 127.64759 -73.46292 121.14717 C-71.71294 115.89723 -71.32576 109.99716 -73.40433 104.7878 C-76.7555 99.19901 -81.04604 94.89723 -87.46292 93.14717 C-96.50395 92.00186 -103.62768 94.87383 -109.2637 102.1003 Z M-11.46292 130.14717 C-12.16159 130.70405 -12.86026 131.26092 -13.58011 131.83467 C-33.51328 148.13558 -46.94366 174.99544 -50.17776 200.36592 C-52.72434 234.1342 -44.72763 263.6153 -22.78714 289.61201 C-5.09886 310.1179 20.63315 323.81075 47.53708 327.14717 C63.13452 328.2065 78.5759 327.91877 93.53708 323.14717 C94.22157 322.93286 94.90606 322.71856 95.6113 322.49776 C109.23433 318.10797 121.64335 311.49316 132.53708 302.14717 C133.35821 301.44721 134.17934 300.74725 135.02536 300.02608 C153.67714 283.69516 165.60416 263.12402 171.53708 239.14717 C171.78458 238.1778 172.03208 237.20842 172.28708 236.20967 C178.06333 208.61204 171.33918 178.79054 156.53708 155.14717 C153.75563 150.975 150.69719 147.03831 147.53708 143.14717 C146.96345 142.42014 146.38981 141.69311 145.7988 140.94405 C141.06044 135.19921 135.4232 130.67244 129.53708 126.14717 C128.75591 125.53873 127.97474 124.9303 127.16989 124.30342 C85.01226 93.07555 28.09724 97.52932 -11.46292 130.14717 Z " fill="#000000" transform="translate(194.46292114257813,50.85282897949219)"/>
<path d="M0 0 C20.52476 16.32622 33.82272 38.54326 36.91406 64.75781 C39.01782 92.01895 30.8818 116.83387 13.22656 137.63281 C-1.99351 155.32268 -24.77329 165.51334 -47.77344 167.63281 C-72.99679 169.11961 -97.85259 162.08803 -117.03784 145.229 C-137.13177 126.80933 -146.90257 104.36012 -149.01953 77.51172 C-149.60816 54.20875 -141.49371 30.88677 -125.77344 13.63281 C-124.88914 12.6557 -124.00484 11.67859 -123.09375 10.67188 C-91.34136 -23.27348 -37.28533 -27.29323 0 0 Z " fill="#000000" transform="translate(311.7734375,191.3671875)"/>
</svg>
