<?xml version="1.0" encoding="UTF-8"?>
<!-- Generator: visioncortex VTracer 0.6.12 -->
<svg version="1.1" xmlns="http://www.w3.org/2000/svg" width="512" height="512">
<path d="M0 0 C2.67814128 2.46739961 5.29485318 4.99510874 7.90722656 7.53173828 C8.48069824 8.07942871 9.05416992 8.62711914 9.64501953 9.19140625 C17.69597852 16.8908909 24.99754603 24.85891546 31.63232422 33.8125 C32.86993636 35.4814515 34.12776476 37.13351381 35.38769531 38.78564453 C58.08005465 69.03311337 72.0138823 105.36185414 77.90722656 142.53173828 C77.97216309 142.93013916 77.97216309 142.93013916 78.30078125 144.94628906 C87.49808608 204.18775254 70.90461913 267.60732277 35.71582031 315.76220703 C28.97067953 324.85563939 21.70698549 333.33450816 13.90722656 341.53173828 C13.6375708 341.81573486 13.6375708 341.81573486 12.27294922 343.25292969 C4.56823705 351.30937387 -3.41434167 358.61790141 -12.37353516 365.25683594 C-14.04248666 366.49444808 -15.69454897 367.75227648 -17.34667969 369.01220703 C-66.43078389 405.83625125 -130.43930817 419.96888976 -190.78027344 411.57080078 C-240.00019297 403.90115409 -284.10501452 381.77450559 -320.09277344 347.53173828 C-320.37677002 347.26208252 -320.37677002 347.26208252 -321.81396484 345.89746094 C-329.87040903 338.19274877 -337.17893657 330.21017005 -343.81787109 321.25097656 C-345.05548324 319.58202506 -346.31331163 317.92996275 -347.57324219 316.27783203 C-370.26560152 286.03036319 -384.19942918 249.70162242 -390.09277344 212.53173828 C-390.22264648 211.73493652 -390.35251953 210.93813477 -390.48632812 210.1171875 C-399.68363296 150.87572402 -383.090166 87.45615379 -347.90136719 39.30126953 C-341.15622641 30.20783717 -333.89253236 21.72896841 -326.09277344 13.53173828 C-325.55346191 12.96374512 -325.01415039 12.39575195 -324.45849609 11.81054688 C-316.75378393 3.75410269 -308.77120521 -3.55442485 -299.81201172 -10.19335938 C-298.14306022 -11.43097152 -296.49099791 -12.68879991 -294.83886719 -13.94873047 C-264.2541345 -36.89411304 -227.69397829 -50.72752259 -190.09277344 -56.46826172 C-189.26970703 -56.59813477 -188.44664062 -56.72800781 -187.59863281 -56.86181641 C-121.04208593 -66.93844373 -49.86197391 -44.87577652 0 0 Z M-312.09277344 29.53173828 C-351.70093337 69.50607534 -371.17764453 126.48730632 -371.08886719 181.97314453 C-370.39197507 241.60719829 -343.22167919 294.76126526 -301.53417969 336.06689453 C-259.95618335 374.70007494 -203.28992946 393.91224879 -147.00585938 392.44018555 C-88.58999909 389.99060882 -34.9329787 363.19744467 4.59472656 320.65673828 C42.04517003 277.51495162 61.77743895 221.40923134 58.58276367 164.26953125 C54.45679696 106.88771935 28.2364164 52.61269623 -15.36621094 14.76220703 C-88.30081227 -44.90205853 -193.55933038 -56.20626759 -312.09277344 29.53173828 Z " fill="#000000" transform="translate(412.0927734375,78.46826171875)"/>
<path d="M0 0 C5.16194716 2.9806848 9.11736937 6.84427262 13.29052734 11.06347656 C13.99366058 11.76631775 14.69679382 12.46915894 15.42123413 13.19329834 C17.730911 15.50436218 20.03343365 17.82241651 22.3359375 20.140625 C23.94118248 21.74960235 25.54687126 23.35813704 27.15298462 24.96624756 C31.36924852 29.19013022 35.57947037 33.41998558 39.78845215 37.65112305 C44.08840027 41.9715674 48.39404933 46.28632207 52.69921875 50.6015625 C61.13839428 59.06215695 69.57119618 67.52907365 78 76 C80.89555699 74.68957007 82.95344259 73.29261319 85.1875 71.03955078 C85.79303711 70.43387268 86.39857422 69.82819458 87.02246094 69.2041626 C87.67504883 68.54124207 88.32763672 67.87832153 89 67.1953125 C89.69641602 66.49597595 90.39283203 65.7966394 91.11035156 65.07611084 C92.62071557 63.55814014 94.12876469 62.03786344 95.63476562 60.51556396 C98.01743279 58.10738052 100.40628312 55.70549091 102.796875 53.30517578 C107.87018426 48.20900186 112.9356386 43.105064 118 38 C123.86810865 32.08472898 129.73937212 26.17266522 135.61914062 20.26898193 C137.9741667 17.90097568 140.32309501 15.52703145 142.671875 13.15283203 C144.11428698 11.70315559 145.55698016 10.25375887 147 8.8046875 C147.65258789 8.14176697 148.30517578 7.47884644 148.97753906 6.7958374 C149.58307617 6.1901593 150.18861328 5.5844812 150.8125 4.96044922 C151.07353516 4.69719345 151.07353516 4.69719345 152.39453125 3.36495972 C155.09088247 1.0725384 157.36959662 0.08222653 160.875 -0.375 C164.87153796 0.10458455 166.90459308 1.46739433 170 4 C172.35242347 7.20785018 172.4684209 10.09649252 172 14 C169.0193152 19.16194716 165.15572738 23.11736937 160.93652344 27.29052734 C160.58510284 27.64209396 160.58510284 27.64209396 158.80670166 29.42123413 C156.49563782 31.730911 154.17758349 34.03343365 151.859375 36.3359375 C150.25039765 37.94118248 148.64186296 39.54687126 147.03375244 41.15298462 C142.80986978 45.36924852 138.58001442 49.57947037 134.34887695 53.78845215 C130.0284326 58.08840027 125.71367793 62.39404933 121.3984375 66.69921875 C112.93784305 75.13839428 104.47092635 83.57119618 96 92 C97.31042993 94.89555699 98.70738681 96.95344259 100.96044922 99.1875 C101.56612732 99.79303711 102.17180542 100.39857422 102.7958374 101.02246094 C103.45875793 101.67504883 104.12167847 102.32763672 104.8046875 103 C105.50402405 103.69641602 106.2033606 104.39283203 106.92388916 105.11035156 C108.44185986 106.62071557 109.96213656 108.12876469 111.48443604 109.63476562 C113.89261948 112.01743279 116.29450909 114.40628312 118.69482422 116.796875 C123.79099814 121.87018426 128.894936 126.9356386 134 132 C139.91527102 137.86810865 145.82733478 143.73937212 151.73101807 149.61914062 C154.09902432 151.9741667 156.47296855 154.32309501 158.84716797 156.671875 C160.29684441 158.11428698 161.74624113 159.55698016 163.1953125 161 C163.85823303 161.65258789 164.52115356 162.30517578 165.2041626 162.97753906 C165.8098407 163.58307617 166.4155188 164.18861328 167.03955078 164.8125 C167.56606232 165.33457031 168.09257385 165.85664063 168.63504028 166.39453125 C170.9274616 169.09088247 171.91777347 171.36959662 172.375 174.875 C171.89541545 178.87153796 170.53260567 180.90459308 168 184 C164.79214982 186.35242347 161.90350748 186.4684209 158 186 C152.83805284 183.0193152 148.88263063 179.15572738 144.70947266 174.93652344 C144.00633942 174.23368225 143.30320618 173.53084106 142.57876587 172.80670166 C140.269089 170.49563782 137.96656635 168.17758349 135.6640625 165.859375 C134.05881752 164.25039765 132.45312874 162.64186296 130.84701538 161.03375244 C126.63075148 156.80986978 122.42052963 152.58001442 118.21154785 148.34887695 C113.91159973 144.0284326 109.60595067 139.71367793 105.30078125 135.3984375 C96.86160572 126.93784305 88.42880382 118.47092635 80 110 C77.10444301 111.31042993 75.04655741 112.70738681 72.8125 114.96044922 C72.20696289 115.56612732 71.60142578 116.17180542 70.97753906 116.7958374 C70.32495117 117.45875793 69.67236328 118.12167847 69 118.8046875 C68.30358398 119.50402405 67.60716797 120.2033606 66.88964844 120.92388916 C65.37928443 122.44185986 63.87123531 123.96213656 62.36523438 125.48443604 C59.98256721 127.89261948 57.59371688 130.29450909 55.203125 132.69482422 C50.12981574 137.79099814 45.0643614 142.894936 40 148 C34.13189135 153.91527102 28.26062788 159.82733478 22.38085938 165.73101807 C20.0258333 168.09902432 17.67690499 170.47296855 15.328125 172.84716797 C13.88571302 174.29684441 12.44301984 175.74624113 11 177.1953125 C10.34741211 177.85823303 9.69482422 178.52115356 9.02246094 179.2041626 C8.41692383 179.8098407 7.81138672 180.4155188 7.1875 181.03955078 C6.66542969 181.56606232 6.14335937 182.09257385 5.60546875 182.63504028 C2.90911753 184.9274616 0.63040338 185.91777347 -2.875 186.375 C-6.87153796 185.89541545 -8.90459308 184.53260567 -12 182 C-14.35242347 178.79214982 -14.4684209 175.90350748 -14 172 C-11.0193152 166.83805284 -7.15572738 162.88263063 -2.93652344 158.70947266 C-2.23368225 158.00633942 -1.53084106 157.30320618 -0.80670166 156.57876587 C1.50436218 154.269089 3.82241651 151.96656635 6.140625 149.6640625 C7.74960235 148.05881752 9.35813704 146.45312874 10.96624756 144.84701538 C15.19013022 140.63075148 19.41998558 136.42052963 23.65112305 132.21154785 C27.9715674 127.91159973 32.28632207 123.60595067 36.6015625 119.30078125 C45.06215695 110.86160572 53.52907365 102.42880382 62 94 C60.68957007 91.10444301 59.29261319 89.04655741 57.03955078 86.8125 C56.43387268 86.20696289 55.82819458 85.60142578 55.2041626 84.97753906 C54.54124207 84.32495117 53.87832153 83.67236328 53.1953125 83 C52.49597595 82.30358398 51.7966394 81.60716797 51.07611084 80.88964844 C49.55814014 79.37928443 48.03786344 77.87123531 46.51556396 76.36523438 C44.10738052 73.98256721 41.70549091 71.59371688 39.30517578 69.203125 C34.20900186 64.12981574 29.105064 59.0643614 24 54 C18.08472898 48.13189135 12.17266522 42.26062788 6.26898193 36.38085938 C3.90097568 34.0258333 1.52703145 31.67690499 -0.84716797 29.328125 C-2.29684441 27.88571302 -3.74624113 26.44301984 -5.1953125 25 C-5.85823303 24.34741211 -6.52115356 23.69482422 -7.2041626 23.02246094 C-7.8098407 22.41692383 -8.4155188 21.81138672 -9.03955078 21.1875 C-9.56606232 20.66542969 -10.09257385 20.14335937 -10.63504028 19.60546875 C-12.9274616 16.90911753 -13.91777347 14.63040338 -14.375 11.125 C-13.89541545 7.12846204 -12.53260567 5.09540692 -10 2 C-6.79214982 -0.35242347 -3.90350748 -0.4684209 0 0 Z " fill="#000000" transform="translate(177,163)"/>
</svg>
