<?xml version="1.0" encoding="UTF-8"?>
<!-- Generator: visioncortex VTracer 0.6.12 -->
<svg version="1.1" xmlns="http://www.w3.org/2000/svg" width="512" height="512">
<path d="M0 0 C40.73258691 37.09857902 66.02515215 90.53183589 68.75683594 145.60009766 C71.35658136 205.24748248 50.85149524 260.57794808 10.75683594 304.60009766 C-27.93161451 345.99314124 -82.40228689 369.90666696 -138.90722656 371.81884766 C-198.08328558 373.11538802 -253.02557579 351.0823785 -295.70410156 310.33056641 C-335.85961751 271.24795203 -358.30392739 216.78829495 -359.52661133 160.9831543 C-360.09627253 102.0016777 -337.31308052 47.55856006 -296.32836914 5.44873047 C-227.86859712 -63.56894457 -117.13368472 -75.618845 0 0 Z " fill="#F44336" transform="translate(401.2431640625,98.39990234375)"/>
<path d="M0 0 C3.97526224 1.6006756 6.64020304 4.37143556 9.59472656 7.36767578 C10.14151062 7.91416779 10.68829468 8.46065979 11.25164795 9.02371216 C13.05275649 10.82621093 14.84668247 12.63568396 16.640625 14.4453125 C17.89000495 15.69842367 19.13982801 16.95109319 20.39007568 18.20333862 C23.67586872 21.49675955 26.9556107 24.79614291 30.23413086 28.09680176 C33.58214253 31.46528994 36.93583907 34.8281076 40.2890625 38.19140625 C46.86495296 44.78873176 53.43446516 51.39236983 60 58 C63.97526224 56.3993244 66.64020304 53.62856444 69.59472656 50.63232422 C69.86811859 50.35907822 69.86811859 50.35907822 71.25164795 48.97628784 C73.05275649 47.17378907 74.84668247 45.36431604 76.640625 43.5546875 C77.89000495 42.30157633 79.13982801 41.04890681 80.39007568 39.79666138 C83.67586872 36.50324045 86.9556107 33.20385709 90.23413086 29.90319824 C93.58214253 26.53471006 96.93583907 23.1718924 100.2890625 19.80859375 C106.86495296 13.21126824 113.43446516 6.60763017 120 0 C124.21676405 1.92860465 127.08321791 4.82970138 130.296875 8.1015625 C130.89050842 8.69802582 131.48414185 9.29448914 132.09576416 9.9090271 C133.98526627 11.8096981 135.86768392 13.71721474 137.75 15.625 C139.03209065 16.91712468 140.31463761 18.20879676 141.59765625 19.5 C144.73708432 22.66144479 147.87017801 25.8290461 151 29 C149.3993244 32.97526224 146.62856444 35.64020304 143.63232422 38.59472656 C143.35907822 38.86811859 143.35907822 38.86811859 141.97628784 40.25164795 C140.17378907 42.05275649 138.36431604 43.84668247 136.5546875 45.640625 C135.30157633 46.89000495 134.04890681 48.13982801 132.79666138 49.39007568 C129.50324045 52.67586872 126.20385709 55.9556107 122.90319824 59.23413086 C119.53471006 62.58214253 116.1718924 65.93583907 112.80859375 69.2890625 C106.21126824 75.86495296 99.60763017 82.43446516 93 89 C94.6006756 92.97526224 97.37143556 95.64020304 100.36767578 98.59472656 C100.91416779 99.14151062 101.46065979 99.68829468 102.02371216 100.25164795 C103.82621093 102.05275649 105.63568396 103.84668247 107.4453125 105.640625 C108.69842367 106.89000495 109.95109319 108.13982801 111.20333862 109.39007568 C114.49675955 112.67586872 117.79614291 115.9556107 121.09680176 119.23413086 C124.46528994 122.58214253 127.8281076 125.93583907 131.19140625 129.2890625 C137.78873176 135.86495296 144.39236983 142.43446516 151 149 C149.07139535 153.21676405 146.17029862 156.08321791 142.8984375 159.296875 C142.30197418 159.89050842 141.70551086 160.48414185 141.0909729 161.09576416 C139.1903019 162.98526627 137.28278526 164.86768392 135.375 166.75 C134.08287532 168.03209065 132.79120324 169.31463761 131.5 170.59765625 C128.33855521 173.73708432 125.1709539 176.87017801 122 180 C118.02473776 178.3993244 115.35979696 175.62856444 112.40527344 172.63232422 C111.85848938 172.08583221 111.31170532 171.53934021 110.74835205 170.97628784 C108.94724351 169.17378907 107.15331753 167.36431604 105.359375 165.5546875 C104.10999505 164.30157633 102.86017199 163.04890681 101.60992432 161.79666138 C98.32413128 158.50324045 95.0443893 155.20385709 91.76586914 151.90319824 C88.41785747 148.53471006 85.06416093 145.1718924 81.7109375 141.80859375 C75.13504704 135.21126824 68.56553484 128.60763017 62 122 C58.02473776 123.6006756 55.35979696 126.37143556 52.40527344 129.36767578 C51.85848938 129.91416779 51.31170532 130.46065979 50.74835205 131.02371216 C48.94724351 132.82621093 47.15331753 134.63568396 45.359375 136.4453125 C44.10999505 137.69842367 42.86017199 138.95109319 41.60992432 140.20333862 C38.32413128 143.49675955 35.0443893 146.79614291 31.76586914 150.09680176 C28.41785747 153.46528994 25.06416093 156.8281076 21.7109375 160.19140625 C15.13504704 166.78873176 8.56553484 173.39236983 2 180 C-2.21676405 178.07139535 -5.08321791 175.17029862 -8.296875 171.8984375 C-8.59369171 171.60020584 -8.59369171 171.60020584 -10.09576416 170.0909729 C-11.98526627 168.1903019 -13.86768392 166.28278526 -15.75 164.375 C-17.03209065 163.08287532 -18.31463761 161.79120324 -19.59765625 160.5 C-22.73708432 157.33855521 -25.87017801 154.1709539 -29 151 C-27.3993244 147.02473776 -24.62856444 144.35979696 -21.63232422 141.40527344 C-21.08583221 140.85848938 -20.53934021 140.31170532 -19.97628784 139.74835205 C-18.17378907 137.94724351 -16.36431604 136.15331753 -14.5546875 134.359375 C-13.30157633 133.10999505 -12.04890681 131.86017199 -10.79666138 130.60992432 C-7.50324045 127.32413128 -4.20385709 124.0443893 -0.90319824 120.76586914 C2.46528994 117.41785747 5.8281076 114.06416093 9.19140625 110.7109375 C15.78873176 104.13504704 22.39236983 97.56553484 29 91 C27.3993244 87.02473776 24.62856444 84.35979696 21.63232422 81.40527344 C21.35907822 81.13188141 21.35907822 81.13188141 19.97628784 79.74835205 C18.17378907 77.94724351 16.36431604 76.15331753 14.5546875 74.359375 C13.30157633 73.10999505 12.04890681 71.86017199 10.79666138 70.60992432 C7.50324045 67.32413128 4.20385709 64.0443893 0.90319824 60.76586914 C-2.46528994 57.41785747 -5.8281076 54.06416093 -9.19140625 50.7109375 C-15.78873176 44.13504704 -22.39236983 37.56553484 -29 31 C-27.07139535 26.78323595 -24.17029862 23.91678209 -20.8984375 20.703125 C-20.30197418 20.10949158 -19.70551086 19.51585815 -19.0909729 18.90423584 C-17.1903019 17.01473373 -15.28278526 15.13231608 -13.375 13.25 C-12.08287532 11.96790935 -10.79120324 10.68536239 -9.5 9.40234375 C-6.33855521 6.26291568 -3.1709539 3.12982199 0 0 Z " fill="#FEFDFC" transform="translate(195,166)"/>
</svg>
