<?xml version="1.0" encoding="UTF-8"?>
<!-- Generator: visioncortex VTracer 0.6.12 -->
<svg version="1.1" xmlns="http://www.w3.org/2000/svg" width="512" height="512">
<path d="M0 0 C40.73258691 37.09857902 66.02515215 90.53183589 68.75683594 145.60009766 C71.35658136 205.24748248 50.85149524 260.57794808 10.75683594 304.60009766 C-27.93161451 345.99314124 -82.40228689 369.90666696 -138.90722656 371.81884766 C-198.08328558 373.11538802 -253.02557579 351.0823785 -295.70410156 310.33056641 C-335.85961751 271.24795203 -358.30392739 216.78829495 -359.52661133 160.9831543 C-360.09627253 102.0016777 -337.31308052 47.55856006 -296.32836914 5.44873047 C-227.86859712 -63.56894457 -117.13368472 -75.618845 0 0 Z " fill="#3891D9" transform="translate(401.2431640625,98.39990234375)"/>
<path d="M0 0 C5.45716359 4.61759996 8.3920173 10.36131719 9.31640625 17.4140625 C9.67908019 24.97171935 7.21428954 30.33790576 3.375 36.6875 C-2.09072478 42.00938992 -8.31702644 45.66595767 -16 46 C-16.734375 44.265625 -16.734375 44.265625 -17 42 C-15.453125 39.921875 -15.453125 39.921875 -13.25 37.75 C-6.63247911 30.62343905 -5.40769305 24.84708484 -5.64453125 15.13671875 C-6.12474146 10.89925944 -7.20719831 7.28412791 -10 4 C-13.85718601 1.6178524 -17.57375456 1.26098211 -22 2 C-38.93641681 8.28630966 -49.86339384 26.1654397 -57.17578125 41.75390625 C-62.51046559 53.7562385 -66.17777338 65.59961315 -66.1875 78.75 C-66.19974609 79.6059375 -66.21199219 80.461875 -66.22460938 81.34375 C-66.24958607 92.33349474 -63.80287418 102.33507148 -56.5625 110.875 C-48.73280143 117.36792077 -43.00736262 118.80890922 -33 118 C-23.71463552 116.15183393 -15.81998769 112.24674388 -8 107 C-7.17757812 106.46503906 -6.35515625 105.93007813 -5.5078125 105.37890625 C-2.43531371 103.09913402 -0.28252188 101.46767724 0.4609375 97.60546875 C0.5306035 95.77539659 0.57898254 93.94442673 0.609375 92.11328125 C1.67893218 83.58891056 7.45425002 73.64668298 14.11328125 68.3046875 C16.38575943 66.82737487 18.67471393 65.39277031 21 64 C22.03125 63.38125 23.0625 62.7625 24.125 62.125 C30.54300219 59.61491484 39.11643176 59.88139467 45.64453125 61.76171875 C49.24894367 63.4535858 52.36522713 65.32176105 54 69 C54.53198011 73.787821 54.72509014 75.86402545 52.125 79.9375 C49.07983388 82.89310241 47.50260769 83.12146582 43.375 83.0625 C42.55773437 83.05347656 41.74046875 83.04445313 40.8984375 83.03515625 C40.27195312 83.02355469 39.64546875 83.01195312 39 83 C38.34 81.68 37.68 80.36 37 79 C37.66 78.608125 38.32 78.21625 39 77.8125 C41 76 41 76 41.4375 73.4375 C41.3653125 73.0353125 41.3653125 73.0353125 41 71 C36.94547896 68.29698598 33.75980845 68.35501738 29 69 C23.0689714 71.85145606 19.56500882 76.33161933 17.0234375 82.2890625 C14.50296628 89.70914133 13.78459798 97.08370459 16.125 104.625 C18 107 18 107 20.875 108.0625 C24.72113539 107.98557729 26.08990425 107.52718841 29 105 C30.58927531 102.44308475 31.79015212 99.75277129 33 97 C37.20365619 87.73547146 37.20365619 87.73547146 41 86 C44.6875 85.75 44.6875 85.75 48 86 C48.33 86.33 48.66 86.66 49 87 C48.79646048 88.86577891 48.5839765 90.73105781 48.32421875 92.58984375 C47.76940167 96.71420689 47.39890992 100.8581268 47 105 C50.10361061 105.96050919 51.52402944 106.21488347 54.53515625 104.85546875 C55.36917969 104.30503906 56.20320312 103.75460937 57.0625 103.1875 C61.95433028 100.01421718 61.95433028 100.01421718 64.24609375 99.30078125 C66 98 66 98 66.63671875 94.5390625 C66.66467529 94.18215332 66.66467529 94.18215332 66.80615234 92.37597656 C67.16343107 87.99683728 68.03015585 83.69476691 68.8125 79.375 C68.96525391 78.45976562 69.11800781 77.54453125 69.27539062 76.6015625 C70.2738745 71.13950049 71.44775862 67.31293747 75 63 C78.25303044 61.37348478 81.39225602 61.88546844 85 62 C86 63 86 63 86.1328125 64.890625 C86.13023437 65.66921875 86.12765625 66.4478125 86.125 67.25 C86.12757813 68.01828125 86.13015625 68.7865625 86.1328125 69.578125 C85.99278235 72.13161594 85.5569499 74.50698615 85 77 C85.53367187 76.41992188 86.06734375 75.83984375 86.6171875 75.2421875 C92.51979004 69.05364574 99.95835819 61.73823664 108.9375 60.796875 C109.2778125 60.78914063 109.2778125 60.78914063 111 60.75 C111.680625 60.72421875 112.36125 60.6984375 113.0625 60.671875 C115.6243055 61.10572916 116.39602232 61.98711495 118 64 C117.80170985 72.61268965 114.92418723 80.66603307 112.43945312 88.84960938 C110.69863637 94.78568638 109.58734875 99.8102312 110 106 C118.88400122 105.85670966 124.41062855 102.40579659 130.7578125 96.3125 C132.66602849 92.7600979 132.44242387 89.28444203 132.5 85.3125 C133.10576816 69.39760674 133.10576816 69.39760674 139.3125 63.4375 C141.93935339 61.4185596 142.96561196 61.00445771 146.375 60.5625 C149 61 149 61 150 62 C149.62431407 66.88391708 148.66016465 71.38500149 147.4375 76.125 C145.0428178 86.24370615 145.2405768 95.9970909 148 106 C152.64824315 103.6423171 155.28292213 100.62028547 158.375 96.5625 C158.60638672 96.27600586 158.60638672 96.27600586 159.77734375 94.82617188 C163.02441692 90.61466951 163.02441692 90.61466951 162.91015625 87.73828125 C162 86 162 86 160.0625 83.625 C155.84520297 78.25753105 155.49712222 72.75424923 155.62109375 66.109375 C156.40831793 59.64926726 159.09043118 54.78226423 163.8125 50.375 C168.03547883 48.55332286 170.41251227 48.49027914 175 49 C179.56884617 50.86907343 181.80794622 53.61589244 184 58 C185.77142466 65.97141096 181.89397197 73.73406324 179 81 C185.65925 79.30353707 190.22379851 77.2142647 194.9375 72.125 C202.12245707 64.48815884 209.16138262 60.71148039 219.75 60.375 C226.92799606 60.68388917 231.52778808 61.96181457 237 66.75 C238.51295889 70.1541575 238.66667862 73.38703201 238 77 C236.20636089 79.8100346 234.98119065 81.50940468 232 83 C230.45976004 83.06950541 228.91665012 83.08452357 227.375 83.0625 C226.55773437 83.05347656 225.74046875 83.04445313 224.8984375 83.03515625 C224.27195312 83.02355469 223.64546875 83.01195312 223 83 C222.34 81.68 221.68 80.36 221 79 C221.66 78.608125 222.32 78.21625 223 77.8125 C225 76 225 76 225.25 73.3125 C225.1675 72.549375 225.085 71.78625 225 71 C221.27321202 68.51547468 217.31351484 68.13886274 213 69 C205.91710141 72.31317908 202.81561682 77.97908424 200 85 C197.91963312 91.24110064 198.25014831 98.50049437 200.125 104.75 C202 107 202 107 204.875 108.0625 C208.72113539 107.98557729 210.08990425 107.52718841 213 105 C214.58927531 102.44308475 215.79015212 99.75277129 217 97 C221.20365619 87.73547146 221.20365619 87.73547146 225 86 C228.75 85.8125 228.75 85.8125 232 86 C233.07575936 89.334854 232.94344003 91.63551499 232.0625 94.9375 C229.9840075 103.42230502 229.44597488 112.34347602 234 120 C234.66 120.66 235.32 121.32 236 122 C236.125 124.625 236.125 124.625 236 127 C229.55743957 126.73155998 225.5965124 124.50996719 221 120 C219.09986688 117.4435407 217.48621611 114.81523628 216 112 C215.53851563 112.3609375 215.07703125 112.721875 214.6015625 113.09375 C209.85811404 116.46853546 206.23461084 117.7546629 200.390625 117.4140625 C194.86144407 116.45639391 191.46969081 113.93100065 188.125 109.5 C185.09220358 105.08135621 184.86199142 101.16949212 184.875 95.875 C184.87242187 94.82054687 184.86984375 93.76609375 184.8671875 92.6796875 C185 90 185 90 186 88 C184.989375 88.474375 183.97875 88.94875 182.9375 89.4375 C180.29705088 90.67689448 178.50440902 91.04069532 175.52734375 91.28515625 C171.13635848 92.1750237 170.21574331 93.42656095 167.625 97 C160.61353262 106.15055912 153.10465313 115.69279788 141.125 117.625 C138 117 138 117 136.125 115.0625 C134.65807816 111.06921278 134.26703761 107.22656072 134 103 C133.39414062 103.51949219 132.78828125 104.03898437 132.1640625 104.57421875 C123.43498885 111.8394939 114.81795616 117.45123934 103.19140625 117.35546875 C99.61906827 116.7759986 98.09076118 114.80946033 96 112 C92.9049062 102.71471861 95.6279275 93.23215725 98.5 84.25 C98.66693359 83.70472656 98.66693359 83.70472656 99.51171875 80.9453125 C100.3263675 78.29188516 101.1558222 75.64414963 102 73 C91.44180901 79.59188644 82.32896222 88.49531635 79.27734375 100.94921875 C79.04144531 101.99722656 78.80554688 103.04523438 78.5625 104.125 C77.34715799 109.40706336 75.92229903 112.27884451 72 116 C69.26752652 117.36623674 67.01801098 117.128426 64 117 C63 116 63 116 62.875 113.0625 C63 110 63 110 64 108 C63.02417969 108.56589844 62.04835937 109.13179688 61.04296875 109.71484375 C59.75789475 110.45587182 58.47273396 111.19674939 57.1875 111.9375 C56.54490234 112.31068359 55.90230469 112.68386719 55.24023438 113.06835938 C49.37041949 116.44426327 44.74543023 117.90101415 38 117 C35.4375 115.1875 35.4375 115.1875 34 113 C34 112.01 34 111.02 34 110 C33.34 110 32.68 110 32 110 C31.835 110.495 31.835 110.495 31 113 C26.22989492 116.55220591 22.44797187 117.70162898 16.49609375 117.45703125 C10.36690652 116.3347857 6.21080437 112.34065296 2 108 C1.36835938 108.6290625 0.73671875 109.258125 0.0859375 109.90625 C-11.86075717 121.33651695 -27.26129683 130.8820739 -44.25 131.5625 C-56.04866469 130.97652605 -66.15756339 125.2397055 -74.25 116.875 C-78.5562 111.78819402 -80.86134866 106.2601009 -83 100 C-83.433125 98.7625 -83.86625 97.525 -84.3125 96.25 C-89.43927028 72.34150397 -79.73029599 46.80206443 -67 27 C-64.53784311 23.4484364 -61.90267609 20.19929993 -59 17 C-58.19046875 16.09765625 -57.3809375 15.1953125 -56.546875 14.265625 C-41.45924167 -1.70432607 -20.67396244 -13.8745259 0 0 Z " fill="#FAFCFE" transform="translate(178,185)"/>
<path d="M0 0 C2 1.8125 2 1.8125 2.5625 4.3125 C2 6.8125 2 6.8125 0 8.625 C-0.66 9.016875 -1.32 9.40875 -2 9.8125 C-1.67 10.8025 -1.34 11.7925 -1 12.8125 C1.97 13.1425 4.94 13.4725 8 13.8125 C7.67 14.8025 7.34 15.7925 7 16.8125 C3.625 17.9375 3.625 17.9375 0 18.8125 C-0.99 19.1425 -1.98 19.4725 -3 19.8125 C-3.9375 21.8125 -3.9375 21.8125 -5 24.8125 C-7.16431022 30.39520672 -9.10006178 35.07921373 -14 38.8125 C-17.0625 39.875 -17.0625 39.875 -20 39.8125 C-22.96709235 37.58718073 -24.61064397 35.21464105 -26 31.8125 C-27.07932445 22.55039022 -25.90901827 14.47789909 -20.57421875 6.74609375 C-14.89451221 -0.28382726 -8.78114643 -3.47587046 0 0 Z " fill="#5B5FE5" transform="translate(402,254.1875)"/>
<path d="M0 0 C1.875 0.3125 1.875 0.3125 4 1 C6.30055997 4.45083995 6.27010256 5.87175728 6.25 9.9375 C6.25515625 10.97777344 6.2603125 12.01804688 6.265625 13.08984375 C6.00629936 15.93098495 5.46519702 17.58707634 4 20 C0.35206925 16.71686232 -1.7185062 13.9908716 -2.1875 9.0078125 C-2.30085901 5.13943635 -2.18396051 3.27594076 0 0 Z " fill="#5374E1" transform="translate(344,241)"/>
</svg>
