<?xml version="1.0" encoding="UTF-8"?>
<!-- Generator: visioncortex VTracer 0.6.12 -->
<svg version="1.1" xmlns="http://www.w3.org/2000/svg" width="512" height="512">
<path d="M0 0 C6.8559288 7.99127201 10.82769987 16.76889798 14.625 26.4375 C15.21517353 27.90719459 15.80650709 29.37642382 16.39892578 30.84521484 C18.2905538 35.55388257 20.14771805 40.27574196 22 45 C22.32814697 45.83513123 22.65629395 46.67026245 22.99438477 47.53070068 C27.37131319 58.67108121 31.7051053 69.82774981 36 81 C37.05276123 81.01458252 38.10552246 81.02916504 39.19018555 81.04418945 C43.15843896 81.10289303 47.12616677 81.18010926 51.09399414 81.26245117 C52.79963546 81.29536621 54.50537697 81.32349786 56.21118164 81.34643555 C71.64609954 81.55948728 86.16560571 82.25642241 98.25390625 93.00390625 C105.58321391 100.54917878 108.16863456 108.25984373 108.5 118.6875 C108.27050769 126.48232503 106.5973728 130.82543324 101.75 136.75 C95.64165672 141.74773541 89.46281586 144.13331591 81.58203125 144.09765625 C80.95522461 144.09604492 80.95522461 144.09604492 77.78320312 144.08789062 C76.47287109 144.07951172 75.16253906 144.07113281 73.8125 144.0625 C72.47721519 144.05748317 71.14192859 144.05292059 69.80664062 144.04882812 C66.53771302 144.03702694 63.26888664 144.01971376 60 144 C60.49493454 144.94634308 60.98986908 145.89268616 61.49980164 146.8677063 C68.21039446 160.93811471 68.0238665 175.00251461 67.90734696 190.28648138 C67.88556988 193.92832106 67.8994594 197.57007228 67.90763855 201.21194458 C67.91574244 207.31569218 67.89538167 213.41883548 67.85766602 219.52246094 C67.81463098 226.54732267 67.81834137 233.57100631 67.8465336 240.59591663 C67.87268108 247.40480892 67.86469982 254.21326926 67.84183311 261.02215958 C67.83280806 263.89835932 67.83557846 266.77417312 67.84833717 269.65035629 C67.86443449 273.67235514 67.83061679 277.69250739 67.79223633 281.71435547 C67.7975235 282.30046852 67.7975235 282.30046852 67.82427979 285.26655579 C67.66958853 294.61305479 65.07294804 302.45319655 58.75651264 309.50449944 C49.60547846 318.33993074 39.43377319 319.15245418 27.26171875 319.16796875 C26.34091019 319.17129715 25.42010162 319.17462555 24.47138977 319.17805481 C22.53081763 319.18309691 20.59023689 319.18546398 18.6496582 319.18530273 C15.70704603 319.1874855 12.76481145 319.20566014 9.82226562 319.22460938 C7.9270846 319.22754475 6.03190181 319.22952858 4.13671875 319.23046875 C3.70321861 319.23406151 3.70321861 319.23406151 1.50944519 319.25224304 C-9.12746193 319.21316945 -18.82762847 317.47706486 -26.9765625 310.24609375 C-36.36971423 300.35330629 -36 292.13840821 -36 278 C-103.32 278 -170.64 278 -240 278 C-240 283.28 -240 288.56 -240 294 C-242.42660316 302.54164311 -246.22049363 309.01930241 -253.875 313.79296875 C-262.50617296 318.33512352 -270.13595146 319.15572957 -279.73828125 319.16796875 C-280.65908981 319.17129715 -281.57989838 319.17462555 -282.52861023 319.17805481 C-284.46918237 319.18309691 -286.40976311 319.18546398 -288.3503418 319.18530273 C-291.29295397 319.1874855 -294.23518855 319.20566014 -297.17773438 319.22460938 C-299.0729154 319.22754475 -300.96809819 319.22952858 -302.86328125 319.23046875 C-303.29678139 319.23406151 -303.29678139 319.23406151 -305.49055481 319.25224304 C-316.34833176 319.2123581 -326.42605044 317.37992654 -334.6875 309.9375 C-342.20543751 301.6685604 -343.74307657 292.67209753 -343.67871094 281.82788086 C-343.69068512 280.55796295 -343.7026593 279.28804504 -343.71499634 277.97964478 C-343.74607069 274.52651911 -343.74576536 271.07409561 -343.73749065 267.62086558 C-343.73329732 264.71909483 -343.74435349 261.81745718 -343.75513482 258.91570956 C-343.7801957 252.05543107 -343.7792127 245.1954972 -343.76171875 238.33520508 C-343.74424707 231.30657307 -343.77050255 224.27908012 -343.81868529 217.25061697 C-343.8587491 211.17620183 -343.87103996 205.10214201 -343.86197114 199.02760226 C-343.8568405 195.41743533 -343.86141892 191.80803025 -343.89293671 188.19798088 C-344.02027109 172.21412696 -343.53938242 158.39765139 -336 144 C-336.87648193 144.0220752 -337.75296387 144.04415039 -338.65600586 144.06689453 C-342.22882616 144.15139541 -345.80153556 144.20002148 -349.375 144.25 C-350.62667969 144.28351563 -351.87835938 144.31703125 -353.16796875 144.3515625 C-362.25880445 144.4467545 -369.70745445 143.54601589 -376.875 137.625 C-383.96333303 128.8688239 -384.73988943 121.93513051 -384 111 C-382.35516449 102.23124856 -377.73831606 95.73409608 -371 90 C-358.10376397 81.61657873 -344.71324268 81.64643127 -329.875 81.375 C-328.13800284 81.33674586 -326.40102315 81.29769003 -324.6640625 81.2578125 C-320.44285295 81.16262741 -316.221555 81.07830663 -312 81 C-311.56244385 79.84290527 -311.1248877 78.68581055 -310.67407227 77.49365234 C-281.09219172 -0.68181416 -281.09219172 -0.68181416 -256.79931641 -12.02783203 C-195.18568574 -39.34744688 -53.03859627 -51.61714705 0 0 Z M-192 -7 C-192.53415527 -6.93288818 -192.53415527 -6.93288818 -195.23730469 -6.59326172 C-216.93951574 -3.73570899 -248.08123772 1.5072522 -263.1875 19.3125 C-265.80634106 23.34102118 -267.72594865 27.60897727 -269.66015625 31.9921875 C-270.00757874 32.77748337 -270.35500122 33.56277924 -270.71295166 34.37187195 C-274.43947508 42.87967911 -277.8594284 51.50307564 -281.21972656 60.16088867 C-282.25703487 62.83060562 -283.30390806 65.49643792 -284.3515625 68.16210938 C-287.94464946 77.35420687 -291.27882521 86.50725495 -294 96 C-294.11766724 96.36871216 -294.11766724 96.36871216 -294.71313477 98.23461914 C-296.20424885 103.24852822 -296.69955207 108.01218415 -295 113 C-290.29921637 119.5925624 -282.56517083 121.19715899 -275.01381016 122.52515793 C-270.07258839 123.212932 -265.13426135 123.14473548 -260.15403748 123.14044189 C-259.0717095 123.14341302 -257.98938151 123.14638414 -256.87425572 123.1494453 C-253.25266976 123.15810698 -249.63111697 123.15963841 -246.00952148 123.16113281 C-243.41054718 123.16576281 -240.81157355 123.17078771 -238.21260071 123.17617798 C-231.15445078 123.1897302 -224.09630655 123.1957813 -217.03814578 123.20018864 C-212.62562424 123.20295662 -208.21310487 123.207195 -203.80058479 123.21169281 C-191.5684482 123.22388196 -179.33631334 123.23418162 -167.1041708 123.2375679 C-166.32205392 123.23778747 -165.53993705 123.23800703 -164.73411966 123.23823325 C-164.34215814 123.23834239 -164.34215814 123.23834239 -162.35859531 123.2388947 C-160.77023216 123.23933816 -159.18186901 123.23978472 -157.59350586 123.24023438 C-156.80563319 123.2404558 -156.01776051 123.24067723 -155.20601291 123.24090537 C-142.45096618 123.24485007 -129.69597669 123.26229564 -116.94095206 123.2855939 C-103.82573665 123.30935542 -90.71054992 123.32177195 -77.59531265 123.32293582 C-70.23963651 123.32384994 -62.88403494 123.32953568 -55.52837944 123.34775543 C-48.60495614 123.36484487 -41.68167611 123.36637328 -34.75823784 123.35761642 C-32.22433086 123.35684804 -29.69041618 123.36116237 -27.15652847 123.37107468 C5.76104274 123.49224024 5.76104274 123.49224024 17.3125 115.375 C19.96244936 111.64544164 20.20723527 108.51690284 20 104 C17.89551755 94.66869858 14.54094801 85.74275533 11.0078125 76.875 C10.53938934 75.68503418 10.07096619 74.49506836 9.58834839 73.26904297 C8.60567173 70.7734757 7.61883354 68.27961522 6.62841797 65.78710938 C5.37645109 62.63625151 4.13205001 59.48247678 2.89024925 56.32760048 C-0.04418687 48.87335527 -3.00848472 41.43151315 -6 34 C-6.16591644 33.58640228 -6.16591644 33.58640228 -7.0055542 31.49334717 C-7.81045397 29.49861476 -8.62757755 27.5096945 -9.453125 25.5234375 C-9.8646582 24.52747559 -10.27619141 23.53151367 -10.70019531 22.50537109 C-17.21877972 9.94081189 -34.80353782 4.42371965 -47.4375 0.25 C-59.42072556 -3.49267177 -71.55498009 -5.51596233 -84 -7 C-84.94617188 -7.11714355 -85.89234375 -7.23428711 -86.8671875 -7.35498047 C-120.93629815 -11.32459811 -157.96706527 -11.27852453 -192 -7 Z M-360.9375 110.25 C-362.33577873 113.86907436 -362.6724207 117.13456431 -363 121 C-358.85630219 122.98759945 -355.52092975 123.23422068 -350.94921875 123.1953125 C-350.29041214 123.1924826 -349.63160553 123.18965271 -348.95283508 123.18673706 C-346.86419938 123.17560924 -344.77600444 123.15051948 -342.6875 123.125 C-341.26498018 123.11496059 -339.8424536 123.10583642 -338.41992188 123.09765625 C-334.94647319 123.07569447 -331.47327967 123.04121646 -328 123 C-322.62870159 110.51480638 -322.62870159 110.51480638 -321 104 C-325.12582397 103.90030537 -329.25117097 103.82814767 -333.37792969 103.78027344 C-334.77844473 103.7602937 -336.17887782 103.7330998 -337.57910156 103.69824219 C-354.93330309 103.27738423 -354.93330309 103.27738423 -360.9375 110.25 Z M44 104 C46.31 110.27 48.62 116.54 51 123 C55.3235925 123.04602287 59.64632804 123.08581365 63.9699707 123.10986328 C65.43940112 123.11989352 66.90881171 123.13352101 68.37817383 123.15087891 C70.49565537 123.17525898 72.61287199 123.18651286 74.73046875 123.1953125 C76.00301514 123.20578613 77.27556152 123.21625977 78.58666992 123.22705078 C81.85835171 123.00942228 84.06957366 122.41502625 87 121 C86.21467556 111.73317162 86.21467556 111.73317162 83 108 C75.46195214 102.86771209 67.7401043 103.53977739 59 103.75 C57.54299331 103.77009664 56.08595985 103.78834182 54.62890625 103.8046875 C51.08472666 103.84500809 47.5443172 103.92332006 44 104 Z M-308 131 C-320.19368719 157.11452221 -324.05627464 179.57191039 -323.19445801 208.26123047 C-323.10002561 211.98475453 -323.07629565 215.70742476 -323.05389595 219.43197632 C-323.02376029 223.91343843 -322.95525992 228.39405422 -322.8828125 232.875 C-322.87225956 233.71359558 -322.86170662 234.55219116 -322.85083389 235.41619873 C-322.81391958 237.77596794 -322.74970808 240.13330654 -322.67626953 242.4921875 C-322.66865601 243.18284302 -322.66104248 243.87349854 -322.65319824 244.58508301 C-322.46587921 249.26871852 -321.29125854 251.6921036 -318 255 C-315.30620479 256.3468976 -313.22598694 256.12921379 -310.20808697 256.13422108 C-308.96709954 256.13867892 -307.72611211 256.14313676 -306.447519 256.14772969 C-305.05767929 256.14764039 -303.66783957 256.14745052 -302.27799988 256.14717102 C-300.81140731 256.15046865 -299.34481564 256.15419401 -297.87822515 256.1583125 C-293.83343527 256.16835195 -289.78866023 256.17205241 -285.74385965 256.17470181 C-281.38724215 256.17859907 -277.03063647 256.18817775 -272.67402649 256.19691467 C-262.14601242 256.21669476 -251.61799737 256.22674694 -241.08996937 256.23564246 C-236.13602683 256.24002256 -231.18208537 256.24539006 -226.22814369 256.25063133 C-209.76706126 256.26764463 -193.30597951 256.28214 -176.84488964 256.28938007 C-172.57131639 256.29129007 -168.29774315 256.29321038 -164.02416992 256.29516602 C-162.96195362 256.29564976 -161.89973731 256.2961335 -160.80533264 256.2966319 C-143.58844443 256.30493666 -126.37162561 256.33028065 -109.15476771 256.36274669 C-91.49145501 256.39578398 -73.82817761 256.41382579 -56.16483384 256.41702431 C-46.24226825 256.41919243 -36.31980384 256.42798512 -26.3972683 256.45348549 C-17.94882342 256.47514699 -9.50050431 256.48326539 -1.05203482 256.47351871 C3.26048928 256.46896084 7.57275366 256.4709461 11.88524246 256.49028015 C15.83129167 256.50781901 19.77688989 256.50699032 23.72294327 256.49138286 C25.15230894 256.48899259 26.58170508 256.49340339 28.01102398 256.50521151 C29.95081522 256.52024729 31.89075982 256.50831351 33.83056355 256.49498463 C34.9090243 256.49596144 35.98748505 256.49693824 37.09862643 256.49794465 C40.71199692 255.87780441 42.3839625 254.51647885 45 252 C46.46871773 249.06256454 46.25107374 246.05873042 46.33569336 242.83276367 C46.35832748 242.09211166 46.38096161 241.35145966 46.40428162 240.58836365 C46.60472441 233.61974353 46.71796292 226.64920891 46.80750179 219.67837048 C46.86832773 215.02199501 46.95456138 210.3698002 47.11108398 205.71557617 C48.02146171 177.95770123 43.80726858 156.20006317 32 131 C31.175 131.53109375 30.35 132.0621875 29.5 132.609375 C28.33400651 133.32401617 27.16729881 134.03749294 26 134.75 C24.88625 135.44609375 23.7725 136.1421875 22.625 136.859375 C7.57353415 144.47993194 -8.85770127 143.57247383 -25.265625 143.51757812 C-28.00062363 143.52080905 -30.73559554 143.52999032 -33.47058105 143.53881836 C-40.09394303 143.55649699 -46.71712251 143.5528116 -53.34049129 143.5411678 C-58.7290031 143.53209141 -64.11746417 143.53092753 -69.50598145 143.53526306 C-70.27629519 143.53587599 -71.04660893 143.53648893 -71.84026551 143.53712043 C-73.40570928 143.53839948 -74.97115304 143.53969634 -76.53659678 143.5410108 C-91.17589896 143.55238537 -105.81510055 143.53935213 -120.45438623 143.51780933 C-132.98396406 143.49994118 -145.51339359 143.50304617 -158.04296875 143.52148438 C-172.63403128 143.54294651 -187.22500589 143.55128703 -201.816082 143.53903532 C-203.37539417 143.53776128 -204.93470636 143.53650379 -206.49401855 143.53526306 C-206.87750839 143.53495451 -206.87750839 143.53495451 -208.8181994 143.53339306 C-214.19298957 143.52995614 -219.56772344 143.53573248 -224.94250488 143.54518127 C-231.50298438 143.55646228 -238.06327274 143.55323427 -244.62373066 143.5320583 C-247.9636437 143.52162885 -251.30297956 143.5194805 -254.64292908 143.53065491 C-288.35423027 143.63299081 -288.35423027 143.63299081 -303 134 C-304.66474617 132.99680611 -306.33122385 131.99647576 -308 131 Z M-322 276 C-322.08150744 278.06183633 -322.1394194 280.12461349 -322.1875 282.1875 C-322.22230469 283.33605469 -322.25710938 284.48460937 -322.29296875 285.66796875 C-321.8992171 290.14623756 -320.52805706 292.64139619 -317.18344116 295.6151123 C-314.660331 297.21544131 -313.28896724 297.38905412 -310.32666016 297.41992188 C-309.86600662 297.42787781 -309.86600662 297.42787781 -307.53482056 297.46813965 C-306.5462204 297.46834106 -305.55762024 297.46854248 -304.5390625 297.46875 C-303.51573822 297.47636353 -302.49241394 297.48397705 -301.43807983 297.49182129 C-299.2744999 297.50262074 -297.11086783 297.50547603 -294.94726562 297.50097656 C-291.6436419 297.50000548 -288.34235017 297.54160468 -285.0390625 297.5859375 C-282.93490067 297.59114557 -280.83073078 297.59383268 -278.7265625 297.59375 C-278.23428665 297.60194763 -278.23428665 297.60194763 -275.74307251 297.64343262 C-271.29094523 297.59877069 -267.99529921 297.50455913 -264.39208984 294.71289062 C-260.93521514 290.79241791 -260.87020306 287.86456781 -260.9375 282.75 C-260.94652344 281.85796875 -260.95554687 280.9659375 -260.96484375 280.046875 C-260.97644531 279.37140625 -260.98804688 278.6959375 -261 278 C-261.66097183 277.98969254 -262.32194366 277.97938507 -263.00294495 277.96876526 C-269.89764658 277.86037813 -276.792226 277.74580743 -283.68676758 277.62768555 C-286.25803057 277.58443974 -288.82932036 277.54275755 -291.40063477 277.50268555 C-295.10180733 277.44473175 -298.80284628 277.38110993 -302.50390625 277.31640625 C-303.64896133 277.29969376 -304.79401642 277.28298126 -305.97377014 277.26576233 C-311.4059421 277.16549703 -316.64631853 276.94555908 -322 276 Z M42.28988647 276.48716736 C39.26144714 276.95924521 36.42197197 277.15503802 33.36181641 277.20532227 C32.28114899 277.22526749 31.20048157 277.24521271 30.08706665 277.26576233 C28.93685028 277.28247482 27.78663391 277.29918732 26.6015625 277.31640625 C25.41146576 277.33718735 24.22136902 277.35796844 22.99520874 277.37937927 C19.20519615 277.44460095 15.41511609 277.50363234 11.625 277.5625 C9.05077436 277.60571126 6.47655547 277.64932638 3.90234375 277.69335938 C-2.39836682 277.80025425 -8.69914404 277.90207088 -15 278 C-15.01861291 279.60672686 -15.03192005 281.21351582 -15.04296875 282.8203125 C-15.05094482 283.71508301 -15.0589209 284.60985352 -15.06713867 285.53173828 C-14.95198397 289.76524395 -13.91051972 292.00644292 -11.07788086 295.09741211 C-6.59302048 297.86972249 -2.61913165 297.59251956 2.55859375 297.56640625 C3.58050308 297.57260483 4.60241241 297.57880341 5.6552887 297.58518982 C7.8129074 297.59228241 9.97058089 297.58912382 12.12817383 297.57641602 C15.42306658 297.56256069 18.71511305 297.59661883 22.00976562 297.63476562 C24.10937569 297.63571697 26.2089893 297.6338572 28.30859375 297.62890625 C29.29000839 297.64216446 30.27142303 297.65542267 31.28257751 297.66908264 C35.76476755 297.60831157 39.0076927 297.49552202 42.60571289 294.64819336 C46.27151556 290.59364441 46.11482539 287.59736396 46.0625 282.3125 C46.05347656 281.13300781 46.04445313 279.95351563 46.03515625 278.73828125 C46.02355469 277.83464844 46.01195312 276.93101562 46 276 C45 276 45 276 42.28988647 276.48716736 Z " fill="#000000" transform="translate(394,112)"/>
<path d="M0 0 C1.20369736 -0.0038269 2.40739471 -0.00765381 3.64756775 -0.01159668 C6.17626794 -0.01430256 8.70499675 -0.00703494 11.23364258 0.00976562 C15.08283377 0.03121094 18.93016258 0.0099066 22.77929688 -0.015625 C25.24870199 -0.01298186 27.71810597 -0.00785717 30.1875 0 C31.32631119 -0.00809692 32.46512238 -0.01619385 33.63844299 -0.02453613 C43.90354816 0.09476406 51.86353396 2.61261891 59.34375 9.76171875 C65.41657224 16.14452264 67.66460839 23.62031238 68.19921875 32.33203125 C67.76985493 42.928117 62.7456686 51.35280631 55.27758789 58.5793457 C51.64286883 61.73216972 47.68919929 64.13944448 43.52734375 66.53125 C43.09341309 66.78543701 43.09341309 66.78543701 40.89746094 68.07177734 C35.43101477 71.23935371 29.90540138 74.28534476 24.27734375 77.15625 C23.65923828 77.47464844 23.04113281 77.79304688 22.40429688 78.12109375 C10.31220729 84.08179806 -5.03873761 85.2498267 -17.9765625 81.6640625 C-29.26841606 77.39465242 -37.76960585 69.6774594 -42.91015625 58.78125 C-47.48563989 48.172332 -47.46261769 36.18455797 -43.35546875 25.4140625 C-37.45899982 13.12142388 -28.79350858 5.93730902 -16.11961365 1.40330505 C-10.76571996 -0.0803153 -5.52425289 -0.03934726 0 0 Z M-19.84765625 28.21875 C-23.47581294 33.87440602 -25.54822321 38.79354019 -24.59765625 45.59375 C-22.86247377 52.42802701 -18.70419282 56.74738939 -12.91015625 60.53125 C-5.00718933 63.25456968 4.62685273 62.5563959 12.1328125 59.05859375 C13.08800781 58.55457031 14.04320312 58.05054688 15.02734375 57.53125 C15.69846191 57.1820752 16.36958008 56.83290039 17.06103516 56.47314453 C41.28448332 43.77970292 41.28448332 43.77970292 46.02734375 35.53125 C46.58301808 32.13546244 46.7833402 29.82106074 45.00390625 26.78515625 C42.85474844 24.06940229 41.33846998 22.63495874 38.02734375 21.53125 C36.55649117 21.42547784 35.081468 21.37277759 33.60693359 21.35424805 C33.16109421 21.34783043 33.16109421 21.34783043 30.90487671 21.31535339 C29.94240021 21.30796646 28.97992371 21.30057953 27.98828125 21.29296875 C27.49056717 21.28893288 27.49056717 21.28893288 24.97183228 21.26850891 C22.86193582 21.25467268 20.75201701 21.24394846 18.64208984 21.23608398 C15.43543204 21.21892704 12.22982041 21.17504279 9.0234375 21.13085938 C6.97005964 21.12072708 4.91667303 21.11221266 2.86328125 21.10546875 C1.91295013 21.08796066 0.96261902 21.07045258 -0.01651001 21.05241394 C-7.85662131 21.07760281 -14.04244417 22.79213871 -19.84765625 28.21875 Z " fill="#000000" transform="translate(362.97265625,265.46875)"/>
<path d="M0 0 C1.20274063 -0.0038269 2.40548126 -0.00765381 3.64466858 -0.01159668 C6.17514895 -0.01430519 8.70565783 -0.00701888 11.23608398 0.00976562 C15.08316261 0.03116936 18.92836977 0.00993497 22.77539062 -0.015625 C25.24609783 -0.01298117 27.71680387 -0.00785506 30.1875 0 C31.32428696 -0.00809692 32.46107391 -0.01619385 33.63230896 -0.02453613 C46.07902923 0.11969954 55.90054845 4.20768342 65.16015625 12.53125 C73.63671562 21.87276441 76.90165006 32.73256074 76.4765625 45.2109375 C75.33691479 57.17020361 69.81113159 67.12183577 60.578125 74.77734375 C48.35829683 83.64116095 35.72267303 84.47385061 21.16015625 82.53125 C4.33918011 79.5675542 -20.39495 66.3867213 -30.83984375 52.53125 C-36.8996197 42.94578622 -39.09858038 34.48848249 -36.77734375 23.34375 C-34.45640696 15.19937182 -29.79465108 9.34611661 -22.83984375 4.53125 C-15.27605307 0.56773083 -8.43473279 -0.05997077 0 0 Z M-14.65234375 26.28125 C-16.46798016 29.72140319 -16.48181883 31.67939952 -15.83984375 35.53125 C-11.29518696 43.87163137 -1.85003204 48.1249794 6.16015625 52.53125 C6.50457764 52.72267578 6.50457764 52.72267578 8.24755859 53.69140625 C10.27565793 54.81469056 12.30936062 55.92658633 14.34765625 57.03125 C14.97091797 57.36962891 15.59417969 57.70800781 16.23632812 58.05664062 C24.05432909 62.20164004 32.97483529 63.14565767 41.64453125 60.8828125 C47.37955983 58.28204373 51.78338503 54.06984497 54.078125 48.171875 C55.66742242 41.96879902 55.05347338 37.21962066 52.16015625 31.53125 C48.5433519 25.89329027 44.38264006 23.53999314 38.16015625 21.53125 C34.55815791 21.01082215 31.02928499 20.99190384 27.39453125 21.03515625 C26.39810608 21.03370102 25.40168091 21.03224579 24.37506104 21.03074646 C22.2841904 21.03239632 20.19330646 21.04385422 18.10253906 21.06469727 C14.90507591 21.09379623 11.7092591 21.08525778 8.51171875 21.07226562 C6.47264822 21.07849975 4.43358288 21.08688814 2.39453125 21.09765625 C1.44237732 21.09472061 0.49022339 21.09178497 -0.49078369 21.08876038 C-6.55969613 21.17510558 -10.1641932 21.94786326 -14.65234375 26.28125 Z " fill="#000000" transform="translate(118.83984375,265.46875)"/>
</svg>
