<?xml version="1.0" encoding="UTF-8"?>
<!-- Generator: visioncortex VTracer 0.6.12 -->
<svg version="1.1" xmlns="http://www.w3.org/2000/svg" width="512" height="512">
<path d="M0 0 C3.98933199 3.3677384 7.83552678 6.88657259 11.6796875 10.41796875 C13.34455333 11.91996727 15.01119582 13.41999902 16.6796875 14.91796875 C26.6796875 23.91796875 26.6796875 23.91796875 29.15625 26.15625 C30.88878608 27.7090958 32.63436976 29.24746933 34.390625 30.7734375 C45.23482774 40.26609005 45.23482774 40.26609005 46.046875 46.01953125 C46.4015899 53.76066227 44.28420615 57.41559449 39.19921875 63.27734375 C38.75255859 63.75429687 38.75255859 63.75429687 36.4921875 66.16796875 C35.50870758 67.22488184 34.52564021 68.28217895 33.54296875 69.33984375 C33.05779785 69.85998047 32.57262695 70.38011719 32.07275391 70.91601562 C30.08329819 73.06097384 28.13090335 75.23823213 26.1796875 77.41796875 C22.40431533 81.62481202 18.58988302 85.79471728 14.765625 89.95703125 C11.88546143 93.09463961 9.02437136 96.24817816 6.1796875 99.41796875 C2.40431533 103.62481202 -1.41011698 107.79471728 -5.234375 111.95703125 C-8.11453857 115.09463961 -10.97562864 118.24817816 -13.8203125 121.41796875 C-17.59568467 125.62481202 -21.41011698 129.79471728 -25.234375 133.95703125 C-28.11453857 137.09463961 -30.97562864 140.24817816 -33.8203125 143.41796875 C-37.59568467 147.62481202 -41.41011698 151.79471728 -45.234375 155.95703125 C-48.11453857 159.09463961 -50.97562864 162.24817816 -53.8203125 165.41796875 C-57.59568467 169.62481202 -61.41011698 173.79471728 -65.234375 177.95703125 C-68.11453857 181.09463961 -70.97562864 184.24817816 -73.8203125 187.41796875 C-79.40951033 193.64365886 -85.07555308 199.79849953 -90.73632812 205.95898438 C-96.19133041 211.89686376 -101.62223139 217.85439266 -107.0078125 223.85546875 C-110.06321424 227.24118419 -113.14888234 230.59878785 -116.234375 233.95703125 C-119.11453857 237.09463961 -121.97562864 240.24817816 -124.8203125 243.41796875 C-128.59568467 247.62481202 -132.41011698 251.79471728 -136.234375 255.95703125 C-139.11453857 259.09463961 -141.97562864 262.24817816 -144.8203125 265.41796875 C-148.59218031 269.62090717 -152.39995472 273.78988742 -156.22558594 277.94384766 C-159.21361381 281.1929348 -162.14869004 284.48378413 -165.0703125 287.79296875 C-173.32368267 296.90667256 -182.52392309 303.88617514 -195.26171875 304.65625 C-212.95428795 305.0820224 -223.78691394 299.72437578 -236.71875 287.7734375 C-239.35054513 285.39059596 -242.0578229 283.14741459 -244.8203125 280.91796875 C-249.28307463 277.30764433 -253.54750783 273.53368946 -257.7890625 269.66796875 C-260.4087606 267.33934822 -263.0954656 265.12233928 -265.8203125 262.91796875 C-270.28451707 259.30647741 -274.55033364 255.53136181 -278.79296875 251.6640625 C-281.38993643 249.35609277 -284.05435263 247.16241012 -286.7578125 244.98046875 C-291.53027453 241.12088272 -296.05140359 237.04596884 -300.56640625 232.890625 C-304.15238534 229.67087356 -307.88732742 226.65891699 -311.63671875 223.6328125 C-315.12582166 220.75315988 -318.45028171 217.71102999 -321.79296875 214.6640625 C-324.38993643 212.35609277 -327.05435263 210.16241012 -329.7578125 207.98046875 C-334.53027453 204.12088272 -339.05140359 200.04596884 -343.56640625 195.890625 C-347.14887232 192.67402781 -350.88038842 189.66511897 -354.625 186.640625 C-358.17029817 183.71703854 -361.5695813 180.65052402 -364.9609375 177.55078125 C-367.78647386 174.99657123 -370.69350704 172.54785385 -373.62890625 170.12109375 C-377.3024432 166.42210504 -378.80498065 162.98266643 -379.0078125 157.79296875 C-378.78445627 150.17093736 -375.17628291 145.99618792 -370.3203125 140.41796875 C-369.45379062 139.3909554 -368.58925885 138.36226015 -367.7265625 137.33203125 C-366.35850474 135.70387608 -364.98620782 134.08032262 -363.6003418 132.46728516 C-360.2124132 128.52254019 -356.99694628 124.47131081 -353.8203125 120.35546875 C-350.18334475 115.69367332 -346.47745193 111.10685306 -342.5703125 106.66796875 C-341.72984375 105.70375 -340.889375 104.73953125 -340.0234375 103.74609375 C-336.37347254 100.60248231 -332.88465993 99.5531716 -328.09765625 99.30078125 C-319.74306278 100.40053665 -315.04211426 105.48197672 -309.0234375 110.99609375 C-306.37206757 113.3715986 -303.65455964 115.62223248 -300.8828125 117.85546875 C-296.10746848 121.7173855 -291.58363565 125.79471099 -287.06640625 129.953125 C-284.40156084 132.34504172 -281.67199425 134.61051759 -278.8828125 136.85546875 C-274.34714807 140.5136789 -270.0633008 144.3653984 -265.80102539 148.33178711 C-262.56837275 151.32223875 -259.25334484 154.15575882 -255.8203125 156.91796875 C-251.30253437 160.55296264 -247.04212734 164.38507165 -242.80078125 168.33203125 C-238.7148548 172.11177716 -234.44288839 175.61290411 -230.10546875 179.1015625 C-226.5359413 182.07032797 -223.15349576 185.21521392 -219.75683594 188.37817383 C-215.14112472 192.64763094 -210.29472013 196.57710976 -205.3203125 200.41796875 C-198.84285794 195.26544808 -193.40712803 189.23581029 -187.86669922 183.12158203 C-185.92561226 180.98313795 -183.97031429 178.85801261 -182.01464844 176.73291016 C-177.5199435 171.84591118 -173.0674972 166.92197456 -168.6328125 161.98046875 C-165.57671789 158.59398554 -162.49045638 155.23552061 -159.40405273 151.87670898 C-156.54429046 148.7616375 -153.70515891 145.629452 -150.8828125 142.48046875 C-146.88582872 138.02586965 -142.82956841 133.62878396 -138.76416016 129.23681641 C-135.0055327 125.17185064 -131.29281407 121.06811969 -127.59765625 116.9453125 C-124.5550831 113.56873475 -121.47912506 110.22316394 -118.40380859 106.87646484 C-115.54414638 103.76145783 -112.70508213 100.62936633 -109.8828125 97.48046875 C-105.88582872 93.02586965 -101.82956841 88.62878396 -97.76416016 84.23681641 C-94.0055327 80.17185064 -90.29281407 76.06811969 -86.59765625 71.9453125 C-84.02221475 69.08714672 -81.42345486 66.25086614 -78.8203125 63.41796875 C-75.46738133 59.76869704 -72.13032893 56.10627277 -68.8203125 52.41796875 C-63.23111467 46.19227864 -57.56507192 40.03743797 -51.90429688 33.87695312 C-47.18805687 28.7432313 -42.47748659 23.60549718 -37.8203125 18.41796875 C-37.46130859 18.01964844 -37.46130859 18.01964844 -35.64453125 16.00390625 C-34.41284333 14.63352406 -33.18215454 13.26221262 -31.95947266 11.88378906 C-30.52315593 10.26481086 -29.07846332 8.65361233 -27.6328125 7.04296875 C-27.19775391 6.55441406 -27.19775391 6.55441406 -24.99609375 4.08203125 C-17.80501657 -3.07755216 -8.94397526 -6.69589499 0 0 Z " fill="#53CF34" transform="translate(424.3203125,111.58203125)"/>
</svg>
