<?xml version="1.0" encoding="UTF-8"?>
<!-- Generator: visioncortex VTracer 0.6.12 -->
<svg version="1.1" xmlns="http://www.w3.org/2000/svg" width="512" height="512">
<path d="M0 0 C3.48745584 0.0045807 6.97489275 -0.00248671 10.46234465 -0.00795984 C17.27101583 -0.01679634 24.07964261 -0.01495767 30.88831544 -0.00913456 C36.42790843 -0.00459527 41.96748909 -0.0040149 47.50708342 -0.00618219 C48.29917584 -0.00648866 49.09126825 -0.00679513 49.90736347 -0.00711088 C51.51709597 -0.00775041 53.12682846 -0.00839884 54.73656094 -0.00905606 C69.78790386 -0.01474253 84.83922232 -0.00822799 99.89056122 0.00254467 C112.77111951 0.01147864 125.65164174 0.00992613 138.53219938 0.00070715 C153.53417474 -0.01002535 168.53612873 -0.01419336 183.5381074 -0.00806832 C185.14151525 -0.00743131 186.74492311 -0.00680256 188.34833097 -0.00618219 C189.13698783 -0.00587364 189.92564469 -0.00556509 190.73820025 -0.00524719 C196.26329874 -0.00352917 201.78838353 -0.00641597 207.3134799 -0.0111413 C214.05793984 -0.01678337 220.8023533 -0.01516441 227.546808 -0.00457981 C230.9798599 0.00063254 234.41283464 0.00281064 237.84588575 -0.00387812 C265.97883452 -0.04543691 291.35952529 0.71858038 312.6152072 21.38644934 C333.79270917 42.88271248 334.24392777 69.02592898 334.18915653 97.40142155 C334.18458126 100.91614261 334.19164063 104.43084475 334.19711637 107.94556189 C334.20595851 114.8095141 334.20411164 121.6734223 334.19829109 128.53737617 C334.19375406 134.12133803 334.19317047 139.70528766 334.19533873 145.28925085 C334.19564519 146.08731821 334.19595166 146.88538556 334.19626741 147.70763677 C334.19690693 149.32945053 334.19755536 150.95126429 334.19821259 152.57307804 C334.20390071 167.74170184 334.19738191 182.91030138 334.18661186 198.0789212 C334.17767774 211.06327866 334.17923021 224.04760034 334.18844938 237.03195715 C334.19917893 252.15037801 334.20335153 267.26877765 334.19722486 282.38720179 C334.19658783 284.0026838 334.19595909 285.61816581 334.19533873 287.23364782 C334.19503018 288.0282686 334.19472162 288.82288938 334.19440372 289.64158958 C334.19268482 295.21172995 334.19557442 300.78185673 334.20029783 306.35199499 C334.2059366 313.15030641 334.20432775 319.9485717 334.19373634 326.74687791 C334.18851964 330.20815248 334.18635359 333.66935048 334.19303465 337.13062429 C334.23462399 365.54115602 333.0580767 390.04259979 312.2402072 411.51144934 C290.71381741 432.68679128 264.11050681 432.57794922 235.85541439 432.52289867 C232.36795855 432.51831797 228.88052164 432.52538538 225.39306974 432.53085852 C218.58439856 432.53969502 211.77577178 432.53785634 204.96709895 432.53203323 C199.42750596 432.52749394 193.8879253 432.52691358 188.34833097 432.52908087 C187.55623856 432.52938733 186.76414614 432.5296938 185.94805092 432.53000955 C184.33831842 432.53064908 182.72858594 432.53129751 181.11885345 432.53195474 C166.06751053 432.5376412 151.01619207 432.53112667 135.96485317 432.520354 C123.08429488 432.51142003 110.20377265 432.51297255 97.32321501 432.52219152 C82.32123965 432.53292402 67.31928566 432.53709204 52.317307 432.530967 C50.71389914 432.53032998 49.11049128 432.52970124 47.50708342 432.52908087 C46.71842656 432.52877232 45.9297697 432.52846377 45.11721414 432.52814586 C39.59211565 432.52642784 34.06703086 432.52931464 28.54193449 432.53403997 C21.79747455 432.53968205 15.05306109 432.53806309 8.30860639 432.52747849 C4.87555449 432.52226613 1.44257975 432.52008804 -1.99047136 432.52677679 C-30.67663647 432.56915281 -55.63770685 431.60101368 -77.3222928 410.57394934 C-98.23911325 389.31036686 -98.38761837 363.03329029 -98.33374214 335.12147713 C-98.32916687 331.60675607 -98.33622624 328.09205393 -98.34170198 324.57733679 C-98.35054412 317.71338457 -98.34869725 310.84947637 -98.3428767 303.98552251 C-98.33833967 298.40156064 -98.33775608 292.81761101 -98.33992434 287.23364782 C-98.3402308 286.43558047 -98.34053727 285.63751311 -98.34085302 284.8152619 C-98.34149254 283.19344814 -98.34214097 281.57163439 -98.3427982 279.94982064 C-98.34848632 264.78119683 -98.34196752 249.6125973 -98.33119747 234.44397748 C-98.32226335 221.45962002 -98.32381582 208.47529834 -98.33303499 195.49094152 C-98.34376454 180.37252067 -98.34793714 165.25412102 -98.34181046 150.13569689 C-98.34117344 148.52021488 -98.3405447 146.90473287 -98.33992434 145.28925085 C-98.33977006 144.89194046 -98.33977006 144.89194046 -98.33898933 142.88130909 C-98.33727043 137.31116873 -98.34016003 131.74104194 -98.34488344 126.17090368 C-98.35052221 119.37259227 -98.34891336 112.57432697 -98.33832195 105.77602077 C-98.33310525 102.31474619 -98.3309392 98.8535482 -98.33762026 95.39227438 C-98.37840551 67.5310333 -97.40677643 42.61531925 -76.9472928 21.57394934 C-55.17499695 0.12450785 -28.73356075 -0.05598277 0 0 Z M232.9277072 123.26144934 C227.0366278 129.30448118 221.63159005 135.76457582 216.33005095 142.32394934 C213.63822181 145.61542172 210.88697641 148.849801 208.1152072 152.07394934 C207.61094206 152.66063391 207.10667692 153.24731848 206.58713102 153.85178137 C204.51499164 156.26014726 202.44053784 158.66651447 200.36618376 161.07297277 C195.34609222 166.89980847 190.3339707 172.72379582 185.4902072 178.69894934 C181.34709728 183.80452398 177.04540269 188.75944987 172.72482634 193.7143302 C169.56304882 197.34882784 166.45920513 201.01665777 163.4277072 204.76144934 C159.35013593 209.79493475 155.12264805 214.68478243 150.86960173 219.56955481 C145.9489307 225.22409813 141.0998962 230.9361702 136.27048063 236.6686759 C133.99349281 239.36959746 131.71024926 242.06522178 129.4277072 244.76144934 C128.51101135 245.84475798 127.59434467 246.9280913 126.6777072 248.01144934 C121.1777072 254.51144934 121.1777072 254.51144934 119.80124235 256.13815832 C118.88942928 257.21577032 117.97764518 258.29340683 117.06589079 259.37106848 C114.70020746 262.16714536 112.33394245 264.962727 109.9667697 267.75754309 C109.47885954 268.33375402 108.99094938 268.90996496 108.48825407 269.50363684 C107.56526656 270.59364114 106.64210396 271.68349722 105.71872282 272.77316809 C102.77088939 276.25493178 99.84463845 279.75381337 96.9277072 283.26144934 C85.86165713 273.95590724 75.4077307 263.93350317 64.85104704 254.05978918 C61.71202139 251.12477231 58.56972596 248.19326118 55.4277072 245.26144934 C54.17769095 244.09480007 52.92769096 242.92813339 51.6777072 241.76144934 C51.3683322 241.47269934 51.3683322 241.47269934 49.8027072 240.01144934 C44.1777072 234.76144934 44.1777072 234.76144934 42.30026579 233.00900793 C41.05862057 231.85024698 39.81676091 230.69171576 38.57467985 229.53342199 C35.31999497 226.49771197 32.06987303 223.45730442 28.8261447 220.40988684 C28.48937712 220.09406652 28.48937712 220.09406652 26.78512907 218.49582434 C25.5011871 217.29157532 24.21854913 216.08593388 22.93747282 214.87863684 C19.70699311 211.8516238 16.43344434 208.97343467 12.9277072 206.26144934 C10.94575074 208.38390648 8.96706462 210.50925201 6.9902072 212.63644934 C6.42624235 213.23973059 5.86227751 213.84301184 5.28122282 214.46457434 C5.01213102 214.7546134 5.01213102 214.7546134 3.65036345 216.22238684 C3.15286589 216.75654211 2.65536833 217.29069738 2.14279509 217.84103918 C0.9277072 219.26144934 0.9277072 219.26144934 -0.0722928 221.26144934 C0.42399626 221.6855509 0.92028532 222.10965246 1.43161345 222.54660559 C4.87476791 225.51934805 8.23980694 228.51465024 11.4277072 231.76144934 C13.83836199 234.21593422 16.32123111 236.51586994 18.9277072 238.76144934 C22.15727087 241.54384265 25.16093373 244.47164362 28.1464572 247.51144934 C30.01160394 249.34387421 31.94698465 251.05498068 33.9277072 252.76144934 C37.12366067 255.51488618 40.10000783 258.40822112 43.05295134 261.41794348 C44.85994407 263.19481575 46.72115653 264.85581807 48.64255095 266.50754309 C52.86063637 270.17548557 56.93460518 273.97808696 60.9902072 277.82394934 C62.48606497 279.23695961 63.98216337 280.64971518 65.47848845 282.06223059 C65.85078581 282.41390295 65.85078581 282.41390295 67.7348361 284.19357824 C77.73232114 293.62117769 87.81873452 302.95369372 97.9277072 312.26144934 C101.69046764 308.59446825 105.15643151 304.76798893 108.5527072 300.76144934 C109.07340788 300.15051428 109.59410856 299.53957922 110.13058805 298.91013098 C111.73217046 297.02938033 113.33044562 295.14587022 114.9277072 293.26144934 C115.40578825 292.69796789 115.8838693 292.13448645 116.37643766 291.55392981 C119.1113022 288.32949668 121.84117746 285.10087905 124.56882048 281.87033606 C126.85316905 279.16572644 129.14060227 276.46372806 131.4277072 273.76144934 C132.34438845 272.67812835 133.26105512 271.59479502 134.1777072 270.51144934 C136.01104053 268.34478267 137.84437386 266.178116 139.6777072 264.01144934 C140.13137663 263.4752799 140.58504606 262.93911047 141.05246305 262.38669348 C141.96988517 261.30249696 142.88736571 260.21834988 143.80490446 259.13425207 C146.08549264 256.43952623 148.36508535 253.74397122 150.64255095 251.04660559 C155.42179045 245.38874108 160.2221923 239.75062191 165.0527072 234.13644934 C168.54585826 230.07516189 171.99219115 225.98626347 175.3652072 221.82394934 C179.50831711 216.71837469 183.8100117 211.7634488 188.13058805 206.80856848 C191.29236557 203.17407083 194.39620926 199.50624091 197.4277072 195.76144934 C201.54663886 190.67335728 205.82918054 185.7414111 210.1308322 180.80832434 C213.2924995 177.17388435 216.39628191 173.50615116 219.4277072 169.76144934 C223.49741289 164.73767344 227.71577076 159.85638181 231.96164274 154.98190832 C237.34724621 148.79508825 242.64654032 142.53746528 247.9277072 136.26144934 C244.76043478 133.0548668 241.54291684 129.94714786 238.1777072 126.94894934 C237.78841032 126.60025793 237.78841032 126.60025793 235.8183322 124.83566809 C233.9277072 123.26144934 233.9277072 123.26144934 232.9277072 123.26144934 Z " fill="#000000" transform="translate(138.07229280471802,39.738550662994385)"/>
</svg>
