<?xml version="1.0" encoding="UTF-8"?>
<!-- Generator: visioncortex VTracer 0.6.12 -->
<svg version="1.1" xmlns="http://www.w3.org/2000/svg" width="512" height="512">
<path d="M0 0 C3.48745584 0.0045807 6.97489275 -0.00248671 10.46234465 -0.00795984 C17.27101583 -0.01679634 24.07964261 -0.01495767 30.88831544 -0.00913456 C36.42790843 -0.00459527 41.96748909 -0.0040149 47.50708342 -0.00618219 C48.29917584 -0.00648866 49.09126825 -0.00679513 49.90736347 -0.00711088 C51.51709597 -0.00775041 53.12682846 -0.00839884 54.73656094 -0.00905606 C69.78790386 -0.01474253 84.83922232 -0.00822799 99.89056122 0.00254467 C112.77111951 0.01147864 125.65164174 0.00992613 138.53219938 0.00070715 C153.53417474 -0.01002535 168.53612873 -0.01419336 183.5381074 -0.00806832 C185.14151525 -0.00743131 186.74492311 -0.00680256 188.34833097 -0.00618219 C189.13698783 -0.00587364 189.92564469 -0.00556509 190.73820025 -0.00524719 C196.26329874 -0.00352917 201.78838353 -0.00641597 207.3134799 -0.0111413 C214.05793984 -0.01678337 220.8023533 -0.01516441 227.546808 -0.00457981 C230.9798599 0.00063254 234.41283464 0.00281064 237.84588575 -0.00387812 C266.53205086 -0.04625413 291.49312124 0.921885 313.1777072 21.94894934 C334.09452764 43.21253182 334.24303276 69.48960839 334.18915653 97.40142155 C334.18458126 100.91614261 334.19164063 104.43084475 334.19711637 107.94556189 C334.20595851 114.8095141 334.20411164 121.6734223 334.19829109 128.53737617 C334.19375406 134.12133803 334.19317047 139.70528766 334.19533873 145.28925085 C334.19564519 146.08731821 334.19595166 146.88538556 334.19626741 147.70763677 C334.19690693 149.32945053 334.19755536 150.95126429 334.19821259 152.57307804 C334.20390071 167.74170184 334.19738191 182.91030138 334.18661186 198.0789212 C334.17767774 211.06327866 334.17923021 224.04760034 334.18844938 237.03195715 C334.19917893 252.15037801 334.20335153 267.26877765 334.19722486 282.38720179 C334.19658783 284.0026838 334.19595909 285.61816581 334.19533873 287.23364782 C334.19503018 288.0282686 334.19472162 288.82288938 334.19440372 289.64158958 C334.19268482 295.21172995 334.19557442 300.78185673 334.20029783 306.35199499 C334.2059366 313.15030641 334.20432775 319.9485717 334.19373634 326.74687791 C334.18851964 330.20815248 334.18635359 333.66935048 334.19303465 337.13062429 C334.23462399 365.54115602 333.0580767 390.04259979 312.2402072 411.51144934 C290.71381741 432.68679128 264.11050681 432.57794922 235.85541439 432.52289867 C232.36795855 432.51831797 228.88052164 432.52538538 225.39306974 432.53085852 C218.58439856 432.53969502 211.77577178 432.53785634 204.96709895 432.53203323 C199.42750596 432.52749394 193.8879253 432.52691358 188.34833097 432.52908087 C187.55623856 432.52938733 186.76414614 432.5296938 185.94805092 432.53000955 C184.33831842 432.53064908 182.72858594 432.53129751 181.11885345 432.53195474 C166.06751053 432.5376412 151.01619207 432.53112667 135.96485317 432.520354 C123.08429488 432.51142003 110.20377265 432.51297255 97.32321501 432.52219152 C82.32123965 432.53292402 67.31928566 432.53709204 52.317307 432.530967 C50.71389914 432.53032998 49.11049128 432.52970124 47.50708342 432.52908087 C46.71842656 432.52877232 45.9297697 432.52846377 45.11721414 432.52814586 C39.59211565 432.52642784 34.06703086 432.52931464 28.54193449 432.53403997 C21.79747455 432.53968205 15.05306109 432.53806309 8.30860639 432.52747849 C4.87555449 432.52226613 1.44257975 432.52008804 -1.99047136 432.52677679 C-30.67663647 432.56915281 -55.63770685 431.60101368 -77.3222928 410.57394934 C-98.23911325 389.31036686 -98.38761837 363.03329029 -98.33374214 335.12147713 C-98.32916687 331.60675607 -98.33622624 328.09205393 -98.34170198 324.57733679 C-98.35054412 317.71338457 -98.34869725 310.84947637 -98.3428767 303.98552251 C-98.33833967 298.40156064 -98.33775608 292.81761101 -98.33992434 287.23364782 C-98.3402308 286.43558047 -98.34053727 285.63751311 -98.34085302 284.8152619 C-98.34149254 283.19344814 -98.34214097 281.57163439 -98.3427982 279.94982064 C-98.34848632 264.78119683 -98.34196752 249.6125973 -98.33119747 234.44397748 C-98.32226335 221.45962002 -98.32381582 208.47529834 -98.33303499 195.49094152 C-98.34376454 180.37252067 -98.34793714 165.25412102 -98.34181046 150.13569689 C-98.34117344 148.52021488 -98.3405447 146.90473287 -98.33992434 145.28925085 C-98.33977006 144.89194046 -98.33977006 144.89194046 -98.33898933 142.88130909 C-98.33727043 137.31116873 -98.34016003 131.74104194 -98.34488344 126.17090368 C-98.35052221 119.37259227 -98.34891336 112.57432697 -98.33832195 105.77602077 C-98.33310525 102.31474619 -98.3309392 98.8535482 -98.33762026 95.39227438 C-98.3792096 66.98174265 -97.20266231 42.48029888 -76.3847928 21.01144934 C-54.85840302 -0.16389261 -28.25509242 -0.05505055 0 0 Z M-64.0722928 39.26144934 C-71.25835058 48.62466917 -76.18725259 59.59946998 -76.20372057 71.52837992 C-76.20756171 72.57595345 -76.21140286 73.62352697 -76.2153604 74.70284516 C-76.21449392 75.84738 -76.21362744 76.99191485 -76.2127347 78.17113256 C-76.21570582 79.39200361 -76.21867694 80.61287465 -76.2217381 81.87074178 C-76.22891139 85.25676539 -76.23159688 88.64273825 -76.23233557 92.0287658 C-76.23418866 95.68198073 -76.24173737 99.33518472 -76.24847078 102.98839331 C-76.26204538 110.97624999 -76.26807772 118.96410165 -76.27248144 126.95196795 C-76.27524584 131.94237149 -76.27948361 136.9327731 -76.28398561 141.92317533 C-76.29617809 155.74737854 -76.30647683 169.5715802 -76.30986071 183.39578867 C-76.31008027 184.28037769 -76.31029984 185.16496672 -76.31052606 186.07636147 C-76.31074434 186.96303986 -76.31096261 187.84971824 -76.31118751 188.76326567 C-76.31163097 190.55994213 -76.31207753 192.35661858 -76.31252718 194.15329504 C-76.31274861 195.04450424 -76.31297004 195.93571344 -76.31319818 196.85392898 C-76.31714372 211.28528126 -76.33459041 225.71658297 -76.3578867 240.14791573 C-76.38162628 254.97389667 -76.39406378 269.79985227 -76.39522862 284.62585253 C-76.39614402 292.94617574 -76.40186201 301.26643309 -76.42004824 309.58673811 C-76.43548456 316.67382832 -76.44054899 323.76083232 -76.43231013 330.84793616 C-76.42841583 334.46057288 -76.42927303 338.07303617 -76.44336748 341.6856513 C-76.45854301 345.61146824 -76.45020359 349.53704401 -76.43978548 353.46288061 C-76.44784189 354.5918004 -76.45589829 355.7207202 -76.46419883 356.88384968 C-76.37045918 372.04510679 -71.79736566 385.07109149 -61.3301053 396.19504309 C-51.96583242 404.76545892 -39.58600215 410.3752333 -26.80536222 410.3928771 C-25.7577887 410.39671825 -24.71021517 410.40055939 -23.63089699 410.40451694 C-22.48636214 410.40365045 -21.3418273 410.40278397 -20.16260958 410.40189123 C-19.55217406 410.40337679 -19.55217406 410.40337679 -16.46300036 410.41089463 C-13.07697675 410.41806792 -9.6910039 410.42075341 -6.30497634 410.4214921 C-2.65176141 410.42334519 1.00144258 410.43089391 4.65465117 410.43762732 C12.64250785 410.45120191 20.63035951 410.45723425 28.61822581 410.46163797 C33.60862935 410.46440237 38.59903096 410.46864014 43.58943319 410.47314215 C57.4136364 410.48533462 71.23783806 410.49563336 85.06204653 410.49901724 C85.94663555 410.4992368 86.83122458 410.49945637 87.74261933 410.49968259 C88.18595852 410.49979173 88.18595852 410.49979173 90.42952353 410.50034404 C92.22619999 410.5007875 94.02287644 410.50123406 95.8195529 410.50168371 C96.7107621 410.50190514 97.6019713 410.50212657 98.52018683 410.50235471 C112.95153912 410.50630026 127.38284083 410.52374694 141.81417359 410.54704323 C156.64015453 410.57078281 171.46611013 410.58322031 186.29211038 410.58438516 C194.61243359 410.58530055 202.93269094 410.59101854 211.25299597 410.60920477 C218.34008618 410.6246411 225.42709018 410.62970552 232.51419402 410.62146667 C236.12683073 410.61757237 239.73929403 410.61842957 243.35190916 410.63252401 C247.27772609 410.64769954 251.20330187 410.63936012 255.12913847 410.62894201 C256.25805826 410.63699842 257.38697806 410.64505482 258.55010754 410.65335536 C273.71136465 410.55961571 286.73734935 405.98652219 297.86130095 395.51926184 C306.43171678 386.15498896 312.04149116 373.77515868 312.05913496 360.99451876 C312.06297611 359.94694523 312.06681725 358.8993717 312.07077479 357.82005352 C312.07034155 357.2477861 312.07034155 357.2477861 312.06814909 354.35176611 C312.07112021 353.13089507 312.07409133 351.91002402 312.07715249 350.65215689 C312.08432578 347.26613329 312.08701127 343.88016043 312.08774996 340.49413288 C312.08960305 336.84091794 312.09715176 333.18771396 312.10388517 329.53450537 C312.11745977 321.54664868 312.12349211 313.55879702 312.12789583 305.57093072 C312.13066023 300.58052718 312.134898 295.59012557 312.13940001 290.59972334 C312.15159248 276.77552013 312.16189122 262.95131847 312.1652751 249.12711 C312.16549466 248.24252098 312.16571423 247.35793195 312.16594045 246.4465372 C312.16615873 245.55985882 312.166377 244.67318043 312.1666019 243.759633 C312.16704536 241.96295655 312.16749192 240.16628009 312.16794157 238.36960363 C312.168163 237.47839444 312.16838443 236.58718524 312.16861257 235.6689697 C312.17255812 221.23761742 312.1900048 206.8063157 312.21330109 192.37498295 C312.23704067 177.549002 312.24947817 162.7230464 312.25064301 147.89704615 C312.25155841 139.57672294 312.2572764 131.25646559 312.27546263 122.93616056 C312.29089896 115.84907035 312.29596338 108.76206635 312.28772452 101.67496251 C312.28383023 98.0623258 312.28468743 94.44986251 312.29878187 90.83724737 C312.3139574 86.91143044 312.30561798 82.98585466 312.29519987 79.06001806 C312.30325628 77.93109827 312.31131268 76.80217848 312.31961322 75.63904899 C312.22587357 60.47779189 307.65278005 47.45180718 297.1855197 36.32785559 C287.82124681 27.75743975 275.44141654 22.14766538 262.66077662 22.13002157 C261.61320309 22.12618043 260.56562956 22.12233928 259.48631138 22.11838174 C258.34177653 22.11924822 257.19724169 22.1201147 256.01802397 22.12100744 C254.79715293 22.11803632 253.57628188 22.1150652 252.31841475 22.11200404 C248.93239114 22.10483075 245.54641829 22.10214527 242.16039073 22.10140657 C238.5071758 22.09955348 234.85397181 22.09200477 231.20076323 22.08527136 C223.21290654 22.07169676 215.22505488 22.06566443 207.23718858 22.0612607 C202.24678504 22.0584963 197.25638343 22.05425854 192.2659812 22.04975653 C178.44177799 22.03756405 164.61757633 22.02726531 150.79336786 22.02388144 C149.90877884 22.02366187 149.02418981 22.0234423 148.11279506 22.02321608 C147.22611667 22.02299781 146.33943829 22.02277953 145.42589086 22.02255464 C143.62921441 22.02211117 141.83253795 22.02166461 140.03586149 22.02121496 C139.14465229 22.02099353 138.25344309 22.0207721 137.33522756 22.02054396 C122.90387527 22.01659842 108.47257356 21.99915173 94.0412408 21.97585544 C79.21525986 21.95211586 64.38930426 21.93967837 49.56330401 21.93851352 C41.2429808 21.93759812 32.92272345 21.93188014 24.60241842 21.9136939 C17.51532821 21.89825758 10.42832421 21.89319316 3.34122037 21.90143201 C-0.27141634 21.90532631 -3.88387964 21.90446911 -7.49649477 21.89037466 C-11.4223117 21.87519913 -15.34788748 21.88353855 -19.27372408 21.89395666 C-20.40264387 21.88590026 -21.53156366 21.87784385 -22.69469315 21.86954331 C-38.80732965 21.96916519 -53.05271539 27.22115492 -64.0722928 39.26144934 Z " fill="#000000" transform="translate(138.07229280471802,39.738550662994385)"/>
<path d="M0 0 C4.08031121 0.53962352 6.13041887 2.67347178 9.0625 5.4375 C11.66124502 7.87211376 14.03292539 10.02195026 17 12 C16.43384016 15.88350268 14.66155353 17.75770314 12 20.5625 C8.79348873 24.02109549 5.7096851 27.51529811 2.75 31.1875 C-0.90846134 35.70940939 -4.67692716 40.11778899 -8.5 44.5 C-12.23415168 48.78206292 -15.92459104 53.08331835 -19.5 57.5 C-23.61893166 62.58809206 -27.90147334 67.52003823 -32.203125 72.453125 C-35.36479231 76.08756499 -38.46857472 79.75529818 -41.5 83.5 C-45.57757127 88.53348541 -49.80505915 93.42333309 -54.05810547 98.30810547 C-58.9787765 103.96264879 -63.82781099 109.67472086 -68.65722656 115.40722656 C-70.93421439 118.10814812 -73.21745794 120.80377244 -75.5 123.5 C-76.41669584 124.58330865 -77.33336253 125.66664196 -78.25 126.75 C-80.08333333 128.91666667 -81.91666667 131.08333333 -83.75 133.25 C-84.20366943 133.78616943 -84.65733887 134.32233887 -85.12475586 134.87475586 C-86.04217797 135.95895238 -86.95965852 137.04309945 -87.87719727 138.12719727 C-90.15778544 140.82192311 -92.43737815 143.51747812 -94.71484375 146.21484375 C-99.99814587 152.46943875 -105.31310927 158.69504711 -110.65332031 164.90112305 C-113.71928679 168.47492143 -116.72375968 172.090425 -119.6875 175.75 C-123.94608607 180.99913631 -128.43088019 186.02041553 -133 191 C-136.02437591 189.63809547 -138.19124265 188.08711793 -140.58203125 185.796875 C-141.2589502 185.15347168 -141.93586914 184.51006836 -142.63330078 183.84716797 C-143.35243652 183.15510254 -144.07157227 182.46303711 -144.8125 181.75 C-146.34735684 180.28874794 -147.8825187 178.82781621 -149.41796875 177.3671875 C-150.18802246 176.63209961 -150.95807617 175.89701172 -151.75146484 175.13964844 C-155.02117078 172.02828005 -158.32106925 168.94993675 -161.625 165.875 C-162.85682452 164.72662008 -164.08859542 163.57818265 -165.3203125 162.4296875 C-165.92649414 161.86475586 -166.53267578 161.29982422 -167.15722656 160.71777344 C-170.27293906 157.81340763 -173.38634111 154.90656701 -176.5 152 C-177.74998918 150.83332174 -178.99998917 149.66665507 -180.25 148.5 C-187.75 141.5 -195.25 134.5 -202.75 127.5 C-203.36963623 126.92169434 -203.98927246 126.34338867 -204.62768555 125.74755859 C-205.86882045 124.58912286 -207.10986963 123.43059527 -208.35083008 122.27197266 C-211.61074342 119.2285865 -214.87244195 116.18714352 -218.13671875 113.1484375 C-218.47574219 112.83261719 -218.47574219 112.83261719 -220.19140625 111.234375 C-221.48642775 110.0280536 -222.78196969 108.82229058 -224.078125 107.6171875 C-227.10635207 104.79527919 -230.09769372 101.95271855 -233 99 C-231.48099978 95.3758636 -229.31929546 93.142376 -226.5 90.4375 C-223.97190847 88.0038015 -221.95327066 85.92990599 -220 83 C-214.94481441 84.47247521 -212.20486947 87.48353268 -208.6875 91.1875 C-207.53448003 92.37297198 -206.37954095 93.55658051 -205.22265625 94.73828125 C-204.66852051 95.30498535 -204.11438477 95.87168945 -203.54345703 96.45556641 C-201.06715899 98.93343123 -198.4258458 101.19478369 -195.7578125 103.4609375 C-193.30862076 105.60534094 -191.06118444 107.92861221 -188.78125 110.25 C-186.91610326 112.08242487 -184.98072254 113.79353135 -183 115.5 C-179.80369549 118.25373927 -176.82706373 121.14743497 -173.8737793 124.1574707 C-172.07221758 125.92898683 -170.21685624 127.58428429 -168.30078125 129.23046875 C-163.98795985 132.98027416 -159.83144601 136.87796947 -155.6875 140.8125 C-149.19355699 146.95362754 -142.6484677 153.02643075 -136 159 C-128.30989883 151.39170842 -121.19984473 143.34776483 -114.40234375 134.9375 C-111.71051461 131.64602762 -108.95926921 128.41164833 -106.1875 125.1875 C-105.68323486 124.60081543 -105.17896973 124.01413086 -104.65942383 123.40966797 C-102.58728444 121.00130207 -100.51283065 118.59493486 -98.43847656 116.18847656 C-93.41838502 110.36164087 -88.40626351 104.53765352 -83.5625 98.5625 C-79.41939009 93.45692535 -75.1176955 88.50199947 -70.79711914 83.54711914 C-67.63534162 79.91262149 -64.53149794 76.24479157 -61.5 72.5 C-57.38106834 67.41190794 -53.09852666 62.47996177 -48.796875 57.546875 C-45.63520769 53.91243501 -42.53142528 50.24470182 -39.5 46.5 C-35.42242873 41.46651459 -31.19494085 36.57666691 -26.94189453 31.69189453 C-22.0376002 26.05617034 -17.20440513 20.36336979 -12.39111328 14.64990234 C-9.86918501 11.65881929 -7.34032944 8.6735957 -4.8125 5.6875 C-3.88148253 4.58726318 -2.95049023 3.48700506 -2.01953125 2.38671875 C-1.68630859 1.99291016 -1.68630859 1.99291016 0 0 Z " fill="#000000" transform="translate(370,162)"/>
</svg>
