<?xml version="1.0" encoding="UTF-8"?>
<!-- Generator: visioncortex VTracer 0.6.12 -->
<svg version="1.1" xmlns="http://www.w3.org/2000/svg" width="512" height="512">
<path d="M0 0 C4.94327731 2.85656598 8.47914677 7.06683675 10.625 12.375 C10.9609375 15.328125 10.9609375 15.328125 11 18.625 C11.02835937 19.70265625 11.05671875 20.7803125 11.0859375 21.890625 C9.96691596 30.34966922 4.11180621 37.36535102 -0.56903076 44.25979614 C-2.59862523 47.25048211 -4.61202008 50.25202158 -6.625 53.25390625 C-7.03003754 53.85752487 -7.43507507 54.46114349 -7.85238647 55.08305359 C-11.5746998 60.64465135 -15.17938253 66.27739508 -18.75 71.9375 C-23.28719453 79.12165922 -27.90686159 86.23681021 -32.6418457 93.29199219 C-36.95557634 99.72569762 -41.20280809 106.20153872 -45.4375 112.6875 C-46.15413818 113.78505615 -46.87077637 114.8826123 -47.60913086 116.01342773 C-48.72252224 117.71874715 -49.83586786 119.42409636 -50.94908142 121.12953186 C-55.20843034 127.65384951 -59.47908635 134.17074947 -63.75 140.6875 C-64.54745316 141.90445407 -65.34489779 143.12141372 -66.14233398 144.33837891 C-68.95580072 148.63190836 -71.76952739 152.92526744 -74.58325195 157.21862793 C-77.38898331 161.4998212 -80.19458957 165.78109642 -83 170.0625 C-83.39491638 170.66518707 -83.78983276 171.26787415 -84.19671631 171.88882446 C-89.76104277 180.38101738 -95.32011698 188.87662572 -100.875 197.375 C-106.82809908 206.48260206 -112.78658353 215.58665186 -118.75 224.6875 C-119.14475525 225.28994537 -119.5395105 225.89239075 -119.94622803 226.51309204 C-123.15835205 231.41507974 -126.37079605 236.31685772 -129.58325195 241.21862793 C-132.38898331 245.4998212 -135.19458957 249.78109642 -138 254.0625 C-138.19745819 254.36384354 -138.19745819 254.36384354 -139.19671631 255.88882446 C-144.76104286 264.38101751 -150.31999499 272.87670534 -155.875 281.375 C-157.97762029 284.59087363 -160.08033455 287.80668579 -162.18310547 291.02246094 C-163.69031066 293.32755833 -165.19708321 295.63293788 -166.70361328 297.93847656 C-171.0880901 304.64750938 -175.47859639 311.35249569 -179.88105774 318.04974365 C-182.19877837 321.5772597 -184.506047 325.11132123 -186.80519104 328.65097046 C-188.59199815 331.39709104 -190.39085432 334.13531 -192.1875 336.875 C-192.82695557 337.86580566 -193.46641113 338.85661133 -194.12524414 339.87744141 C-198.12566067 345.94604609 -202.23525597 351.81913832 -209.375 354.375 C-217.07814049 355.46053741 -223.3225382 354.90326798 -229.78515625 350.47265625 C-234.09578635 346.98124092 -238.12917526 343.21862359 -242.14453125 339.39453125 C-245.8246726 335.90906008 -249.74445893 332.75807211 -253.6953125 329.5859375 C-256.50753315 327.2656505 -259.19297263 324.84428866 -261.875 322.375 C-265.45292463 319.08168301 -269.09039666 315.92848679 -272.875 312.875 C-277.63239668 309.03664586 -282.13283918 304.97877641 -286.62890625 300.83984375 C-289.29375166 298.44792703 -292.02331825 296.18245116 -294.8125 293.9375 C-299.34736161 290.27993736 -303.63036183 286.42882973 -307.89208984 282.46337891 C-312.00279276 278.66101193 -316.29775584 275.13229408 -320.66015625 271.62109375 C-323.48173495 269.2866941 -326.18090712 266.85509402 -328.875 264.375 C-332.45292463 261.08168301 -336.09039666 257.92848679 -339.875 254.875 C-343.65960334 251.82151321 -347.29707537 248.66831699 -350.875 245.375 C-354.49544823 242.04336245 -358.17780446 238.84821421 -362 235.75 C-362.90105469 235.01652344 -363.80210937 234.28304687 -364.73046875 233.52734375 C-366.45939567 232.12019644 -368.19105962 230.71640365 -369.92578125 229.31640625 C-375.77462341 224.40567626 -379.74944827 220.24771875 -380.74609375 212.484375 C-381.01112881 206.09140819 -380.6129498 200.40896683 -376.375 195.375 C-369.69429307 189.86401973 -363.99968854 187.63449644 -355.375 188.375 C-345.28105969 191.17887231 -337.45256341 200.24663651 -329.90234375 207.12890625 C-327.30537607 209.43687598 -324.64095987 211.63055863 -321.9375 213.8125 C-317.163597 217.67325137 -312.64111572 221.74937075 -308.125 225.90625 C-305.43762366 228.31878104 -302.68534556 230.6075621 -299.875 232.875 C-295.11904581 236.71219031 -290.61995199 240.76885101 -286.125 244.90625 C-283.43762366 247.31878104 -280.68534556 249.6075621 -277.875 251.875 C-273.11760332 255.71335414 -268.61716082 259.77122359 -264.12109375 263.91015625 C-261.45624834 266.30207297 -258.72668175 268.56754884 -255.9375 270.8125 C-251.94271696 274.03446584 -248.12984043 277.38192835 -244.375 280.875 C-236.45664389 288.22894767 -228.10060323 294.99955924 -219.375 301.375 C-219.14941406 300.70855469 -218.92382812 300.04210937 -218.69140625 299.35546875 C-216.97963723 295.47986115 -214.69934584 292.17696271 -212.3125 288.6875 C-211.22018286 287.0698007 -210.12911028 285.45126057 -209.0390625 283.83203125 C-208.44899414 282.95627441 -207.85892578 282.08051758 -207.25097656 281.17822266 C-203.85530839 276.10416461 -200.52362256 270.98832363 -197.1875 265.875 C-196.46957275 264.77542969 -195.75164551 263.67585938 -195.01196289 262.54296875 C-193.53744728 260.28454666 -192.06331039 258.0258779 -190.58935547 255.76708984 C-187.6919349 251.3276506 -184.78952014 246.89147957 -181.88745117 242.45507812 C-175.87657732 233.26609633 -169.87151072 224.07336114 -163.875 214.875 C-156.43823707 203.46736074 -148.98622942 192.06971938 -141.53222656 180.67333984 C-137.97924739 175.2409328 -134.427165 169.80793944 -130.875 164.375 C-129.45833772 162.20833047 -128.04167105 160.0416638 -126.625 157.875 C-125.92375 156.8025 -125.2225 155.73 -124.5 154.625 C-84.12499999 92.87499998 -84.12499999 92.87499998 -81.99951172 89.62426758 C-80.58445511 87.46005379 -79.16941602 85.29582855 -77.75439453 83.1315918 C-74.1882383 77.67730153 -70.62176718 72.22321764 -67.0546875 66.76953125 C-65.6197835 64.57552617 -64.18488763 62.38151578 -62.75 60.1875 C-62.04721924 59.11306641 -61.34443848 58.03863281 -60.62036133 56.93164062 C-56.55950744 50.721642 -52.50598359 44.50695119 -48.45947266 38.28759766 C-46.01525305 34.53476111 -43.56282977 30.78731322 -41.11083984 27.03955078 C-39.40266164 24.41746121 -37.71014134 21.78578449 -36.01953125 19.15234375 C-34.97172551 17.53882129 -33.92356794 15.92552724 -32.875 14.3125 C-32.41891357 13.59255859 -31.96282715 12.87261719 -31.49291992 12.13085938 C-24.30312273 1.15246585 -13.21559121 -6.01848556 0 0 Z " fill="#000000" transform="translate(440.375,89.625)"/>
</svg>
