<?xml version="1.0" encoding="UTF-8"?>
<!-- Generator: visioncortex VTracer 0.6.12 -->
<svg version="1.1" xmlns="http://www.w3.org/2000/svg" width="512" height="512">
<path d="M0 0 C1.2282469 1.0219398 2.45724274 2.04298125 3.6875 3.0625 C4.450625 3.701875 5.21375 4.34125 6 5 C1.68339698 11.00073223 -3.02033308 16.54006063 -8 22 C-12.02606909 19.00608447 -16.03134057 15.99167055 -19.97265625 12.88671875 C-28.95501249 5.83600514 -38.02798546 -0.4432898 -48 -6 C-48.6487207 -6.3707666 -49.29744141 -6.7415332 -49.96582031 -7.12353516 C-98.42337978 -34.74128457 -156.59432029 -40.51421154 -210.1875 -26.3125 C-233.39412021 -19.81096938 -256.52189961 -9.27656222 -276 5 C-277.051875 5.76828125 -278.10375 6.5365625 -279.1875 7.328125 C-286.00690193 12.40464536 -292.29505522 17.87885872 -298.44140625 23.75 C-301 26 -301 26 -303.21484375 27.0625 C-305.55869711 28.29340767 -305.90815985 29.63360358 -307 32 C-308.06381223 33.10290245 -309.1743634 34.16147107 -310.3125 35.1875 C-348.67941105 72.7912356 -366.32418432 129.52382577 -367 182 C-367.04338149 204.08117826 -362.96843485 226.09469546 -356 247 C-355.71672852 247.84981445 -355.43345703 248.69962891 -355.14160156 249.57519531 C-345.18044925 278.75421717 -328.85023832 307.35177099 -306.23828125 328.66015625 C-305 330 -305 330 -305 332 C-304.40574219 332.26167969 -303.81148438 332.52335937 -303.19921875 332.79296875 C-300.86611966 334.07347962 -299.58729812 335.34378094 -297.8125 337.3125 C-260.09742745 375.7930076 -203.58738727 393.05858283 -151 394 C-96.80269176 394.19983483 -45.3066615 371.56601354 -6 335 C-5.45214844 334.41863281 -4.90429688 333.83726562 -4.33984375 333.23828125 C-3 332 -3 332 -1 332 C-0.73832031 331.40574219 -0.47664063 330.81148438 -0.20703125 330.19921875 C1.07347962 327.86611966 2.34378094 326.58729812 4.3125 324.8125 C40.71817173 289.13099172 59.78820495 234.29897826 60.99609375 184.11328125 C61.33333935 146.3233789 52.69265552 106.58573044 32.64453125 74.171875 C31 71 31 71 30.9765625 68.875 C32.43058556 66.21114096 34.29586832 64.20697473 36.375 62 C39.09354227 59.09549882 41.67921987 56.23411941 44 53 C47.51124237 54.41665305 48.84882112 55.87144548 50.6640625 59.1640625 C51.14149902 60.02660645 51.61893555 60.88915039 52.11083984 61.77783203 C52.6105127 62.71739746 53.11018555 63.65696289 53.625 64.625 C54.14916504 65.60194824 54.67333008 66.57889648 55.21337891 67.58544922 C85.33286233 124.86438216 90.90483511 189.70056134 72.37109375 251.53515625 C62.96249911 281.64873093 47.60616632 309.13024196 27 333 C26.33097656 333.77988281 25.66195313 334.55976563 24.97265625 335.36328125 C14.53505024 347.23921658 3.43542338 358.34253797 -9.296875 367.74121094 C-10.96034931 368.97069396 -12.60527552 370.22216212 -14.25 371.4765625 C-63.32703384 408.30806952 -127.35056348 422.43659077 -187.6875 414.0390625 C-231.43989351 407.2213878 -272.4600711 388.95418345 -306 360 C-306.77988281 359.33097656 -307.55976563 358.66195313 -308.36328125 357.97265625 C-320.23921658 347.53505024 -331.34253797 336.43542338 -340.74121094 323.703125 C-341.97069396 322.03965069 -343.22216212 320.39472448 -344.4765625 318.75 C-380.63723472 270.56683624 -395.21919645 207.48966008 -387.48095703 148.10083008 C-380.89870821 103.25062308 -362.67543515 61.37541199 -333 27 C-332.33097656 26.22011719 -331.66195312 25.44023438 -330.97265625 24.63671875 C-320.53505024 12.76078342 -309.43542338 1.65746203 -296.703125 -7.74121094 C-295.03965069 -8.97069396 -293.39472448 -10.22216212 -291.75 -11.4765625 C-212.54362589 -70.91964404 -96.9232998 -70.93574192 0 0 Z " fill="#000000" transform="translate(409,76)"/>
<path d="M0 0 C2.72973709 1.27145549 4.95319143 2.63974463 7.234375 4.6015625 C7.80800781 5.09140625 8.38164062 5.58125 8.97265625 6.0859375 C9.55917969 6.59382813 10.14570313 7.10171875 10.75 7.625 C11.35199219 8.140625 11.95398438 8.65625 12.57421875 9.1875 C14.05260866 10.45469135 15.52673171 11.72685775 17 13 C15.49993609 16.44779086 13.49590738 18.82360533 10.9375 21.5625 C7.74301776 25.04692728 4.66168108 28.57569235 1.6875 32.25 C-1.76842033 36.51731033 -5.29377899 40.71311775 -8.875 44.875 C-12.78831716 49.42295943 -16.68998938 53.97971697 -20.5625 58.5625 C-20.78772339 58.82897339 -20.78772339 58.82897339 -21.92749023 60.17749023 C-23.28536208 61.78468264 -24.64277043 63.39226519 -26 65 C-27.81190825 67.146334 -29.62432337 69.29223737 -31.4375 71.4375 C-31.88730225 71.96980225 -32.33710449 72.50210449 -32.80053711 73.05053711 C-36.22138326 77.09324487 -39.67098049 81.11063259 -43.125 85.125 C-46.61815106 89.18628745 -50.06448396 93.27518587 -53.4375 97.4375 C-57.58060991 102.54307465 -61.8823045 107.49800053 -66.20288086 112.45288086 C-69.36465838 116.08737851 -72.46850206 119.75520843 -75.5 123.5 C-79.57757127 128.53348541 -83.80505915 133.42333309 -88.05810547 138.30810547 C-92.9787765 143.96264879 -97.82781099 149.67472086 -102.65722656 155.40722656 C-104.93421439 158.10814812 -107.21745794 160.80377244 -109.5 163.5 C-110.41669584 164.58330865 -111.33336253 165.66664196 -112.25 166.75 C-114.08333333 168.91666667 -115.91666667 171.08333333 -117.75 173.25 C-118.20366943 173.78616943 -118.65733887 174.32233887 -119.12475586 174.87475586 C-120.04217797 175.95895238 -120.95965852 177.04309945 -121.87719727 178.12719727 C-124.15778544 180.82192311 -126.43737815 183.51747812 -128.71484375 186.21484375 C-133.49408326 191.87270826 -138.2944851 197.51082743 -143.125 203.125 C-146.61815106 207.18628745 -150.06448396 211.27518587 -153.4375 215.4375 C-157.58060991 220.54307465 -161.8823045 225.49800053 -166.20288086 230.45288086 C-169.36465838 234.08737851 -172.46850206 237.75520843 -175.5 241.5 C-179.21981126 246.08407967 -183.02528685 250.58747433 -186.875 255.0625 C-187.43509766 255.71863281 -187.99519531 256.37476563 -188.57226562 257.05078125 C-189.10271484 257.664375 -189.63316406 258.27796875 -190.1796875 258.91015625 C-190.65132324 259.45808838 -191.12295898 260.00602051 -191.60888672 260.57055664 C-193 262 -193 262 -196 264 C-203.39151334 257.26644334 -210.71723291 250.4676021 -218.00390625 243.62084961 C-222.15074302 239.72678461 -226.31383781 235.8517395 -230.5 232 C-236.68917508 226.30341899 -242.82428023 220.55017037 -248.95703125 214.79296875 C-254.66878858 209.43160919 -260.39889238 204.08994818 -266.12792969 198.74707031 C-268.03700292 196.9654678 -269.94448045 195.18217114 -271.8515625 193.3984375 C-279.52761097 186.22122522 -287.23722601 179.08335057 -295 172 C-293.48099978 168.3758636 -291.31929546 166.142376 -288.5 163.4375 C-285.97190847 161.0038015 -283.95327066 158.92990599 -282 156 C-278.59986814 156.5765441 -277.07329515 157.60997661 -274.75 160.125 C-272.26434386 162.72750323 -269.73352093 165.15849564 -267 167.5 C-263.77043633 170.28239332 -260.76677347 173.21019429 -257.78125 176.25 C-255.91610326 178.08242487 -253.98072254 179.79353135 -252 181.5 C-248.77043633 184.28239332 -245.76677347 187.21019429 -242.78125 190.25 C-240.91610326 192.08242487 -238.98072254 193.79353135 -237 195.5 C-233.80308117 198.25426853 -230.82595133 201.14859549 -227.87207031 204.15917969 C-226.0800066 205.92132893 -224.23489802 207.56663434 -222.328125 209.203125 C-217.06955496 213.77411038 -212.04671987 218.58460436 -207.00390625 223.390625 C-206.28589844 224.07125 -205.56789063 224.751875 -204.828125 225.453125 C-204.1877832 226.06317383 -203.54744141 226.67322266 -202.88769531 227.30175781 C-201.00341475 228.99692796 -199.05008018 230.51161677 -197 232 C-191.62053236 226.13727049 -186.44868253 220.15946016 -181.44140625 213.9765625 C-178.71469716 210.65215877 -175.9292704 207.38395641 -173.125 204.125 C-169.21168284 199.57704057 -165.31001062 195.02028303 -161.4375 190.4375 C-160.98705322 189.90455322 -160.53660645 189.37160645 -160.07250977 188.82250977 C-158.71463792 187.21531736 -157.35722957 185.60773481 -156 184 C-154.18809175 181.853666 -152.37567663 179.70776263 -150.5625 177.5625 C-150.11269775 177.03019775 -149.66289551 176.49789551 -149.19946289 175.94946289 C-145.77861674 171.90675513 -142.32901951 167.88936741 -138.875 163.875 C-135.38184894 159.81371255 -131.93551604 155.72481413 -128.5625 151.5625 C-124.41939009 146.45692535 -120.1176955 141.50199947 -115.79711914 136.54711914 C-112.63534162 132.91262149 -109.53149794 129.24479157 -106.5 125.5 C-102.42242873 120.46651459 -98.19494085 115.57666691 -93.94189453 110.69189453 C-89.0212235 105.03735121 -84.17218901 99.32527914 -79.34277344 93.59277344 C-77.06578561 90.89185188 -74.78254206 88.19622756 -72.5 85.5 C-71.58330416 84.41669135 -70.66663747 83.33335804 -69.75 82.25 C-64.25 75.75 -58.75 69.25 -53.25 62.75 C-52.79633057 62.21383057 -52.34266113 61.67766113 -51.87524414 61.12524414 C-50.95782203 60.04104762 -50.04034148 58.95690055 -49.12280273 57.87280273 C-46.84221456 55.17807689 -44.56262185 52.48252188 -42.28515625 49.78515625 C-37.50591674 44.12729174 -32.7055149 38.48917257 -27.875 32.875 C-24.38184894 28.81371255 -20.93551604 24.72481413 -17.5625 20.5625 C-11.8812456 13.56051118 -5.92976554 6.79127708 0 0 Z " fill="#000000" transform="translate(442,79)"/>
</svg>
