<?xml version="1.0" encoding="UTF-8"?>
<!-- Generator: visioncortex VTracer 0.6.12 -->
<svg version="1.1" xmlns="http://www.w3.org/2000/svg" width="512" height="512">
<path d="M0 0 C1.95078908 1.05546797 3.9147855 2.08327815 5.87988281 3.11181641 C15.96137386 8.48608218 24.98741921 14.90688252 33.90332031 22.02978516 C34.47147461 22.4807959 35.03962891 22.93180664 35.625 23.39648438 C49.73891822 34.69180706 62.19163453 47.47470381 72.90332031 62.02978516 C73.21914063 62.45388672 73.21914063 62.45388672 74.81738281 64.60009766 C96.46325905 94.54850176 109.32346751 129.46394847 113.90332031 166.02978516 C113.9690625 166.52478516 113.9690625 166.52478516 114.30175781 169.02978516 C118.78321469 210.69522209 109.89680407 254.31212984 89.90332031 291.02978516 C89.28972656 292.18349609 88.67613281 293.33720703 88.04394531 294.52587891 C73.54052245 320.9257044 53.14378869 344.19022286 28.90332031 362.02978516 C28.47921875 362.34560547 28.47921875 362.34560547 26.33300781 363.94384766 C-3.61539629 385.58972389 -38.530843 398.44993236 -75.09667969 403.02978516 C-75.59167969 403.09552734 -75.59167969 403.09552734 -78.09667969 403.42822266 C-133.33327845 409.36936845 -189.9943232 391.91127481 -233.15917969 357.34228516 C-234.82073413 355.92298588 -236.46641552 354.48491826 -238.09667969 353.02978516 C-238.33781494 352.81539795 -238.33781494 352.81539795 -239.55810547 351.73046875 C-281.93847357 313.91145714 -309.48311095 261.87963565 -312.96777344 204.62841797 C-315.93510871 144.80963654 -296.52756446 89.44351226 -256.69677734 44.78662109 C-193.63459301 -24.4528477 -85.27041361 -45.30607226 0 0 Z " fill="#FEC007" transform="translate(355.0966796875,65.97021484375)"/>
<path d="M0 0 C1.95078908 1.05546797 3.9147855 2.08327815 5.87988281 3.11181641 C15.96137386 8.48608218 24.98741921 14.90688252 33.90332031 22.02978516 C34.47147461 22.4807959 35.03962891 22.93180664 35.625 23.39648438 C49.73891822 34.69180706 62.19163453 47.47470381 72.90332031 62.02978516 C73.21914063 62.45388672 73.21914063 62.45388672 74.81738281 64.60009766 C90.90332031 86.85598379 90.90332031 86.85598379 90.90332031 94.02978516 C90.39550994 94.03005754 90.39550994 94.03005754 87.82568169 94.03143597 C63.0242797 94.04588132 38.22305221 94.08910366 13.42175102 94.16187572 C1.42763137 94.1964142 -10.56637467 94.22186656 -22.56054688 94.2253418 C-33.02416124 94.22839726 -43.4875727 94.24909885 -53.95110881 94.29030973 C-59.48290073 94.31149863 -65.01440524 94.32431366 -70.54623795 94.31593895 C-75.77159334 94.30830854 -80.99637069 94.32458032 -86.22162056 94.35784531 C-88.1216302 94.36597172 -90.02169854 94.36595787 -91.92170143 94.35638237 C-111.89114739 94.26584758 -130.85080394 97.57716544 -148.09667969 108.02978516 C-148.67208496 108.37525391 -149.24749023 108.72072266 -149.84033203 109.07666016 C-170.06146687 121.48837304 -184.61101018 140.92103233 -191.15527344 163.71728516 C-191.89090709 166.81468999 -192.54156624 169.89552926 -193.09667969 173.02978516 C-193.18691406 173.48160156 -193.18691406 173.48160156 -193.64355469 175.76806641 C-195.75969644 191.00063852 -193.76776161 205.31804541 -189.64794922 220.00292969 C-189.01599217 222.32644934 -188.5184185 224.65932219 -188.09667969 227.02978516 C-190.73272836 224.64695781 -192.33337984 222.12137749 -194.07324219 219.03369141 C-194.65251465 218.0149292 -195.23178711 216.99616699 -195.82861328 215.9465332 C-196.4533252 214.83963135 -197.07803711 213.73272949 -197.72167969 212.59228516 C-199.07643448 210.21202427 -200.43685395 207.83504896 -201.79980469 205.45947266 C-202.15178925 204.84595444 -202.5037738 204.23243622 -202.86642456 203.60032654 C-206.62561791 197.07251719 -210.54018269 190.64226969 -214.47167969 184.21728516 C-220.32122517 174.64888979 -226.06942712 165.02857065 -231.72167969 155.34228516 C-237.57615478 145.3111673 -243.49274015 135.32156482 -249.48583984 125.37231445 C-252.79241687 119.87969815 -256.08191754 114.37775582 -259.34277344 108.85791016 C-259.52084785 108.55659683 -259.52084785 108.55659683 -260.42201233 107.0317688 C-262.13591804 104.13077295 -263.84747715 101.22844509 -265.5559082 98.32421875 C-265.86685425 97.79739502 -265.86685425 97.79739502 -267.44042969 95.13134766 C-268.04113281 94.11202148 -268.64183594 93.09269531 -269.26074219 92.04248047 C-271.64650321 88.12754815 -274.21284984 84.34242738 -276.82910156 80.578125 C-278.37024026 77.47981882 -278.45058859 75.45129161 -278.09667969 72.02978516 C-276.78638987 69.66653106 -275.53068422 67.71685695 -273.90917969 65.59228516 C-273.46356689 64.99101807 -273.0179541 64.38975098 -272.55883789 63.77026367 C-237.21885715 16.86248687 -186.64165172 -13.49284552 -128.48925781 -22.36816406 C-85.02050089 -28.41680257 -38.67947673 -20.94220245 0 0 Z " fill="#F34335" transform="translate(355.0966796875,65.97021484375)"/>
<path d="M0 0 C0.256604 0.54043945 0.51320801 1.08087891 0.77758789 1.63769531 C2.23458359 4.45333149 3.88118403 7.10640562 5.55859375 9.796875 C9.74929965 16.55540625 13.81754877 23.38263042 17.86590576 30.22711182 C19.94320262 33.73886136 22.02421481 37.24840709 24.10546875 40.7578125 C24.52189636 41.46005951 24.93832397 42.16230652 25.36737061 42.88583374 C29.18073342 49.31247221 33.0236847 55.72102744 36.875 62.125 C41.88748542 70.46327379 46.8646641 78.82113177 51.80615234 87.20166016 C57.50141631 96.85899655 63.22806601 106.49763293 68.95825195 116.13427734 C72.64357521 122.33390384 76.32145922 128.53733193 79.96484375 134.76171875 C80.5578125 135.77298828 81.15078125 136.78425781 81.76171875 137.82617188 C82.84191134 139.67055667 83.91897723 141.51677799 84.9921875 143.36523438 C87.4271346 147.51916175 89.98026219 151.24152805 93 155 C93.94316777 156.83054253 94.83769015 158.68679357 95.6875 160.5625 C106.23464939 182.07868475 125.50510339 198.13848728 147.86376953 206.28466797 C173.3335215 214.81339634 199.86925927 212.25676148 224 200.8125 C235.31397071 194.95614952 244.25750802 187.17011388 253 178 C254.32991309 176.66325517 255.66211349 175.32876456 257 174 C255.67977581 177.45064709 254.17793551 180.68240276 252.41796875 183.9296875 C252.16144531 184.40374023 252.16144531 184.40374023 250.86328125 186.80273438 C250.31027344 187.81658203 249.75726563 188.83042969 249.1875 189.875 C248.61 190.93783203 248.0325 192.00066406 247.4375 193.09570312 C243.0024948 201.22975279 238.45944133 209.29904352 233.87768555 217.35107422 C229.99711979 224.18790118 226.22554063 231.07762213 222.5 238 C217.79924481 246.73117973 212.9847185 255.38812985 208.08374023 264.00830078 C203.68137503 271.7634433 199.36129474 279.56220621 195.0625 287.375 C189.77872361 296.97454364 184.47407745 306.56164611 179.125 316.125 C178.535979 317.17993652 177.94695801 318.23487305 177.34008789 319.32177734 C176.79731201 320.29066895 176.25453613 321.25956055 175.6953125 322.2578125 C175.22109863 323.1048877 174.74688477 323.95196289 174.25830078 324.82470703 C173.23758269 326.58927788 172.13076906 328.3038464 171 330 C111.31453244 326.02887157 57.43432699 301.18789232 17.5390625 256.2265625 C-19.59366413 211.79758081 -38.16192496 155.39570822 -33.53515625 97.57421875 C-30.28791807 63.17314298 -19.91245176 28.54464239 0 0 Z " fill="#4CAE4F" transform="translate(76,140)"/>
<path d="M0 0 C15.7928737 13.65024297 25.85213642 31.81826496 27.71484375 52.71484375 C28.28565196 74.63387914 20.70922178 94.63407243 5.7421875 110.55859375 C-9.22937529 125.38192325 -26.92149189 132.18837973 -47.75 132.33984375 C-48.29221191 132.34495972 -48.29221191 132.34495972 -51.03613281 132.37084961 C-61.63799908 132.25596124 -71.33452143 130.13134251 -80.75 125.21484375 C-81.42667725 124.8681665 -82.10335449 124.52148926 -82.80053711 124.16430664 C-88.65778241 121.06768548 -93.72691243 117.37093483 -98.625 112.90234375 C-98.92921875 112.64388672 -98.92921875 112.64388672 -100.46875 111.3359375 C-114.31019568 98.7842629 -121.44279412 79.21856866 -122.9453125 61.0234375 C-123.5395045 40.76149021 -116.30510741 21.89730811 -102.625 6.90234375 C-102.10808594 6.29390625 -101.59117187 5.68546875 -101.05859375 5.05859375 C-74.98129477 -23.69832743 -29.1809888 -23.31873658 0 0 Z " fill="#2196F3" transform="translate(303.625,198.09765625)"/>
<path d="M0 0 C20.56924219 17.47838531 33.82273483 40.05976638 36.17675781 67.26074219 C37.27715143 85.21744476 34.47822641 102.51749749 25.9375 118.49609375 C25.49792969 119.39199219 25.05835938 120.28789062 24.60546875 121.2109375 C20.92901799 128.43217549 16.32250215 134.46208482 10.9375 140.49609375 C10.18726563 141.34171875 9.43703125 142.18734375 8.6640625 143.05859375 C-7.56343878 160.31042236 -30.9518282 170.60807754 -54.56640625 171.76953125 C-74.13720552 172.32886341 -92.22194649 168.68662131 -109.0625 158.49609375 C-110.18914062 157.81675781 -111.31578125 157.13742187 -112.4765625 156.4375 C-134.95865716 141.81608999 -149.32371008 119.6745664 -154.98217773 93.58544922 C-159.70435525 68.23195035 -153.93837624 43.00887948 -140.0625 21.49609375 C-137.58557064 17.96849968 -134.93694508 14.70658007 -132.0625 11.49609375 C-131.26328125 10.60277344 -130.4640625 9.70945313 -129.640625 8.7890625 C-95.72833746 -27.07970317 -38.78653812 -30.58566105 0 0 Z M-111.0625 20.49609375 C-111.36671875 20.75455078 -111.36671875 20.75455078 -112.90625 22.0625 C-126.04859351 33.98021604 -133.91139522 52.9074422 -135.3828125 70.27734375 C-136.03663959 92.42028794 -127.9908195 113.06062594 -112.875 129.24609375 C-95.93329077 145.24822812 -76.51841166 150.12175252 -53.7265625 149.83984375 C-36.39659063 149.25155616 -21.98028266 141.76858224 -9.0625 130.49609375 C-8.44761719 129.97660156 -7.83273437 129.45710937 -7.19921875 128.921875 C6.96679273 115.99335418 13.65528319 96.39795498 15.2578125 77.7734375 C15.88536423 57.88004773 8.2890541 39.13092606 -5.0625 24.49609375 C-5.57941406 23.88765625 -6.09632813 23.27921875 -6.62890625 22.65234375 C-19.5041256 8.45410687 -39.19115555 1.77568477 -57.78515625 0.17578125 C-77.67854602 -0.45177048 -96.42766769 7.14453965 -111.0625 20.49609375 Z " fill="#FDFDFD" transform="translate(316.0625,180.50390625)"/>
<path d="M0 0 C0.165 0.33 0.165 0.33 1 2 C0.06640625 4.09350586 0.06640625 4.09350586 -1.4375 6.71484375 C-1.7161792 7.20581543 -1.7161792 7.20581543 -3.12646484 9.69042969 C-3.74473145 10.76196289 -4.36299805 11.83349609 -5 12.9375 C-5.97072445 14.64445773 -6.94142835 16.35142749 -7.91098022 18.05905151 C-8.92850293 19.8496302 -9.94909941 21.63843551 -10.96972656 23.42724609 C-14.14899724 29.01016644 -17.26037838 34.63084155 -20.375 40.25 C-20.99375 41.36431396 -21.6125 42.47862793 -22.25 43.62670898 C-27.18577435 52.51884669 -32.09908973 61.42329346 -37.00869751 70.32989502 C-43.68348134 82.43805594 -50.39419675 94.52606506 -57.11474609 106.60888672 C-59.06375708 110.11468347 -61.01072888 113.62160541 -62.95703125 117.12890625 C-69.60384405 129.10527937 -76.26136171 141.07498426 -83 153 C-83.99755698 149.87663897 -83.96615657 147.88644463 -83.14453125 144.7265625 C-83.03915039 144.31341797 -83.03915039 144.31341797 -82.50585938 142.22265625 C-82.27705078 141.36542969 -82.04824219 140.50820313 -81.8125 139.625 C-81.60302734 138.80644531 -81.39355469 137.98789062 -81.17773438 137.14453125 C-79.90668858 132.23384392 -78.52621029 127.36148827 -77.10546875 122.4921875 C-74.6339645 113.89305922 -72.57265028 105.20230404 -70.5 96.5 C-68.16493179 86.69589859 -65.74661889 76.96317872 -62.91552734 67.28759766 C-61.99664224 63.98794251 -61.2122349 60.68396118 -60.47265625 57.33984375 C-60.23740234 56.27958984 -60.00214844 55.21933594 -59.75976562 54.12695312 C-59.2877587 51.96788505 -58.82714086 49.80630096 -58.37695312 47.64257812 C-56.11470572 37.61348679 -56.11470572 37.61348679 -51 34 C-48.37890625 32.8828125 -48.37890625 32.8828125 -45.5625 32.125 C-27.60573055 26.59475567 -11.01579191 15.3798756 0 0 Z " fill="#568C2F" transform="translate(332,314)"/>
<path d="M0 0 C4.97309568 4.16447517 9.62936384 8.50559801 14.18359375 13.12109375 C14.84279312 13.78407974 15.50199249 14.44706573 16.1811676 15.13014221 C18.97009346 17.93524066 21.7529851 20.74629681 24.53637695 23.55688477 C26.58332833 25.62207178 28.63339306 27.68413321 30.68359375 29.74609375 C31.29843124 30.36922958 31.91326874 30.99236542 32.54673767 31.63438416 C36.20494164 35.31281402 39.98164036 38.78559848 43.90605164 42.1776886 C50.44774633 47.87076347 56.74437769 53.82959306 63.00366211 59.82958984 C64.79441962 61.52798317 66.60358069 63.20717797 68.43041992 64.86669922 C83.22815446 78.34095098 83.22815446 78.34095098 84.4944458 84.34399414 C84.48151934 89.56962217 82.74213073 94.13011779 81 99 C80.52910876 102.59396162 80.47415922 106.12839756 80.5 109.75 C80.50068481 110.20306519 80.50068481 110.20306519 80.50415039 112.49584961 C80.71299051 121.98374304 82.8966698 130.87644012 85.44873047 139.97314453 C86.08068751 142.29666419 86.57826119 144.62953704 87 147 C84.36395133 144.61717265 82.76329985 142.09159234 81.0234375 139.00390625 C80.44416504 137.98514404 79.86489258 136.96638184 79.26806641 135.91674805 C78.64335449 134.80984619 78.01864258 133.70294434 77.375 132.5625 C76.02024521 130.18223911 74.65982574 127.8052638 73.296875 125.4296875 C73.12088272 125.12292839 73.12088272 125.12292839 72.23025513 123.57054138 C68.47106178 117.04273204 64.556497 110.61248453 60.625 104.1875 C54.77545452 94.61910464 49.02725256 84.9987855 43.375 75.3125 C37.5223547 65.28451732 31.60551475 55.29932765 25.61743164 45.35131836 C20.81934338 37.376715 16.05719292 29.38143913 11.3125 21.375 C10.64081787 20.24239746 9.96913574 19.10979492 9.27709961 17.94287109 C7.51348286 14.96458834 5.75590842 11.98283122 4 9 C3.5570459 8.2565332 3.1140918 7.51306641 2.65771484 6.74707031 C0 2.22790736 0 2.22790736 0 0 Z " fill="#DB2D01" transform="translate(80,146)"/>
<path d="M0 0 C58.74 0 117.48 0 178 0 C174.7698053 2.15346313 172.54114037 2.69941534 168.76953125 3.515625 C167.50431641 3.7940625 166.23910156 4.0725 164.93554688 4.359375 C164.26386475 4.50439453 163.59218262 4.64941406 162.90014648 4.79882812 C159.35348536 5.56531506 155.81154499 6.35298498 152.26953125 7.140625 C151.91379532 7.21955994 151.91379532 7.21955994 150.11355591 7.61901855 C144.04779778 8.97242003 138.02054387 10.45796897 132 12 C121.69742105 14.62535746 111.34829236 17.02153904 100.96289062 19.2956543 C94.84371327 20.64161681 88.75300989 22.03492088 82.69876099 23.65141296 C79.96082152 24.38188474 77.21669578 25.08751109 74.472229 25.79299927 C72.54338328 26.3010725 70.62471062 26.84727972 68.70654297 27.39428711 C60.20701753 29.56446576 60.20701753 29.56446576 56.82250977 27.98168945 C55.02434186 26.43601664 53.53895898 24.80025763 52 23 C36.38763625 11.12495885 19.54347193 3.42040364 0 1 C0 0.67 0 0.34 0 0 Z " fill="#F9A825" transform="translate(266,160)"/>
<path d="M0 0 C0.66 0.33 1.32 0.66 2 1 C-6.25 9.25 -14.5 17.5 -23 26 C-23.66 25.67 -24.32 25.34 -25 25 C-17.40627919 15.95491958 -9.12638166 7.50391381 0 0 Z " fill="#C1633D" transform="translate(120,90)"/>
<path d="M0 0 C2.21399303 3.79541663 3.00980198 7.75629421 4 12 C0.90566277 9.46826954 -0.04150794 6.83396824 -1 3 C-0.67 2.01 -0.34 1.02 0 0 Z " fill="#D34A1E" transform="translate(163,281)"/>
</svg>
