<?xml version="1.0" encoding="UTF-8"?>
<!-- Generator: visioncortex VTracer 0.6.12 -->
<svg version="1.1" xmlns="http://www.w3.org/2000/svg" width="512" height="512">
<path d="M0 0 C7.33503241 6.79333271 13.89291277 14.09183959 20 22 C20.21124512 22.27038086 20.21124512 22.27038086 21.28027344 23.63867188 C45.55144742 54.87739252 60.09622634 91.84795854 65 131 C65.06574219 131.495 65.06574219 131.495 65.3984375 134 C69.87989438 175.66543694 60.99348376 219.28234468 41 256 C40.38640625 257.15371094 39.7728125 258.30742187 39.140625 259.49609375 C11.98276525 308.93013184 -35.01551437 345.37784532 -88.96630859 361.1640625 C-145.39505622 376.7130752 -204.39859212 369.10816248 -255.45556641 340.63037109 C-304.22280278 312.3388167 -340.04902175 265.25842749 -355 211 C-369.40074759 154.99214195 -361.67064049 96.05662891 -332.77587891 45.87402344 C-303.63589345 -2.85987916 -255.90649925 -38.65379431 -200.93115234 -52.7890625 C-128.09649011 -70.36465967 -55.17854576 -49.92422562 0 0 Z " fill="#FDD139" transform="translate(404,101)"/>
<path d="M0 0 C7.33503241 6.79333271 13.89291277 14.09183959 20 22 C20.21124512 22.27038086 20.21124512 22.27038086 21.28027344 23.63867188 C27.14625988 31.18861205 32.36846592 38.98969541 37.1875 47.25 C37.66944824 48.07242188 38.15139648 48.89484375 38.64794922 49.7421875 C39.08768066 50.51304687 39.52741211 51.28390625 39.98046875 52.078125 C40.37129639 52.76293945 40.76212402 53.44775391 41.16479492 54.15332031 C42 56 42 56 42 59 C40.98069208 59.00146656 39.96138416 59.00293312 38.91118813 59.00444412 C14.04443785 59.04113102 -10.8221787 59.10070051 -35.68881798 59.18390274 C-47.71442243 59.22361656 -59.73996216 59.25604785 -71.765625 59.27099609 C-82.25408548 59.2840524 -92.74240311 59.3111181 -103.2307831 59.35461307 C-108.77805684 59.37713864 -114.32515496 59.39291605 -119.87247849 59.39188385 C-125.10760523 59.39113195 -130.34234509 59.4092934 -135.5773716 59.44116783 C-137.48551096 59.44959658 -139.39369407 59.45146536 -141.30184364 59.44580269 C-170.59387678 59.37054084 -195.74569433 68.38340922 -217.1875 88.875 C-234.65197297 106.96945396 -243.6514118 132.2392246 -243.2578125 157.1484375 C-242.95005602 161.74613279 -242.38182064 166.25876943 -241.6875 170.8125 C-241.56995361 171.58875732 -241.45240723 172.36501465 -241.33129883 173.16479492 C-240.52230684 178.01822992 -239.25971599 182.46429482 -237.49926758 187.0612793 C-237 189 -237 189 -238 192 C-247.08520723 177.17720851 -256.04676368 162.30423753 -264.69262695 147.21972656 C-268.7732709 140.10631041 -272.92983048 133.04663411 -277.16796875 126.02612305 C-281.50579806 118.83802596 -285.79390446 111.62114893 -290.07528687 104.39935303 C-295.72125513 94.87609011 -301.37201544 85.35594233 -307.06933594 75.86328125 C-308.29903838 73.81399144 -309.52631834 71.76324573 -310.75097656 69.7109375 C-313.66228151 64.84111831 -316.61522201 60.00775518 -319.6640625 55.22265625 C-320.23777588 54.30838867 -320.81148926 53.39412109 -321.40258789 52.45214844 C-322.47588577 50.7453538 -323.56524861 49.04851105 -324.67358398 47.36425781 C-328.11230883 41.85333721 -328.11230883 41.85333721 -327.58203125 37.82421875 C-324.36322262 32.07804926 -320.15764775 27.08203283 -316 22 C-315.5270752 21.42121094 -315.05415039 20.84242187 -314.56689453 20.24609375 C-278.25050781 -23.85149502 -226.99403815 -52.18769021 -169.9375 -58.3125 C-106.40646382 -64.13963167 -46.95041426 -42.47960946 0 0 Z " fill="#F65026" transform="translate(404,101)"/>
<path d="M0 0 C3.21693815 2.96418818 5.33784972 5.96277592 7.51171875 9.75 C7.67435966 10.03080162 7.67435966 10.03080162 8.49742126 11.451828 C9.19899894 12.66407682 9.89787308 13.87789355 10.59429932 15.09310913 C12.47776923 18.37848174 14.38201232 21.6517785 16.28515625 24.92578125 C16.48070099 25.26264198 16.48070099 25.26264198 17.47027588 26.96736145 C21.42639619 33.76612282 25.51824042 40.47907907 29.625 47.1875 C35.73535039 57.1822662 41.66250441 67.27054857 47.48583984 77.43579102 C52.247195 85.73391948 57.13159222 93.95107836 62.07006836 102.14477539 C67.04784091 110.40469569 71.9892186 118.68559458 76.91271973 126.97796631 C77.75368006 128.39434387 78.5949016 129.81056639 79.43640137 131.22662354 C80.61841186 133.21579863 81.79958508 135.20546829 82.98046875 137.1953125 C83.32778549 137.77974121 83.67510223 138.36416992 84.03294373 138.96630859 C85.77311919 141.90143883 87.48078293 144.85082497 89.15209961 147.82543945 C90.68307369 150.45554329 91.90732258 151.92466521 94 154 C94.92351778 155.78826624 95.79270742 157.60499616 96.625 159.4375 C107.20502955 181.01348164 126.43719773 197.11406469 148.86816406 205.28466797 C174.11067085 213.75472579 201.15106176 211.626033 225 200 C237.12654769 193.49068095 247.34699985 184.68715931 256 174 C256 177.77997223 254.80615449 179.49963792 252.95703125 182.79296875 C252.63716751 183.36728638 252.31730377 183.941604 251.98774719 184.5333252 C250.93492372 186.42123597 249.87361731 188.30424054 248.8125 190.1875 C247.70795231 192.16429729 246.60574067 194.14238498 245.50366211 196.12055969 C244.7561604 197.4620087 244.00794514 198.80306033 243.2590332 200.14372253 C239.82513384 206.29495279 236.46634838 212.48554361 233.125 218.6875 C228.28456201 227.65105717 223.37779654 236.57408493 218.41210938 245.46875 C215.56062852 250.58011817 212.71812652 255.69648165 209.875 260.8125 C209.24037842 261.95420654 208.60575684 263.09591309 207.9519043 264.2722168 C202.92737138 273.3153368 197.93173279 282.37422457 192.94012451 291.43554688 C186.02147888 303.99156022 179.02436398 316.50281834 172 329 C112.43172753 325.4114486 58.28248475 300.01676853 18.5390625 255.2265625 C-18.59366413 210.79758081 -37.16192496 154.39570822 -32.53515625 96.57421875 C-29.30381659 62.341571 -18.82362052 28.93213275 0 0 Z " fill="#40AC50" transform="translate(75,141)"/>
<path d="M0 0 C1.06476563 -0.020625 2.12953125 -0.04125 3.2265625 -0.0625 C21.29870921 -0.15022887 37.18230712 6.63619772 50.875 18.25 C51.60332031 18.86488281 52.33164062 19.47976562 53.08203125 20.11328125 C66.31309579 32.30047482 74.92127462 51.13784481 76.125 68.94921875 C76.4941558 91.39850612 69.70655086 110.45258393 54.2421875 126.90625 C39.15035421 141.8486592 19.68258457 149.70303888 -1.51123047 149.6159668 C-19.67774452 149.11345467 -36.77022176 141.43374358 -50.125 129.25 C-50.7334375 128.73308594 -51.341875 128.21617187 -51.96875 127.68359375 C-63.04131371 117.64279166 -71.50147134 101.10881663 -73.125 86.25 C-73.31211315 82.20745068 -73.35582245 78.17146304 -73.375 74.125 C-73.395625 73.06023437 -73.41625 71.99546875 -73.4375 70.8984375 C-73.48929495 60.22867866 -71.38305711 50.59612757 -66.4375 41.125 C-66.09082275 40.44832275 -65.74414551 39.77164551 -65.38696289 39.07446289 C-62.29034173 33.21721759 -58.59359108 28.14808757 -54.125 23.25 C-53.60808594 22.6415625 -53.09117187 22.033125 -52.55859375 21.40625 C-39.07831338 6.54077791 -19.46036844 0.09222923 0 0 Z " fill="#158FE6" transform="translate(255.125,181.75)"/>
<path d="M0 0 C1.72698705 1.49961746 3.43632986 3.01986266 5.125 4.5625 C5.51429688 4.91119141 5.51429688 4.91119141 7.484375 6.67578125 C24.30099978 22.53559807 35.39455431 45.97512249 36.36328125 69.13671875 C36.7689554 87.70313321 34.07756106 104.18873701 25.125 120.5625 C24.6403125 121.47257813 24.155625 122.38265625 23.65625 123.3203125 C11.05021773 145.66100302 -10.20016152 161.9211425 -34.828125 168.78515625 C-35.83359375 169.04167969 -36.8390625 169.29820312 -37.875 169.5625 C-38.69484375 169.78808594 -39.5146875 170.01367188 -40.359375 170.24609375 C-63.66116834 175.62628489 -88.7704158 170.457714 -109.18359375 158.6484375 C-116.03143453 154.26930875 -122.00593933 149.16431798 -127.875 143.5625 C-128.47699219 143.03527344 -129.07898438 142.50804687 -129.69921875 141.96484375 C-145.20775093 127.83002771 -154.22572607 104.51286137 -155.78125 83.86328125 C-155.8121875 83.10402344 -155.843125 82.34476562 -155.875 81.5625 C-155.9265625 80.56605469 -155.978125 79.56960938 -156.03125 78.54296875 C-156.76770301 51.69311934 -146.67744108 27.94231723 -128.72265625 8.1953125 C-95.11426208 -26.88972465 -37.91080564 -30.29691999 0 0 Z M-93 8.25 C-93.67667725 8.59667725 -94.35335449 8.94335449 -95.05053711 9.30053711 C-100.90778241 12.39715827 -105.97691243 16.09390892 -110.875 20.5625 C-111.17921875 20.82095703 -111.17921875 20.82095703 -112.71875 22.12890625 C-124.33293347 32.66085898 -132.96388902 49.82319679 -134.08032227 65.43334961 C-134.17874565 68.58314953 -134.19705505 71.72374445 -134.1875 74.875 C-134.20361328 75.92623047 -134.21972656 76.97746094 -134.23632812 78.06054688 C-134.24739017 96.05850087 -127.43699428 111.93088884 -115.875 125.5625 C-115.56755859 125.92666016 -115.56755859 125.92666016 -114.01171875 127.76953125 C-101.77328546 141.05622436 -82.66185758 149.86178049 -64.73046875 150.84765625 C-44.20535353 151.49593964 -25.23661829 144.68955804 -9.6875 131.25 C-0.72524415 122.82661396 5.09756471 113.67366682 10.125 102.5625 C10.4653125 101.83160156 10.805625 101.10070312 11.15625 100.34765625 C17.95829238 84.26082602 16.70357954 64.42198486 10.27929688 48.46142578 C6.40684529 39.56341998 1.69091262 31.75949216 -4.875 24.5625 C-5.39191406 23.9540625 -5.90882813 23.345625 -6.44140625 22.71875 C-16.48220834 11.64618629 -33.01618337 3.18602866 -47.875 1.5625 C-51.91754932 1.37538685 -55.95353696 1.33167755 -60 1.3125 C-60.53238281 1.3021875 -60.53238281 1.3021875 -63.2265625 1.25 C-73.89632134 1.19820505 -83.52887243 3.30444289 -93 8.25 Z " fill="#FDFDFD" transform="translate(315.875,180.4375)"/>
<path d="M0 0 C1.05035877 2.03480911 1.05035877 2.03480911 1.05035877 3.03480911 C-20.12519667 3.23584186 -41.3008403 3.41909172 -62.47672939 3.58139706 C-72.30991514 3.65717563 -82.14298988 3.73868772 -91.97600842 3.83388138 C-100.55032693 3.91687479 -109.12465708 3.9889231 -117.69917464 4.04804164 C-122.23581728 4.07969693 -126.77226982 4.11668766 -131.3087492 4.16680336 C-135.58664642 4.21388905 -139.86441239 4.24623762 -144.14251232 4.26773071 C-145.70492277 4.27809674 -147.26730968 4.29365114 -148.82960796 4.31505013 C-157.01965816 4.42412907 -164.56870211 4.06718803 -172.48676205 1.74945164 C-175.63326623 0.83644473 -178.70005664 0.40408009 -181.94964123 0.03480911 C-181.94964123 -0.29519089 -181.94964123 -0.62519089 -181.94964123 -0.96519089 C-158.53254365 -1.18902793 -135.11534707 -1.38999937 -111.69782066 -1.563591 C-100.82517497 -1.6447246 -89.95268761 -1.73340027 -79.08025646 -1.83970261 C-69.6061998 -1.93231371 -60.13214955 -2.01090508 -50.65783864 -2.07251191 C-45.6390947 -2.10563998 -40.62063153 -2.14588886 -35.60209751 -2.20291519 C-30.8818124 -2.25633127 -26.16176479 -2.29104953 -21.4412241 -2.31122017 C-19.70570195 -2.32197015 -17.97020727 -2.33964343 -16.23483181 -2.36463737 C-13.87086689 -2.39766482 -11.50806556 -2.40611089 -9.14390087 -2.40824509 C-8.4522687 -2.4237874 -7.76063653 -2.43932971 -7.04804581 -2.45534301 C-3.79869967 -2.43234139 -2.33805883 -2.35670637 0 0 Z " fill="#F5BC01" transform="translate(447.94964122772217,160.96519088745117)"/>
<path d="M0 0 C0.66 0.33 1.32 0.66 2 1 C-6.91 9.91 -15.82 18.82 -25 28 C-25.66 27.67 -26.32 27.34 -27 27 C-18.42491397 17.52733487 -9.85318893 8.17605039 0 0 Z " fill="#D05C26" transform="translate(120,90)"/>
<path d="M0 0 C0.66 0.33 1.32 0.66 2 1 C2.6328125 3.06640625 2.6328125 3.06640625 3.125 5.5625 C3.29257813 6.38878906 3.46015625 7.21507812 3.6328125 8.06640625 C3.75398437 8.70449219 3.87515625 9.34257812 4 10 C1.02873292 7.28922757 0.11756266 4.86848614 -1 1 C-0.67 0.67 -0.34 0.34 0 0 Z " fill="#E0511D" transform="translate(163,283)"/>
</svg>
