<?xml version="1.0" encoding="UTF-8"?>
<!-- Generator: visioncortex VTracer 0.6.12 -->
<svg version="1.1" xmlns="http://www.w3.org/2000/svg" width="512" height="512">
<path d="M0 0 C0.77988 0.66902 1.55977 1.33805 2.36328 2.02734 C14.23922 12.46495 25.34254 23.56458 34.74121 36.29688 C35.97069 37.96035 37.22216 39.60528 38.47656 41.25 C74.66477 89.46985 89.19859 152.54494 81.48096 211.97168 C74.91036 256.70985 56.57789 298.73759 27 333 C26.33098 333.77988 25.66195 334.55977 24.97266 335.36328 C14.53505 347.23922 3.43542 358.34254 -9.29688 367.74121 C-10.96035 368.97069 -12.60528 370.22216 -14.25 371.47656 C-63.32703 408.30807 -127.35056 422.43659 -187.6875 414.03906 C-231.43989 407.22139 -272.46007 388.95418 -306 360 C-306.77988 359.33098 -307.55977 358.66195 -308.36328 357.97266 C-320.23922 347.53505 -331.34254 336.43542 -340.74121 323.70312 C-341.97069 322.03965 -343.22216 320.39472 -344.47656 318.75 C-380.63723 270.56684 -395.2192 207.48966 -387.48096 148.10083 C-380.89871 103.25062 -362.67544 61.37541 -333 27 C-332.33098 26.22012 -331.66195 25.44023 -330.97266 24.63672 C-320.53505 12.76078 -309.43542 1.65746 -296.70312 -7.74121 C-295.03965 -8.97069 -293.39472 -10.22216 -291.75 -11.47656 C-261.16904 -34.42707 -224.60019 -48.25942 -187 -54 C-186.17693 -54.12987 -185.35387 -54.25975 -184.50586 -54.39355 C-118.98033 -64.31409 -49.8803 -43.06042 0 0 Z M-275 88 C-275 101 -275 101 -272.46484 104.4375 C-271.31903 105.33146 -270.14059 106.18475 -268.9375 107 C-267.64198 107.98925 -266.34775 108.98019 -265.05469 109.97266 C-264.38276 110.46782 -263.71084 110.96298 -263.01855 111.47314 C-259.72438 113.9649 -256.65764 116.70556 -253.5625 119.4375 C-252.30564 120.52975 -251.04782 121.62089 -249.78906 122.71094 C-247.89412 124.3557 -245.99931 126.0006 -244.10449 127.64551 C-237.41859 133.44869 -230.72651 139.2439 -224 145 C-217.27192 150.75745 -210.57846 156.55422 -203.89111 162.35889 C-202.01006 163.99127 -200.12824 165.62278 -198.24609 167.25391 C-197.9368 167.52195 -197.9368 167.52195 -196.37158 168.87842 C-195.12664 169.95707 -193.88152 171.03552 -192.63623 172.11377 C-189.4438 174.87865 -186.25555 177.64813 -183.07422 180.42578 C-177.57037 185.2273 -172.05971 190.02477 -166.4375 194.6875 C-165.71434 195.28949 -164.99117 195.89148 -164.24609 196.51172 C-159.29838 199.79012 -154.93694 200.38117 -149.21875 199.52344 C-142.30181 197.89162 -137.72701 193.10617 -132.66406 188.41797 C-130.05481 186.04975 -127.37265 183.83025 -124.625 181.625 C-120.07139 177.94363 -115.76417 174.07226 -111.48096 170.08643 C-107.39357 166.30523 -103.11966 162.80317 -98.78125 159.3125 C-95.75981 156.80029 -92.87558 154.17599 -90 151.5 C-85.4124 147.23082 -80.66557 143.24241 -75.78125 139.3125 C-72.75981 136.80029 -69.8756 134.17598 -67 131.5 C-62.39345 127.21364 -57.62873 123.20248 -52.72656 119.25391 C-48.88778 116.08059 -45.22798 112.73261 -41.59375 109.32812 C-39 107 -39 107 -36.53125 105.23438 C-34.3125 103.625 -34.3125 103.625 -31 100 C-31 96.04 -31 92.08 -31 88 C-111.52 88 -192.04 88 -275 88 Z M-36.875 133.4375 C-40.63233 136.90471 -44.4497 140.23333 -48.4375 143.4375 C-52.97316 147.09571 -57.25701 150.94743 -61.51929 154.91382 C-64.75194 157.90427 -68.06697 160.73779 -71.5 163.5 C-79.03892 169.57271 -86.20261 176.10619 -93 183 C-87.83653 187.62618 -82.54617 191.96816 -77 196.125 C-71.21948 200.49709 -65.53611 204.95995 -59.9375 209.5625 C-54.48289 214.03641 -48.95263 218.38695 -43.3125 222.625 C-42.65306 223.12201 -41.99363 223.61903 -41.31421 224.1311 C-37.93729 226.64884 -34.6408 228.81552 -31 231 C-31 197.34 -31 163.68 -31 129 C-33.14512 129 -35.45819 132.11902 -36.875 133.4375 Z M-275 130 C-275 163.33 -275 196.66 -275 231 C-265.00495 224.33663 -265.00495 224.33663 -260.4375 220.375 C-255.82013 216.43495 -251.06389 212.73867 -246.1875 209.125 C-238.88143 203.70513 -231.76081 198.08299 -224.68799 192.36328 C-222.15348 190.31632 -219.60787 188.28343 -217.0625 186.25 C-216.26973 185.61578 -215.47695 184.98156 -214.66016 184.32812 C-214.1123 183.88984 -213.56445 183.45156 -213 183 C-220.66418 175.25341 -228.77272 168.12087 -237.25 161.28125 C-241.03763 158.13924 -244.62994 154.80085 -248.25 151.46875 C-251.79972 148.28207 -255.49862 145.30543 -259.21484 142.31641 C-263.21711 138.98773 -266.99797 135.44094 -270.78516 131.87109 C-273 130 -273 130 -275 130 Z M-203.1875 202.25 C-207.92432 206.32817 -212.78674 210.1593 -217.8125 213.875 C-223.18761 217.86013 -228.47823 221.92519 -233.6875 226.125 C-239.21938 230.5849 -244.80415 234.95703 -250.44922 239.27344 C-255.66058 243.2635 -260.8269 247.31209 -265.99731 251.35498 C-266.73297 251.92877 -267.46862 252.50257 -268.22656 253.09375 C-268.88221 253.60615 -269.53786 254.11855 -270.21338 254.64648 C-271.76623 255.8229 -273.37904 256.91936 -275 258 C-275 262.62 -275 267.24 -275 272 C-194.48 272 -113.96 272 -31 272 C-31 259 -31 259 -34.04297 255.23828 C-35.39386 254.22104 -36.77785 253.24663 -38.1875 252.3125 C-38.91566 251.77834 -39.64382 251.24419 -40.39404 250.69385 C-41.87573 249.60969 -43.36961 248.54199 -44.87549 247.4917 C-47.33278 245.76634 -49.69948 243.94658 -52.06348 242.09668 C-53.63023 240.87091 -55.21166 239.66397 -56.79297 238.45703 C-61.98431 234.49207 -67.1033 230.43413 -72.23389 226.39111 C-75.7311 223.63647 -79.23271 220.88741 -82.73438 218.13843 C-85.74202 215.77667 -88.7465 213.41105 -91.74609 211.03906 C-92.05515 210.79511 -92.05515 210.79511 -93.61914 209.56055 C-94.78684 208.63868 -95.95359 207.7156 -97.11914 206.79102 C-98.19202 205.94482 -99.27055 205.10575 -100.35498 204.27441 C-101.51858 203.37296 -102.66179 202.44492 -103.78955 201.49902 C-105.59766 200.05469 -105.59766 200.05469 -109 198 C-113.61147 198.64184 -116.48199 202.09335 -119.6875 205.25 C-124.72149 210.01896 -129.73263 213.92386 -136 217 C-136.67934 217.33773 -137.35867 217.67547 -138.05859 218.02344 C-146.70775 221.58774 -158.08502 221.3342 -166.875 218.4375 C-175.78344 214.62911 -182.85046 208.4653 -189.87109 201.91797 C-195.54902 196.80262 -197.70211 197.43799 -203.1875 202.25 Z " fill="#000000" transform="translate(409,76)"/>
</svg>
