<?xml version="1.0" encoding="UTF-8"?>
<!-- Generator: visioncortex VTracer 0.6.12 -->
<svg version="1.1" xmlns="http://www.w3.org/2000/svg" width="512" height="512">
<path d="M0 0 C2.67814128 2.46739961 5.29485318 4.99510874 7.90722656 7.53173828 C8.48069824 8.07942871 9.05416992 8.62711914 9.64501953 9.19140625 C18.23595354 17.40729266 25.83730062 25.98194136 32.90722656 35.53173828 C33.32423828 36.08265137 33.74125 36.63356445 34.17089844 37.20117188 C71.04627681 85.94167784 86.25517089 149.05397411 78.38818359 209.4309082 C71.00184247 259.76004914 48.91555119 304.7394097 13.90722656 341.53173828 C13.6375708 341.81573486 13.6375708 341.81573486 12.27294922 343.25292969 C4.56823705 351.30937387 -3.41434167 358.61790141 -12.37353516 365.25683594 C-14.04248666 366.49444808 -15.69454897 367.75227648 -17.34667969 369.01220703 C-66.56759692 405.93889158 -130.51752565 419.89262168 -190.99121094 411.50048828 C-240.11687008 404.00227982 -284.21020136 381.6744191 -320.09277344 347.53173828 C-320.37677002 347.26208252 -320.37677002 347.26208252 -321.81396484 345.89746094 C-329.87040903 338.19274877 -337.17893657 330.21017005 -343.81787109 321.25097656 C-345.05548324 319.58202506 -346.31331163 317.92996275 -347.57324219 316.27783203 C-370.26560152 286.03036319 -384.19942918 249.70162242 -390.09277344 212.53173828 C-390.22264648 211.73493652 -390.35251953 210.93813477 -390.48632812 210.1171875 C-399.68363296 150.87572402 -383.090166 87.45615379 -347.90136719 39.30126953 C-341.15622641 30.20783717 -333.89253236 21.72896841 -326.09277344 13.53173828 C-325.55346191 12.96374512 -325.01415039 12.39575195 -324.45849609 11.81054688 C-316.75378393 3.75410269 -308.77120521 -3.55442485 -299.81201172 -10.19335938 C-298.14306022 -11.43097152 -296.49099791 -12.68879991 -294.83886719 -13.94873047 C-264.2541345 -36.89411304 -227.69397829 -50.72752259 -190.09277344 -56.46826172 C-189.26970703 -56.59813477 -188.44664062 -56.72800781 -187.59863281 -56.86181641 C-121.04208593 -66.93844373 -49.86197391 -44.87577652 0 0 Z M-312.09277344 29.53173828 C-351.36104195 69.16304163 -371.17519869 125.94442485 -371.08886719 181.02392578 C-370.41714955 241.09467408 -343.5807103 294.40552298 -301.53417969 336.06689453 C-259.95618335 374.70007494 -203.28992946 393.91224879 -147.00585938 392.44018555 C-88.58999909 389.99060882 -34.9329787 363.19744467 4.59472656 320.65673828 C42.04517003 277.51495162 61.77743895 221.40923134 58.58276367 164.26953125 C54.45679696 106.88771935 28.2364164 52.61269623 -15.36621094 14.76220703 C-88.30081227 -44.90205853 -193.55933038 -56.20626759 -312.09277344 29.53173828 Z " fill="#000000" transform="translate(412.0927734375,78.46826171875)"/>
<path d="M0 0 C3.69007314 3.15193748 4.8278682 5.11065238 5.75 9.875 C5.02747351 19.3971473 -8.88452747 29.00989897 -15.37109375 35.46875 C-16.66168285 36.75747072 -17.9520489 38.04641485 -19.24220276 39.33557129 C-22.61500184 42.70457828 -25.99079462 46.07056955 -29.36724854 49.43591309 C-32.82153745 52.87991623 -36.27294685 56.32680249 -39.72460938 59.7734375 C-46.48027913 66.51842839 -53.23911934 73.26023258 -60 80 C-59.43585483 80.00119418 -59.43585483 80.00119418 -56.58093834 80.00723743 C-29.1397502 80.06600601 -1.69865005 80.14187247 25.74244118 80.23571491 C39.0126936 80.28069951 52.28291902 80.32010807 65.55322266 80.34643555 C77.11827235 80.369394 88.68323679 80.40276799 100.24821889 80.44870156 C106.37299773 80.47266272 112.49769198 80.49137257 118.62251663 80.49761391 C124.38612206 80.50365161 130.14951098 80.52360409 135.91303635 80.55427551 C138.02940113 80.5630768 140.14579417 80.56677401 142.26217651 80.56500816 C145.15050957 80.56335898 148.03817988 80.58002469 150.92642212 80.60127258 C151.7649537 80.59642501 152.60348527 80.59157743 153.4674269 80.58658296 C158.37559812 80.64621899 161.74161385 81.29541657 166 84 C168.1979747 86.71083547 168.92397877 88.48957172 169.4375 91.9375 C168.87236169 95.89346816 167.56163859 97.95372709 165 101 C160.49505517 103.49446236 156.05531479 103.28998927 151.04667664 103.2784729 C150.14402299 103.2842653 149.24136935 103.2900577 148.31136256 103.29602563 C145.28655903 103.3130317 142.26190803 103.31590268 139.23706055 103.31884766 C137.06885911 103.3281454 134.90066125 103.33831384 132.73246765 103.34928894 C126.84452937 103.37662023 120.95661506 103.39174767 115.06862998 103.40471697 C108.91599 103.42033377 102.76339906 103.44712863 96.61079407 103.4727478 C84.95912576 103.51956125 73.30744826 103.55629297 61.65573388 103.58942068 C48.39102742 103.62762391 35.12637018 103.67703879 21.86170518 103.72740483 C-5.42549341 103.83076287 -32.71272361 103.92001071 -60 104 C-59.20042374 104.78181137 -58.40084747 105.56362274 -57.57704163 106.36912537 C-50.03643287 113.74740781 -42.51715463 121.14684108 -35.01812077 128.56738186 C-31.16227015 132.38152108 -27.29935254 136.18787915 -23.41918945 139.97729492 C-19.67331839 143.63610345 -15.94745837 147.31423705 -12.23452568 151.00645638 C-10.81614389 152.41008128 -9.39075014 153.80665759 -7.95826912 155.19589043 C-5.9492057 157.14668718 -3.96678541 159.12131011 -1.98852539 161.10327148 C-1.3936734 161.66936127 -0.79882141 162.23545105 -0.1859436 162.81869507 C3.5794866 166.66082672 4.7256136 169.62584623 5.10164738 174.99295139 C4.94552868 178.07554758 4.02483129 179.7051912 2 182 C-0.71424521 184.12738138 -2.5239277 184.92909561 -5.9375 185.4375 C-13.19157462 184.40120363 -18.31307711 178.00542074 -23.28442383 173.06958008 C-24.09324005 172.27390625 -24.90205627 171.47823242 -25.73538208 170.65844727 C-28.39845397 168.03466197 -31.05355487 165.40301852 -33.70703125 162.76953125 C-34.61598333 161.86873022 -35.52493542 160.96792919 -36.4614315 160.03983116 C-40.77241041 155.76620379 -45.0792643 151.48850755 -49.37995702 147.20452958 C-54.33146624 142.27258783 -59.29911059 137.35767428 -64.28103048 132.45645791 C-68.60719535 128.19797273 -72.91113981 123.91764216 -77.20764732 119.62924767 C-79.03378754 117.81284961 -80.86668053 116.00321428 -82.70639992 114.20057106 C-85.27764439 111.6779786 -87.82250413 109.1313456 -90.36254883 106.57739258 C-91.12563858 105.83992294 -91.88872833 105.10245331 -92.67494202 104.34263611 C-96.77739315 100.15774377 -99.08398795 96.99480678 -99.21428394 91.00253296 C-98.53041378 84.61160832 -92.43916225 80.15037638 -88.11962891 75.8449707 C-87.71865242 75.44143875 -87.71865242 75.44143875 -85.68946838 73.39932251 C-83.04031824 70.73628566 -80.38381638 68.08073035 -77.7265625 65.42578125 C-75.88172678 63.57705874 -74.03711521 61.72811253 -72.19271851 59.87895203 C-68.32789505 56.00592503 -64.45854162 52.13746455 -60.58691406 48.27124023 C-56.11509814 43.80546936 -51.65255006 39.33058787 -47.19441092 34.85116702 C-42.89915324 30.53616298 -38.59558056 26.22954742 -34.28867722 21.92616844 C-32.45947659 20.09645392 -30.632643 18.26436988 -28.80821609 16.4298954 C-26.25896043 13.86832524 -23.70037431 11.31645138 -21.13916016 8.7668457 C-20.38573837 8.00578018 -19.63231659 7.24471466 -18.85606384 6.46058655 C-18.15515121 5.76668823 -17.45423859 5.07278992 -16.73208618 4.35786438 C-16.12852106 3.75413152 -15.52495594 3.15039865 -14.90310097 2.52837086 C-10.36088277 -1.11946183 -5.52556256 -1.88270176 0 0 Z " fill="#000000" transform="translate(221,164)"/>
</svg>
