<?xml version="1.0" encoding="UTF-8"?>
<!-- Generator: visioncortex VTracer 0.6.12 -->
<svg version="1.1" xmlns="http://www.w3.org/2000/svg" width="512" height="512">
<path d="M0 0 C0.77988281 0.66902344 1.55976563 1.33804688 2.36328125 2.02734375 C14.23921658 12.46494976 25.34253797 23.56457662 34.74121094 36.296875 C35.97069396 37.96034931 37.22216212 39.60527552 38.4765625 41.25 C74.66476777 89.46985084 89.19859163 152.54493693 81.48095703 211.97167969 C74.91035525 256.70985444 56.57788551 298.7375875 27 333 C26.33097656 333.77988281 25.66195313 334.55976563 24.97265625 335.36328125 C14.53505024 347.23921658 3.43542338 358.34253797 -9.296875 367.74121094 C-10.96034931 368.97069396 -12.60527552 370.22216212 -14.25 371.4765625 C-63.32703384 408.30806952 -127.35056348 422.43659077 -187.6875 414.0390625 C-231.43989351 407.2213878 -272.4600711 388.95418345 -306 360 C-306.77988281 359.33097656 -307.55976563 358.66195313 -308.36328125 357.97265625 C-320.23921658 347.53505024 -331.34253797 336.43542338 -340.74121094 323.703125 C-341.97069396 322.03965069 -343.22216212 320.39472448 -344.4765625 318.75 C-380.63723472 270.56683624 -395.21919645 207.48966008 -387.48095703 148.10083008 C-380.89870821 103.25062308 -362.67543515 61.37541199 -333 27 C-332.33097656 26.22011719 -331.66195312 25.44023438 -330.97265625 24.63671875 C-320.53505024 12.76078342 -309.43542338 1.65746203 -296.703125 -7.74121094 C-295.03965069 -8.97069396 -293.39472448 -10.22216212 -291.75 -11.4765625 C-261.16904186 -34.4270688 -224.60018811 -48.2594161 -187 -54 C-186.17693359 -54.12987305 -185.35386719 -54.25974609 -184.50585938 -54.39355469 C-118.98033316 -64.31408601 -49.8803008 -43.06041866 0 0 Z M-214 79 C-214 145.66 -214 212.32 -214 281 C-210.05660812 279.42264325 -206.809265 277.82428235 -203.1875 275.68359375 C-202.62986465 275.35539139 -202.07222931 275.02718903 -201.49769592 274.68904114 C-199.66321952 273.60839822 -197.83164179 272.52293929 -196 271.4375 C-194.7065136 270.67444051 -193.41280863 269.91175141 -192.11889648 269.14941406 C-189.42592707 267.56243801 -186.73390974 265.97386386 -184.04248047 264.38427734 C-180.16974244 262.09839015 -176.29116243 259.82259672 -172.41015625 257.55078125 C-171.79884857 257.19294052 -171.18754089 256.83509979 -170.55770874 256.46641541 C-169.33463254 255.75053982 -168.11153899 255.03469387 -166.88842773 254.31887817 C-157.03990882 248.55366265 -147.20548072 242.76503107 -137.38500977 236.95214844 C-129.14247504 232.07651669 -120.8794386 227.23607962 -112.61572266 222.39648438 C-104.73428759 217.78036168 -96.8600416 213.15249164 -89 208.5 C-80.19964442 203.29172825 -71.38394123 198.10994682 -62.5625 192.9375 C-61.93512939 192.56947266 -61.30775879 192.20144531 -60.66137695 191.82226562 C-54.45845324 188.18395734 -48.25571805 184.54705662 -42 181 C-42 180.34 -42 179.68 -42 179 C-42.89976562 178.50113281 -43.79953125 178.00226563 -44.7265625 177.48828125 C-53.54509015 172.57545248 -62.26596899 167.51279926 -70.94775391 162.36254883 C-78.78289534 157.71479772 -86.63826262 153.10254301 -94.5 148.5 C-103.88346054 143.00516293 -113.25578304 137.49209255 -122.61328125 131.953125 C-130.22994124 127.44780928 -137.8638089 122.97208911 -145.5 118.5 C-154.00971179 113.51633878 -162.51335483 108.52288667 -171 103.5 C-174.66606428 101.33231289 -178.33287737 99.16589614 -182 97 C-182.59327087 96.64945557 -183.18654175 96.29891113 -183.79779053 95.93774414 C-187.76572782 93.59358864 -191.73565336 91.25284921 -195.70776367 88.91577148 C-197.01923331 88.1435101 -198.33011417 87.37024789 -199.64038086 86.59594727 C-201.47093441 85.51441652 -203.30356199 84.43648586 -205.13671875 83.359375 C-206.19592529 82.73514648 -207.25513184 82.11091797 -208.34643555 81.46777344 C-211 80 -211 80 -214 79 Z " fill="#000000" transform="translate(409,76)"/>
</svg>
