<?xml version="1.0" encoding="UTF-8"?>
<!-- Generator: visioncortex VTracer 0.6.12 -->
<svg version="1.1" xmlns="http://www.w3.org/2000/svg" width="512" height="512">
<path d="M0 0 C2.67814128 2.46739961 5.29485318 4.99510874 7.90722656 7.53173828 C8.48069824 8.07942871 9.05416992 8.62711914 9.64501953 9.19140625 C18.23595354 17.40729266 25.83730062 25.98194136 32.90722656 35.53173828 C33.32423828 36.08265137 33.74125 36.63356445 34.17089844 37.20117188 C71.04627681 85.94167784 86.25517089 149.05397411 78.38818359 209.4309082 C71.00184247 259.76004914 48.91555119 304.7394097 13.90722656 341.53173828 C13.6375708 341.81573486 13.6375708 341.81573486 12.27294922 343.25292969 C4.56823705 351.30937387 -3.41434167 358.61790141 -12.37353516 365.25683594 C-14.04248666 366.49444808 -15.69454897 367.75227648 -17.34667969 369.01220703 C-66.56759692 405.93889158 -130.51752565 419.89262168 -190.99121094 411.50048828 C-240.11687008 404.00227982 -284.21020136 381.6744191 -320.09277344 347.53173828 C-320.37677002 347.26208252 -320.37677002 347.26208252 -321.81396484 345.89746094 C-329.87040903 338.19274877 -337.17893657 330.21017005 -343.81787109 321.25097656 C-345.05548324 319.58202506 -346.31331163 317.92996275 -347.57324219 316.27783203 C-370.26560152 286.03036319 -384.19942918 249.70162242 -390.09277344 212.53173828 C-390.22264648 211.73493652 -390.35251953 210.93813477 -390.48632812 210.1171875 C-399.68363296 150.87572402 -383.090166 87.45615379 -347.90136719 39.30126953 C-341.15622641 30.20783717 -333.89253236 21.72896841 -326.09277344 13.53173828 C-325.55346191 12.96374512 -325.01415039 12.39575195 -324.45849609 11.81054688 C-316.75378393 3.75410269 -308.77120521 -3.55442485 -299.81201172 -10.19335938 C-298.14306022 -11.43097152 -296.49099791 -12.68879991 -294.83886719 -13.94873047 C-264.2541345 -36.89411304 -227.69397829 -50.72752259 -190.09277344 -56.46826172 C-189.26970703 -56.59813477 -188.44664062 -56.72800781 -187.59863281 -56.86181641 C-121.04208593 -66.93844373 -49.86197391 -44.87577652 0 0 Z M-312.09277344 29.53173828 C-351.70093337 69.50607534 -371.17764453 126.48730632 -371.08886719 181.97314453 C-370.39197507 241.60719829 -343.22167919 294.76126526 -301.53417969 336.06689453 C-259.95618335 374.70007494 -203.28992946 393.91224879 -147.00585938 392.44018555 C-88.58999909 389.99060882 -34.9329787 363.19744467 4.59472656 320.65673828 C42.04517003 277.51495162 61.77743895 221.40923134 58.58276367 164.26953125 C54.45679696 106.88771935 28.2364164 52.61269623 -15.36621094 14.76220703 C-88.30081227 -44.90205853 -193.55933038 -56.20626759 -312.09277344 29.53173828 Z " fill="#000000" transform="translate(412.0927734375,78.46826171875)"/>
<path d="M0 0 C1.86355782 1.24153709 1.86355782 1.24153709 3.67410278 2.92245483 C4.3665723 3.56134014 5.05904182 4.20022545 5.77249527 4.85847092 C9.87502527 8.80265437 13.93764712 12.78155033 17.96435547 16.80322266 C18.9374604 17.77168767 19.91075803 18.73995909 20.88423157 19.70805359 C23.50407453 22.31489809 26.12068373 24.92496361 28.73626852 27.53607988 C30.37278892 29.16965383 32.00988804 30.80264568 33.64715958 32.43546677 C38.77733934 37.55201523 43.9055457 42.67052925 49.03085315 47.79195845 C54.93511785 53.69172936 60.8458917 59.58487607 66.76233184 65.47243655 C71.34782614 70.03632534 75.92755011 74.60595201 80.50292313 79.17998731 C83.23124695 81.90726387 85.96193947 84.63206293 88.69866562 87.35091019 C91.26785788 89.90363767 93.82981188 92.4634125 96.38638878 95.02877235 C97.7716911 96.41521266 99.16442051 97.79421952 100.55735779 99.17298889 C101.38154709 100.00274734 102.20573639 100.8325058 103.05490112 101.68740845 C103.77272703 102.4037678 104.49055294 103.12012714 105.23013115 103.85819435 C108.01591574 107.22940978 108.98031349 109.95661477 109.0625 114.3125 C106.5612155 122.99342857 97.39288848 129.75058955 91.14916992 135.98022461 C90.17581927 136.95493337 89.2026808 137.92985405 88.22973633 138.90496826 C85.61052031 141.52870635 82.98819589 144.14931615 80.36512542 146.76920009 C77.6139268 149.51785225 74.86518537 152.26896 72.11604309 155.01966858 C67.50729849 159.63022639 62.8964626 164.23868485 58.28442383 168.84594727 C52.95025029 174.17466041 47.61971482 179.50699256 42.29101676 184.84118074 C37.70843198 189.42829777 33.12390868 194.01347053 28.5377472 198.59701163 C25.80142718 201.33177199 23.065789 204.06720521 20.33189964 206.80439568 C17.76748626 209.37169005 15.20065369 211.93654047 12.6319046 214.49949646 C11.23751925 215.89192258 9.84560359 217.28682049 8.45375061 218.68177795 C7.62811615 219.50459259 6.80248169 220.32740723 5.951828 221.17515564 C5.23270328 221.89390334 4.51357855 222.61265104 3.77266216 223.35317898 C0.46046747 226.43024125 -2.38541109 226.33728571 -6.7421875 226.28125 C-10.1507503 225.85665394 -11.74615278 224.52704082 -14 222 C-15.95265839 218.71598361 -16.40977427 215.84503623 -15.78982735 212.05491447 C-13.95669437 207.28560444 -9.65843655 203.89080072 -6.07397461 200.39282227 C-5.12673721 199.44727864 -4.18082168 198.5004092 -3.23612976 197.55232239 C-0.67515004 194.98962462 1.90387508 192.44581894 4.48658681 189.90504956 C7.18525989 187.24394208 9.86689609 184.56577725 12.55039978 181.88938904 C17.63124229 176.8271782 22.72718168 171.78045331 27.82874817 166.73913759 C33.63735283 160.99765015 39.42888331 155.23906973 45.21905529 149.47900307 C57.12716556 137.63356983 69.056493 125.80974483 81 114 C79.55398652 110.68491917 77.75349414 108.508075 75.19761658 105.96383667 C74.40538193 105.17029785 73.61314728 104.37675903 72.79690552 103.55917358 C71.92669769 102.69772736 71.05648987 101.83628113 70.15991211 100.94873047 C69.70215141 100.49162689 69.70215141 100.49162689 67.38560486 98.17840576 C65.39686719 96.19259831 63.4050177 94.20998516 61.4106884 92.22979355 C58.25893757 89.10031763 55.11429825 85.96376074 51.97059631 82.82620239 C46.9996942 77.86667588 42.02414026 72.91184658 37.04653984 67.95904362 C28.12617924 59.08304165 19.21142471 50.20141749 10.30184561 41.31459343 C7.17366414 38.19483248 4.04269637 35.07790242 0.90947902 31.96319938 C-0.56802167 30.49376623 -2.04440686 29.0232232 -3.52030945 27.55218506 C-5.32242769 25.75611462 -7.12637547 23.96187739 -8.93243408 22.16976929 C-9.72184891 21.38187012 -10.51126373 20.59397095 -11.32460022 19.78219604 C-12.01426911 19.09604658 -12.70393801 18.40989712 -13.41450596 17.70295525 C-15.73414804 15.21146266 -15.98731376 14.16809274 -16.25 10.6875 C-15.98368917 6.75941531 -15.43481646 5.04352057 -13 2 C-8.71243834 -0.56163641 -4.86674658 -0.92937896 0 0 Z " fill="#000000" transform="translate(230,143)"/>
</svg>
