<?xml version="1.0" encoding="UTF-8"?>
<!-- Generator: visioncortex VTracer 0.6.12 -->
<svg version="1.1" xmlns="http://www.w3.org/2000/svg" width="512" height="512">
<path d="M0 0 C2.67814 2.4674 5.29485 4.99511 7.90723 7.53174 C8.4807 8.07943 9.05417 8.62712 9.64502 9.19141 C18.23595 17.40729 25.8373 25.98194 32.90723 35.53174 C33.32424 36.08265 33.74125 36.63356 34.1709 37.20117 C71.04628 85.94168 86.25517 149.05397 78.38818 209.43091 C71.00184 259.76005 48.91555 304.73941 13.90723 341.53174 C13.63757 341.81573 13.63757 341.81573 12.27295 343.25293 C4.56824 351.30937 -3.41434 358.6179 -12.37354 365.25684 C-14.04249 366.49445 -15.69455 367.75228 -17.34668 369.01221 C-66.5676 405.93889 -130.51753 419.89262 -190.99121 411.50049 C-240.11687 404.00228 -284.2102 381.67442 -320.09277 347.53174 C-320.37677 347.26208 -320.37677 347.26208 -321.81396 345.89746 C-329.87041 338.19275 -337.17894 330.21017 -343.81787 321.25098 C-345.05548 319.58203 -346.31331 317.92996 -347.57324 316.27783 C-370.2656 286.03036 -384.19943 249.70162 -390.09277 212.53174 C-390.22265 211.73494 -390.35252 210.93813 -390.48633 210.11719 C-399.68363 150.87572 -383.09017 87.45615 -347.90137 39.30127 C-341.15623 30.20784 -333.89253 21.72897 -326.09277 13.53174 C-325.55346 12.96375 -325.01415 12.39575 -324.4585 11.81055 C-316.75378 3.7541 -308.77121 -3.55442 -299.81201 -10.19336 C-298.14306 -11.43097 -296.491 -12.6888 -294.83887 -13.94873 C-264.25413 -36.89411 -227.69398 -50.72752 -190.09277 -56.46826 C-189.26971 -56.59813 -188.44664 -56.72801 -187.59863 -56.86182 C-121.04209 -66.93844 -49.86197 -44.87578 0 0 Z M-312.09277 29.53174 C-351.70093 69.50608 -371.17764 126.48731 -371.08887 181.97314 C-370.39198 241.6072 -343.22168 294.76127 -301.53418 336.06689 C-259.95618 374.70007 -203.28993 393.91225 -147.00586 392.44019 C-88.59 389.99061 -34.93298 363.19744 4.59473 320.65674 C42.04517 277.51495 61.77744 221.40923 58.58276 164.26953 C54.4568 106.88772 28.23642 52.6127 -15.36621 14.76221 C-88.30081 -44.90206 -193.55933 -56.20627 -312.09277 29.53174 Z " fill="#000000" transform="translate(412.0927734375,78.46826171875)"/>
<path d="M0 0 C8.14616 4.07308 15.89503 8.20302 23.625 12.9375 C32.35701 18.23345 41.13839 23.42391 50 28.5 C59.60757 34.00902 69.12479 39.65082 78.60547 45.375 C86.01975 49.84032 93.49201 54.19434 101 58.5 C110.60727 64.00955 120.12478 69.65081 129.60547 75.375 C137.01976 79.84032 144.49209 84.19421 152 88.5 C163.84493 95.29526 175.56585 102.28384 187.25488 109.34326 C191.18608 111.71582 195.12404 114.07703 199.0625 116.4375 C200.24093 117.14446 201.41932 117.85149 202.59766 118.55859 C203.39043 119.03426 204.1832 119.50992 205 120 C203.82957 123.51128 203.30392 123.68502 200.1875 125.39062 C199.37257 125.84478 198.55764 126.29893 197.71802 126.76685 C197.26954 127.01157 197.26954 127.01157 195 128.25 C193.06498 129.32949 191.13145 130.41163 189.19922 131.49609 C188.18134 132.06699 187.16347 132.63788 186.11475 133.22607 C180.95845 136.16272 175.88814 139.23922 170.8125 142.3125 C162.26384 147.475 153.66341 152.53251 145 157.5 C136.44227 162.40758 127.94512 167.40106 119.5 172.5 C109.97886 178.24861 100.37834 183.84217 90.73047 189.375 C83.26762 193.66502 75.86899 198.05091 68.5 202.5 C58.91971 208.28304 49.26551 213.92297 39.55908 219.49146 C31.39345 224.17991 23.2785 228.94846 15.20239 233.78955 C14.3699 234.28568 13.53741 234.78181 12.67969 235.29297 C11.96539 235.72118 11.25108 236.14939 10.51514 236.59058 C7.07657 238.51747 3.52553 240.23724 0 242 C0 162.14 0 82.28 0 0 Z M21 38 C21 92.78 21 147.56 21 204 C24.34231 202.66308 27.13785 201.45836 30.20312 199.70703 C30.60422 199.4783 30.60422 199.4783 32.63403 198.3208 C33.06567 198.07193 33.06567 198.07193 35.25 196.8125 C36.16677 196.2864 37.08353 195.7603 38.02808 195.21826 C46.24443 190.48079 54.37381 185.60223 62.49609 180.70581 C72.53663 174.65832 82.65934 168.75769 92.79248 162.86719 C98.63879 159.46389 104.47629 156.04558 110.3125 152.625 C110.91603 152.27128 111.51957 151.91757 112.14139 151.55313 C124.4887 144.31447 136.82033 137.04814 149.11084 129.71338 C151.06165 128.55648 153.02059 127.41321 154.98682 126.28271 C155.90511 125.74985 156.82341 125.21698 157.76953 124.66797 C158.58656 124.20028 159.40358 123.73259 160.24536 123.25073 C160.82439 122.83799 161.40342 122.42525 162 122 C162 121.34 162 120.68 162 120 C159.68701 118.4187 159.68701 118.4187 156.42969 116.54297 C155.84616 116.20401 155.26262 115.86505 154.66141 115.51582 C152.73646 114.39957 150.80575 113.29369 148.875 112.1875 C147.53469 111.41227 146.19485 110.63622 144.85547 109.85938 C142.15883 108.29587 139.46044 106.73546 136.76074 105.17725 C131.81898 102.32109 126.90796 99.41376 122 96.5 C116.03381 92.96619 110.06006 89.44573 104.07422 85.94531 C103.47334 85.59389 102.87246 85.24246 102.25337 84.88039 C101.646 84.52516 101.03862 84.16994 100.41284 83.80396 C88.94429 77.09638 77.51541 70.33043 66.13525 63.47339 C57.84679 58.48737 49.50563 53.59572 41.1394 48.74146 C40.21813 48.20674 39.29685 47.67202 38.34766 47.12109 C37.90494 46.86449 37.90494 46.86449 35.66455 45.56592 C32.07626 43.45713 28.53193 41.27811 24.9939 39.08618 C23 38 23 38 21 38 Z " fill="#000000" transform="translate(184,135)"/>
</svg>
