<?xml version="1.0" encoding="UTF-8"?>
<!-- Generator: visioncortex VTracer 0.6.12 -->
<svg version="1.1" xmlns="http://www.w3.org/2000/svg" width="512" height="512">
<path d="M0 0 C2.67814128 2.46739961 5.29485318 4.99510874 7.90722656 7.53173828 C8.48069824 8.07942871 9.05416992 8.62711914 9.64501953 9.19140625 C17.69597852 16.8908909 24.99754603 24.85891546 31.63232422 33.8125 C32.86993636 35.4814515 34.12776476 37.13351381 35.38769531 38.78564453 C58.08005465 69.03311337 72.0138823 105.36185414 77.90722656 142.53173828 C77.97216309 142.93013916 77.97216309 142.93013916 78.30078125 144.94628906 C87.49808608 204.18775254 70.90461913 267.60732277 35.71582031 315.76220703 C28.97067953 324.85563939 21.70698549 333.33450816 13.90722656 341.53173828 C13.6375708 341.81573486 13.6375708 341.81573486 12.27294922 343.25292969 C4.56823705 351.30937387 -3.41434167 358.61790141 -12.37353516 365.25683594 C-14.04248666 366.49444808 -15.69454897 367.75227648 -17.34667969 369.01220703 C-66.43078389 405.83625125 -130.43930817 419.96888976 -190.78027344 411.57080078 C-240.00019297 403.90115409 -284.10501452 381.77450559 -320.09277344 347.53173828 C-320.37677002 347.26208252 -320.37677002 347.26208252 -321.81396484 345.89746094 C-329.87040903 338.19274877 -337.17893657 330.21017005 -343.81787109 321.25097656 C-345.05548324 319.58202506 -346.31331163 317.92996275 -347.57324219 316.27783203 C-370.26560152 286.03036319 -384.19942918 249.70162242 -390.09277344 212.53173828 C-390.22264648 211.73493652 -390.35251953 210.93813477 -390.48632812 210.1171875 C-399.68363296 150.87572402 -383.090166 87.45615379 -347.90136719 39.30126953 C-341.15622641 30.20783717 -333.89253236 21.72896841 -326.09277344 13.53173828 C-325.55346191 12.96374512 -325.01415039 12.39575195 -324.45849609 11.81054688 C-316.75378393 3.75410269 -308.77120521 -3.55442485 -299.81201172 -10.19335938 C-298.14306022 -11.43097152 -296.49099791 -12.68879991 -294.83886719 -13.94873047 C-264.2541345 -36.89411304 -227.69397829 -50.72752259 -190.09277344 -56.46826172 C-189.26970703 -56.59813477 -188.44664062 -56.72800781 -187.59863281 -56.86181641 C-121.04208593 -66.93844373 -49.86197391 -44.87577652 0 0 Z M-312.09277344 29.53173828 C-351.70093337 69.50607534 -371.17764453 126.48730632 -371.08886719 181.97314453 C-370.39197507 241.60719829 -343.22167919 294.76126526 -301.53417969 336.06689453 C-259.95618335 374.70007494 -203.28992946 393.91224879 -147.00585938 392.44018555 C-88.58999909 389.99060882 -34.9329787 363.19744467 4.59472656 320.65673828 C42.04517003 277.51495162 61.77743895 221.40923134 58.58276367 164.26953125 C54.45679696 106.88771935 28.2364164 52.61269623 -15.36621094 14.76220703 C-88.30081227 -44.90205853 -193.55933038 -56.20626759 -312.09277344 29.53173828 Z " fill="#000000" transform="translate(412.0927734375,78.46826171875)"/>
<path d="M0 0 C3.11770052 2.65004544 3.86456731 4.50341347 4.9375 8.4375 C5.02908703 13.65796047 3.59761248 16.29418269 0.0390625 20.09375 C-1.44016909 21.56793302 -2.93663422 23.02511112 -4.453125 24.4609375 C-7.16597625 27.16546712 -9.65090643 30.00457816 -12.15722656 32.89892578 C-15.10552821 36.26048963 -18.17858101 39.501252 -21.25 42.75 C-26.65236904 48.48814337 -32.01259914 54.25935409 -37.328125 60.078125 C-40.18877655 63.20643985 -43.0610975 66.3236772 -45.9375 69.4375 C-46.43660889 69.97785889 -46.93571777 70.51821777 -47.44995117 71.07495117 C-48.46120612 72.16964892 -49.47251812 73.26429396 -50.48388672 74.35888672 C-52.99014104 77.07177586 -55.49500446 79.78594859 -58 82.5 C-58.99999324 83.58333957 -59.99999324 84.66667291 -61 85.75 C-61.495 86.28625 -61.99 86.8225 -62.5 87.375 C-79 105.25 -79 105.25 -80.50341797 106.8762207 C-81.49533543 107.95244306 -82.48399064 109.03168197 -83.46923828 110.11401367 C-86.07306727 112.96547774 -88.72530957 115.7315549 -91.4921875 118.42578125 C-92.05808594 118.99296875 -92.62398438 119.56015625 -93.20703125 120.14453125 C-94.29120349 121.22870349 -95.39473858 122.29396804 -96.51953125 123.3359375 C-97.9921875 124.83203125 -97.9921875 124.83203125 -100 128 C-99.86580129 130.17589686 -99.34801849 131.94438091 -98.65185547 134.00756836 C-95.76168058 142.84154487 -98.06834799 151.97885594 -102 160 C-102.40033447 160.76675049 -102.80066895 161.53350098 -103.21313477 162.32348633 C-104 165 -104 165 -103.17993164 167.43408203 C-102.67840576 168.28341309 -102.17687988 169.13274414 -101.66015625 170.0078125 C-101.0988501 170.98145752 -100.53754395 171.95510254 -99.95922852 172.95825195 C-99.33330811 174.00327881 -98.7073877 175.04830566 -98.0625 176.125 C-96.75938593 178.37049591 -95.45734009 180.616612 -94.15625 182.86328125 C-93.46616457 184.04249143 -92.77606018 185.22169052 -92.0859375 186.40087891 C-88.64152928 192.31336409 -85.36448243 198.31978078 -82.0625 204.3125 C-77.93765262 211.78177342 -73.74667759 219.19659456 -69.38061523 226.52807617 C-66.99254357 230.80380131 -66.50551947 234.13760817 -67 239 C-69.05026996 242.57143799 -70.23496734 244.39002548 -74.125 245.734375 C-78.0786423 246.40221998 -80.18151224 246.37514022 -83.90625 244.66796875 C-88.47391829 241.36600503 -90.57180968 236.08851086 -93.0625 231.1875 C-94.20501013 229.00805388 -95.34959551 226.82969457 -96.49609375 224.65234375 C-97.07601074 223.54358887 -97.65592773 222.43483398 -98.25341797 221.29248047 C-101.45454833 215.25803203 -104.84546062 209.33101336 -108.26171875 203.41625977 C-110.95616608 198.72660347 -113.5083555 194.03011854 -115.83984375 189.1484375 C-122.37057298 175.71711762 -122.37057298 175.71711762 -127 173.6796875 C-130.0625 173.5 -130.0625 173.5 -133.08203125 173.7578125 C-139.58386124 174.29745569 -145.35042376 170.80756136 -150.3125 166.875 C-155.68756016 161.84812188 -159.65254911 154.38015961 -160.23828125 146.99609375 C-160.46760601 136.00057487 -158.7111558 127.9278917 -151.0703125 119.7578125 C-144.67010846 114.32367699 -137.39988011 111.85750554 -129.125 111.875 C-127.91070312 111.87242187 -126.69640625 111.86984375 -125.4453125 111.8671875 C-122 112 -122 112 -119.359375 112.78515625 C-117 113 -117 113 -114.5703125 111.19140625 C-113.76335937 110.32386719 -112.95640625 109.45632812 -112.125 108.5625 C-111.32320313 107.71816406 -110.52140625 106.87382812 -109.6953125 106.00390625 C-107.64274376 103.7421932 -105.63750537 101.44087947 -103.6328125 99.13671875 C-100.09915051 95.08300659 -96.44404683 91.15732338 -92.75 87.25 C-87.34763096 81.51185663 -81.98740086 75.74064591 -76.671875 69.921875 C-73.81122345 66.79356015 -70.9389025 63.6763228 -68.0625 60.5625 C-67.56339111 60.02214111 -67.06428223 59.48178223 -66.55004883 58.92504883 C-65.53879388 57.83035108 -64.52748188 56.73570604 -63.51611328 55.64111328 C-61.00985896 52.92822414 -58.50499554 50.21405141 -56 47.5 C-55.00000676 46.41666043 -54.00000676 45.33332709 -53 44.25 C-52.505 43.71375 -52.01 43.1775 -51.5 42.625 C-46 36.66666667 -40.5 30.70833333 -35 24.75 C-34.50443604 24.21294434 -34.00887207 23.67588867 -33.49829102 23.12255859 C-32.50477244 22.04663804 -31.51047701 20.97143431 -30.51538086 19.89697266 C-27.90916896 17.08080997 -25.32028081 14.25098776 -22.75390625 11.3984375 C-22.21958984 10.80869141 -21.68527344 10.21894531 -21.13476562 9.61132812 C-20.11666998 8.48699642 -19.10331778 7.35834357 -18.09570312 6.22460938 C-12.49582986 0.06396994 -8.14191992 -2.46540379 0 0 Z " fill="#000000" transform="translate(385,113)"/>
</svg>
