<?xml version="1.0" encoding="UTF-8"?>
<!-- Generator: visioncortex VTracer 0.6.12 -->
<svg version="1.1" xmlns="http://www.w3.org/2000/svg" width="512" height="512">
<path d="M0 0 C2.67814128 2.46739961 5.29485318 4.99510874 7.90722656 7.53173828 C8.48069824 8.07942871 9.05416992 8.62711914 9.64501953 9.19140625 C17.69597852 16.8908909 24.99754603 24.85891546 31.63232422 33.8125 C32.86993636 35.4814515 34.12776476 37.13351381 35.38769531 38.78564453 C58.08005465 69.03311337 72.0138823 105.36185414 77.90722656 142.53173828 C77.97216309 142.93013916 77.97216309 142.93013916 78.30078125 144.94628906 C87.49808608 204.18775254 70.90461913 267.60732277 35.71582031 315.76220703 C28.97067953 324.85563939 21.70698549 333.33450816 13.90722656 341.53173828 C13.6375708 341.81573486 13.6375708 341.81573486 12.27294922 343.25292969 C4.56823705 351.30937387 -3.41434167 358.61790141 -12.37353516 365.25683594 C-14.04248666 366.49444808 -15.69454897 367.75227648 -17.34667969 369.01220703 C-66.43078389 405.83625125 -130.43930817 419.96888976 -190.78027344 411.57080078 C-240.00019297 403.90115409 -284.10501452 381.77450559 -320.09277344 347.53173828 C-320.37677002 347.26208252 -320.37677002 347.26208252 -321.81396484 345.89746094 C-329.87040903 338.19274877 -337.17893657 330.21017005 -343.81787109 321.25097656 C-345.05548324 319.58202506 -346.31331163 317.92996275 -347.57324219 316.27783203 C-370.26560152 286.03036319 -384.19942918 249.70162242 -390.09277344 212.53173828 C-390.22264648 211.73493652 -390.35251953 210.93813477 -390.48632812 210.1171875 C-399.68363296 150.87572402 -383.090166 87.45615379 -347.90136719 39.30126953 C-341.15622641 30.20783717 -333.89253236 21.72896841 -326.09277344 13.53173828 C-325.55346191 12.96374512 -325.01415039 12.39575195 -324.45849609 11.81054688 C-316.75378393 3.75410269 -308.77120521 -3.55442485 -299.81201172 -10.19335938 C-298.14306022 -11.43097152 -296.49099791 -12.68879991 -294.83886719 -13.94873047 C-264.2541345 -36.89411304 -227.69397829 -50.72752259 -190.09277344 -56.46826172 C-189.26970703 -56.59813477 -188.44664062 -56.72800781 -187.59863281 -56.86181641 C-121.04208593 -66.93844373 -49.86197391 -44.87577652 0 0 Z M-312.09277344 29.53173828 C-351.70093337 69.50607534 -371.17764453 126.48730632 -371.08886719 181.97314453 C-370.39197507 241.60719829 -343.22167919 294.76126526 -301.53417969 336.06689453 C-259.95618335 374.70007494 -203.28992946 393.91224879 -147.00585938 392.44018555 C-88.58999909 389.99060882 -34.9329787 363.19744467 4.59472656 320.65673828 C42.04517003 277.51495162 61.77743895 221.40923134 58.58276367 164.26953125 C54.45679696 106.88771935 28.2364164 52.61269623 -15.36621094 14.76220703 C-88.30081227 -44.90205853 -193.55933038 -56.20626759 -312.09277344 29.53173828 Z " fill="#000000" transform="translate(412.0927734375,78.46826171875)"/>
<path d="M0 0 C2.95416989 2.88031565 4.92242263 5.38760635 5.12304783 9.55746651 C5.12212604 10.64702581 5.12120424 11.73658512 5.12025452 12.85916138 C5.12094185 13.48318344 5.12094185 13.48318344 5.12442017 16.64111328 C5.12088079 18.03173852 5.11724598 19.42236352 5.11352539 20.81298828 C5.11324344 22.2713928 5.1134014 23.72979747 5.1139679 25.1882019 C5.11425557 29.15491147 5.10836364 33.12159099 5.10139394 37.08829355 C5.09515546 41.2309698 5.09455621 45.37364669 5.09336853 49.5163269 C5.09025668 57.36444532 5.08204525 65.21254986 5.07201904 73.06066215 C5.06085338 81.99403121 5.05534631 90.92740093 5.05032361 99.86077523 C5.03986252 118.2405247 5.02226589 136.62026124 5 155 C5.47272339 155.15082031 5.47272339 155.15082031 7.86499023 155.9140625 C14.58286272 158.24106949 18.77860839 163.00525473 21.9375 169.25 C25.86758591 177.82957739 26.72005219 187.35499549 23.4375 196.375 C19.17750337 205.41450504 13.15552101 210.27056574 4 214 C0.56416784 215.14527739 -2.13077759 215.13276657 -5.75 215.125 C-6.94109375 215.12757813 -8.1321875 215.13015625 -9.359375 215.1328125 C-13 215 -13 215 -16.3318634 214.15080261 C-20 214 -20 214 -23.13066101 216.18208313 C-24.21795273 217.25232868 -25.28345435 218.34498832 -26.33081055 219.4543457 C-26.92037537 220.0459549 -27.50994019 220.63756409 -28.11737061 221.24710083 C-30.05979168 223.20527857 -31.9725551 225.19000585 -33.88671875 227.17578125 C-35.23286283 228.54193287 -36.58094034 229.90618185 -37.93086243 231.26860046 C-41.47980984 234.85941842 -45.00495598 238.47269877 -48.52478027 242.09204102 C-54.16283577 247.88061862 -59.83850774 253.63238205 -65.50995827 259.38820457 C-67.48823857 261.40188096 -69.45782618 263.42374214 -71.4259491 265.44734192 C-72.63631972 266.68415333 -73.84678906 267.92086813 -75.05737305 269.1574707 C-75.60238968 269.72224625 -76.14740631 270.28702179 -76.7089386 270.86891174 C-80.27577371 274.49753989 -82.80616284 276.71384733 -87.875 277.375 C-91.87153796 276.89541545 -93.90459308 275.53260567 -97 273 C-99.35242347 269.79214982 -99.4684209 266.90350748 -99 263 C-96.28771876 258.37810518 -92.94875798 254.7080541 -89.11401367 251.01391602 C-88.82518814 250.73136963 -88.82518814 250.73136963 -87.36355591 249.30151367 C-86.11773747 248.08324976 -84.86980061 246.86714911 -83.61995506 245.65301704 C-81.64286945 243.72948684 -79.67489709 241.79707452 -77.70954895 239.86155701 C-72.12458572 234.36185028 -66.53445268 228.86777656 -60.91235352 223.40600586 C-57.4670313 220.05765234 -54.04148763 216.69014468 -50.62810707 213.30924797 C-49.32554469 212.0264862 -48.0157024 210.75107337 -46.69856834 209.48327827 C-44.85991083 207.71203766 -43.04748762 205.9174535 -41.23901367 204.11547852 C-40.690009 203.59837814 -40.14100433 203.08127777 -39.57536316 202.54850769 C-38.09269714 201.04127502 -38.09269714 201.04127502 -36 198 C-36.15766907 194.3299408 -36.15766907 194.3299408 -37 191 C-37.77833596 179.91190251 -36.84212331 171.39102496 -29.6875 162.625 C-26.45030313 159.1785016 -23.2712574 157.01000348 -19 155 C-18.34 155 -17.68 155 -17 155 C-17.00368717 154.24277838 -17.00737434 153.48555676 -17.01117325 152.70538902 C-17.09952598 134.27712135 -17.16571043 115.84889597 -17.20724869 97.42046165 C-17.22787042 88.50858324 -17.25598356 79.59684624 -17.30175781 70.68505859 C-17.34163752 62.91717421 -17.36743564 55.14939225 -17.37635398 47.38140833 C-17.38156683 43.26860222 -17.39381064 39.1560891 -17.42292023 35.04337692 C-17.4501074 31.17082892 -17.45843843 27.2986941 -17.45243073 23.42605972 C-17.4535295 22.00628157 -17.46146408 20.58648934 -17.4768219 19.16679382 C-17.61395651 5.83383838 -17.61395651 5.83383838 -13 1 C-8.91550734 -1.86076569 -4.63224851 -1.34539571 0 0 Z " fill="#000000" transform="translate(262,72)"/>
</svg>
