<?xml version="1.0" encoding="UTF-8"?>
<!-- Generator: visioncortex VTracer 0.6.12 -->
<svg version="1.1" xmlns="http://www.w3.org/2000/svg" width="512" height="512">
<path d="M0 0 C1.21883377 -0.00623996 2.43766754 -0.01247993 3.69343567 -0.01890898 C7.03695896 -0.03199398 10.3795684 -0.02743469 13.72303391 -0.0149641 C17.34411327 -0.00584578 20.96511761 -0.01991665 24.58618164 -0.03088379 C31.66414479 -0.04860186 38.74193757 -0.04485915 45.81990719 -0.03323323 C51.57607856 -0.0241726 57.33220244 -0.02298623 63.08837891 -0.02732849 C63.90992179 -0.02794142 64.73146467 -0.02855436 65.57790279 -0.02918586 C67.24723436 -0.03046486 68.91656591 -0.03176171 70.58589745 -0.03307623 C86.21226148 -0.04446236 101.8385314 -0.03139928 117.46487999 -0.00987476 C130.85163375 0.00799444 144.23824874 0.00488978 157.625 -0.0135498 C173.19825014 -0.03499136 188.77141795 -0.04336391 204.34468079 -0.03110075 C206.00761921 -0.02982665 207.67055765 -0.02856917 209.33349609 -0.02732849 C210.15153686 -0.02671139 210.96957762 -0.02609429 211.81240749 -0.02545848 C217.55676194 -0.02201543 223.30106385 -0.02781132 229.04541016 -0.0372467 C236.05290288 -0.04850467 243.06021654 -0.04534731 250.06768894 -0.02412373 C253.63800972 -0.01366404 257.20803275 -0.00940363 260.77835083 -0.02272034 C264.65969124 -0.03697737 268.5405519 -0.01987089 272.421875 0 C273.5346431 -0.00892289 274.64741119 -0.01784577 275.79389954 -0.02703905 C290.38500917 0.11710059 302.82208578 5.29294486 313.4609375 15.25793457 C324.49370717 27.03677268 328.84682586 40.33995312 328.71887207 56.29699707 C328.72199205 56.90641396 328.72199205 56.90641396 328.73778105 59.99043274 C328.75086605 63.33395603 328.74630676 66.67656547 328.73383617 70.02003098 C328.72471785 73.64111034 328.73878872 77.26211468 328.74975586 80.88317871 C328.76747393 87.96114186 328.76373122 95.03893464 328.7521053 102.11690426 C328.74304467 107.87307563 328.7418583 113.62919951 328.74620056 119.38537598 C328.74681349 120.20691886 328.74742643 121.02846174 328.74805793 121.87489986 C328.74933693 123.54423143 328.75063378 125.21356298 328.7519483 126.88289452 C328.76333443 142.50925855 328.75027135 158.13552847 328.72874683 173.76187706 C328.71087763 187.14863082 328.71398229 200.53524581 328.73242188 213.92199707 C328.75386343 229.49524721 328.76223598 245.06841502 328.74997282 260.64167786 C328.74869872 262.30461628 328.74744124 263.96755472 328.74620056 265.63049316 C328.74589201 266.03951355 328.74589201 266.03951355 328.74433056 268.10940456 C328.7408875 273.85375901 328.74668339 279.59806092 328.75611877 285.34240723 C328.76737674 292.34989995 328.76421938 299.35721361 328.7429958 306.36468601 C328.73253611 309.93500679 328.7282757 313.50502982 328.74159241 317.0753479 C328.75584944 320.95668831 328.73874296 324.83754897 328.71887207 328.71887207 C328.72779496 329.83164017 328.73671784 330.94440826 328.74591112 332.09089661 C328.60135834 346.72382798 323.41399522 359.22040573 313.3359375 369.82043457 C304.27649489 378.32344309 292.77251802 384.61688067 280.1010828 384.64215565 C279.06308381 384.64661349 278.02508482 384.65107134 276.95563132 384.65566427 C275.81664765 384.6554799 274.67766398 384.65529554 273.50416565 384.65510559 C272.2930217 384.65878228 271.08187775 384.66245897 269.83403248 384.66624707 C266.4704852 384.67536681 263.10698669 384.67998206 259.74343169 384.68263638 C256.11608157 384.68654291 252.48874554 384.69612117 248.86140442 384.70484924 C240.09912344 384.72460628 231.33684131 384.73467998 222.57454363 384.74357703 C218.44549208 384.74796215 214.31644182 384.75332847 210.18739128 384.7585659 C196.45587842 384.77557924 182.72436636 384.79007174 168.99284458 384.79731464 C165.4298814 384.79922446 161.86691823 384.80114481 158.30395508 384.80310059 C157.41842392 384.80358433 156.53289276 384.80406807 155.62052732 384.80456647 C141.28676825 384.81286051 126.95309281 384.83818636 112.61937023 384.87068126 C97.89398756 384.90379103 83.16864731 384.92176704 68.44322723 384.92495888 C60.17928282 384.92712061 51.91546026 384.93581952 43.6515522 384.96142006 C36.6109292 384.98318085 29.57045765 384.99115123 22.52980483 384.98145328 C18.9413009 384.97692374 15.35310909 384.97871531 11.76464844 384.99821472 C7.86315881 385.01923068 3.96209358 385.00881208 0.06056213 384.99568176 C-1.05834504 385.00665101 -2.17725222 385.01762025 -3.33006567 385.0289219 C-17.94151627 384.91080322 -30.38583687 379.73638775 -41.0390625 369.75793457 C-52.07183217 357.97909646 -56.42495086 344.67591603 -56.29699707 328.71887207 C-56.30323703 327.5000383 -56.309477 326.28120453 -56.31590605 325.0254364 C-56.32899105 321.68191311 -56.32443176 318.33930368 -56.31196117 314.99583817 C-56.30284285 311.3747588 -56.31691372 307.75375446 -56.32788086 304.13269043 C-56.34559893 297.05472728 -56.34185622 289.9769345 -56.3302303 282.89896488 C-56.32116967 277.14279351 -56.3199833 271.38666963 -56.32432556 265.63049316 C-56.32493849 264.80895028 -56.32555143 263.9874074 -56.32618293 263.14096928 C-56.32746193 261.47163771 -56.32875878 259.80230616 -56.3300733 258.13297462 C-56.34145943 242.5066106 -56.32839635 226.88034067 -56.30687183 211.25399208 C-56.28900263 197.86723832 -56.29210729 184.48062333 -56.31054688 171.09387207 C-56.33198843 155.52062193 -56.34036098 139.94745412 -56.32809782 124.37419128 C-56.32682372 122.71125286 -56.32556624 121.04831443 -56.32432556 119.38537598 C-56.32370846 118.56733521 -56.32309136 117.74929445 -56.32245556 116.90646458 C-56.3190125 111.16211013 -56.32480839 105.41780822 -56.33424377 99.67346191 C-56.34550174 92.66596919 -56.34234438 85.65865553 -56.3211208 78.65118313 C-56.31066111 75.08086235 -56.3064007 71.51083932 -56.31971741 67.94052124 C-56.33397444 64.05918083 -56.31686796 60.17832017 -56.29699707 56.29699707 C-56.30591996 55.18422897 -56.31484284 54.07146088 -56.32403612 52.92497253 C-56.17989648 38.3338629 -51.00405221 25.89678629 -41.0390625 15.25793457 C-29.26022439 4.2251649 -15.95704395 -0.12795379 0 0 Z " fill="#F44336" transform="translate(119.7890625,63.4920654296875)"/>
<path d="M0 0 C4.93805184 4.14118763 9.58627298 8.44640848 14.12866211 13.01513672 C14.46567139 13.35207298 14.46567139 13.35207298 16.17114258 15.05717468 C18.37559126 17.2623143 20.57648684 19.47096359 22.77734375 21.6796875 C24.3141171 23.21832794 25.85111288 24.75674625 27.38832092 26.29495239 C31.41657796 30.32701166 35.4418217 34.36206595 39.46643066 38.39776611 C43.58061116 42.52221022 47.69765465 46.64379431 51.81445312 50.765625 C59.87909568 58.84096439 67.94055557 66.91947294 76 75 C78.86356097 73.70005304 80.92226181 72.32621927 83.13848877 70.10202026 C83.73297821 69.51028015 84.32746765 68.91854004 84.93997192 68.30886841 C85.58014252 67.66150726 86.22031311 67.01414612 86.87988281 66.34716797 C87.56321686 65.66412598 88.2465509 64.98108398 88.95059204 64.27734375 C91.20620976 62.02033362 93.45466222 59.7563237 95.703125 57.4921875 C97.26638892 55.92519314 98.83009523 54.35864001 100.39422607 52.79251099 C104.50858445 48.67051858 108.6169012 44.54255516 112.72399902 40.41333008 C116.91654166 36.20032416 121.11475588 31.99297842 125.3125 27.78515625 C133.54723528 19.5289751 141.77560065 11.26647643 150 3 C151.10520574 3.9387427 152.20917517 4.87894106 153.31263733 5.81973267 C153.92754563 6.34314554 154.54245394 6.86655842 155.17599583 7.40583229 C157.87935153 9.76854748 160.40923826 12.28492938 162.93359375 14.8359375 C163.4563942 15.36015289 163.97919464 15.88436829 164.51783752 16.42446899 C166.16012345 18.0722787 167.7988665 19.72355901 169.4375 21.375 C170.56161467 22.50413955 171.68596174 23.63304778 172.81054688 24.76171875 C175.54305235 27.50515188 178.27239009 30.25169985 181 33 C176.96115031 37.84529675 172.73289506 42.40762999 168.26025391 46.85327148 C167.61564209 47.49802933 166.97103027 48.14278717 166.30688477 48.80708313 C164.19914181 50.91413559 162.08789107 53.01763474 159.9765625 55.12109375 C158.50518273 56.59060627 157.0340252 58.06034135 155.56307983 59.5302887 C151.70857225 63.38099528 147.85107001 67.22868807 143.99291992 71.07574463 C140.04944377 75.00895449 136.10882996 78.9450298 132.16796875 82.88085938 C124.44809901 90.59003446 116.72506011 98.29602623 109 106 C110.30683699 108.88330643 111.69722137 110.94564108 113.9359436 113.17645264 C114.53609787 113.77935623 115.13625214 114.38225983 115.7545929 115.00343323 C116.41130478 115.65295456 117.06801666 116.30247589 117.74462891 116.97167969 C118.43742447 117.6647673 119.13022003 118.35785492 119.8440094 119.07194519 C122.13348474 121.36002799 124.4299613 123.64094651 126.7265625 125.921875 C128.31597709 127.5075592 129.90495048 129.09368574 131.49349976 130.68023682 C135.67467585 134.85377854 139.86182346 139.02127917 144.05023193 143.18756104 C148.32356063 147.44042719 152.59122973 151.69896419 156.859375 155.95703125 C165.23404581 164.31025559 173.61503443 172.65711048 182 181 C180.1523556 185.02750999 177.4726113 187.71330418 174.3125 190.75 C170.22065634 194.75420043 166.31477814 198.81321016 162.6015625 203.17578125 C159.88724289 206.26745749 156.94790392 209.13273782 154 212 C151.09702266 210.68634063 149.03091891 209.27927877 146.7855835 207.02609253 C146.17426575 206.41752411 145.562948 205.80895569 144.93310547 205.1819458 C144.60366943 204.84891449 144.60366943 204.84891449 142.93652344 203.16357422 C142.23368225 202.46102509 141.53084106 201.75847595 140.80670166 201.03463745 C138.48615375 198.71269689 136.1727692 196.38375372 133.859375 194.0546875 C132.25127053 192.44285268 130.64272375 190.83145903 129.03375244 189.2204895 C124.80102735 184.98012971 120.57434285 180.73379794 116.34887695 176.48620605 C112.03568729 172.15255457 107.71682751 167.82456212 103.3984375 163.49609375 C94.92672409 155.00293327 86.46137967 146.50345472 78 138 C73.02829029 142.16087229 68.38358174 146.49879823 63.84301758 151.12280273 C63.16567062 151.80803513 62.48832367 152.49326752 61.79045105 153.19926453 C60.33208852 154.67471813 58.87478088 156.151215 57.41843605 157.6286602 C54.32263147 160.76670883 51.21734807 163.89530543 48.11261272 167.0245142 C42.34181958 172.84099656 36.57502354 178.66130979 30.82446289 184.49780273 C26.81360434 188.56786725 22.79079902 192.62577326 18.75967979 196.6757679 C17.22610209 198.22111879 15.69707903 199.77100314 14.17267799 201.32540703 C12.0493569 203.48949584 9.91119153 205.63777339 7.76879883 207.78295898 C7.13962555 208.43167969 6.51045227 209.08040039 5.86221313 209.7487793 C4.09138489 211.50315857 4.09138489 211.50315857 1 214 C-3.60469538 213.57386856 -6.21897765 210.24867824 -9.33203125 207.13671875 C-9.6300338 206.84252296 -9.6300338 206.84252296 -11.1381073 205.35371399 C-12.39337581 204.1092379 -13.64470323 202.86077567 -14.89233398 201.60864258 C-16.80913592 199.69086579 -18.74627753 197.79541247 -20.68554688 195.90039062 C-21.90233998 194.6888025 -23.11787921 193.47595352 -24.33203125 192.26171875 C-24.91523636 191.69490891 -25.49844147 191.12809906 -26.09931946 190.54411316 C-27.69848633 188.91674805 -27.69848633 188.91674805 -30 186 C-29.71104917 182.65774427 -28.36031263 180.98789036 -26.03245544 178.67169189 C-25.40001923 178.03513168 -24.76758301 177.39857147 -24.11598206 176.74272156 C-23.767127 176.39925941 -23.767127 176.39925941 -22.00170898 174.66113281 C-21.27004517 173.92903091 -20.53838135 173.19692902 -19.7845459 172.44264221 C-17.36210427 170.02229216 -14.92920623 167.61274381 -12.49609375 165.203125 C-10.81535195 163.52797781 -9.13527087 161.85216746 -7.45582581 160.17572021 C-3.03186673 155.76322041 1.40102732 151.3598033 5.83581543 146.95819092 C10.35884452 142.46583913 14.87340244 137.96499233 19.38867188 133.46484375 C28.25082369 124.63487522 37.12214955 115.81418317 46 107 C41.85881237 102.06194816 37.55359152 97.41372702 32.98486328 92.87133789 C32.31099075 92.19731934 31.63711823 91.52330078 30.94282532 90.82885742 C28.7376857 88.62440874 26.52903641 86.42351316 24.3203125 84.22265625 C22.78167206 82.6858829 21.24325375 81.14888712 19.70504761 79.61167908 C15.67298834 75.58342204 11.63793405 71.5581783 7.60223389 67.53356934 C3.47778978 63.41938884 -0.64379431 59.30234535 -4.765625 55.18554688 C-12.84096439 47.12090432 -20.91947294 39.05944443 -29 31 C-27.07139535 26.78323595 -24.17029862 23.91678209 -20.8984375 20.703125 C-20.30197418 20.10949158 -19.70551086 19.51585815 -19.0909729 18.90423584 C-17.1903019 17.01473373 -15.28278526 15.13231608 -13.375 13.25 C-12.08287532 11.96790935 -10.79120324 10.68536239 -9.5 9.40234375 C-6.33855521 6.26291568 -3.1709539 3.12982199 0 0 Z " fill="#FEE9EC" transform="translate(180,148)"/>
</svg>
