<?xml version="1.0" encoding="UTF-8"?>
<!-- Generator: visioncortex VTracer 0.6.12 -->
<svg version="1.1" xmlns="http://www.w3.org/2000/svg" width="512" height="512">
<path d="M0 0 C1.35158802 -0.00187153 2.70317549 -0.00417359 4.05476213 -0.00686532 C7.7448625 -0.0129474 11.43494011 -0.01285399 15.12504435 -0.01167095 C19.11427053 -0.01146603 23.10348958 -0.01699436 27.0927124 -0.02172852 C34.89928878 -0.03001579 42.70585761 -0.03278248 50.51243803 -0.03334089 C56.86124161 -0.03381695 63.21004272 -0.03587615 69.55884552 -0.03904152 C87.57955533 -0.04784268 105.6002592 -0.05246171 123.62097117 -0.05171105 C124.10617237 -0.05169107 124.10617237 -0.05169107 126.56158447 -0.05158997 C127.04738161 -0.05156953 127.04738161 -0.05156953 129.50580958 -0.05146609 C145.24818464 -0.05105972 160.99053578 -0.06062825 176.73290393 -0.07472833 C192.91732742 -0.08910938 209.10173925 -0.09599757 225.28616929 -0.09513456 C234.36435091 -0.09480319 243.44250744 -0.09752362 252.52068329 -0.10831261 C260.25023945 -0.11744035 267.97975914 -0.11957421 275.70931837 -0.11280318 C279.64826609 -0.1095495 283.58714393 -0.10943942 287.5260849 -0.11815643 C291.14095378 -0.12607357 294.75569798 -0.12453745 298.37056401 -0.1158723 C300.27845152 -0.11363407 302.18634306 -0.12112479 304.09421515 -0.12911195 C320.46469941 -0.06444905 335.7714318 2.00598424 348.43951416 13.13371277 C349.10595947 13.68414246 349.77240479 14.23457214 350.45904541 14.80168152 C360.72588384 24.00846398 365.43869003 37.66196162 366.43951416 51.13371277 C366.57944701 55.64168425 366.57881892 60.14672459 366.57322693 64.65660095 C366.57509783 66.0162882 366.57739964 67.37597492 366.58009225 68.73566079 C366.58618212 72.45275423 366.58607999 76.16982508 366.58489788 79.88692236 C366.58469316 83.90341376 366.59021941 87.91989805 366.59495544 91.93638611 C366.60324707 99.79824364 366.60600961 107.66009368 366.60656782 115.52195522 C366.60704368 121.9151277 366.60910192 128.30829772 366.61226845 134.70146942 C366.6210709 152.84382809 366.62568845 170.98618086 366.62493797 189.12854168 C366.624918 189.61714393 366.624918 189.61714393 366.62481689 192.08976746 C366.62477601 193.06817078 366.62473513 194.04657411 366.62469301 195.05462602 C366.62428664 210.9076711 366.63385502 226.76069243 366.64795526 242.61373064 C366.66233288 258.90772883 366.66922468 275.20171545 366.66836149 291.49572015 C366.66803 300.63704193 366.6707559 309.77833879 366.68153954 318.91965485 C366.69066278 326.70306253 366.69280482 334.48643401 366.68603011 342.26984474 C366.68277413 346.23701516 366.68267476 350.20411617 366.69138336 354.17127991 C366.69929022 357.81080842 366.69777463 361.45021299 366.68909923 365.08973864 C366.68685673 367.0133251 366.69435988 368.93691553 366.70233887 370.86048675 C366.63933608 386.88730481 364.30747625 401.76135497 353.43951416 414.13371277 C353.16429932 414.46693542 353.16429932 414.46693542 351.77154541 416.15324402 C342.22811584 426.79549064 328.3331853 431.18028072 314.43951416 432.13371277 C309.91888683 432.27041552 305.40147775 432.27308467 300.87902832 432.26742554 C299.5274403 432.26929707 298.17585283 432.27159913 296.8242662 432.27429086 C293.13416582 432.28037294 289.44408821 432.28027953 285.75398397 432.27909648 C281.76475779 432.27889157 277.77553874 432.28441989 273.78631592 432.28915405 C265.97973954 432.29744132 258.17317071 432.30020802 250.36659029 432.30076643 C244.01778671 432.30124248 237.6689856 432.30330169 231.3201828 432.30646706 C213.29947299 432.31526822 195.27876912 432.31988725 177.25805715 432.31913658 C176.77285595 432.3191166 176.77285595 432.3191166 174.31744385 432.3190155 C173.83164671 432.31899506 173.83164671 432.31899506 171.37321874 432.31889162 C155.63084368 432.31848526 139.88849254 432.32805379 124.14612439 432.34215387 C107.9617009 432.35653492 91.77728907 432.36342311 75.59285903 432.36256009 C66.51467741 432.36222873 57.43652088 432.36494916 48.35834503 432.37573814 C40.62878887 432.38486589 32.89926918 432.38699975 25.16970995 432.38022872 C21.23076223 432.37697503 17.29188439 432.37686496 13.35294342 432.38558197 C9.73807454 432.3934991 6.12333034 432.39196299 2.50846431 432.38329784 C0.6005768 432.38105961 -1.30731474 432.38855033 -3.21518683 432.39653748 C-19.58567109 432.33187459 -34.89240348 430.2614413 -47.56048584 419.13371277 C-48.22693115 418.58328308 -48.89337646 418.03285339 -49.58001709 417.46574402 C-59.84685552 408.25896156 -64.55966171 394.60546391 -65.56048584 381.13371277 C-65.70041869 376.62574129 -65.6997906 372.12070095 -65.69419861 367.61082458 C-65.69606951 366.25113733 -65.69837132 364.89145062 -65.70106393 363.53176475 C-65.7071538 359.81467131 -65.70705167 356.09760046 -65.70586956 352.38050318 C-65.70566484 348.36401177 -65.71119109 344.34752749 -65.71592712 340.33103943 C-65.72421875 332.46918189 -65.72698129 324.60733186 -65.7275395 316.74547032 C-65.72801536 310.35229783 -65.7300736 303.95912782 -65.73324013 297.56595612 C-65.74204258 279.42359745 -65.74666013 261.28124468 -65.74590965 243.13888386 C-65.7458697 242.16167935 -65.74582974 241.18447485 -65.74578857 240.17765808 C-65.74574769 239.19925476 -65.74570681 238.22085143 -65.74566469 237.21279952 C-65.74525832 221.35975443 -65.7548267 205.50673311 -65.76892694 189.6536949 C-65.78330456 173.3596967 -65.79019636 157.06571009 -65.78933316 140.77170539 C-65.78900168 131.63038361 -65.79172758 122.48908674 -65.80251122 113.34777069 C-65.81163446 105.564363 -65.8137765 97.78099153 -65.80700179 89.9975808 C-65.80374581 86.03041038 -65.80364644 82.06330936 -65.81235504 78.09614563 C-65.8202619 74.45661711 -65.81874631 70.81721255 -65.81007091 67.1776869 C-65.80782841 65.25410044 -65.81533156 63.33051001 -65.82331055 61.40693879 C-65.76030776 45.38012073 -63.42844793 30.50607057 -52.56048584 18.13371277 C-52.285271 17.80049011 -52.285271 17.80049011 -50.89251709 16.11418152 C-37.63536168 1.33061589 -18.55307152 -0.02321624 0 0 Z M-36.56048584 32.13371277 C-43.48939953 41.20597043 -43.85466448 49.61424439 -43.82791138 60.73326111 C-43.83165062 62.1256479 -43.83625324 63.5180326 -43.84164202 64.91041398 C-43.85385364 68.72711793 -43.85361373 72.54373411 -43.85125327 76.36045313 C-43.85084464 80.4805654 -43.86188871 84.60064971 -43.87136841 88.7207489 C-43.88796942 96.78942599 -43.89347755 104.85807386 -43.89459316 112.9267666 C-43.89554409 119.48686464 -43.8996566 126.04695305 -43.90599442 132.60704803 C-43.92360456 151.21405819 -43.93283367 169.82104529 -43.93133347 188.42806384 C-43.93125355 189.43082056 -43.93117364 190.43357729 -43.93109131 191.46672058 C-43.93100955 192.47070445 -43.93092779 193.47468832 -43.93084355 194.50909594 C-43.93003077 210.77750658 -43.94916703 227.04582462 -43.97736804 243.31420848 C-44.00610906 260.0262432 -44.01990766 276.73823277 -44.01818049 293.45029283 C-44.017517 302.82970736 -44.02299139 312.20902481 -44.04453659 321.58841705 C-44.06276443 329.57471427 -44.06708258 337.5608704 -44.05351774 345.54717943 C-44.0469961 349.61947545 -44.04684161 353.69150092 -44.06422424 357.76377106 C-44.07999597 361.49715242 -44.07705007 365.23004962 -44.05965598 368.96341947 C-44.05515319 370.94227429 -44.0702112 372.92114438 -44.08613527 374.89994025 C-44.00941188 384.86802064 -42.353098 394.18687581 -35.25970459 401.63761902 C-25.97169542 409.81533743 -16.9261866 410.4299275 -4.9609375 410.40113831 C-3.56855071 410.40487755 -2.17616601 410.40948016 -0.78378463 410.41486895 C3.03291932 410.42708057 6.8495355 410.42684066 10.66625452 410.4244802 C14.78636679 410.42407157 18.9064511 410.43511564 23.02655029 410.44459534 C31.09522739 410.46119635 39.16387525 410.46670448 47.232568 410.46782009 C53.79266603 410.46877102 60.35275444 410.47288353 66.91284943 410.47922134 C85.51985958 410.49683149 104.12684668 410.5060606 122.73386523 410.5045604 C123.73662196 410.50448048 124.73937868 410.50440057 125.77252197 410.50431824 C126.77650584 410.50423648 127.78048971 410.50415471 128.81489733 410.50407048 C145.08330797 410.50325769 161.35162601 410.52239396 177.62000987 410.55059497 C194.33204459 410.57933599 211.04403416 410.59313459 227.75609422 410.59140742 C237.13550875 410.59074393 246.5148262 410.59621832 255.89421844 410.61776352 C263.88051566 410.63599136 271.86667179 410.64030951 279.85298082 410.62674467 C283.92527684 410.62022303 287.99730231 410.62006854 292.06957245 410.63745117 C295.80295381 410.6532229 299.53585101 410.650277 303.26922086 410.63288291 C305.24807568 410.62838012 307.22694577 410.64343813 309.20574164 410.6593622 C319.17382203 410.5826388 328.4926772 408.92632493 335.94342041 401.83293152 C344.12113883 392.54492235 344.73572889 383.49941353 344.7069397 371.53416443 C344.71067894 370.14177764 344.71528156 368.74939294 344.72067034 367.35701156 C344.73288197 363.5403076 344.73264205 359.72369143 344.73028159 355.90697241 C344.72987296 351.78686014 344.74091703 347.66677583 344.75039673 343.54667664 C344.76699774 335.47799954 344.77250587 327.40935168 344.77362148 319.34065893 C344.77457241 312.7805609 344.77868492 306.22047249 344.78502274 299.6603775 C344.80263288 281.05336735 344.81186199 262.44638025 344.81036179 243.8393617 C344.81028188 242.83660497 344.81020196 241.83384825 344.81011963 240.80070496 C344.81007875 240.29871302 344.81007875 240.29871302 344.80987187 237.7583296 C344.80905909 221.48991895 344.82819535 205.22160092 344.85639636 188.95321706 C344.88513738 172.24118234 344.89893598 155.52919277 344.89720881 138.81713271 C344.89654532 129.43771818 344.90201971 120.05840073 344.92356491 110.67900848 C344.94179275 102.69271127 344.9461109 94.70655514 344.93254606 86.72024611 C344.92602442 82.64795008 344.92586993 78.57592462 344.94325256 74.50365448 C344.95902429 70.77027312 344.95607839 67.03737592 344.9386843 63.30400607 C344.93418152 61.32515125 344.94923952 59.34628116 344.96516359 57.36748528 C344.8884402 47.39940489 343.23212632 38.08054972 336.13873291 30.62980652 C326.85072374 22.4520881 317.80521492 21.83749803 305.83996582 21.86628723 C304.44757903 21.86254799 303.05519433 21.85794537 301.66281295 21.85255659 C297.846109 21.84034496 294.02949282 21.84058488 290.2127738 21.84294534 C286.09266153 21.84335397 281.97257722 21.8323099 277.85247803 21.8228302 C269.78380093 21.80622919 261.71515307 21.80072106 253.64646032 21.79960544 C247.08636229 21.79865452 240.52627388 21.79454201 233.96617889 21.78820419 C215.35916874 21.77059404 196.75218164 21.76136494 178.14516309 21.76286514 C177.14240636 21.76294505 176.13964964 21.76302497 175.10650635 21.7631073 C174.10252248 21.76318906 173.09853861 21.76327082 172.06413099 21.76335506 C155.79572035 21.76416784 139.52740231 21.74503158 123.25901845 21.71683057 C106.54698373 21.68808955 89.83499416 21.67429095 73.1229341 21.67601812 C63.74351957 21.67668161 54.36420212 21.67120722 44.98480988 21.64966202 C36.99851266 21.63143418 29.01235653 21.62711603 21.0260475 21.64068086 C16.95375148 21.64720251 12.88172601 21.647357 8.80945587 21.62997437 C5.07607451 21.61420264 1.34317731 21.61714854 -2.39019254 21.63454263 C-4.36904736 21.63904541 -6.34791745 21.62398741 -8.32671332 21.60806334 C-19.12007098 21.69113882 -29.1620011 23.73073401 -36.56048584 32.13371277 Z " fill="#000000" transform="translate(105.56048583984375,39.86628723144531)"/>
<path d="M0 0 C3.07678681 1.37207757 5.18280642 2.93492694 7.55609131 5.31558228 C7.89961388 5.65773018 7.89961388 5.65773018 9.63804626 7.38920593 C10.38107498 8.1394252 11.1241037 8.88964447 11.88964844 9.66259766 C12.68027176 10.45292892 13.47089508 11.24326019 14.28547668 12.05754089 C16.89821109 14.67166891 19.50378954 17.29281044 22.109375 19.9140625 C23.91926192 21.72767943 25.72959083 23.54085537 27.54034424 25.35360718 C31.81862071 29.63874034 36.09241301 33.92829651 40.36406636 38.22002828 C45.22831018 43.10663779 50.09824386 47.9875599 54.96866179 52.86801457 C64.98544799 62.90569789 74.99507421 72.95049593 85 83 C88.07678681 81.62792243 90.18280642 80.06507306 92.55609131 77.68441772 C93.24313644 77.00012192 93.93018158 76.31582611 94.63804626 75.61079407 C95.38107498 74.8605748 96.1241037 74.11035553 96.88964844 73.33740234 C97.68027176 72.54707108 98.47089508 71.75673981 99.28547668 70.94245911 C101.89821109 68.32833109 104.50378954 65.70718956 107.109375 63.0859375 C108.91926192 61.27232057 110.72959083 59.45914463 112.54034424 57.64639282 C116.81862071 53.36125966 121.09241301 49.07170349 125.36406636 44.77997172 C130.22831018 39.89336221 135.09824386 35.0124401 139.96866179 30.13198543 C149.98544799 20.09430211 159.99507421 10.04950407 170 0 C172.79570164 1.34727261 174.83967803 2.59706233 177.015625 4.8203125 C177.54414063 5.35527344 178.07265625 5.89023438 178.6171875 6.44140625 C179.15601563 6.99699219 179.69484375 7.55257812 180.25 8.125 C180.80429687 8.68832031 181.35859375 9.25164062 181.9296875 9.83203125 C183.29104485 11.21686028 184.64614859 12.60783204 186 14 C184.62792243 17.07678681 183.06507306 19.18280642 180.68441772 21.55609131 C180.00012192 22.24313644 179.31582611 22.93018158 178.61079407 23.63804626 C177.8605748 24.38107498 177.11035553 25.1241037 176.33740234 25.88964844 C175.94223671 26.2849601 175.94223671 26.2849601 173.94245911 28.28547668 C171.32833109 30.89821109 168.70718956 33.50378954 166.0859375 36.109375 C164.27232057 37.91926192 162.45914463 39.72959083 160.64639282 41.54034424 C156.36125966 45.81862071 152.07170349 50.09241301 147.77997172 54.36406636 C142.89336221 59.22831018 138.0124401 64.09824386 133.13198543 68.96866179 C123.09430211 78.98544799 113.04950407 88.99507421 103 99 C104.37207757 102.07678681 105.93492694 104.18280642 108.31558228 106.55609131 C108.99987808 107.24313644 109.68417389 107.93018158 110.38920593 108.63804626 C111.1394252 109.38107498 111.88964447 110.1241037 112.66259766 110.88964844 C113.45292892 111.68027176 114.24326019 112.47089508 115.05754089 113.28547668 C117.67166891 115.89821109 120.29281044 118.50378954 122.9140625 121.109375 C124.72767943 122.91926192 126.54085537 124.72959083 128.35360718 126.54034424 C132.63874034 130.81862071 136.92829651 135.09241301 141.22002828 139.36406636 C146.10663779 144.22831018 150.9875599 149.09824386 155.86801457 153.96866179 C165.90569789 163.98544799 175.95049593 173.99507421 186 184 C184.65272739 186.79570164 183.40293767 188.83967803 181.1796875 191.015625 C180.64472656 191.54414063 180.10976563 192.07265625 179.55859375 192.6171875 C179.28080078 192.88660156 179.28080078 192.88660156 177.875 194.25 C177.31167969 194.80429687 176.74835938 195.35859375 176.16796875 195.9296875 C174.78313972 197.29104485 173.39216796 198.64614859 172 200 C168.92321319 198.62792243 166.81719358 197.06507306 164.44390869 194.68441772 C163.75686356 194.00012192 163.06981842 193.31582611 162.36195374 192.61079407 C161.61892502 191.8605748 160.8758963 191.11035553 160.11035156 190.33740234 C159.31972824 189.54707108 158.52910492 188.75673981 157.71452332 187.94245911 C155.10178891 185.32833109 152.49621046 182.70718956 149.890625 180.0859375 C148.08073808 178.27232057 146.27040917 176.45914463 144.45965576 174.64639282 C140.18137929 170.36125966 135.90758699 166.07170349 131.63593364 161.77997172 C126.77168982 156.89336221 121.90175614 152.0124401 117.03133821 147.13198543 C107.01455201 137.09430211 97.00492579 127.04950407 87 117 C83.92321319 118.37207757 81.81719358 119.93492694 79.44390869 122.31558228 C78.75686356 122.99987808 78.06981842 123.68417389 77.36195374 124.38920593 C76.61892502 125.1394252 75.8758963 125.88964447 75.11035156 126.66259766 C74.31972824 127.45292892 73.52910492 128.24326019 72.71452332 129.05754089 C70.10178891 131.67166891 67.49621046 134.29281044 64.890625 136.9140625 C63.08073808 138.72767943 61.27040917 140.54085537 59.45965576 142.35360718 C55.18137929 146.63874034 50.90758699 150.92829651 46.63593364 155.22002828 C41.77168982 160.10663779 36.90175614 164.9875599 32.03133821 169.86801457 C22.01455201 179.90569789 12.00492579 189.95049593 2 200 C-0.79570164 198.65272739 -2.83967803 197.40293767 -5.015625 195.1796875 C-5.54414063 194.64472656 -6.07265625 194.10976563 -6.6171875 193.55859375 C-7.15601563 193.00300781 -7.69484375 192.44742188 -8.25 191.875 C-8.80429688 191.31167969 -9.35859375 190.74835938 -9.9296875 190.16796875 C-11.29104485 188.78313972 -12.64614859 187.39216796 -14 186 C-12.62792243 182.92321319 -11.06507306 180.81719358 -8.68441772 178.44390869 C-8.00012192 177.75686356 -7.31582611 177.06981842 -6.61079407 176.36195374 C-5.8605748 175.61892502 -5.11035553 174.8758963 -4.33740234 174.11035156 C-3.54707108 173.31972824 -2.75673981 172.52910492 -1.94245911 171.71452332 C0.67166891 169.10178891 3.29281044 166.49621046 5.9140625 163.890625 C7.72767943 162.08073808 9.54085537 160.27040917 11.35360718 158.45965576 C15.63874034 154.18137929 19.92829651 149.90758699 24.22002828 145.63593364 C29.10663779 140.77168982 33.9875599 135.90175614 38.86801457 131.03133821 C48.90569789 121.01455201 58.95049593 111.00492579 69 101 C67.62792243 97.92321319 66.06507306 95.81719358 63.68441772 93.44390869 C63.00012192 92.75686356 62.31582611 92.06981842 61.61079407 91.36195374 C60.8605748 90.61892502 60.11035553 89.8758963 59.33740234 89.11035156 C58.54707108 88.31972824 57.75673981 87.52910492 56.94245911 86.71452332 C54.32833109 84.10178891 51.70718956 81.49621046 49.0859375 78.890625 C47.27232057 77.08073808 45.45914463 75.27040917 43.64639282 73.45965576 C39.36125966 69.18137929 35.07170349 64.90758699 30.77997172 60.63593364 C25.89336221 55.77168982 21.0124401 50.90175614 16.13198543 46.03133821 C6.09430211 36.01455201 -3.95049593 26.00492579 -14 16 C-12.65272739 13.20429836 -11.40293767 11.16032197 -9.1796875 8.984375 C-8.64472656 8.45585937 -8.10976562 7.92734375 -7.55859375 7.3828125 C-7.00300781 6.84398437 -6.44742188 6.30515625 -5.875 5.75 C-5.31167969 5.19570312 -4.74835938 4.64140625 -4.16796875 4.0703125 C-2.78313972 2.70895515 -1.39216796 1.35385141 0 0 Z " fill="#000000" transform="translate(170,156)"/>
</svg>
