<?xml version="1.0" encoding="UTF-8"?>
<!-- Generator: visioncortex VTracer 0.6.12 -->
<svg version="1.1" xmlns="http://www.w3.org/2000/svg" width="512" height="512">
<path d="M0 0 C0.68255859 0.1556543 1.36511719 0.31130859 2.06835938 0.47167969 C36.45609818 8.59055676 65.29756198 30.85886849 84.1875 60.3125 C98.86040499 85.18742483 104.52977149 110.26600915 104 139 C104.7528125 139.07476562 105.505625 139.14953125 106.28125 139.2265625 C124.40185163 141.46964668 140.15656366 149.24100907 154 161 C154.97582031 161.77601563 155.95164062 162.55203125 156.95703125 163.3515625 C171.86364822 175.80965812 181.20871683 196.11405096 184 215 C184.89326579 229.66434405 184.95603738 244.0550713 180 258 C179.81308594 258.52916016 179.81308594 258.52916016 178.8671875 261.20703125 C174.26588206 273.07596151 167.87281375 282.90831228 159 292 C158.5771875 292.4434375 158.5771875 292.4434375 156.4375 294.6875 C155.633125 295.450625 154.82875 296.21375 154 297 C153.49984375 297.50660156 152.9996875 298.01320313 152.484375 298.53515625 C135.23460007 314.99744145 111.75588203 320.32847727 88.64300537 320.26069641 C87.22924323 320.26372355 85.81548272 320.26761584 84.40172505 320.27228898 C80.54895856 320.28250542 76.69628578 320.28040351 72.84351182 320.27610838 C68.67567857 320.2736295 64.50786721 320.28266973 60.34004211 320.29014587 C52.18681509 320.30286315 44.03362106 320.30469025 35.88038579 320.30234561 C29.2489405 320.3005588 22.61750519 320.30231985 15.9860611 320.30657005 C15.04035764 320.30716524 14.09465418 320.30776043 13.12029304 320.30837366 C11.19875214 320.30958548 9.27721125 320.31079961 7.35567036 320.31201603 C-10.64519981 320.32288033 -28.64605122 320.32073446 -46.64692244 320.31463119 C-63.08945073 320.30946417 -79.53191974 320.32071378 -95.97443631 320.33972941 C-112.88440464 320.35913469 -129.79434496 320.36735902 -146.70432448 320.36360615 C-156.18720307 320.36169804 -165.67003123 320.36414345 -175.1529007 320.37832069 C-183.22675213 320.39026987 -191.30052209 320.39159996 -199.37437472 320.37953053 C-203.48778449 320.37366631 -207.6010455 320.37247372 -211.71444511 320.38453293 C-215.49099452 320.39547521 -219.26727247 320.39219076 -223.04380962 320.37827124 C-225.03363398 320.37441822 -227.02347079 320.38510284 -229.01326585 320.39656812 C-256.5342565 320.23390304 -281.02827572 309.56352779 -300.8125 290.5625 C-322.67500516 267.66461208 -328.80027906 241.04690633 -328.13623047 210.25732422 C-327.88442136 204.23646924 -326.89512361 198.7386474 -325 193 C-324.64808594 191.92492187 -324.29617188 190.84984375 -323.93359375 189.7421875 C-319.54298633 177.48326382 -313.45999551 166.86706337 -305 157 C-304.55527344 156.41089844 -304.11054688 155.82179687 -303.65234375 155.21484375 C-294.94072033 143.94567951 -279.79482792 133.81335902 -266.3125 129.5 C-264.46875 128.625 -264.46875 128.625 -263 127 C-261.87396839 123.07705115 -261.26781362 119.21268026 -260.6953125 115.1796875 C-258.32484863 99.22436338 -247.24636953 84.42053913 -234.99609375 74.43359375 C-219.50726286 63.30952147 -201.62473712 57.73246445 -182.5546875 60.5 C-171.09764589 62.71586739 -160.99911961 67.06617902 -151 73 C-150.731875 72.2884375 -150.46375 71.576875 -150.1875 70.84375 C-141.00623944 48.85704707 -121.96853601 29.54222096 -102 17 C-101.43071777 16.63970703 -100.86143555 16.27941406 -100.27490234 15.90820312 C-70.77620941 -2.48793693 -33.79425548 -7.99210118 0 0 Z M-114.90625 54.6015625 C-125.95355571 67.25649852 -143 90.42000166 -143 108 C-147.33938053 104.32275928 -151.45394344 100.56124932 -155.375 96.4375 C-165.25506248 86.52371717 -177.54555748 81.67296964 -191.5 81.5 C-205.51708376 81.68922985 -217.52027124 86.76347376 -227.8125 96.3125 C-237.91743906 107.14267392 -242.20294619 120.32493519 -242.0625 134.8125 C-242.05798828 135.69615234 -242.05347656 136.57980469 -242.04882812 137.49023438 C-242.03709866 139.66018559 -242.01916495 141.83010172 -242 144 C-243.16917969 144.11085938 -244.33835938 144.22171875 -245.54296875 144.3359375 C-262.97878731 146.53698431 -279.8966652 158.53854603 -290.546875 172.140625 C-303.75926072 190.49608704 -309.02754525 210.5102754 -306.57421875 232.8828125 C-302.98341178 253.63459263 -291.77584393 272.08035183 -274.640625 284.515625 C-257.60764393 296.23399186 -239.78335972 299.15453905 -219.49729919 299.14044189 C-218.13974981 299.14302993 -216.78220118 299.1460443 -215.42465359 299.1494453 C-211.71335433 299.15746707 -208.00207446 299.15930216 -204.29076755 299.16004276 C-200.28035207 299.16190176 -196.26994646 299.16945329 -192.25953674 299.17617798 C-183.49894558 299.18972734 -174.73835902 299.19578067 -165.97775912 299.20018864 C-160.50152474 299.20295673 -155.02529211 299.2071951 -149.54905891 299.21169281 C-134.36932073 299.22388088 -119.18958394 299.23418121 -104.00984097 299.2375679 C-103.03937033 299.23778747 -102.0688997 299.23800703 -101.06902087 299.23823325 C-100.58266458 299.23834239 -100.58266458 299.23834239 -98.12140697 299.2388947 C-96.15051806 299.23933816 -94.17962915 299.23978472 -92.20874023 299.24023438 C-91.23112384 299.2404558 -90.25350745 299.24067723 -89.24626631 299.24090537 C-73.41463642 299.24485122 -57.58305262 299.26230081 -41.75144052 299.2855939 C-25.47437789 299.30934792 -9.19733834 299.32177159 7.0797419 299.32293582 C16.20943746 299.32385029 25.33907296 299.32954492 34.46875191 299.34775543 C42.24439928 299.36321117 50.01996801 299.36824475 57.79562784 299.36001733 C61.7571281 299.35613016 65.71847025 299.35694496 69.67995071 299.37107468 C98.01071098 299.46618096 121.96727061 297.74980348 143.71875 277.375 C156.82161232 263.73366389 163.73035755 245.16189475 163.47045898 226.36328125 C162.61302069 206.38839882 153.66119656 189.00890121 139.25 175.3125 C121.62852017 160.03875178 102.38912109 157.57844751 80 158 C80.13277344 157.40574219 80.26554687 156.81148437 80.40234375 156.19921875 C86.3098701 128.47265346 82.05474072 100.54666489 68 76 C67.64921387 75.38640625 67.29842773 74.7728125 66.93701172 74.140625 C61.65146033 65.07552908 55.3972011 57.41839651 48 50 C47.24460937 49.22140625 46.48921875 48.4428125 45.7109375 47.640625 C24.97133683 27.54245528 -5.13095066 17.51871454 -33.67578125 17.84765625 C-64.92592012 19.27980127 -93.10270585 31.99378926 -114.90625 54.6015625 Z " fill="#000000" transform="translate(328,90)"/>
</svg>
