<?xml version="1.0" encoding="UTF-8"?>
<!-- Generator: visioncortex VTracer 0.6.12 -->
<svg version="1.1" xmlns="http://www.w3.org/2000/svg" width="512" height="512">
<path d="M0 0 C3.57281628 0.01611356 7.14450203 0.00000536 10.71728516 -0.01904297 C55.23341725 -0.0601046 112.59027772 5.09417207 146.84228516 37.05908203 C155.46901177 46.07861931 157.37202409 54.30203998 157.3536377 66.49697876 C157.35660882 67.11192505 157.35660882 67.11192505 157.3716445 70.22392595 C157.38597654 73.63053981 157.39136087 77.03695189 157.39283943 80.44358134 C157.39654916 84.12065422 157.4116482 87.79768375 157.42510986 91.47473145 C157.45224314 99.51210958 157.46432086 107.54946771 157.47313118 115.58688402 C157.47866195 120.60862048 157.48713777 125.63034927 157.49613953 130.65208054 C157.52052103 144.56467772 157.54112008 158.47726877 157.54788971 172.38988686 C157.54832884 173.27987598 157.54876797 174.16986511 157.54922041 175.08682361 C157.54965697 175.97890379 157.55009352 176.87098397 157.55054331 177.79009688 C157.55143023 179.5976948 157.55232336 181.40529271 157.55322266 183.21289062 C157.55366552 184.10951555 157.55410838 185.00614048 157.55456465 185.92993586 C157.56245726 200.45182541 157.59735661 214.97351403 157.6439417 229.495326 C157.69141949 244.41626562 157.71629573 259.33710453 157.71862555 274.25812089 C157.72045629 282.63105045 157.73189064 291.00371821 157.76826477 299.37657547 C157.79913567 306.50763079 157.80926763 313.63834341 157.79278857 320.76945288 C157.7849992 324.40456786 157.78671522 328.03899348 157.81490326 331.67402267 C157.8452527 335.62409063 157.82857827 339.57319984 157.80773926 343.52334595 C157.81579566 344.09135573 157.81579566 344.09135573 157.85656595 346.96582949 C157.73231446 357.07378484 153.92791023 366.29011057 146.92041016 373.69189453 C105.24378688 412.02029015 32.87415896 412.42006754 -20.12634277 410.30328369 C-39.24558013 409.36891879 -39.24558013 409.36891879 -46.92724609 407.39111328 C-46.92391518 407.67442001 -46.92391518 407.67442001 -46.90705872 409.10812378 C-46.8402947 415.04614544 -46.79527641 420.98405915 -46.76245117 426.92236328 C-46.74743572 429.13367042 -46.72701719 431.34494813 -46.70092773 433.55615234 C-46.66422455 436.74860937 -46.64744679 439.94067004 -46.63427734 443.13330078 C-46.61879349 444.10975555 -46.60330963 445.08621033 -46.58735657 446.09225464 C-46.58428387 458.84201743 -50.91371453 468.17195887 -59.48974609 477.45361328 C-89.83860128 506.42297505 -145.93125824 512.44172232 -185.48583984 512.59423828 C-186.66904312 512.59993835 -187.8522464 512.60563843 -189.07130432 512.61151123 C-191.57153445 512.62091217 -194.07177669 512.62747556 -196.57202148 512.63134766 C-200.29548521 512.64093495 -204.01836738 512.67195692 -207.74169922 512.70361328 C-252.50351309 512.90163667 -310.22250506 507.89547813 -344.69677734 475.72314453 C-352.39762633 467.67164393 -355.23375621 459.99368845 -355.19467163 448.99845886 C-355.19920274 448.06046536 -355.20373386 447.12247186 -355.20840228 446.15605432 C-355.22104909 443.01715326 -355.21942571 439.87842565 -355.21777344 436.73950195 C-355.2237585 434.4872363 -355.230564 432.2349727 -355.23812866 429.98271179 C-355.25579799 423.86694439 -355.26048444 417.75123295 -355.26176023 411.6354425 C-355.26318185 407.81376739 -355.26745165 403.99210652 -355.27275467 400.17043495 C-355.29030311 387.52383261 -355.29959454 374.87727115 -355.29809372 362.23065992 C-355.29801381 361.54940787 -355.2979339 360.86815582 -355.29785156 360.16625977 C-355.2977698 359.48417217 -355.29768804 358.80208458 -355.2976038 358.09932766 C-355.29679109 347.04797036 -355.31592651 335.99674942 -355.3441283 324.94543155 C-355.37288311 313.5874294 -355.38630121 302.22951439 -355.38494074 290.87146741 C-355.38443099 284.49903434 -355.39012181 278.1267556 -355.41129684 271.75435448 C-355.43067177 265.76002403 -355.4308085 259.76599526 -355.41626358 253.77165413 C-355.41417349 251.5742842 -355.41888824 249.37689543 -355.4309845 247.1795578 C-355.44645423 244.17425813 -355.4371169 241.16999645 -355.42172241 238.16471863 C-355.43200954 237.30010881 -355.44229666 236.43549899 -355.45289552 235.54468888 C-355.33360282 224.96895296 -350.13366837 216.98773852 -343.10302734 209.43017578 C-321.126586 188.24907231 -285.92710181 181.73382957 -256.92724609 177.39111328 C-255.96463867 177.24013184 -255.00203125 177.08915039 -254.01025391 176.93359375 C-236.21217639 174.2595552 -218.45241572 174.10122244 -200.48974609 174.07861328 C-199.34151367 174.07502808 -198.19328125 174.07144287 -197.01025391 174.06774902 C-181.87055371 174.04234321 -166.97765459 174.73610833 -151.92724609 176.39111328 C-151.28863102 156.47631891 -150.82880871 136.57889683 -150.93505859 116.65283203 C-150.93898369 115.80497257 -150.94290878 114.95711311 -150.94695282 114.08356094 C-150.9831536 106.30746493 -151.02967188 98.53149316 -151.09863281 90.75561523 C-151.13641311 86.41830135 -151.15931368 82.08111578 -151.1729393 77.74366188 C-151.1808964 76.1246855 -151.19436282 74.50572494 -151.213871 72.88684654 C-151.3958179 57.61191585 -148.95554721 46.79080943 -138.36474609 35.32861328 C-104.79449931 3.40210739 -43.37776843 -0.23126903 0 0 Z M-122.86474609 51.01611328 C-123.54537109 51.79986328 -124.22599609 52.58361328 -124.92724609 53.39111328 C-125.69037109 54.17486328 -126.45349609 54.95861328 -127.23974609 55.76611328 C-129.56798876 59.38782409 -129.71822353 61.14859796 -128.92724609 65.39111328 C-118.06056065 82.99306063 -92.70882902 89.70498712 -73.92724609 94.39111328 C-48.58344371 100.07874681 -23.00101845 102.62373487 2.94775391 102.57861328 C3.30247269 102.57814499 3.30247269 102.57814499 5.0975647 102.57577515 C45.9967388 102.46014582 100.19417459 99.61637762 132.07666016 70.53955078 C135.01551676 67.37639788 136.0519059 65.47520945 136.13525391 61.14111328 C133.79119188 52.86795321 127.18937704 48.30074174 120.06494141 44.04345703 C85.61290217 25.01837531 43.3882395 21.16919436 4.69775391 21.14111328 C3.85225983 21.14043854 3.00676575 21.13976379 2.13565063 21.1390686 C-37.1342574 21.18830035 -91.88420866 23.33137771 -122.86474609 51.01611328 Z M-128.92724609 95.39111328 C-129.02637894 101.120229 -129.09883949 106.84884167 -129.14697266 112.57861328 C-129.16704515 114.52629294 -129.19430941 116.47391265 -129.22900391 118.42138672 C-129.27771462 121.22655049 -129.3002585 124.03091515 -129.31787109 126.83642578 C-129.33851624 127.70228302 -129.35916138 128.56814026 -129.38043213 129.4602356 C-129.38281374 135.92735043 -127.59340868 139.28938948 -123.34912109 144.22705078 C-95.42802664 169.93011437 -44.61336971 172.97192107 -8.67724609 174.01611328 C-8.30269287 174.02700989 -8.30269287 174.02700989 -6.40722656 174.08215332 C36.79896725 175.28334614 95.18019773 173.55206298 130.16259766 144.41064453 C135.63302407 138.62698307 136.64658486 134.52008345 136.46337891 126.83642578 C136.45771912 125.93487762 136.45205933 125.03332947 136.44622803 124.10446167 C136.42393946 121.24112565 136.37375779 118.37906739 136.32275391 115.51611328 C136.30267915 113.56821476 136.28443009 111.62029651 136.26806641 109.67236328 C136.22409938 104.91145858 136.15512454 100.15150214 136.07275391 95.39111328 C132.9645064 96.60483893 129.94399997 97.89588898 126.95556641 99.37939453 C106.62944315 109.33872312 85.94130388 114.91203237 63.63525391 118.57861328 C62.70922363 118.73338135 61.78319336 118.88814941 60.82910156 119.04760742 C41.78601122 122.01894996 22.75570147 122.76943857 3.51025391 122.70361328 C2.94035233 122.70253571 2.94035233 122.70253571 0.05630493 122.69708252 C-34.27632988 122.59315437 -69.513253 119.56211183 -101.92724609 107.39111328 C-102.68730957 107.1059082 -103.44737305 106.82070312 -104.23046875 106.52685547 C-112.2812285 103.45430274 -119.75543608 100.22110778 -126.92724609 95.39111328 C-127.58724609 95.39111328 -128.24724609 95.39111328 -128.92724609 95.39111328 Z M-128.92724609 166.39111328 C-128.92724609 171.01111328 -128.92724609 175.63111328 -128.92724609 180.39111328 C-125.4963545 181.76346992 -122.63323835 182.79163742 -119.11083984 183.61767578 C-95.27840488 189.3982734 -67.92448875 197.41092808 -52.92724609 218.39111328 C-48.34108652 225.96946234 -47.92724609 233.70985531 -47.92724609 242.39111328 C-14.10708638 247.81619009 22.24168961 247.67721708 56.07275391 242.39111328 C57.17619141 242.21950684 58.27962891 242.04790039 59.41650391 241.87109375 C83.81020399 237.92194005 113.5131033 232.26937812 132.07275391 214.39111328 C136.04354411 208.70074726 136.62759883 204.58509831 136.46337891 197.73876953 C136.45771912 196.83863632 136.45205933 195.93850311 136.44622803 195.01109314 C136.42397621 192.15804097 136.37380189 189.30628084 136.32275391 186.45361328 C136.30267439 184.51027214 136.28442617 182.56691117 136.26806641 180.62353516 C136.22414826 175.87890261 136.15519956 171.13522641 136.07275391 166.39111328 C135.09798096 166.92583252 134.12320801 167.46055176 133.11889648 168.01147461 C126.14310999 171.80667897 119.28036375 175.46370085 111.76025391 178.07861328 C111.36346436 178.21996704 111.36346436 178.21996704 109.35546875 178.93530273 C75.61214435 190.72976704 39.85418601 194.62266063 4.26025391 194.57861328 C3.35612762 194.57800903 2.45200134 194.57740479 1.52047729 194.57678223 C-13.04069564 194.55043792 -27.45840974 194.1613664 -41.92724609 192.39111328 C-42.95172852 192.26752441 -43.97621094 192.14393555 -45.03173828 192.01660156 C-74.56632271 188.29886703 -102.97299502 181.22211389 -128.92724609 166.39111328 Z M-329.93115234 227.24267578 C-332.87000895 230.40582868 -333.90639809 232.30701711 -333.98974609 236.64111328 C-331.67594765 244.80746072 -325.16084509 249.46002149 -318.11474609 253.67236328 C-261.40179161 284.25287796 -177.12485674 283.80700085 -116.36474609 266.39111328 C-113.20171472 265.43973979 -110.0603101 264.43666643 -106.92724609 263.39111328 C-106.32589844 263.19130859 -106.32589844 263.19130859 -103.28271484 262.18017578 C-91.24341771 257.84195263 -75.00982981 251.55628072 -68.92724609 239.39111328 C-68.36504674 235.87736731 -68.2667912 233.43616233 -70.20849609 230.36376953 C-72.00954252 228.23116683 -73.89376785 226.30289688 -75.92724609 224.39111328 C-76.47123047 223.87677734 -77.01521484 223.36244141 -77.57568359 222.83251953 C-101.03669073 203.24629411 -139.65267535 198.66998973 -168.92724609 196.39111328 C-170.00184082 196.30498779 -171.07643555 196.2188623 -172.18359375 196.13012695 C-181.73394167 195.42332316 -191.22915785 195.18819301 -200.80224609 195.20361328 C-201.56314545 195.20454987 -202.3240448 195.20548645 -203.10800171 195.20645142 C-243.98697444 195.31460953 -298.08507175 198.19905028 -329.93115234 227.24267578 Z M130.31591797 241.1340332 C96.09717171 260.43236486 53.79068167 265.51332161 15.07275391 266.39111328 C14.14382324 266.41302734 13.21489258 266.43494141 12.2578125 266.45751953 C-3.82410244 266.77644695 -19.72887793 265.89896413 -35.75366211 264.57470703 C-39.47247518 264.35957145 -43.20221536 264.39111328 -46.92724609 264.39111328 C-47.25724609 280.56111328 -47.58724609 296.73111328 -47.92724609 313.39111328 C4.45592869 322.91532688 78.28428357 322.70863076 124.07275391 292.39111328 C135.61668471 283.25482551 135.61668471 283.25482551 136.31326294 277.35357666 C136.30882172 276.63409851 136.30438049 275.91462036 136.29980469 275.17333984 C136.29965363 274.35279114 136.29950256 273.53224243 136.29934692 272.68682861 C136.29418564 272.24873871 136.29418564 272.24873871 136.26806641 270.03173828 C136.26523651 269.12736023 136.26240662 268.22298218 136.25949097 267.29119873 C136.24831172 264.40770133 136.22321124 261.52451653 136.19775391 258.64111328 C136.18772119 256.68408652 136.17859585 254.72705489 136.17041016 252.77001953 C136.14837976 247.97693066 136.11386535 243.18407494 136.07275391 238.39111328 C133.93635509 238.39111328 132.12798745 240.08823031 130.31591797 241.1340332 Z M-333.92724609 269.39111328 C-334.02637894 275.120229 -334.09883949 280.84884167 -334.14697266 286.57861328 C-334.16704515 288.52629294 -334.19430941 290.47391265 -334.22900391 292.42138672 C-334.27771462 295.22655049 -334.3002585 298.03091515 -334.31787109 300.83642578 C-334.33851624 301.70228302 -334.35916138 302.56814026 -334.38043213 303.4602356 C-334.38277004 309.80868052 -332.75664541 313.27435309 -328.42724609 318.04345703 C-288.5431122 352.21501966 -217.8023059 350.83428648 -168.54833984 347.08251953 C-138.4224032 344.52534009 -94.00432315 339.72591597 -72.09130859 315.99658203 C-69.7496331 312.76695576 -68.67547302 310.17835137 -68.70019531 306.17333984 C-68.70034637 305.35279114 -68.70049744 304.53224243 -68.70065308 303.68682861 C-68.70581436 303.24873871 -68.70581436 303.24873871 -68.73193359 301.03173828 C-68.73476349 300.12736023 -68.73759338 299.22298218 -68.74050903 298.29119873 C-68.75168828 295.40770133 -68.77678876 292.52451653 -68.80224609 289.64111328 C-68.81227881 287.68408652 -68.82140415 285.72705489 -68.82958984 283.77001953 C-68.85162024 278.97693066 -68.88613465 274.18407494 -68.92724609 269.39111328 C-72.41440704 270.7480963 -75.68388056 272.29326581 -78.98632812 274.0559082 C-110.99132767 290.9199262 -150.37553766 296.44480958 -186.14599609 296.59423828 C-186.71025299 296.59774544 -186.71025299 296.59774544 -189.56573486 296.61549377 C-193.18627967 296.63289815 -196.80666099 296.63934571 -200.42724609 296.64111328 C-201.04529114 296.64145065 -201.04529114 296.64145065 -204.17297363 296.64315796 C-221.96503572 296.62770293 -239.34171573 296.30372555 -256.92724609 293.39111328 C-258.0479248 293.21418945 -259.16860352 293.03726562 -260.32324219 292.85498047 C-284.15361709 289.02916955 -309.87977264 283.99168038 -330.28735352 270.34643555 C-331.92724609 269.39111328 -331.92724609 269.39111328 -333.92724609 269.39111328 Z M129.88525391 313.01611328 C94.77017641 334.4277459 46.60766866 337.79856025 6.60522461 337.65185547 C3.14174869 337.64113339 -0.32120757 337.65182557 -3.78466797 337.66455078 C-6.07047636 337.66322858 -8.35628444 337.66066495 -10.64208984 337.65673828 C-11.63554916 337.66078674 -12.62900848 337.66483521 -13.65257263 337.66900635 C-24.87146932 337.59886618 -35.62514804 336.37390442 -46.92724609 335.39111328 C-47.25724609 351.89111328 -47.58724609 368.39111328 -47.92724609 385.39111328 C5.43432565 392.06130975 83.13552716 395.68389454 129.03759766 360.39501953 C133.24050148 356.25665166 136.31208853 352.82695098 136.64038086 346.83276367 C136.63959905 345.13455983 136.61192989 343.43621073 136.56103516 341.73876953 C136.55396042 340.83863632 136.54688568 339.93850311 136.53959656 339.01109314 C136.51177872 336.15772682 136.44906608 333.30637868 136.38525391 330.45361328 C136.36015464 328.5102824 136.33734433 326.56692052 136.31689453 324.62353516 C136.26199365 319.87862602 136.17581064 315.13521089 136.07275391 310.39111328 C133.34355591 310.39111328 132.16924407 311.5240594 129.88525391 313.01611328 Z M-333.92724609 340.39111328 C-334.02649142 346.10191844 -334.0988923 351.81221609 -334.14697266 357.52368164 C-334.16702638 359.46452587 -334.19427654 361.40531014 -334.22900391 363.34594727 C-334.27779784 366.1437056 -334.30027736 368.94066173 -334.31787109 371.73876953 C-334.33851624 372.59946548 -334.35916138 373.46016144 -334.38043213 374.34693909 C-334.38259484 380.21910784 -333.30547589 383.56081358 -329.92724609 388.39111328 C-307.07850049 410.48660353 -267.9559304 415.23393647 -237.92724609 418.39111328 C-237.09620361 418.48682617 -236.26516113 418.58253906 -235.40893555 418.68115234 C-224.47742427 419.78728768 -213.46511864 419.63502777 -202.48974609 419.64111328 C-201.39799072 419.64178802 -200.30623535 419.64246277 -199.18139648 419.64315796 C-161.09981336 419.60581897 -103.31925448 418.18528021 -73.95849609 389.46533203 C-70.64233963 385.68772927 -68.79882518 383.28369896 -68.8137207 378.30859375 C-68.81375847 377.88823349 -68.81375847 377.88823349 -68.81394958 375.76095581 C-68.81911087 374.85257965 -68.82427216 373.94420349 -68.82958984 373.00830078 C-68.83100479 372.07889679 -68.83241974 371.1494928 -68.83387756 370.19192505 C-68.83948557 367.21662204 -68.85203942 364.24139364 -68.86474609 361.26611328 C-68.86976006 359.25179145 -68.87432315 357.23746844 -68.87841797 355.22314453 C-68.8894576 350.27910526 -68.90672761 345.33512193 -68.92724609 340.39111328 C-69.4193457 340.65883545 -69.4193457 340.65883545 -71.90966797 342.01367188 C-85.71657326 349.48242346 -85.71657326 349.48242346 -92.42724609 352.01611328 C-93.16749023 352.29696777 -93.90773438 352.57782227 -94.67041016 352.8671875 C-160.92837551 377.16359783 -253.59154343 377.40890466 -318.61083984 348.48095703 C-323.84550921 346.03161639 -328.88193912 343.20485342 -333.92724609 340.39111328 Z M-333.92724609 412.39111328 C-334.02637894 418.120229 -334.09883949 423.84884167 -334.14697266 429.57861328 C-334.16704515 431.52629294 -334.19430941 433.47391265 -334.22900391 435.42138672 C-334.27771462 438.22655049 -334.3002585 441.03091515 -334.31787109 443.83642578 C-334.33851624 444.70228302 -334.35916138 445.56814026 -334.38043213 446.4602356 C-334.38281238 452.9236454 -332.6175456 456.32951336 -328.31396484 461.22705078 C-297.06146966 489.53390849 -241.80711108 491.6066296 -201.92724609 491.64111328 C-201.10731171 491.64212036 -200.28737732 491.64312744 -199.44259644 491.64416504 C-160.15641361 491.61190687 -105.79562648 489.29477235 -74.98974609 461.76611328 C-74.30912109 460.98236328 -73.62849609 460.19861328 -72.92724609 459.39111328 C-72.23276367 458.71669189 -71.53828125 458.04227051 -70.82275391 457.34741211 C-68.11929301 453.13100201 -68.42322279 449.61975331 -68.53662109 444.71533203 C-68.54228088 443.79017288 -68.54794067 442.86501373 -68.55377197 441.91181946 C-68.5761013 438.96688342 -68.62629123 436.02317942 -68.67724609 433.07861328 C-68.69731555 431.07797985 -68.71556554 429.07732729 -68.73193359 427.07666016 C-68.77595484 422.18100564 -68.84495863 417.2862681 -68.92724609 412.39111328 C-69.46341553 412.66173584 -69.46341553 412.66173584 -72.17675781 414.03125 C-73.61176855 414.7528621 -75.04682985 415.47437367 -76.48193359 416.19580078 C-77.18535889 416.5511792 -77.88878418 416.90655762 -78.61352539 417.27270508 C-106.77341103 431.40945458 -137.84625115 436.40042971 -168.92724609 439.39111328 C-169.6889209 439.46458984 -170.4505957 439.53806641 -171.23535156 439.61376953 C-226.5550865 444.61262085 -284.13144699 437.32724778 -333.92724609 412.39111328 Z " fill="#000000" transform="translate(354.92724609375,-0.39111328125)"/>
</svg>
