<?xml version="1.0" encoding="UTF-8"?>
<!-- Generator: visioncortex VTracer 0.6.12 -->
<svg version="1.1" xmlns="http://www.w3.org/2000/svg" width="512" height="512">
<path d="M0 0 C27.39 0 54.78 0 83 0 C83 118.47 83 236.94 83 359 C55.61 359 28.22 359 0 359 C0 240.53 0 122.06 0 0 Z M22 22 C22 126.28 22 230.56 22 338 C35.2 338 48.4 338 62 338 C62 233.72 62 129.44 62 22 C48.8 22 35.6 22 22 22 Z " fill="#000000" transform="translate(419,153)"/>
<path d="M0 0 C5.15737323 2.95452758 8.62053279 7.02454733 11.125 12.375 C12.69574829 20.07166662 11.89593764 25.75449604 7.75 32.4375 C5.05884481 35.88577685 2.50104788 38.17561307 -1.9140625 38.8359375 C-2.89117187 38.95195313 -3.86828125 39.06796875 -4.875 39.1875 C-13.23520396 40.95961306 -16.60858213 47.7720353 -21.03125 54.4765625 C-21.5675 55.30704102 -22.10375 56.13751953 -22.65625 56.99316406 C-25.08348965 60.7158239 -27.6690592 64.32060769 -30.25 67.9375 C-31.24014141 69.34335711 -32.22972134 70.74960983 -33.21875 72.15625 C-36.90016391 77.37158637 -40.64883296 82.53778967 -44.39453125 87.70703125 C-48.04995588 92.75832208 -51.66357962 97.83702352 -55.25 102.9375 C-59.37391173 108.8023771 -63.5431541 114.63182755 -67.75 120.4375 C-73.54557226 128.43598111 -79.30089238 136.46463166 -84.921875 144.5871582 C-85.8080786 145.82181575 -86.73631714 147.02733929 -87.703125 148.19995117 C-91.20497358 152.55574421 -91.75430995 155.79886831 -91.25 161.375 C-90.98862197 167.1425214 -91.17382276 171.29254376 -94.82421875 175.9609375 C-99.93542305 181.25418469 -104.66540629 183.71018926 -112.0625 183.875 C-119.79022845 183.73259714 -123.73766542 180.94983458 -129.0625 175.625 C-131.25 172.4375 -131.25 172.4375 -131.95410156 168.75634766 C-134.50728117 161.83197101 -142.96256516 159.17711445 -149.171875 156.1484375 C-150.6762153 155.39442674 -152.17972378 154.63875431 -153.68243408 153.88150024 C-156.82843356 152.30344065 -159.98282248 150.74408805 -163.14453125 149.19775391 C-167.19077121 147.21729345 -171.2140829 145.19465055 -175.2322197 143.15788841 C-178.33148638 141.5922454 -181.44109301 140.04813787 -184.5542984 138.51042557 C-186.04211557 137.77268714 -187.52682861 137.02865312 -189.00826263 136.27817917 C-191.0824782 135.23177997 -193.16876521 134.21490856 -195.26074219 133.20458984 C-196.44416199 132.62027191 -197.62758179 132.03595398 -198.84686279 131.43392944 C-203.04285103 130.20535534 -205.19429554 130.99527603 -209.25 132.4375 C-211.21416757 132.23846435 -213.17373061 131.98769529 -215.125 131.6875 C-224.68317727 131.50094545 -230.55440027 138.52733765 -237.18945312 144.59082031 C-240.15937595 147.25249049 -243.27881166 149.69327942 -246.4375 152.125 C-247.57978326 153.01647089 -248.72171285 153.90839514 -249.86328125 154.80078125 C-250.99215257 155.67973237 -252.1210588 156.55863865 -253.25 157.4375 C-255.54368988 159.22659124 -257.83527417 161.01833833 -260.125 162.8125 C-260.41056763 163.03619263 -260.41056763 163.03619263 -261.85571289 164.16821289 C-267.09369446 168.28611376 -272.26306262 172.48732389 -277.39624023 176.73510742 C-280.48190269 179.27123205 -283.56284255 181.7039027 -286.89453125 183.91015625 C-294.88951993 189.28756856 -294.88951993 189.28756856 -296.03125 192.9296875 C-296.1875 195.5 -296.1875 195.5 -296.14453125 198.015625 C-296.33059736 202.28825427 -298.50635535 205.27985271 -301.25 208.4375 C-306.78845635 213.41839363 -311.58541856 214.71201764 -318.94140625 214.67578125 C-321.29200645 214.43316431 -322.88159517 213.89016555 -325 212.875 C-329.76843557 210.76588427 -332.76633224 212.20745032 -337.44750977 213.98461914 C-339.11387073 214.64293888 -340.77839616 215.30591704 -342.44140625 215.97265625 C-343.34132797 216.32960068 -344.24124969 216.6865451 -345.16844177 217.05430603 C-348.05138671 218.19891171 -350.93195296 219.34937491 -353.8125 220.5 C-355.69190503 221.24712791 -357.57146103 221.99387619 -359.45117188 222.74023438 C-366.98883837 225.7359369 -374.5244764 228.73598674 -382.04248047 231.78076172 C-382.96504135 232.15325546 -383.88760223 232.52574921 -384.83811951 232.90953064 C-386.5947356 233.61927965 -388.35021307 234.33185507 -390.10438538 235.04762268 C-390.88454514 235.36247116 -391.6647049 235.67731964 -392.46850586 236.00170898 C-393.15311386 236.27998032 -393.83772186 236.55825165 -394.54307556 236.84495544 C-396.25 237.4375 -396.25 237.4375 -398.25 237.4375 C-398.311875 237.72173828 -398.311875 237.72173828 -398.625 239.16015625 C-400.69000147 246.89100551 -404.89210482 250.7998266 -411.625 254.875 C-418.30947858 256.30738827 -424.41095151 256.21751158 -430.4296875 252.76953125 C-435.45906865 249.08923303 -438.98967906 244.61307263 -440.25 238.4375 C-440.89137472 231.91685706 -439.77527941 227.01403848 -436.25 221.4375 C-432.27665537 217.02162647 -427.99127361 213.78924367 -421.96484375 213.22265625 C-417.72663139 213.06284432 -414.30087242 213.15707836 -410.4375 215 C-406.24115293 216.89247025 -404.0639594 216.07188742 -399.83128357 214.59161377 C-399.41081001 214.42261566 -399.41081001 214.42261566 -397.28295898 213.56738281 C-396.32103134 213.18318176 -395.3591037 212.79898071 -394.36802673 212.40313721 C-393.33778885 211.98650818 -392.30755096 211.56987915 -391.24609375 211.140625 C-390.70896004 210.92530121 -390.70896004 210.92530121 -387.99073792 209.83563232 C-384.5546921 208.45694823 -381.12111947 207.07221424 -377.6875 205.6875 C-375.40314638 204.77045564 -373.11864271 203.85378495 -370.83398438 202.9375 C-366.5960521 201.23555918 -362.35828801 199.53321763 -358.12280273 197.82519531 C-357.16405243 197.43867798 -356.20530212 197.05216064 -355.21749878 196.65393066 C-353.11950346 195.79392497 -351.02892161 194.91572808 -348.94387817 194.02478027 C-347.87064301 193.56639771 -346.79740784 193.10801514 -345.69165039 192.63574219 C-344.72038712 192.21524597 -343.74912384 191.79474976 -342.74842834 191.36151123 C-340.25 190.4375 -340.25 190.4375 -337.25 190.4375 C-337.20875 189.6125 -337.1675 188.7875 -337.125 187.9375 C-335.74958018 182.43582073 -332.93438881 178.37112413 -328.30859375 175.0390625 C-323.62404212 172.60620143 -320.22218157 172.41514565 -315 172.875 C-308.22779607 173.10336502 -304.84248227 170.43458677 -300.11938477 166.0480957 C-299.029741 165.01390454 -297.94388606 163.97570706 -296.86181641 162.93359375 C-294.35715078 160.60875416 -291.67268472 158.61304539 -288.9375 156.5625 C-283.9791373 152.80730828 -279.12855725 148.93585146 -274.3125 145 C-268.16902551 139.98198599 -261.97595504 135.03658873 -255.72265625 130.15625 C-253.25980446 128.23388671 -250.81193009 126.29398735 -248.37109375 124.34375 C-247.73381348 123.83666504 -247.0965332 123.32958008 -246.43994141 122.80712891 C-245.21695404 121.83351009 -243.99644191 120.85677133 -242.77880859 119.87646484 C-240.27107935 117.88630857 -238.31461649 116.45903883 -235.25 115.4375 C-235.29640625 114.880625 -235.3428125 114.32375 -235.390625 113.75 C-235.67609494 107.71434988 -234.8044667 103.38873661 -231.25 98.4375 C-226.33146592 93.06641315 -221.69301898 90.71516282 -214.375 90.125 C-208.89138298 90.32345471 -204.38657168 91.49821489 -200.26171875 95.2421875 C-195.86505622 100.06668262 -193.25 103.7564949 -193.25 110.4375 C-192.48824463 110.6550293 -191.72648926 110.87255859 -190.94165039 111.09667969 C-185.81202125 112.9597789 -181.04772147 115.42652924 -176.18359375 117.890625 C-175.11311295 118.42846619 -174.04263214 118.96630737 -172.93971252 119.52044678 C-169.52038072 121.23899836 -166.10376586 122.96286279 -162.6875 124.6875 C-155.11321802 128.5056942 -147.53588527 132.31743399 -139.94232178 136.09716797 C-138.28219518 136.9236371 -136.62314436 137.75227624 -134.96588135 138.58447266 C-133.15189611 139.49165804 -131.32842731 140.3798199 -129.50390625 141.265625 C-128.59068604 141.71325195 -127.67746582 142.16087891 -126.73657227 142.62207031 C-122.31719085 144.07133236 -118.48524385 143.04808569 -114.25 141.4375 C-113.45980469 141.24671875 -112.66960937 141.0559375 -111.85546875 140.859375 C-107.74648315 138.61699006 -105.67034944 134.99489787 -103.0625 131.1875 C-102.49080078 130.37410156 -101.91910156 129.56070313 -101.33007812 128.72265625 C-100.16930567 127.07033881 -99.01317186 125.41475245 -97.86181641 123.75585938 C-95.68742674 120.62832162 -93.47020778 117.53257155 -91.25 114.4375 C-90.44519966 113.30867419 -89.64051449 112.17976626 -88.8359375 111.05078125 C-85.86783154 106.8952012 -82.86980529 102.7613546 -79.875 98.625 C-75.12461056 92.06123005 -70.43049019 85.46059566 -65.77001953 78.83276367 C-61.60301402 72.91572518 -57.36816514 67.04949286 -53.12084961 61.18994141 C-48.82311765 55.25254882 -44.58528583 49.27470488 -40.3828125 43.26953125 C-39.92777344 42.62113281 -39.47273438 41.97273438 -39.00390625 41.3046875 C-38.56046875 40.6662793 -38.11703125 40.02787109 -37.66015625 39.37011719 C-36.6799551 38.02675287 -35.64623424 36.72149573 -34.57421875 35.45019531 C-31.20610784 31.39225418 -29.59710511 28.78265932 -29.92797852 23.45068359 C-29.99299561 22.78633301 -30.0580127 22.12198242 -30.125 21.4375 C-30.39637895 15.28860559 -30.59942103 10.18964519 -26.25 5.4375 C-18.5187096 -0.88429522 -9.67242891 -4.36097951 0 0 Z " fill="#000000" transform="translate(470.25,21.5625)"/>
<path d="M0 0 C27.06 0 54.12 0 82 0 C82 88.11 82 176.22 82 267 C54.94 267 27.88 267 0 267 C0 178.89 0 90.78 0 0 Z M21 22 C21 95.92 21 169.84 21 246 C34.2 246 47.4 246 61 246 C61 172.08 61 98.16 61 22 C47.8 22 34.6 22 21 22 Z " fill="#000000" transform="translate(215,245)"/>
<path d="M0 0 C27.39 0 54.78 0 83 0 C83 71.28 83 142.56 83 216 C55.61 216 28.22 216 0 216 C0 144.72 0 73.44 0 0 Z M21 22 C21 79.09 21 136.18 21 195 C34.2 195 47.4 195 61 195 C61 137.91 61 80.82 61 22 C47.8 22 34.6 22 21 22 Z " fill="#000000" transform="translate(317,296)"/>
<path d="M0 0 C27.39 0 54.78 0 83 0 C83 61.05 83 122.1 83 185 C55.61 185 28.22 185 0 185 C0 123.95 0 62.9 0 0 Z M22 22 C22 68.86 22 115.72 22 164 C35.2 164 48.4 164 62 164 C62 117.14 62 70.28 62 22 C48.8 22 35.6 22 22 22 Z " fill="#000000" transform="translate(112,327)"/>
<path d="M0 0 C27.39 0 54.78 0 83 0 C83 47.52 83 95.04 83 144 C55.61 144 28.22 144 0 144 C0 96.48 0 48.96 0 0 Z M21 22 C21 55.33 21 88.66 21 123 C34.2 123 47.4 123 61 123 C61 89.67 61 56.34 61 22 C47.8 22 34.6 22 21 22 Z " fill="#000000" transform="translate(10,368)"/>
</svg>
