<?xml version="1.0" encoding="UTF-8"?>
<!-- Generator: visioncortex VTracer 0.6.12 -->
<svg version="1.1" xmlns="http://www.w3.org/2000/svg" width="512" height="512">
<path d="M0 0 C61.38 0 122.76 0 186 0 C186 13.53 186 27.06 186 41 C199.53 41 213.06 41 227 41 C227 68.06 227 95.12 227 123 C281.12 123 335.24 123 391 123 C391 238.17 391 353.34 391 472 C248.44 472 105.88 472 -41 472 C-41 329.77 -41 187.54 -41 41 C-27.47 41 -13.94 41 0 41 C0 27.47 0 13.94 0 0 Z M22 21 C22 34.53 22 48.06 22 62 C8.47 62 -5.06 62 -19 62 C-19 190.37 -19 318.74 -19 451 C11.03 451 41.06 451 72 451 C72 427.24 72 403.48 72 379 C85.86 379 99.72 379 114 379 C114 402.76 114 426.52 114 451 C144.03 451 174.06 451 205 451 C205 322.63 205 194.26 205 62 C191.47 62 177.94 62 164 62 C164 48.47 164 34.94 164 21 C117.14 21 70.28 21 22 21 Z M227 144 C227 245.31 227 346.62 227 451 C273.86 451 320.72 451 369 451 C369 349.69 369 248.38 369 144 C322.14 144 275.28 144 227 144 Z " fill="#000000" transform="translate(81,20)"/>
<path d="M0 0 C6.93 0 13.86 0 21 0 C21 17.16 21 34.32 21 52 C14.07 52 7.14 52 0 52 C0 34.84 0 17.68 0 0 Z " fill="#000000" transform="translate(225,399)"/>
<path d="M0 0 C6.93 0 13.86 0 21 0 C21 17.16 21 34.32 21 52 C14.07 52 7.14 52 0 52 C0 34.84 0 17.68 0 0 Z " fill="#000000" transform="translate(102,399)"/>
<path d="M0 0 C6.93 0 13.86 0 21 0 C21 13.86 21 27.72 21 42 C14.07 42 7.14 42 0 42 C0 28.14 0 14.28 0 0 Z " fill="#000000" transform="translate(225,337)"/>
<path d="M0 0 C6.93 0 13.86 0 21 0 C21 13.86 21 27.72 21 42 C14.07 42 7.14 42 0 42 C0 28.14 0 14.28 0 0 Z " fill="#000000" transform="translate(184,337)"/>
<path d="M0 0 C6.93 0 13.86 0 21 0 C21 13.86 21 27.72 21 42 C14.07 42 7.14 42 0 42 C0 28.14 0 14.28 0 0 Z " fill="#000000" transform="translate(143,337)"/>
<path d="M0 0 C6.93 0 13.86 0 21 0 C21 13.86 21 27.72 21 42 C14.07 42 7.14 42 0 42 C0 28.14 0 14.28 0 0 Z " fill="#000000" transform="translate(102,337)"/>
<path d="M0 0 C6.93 0 13.86 0 21 0 C21 13.86 21 27.72 21 42 C14.07 42 7.14 42 0 42 C0 28.14 0 14.28 0 0 Z " fill="#000000" transform="translate(225,276)"/>
<path d="M0 0 C6.93 0 13.86 0 21 0 C21 13.86 21 27.72 21 42 C14.07 42 7.14 42 0 42 C0 28.14 0 14.28 0 0 Z " fill="#000000" transform="translate(184,276)"/>
<path d="M0 0 C6.93 0 13.86 0 21 0 C21 13.86 21 27.72 21 42 C14.07 42 7.14 42 0 42 C0 28.14 0 14.28 0 0 Z " fill="#000000" transform="translate(143,276)"/>
<path d="M0 0 C6.93 0 13.86 0 21 0 C21 13.86 21 27.72 21 42 C14.07 42 7.14 42 0 42 C0 28.14 0 14.28 0 0 Z " fill="#000000" transform="translate(102,276)"/>
<path d="M0 0 C6.93 0 13.86 0 21 0 C21 13.86 21 27.72 21 42 C14.07 42 7.14 42 0 42 C0 28.14 0 14.28 0 0 Z " fill="#000000" transform="translate(225,153)"/>
<path d="M0 0 C6.93 0 13.86 0 21 0 C21 13.86 21 27.72 21 42 C14.07 42 7.14 42 0 42 C0 28.14 0 14.28 0 0 Z " fill="#000000" transform="translate(184,153)"/>
<path d="M0 0 C6.93 0 13.86 0 21 0 C21 13.86 21 27.72 21 42 C14.07 42 7.14 42 0 42 C0 28.14 0 14.28 0 0 Z " fill="#000000" transform="translate(143,153)"/>
<path d="M0 0 C6.93 0 13.86 0 21 0 C21 13.86 21 27.72 21 42 C14.07 42 7.14 42 0 42 C0 28.14 0 14.28 0 0 Z " fill="#000000" transform="translate(102,153)"/>
<path d="M0 0 C6.93 0 13.86 0 21 0 C21 13.53 21 27.06 21 41 C14.07 41 7.14 41 0 41 C0 27.47 0 13.94 0 0 Z " fill="#000000" transform="translate(225,215)"/>
<path d="M0 0 C6.93 0 13.86 0 21 0 C21 13.53 21 27.06 21 41 C14.07 41 7.14 41 0 41 C0 27.47 0 13.94 0 0 Z " fill="#000000" transform="translate(184,215)"/>
<path d="M0 0 C6.93 0 13.86 0 21 0 C21 13.53 21 27.06 21 41 C14.07 41 7.14 41 0 41 C0 27.47 0 13.94 0 0 Z " fill="#000000" transform="translate(143,215)"/>
<path d="M0 0 C6.93 0 13.86 0 21 0 C21 13.53 21 27.06 21 41 C14.07 41 7.14 41 0 41 C0 27.47 0 13.94 0 0 Z " fill="#000000" transform="translate(102,215)"/>
<path d="M0 0 C7.26 0 14.52 0 22 0 C22 6.93 22 13.86 22 21 C14.74 21 7.48 21 0 21 C0 14.07 0 7.14 0 0 Z " fill="#000000" transform="translate(409,430)"/>
<path d="M0 0 C7.26 0 14.52 0 22 0 C22 6.93 22 13.86 22 21 C14.74 21 7.48 21 0 21 C0 14.07 0 7.14 0 0 Z " fill="#000000" transform="translate(368,430)"/>
<path d="M0 0 C7.26 0 14.52 0 22 0 C22 6.93 22 13.86 22 21 C14.74 21 7.48 21 0 21 C0 14.07 0 7.14 0 0 Z " fill="#000000" transform="translate(327,430)"/>
<path d="M0 0 C7.26 0 14.52 0 22 0 C22 6.93 22 13.86 22 21 C14.74 21 7.48 21 0 21 C0 14.07 0 7.14 0 0 Z " fill="#000000" transform="translate(409,389)"/>
<path d="M0 0 C7.26 0 14.52 0 22 0 C22 6.93 22 13.86 22 21 C14.74 21 7.48 21 0 21 C0 14.07 0 7.14 0 0 Z " fill="#000000" transform="translate(368,389)"/>
<path d="M0 0 C7.26 0 14.52 0 22 0 C22 6.93 22 13.86 22 21 C14.74 21 7.48 21 0 21 C0 14.07 0 7.14 0 0 Z " fill="#000000" transform="translate(327,389)"/>
<path d="M0 0 C7.26 0 14.52 0 22 0 C22 6.93 22 13.86 22 21 C14.74 21 7.48 21 0 21 C0 14.07 0 7.14 0 0 Z " fill="#000000" transform="translate(409,348)"/>
<path d="M0 0 C7.26 0 14.52 0 22 0 C22 6.93 22 13.86 22 21 C14.74 21 7.48 21 0 21 C0 14.07 0 7.14 0 0 Z " fill="#000000" transform="translate(368,348)"/>
<path d="M0 0 C7.26 0 14.52 0 22 0 C22 6.93 22 13.86 22 21 C14.74 21 7.48 21 0 21 C0 14.07 0 7.14 0 0 Z " fill="#000000" transform="translate(327,348)"/>
<path d="M0 0 C7.26 0 14.52 0 22 0 C22 6.93 22 13.86 22 21 C14.74 21 7.48 21 0 21 C0 14.07 0 7.14 0 0 Z " fill="#000000" transform="translate(409,307)"/>
<path d="M0 0 C7.26 0 14.52 0 22 0 C22 6.93 22 13.86 22 21 C14.74 21 7.48 21 0 21 C0 14.07 0 7.14 0 0 Z " fill="#000000" transform="translate(368,307)"/>
<path d="M0 0 C7.26 0 14.52 0 22 0 C22 6.93 22 13.86 22 21 C14.74 21 7.48 21 0 21 C0 14.07 0 7.14 0 0 Z " fill="#000000" transform="translate(327,307)"/>
<path d="M0 0 C7.26 0 14.52 0 22 0 C22 6.93 22 13.86 22 21 C14.74 21 7.48 21 0 21 C0 14.07 0 7.14 0 0 Z " fill="#000000" transform="translate(409,266)"/>
<path d="M0 0 C7.26 0 14.52 0 22 0 C22 6.93 22 13.86 22 21 C14.74 21 7.48 21 0 21 C0 14.07 0 7.14 0 0 Z " fill="#000000" transform="translate(368,266)"/>
<path d="M0 0 C7.26 0 14.52 0 22 0 C22 6.93 22 13.86 22 21 C14.74 21 7.48 21 0 21 C0 14.07 0 7.14 0 0 Z " fill="#000000" transform="translate(327,266)"/>
<path d="M0 0 C7.26 0 14.52 0 22 0 C22 6.93 22 13.86 22 21 C14.74 21 7.48 21 0 21 C0 14.07 0 7.14 0 0 Z " fill="#000000" transform="translate(409,225)"/>
<path d="M0 0 C7.26 0 14.52 0 22 0 C22 6.93 22 13.86 22 21 C14.74 21 7.48 21 0 21 C0 14.07 0 7.14 0 0 Z " fill="#000000" transform="translate(368,225)"/>
<path d="M0 0 C7.26 0 14.52 0 22 0 C22 6.93 22 13.86 22 21 C14.74 21 7.48 21 0 21 C0 14.07 0 7.14 0 0 Z " fill="#000000" transform="translate(327,225)"/>
<path d="M0 0 C7.26 0 14.52 0 22 0 C22 6.93 22 13.86 22 21 C14.74 21 7.48 21 0 21 C0 14.07 0 7.14 0 0 Z " fill="#000000" transform="translate(409,184)"/>
<path d="M0 0 C7.26 0 14.52 0 22 0 C22 6.93 22 13.86 22 21 C14.74 21 7.48 21 0 21 C0 14.07 0 7.14 0 0 Z " fill="#000000" transform="translate(368,184)"/>
<path d="M0 0 C7.26 0 14.52 0 22 0 C22 6.93 22 13.86 22 21 C14.74 21 7.48 21 0 21 C0 14.07 0 7.14 0 0 Z " fill="#000000" transform="translate(327,184)"/>
<path d="M0 0 C6.93 0 13.86 0 21 0 C21 6.93 21 13.86 21 21 C14.07 21 7.14 21 0 21 C0 14.07 0 7.14 0 0 Z " fill="#000000" transform="translate(225,102)"/>
<path d="M0 0 C6.93 0 13.86 0 21 0 C21 6.93 21 13.86 21 21 C14.07 21 7.14 21 0 21 C0 14.07 0 7.14 0 0 Z " fill="#000000" transform="translate(184,102)"/>
<path d="M0 0 C6.93 0 13.86 0 21 0 C21 6.93 21 13.86 21 21 C14.07 21 7.14 21 0 21 C0 14.07 0 7.14 0 0 Z " fill="#000000" transform="translate(143,102)"/>
<path d="M0 0 C6.93 0 13.86 0 21 0 C21 6.93 21 13.86 21 21 C14.07 21 7.14 21 0 21 C0 14.07 0 7.14 0 0 Z " fill="#000000" transform="translate(102,102)"/>
</svg>
