<?xml version="1.0" encoding="UTF-8"?>
<!-- Generator: visioncortex VTracer 0.6.12 -->
<svg version="1.1" xmlns="http://www.w3.org/2000/svg" width="512" height="512">
<path d="M0 0 C0.77472656 0.00451172 1.54945313 0.00902344 2.34765625 0.01367188 C4.23180524 0.02530242 6.11591365 0.04323094 8 0.0625 C9.15341698 2.28802258 10.29781159 4.51745969 11.4375 6.75 C11.76298828 7.37583984 12.08847656 8.00167969 12.42382812 8.64648438 C14.17752313 12.09963639 15.47760497 15.21443519 16 19.0625 C16.39960938 19.07539062 16.39960938 19.07539062 18.421875 19.140625 C33.43569067 19.91598637 46.07990612 24.62795973 56.6875 35.5625 C70.21882111 51.54303873 75.40417257 72.0962694 75.375 92.6875 C75.37411377 93.81889404 75.37322754 94.95028809 75.37231445 96.1159668 C75.21498693 107.35170746 74.06842423 118.37736448 68 128.0625 C68 128.7225 68 129.3825 68 130.0625 C68.61875 130.64 69.2375 131.2175 69.875 131.8125 C74.61328068 136.82950307 74.37249175 143.08557364 74.24609375 149.62109375 C73.58267218 158.89846528 71.09082439 167.84071717 65 175.0625 C62.97265625 176.1953125 62.97265625 176.1953125 60.875 177.125 C57.56305158 178.90305927 57.04937002 179.9118796 55.84765625 183.578125 C55.35475851 185.7562174 54.92472388 187.94106589 54.50073242 190.13354492 C52.15163247 202.03826284 46.74189971 214.64228636 39 224.0625 C37.68594232 224.76639959 36.35409754 225.43908835 35 226.0625 C35.12012552 229.97295274 35.24444601 233.88324965 35.37231445 237.79345703 C35.43586885 239.76197721 35.49629596 241.73059757 35.55664062 243.69921875 C36.45228612 270.84416695 36.45228612 270.84416695 46.125 280.5 C59.96040406 292.09937916 77.72277012 297.91215746 94.27441406 304.51831055 C115.24277866 312.89764219 134.46914633 321.28173742 151 337.0625 C151.31259766 337.33771484 151.31259766 337.33771484 152.89453125 338.73046875 C162.85445336 347.83604088 171.16277468 363.11416893 172.203125 376.71875 C172.21859375 377.6571875 172.2340625 378.595625 172.25 379.5625 C172.27578125 380.5009375 172.3015625 381.439375 172.328125 382.40625 C171.94333891 385.52118504 171.17292638 386.82865045 169 389.0625 C165.78891773 390.13286076 163.49260726 390.19000008 160.11627388 390.19392776 C158.88026219 390.19776891 157.64425051 390.20161005 156.37078393 390.2055676 C154.99174692 390.20478731 153.61270998 390.20390852 152.2336731 390.20294189 C150.77446726 390.20552481 149.31526214 390.20853776 147.856058 390.2119453 C143.83632844 390.22002705 139.81661673 390.22180552 135.79688001 390.22254276 C131.46550341 390.22439125 127.13413612 390.23193749 122.80276489 390.23867798 C113.32770366 390.25226962 103.85264666 390.25828716 94.3775773 390.26268864 C88.46426078 390.26544935 82.55094588 390.26968636 76.63763046 390.27419281 C60.27344172 390.28638599 43.9092543 390.29668558 27.54506111 390.3000679 C26.4973899 390.30028747 25.44971869 390.30050703 24.37029987 390.30073325 C23.32008988 390.30095153 22.26987989 390.30116981 21.18784535 390.3013947 C19.05963778 390.30183817 16.93143022 390.30228473 14.80322266 390.30273438 C13.74755308 390.3029558 12.69188351 390.30317723 11.60422395 390.30340537 C-5.50912268 390.30735509 -22.62242678 390.32481419 -39.73575698 390.3480939 C-57.29514049 390.37178812 -74.85450264 390.38426885 -92.4139024 390.38543582 C-102.2771881 390.38635361 -112.14041836 390.39213203 -122.00368881 390.41025543 C-130.4008592 390.42563033 -138.79795702 390.43079232 -147.1951388 390.42251733 C-151.48129775 390.41860169 -155.76731044 390.41958481 -160.05345154 390.43357468 C-163.97534228 390.44625889 -167.89697604 390.44516468 -171.81886615 390.43298396 C-173.23945066 390.43101742 -174.66005304 390.43414931 -176.08061241 390.44282833 C-178.00857592 390.45386385 -179.93662368 390.44467264 -181.8645916 390.4344368 C-182.93643475 390.43503389 -184.00827791 390.43563097 -185.11260116 390.43624616 C-189.22096836 389.90445733 -191.82051578 388.16064048 -194.8125 385.375 C-197.36864165 380.39725046 -196.11778155 374.44235796 -194.57910156 369.27978516 C-194.36737305 368.63058105 -194.15564453 367.98137695 -193.9375 367.3125 C-193.71416992 366.62075684 -193.49083984 365.92901367 -193.26074219 365.21630859 C-189.46235322 354.02527281 -183.1714596 345.48425656 -175 337.0625 C-174.72994141 336.75570312 -174.72994141 336.75570312 -173.36328125 335.203125 C-160.99297559 321.61760039 -141.1374441 313.63151715 -124.36431885 306.93264771 C-120.63255444 305.44093596 -116.91306153 303.91905692 -113.19140625 302.40234375 C-112.47051819 302.10939926 -111.74963013 301.81645477 -111.00689697 301.51463318 C-69.10117458 284.47215322 -69.10117458 284.47215322 -61.95117188 269.63623047 C-58.62599947 260.63880554 -59.72792213 249.28692692 -59.4375 239.8125 C-59.39415828 238.47004308 -59.35053997 237.12759505 -59.30664062 235.78515625 C-59.20172235 232.5443473 -59.09955985 229.30347723 -59 226.0625 C-59.62994873 225.7624707 -60.25989746 225.46244141 -60.90893555 225.15332031 C-70.19754396 220.30784426 -75.11066379 205.23516644 -78.16967773 195.71484375 C-79.54214512 191.25289128 -80.82926192 186.78850803 -81.8984375 182.2421875 C-83 179.0625 -83 179.0625 -84.76953125 177.56640625 C-85.44371094 177.25574219 -86.11789063 176.94507813 -86.8125 176.625 C-93.46289735 172.8901754 -95.78929874 167.47800448 -97.8125 160.3125 C-99.85381088 151.07411017 -100.15461412 142.67947743 -96 134.0625 C-95.44828125 133.4128125 -94.8965625 132.763125 -94.328125 132.09375 C-93 130.0625 -93 130.0625 -93.22265625 128.1875 C-93.49980469 127.48625 -93.77695313 126.785 -94.0625 126.0625 C-102.78458226 100.19963 -102.73239702 73.78015157 -90.5078125 49.04296875 C-78.37120175 26.88929889 -58.5930826 12.52485119 -34.7109375 5.08984375 C-23.20170673 1.90360407 -11.93660943 -0.13446787 0 0 Z " fill="#000000" transform="translate(268,50.9375)"/>
<path d="M0 0 C1.00460531 2.12282669 2.00355602 4.24833021 3 6.375 C3.556875 7.55835937 4.11375 8.74171875 4.6875 9.9609375 C6 13 6 13 6 15 C6.32742188 15.00708984 6.32742188 15.00708984 7.984375 15.04296875 C19.51221453 15.64541234 28.49875373 19.49959495 36.8125 27.546875 C47.07347193 39.0538221 51.01689882 53.94918909 52 69 C52.05414063 69.75667969 52.10828125 70.51335937 52.1640625 71.29296875 C52.51714692 80.87439588 50.63907681 91.15994173 47 100 C47.29391039 102.35128311 48.02726862 104.05858088 49.02734375 106.20703125 C51.9642946 114.64044434 50.50301347 124.9252571 47 133 C45.15270205 136.51866277 43.36674773 138.75550151 40 141 C39.01 141 38.02 141 37 141 C36.9175 142.2375 36.835 143.475 36.75 144.75 C35.41330275 156.43236776 30.25464076 169.45055065 22 178 C21.34 178 20.68 178 20 178 C21.49806346 203.42147038 21.49806346 203.42147038 28.68359375 210.70703125 C37.82366012 218.21290696 49.61612969 222.13423922 60.61199951 226.06652832 C82.75808016 234.02622242 105.75817074 242.70486379 116.6015625 265.34375 C117.87595335 268.53345341 118.98349942 271.71986367 120 275 C120.24492187 275.721875 120.48984375 276.44375 120.7421875 277.1875 C122.23635628 282.42732477 122.26450168 287.83666012 122.375 293.25 C122.40118408 294.03141357 122.42736816 294.81282715 122.4543457 295.61791992 C122.46590621 299.60372615 122.29504369 301.53618646 120.1015625 304.984375 C116.9825367 307.97585699 115.30478207 308.1239034 111.09130859 308.11352539 C110.07040131 308.11344986 109.04949402 308.11337433 107.99765015 308.11329651 C107.44503006 308.11071587 107.44503006 308.11071587 104.6484375 308.09765625 C104.0838533 308.09694878 104.0838533 308.09694878 101.22671509 308.09336853 C97.60945012 308.08775744 93.99224636 308.07520303 90.375 308.0625 C87.92708423 308.05748643 85.47916748 308.05292328 83.03125 308.04882812 C77.02081234 308.0377844 71.01041054 308.02103544 65 308 C64.72096329 307.4591275 64.44192657 306.918255 64.1544342 306.36099243 C62.86925776 303.87628147 61.57726466 301.39517526 60.28515625 298.9140625 C59.84643188 298.06336182 59.40770752 297.21266113 58.95568848 296.33618164 C40.74582123 261.46264724 5.58854934 247.0449324 -29 233 C-53.46710361 223.00772462 -53.46710361 223.00772462 -61 218 C-61.54301758 217.65880127 -62.08603516 217.31760254 -62.64550781 216.96606445 C-65.73086274 214.5822189 -66.84988341 212.74216248 -67.63110352 208.87988281 C-67.96186758 205.05463622 -68.07967941 201.27653189 -68.125 197.4375 C-68.17914063 196.12330078 -68.23328125 194.80910156 -68.2890625 193.45507812 C-68.54544153 182.97024423 -68.54544153 182.97024423 -64 178 C-62.42106907 175.55461878 -61.05727507 173.00519203 -59.6875 170.4375 C-59.29506104 169.70660156 -58.90262207 168.97570312 -58.49829102 168.22265625 C-55.52492348 162.4801476 -53.41216741 156.64704104 -51.4375 150.5 C-49.250662 143.7382004 -47.10002695 139.07077085 -41.91796875 134.0390625 C-34.65274594 126.31513927 -32.28455624 115.04033179 -30 105 C-29.79375 104.17113281 -29.5875 103.34226562 -29.375 102.48828125 C-28.38498867 95.91914356 -29.22769312 88.57435628 -31.125 82.25 C-32.9224594 75.57372221 -31.01846089 68.85506038 -29.4765625 62.26171875 C-25.30893101 42.48254962 -28.95630841 21.28049481 -34 2 C-22.60029192 0.52226006 -11.49520875 -0.28189885 0 0 Z " fill="#000000" transform="translate(390,102)"/>
<path d="M0 0 C-0.14622803 0.53890869 -0.29245605 1.07781738 -0.44311523 1.63305664 C-1.11217888 4.10840636 -1.77487626 6.58541897 -2.4375 9.0625 C-2.66759766 9.91005859 -2.89769531 10.75761719 -3.13476562 11.63085938 C-8.03831686 30.03694299 -7.31845445 49.52812837 -2.875 67.953125 C-1.69264341 73.00368527 -1.4448111 77.26245771 -3.4375 82.125 C-8.00970445 95.29469896 -5.91912812 111.01008674 -0.296875 123.66015625 C2.88440491 129.39987512 6.67458747 134.92122213 11.578125 139.3046875 C14.67784965 142.75438106 15.56931331 145.91909326 16.8125 150.3125 C18.77368371 156.66813979 21.01996558 162.674197 24 168.625 C24.30784424 169.25059814 24.61568848 169.87619629 24.93286133 170.52075195 C26.29511437 173.16794956 27.56901126 175.52110874 29.57055664 177.74511719 C35.16876799 183.98281684 34.81437022 189.90364197 34.4375 198 C34.43814453 199.23234375 34.43878906 200.4646875 34.43945312 201.734375 C34.2125225 208.0477882 33.71623535 212.16043645 28.9765625 216.58203125 C24.56685293 219.86673924 19.94600683 222.44260221 14.9375 224.6875 C14.06262939 225.09339355 13.18775879 225.49928711 12.28637695 225.91748047 C3.17573067 230.06863661 -6.13408903 233.7484927 -15.42526245 237.47161865 C-25.54463628 241.52903361 -35.42753125 245.76223408 -45 251 C-46.18738601 251.62521653 -47.37488801 252.25021282 -48.5625 252.875 C-69.04246967 263.87624411 -85.03323751 279.46247394 -95.27734375 300.43359375 C-95.6388855 301.1654187 -96.00042725 301.89724365 -96.3729248 302.65124512 C-97.25222297 304.43238756 -98.12663176 306.21594238 -99 308 C-106.17150787 308.10146163 -113.34283049 308.17149156 -120.51489258 308.21972656 C-122.95441607 308.23983564 -125.3938914 308.26712683 -127.83325195 308.30175781 C-131.34077848 308.35030489 -134.84766743 308.37297632 -138.35546875 308.390625 C-139.44522507 308.41127014 -140.53498138 308.43191528 -141.65776062 308.45318604 C-149.24104639 308.45543071 -149.24104639 308.45543071 -153.1652832 306.10058594 C-157.61224258 301.00921687 -156.4533383 293.64985598 -156.18359375 287.21240234 C-155.02515323 273.2525779 -146.73571138 260.43926989 -136.859375 250.94140625 C-120.95698269 237.50009846 -101.18769993 229.91026459 -82.1953125 221.99609375 C-61.67504738 213.37612656 -61.67504738 213.37612656 -57 205 C-54.22324069 196.86344948 -53.96430466 187.48720255 -55 179 C-56.16931116 176.81118267 -57.37895044 175.60321655 -59.2109375 173.94921875 C-66.39440236 166.12269262 -71.31589758 151.44320228 -71 141 C-71.721875 140.95875 -72.44375 140.9175 -73.1875 140.875 C-77.0924869 139.66011519 -78.93280656 137.37879203 -81 134 C-84.75136994 126.1562265 -86.45346371 116.39537594 -83.625 108.0625 C-83.34914063 107.39347656 -83.07328125 106.72445312 -82.7890625 106.03515625 C-80.83180792 100.98698974 -81.04455706 98.25446847 -82.9375 93.1875 C-88.27677626 75.53254122 -85.99575989 56.60289642 -77.8125 40.3125 C-66.64199678 20.77600287 -49.23307188 8.92934923 -27.85546875 2.96484375 C-18.52078911 0.62880943 -9.60338792 -0.2821322 0 0 Z " fill="#000000" transform="translate(156,102)"/>
</svg>
