<?xml version="1.0" encoding="UTF-8"?>
<!-- Generator: visioncortex VTracer 0.6.12 -->
<svg version="1.1" xmlns="http://www.w3.org/2000/svg" width="512" height="512">
<path d="M0 0 C0.92361328 -0.02900391 1.84722656 -0.05800781 2.79882812 -0.08789062 C6.89938198 -0.12626874 9.59177145 -0.0737415 13.25 1.88671875 C15.75185918 4.82924631 17.23428977 7.87816247 18.625 11.4375 C18.75680664 11.75396484 18.75680664 11.75396484 19.42382812 13.35546875 C21.3125 17.97658279 21.3125 17.97658279 21.3125 20.3125 C21.63412109 20.31958984 21.63412109 20.31958984 23.26171875 20.35546875 C37.79456407 21.12253762 50.54127242 27.70142511 60.578125 38.14453125 C64.75257069 43.36258836 68.32682551 49.34115102 71.3125 55.3125 C75.49632734 54.82000375 79.64932183 54.27547641 83.80078125 53.55859375 C92.41456238 52.09181226 100.94187831 50.97842008 109.6875 50.8125 C110.46520752 50.78212646 111.24291504 50.75175293 112.04418945 50.72045898 C115.97921407 50.71744232 118.57586289 51.09828621 121.75 53.5234375 C124.33329869 56.3351376 125.10344054 57.80100076 125.9375 61.4375 C126.87890625 64.0859375 126.87890625 64.0859375 128.3125 66.3125 C131.22004553 67.57977641 133.94894847 68.07533702 137.0703125 68.6171875 C144.57675641 70.22700318 151.3488865 74.49798133 156.3125 80.3125 C156.77914063 80.78945312 157.24578125 81.26640625 157.7265625 81.7578125 C171.3927216 96.26496601 173.80508658 117.07719607 173.6171875 136.1015625 C173.42514983 141.59938321 172.29622224 145.97608638 170.08984375 151.03515625 C168.86931026 154.61089004 170.09552362 156.71601812 171.35546875 160.1796875 C174.3453578 169.96699777 172.470976 181.58310097 168.17578125 190.734375 C166.31248039 193.95547554 165.15523385 195.88596293 161.765625 197.6015625 C158.32799031 199.99914848 158.26049653 202.07365109 157.4375 206.125 C155.35780719 215.31350191 151.55072303 223.45516546 146.3125 231.3125 C145.6525 231.3125 144.9925 231.3125 144.3125 231.3125 C144.53343996 235.18972681 144.79438734 239.06327207 145.0625 242.9375 C145.0934375 243.48470703 145.0934375 243.48470703 145.25 246.25390625 C146.01811989 256.81555479 146.01811989 256.81555479 150.3125 261.3125 C155.95904329 265.7886533 162.16420705 268.85301672 168.75 271.6875 C169.61326904 272.0683374 170.47653809 272.4491748 171.3659668 272.84155273 C174.01111425 274.00721503 176.66086954 275.16167051 179.3125 276.3125 C211.51655318 290.29430791 211.51655318 290.29430791 223.3125 301.3125 C224.10269531 302.04855469 224.89289063 302.78460938 225.70703125 303.54296875 C238.14504138 316.19287002 243.51095845 332.74216534 243.80859375 350.18359375 C243.20704337 353.97762407 242.01164381 355.62311801 239.3125 358.3125 C235.95797871 359.43067376 233.44831736 359.4327587 229.91333008 359.42602539 C229.59124321 359.4260984 229.59124321 359.4260984 227.96128845 359.4264679 C225.83483498 359.42577195 223.7084694 359.41799448 221.58203125 359.41015625 C220.10658313 359.40829094 218.63113439 359.40686757 217.15568542 359.40586853 C213.27424405 359.40205226 209.39284015 359.39222956 205.51141357 359.38116455 C201.54993192 359.37093131 197.58844419 359.36636681 193.62695312 359.36132812 C185.85545167 359.3506065 178.08398109 359.33354075 170.3125 359.3125 C170.5290625 360.38628906 170.745625 361.46007812 170.96875 362.56640625 C171.25034421 364.00253672 171.53157484 365.43873851 171.8125 366.875 C171.95558594 367.57947266 172.09867187 368.28394531 172.24609375 369.00976562 C174.41639439 380.22298561 174.41639439 380.22298561 171.5625 385.625 C168.72870717 389.0098081 166.95172703 390.1629191 162.5399276 390.56549966 C161.46325542 390.56690851 160.38658324 390.56831736 159.27728462 390.56976891 C158.0329318 390.5762178 156.78857897 390.58266669 155.50651848 390.589311 C154.1232519 390.58636864 152.73998572 390.5832332 151.35671997 390.57992554 C149.88911259 390.58366106 148.42150721 390.58826219 146.95390499 390.59365618 C142.91554304 390.60591367 138.87726377 390.60562249 134.83888745 390.60326743 C130.48568771 390.60285996 126.13251473 390.61389171 121.77932739 390.62338257 C113.24869545 390.6400084 104.71809113 390.64549282 96.18744434 390.64660732 C89.25490146 390.64755701 82.32236772 390.65166333 75.38982773 390.65800858 C55.74368955 390.67562499 36.09757325 390.68484677 16.45142712 390.68334763 C15.92166088 390.68330767 15.92166088 390.68330767 13.24072266 390.68310547 C12.17989967 390.68302371 11.11907668 390.68294195 10.02610753 390.68285771 C-7.17058277 390.6820446 -24.36718553 390.70118738 -41.56385051 390.7293822 C-59.21254604 390.75809032 -76.86119885 390.77192365 -94.50991833 390.77019465 C-104.42186054 390.76953005 -114.33371096 390.77505297 -124.24563217 390.79655075 C-132.68412562 390.81473527 -141.12248567 390.81913237 -149.5609902 390.8055319 C-153.86757138 390.79898852 -158.17389645 390.79893422 -162.48045349 390.8162384 C-166.42216596 390.83191393 -170.36341807 390.82916252 -174.30511893 390.81167014 C-175.73174743 390.80858801 -177.15840981 390.81227816 -178.58499835 390.82339029 C-191.82498829 390.91969765 -191.82498829 390.91969765 -196.6875 386.3125 C-199.28930379 382.8921512 -198.78270307 379.72310539 -198.4375 375.5625 C-198.34984375 374.39203125 -198.2621875 373.2215625 -198.171875 372.015625 C-197.64392428 367.97935663 -196.70133705 364.25247703 -195.6875 360.3125 C-196.09537498 360.31583092 -196.09537498 360.31583092 -198.1594696 360.33268738 C-205.85443767 360.39284695 -213.54929138 360.43849892 -221.2444334 360.46793652 C-225.20041134 360.48357957 -229.15619463 360.5047927 -233.11206055 360.53881836 C-236.93109355 360.57146078 -240.74993956 360.58936325 -244.56910133 360.59713173 C-246.02473709 360.60266651 -247.48036285 360.61347472 -248.93591881 360.62969017 C-250.97792903 360.65153021 -253.01917071 360.65446431 -255.0612793 360.65307617 C-256.22265915 360.65973801 -257.384039 360.66639984 -258.58061218 360.67326355 C-262.06738199 360.26838911 -263.8998422 359.41341634 -266.6875 357.3125 C-270.48453622 351.61694567 -269.15096785 343.86881274 -268.29296875 337.28515625 C-264.25529101 318.29504608 -252.69720884 303.29361751 -236.7109375 292.73828125 C-223.65953022 284.60816478 -208.94375357 279.00090951 -194.74511719 273.24243164 C-175.57280976 265.34962251 -175.57280976 265.34962251 -170.6875 257.3125 C-170.01458354 254.10320612 -169.75887957 251.55134813 -169.6875 248.3125 C-169.625625 247.00539063 -169.56375 245.69828125 -169.5 244.3515625 C-169.45509058 242.92197319 -169.41344535 241.49227775 -169.375 240.0625 C-169.34494873 239.37687988 -169.31489746 238.69125977 -169.28393555 237.98486328 C-169.22877807 233.01826553 -170.37848142 230.90224759 -173.6875 227.3125 C-177.9584889 220.17962083 -180.74247679 212.79095702 -182.68725586 204.74487305 C-184.09554404 199.54190482 -186.19176075 198.03207284 -190.6875 195.3125 C-197.35873118 185.93715327 -198.66879418 174.51079833 -197.6875 163.3125 C-196.94779398 160.6784249 -196.00609779 158.73871993 -194.6875 156.3125 C-193.49905833 152.74717498 -193.99615986 151.53653174 -195.0625 148 C-200.58749458 129.48868638 -199.15040113 108.71818505 -190.5 91.4375 C-186.95181675 85.31707303 -182.71163723 80.26839768 -177.6875 75.3125 C-177.00042969 74.61511719 -176.31335938 73.91773437 -175.60546875 73.19921875 C-158.19321404 56.56227779 -134.31134254 51.20623071 -110.921875 50.81640625 C-106.92806703 51.42898308 -104.792878 52.75908948 -101.6875 55.3125 C-100.3125 57.5625 -100.3125 57.5625 -99.6875 59.3125 C-99.45095703 58.83490234 -99.45095703 58.83490234 -98.25390625 56.41796875 C-93.9162061 47.85923302 -89.19751476 40.44251617 -82.6875 33.3125 C-82.02878906 32.58417969 -81.37007812 31.85585937 -80.69140625 31.10546875 C-75.87336615 26.03537827 -70.54030614 22.11232184 -64.6875 18.3125 C-63.95273438 17.80976562 -63.21796875 17.30703125 -62.4609375 16.7890625 C-44.23492381 4.95154845 -21.45804589 0.22747045 0 0 Z M-68.3125 49.8125 C-76.92164508 59.7496515 -81.33806524 71.51681811 -83.6875 84.3125 C-84.0175 85.3025 -84.3475 86.2925 -84.6875 87.3125 C-85.63959122 100.81346571 -83.97748262 113.94622322 -79.0703125 126.60546875 C-77.38003996 131.1367361 -76.84822284 134.86460829 -78.4375 139.5 C-79.6875 141.3125 -79.6875 141.3125 -81.8125 142.875 C-84.946724 146.9494912 -84.23535149 151.36879251 -83.6875 156.3125 C-81.68918926 166.11502432 -81.68918926 166.11502432 -77.6875 169.3125 C-77.11 169.498125 -77.11 169.498125 -74.1875 170.4375 C-70.6875 172.3125 -70.6875 172.3125 -69.0625 175.9375 C-68.57983836 177.72276654 -68.12604335 179.5158869 -67.6875 181.3125 C-64.10896166 195.00523054 -60.38743523 208.00888819 -49.2890625 217.62890625 C-44.28097863 222.89350174 -46.57320476 233.47910346 -46.6875 240.3125 C-46.70006836 241.32892578 -46.71263672 242.34535156 -46.72558594 243.39257812 C-46.77400645 246.67924422 -46.85235403 249.9640953 -46.9375 253.25 C-46.95151855 254.29115967 -46.96553711 255.33231934 -46.97998047 256.4050293 C-47.38754897 269.11163647 -52.01812229 277.36452038 -61.13134766 285.95214844 C-73.69430692 296.9343902 -91.37123568 302.87221272 -106.6875 308.8125 C-157.42576276 328.52386434 -157.42576276 328.52386434 -169.19921875 352.375 C-171.62461027 357.93463673 -172.80950495 362.16653462 -173.6875 368.3125 C-67.4275 368.3125 38.8325 368.3125 148.3125 368.3125 C146.1228852 352.98519642 138.64987333 340.90046403 126.37890625 331.484375 C109.17702669 319.30062336 89.71374081 311.79083555 70.1875 304.125 C52.86066313 297.29903341 32.19337613 288.8986736 24.12890625 270.73828125 C21.98323013 265.09124473 21.64692454 259.80761816 21.5625 253.8125 C21.53502686 252.77311279 21.50755371 251.73372559 21.47924805 250.6628418 C21.40392943 247.54608561 21.35627859 244.42983766 21.3125 241.3125 C21.27242996 239.51692049 21.23208467 237.72134708 21.19140625 235.92578125 C21.16675825 234.32555756 21.14446668 232.72529511 21.125 231.125 C21.11839355 230.76341797 21.11839355 230.76341797 21.08496094 228.93359375 C21.0777027 223.8818611 21.58519673 220.23834388 25.01171875 216.41796875 C25.33978516 216.10150391 25.33978516 216.10150391 27 214.5 C35.33835036 205.32932792 38.86026625 193.36202548 40.80761719 181.34008789 C41.72199834 176.23556084 43.13994248 173.69669412 47.3125 170.3125 C48.158125 169.879375 49.00375 169.44625 49.875 169 C54.33372295 165.9131918 56.26424862 160.52436668 57.3125 155.3125 C58.43736603 146.01455676 58.43736603 146.01455676 55.97265625 142.28515625 C54.87942386 141.15076687 53.77800769 140.02419896 52.66796875 138.90625 C51.3125 137.3125 51.3125 137.3125 50.625 134.0625 C51.43143471 129.66376523 53.02169219 126.13632839 55.0234375 122.15625 C62.53046362 105.59529542 59.71428599 85.31104727 53.71875 68.71875 C49.31747278 58.05787852 42.68389226 48.70897645 32.1875 43.375 C26.50698506 41.02416543 20.76382836 40.38662205 14.6953125 39.8671875 C11.02940832 39.26608081 9.17027353 38.67369278 6.3125 36.3125 C4.86093098 33.90070545 3.65423683 31.66534023 2.5 29.125 C2.3443457 28.79790039 2.3443457 28.79790039 1.55664062 27.14257812 C0.79564436 25.53863216 0.05226848 23.92634652 -0.6875 22.3125 C-26.00623776 21.77500724 -50.59128322 31.75863239 -68.3125 49.8125 Z M-163.5703125 91.9921875 C-173.13286438 102.47217978 -178.30350103 115.54999469 -177.9453125 129.80078125 C-177.19405783 137.11982292 -175.49441382 144.3569374 -172.9375 151.25 C-171.52719856 155.24337986 -171.54817194 158.16209064 -172.6875 162.3125 C-173.19410156 162.93769531 -173.70070313 163.56289062 -174.22265625 164.20703125 C-176.79784943 167.90844225 -176.0645035 171.97353248 -175.6875 176.3125 C-175.0625 179.75 -175.0625 179.75 -173.6875 182.3125 C-171.71333732 183.36258653 -169.71167134 184.36237876 -167.6875 185.3125 C-164.90481333 189.09832803 -163.9581553 192.76769529 -162.9375 197.3125 C-160.79741484 206.0485756 -157.37209075 214.41856542 -151.10498047 221.04174805 C-148.2564452 224.43964532 -148.08078355 227.09192324 -148.12890625 231.546875 C-148.13007195 231.88590851 -148.13007195 231.88590851 -148.13597107 233.60162354 C-148.14566685 235.03044284 -148.16735809 236.45922612 -148.20043945 237.88769531 C-148.24955371 240.04291616 -148.26191034 242.19583394 -148.26757812 244.3515625 C-148.376538 257.97597552 -149.64882377 267.85868087 -159.3515625 278.0625 C-167.74805625 285.70291138 -178.20768179 289.99705707 -188.5758667 294.23379517 C-234.30774652 312.97987313 -234.30774652 312.97987313 -243.5625 333.1875 C-244.6875 336.3125 -244.6875 336.3125 -244.6875 339.3125 C-237.26426022 339.56829741 -229.84198153 339.76326818 -222.41521454 339.88243389 C-218.96564744 339.93965748 -215.51911114 340.01712458 -212.07128906 340.14233398 C-208.09998988 340.2856373 -204.1298813 340.33825104 -200.15625 340.38671875 C-199.54255554 340.41510582 -199.54255554 340.41510582 -196.43688965 340.5587616 C-188.0009234 340.56480067 -188.0009234 340.56480067 -184.1660614 336.90840149 C-182.13151898 334.12341155 -180.38907318 331.30919269 -178.6875 328.3125 C-175.4552107 323.88180857 -171.68055368 320.35293225 -167.375 317 C-166.77034912 316.52852539 -166.16569824 316.05705078 -165.54272461 315.57128906 C-148.77465173 302.83929968 -128.6725193 295.16578482 -109.29516602 287.36206055 C-73.9216639 273.08936877 -73.9216639 273.08936877 -68.6875 261.3125 C-67.31307045 254.69024851 -67.39497551 247.92799849 -67.3125 241.1875 C-67.27511719 240.02089844 -67.23773438 238.85429687 -67.19921875 237.65234375 C-67.11060988 229.05728369 -67.11060988 229.05728369 -69.99609375 225.33203125 C-70.88425781 224.66558594 -71.77242187 223.99914062 -72.6875 223.3125 C-78.42286149 215.44650746 -81.46274736 206.90434976 -84.328125 197.70703125 C-84.55153564 196.99071533 -84.77494629 196.27439941 -85.00512695 195.53637695 C-85.48057696 193.98686922 -85.94157581 192.43288477 -86.39135742 190.87573242 C-88.59353277 183.61201655 -88.59353277 183.61201655 -92.5 181 C-99.62037614 175.33517036 -103.07387257 166.51540614 -104.44140625 157.67578125 C-105.3026157 149.40543654 -104.68058586 141.68575312 -100.54296875 134.2578125 C-98.99515765 130.73813246 -100.76777732 126.90548256 -101.6875 123.3125 C-104.06393393 113.53071385 -105.11325505 104.42768566 -104.95727539 94.37011719 C-104.98686698 91.88815134 -105.06341762 89.7161383 -105.6875 87.3125 C-108.55078125 84.99609375 -108.55078125 84.99609375 -111.6875 83.3125 C-113.3671875 80.953125 -113.3671875 80.953125 -114.5625 78.5625 C-114.97242188 77.76328125 -115.38234375 76.9640625 -115.8046875 76.140625 C-116.09601563 75.53734375 -116.38734375 74.9340625 -116.6875 74.3125 C-133.94734937 73.82984202 -151.08231158 79.91362923 -163.5703125 91.9921875 Z M95.0625 74.1875 C94.22847656 74.26613281 93.39445312 74.34476562 92.53515625 74.42578125 C87.57580156 74.93183785 83.05996107 75.78561387 78.3125 77.3125 C78.34859375 77.64121094 78.34859375 77.64121094 78.53125 79.3046875 C80.18132837 96.21799083 80.53564354 113.1686787 74.1171875 129.16796875 C73.3125 131.3125 73.3125 131.3125 73.3125 133.3125 C73.76625 133.68375 74.22 134.055 74.6875 134.4375 C78.72039743 139.09084319 78.7518004 146.28858104 78.62890625 152.1875 C77.65491127 161.80720347 74.82137839 172.24950526 69.3125 180.3125 C66.75 182.25 66.75 182.25 64.3125 183.3125 C62.28125 184.38671875 62.28125 184.38671875 60.3125 186.3125 C59.49332876 188.98434886 58.88801062 191.45912105 58.375 194.1875 C55.65387476 206.92983536 51.75228808 218.87271192 42.3125 228.3125 C42.06958008 230.59985352 42.06958008 230.59985352 42.08203125 233.44140625 C42.08396484 234.47716797 42.08589844 235.51292969 42.08789062 236.58007812 C42.10013672 237.66740234 42.11238281 238.75472656 42.125 239.875 C42.12564453 240.93525391 42.12628906 241.99550781 42.12695312 243.08789062 C42.23341227 262.26236559 42.23341227 262.26236559 49.3125 269.3125 C60.67601292 278.96627336 75.26563635 284.2502513 88.98391724 289.62249756 C108.26978545 297.20431927 127.23631295 304.92900763 143.3125 318.3125 C143.93511719 318.77398437 144.55773437 319.23546875 145.19921875 319.7109375 C148.35590738 322.13915952 150.17030789 324.03157041 152.01074219 327.66772461 C154.39255708 332.11572756 156.90605627 335.70224821 161.3125 338.3125 C170.26383566 340.57349513 179.8074295 339.7008037 188.95440674 339.27380371 C192.3791976 339.12931156 195.80544744 339.06638518 199.23242188 338.99609375 C205.92956589 338.84244274 212.62022949 338.60878676 219.3125 338.3125 C217.4876634 326.87815151 211.39137815 318.89411752 202.140625 311.921875 C191.32125059 304.53029778 179.38213967 299.55624677 167.31030273 294.6184082 C133.67430309 280.82834443 133.67430309 280.82834443 126.3125 265.3125 C124.06175336 257.69336472 123.94010351 250.17086969 123.94189453 242.29125977 C123.93748687 240.11852523 123.90096816 237.94777206 123.86328125 235.77539062 C123.85741735 234.37761101 123.8534451 232.9798219 123.8515625 231.58203125 C123.84334473 230.33010986 123.83512695 229.07818848 123.82666016 227.78833008 C124.40003773 223.68623135 125.81174811 221.56725485 128.3125 218.3125 C133.93126284 209.85626193 137.45736802 201.32821444 139.25 191.3125 C139.9197809 188.01143702 140.25727333 187.36914274 142.75 184.8125 C145.3125 183.3125 145.3125 183.3125 148.3125 182.3125 C150.75931519 177.29008988 151.08377432 171.79213501 150.3125 166.3125 C149.03495446 164.2764118 147.70550182 162.27140881 146.3125 160.3125 C145.6574799 155.89111434 146.03708836 153.81742133 148.1875 149.875 C154.37253782 138.43268004 152.78633242 123.12281546 149.421875 111.140625 C146.35679291 102.1399871 141.48382968 94.51243707 133.3125 89.3125 C128.40563918 87.22708415 123.25717603 86.57451987 118.01953125 85.77734375 C115.3125 85.3125 115.3125 85.3125 112.3125 84.3125 C111.59204236 82.3312415 110.93248741 80.32745907 110.3125 78.3125 C108.875 75.4375 108.875 75.4375 107.3125 73.3125 C103.19597176 73.3125 99.15531299 73.771387 95.0625 74.1875 Z " fill="#000000" transform="translate(268.6875,50.6875)"/>
</svg>
