<?xml version="1.0" encoding="UTF-8"?>
<!-- Generator: visioncortex VTracer 0.6.12 -->
<svg version="1.1" xmlns="http://www.w3.org/2000/svg" width="512" height="512">
<path d="M0 0 C2.72529841 0.00259723 5.45058943 0.00064892 8.17588806 -0.00109577 C14.70111553 -0.00267995 21.22621745 0.01106577 27.75141281 0.03040821 C35.31150064 0.05214056 42.87151474 0.05439965 50.43164062 0.0567627 C70.35939467 0.07246743 90.28712114 0.11435118 110.21484375 0.15307617 C154.76484375 0.21495117 199.31484375 0.27682617 245.21484375 0.34057617 C245.21484375 95.38057617 245.21484375 190.42057617 245.21484375 288.34057617 C243.89484375 288.34057617 242.57484375 288.34057617 241.21484375 288.34057617 C241.10140625 289.34217773 240.98796875 290.3437793 240.87109375 291.37573242 C237.08525204 317.56771019 216.10537443 343.43324172 195.7890625 359.07495117 C192.66033578 361.29065507 189.48695445 363.34362626 186.21484375 365.34057617 C185.14234375 366.0237793 184.06984375 366.70698242 182.96484375 367.41088867 C176.57714335 371.29969702 170.07533162 374.41858715 163.08984375 377.09057617 C162.40583496 377.36015137 161.72182617 377.62972656 161.01708984 377.9074707 C140.97242393 385.17730149 120.52588306 384.94290393 99.53694153 384.87787819 C95.16882396 384.86760023 90.80073644 384.87718418 86.43261719 384.88342285 C79.10345326 384.89065693 71.77445166 384.88122406 64.4453125 384.86206055 C56.02684896 384.84030002 47.60877323 384.84735442 39.19031906 384.86936617 C31.90300605 384.88764222 24.61580834 384.89001947 17.32847977 384.87961149 C13.00208451 384.87344298 8.67587022 384.8723539 4.3494873 384.88575745 C-19.23151247 384.94878126 -40.885879 383.96432515 -62.78515625 374.34057617 C-63.43935547 374.05730469 -64.09355469 373.7740332 -64.76757812 373.48217773 C-95.70186459 359.825822 -119.07621718 333.59478548 -131.38671875 302.36401367 C-134.78515625 293.34041834 -134.78515625 293.34041834 -134.78515625 288.34057617 C-136.10515625 288.34057617 -137.42515625 288.34057617 -138.78515625 288.34057617 C-138.87893955 265.73848126 -138.94930108 243.13641881 -138.99240494 220.53416824 C-139.0129581 210.03760491 -139.04093874 199.54116305 -139.08691406 189.04467773 C-139.12700518 179.88716631 -139.1526416 170.72974294 -139.16151023 161.57214618 C-139.16668758 156.73120634 -139.17870178 151.89051822 -139.20807648 147.04965973 C-139.43416329 108.29850415 -139.43416329 108.29850415 -134.78515625 92.34057617 C-134.49345551 91.30851044 -134.20175476 90.2764447 -133.9012146 89.21310425 C-133.22749657 86.9540131 -132.45962876 84.7837854 -131.59765625 82.59057617 C-131.30286377 81.8202002 -131.00807129 81.04982422 -130.7043457 80.25610352 C-118.32772166 49.05329117 -93.50358354 23.77784346 -62.87988281 10.21948242 C-59.22679535 8.68671845 -55.53115307 7.31583868 -51.78515625 6.02807617 C-51.45394775 5.91282593 -51.45394775 5.91282593 -49.77783203 5.32958984 C-33.2912835 -0.00337186 -17.15850957 -0.07611399 0 0 Z " fill="#53CE26" transform="translate(202.78515625,63.659423828125)"/>
<path d="M0 0 C2.6821381 0.00084752 5.36425161 0.0005003 8.04638672 -0.00132751 C13.79090612 -0.00289046 19.53532224 0.00641533 25.27981567 0.023386 C33.58507782 0.04790568 41.89029072 0.05559443 50.19558513 0.05934998 C63.67468913 0.06589428 77.15373825 0.08580017 90.6328125 0.11425781 C103.71614311 0.14185099 116.79945867 0.16302428 129.8828125 0.17578125 C130.69928536 0.17658524 131.51575823 0.17738923 132.35697269 0.17821759 C138.74358851 0.18445691 145.13020464 0.19032731 151.51682091 0.19608128 C182.74954558 0.22431435 213.98213266 0.28468519 245.21484375 0.34057617 C245.21484375 70.63057617 245.21484375 140.92057617 245.21484375 213.34057617 C144.33619202 224.32736002 144.33619202 224.32736002 116.09279633 202.27112007 C103.95943558 192.50297454 93.1471534 181.30956163 82.71484375 169.77807617 C82.24438503 169.25913914 81.77392632 168.7402021 81.28921127 168.2055397 C70.62526 156.4192959 60.2911305 144.3613633 50.54988861 131.79619598 C47.05203318 127.3441504 43.41714358 123.56711335 39.0831871 119.92310429 C36.48587668 117.72312495 34.11061743 115.33322578 31.72021484 112.91186523 C31.23125229 112.41822983 30.74228973 111.92459442 30.23851013 111.41600037 C29.19370225 110.36081683 28.1500201 109.30451758 27.1074028 108.24716949 C25.45328017 106.57072782 23.79496938 104.89853353 22.13540649 103.22747803 C17.42313409 98.48187514 12.71527482 93.73195872 8.01757812 88.97192383 C5.12949214 86.04611235 2.23407315 83.1277305 -0.66611862 80.21392059 C-1.76367241 79.10834463 -2.85844946 78.00000451 -3.95030594 76.88880157 C-5.47641864 75.33609209 -7.01170489 73.79302063 -8.54931641 72.25170898 C-9.41787262 71.37347473 -10.28642883 70.49524048 -11.18130493 69.59039307 C-15.90769394 65.50663077 -20.00839258 63.91053627 -26.22265625 63.90307617 C-27.29386719 63.88374023 -28.36507812 63.8644043 -29.46875 63.84448242 C-37.42943924 65.03530402 -42.41305965 70.58925839 -47.765625 76.13354492 C-48.5008992 76.88017899 -49.2361734 77.62681305 -49.99372864 78.39607239 C-52.32745873 80.76626048 -54.65117674 83.14589179 -56.97265625 85.52807617 C-60.04087847 88.67598426 -63.11882056 91.81390175 -66.203125 94.94604492 C-66.90422897 95.67204391 -67.60533295 96.39804291 -68.3276825 97.14604187 C-68.9854921 97.81376114 -69.6433017 98.48148041 -70.32104492 99.16943359 C-70.89505539 99.75915451 -71.46906586 100.34887543 -72.06047058 100.95646667 C-73.96636636 102.48600246 -75.39705947 102.93646123 -77.78515625 103.34057617 C-77.78515625 104.00057617 -77.78515625 104.66057617 -77.78515625 105.34057617 C-78.44515625 105.34057617 -79.10515625 105.34057617 -79.78515625 105.34057617 C-80.4729003 106.66316089 -81.13226998 108.0004412 -81.78515625 109.34057617 C-82.32140625 110.39245117 -82.85765625 111.44432617 -83.41015625 112.52807617 C-86.06941491 118.8777346 -85.34469281 124.80645321 -82.90431786 131.14512825 C-80.79547301 135.2820277 -77.49077061 138.27528703 -74.19262695 141.48486328 C-73.4216568 142.25495728 -72.65068665 143.02505127 -71.85635376 143.81848145 C-69.319417 146.34687501 -66.76536934 148.85721361 -64.2109375 151.36791992 C-62.44286446 153.12412162 -60.67596867 154.88150927 -58.91020203 156.64002991 C-54.74374148 160.78430617 -50.56667498 164.91763259 -46.38387412 169.04541165 C-39.32534514 176.01228009 -32.29014721 183.0026741 -25.25297546 189.99110413 C-21.75800695 193.46174439 -18.25767036 196.92683214 -14.75300598 200.38768005 C-13.16515896 201.95912449 -11.57732363 203.53058074 -9.98950195 205.10205078 C-9.62250435 205.46332314 -9.62250435 205.46332314 -7.76527405 207.2915802 C-7.10489136 207.94611176 -6.44450867 208.60064331 -5.76411438 209.27500916 C-5.18543767 209.84626998 -4.60676096 210.4175308 -4.01054859 211.00610256 C-2.78515625 212.34057617 -2.78515625 212.34057617 -2.78515625 213.34057617 C-47.66515625 213.34057617 -92.54515625 213.34057617 -138.78515625 213.34057617 C-138.86765625 197.08807617 -138.95015625 180.83557617 -139.03515625 164.09057617 C-139.07157227 158.99974609 -139.10798828 153.90891602 -139.14550781 148.66381836 C-139.16357422 142.34301758 -139.16357422 142.34301758 -139.16693115 139.36383057 C-139.17298704 137.32717367 -139.18687034 135.29052912 -139.2074585 133.25396729 C-139.37372155 115.90741165 -138.0071976 98.8990606 -131.59765625 82.59057617 C-131.30286377 81.8202002 -131.00807129 81.04982422 -130.7043457 80.25610352 C-118.32772166 49.05329117 -93.50358354 23.77784346 -62.87988281 10.21948242 C-59.22679535 8.68671845 -55.53115307 7.31583868 -51.78515625 6.02807617 C-51.45394775 5.91282593 -51.45394775 5.91282593 -49.77783203 5.32958984 C-33.29126438 -0.00337805 -17.15865452 -0.07630647 0 0 Z " fill="#5BC929" transform="translate(202.78515625,63.659423828125)"/>
<path d="M0 0 C5.01698554 2.9818407 8.95853985 6.65261493 13.07926941 10.75801086 C13.42379273 11.09744637 13.42379273 11.09744637 15.16728956 12.81519574 C17.46809265 15.08468021 19.7617778 17.36121967 22.05541992 19.63793945 C23.70625173 21.26968409 25.35742934 22.90107893 27.00892639 24.53215027 C32.42400262 29.88458361 37.82809315 35.24803297 43.23046875 40.61328125 C43.69060588 41.07012106 43.69060588 41.07012106 46.01917863 43.38200736 C54.70233614 52.00361811 63.3815815 60.62914671 72.05079174 69.26478291 C74.05553045 71.26162372 76.06032318 73.25841029 78.06518555 75.25512695 C78.56342889 75.75135357 79.06167223 76.24758019 79.57501385 76.75884398 C87.64305989 84.79289121 95.73490643 92.80252246 103.83666321 100.80255864 C112.16833799 109.03048703 120.47701502 117.28109718 128.76422006 125.55381745 C133.41251159 130.19221046 138.07031803 134.81999252 142.75328636 139.42339516 C147.16038739 143.7565918 151.53797316 148.11758546 155.89499474 152.5011158 C157.4941894 154.10020285 159.1036062 155.68914565 160.72406387 157.26668167 C170.47911224 166.77708913 175.90386708 173.19834511 177 187 C177.50177508 188.97568059 178.02156823 190.94700273 178.5703125 192.91015625 C178.96227596 199.09135777 175.90929969 202.59294771 172.0546875 207.05859375 C170.07279596 209.19019607 168.04999593 211.26413816 165.984375 213.31469727 C163.88570667 215.42672518 161.90523001 217.61703908 159.9140625 219.83007812 C150.66615988 229.51785467 150.66615988 229.51785467 144.29846191 230.35528564 C137.99331167 230.24359255 131.9966559 228.87893342 126 227 C125.10942965 226.79252577 124.21885929 226.58505154 123.30130196 226.37129021 C118.85058787 224.52255879 116.18415864 221.72902206 112.83807373 218.32582092 C112.14015441 217.63202487 111.44223509 216.93822882 110.7231667 216.22340864 C108.38754061 213.89671093 106.06648951 211.55600052 103.74511719 209.21508789 C102.07347319 207.54395267 100.40095576 205.87369076 98.72763062 204.20423889 C94.18583627 199.66786826 89.65656946 195.11917382 85.12955379 190.56806111 C80.874856 186.29240981 76.60940125 182.02749963 72.34502617 177.76150506 C63.89710175 169.30970549 55.45850788 160.84865204 47.02539062 152.38208008 C38.8406014 144.16484782 30.65023051 135.95323768 22.453125 127.74829102 C21.9480429 127.24272342 21.4429608 126.73715583 20.92257318 126.21626801 C18.89240338 124.18416953 16.8622253 122.15207932 14.83202879 120.12000752 C7.02148102 112.30192905 -0.78501523 104.47980571 -8.59065486 96.65682726 C-10.94916377 94.29308189 -13.30782435 91.92948823 -15.66685581 89.56626439 C-21.04592963 84.17741309 -26.42264205 78.78623044 -31.79529953 73.39098167 C-33.42551285 71.75463753 -35.05657065 70.11913422 -36.68851852 68.48451996 C-38.91001925 66.2590479 -41.12842323 64.03053558 -43.3460083 61.80116272 C-43.67177971 61.4754835 -43.67177971 61.4754835 -45.32038045 59.82734925 C-45.9128396 59.23043225 -46.50529875 58.63351525 -47.11571121 58.01850986 C-47.62811898 57.50431352 -48.14052676 56.99011718 -48.66846204 56.46033913 C-51.65912415 53.1803869 -52.62368374 50.60512719 -52.50505066 46.1598053 C-51.87772391 43.4770969 -50.84329434 42.2747432 -48.98168945 40.25561523 C-48.34445953 39.56088104 -47.70722961 38.86614685 -47.0506897 38.15036011 C-43.65361124 34.58817222 -40.21597219 31.07340352 -36.73046875 27.59765625 C-36.34936195 27.21607109 -36.34936195 27.21607109 -34.42073059 25.28501892 C-32.82443932 23.68805211 -31.22690447 22.09232747 -29.62817383 20.49780273 C-27.17347177 18.04850264 -24.72421104 15.59385096 -22.27539062 13.13867188 C-20.71907093 11.5830122 -19.16244148 10.02766234 -17.60546875 8.47265625 C-16.87216843 7.7373317 -16.1388681 7.00200714 -15.38334656 6.24440002 C-14.70536514 5.56957077 -14.02738373 4.89474152 -13.32885742 4.19946289 C-12.73264084 3.6040419 -12.13642426 3.00862091 -11.5221405 2.39515686 C-8.23689168 -0.61602208 -4.24208222 -0.7972189 0 0 Z " fill="#F1F9FA" transform="translate(180,137)"/>
<path d="M0 0 C0.52980469 -0.01546875 0.52980469 -0.01546875 3.2109375 -0.09375 C13.26189343 1.65424234 20.31621015 10.8204043 27.15625 17.7734375 C28.35802722 18.98336841 29.56055559 20.19255363 30.76379395 21.40103149 C33.91704675 24.57132042 37.061614 27.75007674 40.20391846 30.93121338 C45.22966337 36.01635709 50.26819509 41.08882158 55.30747986 46.16054153 C57.05389241 47.92076471 58.79634332 49.68483218 60.53820801 51.44955444 C61.6236884 52.54507298 62.70925532 53.64050579 63.79492188 54.73583984 C64.0314019 54.97647408 64.0314019 54.97647408 65.22813416 56.19422913 C67.90602105 58.8892698 70.66664074 61.39308996 73.57324219 63.84112549 C77.72288804 67.44107599 80.96895692 71.44451128 84.28320312 75.80615234 C140.82553684 148.2797509 140.82553684 148.2797509 178.30990982 154.04211235 C209.25761088 157.81003165 240.88432739 154.28842405 271.625 150.5 C271.625 175.25 271.625 200 271.625 225.5 C270.305 225.5 268.985 225.5 267.625 225.5 C267.52058594 226.48355469 267.41617187 227.46710938 267.30859375 228.48046875 C266.68581495 232.82678619 265.26462358 236.73164546 263.6875 240.8125 C263.55504883 241.16989258 263.55504883 241.16989258 262.88476562 242.97851562 C260.88708682 248.23791318 260.88708682 248.23791318 258.625 250.5 C258.0540712 249.90165344 257.4831424 249.30330688 256.89491272 248.68682861 C254.78449778 246.65365978 252.75434529 245.10665301 250.30639648 243.51074219 C249.46129013 242.95626404 248.61618378 242.40178589 247.74546814 241.83050537 C246.83817459 241.24190735 245.93088104 240.65330933 244.99609375 240.046875 C244.05121597 239.42782288 243.1063382 238.80877075 242.13282776 238.17095947 C239.11233415 236.19275292 236.08775848 234.22091049 233.0625 232.25 C229.10058286 229.6649329 225.14077581 227.07668491 221.18359375 224.484375 C220.23989426 223.8663501 219.29619476 223.2483252 218.32389832 222.61157227 C212.64836424 218.87838756 207.07705843 215.06586217 201.65136719 210.97558594 C198.77143062 208.87843695 195.76583927 207.17511428 192.625 205.5 C192.955 206.655 193.285 207.81 193.625 209 C194.70901934 213.27500587 194.78201377 217.10361453 194.625 221.5 C193.305 221.17 191.985 220.84 190.625 220.5 C190.955 225.78 191.285 231.06 191.625 236.5 C189.975 235.84 188.325 235.18 186.625 234.5 C185.48046875 231.6796875 185.48046875 231.6796875 184.8125 228.375 C184.57917969 227.27929688 184.34585937 226.18359375 184.10546875 225.0546875 C184.02619141 224.63316406 184.02619141 224.63316406 183.625 222.5 C183.2218457 222.92933838 182.81869141 223.35867676 182.40332031 223.80102539 C180.57367245 225.73445139 178.72485825 227.64841056 176.875 229.5625 C176.55789063 229.90055664 176.55789063 229.90055664 174.953125 231.61132812 C174.334375 232.24619141 173.715625 232.88105469 173.078125 233.53515625 C172.51254883 234.1269165 171.94697266 234.71867676 171.36425781 235.32836914 C169.625 236.5 169.625 236.5 167.58105469 236.31420898 C164.85264377 235.17850624 162.85124918 233.41704791 160.625 231.5 C160.93244141 231.20416016 160.93244141 231.20416016 162.48828125 229.70703125 C162.89240234 229.31193359 162.89240234 229.31193359 164.9375 227.3125 C165.73800781 226.53519531 166.53851563 225.75789062 167.36328125 224.95703125 C169.625 222.5 169.625 222.5 171.15234375 219.921875 C172.76379993 217.27173487 174.47172119 215.86963243 176.875 213.9375 C179.31952222 211.53334603 180.50968039 210.26133336 181.02734375 206.84375 C180.8125 203.9375 180.8125 203.9375 180.24202824 200.96387768 C179.625 197.5 179.625 197.5 179.40792751 194.19424152 C178.02754566 181.06042242 169.94286387 174.18448318 160.83422852 165.31518555 C159.17270775 163.65377569 157.51381924 161.98972989 155.85736084 160.32327271 C151.3737568 155.82773094 146.85408213 151.37015519 142.32652783 146.91893744 C138.0702853 142.72361859 133.84131561 138.50104955 129.61177682 134.27885077 C121.23618355 125.91972093 112.83349655 117.58838718 104.41381836 109.27368164 C96.24804957 101.20962831 88.09793055 93.1302289 79.96655273 85.03149414 C79.46480026 84.53176355 78.9630478 84.03203295 78.44609071 83.51715901 C76.42915172 81.50826031 74.41227031 79.49930384 72.39547733 77.49025856 C63.23249384 68.36315146 54.05655481 59.24907594 44.87890625 50.13671875 C43.94794042 49.21209579 43.01697459 48.28747283 42.05779767 47.334831 C36.71318505 42.02781975 31.36310278 36.72643792 26.00439453 31.4336586 C24.38054483 29.82846622 22.7583427 28.22160519 21.13789177 26.6129818 C18.93044625 24.42241707 16.71698411 22.23812361 14.50172424 20.0554657 C13.85785171 19.41395292 13.21397917 18.77244013 12.55059534 18.11148757 C11.95578739 17.5280621 11.36097944 16.94463663 10.74814701 16.34353161 C10.49302862 16.09128593 10.49302862 16.09128593 9.20197493 14.81476992 C5.71215877 11.90520856 2.33993885 10.87184359 -2.2497406 10.99409485 C-4.91025863 11.62741508 -6.12359648 12.68455875 -8.12915039 14.53198242 C-8.82436798 15.16913177 -9.51958557 15.80628113 -10.23587036 16.46273804 C-13.72150272 19.7823808 -17.1598531 23.14220216 -20.55859375 26.55078125 C-20.92908089 26.92079002 -20.92908089 26.92079002 -22.80397034 28.79325867 C-24.35385859 30.3424716 -25.90250558 31.89292727 -27.44995117 33.44458008 C-29.82682249 35.82685505 -32.20904646 38.20368497 -34.59179688 40.58007812 C-36.10188365 42.0908249 -37.61166062 43.60188141 -39.12109375 45.11328125 C-39.83454453 45.82470779 -40.5479953 46.53613434 -41.2830658 47.26911926 C-41.9378743 47.92707993 -42.5926828 48.58504059 -43.26733398 49.26293945 C-43.84499008 49.84139114 -44.42264618 50.41984283 -45.01780701 51.01582336 C-47.51709427 53.74895253 -48.02022824 56.49271713 -47.97076321 60.17854404 C-47.16956009 63.30051888 -45.66962695 64.80108439 -43.4677887 67.14329529 C-42.64673204 68.02073835 -41.82567539 68.89818142 -40.97973824 69.80221367 C-36.7839487 74.14788784 -32.54916017 78.44826912 -28.26538086 82.70727539 C-27.28847139 83.68225965 -26.3117938 84.6574763 -25.33532715 85.63290405 C-23.25467083 87.71043128 -21.17248036 89.78640336 -19.08903313 91.86113167 C-15.79643121 95.14009054 -12.5077555 98.42296896 -9.21961975 101.70640564 C-2.25356215 108.66142866 4.71676622 115.61216423 11.6875 122.5625 C19.24604265 130.09899609 26.80381993 137.63625125 34.35677046 145.1783523 C37.62861088 148.44520265 40.90287495 151.70959859 44.17900002 154.97215188 C46.20618452 156.99190979 48.23132439 159.01370803 50.25589752 161.03608322 C51.64967778 162.42708191 53.04596515 163.81556703 54.44230652 165.20399475 C55.26230133 166.02391907 56.08229614 166.84384338 56.92713928 167.68861389 C57.64550996 168.40476396 58.36388063 169.12091402 59.10402012 169.8587656 C60.625 171.5 60.625 171.5 60.625 172.5 C58.975 172.5 57.325 172.5 55.625 172.5 C55.295 173.16 54.965 173.82 54.625 174.5 C53.635 174.17 53.635 174.17 48.625 172.5 C48.295 173.16 47.965 173.82 47.625 174.5 C47.295 174.17 46.965 173.84 46.625 173.5 C44.57472261 173.40319959 42.52105121 173.37813057 40.4684906 173.37974548 C39.81835135 173.37889106 39.1682121 173.37803663 38.49837166 173.37715632 C36.3041442 173.37549974 34.10999198 173.38102575 31.91577148 173.38647461 C30.34914146 173.38675647 28.7825113 173.38659877 27.21588135 173.3860321 C22.94953623 173.38574408 18.68321898 173.39164157 14.41688037 173.39860606 C9.96322949 173.40483882 5.50957803 173.40544334 1.05592346 173.40663147 C-7.38367443 173.40974502 -15.82325944 173.41795872 -24.26285166 173.42798096 C-33.86849444 173.43914137 -43.47413782 173.44465236 -53.07978547 173.44967639 C-72.84486438 173.46014132 -92.60993092 173.47794161 -112.375 173.5 C-112.375 165.91 -112.375 158.32 -112.375 150.5 C-90.1 150.335 -90.1 150.335 22.625 149.5 C-16.6875 110.5 -16.6875 110.5 -29.1027832 98.22265625 C-34.10388184 93.24414062 -34.10388184 93.24414062 -36.44474792 90.9074707 C-38.07585301 89.28402439 -39.71189465 87.66552849 -41.35185242 86.05102539 C-43.84057467 83.59900255 -46.31298989 81.1315368 -48.7824707 78.66015625 C-49.51177701 77.94884048 -50.24108332 77.23752472 -50.99248981 76.50465393 C-56.21973577 71.22346818 -59.79761056 65.74251015 -59.8125 58 C-59.61247063 51.91489605 -56.66746115 47.43869172 -53.375 42.5 C-52.715 42.5 -52.055 42.5 -51.375 42.5 C-51.375 41.84 -51.375 41.18 -51.375 40.5 C-49.9819505 39.5865183 -48.58638152 38.67671432 -47.18041992 37.78323364 C-43.66304316 35.28319687 -40.77922228 32.08209766 -37.78125 28.99609375 C-36.32433545 27.51876511 -34.86730055 26.04155515 -33.41015625 24.56445312 C-31.13659272 22.24736583 -28.86557346 19.92785018 -26.59716797 17.60571289 C-24.39418093 15.3543583 -22.18199052 13.11236249 -19.96875 10.87109375 C-19.63272766 10.52419243 -19.63272766 10.52419243 -17.93225098 8.7686615 C-12.52063593 3.30062231 -7.95015046 0.07699904 0 0 Z " fill="#12AA30" transform="translate(176.375,126.5)"/>
<path d="M0 0 C0.52980469 -0.01546875 0.52980469 -0.01546875 3.2109375 -0.09375 C13.26189343 1.65424234 20.31621015 10.8204043 27.15625 17.7734375 C28.35802722 18.98336841 29.56055559 20.19255363 30.76379395 21.40103149 C33.91704675 24.57132042 37.061614 27.75007674 40.20391846 30.93121338 C45.22966337 36.01635709 50.26819509 41.08882158 55.30747986 46.16054153 C57.05389241 47.92076471 58.79634332 49.68483218 60.53820801 51.44955444 C61.6236884 52.54507298 62.70925532 53.64050579 63.79492188 54.73583984 C64.0314019 54.97647408 64.0314019 54.97647408 65.22813416 56.19422913 C67.88207101 58.86516635 70.61720084 61.38720152 73.46789551 63.84785461 C77.81941695 67.62014038 81.89906681 71.62627197 85.96875 75.69848633 C86.75995743 76.48633514 87.55116486 77.27418396 88.36634827 78.08590698 C90.9551942 80.66532791 93.5403228 83.24843356 96.125 85.83203125 C97.92953285 87.63334875 99.7341401 89.43459172 101.53881836 91.23576355 C105.3061397 94.9971171 109.07142974 98.76048988 112.83544922 102.52514648 C117.18901806 106.8793192 121.54816988 111.22784761 125.90989494 115.57384855 C130.11422032 119.76355655 134.31304164 123.95874966 138.50976562 128.15607262 C140.29443217 129.93955566 142.08072835 131.7214095 143.86865234 133.50162697 C146.35597983 135.9792238 148.83697107 138.46299493 151.31640625 140.94848633 C151.68882698 141.31809731 151.68882698 141.31809731 153.57350159 143.18855286 C154.24348679 143.86273254 154.91347198 144.53691223 155.60375977 145.23152161 C156.19069107 145.81790814 156.77762238 146.40429468 157.38233948 147.00845051 C158.625 148.5 158.625 148.5 158.625 150.5 C153.32865882 151.41001856 147.7418881 152.17400914 142.85330343 149.54846239 C138.26494803 146.21877607 134.42976086 142.03703949 130.52294922 137.95556641 C129.18066847 136.60605364 127.8352669 135.25963892 126.48701477 133.91609192 C122.85047155 130.27504019 119.25850123 126.59273605 115.67292547 122.90157747 C111.90907245 119.04246024 108.1044286 115.22399812 104.30374146 111.4012146 C97.11628274 104.1599987 89.96440659 96.88470759 82.82548535 89.5956682 C72.33712319 78.89011931 61.79387397 68.23883749 51.25308418 57.5849514 C49.69840644 56.01340049 48.14375873 54.44181985 46.58914185 52.87020874 C45.8302548 52.10311817 45.07136776 51.33602759 44.28948414 50.54569185 C39.77720593 45.98233479 35.27442383 41.40985727 30.78003955 36.82887673 C27.98870556 33.98445568 25.19372884 31.14363007 22.39832115 28.30321312 C21.10163389 26.98358079 19.80676447 25.66215944 18.51383781 24.33884239 C16.7514114 22.5351948 14.98289184 20.73773862 13.21286011 18.94155884 C12.70100123 18.4143246 12.18914236 17.88709037 11.66177261 17.34387934 C7.79574447 13.44011467 5.29671593 11.75075739 -0.125 10.9375 C-3.80413105 11.03549778 -5.44674305 12.06107262 -8.12915039 14.53198242 C-8.82436798 15.16913177 -9.51958557 15.80628113 -10.23587036 16.46273804 C-13.72150272 19.7823808 -17.1598531 23.14220216 -20.55859375 26.55078125 C-20.92908089 26.92079002 -20.92908089 26.92079002 -22.80397034 28.79325867 C-24.35385859 30.3424716 -25.90250558 31.89292727 -27.44995117 33.44458008 C-29.82682249 35.82685505 -32.20904646 38.20368497 -34.59179688 40.58007812 C-36.10188365 42.0908249 -37.61166062 43.60188141 -39.12109375 45.11328125 C-39.83454453 45.82470779 -40.5479953 46.53613434 -41.2830658 47.26911926 C-41.9378743 47.92707993 -42.5926828 48.58504059 -43.26733398 49.26293945 C-43.84499008 49.84139114 -44.42264618 50.41984283 -45.01780701 51.01582336 C-47.51709427 53.74895253 -48.02022824 56.49271713 -47.97076321 60.17854404 C-47.16956009 63.30051888 -45.66962695 64.80108439 -43.4677887 67.14329529 C-42.64673204 68.02073835 -41.82567539 68.89818142 -40.97973824 69.80221367 C-36.7839487 74.14788784 -32.54916017 78.44826912 -28.26538086 82.70727539 C-27.28847139 83.68225965 -26.3117938 84.6574763 -25.33532715 85.63290405 C-23.25467083 87.71043128 -21.17248036 89.78640336 -19.08903313 91.86113167 C-15.79643121 95.14009054 -12.5077555 98.42296896 -9.21961975 101.70640564 C-2.25356215 108.66142866 4.71676622 115.61216423 11.6875 122.5625 C19.24604265 130.09899609 26.80381993 137.63625125 34.35677046 145.1783523 C37.62861088 148.44520265 40.90287495 151.70959859 44.17900002 154.97215188 C46.20618452 156.99190979 48.23132439 159.01370803 50.25589752 161.03608322 C51.64967778 162.42708191 53.04596515 163.81556703 54.44230652 165.20399475 C55.26230133 166.02391907 56.08229614 166.84384338 56.92713928 167.68861389 C57.64550996 168.40476396 58.36388063 169.12091402 59.10402012 169.8587656 C60.625 171.5 60.625 171.5 60.625 172.5 C58.975 172.5 57.325 172.5 55.625 172.5 C55.295 173.16 54.965 173.82 54.625 174.5 C53.635 174.17 53.635 174.17 48.625 172.5 C48.295 173.16 47.965 173.82 47.625 174.5 C47.295 174.17 46.965 173.84 46.625 173.5 C44.57472261 173.40319959 42.52105121 173.37813057 40.4684906 173.37974548 C39.81835135 173.37889106 39.1682121 173.37803663 38.49837166 173.37715632 C36.3041442 173.37549974 34.10999198 173.38102575 31.91577148 173.38647461 C30.34914146 173.38675647 28.7825113 173.38659877 27.21588135 173.3860321 C22.94953623 173.38574408 18.68321898 173.39164157 14.41688037 173.39860606 C9.96322949 173.40483882 5.50957803 173.40544334 1.05592346 173.40663147 C-7.38367443 173.40974502 -15.82325944 173.41795872 -24.26285166 173.42798096 C-33.86849444 173.43914137 -43.47413782 173.44465236 -53.07978547 173.44967639 C-72.84486438 173.46014132 -92.60993092 173.47794161 -112.375 173.5 C-112.375 165.91 -112.375 158.32 -112.375 150.5 C-90.1 150.335 -90.1 150.335 22.625 149.5 C-16.6875 110.5 -16.6875 110.5 -29.1027832 98.22265625 C-34.10388184 93.24414062 -34.10388184 93.24414062 -36.44474792 90.9074707 C-38.07585301 89.28402439 -39.71189465 87.66552849 -41.35185242 86.05102539 C-43.84057467 83.59900255 -46.31298989 81.1315368 -48.7824707 78.66015625 C-49.51177701 77.94884048 -50.24108332 77.23752472 -50.99248981 76.50465393 C-56.21973577 71.22346818 -59.79761056 65.74251015 -59.8125 58 C-59.61247063 51.91489605 -56.66746115 47.43869172 -53.375 42.5 C-52.715 42.5 -52.055 42.5 -51.375 42.5 C-51.375 41.84 -51.375 41.18 -51.375 40.5 C-49.9819505 39.5865183 -48.58638152 38.67671432 -47.18041992 37.78323364 C-43.66304316 35.28319687 -40.77922228 32.08209766 -37.78125 28.99609375 C-36.32433545 27.51876511 -34.86730055 26.04155515 -33.41015625 24.56445312 C-31.13659272 22.24736583 -28.86557346 19.92785018 -26.59716797 17.60571289 C-24.39418093 15.3543583 -22.18199052 13.11236249 -19.96875 10.87109375 C-19.63272766 10.52419243 -19.63272766 10.52419243 -17.93225098 8.7686615 C-12.52063593 3.30062231 -7.95015046 0.07699904 0 0 Z " fill="#41AD2D" transform="translate(176.375,126.5)"/>
<path d="M0 0 C0.01715844 1.1547967 0.03431688 2.30959339 0.05199528 3.49938393 C0.79125175 9.20686141 4.1778066 12.13267787 8.16807556 16.00985718 C8.92705959 16.77482218 9.68604363 17.53978719 10.46802717 18.32793295 C13.01434595 20.88577751 15.58486779 23.41780682 18.15600586 25.95068359 C19.9869007 27.77960384 21.81625536 29.61006704 23.6441803 31.44195557 C27.58177454 35.38321653 31.53196066 39.31147913 35.49104118 43.23115158 C41.21730431 48.90045509 46.92407361 54.58905646 52.62631459 60.28250904 C61.88168543 69.52256671 71.15257207 78.74689226 80.43334961 87.96142578 C89.4425141 96.90635185 98.44430983 105.85858798 107.4362793 114.82080078 C107.99046694 115.37314936 108.54465459 115.92549795 109.1156358 116.49458437 C111.89614087 119.26595322 114.6765011 122.03746732 117.4567889 124.80905414 C138.91116337 146.19594646 160.3862168 167.56193568 181.87830013 188.91093481 C182.52957711 189.55789489 183.18085408 190.20485497 183.85186672 190.87141991 C184.13372789 191.15138382 184.13372789 191.15138382 185.56011623 192.56817091 C186.70861031 193.71024034 187.85471374 194.85471374 189 196 C187.15234375 198.56640625 187.15234375 198.56640625 184 201 C180.42152087 201.25620656 177.07347197 200.59990176 173.5625 199.9375 C172.63373047 199.78861328 171.70496094 199.63972656 170.74804688 199.48632812 C168.14290525 199.05059269 165.57426263 198.59207295 163 198 C162.10554295 197.79565558 161.21108589 197.59131117 160.28952408 197.3807745 C155.85394787 195.51894575 153.17865602 192.72342552 149.83807373 189.32582092 C149.14015441 188.63202487 148.44223509 187.93822882 147.7231667 187.22340864 C145.38754061 184.89671093 143.06648951 182.55600052 140.74511719 180.21508789 C139.07347319 178.54395267 137.40095576 176.87369076 135.72763062 175.20423889 C131.18583627 170.66786826 126.65656946 166.11917382 122.12955379 161.56806111 C117.874856 157.29240981 113.60940125 153.02749963 109.34502617 148.76150506 C100.89710175 140.30970549 92.45850788 131.84865204 84.02539062 123.38208008 C75.8406014 115.16484782 67.65023051 106.95323768 59.453125 98.74829102 C58.9480429 98.24272342 58.4429608 97.73715583 57.92257318 97.21626801 C55.89240338 95.18416953 53.8622253 93.15207932 51.83202879 91.12000752 C44.02148102 83.30192905 36.21498477 75.47980571 28.40934514 67.65682726 C26.05083623 65.29308189 23.69217565 62.92948823 21.33314419 60.56626439 C15.95407037 55.17741309 10.57735795 49.78623044 5.20470047 44.39098167 C3.57448715 42.75463753 1.94342935 41.11913422 0.31148148 39.48451996 C-1.91001925 37.2590479 -4.12842323 35.03053558 -6.3460083 32.80116272 C-6.99755111 32.14980427 -7.64909392 31.49844583 -8.32038045 30.82734925 C-8.9128396 30.23043225 -9.50529875 29.63351525 -10.11571121 29.01850986 C-10.62811898 28.50431352 -11.14052676 27.99011718 -11.66846204 27.46033913 C-14.65278697 24.18733709 -15.6215867 21.61688131 -15.5078125 17.1796875 C-14.48901145 12.80667991 -11.12550425 10.04086777 -8 7 C-7.34386719 6.32066406 -6.68773437 5.64132813 -6.01171875 4.94140625 C-1.20950704 0 -1.20950704 0 0 0 Z " fill="#A2CAA3" transform="translate(143,166)"/>
<path d="M0 0 C0.50287411 0.66539386 1.00574821 1.33078772 1.52386093 2.01634502 C4.67831137 5.81733983 8.12044982 9.25485799 11.6182251 12.73847961 C12.38935064 13.51045958 13.16047618 14.28243955 13.95496917 15.07781285 C16.53824708 17.66273726 19.12508177 20.24407241 21.71191406 22.82543945 C23.56491205 24.67815536 25.41768986 26.53109151 27.27026367 28.38423157 C31.25846053 32.37295222 35.24848104 36.35984102 39.23975372 40.34548378 C45.01042815 46.10802363 50.77833214 51.87332997 56.54556844 57.6393105 C65.90309784 66.99465247 75.26285722 76.3477601 84.62402344 85.69946289 C93.71634223 94.78259961 102.80760786 103.86678829 111.89746094 112.95239258 C112.45796521 113.51263413 113.01846949 114.07287568 113.59595874 114.65009425 C116.40789881 117.46072926 119.2198182 120.27138495 122.03172731 123.08205092 C145.35128071 146.39124129 168.67445489 169.69680552 192 193 C191.05488516 194.10433586 190.10952431 195.20846118 189.1640625 196.3125 C188.6376416 196.92738281 188.1112207 197.54226563 187.56884766 198.17578125 C185.46963046 200.61670109 183.46774399 202.9218998 181 205 C177.63902338 204.67481014 175.95055113 203.32925562 173.60297775 200.99726105 C172.94710198 200.35290871 172.29122621 199.70855638 171.61547542 199.04467821 C171.25944291 198.68734598 171.25944291 198.68734598 169.45770264 196.87902832 C168.6947442 196.12498325 167.93178576 195.37093818 167.14570737 194.59404325 C164.58046635 192.0549036 162.02613753 189.50506248 159.47167969 186.95507812 C157.63918016 185.13646017 155.80608681 183.3184404 153.97244263 181.50097656 C148.98513938 176.55441519 144.00918492 171.59654138 139.03561306 166.63617897 C135.93022541 163.53907942 132.82263275 160.44419891 129.71463776 157.34971619 C121.11018219 148.78183651 112.50857066 140.21112402 103.91730881 131.63001251 C103.3674736 131.080836 102.81763839 130.53165949 102.2511415 129.96584126 C101.69999358 129.41534817 101.14884565 128.86485508 100.58099627 128.29768038 C99.4641584 127.1821729 98.34731589 126.06667008 97.23046875 124.95117188 C96.95347258 124.67450785 96.95347258 124.67450785 95.55170408 123.2744202 C86.57335716 114.3079188 77.574932 105.36186101 68.56765208 96.42443377 C59.32068027 87.24859706 50.09067162 78.05598057 40.87744832 68.84625578 C35.70395908 63.67551706 30.5234519 58.51227242 25.3241806 53.3674469 C20.4345668 48.52885676 15.56845283 43.66768484 10.71749496 38.79034424 C8.93220332 37.00273531 7.13917127 35.22281891 5.33799362 33.45121765 C2.882124 31.03333208 0.45553965 28.58939436 -1.96563721 26.13684082 C-2.68662511 25.44002213 -3.40761302 24.74320344 -4.15044904 24.02526903 C-7.55607304 20.51533309 -9.42795098 18.17195436 -9.56269455 13.16942596 C-9.37921288 9.87827529 -8.99493426 8.99267277 -7.03125 6.15234375 C-6.1959375 5.42144531 -5.360625 4.69054687 -4.5 3.9375 C-3.6646875 3.18339844 -2.829375 2.42929688 -1.96875 1.65234375 C-1.3190625 1.10707031 -0.669375 0.56179687 0 0 Z " fill="#DCECDF" transform="translate(152,156)"/>
<path d="M0 0 C2.33333333 0 4.66666667 0 7 0 C7.90545059 -0.11796936 8.81090118 -0.23593872 9.74378967 -0.35748291 C14.24955608 0.13718246 16.18491471 2.52325115 19.09936523 5.71972656 C19.67777161 6.32777634 20.25617798 6.93582611 20.85211182 7.56230164 C22.10735661 8.88386956 23.3559899 10.21174152 24.59872246 11.54508209 C26.58184905 13.66549014 28.58878782 15.76035365 30.60499573 17.8493042 C36.33547317 23.78983388 42.0434217 29.75001702 47.67797852 35.78173828 C75.89718748 65.92560001 75.89718748 65.92560001 92.1280365 67.28497314 C96.90871812 67.38426554 101.32694524 67.40255043 105.10644531 64.23413086 C105.83959961 63.48526611 106.57275391 62.73640137 107.328125 61.96484375 C108.12734375 61.15595703 108.9265625 60.34707031 109.75 59.51367188 C110.1625 59.08860352 110.1625 59.08860352 112.25 56.9375 C113.09046875 56.08349609 113.9309375 55.22949219 114.796875 54.34960938 C116.87147597 52.23964588 118.93875832 50.12300292 121 48 C121 51 121 51 119.25 53.04296875 C118.5075 53.75066406 117.765 54.45835937 117 55.1875 C116.2575 55.90292969 115.515 56.61835938 114.75 57.35546875 C114.1725 57.89816406 113.595 58.44085938 113 59 C115.25 61.0625 115.25 61.0625 118 63 C121.3191558 62.67129332 122.95433569 61.40703424 125.234375 59.05859375 C125.80800781 58.47529297 126.38164062 57.89199219 126.97265625 57.29101562 C127.55917969 56.67935547 128.14570313 56.06769531 128.75 55.4375 C129.35199219 54.82197266 129.95398438 54.20644531 130.57421875 53.57226562 C132.05634381 52.05485187 133.5290967 50.52829404 135 49 C136.58776994 52.01954845 137.32396688 54.33829127 137.625 57.75 C137.66238281 58.14960938 137.66238281 58.14960938 137.8515625 60.171875 C137.87605469 60.47351563 137.87605469 60.47351563 138 62 C139.32 62.33 140.64 62.66 142 63 C141.67 58.05 141.34 53.1 141 48 C144 48 144 48 146 49 C145.67 46.36 145.67 46.36 144 33 C147.92142455 34.56856982 150.54836701 35.88322868 153.9453125 38.203125 C154.99750977 38.91662109 156.04970703 39.63011719 157.13378906 40.36523438 C157.73630493 40.77636475 158.3388208 41.18749512 158.95959473 41.61108398 C162.16093625 43.79025622 165.37539454 45.94989979 168.58782959 48.1126709 C173.35268038 51.32146626 178.11350454 54.5362288 182.875 57.75 C185.79972829 59.7237815 188.72452258 61.69746503 191.64944458 63.67095947 C193.45708166 64.89062788 195.26460347 66.11046715 197.07199097 67.33050537 C201.37310918 70.23284952 205.67890765 73.12747063 210 76 C209.51386865 81.38864239 207.62616555 84.75226567 204.6875 89.125 C204.29626953 89.73214844 203.90503906 90.33929688 203.50195312 90.96484375 C201.22509532 94.43110489 198.97105086 97.02894914 196 100 C181.81 90.43 167.62 80.86 153 71 C152.05355553 74.7857779 152.0306372 76.95261384 152.4375 80.75 C152.48841797 81.24242187 152.48841797 81.24242187 152.74609375 83.734375 C152.82988281 84.48203125 152.91367187 85.2296875 153 86 C145.95654608 86.24021524 139.26656178 85.3200071 132.3125 84.25 C131.1258374 84.07098145 129.9391748 83.89196289 128.71655273 83.70751953 C118.80776413 82.18493174 108.97526773 80.35529647 99.14160156 78.4140625 C93.37151207 77.29845924 87.56380501 76.38873578 81.75390625 75.5078125 C80.68011719 75.34023438 79.60632813 75.17265625 78.5 75 C77.5409375 74.855625 76.581875 74.71125 75.59375 74.5625 C73.1004602 74.02178655 71.21030667 73.25111699 69 72 C69 71.34 69 70.68 69 70 C68.34 70 67.68 70 67 70 C65.27014457 68.37659721 63.64091547 66.71140825 62 65 C60.5131777 63.50766074 59.02329749 62.0183651 57.53125 60.53125 C43.3125 46.3125 29.09375 32.09375 14.875 17.875 C14.39286545 17.3930014 13.9107309 16.91100281 13.41398621 16.41439819 C12.02543222 15.02543963 10.63831282 13.63504738 9.2512207 12.24462891 C7.8441308 10.8416591 6.42265396 9.45280549 4.98046875 8.0859375 C4.38878906 7.52132813 3.79710937 6.95671875 3.1875 6.375 C2.58292969 5.80523437 1.97835937 5.23546875 1.35546875 4.6484375 C0 3 0 3 0 0 Z " fill="#43C428" transform="translate(225,299)"/>
<path d="M0 0 C1.35648724 -0.01842849 2.71297607 -0.03673969 4.06946659 -0.05492496 C5.29045048 -0.07734225 6.51143436 -0.09975954 7.76941776 -0.12285614 C12.51982478 0.1774759 13.99263774 1.37927491 17.19275761 4.85338497 C17.65984638 5.33932629 18.12693516 5.8252676 18.60817814 6.32593441 C20.06265093 7.85653913 21.45553737 9.43085044 22.85291386 11.01354122 C23.84087743 12.06833143 24.83240072 13.11979917 25.82752323 14.1678381 C32.91541386 21.71047123 32.91541386 21.71047123 32.91541386 23.07604122 C31.26541386 23.07604122 29.61541386 23.07604122 27.91541386 23.07604122 C27.58541386 23.73604122 27.25541386 24.39604122 26.91541386 25.07604122 C24.93541386 24.41604122 22.95541386 23.75604122 20.91541386 23.07604122 C20.58541386 23.73604122 20.25541386 24.39604122 19.91541386 25.07604122 C19.58541386 24.74604122 19.25541386 24.41604122 18.91541386 24.07604122 C16.86513647 23.97924081 14.81146507 23.95417179 12.75890446 23.95578671 C12.10876521 23.95493228 11.45862596 23.95407786 10.78878552 23.95319754 C8.59455806 23.95154096 6.40040584 23.95706697 4.20618534 23.96251583 C2.63955531 23.96279769 1.07292515 23.96263999 -0.4937048 23.96207333 C-4.76004991 23.9617853 -9.02636716 23.96768279 -13.29270577 23.97464728 C-17.74635666 23.98088004 -22.20000811 23.98148456 -26.65366268 23.98267269 C-35.09326058 23.98578624 -43.53284559 23.99399994 -51.9724378 24.00402218 C-61.57808058 24.01518259 -71.18372396 24.02069359 -80.78937161 24.02571762 C-100.55445052 24.03618254 -120.31951707 24.05398283 -140.08458614 24.07604122 C-140.08458614 16.48604122 -140.08458614 8.89604122 -140.08458614 1.07604122 C-122.61145378 0.9450005 -105.13831709 0.8145575 -87.66517448 0.68488979 C-79.55066293 0.62465746 -71.43615301 0.56422025 -63.32164669 0.50328732 C-56.24256603 0.45013007 -49.16348254 0.39737089 -42.08439547 0.34507418 C-38.34198894 0.31741368 -34.59958405 0.28956442 -30.8571825 0.26123714 C-27.32205772 0.23448513 -23.78692932 0.20827238 -20.25179768 0.18244267 C-18.36173765 0.16850119 -16.47168166 0.15401544 -14.58162594 0.13950253 C-12.26323817 0.12275729 -9.9448227 0.10942956 -7.62639427 0.09984398 C-5.08291776 0.08275052 -2.54280516 0.04896955 0 0 Z " fill="#087639" transform="translate(204.08458614349365,275.92395877838135)"/>
<path d="M0 0 C0.01715844 1.1547967 0.03431688 2.30959339 0.05199528 3.49938393 C0.79125175 9.20686141 4.1778066 12.13267787 8.16807556 16.00985718 C8.92705959 16.77482218 9.68604363 17.53978719 10.46802717 18.32793295 C13.01434595 20.88577751 15.58486779 23.41780682 18.15600586 25.95068359 C19.9869007 27.77960384 21.81625536 29.61006704 23.6441803 31.44195557 C27.58177454 35.38321653 31.53196066 39.31147913 35.49104118 43.23115158 C41.21730431 48.90045509 46.92407361 54.58905646 52.62631459 60.28250904 C61.88168543 69.52256671 71.15257207 78.74689226 80.43334961 87.96142578 C89.4425141 96.90635185 98.44430983 105.85858798 107.4362793 114.82080078 C107.99046694 115.37314936 108.54465459 115.92549795 109.1156358 116.49458437 C111.89614087 119.26595322 114.6765011 122.03746732 117.4567889 124.80905414 C138.91116337 146.19594646 160.3862168 167.56193568 181.87830013 188.91093481 C182.52957711 189.55789489 183.18085408 190.20485497 183.85186672 190.87141991 C184.13372789 191.15138382 184.13372789 191.15138382 185.56011623 192.56817091 C186.70861031 193.71024034 187.85471374 194.85471374 189 196 C186.9375 198.5625 186.9375 198.5625 184 201 C179.28522016 201.15010366 176.64294141 200.02469727 173.21542358 196.97047043 C171.81245637 195.60046595 170.42578428 194.21365576 169.05224609 192.81414795 C168.28193526 192.05319706 167.51162443 191.29224617 166.71797085 190.50823617 C164.13866117 187.95287259 161.5813451 185.37657842 159.0234375 182.79980469 C157.17968364 180.96418005 155.33465557 179.1298345 153.4884491 177.29667664 C148.99646319 172.83136266 144.52083939 168.34998831 140.05088216 163.86263385 C136.4188362 160.21703782 132.78097651 156.57734007 129.1388855 152.94178009 C128.62055265 152.42436664 128.10221981 151.9069532 127.56817991 151.37386055 C126.51519932 150.32279831 125.46220528 149.27174954 124.40919793 148.22071412 C114.53790993 138.36653221 104.68509143 128.49404815 94.83849156 118.61520556 C86.38496857 110.13486039 77.91581524 101.67039225 69.43505859 93.21728516 C59.58848969 83.40280366 49.75169919 73.57869027 39.93038177 63.73893476 C38.88379659 62.69043824 37.83719884 61.64195426 36.79058838 60.59348297 C36.53310617 60.33553794 36.53310617 60.33553794 35.23009014 59.03017972 C31.59623246 55.39113615 27.95544783 51.75911233 24.31195068 48.1297226 C19.41234474 43.24867145 14.52882976 38.35200459 9.65590858 33.44431496 C7.86111536 31.64156158 6.0611474 29.84394381 4.2557888 28.05177116 C1.80039235 25.61266598 -0.63593327 23.15600839 -3.06811523 20.69378662 C-3.79386057 19.98142562 -4.5196059 19.26906461 -5.26734352 18.53511691 C-5.91243055 17.87438339 -6.55751759 17.21364988 -7.22215271 16.53289413 C-7.50447612 16.25008366 -7.50447612 16.25008366 -8.9332037 14.81889129 C-10 13 -10 13 -9.78689671 10.41908669 C-8.79017772 7.35496199 -7.32707046 5.89406146 -5 3.6875 C-4.278125 2.99011719 -3.55625 2.29273438 -2.8125 1.57421875 C-1 0 -1 0 0 0 Z " fill="#BAD7BA" transform="translate(143,166)"/>
<path d="M0 0 C1.17130463 0.00960754 2.34260925 0.01921509 3.54940796 0.02911377 C7.4127211 0.0620383 11.27591884 0.10239575 15.13916016 0.14282227 C17.8210115 0.16712978 20.50286335 0.19102467 23.1847229 0.21437073 C29.51694232 0.27039766 35.84909804 0.33177545 42.18124831 0.39509207 C49.39282114 0.46694046 56.60444483 0.53279879 63.8160789 0.59816253 C78.64519333 0.73270223 93.4742182 0.87552706 108.30322266 1.02172852 C108.30322266 8.28172852 108.30322266 15.54172852 108.30322266 23.02172852 C74.64322266 23.02172852 40.98322266 23.02172852 6.30322266 23.02172852 C5.97322266 23.68172852 5.64322266 24.34172852 5.30322266 25.02172852 C2.02450423 21.76765355 -1.25097379 18.51036498 -4.5234375 15.25 C-5.63810259 14.14037644 -6.75366177 13.03165031 -7.87011719 11.92382812 C-9.47092538 10.33509346 -11.06853347 8.74320235 -12.66552734 7.15063477 C-13.16862427 6.65269913 -13.67172119 6.15476349 -14.19006348 5.64173889 C-15.37809837 4.45389887 -16.5403375 3.24034974 -17.69677734 2.02172852 C-17.69677734 1.69172852 -17.69677734 1.36172852 -17.69677734 1.02172852 C-11.80659478 -0.27274267 -5.9935857 -0.070506 0 0 Z " fill="#1E8832" transform="translate(339.69677734375,275.978271484375)"/>
<path d="M0 0 C0.71542969 -0.04898438 1.43085938 -0.09796875 2.16796875 -0.1484375 C10.08923129 1.41943426 15.89142836 8.01594059 21.3125 13.5625 C22.03953125 14.28630859 22.7665625 15.01011719 23.515625 15.75585938 C28.8125 21.1074953 28.8125 21.1074953 28.8125 23.375 C29.38484375 23.6225 29.9571875 23.87 30.546875 24.125 C33.16260611 25.56816199 34.96023456 27.25716222 37.0625 29.375 C37.76890625 30.07625 38.4753125 30.7775 39.203125 31.5 C40.8125 33.375 40.8125 33.375 40.8125 35.375 C41.37420898 35.6121875 41.93591797 35.849375 42.51464844 36.09375 C45.33832658 37.66819357 47.28864842 39.59184545 49.578125 41.875 C50.46757812 42.761875 51.35703125 43.64875 52.2734375 44.5625 C53.19382812 45.490625 54.11421875 46.41875 55.0625 47.375 C55.99835938 48.303125 56.93421875 49.23125 57.8984375 50.1875 C58.78273438 51.074375 59.66703125 51.96125 60.578125 52.875 C61.39055664 53.6896875 62.20298828 54.504375 63.04003906 55.34375 C64.8125 57.375 64.8125 57.375 64.8125 59.375 C65.38484375 59.6225 65.9571875 59.87 66.546875 60.125 C69.16260611 61.56816199 70.96023456 63.25716222 73.0625 65.375 C73.41570312 65.725625 73.41570312 65.725625 75.203125 67.5 C76.8125 69.375 76.8125 69.375 76.8125 71.375 C77.40708008 71.6428833 78.00166016 71.9107666 78.61425781 72.18676758 C80.83489757 73.38710673 82.2368607 74.58202998 83.984375 76.38671875 C84.56703125 76.98033203 85.1496875 77.57394531 85.75 78.18554688 C86.348125 78.80494141 86.94625 79.42433594 87.5625 80.0625 C91.0426603 83.64660314 94.51133545 87.16503788 98.32519531 90.39648438 C103.89944303 95.24679706 109.08875211 100.48694818 114.3125 105.70703125 C115.39958699 106.79089887 116.48674647 107.87469378 117.57397461 108.9584198 C119.83477495 111.21327503 122.09354275 113.47014376 124.35107422 115.72827148 C127.24908676 118.62638655 130.15397288 121.51750801 133.06057739 124.40700245 C135.29952136 126.63486654 137.53394481 128.86722146 139.76708984 131.10089684 C140.8372382 132.16986334 141.90901258 133.23720453 142.98242188 134.3028965 C144.47351455 135.78425064 145.95820799 137.27173393 147.44140625 138.76098633 C148.28775635 139.60591141 149.13410645 140.45083649 150.00610352 141.32136536 C151.8125 143.375 151.8125 143.375 151.8125 145.375 C147.47233741 145.82544319 145.43223001 145.81734583 141.82275867 143.24100685 C140.79619785 142.2411321 139.78851199 141.221651 138.79658508 140.18740845 C138.2339797 139.62937291 137.67137432 139.07133736 137.09172028 138.49639165 C135.21247633 136.62398946 133.35936123 134.72771435 131.50512695 132.83056641 C130.16236843 131.48255867 128.81804916 130.13610407 127.47229004 128.79109192 C123.82260973 125.13487421 120.19478537 121.45763425 116.57018304 117.77657747 C112.77485875 113.93005601 108.95890546 110.10411884 105.14482117 106.2762146 C97.92189788 99.02119896 90.71615453 91.74937994 83.51711863 84.4706682 C70.62034067 71.43247847 57.69251253 58.42509248 44.76167649 45.42069185 C40.22284234 40.85474271 35.69082393 36.28216177 31.16443408 31.70387673 C28.35047941 28.8591096 25.5326022 26.01825046 22.71387482 23.17821312 C21.40595644 21.85854629 20.09980633 20.53712426 18.79554558 19.21384239 C17.0174237 17.41014806 15.23323848 15.61267207 13.44746399 13.81655884 C12.93083028 13.2893246 12.41419656 12.76209037 11.88190728 12.21887934 C7.99744965 8.33171725 5.48611148 6.62604172 0.0625 5.8125 C-3.61663105 5.91049778 -5.25924305 6.93607262 -7.94165039 9.40698242 C-8.63686798 10.04413177 -9.33208557 10.68128113 -10.04837036 11.33773804 C-13.53400272 14.6573808 -16.9723531 18.01720216 -20.37109375 21.42578125 C-21.11206802 22.1657988 -21.8530423 22.90581635 -22.61647034 23.66825867 C-24.16635859 25.2174716 -25.71500558 26.76792727 -27.26245117 28.31958008 C-29.63932249 30.70185505 -32.02154646 33.07868497 -34.40429688 35.45507812 C-35.91438365 36.9658249 -37.42416062 38.47688141 -38.93359375 39.98828125 C-39.64704453 40.69970779 -40.3604953 41.41113434 -41.0955658 42.14411926 C-41.7503743 42.80207993 -42.4051828 43.46004059 -43.07983398 44.13793945 C-43.65749008 44.71639114 -44.23514618 45.29484283 -44.83030701 45.89082336 C-47.33683016 48.63186544 -47.85176619 51.3838537 -47.75437927 55.08215332 C-45.3456816 64.82457066 -30.11901413 75.5381176 -23.16103935 82.44606018 C-20.64135826 84.94819132 -18.12537472 87.45398758 -15.61036682 89.96081543 C-8.46677353 97.08007565 -1.31737329 104.1934843 5.83618164 111.30273438 C10.22735839 115.6672202 14.61372574 120.03649109 18.99711418 124.40879822 C20.66707782 126.07253958 22.33893821 127.73437928 24.01269722 129.39430237 C26.33923162 131.70174634 28.65965693 134.01516874 30.97875977 136.33007812 C31.67527649 137.01783325 32.37179321 137.70558838 33.0894165 138.41418457 C33.71588577 139.04195801 34.34235504 139.66973145 34.98780823 140.31652832 C35.53656899 140.86214668 36.08532976 141.40776505 36.65071964 141.9699173 C37.8125 143.375 37.8125 143.375 37.8125 145.375 C35.3125 145.8125 35.3125 145.8125 31.8125 145.375 C29.99355888 144.06821632 29.99355888 144.06821632 28.0788269 142.32266235 C27.37616573 141.68373676 26.67350456 141.04481117 25.94955063 140.3865242 C22.59868183 137.23247928 19.30788114 134.02607561 16.05126953 130.77490234 C15.32179611 130.05039383 14.59232269 129.32588531 13.84074402 128.579422 C11.4561867 126.20933566 9.07541994 123.835492 6.6953125 121.4609375 C5.87770321 120.64615559 5.06009392 119.83137367 4.21770859 118.9919014 C-0.09910242 114.69001267 -4.41308234 110.38530933 -8.72460938 106.078125 C-13.17665848 101.63158648 -17.63792791 97.19441929 -22.10137749 92.75932884 C-25.53786119 89.34144548 -28.9676413 85.91689537 -32.39560318 82.49046707 C-34.03817827 80.85091899 -35.68325458 79.21387279 -37.33086777 77.57938766 C-39.62858063 75.29869882 -41.91667661 73.00876886 -44.20263672 70.71630859 C-44.8841832 70.0439769 -45.56572968 69.3716452 -46.26792908 68.67893982 C-50.76247785 64.1441647 -53.46512052 60.47884779 -53.5 53.875 C-53.51675781 53.1428125 -53.53351563 52.410625 -53.55078125 51.65625 C-52.76471081 46.72006576 -49.36758616 43.30357124 -45.94726562 39.87597656 C-45.09628296 39.01868958 -44.24530029 38.16140259 -43.36853027 37.27813721 C-42.45285278 36.36650818 -41.53717529 35.45487915 -40.59375 34.515625 C-39.64086157 33.56138809 -38.6882701 32.60685456 -37.73596191 31.65203857 C-35.74533945 29.65847633 -33.75116653 27.66855455 -31.75439453 25.68115234 C-29.19531323 23.13349597 -26.64535733 20.57692376 -24.09796906 18.01758194 C-22.13533962 16.0477294 -20.16797654 14.0826603 -18.19914246 12.11901093 C-16.79888314 10.72073319 -15.40264875 9.31842858 -14.00646973 7.91607666 C-13.15548706 7.07139832 -12.30450439 6.22671997 -11.42773438 5.35644531 C-10.67955444 4.60985657 -9.93137451 3.86326782 -9.16052246 3.09405518 C-6.31467746 0.61452711 -3.66130991 0.16848506 0 0 Z " fill="#3BA02D" transform="translate(176.1875,131.625)"/>
<path d="M0 0 C3.97948768 -0.29759647 6.00803799 0.08240218 9.0625 2.6875 C15.55321941 9.39907565 15.81727927 20.13440231 17 29 C18.32 29.33 19.64 29.66 21 30 C20.67 25.05 20.34 20.1 20 15 C23.59330378 16.43732151 26.10812982 17.57000881 29.22583008 19.63525391 C30.02965622 20.16456512 30.83348236 20.69387634 31.66166687 21.23922729 C32.52226212 21.81254791 33.38285736 22.38586853 34.26953125 22.9765625 C35.17536453 23.57493927 36.08119781 24.17331604 37.01448059 24.78982544 C39.95003119 26.73057521 42.88128759 28.67770567 45.8125 30.625 C47.81599637 31.95121975 49.81974016 33.2770658 51.82373047 34.60253906 C63.40946535 42.27017361 74.98498664 49.954079 86.52270508 57.69384766 C87.37372803 58.26409668 88.22475098 58.8343457 89.1015625 59.421875 C89.81650879 59.90237305 90.53145508 60.38287109 91.26806641 60.87792969 C93 62 93 62 95 63 C94.43065392 68.55112429 92.34725276 73.02204061 90 78 C89.76601753 77.82032684 89.76601753 77.82032684 88.58192444 76.91107178 C83.36850927 72.9493603 78.01611537 69.25635759 72.55859375 65.640625 C72.11592415 65.34598358 72.11592415 65.34598358 69.87574768 63.85491943 C67.06444996 61.98441914 64.25103177 60.11713779 61.4375 58.25 C59.57732994 57.01323741 57.71730276 55.77625991 55.85742188 54.5390625 C52.25212602 52.14108907 48.64573034 49.7447834 45.03857422 47.34960938 C41.81796453 45.2102531 38.60057665 43.06623097 35.38720703 40.91601562 C34.68870132 40.44887146 33.99019562 39.98172729 33.27052307 39.50042725 C31.98563221 38.64061403 30.70135984 37.77987553 29.41783142 36.91802979 C25.22102921 34.1105146 25.22102921 34.1105146 23 33 C23.165 33.5775 23.165 33.5775 24 36.5 C25.08401934 40.77500587 25.15701377 44.60361453 25 49 C23.68 48.67 22.36 48.34 21 48 C21.165 50.64 21.165 50.64 22 64 C20.35 63.34 18.7 62.68 17 62 C15.85546875 59.1796875 15.85546875 59.1796875 15.1875 55.875 C14.95417969 54.77929688 14.72085937 53.68359375 14.48046875 52.5546875 C14.32191406 51.71164062 14.16335938 50.86859375 14 50 C13.79842285 50.21466919 13.79842285 50.21466919 12.77832031 51.30102539 C10.94867245 53.23445139 9.09985825 55.14841056 7.25 57.0625 C6.61578125 57.73861328 5.9815625 58.41472656 5.328125 59.11132812 C5.01875 59.42875977 5.01875 59.42875977 3.453125 61.03515625 C2.88754883 61.6269165 2.32197266 62.21867676 1.73925781 62.82836914 C0 64 0 64 -2.04394531 63.81420898 C-4.77235623 62.67850624 -6.77375082 60.91704791 -9 59 C-8.38511719 58.40832031 -7.77023437 57.81664062 -7.13671875 57.20703125 C-6.32847656 56.41683594 -5.52023437 55.62664062 -4.6875 54.8125 C-4.28724609 54.42384766 -4.28724609 54.42384766 -2.26171875 52.45703125 C0 50 0 50 1.52734375 47.421875 C3.13879993 44.77173487 4.84672119 43.36963243 7.25 41.4375 C9.69452222 39.03334603 10.88468039 37.76133336 11.40234375 34.34375 C11.16647329 31.153066 10.63097737 28.13665053 10 25 C9.82855469 23.72640625 9.65710938 22.4528125 9.48046875 21.140625 C8.36932992 13.88596375 7.39587352 8.89495849 1.42578125 4.296875 C0.95527344 3.86890625 0.48476563 3.4409375 0 3 C0 2.01 0 1.02 0 0 Z " fill="#2AB82C" transform="translate(346,299)"/>
<path d="M0 0 C1.3551324 -0.02173812 2.71026606 -0.04339736 4.06540108 -0.06497192 C5.28466002 -0.09165199 6.50391897 -0.11833206 7.76012516 -0.14582062 C10.98342145 0.0936224 12.33096102 0.44187735 14.7917347 2.46005249 C15.63864876 3.47196655 16.48556282 4.48388062 17.35814095 5.52645874 C17.8151136 6.04272827 18.27208626 6.5589978 18.74290657 7.09091187 C21.92064095 10.74650103 21.92064095 10.74650103 21.92064095 12.08895874 C-31.53935905 12.08895874 -84.99935905 12.08895874 -140.07935905 12.08895874 C-140.07935905 8.45895874 -140.07935905 4.82895874 -140.07935905 1.08895874 C-122.60622669 0.95791802 -105.13309 0.82747502 -87.6599474 0.69780731 C-79.54543585 0.63757498 -71.43092592 0.57713777 -63.3164196 0.51620483 C-56.23733894 0.46304759 -49.15825545 0.41028841 -42.07916838 0.3579917 C-38.33676185 0.3303312 -34.59435696 0.30248194 -30.85195541 0.27415466 C-27.31683063 0.24740265 -23.78170223 0.2211899 -20.24657059 0.19536018 C-18.35651056 0.1814187 -16.46645457 0.16693296 -14.57639885 0.15242004 C-12.25782017 0.13567343 -9.93920956 0.12281009 -7.6205864 0.11419678 C-5.07836323 0.09607856 -2.54124301 0.05758609 0 0 Z " fill="#0C803D" transform="translate(204.07935905456543,275.9110412597656)"/>
<path d="M0 0 C0.00857922 0.57739835 0.00857922 0.57739835 0.05199528 3.49938393 C0.79125175 9.20686141 4.1778066 12.13267787 8.16807556 16.00985718 C8.92705959 16.77482218 9.68604363 17.53978719 10.46802717 18.32793295 C13.01434595 20.88577751 15.58486779 23.41780682 18.15600586 25.95068359 C19.9869007 27.77960384 21.81625536 29.61006704 23.6441803 31.44195557 C27.58177454 35.38321653 31.53196066 39.31147913 35.49104118 43.23115158 C41.21730431 48.90045509 46.92407361 54.58905646 52.62631459 60.28250904 C61.88168543 69.52256671 71.15257207 78.74689226 80.43334961 87.96142578 C89.4425141 96.90635185 98.44430983 105.85858798 107.4362793 114.82080078 C107.99046694 115.37314936 108.54465459 115.92549795 109.1156358 116.49458437 C111.89614087 119.26595322 114.6765011 122.03746732 117.4567889 124.80905414 C138.91116337 146.19594646 160.3862168 167.56193568 181.87830013 188.91093481 C182.52957711 189.55789489 183.18085408 190.20485497 183.85186672 190.87141991 C184.13372789 191.15138382 184.13372789 191.15138382 185.56011623 192.56817091 C186.70861031 193.71024034 187.85471374 194.85471374 189 196 C188.01 196.99 187.02 197.98 186 199 C182.99646924 197.6509577 180.89766638 196.15033904 178.5689497 193.83180523 C177.90549044 193.17602826 177.24203118 192.52025129 176.55846709 191.84460229 C175.83793806 191.12234029 175.11740902 190.40007829 174.37504578 189.65592957 C173.60321467 188.8900407 172.83138356 188.12415184 172.03616363 187.33505422 C169.44337355 184.75964954 166.85781946 182.17710146 164.2722168 179.59448242 C162.41819751 177.74971836 160.56378221 175.90535222 158.70899963 174.06135559 C153.6667074 169.04620891 148.63196298 164.02353037 143.59882331 158.99920058 C140.45739741 155.86330043 137.31450015 152.7288778 134.17133522 149.59472084 C125.4717263 140.91948946 116.77400689 132.2423735 108.08319378 123.55832958 C107.52717178 123.00274672 106.97114979 122.44716386 106.39827864 121.87474515 C106.119602 121.59628679 106.119602 121.59628679 104.70932931 120.18711871 C103.57990427 119.05858061 102.45047613 117.9300456 101.32104492 116.80151367 C100.76080904 116.24172065 100.20057316 115.68192763 99.62336043 115.10517118 C90.53544353 106.02515849 81.43409046 96.95874198 72.32688846 87.89807626 C62.9804908 78.59905364 53.64533382 69.28887077 44.32142574 59.96729738 C39.08454216 54.73224973 33.84289795 49.50217153 28.58884239 44.28435326 C23.65121721 39.38066354 18.72905592 34.46191339 13.81719017 29.53242302 C12.0078948 27.72157897 10.19341626 25.91589736 8.37353897 24.11568832 C5.89833654 21.66568503 3.44214136 19.19810895 0.99003601 16.72502136 C0.25835337 16.00945153 -0.47332927 15.2938817 -1.22718412 14.55662793 C-1.87760464 13.89302772 -2.52802517 13.2294275 -3.1981554 12.54571819 C-3.76746621 11.97760156 -4.33677702 11.40948493 -4.92333966 10.82415265 C-6 9 -6 9 -5.80011529 6.42292386 C-4.98169359 3.94456421 -3.06215128 0 0 0 Z " fill="#C5DEC5" transform="translate(143,166)"/>
<path d="M0 0 C2.61878967 -0.35748291 2.61878967 -0.35748291 6 0 C8.31228994 1.84828635 10.12679305 3.55627296 12.09936523 5.71972656 C12.67777161 6.32777634 13.25617798 6.93582611 13.85211182 7.56230164 C15.10735661 8.88386956 16.3559899 10.21174152 17.59872246 11.54508209 C19.58184905 13.66549014 21.58878782 15.76035365 23.60499573 17.8493042 C29.33547317 23.78983388 35.0434217 29.75001702 40.67797852 35.78173828 C68.89718748 65.92560001 68.89718748 65.92560001 85.1280365 67.28497314 C89.90871812 67.38426554 94.32694524 67.40255043 98.10644531 64.23413086 C98.83959961 63.48526611 99.57275391 62.73640137 100.328125 61.96484375 C101.12734375 61.15595703 101.9265625 60.34707031 102.75 59.51367188 C103.1625 59.08860352 103.1625 59.08860352 105.25 56.9375 C106.09046875 56.08349609 106.9309375 55.22949219 107.796875 54.34960938 C109.87147597 52.23964588 111.93875832 50.12300292 114 48 C114 51 114 51 112.25 53.04296875 C111.5075 53.75066406 110.765 54.45835937 110 55.1875 C109.2575 55.90292969 108.515 56.61835938 107.75 57.35546875 C107.1725 57.89816406 106.595 58.44085938 106 59 C108.25 61.0625 108.25 61.0625 111 63 C114.3191558 62.67129332 115.95433569 61.40703424 118.234375 59.05859375 C118.80800781 58.47529297 119.38164062 57.89199219 119.97265625 57.29101562 C120.55917969 56.67935547 121.14570313 56.06769531 121.75 55.4375 C122.35199219 54.82197266 122.95398438 54.20644531 123.57421875 53.57226562 C125.05634381 52.05485187 126.5290967 50.52829404 128 49 C129.58776994 52.01954845 130.32396688 54.33829127 130.625 57.75 C130.66238281 58.14960938 130.66238281 58.14960938 130.8515625 60.171875 C130.87605469 60.47351563 130.87605469 60.47351563 131 62 C131.61875 62.144375 132.2375 62.28875 132.875 62.4375 C135 63 135 63 137 64 C137.47721984 66.71308319 137.83986541 69.32973815 138.125 72.0625 C138.28045744 73.47850353 138.43658724 74.89443335 138.59326172 76.31030273 C138.72748535 77.52790283 138.86170898 78.74550293 139 80 C124.23936741 78.38698833 109.63592306 75.84824441 95 73.375 C92.47140522 72.95021683 89.94275975 72.52573529 87.4140625 72.1015625 C81.27545312 71.07118389 75.1374792 70.03708818 69 69 C69 68.34 69 67.68 69 67 C68.27296875 66.75378906 67.5459375 66.50757813 66.796875 66.25390625 C63.69280349 64.86227643 61.74093444 63.24527749 59.25 60.9375 C58.38117188 60.13441406 57.51234375 59.33132813 56.6171875 58.50390625 C53.48335847 55.50572057 50.41704296 52.44999293 47.3984375 49.3359375 C45.44756883 47.4359058 43.46942376 45.66699226 41.40478516 43.89599609 C36.80177737 39.87960086 32.45549851 35.63466108 28.125 31.328125 C27.31506592 30.52389099 26.50513184 29.71965698 25.6706543 28.89105225 C23.97518131 27.20496032 22.28110684 25.51746104 20.58837891 23.82861328 C17.98655012 21.23660087 15.37425255 18.65543542 12.76171875 16.07421875 C11.1113242 14.43034481 9.46156147 12.78583623 7.8125 11.140625 C7.0282666 10.3687384 6.2440332 9.59685181 5.43603516 8.80157471 C4.72108887 8.08362732 4.00614258 7.36567993 3.26953125 6.62597656 C2.63635986 5.99645081 2.00318848 5.36692505 1.35083008 4.71832275 C0 3 0 3 0 0 Z " fill="#30A928" transform="translate(232,299)"/>
<path d="M0 0 C39.6 0.33 79.2 0.66 120 1 C120 4.63 120 8.26 120 12 C105.94388989 12.20877208 91.88815016 12.36856855 77.83080387 12.46630955 C71.30290424 12.51322731 64.77606732 12.57683843 58.2487793 12.67895508 C51.94632505 12.77693429 45.64489116 12.83059834 39.34173393 12.85389519 C36.94030128 12.87049123 34.53892287 12.90290111 32.1379261 12.95157051 C12.26468477 13.33829315 12.26468477 13.33829315 7.54318237 9.97164917 C5.32832855 7.75613681 3.67405893 5.63150946 2 3 C1.34 2.67 0.68 2.34 0 2 C0 1.34 0 0.68 0 0 Z " fill="#269635" transform="translate(328,276)"/>
<path d="M0 0 C0.25222006 0.33347993 0.25222006 0.33347993 1.52860641 2.02109051 C4.65841205 5.79362102 8.07113171 9.20558571 11.54229736 12.66255188 C12.3052558 13.42636474 13.06821424 14.19017761 13.85429263 14.97713631 C16.40993162 17.53442164 18.96912692 20.08811781 21.52832031 22.6418457 C23.36161412 24.47485743 25.19468774 26.3080894 27.02755737 28.14152527 C30.97319241 32.08768408 34.92065093 36.03201111 38.86936188 39.97509193 C44.57849827 45.67609347 50.28486393 51.37986173 55.99056205 57.08430412 C65.24826285 66.33981752 74.50819355 75.5930966 83.76953125 84.8449707 C92.76484489 93.83110215 101.75910528 102.81828565 110.75195312 111.80688477 C111.30648341 112.36115233 111.86101369 112.91541989 112.43234792 113.48648343 C115.21431985 116.2671503 117.9962711 119.04783785 120.77821207 121.82853568 C143.84893716 144.88889788 166.92328302 167.94563391 190 191 C188.21346456 191.67396462 188.21346456 191.67396462 186 192 C184.30300587 190.93090236 184.30300587 190.93090236 182.58456707 189.21656609 C181.9245912 188.57024566 181.26461534 187.92392523 180.5846402 187.25801933 C179.86800212 186.53090975 179.15136403 185.80380018 178.41300964 185.05465698 C177.64526209 184.29541494 176.87751453 183.53617291 176.0865019 182.75392354 C173.50026021 180.19008276 170.93238014 177.60859401 168.36401367 175.02685547 C166.52049052 173.19173868 164.67591167 171.35768189 162.83035278 169.52461243 C158.32995435 165.05035274 153.8433025 160.56254644 149.36147287 156.06969433 C145.71971693 152.41939269 142.07331316 148.7737969 138.42351723 145.13153458 C137.90477791 144.61385015 137.3860386 144.09616572 136.85157991 143.56279389 C135.79786924 142.51125407 134.74415062 141.45972222 133.69042412 140.40819825 C123.80129727 130.53851919 113.92796692 120.653156 104.059669 110.76265718 C95.58620027 102.27093777 87.09826513 93.79390238 78.59985352 85.32714844 C68.73908243 75.50310773 58.8882119 65.66930244 49.05239278 55.82027543 C48.00407932 54.77062082 46.95574977 53.72098229 45.90740395 52.67136002 C45.39155456 52.15487997 44.87570518 51.63839992 44.344224 51.10626896 C40.70305382 47.46206674 37.05477561 43.82507477 33.40364647 40.19085312 C28.49189701 35.3015061 23.59608529 30.3966779 18.71078873 25.48090172 C16.91116249 23.67491812 15.10635929 21.87407698 13.29616356 20.07868767 C10.8340531 17.63509585 8.39099768 15.1739452 5.95207214 12.70724487 C5.22428045 11.99351963 4.49648876 11.27979439 3.74664277 10.5444411 C3.09970564 9.88247419 2.45276851 9.22050728 1.78622723 8.53848076 C1.21995418 7.97177567 0.65368114 7.40507059 0.07024831 6.82119262 C-1 5 -1 5 -0.6741392 2.27884495 C-0.45167327 1.52682612 -0.22920733 0.77480728 0 0 Z " fill="#AFD1B0" transform="translate(134,174)"/>
<path d="M0 0 C3.22545842 -0.36596612 4.59891405 -0.29537552 7.2558136 1.66127014 C8.02000107 2.43957687 8.78418854 3.21788361 9.5715332 4.01977539 C10.00890053 4.45894539 10.00890053 4.45894539 12.22224426 6.68141174 C13.16526905 7.65331948 14.10811003 8.62540558 15.05078125 9.59765625 C16.03220547 10.59096097 17.01482548 11.58308547 17.99858093 12.57408142 C20.58919213 15.18944963 23.16490484 17.81900317 25.73730469 20.45227051 C29.3438688 24.13904881 32.96992229 27.80666936 36.59428406 31.47593689 C38.52185705 33.42743259 40.44367676 35.38431653 42.36091614 37.34596252 C46.87943293 41.9473383 51.43558386 46.40261186 56.35490417 50.57563782 C58.71646342 52.62033068 60.84771882 54.86365052 63 57.125 C67.04780078 61.24799212 71.05320204 64.06856417 76 67 C76 67.66 76 68.32 76 69 C76.59941406 69.02578125 77.19882812 69.0515625 77.81640625 69.078125 C85.18363582 69.53923183 92.4602471 70.54914628 99.75 71.6875 C100.73170166 71.82381836 101.71340332 71.96013672 102.72485352 72.10058594 C109.52028568 73.21638267 113.90044494 75.36462578 119 80 C115.65665118 81.08697849 113.22391853 80.89983376 109.78125 80.29296875 C108.76546875 80.11830078 107.7496875 79.94363281 106.703125 79.76367188 C106.17460937 79.66860352 106.17460937 79.66860352 103.5 79.1875 C102.47390625 79.00896484 101.4478125 78.83042969 100.390625 78.64648438 C98.31242354 78.28488776 96.2347847 77.92004302 94.15771484 77.55200195 C89.9894999 76.8233539 85.81407431 76.14143567 81.63720703 75.46435547 C72.82566448 73.91283224 72.82566448 73.91283224 69 72 C69 71.34 69 70.68 69 70 C68.34 70 67.68 70 67 70 C65.27014457 68.37659721 63.64091547 66.71140825 62 65 C60.5131777 63.50766074 59.02329749 62.0183651 57.53125 60.53125 C43.3125 46.3125 29.09375 32.09375 14.875 17.875 C14.39286545 17.3930014 13.9107309 16.91100281 13.41398621 16.41439819 C12.02543222 15.02543963 10.63831282 13.63504738 9.2512207 12.24462891 C7.8441308 10.8416591 6.42265396 9.45280549 4.98046875 8.0859375 C4.38878906 7.52132813 3.79710937 6.95671875 3.1875 6.375 C2.58292969 5.80523437 1.97835937 5.23546875 1.35546875 4.6484375 C0 3 0 3 0 0 Z " fill="#2FB229" transform="translate(225,299)"/>
<path d="M0 0 C3.97948768 -0.29759647 6.00803799 0.08240218 9.0625 2.6875 C15.55321941 9.39907565 15.81727927 20.13440231 17 29 C18.98 29.33 20.96 29.66 23 30 C23.144375 30.886875 23.28875 31.77375 23.4375 32.6875 C23.76103986 34.59279026 24.11710864 36.4944587 24.5625 38.375 C25.15875597 41.95253582 25.06145478 45.3741679 25 49 C23.68 48.67 22.36 48.34 21 48 C21.165 50.64 21.165 50.64 22 64 C20.35 63.34 18.7 62.68 17 62 C15.85546875 59.1796875 15.85546875 59.1796875 15.1875 55.875 C14.95417969 54.77929688 14.72085937 53.68359375 14.48046875 52.5546875 C14.32191406 51.71164062 14.16335938 50.86859375 14 50 C13.79842285 50.21466919 13.79842285 50.21466919 12.77832031 51.30102539 C10.94867245 53.23445139 9.09985825 55.14841056 7.25 57.0625 C6.61578125 57.73861328 5.9815625 58.41472656 5.328125 59.11132812 C5.01875 59.42875977 5.01875 59.42875977 3.453125 61.03515625 C2.88754883 61.6269165 2.32197266 62.21867676 1.73925781 62.82836914 C0 64 0 64 -2.04394531 63.81420898 C-4.77235623 62.67850624 -6.77375082 60.91704791 -9 59 C-8.38511719 58.40832031 -7.77023437 57.81664062 -7.13671875 57.20703125 C-6.32847656 56.41683594 -5.52023437 55.62664062 -4.6875 54.8125 C-4.28724609 54.42384766 -4.28724609 54.42384766 -2.26171875 52.45703125 C0 50 0 50 1.52734375 47.421875 C3.13879993 44.77173487 4.84672119 43.36963243 7.25 41.4375 C9.69452222 39.03334603 10.88468039 37.76133336 11.40234375 34.34375 C11.16647329 31.153066 10.63097737 28.13665053 10 25 C9.82855469 23.72640625 9.65710938 22.4528125 9.48046875 21.140625 C8.36932992 13.88596375 7.39587352 8.89495849 1.42578125 4.296875 C0.95527344 3.86890625 0.48476563 3.4409375 0 3 C0 2.01 0 1.02 0 0 Z " fill="#24A32B" transform="translate(346,299)"/>
<path d="M0 0 C0.33 0 0.66 0 1 0 C1.01688087 1.15451912 1.03376173 2.30903824 1.05115414 3.49854279 C1.79117218 9.21157519 5.18777423 12.14253021 9.18153381 16.02331543 C9.94192898 16.78969157 10.70232414 17.55606771 11.48576158 18.34566736 C14.03674782 20.90817931 16.61193831 23.44487775 19.18774414 25.98242188 C21.021884 27.81458717 22.85448374 29.64829536 24.68565369 31.48342896 C28.62980029 35.43124204 32.5865373 39.36605889 36.55217171 43.2922821 C42.285724 48.96889029 47.99979715 54.66478185 53.70933586 60.36553031 C62.97365333 69.61453594 72.25348746 78.84780874 81.54321289 88.07128906 C90.5660677 97.02986858 99.58152455 105.99578729 108.5871582 114.97167969 C109.14247666 115.52515908 109.69779511 116.07863847 110.2699414 116.64888996 C113.05582832 119.42564147 115.8415707 122.20253793 118.62724125 124.97950649 C141.7291322 148.00885699 164.8562548 171.01271085 188 194 C187.01 194.33 186.02 194.66 185 195 C161.01535418 171.15258978 137.04646423 147.28947254 113.09866786 123.40505983 C110.27349337 120.58738988 107.44818838 117.7698508 104.62280273 114.95239258 C104.06030485 114.39146855 103.49780696 113.83054453 102.91826368 113.25262281 C93.80164992 104.16214014 84.67449824 95.08230868 75.5434305 86.00634728 C66.17923958 76.69820105 56.82641195 67.37875099 47.48410708 58.04863805 C41.71575339 52.28853049 35.93864555 46.53749727 30.15014065 40.79763945 C25.71769143 36.40055826 21.30110883 31.98785621 16.89036369 27.56900978 C15.07462561 25.75492886 13.25370009 23.9460238 11.42737198 22.14260483 C8.94322698 19.68811352 6.47805881 17.21603883 4.01695251 14.73847961 C3.28254139 14.02154554 2.54813027 13.30461147 1.79146427 12.56595212 C1.13857695 11.90111851 0.48568963 11.2362849 -0.18698215 10.55130482 C-0.75846125 9.98210404 -1.32994035 9.41290327 -1.91873699 8.82645398 C-3 7 -3 7 -2.80081362 4.40304345 C-2 2 -2 2 0 0 Z " fill="#CFE3CF" transform="translate(142,166)"/>
<path d="M0 0 C1.43770849 2.66039095 2.33643773 4.99183315 2.8515625 7.96875 C2.98046875 8.70480469 3.109375 9.44085938 3.2421875 10.19921875 C3.36851562 10.95847656 3.49484375 11.71773438 3.625 12.5 C3.7590625 13.25925781 3.893125 14.01851563 4.03125 14.80078125 C4.63320179 18.30807176 5 21.41258421 5 25 C-3.54092606 24.49451662 -11.67377292 22.93265709 -20 21 C-15.76183463 15.93376232 -11.32591037 11.19961931 -6.625 6.5625 C-6.30466797 6.24442383 -6.30466797 6.24442383 -4.68359375 4.63476562 C-3.12469121 3.08749668 -1.56348584 1.54263508 0 0 Z " fill="#DEEFE3" transform="translate(360,348)"/>
<path d="M0 0 C3.28878463 -0.57553731 5.30671092 -0.48569405 8.07421875 1.453125 C10.68962414 3.75429499 13.20809763 6.07855159 15.48046875 8.72265625 C17.47361572 10.39812941 18.55942469 10.20776049 21.125 10.125 C26.87597592 10.52161903 29.58733475 13.9063172 33.34765625 17.96875 C35 20 35 20 35 21 C29.76212961 22.42851011 25.10348384 22.98886525 20 21 C12.44597444 15.49901372 5.91000284 8.21029376 0 1 C0 0.67 0 0.34 0 0 Z " fill="#197C31" transform="translate(322,277)"/>
<path d="M0 0 C3.09960691 -0.42543624 5.91301287 -0.57492545 9 0 C13.57929339 3.565307 15.2814088 9.44345176 16 15 C16.47438302 20.32528824 16.75373879 25.66002001 17 31 C15.02 30.67 13.04 30.34 11 30 C10.95774292 29.6851062 10.95774292 29.6851062 10.74389648 28.09155273 C10.33857166 25.20172212 9.88848892 22.32054253 9.4375 19.4375 C9.30537109 18.44685547 9.17324219 17.45621094 9.03710938 16.43554688 C7.84801499 9.13110994 5.57764424 5.73360282 0 1 C0 0.67 0 0.34 0 0 Z " fill="#10A12E" transform="translate(351,299)"/>
<path d="M0 0 C4.01903433 -0.0230979 6.04183376 1.92068977 8.86083984 4.63769531 C15.375 11.30520397 15.375 11.30520397 15.375 12.75 C2.50583421 14.12338923 2.50583421 14.12338923 -2.625 10.81640625 C-8.625 4.80679087 -8.625 4.80679087 -8.625 1.75 C-5.77707912 1.03801978 -2.87639757 0.59511674 0 0 Z " fill="#137C37" transform="translate(210.625,275.25)"/>
<path d="M0 0 C1.32 0.66 2.64 1.32 4 2 C4.33 1.34 4.66 0.68 5 0 C5.50423557 2.74928442 6.00353426 5.49931143 6.5 8.25 C6.64308594 9.02730469 6.78617187 9.80460937 6.93359375 10.60546875 C7.00126953 10.98251953 7.00126953 10.98251953 7.34375 12.890625 C7.46943359 13.58188477 7.59511719 14.27314453 7.72460938 14.98535156 C8 17 8 17 8 21 C6.68 20.67 5.36 20.34 4 20 C3.34 20.99 2.68 21.98 2 23 C1.46804688 20.1058144 0.94913665 17.21028485 0.4375 14.3125 C0.28603516 13.49587891 0.13457031 12.67925781 -0.02148438 11.83789062 C-0.75603004 7.61852367 -1.28893273 4.19116536 0 0 Z " fill="#35B628" transform="translate(367,346)"/>
<path d="M0 0 C0.66 0.33 1.32 0.66 2 1 C1.64486328 1.26232422 1.64486328 1.26232422 -0.15234375 2.58984375 C-4.79937459 6.50690621 -8.05197466 9.33423298 -8.88671875 15.44921875 C-9.19939477 19.6420594 -9.16562524 23.80091314 -9 28 C-10.1581019 27.12008445 -11.3010893 26.22025664 -12.4375 25.3125 C-13.07558594 24.81363281 -13.71367187 24.31476563 -14.37109375 23.80078125 C-16.45995013 21.49151796 -16.79914596 20.09726058 -17 17 C-15.55297852 14.87182617 -15.55297852 14.87182617 -13.37890625 12.79296875 C-12.60869141 12.04208984 -11.83847656 11.29121094 -11.04492188 10.51757812 C-10.63532227 10.13311523 -10.63532227 10.13311523 -8.5625 8.1875 C-7.74716797 7.39923828 -6.93183594 6.61097656 -6.09179688 5.79882812 C-4.07395416 3.85178691 -2.04348191 1.92005649 0 0 Z " fill="#E8F5EF" transform="translate(170,138)"/>
<path d="M0 0 C7.22114047 -0.61196106 7.22114047 -0.61196106 10.625 2.0625 C11.40875 3.031875 12.1925 4.00125 13 5 C14.10188023 6.2728163 15.20609449 7.54361536 16.3125 8.8125 C17.2104053 9.87324959 18.10698344 10.93513145 19 12 C15.8318378 12.51842654 14.06023376 12.76631883 11 12 C8.34630495 9.88040839 6.1508243 7.59124866 3.8828125 5.06640625 C2 3 2 3 0 2 C0 1.34 0 0.68 0 0 Z " fill="#1F8A34" transform="translate(328,276)"/>
<path d="M0 0 C3.10066581 -0.42558158 5.91319653 -0.5832923 9 0 C11.47124366 1.94652754 12.81971412 4.10135673 14 7 C14.3125 10.4375 14.3125 10.4375 14 13 C13.175 12.67 13.175 12.67 9 11 C8.67 11.99 8.34 12.98 8 14 C7.896875 13.4946875 7.896875 13.4946875 7.375 10.9375 C6.10199099 6.35092343 3.25025026 3.3626803 0 0 Z " fill="#059B30" transform="translate(351,299)"/>
<path d="M0 0 C0 5.28 0 10.56 0 16 C-5.46875 11.703125 -5.46875 11.703125 -7 10 C-7 6 -7 6 -5.72265625 4.296875 C-5.17480469 3.78640625 -4.62695312 3.2759375 -4.0625 2.75 C-3.51722656 2.22921875 -2.97195313 1.7084375 -2.41015625 1.171875 C-1 0 -1 0 0 0 Z " fill="#EAF5F1" transform="translate(360,349)"/>
<path d="M0 0 C0.66 0.33 1.32 0.66 2 1 C2 3.64 2 6.28 2 9 C2.99 9.33 3.98 9.66 5 10 C3.56163249 9.88541307 2.12429034 9.75790884 0.6875 9.625 C0.28724609 9.59019531 0.28724609 9.59019531 -1.73828125 9.4140625 C-4 9 -4 9 -7 7 C-4.69 4.69 -2.38 2.38 0 0 Z " fill="#D4E8D6" transform="translate(347,361)"/>
<path d="M0 0 C0.33 0 0.66 0 1 0 C1 5.61 1 11.22 1 17 C0.01 17 -0.98 17 -2 17 C-1.4618629 11.30948637 -0.8599867 5.65134116 0 0 Z " fill="#000501" transform="translate(447,335)"/>
<path d="M0 0 C0.33 0 0.66 0 1 0 C1.33848652 1.89492006 1.67056911 3.79098466 2 5.6875 C2.185625 6.74324219 2.37125 7.79898437 2.5625 8.88671875 C2.95068074 11.64904062 3.08259976 14.21742043 3 17 C2.01 17 1.02 17 0 17 C0 11.39 0 5.78 0 0 Z " fill="#010602" transform="translate(64,335)"/>
<path d="M0 0 C2.9719385 1.12451727 5.33440687 2.22293791 8 4 C8 4.66 8 5.32 8 6 C4.74456771 5.65120368 3.98126893 4.97866739 1.75 2.4375 C1.1725 1.633125 0.595 0.82875 0 0 Z " fill="#3EB224" transform="translate(293,362)"/>
</svg>
