<?xml version="1.0" encoding="UTF-8"?>
<!-- Generator: visioncortex VTracer 0.6.12 -->
<svg version="1.1" xmlns="http://www.w3.org/2000/svg" width="512" height="512">
<path d="M0 0 C0.69351563 0.07347656 1.38703125 0.14695312 2.1015625 0.22265625 C7.50979271 1.92318224 11.57378487 5.88725837 15.50033569 9.82232666 C15.97915432 10.29943643 16.45797294 10.77654621 16.95130122 11.26811385 C18.5405117 12.85405305 20.12250834 14.44699063 21.70458984 16.04003906 C22.84788762 17.18390147 23.99162694 18.32732271 25.13577271 19.47033691 C28.23072149 22.56471319 31.3194761 25.66520572 34.40713835 28.76685047 C37.63865563 32.01089203 40.87585854 35.24924986 44.11245728 38.48822021 C50.23615681 44.61812952 56.3547413 50.75311806 62.47149527 56.88995719 C69.43731407 63.8781506 76.40883016 70.86064845 83.38082576 77.84267855 C97.71855638 92.20129979 112.04913309 106.56704273 126.375 120.9375 C130.07154926 119.38972669 132.4008934 117.14626834 135.20599365 114.31336975 C135.6774589 113.84008552 136.14892415 113.3668013 136.63467622 112.87917513 C138.21144032 111.29400557 139.78092272 109.70181804 141.35058594 108.10961914 C142.48057007 106.97088414 143.61103468 105.83262576 144.74194336 104.69480896 C147.17605009 102.24421477 149.60715929 99.79069821 152.03612518 97.33500862 C155.87964591 93.45011465 159.73240056 89.57446896 163.5869751 85.70054626 C174.54653156 74.68342027 185.49609049 63.65642561 196.43066406 52.61450195 C202.4702121 46.51582058 208.51872355 40.42617643 214.57715058 34.34624761 C218.40866967 30.50011 222.22885689 26.64316888 226.04102278 22.77785313 C228.41959307 20.37147728 230.80863925 17.97571806 233.20074463 15.58280373 C234.30481003 14.47418239 235.4045964 13.36127986 236.49964142 12.24374771 C248.04280871 0.4733008 248.04280871 0.4733008 256.9140625 -0.27734375 C257.60242188 -0.18582031 258.29078125 -0.09429687 259 0 C259.69351562 0.07347656 260.38703125 0.14695312 261.1015625 0.22265625 C268.1722514 2.4459141 273.28095055 8.50604791 278.38671875 13.578125 C278.81173927 13.99863129 278.81173927 13.99863129 280.96260071 16.12664795 C282.75292495 17.90250349 284.54048406 19.68115052 286.32543945 21.46240234 C289.05155463 24.17660247 291.79576995 26.87157493 294.54101562 29.56640625 C296.28239796 31.2983257 298.02267015 33.03136222 299.76171875 34.765625 C300.58048996 35.56486389 301.39926117 36.36410278 302.24284363 37.18756104 C307.42561082 42.41170864 310.94800703 46.89121941 311.58984375 54.4765625 C311.49832031 55.16492188 311.40679687 55.85328125 311.3125 56.5625 C311.23902344 57.25601563 311.16554688 57.94953125 311.08984375 58.6640625 C309.38931776 64.07229271 305.42524163 68.13628487 301.49017334 72.06283569 C301.01306357 72.54165432 300.53595379 73.02047294 300.04438615 73.51380122 C298.45844695 75.1030117 296.86550937 76.68500834 295.27246094 78.26708984 C294.12859853 79.41038762 292.98517729 80.55412694 291.84216309 81.69827271 C288.74778681 84.79322149 285.64729428 87.8819761 282.54564953 90.96963835 C279.30160797 94.20115563 276.06325014 97.43835854 272.82427979 100.67495728 C266.69437048 106.79865681 260.55938194 112.9172413 254.42254281 119.03399527 C247.4343494 125.99981407 240.45185155 132.97133016 233.46982145 139.94332576 C219.11120021 154.28105638 204.74545727 168.61163309 190.375 182.9375 C191.92277331 186.63404926 194.16623166 188.9633934 196.99913025 191.76849365 C197.47241448 192.2399589 197.9456987 192.71142415 198.43332487 193.19717622 C200.01849443 194.77394032 201.61068196 196.34342272 203.20288086 197.91308594 C204.34161586 199.04307007 205.47987424 200.17353468 206.61769104 201.30444336 C209.06828523 203.73855009 211.52180179 206.16965929 213.97749138 208.59862518 C217.86238535 212.44214591 221.73803104 216.29490056 225.61195374 220.1494751 C236.62907973 231.10903156 247.65607439 242.05859049 258.69799805 252.99316406 C264.79667942 259.0327121 270.88632357 265.08122355 276.96625239 271.13965058 C280.81239 274.97116967 284.66933112 278.79135689 288.53464687 282.60352278 C290.94102272 284.98209307 293.33678194 287.37113925 295.72969627 289.76324463 C296.83831761 290.86731003 297.95122014 291.9670964 299.06875229 293.06214142 C310.8391992 304.60530871 310.8391992 304.60530871 311.58984375 313.4765625 C311.49832031 314.16492188 311.40679687 314.85328125 311.3125 315.5625 C311.27576172 315.90925781 311.27576172 315.90925781 311.08984375 317.6640625 C308.8665859 324.7347514 302.80645209 329.84345055 297.734375 334.94921875 C296.89336243 335.7992598 296.05234985 336.64930084 295.18585205 337.52510071 C293.40999651 339.31542495 291.63134948 341.10298406 289.85009766 342.88793945 C287.13589753 345.61405463 284.44092507 348.35826995 281.74609375 351.10351562 C280.0141743 352.84489796 278.28113778 354.58517015 276.546875 356.32421875 C275.74763611 357.14298996 274.94839722 357.96176117 274.12493896 358.80534363 C268.90079136 363.98811082 264.42128059 367.51050703 256.8359375 368.15234375 C256.14757812 368.06082031 255.45921875 367.96929687 254.75 367.875 C254.40324219 367.83826172 254.40324219 367.83826172 252.6484375 367.65234375 C247.24020729 365.95181776 243.17621513 361.98774163 239.24966431 358.05267334 C238.77084568 357.57556357 238.29202706 357.09845379 237.79869878 356.60688615 C236.2094883 355.02094695 234.62749166 353.42800937 233.04541016 351.83496094 C231.90211238 350.69109853 230.75837306 349.54767729 229.61422729 348.40466309 C226.51927851 345.31028681 223.4305239 342.20979428 220.34286165 339.10814953 C217.11134437 335.86410797 213.87414146 332.62575014 210.63754272 329.38677979 C204.51384319 323.25687048 198.3952587 317.12188194 192.27850473 310.98504281 C185.31268593 303.9968494 178.34116984 297.01435155 171.36917424 290.03232145 C157.03144362 275.67370021 142.70086691 261.30795727 128.375 246.9375 C124.67845074 248.48527331 122.3491066 250.72873166 119.54400635 253.56163025 C119.0725411 254.03491448 118.60107585 254.5081987 118.11532378 254.99582487 C116.53855968 256.58099443 114.96907728 258.17318196 113.39941406 259.76538086 C112.26942993 260.90411586 111.13896532 262.04237424 110.00805664 263.18019104 C107.57394991 265.63078523 105.14284071 268.08430179 102.71387482 270.53999138 C98.87035409 274.42488535 95.01759944 278.30053104 91.1630249 282.17445374 C80.20346844 293.19157973 69.25390951 304.21857439 58.31933594 315.26049805 C52.2797879 321.35917942 46.23127645 327.44882357 40.17284942 333.52875239 C36.34133033 337.37489 32.52114311 341.23183112 28.70897722 345.09714687 C26.33040693 347.50352272 23.94136075 349.89928194 21.54925537 352.29219627 C20.44518997 353.40081761 19.3454036 354.51372014 18.25035858 355.63125229 C6.70719129 367.4016992 6.70719129 367.4016992 -2.1640625 368.15234375 C-2.85242188 368.06082031 -3.54078125 367.96929687 -4.25 367.875 C-4.94351563 367.80152344 -5.63703125 367.72804688 -6.3515625 367.65234375 C-13.4222514 365.4290859 -18.53095055 359.36895209 -23.63671875 354.296875 C-24.4867598 353.45586243 -25.33680084 352.61484985 -26.21260071 351.74835205 C-28.00292495 349.97249651 -29.79048406 348.19384948 -31.57543945 346.41259766 C-34.30155463 343.69839753 -37.04576995 341.00342507 -39.79101562 338.30859375 C-41.53239796 336.5766743 -43.27267015 334.84363778 -45.01171875 333.109375 C-45.83048996 332.31013611 -46.64926117 331.51089722 -47.49284363 330.68743896 C-52.67561082 325.46329136 -56.19800703 320.98378059 -56.83984375 313.3984375 C-56.74832031 312.71007812 -56.65679687 312.02171875 -56.5625 311.3125 C-56.48902344 310.61898438 -56.41554688 309.92546875 -56.33984375 309.2109375 C-54.63931776 303.80270729 -50.67524163 299.73871513 -46.74017334 295.81216431 C-46.26306357 295.33334568 -45.78595379 294.85452706 -45.29438615 294.36119878 C-43.70844695 292.7719883 -42.11550937 291.18999166 -40.52246094 289.60791016 C-39.37859853 288.46461238 -38.23517729 287.32087306 -37.09216309 286.17672729 C-33.99778681 283.08177851 -30.89729428 279.9930239 -27.79564953 276.90536165 C-24.55160797 273.67384437 -21.31325014 270.43664146 -18.07427979 267.20004272 C-11.94437048 261.07634319 -5.80938194 254.9577587 0.32745719 248.84100473 C7.3156506 241.87518593 14.29814845 234.90366984 21.28017855 227.93167424 C35.63879979 213.59394362 50.00454273 199.26336691 64.375 184.9375 C62.82722669 181.24095074 60.58376834 178.9116066 57.75086975 176.10650635 C57.27758552 175.6350411 56.8043013 175.16357585 56.31667513 174.67782378 C54.73150557 173.10105968 53.13931804 171.53157728 51.54711914 169.96191406 C50.40838414 168.83192993 49.27012576 167.70146532 48.13230896 166.57055664 C45.68171477 164.13644991 43.22819821 161.70534071 40.77250862 159.27637482 C36.88761465 155.43285409 33.01196896 151.58009944 29.13804626 147.7255249 C18.12092027 136.76596844 7.09392561 125.81640951 -3.94799805 114.88183594 C-10.04667942 108.8422879 -16.13632357 102.79377645 -22.21625239 96.73534942 C-26.06239 92.90383033 -29.91933112 89.08364311 -33.78464687 85.27147722 C-36.19102272 82.89290693 -38.58678194 80.50386075 -40.97969627 78.11175537 C-42.08831761 77.00768997 -43.20122014 75.9079036 -44.31875229 74.81285858 C-56.0891992 63.26969129 -56.0891992 63.26969129 -56.83984375 54.3984375 C-56.74832031 53.71007812 -56.65679687 53.02171875 -56.5625 52.3125 C-56.48902344 51.61898437 -56.41554688 50.92546875 -56.33984375 50.2109375 C-54.1165859 43.1402486 -48.05645209 38.03154945 -42.984375 32.92578125 C-42.14336243 32.0757402 -41.30234985 31.22569916 -40.43585205 30.34989929 C-38.65999651 28.55957505 -36.88134948 26.77201594 -35.10009766 24.98706055 C-32.38589753 22.26094537 -29.69092507 19.51673005 -26.99609375 16.77148438 C-25.2641743 15.03010204 -23.53113778 13.28982985 -21.796875 11.55078125 C-20.99763611 10.73201004 -20.19839722 9.91323883 -19.37493896 9.06965637 C-13.92520024 3.66308496 -8.21529348 -1.09229558 0 0 Z " fill="#E53834" transform="translate(128.625,72.0625)"/>
</svg>
