<?xml version="1.0" encoding="UTF-8"?>
<!-- Generator: visioncortex VTracer 0.6.12 -->
<svg version="1.1" xmlns="http://www.w3.org/2000/svg" width="512" height="512">
<path d="M0 0 C0.6440126 -0.00285004 0.6440126 -0.00285004 3.90310669 -0.01727295 C6.62437319 -0.02770208 9.34561095 -0.03359373 12.06689453 -0.03710938 C14.78708702 -0.0414414 17.50695287 -0.05514059 20.22705078 -0.078125 C83.98020266 -0.60517862 161.3726568 9.40058581 210.015625 54.93359375 C225.09973248 69.78760468 233.19212411 85.55306066 233.44894695 106.95945358 C233.45569956 109.16865844 233.45704699 111.37788406 233.45402527 113.58709717 C233.45629083 114.81068034 233.45855638 116.03426352 233.46089059 117.29492497 C233.46610457 120.66998273 233.46687912 124.04498696 233.46569622 127.4200449 C233.46549133 131.06843505 233.47101936 134.71681739 233.47575378 138.36520386 C233.48404179 145.50515747 233.48680779 152.64510283 233.48736616 159.78506085 C233.4878422 165.59184891 233.4899013 171.39863425 233.49306679 177.20542145 C233.50186827 193.68765439 233.50648695 210.16988084 233.50573631 226.65211615 C233.50571634 227.09591347 233.50571634 227.09591347 233.50561523 229.34179688 C233.50557435 230.23048176 233.50553347 231.11916664 233.50549135 232.03478137 C233.50508502 246.43285903 233.51465281 260.83091053 233.5287536 275.22898063 C233.54313537 290.03136263 233.5500228 304.83373188 233.54915982 319.63612103 C233.54882848 327.93907353 233.55154812 336.24199858 233.56233788 344.54494476 C233.5714666 351.61469643 233.5735987 358.68440821 233.56682845 365.75416324 C233.5635752 369.35678825 233.56346305 372.95933687 233.5721817 376.5619545 C233.58156187 380.47841062 233.57523954 384.39475663 233.56755066 388.31121826 C233.57269422 389.43449673 233.57783779 390.55777521 233.58313721 391.71509242 C233.49028099 413.22606498 226.66871678 430.57987069 211.58203125 446.09375 C178.0625849 478.93508742 127.20799378 491.84009641 82.1953125 498.453125 C81.1738916 498.60426758 80.1524707 498.75541016 79.10009766 498.91113281 C59.67383166 501.56848524 40.18425418 502.53996956 20.59082031 502.46386719 C17.32077516 502.45312652 14.05127903 502.46386146 10.78125 502.4765625 C-9.65106874 502.49145312 -29.92679022 501.13132652 -50.1171875 497.953125 C-50.46066727 497.89960373 -50.46066727 497.89960373 -52.19888306 497.62875366 C-97.67333456 490.49671642 -156.29983331 476.12512907 -185.10791016 436.64257812 C-195.82093621 421.51933449 -198.83835483 407.0637319 -198.81340027 388.81915283 C-198.81566583 387.59556966 -198.81793138 386.37198648 -198.82026559 385.11132503 C-198.82547957 381.73626727 -198.82625412 378.36126304 -198.82507122 374.9862051 C-198.82486633 371.33781495 -198.83039436 367.68943261 -198.83512878 364.04104614 C-198.84341679 356.90109253 -198.84618279 349.76114717 -198.84674116 342.62118915 C-198.8472172 336.81440109 -198.8492763 331.00761575 -198.85244179 325.20082855 C-198.86124327 308.71859561 -198.86586195 292.23636916 -198.86511131 275.75413385 C-198.86507136 274.86653921 -198.8650314 273.97894457 -198.86499023 273.06445312 C-198.86494935 272.17576824 -198.86490847 271.28708336 -198.86486635 270.37146863 C-198.86446002 255.97339097 -198.87402781 241.57533947 -198.8881286 227.17726937 C-198.90251037 212.37488737 -198.9093978 197.57251812 -198.90853482 182.77012897 C-198.90820348 174.46717647 -198.91092312 166.16425142 -198.92171288 157.86130524 C-198.9308416 150.79155357 -198.9329737 143.72184179 -198.92620345 136.65208676 C-198.9229502 133.04946175 -198.92283805 129.44691313 -198.9315567 125.8442955 C-198.94093687 121.92783938 -198.93461454 118.01149337 -198.92692566 114.09503174 C-198.93206922 112.97175327 -198.93721279 111.84847479 -198.94251221 110.69115758 C-198.84884835 88.99308909 -192.1696141 71.51480806 -176.9921875 56.015625 C-133.29789005 13.15286783 -58.56383633 0.20738564 0 0 Z M-164.90234375 75.078125 C-172.428685 84.07665168 -177.43364004 93.48960803 -177.01953125 105.3828125 C-175.49606435 118.02583665 -167.26288804 129.16784614 -157.6796875 137.203125 C-95.32489503 185.46238967 -3.18240047 190.27733985 72.22070312 180.9375 C117.20867965 174.9870903 170.87220774 162.90073111 202.15625 127.08203125 C209.12737088 117.8081755 212.35616607 108.71761329 211.3203125 97.203125 C207.53972697 80.08212939 193.41427835 67.70242796 179.35107422 58.48535156 C132.57079497 28.94820001 72.81682968 20.98967504 18.5078125 20.953125 C17.59601227 20.95245026 16.68421204 20.95177551 15.74478149 20.95108032 C-43.61800603 21.02011207 -121.51372851 29.57970395 -164.90234375 75.078125 Z M-176.6796875 149.203125 C-176.7729002 156.96646378 -176.84370973 164.72966828 -176.88693619 172.49342823 C-176.90769649 176.09958153 -176.93579801 179.70534835 -176.98144531 183.3112793 C-177.02532193 186.79968174 -177.04891119 190.28771554 -177.05919647 193.77637291 C-177.07004337 195.73652191 -177.10120069 197.69652526 -177.13287354 199.65644836 C-177.13665195 214.91940756 -171.41228588 225.36996957 -161.0546875 236.265625 C-125.30637653 270.52220317 -68.0696614 280.59797959 -20.6796875 285.203125 C-19.76251953 285.29883789 -18.84535156 285.39455078 -17.90039062 285.49316406 C-6.56428891 286.53698333 4.82113404 286.44596335 16.1953125 286.453125 C17.30469177 286.45413208 18.41407104 286.45513916 19.55706787 286.45617676 C37.66927761 286.44508199 55.36781873 285.71980463 73.3203125 283.203125 C74.37669922 283.05858887 75.43308594 282.91405273 76.52148438 282.76513672 C118.8863305 276.79145526 165.95808546 265.01124908 197.3203125 234.203125 C197.64386719 233.88601562 197.64386719 233.88601562 199.28125 232.28125 C206.65713035 224.48665156 211.45607515 214.91224552 211.43383789 204.14941406 C211.43380013 203.53893219 211.43380013 203.53893219 211.43360901 200.44952393 C211.43102837 199.79269623 211.43102837 199.79269623 211.41796875 196.46875 C211.41610271 195.1068324 211.41467968 193.74491412 211.41368103 192.38299561 C211.40987053 188.80570611 211.40005282 185.22845748 211.38897705 181.65118408 C211.37873134 177.99793043 211.37417665 174.34467014 211.36914062 170.69140625 C211.35842919 163.52862724 211.34137044 156.36588186 211.3203125 149.203125 C210.04438708 150.15672898 208.76892297 151.11095022 207.49365234 152.06542969 C206.78332855 152.596745 206.07300476 153.1280603 205.34115601 153.67547607 C203.72581807 154.89658461 202.13244341 156.14672805 200.546875 157.40625 C167.48513413 183.41879087 122.98208916 194.47518207 82.1328125 200.453125 C81.1030127 200.60426758 80.07321289 200.75541016 79.01220703 200.91113281 C58.6652912 203.6858546 38.33933972 204.58207263 17.8203125 204.515625 C16.64331787 204.51380219 15.46632324 204.51197937 14.25366211 204.51010132 C-4.56532626 204.4612229 -23.02478252 203.81961071 -41.6796875 201.203125 C-42.30198242 201.11732178 -42.30198242 201.11732178 -45.45117188 200.68310547 C-90.69569295 194.24180533 -137.22380447 181.78842528 -172.6796875 151.6953125 C-175.6796875 149.203125 -175.6796875 149.203125 -176.6796875 149.203125 Z M-176.6796875 251.203125 C-176.77288778 259.09688266 -176.84370321 266.99040558 -176.88693619 274.88457966 C-176.90769919 278.55126366 -176.93580594 282.21756776 -176.98144531 285.8840332 C-177.0253119 289.43078972 -177.04890918 292.97718377 -177.05919647 296.5241909 C-177.07004671 298.51757654 -177.10120574 300.51081893 -177.13287354 302.50398254 C-177.13655369 317.61388855 -171.66674116 328.14539988 -161.18945312 338.70507812 C-153.26069009 346.24806268 -144.29397589 352.05038424 -134.6796875 357.203125 C-134.00824707 357.56615723 -133.33680664 357.92918945 -132.64501953 358.30322266 C-57.34396817 398.25348791 46.5688612 397.95147577 126.6953125 374.328125 C149.32064606 367.3483583 172.00955632 358.59103747 190.3203125 343.203125 C191.11308594 342.58308594 191.90585937 341.96304688 192.72265625 341.32421875 C201.49535851 334.14110015 208.82149902 324.39749672 211.3203125 313.203125 C211.71293428 308.38458712 211.6704036 303.59348974 211.61328125 298.76171875 C211.60767436 297.38453131 211.60340944 296.00733782 211.60041809 294.63014221 C211.5890551 291.03468823 211.55966375 287.43960751 211.52630615 283.84429932 C211.49541895 280.16382901 211.48187323 276.4832974 211.46679688 272.80273438 C211.434784 265.60269585 211.3836938 258.40296306 211.3203125 251.203125 C210.85701035 251.60520676 210.39370819 252.00728851 209.91636658 252.42155457 C209.60786018 252.68791969 209.60786018 252.68791969 208.04663086 254.03588867 C207.74279228 254.29880455 207.74279228 254.29880455 206.20518494 255.62931824 C144.81776866 306.88580064 48.53640406 312.01614145 -27.6796875 305.203125 C-77.14122494 300.29257276 -131.36453487 288.46449732 -170.59375 255.9296875 C-172.57869041 254.28672185 -174.61343009 252.74162065 -176.6796875 251.203125 Z M-176.6796875 354.203125 C-176.78176092 361.26476586 -176.85143381 368.32621392 -176.89941406 375.38842773 C-176.91943259 377.78693756 -176.94665583 380.18539918 -176.98144531 382.58374023 C-177.03039363 386.04683382 -177.05275481 389.5092778 -177.0703125 392.97265625 C-177.09095764 394.03144485 -177.11160278 395.09023346 -177.13287354 396.18110657 C-177.13705376 410.2970881 -170.96124299 420.59701945 -161.5546875 430.765625 C-114.40012094 475.4608831 -32.62846973 482.58820023 28.59716797 481.3125 C73.20065899 480.00218105 118.53325122 472.96008163 159.3203125 454.203125 C160.02768555 453.88230957 160.73505859 453.56149414 161.46386719 453.23095703 C181.84807983 443.8925404 201.26830868 430.40861603 210.3203125 409.203125 C211.26499792 406.09629371 211.44186113 403.30877228 211.43383789 400.06738281 C211.43380013 399.5570047 211.43380013 399.5570047 211.43360901 396.97418213 C211.42844772 395.87926453 211.42328644 394.78434692 211.41796875 393.65625 C211.4165538 392.5299115 211.41513885 391.403573 211.41368103 390.24310303 C211.40808449 386.64641665 211.3955326 383.04979256 211.3828125 379.453125 C211.37779705 377.01432382 211.37323422 374.57552166 211.36914062 372.13671875 C211.3581162 366.15883292 211.34138148 360.18098341 211.3203125 354.203125 C207.66392093 356.61460155 204.21888261 359.05407341 200.8828125 361.890625 C151.78347476 401.30122102 78.54524063 409.45730585 17.9453125 409.390625 C17.43686295 409.39032288 17.43686295 409.39032288 14.86380005 409.38879395 C-0.74036242 409.36366376 -16.16561763 409.02191369 -31.6796875 407.203125 C-32.8150293 407.07421875 -33.95037109 406.9453125 -35.12011719 406.8125 C-81.94688782 401.34663539 -130.67360222 389.41283331 -168.6796875 360.203125 C-170.07645507 359.15172169 -171.47453708 358.1020628 -172.8737793 357.05395508 C-173.58825729 356.51861649 -174.30273529 355.98327789 -175.03886414 355.43171692 C-175.58033585 355.02628159 -176.12180756 354.62084625 -176.6796875 354.203125 Z " fill="#000000" transform="translate(238.6796875,-0.203125)"/>
</svg>
