<?xml version="1.0" encoding="UTF-8"?>
<!-- Generator: visioncortex VTracer 0.6.12 -->
<svg version="1.1" xmlns="http://www.w3.org/2000/svg" width="512" height="512">
<path d="M0 0 C2.05829319 0.0056419 4.11657813 0.00846145 6.17487717 0.0110817 C26.11301901 0.04797736 45.82953022 0.38824397 65.59019089 3.31805801 C66.80674362 3.49498184 68.02329636 3.67190567 69.27671432 3.85419083 C116.51600389 10.93091752 174.03459918 23.99065821 206.59019089 62.31805801 C214.72295753 73.31835393 219.91589591 84.71298547 218.09019089 98.56805801 C215.24955853 111.73151121 207.98397125 121.16480119 198.59019089 130.31805801 C197.85929245 131.04637833 197.12839401 131.77469864 196.37534714 132.52508926 C152.77339539 173.69117779 77.32731227 184.42900853 19.59019089 185.31805801 C18.40908737 185.33852188 17.22798386 185.35898575 16.01108932 185.38006973 C-54.45721225 186.47948223 -141.62075426 179.53210492 -195.40980911 128.31805801 C-195.72176224 128.04928848 -195.72176224 128.04928848 -197.30043411 126.68915176 C-206.29417558 118.60693814 -212.4342684 105.99282381 -213.36293411 94.00946426 C-213.60125173 80.32606081 -207.04778019 68.24990473 -197.80165482 58.58270645 C-163.63345075 24.28222353 -111.59404042 10.8163189 -65.15980911 4.06805801 C-64.12179153 3.916996 -63.08377396 3.76593399 -62.0143013 3.61029434 C-58.48359436 3.13009003 -54.95118076 2.71256032 -51.40980911 2.31805801 C-50.63249435 2.23085495 -49.8551796 2.14365189 -49.05430984 2.0538063 C-32.70635561 0.27684201 -16.43478651 -0.0457574 0 0 Z " fill="#000000" transform="translate(253.40980911254883,-0.3180580139160156)"/>
<path d="M0 0 C3.11229612 1.48812193 5.25843408 3.04061358 7.75 5.4375 C34.15388478 29.22246288 69.19597947 42.07838202 103 51 C103.52207031 51.13841309 103.52207031 51.13841309 106.1640625 51.83886719 C119.33862309 55.26045576 132.61203485 57.73371868 146.0625 59.75 C146.7253299 59.85114105 147.38815979 59.9522821 148.07107544 60.05648804 C170.45518246 63.42730149 192.88705438 64.38483605 215.5 64.3125 C216.72223267 64.31034485 217.94446533 64.3081897 219.20373535 64.30596924 C238.63933524 64.25119164 257.72926715 63.68171114 277 61 C277.70459351 60.90289734 278.40918701 60.80579468 279.13513184 60.70574951 C332.09284019 53.34816168 388.33715541 38.90797655 428.29296875 1.3984375 C430 0 430 0 432 0 C432.04662738 7.37225437 432.08202201 14.74447621 432.10362434 22.11684895 C432.11399967 25.54125034 432.12804241 28.96554981 432.15087891 32.38989258 C432.17704824 36.33934246 432.18652441 40.28875309 432.1953125 44.23828125 C432.20563507 45.45018631 432.21595764 46.66209137 432.22659302 47.91072083 C432.22891428 65.74134029 427.43601226 78.94406567 415 92 C379.12447487 126.73897269 324.87720523 138.5298535 277 145 C276.32271851 145.09194641 275.64543701 145.18389282 274.94763184 145.27862549 C235.62552257 150.51779002 194.3088503 150.16095447 155 145 C154.34588135 144.91419678 154.34588135 144.91419678 151.03564453 144.47998047 C106.97912864 138.53880906 59.16966126 126.69764086 24 98 C23.56365234 97.65195313 23.56365234 97.65195313 21.35546875 95.890625 C10.64342482 86.87342058 1.9027464 74.68052653 0.20620728 60.5247345 C-0.2283462 55.20420375 -0.12008815 49.86570886 -0.09765625 44.53125 C-0.0962413 43.25519897 -0.09482635 41.97914795 -0.09336853 40.66442871 C-0.08874011 37.29761844 -0.07977971 33.93087793 -0.06866455 30.56408691 C-0.0583733 27.11825152 -0.0538545 23.67240888 -0.04882812 20.2265625 C-0.03783326 13.48435597 -0.0211208 6.74218201 0 0 Z " fill="#000000" transform="translate(40,139)"/>
<path d="M0 0 C3.62374453 1.70032843 5.99274224 3.76346853 8.875 6.5625 C63.74961555 57.65456808 161.08559635 64.31462704 232.09344482 61.9296875 C294.87209604 59.53683116 366.60841652 50.54820609 417.8125 10.9375 C418.35946533 10.51484863 418.90643066 10.09219727 419.4699707 9.65673828 C422.38059836 7.3771894 425.11466423 5.02941348 427.6875 2.375 C428.450625 1.59125 429.21375 0.8075 430 0 C430.66 0 431.32 0 432 0 C432.05098645 7.7738157 432.08585332 15.54758776 432.10986328 23.3215332 C432.11987979 25.96250012 432.13349682 28.60345606 432.15087891 31.24438477 C432.17531897 35.05487793 432.18652697 38.86522361 432.1953125 42.67578125 C432.20563507 43.84393875 432.21595764 45.01209625 432.22659302 46.21565247 C432.22898917 63.98638467 427.55850098 76.26827831 415 89 C414.39671875 89.67546875 413.7934375 90.3509375 413.171875 91.046875 C374.57654194 132.99832398 297.34647827 142.84791184 243.60546875 145.31640625 C231.73657035 145.79240233 219.87917047 146.26541314 208 146 C207.10506836 145.98211426 206.21013672 145.96422852 205.28808594 145.94580078 C143.16030274 144.55275556 64.85819177 135.44579947 18 90 C17.29359375 89.36707031 16.5871875 88.73414063 15.859375 88.08203125 C6.58716232 79.499926 1.01061572 68.58770436 0 56 C-0.12987558 51.65562051 -0.11660699 47.3147367 -0.09765625 42.96875 C-0.0962413 41.73709106 -0.09482635 40.50543213 -0.09336853 39.2364502 C-0.08779612 35.32427484 -0.07524867 31.41215789 -0.0625 27.5 C-0.05691482 24.8385425 -0.05291916 22.17708556 -0.04882812 19.515625 C-0.03783572 13.01039693 -0.02112514 6.50520264 0 0 Z " fill="#000000" transform="translate(40,244)"/>
<path d="M0 0 C3.37275999 1.59773892 5.62080402 3.39663256 8.3125 6 C60.7570609 53.78112327 147.95352652 61.25560554 215.25 61.1875 C216.35493805 61.18689575 217.4598761 61.1862915 218.59829712 61.18566895 C235.80868285 61.16016632 252.87077326 60.82052143 270 59 C271.23057129 58.87109375 272.46114258 58.7421875 273.72900391 58.609375 C325.54546724 52.98154039 390.94479491 40.84575704 428.73046875 1.18359375 C430 0 430 0 432 0 C432.05099588 7.63139978 432.0858572 15.26275509 432.10986328 22.89428711 C432.11987841 25.48675173 432.13349439 28.07920518 432.15087891 30.67163086 C432.17532515 34.41262583 432.18652836 38.15347055 432.1953125 41.89453125 C432.20563507 43.04081497 432.21595764 44.18709869 432.22659302 45.36811829 C432.2289364 62.43693367 427.91093185 74.91240476 415.83984375 87.19140625 C415.37126953 87.65482422 415.37126953 87.65482422 413 90 C412.21753906 90.79277344 411.43507813 91.58554687 410.62890625 92.40234375 C359.31350743 141.64089675 268.19215728 146.43619568 201.34880066 145.233078 C138.21550964 143.80148027 61.04961573 132.64199249 14.52758789 86.02416992 C2.21623551 73.13722185 -0.17421611 59.42056465 -0.09765625 42.1875 C-0.0962413 40.97803711 -0.09482635 39.76857422 -0.09336853 38.52246094 C-0.08779709 34.68161485 -0.07524984 30.8408283 -0.0625 27 C-0.05748131 24.3867196 -0.05291905 21.77343827 -0.04882812 19.16015625 C-0.03783702 12.77341739 -0.02112743 6.38671295 0 0 Z " fill="#000000" transform="translate(40,347)"/>
</svg>
