<?xml version="1.0" encoding="UTF-8"?>
<!-- Generator: visioncortex VTracer 0.6.12 -->
<svg version="1.1" xmlns="http://www.w3.org/2000/svg" width="512" height="512">
<path d="M0 0 C3.42477351 1.28429007 4.45740322 2.60230644 6.07421875 5.8359375 C7.16828722 8.54110257 8.05393679 11.281564 8.9375 14.0625 C12.48586731 24.92429612 16.8909505 29.67064862 27 35.125 C29.73828327 36.5033672 32.49409353 37.8448056 35.25 39.1875 C46.3908635 44.65592338 53.56624244 51.26657659 58.19921875 63.21875 C59 66.125 59 66.125 59 70.125 C59.75023437 69.53332031 60.50046875 68.94164062 61.2734375 68.33203125 C74.79046833 57.89633868 86.95382245 53.23896497 104.1875 52.6875 C119.18225727 52.14998879 127.96936302 46.57403003 138.25 35.6875 C140.66621818 33.22266576 141.91219502 32.15943332 145.1875 30.875 C148.89340735 31.20441399 150.40311527 32.52811527 153 35.125 C158.38120075 45.8874015 152.26547515 64.06338517 148.83203125 74.765625 C140.68028123 97.03124641 125.58003029 114.07862494 104 124.125 C93.93015429 128.25180977 83.69208183 130.39684486 73 132.125 C73.00112793 132.68968994 73.00225586 133.25437988 73.00341797 133.83618164 C72.75588429 187.81466806 53.0444076 242.87895989 17.44140625 283.47753906 C15.31395651 285.90911611 13.2107091 288.36124028 11.10742188 290.8137207 C10.06389749 292.03016202 9.01843468 293.24494414 7.97070312 294.45776367 C5.5423743 297.27694801 3.18202235 300.10997588 1 303.125 C11.84273322 309.66060258 23.29380334 314.0640829 35.18237305 318.2668457 C36.40609619 318.70988037 37.62981934 319.15291504 38.890625 319.609375 C39.99438477 319.99834961 41.09814453 320.38732422 42.23535156 320.78808594 C45.18963782 322.21670406 46.36604781 323.31823864 48 326.125 C48.92089276 329.98703865 48.75959728 333.5730385 47.00390625 337.16015625 C41.60414172 344.36494121 33.44227735 344.99412986 25.0625 346.3125 C5.86238302 348.58265411 -15.5259446 348.1754854 -33.66015625 340.89453125 C-36.37973224 340.0001131 -38.15659314 339.71246203 -41 340.125 C-43.4375 341.8125 -43.4375 341.8125 -46 344.125 C-81.89659192 374.74972928 -131.67204992 380.92783177 -177.18554688 377.9140625 C-227.11742389 373.5112517 -274.38216767 347.28111658 -307.6875 310.1875 C-308.80442191 308.84383455 -309.9070056 307.48820014 -311 306.125 C-311.81597656 305.135 -312.63195312 304.145 -313.47265625 303.125 C-340.07671331 270.45552263 -357.80033019 229.04078112 -358.23828125 186.48828125 C-358.24812042 185.69470718 -358.25795959 184.90113312 -358.26809692 184.08351135 C-358.59880522 150.51252136 -358.59880522 150.51252136 -354 134.125 C-353.75330566 133.24263672 -353.50661133 132.36027344 -353.25244141 131.45117188 C-344.21872442 100.24076106 -326.0429583 70.90255094 -300 51.125 C-299.23429687 50.53203125 -298.46859375 49.9390625 -297.6796875 49.328125 C-274.97882276 32.55257072 -246.44560061 23.99943501 -218.3359375 23.95703125 C-217.54079742 23.95370285 -216.74565735 23.95037445 -215.92642212 23.94694519 C-214.25417654 23.94191934 -212.58192109 23.93953551 -210.90966797 23.93969727 C-208.4018422 23.93752327 -205.89446633 23.91935513 -203.38671875 23.90039062 C-195.76332902 23.87545175 -188.4004026 24.07867307 -180.8515625 25.19921875 C-169.64221221 26.84202656 -161.96944799 24.29478202 -151.4375 20.3125 C-141.38722766 16.61283263 -131.51179588 13.23000698 -121 11.125 C-120.09765625 10.93550781 -119.1953125 10.74601562 -118.265625 10.55078125 C-113.54999046 9.93594373 -108.87596505 9.90044024 -104.125 9.875 C-103.16980469 9.854375 -102.21460938 9.83375 -101.23046875 9.8125 C-95.09809667 9.77885187 -90.58633043 10.55865795 -85 13.125 C-84 14.125 -84 14.125 -83.6484375 16.51171875 C-84 19.125 -84 19.125 -85.9765625 20.64453125 C-86.85054688 21.07121094 -87.72453125 21.49789062 -88.625 21.9375 C-94.85242818 25.35993929 -98.06130646 29.51198023 -101.375 35.6875 C-103.06591842 42.28208183 -101.7568714 46.93385268 -98.6015625 52.77734375 C-96.02140972 56.55947014 -92.80050091 58.66889397 -89 61.125 C-87.20123102 62.40675754 -85.40996755 63.69909145 -83.625 65 C-82.68398438 65.68578125 -81.74296875 66.3715625 -80.7734375 67.078125 C-67.49095319 76.88097257 -55.72140032 88.27333253 -44.15234375 100.015625 C-43.77571091 100.3973436 -43.77571091 100.3973436 -41.86972046 102.32907104 C-38.77781253 105.46616181 -35.68813418 108.60520774 -32.61303711 111.75878906 C-21.1123411 123.53685836 -9.67031463 134.12787194 5.0625 141.75 C5.67287109 142.08644531 6.28324219 142.42289063 6.91210938 142.76953125 C10.49356559 144.66264187 12.99344577 145.27757381 17 145.125 C18.17958694 141.90040728 19.34134131 138.66966564 20.5 135.4375 C20.66693359 134.98149414 20.66693359 134.98149414 21.51171875 132.67382812 C21.82753906 131.78759766 22.14335937 130.90136719 22.46875 129.98828125 C22.76201172 129.17657471 23.05527344 128.36486816 23.35742188 127.52856445 C24.04326336 124.96317335 24.11519796 122.76838181 24 120.125 C23.42507813 119.856875 22.85015625 119.58875 22.2578125 119.3125 C5.96358353 110.7425249 -6.99437578 93.2997556 -13 76.125 C-20.22522967 52.37090449 -19.84297506 27.95396126 -8.5625 5.515625 C-6.18925904 1.88456633 -4.39080382 0.18295016 0 0 Z M-322 141.125 C-324.47591761 145.24176242 -324.19011674 149.35549801 -323.875 154 C-323.82496826 154.77883545 -323.77493652 155.5576709 -323.72338867 156.36010742 C-320.13993563 203.71653162 -300.31904075 248.53146047 -268 283.125 C-267.20207031 283.98867188 -266.40414062 284.85234375 -265.58203125 285.7421875 C-249.16610023 302.87833335 -226.28154322 321.50266124 -201.59033203 322.65820312 C-194.68015664 322.75505211 -189.72128243 322.01547205 -184 318.125 C-182 316.125 -182 316.125 -181.4375 313.25 C-181.54280598 308.18478229 -184.6645675 304.36309501 -187.2421875 300.18359375 C-191.01898456 293.61196687 -192.91213608 286.68269894 -192 279.125 C-190.5625 276.5625 -190.5625 276.5625 -188 275.125 C-166.69356933 273.43263585 -141.77136509 297.11583535 -126.04321289 309.21289062 C-108.50867089 322.6949703 -92.40234763 334.32868049 -69.2890625 334.22265625 C-68.66708984 334.22104492 -68.66708984 334.22104492 -65.51953125 334.21289062 C-64.23433594 334.20451172 -62.94914062 334.19613281 -61.625 334.1875 C-60.31660156 334.18298828 -59.00820313 334.17847656 -57.66015625 334.17382812 C-54.44005719 334.16207594 -51.2200523 334.14564543 -48 334.125 C-51.54382774 330.42967033 -55.28839121 327.27349616 -59.375 324.1875 C-70.12286392 315.89875886 -80.45265216 306.70053208 -89 296.125 C-89.94716564 294.98895675 -90.89517093 293.85361333 -91.84375 292.71875 C-103.99933138 278.07877572 -114.75347887 262.60360877 -125.2578125 246.75048828 C-136.66514037 229.54830417 -148.71112571 213.05256617 -163 198.125 C-163.47018555 197.62758301 -163.94037109 197.13016602 -164.42480469 196.61767578 C-172.02194934 188.61161237 -180.15944153 181.71750279 -189 175.125 C-189.55913086 174.69977051 -190.11826172 174.27454102 -190.69433594 173.83642578 C-217.45210549 153.5220771 -289.28172218 116.4894101 -322 141.125 Z M-90.375 156 C-92 158.125 -92 158.125 -92.5 160.6875 C-92 163.125 -92 163.125 -90.359375 164.72265625 C-87.42856524 166.46464417 -85.1336855 166.6712533 -81.75 167 C-76.02020327 167.78543281 -71.16000645 168.90351563 -67 173.125 C-63.80861324 177.99079148 -63.85030179 181.79520221 -64.5 187.375 C-65.22889691 195.83547543 -64.62428406 202.11138908 -59.875 209.375 C-52.19398909 216.72205392 -44.83461445 220.62072529 -34.1484375 220.44921875 C-28.59757973 219.87760436 -23.81523646 217.95998428 -19.16015625 214.92578125 C-18 213.125 -18 213.125 -18.12890625 209.84765625 C-21.85285689 193.93319453 -33.97085368 179.65638431 -45 168.125 C-45.65613281 167.40570313 -46.31226563 166.68640625 -46.98828125 165.9453125 C-55.03502475 157.39867111 -65.24730694 151.17834773 -77.1875 150.75 C-82.64696719 150.93621438 -86.10454028 152.62858443 -90.375 156 Z M-89 181.125 C-89.57287294 184.06097381 -89.45090926 185.39853509 -87.875 187.9375 C-85.12844028 189.67698782 -83.18153026 189.52269128 -80 189.125 C-78.125 187.9375 -78.125 187.9375 -77 186.125 C-76.5 183.6875 -76.5 183.6875 -77 181.125 C-81.98740882 176.26883878 -84.01259118 176.26883878 -89 181.125 Z " fill="#526CFD" transform="translate(358,74.875)"/>
</svg>
