<?xml version="1.0" encoding="UTF-8"?>
<!-- Generator: visioncortex VTracer 0.6.12 -->
<svg version="1.1" xmlns="http://www.w3.org/2000/svg" width="512" height="512">
<path d="M0 0 C0.87398437 -0.0309375 1.74796875 -0.061875 2.6484375 -0.09375 C12.23047008 1.81762658 19.13758043 10.60643879 25.73242188 17.2668457 C26.93491208 18.47018323 28.13806545 19.67285837 29.34182739 20.87492371 C32.59180189 24.1240409 35.83247247 27.38229438 39.07150078 30.64231896 C42.46402294 34.05365214 45.86509787 37.45643679 49.26525879 40.8601532 C55.69548828 47.29969016 62.11803496 53.74683308 68.53782892 60.1967718 C75.84994224 67.54246954 83.17062177 74.87960483 90.4920187 82.21604788 C105.5458692 97.30121801 120.58897735 112.3970614 135.625 127.5 C139.4244393 125.92703328 141.81657904 123.54735923 144.69723511 120.64808655 C144.94592395 120.39919378 144.94592395 120.39919378 146.20444024 119.13964552 C147.86878459 117.47157267 149.52586656 115.79646797 151.18310547 114.12133789 C152.37546294 112.92350459 153.56828465 111.72613326 154.76153564 110.52919006 C157.3299885 107.9510257 159.89534924 105.36983681 162.45843124 102.78633308 C166.51229586 98.70065894 170.57430654 94.62315047 174.63772583 90.54698181 C184.73018052 80.42043752 194.81333597 70.2846472 204.89160156 60.14398193 C212.72246372 52.26466104 220.55648758 44.38855015 228.40112984 36.52294534 C232.44013197 32.4724241 236.4720901 28.41505849 240.49890494 24.35242283 C243.00736152 21.82475803 245.5220687 19.30338434 248.03855133 16.78371239 C249.20296154 15.61528717 250.36478812 14.44428053 251.5237999 13.27050018 C253.10858056 11.66626046 254.70242733 10.07159254 256.29879761 8.47889709 C257.18774153 7.58459016 258.07668545 6.69028322 258.99256706 5.76887608 C263.28666125 2.06782545 267.31188762 0.06672273 273 0 C273.43699219 -0.01546875 273.43699219 -0.01546875 275.6484375 -0.09375 C283.60831859 1.4940478 289.44420927 7.87394204 294.95703125 13.43359375 C295.71545822 14.18915054 296.47388519 14.94470734 297.2552948 15.72315979 C298.84632848 17.31216332 300.43362555 18.90491624 302.01733398 20.5012207 C304.43731704 22.93731582 306.87295344 25.35693096 309.31054688 27.77539062 C310.86033817 29.32716366 312.40919896 30.87986669 313.95703125 32.43359375 C314.68203323 33.15252304 315.40703522 33.87145233 316.15400696 34.61216736 C321.22238836 39.75158864 325.03664168 44.34245323 325.125 51.875 C325.14046875 52.31199219 325.14046875 52.31199219 325.21875 54.5234375 C323.30737342 64.10547008 314.51856121 71.01258043 307.8581543 77.60742188 C306.65481677 78.80991208 305.45214163 80.01306545 304.25007629 81.21682739 C301.0009591 84.46680189 297.74270562 87.70747247 294.48268104 90.94650078 C291.07134786 94.33902294 287.66856321 97.74009787 284.2648468 101.14025879 C277.82530984 107.57048828 271.37816692 113.99303496 264.9282282 120.41282892 C257.58253046 127.72494224 250.24539517 135.04562177 242.90895212 142.3670187 C227.82378199 157.4208692 212.7279386 172.46397735 197.625 187.5 C199.19796672 191.2994393 201.57764077 193.69157904 204.47691345 196.57223511 C204.97469899 197.0696128 205.47248453 197.56699049 205.98535448 198.07944024 C207.65342733 199.74378459 209.32853203 201.40086656 211.00366211 203.05810547 C212.20149541 204.25046294 213.39886674 205.44328465 214.59580994 206.63653564 C217.1739743 209.2049885 219.75516319 211.77034924 222.33866692 214.33343124 C226.42434106 218.38729586 230.50184953 222.44930654 234.57801819 226.51272583 C244.70456248 236.60518052 254.8403528 246.68833597 264.98101807 256.76660156 C272.86033896 264.59746372 280.73644985 272.43148758 288.60205466 280.27612984 C292.6525759 284.31513197 296.70994151 288.3470901 300.77257717 292.37390494 C303.30024197 294.88236152 305.82161566 297.3970687 308.34128761 299.91355133 C309.50971283 301.07796154 310.68071947 302.23978812 311.85449982 303.3987999 C313.45873954 304.98358056 315.05340746 306.57742733 316.64610291 308.17379761 C317.54040984 309.06274153 318.43471678 309.95168545 319.35612392 310.86756706 C323.05717455 315.16166125 325.05827727 319.18688762 325.125 324.875 C325.1559375 325.74898438 325.186875 326.62296875 325.21875 327.5234375 C323.6309522 335.48331859 317.25105796 341.31920927 311.69140625 346.83203125 C310.93584946 347.59045822 310.18029266 348.34888519 309.40184021 349.1302948 C307.81283668 350.72132848 306.22008376 352.30862555 304.6237793 353.89233398 C302.18768418 356.31231704 299.76806904 358.74795344 297.34960938 361.18554688 C295.79783634 362.73533817 294.24513331 364.28419896 292.69140625 365.83203125 C291.97247696 366.55703323 291.25354767 367.28203522 290.51283264 368.02900696 C285.37341136 373.09738836 280.78254677 376.91164168 273.25 377 C272.37601562 377.0309375 271.50203125 377.061875 270.6015625 377.09375 C261.01952992 375.18237342 254.11241957 366.39356121 247.51757812 359.7331543 C246.31508792 358.52981677 245.11193455 357.32714163 243.90817261 356.12507629 C240.65819811 352.8759591 237.41752753 349.61770562 234.17849922 346.35768104 C230.78597706 342.94634786 227.38490213 339.54356321 223.98474121 336.1398468 C217.55451172 329.70030984 211.13196504 323.25316692 204.71217108 316.8032282 C197.40005776 309.45753046 190.07937823 302.12039517 182.7579813 294.78395212 C167.7041308 279.69878199 152.66102265 264.6029386 137.625 249.5 C133.8255607 251.07296672 131.43342096 253.45264077 128.55276489 256.35191345 C128.0553872 256.84969899 127.55800951 257.34748453 127.04555976 257.86035448 C125.38121541 259.52842733 123.72413344 261.20353203 122.06689453 262.87866211 C120.87453706 264.07649541 119.68171535 265.27386674 118.48846436 266.47080994 C115.9200115 269.0489743 113.35465076 271.63016319 110.79156876 274.21366692 C106.73770414 278.29934106 102.67569346 282.37684953 98.61227417 286.45301819 C88.51981948 296.57956248 78.43666403 306.7153528 68.35839844 316.85601807 C60.52753628 324.73533896 52.69351242 332.61144985 44.84887016 340.47705466 C40.80986803 344.5275759 36.7779099 348.58494151 32.75109506 352.64757717 C30.24263848 355.17524197 27.7279313 357.69661566 25.21144867 360.21628761 C24.04703846 361.38471283 22.88521188 362.55571947 21.7262001 363.72949982 C20.14141944 365.33373954 18.54757267 366.92840746 16.95120239 368.52110291 C16.06225847 369.41540984 15.17331455 370.30971678 14.25743294 371.23112392 C9.96333875 374.93217455 5.93811238 376.93327727 0.25 377 C-0.18699219 377.01546875 -0.18699219 377.01546875 -2.3984375 377.09375 C-10.35831859 375.5059522 -16.19420927 369.12605796 -21.70703125 363.56640625 C-22.46545822 362.81084946 -23.22388519 362.05529266 -24.0052948 361.27684021 C-25.59632848 359.68783668 -27.18362555 358.09508376 -28.76733398 356.4987793 C-31.18731704 354.06268418 -33.62295344 351.64306904 -36.06054688 349.22460938 C-37.61033817 347.67283634 -39.15919896 346.12013331 -40.70703125 344.56640625 C-41.43203323 343.84747696 -42.15703522 343.12854767 -42.90400696 342.38783264 C-47.97238836 337.24841136 -51.78664168 332.65754677 -51.875 325.125 C-51.9059375 324.25101562 -51.936875 323.37703125 -51.96875 322.4765625 C-50.05737342 312.89452992 -41.26856121 305.98741957 -34.6081543 299.39257812 C-33.40481677 298.19008792 -32.20214163 296.98693455 -31.00007629 295.78317261 C-27.7509591 292.53319811 -24.49270562 289.29252753 -21.23268104 286.05349922 C-17.82134786 282.66097706 -14.41856321 279.25990213 -11.0148468 275.85974121 C-4.57530984 269.42951172 1.87183308 263.00696504 8.3217718 256.58717108 C15.66746954 249.27505776 23.00460483 241.95437823 30.34104788 234.6329813 C45.42621801 219.5791308 60.5220614 204.53602265 75.625 189.5 C74.05203328 185.7005607 71.67235923 183.30842096 68.77308655 180.42776489 C68.52419378 180.17907605 68.52419378 180.17907605 67.26464552 178.92055976 C65.59657267 177.25621541 63.92146797 175.59913344 62.24633789 173.94189453 C61.04850459 172.74953706 59.85113326 171.55671535 58.65419006 170.36346436 C56.0760257 167.7950115 53.49483681 165.22965076 50.91133308 162.66656876 C46.82565894 158.61270414 42.74815047 154.55069346 38.67198181 150.48727417 C28.54543752 140.39481948 18.4096472 130.31166403 8.26898193 120.23339844 C0.38966104 112.40253628 -7.48644985 104.56851242 -15.35205466 96.72387016 C-19.4025759 92.68486803 -23.45994151 88.6529099 -27.52257717 84.62609506 C-30.05024197 82.11763848 -32.57161566 79.6029313 -35.09128761 77.08644867 C-36.25971283 75.92203846 -37.43071947 74.76021188 -38.60449982 73.6012001 C-40.20873954 72.01641944 -41.80340746 70.42257267 -43.39610291 68.82620239 C-44.29040984 67.93725847 -45.18471678 67.04831455 -46.10612392 66.13243294 C-49.80717455 61.83833875 -51.80827727 57.81311238 -51.875 52.125 C-51.9059375 51.25101563 -51.936875 50.37703125 -51.96875 49.4765625 C-50.3809522 41.51668141 -44.00105796 35.68079073 -38.44140625 30.16796875 C-38.06362785 29.78875526 -38.06362785 29.78875526 -36.15184021 27.8697052 C-34.56283668 26.27867152 -32.97008376 24.69137445 -31.3737793 23.10766602 C-28.93768418 20.68768296 -26.51806904 18.25204656 -24.09960938 15.81445312 C-22.54783634 14.26466183 -20.99513331 12.71580104 -19.44140625 11.16796875 C-18.72247696 10.44296677 -18.00354767 9.71796478 -17.26283264 8.97099304 C-12.12341136 3.90261164 -7.53254677 0.08835832 0 0 Z " fill="#000000" transform="translate(119.375,67.5)"/>
</svg>
