<?xml version="1.0" encoding="UTF-8"?>
<!-- Generator: visioncortex VTracer 0.6.12 -->
<svg version="1.1" xmlns="http://www.w3.org/2000/svg" width="512" height="512">
<path d="M0 0 C2.88996905 1.30945491 4.95587003 2.70653071 7.19399643 4.94790077 C7.49929224 5.25120554 7.49929224 5.25120554 9.04427409 6.78611147 C9.70575678 7.45341985 10.36723947 8.12072822 11.04876709 8.80825806 C11.40370322 9.16233976 11.40370322 9.16233976 13.19989514 10.95420778 C15.58303228 13.33404438 17.95893965 15.72097063 20.33496094 18.10791016 C22.03953325 19.81304646 23.74454579 21.5177428 25.44996643 23.22203064 C29.12356334 26.89517176 32.7940756 30.57136571 36.46181488 34.25035477 C41.7647531 39.56954768 47.07320594 44.8832088 52.38302055 50.19553642 C60.99770821 58.81460123 69.60792015 67.43812282 78.21533203 76.06445312 C86.57659512 84.44407449 94.93995639 92.82159253 103.30615234 101.19628906 C103.82185168 101.71251385 104.33755103 102.22873864 104.86887762 102.7606066 C107.45600499 105.35034405 110.04317371 107.94004018 112.63036299 110.52971578 C134.09332341 132.01340932 155.54895153 153.5044122 177 175 C179.88996905 173.69054509 181.95587003 172.29346929 184.19399643 170.05209923 C184.80458806 169.4454897 185.41517969 168.83888016 186.04427409 168.21388853 C186.70575678 167.54658015 187.36723947 166.87927178 188.04876709 166.19174194 C188.75863935 165.48357854 189.46851161 164.77541513 190.19989514 164.04579222 C192.58303228 161.66595562 194.95893965 159.27902937 197.33496094 156.89208984 C199.03953325 155.18695354 200.74454579 153.4822572 202.44996643 151.77796936 C206.12356334 148.10482824 209.7940756 144.42863429 213.46181488 140.74964523 C218.7647531 135.43045232 224.07320594 130.1167912 229.38302055 124.80446358 C237.99770821 116.18539877 246.60792015 107.56187718 255.21533203 98.93554688 C263.57659512 90.55592551 271.93995639 82.17840747 280.30615234 73.80371094 C280.82185168 73.28748615 281.33755103 72.77126136 281.86887762 72.2393934 C284.45600499 69.64965595 287.04317371 67.05995982 289.63036299 64.47028422 C311.09332341 42.98659068 332.54895153 21.4955878 354 0 C356.79570164 1.34727261 358.83967803 2.59706233 361.015625 4.8203125 C361.54414063 5.35527344 362.07265625 5.89023438 362.6171875 6.44140625 C363.15601563 6.99699219 363.69484375 7.55257812 364.25 8.125 C364.80429687 8.68832031 365.35859375 9.25164062 365.9296875 9.83203125 C367.29104485 11.21686028 368.64614859 12.60783204 370 14 C368.69054509 16.88996905 367.29346929 18.95587003 365.05209923 21.19399643 C364.4454897 21.80458806 363.83888016 22.41517969 363.21388853 23.04427409 C362.88023434 23.37501544 362.88023434 23.37501544 361.19174194 25.04876709 C360.83766024 25.40370322 360.83766024 25.40370322 359.04579222 27.19989514 C356.66595562 29.58303228 354.27902937 31.95893965 351.89208984 34.33496094 C350.18695354 36.03953325 348.4822572 37.74454579 346.77796936 39.44996643 C343.10482824 43.12356334 339.42863429 46.7940756 335.74964523 50.46181488 C330.43045232 55.7647531 325.1167912 61.07320594 319.80446358 66.38302055 C311.18539877 74.99770821 302.56187718 83.60792015 293.93554688 92.21533203 C285.55592551 100.57659512 277.17840747 108.93995639 268.80371094 117.30615234 C268.28748615 117.82185168 267.77126136 118.33755103 267.2393934 118.86887762 C264.64965595 121.45600499 262.05995982 124.04317371 259.47028422 126.63036299 C237.98659068 148.09332341 216.4955878 169.54895153 195 191 C196.30945491 193.88996905 197.70653071 195.95587003 199.94790077 198.19399643 C200.5545103 198.80458806 201.16111984 199.41517969 201.78611147 200.04427409 C202.45341985 200.70575678 203.12072822 201.36723947 203.80825806 202.04876709 C204.51642146 202.75863935 205.22458487 203.46851161 205.95420778 204.19989514 C208.33404438 206.58303228 210.72097063 208.95893965 213.10791016 211.33496094 C214.81304646 213.03953325 216.5177428 214.74454579 218.22203064 216.44996643 C221.89517176 220.12356334 225.57136571 223.7940756 229.25035477 227.46181488 C234.56954768 232.7647531 239.8832088 238.07320594 245.19553642 243.38302055 C253.81460123 251.99770821 262.43812282 260.60792015 271.06445312 269.21533203 C279.44407449 277.57659512 287.82159253 285.93995639 296.19628906 294.30615234 C296.71251385 294.82185168 297.22873864 295.33755103 297.7606066 295.86887762 C300.35034405 298.45600499 302.94004018 301.04317371 305.52971578 303.63036299 C327.01340932 325.09332341 348.5044122 346.54895153 370 368 C368.65272739 370.79570164 367.40293767 372.83967803 365.1796875 375.015625 C364.64472656 375.54414063 364.10976563 376.07265625 363.55859375 376.6171875 C363.00300781 377.15601563 362.44742187 377.69484375 361.875 378.25 C361.31167969 378.80429687 360.74835938 379.35859375 360.16796875 379.9296875 C358.78313972 381.29104485 357.39216796 382.64614859 356 384 C353.11003095 382.69054509 351.04412997 381.29346929 348.80600357 379.05209923 C348.19541194 378.4454897 347.58482031 377.83888016 346.95572591 377.21388853 C346.29424322 376.54658015 345.63276053 375.87927178 344.95123291 375.19174194 C344.59629678 374.83766024 344.59629678 374.83766024 342.80010486 373.04579222 C340.41696772 370.66595562 338.04106035 368.27902937 335.66503906 365.89208984 C333.96046675 364.18695354 332.25545421 362.4822572 330.55003357 360.77796936 C326.87643666 357.10482824 323.2059244 353.42863429 319.53818512 349.74964523 C314.2352469 344.43045232 308.92679406 339.1167912 303.61697945 333.80446358 C295.00229179 325.18539877 286.39207985 316.56187718 277.78466797 307.93554688 C269.42340488 299.55592551 261.06004361 291.17840747 252.69384766 282.80371094 C252.17814832 282.28748615 251.66244897 281.77126136 251.13112238 281.2393934 C248.54399501 278.64965595 245.95682629 276.05995982 243.36963701 273.47028422 C221.90667659 251.98659068 200.45104847 230.4955878 179 209 C176.11003095 210.30945491 174.04412997 211.70653071 171.80600357 213.94790077 C171.19541194 214.5545103 170.58482031 215.16111984 169.95572591 215.78611147 C169.29424322 216.45341985 168.63276053 217.12072822 167.95123291 217.80825806 C167.24136065 218.51642146 166.53148839 219.22458487 165.80010486 219.95420778 C163.41696772 222.33404438 161.04106035 224.72097063 158.66503906 227.10791016 C156.96046675 228.81304646 155.25545421 230.5177428 153.55003357 232.22203064 C149.87643666 235.89517176 146.2059244 239.57136571 142.53818512 243.25035477 C137.2352469 248.56954768 131.92679406 253.8832088 126.61697945 259.19553642 C118.00229179 267.81460123 109.39207985 276.43812282 100.78466797 285.06445312 C92.42340488 293.44407449 84.06004361 301.82159253 75.69384766 310.19628906 C75.17814832 310.71251385 74.66244897 311.22873864 74.13112238 311.7606066 C71.54399501 314.35034405 68.95682629 316.94004018 66.36963701 319.52971578 C44.90667659 341.01340932 23.45104847 362.5044122 2 384 C-0.79570164 382.65272739 -2.83967803 381.40293767 -5.015625 379.1796875 C-5.54414062 378.64472656 -6.07265625 378.10976563 -6.6171875 377.55859375 C-7.15601562 377.00300781 -7.69484375 376.44742187 -8.25 375.875 C-8.80429688 375.31167969 -9.35859375 374.74835938 -9.9296875 374.16796875 C-11.29104485 372.78313972 -12.64614859 371.39216796 -14 370 C-12.69054509 367.11003095 -11.29346929 365.04412997 -9.05209923 362.80600357 C-8.4454897 362.19541194 -7.83888016 361.58482031 -7.21388853 360.95572591 C-6.54658015 360.29424322 -5.87927178 359.63276053 -5.19174194 358.95123291 C-4.83766024 358.59629678 -4.83766024 358.59629678 -3.04579222 356.80010486 C-0.66595562 354.41696772 1.72097063 352.04106035 4.10791016 349.66503906 C5.81304646 347.96046675 7.5177428 346.25545421 9.22203064 344.55003357 C12.89517176 340.87643666 16.57136571 337.2059244 20.25035477 333.53818512 C25.56954768 328.2352469 30.8832088 322.92679406 36.19553642 317.61697945 C44.81460123 309.00229179 53.43812282 300.39207985 62.06445312 291.78466797 C70.44407449 283.42340488 78.82159253 275.06004361 87.19628906 266.69384766 C87.71251385 266.17814832 88.22873864 265.66244897 88.7606066 265.13112238 C91.35034405 262.54399501 93.94004018 259.95682629 96.52971578 257.36963701 C118.01340932 235.90667659 139.5044122 214.45104847 161 193 C159.69054509 190.11003095 158.29346929 188.04412997 156.05209923 185.80600357 C155.4454897 185.19541194 154.83888016 184.58482031 154.21388853 183.95572591 C153.54658015 183.29424322 152.87927178 182.63276053 152.19174194 181.95123291 C151.48357854 181.24136065 150.77541513 180.53148839 150.04579222 179.80010486 C147.66595562 177.41696772 145.27902937 175.04106035 142.89208984 172.66503906 C141.18695354 170.96046675 139.4822572 169.25545421 137.77796936 167.55003357 C134.10482824 163.87643666 130.42863429 160.2059244 126.74964523 156.53818512 C121.43045232 151.2352469 116.1167912 145.92679406 110.80446358 140.61697945 C102.18539877 132.00229179 93.56187718 123.39207985 84.93554688 114.78466797 C76.55592551 106.42340488 68.17840747 98.06004361 59.80371094 89.69384766 C59.28748615 89.17814832 58.77126136 88.66244897 58.2393934 88.13112238 C55.64965595 85.54399501 53.05995982 82.95682629 50.47028422 80.36963701 C28.98659068 58.90667659 7.4955878 37.45104847 -14 16 C-12.65272739 13.20429836 -11.40293767 11.16032197 -9.1796875 8.984375 C-8.64472656 8.45585938 -8.10976562 7.92734375 -7.55859375 7.3828125 C-7.00300781 6.84398438 -6.44742188 6.30515625 -5.875 5.75 C-5.31167969 5.19570312 -4.74835938 4.64140625 -4.16796875 4.0703125 C-2.78313972 2.70895515 -1.39216796 1.35385141 0 0 Z " fill="#000000" transform="translate(78,64)"/>
</svg>
