<?xml version="1.0" encoding="UTF-8"?>
<!-- Generator: visioncortex VTracer 0.6.12 -->
<svg version="1.1" xmlns="http://www.w3.org/2000/svg" width="512" height="512">
<path d="M0 0 C1.07052488 -0.00311998 2.14104977 -0.00623996 3.2440148 -0.00945449 C6.81349529 -0.01740031 10.38280416 -0.01112409 13.95228577 -0.00482178 C16.51863708 -0.00753317 19.08498761 -0.01109493 21.65133667 -0.01544189 C27.88791771 -0.02431462 34.12445048 -0.02242328 40.36103337 -0.01661661 C45.43224732 -0.01209136 50.50344778 -0.01149095 55.57466316 -0.01366425 C55.93618217 -0.01381748 55.93618217 -0.01381748 57.76568742 -0.01459293 C59.23475031 -0.01523241 60.70381319 -0.01588084 62.17287607 -0.01653811 C75.93445372 -0.0222353 89.69600468 -0.01569333 103.45757795 -0.00493738 C115.25172569 0.00399568 127.04583405 0.00244693 138.83998108 -0.0067749 C152.55232105 -0.01749162 166.26463765 -0.02168404 179.97698122 -0.01555037 C181.44080611 -0.01491331 182.904631 -0.01428457 184.36845589 -0.01366425 C184.72852333 -0.01350997 184.72852333 -0.01350997 186.55068279 -0.01272924 C191.61210173 -0.01100636 196.67350578 -0.01390865 201.73492241 -0.01862335 C208.55492677 -0.02483681 215.37485574 -0.02037699 222.19485283 -0.00883484 C224.6949603 -0.00619483 227.19507403 -0.00694206 229.69517899 -0.01136017 C233.11352013 -0.01684306 236.53162498 -0.00994801 239.94995117 0 C240.93411213 -0.00446144 241.91827309 -0.00892289 242.93225712 -0.01351953 C254.46587219 0.0513703 263.04935645 1.94543712 271.78846741 9.69146729 C279.26883892 18.21077928 280.32803789 25.51129698 280.45252991 36.43756104 C280.46221298 36.9653138 280.46221298 36.9653138 280.51121521 39.63606262 C280.57071294 42.98778349 280.61727705 46.33953925 280.66346741 49.69146729 C280.7016746 51.97208073 280.74072791 54.25268017 280.78065491 56.53326416 C280.87638983 62.10670699 280.96152358 67.68023506 281.03846741 73.25396729 C281.61803664 73.0918639 282.19760588 72.92976051 282.79473782 72.7627449 C286.41073151 71.9427991 290.07296162 72.09781308 293.76332092 72.09283447 C294.20344261 72.09035202 294.20344261 72.09035202 296.4307251 72.07778931 C299.34294927 72.06318621 302.25511888 72.05636706 305.16737366 72.05084229 C307.19796754 72.04508721 309.22856141 72.03932952 311.25915527 72.03356934 C315.52031202 72.02306316 319.78144993 72.01721867 324.0426178 72.01373291 C329.48063541 72.0082636 334.91840069 71.98426739 340.35633945 71.95576096 C344.55417587 71.93705413 348.75195264 71.9319246 352.94982719 71.93039703 C354.95312306 71.92738569 356.95641827 71.91940897 358.95967293 71.90621185 C378.76321743 71.78511317 393.32107674 74.74133068 408.01112366 89.09381104 C418.28254957 99.56980758 426.62106752 111.97734038 435.24305725 123.79693604 C437.6340775 127.06906383 440.03923212 130.33064109 442.44642639 133.59088135 C443.62948057 135.19512164 444.80999919 136.801235 445.9879303 138.40924072 C448.63021766 142.0138173 451.28849616 145.59611576 454.04627991 149.11334229 C459.19271985 155.74367094 463.41226995 162.41831788 467.03846741 170.00396729 C467.21945984 170.38198486 467.21945984 170.38198486 468.13539124 172.29498291 C472.57089225 182.02759496 474.48955694 191.24157982 474.44252014 201.91656494 C474.44595177 202.47097008 474.44595177 202.47097008 474.46331787 205.27659607 C474.48147855 208.90720769 474.47776476 212.53738292 474.47206116 216.16802979 C474.47662694 218.70907734 474.48193369 221.25012367 474.48794556 223.79116821 C474.49685473 229.10174171 474.49471371 234.41215863 474.48451233 239.72271729 C474.47301781 245.84126184 474.48714309 251.95936874 474.5139088 258.07785571 C474.53881091 263.99441901 474.54123211 269.9108473 474.53479195 275.82746506 C474.53463895 278.33201196 474.5406651 280.8365674 474.55308342 283.34108353 C474.56801352 286.84443754 474.55730144 290.34683399 474.54017639 293.85015869 C474.54984436 294.87585464 474.55951233 295.9015506 474.56947327 296.95832825 C474.47206884 306.50750354 471.45050432 313.49252717 464.96424866 320.46490479 C457.62626828 327.2819332 450.01479809 329.5960305 440.16346741 329.37896729 C439.37971741 329.36994385 438.59596741 329.36092041 437.78846741 329.35162354 C435.87166686 329.32824792 433.9550255 329.29238382 432.03846741 329.25396729 C431.91600647 330.45408447 431.79354553 331.65420166 431.66737366 332.89068604 C429.98583106 346.18803247 421.26102656 358.83658227 411.03846741 367.25396729 C399.06909098 375.9539307 386.5457248 380.6730952 371.72596741 380.56646729 C370.89637512 380.56082764 370.06678284 380.55518799 369.21205139 380.54937744 C352.24604166 380.21596622 338.08788648 373.16353361 326.07362366 361.31646729 C318.1493966 352.71599328 311.03846741 341.2483893 311.03846741 329.25396729 C259.88846741 329.25396729 208.73846741 329.25396729 156.03846741 329.25396729 C155.37846741 332.55396729 154.71846741 335.85396729 154.03846741 339.25396729 C147.06976528 357.30309884 134.83338469 368.99358118 117.37440491 377.02740479 C101.31838141 382.93090757 83.62226842 381.73750441 68.08924866 374.96881104 C61.09332427 371.46597023 55.55187038 366.7579295 50.03846741 361.25396729 C49.38877991 360.61588135 48.73909241 359.97779541 48.06971741 359.32037354 C39.91737722 350.72108487 36.66847227 340.5588573 34.03846741 329.25396729 C33.47407455 329.26284973 32.9096817 329.27173218 32.32818604 329.28088379 C26.40627768 329.36999488 20.48456253 329.42996341 14.56214905 329.47369385 C12.35764315 329.49369815 10.15318955 329.52091051 7.9488678 329.5557251 C4.76375857 329.60473787 1.57935624 329.62704855 -1.60606384 329.64459229 C-2.57735733 329.66523743 -3.54865082 329.68588257 -4.54937744 329.70715332 C-14.01673791 329.71019574 -23.16552231 327.31522794 -30.04823321 320.4961766 C-36.77346186 312.61483274 -38.85054009 304.21276065 -38.71670532 294.09646606 C-38.7253597 292.93353975 -38.73401408 291.77061344 -38.74293071 290.57244694 C-38.76064675 287.38032724 -38.75185221 284.18962031 -38.73122156 280.99756122 C-38.71547709 277.54145702 -38.73455477 274.08551068 -38.74902344 270.62942505 C-38.7717656 263.87375944 -38.76242554 257.11850945 -38.74152257 250.36285244 C-38.72519462 244.8702497 -38.72104973 239.37775987 -38.72548866 233.88513565 C-38.72611934 233.10144617 -38.72675001 232.31775668 -38.7273998 231.51031903 C-38.72874594 229.91796672 -38.73012551 228.32561445 -38.73153815 226.7332622 C-38.74345475 211.8270455 -38.71945971 196.92105593 -38.68252007 182.01489092 C-38.65161801 169.2388712 -38.64926436 156.46311258 -38.6683197 143.68707275 C-38.69045545 128.82872472 -38.69655556 113.97052285 -38.67599708 99.11216748 C-38.67383427 97.5265008 -38.67168517 95.9408341 -38.66954994 94.35516739 C-38.66848358 93.57510705 -38.66741721 92.7950467 -38.66631853 91.99134817 C-38.65986267 86.50758062 -38.66459981 81.02388859 -38.67357445 75.5401268 C-38.6841338 68.85416453 -38.67653326 62.16850798 -38.64611866 55.48260199 C-38.63103999 52.07462527 -38.62376058 48.66713017 -38.63830948 45.25914001 C-38.64975731 41.55809509 -38.63032099 37.85843597 -38.60317993 34.15750122 C-38.61365142 33.08978576 -38.62412291 32.02207029 -38.63491172 30.92199981 C-38.51805962 22.34945887 -35.6691205 16.60544786 -31.21153259 9.44146729 C-22.51270815 0.98427686 -11.57783323 -0.05236647 0 0 Z M-15.08541298 24.10635948 C-17.86874507 28.77601793 -17.65009099 32.87752561 -17.58972168 38.22369385 C-17.59681607 39.34333149 -17.60391045 40.46296913 -17.61121982 41.61653519 C-17.62885165 45.37623452 -17.61066716 49.13490719 -17.59263611 52.89459229 C-17.59777294 55.58671956 -17.60486333 58.27877731 -17.61431885 60.97088623 C-17.63270345 67.5286077 -17.62417785 74.08603131 -17.60623062 80.64374352 C-17.59220815 85.97302733 -17.58831105 91.30223026 -17.5916729 96.63153076 C-17.59215034 97.38985868 -17.59262778 98.14818659 -17.59311969 98.92949414 C-17.59414602 100.46999584 -17.59520137 102.01049751 -17.59628545 103.55099916 C-17.60485417 117.17470441 -17.58817202 130.7982658 -17.55845642 144.42193604 C-17.52961857 157.64335167 -17.52253522 170.86456007 -17.53794861 184.08599854 C-17.55470749 198.48131323 -17.5587482 212.87652952 -17.54123825 227.27184677 C-17.53939385 228.80669911 -17.53755912 230.34155145 -17.53573418 231.87640381 C-17.53482209 232.63159152 -17.53391 233.38677924 -17.53297027 234.16485143 C-17.52736291 239.4880713 -17.5306739 244.81124317 -17.53727913 250.13446045 C-17.54500854 256.62123842 -17.53827406 263.10781235 -17.51310409 269.59454918 C-17.50059962 272.90460952 -17.49661871 276.21428665 -17.50564575 279.52436829 C-17.51430231 283.11132909 -17.49844706 286.69735804 -17.47619629 290.28424072 C-17.48443706 291.33238575 -17.49267782 292.38053078 -17.50116831 293.46043777 C-17.45010508 297.90373956 -17.4185284 300.50654643 -15.06344509 304.35830688 C-9.99488238 308.92951222 -4.77001549 308.52424322 1.71424866 308.44927979 C2.63940781 308.44644989 3.56456696 308.44362 4.51776123 308.44070435 C7.46229683 308.4295412 10.40652429 308.40444365 13.35096741 308.37896729 C15.35161404 308.36893249 17.35226547 308.35980751 19.35292053 308.35162354 C24.2482209 308.3296145 29.14329197 308.29511119 34.03846741 308.25396729 C34.36024963 307.24583984 34.68203186 306.2377124 35.01356506 305.19903564 C35.45125082 303.85136248 35.8892562 302.5037931 36.32752991 301.15631104 C36.53772766 300.49482056 36.74792542 299.83333008 36.9644928 299.15179443 C42.06105689 283.58002214 51.98370191 272.31502435 66.03846741 264.25396729 C81.26868778 256.60171022 98.53218105 255.2031965 114.72596741 260.44146729 C129.77642226 265.68461776 141.55702245 275.07357545 149.03846741 289.25396729 C151.9796339 295.50394607 154.13630368 301.59639425 156.03846741 308.25396729 C189.69846741 308.25396729 223.35846741 308.25396729 258.03846741 308.25396729 C258.12662103 272.66872264 258.20048844 237.08358081 258.24272873 201.49825825 C258.24773166 197.29874505 258.25290893 193.09923209 258.25819397 188.89971924 C258.25924321 188.06365865 258.26029245 187.22759807 258.26137349 186.36620232 C258.27878696 172.82217121 258.31032983 159.27820789 258.34707859 145.73421703 C258.38446182 131.84069465 258.40669771 117.94720782 258.41482139 104.05363721 C258.42031461 95.47795001 258.43767515 86.90245441 258.47013327 78.32682618 C258.49124887 72.44917362 258.49767418 66.57162038 258.49247292 60.69393263 C258.48990649 57.30086024 258.49388826 53.90812306 258.51528931 50.51511002 C258.5351081 46.83817741 258.53043526 43.16207333 258.51948547 39.48512268 C258.53113684 38.41022137 258.54278821 37.33532005 258.55479264 36.22784597 C258.4964404 29.00868331 258.4964404 29.00868331 256.13340378 25.11452007 C253.15513746 22.46946518 251.57002154 22.12829722 247.68335247 22.1169529 C246.76283744 22.11187835 245.8423224 22.10680381 244.89391297 22.10157549 C243.8759389 22.10107774 242.85796483 22.10057998 241.80914307 22.10006714 C240.73290422 22.09568488 239.65666538 22.09130263 238.54781324 22.08678758 C234.91733623 22.07336147 231.28688351 22.0672122 227.65638733 22.06109619 C225.06325164 22.05319832 222.47011705 22.04492957 219.87698364 22.03631592 C212.07795761 22.01178168 204.27892519 21.99716383 196.47987244 21.98425585 C194.27787093 21.98054484 192.07587006 21.97657154 189.87386918 21.97250319 C176.20568198 21.94726901 162.5374938 21.9252115 148.86928844 21.91277504 C145.70261824 21.90984525 142.53594808 21.9068836 139.36927795 21.90386963 C138.58219821 21.90312358 137.79511846 21.90237753 136.98418782 21.90160887 C124.22916797 21.88895068 111.47428738 21.85572194 98.71933266 21.8140678 C85.63031061 21.7716723 72.54135991 21.74808283 59.45226938 21.74285448 C52.1006548 21.73943777 44.74925789 21.72765224 37.3977108 21.69475174 C30.4841645 21.66386246 23.57100394 21.65832096 16.65740013 21.6701355 C14.11648139 21.67035713 11.57554555 21.661979 9.03468704 21.64448166 C5.57224223 21.62193107 2.11119264 21.63002081 -1.35125732 21.64596558 C-2.36253923 21.63208349 -3.37382113 21.6182014 -4.41574794 21.60389864 C-8.75130051 21.65327203 -11.30601965 21.86526256 -15.08541298 24.10635948 Z M281.03846741 99.25396729 C279.44903229 102.43283751 279.90549756 105.86252718 279.91821289 109.35299683 C279.91735847 110.20000101 279.91650404 111.0470052 279.91562372 111.91967618 C279.91396908 114.77412898 279.91949005 117.62852376 279.92494202 120.48297119 C279.92522392 122.52264912 279.9250661 124.56232714 279.92449951 126.602005 C279.92421165 132.15337125 279.93010655 137.70471605 279.93707347 143.25607729 C279.9433089 149.05235976 279.94391096 154.84864267 279.94509888 160.64492798 C279.94821163 171.62735759 279.95642428 182.6097773 279.96644837 193.59220254 C279.97761123 206.09261436 279.98312039 218.59302664 279.9881438 231.0934422 C279.99860693 256.81362292 280.01640585 282.53379413 280.03846741 308.25396729 C290.26846741 308.25396729 300.49846741 308.25396729 311.03846741 308.25396729 C311.38909241 307.03709229 311.38909241 307.03709229 313.16346741 300.87896729 C317.85214707 285.55332921 327.09558007 273.43602093 341.03846741 265.25396729 C356.0807844 257.35464998 371.33917935 255.63459369 388.03846741 259.25396729 C392.2350034 260.58922874 396.1124194 262.26602478 400.03846741 264.25396729 C400.90085022 264.68580322 401.76323303 265.11763916 402.65174866 265.56256104 C416.92595082 273.39894263 425.79693156 286.27155439 430.47596741 301.56646729 C430.76342834 302.6351001 431.05088928 303.70373291 431.34706116 304.80474854 C432.03846741 307.25396729 432.03846741 307.25396729 433.03846741 308.25396729 C437.85855899 308.67451219 442.45510513 308.89404991 446.97596741 307.06646729 C450.75511415 303.74539894 452.86613404 301.61188795 453.51948547 296.46372986 C453.53101263 294.96763835 453.52059856 293.47127616 453.49256897 291.97540283 C453.49315308 291.15537277 453.49373718 290.33534271 453.49433899 289.49046326 C453.49156058 286.79010129 453.46048085 284.09085427 453.42909241 281.39068604 C453.42162914 279.51453759 453.41593661 277.63838133 453.41194153 275.76222229 C453.39669198 270.8317399 453.35741597 265.90173119 453.31312561 260.97143555 C453.27215828 255.93742276 453.25392739 250.90333321 453.23377991 245.86920166 C453.19092111 235.99724911 453.12267794 226.12564764 453.03846741 216.25396729 C451.82483521 216.25476288 450.611203 216.25555847 449.36079407 216.25637817 C437.88574029 216.25999103 426.41113286 216.23202991 414.93622208 216.17368889 C409.0377428 216.1447 403.139659 216.1265759 397.24110413 216.1338501 C391.54142676 216.14046983 385.84252906 216.11780733 380.143013 216.07541275 C377.97591174 216.06432864 375.80873096 216.06353863 373.64162445 216.07354355 C350.28159456 216.1675079 350.28159456 216.1675079 339.92451477 207.48098755 C329.27297968 196.6686505 330.43475021 182.2579707 330.42909241 168.17974854 C330.41409318 166.04311378 330.3973624 163.90649055 330.37898254 161.7698822 C330.33549268 156.17881708 330.31535072 150.58790834 330.30024719 144.9967041 C330.2806097 139.2783287 330.23864729 133.56012053 330.19862366 127.84185791 C330.12352056 116.64594619 330.07310879 105.45007226 330.03846741 94.25396729 C324.02454594 94.13009072 318.01137193 94.03949657 311.99647522 93.97930908 C309.95174722 93.95421145 307.90710852 93.92012565 305.86268616 93.87677002 C302.91845129 93.81590913 299.97540545 93.78770998 297.03065491 93.76568604 C296.12105011 93.73987961 295.21144531 93.71407318 294.27427673 93.68748474 C288.08816781 93.6847696 285.30574069 94.7127783 281.03846741 99.25396729 Z M352.03846741 94.25396729 C351.92258107 106.40631817 351.83375546 118.55853745 351.77940655 130.71132851 C351.75332075 136.35448356 351.71794049 141.99726038 351.66127014 147.64019775 C351.60691526 153.08670134 351.57703922 158.53284128 351.56408119 163.97959518 C351.55484765 166.05684509 351.53681649 168.13407524 351.50981712 170.2111702 C351.47348109 173.12251938 351.46852403 176.03236897 351.47084045 178.94390869 C351.45286407 179.80130646 351.4348877 180.65870422 351.41636658 181.54208374 C351.45227382 185.71710978 351.74899297 188.43826197 354.38644409 191.77334595 C358.82027103 195.92061179 363.07272336 195.3918354 368.82435608 195.36749268 C369.72212265 195.3676387 370.61988922 195.36778473 371.54486084 195.36793518 C374.51541043 195.36723793 377.4858975 195.35945425 380.45643616 195.35162354 C382.51481085 195.34975869 384.57318598 195.3483351 386.63156128 195.34733582 C392.05177534 195.34351587 397.47196265 195.33369002 402.89216614 195.32263184 C408.42204934 195.3124065 413.95193686 195.30783578 419.48182678 195.30279541 C430.33405208 195.29206731 441.18625752 195.27499713 452.03846741 195.25396729 C451.56965536 193.32907147 451.09749377 191.40499123 450.62391663 189.48126221 C450.36134064 188.40970383 450.09876465 187.33814545 449.82823181 186.2341156 C446.56321515 173.9136896 438.54949721 164.29740246 430.79432678 154.50445557 C427.85251171 150.73392563 425.04469657 146.86684829 422.22596741 143.00396729 C417.09128156 136.00541437 411.90525359 129.04770811 406.66346741 122.12896729 C406.02175598 121.27657471 405.38004456 120.42418213 404.71888733 119.54595947 C392.92561139 104.03674361 392.92561139 104.03674361 385.85096741 99.31646729 C385.05303772 98.77119385 384.25510803 98.22592041 383.43299866 97.66412354 C378.98598014 95.04524314 375.47470934 94.00331229 370.30018616 94.05865479 C369.23348694 94.0651001 368.16678772 94.07154541 367.06776428 94.07818604 C365.96497131 94.09494385 364.86217834 94.11170166 363.72596741 94.12896729 C362.6038385 94.13799072 361.48170959 94.14701416 360.32557678 94.15631104 C357.56298831 94.17982243 354.80083809 94.21268574 352.03846741 94.25396729 Z M64.72596741 291.50396729 C56.28257429 301.60527363 54.26904671 311.45797563 54.85926819 324.2666626 C55.71960528 333.80773058 61.34717177 343.08531038 68.28846741 349.50396729 C77.41780235 356.75906791 88.40634102 360.56462941 100.03846741 359.25396729 C113.36855812 356.39983594 123.01314389 350.42780202 130.51112366 339.01177979 C135.61595 329.93322565 137.29511741 319.1416843 134.91737366 308.97271729 C131.16328702 297.36007595 124.89430425 288.05720873 113.91346741 282.31646729 C96.59487937 274.62521073 77.91840951 277.49473233 64.72596741 291.50396729 Z M339.93690491 292.53912354 C333.27295483 301.25897311 329.62671076 312.27363784 331.03846741 323.25396729 C332.95861143 334.26702473 338.13628431 344.2922218 347.03846741 351.25396729 C356.87951969 357.72009117 366.99932584 360.93079355 378.73377991 358.75396729 C390.52593687 355.8634107 399.59951831 350.21246015 406.39002991 340.08599854 C412.03400117 330.3896024 413.75032196 320.06310156 411.34315491 309.08209229 C407.94647422 297.83593943 401.74313074 288.43093364 391.25721741 282.74615479 C373.10950777 274.20892579 353.6929392 277.58135391 339.93690491 292.53912354 Z " fill="#000000" transform="translate(37.96153259277344,80.74603271484375)"/>
<path d="M0 0 C17.33959438 16.77642335 29.31383142 40.904359 29.77172852 65.25317383 C29.97655099 78.96066528 30.10060134 91.89180281 25.53344727 104.92114258 C25.41541748 105.26838379 25.41541748 105.26838379 24.81811523 107.02563477 C15.26255484 134.39236542 -4.59283798 154.83800244 -30.49780273 167.38989258 C-55.65192808 178.47934569 -84.79210554 179.4638053 -110.46386719 169.52270508 C-137.8220946 158.27271804 -156.76243119 138.56846851 -168.77905273 111.79614258 C-179.14267955 86.70377438 -178.15980683 57.96760678 -168.15405273 32.98364258 C-157.05892974 6.82532847 -136.19885067 -11.87554407 -110.46655273 -23.07885742 C-71.78146902 -38.36241335 -29.7918194 -27.9367037 0 0 Z M-108.46655273 -0.07885742 C-109.38049805 0.34008789 -110.29444336 0.7590332 -111.23608398 1.19067383 C-119.18784831 5.13811621 -125.25107465 10.71438185 -131.46655273 16.92114258 C-132.2103418 17.65333008 -132.95413086 18.38551758 -133.72045898 19.13989258 C-148.26926287 34.40047748 -155.1389454 55.64124205 -154.71264648 76.47973633 C-153.06452745 99.52724222 -143.35764829 119.57872096 -126.02514648 135.10864258 C-110.4021599 148.01777703 -90.90148592 155.94832197 -70.38842773 155.20239258 C-45.12184124 152.77031473 -24.91712697 142.64683455 -8.21655273 123.23364258 C4.9391183 105.96682435 10.61849998 84.38163454 8.31518555 62.8840332 C5.27021776 41.54250149 -5.6740533 21.94279664 -22.71655273 8.60864258 C-47.90561723 -10.26639289 -80.12876352 -13.57120181 -108.46655273 -0.07885742 Z " fill="#000000" transform="translate(226.466552734375,152.078857421875)"/>
<path d="M0 0 C6.93 0 13.86 0 21 0 C21.2492909 8.71053778 21.45074143 17.41867914 21.56993389 26.13198757 C21.6271646 30.17878449 21.70466421 34.22299975 21.82983398 38.26831055 C21.95005087 42.1783707 22.01526077 46.08596192 22.04364967 49.99772835 C22.06385609 51.48391658 22.10332214 52.96998093 22.16303062 54.45510674 C22.6103784 66.05144735 22.6103784 66.05144735 18.64328003 70.85162354 C15.86193503 73.15075077 13.05984496 75.09335306 10 77 C8.42237349 78.17165787 6.85267327 79.35419622 5.296875 80.5546875 C3.7834875 81.6645159 2.26783757 82.77126547 0.75 83.875 C-0.0541333 84.46361816 -0.8582666 85.05223633 -1.68676758 85.65869141 C-3.32428063 86.85704515 -4.96269651 88.05416629 -6.60205078 89.25 C-9.63114953 91.46060678 -12.65403442 93.67961412 -15.67675781 95.89892578 C-18.44974857 97.93456227 -21.22481643 99.96735433 -24 102 C-27.5259012 98.6222978 -30.48488403 95.16533264 -33.3125 91.1875 C-34.00988281 90.21167969 -34.70726563 89.23585938 -35.42578125 88.23046875 C-35.94527344 87.49441406 -36.46476562 86.75835937 -37 86 C-35.54781998 82.42779246 -33.84811101 80.90748248 -30.6875 78.75 C-23.66725635 73.82268995 -16.88712118 68.59718367 -10.08666992 63.37207031 C-9.6437561 63.03288574 -9.6437561 63.03288574 -7.40234375 61.31640625 C-6.60304443 60.70224854 -5.80374512 60.08809082 -4.98022461 59.45532227 C-3 58 -3 58 -1 57 C-0.67 38.19 -0.34 19.38 0 0 Z " fill="#000000" transform="translate(143,163)"/>
</svg>
