<?xml version="1.0" encoding="UTF-8"?>
<!-- Generator: visioncortex VTracer 0.6.12 -->
<svg version="1.1" xmlns="http://www.w3.org/2000/svg" width="512" height="512">
<path d="M0 0 C5.12801895 4.1578532 7.182453 9.6487154 9.0625 15.75 C9.17271484 16.09417969 9.17271484 16.09417969 9.73046875 17.8359375 C10.26618824 19.51297243 10.79054778 21.19362931 11.3125 22.875 C11.90111816 22.78412109 12.48973633 22.69324219 13.09619141 22.59960938 C42.35066816 18.26066816 72.08503141 18.36246447 101.3125 22.875 C101.68761719 21.71742187 102.06273437 20.55984375 102.44921875 19.3671875 C102.96544648 17.82789028 103.48241296 16.28884068 104 14.75 C104.12213867 14.36972656 104.12213867 14.36972656 104.74023438 12.4453125 C106.59379642 7.00194043 108.88356293 1.58946853 114.3125 -1.125 C149.38059124 -1.81454112 189.31938711 11.43614692 218.3125 30.875 C218.8679248 31.24093262 219.42334961 31.60686523 219.99560547 31.98388672 C227.51308257 37.00218487 232.82260436 42.0426265 237.3125 49.875 C237.66989258 50.49004395 238.02728516 51.10508789 238.39550781 51.73876953 C272.53381073 111.20411764 288.58374345 187.98475691 292.3125 255.875 C292.34384033 256.4002124 292.34384033 256.4002124 292.50244141 259.05810547 C293.67034466 280.9587589 293.67034466 280.9587589 287.4375 288.63671875 C286.73625 289.37535156 286.035 290.11398437 285.3125 290.875 C284.590625 291.72707031 283.86875 292.57914062 283.125 293.45703125 C280.92404947 296.0057014 278.64187753 298.44381401 276.3125 300.875 C276.00570312 301.21337891 276.00570312 301.21337891 274.453125 302.92578125 C248.12059088 331.00256442 200.37602808 346.87195181 162.5625 348.375 C157.82921837 348.51219657 155.31007697 347.70873317 151.78173828 344.45800781 C149.06629432 341.53229518 146.85310038 338.30351516 144.625 335 C143.58591723 333.49260519 142.54552171 331.98611457 141.50390625 330.48046875 C140.97941895 329.71911621 140.45493164 328.95776367 139.91455078 328.17333984 C137.35923491 324.50742342 134.71512051 320.9083423 132.0625 317.3125 C131.58466064 316.66361816 131.10682129 316.01473633 130.61450195 315.34619141 C129.51519813 313.85478829 128.41407404 312.36472709 127.3125 310.875 C122.82704824 311.39358024 118.38414549 312.01383382 113.93359375 312.77734375 C101.61971632 314.86076751 89.39451646 316.35220413 76.9375 317.125 C75.66189209 317.20484131 74.38628418 317.28468262 73.07202148 317.36694336 C60.54619689 318.07793741 48.20675333 317.90858997 35.6875 317.125 C35.35511826 317.10438004 35.35511826 317.10438004 33.67306519 317.00003052 C20.95543276 316.18887147 8.4714553 314.45515023 -4.08935547 312.30029297 C-7.61288683 311.72352247 -11.14100325 311.28502406 -14.6875 310.875 C-16.81436773 313.74862232 -18.93872354 316.62409243 -21.0625 319.5 C-21.69792725 320.35924072 -22.33335449 321.21848145 -22.98803711 322.10375977 C-25.92128234 326.0799202 -28.83928793 330.06186146 -31.66796875 334.11328125 C-32.10898926 334.74347168 -32.55000977 335.37366211 -33.00439453 336.02294922 C-34.17702912 337.70766336 -35.34076952 339.39855828 -36.50390625 341.08984375 C-39.41147202 344.79842048 -41.71932555 347.49852781 -46.46484375 348.40625 C-65.87704672 348.21428755 -84.39843748 342.97716908 -102.6875 336.875 C-103.41098633 336.64087402 -104.13447266 336.40674805 -104.87988281 336.16552734 C-126.60062313 329.07531006 -146.1007281 317.49097421 -162.6875 301.875 C-163.37585938 301.26269531 -164.06421875 300.65039062 -164.7734375 300.01953125 C-166.88149613 298.0656192 -168.78703111 296.03179417 -170.6875 293.875 C-171.09935547 293.41802734 -171.09935547 293.41802734 -173.18359375 291.10546875 C-181.89974996 280.38797419 -180.6689306 269.02400119 -179.6875 255.875 C-179.60387207 254.62154785 -179.52024414 253.3680957 -179.43408203 252.07666016 C-174.71295692 183.76761816 -159.15039993 107.1496137 -123.6875 47.875 C-123.39617187 47.38773438 -123.39617187 47.38773438 -121.921875 44.921875 C-102.53722145 17.15466856 -54.17217491 6.39472854 -23.34765625 0.8203125 C-5.41918985 -2.26849808 -5.41918985 -2.26849808 0 0 Z M-90.6875 46.875 C-91.66976562 47.41640625 -92.65203125 47.9578125 -93.6640625 48.515625 C-125.38622792 67.96141061 -136.16991033 133.52204765 -144.43487549 167.64059448 C-151.18956042 195.9885348 -155.7286574 224.79536281 -157.6875 253.875 C-157.75759277 254.88014648 -157.82768555 255.88529297 -157.89990234 256.92089844 C-158.85258199 272.33989849 -158.85258199 272.33989849 -155.125 277.5625 C-154.0062997 278.69414822 -152.86007146 279.79927038 -151.6875 280.875 C-150.66293597 282.16370944 -149.64226942 283.45552466 -148.625 284.75 C-126.74592062 309.16093791 -87.45475541 322.851278 -55.75390625 326.18334961 C-52.6875 325.875 -52.6875 325.875 -50.53759766 323.97900391 C-49.89870605 323.11194824 -49.25981445 322.24489258 -48.6015625 321.3515625 C-47.89902344 320.413125 -47.19648438 319.4746875 -46.47265625 318.5078125 C-45.75980469 317.51523437 -45.04695313 316.52265625 -44.3125 315.5 C-43.57644531 314.51515625 -42.84039062 313.5303125 -42.08203125 312.515625 C-36.6875 305.20948806 -36.6875 305.20948806 -36.6875 302.875 C-37.23986328 302.68615234 -37.23986328 302.68615234 -40.03515625 301.73046875 C-58.61172862 295.2216817 -76.526983 287.19649213 -92.6875 275.875 C-93.45578125 275.359375 -94.2240625 274.84375 -95.015625 274.3125 C-97.90524092 272.33910376 -99.72237539 270.82268692 -101.6875 267.875 C-102.51739594 263.21011124 -102.29931179 259.84205735 -99.75 255.8125 C-96.30047942 253.63015024 -94.35901097 252.90361963 -90.31640625 253.13671875 C-85.66379851 254.44332033 -82.08047136 257.4710233 -78.24609375 260.30859375 C-49.26139512 281.63150172 -10.85848238 291.07931972 24.3125 294.875 C25.17004883 294.9692627 26.02759766 295.06352539 26.91113281 295.16064453 C36.36493023 296.07716773 45.82278736 296.11742285 55.3125 296.125 C56.19111694 296.12600708 57.06973389 296.12701416 57.97497559 296.12805176 C110.43783496 296.0876097 110.43783496 296.0876097 128.3125 286.875 C130.61650904 286.29828398 132.93079275 285.76218819 135.25 285.25 C156.54183887 280.16648994 177.57643347 270.88945079 194.80004883 257.27807617 C198.99612128 254.13741915 202.06420037 253.35976142 207.30395508 253.50830078 C209.3125 253.875 209.3125 253.875 212.375 255.875 C215.03597189 259.99521454 214.85184328 262.02091051 214.3125 266.875 C210.60118473 277.77296624 188.89398055 286.0913598 179.11328125 291.0078125 C169.43764597 295.75252013 159.53803925 299.49634873 149.3125 302.875 C151.66637728 307.77763045 154.63316783 312.19835737 157.6875 316.6875 C157.96658203 317.13577148 157.96658203 317.13577148 159.37890625 319.40429688 C161.19755483 322.02788815 162.74154104 323.97575589 165.3125 325.875 C169.5261614 326.5476752 173.18266124 325.80644764 177.3125 324.875 C178.2602832 324.69283936 179.20806641 324.51067871 180.18457031 324.32299805 C183.06496128 323.73196263 185.90211582 323.04383914 188.75 322.3125 C189.78278076 322.04856445 190.81556152 321.78462891 191.87963867 321.51269531 C213.99967136 315.6564467 235.61250297 306.61603096 253.3125 291.875 C253.71597656 291.55273438 253.71597656 291.55273438 255.7578125 289.921875 C258.06241971 288.00006696 260.19486847 286.00046011 262.3125 283.875 C263.08207031 283.12347656 263.85164063 282.37195313 264.64453125 281.59765625 C270.69125915 274.7249305 271.27561258 268.38505106 270.76953125 259.63671875 C270.62192304 257.71577607 270.46920811 255.79522174 270.3125 253.875 C270.23563965 252.7813916 270.1587793 251.6877832 270.07958984 250.56103516 C265.57817268 188.13507205 250.65597077 121.50960497 221.3125 65.875 C221.15265625 65.5641748 221.15265625 65.5641748 220.34375 63.99121094 C210.32441224 44.99981533 185.23171042 36.31098637 165.88793945 30.27026367 C152.67001202 26.35139232 139.02070409 23.39813379 125.3125 21.875 C124.9825 23.855 124.6525 25.835 124.3125 27.875 C125.0152002 28.0702124 125.71790039 28.2654248 126.44189453 28.46655273 C146.79962898 34.17406583 166.01301992 40.90662471 184.8125 50.625 C185.6792334 51.07270752 186.5459668 51.52041504 187.43896484 51.98168945 C199.56087413 58.44326924 199.56087413 58.44326924 201.375 64.3125 C201.30368687 68.37734831 200.51899268 70.48645766 198.3125 73.875 C194.56851748 76.37098835 191.64728993 76.56768252 187.3125 75.875 C184.28304319 74.66136658 181.58643001 73.02118211 178.8125 71.3125 C177.21393115 70.38155908 175.61230899 69.45584316 174.0078125 68.53515625 C173.21407227 68.07898926 172.42033203 67.62282227 171.60253906 67.15283203 C115.45357936 35.82195196 42.59141425 34.69604242 -17.95336914 51.31665039 C-37.69994167 56.96101486 -57.50553368 64.42035578 -74.6875 75.875 C-81.57928947 76.65310526 -81.57928947 76.65310526 -85.625 73.8125 C-88.09349406 70.29676604 -88.6875 68.16116677 -88.6875 63.875 C-82.42716859 50.49301643 -57.0742894 42.69650653 -44.09692383 37.98876953 C-33.41006257 34.25443717 -22.55659069 31.03166144 -11.6875 27.875 C-12.0175 25.895 -12.3475 23.915 -12.6875 21.875 C-38.90368988 21.875 -68.28202787 34.04137329 -90.6875 46.875 Z " fill="#000000" transform="translate(199.6875,72.125)"/>
<path d="M0 0 C13.16724452 8.52305127 19.90074687 20.39357848 23.578125 35.3515625 C26.19798406 51.79845548 22.67207604 67.39184393 13 81 C5.52799871 90.19630927 -4.28495568 96.0972881 -16 98 C-29.07871291 99.32256647 -40.23315795 96.28361694 -50.56640625 88.125 C-61.79655703 78.31889723 -68.12843828 65.25767217 -69.28125 50.3671875 C-69.6507384 35.37211671 -66.39798537 21.83179687 -56.6015625 10.13671875 C-41.62911115 -5.41159611 -19.6337717 -11.16687149 0 0 Z M-40.9375 25.3125 C-46.81269574 33.67601394 -48.8578923 42.37396398 -47.375 52.5 C-45.40164331 61.79554862 -40.87328811 68.61693748 -33 74 C-27.21760688 76.79311073 -20.99358324 77.05131431 -14.7890625 75.41796875 C-7.856933 72.41769926 -2.03406075 66.09709999 0.9375 59.1875 C3.79025272 49.88826709 3.91618316 40.28174536 -0.19140625 31.43359375 C-4.00865301 24.45437692 -8.59314437 20.48591856 -15.4375 16.625 C-25.58899316 14.14902606 -34.27986932 17.21121467 -40.9375 25.3125 Z " fill="#000000" transform="translate(345,220)"/>
<path d="M0 0 C2.30219204 1.70931984 4.44219555 3.51904881 6.5859375 5.421875 C7.19050781 5.89882812 7.79507813 6.37578125 8.41796875 6.8671875 C16.13687442 13.52321902 22.02841518 25.77220003 23.40625 35.8203125 C23.46554688 36.67882812 23.52484375 37.53734375 23.5859375 38.421875 C23.62589844 38.98519531 23.62589844 38.98519531 23.828125 41.8359375 C24.42710926 58.85413729 19.29985593 72.90148865 7.72265625 85.3828125 C-1.87073864 94.53775241 -13.04317312 97.85746533 -26.12890625 97.6953125 C-38.50229012 96.66542324 -48.19829192 91.06822256 -56.6640625 82.234375 C-67.5708819 69.25636162 -70.79200698 53.90928028 -69.4140625 37.421875 C-67.31086071 23.20488307 -60.21769781 10.1944424 -48.6015625 1.546875 C-34.2289114 -7.63685826 -14.76741078 -9.65377662 0 0 Z M-42.16796875 25.48828125 C-48.05047108 34.61630211 -49.61086736 44.00741813 -47.3515625 54.671875 C-44.99581978 62.86343493 -40.2373141 68.48590576 -33.4140625 73.421875 C-27.58749503 76.17062111 -21.39507358 76.51578761 -15.16796875 74.8046875 C-7.88706212 71.5971146 -3.11776529 65.6202808 -0.0390625 58.421875 C3.38032077 48.7385353 3.21907034 39.56086271 -1.2265625 30.109375 C-5.50797762 22.4806717 -10.09542537 18.36079471 -18.4140625 15.421875 C-27.63843713 13.47659872 -36.6174824 18.17673407 -42.16796875 25.48828125 Z " fill="#000000" transform="translate(212.4140625,220.578125)"/>
</svg>
