<?xml version="1.0" encoding="UTF-8"?>
<!-- Generator: visioncortex VTracer 0.6.12 -->
<svg version="1.1" xmlns="http://www.w3.org/2000/svg" width="512" height="512">
<path d="M0 0 C3.4015214 3.03378935 4.97224867 6.7422485 6.3125 11.0625 C6.3125 12.3825 6.3125 13.7025 6.3125 15.0625 C5.54510498 15.22741943 4.77770996 15.39233887 3.98706055 15.56225586 C-63.99719655 30.34846578 -63.99719655 30.34846578 -85.6875 50.0625 C-87.21596661 53.11943322 -86.91992445 55.69234547 -86.6875 59.0625 C-85.6875 61.4375 -85.6875 61.4375 -83.6875 63.0625 C-76.92250011 64.98649079 -73.34277228 63.33491903 -67.31713867 59.98486328 C-66.28435791 59.3917334 -65.25157715 58.79860352 -64.1875 58.1875 C-3.74087587 25.27959575 70.42970294 22.62838955 135.66625977 41.63354492 C150.77059595 46.23313095 164.7663644 52.39863792 178.44873047 60.28955078 C184.31179146 63.53964681 187.74235018 64.85368338 194.3125 63.0625 C197.17169086 60.73940742 197.28358775 59.28966769 197.75 55.625 C197.23017026 51.39210068 196.18503774 50.14409853 193.3125 47.0625 C190.77661133 45.35253906 190.77661133 45.35253906 187.89453125 43.828125 C186.8178418 43.25835937 185.74115234 42.68859375 184.63183594 42.1015625 C183.47458008 41.51117188 182.31732422 40.92078125 181.125 40.3125 C180.82668274 40.1592627 180.82668274 40.1592627 179.3170166 39.38378906 C155.66958244 27.29351349 130.29032294 20.19503348 104.3125 15.0625 C104.95206636 10.11026142 105.52791836 6.28738249 108.3125 2.0625 C121.13949875 -5.72467087 143.84150773 2.53271609 157.45117188 5.82080078 C185.05271868 12.89003146 220.16812582 23.95161627 235.875 49.8125 C237.42779269 52.52610806 238.88096097 55.28327778 240.3125 58.0625 C240.73885742 58.88234375 241.16521484 59.7021875 241.60449219 60.546875 C249.4927286 75.90309622 255.67348449 91.76272843 261.3125 108.0625 C261.50183105 108.60390625 261.50183105 108.60390625 262.45996094 111.34375 C278.55021147 157.78638119 288.39803351 206.98976714 291.3125 256.0625 C291.37477783 257.10801025 291.43705566 258.15352051 291.5012207 259.23071289 C292.61421428 281.21540337 292.61421428 281.21540337 286.4375 288.82421875 C285.73625 289.56285156 285.035 290.30148437 284.3125 291.0625 C283.590625 291.91457031 282.86875 292.76664062 282.125 293.64453125 C279.92404947 296.1932014 277.64187753 298.63131401 275.3125 301.0625 C275.00570312 301.40087891 275.00570312 301.40087891 273.453125 303.11328125 C246.95043171 331.37149482 199.23100965 347.14972675 161.3125 348.625 C156.71184313 348.72276396 154.24762952 347.81818698 150.81689453 344.6784668 C147.94673966 341.59544909 145.60813551 338.16841229 143.25 334.6875 C142.23840438 333.22126921 141.22668692 331.75512247 140.21484375 330.2890625 C139.73257324 329.58168945 139.25030273 328.87431641 138.75341797 328.14550781 C137.35127801 326.11855794 135.90178337 324.13364567 134.44140625 322.1484375 C132.3125 319.0625 132.3125 319.0625 132.3125 317.0625 C132.59335449 316.97742188 132.59335449 316.97742188 134.01464844 316.546875 C200.72218614 296.19634017 200.72218614 296.19634017 212.3125 277.0625 C212.71637364 273.18531308 212.612469 270.2824566 210.3125 267.0625 C207.06135946 264.74025676 204.22438728 264.70730442 200.3125 265.0625 C197.4453125 266.71484375 197.4453125 266.71484375 194.4375 269 C168.24146753 288.07919128 136.1271337 299.04580918 104.3125 304.0625 C103.44012695 304.21058105 102.56775391 304.35866211 101.66894531 304.51123047 C43.89640859 314.02393636 -28.17917066 307.34906736 -77.77685547 273.64257812 C-80.27440876 271.84546143 -82.75236159 270.03910664 -85.14990234 268.10986328 C-88.78021692 265.28552635 -91.11304793 264.53043607 -95.6875 265.0625 C-98.27721247 265.92573749 -99.35250737 266.59351032 -100.9375 268.8125 C-101.93267055 271.79801164 -102.07118557 273.92906785 -101.6875 277.0625 C-98.86745133 281.24160826 -95.42173442 283.9650297 -91.25 286.6875 C-90.60095703 287.11281006 -89.95191406 287.53812012 -89.28320312 287.97631836 C-68.4200604 301.34207354 -45.57610188 310.68151775 -21.6875 317.0625 C-22.94547046 320.48349321 -24.37656592 323.29490044 -26.515625 326.2421875 C-27.06863281 327.00660156 -27.62164062 327.77101563 -28.19140625 328.55859375 C-28.76761719 329.34363281 -29.34382812 330.12867188 -29.9375 330.9375 C-30.49824219 331.71480469 -31.05898437 332.49210937 -31.63671875 333.29296875 C-41.0679285 346.25271425 -41.0679285 346.25271425 -44.6875 348.0625 C-79.29755553 352.10033981 -123.93733692 333.5091165 -151.09765625 313.12890625 C-155.48018541 309.63213713 -159.60692862 305.90424195 -163.6875 302.0625 C-164.37585938 301.45019531 -165.06421875 300.83789062 -165.7734375 300.20703125 C-167.88149613 298.2531192 -169.78703111 296.21929417 -171.6875 294.0625 C-172.09935547 293.60552734 -172.09935547 293.60552734 -174.18359375 291.29296875 C-182.89974996 280.57547419 -181.6689306 269.21150119 -180.6875 256.0625 C-180.60387207 254.80904785 -180.52024414 253.5555957 -180.43408203 252.26416016 C-175.83691177 185.74859683 -161.81321614 90.5243439 -116.6875 38.0625 C-113.54449756 35.45231131 -110.11392416 33.28300085 -106.6875 31.0625 C-105.59179688 30.34707031 -104.49609375 29.63164063 -103.3671875 28.89453125 C-79.84826346 13.9494389 -27.67195777 -9.65300853 0 0 Z M-37.6875 167.0625 C-45.0555479 176.54013635 -47.93289578 188.17152934 -46.6875 200.0625 C-44.70619089 211.13632844 -39.63062582 221.99810234 -30.36328125 228.7578125 C-22.45987885 233.76854541 -14.87656238 236.31008643 -5.4140625 234.66796875 C4.20988458 232.31511103 11.86697124 226.81677518 17.3125 218.5625 C23.69639714 207.5204961 25.96516748 196.62494615 23.125 184.125 C20.17859656 173.38972451 15.50211976 164.35067084 5.6796875 158.4921875 C-10.75521948 150.10703088 -25.41668472 153.60487012 -37.6875 167.0625 Z M95.3125 167.0625 C88.15917567 176.02982524 85.36007918 187.73735065 86.3125 199.0625 C88.19883209 210.20225646 92.50497967 220.98098089 101.79296875 227.9140625 C109.40494078 233.01670858 115.95918352 235.86882039 125.3125 235.0625 C135.64035123 233.01414284 143.5289755 228.15791734 149.7421875 219.6328125 C156.79890364 208.08226718 159.084476 196.22384341 156.1875 183 C153.43748519 173.07938582 147.7735786 163.854444 138.75 158.55859375 C122.15672562 150.09312964 107.79970348 153.64208914 95.3125 167.0625 Z " fill="#000000" transform="translate(200.6875,71.9375)"/>
</svg>
