<?xml version="1.0" encoding="UTF-8"?>
<!-- Generator: visioncortex VTracer 0.6.12 -->
<svg version="1.1" xmlns="http://www.w3.org/2000/svg" width="512" height="512">
<path d="M0 0 C16.06369522 4.58273587 27.54441095 18.32231676 36 32 C40.10238065 39.63470344 44 48.22787255 44 57 C44.66902344 56.84917969 45.33804687 56.69835937 46.02734375 56.54296875 C67.80359337 52.56544089 91.62243663 55.01589924 110.12109375 67.64453125 C110.74113281 68.09183594 111.36117188 68.53914063 112 69 C111.76574285 80.94711458 104.14130056 91.02261396 96.01171875 99.2109375 C79.37739616 115.06612215 59.06787231 120.56048509 36.6640625 120.10546875 C35.45492188 120.07066406 34.24578125 120.03585937 33 120 C32.8764917 120.72098877 32.7529834 121.44197754 32.62573242 122.18481445 C29.42618019 136.57967858 20.73064519 150.92509645 13.8125 163.8125 C13.53394165 164.33307983 13.53394165 164.33307983 12.12426758 166.9675293 C6.5868271 177.1042321 0.20479602 186.65852141 -6.75 195.875 C-7.2545874 196.54426514 -7.7591748 197.21353027 -8.27905273 197.90307617 C-19.67853997 212.86876508 -32.15857954 226.36643786 -47 238 C-47.97324219 238.79019531 -48.94648438 239.58039063 -49.94921875 240.39453125 C-58.80205731 247.44792207 -68.2205394 253.31910492 -78 259 C-78.61536621 259.36335449 -79.23073242 259.72670898 -79.86474609 260.10107422 C-113.13291302 279.59538017 -152.03392746 288.15378739 -190 292 C-190.69754395 292.07202637 -191.39508789 292.14405273 -192.11376953 292.21826172 C-242.22873916 297.09900146 -305.8109425 293.11302909 -346.875 260.5 C-348.60002514 259.0192262 -350.30939074 257.51994839 -352 256 C-352.75539063 255.32710937 -353.51078125 254.65421875 -354.2890625 253.9609375 C-387.55528859 222.57548744 -398.18072962 172.96570081 -400 129 C-400.02868164 128.32984863 -400.05736328 127.65969727 -400.08691406 126.96923828 C-400.73072773 110.04671833 -400.73072773 110.04671833 -395.5703125 104.44921875 C-391.23165395 100.6178163 -387.89054733 99.87541418 -382.27193928 99.86692142 C-381.07057844 99.86268038 -379.86921761 99.85843933 -378.6314519 99.85406977 C-377.29143605 99.85437547 -375.95142022 99.85476866 -374.61140442 99.85523987 C-373.1930364 99.85210682 -371.77466929 99.84853218 -370.35630339 99.84455246 C-366.44902531 99.8348391 -362.54176185 99.83130143 -358.63447344 99.82870948 C-354.42353973 99.82481976 -350.21261899 99.81518177 -346.00169373 99.80615234 C-338.6991534 99.79120009 -331.39661411 99.7796611 -324.09406471 99.77020454 C-313.51830924 99.7563319 -302.94257768 99.73514247 -292.36683937 99.71177601 C-275.1863784 99.67383338 -258.00591307 99.63887942 -240.82543945 99.60717773 C-240.31100983 99.60622749 -240.31100983 99.60622749 -237.70768418 99.60141867 C-223.13019156 99.57462823 -208.55269562 99.55074535 -193.97519615 99.52803367 C-193.46273727 99.52723502 -193.46273727 99.52723502 -190.86938477 99.52319336 C-189.84571892 99.52159989 -188.82205307 99.52000643 -187.76736704 99.51836468 C-170.66782969 99.49154936 -153.56831757 99.45712645 -136.4688074 99.41653961 C-125.9283975 99.3918254 -115.38801469 99.37346478 -104.84758046 99.363384 C-97.6126117 99.35596369 -90.3776793 99.34139341 -83.14273468 99.32131977 C-78.97474436 99.30998639 -74.80681251 99.30179052 -70.63880539 99.30232811 C-66.81197513 99.30276029 -62.98527587 99.29389102 -59.1584793 99.27807831 C-57.14139926 99.27204873 -55.12429731 99.27560586 -53.10721236 99.27967364 C-40.15842569 99.20788028 -27.78219315 97.98799122 -15.4765625 93.8046875 C-13 93 -13 93 -11 93 C-11.39832031 92.17757812 -11.79664063 91.35515625 -12.20703125 90.5078125 C-21.42418063 71.08676295 -24.37823921 50.79902082 -17.33203125 30.03125 C-13.50970477 19.6765878 -7.89213355 7.89213355 0 0 Z " fill="#2295EC" transform="translate(400,145)"/>
<path d="M0 0 C0.86936691 -0.0066568 1.73873383 -0.0133136 2.63444519 -0.02017212 C4.47445562 -0.03029742 6.31450276 -0.03498918 8.15454102 -0.03466797 C10.95976945 -0.03903031 13.76341048 -0.07531991 16.56835938 -0.11328125 C18.35806755 -0.11915174 20.14778318 -0.12311958 21.9375 -0.125 C22.7720723 -0.13937103 23.60664459 -0.15374207 24.46650696 -0.16854858 C29.83231403 -0.12679133 32.91840587 0.75212973 37.16796875 4.3359375 C38.29034156 6.58068313 38.31674596 7.84784149 38.36083984 10.33911133 C38.37690277 11.16369339 38.3929657 11.98827545 38.40951538 12.83784485 C38.45399403 16.61071949 38.49503138 20.38341859 38.51806641 24.15649414 C38.53462426 26.14587097 38.56191203 28.13518835 38.60009766 30.12426758 C38.65489139 32.99331505 38.67674392 35.86096837 38.69140625 38.73046875 C38.71407562 39.61708694 38.736745 40.50370514 38.76010132 41.41719055 C38.7447215 45.91796198 38.64445877 47.73474451 35.76025391 51.3737793 C31.33514457 54.72324283 27.78878049 54.52731562 22.3984375 54.57421875 C21.52528397 54.5822905 20.65213043 54.59036224 19.7525177 54.59867859 C17.90233345 54.61252114 16.05212363 54.62324253 14.2019043 54.63110352 C11.37694678 54.6483067 8.55316254 54.69218916 5.72851562 54.73632812 C3.93099819 54.74645597 2.1334708 54.75497179 0.3359375 54.76171875 C-0.50693314 54.77922684 -1.34980377 54.79673492 -2.21821594 54.81477356 C-6.18560462 54.80015529 -8.31483782 54.64762418 -11.7800293 52.55932617 C-16.06442855 47.91708655 -16.15058869 44.02641201 -16.16796875 37.84375 C-16.17462555 37.02019012 -16.18128235 36.19663025 -16.18814087 35.34811401 C-16.19825128 33.608238 -16.20295839 31.86832333 -16.20263672 30.12841797 C-16.20700498 27.47688342 -16.2433259 24.82702093 -16.28125 22.17578125 C-16.28711965 20.4817765 -16.29108805 18.78776388 -16.29296875 17.09375 C-16.30733978 16.30606232 -16.32171082 15.51837463 -16.33651733 14.70681763 C-16.29337613 9.46653835 -15.30746103 6.48585694 -11.83203125 2.3359375 C-7.91471229 -0.27560847 -4.54837885 0.01204205 0 0 Z " fill="#2294EB" transform="translate(313.83203125,180.6640625)"/>
<path d="M0 0 C0.86936691 -0.0066568 1.73873383 -0.0133136 2.63444519 -0.02017212 C4.47445562 -0.03029742 6.31450276 -0.03498918 8.15454102 -0.03466797 C10.95976945 -0.03903031 13.76341048 -0.07531991 16.56835938 -0.11328125 C18.35806755 -0.11915174 20.14778318 -0.12311958 21.9375 -0.125 C22.7720723 -0.13937103 23.60664459 -0.15374207 24.46650696 -0.16854858 C29.83231403 -0.12679133 32.91840587 0.75212973 37.16796875 4.3359375 C38.29034156 6.58068313 38.31674596 7.84784149 38.36083984 10.33911133 C38.37690277 11.16369339 38.3929657 11.98827545 38.40951538 12.83784485 C38.45399403 16.61071949 38.49503138 20.38341859 38.51806641 24.15649414 C38.53462426 26.14587097 38.56191203 28.13518835 38.60009766 30.12426758 C38.65489139 32.99331505 38.67674392 35.86096837 38.69140625 38.73046875 C38.71407562 39.61708694 38.736745 40.50370514 38.76010132 41.41719055 C38.7447215 45.91796198 38.64445877 47.73474451 35.76025391 51.3737793 C31.33514457 54.72324283 27.78878049 54.52731562 22.3984375 54.57421875 C21.52528397 54.5822905 20.65213043 54.59036224 19.7525177 54.59867859 C17.90233345 54.61252114 16.05212363 54.62324253 14.2019043 54.63110352 C11.37694678 54.6483067 8.55316254 54.69218916 5.72851562 54.73632812 C3.93099819 54.74645597 2.1334708 54.75497179 0.3359375 54.76171875 C-0.50693314 54.77922684 -1.34980377 54.79673492 -2.21821594 54.81477356 C-6.18560462 54.80015529 -8.31483782 54.64762418 -11.7800293 52.55932617 C-16.06442855 47.91708655 -16.15058869 44.02641201 -16.16796875 37.84375 C-16.17462555 37.02019012 -16.18128235 36.19663025 -16.18814087 35.34811401 C-16.19825128 33.608238 -16.20295839 31.86832333 -16.20263672 30.12841797 C-16.20700498 27.47688342 -16.2433259 24.82702093 -16.28125 22.17578125 C-16.28711965 20.4817765 -16.29108805 18.78776388 -16.29296875 17.09375 C-16.30733978 16.30606232 -16.32171082 15.51837463 -16.33651733 14.70681763 C-16.29337613 9.46653835 -15.30746103 6.48585694 -11.83203125 2.3359375 C-7.91471229 -0.27560847 -4.54837885 0.01204205 0 0 Z " fill="#2294EB" transform="translate(249.83203125,180.6640625)"/>
<path d="M0 0 C0.86936691 -0.0066568 1.73873383 -0.0133136 2.63444519 -0.02017212 C4.47445562 -0.03029742 6.31450276 -0.03498918 8.15454102 -0.03466797 C10.95976945 -0.03903031 13.76341048 -0.07531991 16.56835938 -0.11328125 C18.35806755 -0.11915174 20.14778318 -0.12311958 21.9375 -0.125 C22.7720723 -0.13937103 23.60664459 -0.15374207 24.46650696 -0.16854858 C29.83231403 -0.12679133 32.91840587 0.75212973 37.16796875 4.3359375 C38.29034156 6.58068313 38.31674596 7.84784149 38.36083984 10.33911133 C38.37690277 11.16369339 38.3929657 11.98827545 38.40951538 12.83784485 C38.45399403 16.61071949 38.49503138 20.38341859 38.51806641 24.15649414 C38.53462426 26.14587097 38.56191203 28.13518835 38.60009766 30.12426758 C38.65489139 32.99331505 38.67674392 35.86096837 38.69140625 38.73046875 C38.71407562 39.61708694 38.736745 40.50370514 38.76010132 41.41719055 C38.7447215 45.91796198 38.64445877 47.73474451 35.76025391 51.3737793 C31.33514457 54.72324283 27.78878049 54.52731562 22.3984375 54.57421875 C21.52528397 54.5822905 20.65213043 54.59036224 19.7525177 54.59867859 C17.90233345 54.61252114 16.05212363 54.62324253 14.2019043 54.63110352 C11.37694678 54.6483067 8.55316254 54.69218916 5.72851562 54.73632812 C3.93099819 54.74645597 2.1334708 54.75497179 0.3359375 54.76171875 C-0.50693314 54.77922684 -1.34980377 54.79673492 -2.21821594 54.81477356 C-6.18560462 54.80015529 -8.31483782 54.64762418 -11.7800293 52.55932617 C-16.06442855 47.91708655 -16.15058869 44.02641201 -16.16796875 37.84375 C-16.17462555 37.02019012 -16.18128235 36.19663025 -16.18814087 35.34811401 C-16.19825128 33.608238 -16.20295839 31.86832333 -16.20263672 30.12841797 C-16.20700498 27.47688342 -16.2433259 24.82702093 -16.28125 22.17578125 C-16.28711965 20.4817765 -16.29108805 18.78776388 -16.29296875 17.09375 C-16.30733978 16.30606232 -16.32171082 15.51837463 -16.33651733 14.70681763 C-16.29337613 9.46653835 -15.30746103 6.48585694 -11.83203125 2.3359375 C-7.91471229 -0.27560847 -4.54837885 0.01204205 0 0 Z " fill="#2294EB" transform="translate(185.83203125,180.6640625)"/>
<path d="M0 0 C0.86936691 -0.0066568 1.73873383 -0.0133136 2.63444519 -0.02017212 C4.47445562 -0.03029742 6.31450276 -0.03498918 8.15454102 -0.03466797 C10.95976945 -0.03903031 13.76341048 -0.07531991 16.56835938 -0.11328125 C18.35806755 -0.11915174 20.14778318 -0.12311958 21.9375 -0.125 C22.7720723 -0.13937103 23.60664459 -0.15374207 24.46650696 -0.16854858 C29.83231403 -0.12679133 32.91840587 0.75212973 37.16796875 4.3359375 C38.29034156 6.58068313 38.31674596 7.84784149 38.36083984 10.33911133 C38.37690277 11.16369339 38.3929657 11.98827545 38.40951538 12.83784485 C38.45399403 16.61071949 38.49503138 20.38341859 38.51806641 24.15649414 C38.53462426 26.14587097 38.56191203 28.13518835 38.60009766 30.12426758 C38.65489139 32.99331505 38.67674392 35.86096837 38.69140625 38.73046875 C38.71407562 39.61708694 38.736745 40.50370514 38.76010132 41.41719055 C38.7447215 45.91796198 38.64445877 47.73474451 35.76025391 51.3737793 C31.33514457 54.72324283 27.78878049 54.52731562 22.3984375 54.57421875 C21.52528397 54.5822905 20.65213043 54.59036224 19.7525177 54.59867859 C17.90233345 54.61252114 16.05212363 54.62324253 14.2019043 54.63110352 C11.37694678 54.6483067 8.55316254 54.69218916 5.72851562 54.73632812 C3.93099819 54.74645597 2.1334708 54.75497179 0.3359375 54.76171875 C-0.50693314 54.77922684 -1.34980377 54.79673492 -2.21821594 54.81477356 C-6.18560462 54.80015529 -8.31483782 54.64762418 -11.7800293 52.55932617 C-16.06442855 47.91708655 -16.15058869 44.02641201 -16.16796875 37.84375 C-16.17462555 37.02019012 -16.18128235 36.19663025 -16.18814087 35.34811401 C-16.19825128 33.608238 -16.20295839 31.86832333 -16.20263672 30.12841797 C-16.20700498 27.47688342 -16.2433259 24.82702093 -16.28125 22.17578125 C-16.28711965 20.4817765 -16.29108805 18.78776388 -16.29296875 17.09375 C-16.30733978 16.30606232 -16.32171082 15.51837463 -16.33651733 14.70681763 C-16.29337613 9.46653835 -15.30746103 6.48585694 -11.83203125 2.3359375 C-7.91471229 -0.27560847 -4.54837885 0.01204205 0 0 Z " fill="#2294EB" transform="translate(121.83203125,180.6640625)"/>
<path d="M0 0 C0.86936691 -0.0066568 1.73873383 -0.0133136 2.63444519 -0.02017212 C4.47445562 -0.03029742 6.31450276 -0.03498918 8.15454102 -0.03466797 C10.95976945 -0.03903031 13.76341048 -0.07531991 16.56835938 -0.11328125 C18.35806755 -0.11915174 20.14778318 -0.12311958 21.9375 -0.125 C22.7720723 -0.13937103 23.60664459 -0.15374207 24.46650696 -0.16854858 C29.83231403 -0.12679133 32.91840587 0.75212973 37.16796875 4.3359375 C38.29034156 6.58068313 38.31674596 7.84784149 38.36083984 10.33911133 C38.37690277 11.16369339 38.3929657 11.98827545 38.40951538 12.83784485 C38.45399403 16.61071949 38.49503138 20.38341859 38.51806641 24.15649414 C38.53462426 26.14587097 38.56191203 28.13518835 38.60009766 30.12426758 C38.65489139 32.99331505 38.67674392 35.86096837 38.69140625 38.73046875 C38.71407562 39.61708694 38.736745 40.50370514 38.76010132 41.41719055 C38.7447215 45.91796198 38.64445877 47.73474451 35.76025391 51.3737793 C31.33514457 54.72324283 27.78878049 54.52731562 22.3984375 54.57421875 C21.52528397 54.5822905 20.65213043 54.59036224 19.7525177 54.59867859 C17.90233345 54.61252114 16.05212363 54.62324253 14.2019043 54.63110352 C11.37694678 54.6483067 8.55316254 54.69218916 5.72851562 54.73632812 C3.93099819 54.74645597 2.1334708 54.75497179 0.3359375 54.76171875 C-0.50693314 54.77922684 -1.34980377 54.79673492 -2.21821594 54.81477356 C-6.18560462 54.80015529 -8.31483782 54.64762418 -11.7800293 52.55932617 C-16.06442855 47.91708655 -16.15058869 44.02641201 -16.16796875 37.84375 C-16.17462555 37.02019012 -16.18128235 36.19663025 -16.18814087 35.34811401 C-16.19825128 33.608238 -16.20295839 31.86832333 -16.20263672 30.12841797 C-16.20700498 27.47688342 -16.2433259 24.82702093 -16.28125 22.17578125 C-16.28711965 20.4817765 -16.29108805 18.78776388 -16.29296875 17.09375 C-16.30733978 16.30606232 -16.32171082 15.51837463 -16.33651733 14.70681763 C-16.29337613 9.46653835 -15.30746103 6.48585694 -11.83203125 2.3359375 C-7.91471229 -0.27560847 -4.54837885 0.01204205 0 0 Z " fill="#2294EB" transform="translate(57.83203125,180.6640625)"/>
<path d="M0 0 C0.86936691 -0.0066568 1.73873383 -0.0133136 2.63444519 -0.02017212 C4.47445562 -0.03029742 6.31450276 -0.03498918 8.15454102 -0.03466797 C10.95976945 -0.03903031 13.76341048 -0.07531991 16.56835938 -0.11328125 C18.35806755 -0.11915174 20.14778318 -0.12311958 21.9375 -0.125 C22.7720723 -0.13937103 23.60664459 -0.15374207 24.46650696 -0.16854858 C29.83231403 -0.12679133 32.91840587 0.75212973 37.16796875 4.3359375 C38.29034156 6.58068313 38.31674596 7.84784149 38.36083984 10.33911133 C38.37690277 11.16369339 38.3929657 11.98827545 38.40951538 12.83784485 C38.45399403 16.61071949 38.49503138 20.38341859 38.51806641 24.15649414 C38.53462426 26.14587097 38.56191203 28.13518835 38.60009766 30.12426758 C38.65489139 32.99331505 38.67674392 35.86096837 38.69140625 38.73046875 C38.71407562 39.61708694 38.736745 40.50370514 38.76010132 41.41719055 C38.7447215 45.91796198 38.64445877 47.73474451 35.76025391 51.3737793 C31.33514457 54.72324283 27.78878049 54.52731562 22.3984375 54.57421875 C21.52528397 54.5822905 20.65213043 54.59036224 19.7525177 54.59867859 C17.90233345 54.61252114 16.05212363 54.62324253 14.2019043 54.63110352 C11.37694678 54.6483067 8.55316254 54.69218916 5.72851562 54.73632812 C3.93099819 54.74645597 2.1334708 54.75497179 0.3359375 54.76171875 C-0.50693314 54.77922684 -1.34980377 54.79673492 -2.21821594 54.81477356 C-6.18560462 54.80015529 -8.31483782 54.64762418 -11.7800293 52.55932617 C-16.06442855 47.91708655 -16.15058869 44.02641201 -16.16796875 37.84375 C-16.17462555 37.02019012 -16.18128235 36.19663025 -16.18814087 35.34811401 C-16.19825128 33.608238 -16.20295839 31.86832333 -16.20263672 30.12841797 C-16.20700498 27.47688342 -16.2433259 24.82702093 -16.28125 22.17578125 C-16.28711965 20.4817765 -16.29108805 18.78776388 -16.29296875 17.09375 C-16.30733978 16.30606232 -16.32171082 15.51837463 -16.33651733 14.70681763 C-16.29337613 9.46653835 -15.30746103 6.48585694 -11.83203125 2.3359375 C-7.91471229 -0.27560847 -4.54837885 0.01204205 0 0 Z " fill="#2294EB" transform="translate(249.83203125,116.6640625)"/>
<path d="M0 0 C0.86936691 -0.0066568 1.73873383 -0.0133136 2.63444519 -0.02017212 C4.47445562 -0.03029742 6.31450276 -0.03498918 8.15454102 -0.03466797 C10.95976945 -0.03903031 13.76341048 -0.07531991 16.56835938 -0.11328125 C18.35806755 -0.11915174 20.14778318 -0.12311958 21.9375 -0.125 C22.7720723 -0.13937103 23.60664459 -0.15374207 24.46650696 -0.16854858 C29.83231403 -0.12679133 32.91840587 0.75212973 37.16796875 4.3359375 C38.29034156 6.58068313 38.31674596 7.84784149 38.36083984 10.33911133 C38.37690277 11.16369339 38.3929657 11.98827545 38.40951538 12.83784485 C38.45399403 16.61071949 38.49503138 20.38341859 38.51806641 24.15649414 C38.53462426 26.14587097 38.56191203 28.13518835 38.60009766 30.12426758 C38.65489139 32.99331505 38.67674392 35.86096837 38.69140625 38.73046875 C38.71407562 39.61708694 38.736745 40.50370514 38.76010132 41.41719055 C38.7447215 45.91796198 38.64445877 47.73474451 35.76025391 51.3737793 C31.33514457 54.72324283 27.78878049 54.52731562 22.3984375 54.57421875 C21.52528397 54.5822905 20.65213043 54.59036224 19.7525177 54.59867859 C17.90233345 54.61252114 16.05212363 54.62324253 14.2019043 54.63110352 C11.37694678 54.6483067 8.55316254 54.69218916 5.72851562 54.73632812 C3.93099819 54.74645597 2.1334708 54.75497179 0.3359375 54.76171875 C-0.50693314 54.77922684 -1.34980377 54.79673492 -2.21821594 54.81477356 C-6.18560462 54.80015529 -8.31483782 54.64762418 -11.7800293 52.55932617 C-16.06442855 47.91708655 -16.15058869 44.02641201 -16.16796875 37.84375 C-16.17462555 37.02019012 -16.18128235 36.19663025 -16.18814087 35.34811401 C-16.19825128 33.608238 -16.20295839 31.86832333 -16.20263672 30.12841797 C-16.20700498 27.47688342 -16.2433259 24.82702093 -16.28125 22.17578125 C-16.28711965 20.4817765 -16.29108805 18.78776388 -16.29296875 17.09375 C-16.30733978 16.30606232 -16.32171082 15.51837463 -16.33651733 14.70681763 C-16.29337613 9.46653835 -15.30746103 6.48585694 -11.83203125 2.3359375 C-7.91471229 -0.27560847 -4.54837885 0.01204205 0 0 Z " fill="#2294EB" transform="translate(185.83203125,116.6640625)"/>
<path d="M0 0 C0.86936691 -0.0066568 1.73873383 -0.0133136 2.63444519 -0.02017212 C4.47445562 -0.03029742 6.31450276 -0.03498918 8.15454102 -0.03466797 C10.95976945 -0.03903031 13.76341048 -0.07531991 16.56835938 -0.11328125 C18.35806755 -0.11915174 20.14778318 -0.12311958 21.9375 -0.125 C22.7720723 -0.13937103 23.60664459 -0.15374207 24.46650696 -0.16854858 C29.83231403 -0.12679133 32.91840587 0.75212973 37.16796875 4.3359375 C38.29034156 6.58068313 38.31674596 7.84784149 38.36083984 10.33911133 C38.37690277 11.16369339 38.3929657 11.98827545 38.40951538 12.83784485 C38.45399403 16.61071949 38.49503138 20.38341859 38.51806641 24.15649414 C38.53462426 26.14587097 38.56191203 28.13518835 38.60009766 30.12426758 C38.65489139 32.99331505 38.67674392 35.86096837 38.69140625 38.73046875 C38.71407562 39.61708694 38.736745 40.50370514 38.76010132 41.41719055 C38.7447215 45.91796198 38.64445877 47.73474451 35.76025391 51.3737793 C31.33514457 54.72324283 27.78878049 54.52731562 22.3984375 54.57421875 C21.52528397 54.5822905 20.65213043 54.59036224 19.7525177 54.59867859 C17.90233345 54.61252114 16.05212363 54.62324253 14.2019043 54.63110352 C11.37694678 54.6483067 8.55316254 54.69218916 5.72851562 54.73632812 C3.93099819 54.74645597 2.1334708 54.75497179 0.3359375 54.76171875 C-0.50693314 54.77922684 -1.34980377 54.79673492 -2.21821594 54.81477356 C-6.18560462 54.80015529 -8.31483782 54.64762418 -11.7800293 52.55932617 C-16.06442855 47.91708655 -16.15058869 44.02641201 -16.16796875 37.84375 C-16.17462555 37.02019012 -16.18128235 36.19663025 -16.18814087 35.34811401 C-16.19825128 33.608238 -16.20295839 31.86832333 -16.20263672 30.12841797 C-16.20700498 27.47688342 -16.2433259 24.82702093 -16.28125 22.17578125 C-16.28711965 20.4817765 -16.29108805 18.78776388 -16.29296875 17.09375 C-16.30733978 16.30606232 -16.32171082 15.51837463 -16.33651733 14.70681763 C-16.29337613 9.46653835 -15.30746103 6.48585694 -11.83203125 2.3359375 C-7.91471229 -0.27560847 -4.54837885 0.01204205 0 0 Z " fill="#2294EB" transform="translate(121.83203125,116.6640625)"/>
<path d="M0 0 C0.86936691 -0.0066568 1.73873383 -0.0133136 2.63444519 -0.02017212 C4.47445562 -0.03029742 6.31450276 -0.03498918 8.15454102 -0.03466797 C10.95976945 -0.03903031 13.76341048 -0.07531991 16.56835938 -0.11328125 C18.35806755 -0.11915174 20.14778318 -0.12311958 21.9375 -0.125 C22.7720723 -0.13937103 23.60664459 -0.15374207 24.46650696 -0.16854858 C29.83231403 -0.12679133 32.91840587 0.75212973 37.16796875 4.3359375 C38.29034156 6.58068313 38.31674596 7.84784149 38.36083984 10.33911133 C38.37690277 11.16369339 38.3929657 11.98827545 38.40951538 12.83784485 C38.45399403 16.61071949 38.49503138 20.38341859 38.51806641 24.15649414 C38.53462426 26.14587097 38.56191203 28.13518835 38.60009766 30.12426758 C38.65489139 32.99331505 38.67674392 35.86096837 38.69140625 38.73046875 C38.71407562 39.61708694 38.736745 40.50370514 38.76010132 41.41719055 C38.7447215 45.91796198 38.64445877 47.73474451 35.76025391 51.3737793 C31.33514457 54.72324283 27.78878049 54.52731562 22.3984375 54.57421875 C21.52528397 54.5822905 20.65213043 54.59036224 19.7525177 54.59867859 C17.90233345 54.61252114 16.05212363 54.62324253 14.2019043 54.63110352 C11.37694678 54.6483067 8.55316254 54.69218916 5.72851562 54.73632812 C3.93099819 54.74645597 2.1334708 54.75497179 0.3359375 54.76171875 C-0.50693314 54.77922684 -1.34980377 54.79673492 -2.21821594 54.81477356 C-6.18560462 54.80015529 -8.31483782 54.64762418 -11.7800293 52.55932617 C-16.06442855 47.91708655 -16.15058869 44.02641201 -16.16796875 37.84375 C-16.17462555 37.02019012 -16.18128235 36.19663025 -16.18814087 35.34811401 C-16.19825128 33.608238 -16.20295839 31.86832333 -16.20263672 30.12841797 C-16.20700498 27.47688342 -16.2433259 24.82702093 -16.28125 22.17578125 C-16.28711965 20.4817765 -16.29108805 18.78776388 -16.29296875 17.09375 C-16.30733978 16.30606232 -16.32171082 15.51837463 -16.33651733 14.70681763 C-16.29337613 9.46653835 -15.30746103 6.48585694 -11.83203125 2.3359375 C-7.91471229 -0.27560847 -4.54837885 0.01204205 0 0 Z " fill="#2294EB" transform="translate(249.83203125,52.6640625)"/>
</svg>
