<?xml version="1.0" encoding="UTF-8"?>
<!-- Generator: visioncortex VTracer 0.6.12 -->
<svg version="1.1" xmlns="http://www.w3.org/2000/svg" width="512" height="512">
<path d="M0 0 C19.779375 -0.0928125 19.779375 -0.0928125 119.875 -0.5625 C132.36585449 -0.64443604 144.85670898 -0.72637207 157.72607422 -0.81079102 C172.97875977 -0.85144043 172.97875977 -0.85144043 180.11917114 -0.85899353 C185.10659819 -0.86737898 190.09316315 -0.90110525 195.08035278 -0.95018005 C201.44504056 -1.01197867 207.80847739 -1.03040945 214.17343736 -1.01765049 C216.50731415 -1.02031778 218.84123529 -1.03812879 221.17485404 -1.07293618 C240.79819444 -1.35199727 240.79819444 -1.35199727 246.71340942 3.83171082 C248.17905967 5.52328786 249.60689059 7.24819815 251 9 C252.37183605 10.36764426 253.74478153 11.73450721 255.14288127 13.07529134 C256.66376608 14.53546894 258.15785988 16.01888033 259.6469574 17.51142883 C259.90618957 17.7711337 259.90618957 17.7711337 261.21806145 19.08539772 C261.48630006 19.35417575 261.48630006 19.35417575 262.84375 20.71435547 C263.99446903 21.86371606 265.14539994 23.01286456 266.29652405 24.16181946 C269.39126771 27.25204504 272.48288942 30.3453757 275.57378006 33.43945456 C278.81843354 36.68665665 282.06554519 39.93139922 285.31225586 43.17654419 C290.75407636 48.61655208 296.19379953 54.05865047 301.63232422 59.50195312 C307.91990572 65.79499468 314.21110734 72.08439996 320.50416374 78.37196624 C325.91850696 83.78177523 331.33090388 89.19352565 336.74167061 94.60691178 C339.96883622 97.83563599 343.19667286 101.06368156 346.42626953 104.28997421 C349.45569104 107.31651188 352.48266501 110.34547613 355.50774956 113.3763485 C356.61870987 114.48863282 357.73052529 115.60006378 358.84324837 116.71058464 C360.35949002 118.22410125 361.87262979 119.74065217 363.38500977 121.25802612 C364.23297623 122.10636961 365.08094269 122.9547131 365.9546051 123.82876396 C369.48898471 127.5805932 370.24978456 129.67025545 370.24609566 134.7259016 C370.2500774 135.92705671 370.25405914 137.12821182 370.25816154 138.36576557 C370.25245707 139.70463449 370.24656629 141.04350263 370.24050903 142.38237 C370.24138356 143.79633664 370.2431368 145.21030298 370.24569702 146.62426758 C370.25019661 150.52665069 370.2421376 154.42892468 370.23214546 158.33129393 C370.22343568 162.59775084 370.22633312 166.86420241 370.2277813 171.13066578 C370.2288463 179.41924662 370.2195953 187.70778427 370.20677864 195.996354 C370.19240163 205.58013387 370.1907904 215.16388763 370.18920898 224.74768066 C370.17870019 250.06096064 370.15077807 275.37423097 370.125 300.6875 C370.08375 357.220625 370.0425 413.75375 370 472 C247.9 472 125.8 472 0 472 C0 316.24 0 160.48 0 0 Z M22 21 C22 162.9 22 304.8 22 451 C129.58 451 237.16 451 348 451 C348 349.69 348 248.38 348 144 C307.41 144 266.82 144 225 144 C225 103.41 225 62.82 225 21 C158.01 21 91.02 21 22 21 Z M247 38 C247 66.05 247 94.1 247 123 C275.05 123 303.1 123 332 123 C325.24974275 115.12469987 325.24974275 115.12469987 322.32402039 112.19703674 C321.66091354 111.53111008 320.9978067 110.86518341 320.31460571 110.17907715 C319.60839081 109.47488647 318.9021759 108.7706958 318.17456055 108.04516602 C317.41451218 107.28336533 316.65446381 106.52156464 315.87138367 105.73667908 C313.37899114 103.23991382 310.88299309 100.74679001 308.38671875 98.25390625 C306.64876426 96.51527783 304.91095821 94.776501 303.17329407 93.0375824 C299.54285225 89.40567018 295.91061719 85.77556353 292.27709961 82.14672852 C287.60829475 77.48364611 282.9440275 72.81605469 278.28106976 68.1471262 C274.69968173 64.56213653 271.11593014 60.97951728 267.53144264 57.39762688 C265.80942078 55.67627407 264.08814687 53.9541727 262.36762047 52.23132515 C259.97363891 49.83482084 257.57650457 47.4415168 255.1784668 45.04907227 C254.46213074 44.33071198 253.74579468 43.61235168 253.00775146 42.8722229 C252.35874374 42.226035 251.70973602 41.57984711 251.0410614 40.91407776 C250.47457728 40.34797067 249.90809317 39.78186357 249.32444286 39.19860172 C248 38 248 38 247 38 Z " fill="#000000" transform="translate(71,20)"/>
<path d="M0 0 C67.98 0 135.96 0 206 0 C206 6.93 206 13.86 206 21 C138.02 21 70.04 21 0 21 C0 14.07 0 7.14 0 0 Z " fill="#000000" transform="translate(153,348)"/>
<path d="M0 0 C67.98 0 135.96 0 206 0 C206 6.93 206 13.86 206 21 C138.02 21 70.04 21 0 21 C0 14.07 0 7.14 0 0 Z " fill="#000000" transform="translate(153,225)"/>
<path d="M0 0 C54.45 0 108.9 0 165 0 C165 7.26 165 14.52 165 22 C110.55 22 56.1 22 0 22 C0 14.74 0 7.48 0 0 Z " fill="#000000" transform="translate(153,286)"/>
</svg>
