<?xml version="1.0" encoding="UTF-8"?>
<!-- Generator: visioncortex VTracer 0.6.12 -->
<svg version="1.1" xmlns="http://www.w3.org/2000/svg" width="512" height="512">
<path d="M0 0 C7.59 0 15.18 0 23 0 C23.94875 2.866875 24.8975 5.73375 25.875 8.6875 C33.13589394 29.7636316 43.40648663 50.9659332 58 68 C62.55107385 66.65536454 66.64301623 64.77212915 70.87768555 62.67382812 C79.32310017 58.49082786 87.8319903 54.73110544 96.6875 51.5 C97.57050781 51.17435059 98.45351562 50.84870117 99.36328125 50.51318359 C105.16581488 48.45008487 110.93297657 47.04539481 117 46 C116.79318604 45.06841064 116.58637207 44.13682129 116.37329102 43.17700195 C115.59462961 39.65826339 114.82781099 36.13702467 114.06420898 32.61499023 C113.73465842 31.10258569 113.40206959 29.59083936 113.06616211 28.07983398 C110.97579866 18.66538695 109.49422512 9.6547921 109 0 C116.26 0 123.52 0 131 0 C131.40992188 2.145 131.81984375 4.29 132.2421875 6.5 C132.64546026 8.60182867 133.04950089 10.7035084 133.45361328 12.80517578 C133.73175839 14.25391539 134.00911841 15.70280597 134.28564453 17.15185547 C137.1147695 31.97156783 137.1147695 31.97156783 139 39 C145.43453079 38.01370421 151.86793158 37.02214116 158.296875 36 C169.63108707 34.22679762 180.93688715 32.67203413 192.375 31.75 C193.35307617 31.67007812 194.33115234 31.59015625 195.33886719 31.5078125 C202.6119514 30.97364515 209.65989207 31 217 31 C217 20.77 217 10.54 217 0 C224.26 0 231.52 0 239 0 C239 10.23 239 20.46 239 31 C243.29 31 247.58 31 252 31 C257.17936098 31.2510277 262.33698075 31.71184049 267.5 32.1875 C268.20312317 32.25047272 268.90624634 32.31344543 269.63067627 32.37832642 C283.74863706 33.6615426 297.60107896 35.90962287 311.52099609 38.58862305 C314 39 314 39 317 39 C317.96381729 34.75122501 318.92002046 30.50076938 319.875 26.25 C320.00970703 25.65638672 320.00970703 25.65638672 320.69140625 22.65234375 C322.37700753 15.12880633 323.80046673 7.61645394 325 0 C332.26 0 339.52 0 347 0 C346.46633558 10.42524713 344.69671781 20.14990932 342.4375 30.3125 C342.10402261 31.84292592 341.77133547 33.37352426 341.43945312 34.90429688 C340.63537025 38.60490932 339.82072844 42.30304523 339 46 C339.59208252 46.09869385 340.18416504 46.1973877 340.79418945 46.29907227 C347.55034742 47.52501191 353.77769383 49.49949584 360.1875 51.9375 C360.70038574 52.12944946 360.70038574 52.12944946 363.29589844 53.10083008 C372.02297686 56.44771925 380.40324802 60.39794822 388.68823242 64.72045898 C389.59033447 65.17751221 390.49243652 65.63456543 391.421875 66.10546875 C392.21174805 66.51949951 393.00162109 66.93353027 393.81542969 67.36010742 C396 68 396 68 398.14697266 67.29614258 C401.04755589 65.26726295 402.74000522 62.43238089 404.625 59.5 C405.0573999 58.83564941 405.4897998 58.17129883 405.93530273 57.48681641 C417.45967782 39.52388196 426.73474047 20.43019412 433 0 C440.59 0 448.18 0 456 0 C445.47102877 49.35455263 411.97957487 97.01011534 371.703125 126.74121094 C370.03965069 127.97069396 368.39472448 129.22216212 366.75 130.4765625 C336.16904186 153.4270688 299.60018811 167.2594161 262 173 C261.17693359 173.12987305 260.35386719 173.25974609 259.50585938 173.39355469 C200.73845819 182.29090932 137.64869703 165.81892899 89.84375 130.8828125 C84.74898224 127.09176478 79.80736299 123.15007647 75 119 C74.22011719 118.33097656 73.44023438 117.66195312 72.63671875 116.97265625 C60.76078342 106.53505024 49.65746203 95.43542338 40.25878906 82.703125 C39.02930604 81.03965069 37.77783788 79.39472448 36.5234375 77.75 C22.06187698 58.48034333 0 24.9318125 0 0 Z M239 52 C239 85 239 118 239 152 C262.26829851 145.01951045 277.58329268 128.24020299 290 108 C290.20625 107.66572998 290.20625 107.66572998 291.25 105.97412109 C299.56003433 92.30476385 307.44960435 76.66929285 311 61 C302.61525203 58.73085089 294.29021687 57.11655257 285.6875 55.9375 C284.61822266 55.77701172 283.54894531 55.61652344 282.44726562 55.45117188 C267.98763678 53.44087172 253.65594614 52.94554491 239 52 Z M170.375 55.9375 C169.79282715 56.01629395 169.79282715 56.01629395 166.84667969 56.41503906 C159.42562291 57.4831404 152.23574828 59.03980578 145 61 C151.35048881 83.98939209 162.73846393 106.61855877 178 125 C178.82886719 126.00417969 179.65773437 127.00835937 180.51171875 128.04296875 C189.86266515 138.98670628 201.15114748 147.58509735 215 152 C215.66 152 216.32 152 217 152 C217 119 217 86 217 52 C201.51900409 52 185.69074348 53.83313849 170.375 55.9375 Z M332 66 C331.82049805 66.5355249 331.64099609 67.0710498 331.45605469 67.62280273 C322.86805832 92.92958531 311.94663423 117.63394275 294.4609375 138.1171875 C293 140 293 140 292 143 C298.66911756 141.70639227 304.59307837 139.77596776 310.8125 137.0625 C311.7190332 136.66844971 312.62556641 136.27439941 313.55957031 135.8684082 C340.00919174 124.13007171 362.98192251 107.84832033 383 87 C379.69583145 83.40690763 375.90049458 81.84623888 371.5 79.875 C370.64301514 79.48900635 369.78603027 79.1030127 368.90307617 78.70532227 C339.83705425 66 339.83705425 66 332 66 Z M84.5 79.875 C83.67717529 80.24359131 82.85435059 80.61218262 82.0065918 80.99194336 C78.41619966 82.65974583 75.70802987 84.05517399 73 87 C96.98986673 111.97425336 127.4350315 133.12073139 161 143 C161.99 143 162.98 143 164 143 C162.39268841 139.32490378 160.08809078 136.53690501 157.5625 133.4375 C141.90086579 113.54633321 132.17127865 89.7314436 124 66 C111.83786588 66 95.50782626 74.91697653 84.5 79.875 Z " fill="#000000" transform="translate(28,317)"/>
<path d="M0 0 C0.77988281 0.66902344 1.55976563 1.33804688 2.36328125 2.02734375 C14.23921658 12.46494976 25.34253797 23.56457662 34.74121094 36.296875 C35.97069396 37.96034931 37.22216212 39.60527552 38.4765625 41.25 C52.93812302 60.51965667 75 94.0681875 75 119 C67.41 119 59.82 119 52 119 C51.05125 116.133125 50.1025 113.26625 49.125 110.3125 C41.86410606 89.2363684 31.59351337 68.0340668 17 51 C12.4956596 52.33165476 8.45917791 54.18890699 4.27392578 56.27563477 C-4.75319499 60.76704061 -13.88881135 64.64355593 -23.375 68.0625 C-24.42598877 68.44414307 -25.47697754 68.82578613 -26.55981445 69.21899414 C-31.74480957 71.04576894 -36.52141276 72.3193014 -42 73 C-41.79318604 73.93158936 -41.58637207 74.86317871 -41.37329102 75.82299805 C-40.59462961 79.34173661 -39.82781099 82.86297533 -39.06420898 86.38500977 C-38.73465842 87.89741431 -38.40206959 89.40916064 -38.06616211 90.92016602 C-35.97579866 100.33461305 -34.49422512 109.3452079 -34 119 C-41.26 119 -48.52 119 -56 119 C-56.20496094 117.9275 -56.20496094 117.9275 -57.2421875 112.5 C-57.64546026 110.39817133 -58.04950089 108.2964916 -58.45361328 106.19482422 C-58.73175839 104.74608461 -59.00911841 103.29719403 -59.28564453 101.84814453 C-62.1147695 87.02843217 -62.1147695 87.02843217 -64 80 C-70.43453079 80.98629579 -76.86793158 81.97785884 -83.296875 83 C-94.63108707 84.77320238 -105.93688715 86.32796587 -117.375 87.25 C-117.86403809 87.28996094 -117.86403809 87.28996094 -120.33886719 87.4921875 C-127.6119514 88.02635485 -134.65989207 88 -142 88 C-142 98.23 -142 108.46 -142 119 C-149.26 119 -156.52 119 -164 119 C-164 108.77 -164 98.54 -164 88 C-167.96 88 -171.92 88 -176 88 C-181.32384426 87.74057607 -186.62870244 87.28219527 -191.9375 86.8125 C-192.30214859 86.78101364 -192.30214859 86.78101364 -194.14749146 86.62167358 C-208.44250327 85.36674349 -222.44887415 83.14028284 -236.53686523 80.41137695 C-239 80 -239 80 -242 80 C-242.96381729 84.24877499 -243.92002046 88.49923062 -244.875 92.75 C-245.00970703 93.34361328 -245.00970703 93.34361328 -245.69140625 96.34765625 C-247.37700753 103.87119367 -248.80046673 111.38354606 -250 119 C-257.26 119 -264.52 119 -272 119 C-271.46633558 108.57475287 -269.69671781 98.85009068 -267.4375 88.6875 C-267.10402261 87.15707408 -266.77133547 85.62647574 -266.43945312 84.09570312 C-265.63537025 80.39509068 -264.82072844 76.69695477 -264 73 C-264.59208252 72.90130615 -265.18416504 72.8026123 -265.79418945 72.70092773 C-272.55034742 71.47498809 -278.77769383 69.50050416 -285.1875 67.0625 C-285.70038574 66.87055054 -285.70038574 66.87055054 -288.29589844 65.89916992 C-297.02297686 62.55228075 -305.40324802 58.60205178 -313.68823242 54.27954102 C-314.59033447 53.82248779 -315.49243652 53.36543457 -316.421875 52.89453125 C-317.21174805 52.48050049 -318.00162109 52.06646973 -318.81542969 51.63989258 C-321 51 -321 51 -323.14697266 51.70385742 C-326.04755589 53.73273705 -327.74000522 56.56761911 -329.625 59.5 C-330.0573999 60.16435059 -330.4897998 60.82870117 -330.93530273 61.51318359 C-342.45967782 79.47611804 -351.73474047 98.56980588 -358 119 C-365.59 119 -373.18 119 -381 119 C-374.25775539 87.39572838 -357.93412666 58.10998148 -338 33 C-337.5678418 32.45069824 -337.13568359 31.90139648 -336.69042969 31.33544922 C-325.11687601 16.74524115 -311.71200276 3.19104022 -296.65478516 -7.78955078 C-295.00755869 -8.99447093 -293.38428859 -10.22699182 -291.76171875 -11.46484375 C-210.81280162 -72.25751651 -93.45811835 -70.38024278 0 0 Z M-142 -33 C-142 0 -142 33 -142 67 C-106.12653374 64.68558282 -106.12653374 64.68558282 -95.3125 63.0625 C-94.16974609 62.90587891 -93.02699219 62.74925781 -91.84960938 62.58789062 C-84.42716466 61.52512187 -77.2364757 59.95839427 -70 58 C-79.80257607 25.4889437 -97.66233802 -10.29670489 -128 -28 C-138.07900677 -33 -138.07900677 -33 -142 -33 Z M-189 -20 C-189.41636719 -19.66613281 -189.41636719 -19.66613281 -191.5234375 -17.9765625 C-213.24662373 0.45730847 -226.74520891 29.62513796 -236 56 C-236 56.66 -236 57.32 -236 58 C-227.61525203 60.26914911 -219.29021687 61.88344743 -210.6875 63.0625 C-209.61822266 63.22298828 -208.54894531 63.38347656 -207.44726562 63.54882812 C-192.98763678 65.55912828 -178.65594614 66.05445509 -164 67 C-164 34 -164 1 -164 -33 C-173.09472783 -33 -182.3031586 -25.43254096 -189 -20 Z M-291 16 C-291.87140625 16.76183594 -292.7428125 17.52367187 -293.640625 18.30859375 C-298.59752561 22.70895612 -303.38246977 27.24486126 -308 32 C-304.69578065 35.59314762 -300.90046807 37.15357996 -296.5 39.125 C-296.07187012 39.31799683 -296.07187012 39.31799683 -293.90527344 40.29467773 C-282.25493406 45.39041519 -270.1121097 49.1701542 -258 53 C-256.33085708 50.49628561 -255.42502097 48.69379526 -254.44140625 45.921875 C-245.94918267 22.53089253 -235.7394166 -0.04811198 -219.4609375 -19.1171875 C-218 -21 -218 -21 -217 -24 C-241.56231681 -24 -273.2926654 0.46378763 -291 16 Z M-89 -24 C-87.39268841 -20.32490378 -85.08809078 -17.53690501 -82.5625 -14.4375 C-66.90086579 5.45366679 -57.17127865 29.2685564 -49 53 C-31.19482645 48.20275117 -14.30058297 41.63607045 2 33 C-19.48462518 7.21844978 -53.37002744 -15.33673608 -86 -24 C-86.99 -24 -87.98 -24 -89 -24 Z " fill="#000000" transform="translate(409,76)"/>
<path d="M0 0 C7.92 0 15.84 0 24 0 C28.00405402 12.34583324 31.85329066 24.7138057 35.4375 37.1875 C35.79134766 38.41049805 36.14519531 39.63349609 36.50976562 40.89355469 C36.83525391 42.03598633 37.16074219 43.17841797 37.49609375 44.35546875 C37.64139526 44.86412476 37.64139526 44.86412476 38.37670898 47.43823242 C39 50 39 50 39 53 C39.66 53 40.32 53 41 53 C41.259021 51.72116943 41.51804199 50.44233887 41.78491211 49.12475586 C42.94293741 43.92673584 44.62477733 39.00364047 46.44140625 34.00390625 C46.76914536 33.08915024 47.09688446 32.17439423 47.43455505 31.23191833 C48.47214862 28.34026591 49.51735251 25.45142949 50.5625 22.5625 C51.26804747 20.59717364 51.97313001 18.6316803 52.67773438 16.66601562 C53.34854342 14.79933001 54.01975297 12.93278827 54.69140625 11.06640625 C54.8497419 10.62633492 54.8497419 10.62633492 55.65101624 8.39930725 C55.9447966 7.58763596 56.23857697 6.77596466 56.54125977 5.93969727 C56.79948013 5.22515884 57.0577005 4.51062042 57.32374573 3.77442932 C58 2 58 2 59 0 C68.24 0 77.48 0 87 0 C88.92099271 5.61916049 90.84170121 11.23841659 92.76171875 16.85791016 C93.41325014 18.76454081 94.06493919 20.6711176 94.71679688 22.57763672 C101.66114122 42.88877885 101.66114122 42.88877885 105 53 C110.5219463 35.38406752 115.8848877 17.73964479 121 0 C128.92 0 136.84 0 145 0 C139.7571756 17.19382161 134.36150136 34.32455343 128.76098633 51.4050293 C127.53524258 55.14568261 126.31534746 58.88821344 125.09570312 62.63085938 C124.31544847 65.01573767 123.53486299 67.40050777 122.75390625 69.78515625 C122.39043594 70.90148941 122.02696564 72.01782257 121.65248108 73.16798401 C121.48524284 73.67655693 121.48524284 73.67655693 120.63891602 76.25024414 C120.3454982 77.1466713 120.05208038 78.04309845 119.74977112 78.96669006 C119 81 119 81 118 82 C116.21928754 82.08726223 114.4351686 82.10699041 112.65234375 82.09765625 C111.57275391 82.09443359 110.49316406 82.09121094 109.38085938 82.08789062 C108.24455078 82.07951172 107.10824219 82.07113281 105.9375 82.0625 C104.79732422 82.05798828 103.65714844 82.05347656 102.48242188 82.04882812 C99.65489649 82.03699747 96.8274736 82.0205141 94 82 C90.89598106 75.33455437 88.31851581 68.55816831 85.890625 61.62109375 C85.51895203 60.56841812 85.14727905 59.51574249 84.76434326 58.4311676 C83.58947083 55.1011403 82.41965779 51.76936203 81.25 48.4375 C80.44955371 46.16589757 79.64877574 43.89441198 78.84765625 41.62304688 C76.89460057 36.08337644 74.94568463 30.54226336 73 25 C71.11430868 27.82853697 70.14223245 30.11321518 69.02880859 33.29760742 C68.83868698 33.83805443 68.83868698 33.83805443 67.8765564 36.57304382 C67.47127716 37.73874405 67.06599792 38.90444427 66.6484375 40.10546875 C66.43899002 40.70263954 66.43899002 40.70263954 65.37905884 43.72468567 C64.26801691 46.89486642 63.16063174 50.06627648 62.05499268 53.23834229 C60.92513134 56.47702119 59.79053568 59.71404042 58.65625 62.95117188 C56.43236896 69.29900815 54.21641276 75.64953245 52 82 C43.42 82 34.84 82 26 82 C19.73059363 63.5337485 13.79311289 44.97611194 7.9375 26.375 C7.74217178 25.75527313 7.74217178 25.75527313 6.75369263 22.61907959 C5.63471175 19.06694848 4.51802499 15.5141062 3.40234375 11.9609375 C3.05899994 10.87043091 2.71565613 9.77992432 2.36190796 8.65637207 C2.20611771 8.1590155 2.20611771 8.1590155 1.41772461 5.64208984 C1.14286728 4.76644379 0.86800995 3.89079773 0.58482361 2.98861694 C0 1 0 1 0 0 Z " fill="#000000" transform="translate(337,215)"/>
<path d="M0 0 C7.92 0 15.84 0 24 0 C28.39892483 14.16796569 32.73983631 28.34629669 36.82836914 42.60742188 C36.96432495 43.07954102 36.96432495 43.07954102 37.65234375 45.46875 C37.88945068 46.29826172 38.12655762 47.12777344 38.37084961 47.98242188 C39 50 39 50 40 52 C40.22328476 51.36328873 40.44656952 50.72657745 40.67662048 50.0705719 C42.99280036 43.46762744 45.31296768 36.86609419 47.63549805 30.26538086 C48.50274217 27.79894703 49.36895507 25.33215035 50.23413086 22.86499023 C51.47501599 19.3270115 52.71955548 15.79033719 53.96484375 12.25390625 C54.35341049 11.14350479 54.74197723 10.03310333 55.14231873 8.88905334 C55.50261673 7.86807053 55.86291473 6.84708771 56.23413086 5.79516602 C56.55167831 4.89137711 56.86922577 3.9875882 57.19639587 3.05641174 C58 1 58 1 59 0 C61.07262076 -0.08767112 63.14820294 -0.10695873 65.22265625 -0.09765625 C66.48271484 -0.09443359 67.74277344 -0.09121094 69.04101562 -0.08789062 C70.38151109 -0.07953403 71.72200588 -0.07106907 73.0625 -0.0625 C74.40689942 -0.0574866 75.7513006 -0.05292342 77.09570312 -0.04882812 C80.39717941 -0.03699488 83.69856803 -0.02050971 87 0 C87.21075668 0.63449066 87.42151337 1.26898132 87.63865662 1.92269897 C89.8267198 8.50896189 92.01687085 15.0945278 94.20825195 21.6796875 C95.02649984 24.13946902 95.84420986 26.59942953 96.66137695 29.05957031 C97.83404432 32.58966176 99.00862584 36.11911121 100.18359375 39.6484375 C100.36694023 40.20105759 100.36694023 40.20105759 101.29478455 42.99765015 C101.46492317 43.50810379 101.46492317 43.50810379 102.32592773 46.09130859 C102.6257103 46.99287689 102.92549286 47.89444519 103.23435974 48.82333374 C104 51 104 51 105 53 C105.18570053 52.36550934 105.37140106 51.73101868 105.56272888 51.07730103 C107.49079608 44.49096954 109.4215009 37.90541545 111.35375977 31.3203125 C112.07514452 28.86055137 112.7958498 26.40059085 113.51586914 23.94042969 C114.5491692 20.41028411 115.58488732 16.88085589 116.62109375 13.3515625 C116.94403915 12.24632233 117.26698456 11.14108215 117.59971619 10.00234985 C117.89995193 8.98144257 118.20018768 7.96053528 118.50952148 6.90869141 C118.77377426 6.00712311 119.03802704 5.10555481 119.31028748 4.17666626 C120 2 120 2 121 0 C128.59 0 136.18 0 144 0 C141.74994541 10.12524564 141.74994541 10.12524564 140.32348633 14.46191406 C140.00587845 15.43453186 139.68827057 16.40714966 139.36103821 17.40924072 C139.02146591 18.43434753 138.68189362 19.45945435 138.33203125 20.515625 C137.9741301 21.60727966 137.61622894 22.69893433 137.2474823 23.82366943 C136.10649251 27.30044373 134.95955392 30.77522229 133.8125 34.25 C133.0614663 36.53633267 132.31081213 38.82279005 131.56054688 41.109375 C127.07966872 54.75273343 122.55017389 68.37961192 118 82 C109.75 82 101.5 82 93 82 C83.77148438 56.16015625 83.77148438 56.16015625 82.7651062 53.34185791 C82.10395835 51.49093577 81.44244186 49.64014527 80.7805481 47.78948975 C79.32214902 43.71061841 77.86743093 39.63066419 76.43115234 35.54394531 C76.19877365 34.88516388 75.96639496 34.22638245 75.72697449 33.54763794 C75.12151267 31.82951848 74.51900482 30.11035883 73.91674805 28.39111328 C73 26 73 26 72 25 C71.88320389 25.3275528 71.88320389 25.3275528 71.29214478 26.98516846 C69.08786812 33.16560742 66.88116477 39.34517385 64.67174721 45.52377701 C63.5360131 48.70010927 62.40121251 51.87676854 61.26855469 55.05419922 C59.96525481 58.70885741 58.65872854 62.36234812 57.3515625 66.015625 C56.94628326 67.15429016 56.54100403 68.29295532 56.1234436 69.46612549 C55.74320038 70.52692322 55.36295715 71.58772095 54.97119141 72.68066406 C54.63809967 73.61332092 54.30500793 74.54597778 53.96182251 75.50689697 C53 78 53 78 51 82 C42.75 82 34.5 82 26 82 C19.34625167 62.41225023 12.97752521 42.74721699 6.8125 23 C6.47322479 21.91468994 6.13394958 20.82937988 5.78439331 19.71118164 C4.81903797 16.62059391 3.85614955 13.5292523 2.89453125 10.4375 C2.60129974 9.49733032 2.30806824 8.55716064 2.00595093 7.58850098 C1.74077667 6.73300659 1.47560242 5.87751221 1.20239258 4.99609375 C0.96909744 4.24513428 0.73580231 3.4941748 0.49543762 2.72045898 C0 1 0 1 0 0 Z " fill="#000000" transform="translate(30,215)"/>
<path d="M0 0 C7.92 0 15.84 0 24 0 C24.53560547 1.83498047 24.53560547 1.83498047 27.24609375 11.12109375 C28.28120401 14.65916409 29.31742677 18.19690679 30.35375977 21.73461914 C31.07562942 24.2010749 31.79633473 26.66787174 32.51586914 29.13500977 C33.54791144 32.67293315 34.58408005 36.20962485 35.62109375 39.74609375 C35.94403915 40.85649521 36.26698456 41.96689667 36.59971619 43.11094666 C36.89995193 44.13192947 37.20018768 45.15291229 37.50952148 46.20483398 C37.77377426 47.10862289 38.03802704 48.0124118 38.31028748 48.94358826 C39 51 39 51 40 52 C40.19378738 51.43703217 40.38757477 50.87406433 40.5872345 50.29403687 C42.61022946 44.41972235 44.63901957 38.54743243 46.67114258 32.67626953 C47.42815684 30.48667663 48.18370634 28.29657673 48.93774414 26.10595703 C50.02362883 22.95209551 51.11481791 19.80011207 52.20703125 16.6484375 C52.54152786 15.67321136 52.87602448 14.69798523 53.22065735 13.69320679 C53.54076279 12.77270538 53.86086823 11.85220398 54.19067383 10.90380859 C54.46825027 10.0999472 54.74582672 9.29608582 55.03181458 8.46786499 C56.17026046 5.56601306 57.60595526 2.78808948 59 0 C67.91 0 76.82 0 86 0 C88.68100288 6.7025072 91.20035227 13.32431783 93.453125 20.1640625 C93.60566742 20.62310471 93.60566742 20.62310471 94.37762451 22.94613647 C95.33794025 25.83815264 96.29404308 28.73154049 97.25 31.625 C97.90597015 33.60295742 98.56221769 35.58082286 99.21875 37.55859375 C100.81570416 42.37134008 102.40888534 47.18532012 104 52 C105.84510896 49.23233657 106.59882849 47.40533358 107.49633789 44.26904297 C107.77324966 43.31150116 108.05016144 42.35395935 108.33546448 41.36740112 C108.62823776 40.33608063 108.92101105 39.30476013 109.22265625 38.2421875 C109.52819931 37.18339386 109.83374237 36.12460022 110.14854431 35.03372192 C111.12479479 31.64887737 112.09416919 28.26211798 113.0625 24.875 C114.03507283 21.48094377 115.00914839 18.08734581 115.98716736 14.69485474 C116.59595399 12.58243388 117.2014665 10.46906631 117.80348206 8.35470581 C118.07724167 7.40346832 118.35100128 6.45223083 118.63305664 5.47216797 C118.75328438 5.05144516 118.75328438 5.05144516 119.36170959 2.92233276 C120 1 120 1 121 0 C122.70772358 -0.08713831 124.41898649 -0.10700007 126.12890625 -0.09765625 C126.64614258 -0.09604492 126.64614258 -0.09604492 129.26367188 -0.08789062 C130.35228516 -0.07951172 131.44089844 -0.07113281 132.5625 -0.0625 C133.10874023 -0.06024414 133.10874023 -0.06024414 135.87304688 -0.04882812 C138.58208759 -0.03699825 141.29100822 -0.01967721 144 0 C141.77478657 8.53916067 139.16150396 16.92903111 136.4375 25.3203125 C136.00036313 26.67301881 135.56343699 28.02579323 135.12670898 29.37863159 C133.98592 32.91033355 132.84208365 36.4410412 131.69763184 39.97155762 C130.76825632 42.84034387 129.84106412 45.70983344 128.91398621 48.57936287 C127.79754068 52.03491119 126.68017395 55.49016133 125.5625 58.9453125 C125.35358124 59.59118443 125.14466248 60.23705635 124.92941284 60.90250015 C124.32972139 62.75562992 123.72932439 64.60853133 123.12890625 66.46142578 C122.95911255 66.98555557 122.95911255 66.98555557 122.09985352 69.63796997 C120.7500091 73.76417169 119.37286637 77.8814009 118 82 C109.75 82 101.5 82 93 82 C88.12261167 69.12689309 83.31406174 56.2351935 78.68276978 43.27175903 C78.18632635 41.8833803 77.68826108 40.49558042 77.18856812 39.10836792 C76.48414375 37.15075996 75.78609454 35.19099627 75.08984375 33.23046875 C74.68628662 32.10020264 74.28272949 30.96993652 73.86694336 29.80541992 C73 27 73 27 73 24 C72.34 24 71.68 24 71 24 C70.91226318 24.76425293 70.82452637 25.52850586 70.73413086 26.31591797 C69.72556936 31.37717273 67.99156666 36.09310876 66.25390625 40.9453125 C65.88273178 41.99274628 65.51155731 43.04018005 65.12913513 44.11935425 C64.34554278 46.32732051 63.55952482 48.53442725 62.77124023 50.74072266 C61.56497312 54.11807566 60.36684475 57.49823186 59.16992188 60.87890625 C58.40672804 63.02621163 57.64307188 65.17335276 56.87890625 67.3203125 C56.69970894 67.82554947 56.69970894 67.82554947 55.79286194 70.38235474 C55.45588791 71.32368256 55.11891388 72.26501038 54.77172852 73.23486328 C54.62445564 73.64773087 54.62445564 73.64773087 53.87916565 75.73709106 C53.04708596 77.87880413 52.02754965 79.94490069 51 82 C42.75 82 34.5 82 26 82 C24.23083963 77.28223902 22.51625939 72.66209073 20.97875977 67.88208008 C20.61150284 66.74341995 20.24424591 65.60475983 19.86585999 64.43159485 C19.47829025 63.22311386 19.09072052 62.01463287 18.69140625 60.76953125 C18.27943599 59.48926735 17.86731865 58.20905077 17.45506287 56.92887878 C16.59410204 54.25399021 15.73441066 51.57869834 14.87573242 48.90307617 C13.78735778 45.51182549 12.6966016 42.12134717 11.60496616 38.73114491 C10.75399227 36.08786706 9.90392564 33.44429816 9.05415154 30.80063438 C8.46075145 28.95470951 7.86692616 27.10892134 7.27308655 25.26313782 C5.40272849 19.43395988 3.54833343 13.59985071 1.72241211 7.7565918 C1.39123886 6.69860886 1.06006561 5.64062592 0.71885681 4.55058289 C0 2 0 2 0 0 Z " fill="#000000" transform="translate(184,215)"/>
</svg>
