<?xml version="1.0" encoding="UTF-8"?>
<!-- Generator: visioncortex VTracer 0.6.12 -->
<svg version="1.1" xmlns="http://www.w3.org/2000/svg" width="512" height="512">
<path d="M0 0 C0.96164062 0.75796875 1.92328125 1.5159375 2.9140625 2.296875 C18.21236246 14.76789421 32.45684731 28.96784348 44 45 C44.63679688 45.86496094 45.27359375 46.72992188 45.9296875 47.62109375 C81.73936108 97.3567515 96.9635752 160.29963154 88.03125 220.9296875 C81.40247172 261.47834514 65.77888721 299.82145897 40 332 C39.24203125 332.96164062 38.4840625 333.92328125 37.703125 334.9140625 C25.23210579 350.21236246 11.03215652 364.45684731 -5 376 C-5.86496094 376.63679688 -6.72992188 377.27359375 -7.62109375 377.9296875 C-58.37859546 414.47508873 -122.06353166 429.10973971 -183.78808594 419.54785156 C-223.38128423 412.79449667 -260.44538458 396.90278609 -292 372 C-292.96808594 371.23816406 -293.93617188 370.47632813 -294.93359375 369.69140625 C-310.21790367 357.21084236 -324.45915829 343.02894682 -336 327 C-336.63679688 326.13503906 -337.27359375 325.27007812 -337.9296875 324.37890625 C-373.74457321 274.63600944 -388.96449412 211.70660584 -380.03125 151.0703125 C-372.29511713 103.74789657 -352.13519575 63.11114028 -321 27 C-320.34902344 26.22398438 -319.69804687 25.44796875 -319.02734375 24.6484375 C-315.67731073 20.69555116 -312.1542567 17.23239539 -308.1953125 13.890625 C-306.65584101 12.56481682 -305.15302875 11.19580508 -303.6796875 9.796875 C-291.84443522 -1.42308894 -278.19307339 -10.99791566 -264 -19 C-263.27039063 -19.41459473 -262.54078125 -19.82918945 -261.7890625 -20.25634766 C-236.18024529 -34.65094778 -208.89316977 -43.26686128 -180 -48 C-179.28505371 -48.12004395 -178.57010742 -48.24008789 -177.83349609 -48.36376953 C-115.80365476 -58.32357416 -48.68549242 -39.00294351 0 0 Z M-283 21 C-283.74765625 21.63679688 -284.4953125 22.27359375 -285.265625 22.9296875 C-315.47568035 49.4385109 -339.60890479 83.06759129 -351 122 C-351 122.66 -351 123.32 -351 124 C-344.4 124 -337.8 124 -331 124 C-330.38125 122.453125 -329.7625 120.90625 -329.125 119.3125 C-320.91218221 99.74938347 -311.53995209 81.4542313 -298 65 C-292.05180413 66.91742458 -286.23633081 69.04858903 -280.4375 71.375 C-274.35356627 73.77948644 -268.24615857 75.99081281 -262 77.9375 C-261.66190308 78.04312256 -261.66190308 78.04312256 -259.95092773 78.57763672 C-255.27718942 80 -255.27718942 80 -253 80 C-253.19634033 80.70906494 -253.39268066 81.41812988 -253.5949707 82.14868164 C-263 116.23949456 -263 116.23949456 -263 124 C-256.4 124 -249.8 124 -243 124 C-242.68546875 122.5253125 -242.3709375 121.050625 -242.046875 119.53125 C-239.56458352 107.96312896 -236.95282589 96.45718752 -234 85 C-233.59273682 85.07049561 -233.59273682 85.07049561 -231.53173828 85.42724609 C-200.78081067 90.72374526 -200.78081067 90.72374526 -186 92 C-184.71609375 92.11085938 -183.4321875 92.22171875 -182.109375 92.3359375 C-173.34657819 93.00306401 -164.83252595 93 -156 93 C-156 103.23 -156 113.46 -156 124 C-149.4 124 -142.8 124 -136 124 C-136 113.77 -136 103.54 -136 93 C-131.05 93 -126.1 93 -121 93 C-117.19003567 92.82728849 -113.42209442 92.62022259 -109.625 92.3125 C-109.11243652 92.27161255 -109.11243652 92.27161255 -106.51855469 92.06469727 C-90.32874409 90.63906662 -73.91726458 88.30078932 -58 85 C-54.64205601 97.92527044 -51.7853426 110.94085271 -49 124 C-42.4 124 -35.8 124 -29 124 C-30.8676159 109.05907276 -34.77124296 94.43469949 -39 80 C-38.38898438 79.87625 -37.77796875 79.7525 -37.1484375 79.625 C-29.82395893 77.97441328 -22.86231111 75.6277856 -15.8125 73.0625 C-14.88679199 72.72669922 -13.96108398 72.39089844 -13.00732422 72.04492188 C-7.8359547 70.13759315 -2.8775901 68.07194705 2.02075195 65.53686523 C4 65 4 65 6.09960938 65.70288086 C9.24335318 67.84865564 11.1078302 71.00310741 13.1875 74.125 C13.66872314 74.83930176 14.14994629 75.55360352 14.64575195 76.28955078 C23.23942477 89.2219008 29.93474283 102.72964767 36 117 C36.99 119.31 37.98 121.62 39 124 C45.6 124 52.2 124 59 124 C57.11794572 116.61427281 54.87244894 109.72483507 51.8125 102.75 C51.61386353 102.29443726 51.61386353 102.29443726 50.60864258 99.98901367 C42.26863953 81.11479446 31.62644102 63.5587356 18 48 C17.33097656 47.22140625 16.66195313 46.4428125 15.97265625 45.640625 C13.69563881 43.04558837 11.36423754 40.51597219 9 38 C8.47696289 37.44296387 7.95392578 36.88592773 7.41503906 36.31201172 C-31.62424809 -4.91090393 -86.1087008 -27.41255476 -142.5546875 -28.9609375 C-193.3625497 -29.68742655 -244.25439117 -12.00057028 -283 21 Z M-360 146 C-357.79601226 155.2858678 -355.14705284 164.4130595 -352.3671875 173.5390625 C-351.92526288 174.99679516 -351.48354514 176.45459055 -351.04202271 177.91244507 C-350.1244055 180.9400722 -349.20482468 183.96709314 -348.28369141 186.99365234 C-347.10241769 190.87527345 -345.92540224 194.75817014 -344.74972343 198.64148903 C-343.84179072 201.63925245 -342.93204606 204.63646344 -342.02170181 207.63349533 C-341.58664151 209.0663161 -341.15205561 210.499281 -340.71795273 211.93239212 C-340.11437397 213.92373847 -339.50845532 215.91435734 -338.90185547 217.90478516 C-338.72984116 218.47070877 -338.72984116 218.47070877 -337.85934448 221.33462524 C-337 224 -337 224 -336 226 C-328.74 226 -321.48 226 -314 226 C-309.5 214.75 -309.5 214.75 -307.98535156 210.27490234 C-307.81532623 209.7747612 -307.81532623 209.7747612 -306.95489502 207.2437439 C-306.60368591 206.20166779 -306.25247681 205.15959167 -305.890625 204.0859375 C-305.51895203 202.99028473 -305.14727905 201.89463196 -304.76434326 200.76577759 C-303.59034329 197.30304344 -302.42011122 193.8390499 -301.25 190.375 C-300.44946853 188.01163413 -299.64868967 185.64835204 -298.84765625 183.28515625 C-296.89557715 177.52440275 -294.94658097 171.76261351 -293 166 C-285.92904477 185.97585366 -278.89932277 205.96408793 -272 226 C-264.74 226 -257.48 226 -250 226 C-244.75641784 209.71701893 -239.599237 193.40960553 -234.56054688 177.06201172 C-233.47661634 173.54921841 -232.38670259 170.03831139 -231.296875 166.52734375 C-230.60380135 164.2813627 -229.91107879 162.03527327 -229.21875 159.7890625 C-228.89386597 158.74553619 -228.56898193 157.70200989 -228.23425293 156.62686157 C-227.93974243 155.66670135 -227.64523193 154.70654114 -227.34179688 153.71728516 C-227.21174255 153.29643143 -227.21174255 153.29643143 -226.55358887 151.16665649 C-226 149 -226 149 -226 146 C-232.27 146 -238.54 146 -245 146 C-248.37451094 154.99869583 -248.37451094 154.99869583 -249.51806641 159.09912109 C-249.64647415 159.55606857 -249.64647415 159.55606857 -250.29629517 161.86849976 C-250.56203339 162.82712921 -250.82777161 163.78575867 -251.1015625 164.7734375 C-251.24252853 165.27591507 -251.24252853 165.27591507 -251.9559021 167.8187561 C-252.8489005 171.00325831 -253.7373006 174.18901697 -254.625 177.375 C-255.52036083 180.5822555 -256.4167381 183.78921572 -257.31552124 186.99551392 C-257.87299888 188.98480988 -258.42842182 190.97468302 -258.9815979 192.96517944 C-259.23210907 193.86016144 -259.48262024 194.75514343 -259.74072266 195.67724609 C-259.85055984 196.07155319 -259.85055984 196.07155319 -260.40640259 198.06698608 C-261 200 -261 200 -262 202 C-262.21075668 201.32792511 -262.42151337 200.65585022 -262.63865662 199.96340942 C-264.62334209 193.6355595 -266.60964091 187.30821858 -268.59776211 180.98144722 C-269.61986156 177.72863402 -270.64133199 174.47562607 -271.66137695 171.22216797 C-272.83358924 167.48346432 -274.00851581 163.74561651 -275.18359375 160.0078125 C-275.36694023 159.42238174 -275.36694023 159.42238174 -276.29478455 156.45974731 C-276.6350618 155.37877777 -276.97533905 154.29780823 -277.32592773 153.18408203 C-277.47581902 152.70665054 -277.47581902 152.70665054 -278.23435974 150.29055786 C-279 148 -279 148 -280 146 C-288.25 146 -296.5 146 -305 146 C-306.28777344 149.80273438 -307.57554687 153.60546875 -308.90234375 157.5234375 C-309.92881129 160.55188617 -310.95556802 163.58023645 -311.98252106 166.60852051 C-313.06714252 169.80711909 -314.15125147 173.0058893 -315.23413086 176.20507812 C-316.47635543 179.87415585 -317.72041434 183.54260709 -318.96484375 187.2109375 C-319.35341049 188.35992523 -319.74197723 189.50891296 -320.14231873 190.69271851 C-320.50261673 191.7536673 -320.86291473 192.81461609 -321.23413086 193.90771484 C-321.55167831 194.84481293 -321.86922577 195.78191101 -322.19639587 196.74740601 C-323 199 -323 199 -324 201 C-324.18570053 200.3257045 -324.37140106 199.651409 -324.56272888 198.9566803 C-326.31029967 192.61340681 -328.06106568 186.27102513 -329.81545925 179.92963505 C-330.7173738 176.66915346 -331.61803327 173.40833582 -332.51586914 170.14672852 C-333.54725472 166.40018114 -334.58401913 162.65513305 -335.62109375 158.91015625 C-335.94403915 157.73413345 -336.26698456 156.55811066 -336.59971619 155.34645081 C-336.74983406 154.80592827 -336.74983406 154.80592827 -337.50952148 152.07055664 C-337.77377426 151.11347305 -338.03802704 150.15638947 -338.31028748 149.17030334 C-339 147 -339 147 -340 146 C-341.4887186 145.91330568 -342.981445 145.89296506 -344.47265625 145.90234375 C-344.9222168 145.90395508 -344.9222168 145.90395508 -347.19726562 145.91210938 C-348.14279297 145.92048828 -349.08832031 145.92886719 -350.0625 145.9375 C-351.01189453 145.94201172 -351.96128906 145.94652344 -352.93945312 145.95117188 C-355.29303369 145.96299891 -357.64647581 145.98031906 -360 146 Z M-213 146 C-211.75151045 151.61820296 -210.50177771 156.95433083 -208.86108398 162.43164062 C-208.65757324 163.11409851 -208.4540625 163.7965564 -208.24438477 164.49969482 C-207.58148012 166.71951643 -206.91397343 168.93792065 -206.24609375 171.15625 C-205.78033522 172.71035237 -205.31476727 174.26451186 -204.84938049 175.81872559 C-203.87896569 179.0568635 -202.9062558 182.29430041 -201.93188477 185.53125 C-200.6810362 189.68736787 -199.43602489 193.84520812 -198.19268703 198.00357819 C-197.2350727 201.20403285 -196.27441815 204.40356855 -195.31282234 207.60282898 C-194.85215966 209.13681229 -194.39245462 210.67108352 -193.93371391 212.2056427 C-193.29541118 214.33921255 -192.65303476 216.47151252 -192.00952148 218.60351562 C-191.64471176 219.81769165 -191.27990204 221.03186768 -190.90403748 222.28283691 C-190 225 -190 225 -189 226 C-187.36527118 226.08700342 -185.72685945 226.10701063 -184.08984375 226.09765625 C-183.10048828 226.09443359 -182.11113281 226.09121094 -181.09179688 226.08789062 C-180.57133789 226.08370117 -180.57133789 226.08370117 -177.9375 226.0625 C-176.89271484 226.05798828 -175.84792969 226.05347656 -174.77148438 226.04882812 C-172.18093064 226.03699911 -169.59050254 226.01967834 -167 226 C-164.0930312 218.9602445 -161.5154959 211.85392768 -159.109375 204.62890625 C-158.75989807 203.58476059 -158.41042114 202.54061493 -158.050354 201.46482849 C-157.31948461 199.27792223 -156.59015347 197.09050133 -155.86230469 194.90258789 C-154.74444498 191.54581909 -153.61856062 188.19181095 -152.4921875 184.83789062 C-151.78076425 182.7058912 -151.0698098 180.57373526 -150.359375 178.44140625 C-150.02194275 177.43831924 -149.6845105 176.43523224 -149.33685303 175.40174866 C-149.1831424 174.93750237 -149.1831424 174.93750237 -148.40527344 172.58813477 C-148.26918671 172.18018929 -148.26918671 172.18018929 -147.58050537 170.11573792 C-147 168 -147 168 -147 165 C-146.34 165 -145.68 165 -145 165 C-144.73952881 166.2689209 -144.47905762 167.5378418 -144.21069336 168.84521484 C-143.02289353 174.17818573 -141.37096218 179.30242227 -139.62890625 184.4765625 C-139.30591049 185.44604828 -138.98291473 186.41553406 -138.65013123 187.41439819 C-137.97065802 189.45049095 -137.28898909 191.48585215 -136.60522461 193.52050781 C-135.56378667 196.62116921 -134.53040346 199.72442971 -133.49804688 202.828125 C-132.83380884 204.81526318 -132.16911088 206.80224769 -131.50390625 208.7890625 C-131.19755753 209.70902008 -130.8912088 210.62897766 -130.57557678 211.57681274 C-130.28194748 212.44816864 -129.98831818 213.31952454 -129.68579102 214.21728516 C-129.43201187 214.9740152 -129.17823273 215.73074524 -128.91676331 216.51040649 C-127.73426178 219.72164771 -126.34800887 222.85464596 -125 226 C-117.74 226 -110.48 226 -103 226 C-97.97159695 209.99942621 -92.94924143 193.9969807 -87.93701172 177.99133301 C-87.11100319 175.35436857 -86.28419021 172.71765841 -85.45703125 170.08105469 C-84.29926783 166.38904905 -83.14846981 162.6949084 -82 159 C-81.68095703 157.98437988 -81.36191406 156.96875977 -81.03320312 155.92236328 C-80.75412109 155.0198584 -80.47503906 154.11735352 -80.1875 153.1875 C-79.95417969 152.43855469 -79.72085938 151.68960938 -79.48046875 150.91796875 C-79 149 -79 149 -79 146 C-85.6 146 -92.2 146 -99 146 C-99.44915771 147.62534668 -99.89831543 149.25069336 -100.36108398 150.92529297 C-101.84417057 156.29018569 -103.3291616 161.65454877 -104.81545925 167.01855278 C-105.71669122 170.27134412 -106.6171529 173.52434464 -107.51586914 176.77783203 C-108.54901247 180.51648836 -109.58478712 184.25440694 -110.62109375 187.9921875 C-110.94403915 189.16304901 -111.26698456 190.33391052 -111.59971619 191.54025269 C-111.74983406 192.08073746 -111.74983406 192.08073746 -112.50952148 194.81591797 C-112.77377426 195.77078094 -113.03802704 196.72564392 -113.31028748 197.70944214 C-114 200 -114 200 -115 202 C-117.97 192.76 -117.97 192.76 -133 146 C-141.25 146 -149.5 146 -158 146 C-158.95261719 148.79726562 -159.90523437 151.59453125 -160.88671875 154.4765625 C-161.82649724 157.23380733 -162.76662616 159.99093244 -163.70678711 162.74804688 C-164.35200895 164.64082611 -164.9968756 166.53372648 -165.64135742 168.42675781 C-169.34814764 179.31383397 -173.08491119 190.18580955 -177 201 C-177.27150879 200.04448242 -177.54301758 199.08896484 -177.82275391 198.10449219 C-182.77011271 180.70162918 -187.73750662 163.3108335 -193 146 C-199.6 146 -206.2 146 -213 146 Z M-67 146 C-64.82278482 155.21246042 -62.17059991 164.24834843 -59.3671875 173.28515625 C-58.92519721 174.71805171 -58.48348079 176.15103167 -58.04202271 177.58409119 C-56.89120394 181.31715492 -55.73653494 185.04901658 -54.58105469 188.78063965 C-53.40176837 192.59191196 -52.22654511 196.40443677 -51.05078125 200.21679688 C-49.33638165 205.77280714 -47.62108105 211.3285376 -45.90185547 216.88305664 C-45.55782684 217.99491837 -45.21379822 219.10678009 -44.85934448 220.25233459 C-44.25827973 222.17417717 -43.6367698 224.08969061 -43 226 C-35.41 226 -27.82 226 -20 226 C-13.4 206.53 -6.8 187.06 0 167 C1.65032036 169.47548054 2.50915063 171.14354117 3.43286133 173.88208008 C3.69686234 174.65751663 3.96086334 175.43295319 4.23286438 176.23188782 C4.51308945 177.06931015 4.79331451 177.90673248 5.08203125 178.76953125 C5.37808762 179.64212082 5.67414398 180.51471039 5.97917175 181.41374207 C6.92774701 184.21194948 7.87036707 187.01211766 8.8125 189.8125 C10.04640738 193.46544349 11.28249518 197.11764616 12.51953125 200.76953125 C12.81820099 201.65126007 13.11687073 202.53298889 13.42459106 203.44143677 C15.2177259 208.72466252 17.02630298 214.0017708 18.88671875 219.26171875 C19.27432373 220.35830811 19.66192871 221.45489746 20.0612793 222.5847168 C21 225 21 225 22 226 C23.63472882 226.08700342 25.27314055 226.10701063 26.91015625 226.09765625 C27.89951172 226.09443359 28.88886719 226.09121094 29.90820312 226.08789062 C30.94912109 226.07951172 31.99003906 226.07113281 33.0625 226.0625 C34.10728516 226.05798828 35.15207031 226.05347656 36.22851562 226.04882812 C38.8190666 226.03699913 41.40950559 226.02051689 44 226 C44.24167908 225.214543 44.48335815 224.429086 44.73236084 223.61982727 C60.49749756 172.38313293 60.49749756 172.38313293 61.11041641 170.39163494 C61.69628423 168.4870874 62.28119798 166.58224646 62.86608887 164.67739868 C63.63345167 162.18875662 64.40682014 159.70195976 65.18566895 157.21688843 C65.55268921 156.04211945 65.91970947 154.86735046 66.29785156 153.65698242 C66.62609924 152.61338058 66.95434692 151.56977875 67.2925415 150.49455261 C68 148 68 148 68 146 C61.4 146 54.8 146 48 146 C42.51484508 164.62483472 37.22974135 183.30220163 32 202 C30.12236781 196.39671189 28.24772166 190.79243117 26.375 185.1875 C26.1002182 184.3654306 25.8254364 183.54336121 25.54232788 182.69638062 C22.13631041 172.50010148 18.7491134 162.30163334 15.61279297 152.01831055 C14.09962396 147.09962396 14.09962396 147.09962396 13 146 C11.21928754 145.91273777 9.4351686 145.89300959 7.65234375 145.90234375 C6.57275391 145.90556641 5.49316406 145.90878906 4.38085938 145.91210938 C3.81270508 145.91629883 3.81270508 145.91629883 0.9375 145.9375 C0.36741211 145.93975586 0.36741211 145.93975586 -2.51757812 145.95117188 C-5.34510604 145.96300254 -8.17251896 145.98032382 -11 146 C-13.79296318 152.7952353 -16.32241889 159.64146232 -18.671875 166.6015625 C-18.99915588 167.564039 -19.32643677 168.5265155 -19.66363525 169.51815796 C-20.69494162 172.55292397 -21.72253395 175.58893192 -22.75 178.625 C-23.45418049 180.69930248 -24.15860534 182.77352202 -24.86328125 184.84765625 C-26.57834401 189.89748313 -28.29037016 194.94833137 -30 200 C-31.88691072 197.16963392 -32.61133187 195.30838508 -33.49633789 192.08544922 C-33.63479378 191.58665756 -33.63479378 191.58665756 -34.33546448 189.06246948 C-34.62823776 187.98740143 -34.92101105 186.91233337 -35.22265625 185.8046875 C-35.52819931 184.70150177 -35.83374237 183.59831604 -36.14854431 182.46170044 C-37.12497631 178.93418871 -38.09427234 175.40477172 -39.0625 171.875 C-40.03501029 168.33829387 -41.0090772 164.80204346 -41.98716736 161.26687622 C-42.59604158 159.06541073 -43.20155492 156.86301256 -43.80348206 154.65963745 C-44.07724167 153.66835846 -44.35100128 152.67707947 -44.63305664 151.65576172 C-44.75328438 151.21727402 -44.75328438 151.21727402 -45.36170959 148.9982605 C-46 147 -46 147 -47 146 C-48.4887186 145.91330568 -49.981445 145.89296506 -51.47265625 145.90234375 C-51.9222168 145.90395508 -51.9222168 145.90395508 -54.19726562 145.91210938 C-55.14279297 145.92048828 -56.08832031 145.92886719 -57.0625 145.9375 C-58.01189453 145.94201172 -58.96128906 145.94652344 -59.93945312 145.95117188 C-62.29303369 145.96299891 -64.64647581 145.98031906 -67 146 Z M-351 248 C-344.49881364 276.03636618 -328.68216782 302.40720459 -310 324 C-309.3296875 324.78117187 -308.659375 325.56234375 -307.96875 326.3671875 C-305.69189459 328.95838489 -303.36218889 331.48620794 -301 334 C-300.47696289 334.55703613 -299.95392578 335.11407227 -299.41503906 335.68798828 C-265.4214058 371.58302579 -216.57210801 396.13024058 -167 400 C-166.16275391 400.06558105 -165.32550781 400.13116211 -164.46289062 400.19873047 C-109.13550573 404.23503549 -53.18199585 388.12287021 -10.49609375 352.16015625 C-9.67238281 351.44730469 -8.84867187 350.73445313 -8 350 C-7.20722656 349.31808594 -6.41445313 348.63617188 -5.59765625 347.93359375 C23.45696692 322.36364176 48.97998005 287.97797771 59 250 C59 249.34 59 248.68 59 248 C52.4 248 45.8 248 39 248 C38.38125 249.546875 37.7625 251.09375 37.125 252.6875 C28.91218221 272.25061653 19.53995209 290.5457687 6 307 C0.05180413 305.08257542 -5.76366919 302.95141097 -11.5625 300.625 C-17.64643373 298.22051356 -23.75384143 296.00918719 -30 294.0625 C-30.67619385 293.85125488 -31.3523877 293.64000977 -32.04907227 293.42236328 C-36.72281058 292 -36.72281058 292 -39 292 C-38.76812988 291.12899658 -38.53625977 290.25799316 -38.29736328 289.3605957 C-37.42349845 286.06493307 -36.55577644 282.76777003 -35.69189453 279.46948242 C-35.31991748 278.05414337 -34.94564456 276.63940532 -34.56884766 275.2253418 C-32.16124517 266.18238686 -30.25860167 257.29377968 -29 248 C-35.6 248 -42.2 248 -49 248 C-49.19916016 248.86302734 -49.19916016 248.86302734 -50.20703125 253.23046875 C-51.50585938 258.85872396 -51.50585938 258.85872396 -58 287 C-58.81452637 286.85900879 -59.62905273 286.71801758 -60.46826172 286.57275391 C-91.21918933 281.27625474 -91.21918933 281.27625474 -106 280 C-107.28390625 279.88914062 -108.5678125 279.77828125 -109.890625 279.6640625 C-118.65342181 278.99693599 -127.16747405 279 -136 279 C-136 268.77 -136 258.54 -136 248 C-142.6 248 -149.2 248 -156 248 C-156 258.23 -156 268.46 -156 279 C-157.16402344 278.98775391 -157.16402344 278.98775391 -163.0546875 278.92578125 C-171.1257458 278.89899699 -179.08986819 279.40828333 -187.125 280.1875 C-187.7943457 280.25047272 -188.46369141 280.31344543 -189.15332031 280.37832642 C-204.230987 281.8118322 -219.10796982 284.2724923 -234 287 C-237.35794399 274.07472956 -240.2146574 261.05914729 -243 248 C-249.6 248 -256.2 248 -263 248 C-261.1323841 262.94092724 -257.22875704 277.56530051 -253 292 C-253.61101562 292.12375 -254.22203125 292.2475 -254.8515625 292.375 C-262.17604107 294.02558672 -269.13768889 296.3722144 -276.1875 298.9375 C-277.11320801 299.27330078 -278.03891602 299.60910156 -278.99267578 299.95507812 C-284.1640453 301.86240685 -289.1224099 303.92805295 -294.02075195 306.46313477 C-296 307 -296 307 -298.09960938 306.29711914 C-301.2432692 304.15140169 -303.10811798 300.99701105 -305.1875 297.875 C-305.42847412 297.51676147 -305.42847412 297.51676147 -306.64794922 295.70385742 C-315.42329362 282.48297505 -322.09072044 268.81026069 -328.08959961 254.12792969 C-328.97908 252.04889748 -329.98870872 250.02258257 -331 248 C-337.6 248 -344.2 248 -351 248 Z " fill="#000000" transform="translate(402,70)"/>
<path d="M0 0 C23.4718812 4.69437624 39.97313376 20.2691647 53.0625 39.6875 C58.23915558 47.52274732 62.89024273 55.55271578 67 64 C67.30147949 64.60666504 67.60295898 65.21333008 67.91357422 65.83837891 C69.58195534 69.38734339 70.19626332 71.2804875 69 75 C45.8968125 78.95068819 23.54743324 80.97619855 0 82 C0 54.94 0 27.88 0 0 Z " fill="#000000" transform="translate(266,62)"/>
<path d="M0 0 C0 27.06 0 54.12 0 82 C-56.20817844 78.78810409 -56.20817844 78.78810409 -71 74 C-64.13273444 57.35327604 -55.94210323 41.61818789 -44 28 C-43.26652344 27.11183594 -42.53304687 26.22367188 -41.77734375 25.30859375 C-32.18110148 14.0895723 -15.6633626 0 0 0 Z " fill="#000000" transform="translate(246,62)"/>
<path d="M0 0 C40.58348689 2.31905639 40.58348689 2.31905639 52.5390625 4.17724609 C54.750089 4.51935483 56.96420261 4.83269773 59.1796875 5.14453125 C67.03485549 6.29986015 67.03485549 6.29986015 70 7 C70.165 7.33 70.165 7.33 71 9 C70.00531531 11.57881216 68.94337339 14.01334417 67.75 16.5 C67.39228516 17.25031494 67.03457031 18.00062988 66.66601562 18.77368164 C60.5214139 31.35368437 53.23502682 43.44568363 44 54 C43.32839844 54.8146875 42.65679687 55.629375 41.96484375 56.46875 C30.48049359 69.97484602 17.3510778 78.14420493 0 82 C0 54.94 0 27.88 0 0 Z " fill="#000000" transform="translate(266,368)"/>
<path d="M0 0 C0 27.06 0 54.12 0 82 C-25.15444198 75.71138951 -43.05329005 58.58275137 -56.37353516 36.74853516 C-67.63529833 17.58137687 -67.63529833 17.58137687 -70 10 C-69.67 9.01 -69.34 8.02 -69 7 C-46.17807109 3.09740755 -23.2059299 0 0 0 Z " fill="#000000" transform="translate(246,368)"/>
<path d="M0 0 C6.96729242 1.89613258 13.43198048 4.31084991 19.9375 7.4375 C20.83919922 7.87070557 21.74089844 8.30391113 22.66992188 8.75024414 C37.50396473 16.04675841 50.7415765 24.94475036 63 36 C64.54070535 37.31362833 66.08223597 38.62629006 67.625 39.9375 C70.14097371 42.08541642 72.07837068 44.30389584 74 47 C66.79507148 50.74035763 59.34645195 53.30261507 51.625 55.75 C50.66190918 56.05558838 49.69881836 56.36117676 48.70654297 56.67602539 C44.48504371 57.99252197 40.35149932 59.18803019 36 60 C35.52691406 59.04222656 35.05382812 58.08445313 34.56640625 57.09765625 C32.77996877 53.49272525 30.97592738 49.8968962 29.16308594 46.30517578 C28.41130674 44.81518855 27.66179799 43.32405261 26.91503906 41.83154297 C19.97942615 28.02718945 12.14023508 14.78886127 1.36328125 3.6015625 C0 2 0 2 0 0 Z " fill="#000000" transform="translate(320,72)"/>
<path d="M0 0 C12.70311052 3.00759003 24.79594873 7.40403825 37 12 C37 15 37 15 35.7421875 16.65625 C19.78460973 32.41352345 -12.5783454 60 -36 60 C-34.47319197 56.53070846 -32.40472698 53.98820168 -29.9375 51.125 C-17.26618679 35.74993524 -8.82852714 17.74093578 0 0 Z " fill="#000000" transform="translate(356,380)"/>
<path d="M0 0 C-1.52680803 3.46929154 -3.59527302 6.01179832 -6.0625 8.875 C-18.73381321 24.25006476 -27.17147286 42.25906422 -36 60 C-48.58467051 56.57482568 -60.88144256 52.83371032 -73 48 C-73 45 -73 45 -71.7421875 43.34375 C-55.78460973 27.58647655 -23.4216546 0 0 0 Z " fill="#000000" transform="translate(192,72)"/>
<path d="M0 0 C1.30908614 2.63328874 2.45505644 5.22050449 3.5625 7.9375 C10.47264146 24.07729352 19.05895126 38.28033775 30 52 C30.77601563 52.97324219 31.55203125 53.94648438 32.3515625 54.94921875 C32.89554687 55.62597656 33.43953125 56.30273438 34 57 C33.835 57.33 33.835 57.33 33 59 C8.350863 49.02360009 -23.71058057 34.93412914 -39 12 C-31.17536735 8.22684924 -23.27688263 5.24650375 -15 2.625 C-13.88238281 2.25761719 -12.76476562 1.89023437 -11.61328125 1.51171875 C-10.54464844 1.17011719 -9.47601563 0.82851563 -8.375 0.4765625 C-7.41335937 0.16799316 -6.45171875 -0.14057617 -5.4609375 -0.45849609 C-3 -1 -3 -1 0 0 Z " fill="#000000" transform="translate(157,381)"/>
</svg>
