<?xml version="1.0" encoding="UTF-8"?>
<!-- Generator: visioncortex VTracer 0.6.12 -->
<svg version="1.1" xmlns="http://www.w3.org/2000/svg" width="512" height="512">
<path d="M0 0 C105 0 105 0 111 3 C113.16364517 5.37303019 113.95562777 6.96649688 114.09375 10.18359375 C113.84102063 14.0313984 113.4693947 16.3741404 111.125 19.5 C86.84469979 36.63903544 51.72001874 22 22 22 C22 122.98 22 223.96 22 328 C129.58 328 237.16 328 348 328 C348 227.02 348 126.04 348 22 C320.28 22 292.56 22 264 22 C257.63636364 18.18181818 257.63636364 18.18181818 256 14 C255.8074297 10.83391773 256.0586303 8.03393247 257 5 C259.62356146 2.23835636 261.40482855 1.19839048 265 0 C299.65 0 334.3 0 370 0 C370 115.17 370 230.34 370 349 C247.9 349 125.8 349 0 349 C0 233.83 0 118.66 0 0 Z " fill="#000000" transform="translate(71,163)"/>
<path d="M0 0 C3.11905047 2.57660691 4.7181368 4.1544104 6 8 C6.09605158 9.74522445 6.13375745 11.49390437 6.1386652 13.24176311 C6.14413964 14.33455568 6.14961409 15.42734825 6.15525442 16.55325574 C6.15623253 17.75849308 6.15721064 18.96373042 6.15821838 20.20549011 C6.16068737 20.84380592 6.16068737 20.84380592 6.17318195 24.07407075 C6.1867819 27.6245805 6.19418678 31.17508066 6.20060861 34.72560966 C6.20860441 38.55178001 6.222305 42.37793034 6.23532104 46.2040863 C6.25709545 52.83549054 6.27523641 59.46689679 6.29092598 66.0983181 C6.31361583 75.68629979 6.34175988 85.27425932 6.37124526 94.86222223 C6.41893202 110.41717159 6.46219327 125.97212999 6.50268555 141.52709961 C6.54203496 156.63941146 6.58345985 171.75171527 6.62768555 186.86401367 C6.63040982 187.79516812 6.63313409 188.72632257 6.63594092 189.68569382 C6.6496203 194.35691225 6.6633406 199.02813056 6.67708123 203.69934881 C6.79106304 242.46621581 6.89786863 281.23310007 7 320 C7.78482758 319.21295181 8.56965515 318.42590363 9.37826538 317.61500549 C16.76254047 310.21048869 24.14943187 302.808591 31.53891563 295.40927219 C35.33814386 291.60481777 39.13643316 287.79943556 42.93261719 283.99194336 C46.59382559 280.31989678 50.25744711 276.65027407 53.92277908 272.98234367 C55.32313502 271.58013517 56.72260823 270.17704456 58.12119675 268.7730732 C60.07507427 266.81197295 62.03202192 264.85398767 63.98974609 262.89672852 C64.57165207 262.31122726 65.15355804 261.72572601 65.75309753 261.1224823 C69.57013391 257.31529341 71.44516553 255.83422143 76.8125 255.625 C80.5958108 255.67967212 81.79245331 255.8644593 85.0625 258 C87.3948615 261.61139845 88.66481948 264.68240831 88 269 C84.99492325 275.14434032 80.9531052 279.46336196 76.11376953 284.24267578 C75.3230304 285.03545929 74.53229126 285.8282428 73.71759033 286.64505005 C71.11318939 289.25244836 68.49823066 291.84896921 65.8828125 294.4453125 C64.06385947 296.26120568 62.24549858 298.07769217 60.42770386 299.89474487 C56.62089699 303.696955 52.80944134 307.49440376 48.99365234 311.28759766 C44.10859358 316.14378685 39.23282799 321.00919631 34.35995674 325.87761116 C30.6066426 329.62736203 26.8499066 333.37367495 23.09243393 337.11925888 C21.29388595 338.91211986 19.49579875 340.70544322 17.69818497 342.49924088 C15.18305019 345.00748061 12.66457134 347.51231147 10.14501953 350.01611328 C9.40611481 350.75390015 8.66721008 351.49168701 7.90591431 352.25183105 C4.0805235 356.04567557 0.20090217 359.62535126 -4 363 C-7.86280044 361.39262035 -10.6455711 358.79409187 -13.6496582 355.96484375 C-13.9307086 355.7025573 -13.9307086 355.7025573 -15.35299397 354.37522888 C-23.26576175 346.93763241 -30.92565062 339.23877563 -38.60546875 331.5625 C-40.26354532 329.9076441 -41.92169382 328.25286026 -43.57991028 326.59814453 C-47.02647307 323.15752236 -50.47101134 319.71488813 -53.91430664 316.27099609 C-58.32868688 311.85651337 -62.7499606 307.44900299 -67.17293835 303.0431366 C-70.58633666 299.6408322 -73.99520533 296.23401758 -77.40279579 292.82589722 C-79.03229778 291.19757499 -80.66342093 289.57087341 -82.29619408 287.9458313 C-84.56705336 285.68473866 -86.83152644 283.41743611 -89.09448242 281.1484375 C-89.76817368 280.48036575 -90.44186493 279.81229401 -91.13597107 279.12397766 C-91.75099487 278.50475937 -92.36601868 277.88554108 -92.99967957 277.24755859 C-93.26685335 276.9806572 -93.26685335 276.9806572 -94.6189146 275.62997437 C-97.1351271 272.66030871 -97.95876887 270.45354243 -98.3125 266.5625 C-97.97901109 262.76072638 -97.30848661 260.99248264 -95 258 C-91.9334811 255.95565407 -90.85950668 255.61011728 -87.3125 255.4375 C-86.90837891 255.40591797 -86.90837891 255.40591797 -84.86328125 255.24609375 C-75.75501442 257.64431408 -67.30070736 269.5730166 -60.75 276.15234375 C-59.48369957 277.42051264 -58.21717567 278.68845842 -56.95043945 279.95619202 C-53.64061579 283.26980711 -50.3338081 286.58641572 -47.02764893 289.90368652 C-43.64396961 293.29765305 -40.25740585 296.6887388 -36.87109375 300.08007812 C-30.24459178 306.7172578 -23.62127682 313.35760795 -17 320 C-16.99902319 319.34209579 -16.99804638 318.68419158 -16.99703997 318.00635087 C-16.93878614 279.02603307 -16.86500318 240.04577239 -16.77101372 201.06552365 C-16.75974536 196.3866189 -16.74860694 191.70771385 -16.73754883 187.02880859 C-16.73534514 186.09731065 -16.73314146 185.1658127 -16.730871 184.20608754 C-16.69548474 169.11727688 -16.67062811 154.02846627 -16.64965298 138.93962948 C-16.62790151 123.46065739 -16.59485731 107.98173922 -16.55129844 92.50281298 C-16.52477046 82.94910501 -16.50708353 73.39546424 -16.50065396 63.84172125 C-16.49540359 57.29311533 -16.47919842 50.74459401 -16.45433434 44.1960334 C-16.4403073 40.41610145 -16.431153 36.636321 -16.43499184 32.85636139 C-16.43902639 28.75949737 -16.42001486 24.66306422 -16.39872742 20.56625366 C-16.40357499 19.36975484 -16.40842257 18.17325602 -16.41341704 16.94049966 C-16.32542058 6.71609525 -16.32542058 6.71609525 -13 2 C-8.47609191 -1.18729888 -5.29441691 -1.54019401 0 0 Z " fill="#000000" transform="translate(261,10)"/>
</svg>
