<?xml version="1.0" encoding="UTF-8"?>
<!-- Generator: visioncortex VTracer 0.6.12 -->
<svg version="1.1" xmlns="http://www.w3.org/2000/svg" width="512" height="512">
<path d="M0 0 C0.57951416 -0.00426498 0.57951416 -0.00426498 3.51220703 -0.02584839 C4.76996445 -0.02494202 6.02772186 -0.02403564 7.32359314 -0.02310181 C8.67282989 -0.0290919 10.02206323 -0.03589856 11.37129211 -0.04345703 C15.02667023 -0.06108276 18.68195461 -0.06581117 22.33737111 -0.0670886 C24.62670242 -0.06851356 26.91601018 -0.07278985 29.20533562 -0.07808304 C37.2084745 -0.09657728 45.21154688 -0.10475507 53.21470642 -0.10317993 C60.64689386 -0.10198112 68.07878968 -0.12303365 75.51090342 -0.15466726 C81.91203762 -0.18093078 88.31307723 -0.19154292 94.71426481 -0.19026911 C98.52816141 -0.1897621 102.34179914 -0.19529823 106.15564156 -0.21662521 C109.75009966 -0.2361765 113.34405664 -0.23601879 116.93853378 -0.22159195 C118.86472796 -0.21854689 120.79092309 -0.2350645 122.71704102 -0.25247192 C138.72964571 -0.1385144 152.35974972 5.35705061 163.63780212 16.72103882 C169.14307705 22.58752795 174.09102095 28.9708252 179.088974 35.26742554 C179.63892029 35.95755737 180.18886658 36.64768921 180.75547791 37.35873413 C189.3440553 48.15004749 189.3440553 48.15004749 192.088974 52.26742554 C193.92772096 52.64183038 193.92772096 52.64183038 196.20868587 52.64101315 C196.64270953 52.64450802 196.64270953 52.64450802 198.83913225 52.66219419 C199.31883629 52.65840616 199.31883629 52.65840616 201.74642944 52.63923645 C202.76126516 52.64306101 203.77610088 52.64688558 204.82168919 52.65082604 C208.24482427 52.66016062 211.66756009 52.64808815 215.09068298 52.63632202 C217.53615487 52.63878831 219.98162571 52.64262496 222.42709351 52.6477356 C227.70583461 52.65609478 232.98446355 52.65555149 238.26319695 52.64755058 C245.90738931 52.63632951 253.55145769 52.64535172 261.19563926 52.66011239 C273.61280013 52.68390827 286.02994573 52.69725283 298.4471283 52.70126343 C298.81894693 52.70138586 298.81894693 52.70138586 300.70057458 52.70200545 C308.98696274 52.70454838 317.27334972 52.70511985 325.55973816 52.70407104 C328.55898539 52.70373806 331.55823262 52.70345265 334.55747986 52.70321655 C335.29748387 52.70315377 336.03748788 52.70309098 336.79991626 52.70302629 C349.15901154 52.70242051 361.51803648 52.71734493 373.87710243 52.74404961 C381.49629675 52.75982659 389.11526344 52.76214226 396.73446006 52.74691559 C402.58336503 52.73629523 408.43212266 52.74618452 414.2810154 52.76347351 C416.67426873 52.76719382 419.06754412 52.7641089 421.46077728 52.75360298 C424.7370681 52.74018294 428.01241225 52.75148492 431.28866577 52.76863098 C432.22799735 52.7588242 433.16732893 52.74901743 434.1351251 52.73891348 C442.81248592 52.8323283 450.97900956 54.90214515 457.526474 60.82992554 C464.62341058 68.6874656 465.68166053 78.17969821 465.59690857 88.37387085 C465.60002855 88.95863756 465.60002855 88.95863756 465.61581755 91.91791153 C465.62892393 95.13288208 465.62432706 98.34723864 465.61187267 101.56219292 C465.60276865 105.04148337 465.61681824 108.52069503 465.62779236 111.99996948 C465.64552547 118.8034816 465.64176096 125.60681664 465.63014179 132.41033554 C465.62108714 137.94250688 465.61989223 143.47462879 465.62423706 149.00680542 C465.62484999 149.79589239 465.62546292 150.58497937 465.62609443 151.39797807 C465.62737341 153.00128016 465.62867026 154.60458224 465.6299848 156.20788431 C465.64137533 171.22184975 465.6283009 186.23571731 465.60678333 201.24966669 C465.58891372 214.11631238 465.59201826 226.9828137 465.61045837 239.84945679 C465.63189212 254.81179555 465.64027684 269.77404864 465.62800932 284.7364006 C465.6267352 286.33361561 465.62547772 287.93083062 465.62423706 289.52804565 C465.62392851 289.92091707 465.62392851 289.92091707 465.62236705 291.90908456 C465.61892166 297.43093701 465.62472497 302.95273486 465.63415527 308.47457886 C465.64540452 315.20916037 465.64227404 321.94355553 465.6210323 328.67811584 C465.61056096 332.1104609 465.60633238 335.5424959 465.61962891 338.97483826 C465.63059649 342.70385925 465.6168042 346.43201406 465.59690857 350.16098022 C465.60137001 350.69761354 465.60137001 350.69761354 465.62394762 353.41330338 C465.53049732 362.47406735 463.73823287 370.82743077 457.526474 377.70492554 C447.89705498 386.30630097 436.06781708 385.84185035 423.90830994 385.77536011 C422.06698998 385.77997399 420.22567371 385.78633017 418.38436508 385.79426908 C413.34525169 385.8109185 408.30644254 385.80273597 403.26732826 385.79032421 C397.82484026 385.78125808 392.38240384 385.79525121 386.93992615 385.8062439 C376.28627978 385.82401698 365.63274622 385.82019449 354.97909546 385.80859333 C346.31954524 385.79955454 337.66002661 385.79833695 329.00047302 385.8026886 C327.76732825 385.80330153 326.53418348 385.80391446 325.26367068 385.80454597 C322.75844859 385.80582489 320.25322651 385.80712174 317.74800444 385.80843633 C294.93368675 385.81951364 272.11942332 385.80803206 249.30511588 385.78706595 C228.49215025 385.76808446 207.67928252 385.76978301 186.86631775 385.78890991 C163.46595499 385.81034289 140.06564334 385.81873999 116.66527176 385.80646086 C114.16933951 385.80518668 111.67340725 385.8039292 109.17747498 385.8026886 C108.56347474 385.80238005 108.56347474 385.80238005 105.4562614 385.80081859 C96.80855032 385.79736697 88.16087402 385.80319 79.51316833 385.81260681 C68.97244034 385.82383285 58.43183147 385.82077392 47.8911171 385.79948384 C42.51455378 385.78898168 37.13818898 385.78483752 31.7616272 385.79808044 C26.83675951 385.81002722 21.91227378 385.80340395 16.98744059 385.78217024 C15.20898899 385.77771388 13.43050492 385.77994863 11.65207434 385.78967339 C0.27716127 385.84708651 -10.41927646 385.68088209 -19.348526 377.70492554 C-26.99024424 369.21263737 -27.4942441 359.07202507 -27.41223145 348.13543701 C-27.41613157 346.73404459 -27.4217777 345.33265614 -27.42900234 343.93127692 C-27.44367264 340.10822874 -27.43362652 336.285596 -27.41926563 332.46256161 C-27.4081116 328.32891821 -27.42011294 324.19533098 -27.42910767 320.06169128 C-27.44301134 311.97546741 -27.43550558 303.88940014 -27.42043208 295.80318378 C-27.40353893 286.38087189 -27.40678635 276.95859865 -27.41052616 267.5362763 C-27.41639932 250.72266946 -27.4022537 233.90913761 -27.37757874 217.09555054 C-27.35365193 200.7898579 -27.34657816 184.4842654 -27.35707092 168.17855835 C-27.36848544 150.40869666 -27.37040418 132.63888124 -27.35597283 114.8690201 C-27.35444703 112.97357917 -27.35292668 111.07813824 -27.35141182 109.1826973 C-27.35065401 108.25017519 -27.34989619 107.31765308 -27.34911541 106.35687273 C-27.34437731 99.79264015 -27.3462206 93.22842827 -27.35047722 86.66419601 C-27.35540856 78.66366978 -27.34939842 70.66323814 -27.32958292 62.66273354 C-27.31972555 58.58260984 -27.31458903 54.50263003 -27.32247543 50.4224987 C-27.32955264 46.68450306 -27.32268029 42.94679727 -27.30487181 39.20883973 C-27.29893705 37.22275135 -27.30763154 35.2366357 -27.31691831 33.25056016 C-27.24068921 22.48441657 -25.37241757 14.27344423 -17.911026 6.26742554 C-12.37591152 1.8854599 -7.03656768 0.02352279 0 0 Z " fill="#19AC9A" transform="translate(36.91102600097656,52.732574462890625)"/>
<path d="M0 0 C0.57951416 -0.00426498 0.57951416 -0.00426498 3.51220703 -0.02584839 C4.76996445 -0.02494202 6.02772186 -0.02403564 7.32359314 -0.02310181 C8.67282989 -0.0290919 10.02206323 -0.03589856 11.37129211 -0.04345703 C15.02667023 -0.06108276 18.68195461 -0.06581117 22.33737111 -0.0670886 C24.62670242 -0.06851356 26.91601018 -0.07278985 29.20533562 -0.07808304 C37.2084745 -0.09657728 45.21154688 -0.10475507 53.21470642 -0.10317993 C60.64689386 -0.10198112 68.07878968 -0.12303365 75.51090342 -0.15466726 C81.91203762 -0.18093078 88.31307723 -0.19154292 94.71426481 -0.19026911 C98.52816141 -0.1897621 102.34179914 -0.19529823 106.15564156 -0.21662521 C109.75009966 -0.2361765 113.34405664 -0.23601879 116.93853378 -0.22159195 C118.86472796 -0.21854689 120.79092309 -0.2350645 122.71704102 -0.25247192 C138.72964571 -0.1385144 152.35974972 5.35705061 163.63780212 16.72103882 C169.14307705 22.58752795 174.09102095 28.9708252 179.088974 35.26742554 C179.63892029 35.95755737 180.18886658 36.64768921 180.75547791 37.35873413 C189.3440553 48.15004749 189.3440553 48.15004749 192.088974 52.26742554 C193.92772096 52.64183038 193.92772096 52.64183038 196.20868587 52.64101315 C196.64270953 52.64450802 196.64270953 52.64450802 198.83913225 52.66219419 C199.31883629 52.65840616 199.31883629 52.65840616 201.74642944 52.63923645 C202.76126516 52.64306101 203.77610088 52.64688558 204.82168919 52.65082604 C208.24482427 52.66016062 211.66756009 52.64808815 215.09068298 52.63632202 C217.53615487 52.63878831 219.98162571 52.64262496 222.42709351 52.6477356 C227.70583461 52.65609478 232.98446355 52.65555149 238.26319695 52.64755058 C245.90738931 52.63632951 253.55145769 52.64535172 261.19563926 52.66011239 C273.61280013 52.68390827 286.02994573 52.69725283 298.4471283 52.70126343 C298.81894693 52.70138586 298.81894693 52.70138586 300.70057458 52.70200545 C308.98696274 52.70454838 317.27334972 52.70511985 325.55973816 52.70407104 C328.55898539 52.70373806 331.55823262 52.70345265 334.55747986 52.70321655 C335.29748387 52.70315377 336.03748788 52.70309098 336.79991626 52.70302629 C349.15901154 52.70242051 361.51803648 52.71734493 373.87710243 52.74404961 C381.49629675 52.75982659 389.11526344 52.76214226 396.73446006 52.74691559 C402.58336503 52.73629523 408.43212266 52.74618452 414.2810154 52.76347351 C416.67426873 52.76719382 419.06754412 52.7641089 421.46077728 52.75360298 C424.7370681 52.74018294 428.01241225 52.75148492 431.28866577 52.76863098 C432.22799735 52.7588242 433.16732893 52.74901743 434.1351251 52.73891348 C442.89247279 52.83318939 450.85981417 54.96372253 457.526474 60.82992554 C464.18017768 68.22141156 465.57446285 76.33600669 465.229599 86.02914429 C465.18319275 86.7677771 465.1367865 87.50640991 465.088974 88.26742554 C464.01386393 86.15141344 462.98281596 84.03087773 462.010849 81.86508179 C458.52166226 74.31680782 454.93576606 70.21319305 447.04437447 67.16930294 C441.38759357 65.16945997 436.38895797 64.68565999 430.42756653 64.71238708 C429.92046223 64.70679762 429.92046223 64.70679762 427.35420716 64.67851156 C423.98683687 64.64640358 420.62006034 64.64243217 417.25254822 64.63876343 C414.82532651 64.62186705 412.39811538 64.60338749 409.97091675 64.58345032 C403.39832322 64.53542683 396.82586053 64.51350013 390.2531333 64.49960256 C386.14005528 64.49078379 382.02701428 64.47577481 377.9139595 64.45959282 C366.4992011 64.41567889 355.08447458 64.3786608 343.66963005 64.3689661 C343.30524389 64.36865275 343.30524389 64.36865275 341.46122909 64.36706701 C339.98420056 64.36581796 338.50717202 64.36457021 337.03014348 64.36332376 C336.29706732 64.36269541 335.56399116 64.36206706 334.80870056 64.36141968 C334.07471728 64.36079627 333.34073399 64.36017286 332.58450879 64.35953056 C320.70112992 64.3481016 308.81860063 64.28619217 296.93553434 64.20220274 C284.7004208 64.11642862 272.46573022 64.07239745 260.23031056 64.06977075 C253.37440731 64.06736377 246.51956826 64.04775647 239.66395187 63.98213387 C233.21038463 63.92060085 226.75832275 63.91661244 220.30453682 63.95006752 C217.94760783 63.95340535 215.59056171 63.93823903 213.23390388 63.90233231 C198.22372201 63.68743783 188.69075843 65.53598731 176.83245683 74.97350681 C164.40499361 84.19649837 148.77847539 85.72392878 133.83457947 85.63632202 C132.35298892 85.63879686 130.87140014 85.64264214 129.38981628 85.6477356 C126.22679123 85.65600461 123.06394667 85.65532557 119.90092087 85.64755058 C114.88963915 85.63586172 109.87858446 85.64821668 104.86732483 85.66416931 C92.42754948 85.70017946 79.9877812 85.70659505 67.54795837 85.70407104 C57.86130602 85.70235602 48.1748421 85.7095725 38.48824227 85.74404961 C33.51605578 85.76075458 28.54433117 85.75912757 23.57214713 85.74322689 C20.47080133 85.73739702 17.36967093 85.74822768 14.26836395 85.76347351 C12.8410235 85.7671736 11.41364572 85.76416815 9.98633957 85.75360298 C0.06859406 85.68513298 -8.21059624 86.79759873 -16.786026 92.01742554 C-21.58741112 97.10124508 -24.35683457 102.4854993 -25.911026 109.26742554 C-26.241026 109.26742554 -26.571026 109.26742554 -26.911026 109.26742554 C-26.98068877 98.20989529 -27.03391982 87.15241768 -27.06646252 76.09471226 C-27.08208529 70.95957726 -27.1032615 65.82459296 -27.13734436 60.68954468 C-27.17005885 55.72933925 -27.18790448 50.76927834 -27.19565773 45.80897331 C-27.20117958 43.92124089 -27.21196225 42.03351593 -27.22821617 40.14584541 C-27.25015136 37.49162128 -27.25298625 34.83798621 -27.25160217 32.1836853 C-27.25699509 31.79778229 -27.25699509 31.79778229 -27.2842865 29.84487915 C-27.23265965 20.6312825 -24.18917313 13.00383158 -17.911026 6.26742554 C-12.37591152 1.8854599 -7.03656768 0.02352279 0 0 Z " fill="#057A5B" transform="translate(36.91102600097656,52.732574462890625)"/>
<path d="M0 0 C5.36273849 1.8882882 8.28706936 4.99151267 11 10 C12.08074743 13.32099176 12.13685225 16.43022379 12.15821838 19.90985107 C12.1680072 21.11857376 12.17779602 22.32729645 12.18788147 23.57264709 C12.19378519 24.90878256 12.19959567 26.24491845 12.20532227 27.58105469 C12.21490427 28.99049668 12.22491454 30.39993581 12.23532104 31.80937195 C12.26234128 35.63337502 12.28336643 39.45739039 12.30332303 43.28143597 C12.32520036 47.27865017 12.3525805 51.27582656 12.37937927 55.27301025 C12.42928253 62.84124856 12.47423014 70.40950788 12.51740164 77.97778726 C12.56679424 86.59442783 12.62170487 95.21103046 12.67708123 103.82763433 C12.79086493 121.55172099 12.89771184 139.27584346 13 157 C13.45243576 156.54312302 13.90487152 156.08624603 14.37101746 155.61552429 C19.08574405 150.856512 23.80752653 146.10458508 28.53344727 141.35668945 C30.29568072 139.58440555 32.05611403 137.81032979 33.81469727 136.03442383 C36.3443923 133.48043915 38.88051495 130.93299215 41.41796875 128.38671875 C42.20149216 127.59287277 42.98501556 126.79902679 43.7922821 125.98112488 C44.53267227 125.24058365 45.27306244 124.50004242 46.03588867 123.73706055 C46.35898766 123.41174095 46.35898766 123.41174095 47.99406433 121.76542664 C52.51187523 117.78929529 55.88767983 116.48371363 61.79296875 116.71875 C66.61698333 117.33349168 69.69146823 119.42548498 72.8125 123 C76.02560205 127.40653996 76.7896156 131.63249397 76 137 C73.7780366 142.41495059 70.54139491 145.87568622 66.44897461 149.9074707 C65.78850632 150.56998337 65.12803802 151.23249603 64.44755554 151.91508484 C62.27299778 154.09263925 60.08791866 156.25928933 57.90234375 158.42578125 C56.38626298 159.93880313 54.87077339 161.45241759 53.35585022 162.96659851 C50.1853781 166.132475 47.01006692 169.29338481 43.83081055 172.45043945 C39.7493422 176.50355365 35.67666824 180.56536212 31.60712337 184.63044453 C28.48075363 187.75266531 25.35156257 190.87204444 22.22131538 193.99037743 C20.71809742 195.48788768 19.21535381 196.98587425 17.71308708 198.48433876 C15.61854204 200.5720355 13.52064939 202.65630424 11.42163086 204.73950195 C10.79768433 205.36233063 10.17373779 205.9851593 9.53088379 206.62686157 C5.22939489 210.88530255 5.22939489 210.88530255 3 212 C3.90122589 212.00364563 4.80245178 212.00729126 5.73098755 212.01104736 C14.23526958 212.0489558 22.73916923 212.10584097 31.24318123 212.18390274 C35.6149353 212.22336725 39.98648826 212.25556065 44.35839844 212.27099609 C48.57968209 212.28616962 52.80041282 212.320627 57.02145004 212.36830902 C58.62969016 212.38311574 60.23800923 212.39104061 61.84631729 212.39188385 C64.10403237 212.39425753 66.36022433 212.42136593 68.61767578 212.45410156 C69.90118927 212.46298401 71.18470276 212.47186646 72.5071106 212.48101807 C77.75587688 213.26089242 80.81507287 215.68697264 84.3125 219.5625 C87.26167987 223.82242647 87.51787585 227.95550565 87 233 C84.99703332 238.67507225 81.38649821 242.30675089 76 245 C73.92770838 245.10489217 71.85198972 245.1439353 69.77706909 245.15390015 C69.13171994 245.1582824 68.48637079 245.16266465 67.82146561 245.1671797 C65.64904058 245.18058308 63.47665613 245.18675006 61.30419922 245.19287109 C59.75039994 245.20077105 58.1966025 245.20903993 56.64280701 245.21765137 C51.53011837 245.24389056 46.41742149 245.25918394 41.3046875 245.2734375 C39.54472981 245.27879698 37.78477218 245.28417449 36.02481461 245.28956985 C28.70226946 245.31120408 21.37972654 245.32993956 14.05715752 245.34119225 C3.56473615 245.35742183 -6.9273143 245.39056916 -17.41959584 245.44759309 C-24.79719487 245.48632036 -32.17469484 245.50582841 -39.55239284 245.51111281 C-43.95814319 245.51476334 -48.36349812 245.52675204 -52.76913834 245.55921555 C-56.91757333 245.5893443 -61.06537467 245.59559114 -65.2138958 245.58383179 C-66.73281532 245.58361143 -68.25176464 245.5918852 -69.7705822 245.60948563 C-83.57972865 245.76073858 -83.57972865 245.76073858 -89.54369926 241.4394474 C-92.94461365 238.07789078 -94.83564434 234.48640609 -95.15234375 229.6953125 C-94.81388846 224.54037806 -93.476954 220.93444795 -90 217 C-84.9830123 213.63949751 -81.75436832 212.4973945 -75.59594727 212.45410156 C-74.892668 212.44376389 -74.18938873 212.43342621 -73.46479797 212.42277527 C-71.16509526 212.39353058 -68.86627963 212.3918521 -66.56640625 212.390625 C-64.96213623 212.37563083 -63.35788158 212.35890109 -61.75364685 212.34051514 C-57.55005148 212.29696776 -53.3466643 212.27687074 -49.1428833 212.26177979 C-44.845782 212.24216296 -40.54890405 212.20019821 -36.25195312 212.16015625 C-27.83469407 212.08499094 -19.41752305 212.03461699 -11 212 C-11.41231369 211.65670151 -11.82462738 211.31340302 -12.24943542 210.95970154 C-19.60062739 204.69013992 -26.38550236 197.83699725 -33.23828125 191.03515625 C-33.57475017 190.70134917 -33.57475017 190.70134917 -35.2774868 189.01208305 C-38.83084306 185.4852933 -42.38062606 181.954947 -45.92797852 178.42211914 C-48.8530446 175.51043897 -51.78522636 172.60622017 -54.72387695 169.70825195 C-58.29095156 166.19053154 -61.84555959 162.66065984 -65.39159203 159.12173271 C-66.73850674 157.78151404 -68.08965949 156.44554003 -69.44518471 155.11403084 C-71.3404428 153.25048524 -73.21921874 151.37167645 -75.0949707 149.48852539 C-75.6513623 148.94853912 -76.20775391 148.40855286 -76.78100586 147.85220337 C-81.12264789 143.44032983 -84.00504745 138.60892418 -83.99609375 132.20703125 C-81.92276423 123.31926204 -81.92276423 123.31926204 -78 120 C-73.31438665 117.80445546 -68.15077567 116.01368125 -63 117 C-56.87334001 120.80429259 -51.81373033 125.91700103 -46.78125 131.0234375 C-46.03790405 131.76961334 -45.29455811 132.51578918 -44.52868652 133.28457642 C-42.18100738 135.64335284 -39.84042117 138.00902417 -37.5 140.375 C-35.89890324 141.98614006 -34.29734507 143.59682171 -32.6953125 145.20703125 C-28.79152656 149.13273871 -24.89352271 153.06411463 -21 157 C-20.99761165 156.26946883 -20.99522329 155.53893766 -20.99276257 154.78626919 C-20.93359288 137.00009437 -20.85803018 119.21405809 -20.76428509 101.42803097 C-20.71934454 92.82678898 -20.67992586 84.22558823 -20.65356445 75.62426758 C-20.63057026 68.12621093 -20.59715638 60.628285 -20.55129844 53.13033205 C-20.52738532 49.16124418 -20.50864405 45.1922856 -20.50238609 41.22312737 C-20.49632653 37.48432053 -20.47629556 33.74584445 -20.44572449 30.00716019 C-20.43279014 27.98678183 -20.43451181 25.96632614 -20.4367218 23.94590759 C-20.29967652 10.68917063 -20.29967652 10.68917063 -15.24609375 5.0390625 C-14.94767578 4.80574219 -14.94767578 4.80574219 -13.4375 3.625 C-13.13779297 3.38394531 -13.13779297 3.38394531 -11.62109375 2.1640625 C-7.94996184 -0.47207559 -4.38363619 -0.56281767 0 0 Z " fill="#10938D" transform="translate(260,155)"/>
<path d="M0 0 C3.55948115 2.1666407 5.49225603 4.14864541 7 8 C7.26171303 10.92850113 7.26171303 10.92850113 7.2784729 14.40338135 C7.28963638 15.72148804 7.30079987 17.03959473 7.31230164 18.39764404 C7.31466655 19.8565671 7.31684221 21.31549047 7.31884766 22.77441406 C7.3281466 24.3119357 7.33831522 25.84945229 7.34928894 27.38696289 C7.37660687 31.56013593 7.39174365 35.73327519 7.40471697 39.90651417 C7.42033966 44.26809887 7.44713263 48.6296145 7.4727478 52.9911499 C7.51955086 61.2499943 7.55628758 69.50885167 7.58942068 77.76776099 C7.62763127 87.17037774 7.67704422 96.57292512 7.72740483 105.97548342 C7.83074739 125.3169382 7.92000024 144.6584353 8 164 C8.54013229 163.45542648 9.08026459 162.91085297 9.63676453 162.34977722 C14.73666835 157.20974068 19.84140841 152.0745787 24.95160198 146.94477367 C27.57840833 144.30754585 30.20332815 141.66849669 32.82397461 139.02514648 C35.35477407 136.47256034 37.89047791 133.92494116 40.42960548 131.38064003 C41.39575999 130.41080023 42.36015728 129.43920651 43.32272911 128.46581078 C44.67487507 127.09907307 46.03396575 125.73921668 47.39331055 124.37963867 C48.16386276 123.60464523 48.93441498 122.82965179 49.72831726 122.03117371 C52.97209868 119.13081997 55.64195697 117.16975538 60 116.625 C63.42422442 117.05302805 65.25223913 117.93917934 68 120 C70.42544056 123.63816084 70.75427251 125.84307246 70.58694458 130.15185547 C69.87138153 133.62412024 68.71594915 134.94723354 66.28466797 137.50390625 C65.46407898 138.37297607 64.64348999 139.2420459 63.79803467 140.13745117 C62.867079 141.09331481 61.93432756 142.04743201 61 143 C60.51456978 143.49851471 60.02913956 143.99702942 59.52899933 144.51065063 C55.63827452 148.4985846 51.70114485 152.43918836 47.7578125 156.375 C46.49976281 157.6337249 45.24186147 158.89259808 43.98410034 160.15161133 C41.36862275 162.76855186 38.75137357 165.38370356 36.1328125 167.99755859 C32.77697572 171.34765732 29.42570491 174.70228233 26.07571602 178.05822754 C23.48848782 180.64906421 20.89888909 183.23752088 18.30855942 185.82525635 C17.07104997 187.06209946 15.83428087 188.2996838 14.59827042 189.5380249 C12.87797848 191.26085251 11.1545209 192.98044921 9.43017578 194.69921875 C8.92210892 195.20930984 8.41404205 195.71940094 7.89057922 196.24494934 C4.28412374 199.82980073 1.61925277 202.31321609 -3.5625 202.6875 C-8.16788685 202.50913276 -10.18748373 201.43761521 -13.50610352 198.28027344 C-14.37518341 197.45966431 -15.24426331 196.63905518 -16.13967896 195.7935791 C-17.0835849 194.871698 -18.02749084 193.94981689 -19 193 C-19.49752148 192.51655624 -19.99504295 192.03311249 -20.50764084 191.53501892 C-24.48436896 187.66531702 -28.4151194 183.75045711 -32.33984375 179.828125 C-33.59624831 178.57494177 -34.85272446 177.32183031 -36.10926819 176.06878662 C-38.72215287 173.46184366 -41.33300992 170.85288952 -43.94262695 168.24267578 C-47.28195843 164.903242 -50.62816108 161.57078406 -53.97609615 158.23997879 C-56.56431554 155.6628773 -59.14797786 153.08124428 -61.7303791 150.4983139 C-62.96271925 149.26715061 -64.19667392 148.03760112 -65.43229485 146.80973053 C-67.15488923 145.09694842 -68.87101531 143.37792882 -70.58569336 141.65722656 C-71.09218918 141.15635025 -71.598685 140.65547394 -72.12052917 140.13941956 C-75.76101307 136.46639646 -78.72081312 133.23349503 -79.375 128 C-78.80520344 123.44162752 -77.2898825 121.01098899 -73.6875 118.1875 C-70.31760763 116.69847779 -68.65652188 116.35473143 -65 117 C-58.22674273 121.06561424 -52.75814784 126.98008035 -47.25 132.5546875 C-46.35128174 133.45623566 -45.45256348 134.35778381 -44.52661133 135.28665161 C-42.16229632 137.66020464 -39.80241414 140.03798996 -37.44464111 142.41802979 C-35.02800081 144.85529459 -32.60554002 147.28675979 -30.18359375 149.71875 C-25.45040439 154.47389628 -20.72298297 159.23471737 -16 164 C-15.99853344 163.20154852 -15.99706688 162.40309704 -15.99555588 161.58045006 C-15.95850109 142.1506094 -15.89950402 122.72094874 -15.81609726 103.29125023 C-15.77629119 93.89517303 -15.74390667 84.49917977 -15.72900391 75.10302734 C-15.71599551 66.91314604 -15.68905165 58.72344933 -15.64538693 50.53367198 C-15.62275379 46.19737492 -15.60709042 41.86130567 -15.60811615 37.52494431 C-15.60886167 33.44217518 -15.59095456 29.35991001 -15.55883217 25.27727127 C-15.55032374 23.7801366 -15.54858968 22.28294547 -15.55419731 20.78579712 C-15.56084519 18.73790792 -15.542902 16.69161853 -15.51898193 14.64389038 C-15.51713835 14.07145694 -15.51713835 14.07145694 -15.50780869 11.17459679 C-14.88052968 7.25312402 -13.45625207 5.08846838 -11 2 C-7.3078813 -0.46141247 -4.28645195 -0.68650207 0 0 Z " fill="#F8FCFB" transform="translate(260,160)"/>
<path d="M0 0 C5.37686615 3.1206029 8.69941245 8.78573736 10.625 14.5625 C10.74155789 16.37987684 10.80166058 18.20108748 10.83032227 20.02197266 C10.84029236 20.58879509 10.84029236 20.58879509 10.89074707 23.45726013 C10.9074646 24.70112991 10.92418213 25.94499969 10.94140625 27.2265625 C10.95181946 27.88066353 10.95181946 27.88066353 11.0045166 31.19081116 C11.06072503 34.77607872 11.10999551 38.36141078 11.15742874 41.94680405 C11.18743569 44.18270811 11.219293 46.41857868 11.25167847 48.65444946 C11.72073944 81.29028923 11.73389936 113.92405376 11.625 146.5625 C16.17478844 142.64806192 20.60578515 138.70117918 24.7890625 134.390625 C25.68367187 133.47925781 26.57828125 132.56789063 27.5 131.62890625 C29.34496042 129.73939423 31.18606581 127.84611093 33.0234375 125.94921875 C33.91546875 125.04300781 34.8075 124.13679688 35.7265625 123.203125 C36.52400879 122.38360352 37.32145508 121.56408203 38.14306641 120.71972656 C43.3842022 116.1642794 48.79509715 114.4305212 55.625 114.5625 C63.03230701 115.43529897 67.43146468 118.38172048 72.05859375 124.16796875 C75.5781295 129.54820669 76.26058531 134.92747525 75.19487 141.2401123 C72.79483325 151.02096731 63.34928226 158.21888309 56.44921875 165.03125 C55.1553341 166.31953141 53.86211614 167.60848272 52.5695343 168.89807129 C49.18466034 172.27155388 45.79087168 175.63592483 42.39508057 178.99841309 C38.9239222 182.438747 35.46136233 185.88771158 31.99804688 189.3359375 C25.21537066 196.0865504 18.42323547 202.82755889 11.625 209.5625 C12.29405869 209.56836624 12.96311737 209.57423248 13.65245056 209.58027649 C20.64495625 209.64443812 27.63701137 209.72891615 34.62915039 209.82495117 C37.23520958 209.85811126 39.84133904 209.88617065 42.44750977 209.90893555 C46.2035911 209.94264489 49.95903355 209.99497112 53.71484375 210.05078125 C54.87145004 210.05717117 56.02805634 210.0635611 57.2197113 210.07014465 C65.97333743 210.22759737 74.16824556 211.10574556 80.625 217.5625 C85.69031098 224.45695105 86.53529949 230.1396139 85.625 238.5625 C83.4979492 244.94365241 79.64270976 249.54759109 73.625 252.5625 C69.29489376 254.23003829 65.71079945 254.81475162 61.07963562 254.82319641 C59.7802002 254.83028122 58.48076477 254.83736603 57.14195251 254.84466553 C55.71401942 254.842372 54.28608667 254.83986234 52.8581543 254.8371582 C51.34479522 254.84150848 49.83143834 254.84669269 48.31808472 254.85264587 C44.21670195 254.86601494 40.11541145 254.86661675 36.01401114 254.86408257 C32.58479792 254.86301118 29.15560324 254.86790069 25.726394 254.872688 C17.63211634 254.88377652 9.53788509 254.88422465 1.44360352 254.87817383 C-6.89292293 254.87213747 -15.22928045 254.88443794 -23.56577808 254.9057439 C-30.73456879 254.9233885 -37.90330589 254.92935665 -45.07211751 254.92610615 C-49.34860941 254.92429729 -53.62498087 254.92688952 -57.90145302 254.94082069 C-61.92591314 254.95344059 -65.95011109 254.95141584 -69.97456741 254.93840981 C-71.44628299 254.93605329 -72.91801725 254.93874537 -74.38971138 254.94703293 C-83.49771175 254.99459862 -91.3808642 254.78094307 -99.1875 249.75 C-104.34718666 244.59031334 -106.51609253 239.96511971 -106.625 232.75 C-106.57819848 227.89434184 -106.17442538 224.66165859 -103.375 220.5625 C-102.818125 219.69625 -102.26125 218.83 -101.6875 217.9375 C-96.27783048 212.38162319 -89.44644784 210.47878471 -81.87207031 210.35717773 C-80.77123108 210.33723251 -79.67039185 210.31728729 -78.53619385 210.29673767 C-77.94498749 210.28838142 -77.94498749 210.28838142 -74.953125 210.24609375 C-73.73800232 210.22531265 -72.52287964 210.20453156 -71.27093506 210.18312073 C-67.38901427 210.11773172 -63.5070258 210.05878949 -59.625 210 C-56.99348258 209.95680468 -54.36197201 209.91319006 -51.73046875 209.86914062 C-45.2787174 209.76206117 -38.82689871 209.66027486 -32.375 209.5625 C-33.09274597 208.84919525 -33.81049194 208.1358905 -34.54998779 207.40097046 C-41.32343484 200.66812024 -48.09155412 193.92995468 -54.85453415 187.18659019 C-58.33136137 183.7201866 -61.81001877 180.25566258 -65.29296875 176.79541016 C-68.65603667 173.45412109 -72.01415223 170.10792708 -75.36893463 166.75831985 C-76.64775804 165.48318314 -77.92833642 164.2098039 -79.21071625 162.93824387 C-81.01075803 161.15278382 -82.80437843 159.36109669 -84.59667969 157.56787109 C-85.12464142 157.04709991 -85.65260315 156.52632874 -86.19656372 155.98977661 C-92.00583194 150.14814577 -95.40216816 145.15168264 -95.75 136.9375 C-95.66220932 130.99407064 -93.91154325 126.33429519 -90.375 121.5625 C-83.95231913 116.1144672 -77.61512386 114.91795043 -69.375 115.5625 C-62.22674476 117.47721122 -57.56255205 122.49955232 -52.375 127.5625 C-51.61348633 128.3035498 -50.85197266 129.04459961 -50.06738281 129.80810547 C-47.45230416 132.3628208 -44.84896542 134.92889779 -42.25 137.5 C-41.38342773 138.35335937 -40.51685547 139.20671875 -39.62402344 140.0859375 C-38.81739258 140.89160156 -38.01076172 141.69726562 -37.1796875 142.52734375 C-36.44733887 143.2555835 -35.71499023 143.98382324 -34.96044922 144.73413086 C-33.375 146.5625 -33.375 146.5625 -33.375 148.5625 C-32.715 148.5625 -32.055 148.5625 -31.375 148.5625 C-31.37868717 147.87927422 -31.38237434 147.19604843 -31.38617325 146.49211884 C-31.47460442 129.84901644 -31.54074848 113.20598871 -31.58224869 96.56270599 C-31.60285258 88.51404876 -31.63093141 80.46554859 -31.67675781 72.41699219 C-31.71669237 65.39986834 -31.74244861 58.38285828 -31.75135398 51.36562395 C-31.7565576 47.65180401 -31.76874205 43.93830951 -31.79792023 40.22459412 C-31.83026938 36.0734122 -31.83095518 31.92279201 -31.82910156 27.77148438 C-31.84348267 26.54724762 -31.85786377 25.32301086 -31.87268066 24.06167603 C-31.83376396 16.00399416 -30.86841519 10.4716383 -25.33984375 4.28515625 C-25.00533203 4.01123047 -25.00533203 4.01123047 -23.3125 2.625 C-22.97669922 2.34205078 -22.97669922 2.34205078 -21.27734375 0.91015625 C-15.59549943 -3.1149696 -6.22831574 -2.65034712 0 0 Z M-23.1875 10.5625 C-26.37129155 14.92884269 -26.50046267 18.13784981 -26.53321838 23.47235107 C-26.5430072 24.68107376 -26.55279602 25.88979645 -26.56288147 27.13514709 C-26.56878519 28.47128256 -26.57459567 29.80741845 -26.58032227 31.14355469 C-26.58990427 32.55299668 -26.59991454 33.96243581 -26.61032104 35.37187195 C-26.63734128 39.19587502 -26.65836643 43.01989039 -26.67832303 46.84393597 C-26.70020036 50.84115017 -26.7275805 54.83832656 -26.75437927 58.83551025 C-26.80428253 66.40374856 -26.84923014 73.97200788 -26.89240164 81.54028726 C-26.94179424 90.15692783 -26.99670487 98.77353046 -27.05208123 107.39013433 C-27.16586493 125.11422099 -27.27271184 142.83834346 -27.375 160.5625 C-27.82743576 160.10562302 -28.27987152 159.64874603 -28.74601746 159.17802429 C-33.46074405 154.419012 -38.18252653 149.66708508 -42.90844727 144.91918945 C-44.67068072 143.14690555 -46.43111403 141.37282979 -48.18969727 139.59692383 C-50.7193923 137.04293915 -53.25551495 134.49549215 -55.79296875 131.94921875 C-56.57649216 131.15537277 -57.36001556 130.36152679 -58.1672821 129.54362488 C-58.90767227 128.80308365 -59.64806244 128.06254242 -60.41088867 127.29956055 C-60.73398766 126.97424095 -60.73398766 126.97424095 -62.36906433 125.32792664 C-65.37919031 122.67871078 -68.00652958 120.67205731 -72.05859375 120.34765625 C-77.81107355 120.926984 -81.92236189 121.5551257 -86.375 125.5625 C-89.49451287 129.43499874 -90.51589651 133.63375318 -90.375 138.5625 C-88.49752661 145.179073 -85.69989161 148.94972352 -80.82397461 153.69702148 C-80.49374046 154.02842384 -80.49374046 154.02842384 -78.82255554 155.70552063 C-76.65260508 157.87707641 -74.46543094 160.03032682 -72.27734375 162.18359375 C-70.76082638 163.6933176 -69.24534326 165.204081 -67.73085022 166.71583557 C-64.56327423 169.87275789 -61.38788182 173.02150812 -58.20581055 176.16381836 C-54.12087356 180.19771533 -50.04905705 184.24452922 -45.98212337 188.29656887 C-42.10526094 192.15866961 -38.22318858 196.0155124 -34.33984375 199.87109375 C-33.59676405 200.60926268 -32.85368435 201.3474316 -32.08808708 202.10796928 C-29.99374367 204.18608866 -27.8958669 206.26056471 -25.79663086 208.33374023 C-25.17268433 208.95342682 -24.54873779 209.5731134 -23.90588379 210.21157837 C-19.60527567 214.44736217 -19.60527567 214.44736217 -17.375 215.5625 C-18.25925659 215.56392502 -19.14351318 215.56535004 -20.05456543 215.56681824 C-28.41110536 215.58468985 -36.76711849 215.6264264 -45.12340546 215.69459057 C-49.41892907 215.72879862 -53.71409938 215.75396085 -58.00976562 215.75805664 C-62.15981796 215.76235298 -66.30907413 215.79092504 -70.45887756 215.83593178 C-72.03755547 215.84886437 -73.61632886 215.85322953 -75.1950531 215.84865379 C-90.08848294 215.81555822 -90.08848294 215.81555822 -95.95593262 220.12739563 C-99.30680155 223.51613298 -101.1686741 227.06509695 -101.5625 231.83203125 C-101.26355839 237.31574147 -99.46197808 241.81529445 -95.375 245.5625 C-90.95936415 248.1464457 -87.75355353 248.93949796 -82.65759277 248.95018005 C-82.00741479 248.95556559 -81.35723681 248.96095113 -80.68735647 248.96649987 C-78.52249467 248.98073518 -76.35824816 248.97368718 -74.19335938 248.96655273 C-72.63572195 248.97225859 -71.07808871 248.97922369 -69.52046204 248.98735046 C-65.29941425 249.00527176 -61.07857446 249.00411564 -56.85750008 248.99840808 C-53.33106858 248.9953152 -49.80467698 249.00140967 -46.27825117 249.00744683 C-37.95874168 249.02148661 -29.63933489 249.01993489 -21.31982422 249.00854492 C-12.74120225 248.99705966 -4.16289276 249.01114739 4.41568804 249.0379414 C11.7865648 249.06010007 19.15734347 249.06673554 26.52825117 249.06086498 C30.92819676 249.05749515 35.32794197 249.05991241 39.7278595 249.07711601 C43.86482834 249.09258618 48.00133413 249.08862911 52.13828468 249.06981087 C53.65479761 249.06612538 55.17134486 249.06923236 56.68782616 249.07969666 C58.76161408 249.09291213 60.83387014 249.08135723 62.90759277 249.06370544 C64.06678978 249.06349616 65.22598679 249.06328688 66.42031097 249.06307125 C71.47832758 248.27301091 74.56731229 245.73453233 77.9375 242 C80.88667987 237.74007353 81.14287585 233.60699435 80.625 228.5625 C78.62203332 222.88742775 75.01149821 219.25574911 69.625 216.5625 C67.31775983 216.44129701 65.00703172 216.3849643 62.69677734 216.35717773 C61.98447464 216.34727814 61.27217194 216.33737854 60.5382843 216.32717896 C58.17920274 216.29554142 55.82010103 216.2707977 53.4609375 216.24609375 C51.82711253 216.22552616 50.19329292 216.20452974 48.55947876 216.18312073 C44.25557784 216.12787987 39.95162874 216.0784795 35.64764404 216.03027344 C31.25723982 215.9800731 26.86690571 215.92437939 22.4765625 215.86914062 C13.85943425 215.76153442 5.24224742 215.66009494 -3.375 215.5625 C-2.96563202 215.22296295 -2.55626404 214.8834259 -2.13449097 214.53359985 C5.32984399 208.17939778 12.18102504 201.19022365 19.1171875 194.2734375 C19.80240604 193.59104633 20.48762459 192.90865517 21.19360733 192.20558548 C24.81015308 188.60394389 28.42388119 184.99950425 32.03515625 181.39257812 C35.76080349 177.67244477 39.49566078 173.96170162 43.23269463 170.2530117 C46.11330538 167.3910099 48.9872006 164.52233649 51.85928726 161.65178299 C53.23391739 160.28017696 54.61104525 158.91106939 55.99071884 157.54453659 C57.91485759 155.63744312 59.82931951 153.72112108 61.74169922 151.80224609 C62.31103683 151.24212326 62.88037445 150.68200043 63.46696472 150.10490417 C67.78455081 145.74119066 69.45425255 142.71391791 69.9375 136.625 C69.78901932 131.97842827 68.53056311 128.48888894 65.1953125 125.1171875 C60.70888123 121.21109063 56.94894416 120.04461184 51.13000488 120.17782593 C43.71010148 121.31724265 37.44086484 129.47733516 32.40625 134.5859375 C31.66290405 135.33211334 30.91955811 136.07828918 30.15368652 136.84707642 C27.80600738 139.20585284 25.46542117 141.57152417 23.125 143.9375 C21.52390324 145.54864006 19.92234507 147.15932171 18.3203125 148.76953125 C14.41652656 152.69523871 10.51852271 156.62661463 6.625 160.5625 C6.62261165 159.83289063 6.62022329 159.10328125 6.61776257 158.3515625 C6.5585737 140.58172736 6.48299875 122.81203066 6.38928509 105.04234314 C6.34435877 96.44897693 6.30493683 87.85565187 6.27856445 79.26220703 C6.25555872 71.77036681 6.22213198 64.27865716 6.17629844 56.78692055 C6.15240086 52.82171327 6.13364943 48.85663502 6.12738609 44.89135742 C6.12131948 41.15501011 6.1012632 37.4189928 6.07072449 33.68276787 C6.05781169 31.66616027 6.05950988 29.64947548 6.0617218 27.63282776 C5.91219076 13.15191734 5.91219076 13.15191734 1.20872021 8.01600647 C-3.06633818 4.26115517 -6.65799656 3.19182137 -12.3203125 3.28515625 C-17.04738532 3.92322121 -20.15155033 7.14488809 -23.1875 10.5625 Z " fill="#119D97" transform="translate(266.375,151.4375)"/>
<path d="M0 0 C0.99198259 1.94514847 1.94930305 3.87827713 2.7890625 5.89453125 C5.87318403 12.97071662 10.56225023 17.51966806 17.65217501 20.57266575 C21.75681536 22.0700076 25.60885465 22.42244869 29.95582485 22.38031673 C30.33728775 22.38264669 30.33728775 22.38264669 32.26772121 22.3944377 C34.81508714 22.4063547 37.36191645 22.39700519 39.9092865 22.38768005 C41.75769056 22.39185441 43.60609206 22.39733248 45.45448881 22.40399987 C50.52699469 22.41845971 55.59933816 22.41420803 60.67185295 22.40683305 C66.14502546 22.40210506 71.61816264 22.41460794 77.09132385 22.42485046 C87.81086481 22.44205077 98.53034719 22.44287595 109.24989837 22.43763756 C117.96197506 22.43359708 126.67403444 22.43503797 135.38611031 22.44038582 C136.62578972 22.44113424 137.86546913 22.44188266 139.14271458 22.44265376 C141.66106673 22.44418523 144.17941888 22.44572358 146.69777102 22.44726873 C169.64329616 22.46060668 192.5887956 22.45627258 215.53431906 22.44505819 C236.47432584 22.43495538 257.41425244 22.44331249 278.35424805 22.46655273 C301.88677312 22.49262811 325.41926063 22.50542307 348.95180231 22.49836498 C361.40961958 22.49487 373.867371 22.49712333 386.32517815 22.51461601 C396.92971014 22.52932166 407.5341299 22.52999476 418.13865965 22.5125451 C423.54938748 22.50401948 428.95991469 22.50192381 434.37063217 22.51719666 C439.3244977 22.53100689 444.27799003 22.52632768 449.23183376 22.50695742 C451.02312808 22.50318587 452.81445203 22.50615254 454.60572004 22.51656907 C471.88181335 22.60988232 471.88181335 22.60988232 479 18 C479.32929181 17.78738603 479.32929181 17.78738603 480.99570793 16.71143049 C486.82098928 12.68876884 488.7324828 6.4577218 491 0 C491.33 0 491.66 0 492 0 C492.62658887 8.99851244 491.68985017 16.82552775 486.33984375 24.328125 C480.51808557 30.78346261 473.67209434 33.56596587 465.0767746 34.36446476 C460.32485719 34.56576257 455.57439085 34.53393601 450.81933594 34.50793457 C448.97801598 34.51254845 447.13669971 34.51890464 445.29539108 34.52684355 C440.25627769 34.54349296 435.21746854 34.53531044 430.17835426 34.52289867 C424.73586626 34.51383255 419.29342984 34.52782567 413.85095215 34.53881836 C403.19730578 34.55659145 392.54377222 34.55276895 381.89012146 34.5411678 C373.23057124 34.53212901 364.57105261 34.53091141 355.91149902 34.53526306 C354.67835425 34.53587599 353.44520948 34.53648893 352.17469668 34.53712043 C349.66947459 34.53839935 347.16425251 34.5396962 344.65903044 34.5410108 C321.84471275 34.5520881 299.03044932 34.54060653 276.21614188 34.51964041 C255.40317625 34.50065892 234.59030853 34.50235747 213.77734375 34.52148438 C190.37698099 34.54291735 166.97666934 34.55131445 143.57629776 34.53903532 C141.08036551 34.53776114 138.58443325 34.53650366 136.08850098 34.53526306 C135.47450074 34.53495451 135.47450074 34.53495451 132.3672874 34.53339306 C123.71957633 34.52994144 115.07190002 34.53576447 106.42419434 34.54518127 C95.88346634 34.55640731 85.34285747 34.55334838 74.8021431 34.5320583 C69.42557978 34.52155614 64.04921499 34.51741198 58.6726532 34.53065491 C53.74778551 34.54260169 48.82329978 34.53597841 43.89846659 34.5147447 C42.120015 34.51028835 40.34153092 34.51252309 38.56310034 34.52224785 C27.08436232 34.58018501 16.64914747 34.31962425 7.5625 26.4375 C1.15382602 19.33137279 -0.50709703 11.37765624 -0.140625 2.01953125 C-0.09421875 1.35308594 -0.0478125 0.68664062 0 0 Z " fill="#0A5D5E" transform="translate(10,404)"/>
<path d="M0 0 C1.29827225 -0.0071553 2.59654449 -0.01431061 3.93415833 -0.02168274 C5.38137794 -0.02452315 6.8285978 -0.02723487 8.27581787 -0.02983093 C9.79345353 -0.03609449 11.31108766 -0.04274119 12.82872009 -0.04974365 C16.95903275 -0.06716431 21.08933381 -0.07770849 25.21967411 -0.08594918 C27.79971836 -0.09109751 30.37975901 -0.09717335 32.95980072 -0.10346031 C41.03077946 -0.12251612 49.10174903 -0.13674593 57.17274594 -0.14507228 C66.4917366 -0.15484452 75.81048972 -0.18116197 85.12939668 -0.22157317 C92.3303225 -0.25172888 99.53118022 -0.26654067 106.73216796 -0.26985329 C111.03383524 -0.27220458 115.33524886 -0.28117486 119.63684845 -0.30631447 C123.68508377 -0.32959055 127.73289836 -0.33383047 131.78118324 -0.32355309 C133.26545676 -0.32305748 134.74975095 -0.32938524 136.23396111 -0.34310913 C138.26356296 -0.36082297 140.29334742 -0.35133827 142.32299805 -0.34057617 C143.45789295 -0.34296453 144.59278786 -0.34535288 145.76207352 -0.34781361 C149.67732803 0.26675962 151.83347335 1.69675479 154.91546631 4.14717102 C157.37687877 7.83928972 157.60196838 10.86071907 156.91546631 15.14717102 C154.74878367 18.70672107 152.76586166 20.63711915 148.91546631 22.14717102 C146.03216648 22.40164661 146.03216648 22.40164661 142.62165833 22.40786743 C141.32760574 22.41495224 140.03355316 22.42203705 138.70028687 22.42933655 C137.26818813 22.42704277 135.83608972 22.42453308 134.4039917 22.42182922 C132.89428963 22.4261769 131.38458977 22.43136023 129.87489319 22.43731689 C125.77572666 22.45071208 121.67665231 22.451285 117.57746816 22.4487536 C114.15543418 22.44768425 110.73341889 22.4525663 107.31138891 22.45735902 C99.23840116 22.46845596 91.16545995 22.46889053 83.09246826 22.46284485 C74.7638565 22.45680365 66.43541361 22.4691193 58.10683066 22.49041492 C50.95597699 22.50802692 43.8051771 22.51403292 36.65430254 22.51077718 C32.38349755 22.50896356 28.11281302 22.51160827 23.84202766 22.52549171 C19.82581377 22.53805898 15.80986329 22.53613652 11.79365349 22.52308083 C10.32025946 22.52071309 8.84684697 22.52345681 7.37347412 22.53170395 C5.36109293 22.54215535 3.34863683 22.53227705 1.33625793 22.52139282 C0.21041322 22.52156056 -0.9154315 22.52172831 -2.07539272 22.52190113 C-6.26419263 22.00026739 -8.84883832 20.29764603 -11.89703369 17.45967102 C-13.65387796 14.03844797 -13.86674033 10.85198612 -13.08453369 7.14717102 C-9.69526076 1.31008986 -6.49031157 0.02447199 0 0 Z " fill="#F7FBFB" transform="translate(184.08453369140625,372.8528289794922)"/>
<path d="M0 0 C0.66 0.33 1.32 0.66 2 1 C-0.97 3.97 -3.94 6.94 -7 10 C-7 7 -7 7 -4.625 4.4375 C-3.75875 3.633125 -2.8925 2.82875 -2 2 C-1.34 1.34 -0.68 0.68 0 0 Z " fill="#3BC497" transform="translate(22,153)"/>
</svg>
