<?xml version="1.0" encoding="UTF-8"?>
<!-- Generator: visioncortex VTracer 0.6.12 -->
<svg version="1.1" xmlns="http://www.w3.org/2000/svg" width="512" height="512">
<path d="M0 0 C0.34750323 -0.00102632 0.34750323 -0.00102632 2.1060802 -0.0062201 C4.44031758 -0.0118849 6.77449586 -0.0104335 9.1087389 -0.00901413 C10.79709609 -0.01159806 12.48545267 -0.0146113 14.1738084 -0.01801753 C18.81785384 -0.02608746 23.46188383 -0.0278771 28.10593545 -0.028615 C33.11290646 -0.03046556 38.11986945 -0.03801291 43.12683582 -0.04475021 C54.07727408 -0.05833395 65.02770867 -0.0643583 75.97815394 -0.06876087 C82.81516869 -0.07152319 89.65218203 -0.07576052 96.48919582 -0.08026505 C115.41752725 -0.0924577 134.34585754 -0.10275706 153.27419281 -0.10614014 C154.4857222 -0.1063597 155.69725159 -0.10657927 156.94549398 -0.10680549 C158.15992757 -0.10702377 159.37436115 -0.10724204 160.62559575 -0.10746694 C163.08651427 -0.1079104 165.5474328 -0.10835697 168.00835133 -0.10880661 C169.22905277 -0.10902804 170.44975422 -0.10924947 171.70744661 -0.10947761 C191.48796106 -0.11342577 211.26843867 -0.13088038 231.04893889 -0.15416613 C251.35546978 -0.17787825 271.66198218 -0.19034192 291.96852714 -0.19150805 C303.3706283 -0.19242489 314.77268146 -0.19817927 326.1747694 -0.21632767 C335.8837768 -0.23172674 345.59272136 -0.23685023 355.30173864 -0.22858956 C360.25483634 -0.22468242 365.20780749 -0.22561591 370.16088963 -0.23964691 C374.69790757 -0.2523817 379.23470384 -0.25119197 383.77172146 -0.2390562 C385.41036839 -0.23709848 387.04903099 -0.2401811 388.68765589 -0.24890056 C401.81419349 -0.31431017 413.06197664 0.91163415 423.14238453 10.06892776 C431.7099595 18.92103474 433.61365522 28.62928764 433.5175066 40.65547562 C433.52062658 41.26270187 433.52062658 41.26270187 433.53641558 44.33563471 C433.54952838 47.67613509 433.54492095 51.01572467 433.5324707 54.35616803 C433.52337062 57.97042796 433.53741435 61.58461184 433.54839039 65.19885635 C433.56612763 72.26706448 433.56235712 79.3351022 433.55073982 86.40331686 C433.54168682 92.15049531 433.54048956 97.89762618 433.54483509 103.64480972 C433.54544802 104.46442567 433.54606095 105.28404162 433.54669246 106.12849441 C433.54797143 107.79380351 433.54926828 109.45911259 433.55058283 111.12442166 C433.56197458 126.72067203 433.54889702 142.31682819 433.52738136 157.91306311 C433.50951165 171.28000656 433.51261615 184.64681104 433.5310564 198.01375198 C433.55248799 213.55620468 433.56087607 229.09857491 433.54860735 244.64104033 C433.54733322 246.30004214 433.54607574 247.95904397 433.54483509 249.61804581 C433.54452654 250.02611983 433.54452654 250.02611983 433.54296508 252.09122172 C433.53951904 257.82797668 433.5453244 263.56467911 433.5547533 269.30142593 C433.56600014 276.29767915 433.56287707 283.29375297 433.54163033 290.28998578 C433.53115581 293.85599453 433.52693599 297.42170476 433.54022694 300.98771095 C433.55444464 304.86110082 433.53740832 308.73400747 433.5175066 312.60737991 C433.52196804 313.16541345 433.52196804 313.16541345 433.54454565 315.98940134 C433.44192935 326.31583581 430.74644674 335.12219796 424.06425953 343.12361526 C416.70909828 350.31097816 407.89898951 353.37720759 397.71337223 353.38869667 C397.00960418 353.39220275 396.30583612 353.39570882 395.58074176 353.39932114 C393.2286714 353.40860566 390.87685024 353.40371952 388.52476978 353.3988533 C386.81889862 353.40259105 385.11302917 353.40719307 383.40716243 353.41258395 C378.7239434 353.42481396 374.0407958 353.42455347 369.35756445 353.4221952 C364.30493062 353.42178703 359.2523197 353.43282616 354.19969654 353.44231033 C344.30219672 353.45892135 334.40472073 353.46441993 324.50720814 353.46553509 C316.46160339 353.46648552 308.4160065 353.47059557 300.37040424 353.47693634 C277.55774283 353.49454908 254.74510023 353.50377517 231.93243197 353.50227539 C230.70266358 353.50219548 229.47289519 353.50211557 228.20586109 353.50203323 C226.9745905 353.50195147 225.74331991 353.50186971 224.47473809 353.50178547 C204.52041473 353.50097258 184.56616684 353.52011107 164.61186531 353.54830997 C144.12107034 353.57703844 123.63031219 353.59085028 103.13949656 353.58912241 C91.63621791 353.5884585 80.13301839 353.59395154 68.62975788 353.61547852 C58.8355372 353.6336898 49.04143152 353.63803803 39.24720123 353.62445967 C34.25140196 353.61792979 29.25582333 353.61781367 24.26004505 353.63516617 C19.68290103 353.65090086 15.10615253 353.64802913 10.52901813 353.6305979 C8.87695468 353.6275289 7.22486169 353.63115666 5.57283309 353.64231806 C-6.75618052 353.72007011 -17.18426116 352.3689703 -26.98261547 344.18611526 C-35.84130433 335.12060877 -37.29110468 325.19543409 -37.25785351 313.08839798 C-37.26238462 311.87736318 -37.26691573 310.66632838 -37.27158415 309.41859555 C-37.28203384 306.06930894 -37.28355753 302.72023753 -37.2811954 299.37094998 C-37.28078642 295.75390803 -37.29183421 292.13689783 -37.30131054 288.51987076 C-37.31790401 281.43779522 -37.32341934 274.35575297 -37.3245353 267.27365962 C-37.32548659 261.5149532 -37.32960095 255.75625773 -37.33593655 249.99755478 C-37.35354475 233.65938261 -37.36277612 217.32123669 -37.3612756 200.98305497 C-37.36119569 200.10276506 -37.36111577 199.22247515 -37.36103344 198.3155098 C-37.36095168 197.43414113 -37.36086992 196.55277247 -37.36078568 195.64469567 C-37.35997298 181.36473636 -37.37910757 167.08488258 -37.40731017 152.80495378 C-37.43606065 138.13146052 -37.44984926 123.45801868 -37.44812262 108.78449655 C-37.44745945 100.55084923 -37.45291976 92.31731254 -37.47447872 84.08369064 C-37.49271906 77.07271885 -37.49701454 70.06190783 -37.48345987 63.05092254 C-37.47694442 59.4768283 -37.47676094 55.90304222 -37.49416637 52.32897758 C-37.51287786 48.44664102 -37.50030529 44.5647508 -37.48490429 40.68239212 C-37.49519142 39.56359657 -37.50547854 38.44480102 -37.5160774 37.29210258 C-37.41866774 26.14898148 -34.39489787 17.43814481 -26.63105297 9.36580276 C-18.67168808 2.63095555 -10.2463898 0.01031536 0 0 Z " fill="#E2E3E3" transform="translate(57.99042797088623,73.86857223510742)"/>
<path d="M0 0 C0.34750323 -0.00102632 0.34750323 -0.00102632 2.1060802 -0.0062201 C4.44031758 -0.0118849 6.77449586 -0.0104335 9.1087389 -0.00901413 C10.79709609 -0.01159806 12.48545267 -0.0146113 14.1738084 -0.01801753 C18.81785384 -0.02608746 23.46188383 -0.0278771 28.10593545 -0.028615 C33.11290646 -0.03046556 38.11986945 -0.03801291 43.12683582 -0.04475021 C54.07727408 -0.05833395 65.02770867 -0.0643583 75.97815394 -0.06876087 C82.81516869 -0.07152319 89.65218203 -0.07576052 96.48919582 -0.08026505 C115.41752725 -0.0924577 134.34585754 -0.10275706 153.27419281 -0.10614014 C154.4857222 -0.1063597 155.69725159 -0.10657927 156.94549398 -0.10680549 C158.15992757 -0.10702377 159.37436115 -0.10724204 160.62559575 -0.10746694 C163.08651427 -0.1079104 165.5474328 -0.10835697 168.00835133 -0.10880661 C169.22905277 -0.10902804 170.44975422 -0.10924947 171.70744661 -0.10947761 C191.48796106 -0.11342577 211.26843867 -0.13088038 231.04893889 -0.15416613 C251.35546978 -0.17787825 271.66198218 -0.19034192 291.96852714 -0.19150805 C303.3706283 -0.19242489 314.77268146 -0.19817927 326.1747694 -0.21632767 C335.8837768 -0.23172674 345.59272136 -0.23685023 355.30173864 -0.22858956 C360.25483634 -0.22468242 365.20780749 -0.22561591 370.16088963 -0.23964691 C374.69790757 -0.2523817 379.23470384 -0.25119197 383.77172146 -0.2390562 C385.41036839 -0.23709848 387.04903099 -0.2401811 388.68765589 -0.24890056 C401.81419349 -0.31431017 413.06197664 0.91163415 423.14238453 10.06892776 C431.38492961 18.58521051 433.92436619 28.00663707 433.9529314 39.64339066 C433.72843058 43.50179521 433.35028729 45.64169331 431.10722828 48.86580276 C428.75879778 50.80105076 426.37826452 52.45849734 423.77226734 54.02693558 C420.48303539 56.08794463 417.46428733 58.52402169 414.38457203 60.88142776 C413.00186394 61.91456284 411.61772504 62.94578549 410.23222828 63.97517776 C406.0703759 67.07808593 401.94214283 70.22333746 397.82207203 73.38142776 C397.12557545 73.91493851 396.42907887 74.44844925 395.71147633 74.99812698 C394.2499144 76.11768441 392.78840869 77.23731521 391.32695484 78.3570137 C379.3541669 87.52454665 367.35146589 96.64996174 355.27275562 105.67757034 C349.75505574 109.80624114 344.28120781 113.98825463 338.82207203 118.19392776 C333.35888761 122.39831683 327.86406356 126.47862536 322.00957203 130.13142776 C321.82781422 129.65383011 321.82781422 129.65383011 320.90800953 127.23689651 C315.87265758 114.19714722 309.78463171 103.1115799 301.00957203 92.13142776 C300.70213062 91.7401973 300.70213062 91.7401973 299.14629078 89.76033401 C279.79772493 66.51719602 248.09169922 54.3340445 218.60551929 51.31233597 C176.25066466 48.360681 138.45520933 58.63183263 105.84550953 85.94392776 C95.58338345 95.40366539 87.6279175 108.48574737 82.00957203 121.13142776 C81.52617359 122.18072464 81.04277515 123.23002151 80.54472828 124.31111526 C79.35054245 126.91119855 78.17255875 129.51728063 77.00957203 132.13142776 C72.6598024 129.90821218 69.00594257 127.39496284 65.25957203 124.25642776 C60.29751546 120.10893588 55.17153844 116.25445482 49.94707203 112.44392776 C42.72129682 107.16671638 35.61609752 101.76112351 28.57207203 96.24422073 C23.73787221 92.46273154 18.86578149 88.73976937 13.94707203 85.06892776 C7.84684458 80.51631719 1.78404865 75.91815236 -4.25727367 71.28767776 C-8.35197867 68.1493558 -12.451216 65.01718518 -16.55683422 61.89314651 C-17.5008308 61.17481644 -18.44482738 60.45648636 -19.41742992 59.7163887 C-21.26066631 58.31423465 -23.1042386 56.91252203 -24.94819164 55.51131058 C-26.59968324 54.25468263 -28.24578403 52.99092341 -29.88520336 51.71858597 C-31.99042797 50.13142776 -31.99042797 50.13142776 -35.06464672 48.20174026 C-38.01948215 45.02514233 -37.69561065 41.67751157 -37.55292797 37.56892776 C-37.534156 36.76261917 -37.51538403 35.95631058 -37.49604321 35.12556839 C-37.06378801 24.53053697 -34.04702611 17.07645033 -26.63105297 9.36580276 C-18.67168808 2.63095555 -10.2463898 0.01031536 0 0 Z " fill="#EEEFEF" transform="translate(57.99042797088623,73.86857223510742)"/>
<path d="M0 0 C1.05445313 0.52335938 2.10890625 1.04671875 3.1953125 1.5859375 C10.52951657 5.34663146 16.7951859 9.59421602 23 15 C23.88300781 15.72703125 24.76601563 16.4540625 25.67578125 17.203125 C46.24870311 34.77886023 58.85637751 61.27215478 61.1824646 88.10482788 C61.46838629 93.02780093 61.48072688 97.94539809 61.4375 102.875 C61.43597931 103.2455098 61.43597931 103.2455098 61.42828369 105.12051392 C61.35936209 116.5000831 60.63168883 127.14990799 57 138 C56.78037598 138.66467285 56.56075195 139.3293457 56.33447266 140.01416016 C53.45011412 148.52842729 49.65199611 155.98078237 44 163 C43.22398437 163.98742187 42.44796875 164.97484375 41.6484375 165.9921875 C33.24465626 175.97651816 20.4628376 181.83770343 7.64404297 183.26171875 C-5.00583857 184.17708706 -18.1758207 183.18140891 -28.28125 174.703125 C-32.95585264 170.07101874 -36.65869861 165.82602785 -37 159 C-38.32 159 -39.64 159 -41 159 C-41.09410156 159.72316406 -41.18820312 160.44632813 -41.28515625 161.19140625 C-43.06178552 168.17171468 -48.98607524 173.71785953 -54.9375 177.4375 C-56.60642017 178.32742269 -58.29350832 179.18443694 -60 180 C-60.67289063 180.33902344 -61.34578125 180.67804688 -62.0390625 181.02734375 C-72.40851989 185.37130563 -85.73994345 183.92113563 -96.0625 180.26953125 C-110.61708684 173.97931752 -120.28755376 163.60188489 -126.875 149.3125 C-135.18513151 127.40135741 -134.14286745 102.20045811 -124.90039062 80.88330078 C-118.89272668 68.31737895 -108.7046753 60.12951265 -96 55 C-84.04628348 51.17180821 -70.3347407 51.46123866 -59 57 C-52.98856231 60.54154308 -46.9596824 65.68869873 -44.0234375 72.1484375 C-43 74 -43 74 -40 75 C-40 68.73 -40 62.46 -40 56 C-29.44 56 -18.88 56 -8 56 C-7.99270874 57.32970825 -7.99270874 57.32970825 -7.95581055 64.05883789 C-7.90542226 72.855939 -7.83881957 81.6528639 -7.76428509 90.44979191 C-7.71960109 95.78218633 -7.68034048 101.11450469 -7.65356445 106.44702148 C-7.62751203 111.59539276 -7.58709555 116.74347104 -7.53681374 121.89166069 C-7.5201582 123.85355415 -7.50863576 125.81549827 -7.50238609 127.77745247 C-7.49273081 130.53041253 -7.46465431 133.28262526 -7.43237305 136.03540039 C-7.43380814 136.84244919 -7.43524323 137.64949799 -7.4367218 138.48100281 C-7.35049828 143.69700669 -6.4494762 147.36814934 -4 152 C0.44141713 155.66248394 4.58466189 155.50949627 10.12890625 155.33984375 C15.78202406 154.67069919 18.65181434 151.62423617 22.125 147.4375 C34.16691276 130.20781804 33.82040651 103.86598854 30.40234375 84.02490234 C27.40048339 68.91723862 21.06365193 54.70398286 11 43 C10.61392578 42.51466797 10.61392578 42.51466797 8.66015625 40.05859375 C-5.505493 23.09709267 -29.78516328 14.6343003 -51 12 C-55.75387034 11.71191742 -60.4882714 11.66579429 -65.25 11.6875 C-65.88844849 11.68995728 -65.88844849 11.68995728 -69.11938477 11.70239258 C-96.45287162 12.04147458 -120.2642278 22.06693149 -140.1875 40.75 C-151.60633108 52.7710901 -159.04603985 66.8576427 -163.8125 82.625 C-164.00755127 83.26864502 -164.20260254 83.91229004 -164.40356445 84.57543945 C-172.66216481 113.87580234 -168.96233064 145.07612652 -155.0625 171.875 C-152.16239249 176.97858345 -148.74185483 181.49080627 -145 186 C-144.78214844 186.29068359 -144.78214844 186.29068359 -143.6796875 187.76171875 C-128.73329214 206.95933434 -101.7063901 216.27986658 -78.46337891 219.22851562 C-59.30327265 221.32149644 -39.75923522 220.52809126 -21 216 C-19.68 216 -18.36 216 -17 216 C-17 224.25 -17 232.5 -17 241 C-22.62506701 243.2500268 -22.62506701 243.2500268 -25.99609375 243.81640625 C-26.71990234 243.94080078 -27.44371094 244.06519531 -28.18945312 244.19335938 C-28.56038086 244.25426758 -28.56038086 244.25426758 -30.4375 244.5625 C-30.80649414 244.6253418 -30.80649414 244.6253418 -32.67382812 244.94335938 C-34.78166159 245.30122266 -36.89058905 245.65156732 -39 246 C-39.92345215 246.17490967 -40.8469043 246.34981934 -41.79833984 246.5300293 C-48.20210401 247.47003586 -54.72445231 247.24491675 -61.1875 247.25 C-61.95254852 247.25067474 -62.71759705 247.25134949 -63.50582886 247.25204468 C-75.23125347 247.23559733 -86.55866667 246.79689164 -98 244 C-98.70785645 243.82839355 -99.41571289 243.65678711 -100.14501953 243.47998047 C-122.91345029 237.75075312 -142.65438246 227.82906081 -160 212 C-160.73734375 211.34515625 -161.4746875 210.6903125 -162.234375 210.015625 C-182.66379811 190.89368497 -195.92049304 159.10735318 -197.16113281 131.40161133 C-197.20726969 127.20503289 -197.2461631 123.00933443 -197.25 118.8125 C-197.25100708 118.05288971 -197.25201416 117.29327942 -197.25305176 116.51065063 C-197.23411331 95.39177541 -194.52600688 76.12863043 -185 57 C-184.44699219 55.85917969 -183.89398438 54.71835938 -183.32421875 53.54296875 C-168.50365461 23.83094753 -143.81594314 3.67863739 -112.47338867 -6.84863281 C-76.05723107 -18.19710455 -34.46080233 -17.91123769 0 0 Z " fill="#339AD6" transform="translate(324,138)"/>
<path d="M0 0 C0.33 0 0.66 0 1 0 C1 85.8 1 171.6 1 260 C-3.01752332 257.99123834 -6.3858644 255.57932691 -9.9375 252.875 C-10.28296875 252.61396484 -10.28296875 252.61396484 -12.03125 251.29296875 C-14.35745289 249.53293164 -16.67926808 247.76724412 -19 246 C-19.83934082 245.36094727 -20.67868164 244.72189453 -21.54345703 244.06347656 C-25.1029172 241.35220274 -28.66156735 238.63987433 -32.21850586 235.92529297 C-37.46119262 231.92601207 -42.71836079 227.94767284 -48 224 C-55.10924526 218.6863136 -62.16739477 213.30695263 -69.22265625 207.921875 C-75.08415793 203.45109351 -80.96807572 199.01225457 -86.8737793 194.60009766 C-93.64668466 189.5322654 -100.36655051 184.39494443 -107.08398438 179.25390625 C-107.93927734 178.60035156 -108.79457031 177.94679688 -109.67578125 177.2734375 C-110.43802002 176.68997559 -111.20025879 176.10651367 -111.9855957 175.50537109 C-113.61921704 174.28456039 -115.30312783 173.13124811 -117 172 C-116.68546875 171.42894531 -116.3709375 170.85789062 -116.046875 170.26953125 C-108.20584147 155.41407917 -105.63467937 140.13599539 -105.68432617 123.52270508 C-105.68747059 121.33298127 -105.66399746 119.14463461 -105.63867188 116.95507812 C-105.60120779 108.14557897 -106.48667574 99.99259386 -108.35473633 91.37963867 C-109.39122492 85.95091692 -109.39122492 85.95091692 -109 83 C-107.64916992 81.36938477 -107.64916992 81.36938477 -105.73046875 79.94140625 C-105.01632812 79.39806641 -104.3021875 78.85472656 -103.56640625 78.29492188 C-103.17388672 78.00907227 -103.17388672 78.00907227 -101.1875 76.5625 C-100.78273438 76.25795898 -100.78273438 76.25795898 -98.734375 74.71679688 C-96.1688004 72.7936042 -93.5867729 70.89455853 -91 69 C-89.40211852 67.82192001 -87.80445642 66.6435424 -86.20703125 65.46484375 C-83.84901929 63.72748986 -81.48952233 61.9923362 -79.12548828 60.26318359 C-72.74776989 55.5895057 -66.49719336 50.76667944 -60.27075195 45.89404297 C-55.34366888 42.03900892 -50.37286235 38.25271817 -45.35546875 34.515625 C-40.87707398 31.17048684 -36.44260719 27.76741203 -32 24.375 C-23.74542431 18.07315181 -15.45507121 11.8210802 -7.1328125 5.60888672 C-6.34132813 5.01736816 -5.54984375 4.42584961 -4.734375 3.81640625 C-4.03538086 3.29506104 -3.33638672 2.77371582 -2.61621094 2.23657227 C-1 1 -1 1 0 0 Z " fill="#C0C0C0" transform="translate(490,120)"/>
<path d="M0 0 C3.59618158 2.39745439 7.03196566 4.71618066 10.44140625 7.328125 C11.26133057 7.95468994 12.08125488 8.58125488 12.92602539 9.22680664 C13.3610437 9.56063354 13.3610437 9.56063354 15.5625 11.25 C17.44790065 12.6914272 19.33331778 14.13283285 21.21875 15.57421875 C22.17910156 16.30946777 23.13945313 17.0447168 24.12890625 17.80224609 C28.6031056 21.22713917 33.08191848 24.64596204 37.5625 28.0625 C38.42794434 28.72266113 39.29338867 29.38282227 40.18505859 30.06298828 C46.99002207 35.24693716 53.83622208 40.37427949 60.68945312 45.49414062 C66.19809081 49.62018416 71.64482402 53.81793114 77.0625 58.0625 C85.52838942 64.69337661 94.16815721 71.07197026 102.84863281 77.41796875 C106.25130495 79.9201607 109.62731119 82.45759961 113 85 C112.215896 91.1584835 110.88997634 97.1151724 109.4609375 103.15234375 C107.1522388 113.19690601 106.78675268 123.05221984 106.75976562 133.32641602 C106.75012552 135.53375917 106.71904794 137.74014233 106.6875 139.94726562 C106.61391368 149.98343141 107.81455137 159.19797986 110 169 C110.21132568 169.98492432 110.42265137 170.96984863 110.64038086 171.98461914 C111.07730054 173.99335788 111.53514364 175.99754184 112 178 C111.31164062 178.22171875 110.62328125 178.4434375 109.9140625 178.671875 C106.26211232 180.3363027 103.42864229 182.69832631 100.375 185.25 C94.50096326 190.05736942 88.50460265 194.64831016 82.375 199.125 C76.04496651 203.75425937 69.77403108 208.43560973 63.57421875 213.23828125 C52.56606224 221.76354078 41.466633 230.17463756 30.3125 238.5078125 C24.58356062 242.80451703 18.9003766 247.16219519 13.20703125 251.50585938 C12.77068359 251.83875977 12.77068359 251.83875977 10.5625 253.5234375 C10.17126953 253.82209717 10.17126953 253.82209717 8.19140625 255.33349609 C7.82982422 255.60846924 7.82982422 255.60846924 6 257 C5.64357422 257.28335205 5.64357422 257.28335205 3.83984375 258.71728516 C2 260 2 260 0 260 C0 174.2 0 88.4 0 0 Z " fill="#C0C0C0" transform="translate(21,120)"/>
<path d="M0 0 C7.7756257 4.46846023 12.41604901 11.26352567 14.75 19.875 C17.2179852 32.31950166 16.63728019 46.98292837 9.75 57.9375 C5.5555053 63.58194349 1.45596363 67.01705819 -5.4375 68.9375 C-13.06351768 69.75119419 -20.18984139 69.78408185 -26.4375 64.9375 C-32.95331111 58.9380935 -37.03141775 51.28899562 -37.59863281 42.41723633 C-37.644455 39.52804104 -37.6727481 36.63952773 -37.6875 33.75 C-37.708125 32.75935547 -37.72875 31.76871094 -37.75 30.74804688 C-37.80448823 20.36122738 -35.76938848 11.59260399 -28.4375 3.9375 C-20.2646118 -3.0380861 -9.91105117 -4.59402828 0 0 Z " fill="#ECEDED" transform="translate(265.4375,222.0625)"/>
<path d="M0 0 C5.4009309 3.47767258 10.468259 7.34075144 15.5625 11.25 C17.44790065 12.6914272 19.33331778 14.13283285 21.21875 15.57421875 C22.17910156 16.30946777 23.13945313 17.0447168 24.12890625 17.80224609 C28.6031056 21.22713917 33.08191848 24.64596204 37.5625 28.0625 C38.42794434 28.72266113 39.29338867 29.38282227 40.18505859 30.06298828 C46.99002207 35.24693716 53.83622208 40.37427949 60.68945312 45.49414062 C66.19809081 49.62018416 71.64482402 53.81793114 77.0625 58.0625 C85.52838942 64.69337661 94.16815721 71.07197026 102.84863281 77.41796875 C106.25130495 79.9201607 109.62731119 82.45759961 113 85 C112.35729017 90.9129304 110.80996216 96.34244531 109 102 C104.66808818 100.53479453 101.57676652 98.32564555 98 95.5 C96.8399337 94.59103102 95.67977494 93.68218004 94.51953125 92.7734375 C93.93252441 92.3103418 93.34551758 91.84724609 92.74072266 91.37011719 C90.07114571 89.26890179 87.3798083 87.19703802 84.6875 85.125 C84.15600342 84.71540039 83.62450684 84.30580078 83.0769043 83.88378906 C78.85058053 80.63402358 74.58494753 77.43876093 70.3125 74.25 C63.61888147 69.25234749 57.01675017 64.14452165 50.43310547 59.00317383 C45.36816134 55.05190387 40.2621888 51.16817302 35.109375 47.33203125 C32.73405398 45.55054048 30.37093885 43.75684985 28.015625 41.94921875 C27.30857422 41.40789307 26.60152344 40.86656738 25.87304688 40.30883789 C24.41743228 39.18737075 22.96815435 38.05762993 21.52539062 36.91967773 C17.98844392 34.15494313 14.50524224 31.64441468 10.578125 29.4609375 C2.38735154 24.71527935 2.38735154 24.71527935 0 21 C-1.7292719 14.13205454 -0.94289432 6.94453752 0 0 Z " fill="#ACACAC" transform="translate(21,120)"/>
<path d="M0 0 C0.33 0 0.66 0 1 0 C1 5.61 1 11.22 1 17 C0.835 16.67 0.835 16.67 0 15 C-9.26698319 21.89342347 -18.45257315 28.87829276 -27.55493164 35.98779297 C-32.71741131 40.01554496 -37.9245734 43.97127159 -43.17578125 47.8828125 C-46.13835248 50.10371652 -49.07077092 52.36032352 -52 54.625 C-57.51931069 58.89168918 -63.09842041 63.07526272 -68.6875 67.25 C-76.1620133 72.83599839 -83.56722472 78.5023961 -90.9128418 84.25683594 C-91.59644775 84.79211914 -92.28005371 85.32740234 -92.984375 85.87890625 C-93.64373047 86.39598145 -94.30308594 86.91305664 -94.98242188 87.44580078 C-97.72836927 89.56108407 -100.53122215 91.5964903 -103.34472656 93.62084961 C-105 95 -105 95 -107 98 C-107.33951619 96.43883181 -107.67132544 94.87598662 -108 93.3125 C-108.0928125 92.87744141 -108.0928125 92.87744141 -108.5625 90.67578125 C-109.00369998 87.97737067 -109.25015167 85.72504527 -109 83 C-107.64916992 81.36938477 -107.64916992 81.36938477 -105.73046875 79.94140625 C-105.01632812 79.39806641 -104.3021875 78.85472656 -103.56640625 78.29492188 C-103.17388672 78.00907227 -103.17388672 78.00907227 -101.1875 76.5625 C-100.78273438 76.25795898 -100.78273438 76.25795898 -98.734375 74.71679688 C-96.1688004 72.7936042 -93.5867729 70.89455853 -91 69 C-89.40211852 67.82192001 -87.80445642 66.6435424 -86.20703125 65.46484375 C-83.84901929 63.72748986 -81.48952233 61.9923362 -79.12548828 60.26318359 C-72.74776989 55.5895057 -66.49719336 50.76667944 -60.27075195 45.89404297 C-55.34366888 42.03900892 -50.37286235 38.25271817 -45.35546875 34.515625 C-40.87707398 31.17048684 -36.44260719 27.76741203 -32 24.375 C-23.74542431 18.07315181 -15.45507121 11.8210802 -7.1328125 5.60888672 C-6.34132813 5.01736816 -5.54984375 4.42584961 -4.734375 3.81640625 C-4.03538086 3.29506104 -3.33638672 2.77371582 -2.61621094 2.23657227 C-1 1 -1 1 0 0 Z " fill="#A9AAAA" transform="translate(490,120)"/>
<path d="M0 0 C2.20823947 4.41647894 2.53593414 8.29177112 1 13 C-2.69098148 17.27553265 -7.84699182 20.19916483 -12.50976562 23.29882812 C-16.9523719 26.33373798 -21.17856319 29.65241378 -25.4375 32.9375 C-27.22720681 34.30424717 -29.01756809 35.67013779 -30.80859375 37.03515625 C-32.53913963 38.35666983 -34.26961107 39.67828091 -36 41 C-36.78648926 41.60054199 -37.57297852 42.20108398 -38.38330078 42.81982422 C-45.34815848 48.13868724 -52.30811216 53.46368642 -59.25 58.8125 C-67.60945831 65.24687655 -75.99904179 71.64161551 -84.39941406 78.02246094 C-86.88116267 79.90963365 -89.35867301 81.80226015 -91.8359375 83.6953125 C-93.28620031 84.79721468 -94.73670617 85.89879707 -96.1875 87 C-96.85241455 87.51030762 -97.5173291 88.02061523 -98.20239258 88.54638672 C-102.77185389 92 -102.77185389 92 -105 92 C-106.41464016 87.75607953 -107.26140301 84.39388714 -106 80 C-103.29669675 76.9001378 -100.11750929 74.6103428 -96.76269531 72.24951172 C-94.25589998 70.47253409 -91.81640955 68.61025218 -89.3671875 66.75512695 C-87.33246926 65.2178674 -85.28837702 63.69382425 -83.2421875 62.171875 C-78.9665727 58.98441898 -74.73054473 55.74692249 -70.5 52.5 C-65.04774125 48.31726685 -59.57044448 44.17159059 -54.0625 40.0625 C-47.45387959 35.12903834 -40.9374449 30.08389986 -34.4387207 25.00683594 C-29.32700045 21.01768737 -24.16745022 17.10696585 -18.9609375 13.2421875 C-16.69108652 11.52332937 -14.45274714 9.78182087 -12.2265625 8.0078125 C-11.5862207 7.49822998 -10.94587891 6.98864746 -10.28613281 6.46362305 C-9.03460488 5.46422331 -7.78641433 4.46062645 -6.54199219 3.45239258 C-2.21923294 0 -2.21923294 0 0 0 Z " fill="#B8B8B8" transform="translate(490,135)"/>
<path d="M0 0 C3.40835729 1.54925331 6.21074501 3.54949444 9.1875 5.8125 C9.44599731 6.00839722 9.44599731 6.00839722 10.75415039 6.99975586 C12.50575491 8.32929318 14.25317385 9.66419176 16 11 C16.62068359 11.47373047 17.24136719 11.94746094 17.88085938 12.43554688 C21.3592266 15.09054934 24.83470508 17.74929723 28.30859375 20.41015625 C34.2604654 24.96739414 40.22574245 29.50701157 46.18994141 34.0480957 C51.03457394 37.73770181 55.87437283 41.43345135 60.70800781 45.13745117 C67.52371503 50.35992753 74.3676562 55.54155517 81.24755859 60.67919922 C85.51190172 63.86815853 89.73306301 67.10764048 93.9375 70.375 C98.81967557 74.14925044 103.79245329 77.68977651 109 81 C108.67 83.64 108.34 86.28 108 89 C107.67 88.34 107.34 87.68 107 87 C105.68029002 86.3067556 104.34481455 85.64319208 103 85 C101.835156 84.20609693 100.69065339 83.38166871 99.56640625 82.53125 C98.92453369 82.04793213 98.28266113 81.56461426 97.62133789 81.06665039 C96.94192139 80.54965576 96.26250488 80.03266113 95.5625 79.5 C94.8502124 78.96173584 94.1379248 78.42347168 93.40405273 77.86889648 C87.50060834 73.40058727 81.63153651 68.8880108 75.77050781 64.36425781 C48.95164327 43.69908751 48.95164327 43.69908751 40.75 38.0625 C39.8425 37.381875 38.935 36.70125 38 36 C38 35.34 38 34.68 38 34 C37.30132812 33.76796875 36.60265625 33.5359375 35.8828125 33.296875 C32.44572935 31.75065331 29.76105072 29.62396865 26.875 27.25 C22.63824294 23.80421298 18.35409097 20.51156897 13.859375 17.40625 C12.99199707 16.7987793 12.12461914 16.19130859 11.23095703 15.56542969 C9.51556721 14.37041013 7.78749756 13.19335665 6.04638672 12.03613281 C3.81227118 10.46368912 1.83724568 9.02293089 0 7 C-0.5390625 3.078125 -0.5390625 3.078125 0 0 Z " fill="#B8B9B9" transform="translate(21,141)"/>
<path d="M0 0 C0.165 0.99 0.165 0.99 1 6 C0.04222656 6.71542969 -0.91554688 7.43085938 -1.90234375 8.16796875 C-11.20825891 15.12818291 -20.45801346 22.15812031 -29.68261719 29.22558594 C-40.81053273 37.74620226 -51.95967149 46.23637993 -63.1875 54.625 C-71.14694413 60.57466496 -79.01479358 66.63275074 -86.83984375 72.7578125 C-89.5245322 74.85757578 -92.22294213 76.93634472 -94.94140625 78.9921875 C-95.54605713 79.45069092 -96.15070801 79.90919434 -96.77368164 80.3815918 C-98.37779092 81.59505248 -99.98562037 82.80359106 -101.59375 84.01171875 C-104 86 -104 86 -106 89 C-106.6268621 85.40978976 -106.90313477 83.45409438 -106 80 C-103.3076786 76.88961627 -100.1178578 74.61058805 -96.76269531 72.24951172 C-94.25589998 70.47253409 -91.81640955 68.61025218 -89.3671875 66.75512695 C-87.33246926 65.2178674 -85.28837702 63.69382425 -83.2421875 62.171875 C-78.9665727 58.98441898 -74.73054473 55.74692249 -70.5 52.5 C-65.04774125 48.31726685 -59.57044448 44.17159059 -54.0625 40.0625 C-47.45387959 35.12903834 -40.9374449 30.08389986 -34.4387207 25.00683594 C-29.32700045 21.01768737 -24.16745022 17.10696585 -18.9609375 13.2421875 C-16.69108652 11.52332937 -14.45274714 9.78182087 -12.2265625 8.0078125 C-11.5862207 7.49822998 -10.94587891 6.98864746 -10.28613281 6.46362305 C-9.03460488 5.46422331 -7.78641433 4.46062645 -6.54199219 3.45239258 C-2.21923294 0 -2.21923294 0 0 0 Z " fill="#B2B2B2" transform="translate(490,135)"/>
</svg>
