<?xml version="1.0" encoding="UTF-8"?>
<!-- Generator: visioncortex VTracer 0.6.12 -->
<svg version="1.1" xmlns="http://www.w3.org/2000/svg" width="512" height="512">
<path d="M0 0 C3.56943833 2.58214687 4.7688666 4.20547895 6 8.4375 C6 14.42588262 3.18980672 18.14512899 -0.93165657 22.324682 C-1.19163087 22.58071578 -1.19163087 22.58071578 -2.50725842 23.8764019 C-3.06619489 24.43879991 -3.62513137 25.00119792 -4.20100531 25.58063829 C-6.07724515 27.46482383 -7.96399958 29.33811004 -9.85087585 31.2116394 C-11.21116529 32.57323703 -12.5707953 33.9354937 -13.92982131 35.29835236 C-17.66743906 39.04268434 -21.41435714 42.77758737 -25.16284049 46.51103735 C-29.20301263 50.53826703 -33.2345247 54.5741494 -37.26708984 58.60899353 C-44.25537906 65.59885661 -51.24914477 72.58320123 -58.24664879 79.56383896 C-68.36388359 89.65670372 -78.4728348 99.75783174 -88.5797765 109.8610027 C-104.97741727 126.25207586 -121.38173422 142.63644897 -137.7902832 159.01660156 C-153.73065484 174.92941884 -169.66787147 190.84538515 -185.60083008 206.765625 C-186.09197989 207.25638024 -186.58312971 207.74713548 -187.08916286 208.25276208 C-192.0215009 213.18114456 -196.95377491 218.10959113 -201.886002 223.03808465 C-243.24765584 264.3684168 -284.62010627 305.6879298 -326 347 C-324.49667312 350.14940547 -322.95358047 352.29085016 -320.46826172 354.75878906 C-319.74766571 355.47923401 -319.0270697 356.19967896 -318.28463745 356.94195557 C-317.50750397 357.70876648 -316.73037048 358.47557739 -315.9296875 359.265625 C-315.13345978 360.05902283 -314.33723206 360.85242065 -313.51687622 361.66986084 C-310.97424052 364.20130703 -308.42473652 366.72570803 -305.875 369.25 C-304.14928247 370.96568617 -302.42401645 372.68182662 -300.69921875 374.3984375 C-296.47136968 378.60424248 -292.23786131 382.80428507 -288 387 C-284.023376 385.39762119 -281.3520459 382.62719243 -278.39089775 379.6342001 C-278.11199637 379.35630277 -278.11199637 379.35630277 -276.70058638 377.94997385 C-274.82236753 376.07606505 -272.95140488 374.19507369 -271.08029175 372.31407166 C-269.72575902 370.95969491 -268.37078537 369.60575901 -267.01540768 368.25222784 C-263.28408438 364.52344294 -259.55904082 360.78843852 -255.83495498 357.05242717 C-251.82084961 353.02765251 -247.80097515 349.00864748 -243.7817688 344.9889679 C-236.81595553 338.02078984 -229.85376415 331.04900982 -222.8939476 324.07484245 C-212.82947423 313.98971443 -202.759029 303.91056684 -192.68700589 293.83297939 C-176.34475598 277.48146831 -160.00660266 261.12587171 -143.67138672 244.76733398 C-142.68337164 243.77791133 -141.69535647 242.78848878 -140.70734121 241.79906631 C-140.21780241 241.30882991 -139.7282636 240.8185935 -139.22389029 240.31350145 C-136.74712257 237.83320483 -134.27035253 235.35291054 -131.7935791 232.87261963 C-131.30243254 232.38077461 -130.81128598 231.88892959 -130.30525619 231.38218017 C-118.89380408 219.95454332 -107.48106635 208.5281908 -96.06787109 197.10229492 C-95.57891299 196.6127907 -95.08995488 196.12328647 -94.58617986 195.61894879 C-83.42814413 184.44847296 -72.2695147 173.27859066 -61.1097126 162.10987949 C-60.87536382 161.87534302 -60.87536382 161.87534302 -59.68941698 160.68844632 C-54.54913565 155.54406063 -49.40876052 150.3997687 -44.26830494 145.25555712 C-34.21763147 135.19727775 -24.16904448 125.13692182 -14.12311436 115.07390488 C-7.24538699 108.18464078 -0.36599031 101.29704679 6.51474155 94.41078346 C10.48988977 90.43229188 14.46417286 86.45294516 18.43628693 82.4714241 C22.0671109 78.83201645 25.70018472 75.19487111 29.33511291 71.55956275 C30.65487898 70.23882497 31.97378154 68.91722369 33.29176618 67.5947082 C35.07308884 65.80749347 36.85741758 64.02333684 38.64258003 62.23995876 C39.16240792 61.71693217 39.68223581 61.19390557 40.21781605 60.65502968 C43.83889864 57.04721062 45.71760576 55.82360157 50.8125 55.625 C54.63964815 55.67477505 55.7793885 55.85142491 59.0625 58.0625 C61.39595144 61.60031348 62 63.7637346 62 68 C60.02784624 72.87414597 57.14440335 76.28881617 53.45934772 79.94052219 C52.89676293 80.50986409 52.33417813 81.07920598 51.7545453 81.66580066 C49.86572677 83.57360225 47.96642285 85.47060256 46.06697083 87.36781311 C44.69747732 88.74649164 43.32862593 90.12580825 41.96036261 91.50570768 C38.19671177 95.29744128 34.42368084 99.07971863 30.64898932 102.86045706 C26.58002785 106.93908278 22.51961241 111.02620213 18.45793152 115.11207581 C8.64636843 124.97814598 -1.17961716 134.82979237 -11.00712129 144.67997971 C-15.63589375 149.3200989 -20.26307553 153.96180368 -24.89040565 158.60336113 C-40.27504646 174.03421674 -55.66310583 189.46164813 -71.06197643 204.87830448 C-72.05748451 205.8749837 -73.05299138 206.87166413 -74.04849704 207.86834576 C-74.54216647 208.3625971 -75.03583591 208.85684844 -75.54446502 209.36607709 C-78.04552761 211.87009424 -80.54657405 214.3741275 -83.04760742 216.87817383 C-83.29577575 217.126637 -83.29577575 217.126637 -84.55165789 218.38401124 C-100.6381588 234.48992146 -116.70283788 250.61736813 -132.75481407 266.75768272 C-149.73545868 283.83160487 -166.73613126 300.88533216 -183.75958806 317.91657251 C-193.0350064 327.19723552 -202.30123889 336.48667805 -211.54457664 345.79930305 C-219.41682408 353.73040487 -227.30766189 361.64240412 -235.22322782 369.53028256 C-239.25950541 373.55357615 -243.28644521 377.58515807 -247.28969955 381.64133453 C-250.95977037 385.35949331 -254.65464853 389.05102602 -258.3703343 392.72358399 C-259.70516287 394.05171663 -261.03088355 395.38908491 -262.3459939 396.73674525 C-271.27282978 405.87047807 -278.45763714 410.18677727 -291 413 C-293.5348092 413.68292154 -296.05592918 414.4071142 -298.58032227 415.12817383 C-301.15805125 415.82506907 -303.73645401 416.51850866 -306.31640625 417.20703125 C-307.71167608 417.58098732 -309.10693441 417.95498629 -310.50218201 418.32902527 C-313.38953775 419.10201199 -316.2776588 419.8720615 -319.16625977 420.64038086 C-322.85325587 421.62169111 -326.53711151 422.61430415 -330.22038364 423.60948658 C-333.08508908 424.38147574 -335.95184798 425.14560707 -338.81922722 425.9075985 C-340.17905699 426.27034192 -341.53813442 426.63591898 -342.89639473 427.00449562 C-344.79011872 427.51753149 -346.68712602 428.01840048 -348.58422852 428.51879883 C-349.65737808 428.80572098 -350.73052765 429.09264313 -351.8361969 429.38825989 C-355.90306472 430.17461293 -360.18061315 430.94956046 -363.9609375 428.9765625 C-368.93225062 424.22497593 -368.93225062 424.22497593 -369.17427063 419.84901428 C-368.99309414 415.84747427 -368.26142785 412.2549384 -367.21166992 408.41577148 C-367.02141739 407.69286926 -366.83116486 406.96996704 -366.63514709 406.22515869 C-366.00884037 403.85476063 -365.37003938 401.48794436 -364.73046875 399.12109375 C-364.28867782 397.46410629 -363.84746896 395.80696354 -363.40681458 394.14967346 C-362.4833582 390.68429473 -361.5538698 387.22060896 -360.61987305 383.75805664 C-359.4258859 379.33028224 -358.24549738 374.89902167 -357.06942272 370.46646023 C-356.16066504 367.04642038 -355.24547194 363.62812876 -354.32827187 360.21034431 C-353.89072593 358.57742333 -353.45498201 356.94401835 -353.02110863 355.31011772 C-352.41264143 353.02324573 -351.79572 350.73881814 -351.17651367 348.45483398 C-351.00028473 347.78609756 -350.82405579 347.11736115 -350.64248657 346.42835999 C-348.66878139 339.22539386 -345.69917404 334.25128708 -340.4074173 329.03268719 C-339.83924937 328.46045853 -339.27108144 327.88822988 -338.6856963 327.29866096 C-336.77802383 325.3810345 -334.85983702 323.47428859 -332.94152832 321.56730652 C-331.5586312 320.18166912 -330.17639035 318.79537647 -328.79475069 317.40848523 C-324.99453137 313.59766597 -321.18499534 309.79628063 -317.37387872 305.99636376 C-313.26619079 301.8975075 -309.16714151 297.79002811 -305.06700134 293.68362427 C-297.03348575 285.64061327 -288.99193815 277.60567911 -280.94760406 269.57348993 C-272.05968038 260.69848642 -263.17857746 251.81667372 -254.29812469 242.9341957 C-236.638083 225.27018875 -218.96971058 207.61453631 -201.29730374 189.96290132 C-185.58845399 174.27242868 -169.88590254 158.57568051 -154.18896484 142.87329102 C-153.18072346 141.8647032 -152.1724819 140.85611555 -151.16424018 139.84752806 C-150.66578943 139.34890631 -150.16733867 138.85028456 -149.65378335 138.33655306 C-147.14476619 135.82668239 -144.63573417 133.31682658 -142.1266861 130.80698681 C-141.63171362 130.31185725 -141.13674114 129.8167277 -140.6267695 129.30659421 C-127.51693536 116.19277291 -114.40237444 103.0836806 -101.28629446 89.97610646 C-99.40712511 88.09814445 -97.52795644 86.22018177 -95.64878845 84.3422184 C-95.18645353 83.88018525 -95.18645353 83.88018525 -92.84675863 81.54201749 C-86.31820263 75.01734725 -79.79179293 68.49053479 -73.26612854 61.96297264 C-65.31977027 54.01449668 -57.36977032 46.06968434 -49.41508448 38.12954213 C-45.35354679 34.07526907 -41.29363803 30.01939911 -37.23800468 25.95921898 C-33.5303052 22.2474638 -29.81806835 18.54031231 -26.10204786 14.83688823 C-24.7537797 13.49156472 -23.40721766 12.14452889 -22.06247956 10.79567685 C-20.24372533 8.97186158 -18.41901323 7.1542301 -16.5925827 5.33810711 C-16.06386556 4.80499348 -15.53514842 4.27187986 -14.99040955 3.72261128 C-10.26743617 -0.94923112 -6.4258138 -1.80373721 0 0 Z " fill="#000000" transform="translate(389,62)"/>
<path d="M0 0 C11.55039756 8.87408593 18.67470115 20.51671001 21 35 C22.02102501 49.62814684 18.98265563 63.02727346 9.234375 74.28515625 C5.93191304 77.96516643 2.49619251 81.50380749 -1 85 C-4.17323605 84.65887018 -5.84199531 83.53577293 -8.06929016 81.32511902 C-8.64839645 80.75736252 -9.22750275 80.18960602 -9.82415771 79.60464478 C-10.1356778 79.29165939 -10.1356778 79.29165939 -11.7121582 77.70776367 C-12.3775914 77.05080002 -13.0430246 76.39383636 -13.72862244 75.71696472 C-15.92723642 73.54176283 -18.11445858 71.35551989 -20.30078125 69.16796875 C-21.82174098 67.65410648 -23.3430005 66.14054534 -24.86454773 64.62727356 C-28.05139292 61.45388181 -31.23222704 58.27460315 -34.40942383 55.09155273 C-38.48962236 51.00544839 -42.58779524 46.93791091 -46.69108295 42.87501049 C-49.83686843 39.75501792 -52.97116988 36.62368575 -56.10225487 33.48894691 C-57.60905867 31.9838413 -59.119871 30.48273804 -60.63466835 28.98567772 C-62.74678805 26.89558666 -64.84255196 24.79036247 -66.93481445 22.68041992 C-67.56797577 22.06052185 -68.20113708 21.44062378 -68.85348511 20.80194092 C-70.56562805 19.05583191 -70.56562805 19.05583191 -73 16 C-72.29430394 9.87226226 -66.53116075 5.68867657 -62 2 C-43.35256057 -11.48200489 -19.37304512 -13.56113159 0 0 Z " fill="#000000" transform="translate(471,29)"/>
</svg>
