<?xml version="1.0" encoding="UTF-8"?>
<!-- Generator: visioncortex VTracer 0.6.12 -->
<svg version="1.1" xmlns="http://www.w3.org/2000/svg" width="512" height="512">
<path d="M0 0 C0.42152344 -0.01998047 0.42152344 -0.01998047 2.5546875 -0.12109375 C6.23493454 0.67871678 7.94694449 2.52128652 10.125 5.4375 C12.56829036 9.24953862 14.7858037 13.17654314 17 17.125 C17.65994982 18.28759654 18.32077411 19.44969707 18.98242188 20.61132812 C20.35462386 23.02202347 21.72306082 25.43479692 23.08886719 27.84912109 C26.23249893 33.39876118 29.43170716 38.91634295 32.625 44.4375 C33.8752587 46.60401739 35.12525794 48.77068454 36.375 50.9375 C36.99375 52.01 37.6125 53.0825 38.25 54.1875 C103.875 167.9375 103.875 167.9375 105.75024414 171.18798828 C106.99935518 173.35307071 108.24854129 175.51810982 109.49780273 177.68310547 C112.63702309 183.12365706 115.77490563 188.56497216 118.91015625 194.0078125 C124.93247329 204.45956199 130.97169337 214.90049548 137.0625 225.3125 C142.48421178 234.58249777 147.82704915 243.89581752 153.14422607 253.22595215 C158.34545129 262.3503284 163.60527878 271.43882774 168.90844727 280.50439453 C175.06266742 291.02834625 181.14869996 301.59130137 187.23388672 312.15527344 C190.36180148 317.58409942 193.49358448 323.01069281 196.625 328.4375 C197.87501879 330.60415583 199.12501878 332.7708225 200.375 334.9375 C200.99375 336.01 201.6125 337.0825 202.25 338.1875 C222.875 373.93749999 222.875 373.93749999 224.75195312 377.19091797 C225.9954051 379.34621311 227.23889436 381.50148673 228.48242188 383.65673828 C231.36962875 388.66087674 234.2565043 393.6652052 237.14196777 398.67034912 C238.15119104 400.42091241 239.16053836 402.17140411 240.16992188 403.921875 C241.4266766 406.10142165 242.68320586 408.28109832 243.93945312 410.4609375 C244.51630859 411.46125 245.09316406 412.4615625 245.6875 413.4921875 C246.24791992 414.46824951 246.80833984 415.44431152 247.38574219 416.44995117 C248.59981012 418.53537359 249.83675038 420.60757449 251.09082031 422.66918945 C251.72600586 423.72066162 252.36119141 424.77213379 253.015625 425.85546875 C253.59344727 426.79672607 254.17126953 427.7379834 254.76660156 428.70776367 C256.87330348 432.94123494 257.34027008 436.86137957 256.125 441.4375 C253.59823961 444.78375024 252.08566458 446.11727847 248.125 447.4375 C245.4168921 447.53498609 242.73462145 447.57502337 240.02640057 447.56892776 C239.18730326 447.5709804 238.34820596 447.57303303 237.48368147 447.57514787 C234.64728419 447.58084177 231.8109351 447.57935768 228.97453308 447.57794189 C226.93031852 447.58052416 224.88610446 447.58353693 222.84189111 447.5869453 C217.20506971 447.59503479 211.56826103 447.59680595 205.93143451 447.59754276 C199.85973764 447.59938992 193.78804742 447.60693551 187.71635437 447.61367798 C173.73841137 447.62798467 159.76047147 447.63378948 145.78252299 447.63836992 C138.87746967 447.64070481 131.97241719 447.64430733 125.06736452 447.6480653 C101.43770082 447.66090118 77.80803759 447.67162068 54.17837048 447.6750679 C52.69471346 447.67528954 51.21105644 447.67551132 49.72739943 447.67573325 C48.24012958 447.67595389 46.75285974 447.67617438 45.26558989 447.6763947 C42.28179626 447.67683726 39.29800262 447.67728437 36.31420898 447.67773438 C35.57440022 447.67784377 34.83459146 447.67795316 34.07236425 447.67806586 C10.07744067 447.68169748 -13.91745271 447.6976213 -37.91236471 447.72092474 C-63.27228957 447.7455089 -88.63219716 447.75924007 -113.99213427 447.76043582 C-116.77484843 447.76060728 -119.55756257 447.76082271 -122.34027672 447.76107025 C-122.68287602 447.76109814 -122.68287602 447.76109814 -124.41663611 447.76123925 C-135.45334916 447.76239089 -146.49003128 447.77342239 -157.52673389 447.78795731 C-168.61541266 447.80230841 -179.70406005 447.80531418 -190.79274777 447.79751733 C-196.80251671 447.79360002 -202.81218134 447.79459299 -208.82193756 447.80857468 C-214.31979955 447.82124883 -219.81747815 447.82017342 -225.31533965 447.80798396 C-227.30794286 447.80601568 -229.30055877 447.80915716 -231.29314408 447.81782833 C-233.99527998 447.82884598 -236.69676007 447.82148602 -239.39887714 447.8094368 C-240.17801286 447.81703199 -240.95714857 447.82462718 -241.75989446 447.83245254 C-246.53560363 447.78627128 -249.84356251 447.02274444 -253.875 444.4375 C-256.79152576 440.06271135 -256.76482048 436.56976592 -255.875 431.4375 C-253.92973695 426.80768505 -251.36618243 422.58613825 -248.75 418.3125 C-248.01424832 417.07433028 -247.28063753 415.83488611 -246.54907227 414.59423828 C-245.05774404 412.0717694 -243.55532056 409.5564995 -242.04248047 407.046875 C-239.48511196 402.79967813 -236.9933201 398.51527157 -234.50463867 394.22753906 C-232.7985805 391.28852095 -231.08371379 388.3547895 -229.3671875 385.421875 C-223.79070844 375.87927067 -218.28288509 366.29692207 -212.76611328 356.71972656 C-209.63819852 351.29090058 -206.50641552 345.86430719 -203.375 340.4375 C-202.12498121 338.27084417 -200.87498122 336.1041775 -199.625 333.9375 C-177.125 294.9375 -154.625 255.9375 -132.125 216.9375 C-131.50616943 215.86483887 -130.88733887 214.79217773 -130.24975586 213.68701172 C-129.00064482 211.52192929 -127.75145871 209.35689018 -126.50219727 207.19189453 C-123.36297691 201.75134294 -120.22509437 196.31002784 -117.08984375 190.8671875 C-111.06752671 180.41543801 -105.02830663 169.97450452 -98.9375 159.5625 C-93.86224877 150.88487759 -88.85241233 142.17144432 -83.875 133.4375 C-78.3349827 123.71634383 -72.74125191 114.02855342 -67.09155273 104.37060547 C-60.93733258 93.84665375 -54.85130004 83.28369863 -48.76611328 72.71972656 C-45.01848395 66.21532059 -41.26595039 59.71374205 -37.51342773 53.2121582 C-34.30967538 47.66063708 -31.10915423 42.10729203 -27.9140625 36.55078125 C-24.24557653 30.17317563 -20.5656121 23.80232567 -16.875 17.4375 C-16.38676758 16.59364746 -15.89853516 15.74979492 -15.39550781 14.88037109 C-14.14646873 12.72804925 -12.88820338 10.58153025 -11.625 8.4375 C-10.95984375 7.303125 -10.2946875 6.16875 -9.609375 5 C-6.91404515 1.01771084 -4.63200446 0.11967185 0 0 Z M-0.875 33.4375 C-1.07806763 33.79352295 -1.07806763 33.79352295 -2.10571289 35.59521484 C-11.36691534 51.82795455 -20.6657986 68.03809805 -30.01611328 84.21972656 C-33.13824605 89.62420645 -36.25641204 95.03097412 -39.375 100.4375 C-40.62498122 102.6041775 -41.87498121 104.77084417 -43.125 106.9375 C-43.434375 107.47375 -43.434375 107.47375 -45 110.1875 C-91.875 191.4375 -138.75 272.6875 -185.625 353.9375 C-186.24383057 355.01016113 -186.86266113 356.08282227 -187.50024414 357.18798828 C-188.74935518 359.35307071 -189.99854129 361.51810982 -191.24780273 363.68310547 C-194.38702309 369.12365706 -197.52490563 374.56497216 -200.66015625 380.0078125 C-201.91926459 382.19271193 -203.17837914 384.37760779 -204.4375 386.5625 C-205.04795166 387.62275391 -205.65840332 388.68300781 -206.28735352 389.77539062 C-209.47782634 395.30965172 -212.68787582 400.83159569 -215.9296875 406.3359375 C-216.58122803 407.44437012 -217.23276855 408.55280273 -217.90405273 409.69482422 C-219.1523778 411.81587494 -220.40434949 413.93478476 -221.66040039 416.05126953 C-222.2146167 416.99341309 -222.76883301 417.93555664 -223.33984375 418.90625 C-223.830896 419.73576172 -224.32194824 420.56527344 -224.82788086 421.41992188 C-225.875 423.4375 -225.875 423.4375 -225.875 425.4375 C-76.715 425.4375 72.445 425.4375 226.125 425.4375 C224.67377547 421.80943866 223.24955815 418.69521216 221.359375 415.32421875 C220.80652832 414.33639404 220.25368164 413.34856934 219.68408203 412.33081055 C219.08708496 411.27289307 218.49008789 410.21497559 217.875 409.125 C217.25093262 408.01487549 216.62686523 406.90475098 215.98388672 405.76098633 C211.24130308 397.35162229 206.40253894 389.00058564 201.51855469 380.67260742 C196.99829446 372.95895758 192.55011343 365.20591166 188.125 357.4375 C183.17150609 348.74331933 178.18130535 340.07246896 173.125 331.4375 C167.7214354 322.20949471 162.39847639 312.9375533 157.10449219 303.64648438 C152.48997196 295.55005867 147.83404745 287.47943491 143.125 279.4375 C137.7214354 270.20949471 132.39847639 260.9375533 127.10449219 251.64648438 C122.48997196 243.55005867 117.83404745 235.47943491 113.125 227.4375 C108.06869077 218.80252443 103.07892878 210.13143681 98.125 201.4375 C92.58514067 191.71625494 86.99125068 182.02855132 81.34155273 172.37060547 C75.18733258 161.84665375 69.10130004 151.28369863 63.01611328 140.71972656 C59.88819852 135.29090058 56.75641552 129.86430719 53.625 124.4375 C52.37498121 122.27084417 51.12498122 120.1041775 49.875 117.9375 C49.25625 116.865 48.6375 115.7925 48 114.6875 C32.375 87.60416667 16.75 60.52083333 1.125 33.4375 C0.465 33.4375 -0.195 33.4375 -0.875 33.4375 Z " fill="#000000" transform="translate(255.875,34.5625)"/>
<path d="M0 0 C0.62390625 -0.00128906 0.62390625 -0.00128906 3.78125 -0.0078125 C4.43609375 -0.00394531 4.43609375 -0.00394531 7.75 0.015625 C9.0596875 0.00789062 10.369375 0.00015625 11.71875 -0.0078125 C12.9665625 -0.00523437 14.214375 -0.00265625 15.5 0 C16.64984375 0.00225586 17.7996875 0.00451172 18.984375 0.00683594 C21.75 0.265625 21.75 0.265625 23.75 2.265625 C24.00447559 4.87718105 24.00447559 4.87718105 24.01069641 8.25645447 C24.01778122 9.53381973 24.02486603 10.811185 24.03216553 12.1272583 C24.02987149 13.55090367 24.02736176 14.97454871 24.0246582 16.39819336 C24.02900336 17.89114132 24.03418585 19.38408704 24.04014587 20.87702942 C24.05356856 24.93899135 24.05411091 29.00086043 24.05158257 33.06284022 C24.05051504 36.45016787 24.05539066 39.83747657 24.060188 43.22480017 C24.07129456 51.21425286 24.07171419 59.20365855 24.06567383 67.19311523 C24.05963235 75.44333655 24.07194679 83.69338739 24.0932439 91.94357961 C24.1108404 99.01962783 24.11686434 106.0956217 24.11360615 113.171691 C24.11178997 117.4011028 24.11446261 121.63039302 24.12832069 125.85978508 C24.14086275 129.83657003 24.13898957 133.81308863 24.12590981 137.78986931 C24.1235365 139.25120126 24.12630558 140.71255174 24.13453293 142.17386246 C24.1449375 144.16515472 24.13513236 146.15652234 24.1242218 148.14781189 C24.12438954 149.26334914 24.12455729 150.37888639 24.12473011 151.52822781 C23.75 154.265625 23.75 154.265625 22.39409161 156.12372684 C19.91777756 157.84364222 17.86069046 157.65448128 14.875 157.6640625 C13.72515625 157.66792969 12.5753125 157.67179688 11.390625 157.67578125 C10.18921875 157.66417969 8.9878125 157.65257812 7.75 157.640625 C6.54859375 157.65222656 5.3471875 157.66382813 4.109375 157.67578125 C3.53445312 157.67384766 3.53445312 157.67384766 0.625 157.6640625 C-0.42945313 157.66067871 -1.48390625 157.65729492 -2.5703125 157.65380859 C-5.25 157.265625 -5.25 157.265625 -6.89409161 156.12372684 C-8.84860694 153.44530951 -8.62471748 151.44425957 -8.6242218 148.14781189 C-8.63123611 146.8676268 -8.63825043 145.58744171 -8.64547729 144.26846313 C-8.63804937 142.84686123 -8.63031822 141.42526089 -8.62231445 140.00366211 C-8.62474198 138.50894416 -8.62846092 137.01422783 -8.63337708 135.51951599 C-8.64279435 131.45761896 -8.63335415 127.39596253 -8.62004495 123.33408427 C-8.60874378 119.08824669 -8.61283687 114.84242118 -8.61479187 110.59657288 C-8.61567517 103.46692972 -8.60458609 96.33738159 -8.58618164 89.20776367 C-8.56500534 80.95696092 -8.56150563 72.70629731 -8.5677436 64.45547289 C-8.57343161 56.52703949 -8.56779878 48.59865526 -8.55657005 40.67022896 C-8.55191741 37.29186662 -8.55105307 33.91353428 -8.5531559 30.5351696 C-8.55503495 26.56004802 -8.5469646 22.58506876 -8.5310955 18.60997963 C-8.52684116 17.14823368 -8.52600979 15.68647332 -8.52878571 14.22472382 C-8.53199144 12.23529414 -8.52173047 10.24585612 -8.51069641 8.25645447 C-8.50864354 7.14129424 -8.50659067 6.02613401 -8.50447559 4.87718105 C-7.97469254 -0.55971811 -4.62360284 0.00907097 0 0 Z " fill="#000000" transform="translate(248.25,192.734375)"/>
<path d="M0 0 C0.66209473 -0.00095673 1.32418945 -0.00191345 2.00634766 -0.00289917 C3.40852961 -0.00358076 4.8107147 -0.00172792 6.21289062 0.00244141 C8.36595713 0.00779004 10.51881502 0.0024958 12.671875 -0.00390625 C14.03125046 -0.00324546 15.3906258 -0.00196429 16.75 0 C17.37261719 0.00056396 17.37261719 0.00056396 20.5234375 0.00341797 C23.375 0.1328125 23.375 0.1328125 24.375 1.1328125 C24.47582764 3.56941696 24.51472603 5.97705951 24.5078125 8.4140625 C24.50876923 9.14274536 24.50972595 9.87142822 24.51071167 10.62219238 C24.51139335 12.1656096 24.50953988 13.70902967 24.50537109 15.25244141 C24.50002262 17.6227865 24.50531642 19.99294209 24.51171875 22.36328125 C24.51105797 23.85937542 24.5097768 25.35546947 24.5078125 26.8515625 C24.50983673 27.56509888 24.51186096 28.27863525 24.51394653 29.01379395 C24.48995191 34.01786059 24.48995191 34.01786059 23.375 35.1328125 C21.16849344 35.23293651 18.95877614 35.2636243 16.75 35.265625 C16.08790527 35.26658173 15.42581055 35.26753845 14.74365234 35.26852417 C13.34147039 35.26920576 11.9392853 35.26735292 10.53710938 35.26318359 C8.38404287 35.25783496 6.23118498 35.2631292 4.078125 35.26953125 C2.71874954 35.26887046 1.3593742 35.26758929 0 35.265625 C-1.24523437 35.26449707 -2.49046875 35.26336914 -3.7734375 35.26220703 C-6.625 35.1328125 -6.625 35.1328125 -7.625 34.1328125 C-7.72582764 31.69620804 -7.76472603 29.28856549 -7.7578125 26.8515625 C-7.75876923 26.12287964 -7.75972595 25.39419678 -7.76071167 24.64343262 C-7.76139335 23.1000154 -7.75953988 21.55659533 -7.75537109 20.01318359 C-7.75002262 17.6428385 -7.75531642 15.27268291 -7.76171875 12.90234375 C-7.76105797 11.40624958 -7.7597768 9.91015553 -7.7578125 8.4140625 C-7.75983673 7.70052612 -7.76186096 6.98698975 -7.76394653 6.25183105 C-7.73130392 -0.5557696 -6.58895071 0.00596825 0 0 Z " fill="#000000" transform="translate(247.625,377.8671875)"/>
</svg>
