<?xml version="1.0" encoding="UTF-8"?>
<!-- Generator: visioncortex VTracer 0.6.12 -->
<svg version="1.1" xmlns="http://www.w3.org/2000/svg" width="512" height="512">
<path d="M0 0 C1.27250189 -0.00768229 2.54500379 -0.01536458 3.85606635 -0.02327967 C5.26075616 -0.02171937 6.66544577 -0.01996183 8.07013512 -0.01802826 C9.56819157 -0.02319847 11.06624527 -0.0292256 12.56429517 -0.03603506 C16.67775856 -0.05214762 20.79115209 -0.05575266 24.9046433 -0.05723 C29.34245561 -0.06093592 33.78023188 -0.07603305 38.2180233 -0.08950043 C47.92063861 -0.11664881 57.62323737 -0.12871371 67.32588434 -0.13752174 C73.3861803 -0.1430498 79.4464699 -0.15152511 85.50676155 -0.16053009 C102.29139429 -0.18491327 119.07602193 -0.20551218 135.860672 -0.21228027 C136.93465302 -0.21271941 138.00863405 -0.21315854 139.11515995 -0.21361098 C140.19168691 -0.21404753 141.26821386 -0.21448409 142.37736285 -0.21493387 C144.55875691 -0.2158208 146.74015097 -0.21671393 148.92154503 -0.21761322 C150.00358807 -0.21805608 151.08563111 -0.21849894 152.20046334 -0.21895522 C169.72927173 -0.22684947 187.25791375 -0.26175318 204.78665788 -0.30833226 C222.79026997 -0.35578639 240.79379863 -0.38068521 258.79747427 -0.38301611 C268.90301665 -0.38484814 279.00834225 -0.3963154 289.11382484 -0.43265533 C297.71975508 -0.46349408 306.32540153 -0.47367686 314.93137653 -0.45717913 C319.31984621 -0.44937873 323.70774475 -0.45116153 328.09614372 -0.47929382 C332.11968453 -0.50485053 336.14222741 -0.50231091 340.1657676 -0.4781124 C341.6153307 -0.47421169 343.06496546 -0.4802944 344.51442809 -0.49780113 C355.04033118 -0.61680683 363.70965273 1.12359436 371.84075034 8.20524931 C380.53943093 17.08995304 381.11146298 27.18239829 381.06369591 38.96527863 C381.04327594 40.87957977 381.02241207 42.79387622 381.00113487 44.70816803 C380.99366386 46.68927181 380.987975 48.67038304 380.98398399 50.65149689 C380.96879542 55.83671637 380.92957271 61.02147948 380.88516808 66.20652008 C380.8440684 71.50908995 380.82594172 76.81173439 380.80582237 82.11441803 C380.76307134 92.49742977 380.69490303 102.88010453 380.61050987 113.26285553 C380.14814808 112.85898086 379.68578629 112.45510618 379.20941353 112.03899288 C378.90127283 111.77193051 378.90127283 111.77193051 377.34189415 110.42043304 C377.03852575 110.15662071 377.03852575 110.15662071 375.50329781 108.8215704 C373.70039258 107.33687413 371.85400107 106.03068671 369.90836143 104.7416153 C364.49821731 100.74870803 360.40492768 96.70096755 358.85147667 89.97788239 C357.81525823 81.13637651 358.03595465 72.26978878 358.3022213 63.38858795 C358.41869499 59.01600712 358.44160939 54.64209707 358.47410011 50.26822758 C358.50041313 46.86895508 358.54638731 43.47420945 358.63046837 40.07558441 C358.65578636 38.85984238 358.68110435 37.64410034 358.70718956 36.39151764 C358.72164116 35.85858849 358.72164116 35.85858849 358.79477501 33.16164398 C358.54156156 29.17818717 357.84445258 26.43768629 354.90836048 23.6422475 C351.96153282 21.8732768 350.02976668 21.8879494 346.60094261 21.88812542 C345.9816329 21.88452215 345.9816329 21.88452215 342.84755039 21.86628741 C341.47076526 21.87346471 340.09398158 21.88092362 338.71719933 21.88863373 C337.2564156 21.88589404 335.79563384 21.88184274 334.33485699 21.87659007 C330.31538265 21.86598096 326.29612996 21.87414655 322.27666521 21.88534057 C317.94395692 21.89416681 313.61127813 21.88574364 309.27857018 21.87947845 C300.78868904 21.8699792 292.29889275 21.87660015 283.8090179 21.8887414 C273.92782549 21.90234713 264.04665342 21.9007248 254.16545403 21.89860807 C236.53807238 21.89541653 218.91073111 21.90709531 201.28336143 21.92667389 C184.16811455 21.94567874 167.05291499 21.95276164 149.93765831 21.9471817 C131.3123809 21.94112745 112.68712432 21.94129448 94.06184864 21.95266753 C92.07679749 21.95387486 90.09174633 21.95508084 88.10669518 21.95628548 C87.61831906 21.95658725 87.61831906 21.95658725 85.14683992 21.95811438 C78.2547328 21.96199798 71.36263343 21.9615982 64.47052574 21.95969963 C56.07445159 21.95758014 47.67841895 21.96278305 39.2823565 21.97731318 C34.99635074 21.98456974 30.71040551 21.98862348 26.42439461 21.98406982 C22.5038675 21.98000572 18.58346562 21.98512366 14.66295755 21.9976959 C13.24175313 22.00063372 11.82053698 22.00017653 10.3993355 21.99605282 C8.47291837 21.99096907 6.54647962 21.99930923 4.62007713 22.00837994 C3.54839633 22.00924671 2.47671553 22.01011349 1.37255955 22.01100653 C-1.47244282 22.27041932 -3.06316246 22.6217748 -5.38949013 24.26285553 C-8.000783 27.75335546 -7.66834283 31.68781837 -7.64117241 35.86539459 C-7.64407929 36.63870998 -7.64698617 37.41202538 -7.64998114 38.20877457 C-7.65731439 40.81542136 -7.65032235 43.42183522 -7.64345741 46.02848053 C-7.64576053 47.90999218 -7.64893605 49.79150292 -7.6529119 51.67301178 C-7.66128901 56.8553939 -7.65712143 62.0377027 -7.65093946 67.22008514 C-7.64642787 72.80433407 -7.65339229 78.38857008 -7.65889931 83.97281647 C-7.66780881 94.91714972 -7.66586438 105.8614556 -7.66007403 116.80578995 C-7.65556365 125.69773077 -7.65494192 134.5896639 -7.65712166 143.48160553 C-7.65742812 144.7454734 -7.65773459 146.00934128 -7.65805034 147.31150818 C-7.65868977 149.87875112 -7.6593382 152.44599406 -7.65999553 155.013237 C-7.66554055 178.41872915 -7.65978282 201.82420371 -7.64931033 225.22969246 C-7.63981881 246.60533816 -7.64066806 267.98096004 -7.65023232 289.35660553 C-7.66093688 313.361126 -7.66515402 337.36563158 -7.65900779 361.37015533 C-7.65837067 363.92813873 -7.65774193 366.48612213 -7.65712166 369.04410553 C-7.65681311 370.30279701 -7.65650456 371.56148849 -7.65618666 372.85832214 C-7.65445728 381.74316985 -7.65738003 390.62800913 -7.66208076 399.51285553 C-7.6676806 410.33535701 -7.6661921 421.15782947 -7.65551928 431.98032761 C-7.65025045 437.50579425 -7.64822636 443.03121245 -7.65481758 448.55667877 C-7.66075417 453.60965065 -7.65753999 458.66252892 -7.64686248 463.71549225 C-7.64461868 465.5485398 -7.6457865 467.38159518 -7.65061405 469.21463776 C-7.65665195 471.69664481 -7.65050217 474.1783267 -7.64117241 476.66031647 C-7.64351358 477.02028151 -7.64351358 477.02028151 -7.65536129 478.84192276 C-7.62809326 482.44497198 -7.59172756 485.31913762 -5.38949013 488.26285553 C-2.16429884 490.53748026 0.74578973 490.51503233 4.61728382 490.52012444 C5.85528655 490.52657333 7.09328929 490.53302222 8.36880726 490.53966653 C9.74490235 490.53672418 11.12099703 490.53358873 12.49709129 490.53028107 C13.95716178 490.53401661 15.41723026 490.53861774 16.87729555 490.54401171 C20.89478508 490.55626885 24.91219151 490.55597807 28.92969549 490.55362296 C33.26038107 490.55321548 37.59103976 490.56424725 41.92171288 490.5737381 C50.40789292 490.5903634 58.89404517 490.59584831 67.38024013 490.59696285 C74.276083 490.5979125 81.17191669 490.60201862 88.06775665 490.60836411 C107.60828546 490.62597985 127.14879228 490.63520233 146.68932908 490.63370316 C147.74315028 490.63362324 148.79697149 490.63354333 149.88272667 490.633461 C150.93783074 490.63337924 151.99293481 490.63329748 153.08001173 490.63321324 C170.18684642 490.6324 187.29359313 490.65154624 204.40040236 490.67973773 C221.95530207 490.70844 239.51015883 490.72227953 257.06508261 490.72055018 C266.92501417 490.71988541 276.78485348 490.72541584 286.64476395 490.74690628 C295.03827091 490.76508305 303.43164379 490.76949427 311.82516187 490.75588743 C316.1093417 490.7493403 320.39326404 490.74930319 324.67741966 490.76659393 C328.59749254 490.78225288 332.51710222 490.77953527 336.4371633 490.76202567 C337.85704457 490.75893986 339.27695981 490.76264733 340.69680106 490.77374582 C342.62378591 490.78781373 344.55091154 490.77491966 346.47789478 490.76063347 C347.01354532 490.76085084 347.01354532 490.76085084 349.7242617 490.76195085 C353.32379657 490.13951269 355.00467552 488.77067785 357.61050987 486.26285553 C359.01125336 483.04944195 358.64599258 479.80247694 358.49844933 476.34293365 C358.27452081 470.33692767 358.13013324 464.33721977 358.04754925 458.32803345 C357.99283583 454.70419525 357.90295474 451.0886618 357.72940636 447.46842194 C356.54181148 421.77474805 356.54181148 421.77474805 364.14322472 412.77066803 C368.84176162 407.7451599 373.93209671 403.16187785 379.61050987 399.26285553 C379.94050987 399.26285553 380.27050987 399.26285553 380.61050987 399.26285553 C380.70342652 410.69423704 380.77438466 422.12552786 380.81775856 433.55721092 C380.83858196 438.86612976 380.86680344 444.17478912 380.91226768 449.48355865 C380.95591293 454.61235967 380.9796864 459.74091201 380.99001884 464.86988449 C380.99737678 466.82100206 381.01174477 468.7721069 381.0334301 470.72311783 C381.16136394 482.71647162 381.19721856 492.59897693 373.61050987 502.51285553 C366.00347908 510.28313649 357.24234958 512.93647975 346.57647926 513.05599177 C345.18737043 513.0416443 343.7982674 513.02672672 342.40917015 513.01129913 C340.90378899 513.01679088 339.39841554 513.02490407 337.89306086 513.03538644 C333.78706958 513.05642435 329.68195772 513.04039301 325.57600558 513.01788545 C321.13629311 513.00011832 316.6966906 513.01711209 312.25697899 513.02960968 C303.5725829 513.04854034 294.88852029 513.03542689 286.20414905 513.0110838 C276.08542859 512.983781 265.96678669 512.98712493 255.84803876 512.99135046 C237.79263855 512.99772336 219.73739641 512.97443261 201.68204308 512.93521881 C184.17060091 512.89719644 166.65934388 512.88304898 149.14786339 512.89420319 C130.0642989 512.90632286 110.98081573 512.90595846 91.89725798 512.88323152 C89.86196975 512.880817 87.82668152 512.87840503 85.79139328 512.87599564 C84.7900634 512.87478856 83.78873353 512.87358148 82.75706032 512.87233783 C75.7069019 512.86458531 68.65677379 512.86536444 61.60661316 512.86916733 C53.01502621 512.87341447 44.42360124 512.86293826 35.8320599 512.83394022 C31.45013802 512.81946871 27.06845186 512.81128403 22.68651009 512.82042694 C18.67276409 512.82859787 14.65950416 512.81819878 10.64583179 512.79317479 C9.19652235 512.7873339 7.74716687 512.78816304 6.29786942 512.79646094 C-5.32229969 512.856935 -13.09871018 511.04479051 -21.66683388 503.05582428 C-27.8790211 496.5900784 -29.6962051 490.04450547 -29.64675903 481.27201366 C-29.65026511 480.48100483 -29.65377118 479.689996 -29.6573835 478.8750172 C-29.6666993 476.22018424 -29.66177372 473.56557055 -29.65691566 470.91072845 C-29.66065183 468.98980557 -29.66525321 467.0688842 -29.67064631 465.14796525 C-29.68289583 459.86574608 -29.68261354 454.58359015 -29.68025756 449.30136001 C-29.67984989 443.60593364 -29.69088376 437.91052767 -29.7003727 432.21511078 C-29.7169942 421.05548182 -29.72248276 409.89587398 -29.72359745 398.73623367 C-29.72454735 389.66656058 -29.72865471 380.59689447 -29.7349987 371.52722359 C-29.74974703 350.00475229 -29.7620481 328.48228788 -29.76100159 306.95981121 C-29.76097043 306.27152139 -29.76093927 305.58323157 -29.76090717 304.87408449 C-29.76074096 301.38554914 -29.76054287 297.8970138 -29.76033776 294.40847846 C-29.76029786 293.71564339 -29.76025797 293.02280832 -29.76021688 292.30897825 C-29.760136 290.90789695 -29.7600524 289.50681565 -29.75996609 288.10573436 C-29.75874056 266.30676305 -29.77375423 244.50785396 -29.80111122 222.70890045 C-29.83183438 198.21758718 -29.84901825 173.72632192 -29.84718478 149.23498708 C-29.84652035 136.26740748 -29.85203563 123.29989805 -29.87354088 110.33233452 C-29.89173209 99.29224719 -29.8961169 88.25226184 -29.88252203 77.21216603 C-29.87598212 71.5786717 -29.87591225 65.94537312 -29.89322853 60.31189728 C-29.90891875 55.15441695 -29.90613692 49.99728826 -29.88866027 44.83981673 C-29.88558146 42.97443624 -29.88925579 41.10902976 -29.90038042 39.2436799 C-29.9707484 26.60724721 -29.09036777 17.53919659 -20.18245888 7.98551178 C-14.25759385 2.2929944 -8.13394687 0.01848549 0 0 Z " fill="#000000" transform="translate(29.389490127563477,-0.26285552978515625)"/>
<path d="M0 0 C2.9542037 0.66454219 4.10728964 1.43609363 6.29892731 3.47886944 C6.98795639 4.11597536 7.67698547 4.75308128 8.38689423 5.40949345 C9.1378688 6.13201109 9.88884338 6.85452873 10.66257477 7.59894085 C11.47933182 8.38147543 12.29608887 9.16401001 13.13759613 9.97025776 C15.99813618 12.74073853 18.83571678 15.53374425 21.66843414 18.33258343 C22.75321936 19.40124757 23.83813308 20.4697813 24.92316437 21.53819561 C34.75604729 31.22741634 44.55534832 40.95080813 54.34628296 50.68239594 C61.57377404 57.86521219 68.81717442 65.03117557 76.08185339 72.17638189 C81.2034125 77.21653861 86.30571447 82.27569314 91.39431238 87.34912318 C94.42900816 90.37366508 97.47163219 93.38908095 100.53554535 96.3840456 C103.4139946 99.19840412 106.26784524 102.0355597 109.10476303 104.89175892 C110.14741766 105.93326201 111.19862818 106.96628273 112.25894547 107.98979855 C121.21649588 116.65228777 121.21649588 116.65228777 121.9540329 122.55282879 C121.10585695 129.84072331 114.96424138 134.61878225 109.96994781 139.45855999 C108.81998513 140.60897645 107.67221156 141.76158469 106.52646637 142.91620159 C103.4184111 146.03564344 100.28037184 149.12321965 97.13566566 152.20565248 C93.84857332 155.43756111 90.58911966 158.69711404 87.32634735 161.95353985 C81.84708341 167.41441535 76.34985934 172.8566295 70.83957672 178.28619671 C63.06378542 185.94819172 55.32280417 193.64464504 47.58761156 201.34759247 C42.23028668 206.68002302 36.86475746 212.0041957 31.49765801 217.3267858 C30.19570021 218.61801636 28.89396868 219.90947511 27.59246039 221.20115876 C23.88473937 224.88029972 20.17199726 228.55421815 16.4508667 232.21979809 C15.32325676 233.3319502 14.19730419 234.44578553 13.0731144 235.56139469 C11.54169569 237.08039991 10.00431033 238.5930906 8.46511078 240.10420513 C8.03509435 240.52864926 8.03509435 240.52864926 5.85895061 242.67659378 C3.03134228 245.1514182 1.06569379 245.55330473 -2.64992523 245.97394085 C-6.3812274 245.59448639 -8.41825466 244.88603236 -11.16555023 242.28644085 C-13.41012604 239.05425168 -13.9561076 235.44360987 -13.33742523 231.59894085 C-9.99243994 225.7327808 -5.29804087 221.29151975 -0.52980804 216.56427288 C0.35835098 215.6758218 1.24651001 214.78737072 2.16158295 213.87199688 C4.58537245 211.449358 7.01349899 209.03122873 9.44369793 206.61502981 C11.98706804 204.08420308 14.52473639 201.54767204 17.06302643 199.01175213 C21.86483657 194.21614618 26.67171992 189.42565925 31.48046708 184.63701046 C36.95720996 179.18265966 42.42824225 173.72259603 47.89881277 168.26205564 C59.14707779 157.03466857 70.40245865 145.814443 81.66257477 134.59894085 C81.02545053 134.59796404 80.3883263 134.59698723 79.73189527 134.59598082 C41.98750489 134.53773413 4.24317466 134.46395661 -33.50114421 134.36995457 C-38.03112498 134.35868613 -42.56110606 134.34754773 -47.09108734 134.33648968 C-47.99294145 134.33428599 -48.89479556 134.33208231 -49.82397858 134.32981185 C-64.43494156 134.29442014 -79.04590449 134.26956659 -93.65689447 134.24859383 C-108.64430745 134.22684669 -123.6316647 134.19380664 -138.6190303 134.15023929 C-147.8702533 134.12370381 -157.12140685 134.10602242 -166.37266604 134.09959481 C-172.71288723 134.09434672 -179.05302095 134.07814928 -185.39319529 134.05327519 C-189.05351403 134.03924026 -192.71367611 134.03009677 -196.37402344 134.03393269 C-200.3398217 134.03796276 -204.30531721 134.0189689 -208.27106476 133.99766827 C-209.43156694 134.00251584 -210.59206911 134.00736342 -211.78773803 134.01235789 C-212.84967873 134.00290135 -213.91161944 133.99344481 -215.00574017 133.98370171 C-215.92124588 133.9818031 -216.8367516 133.9799045 -217.77999991 133.97794837 C-221.66803415 133.40174612 -224.31063367 131.5549192 -227.14992523 128.91144085 C-228.90809205 125.48764231 -229.1130833 122.30644407 -228.33742523 118.59894085 C-226.36064347 115.07708829 -224.23871033 112.89936922 -220.33742523 111.59894085 C-218.64430524 111.50316927 -216.94765519 111.46519514 -215.25183582 111.46027565 C-214.19387721 111.45480121 -213.1359186 111.44932676 -212.04590064 111.44368643 C-211.46273671 111.44319737 -211.46273671 111.44319737 -208.51157379 111.44072247 C-207.2757777 111.43578449 -206.03998162 111.43084651 -204.76673716 111.4257589 C-201.3302311 111.41302794 -197.89376574 111.40475458 -194.45724547 111.39833224 C-190.75377528 111.39033569 -187.05032576 111.37663535 -183.34687042 111.3636198 C-176.92827564 111.34184647 -170.50967878 111.32370512 -164.09106636 111.30801487 C-154.81077513 111.28532405 -145.53050677 111.25718013 -136.25023492 111.22769559 C-121.1944289 111.18001002 -106.13861352 111.13674845 -91.08278656 111.0962553 C-76.45550051 111.05690529 -61.82822278 111.01548025 -47.20095062 110.9712553 C-46.29966613 110.96853103 -45.39838163 110.96580676 -44.46978549 110.96299993 C-39.94840777 110.94932054 -35.42703018 110.93560025 -30.90565264 110.92185962 C6.61707258 110.80787968 44.13981552 110.70107368 81.66257477 110.59894085 C81.19027498 110.12756286 80.7179752 109.65618486 80.2313633 109.17052269 C68.74479806 97.70603209 57.26099527 86.23878239 45.78026772 74.76844597 C40.22823327 69.22157002 34.67526449 63.67563549 29.1200943 58.13189983 C24.27878535 53.3005513 19.43923077 48.46745353 14.60178363 43.63223821 C12.03982699 41.07158635 9.47699443 38.51182508 6.91205978 35.95415592 C4.0502947 33.10043164 1.19245312 30.24280945 -1.66506195 27.38482952 C-2.51813934 26.5353474 -3.37121674 25.68586529 -4.25014496 24.81064129 C-4.63857071 24.42152821 -4.63857071 24.42152821 -6.60424042 22.45238018 C-6.94253844 22.11454305 -6.94253844 22.11454305 -8.65453148 20.40488243 C-12.24805452 16.54861244 -12.85841 13.97552912 -12.70070648 8.89581585 C-11.59402949 1.89876129 -6.73788396 -0.56989283 0 0 Z " fill="#000000" transform="translate(391.3374252319336,133.4010591506958)"/>
</svg>
