<?xml version="1.0" encoding="UTF-8"?>
<!-- Generator: visioncortex VTracer 0.6.12 -->
<svg version="1.1" xmlns="http://www.w3.org/2000/svg" width="512" height="512">
<path d="M0 0 C2.7302512 2.455459 5.31119385 5.04970408 7.896698 7.65618896 C8.67361594 8.43139806 9.45053389 9.20660716 10.2509948 10.00530744 C12.84902521 12.6000477 15.43985 15.20186392 18.03076172 17.80371094 C19.89326389 19.66677732 21.75615862 21.52944323 23.61955261 23.39161682 C27.628448 27.39946503 31.63367392 31.41095009 35.63640976 35.42494965 C41.42365134 41.22846591 47.21642723 47.02643213 53.01055576 52.82307163 C62.41167165 62.22856153 71.80831529 71.63850631 81.20214844 81.05126953 C90.3257773 90.19326479 99.4515106 99.33315088 108.58007812 108.47021484 C109.14304395 109.03370611 109.70600977 109.59719738 110.28603517 110.17776415 C113.11036638 113.00470549 115.93473898 115.83160549 118.75913215 118.65848494 C142.17917395 142.09925009 165.59195801 165.54725169 189 189 C192.01179351 187.64990137 194.09505884 186.15069291 196.41594124 183.81339455 C197.07610021 183.15351748 197.73625918 182.49364042 198.41642296 181.81376708 C199.13333963 181.08693201 199.85025629 180.36009694 200.58889771 179.61123657 C201.35705114 178.84055859 202.12520458 178.06988061 202.91663539 177.27584875 C205.49751631 174.68418597 208.07117921 172.08547009 210.64501953 169.48681641 C212.49095669 167.63049576 214.33737858 165.77465702 216.18424988 163.91926575 C220.165475 159.91861794 224.14334716 155.91466163 228.11929703 151.90877151 C234.40739528 145.5739111 240.70588065 139.24943456 247.006073 132.92660522 C249.16226217 130.76241304 251.31838402 128.59815378 253.4744854 126.43387413 C254.01333328 125.89298779 254.55218117 125.35210145 255.10735778 124.79482461 C261.2406335 118.6380642 267.37176821 112.4791737 273.50195312 106.31933594 C274.06229421 105.75628999 274.62263529 105.19324404 275.1999564 104.6131361 C284.27452752 95.49423024 293.34135989 86.36765983 302.40623619 77.23911805 C311.71800904 67.86250851 321.04133203 58.49748783 330.37456787 49.14224184 C336.12794377 43.37443688 341.87168012 37.59735925 347.60328762 31.80792056 C352.00054078 27.36808794 356.41341782 22.9440932 360.83222389 18.52571678 C362.6393956 16.71370553 364.44142004 14.89654368 366.23782539 13.07385826 C368.69457329 10.58268455 371.16927692 8.1108037 373.64920044 5.64273071 C374.35273277 4.92035709 375.05626511 4.19798347 375.7811166 3.45371974 C381.10372662 -1.78451607 387.0632486 -5.78399815 394.73813164 -6.11980379 C401.02084337 -5.81250307 405.88695763 -4.01368995 410.46875 0.421875 C415.29271694 5.86286097 416.43118383 10.4177627 416.2421875 17.515625 C415.18293197 28.38153655 404.82335547 36.32558126 397.54335022 43.6038208 C396.7181362 44.43271151 395.89292217 45.26160223 395.04270166 46.11561084 C392.77263558 48.3947275 390.50038927 50.67164272 388.2271291 52.94757271 C385.76794221 55.41069367 383.3115809 57.87663007 380.8547821 60.34213257 C374.93588952 66.28069036 369.0122376 72.21448955 363.08796397 78.14767849 C360.29387547 80.94616142 357.50027189 83.74512834 354.7066021 86.54402924 C345.41543728 95.85218728 336.12302458 105.15909689 326.82698917 114.4623909 C324.42053861 116.8707511 322.01409343 119.27911667 319.60766602 121.6875 C319.00961883 122.28603093 318.41157164 122.88456186 317.7954018 123.50123009 C308.09458349 133.21035973 298.40232221 142.92798501 288.71358139 152.6491653 C278.7541013 162.64171821 268.78710495 172.6267236 258.81267256 182.60435176 C253.21725387 188.20193403 247.6251623 193.80275354 242.04146004 199.41202545 C237.29018094 204.18501352 232.53212673 208.9511147 227.76512081 213.7083979 C225.33472843 216.13424782 222.90766336 218.56319438 220.48926926 221.00101089 C217.86321137 223.64472755 215.22510752 226.27581316 212.58363342 228.90411377 C211.82573944 229.672977 211.06784545 230.44184023 210.28698498 231.23400235 C205.13700531 236.32219808 200.21917313 240.28274057 192.875 241.53125 C191.92625 241.5209375 190.9775 241.510625 190 241.5 C189.525625 241.50515625 189.525625 241.50515625 187.125 241.53125 C178.48883798 240.06310246 173.09808573 234.67513429 167.168396 228.68305969 C166.31500397 227.83661319 165.46161194 226.9901667 164.58235955 226.1180703 C162.22928803 223.78007495 159.88543754 221.4334964 157.54516935 219.08272707 C155.01385469 216.54439938 152.47104797 214.01762753 149.92974854 211.48930359 C144.9584886 206.53965354 139.99813556 201.57921146 135.04174587 196.61467538 C131.01215009 192.5787725 126.97884214 188.5466152 122.94287872 184.51708031 C122.3678424 183.94294563 121.79280607 183.36881096 121.2003444 182.77727827 C120.03204922 181.61083435 118.8637484 180.44439609 117.69544199 179.27796342 C106.74747454 168.3465639 95.81217341 157.4025626 84.88091853 146.45445438 C74.88606151 136.44490076 64.87661662 126.4500852 54.86000225 116.46230827 C44.56703894 106.19875693 34.28334173 95.92600879 24.00984597 85.64296979 C22.8471974 84.4792987 21.68453487 83.31564155 20.52185822 82.15199852 C19.94984603 81.57950994 19.37783384 81.00702137 18.78848796 80.41718465 C14.76347857 76.39001355 10.73252684 72.36885057 6.69915009 68.35006142 C1.78126635 63.44971713 -3.12767353 58.54062047 -8.02541664 53.62014303 C-10.52297545 51.11145693 -13.02432357 48.60689728 -15.53675842 46.11310196 C-18.26363406 43.40619694 -20.97076989 40.68007663 -23.67633057 37.95185852 C-24.46853949 37.17148533 -25.26074841 36.39111213 -26.07696366 35.58709127 C-31.86770721 29.69748142 -35.9849341 23.82373918 -36.4375 15.375 C-36.06637071 8.26168861 -32.91586741 3.03018991 -28 -2 C-18.55385442 -7.8284728 -8.64253246 -6.63703248 0 0 Z " fill="#000000" transform="translate(66,138)"/>
</svg>
