<?xml version="1.0" encoding="UTF-8"?>
<!-- Generator: visioncortex VTracer 0.6.12 -->
<svg version="1.1" xmlns="http://www.w3.org/2000/svg" width="512" height="512">
<path d="M0 0 C0.85722656 0.71800781 1.71445313 1.43601563 2.59765625 2.17578125 C13.65299056 11.79580167 22.39559684 22.54949788 30 35 C30.18183838 35.29632324 30.18183838 35.29632324 31.10205078 36.79589844 C35.62617624 44.31592609 38.97150026 52.0756717 41.8125 60.375 C42.09053467 61.17566895 42.36856934 61.97633789 42.6550293 62.80126953 C51.62109879 90.43914462 48 117.6728302 48 147 C-29.55 147 -107.1 147 -187 147 C-185.45346131 179.47731249 -180.75843833 205.66827405 -160 231 C-159.30261719 231.86238281 -158.60523438 232.72476562 -157.88671875 233.61328125 C-140.74598089 253.76226561 -115.04439176 265.31768723 -89 268 C-61.18902171 270.09905655 -33.51238265 261.34474746 -11.98046875 243.578125 C-3.56654497 236.30002579 3.33265398 228.73868038 9.59008789 219.56982422 C13.57698971 213.9258554 18.11392145 210.33866368 24.6875 208.07421875 C29.87185048 207.20724122 34.74140663 206.80523728 40 207 C31.93404654 235.7349592 8.59985382 259.68851221 -16.890625 274.06640625 C-27.14261902 279.71333791 -37.74203265 283.83152848 -49 287 C-49.60650391 287.17080078 -49.60650391 287.17080078 -52.67578125 288.03515625 C-83.19789715 295.08376519 -118.470946 289.38806487 -145.23388672 273.11523438 C-153.53485129 267.87348622 -161.36806283 262.29703115 -168 255 C-168.78375 254.236875 -169.5675 253.47375 -170.375 252.6875 C-171.24125 251.800625 -172.1075 250.91375 -173 250 C-173.64582031 249.3503125 -174.29164063 248.700625 -174.95703125 248.03125 C-199.39557168 222.35152276 -208.52692699 187.7603376 -208.3984375 153.21484375 C-208.40046594 151.25964754 -208.40338371 149.30445208 -208.40713501 147.34925842 C-208.41152117 143.28086031 -208.40524766 139.21266175 -208.39111328 135.14428711 C-208.37401229 129.9750046 -208.38389235 124.8061893 -208.40183067 119.63692379 C-208.41275989 115.60873503 -208.40918086 111.58065393 -208.4014473 107.55246162 C-208.39947103 105.64820867 -208.40181204 103.74394536 -208.40888596 101.83970451 C-208.45149414 87.15552493 -207.2317127 73.19708136 -202.4375 59.1875 C-202.18846924 58.45450684 -201.93943848 57.72151367 -201.68286133 56.96630859 C-190.29752156 25.08195654 -165.9387939 -1.56340476 -135.49609375 -16.2265625 C-91.18572891 -36.46198591 -37.70316782 -31.65273375 0 0 Z M-162 31 C-185.64419664 59.61684482 -187 88.73249181 -187 126 C-116.38 126 -45.76 126 27 126 C27 83.02375479 27 83.02375479 23 70 C22.79101074 69.30116699 22.58202148 68.60233398 22.36669922 67.88232422 C17.70106049 52.81598074 9.53774349 39.68470877 -1 28 C-1.75796875 27.15953125 -2.5159375 26.3190625 -3.296875 25.453125 C-23.29949985 4.40461127 -51.21066552 -6.43294042 -80 -7.25 C-112.09555941 -6.29033211 -140.69897346 6.94125128 -162 31 Z " fill="#000000" transform="translate(208,130)"/>
<path d="M0 0 C13.3954808 -0.72299447 24.7531686 0.88456278 35 10 C37.2339804 12.45356253 39.18388745 15.06141333 41.125 17.75 C42.25031459 19.26505688 43.37665163 20.77935476 44.50390625 22.29296875 C45.0777002 23.06946777 45.65149414 23.8459668 46.24267578 24.64599609 C49.12005251 28.50035375 52.09474001 32.27760201 55.0625 36.0625 C59.93824684 42.30699513 64.7279152 48.60824441 69.46118164 54.96118164 C73.24369069 60.02475213 77.10797855 65.02025203 81 70 C85.8962289 76.26460728 90.70975407 82.58198442 95.45874023 88.95874023 C99.83110246 94.81340636 104.32352034 100.57041424 108.83300781 106.31982422 C113.2461493 111.96869461 117.50395326 117.71677051 121.62524414 123.58227539 C122.7032319 125.08954479 123.84551926 126.5504853 125 128 C125.66 128 126.32 128 127 128 C128.33930296 126.40938619 129.59364463 124.74718878 130.8125 123.0625 C131.62529459 121.95238663 132.43915901 120.84305604 133.25390625 119.734375 C133.69492676 119.13173828 134.13594727 118.52910156 134.59033203 117.90820312 C137.10055407 114.51023024 139.67808835 111.16387208 142.25 107.8125 C143.36985887 106.35031188 144.4896497 104.88807165 145.609375 103.42578125 C146.17076172 102.69311035 146.73214844 101.96043945 147.31054688 101.20556641 C150.04266822 97.63880568 152.77119272 94.06929641 155.5 90.5 C156.5833152 89.08331947 157.66664855 87.66665282 158.75 86.25 C159.28625 85.54875 159.8225 84.8475 160.375 84.125 C170.66666667 70.66666667 180.95833333 57.20833333 191.25 43.75 C191.78689453 43.0477832 192.32378906 42.34556641 192.87695312 41.62207031 C193.9532922 40.21479907 195.0301101 38.80789393 196.10742188 37.40136719 C198.92693658 33.7189101 201.73623269 30.02921936 204.53125 26.328125 C204.82161133 25.94495117 204.82161133 25.94495117 206.29101562 24.00585938 C207.39699131 22.54597148 208.50005479 21.08387084 209.59960938 19.61914062 C216.76537234 10.17794973 224.8683451 1.88499817 237 0 C242.01729165 -0.22200406 246.97948919 -0.18073839 252 0 C249.24780196 5.09546099 246.18631601 9.48365369 242.5 13.9375 C238.25885022 19.14811125 234.13063865 24.41869575 230.125 29.8125 C225.82220119 35.59987777 221.4421086 41.31884086 217 47 C212.60537473 52.62255291 208.26348914 58.2773488 204 64 C199.15775623 70.49948228 194.20187127 76.90328261 189.2109375 83.2890625 C185.41756004 88.15193845 181.68463345 93.05431553 178 98 C173.73650558 103.72265828 169.39434969 109.37722574 165 115 C160.42525918 120.85619851 155.89540026 126.74176854 151.4375 132.6875 C150.96119141 133.32236328 150.48488281 133.95722656 149.99414062 134.61132812 C146.93872556 138.70115114 143.95514144 142.83715156 141 147 C142.29473613 149.74891139 143.72321668 152.11081904 145.58203125 154.51171875 C146.09507812 155.17816406 146.608125 155.84460938 147.13671875 156.53125 C147.68972656 157.2428125 148.24273437 157.954375 148.8125 158.6875 C149.9961823 160.22258798 151.17977354 161.75774617 152.36328125 163.29296875 C152.96865723 164.07591309 153.5740332 164.85885742 154.19775391 165.66552734 C156.97819819 169.26707275 159.73867532 172.88378907 162.5 176.5 C163.58322442 177.91674995 164.66655809 179.33341637 165.75 180.75 C224.25 257.25 224.25 257.25 225.87646484 259.37695312 C226.95486699 260.78714637 228.03331716 262.19730289 229.11181641 263.60742188 C231.89600096 267.24782527 234.67923315 270.88895099 237.4609375 274.53125 C238.02917236 275.2749585 238.59740723 276.01866699 239.18286133 276.78491211 C240.29521993 278.24104104 241.40705206 279.69757234 242.51831055 281.15454102 C245.93260313 285.62547508 249.38943358 290.05811273 252.92578125 294.43359375 C254 296 254 296 254 298 C241.20219876 298.46072084 230.78402458 298.07420319 221 289 C214.77897251 282.74552613 209.51410559 275.84030184 204.296875 268.74707031 C201.81798994 265.40766867 199.28048791 262.11285923 196.75 258.8125 C196.19860352 258.09247803 195.64720703 257.37245605 195.07910156 256.63061523 C193.94941132 255.15545147 192.81952711 253.68043622 191.68945312 252.20556641 C188.95733178 248.63880568 186.22880728 245.06929641 183.5 241.5 C182.4166848 240.08331947 181.33335145 238.66665282 180.25 237.25 C173.75 228.75 167.25 220.25 160.75 211.75 C160.21358887 211.04858887 159.67717773 210.34717773 159.12451172 209.62451172 C158.0426126 208.20962051 156.96090646 206.79458172 155.87939453 205.37939453 C153.15069128 201.80932057 150.41854866 198.24197609 147.6796875 194.6796875 C146.57795504 193.24492216 145.47639122 191.81002731 144.375 190.375 C143.84156982 189.68092041 143.30813965 188.98684082 142.75854492 188.27172852 C140.06042201 184.74690107 137.40415262 181.19882432 134.80859375 177.59765625 C134.55601807 177.24775635 134.55601807 177.24775635 133.27783203 175.47705078 C132.32090602 174.14513477 131.36977973 172.80902733 130.42529297 171.46826172 C129.33109286 169.94355665 128.17158371 168.46608016 127 167 C126.34 167 125.68 167 125 167 C123.14699133 169.27567841 121.40754713 171.56376367 119.6875 173.9375 C118.59717044 175.41726846 117.50599697 176.89641542 116.4140625 178.375 C116.13191895 178.75849609 116.13191895 178.75849609 114.70410156 180.69921875 C112.03020918 184.30935654 109.29810693 187.87402841 106.5625 191.4375 C105.47003612 192.86326902 104.37758829 194.28905034 103.28515625 195.71484375 C102.74262207 196.42237793 102.20008789 197.12991211 101.64111328 197.85888672 C98.92424572 201.40350566 96.21236299 204.95193377 93.5 208.5 C92.41669084 209.91668515 91.3333575 211.33335181 90.25 212.75 C89.71375 213.45125 89.1775 214.1525 88.625 214.875 C78.33333333 228.33333333 68.04166667 241.79166667 57.75 255.25 C57.2132666 255.95205566 56.6765332 256.65411133 56.12353516 257.37744141 C55.04576179 258.78648827 53.9673168 260.19502167 52.88818359 261.60302734 C50.08890624 265.25723973 47.30370756 268.92106085 44.5390625 272.6015625 C43.96736328 273.35888672 43.39566406 274.11621094 42.80664062 274.89648438 C41.72539452 276.32935523 40.64822171 277.76531384 39.57617188 279.20507812 C34.89990994 285.38550732 30.03221742 291.53803368 22.875 294.875 C22.06804687 295.26429688 21.26109375 295.65359375 20.4296875 296.0546875 C15.3684786 298.02383952 10.56536353 298.12940165 5.1875 298.0625 C4.49462891 298.05798828 3.80175781 298.05347656 3.08789062 298.04882812 C1.39188932 298.03713156 -0.30406703 298.01919924 -2 298 C-0.61023708 295.02443917 1.01044833 292.48886524 2.984375 289.8671875 C3.28339722 289.46890747 3.28339722 289.46890747 4.79663086 287.45336914 C5.44124268 286.60250732 6.08585449 285.75164551 6.75 284.875 C7.4210376 283.98482178 8.0920752 283.09464355 8.78344727 282.17749023 C13.68323161 275.69486676 18.65106078 269.26736702 23.6550293 262.86499023 C30.20799801 254.47487779 36.64096953 245.99404273 43.08349609 237.51904297 C50.49681619 227.7750128 57.94890614 218.06070996 65.41796875 208.359375 C70.0684032 202.31362877 74.69533244 196.24983784 79.32666016 190.18945312 C82.58488763 185.92628068 85.84458455 181.66423152 89.10449219 177.40234375 C91.92683979 173.71223979 94.7477046 170.0210149 97.56640625 166.328125 C98.15164063 165.56177734 98.736875 164.79542969 99.33984375 164.00585938 C100.4561928 162.54397372 101.57210578 161.08175492 102.6875 159.61914062 C105.41745383 156.04519344 108.17294806 152.49822255 111 149 C109.55537124 144.76654246 107.45581397 141.74777149 104.6875 138.25 C103.78077105 137.09412556 102.87454634 135.93785543 101.96875 134.78125 C101.48664063 134.16894531 101.00453125 133.55664062 100.5078125 132.92578125 C97.87043476 129.55731694 95.28170436 126.15174942 92.6875 122.75 C91.5769643 121.29676695 90.4662858 119.84364301 89.35546875 118.390625 C88.80036621 117.66423828 88.24526367 116.93785156 87.67333984 116.18945312 C84.94966736 112.62571008 82.22478337 109.06289369 79.5 105.5 C78.41666062 104.08333796 77.33332729 102.66667128 76.25 101.25 C75.71375 100.54875 75.1775 99.8475 74.625 99.125 C60 80 45.375 60.875 30.75 41.75 C30.21334717 41.0482666 29.67669434 40.3465332 29.1237793 39.62353516 C28.04434568 38.21188073 26.96508038 36.8000976 25.88598633 35.38818359 C23.11937831 31.76873658 20.34956334 28.15181592 17.57421875 24.5390625 C0 1.64656178 0 1.64656178 0 0 Z " fill="#000000" transform="translate(258,112)"/>
</svg>
