<?xml version="1.0" encoding="UTF-8"?>
<!-- Generator: visioncortex VTracer 0.6.12 -->
<svg version="1.1" xmlns="http://www.w3.org/2000/svg" width="512" height="512">
<path d="M0 0 C1.21883377 -0.00623996 2.43766754 -0.01247993 3.69343567 -0.01890898 C7.03695896 -0.03199398 10.3795684 -0.02743469 13.72303391 -0.0149641 C17.34411327 -0.00584578 20.96511761 -0.01991665 24.58618164 -0.03088379 C31.66414479 -0.04860186 38.74193757 -0.04485915 45.81990719 -0.03323323 C51.57607856 -0.0241726 57.33220244 -0.02298623 63.08837891 -0.02732849 C63.90992179 -0.02794142 64.73146467 -0.02855436 65.57790279 -0.02918586 C67.24723436 -0.03046486 68.91656591 -0.03176171 70.58589745 -0.03307623 C86.21226148 -0.04446236 101.8385314 -0.03139928 117.46487999 -0.00987476 C130.85163375 0.00799444 144.23824874 0.00488978 157.625 -0.0135498 C173.19825014 -0.03499136 188.77141795 -0.04336391 204.34468079 -0.03110075 C206.00761921 -0.02982665 207.67055765 -0.02856917 209.33349609 -0.02732849 C210.15153686 -0.02671139 210.96957762 -0.02609429 211.81240749 -0.02545848 C217.55676194 -0.02201543 223.30106385 -0.02781132 229.04541016 -0.0372467 C236.05290288 -0.04850467 243.06021654 -0.04534731 250.06768894 -0.02412373 C253.63800972 -0.01366404 257.20803275 -0.00940363 260.77835083 -0.02272034 C264.65969124 -0.03697737 268.5405519 -0.01987089 272.421875 0 C273.5346431 -0.00892289 274.64741119 -0.01784577 275.79389954 -0.02703905 C290.38500917 0.11710059 302.82208578 5.29294486 313.4609375 15.25793457 C324.49370717 27.03677268 328.84682586 40.33995312 328.71887207 56.29699707 C328.72199205 56.90641396 328.72199205 56.90641396 328.73778105 59.99043274 C328.75086605 63.33395603 328.74630676 66.67656547 328.73383617 70.02003098 C328.72471785 73.64111034 328.73878872 77.26211468 328.74975586 80.88317871 C328.76747393 87.96114186 328.76373122 95.03893464 328.7521053 102.11690426 C328.74304467 107.87307563 328.7418583 113.62919951 328.74620056 119.38537598 C328.74681349 120.20691886 328.74742643 121.02846174 328.74805793 121.87489986 C328.74933693 123.54423143 328.75063378 125.21356298 328.7519483 126.88289452 C328.76333443 142.50925855 328.75027135 158.13552847 328.72874683 173.76187706 C328.71087763 187.14863082 328.71398229 200.53524581 328.73242188 213.92199707 C328.75386343 229.49524721 328.76223598 245.06841502 328.74997282 260.64167786 C328.74869872 262.30461628 328.74744124 263.96755472 328.74620056 265.63049316 C328.74589201 266.03951355 328.74589201 266.03951355 328.74433056 268.10940456 C328.7408875 273.85375901 328.74668339 279.59806092 328.75611877 285.34240723 C328.76737674 292.34989995 328.76421938 299.35721361 328.7429958 306.36468601 C328.73253611 309.93500679 328.7282757 313.50502982 328.74159241 317.0753479 C328.75584944 320.95668831 328.73874296 324.83754897 328.71887207 328.71887207 C328.72779496 329.83164017 328.73671784 330.94440826 328.74591112 332.09089661 C328.60135834 346.72382798 323.41399522 359.22040573 313.3359375 369.82043457 C304.27649489 378.32344309 292.77251802 384.61688067 280.1010828 384.64215565 C279.06308381 384.64661349 278.02508482 384.65107134 276.95563132 384.65566427 C275.81664765 384.6554799 274.67766398 384.65529554 273.50416565 384.65510559 C272.2930217 384.65878228 271.08187775 384.66245897 269.83403248 384.66624707 C266.4704852 384.67536681 263.10698669 384.67998206 259.74343169 384.68263638 C256.11608157 384.68654291 252.48874554 384.69612117 248.86140442 384.70484924 C240.09912344 384.72460628 231.33684131 384.73467998 222.57454363 384.74357703 C218.44549208 384.74796215 214.31644182 384.75332847 210.18739128 384.7585659 C196.45587842 384.77557924 182.72436636 384.79007174 168.99284458 384.79731464 C165.4298814 384.79922446 161.86691823 384.80114481 158.30395508 384.80310059 C157.41842392 384.80358433 156.53289276 384.80406807 155.62052732 384.80456647 C141.28676825 384.81286051 126.95309281 384.83818636 112.61937023 384.87068126 C97.89398756 384.90379103 83.16864731 384.92176704 68.44322723 384.92495888 C60.17928282 384.92712061 51.91546026 384.93581952 43.6515522 384.96142006 C36.6109292 384.98318085 29.57045765 384.99115123 22.52980483 384.98145328 C18.9413009 384.97692374 15.35310909 384.97871531 11.76464844 384.99821472 C7.86315881 385.01923068 3.96209358 385.00881208 0.06056213 384.99568176 C-1.05834504 385.00665101 -2.17725222 385.01762025 -3.33006567 385.0289219 C-17.9832353 384.91046596 -30.48730496 379.72452033 -41.1015625 369.63293457 C-49.60457102 360.57349196 -55.8980086 349.06951509 -55.92328358 336.39807987 C-55.92774142 335.36008088 -55.93219926 334.32208189 -55.93679219 333.25262839 C-55.93660783 332.11364472 -55.93642347 330.97466105 -55.93623352 329.80116272 C-55.93991021 328.59001877 -55.9435869 327.37887483 -55.947375 326.13102955 C-55.95649474 322.76748227 -55.96110999 319.40398376 -55.96376431 316.04042876 C-55.96767084 312.41307864 -55.97724909 308.78574261 -55.98597717 305.15840149 C-56.00573421 296.39612051 -56.01580791 287.63383838 -56.02470496 278.8715407 C-56.02909008 274.74248915 -56.0344564 270.61343889 -56.03969383 266.48438835 C-56.05670717 252.75287549 -56.07119967 239.02136343 -56.07844257 225.28984165 C-56.08035239 221.72687847 -56.08227273 218.1639153 -56.08422852 214.60095215 C-56.08471226 213.71542099 -56.085196 212.82988983 -56.0856944 211.91752439 C-56.09398844 197.58376532 -56.11931429 183.25008988 -56.15180919 168.9163673 C-56.18491896 154.19098463 -56.20289497 139.46564438 -56.20608681 124.7402243 C-56.20824854 116.47627989 -56.21694745 108.21245733 -56.24254799 99.94854927 C-56.26430878 92.90792627 -56.27227916 85.86745472 -56.26258121 78.8268019 C-56.25805167 75.23829797 -56.25984324 71.65010616 -56.27934265 68.06164551 C-56.30035861 64.16015588 -56.28994001 60.25909065 -56.27680969 56.3575592 C-56.28229432 55.79810562 -56.28229432 55.79810562 -56.31004983 52.9669314 C-56.19193115 38.3554808 -51.01751568 25.9111602 -41.0390625 15.25793457 C-29.26022439 4.2251649 -15.95704395 -0.12795379 0 0 Z " fill="#3F51B5" transform="translate(119.7890625,63.4920654296875)"/>
<path d="M0 0 C1.05267563 0.00141495 2.10535126 0.0028299 3.18992615 0.00428772 C6.52117874 0.00984329 9.85236179 0.02238737 13.18359375 0.03515625 C15.45507715 0.040177 17.72656161 0.0447389 19.99804688 0.04882812 C25.53911024 0.05894325 31.08002501 0.07852713 36.62109375 0.09765625 C36.62109375 13.95765625 36.62109375 27.81765625 36.62109375 42.09765625 C21.55859375 42.41015625 21.55859375 42.41015625 16.84741211 42.4855957 C16.2267688 42.5021521 16.2267688 42.5021521 13.0859375 42.5859375 C11.82386475 42.61212158 10.56179199 42.63830566 9.26147461 42.6652832 C4.38312342 43.24469169 0.43828413 44.49117148 -3.28442383 47.78222656 C-4.88445023 51.16715862 -4.85942932 54.47108861 -4.890625 58.14453125 C-4.90726196 58.82854004 -4.92389893 59.51254883 -4.94104004 60.21728516 C-4.99865955 62.7604328 -5.03104732 65.30410171 -5.06640625 67.84765625 C-5.16953125 73.54015625 -5.27265625 79.23265625 -5.37890625 85.09765625 C8.48109375 85.09765625 22.34109375 85.09765625 36.62109375 85.09765625 C36.00935001 91.2150937 35.37199539 97.2331133 34.4296875 103.29296875 C34.33240356 103.93161865 34.23511963 104.57026855 34.1348877 105.22827148 C33.77892366 107.56016231 33.41851876 109.89137351 33.05859375 112.22265625 C32.25421875 117.46140625 31.44984375 122.70015625 30.62109375 128.09765625 C18.74109375 128.09765625 6.86109375 128.09765625 -5.37890625 128.09765625 C-5.37890625 173.63765625 -5.37890625 219.17765625 -5.37890625 266.09765625 C-23.19890625 266.09765625 -41.01890625 266.09765625 -59.37890625 266.09765625 C-59.37890625 220.55765625 -59.37890625 175.01765625 -59.37890625 128.09765625 C-69.93890625 128.09765625 -80.49890625 128.09765625 -91.37890625 128.09765625 C-91.37890625 113.90765625 -91.37890625 99.71765625 -91.37890625 85.09765625 C-80.81890625 85.09765625 -70.25890625 85.09765625 -59.37890625 85.09765625 C-59.39630859 83.9271875 -59.39630859 83.9271875 -59.484375 78.00390625 C-59.50792831 75.67693291 -59.52605437 73.34997403 -59.54370117 71.02294922 C-59.5585703 69.43467027 -59.5788718 67.8464307 -59.60522461 66.25830078 C-59.88327102 49.04123084 -58.86558283 30.47709175 -47.19140625 16.78515625 C-33.58644151 2.79853409 -18.79514439 -0.09666974 0 0 Z " fill="#FDFDFE" transform="translate(336.37890625,138.90234375)"/>
</svg>
