<?xml version="1.0" encoding="UTF-8"?>
<!-- Generator: visioncortex VTracer 0.6.12 -->
<svg version="1.1" xmlns="http://www.w3.org/2000/svg" width="512" height="512">
<path d="M0 0 C0.40002731 0.00121857 0.40002731 0.00121857 2.42440796 0.00738525 C16.14953197 0.05560096 29.85243715 0.50052634 43.5625 1.125 C44.0125238 1.1445575 44.0125238 1.1445575 46.28991699 1.24353027 C48.86702488 1.35850693 51.44322684 1.48553354 54.01953125 1.6171875 C54.39535591 1.63391006 54.39535591 1.63391006 56.29725647 1.71853638 C69.33907765 2.44180824 69.33907765 2.44180824 74.25 6.125 C77.14350162 10.2241273 76.88431775 14.3010195 76.91113281 19.21826172 C76.91609772 19.91146515 76.92106262 20.60466858 76.92617798 21.31887817 C76.94074995 23.60582481 76.94759291 25.89270211 76.953125 28.1796875 C76.95888009 29.77385458 76.96463778 31.36802166 76.97039795 32.96218872 C76.98089349 36.30275799 76.98674577 39.64330329 76.99023438 42.98388672 C76.99571922 47.25658318 77.01975297 51.52896099 77.04820633 55.80155754 C77.06686266 59.0941764 77.07203988 62.3867189 77.07357025 65.67938614 C77.07659003 67.25419992 77.08459574 68.82901257 77.09775543 70.40377426 C77.11488087 72.61041035 77.11292043 74.81627296 77.10644531 77.02294922 C77.11009094 78.276633 77.11373657 79.53031677 77.11749268 80.82199097 C76.61480461 85.5111163 75.24631745 88.73224853 71.92420959 92.10194397 C69.12366525 93.58072588 67.1258923 93.62186795 63.96264648 93.61889648 C63.37992729 93.62233818 63.37992729 93.62233818 60.43101501 93.63975525 C59.173741 93.63359695 57.91646698 93.62743866 56.62109375 93.62109375 C54.63411953 93.63403111 52.64714517 93.64699166 50.66018009 93.66126347 C45.77179927 93.69118459 40.88332576 93.68778869 35.99487305 93.68579102 C33.25253336 93.68574951 30.51058345 93.69645958 27.76832581 93.71754456 C25.19282075 93.73611364 22.61712692 93.73825112 20.04161072 93.72129822 C10.33340426 93.80334195 0.63729951 95.35235854 -6.68359375 102.28515625 C-14.74348039 112.39518862 -15.3753623 122.75061517 -15.56640625 135.08984375 C-15.5767968 135.65089058 -15.5767968 135.65089058 -15.62937927 138.49012756 C-15.6944863 142.05585925 -15.75357841 145.62166127 -15.8125 149.1875 C-15.85572219 151.61263733 -15.89933764 154.03776768 -15.94335938 156.46289062 C-16.05012764 162.39185388 -16.15196448 168.32088627 -16.25 174.25 C-15.19843719 174.24111755 -14.14687439 174.23223511 -13.06344604 174.2230835 C-3.14669435 174.14194753 6.76998988 174.08201049 16.68699837 174.04275131 C21.78528823 174.02188908 26.88330983 173.99359617 31.98144531 173.94824219 C36.90274563 173.90473604 41.82378815 173.88085263 46.74526596 173.87049103 C48.62154066 173.86310824 50.49780146 173.84869127 52.37396622 173.82707977 C55.00499049 173.79798223 57.63495363 173.79404662 60.26611328 173.79589844 C61.0393544 173.78151733 61.81259552 173.76713623 62.60926819 173.75231934 C67.80711845 173.79182608 70.75100885 174.95806987 74.75 178.25 C77.73021119 182.7700896 76.63482275 187.71485737 76.0625 192.83984375 C75.96509521 193.79801498 75.86769043 194.75618622 75.76733398 195.74339294 C75.44104635 198.91374827 75.0960596 202.08174637 74.75 205.25 C74.51504973 207.47796675 74.28068384 209.7059952 74.046875 211.93408203 C73.43397204 217.71814748 72.79548156 223.49904427 72.14550781 229.27905273 C71.74390397 232.86696163 71.35245829 236.45590038 70.9609375 240.04492188 C70.70374502 242.34381945 70.44595553 244.64265033 70.1875 246.94140625 C70.072854 248.00589493 69.95820801 249.07038361 69.84008789 250.16712952 C69.72656982 251.1568425 69.61305176 252.14655548 69.49609375 253.16625977 C69.39997803 254.03033951 69.3038623 254.89441925 69.20483398 255.78468323 C68.46142185 259.81416755 67.57075553 262.41847471 64.65386963 265.37363529 C61.04194062 267.70751973 58.17995315 267.78815331 54.0222168 267.70410156 C53.64146248 267.70439362 53.64146248 267.70439362 51.71461487 267.70587158 C49.20901173 267.70309498 46.70461287 267.67202469 44.19921875 267.640625 C42.45759226 267.63316106 40.71595736 267.62746885 38.97431946 267.62347412 C34.39892229 267.60822973 29.82403614 267.56895843 25.24884033 267.5246582 C20.57677116 267.48367959 15.90461911 267.46545759 11.23242188 267.4453125 C2.07139054 267.40246285 -7.08926217 267.33422613 -16.25 267.25 C-16.24769552 267.76049188 -16.24769552 267.76049188 -16.23603344 270.34389019 C-16.12509631 295.17256348 -16.04290013 320.00120468 -15.99093914 344.83007336 C-15.96514407 356.8370818 -15.92996846 368.84392664 -15.87280273 380.85083008 C-15.82300789 391.31455429 -15.79071847 401.77816004 -15.77955753 412.24199945 C-15.77303218 417.78393581 -15.75766837 423.32553322 -15.72134972 428.86736107 C-15.68745237 434.08189195 -15.67693447 439.29594375 -15.68446159 444.51057434 C-15.68308425 446.42583124 -15.67311461 448.3411039 -15.65397263 450.25626564 C-15.62913203 452.86940735 -15.6350613 455.48073508 -15.64872742 458.09391785 C-15.64144531 458.4737851 -15.64144531 458.4737851 -15.60459346 460.39614362 C-15.66105757 464.38427315 -16.10141142 466.06848124 -18.66257954 469.19725513 C-22.72010659 472.41631749 -25.54675204 472.4032907 -30.55786133 472.41113281 C-31.31090042 472.41609772 -32.06393951 472.42106262 -32.83979797 472.42617798 C-35.33721829 472.44081229 -37.83457506 472.44760415 -40.33203125 472.453125 C-42.06597394 472.45887598 -43.79991661 472.46463372 -45.53385925 472.47039795 C-49.17304786 472.48091194 -52.81221435 472.48675181 -56.45141602 472.49023438 C-61.11212412 472.49571601 -65.77253962 472.51973518 -70.43315601 472.54820633 C-74.01654408 472.56684197 -77.59986186 472.57203883 -81.1832943 472.57357025 C-82.90127853 472.57659588 -84.61926156 472.58462139 -86.33719826 472.59775543 C-88.74300921 472.61483342 -91.14810789 472.6129315 -93.55395508 472.60644531 C-94.26219421 472.6156601 -94.97043335 472.62487488 -95.70013428 472.6343689 C-100.06595288 472.59754565 -102.83885783 472.01760032 -106.25 469.25 C-109.47761663 465.04028489 -109.67028533 461.29171256 -109.61076355 456.16984558 C-109.61332682 455.36111364 -109.6158901 454.5523817 -109.61853105 453.71914274 C-109.62346842 451.01202123 -109.6069769 448.30545871 -109.59057617 445.59838867 C-109.58972989 443.65678928 -109.59020506 441.71518892 -109.59190369 439.77359009 C-109.59276502 434.50330907 -109.57511685 429.23323256 -109.55418181 423.96299911 C-109.53543805 418.45502364 -109.53366638 412.94704358 -109.53010559 407.43904114 C-109.52077838 397.00916003 -109.49615538 386.57937316 -109.46605712 376.14953357 C-109.43253421 364.27541255 -109.4160324 352.40128704 -109.40097082 340.52713048 C-109.36960647 316.10136806 -109.31683276 291.67568931 -109.25 267.25 C-110.17850266 267.25888245 -111.10700531 267.26776489 -112.06364441 267.2769165 C-120.81814189 267.3570976 -129.57251586 267.41798237 -138.32729626 267.45724869 C-142.82813888 267.47811471 -147.32867784 267.50641412 -151.8293457 267.55175781 C-156.17358188 267.59525108 -160.51752616 267.61914452 -164.86196327 267.62950897 C-166.51857409 267.63689413 -168.17516911 267.6513158 -169.8316555 267.67292023 C-172.15398935 267.70200152 -174.47512049 267.70595419 -176.79760742 267.70410156 C-177.48093643 267.71848267 -178.16426544 267.73286377 -178.86830139 267.74768066 C-183.58804231 267.70699902 -185.93204782 266.56727899 -189.25 263.25 C-191.53764399 259.20539929 -191.50843945 255.48017754 -191.5246582 250.89282227 C-191.52976913 250.1702121 -191.53488007 249.44760193 -191.54014587 248.70309448 C-191.55399945 246.3241132 -191.55308838 243.94542298 -191.55078125 241.56640625 C-191.55467042 239.90640659 -191.55900555 238.24640791 -191.56376648 236.58641052 C-191.57121951 233.11055268 -191.57094401 229.63479644 -191.56567383 226.15893555 C-191.55987942 221.71249008 -191.57681377 217.26646119 -191.6000185 212.82008457 C-191.61477513 209.39277225 -191.61562494 205.96555982 -191.61250877 202.53822136 C-191.61302098 200.89922193 -191.61823988 199.26021676 -191.62832069 197.62124825 C-191.64070597 195.32608354 -191.63388164 193.0317248 -191.62231445 190.73657227 C-191.62262917 190.08459114 -191.62262917 190.08459114 -191.6242218 186.78517151 C-191.10080993 181.84064199 -189.88639284 178.61182043 -186.02253723 175.39628601 C-182.48688496 173.93449546 -179.71566006 173.88986886 -175.8894043 173.90942383 C-175.52815712 173.90920479 -175.52815712 173.90920479 -173.70002747 173.90809631 C-171.32447793 173.91017756 -168.94964418 173.93347626 -166.57421875 173.95703125 C-164.92227056 173.96262959 -163.27031738 173.96689856 -161.61836243 173.96989441 C-157.27979677 173.98132449 -152.94153453 174.0107757 -148.60308838 174.04400635 C-144.17228296 174.07474694 -139.7414283 174.08840826 -135.31054688 174.10351562 C-126.623559 174.13564732 -117.93681729 174.18682124 -109.25 174.25 C-109.25444122 173.35258591 -109.25888245 172.45517181 -109.26345825 171.53056335 C-109.30388133 162.98641407 -109.33415778 154.44229785 -109.35362434 145.89807415 C-109.36396936 141.50760944 -109.37795406 137.11722511 -109.40087891 132.72680664 C-109.42294455 128.47330269 -109.43463794 124.219875 -109.43975449 119.96631813 C-109.44339084 118.36038834 -109.4504869 116.75446171 -109.46146011 115.14856529 C-109.55841522 100.34223439 -109.15162929 84.96774488 -105.125 70.625 C-105.01913574 70.23920776 -105.01913574 70.23920776 -104.48339844 68.28686523 C-97.73695606 45.04200276 -83.2283518 25.26263228 -62.04394531 13.22265625 C-42.62593055 2.69443486 -21.73934337 -0.14511152 0 0 Z " fill="#000000" transform="translate(313.25,19.75)"/>
</svg>
