<?xml version="1.0" encoding="UTF-8"?>
<!-- Generator: visioncortex VTracer 0.6.12 -->
<svg version="1.1" xmlns="http://www.w3.org/2000/svg" width="512" height="512">
<path d="M0 0 C0.59312988 0.41942871 1.18625977 0.83885742 1.79736328 1.27099609 C12.69839717 9.00373558 22.47068176 17.64229982 32 27 C32.61625244 27.60231445 33.23250488 28.20462891 33.86743164 28.82519531 C39.00963859 33.89940727 43.51046371 39.34215558 48 45 C48.40927734 45.50660156 48.40927734 45.50660156 50.48046875 48.0703125 C56.77602348 55.95627164 62.0774032 64.19923565 67 73 C67.4345752 73.76812012 67.86915039 74.53624023 68.31689453 75.32763672 C83.4658026 102.32659651 92.40647653 131.28324858 96 162 C96.13148438 163.10730469 96.26296875 164.21460938 96.3984375 165.35546875 C101.85404892 222.34449079 84.60208059 282.15374736 48.15625 326.44140625 C47.4446875 327.28574219 46.733125 328.13007813 46 329 C45.55011719 329.53866699 45.10023438 330.07733398 44.63671875 330.63232422 C35.23181311 341.87664577 25.49774451 351.84772976 14 361 C13.20980469 361.65742188 12.41960937 362.31484375 11.60546875 362.9921875 C-17.70762665 387.20101256 -60.34051327 409 -99 409 C-99 354.88 -99 300.76 -99 245 C-89.43 244.835 -89.43 244.835 -41 244 C-38.03 225.19 -35.06 206.38 -32 187 C-54.11 187 -76.22 187 -99 187 C-99.061875 180.214375 -99.12375 173.42875 -99.1875 166.4375 C-99.21481201 164.32915771 -99.24212402 162.22081543 -99.27026367 160.04858398 C-99.38767148 144.59921863 -99.09129268 127.31984574 -88.265625 115.03125 C-80.44189555 107.96912253 -72.66907953 106.8420834 -62.54296875 106.90234375 C-61.74201782 106.90335083 -60.94106689 106.90435791 -60.11584473 106.90539551 C-57.13971514 106.91060567 -54.16360605 106.92456688 -51.1875 106.9375 C-44.525625 106.958125 -37.86375 106.97875 -31 107 C-31 90.17 -31 73.34 -31 56 C-54.25087808 54.8374561 -54.25087808 54.8374561 -61.140625 54.796875 C-61.96222107 54.79117493 -62.78381714 54.78547485 -63.63031006 54.77960205 C-65.32676993 54.77035781 -67.02324608 54.7637033 -68.71972656 54.75976562 C-71.2639909 54.749946 -73.80748147 54.71867985 -76.3515625 54.6875 C-99.34906976 54.53868469 -121.30619117 59.33812278 -138.55859375 75.37890625 C-146.39385843 83.61055869 -151.52962567 92.89750475 -155.25 103.5625 C-155.48420654 104.21476563 -155.71841309 104.86703125 -155.9597168 105.5390625 C-161.76809431 123.36613727 -161.51658951 142.16224098 -161.6875 160.6875 C-161.7390625 165.0290625 -161.7390625 165.0290625 -162 187 C-180.48 187 -198.96 187 -218 187 C-218 206.14 -218 225.28 -218 245 C-199.52 245 -181.04 245 -162 245 C-162 299.12 -162 353.24 -162 409 C-187.99028854 406.40097115 -213.10050551 397.4304728 -236 385 C-236.32685791 384.82750732 -236.32685791 384.82750732 -237.98095703 383.95458984 C-248.33907835 378.48676186 -257.76150026 372.19030354 -267 365 C-267.94230469 364.27167969 -268.88460937 363.54335938 -269.85546875 362.79296875 C-317.47837669 324.87753687 -346.93993031 270.34812558 -354 210 C-354.13148438 208.89269531 -354.26296875 207.78539062 -354.3984375 206.64453125 C-359.35942442 154.82233004 -345.57123999 99.35906947 -315 57 C-314.58057129 56.40687012 -314.16114258 55.81374023 -313.72900391 55.20263672 C-305.99626442 44.30160283 -297.35770018 34.52931824 -288 25 C-287.39768555 24.38374756 -286.79537109 23.76749512 -286.17480469 23.13256836 C-281.10059273 17.99036141 -275.65784442 13.48953629 -270 9 C-268.98679687 8.18144531 -267.97359375 7.36289063 -266.9296875 6.51953125 C-259.04372836 0.22397652 -250.80076435 -5.0774032 -242 -10 C-241.23187988 -10.4345752 -240.46375977 -10.86915039 -239.67236328 -11.31689453 C-166.05301609 -52.62414236 -69.17351753 -49.92367 0 0 Z " fill="#000000" transform="translate(385,70)"/>
</svg>
