<?xml version="1.0" encoding="UTF-8"?>
<!-- Generator: visioncortex VTracer 0.6.12 -->
<svg version="1.1" xmlns="http://www.w3.org/2000/svg" width="512" height="512">
<path d="M0 0 C101.64 0 203.28 0 308 0 C307.41625798 8.75613027 306.83315235 17.38397785 305.79898071 26.07563782 C305.68181997 27.08595241 305.56465922 28.09626701 305.44394815 29.1371972 C305.05683314 32.46729579 304.66444552 35.79674967 304.27197266 39.1262207 C303.9906872 41.53578815 303.70970499 43.94539101 303.42900085 46.35502625 C302.67020907 52.85917371 301.90654356 59.3627411 301.14145708 65.86615014 C300.66292413 69.93417305 300.1856585 74.00234401 299.70866013 78.0705471 C298.38485034 89.35968538 297.05992644 100.64869103 295.72991371 111.93710041 C295.64514279 112.65659035 295.56037187 113.37608028 295.47303214 114.11737294 C295.30122627 115.57551761 295.12941907 117.03366213 294.95761056 118.49180648 C294.87234126 119.21549911 294.78707197 119.93919174 294.69921875 120.68481445 C294.61384335 121.40940006 294.52846796 122.13398567 294.44050543 122.88052841 C293.0550265 134.64108695 291.67811729 146.40263138 290.30496605 158.16463504 C288.89127804 170.27291217 287.47084725 182.38038238 286.04355085 194.48706311 C285.24381569 201.2718717 284.44687879 208.05698182 283.65730667 214.84298134 C282.91537061 221.21916511 282.16413431 227.59421053 281.40667152 233.9685688 C281.13065188 236.30383228 280.85768616 238.63945911 280.58804512 240.97546768 C280.21869063 244.17112111 279.83820157 247.3652637 279.45498657 250.5592804 C279.35156972 251.47709347 279.24815286 252.39490654 279.14160216 253.34053212 C277.52039307 266.56283118 273.60495507 275.97120963 263.8671875 285.140625 C253.58326801 291.8097608 243.09515505 291.57512926 231.30078125 291.51757812 C229.42539936 291.52300656 227.55002174 291.53013325 225.6746521 291.53881836 C220.60850329 291.55696883 215.54268231 291.55001849 210.47652817 291.53730202 C205.1592296 291.52713132 199.84195795 291.53657896 194.5246582 291.54284668 C185.59744256 291.55011126 176.67035954 291.54056662 167.74316406 291.52148438 C157.44169007 291.49971798 147.14053282 291.50677019 136.83906651 291.52879 C127.97332593 291.54697791 119.10768036 291.54948575 110.24192715 291.53903532 C104.95604198 291.53281903 99.67030539 291.53191329 94.38442993 291.54518127 C89.41348161 291.55678859 84.44293921 291.54862523 79.47203445 291.52560425 C77.65446266 291.52034315 75.83685633 291.52178606 74.01929855 291.53065491 C62.23881176 291.58281145 50.92762363 291.42622673 41.6875 283 C40.92824219 282.34 40.16898438 281.68 39.38671875 281 C32.64735643 272.52891937 30.06821533 263.65839423 29.01855469 253.05688477 C28.78606034 251.02412817 28.55350668 248.99137808 28.3197 246.958772 C28.05947233 244.66581119 27.8097689 242.37186716 27.56138611 240.07759476 C26.95447466 234.52264522 26.2882031 228.97529789 25.61779785 223.42770386 C24.54421743 214.52876484 23.48091339 205.62870968 22.43023682 196.72703552 C22.29032656 195.5417779 22.15041631 194.35652028 22.00626636 193.13534576 C21.71822568 190.6944432 21.43025059 188.25353291 21.14233875 185.81261516 C20.69912637 182.05595141 20.25543238 178.29934485 19.81157684 174.54275703 C18.33955799 162.08419078 16.86891765 149.62546292 15.40013483 137.16651481 C15.3609412 136.83405573 15.3609412 136.83405573 15.16259766 135.15161133 C15.08411306 134.48586496 15.00562847 133.82011858 14.92476556 133.13419808 C13.64423918 122.27288971 12.36022933 111.41199624 11.07471195 100.55127757 C9.74757601 89.3385946 8.42310257 78.1255997 7.10120845 66.91229731 C6.36177404 60.64024578 5.62125803 54.36832664 4.87802887 48.09672356 C4.18216201 42.22400298 3.48962231 36.3508996 2.79966545 30.47748184 C2.54609944 28.32384253 2.2913397 26.17034338 2.03530312 24.01699638 C1.68634625 21.08058319 1.34168581 18.14369648 0.99810791 15.20664978 C0.89578079 14.35424538 0.79345366 13.50184098 0.68802571 12.62360615 C0.59644083 11.83307993 0.50485594 11.04255372 0.41049576 10.22807217 C0.33064446 9.5515071 0.25079316 8.87494202 0.16852212 8.17787498 C-0.04182621 5.45946407 0 2.72653706 0 0 Z " fill="#000000" transform="translate(102,153)"/>
<path d="M0 0 C5.14374778 2.761146 8.07138244 6.0925721 10.1796875 11.46875 C10.81249628 14.68552797 11.00848186 17.2770559 10.9765625 20.51953125 C10.96979492 21.41325439 10.96302734 22.30697754 10.95605469 23.2277832 C10.9517041 23.56660522 10.9517041 23.56660522 10.9296875 25.28125 C12.1441153 25.27458817 13.35854309 25.26792633 14.60977173 25.26106262 C26.05703524 25.20023605 37.50426595 25.15526985 48.95165443 25.12581348 C54.83681603 25.11016057 60.72184711 25.08892883 66.60693359 25.05493164 C72.28683123 25.0223253 77.96660336 25.00439417 83.64658737 24.99661827 C85.81311392 24.99107709 87.97963363 24.98025655 90.14610672 24.96405983 C93.18170239 24.94226895 96.21678005 24.93928381 99.25244141 24.94067383 C100.14724213 24.929888 101.04204285 24.91910217 101.96395874 24.9079895 C108.44833254 24.94009851 112.47566708 26.38496149 117.6796875 30.40625 C119.9180181 33.2663391 120.38707628 34.52612269 121.0703125 37.9609375 C121.23563477 38.77030762 121.40095703 39.57967773 121.57128906 40.41357422 C121.6304248 40.72174072 121.6304248 40.72174072 121.9296875 42.28125 C122.36575317 42.27077637 122.36575317 42.27077637 124.57250977 42.21777344 C127.83596548 42.14923805 131.09864674 42.09927823 134.36254883 42.06152344 C135.76989884 42.04151754 137.17716688 42.01430338 138.58422852 41.97949219 C153.10850203 41.62938563 153.10850203 41.62938563 158.9296875 46.28125 C163.72383809 51.45388616 164.28840684 55.6436899 164.20703125 62.48828125 C163.77877922 66.80096013 162.59457976 68.84494156 159.9296875 72.28125 C155.15444734 75.98449747 151.62814171 77.40426444 145.6478014 77.41547108 C144.54600884 77.41992892 143.44421629 77.42438676 142.30903608 77.42897969 C141.0936919 77.42879533 139.87834772 77.42861097 138.62617493 77.42842102 C137.98251428 77.43025936 137.98251428 77.43025936 134.72520131 77.4395625 C131.14452539 77.44958669 127.56386623 77.45329996 123.98317826 77.45595181 C120.12413897 77.45985363 116.26511297 77.46943205 112.40608215 77.47816467 C103.082782 77.49793262 93.75948076 77.50799574 84.43616489 77.51689246 C80.04645913 77.52127485 75.65675459 77.52664179 71.26704979 77.53188133 C56.67601554 77.54889399 42.08498205 77.56338837 27.4939394 77.57063007 C23.70697847 77.57253999 19.92001755 77.57446032 16.13305664 77.57641602 C15.662437 77.57665789 15.662437 77.57665789 13.2808164 77.5778819 C-1.96816182 77.58618299 -17.21706162 77.61152106 -32.46600559 77.64399669 C-48.11907255 77.6770614 -63.77209964 77.6950783 -79.42520171 77.69827431 C-88.21493601 77.70043996 -97.00455594 77.70919662 -105.79425621 77.73473549 C-113.27970726 77.75643446 -120.76501617 77.76449689 -128.2504951 77.75476871 C-132.06924565 77.75022164 -135.88770288 77.75213357 -139.70641327 77.77153015 C-143.84844279 77.79238712 -147.98982084 77.78218423 -152.13188171 77.76899719 C-153.33607228 77.77996644 -154.54026286 77.79093568 -155.78094405 77.80223733 C-162.68573286 77.74909095 -167.207314 77.01552478 -173.0703125 73.28125 C-177.91880204 68.18411997 -178.42346014 63.87753284 -178.3515625 57.07421875 C-177.8113131 51.70924211 -175.45900606 48.56833184 -171.5078125 44.90625 C-167.35108399 42.13509766 -164.10672428 42.1629529 -159.21484375 42.18359375 C-158.8840255 42.18430122 -158.8840255 42.18430122 -157.20988464 42.18788147 C-155.10081422 42.19347004 -152.99185073 42.20602035 -150.8828125 42.21875 C-149.45117341 42.22376648 -148.01953265 42.22832913 -146.58789062 42.23242188 C-143.08199662 42.2434357 -139.576165 42.26069245 -136.0703125 42.28125 C-135.97161865 41.67796875 -135.8729248 41.0746875 -135.77124023 40.453125 C-134.85750082 35.58769557 -134.20805873 32.43823777 -130.1328125 29.28125 C-129.44316406 28.724375 -128.75351563 28.1675 -128.04296875 27.59375 C-125.02389534 25.58501997 -122.52334831 25.15647018 -118.98908997 25.16099548 C-118.57473442 25.16030815 -118.57473442 25.16030815 -116.47784424 25.15682983 C-115.57225769 25.16042511 -114.66667114 25.16402039 -113.73364258 25.16772461 C-113.25549858 25.1676516 -113.25549858 25.1676516 -110.83580017 25.1672821 C-107.6704584 25.16797956 -104.50517526 25.1757642 -101.33984375 25.18359375 C-99.14694755 25.18545852 -96.95405094 25.18688215 -94.76115417 25.18788147 C-88.98583834 25.19170198 -83.21054761 25.20152832 -77.4352417 25.21258545 C-71.54341979 25.22280956 -65.65159384 25.22738124 -59.75976562 25.23242188 C-48.19660355 25.24315098 -36.63346011 25.26022185 -25.0703125 25.28125 C-25.07647583 24.94786621 -25.07647583 24.94786621 -25.10766602 23.26074219 C-25.11725342 22.37547852 -25.12684082 21.49021484 -25.13671875 20.578125 C-25.14288208 20.14161621 -25.14288208 20.14161621 -25.17407227 17.93261719 C-24.97442482 12.83103781 -23.85610195 8.29079085 -20.41796875 4.421875 C-14.58593846 -0.75667198 -7.61540666 -2.64383929 0 0 Z " fill="#000000" transform="translate(263.0703125,42.71875)"/>
</svg>
