<?xml version="1.0" encoding="UTF-8"?>
<!-- Generator: visioncortex VTracer 0.6.12 -->
<svg version="1.1" xmlns="http://www.w3.org/2000/svg" width="512" height="512">
<path d="M0 0 C0.77988281 0.66902344 1.55976563 1.33804688 2.36328125 2.02734375 C14.23921658 12.46494976 25.34253797 23.56457662 34.74121094 36.296875 C35.97069396 37.96034931 37.22216212 39.60527552 38.4765625 41.25 C74.66476777 89.46985084 89.19859163 152.54493693 81.48095703 211.97167969 C74.91035525 256.70985444 56.57788551 298.7375875 27 333 C26.33097656 333.77988281 25.66195313 334.55976563 24.97265625 335.36328125 C14.53505024 347.23921658 3.43542338 358.34253797 -9.296875 367.74121094 C-10.96034931 368.97069396 -12.60527552 370.22216212 -14.25 371.4765625 C-63.32703384 408.30806952 -127.35056348 422.43659077 -187.6875 414.0390625 C-231.43989351 407.2213878 -272.4600711 388.95418345 -306 360 C-306.77988281 359.33097656 -307.55976563 358.66195313 -308.36328125 357.97265625 C-320.23921658 347.53505024 -331.34253797 336.43542338 -340.74121094 323.703125 C-341.97069396 322.03965069 -343.22216212 320.39472448 -344.4765625 318.75 C-380.63723472 270.56683624 -395.21919645 207.48966008 -387.48095703 148.10083008 C-380.89870821 103.25062308 -362.67543515 61.37541199 -333 27 C-332.33097656 26.22011719 -331.66195312 25.44023438 -330.97265625 24.63671875 C-320.53505024 12.76078342 -309.43542338 1.65746203 -296.703125 -7.74121094 C-295.03965069 -8.97069396 -293.39472448 -10.22216212 -291.75 -11.4765625 C-212.55551526 -70.91072126 -96.99796264 -70.86160417 0 0 Z " fill="#000000" transform="translate(409,76)"/>
</svg>
