<?xml version="1.0" encoding="UTF-8"?>
<!-- Generator: visioncortex VTracer 0.6.12 -->
<svg version="1.1" xmlns="http://www.w3.org/2000/svg" width="512" height="512">
<path d="M0 0 C0.7409367 -0.00436032 1.48187339 -0.00872064 2.24526271 -0.0132131 C4.74188107 -0.02420995 7.23795184 -0.01372695 9.73456669 -0.00342751 C11.53699609 -0.00688233 13.33942339 -0.01164571 15.14184624 -0.01760924 C20.10570068 -0.03017314 25.06938286 -0.02392441 30.03323805 -0.01465058 C35.38233702 -0.00788239 40.73140569 -0.01833025 46.0804987 -0.02659035 C56.56396288 -0.03995402 67.04736275 -0.03703815 77.53082948 -0.02835242 C86.04900425 -0.02158627 94.56716096 -0.02065452 103.08533764 -0.02392387 C104.29618493 -0.02438357 105.50703221 -0.02484327 106.75457184 -0.0253169 C109.21414606 -0.02627605 111.67372027 -0.02724869 114.13329447 -0.02823468 C137.21557579 -0.03679638 160.2978214 -0.02694239 183.38009686 -0.01083358 C203.19773934 0.00256861 223.0153291 0.00024383 242.83297062 -0.01358986 C265.82926317 -0.02963481 288.82552439 -0.03597055 311.82182175 -0.02675307 C314.27281955 -0.02579739 316.72381736 -0.02485428 319.17481518 -0.02392387 C319.77783152 -0.02369246 319.77783152 -0.02369246 322.82945965 -0.02252137 C331.33963965 -0.0199281 339.84979983 -0.02430977 348.35997677 -0.03136253 C358.7279195 -0.03976576 369.09579406 -0.03752228 379.46372896 -0.0215203 C384.75643577 -0.01362147 390.04902884 -0.01057339 395.34173489 -0.02046776 C400.18323991 -0.02938191 405.02452532 -0.02453609 409.86601032 -0.0085351 C411.621013 -0.00517333 413.37603408 -0.00691252 415.13102501 -0.01416247 C417.51032567 -0.02324037 419.8888669 -0.01397425 422.26812744 0 C422.95494794 -0.0070235 423.64176844 -0.014047 424.34940168 -0.02128333 C428.63158098 0.0292363 431.27035401 0.80369945 434.69698429 3.37752342 C438.02244916 7.45428347 438.21993049 11.49531453 438.30635929 16.57283592 C438.3149094 16.96688118 438.3149094 16.96688118 438.35817814 18.960989 C438.38644207 20.62673036 438.40609602 22.2926373 438.41768742 23.95857811 C438.44668238 26.47630756 438.53969029 28.98653266 438.63448429 31.50252342 C438.79130705 39.37439088 438.73556813 45.22299227 433.59542179 51.60799217 C432.00291442 53.2382069 430.37193752 54.8321395 428.69698429 56.37752342 C427.46332997 57.66087177 426.23136581 58.9458486 425.00167179 60.23299217 C423.863011 61.34835225 422.7198161 62.4591036 421.57198429 63.56502342 C417.30614338 67.74912367 413.19689533 71.95823305 409.33370304 76.52205467 C406.66525565 79.5471442 403.75501154 82.32703708 400.88448429 85.15877342 C398.89978087 87.17182974 397.03601513 89.23198745 395.19698429 91.37752342 C391.94533801 95.17111075 388.43985335 98.65144989 384.88448429 102.15877342 C382.89978087 104.17182974 381.03601513 106.23198745 379.19698429 108.37752342 C375.94533801 112.17111075 372.43985335 115.65144989 368.88448429 119.15877342 C366.89978087 121.17182974 365.03601513 123.23198745 363.19698429 125.37752342 C359.94533801 129.17111075 356.43985335 132.65144989 352.88448429 136.15877342 C350.89978087 138.17182974 349.03601513 140.23198745 347.19698429 142.37752342 C343.94533801 146.17111075 340.43985335 149.65144989 336.88448429 153.15877342 C334.89978087 155.17182974 333.03601513 157.23198745 331.19698429 159.37752342 C327.94533801 163.17111075 324.43985335 166.65144989 320.88448429 170.15877342 C318.89978087 172.17182974 317.03601513 174.23198745 315.19698429 176.37752342 C311.94533801 180.17111075 308.43985335 183.65144989 304.88448429 187.15877342 C302.89978087 189.17182974 301.03601513 191.23198745 299.19698429 193.37752342 C295.95013713 197.16551178 292.45039508 200.64116584 288.90010929 204.14314842 C286.26998727 206.81057714 283.81902589 209.5969288 281.40010929 212.45564842 C279.69698429 214.37752342 279.69698429 214.37752342 277.12922955 216.38084221 C273.68299329 220.62682497 274.00561021 223.9280467 274.07793522 229.24629784 C274.07169624 230.24751246 274.06545726 231.24872708 274.05902922 232.28028154 C274.04409295 235.63926812 274.06476918 238.99709497 274.08516788 242.35603905 C274.08162755 244.76243058 274.07585097 247.1688197 274.06800175 249.57520103 C274.05581181 254.75900312 274.0586834 259.9425669 274.07483387 265.1263485 C274.09791261 272.6266385 274.09058832 280.12666389 274.07530268 287.62696272 C274.05103403 299.80311621 274.04682433 311.979185 274.05733585 324.15535545 C274.05795968 324.88391701 274.0585835 325.61247857 274.05922623 326.36311775 C274.06049754 327.83766807 274.06177178 329.31221839 274.06304894 330.7867687 C274.06368132 331.51782677 274.0643137 332.24888484 274.06496525 333.00209618 C274.06560339 333.73379508 274.06624154 334.46549397 274.06689902 335.21936557 C274.07370488 343.34614037 274.07569598 351.47291397 274.07589054 359.59969139 C274.07591337 360.32736467 274.0759362 361.05503796 274.07595973 361.80476195 C274.0758905 373.93564339 274.06386333 386.06649267 274.04493105 398.19735861 C274.03396556 405.67932848 274.03480028 413.16112991 274.05087079 420.64309156 C274.06256902 426.37378754 274.05957595 432.10439982 274.05124187 437.83509827 C274.0504299 440.1873401 274.05480321 442.53959016 274.06468487 444.89181137 C274.07750312 448.0976356 274.0720529 451.30292676 274.06206608 454.50874901 C274.07032425 455.44405653 274.07858243 456.37936406 274.08709085 457.34301424 C274.05123931 462.18264796 273.86042918 465.45651455 270.69698429 469.37752342 C267.78017098 471.87764912 266.2053484 472.37159152 262.34932804 472.41658592 C255.68828278 471.43855431 250.09228007 467.32261706 244.44698429 463.87752342 C243.15772077 463.10471704 241.86774908 462.33309101 240.57711124 461.56258202 C237.25011477 459.57123881 233.93370604 457.56301461 230.62111759 455.54781151 C228.79075447 454.43455592 226.95883231 453.3239254 225.12618351 452.21443748 C220.56563345 449.45291772 216.00668681 446.68881819 211.45650578 443.91023827 C203.04694442 438.77820593 194.5820973 433.74484843 186.09832096 428.73662376 C167.01905684 417.46445169 167.01905684 417.46445169 158.32198429 411.94002342 C157.65078556 411.52188377 156.97958683 411.10374413 156.28804874 410.67293358 C153.00344441 408.54668517 151.02601707 407.06912965 149.69698429 403.37752342 C149.52357205 400.87373994 149.45865315 398.48631968 149.49253178 395.98517418 C149.4945006 395.23814407 149.49646942 394.49111396 149.4984979 393.72144657 C149.50725449 391.21661308 149.53013554 388.71210167 149.55269718 386.20735741 C149.56140669 384.41183488 149.56908186 382.61630707 149.57579899 380.82077599 C149.59141849 376.9520678 149.61228336 373.08343462 149.63654613 369.21477127 C149.67279426 363.0911244 149.68436027 356.96759004 149.69001102 350.84384727 C149.69107556 349.80992031 149.69214009 348.77599335 149.69323689 347.71073526 C149.69537633 345.59630844 149.69746331 343.48188157 149.69949901 341.36745465 C149.71434987 327.11166906 149.74589707 312.85638864 149.84420109 298.60091209 C149.91032785 288.98439033 149.93731839 279.36862351 149.91965002 269.75187927 C149.9118823 264.66533028 149.92399504 259.58057991 149.98408031 254.4943428 C150.04038723 249.7042003 150.0449891 244.91672615 150.01098347 240.12639999 C150.00760139 238.37487318 150.02283034 236.62318913 150.05870342 234.87202644 C150.34023701 220.2920374 150.34023701 220.2920374 144.84744304 214.42442328 C142.56897868 212.2774066 140.13957495 210.33358309 137.69698429 208.37752342 C136.45448145 207.03332063 135.23693549 205.66446646 134.07198429 204.25252342 C130.86732346 200.4958636 127.39812367 197.06243119 123.88448429 193.59627342 C121.29501548 190.9698122 118.90861465 188.20775884 116.50948429 185.40877342 C114.48605549 183.1411377 112.36045082 181.01175392 110.19698429 178.87752342 C107.43138022 176.14922935 104.78411398 173.39235508 102.25948429 170.44002342 C99.54079181 167.26716422 96.66946754 164.31413961 93.69698429 161.37752342 C90.1113973 157.83520144 86.74806767 154.20196681 83.47432804 150.37361717 C80.74721207 147.31085615 77.80293792 144.47528849 74.88448429 141.59627342 C72.29501548 138.9698122 69.90861465 136.20775884 67.50948429 133.40877342 C65.48605549 131.1411377 63.36045082 129.01175392 61.19698429 126.87752342 C57.78979639 123.5163786 54.62240255 120.04051139 51.50948429 116.40877342 C49.48605549 114.1411377 47.36045082 112.01175392 45.19698429 109.87752342 C41.78979639 106.5163786 38.62240255 103.04051139 35.50948429 99.40877342 C33.48605549 97.1411377 31.36045082 95.01175392 29.19698429 92.87752342 C26.43138022 90.14922935 23.78411398 87.39235508 21.25948429 84.44002342 C18.54079181 81.26716422 15.66946754 78.31413961 12.69698429 75.37752342 C9.1140189 71.8377914 5.75222436 68.20812351 2.48214054 64.38142967 C0.43019546 62.07804274 -1.73242646 59.91917574 -3.92801571 57.75252342 C-10.95495784 50.79752951 -14.44888251 46.57471738 -14.50614071 36.38533592 C-14.51184078 35.60238152 -14.51754086 34.81942711 -14.52341366 34.01274681 C-14.53285416 32.35684621 -14.53939387 30.70092691 -14.54325008 29.04500389 C-14.55295323 26.51878976 -14.58398353 23.99339034 -14.61551571 21.46736717 C-14.62204646 19.85669491 -14.62729665 18.24601684 -14.63114071 16.63533592 C-14.64348751 15.88309746 -14.65583431 15.13085899 -14.66855526 14.35582542 C-14.6494363 9.82828932 -14.14311869 6.94328795 -11.30301571 3.37752342 C-7.84079342 -0.00181807 -4.61020704 -0.0469843 0 0 Z M7.69698429 21.37752342 C7.69698429 38.37752342 7.69698429 38.37752342 10.75948429 42.44002342 C12.0632041 43.43085048 13.37583069 44.41006449 14.69698429 45.37752342 C15.83312931 46.61985022 16.93676091 47.89253896 18.00948429 49.19002342 C20.77316458 52.40086098 23.68318025 55.40019508 26.69698429 58.37752342 C30.28257128 61.91984541 33.64590091 65.55308003 36.91964054 69.38142967 C38.92967206 71.63884968 41.04531382 73.75488055 43.19698429 75.87752342 C45.96258837 78.60581749 48.6098546 81.36269176 51.13448429 84.31502342 C53.85317677 87.48788262 56.72450104 90.44090724 59.69698429 93.37752342 C63.28257128 96.91984541 66.64590091 100.55308003 69.91964054 104.38142967 C71.92967206 106.63884968 74.04531382 108.75488055 76.19698429 110.87752342 C78.96258837 113.60581749 81.6098546 116.36269176 84.13448429 119.31502342 C86.85317677 122.48788262 89.72450104 125.44090724 92.69698429 128.37752342 C96.28257128 131.91984541 99.64590091 135.55308003 102.91964054 139.38142967 C104.92967206 141.63884968 107.04531382 143.75488055 109.19698429 145.87752342 C111.96258837 148.60581749 114.6098546 151.36269176 117.13448429 154.31502342 C119.85317677 157.48788262 122.72450104 160.44090724 125.69698429 163.37752342 C129.28257128 166.91984541 132.64590091 170.55308003 135.91964054 174.38142967 C137.92967206 176.63884968 140.04531382 178.75488055 142.19698429 180.87752342 C145.57472171 184.20969272 148.71288061 187.65258335 151.79464054 191.25642967 C154.92765402 194.74970753 158.30061303 197.99979557 161.65792179 201.27596092 C163.69698429 203.37752342 163.69698429 203.37752342 164.69698429 205.37752342 C176.83190336 205.56302939 188.9664842 205.7051046 201.10253334 205.7920208 C206.73812409 205.8337407 212.37274357 205.89031129 218.00777531 205.98103905 C223.44785865 206.06807807 228.88700896 206.11582161 234.32773495 206.13654137 C236.40145843 206.15130308 238.47513182 206.1801309 240.54845715 206.22336388 C243.45788615 206.28160858 246.36348042 206.28943018 249.27340031 206.28572655 C250.1272028 206.31448875 250.98100529 206.34325096 251.86068058 206.37288475 C255.61622669 206.32129427 257.82647921 206.12109014 260.74289608 203.62994957 C262.51287346 201.61296622 264.10821195 199.53820412 265.69698429 197.37752342 C267.34392914 195.6913656 269.00824551 194.02182171 270.69698429 192.37752342 C274.28257128 188.83520144 277.64590091 185.20196681 280.91964054 181.37361717 C283.64797715 178.30948529 286.59366337 175.47270511 289.51339054 172.59236717 C291.476731 170.60092882 293.31778098 168.56449764 295.13448429 166.44002342 C298.6416787 162.34694039 302.45423588 158.60527638 306.28682804 154.81892967 C308.96552961 152.10549615 311.44306547 149.2697532 313.91964054 146.37361717 C316.64797715 143.30948529 319.59366337 140.47270511 322.51339054 137.59236717 C324.476731 135.60092882 326.31778098 133.56449764 328.13448429 131.44002342 C331.6416787 127.34694039 335.45423588 123.60527638 339.28682804 119.81892967 C341.96552961 117.10549615 344.44306547 114.2697532 346.91964054 111.37361717 C349.64797715 108.30948529 352.59366337 105.47270511 355.51339054 102.59236717 C357.476731 100.60092882 359.31778098 98.56449764 361.13448429 96.44002342 C364.6416787 92.34694039 368.45423588 88.60527638 372.28682804 84.81892967 C374.96552961 82.10549615 377.44306547 79.2697532 379.91964054 76.37361717 C382.64797715 73.30948529 385.59366337 70.47270511 388.51339054 67.59236717 C390.476731 65.60092882 392.31778098 63.56449764 394.13448429 61.44002342 C397.63209806 57.3581215 401.43317198 53.62589986 405.25557804 49.85017967 C408.56816463 46.49519197 411.63723716 42.96126394 414.69698429 39.37752342 C415.02698429 39.04752342 415.35698429 38.71752342 415.69698429 38.37752342 C415.69698429 32.76752342 415.69698429 27.15752342 415.69698429 21.37752342 C281.05698429 21.37752342 146.41698429 21.37752342 7.69698429 21.37752342 Z M171.69698429 226.37752342 C171.69698429 282.14752342 171.69698429 337.91752342 171.69698429 395.37752342 C176.97698429 398.34752342 182.25698429 401.31752342 187.69698429 404.37752342 C192.04558385 406.98150625 196.37852674 409.60006159 200.69698429 412.25252342 C203.10177643 413.72236763 205.50845004 415.18910862 207.91573429 416.65486717 C208.53549137 417.03230568 209.15524845 417.40974419 209.79378605 417.79862022 C217.56363743 422.52302618 225.37882463 427.17115583 233.19698429 431.81502342 C233.89710636 432.23161217 234.59722843 432.64820091 235.31856632 433.07741356 C237.3083539 434.26106491 239.29931787 435.44270877 241.29073429 436.62361717 C241.8811652 436.97493202 242.47159611 437.32624687 243.07991886 437.68820763 C245.91534761 439.36572575 248.74586648 440.90196452 251.69698429 442.37752342 C251.69698429 371.09752342 251.69698429 299.81752342 251.69698429 226.37752342 C225.29698429 226.37752342 198.89698429 226.37752342 171.69698429 226.37752342 Z " fill="#000000" transform="translate(44.30301570892334,19.62247657775879)"/>
</svg>
