<?xml version="1.0" encoding="UTF-8"?>
<!-- Generator: visioncortex VTracer 0.6.12 -->
<svg version="1.1" xmlns="http://www.w3.org/2000/svg" width="512" height="512">
<path d="M0 0 C0.52746323 -0.03380516 0.52746323 -0.03380516 3.19674683 -0.20487976 C13.04478811 -0.80627051 22.89770211 -1.17964859 32.75919628 -1.47821331 C39.35628084 -1.68395925 45.93057512 -1.96555136 52.51513672 -2.44335938 C95.84778923 -5.50596205 95.84778923 -5.50596205 107.20287704 2.7036438 C112.28722558 7.55510088 116.42820941 13.18957543 120.63594818 18.79826546 C130.6146915 32.0160777 139.95855028 42.37693302 156.73416138 45.06985474 C169.16369293 46.75417197 181.70062633 46.95663685 194.22583008 46.9597168 C194.77339411 46.9599048 194.77339411 46.9599048 197.54439998 46.9608562 C211.19520677 46.9307859 224.82716973 46.53969797 238.46725696 46.02436441 C251.36738418 45.54429007 264.27007143 45.33032081 277.17700195 45.1237793 C281.71984237 45.05050949 286.262655 44.97587433 290.80543518 44.8989563 C291.35560422 44.88968992 291.35560422 44.88968992 294.13979298 44.84279644 C301.6716025 44.70827453 309.19868522 44.49588027 316.72764587 44.25167847 C319.71161896 44.16287279 322.69563735 44.07582556 325.67968369 43.98951912 C327.53464132 43.93124037 329.38937915 43.86536056 331.24376488 43.79107857 C346.70218491 43.17267567 357.47547806 45.2771229 369.54223633 55.7800293 C378.62180146 64.99396432 381.69546073 77.28246786 381.68267822 89.80445862 C381.68416378 90.25971915 381.68416378 90.25971915 381.69168162 92.56361336 C381.7003554 95.6156604 381.70187577 98.66766817 381.70336914 101.71972656 C381.70799833 103.9078632 381.71302313 106.09599902 381.71841431 108.28413391 C381.73153252 114.2307346 381.73798241 120.177324 381.74242496 126.12393689 C381.74535725 129.84126706 381.74946241 133.55859416 381.75392914 137.27592278 C381.76838972 149.58120069 381.77771872 161.88647014 381.78179565 174.19175578 C381.78190703 174.52330943 381.78190703 174.52330943 381.7824707 176.20117188 C381.78269213 176.86509435 381.78291356 177.52901683 381.7831417 178.21305817 C381.78708534 188.95849842 381.80452664 199.70387067 381.82783023 210.44928468 C381.85159371 221.49650552 381.86375087 232.54369061 381.86517215 243.59093708 C381.86621867 249.78740068 381.87209374 255.9837684 381.88999176 262.18020821 C381.9065131 268.01361651 381.90860816 273.84685727 381.89985275 279.68028069 C381.8990845 281.81511256 381.90339704 283.94995358 381.913311 286.08476257 C381.98842977 303.27598943 381.04277941 317.57934312 369.04223633 330.9675293 C361.00114209 338.61978919 350.40621115 342.89867896 339.39514637 342.91145706 C338.77320783 342.91337763 338.77320783 342.91337763 335.62582189 342.9230969 C334.24825396 342.9223167 332.87068609 342.92143793 331.49311829 342.92047119 C330.02750021 342.92305563 328.56188284 342.92606901 327.09626645 342.92947459 C323.06790551 342.93753863 319.0395624 342.93933383 315.01119435 342.94007206 C310.66680558 342.94192365 306.32242603 342.94947153 301.9780426 342.95620728 C292.47797149 342.9697869 282.9779046 342.97581474 273.4778254 342.98021793 C267.54536299 342.98298099 261.61290221 342.98721846 255.6804409 342.99172211 C239.2535592 343.0039143 222.8266788 343.01421371 206.39979267 343.0175972 C205.34851429 343.01781676 204.29723591 343.01803633 203.21410061 343.01826255 C202.16031422 343.01848083 201.10652783 343.01869911 200.02080852 343.018924 C197.88545438 343.01936746 195.75010023 343.01981403 193.61474609 343.02026367 C192.55553785 343.0204851 191.4963296 343.02070653 190.40502413 343.02093467 C173.2434503 343.02488238 156.08191893 343.04233581 138.9203615 343.06562319 C121.29873985 343.08934175 103.67713951 343.10179928 86.05550164 343.10296512 C76.16246394 343.10388159 66.26948157 343.10962706 56.37645912 343.12778473 C47.95203189 343.1431925 39.52767709 343.14830217 31.10323844 343.14004663 C26.80631984 343.13614253 22.50954709 343.13705798 18.21264648 343.15110397 C14.27515438 343.16385721 10.33791751 343.16263298 6.40042569 343.15051326 C4.97981199 343.14855872 3.55918012 343.15162345 2.13859192 343.16035762 C-12.42203812 343.2441765 -23.78709593 340.14141938 -34.70776367 330.1550293 C-44.43622398 319.85546504 -46.76992541 307.30575344 -46.71846008 293.68009949 C-46.72228563 292.59465153 -46.72611118 291.50920356 -46.73005265 290.39086324 C-46.74033261 286.77077946 -46.73639997 283.15085578 -46.73242188 279.53076172 C-46.73677113 276.9282466 -46.74195499 274.32573276 -46.74790955 271.72322083 C-46.7606292 265.39774078 -46.76245363 259.07230323 -46.76010928 252.74681254 C-46.75832275 247.60219775 -46.76008294 242.45759582 -46.76433372 237.31298256 C-46.76492891 236.57942055 -46.7655241 235.84585855 -46.76613733 235.09006739 C-46.76734914 233.59958797 -46.76856328 232.10910855 -46.7697797 230.61862914 C-46.7806449 216.654791 -46.7784977 202.69097704 -46.77239486 188.72713754 C-46.7672277 175.97086277 -46.77847765 163.21466441 -46.79749308 150.45840474 C-46.81689618 137.3408707 -46.82512308 124.22337277 -46.82136983 111.10582429 C-46.81946139 103.74912998 -46.82191028 96.39250066 -46.83608437 89.0358181 C-46.84928313 82.11564862 -46.84670461 75.19563414 -46.83367348 68.27546501 C-46.83131128 65.74071958 -46.83402951 63.20596336 -46.8422966 60.67123032 C-46.85279579 57.20094783 -46.84463742 53.73117467 -46.83198547 50.26091003 C-46.83935976 49.26701096 -46.84673404 48.27311189 -46.85433179 47.24909467 C-46.75200571 33.83204788 -42.95430126 22.62935174 -33.95776367 12.5925293 C-24.37022171 3.46860155 -12.73295406 0.80130282 0 0 Z " fill="#FFC927" transform="translate(88.457763671875,84.219970703125)"/>
<path d="M0 0 C0.45686738 -0.03108872 0.45686738 -0.03108872 2.76889324 -0.18841648 C3.26461535 -0.21955776 3.26461535 -0.21955776 5.77326965 -0.37715149 C6.30104586 -0.41047939 6.30104586 -0.41047939 8.97191334 -0.57913876 C22.80587211 -1.41433189 36.64899006 -1.93401841 50.50300598 -2.28462219 C51.16508324 -2.30204389 51.8271605 -2.31946559 52.50930071 -2.33741522 C112.15970473 -3.87122006 112.15970473 -3.87122006 130.49404907 12.50369263 C139.33436299 20.93612313 147.03635202 31.37192849 152.31550598 42.40287781 C152.31550598 42.73287781 152.31550598 43.06287781 152.31550598 43.40287781 C151.51319959 43.40342257 150.71089319 43.40396734 149.88427448 43.40452862 C130.31844152 43.41952767 110.75284389 43.46210053 91.18713856 43.53496838 C81.72510031 43.56954983 72.26320672 43.59496489 62.80110168 43.59843445 C54.54923635 43.60148389 46.29762908 43.62210555 38.04586333 43.66340238 C33.68078838 43.6846455 29.31607951 43.69737803 24.95095253 43.6890316 C20.83278854 43.68143596 16.71536292 43.69753507 12.59733391 43.73093796 C11.09507548 43.73910544 9.59274269 43.73899986 8.09049225 43.72947502 C-5.05913323 43.65443137 -16.32720603 46.31233548 -26.46574402 55.11772156 C-33.80926566 62.6810317 -37.10570838 71.3279948 -39.68449402 81.40287781 C-40.01449402 81.40287781 -40.34449402 81.40287781 -40.68449402 81.40287781 C-40.75931211 75.49877106 -40.81340858 69.59494749 -40.84928894 63.69047546 C-40.86426544 61.68684575 -40.88465382 59.6832482 -40.91081238 57.67973328 C-41.13253873 40.24595557 -40.3609915 25.7998643 -28.18449402 12.21537781 C-20.58794055 4.98616252 -10.38740666 0.70613369 0 0 Z " fill="#FFA000" transform="translate(82.68449401855469,84.59712219238281)"/>
</svg>
