<?xml version="1.0" encoding="UTF-8"?>
<!-- Generator: visioncortex VTracer 0.6.12 -->
<svg version="1.1" xmlns="http://www.w3.org/2000/svg" width="512" height="512">
<path d="M0 0 C0.77186195 -0.00205263 1.5437239 -0.00410527 2.33897561 -0.0062201 C4.94664732 -0.0119115 7.55426657 -0.01043023 10.16194344 -0.00901413 C12.04187873 -0.01159653 13.92181347 -0.01460934 15.80174744 -0.01801753 C20.98443673 -0.02610532 26.16711218 -0.02787809 31.34980702 -0.028615 C36.93272796 -0.03046244 42.51564166 -0.03800815 48.09855843 -0.04475021 C60.31320201 -0.05834614 72.52784231 -0.06436006 84.7424922 -0.06876087 C92.36440761 -0.07152086 99.98632176 -0.07575774 107.60823631 -0.08026505 C128.69738559 -0.09245878 149.78653403 -0.10279366 170.87568665 -0.10614014 C172.23969428 -0.10636177 173.60370191 -0.10658355 174.96770955 -0.10680549 C176.33503751 -0.10702613 177.70236548 -0.10724661 179.06969345 -0.10746694 C181.81285596 -0.10790949 184.55601847 -0.10835661 187.29918098 -0.10880661 C187.63925389 -0.10886131 187.63925389 -0.10886131 189.36022891 -0.1091381 C211.4220711 -0.11277005 233.48388046 -0.12869535 255.54571008 -0.15199697 C278.86242299 -0.17657905 302.17911458 -0.19030547 325.49584305 -0.19150805 C338.20958256 -0.19242615 350.92327907 -0.19821225 363.63700676 -0.21632767 C374.46060685 -0.23169523 385.28415066 -0.23686891 396.10775958 -0.22858956 C401.63336934 -0.22467133 407.15886565 -0.22566969 412.68446159 -0.23964691 C417.73879196 -0.25231554 422.79292281 -0.25125066 427.84725262 -0.2390562 C429.67967774 -0.23708694 431.51211666 -0.2402338 433.34452234 -0.24890056 C435.82823401 -0.25990785 438.31123086 -0.25256616 440.79492188 -0.24050903 C441.51251079 -0.24810423 442.2300997 -0.25569942 442.96943372 -0.26352477 C447.33807204 -0.21748967 450.07060135 0.42694653 453.52330208 3.13142776 C456.32271803 6.07289793 456.8988143 8.03838139 456.90361881 12.05946064 C456.91205875 13.05689228 456.92049869 14.05432392 456.92919439 15.08198076 C456.92318435 16.17563729 456.9171743 17.26929382 456.91098213 18.39609146 C456.9136749 18.97786769 456.9136749 18.97786769 456.92730194 21.92200798 C456.93914762 25.15269273 456.93750317 28.38304789 456.93013513 31.6137358 C456.92541233 35.09791386 456.9379058 38.58203615 456.94815254 42.06619644 C456.96536664 48.89403162 456.96617472 55.72177487 456.96093964 62.54962612 C456.95689955 68.10198256 456.9583396 73.65431181 456.9636879 79.20666695 C456.96443632 79.99670235 456.96518474 80.78673775 456.96595584 81.60071362 C456.96748733 83.20570645 456.96902568 84.81069927 456.97057081 86.41569208 C456.98430669 101.47634183 456.97885179 116.53693967 456.9673856 131.59758823 C456.95746439 145.36365586 456.97037265 159.12958887 456.99431979 172.89563573 C457.01873166 187.03567465 457.02831277 201.17565092 457.02166706 215.31571048 C457.01817789 223.25205485 457.02038627 231.18829584 457.03791809 239.12462425 C457.05266672 245.88498454 457.05324153 252.64516876 457.03584718 259.40552569 C457.02735423 262.85200497 457.02514497 266.2981701 457.04049873 269.74463272 C457.05371513 273.48934272 457.04215333 277.23320467 457.02450752 280.97787857 C457.03411253 282.05592005 457.04371754 283.13396153 457.0536136 284.24467093 C456.95897083 294.03929924 454.62652659 303.11023505 447.70689583 310.34236526 C438.77778088 317.65816964 429.36067486 319.2536849 418.16652393 319.26006222 C417.46835553 319.26181525 416.77018713 319.26356829 416.0508621 319.26537445 C413.72392142 319.27000652 411.39704399 319.26757621 409.07010078 319.26514053 C407.3798673 319.26700991 405.68963424 319.26931112 403.99940187 319.27200586 C399.36406321 319.27811452 394.7287426 319.27799136 390.09340084 319.27681148 C385.09055483 319.27660724 380.0877146 319.28212844 375.08487129 319.28686905 C365.28710732 319.29517089 355.48934936 319.29792367 345.69158217 319.29848143 C337.72704893 319.29895678 329.76251768 319.30101248 321.79798508 319.30418205 C299.21258491 319.31298711 276.62718949 319.31760162 254.04178759 319.31685158 C252.82453258 319.31681162 251.60727758 319.31677167 250.35313606 319.3167305 C249.13439343 319.31668962 247.9156508 319.31664874 246.65997658 319.31660662 C226.90620336 319.31620012 207.15244919 319.32577099 187.39868148 319.33986887 C167.11126112 319.35423327 146.82385004 319.36113902 126.53642446 319.36027509 C115.14832111 319.35994316 103.76023774 319.36268865 92.37213898 319.37345314 C82.67678286 319.38255894 72.98145579 319.3847327 63.28609725 319.37794372 C58.34098289 319.37467902 53.39592426 319.37462009 48.4508152 319.38329697 C43.9200726 319.39116494 39.38942988 319.38972746 34.8586897 319.38101283 C33.22348104 319.37947852 31.58826492 319.38129143 29.95306506 319.38687291 C15.96114592 319.43145233 3.77862301 319.09299416 -7.29310417 309.56892776 C-14.82707997 301.7139555 -16.07106312 291.40454154 -15.99136162 280.99133682 C-15.99830715 279.81827557 -16.00525267 278.64521432 -16.01240867 277.43660575 C-16.02743872 274.21199161 -16.02478194 270.98797838 -16.01425564 267.76336515 C-16.00722265 264.27393725 -16.02329194 260.78460075 -16.03625298 257.29520035 C-16.05782593 250.47332184 -16.0577841 243.65161057 -16.04962743 236.82970919 C-16.04331486 231.28557486 -16.04447594 225.74148911 -16.05089951 220.19735527 C-16.05180116 219.40682468 -16.05270282 218.61629409 -16.05363179 217.80180803 C-16.05548306 216.19567728 -16.05734562 214.58954654 -16.05921935 212.98341582 C-16.07577273 197.94576199 -16.06709776 182.90820217 -16.05023377 167.87055401 C-16.03552076 154.11445637 -16.05019202 140.35857683 -16.07900394 126.60250726 C-16.10839244 112.46565109 -16.11937299 98.32889561 -16.10982174 84.19201022 C-16.10879921 82.59348064 -16.1078046 80.99495105 -16.10683823 79.39642143 C-16.10636184 78.60997503 -16.10588545 77.82352863 -16.10539462 77.01325053 C-16.10323076 71.47400287 -16.11303239 65.93485065 -16.12760925 60.39562416 C-16.14511918 53.64806309 -16.14503384 46.90078063 -16.1222576 40.15323057 C-16.11110615 36.71131221 -16.10797285 33.26988496 -16.1265583 29.82798767 C-16.14241884 26.097053 -16.12760143 22.36747057 -16.10488701 18.63660049 C-16.11672274 17.54876965 -16.12855847 16.4609388 -16.14075285 15.34014338 C-16.03941479 7.17068446 -16.03941479 7.17068446 -13.1249361 3.47485447 C-8.94996957 -0.21957458 -5.29969724 -0.01298357 0 0 Z " fill="#000000" transform="translate(35.47669792175293,152.86857223510742)"/>
<path d="M0 0 C0.44689682 -0.00167931 0.44689682 -0.00167931 2.70846558 -0.01017761 C5.64102598 -0.01961835 8.57352889 -0.02162707 11.50610352 -0.02270508 C13.55819217 -0.0259218 15.61028059 -0.02928618 17.66236877 -0.03279114 C21.95509371 -0.03876474 26.24779855 -0.04063279 30.54052734 -0.04003906 C36.02565216 -0.0399374 41.51064767 -0.05360231 46.99574184 -0.07081127 C51.23123256 -0.08195833 55.46669224 -0.08395746 59.70219612 -0.08342934 C61.72388213 -0.08460488 63.74556906 -0.08900261 65.76724052 -0.0967617 C68.60012632 -0.10661891 71.4327342 -0.10366131 74.265625 -0.09765625 C75.09031784 -0.10327576 75.91501068 -0.10889526 76.76469421 -0.11468506 C85.41942681 -0.06834148 92.65098962 1.12744119 99.38500977 6.78588867 C104.19799487 11.69643428 107.91467911 17.43256271 111.69750977 23.14526367 C112.14868164 23.82379395 112.59985352 24.50232422 113.06469727 25.20141602 C113.29286133 25.54470947 113.29286133 25.54470947 114.44750977 27.28198242 C114.89747314 27.95874023 115.34743652 28.63549805 115.81103516 29.33276367 C116.67496528 30.6378191 117.53377967 31.94627976 118.38671875 33.25854492 C122.28441722 39.21016383 122.28441722 39.21016383 124.69750977 41.14526367 C126.83473068 41.51555783 126.83473068 41.51555783 129.36473179 41.50882053 C130.32943852 41.51356028 131.29414525 41.51830003 132.28808552 41.52318341 C133.35031848 41.51308064 134.41255143 41.50297788 135.50697327 41.49256897 C136.63362489 41.49372111 137.76027651 41.49487326 138.92106909 41.49606031 C142.71658226 41.49631954 146.51167805 41.4750891 150.30712891 41.45410156 C153.02037467 41.44830347 155.73361776 41.4470649 158.4468689 41.44569397 C164.30073633 41.44043964 170.15449483 41.42440621 176.00831795 41.40132332 C184.48287957 41.36809954 192.95739653 41.35333246 201.43201392 41.3434686 C215.19526735 41.32713423 228.95846752 41.29886865 242.72167969 41.26171875 C243.54576037 41.25949762 244.36984105 41.2572765 245.21889388 41.25498807 C248.55742589 41.24597354 251.89595784 41.23693766 255.23448971 41.22787193 C264.40990268 41.20307186 273.58532072 41.18058936 282.76074219 41.15917969 C283.58169776 41.15726071 284.40265333 41.15534173 285.24848635 41.15336461 C298.95115043 41.12162276 312.65381958 41.09791478 326.35650724 41.07909769 C334.80566108 41.06704205 343.2547324 41.04728222 351.70384269 41.01749121 C357.49924514 40.99744993 363.29463573 40.98441004 369.09006775 40.97680051 C372.43105556 40.97213807 375.77187651 40.96303072 379.11284065 40.94722748 C382.74166444 40.93051396 386.37030341 40.92624305 389.99916077 40.92494202 C391.04577867 40.91706997 392.09239658 40.90919793 393.17073017 40.90108734 C404.23531065 40.92508595 414.10536408 42.41296307 422.67407227 49.86401367 C434.85689359 62.51341114 431.69750977 77.26617566 431.69750977 94.14526367 C275.93750977 94.14526367 120.17750977 94.14526367 -40.30249023 94.14526367 C-40.30249023 18.1488927 -40.30249023 18.1488927 -31.48608398 8.93432617 C-21.94134998 1.11413266 -11.82835052 -0.00648401 0 0 Z " fill="#000000" transform="translate(60.302490234375,39.854736328125)"/>
</svg>
