<?xml version="1.0" encoding="UTF-8"?>
<!-- Generator: visioncortex VTracer 0.6.12 -->
<svg version="1.1" xmlns="http://www.w3.org/2000/svg" width="512" height="512">
<path d="M0 0 C1.56431294 1.53780395 3.11216909 3.09245306 4.64692879 4.65975285 C5.50566664 5.51265858 6.36440449 6.36556432 7.2491647 7.24431568 C9.62548645 9.61053273 11.9876209 11.98945888 14.34471321 14.37474072 C16.89138812 16.94528434 19.45537508 19.49845724 22.01727486 22.05381107 C27.0308789 27.0600053 32.02845323 32.0819141 37.02098064 37.1091178 C42.83275088 42.95987272 48.66103108 48.79406335 54.49027909 54.62739635 C64.88716212 65.03253243 75.27021345 75.4513597 85.64500618 85.8785181 C95.7190522 96.00336616 105.8007718 106.12047991 115.89207649 116.22812748 C116.2030153 116.53957175 116.2030153 116.53957175 117.77655409 118.11566853 C120.27602677 120.61916087 122.77552807 123.12262462 125.27507346 125.62604436 C136.04399281 136.41197878 146.80719334 147.20361955 157.56907016 157.99658027 C159.31377168 159.74627727 161.05856919 161.4958785 162.80337477 163.24547172 C169.42382597 169.88447733 176.04127009 176.5264581 182.65447235 183.17268467 C184.66219547 185.19026308 186.67106248 187.20669149 188.68096924 189.22209454 C191.41336016 191.96207131 194.14182514 194.70593526 196.86982918 197.45028019 C197.67534969 198.25698058 198.48087021 199.06368097 199.31080043 199.89482683 C199.67365235 200.26052437 199.67365235 200.26052437 201.50990295 202.11117554 C201.82526204 202.42797098 201.82526204 202.42797098 203.42117012 204.0311479 C206.04271227 206.88869957 206.40141526 209.56841225 206.3461991 213.42431682 C205.76395529 216.14964393 204.76177007 217.31190535 202.87709141 219.35057259 C202.55752427 219.69834757 202.55752427 219.69834757 200.94032085 221.45829976 C197.45849258 225.10438128 193.94342175 228.71119542 190.38281441 232.28048038 C189.55351683 233.11557135 188.72421925 233.95066231 187.86979145 234.81105906 C185.58831703 237.10735775 183.30468259 239.40148107 181.02001417 241.69460118 C179.05596376 243.66671182 177.093729 245.64062421 175.13149161 247.61453854 C168.11583852 254.67185736 161.09304963 261.72205674 154.0688343 268.77085209 C153.5142779 269.32738339 152.9597215 269.8839147 152.38836035 270.45731059 C141.36706541 281.51776279 130.34301589 292.57546632 119.3132658 303.62748718 C116.89475343 306.05096823 114.476279 308.47448713 112.05784798 310.89804935 C111.75732907 311.19920359 111.75732907 311.19920359 110.2365213 312.72322655 C100.48300685 322.4981387 90.74340104 332.28679218 81.00920404 342.08093744 C71.00554935 352.14568955 60.9887377 362.19719813 50.95913357 372.23609263 C45.33177858 377.86935846 39.7104886 383.50840438 34.10408401 389.16252804 C29.33453045 393.97264333 24.55332732 398.77077745 19.75637908 403.55358016 C17.30992564 405.9935608 14.86950877 408.43887126 12.44407272 410.89976025 C9.81157786 413.56475498 7.15847962 416.20737016 4.49902534 418.84542179 C4.11813288 419.23616814 4.11813288 419.23616814 2.19058615 421.2135815 C-1.17896056 424.51489706 -3.71478006 426.964541 -8.48564053 427.678545 C-13.40682693 427.59730849 -15.4326467 426.19188701 -18.93507195 422.93100834 C-20.71902354 419.45699734 -20.96047416 416.3684937 -20.12257195 412.61850834 C-16.53741661 406.42770903 -11.15152584 401.36671281 -6.11198235 396.36740971 C-5.32281374 395.57653225 -4.53364514 394.7856548 -3.72056234 393.97081137 C-1.09057007 391.33754033 1.54647759 388.71145385 4.1835804 386.08530521 C6.07649816 384.19295192 7.96901497 382.30020545 9.86104012 380.40696049 C13.92723993 376.3397151 17.99706749 372.2761297 22.06942558 368.2150507 C27.95726812 362.34350489 33.83953982 356.46640372 39.72049339 350.58795887 C49.26352268 341.04930016 58.81100398 331.51511061 68.36131477 321.98374271 C77.63515045 312.72828238 86.90687031 303.47071092 96.1757679 294.21030521 C96.74769471 293.63890385 97.31962152 293.06750249 97.90887944 292.47878593 C100.77823177 289.6120438 103.6475427 286.74526025 106.51683307 283.87845612 C130.29728606 260.11871574 154.08497641 236.3662335 177.87742805 212.61850834 C176.51570616 209.57339908 174.98303426 207.47616214 172.62555981 205.12613106 C171.95113246 204.44895501 171.27670511 203.77177897 170.58184057 203.07408243 C169.8387596 202.33819138 169.09567862 201.60230032 168.33008003 200.84410954 C167.54236227 200.05609406 166.75464452 199.26807858 165.94305652 198.45618385 C163.29381717 195.80833703 160.63749251 193.16771307 157.98118782 190.5269556 C156.08386205 188.63346685 154.18694263 186.73957936 152.29054451 184.84516239 C148.20177258 180.76216495 144.10946565 176.68273862 140.01485062 172.60560131 C134.09044836 166.70630147 128.17252508 160.80053606 122.25635969 154.89297711 C112.6520232 145.3027776 103.04396094 135.71632069 93.43284798 126.13291264 C92.85757726 125.55929754 92.28230654 124.98568245 91.68960338 124.39468508 C87.0223532 119.74092308 82.35492286 115.08734178 77.68748283 110.43377018 C73.60903122 106.36742248 69.53065085 102.30100335 65.45237923 98.23447514 C65.16524498 97.94816902 65.16524498 97.94816902 63.71217168 96.49928654 C54.13847085 86.95295387 44.56869376 77.40269718 35.00171322 67.84962982 C29.10004614 61.95692705 23.19484422 56.06780924 17.28505038 50.18325662 C13.23613112 46.15118477 9.19074903 42.1155873 5.14813609 38.07719273 C2.81517639 35.74692388 0.48003951 33.41891116 -1.85841751 31.09415722 C-4.39298011 28.57398279 -6.92133987 26.04774435 -9.44824028 23.51989079 C-10.18909054 22.78623045 -10.92994079 22.05257012 -11.69324106 21.29667765 C-19.80025562 13.15674936 -19.80025562 13.15674936 -20.62257195 6.68100834 C-20.44224021 1.92025041 -18.55201842 -0.18587108 -15.12257195 -3.38149166 C-9.54909974 -6.16822777 -4.23464285 -3.85692644 0 0 Z " fill="#000000" transform="translate(163.12257194519043,44.38149166107178)"/>
</svg>
