<?xml version="1.0" encoding="UTF-8"?>
<!-- Generator: visioncortex VTracer 0.6.12 -->
<svg version="1.1" xmlns="http://www.w3.org/2000/svg" width="512" height="512">
<path d="M0 0 C28.19000136 -0.56505571 55.4782613 9.28641872 75.99438477 28.87329102 C81.66920196 34.48294597 86.73478403 40.22879648 90.8203125 47.1171875 C90.99804199 47.4160083 90.99804199 47.4160083 91.89746094 48.92822266 C103.62202408 68.9523613 107.14327086 89.03129175 107.12109375 112.03515625 C107.12499452 113.74465537 107.12933195 115.45415354 107.13407898 117.16365051 C107.14149228 120.72965651 107.14128657 124.29556343 107.13598633 127.86157227 C107.13021014 132.37834768 107.14710196 136.89471055 107.170331 141.41141796 C107.18523581 144.93870826 107.18591741 148.46590315 107.18282127 151.99321938 C107.18332652 153.65579352 107.1884099 155.31837419 107.19863319 156.98091698 C107.27893417 171.86680337 106.15005451 186.94382294 100.6328125 200.9296875 C100.33238037 201.714646 100.03194824 202.49960449 99.72241211 203.30834961 C93.92917723 217.88011637 81.49416662 238.78026044 66.8203125 246.1171875 C66.69344811 252.86136777 66.60593439 259.60523994 66.5456543 266.3503418 C66.52052322 268.64440408 66.48641281 270.9383864 66.44311523 273.23217773 C66.38240418 276.53128799 66.35408813 279.82933896 66.33203125 283.12890625 C66.30622482 284.15304123 66.2804184 285.17717621 66.25382996 286.23234558 C66.25102836 293.35859404 66.25102836 293.35859404 69.07495117 297.12158203 C69.98092041 297.78013184 70.88688965 298.43868164 71.8203125 299.1171875 C72.53654785 299.63821045 73.2527832 300.1592334 73.99072266 300.69604492 C80.50117861 304.58177407 87.27498044 307.67113633 94.25198364 310.6104126 C96.24403068 311.45022627 98.23173145 312.29964856 100.21850586 313.15185547 C102.87214485 314.29004888 105.5266507 315.42616287 108.18212891 316.56005859 C134.50174953 327.82475731 160.32235941 339.64847543 180.8203125 360.1171875 C181.69300781 360.97828125 182.56570313 361.839375 183.46484375 362.7265625 C205.28624063 385.38595465 208.8203125 411.29588736 208.8203125 442.1171875 C73.5203125 442.1171875 -61.7796875 442.1171875 -201.1796875 442.1171875 C-201.1796875 410.08305355 -196.51949164 385.91927673 -175.1796875 362.1171875 C-174.91027344 361.81232422 -174.91027344 361.81232422 -173.546875 360.26953125 C-164.37605237 350.52265193 -152.78898348 342.61139728 -141.1796875 336.1171875 C-140.81415771 335.91085693 -140.81415771 335.91085693 -138.96435547 334.86669922 C-124.5484622 326.82028014 -109.5950491 320.22128269 -94.40039062 313.8125 C-87.39769023 310.85499974 -80.40980638 307.87054309 -73.55859375 304.57421875 C-72.51388916 304.07510986 -71.46918457 303.57600098 -70.39282227 303.06176758 C-59.99337879 296.76805378 -59.99337879 296.76805378 -58.43458557 291.68977356 C-58.1223057 288.8233338 -58.07011727 286.06268039 -58.1171875 283.1796875 C-58.10953369 282.14078369 -58.10187988 281.10187988 -58.09399414 280.03149414 C-58.08856909 277.84289659 -58.10320061 275.65416791 -58.13671875 273.46582031 C-58.17958339 270.12530093 -58.13709897 266.79337853 -58.0859375 263.453125 C-58.09122432 261.32029362 -58.10147489 259.18746756 -58.1171875 257.0546875 C-58.10099365 256.06283447 -58.0847998 255.07098145 -58.06811523 254.04907227 C-58.17833449 249.94983147 -58.29102455 247.20215324 -60.94618225 243.96047974 C-62.95035686 242.19717514 -64.9924139 240.64368423 -67.1796875 239.1171875 C-86.42133789 221.75955103 -97.80940117 196.85677086 -99.29916191 171.04734802 C-99.49034268 165.73339497 -99.48561125 160.41829175 -99.48046875 155.1015625 C-99.48437054 153.39349262 -99.48870816 151.6854237 -99.49345398 149.97735596 C-99.50086112 146.41732625 -99.5006658 142.8573958 -99.49536133 139.29736328 C-99.48958082 134.78846357 -99.50649055 130.27997654 -99.529706 125.77114487 C-99.5446093 122.24814575 -99.54529269 118.72524217 -99.54219627 115.2022171 C-99.54270142 113.54243403 -99.54778287 111.88264441 -99.55800819 110.22289276 C-99.71059038 81.99607052 -92.62184545 55.33546428 -73.1796875 34.1171875 C-72.76912109 33.66021484 -72.76912109 33.66021484 -70.69140625 31.34765625 C-54.17525186 13.85276678 -29.83668046 1.59701062 -5.609375 0.171875 C-3.73917948 0.12978057 -1.86940002 0.06889681 0 0 Z M-49.1796875 41.1171875 C-49.51548828 41.38208984 -49.51548828 41.38208984 -51.21484375 42.72265625 C-59.28542718 49.26931448 -64.66183185 57.68235467 -69.4296875 66.8046875 C-69.58824219 67.09758667 -69.58824219 67.09758667 -70.390625 68.57983398 C-77.08167006 81.97773802 -77.78790873 96.07249322 -77.7109375 110.7109375 C-77.71364225 112.55546268 -77.71753275 114.39998645 -77.72253418 116.24450684 C-77.72838313 120.08355475 -77.72001681 123.92222677 -77.70117188 127.76123047 C-77.67838515 132.63586111 -77.69153326 137.50961023 -77.71546173 142.38420868 C-77.73004551 146.18510353 -77.72525673 149.98579581 -77.71495056 153.78669739 C-77.71231785 155.58209849 -77.71542839 157.37751913 -77.72486877 159.17289734 C-77.78402728 173.57837636 -76.42698628 187.50175135 -69.4296875 200.4296875 C-69.08679688 201.08646484 -68.74390625 201.74324219 -68.390625 202.41992188 C-61.09647702 216.03655214 -51.25367565 226.84139702 -38.1796875 235.1171875 C-37.5196875 235.1171875 -36.8596875 235.1171875 -36.1796875 235.1171875 C-36.26445344 242.52417876 -36.35947352 249.93096592 -36.46721458 257.33766079 C-36.51694089 260.77772 -36.56327068 264.21775198 -36.6015625 267.65795898 C-36.64584386 271.62240167 -36.70539452 275.5865476 -36.765625 279.55078125 C-36.77717621 280.77300888 -36.78872742 281.99523651 -36.80062866 283.25450134 C-36.99032545 294.3340725 -38.17983037 303.35785478 -45.72265625 311.85546875 C-57.25606503 322.93059638 -73.96289234 328.89519713 -88.4296875 335.0546875 C-99.06463398 339.59812974 -109.6250302 344.21940979 -119.98046875 349.375 C-120.78764343 349.77545029 -121.59481812 350.17590057 -122.42645264 350.58848572 C-144.70582055 361.83645637 -166.37001667 378.5291126 -174.53515625 402.94921875 C-176.23579726 408.71420759 -177.32556583 414.13833584 -178.1796875 420.1171875 C-58.0596875 420.1171875 62.0603125 420.1171875 185.8203125 420.1171875 C180.58568137 393.94403183 170.54997647 376.40568592 148.5234375 361.51171875 C130.70117248 349.829384 111.01951834 341.25366925 91.4453125 332.9921875 C53.79848147 317.07352544 53.79848147 317.07352544 46.5703125 302.6171875 C44.33800084 295.17614863 44.60829648 287.44489688 44.50390625 279.74609375 C44.4935157 279.10736076 44.4935157 279.10736076 44.44093323 275.87498474 C44.38681796 272.50000131 44.33651129 269.12500571 44.28808594 265.74993896 C44.23759971 262.29743442 44.1820561 258.84501152 44.12695312 255.39257812 C44.02010436 248.63417987 43.91828028 241.87572001 43.8203125 235.1171875 C44.59213867 234.82457031 45.36396484 234.53195312 46.15917969 234.23046875 C61.67209968 227.74066002 73.13137037 209.82791328 79.6328125 195.1171875 C84.49850793 182.30373599 85.28353773 170.3418963 85.25390625 156.81640625 C85.25848072 154.9675935 85.26378999 153.11878243 85.26979065 151.26997375 C85.27867336 147.41306612 85.27635505 143.55636606 85.26635742 139.69946289 C85.2548864 134.80123693 85.27507565 129.90373397 85.30427456 125.00560284 C85.32278398 121.1918547 85.32231483 117.37827505 85.31663704 113.56449318 C85.31648555 111.76070964 85.32238385 109.95691337 85.33492851 108.15317345 C85.42168276 93.63591556 84.05168203 79.7113768 77.0078125 66.6796875 C76.83580322 66.34908325 76.83580322 66.34908325 75.96533203 64.67602539 C73.12055325 59.35431588 69.7833264 54.66942649 65.8203125 50.1171875 C65.59794922 49.82392578 65.59794922 49.82392578 64.47265625 48.33984375 C53.57055973 34.32286251 34.53266818 25.0594571 17.19824219 22.3984375 C-7.172306 19.51600716 -30.47458116 24.74551495 -49.1796875 41.1171875 Z " fill="#000000" transform="translate(252.1796875,29.8828125)"/>
</svg>
