<?xml version="1.0" encoding="UTF-8"?>
<!-- Generator: visioncortex VTracer 0.6.12 -->
<svg version="1.1" xmlns="http://www.w3.org/2000/svg" width="512" height="512">
<path d="M0 0 C0.24210205 0.20923096 0.24210205 0.20923096 1.46728516 1.26806641 C2.22654297 1.92419922 2.98580078 2.58033203 3.76806641 3.25634766 C22.21528675 20.52057992 33.74648155 47.2699125 34.66271973 72.35670471 C34.77026745 76.96624134 34.77251126 81.57547425 34.76806641 86.18603516 C34.77196718 87.89553427 34.77630461 89.60503244 34.78105164 91.31452942 C34.78846493 94.88053542 34.78825923 98.44644234 34.78295898 102.01245117 C34.7771828 106.52922659 34.79407462 111.04558945 34.81730366 115.56229687 C34.83220847 119.08958717 34.83289006 122.61678205 34.82979393 126.14409828 C34.83029917 127.80667243 34.83538256 129.46925309 34.84560585 131.13179588 C34.92556279 145.95390769 33.82564671 161.02412416 28.34228516 174.95556641 C28.04153076 175.73826904 27.74077637 176.52097168 27.4309082 177.32739258 C21.04500262 193.30758927 9.91104042 210.41668461 -4.53271484 220.26806641 C-5.19271484 220.26806641 -5.85271484 220.26806641 -6.53271484 220.26806641 C-6.51643072 227.01297547 -6.46161758 233.75678637 -6.38012695 240.5012207 C-6.35694342 242.79509358 -6.34255043 245.08907295 -6.3371582 247.38305664 C-6.32787165 250.68264157 -6.28688497 253.98055054 -6.23974609 257.27978516 C-6.24171242 257.79185265 -6.24171242 257.79185265 -6.25166321 260.38322449 C-6.10646009 267.4841816 -6.10646009 267.4841816 -3.375 271.21606445 C6.66445539 278.46409937 17.77360899 283.36960168 29.13705444 288.13760376 C33.23290523 289.85874394 37.3141738 291.61389942 41.39697266 293.36572266 C42.19284286 293.70659409 42.98871307 294.04746552 43.80870056 294.39866638 C64.09953103 303.10344153 83.82645814 312.48803474 100.46728516 327.26806641 C101.31548828 327.98478516 102.16369141 328.70150391 103.03759766 329.43994141 C122.48604747 346.21199904 131.94252258 366.38187223 136.46728516 391.26806641 C136.46728516 399.51806641 136.46728516 407.76806641 136.46728516 416.26806641 C1.16728516 416.26806641 -134.13271484 416.26806641 -273.53271484 416.26806641 C-273.53271484 385.96251085 -273.53271484 385.96251085 -269.53271484 373.26806641 C-269.43087891 372.94249756 -269.43087891 372.94249756 -268.91552734 371.29492188 C-259.73903473 343.20607449 -236.66109391 323.1739439 -211.53271484 309.26806641 C-210.85354004 308.88473145 -210.17436523 308.50139648 -209.47460938 308.10644531 C-197.10495504 301.15863809 -184.23668833 295.60234581 -171.17724609 290.08837891 C-137.7872899 275.97728788 -137.7872899 275.97728788 -131.53271484 268.26806641 C-131.13398743 266.08503723 -131.13398743 266.08503723 -131.1003418 263.52124023 C-131.08054764 262.56047073 -131.06075348 261.59970123 -131.0403595 260.6098175 C-131.03396957 259.57535995 -131.02757965 258.5409024 -131.02099609 257.47509766 C-131.00304489 256.41393234 -130.98509369 255.35276703 -130.96659851 254.25944519 C-130.91236961 250.86652615 -130.87855895 247.47374879 -130.84521484 244.08056641 C-130.81205294 241.78171851 -130.77756435 239.48288934 -130.74169922 237.18408203 C-130.65663603 231.5455372 -130.5883395 225.90697431 -130.53271484 220.26806641 C-131.15436523 219.96715088 -131.77601563 219.66623535 -132.41650391 219.35620117 C-151.52728213 209.52962773 -162.21990266 184.91255749 -168.41943359 165.74853516 C-171.6785276 153.72711101 -171.84541929 141.56748157 -171.83349609 129.21728516 C-171.83739753 127.50681965 -171.84173509 125.79635509 -171.84648132 124.08589172 C-171.85388788 120.52166589 -171.85369327 116.9575392 -171.84838867 113.39331055 C-171.84260369 108.8753448 -171.85952899 104.35779031 -171.88273335 99.83989239 C-171.89762254 96.31264461 -171.89832197 92.78549242 -171.89522362 89.25821877 C-171.89572931 87.59481811 -171.90082171 85.93141099 -171.91103554 84.26804161 C-172.06905183 54.94303226 -163.79205822 29.55313642 -144.53271484 7.26806641 C-144.20464844 6.8884375 -144.20464844 6.8884375 -142.54443359 4.96728516 C-104.96085266 -35.1916161 -40.51458161 -34.5360162 0 0 Z " fill="#000000" transform="translate(324.53271484375,55.73193359375)"/>
</svg>
