<?xml version="1.0" encoding="UTF-8"?>
<!-- Generator: visioncortex VTracer 0.6.12 -->
<svg version="1.1" xmlns="http://www.w3.org/2000/svg" width="512" height="512">
<path d="M0 0 C1.57880017 1.33512683 3.14241465 2.68849677 4.6875 4.0625 C5.35007813 4.64257812 6.01265625 5.22265625 6.6953125 5.8203125 C11.05662288 9.89910885 14.64522645 14.46527354 18.1875 19.25 C18.40079956 19.53750122 18.40079956 19.53750122 19.48022461 20.99243164 C25.58463267 29.4405475 30.78327313 38.51167562 36.08984375 47.47265625 C36.46158722 48.099478 36.83333069 48.72629974 37.21633911 49.37211609 C40.34568975 54.6492875 40.34568975 54.6492875 41.75756836 57.05395508 C61.27184016 90.25728005 61.27184016 90.25728005 78.6875 96.0625 C89.59605567 96.91779807 97.28458807 95.91586485 105.75 88.875 C112.93805452 82.0779196 118.80279783 74.86012076 123.875 66.375 C124.4225293 65.47652344 124.97005859 64.57804687 125.53417969 63.65234375 C129.00567246 57.93319307 132.39549686 52.16684299 135.77758789 46.39453125 C143.52061137 33.1839014 151.60632853 20.65402749 161.6875 9.0625 C162.29851562 8.35480469 162.90953125 7.64710937 163.5390625 6.91796875 C174.45776646 -4.86029276 191.16060877 -13.85827454 207.26098633 -15.14282227 C209.99008413 -15.24072824 212.7067181 -15.26668891 215.4375 -15.25 C216.4054248 -15.24436035 217.37334961 -15.2387207 218.37060547 -15.23291016 C232.63169258 -14.99192475 247.38616419 -11.47840176 257.6875 -0.9375 C268.19429994 12.02784474 271.88432266 26.51268663 270.6875 43.0625 C267.96850095 63.39126636 258.89724132 80.82321796 243.125 94.0625 C236.62130016 98.84683092 229.610816 102.9085104 222.6875 107.0625 C258.6575 107.3925 294.6275 107.7225 331.6875 108.0625 C331.6875 145.3525 331.6875 182.6425 331.6875 221.0625 C325.0875 221.0625 318.4875 221.0625 311.6875 221.0625 C311.6875 305.5425 311.6875 390.0225 311.6875 477.0625 C162.5275 477.0625 13.3675 477.0625 -140.3125 477.0625 C-140.3125 392.5825 -140.3125 308.1025 -140.3125 221.0625 C-146.9125 221.0625 -153.5125 221.0625 -160.3125 221.0625 C-160.3125 183.7725 -160.3125 146.4825 -160.3125 108.0625 C-124.3425 107.7325 -88.3725 107.4025 -51.3125 107.0625 C-56.2625 104.0925 -61.2125 101.1225 -66.3125 98.0625 C-83.8828107 84.48544173 -94.55117362 68.52719314 -99 46.6875 C-100.42291226 30.18171783 -98.19153172 14.36313129 -88.0625 0.75 C-64.22172323 -22.54894093 -25.02041321 -19.41370476 0 0 Z M-72.91796875 17.890625 C-76.75496822 23.8664561 -77.84635879 29.80107049 -77.75 36.8125 C-77.74170166 37.59890869 -77.73340332 38.38531738 -77.72485352 39.19555664 C-77.30244775 53.88956516 -70.28964952 65.99042236 -59.76171875 76 C-55.56841457 79.53120352 -51.0704024 82.35729264 -46.3125 85.0625 C-45.92320313 85.28808594 -45.92320313 85.28808594 -43.953125 86.4296875 C-38.94634819 89.13469108 -33.78067121 91.0272646 -28.375 92.75 C-27.74311768 92.95254395 -27.11123535 93.15508789 -26.46020508 93.36376953 C-16.71266361 96.3282089 -7.24641598 97.35690932 2.91796875 97.2578125 C4.03440262 97.2549826 5.15083649 97.25215271 6.30110168 97.24923706 C9.82584897 97.23814707 13.35033104 97.2130638 16.875 97.1875 C19.28189734 97.17745574 21.68879871 97.16833243 24.09570312 97.16015625 C29.95972411 97.13824451 35.8235931 97.10488031 41.6875 97.0625 C39.82484243 93.9280192 37.90815069 90.9379405 35.75 88 C28.70977287 78.01648464 22.74418707 67.26891718 16.5625 56.7421875 C-8.69397816 13.90553388 -8.69397816 13.90553388 -31.7109375 7.3828125 C-47.0119012 3.85924673 -62.13589298 5.89073902 -72.91796875 17.890625 Z M172.875 29.3125 C164.507416 39.6412365 158.00713329 51.36410859 151.3203125 62.81640625 C150.2137498 64.71105908 149.10698138 66.60559176 148 68.5 C147.7321167 68.95906738 147.7321167 68.95906738 146.37646484 71.28222656 C142.45982278 77.92625175 138.22707113 84.20592196 133.61328125 90.3828125 C132.02716222 92.58986657 130.85506492 94.6301541 129.6875 97.0625 C136.60265109 97.16543165 143.51759897 97.23459415 150.43334961 97.28222656 C152.77717468 97.30212076 155.12095162 97.32924595 157.46459961 97.36425781 C185.90779894 97.77797708 211.85554299 93.62030587 233.40234375 73.37109375 C244.2958375 62.36587186 248.98840681 50.3355697 249.00219727 34.99291992 C248.86126195 26.70442248 247.14601761 20.4838071 241.5625 14.1875 C233.90860797 7.20846727 223.74445032 5.71576834 213.75 5.8515625 C196.04835708 7.07080831 184.27206808 16.38723055 172.875 29.3125 Z M-139.3125 129.0625 C-139.3125 152.4925 -139.3125 175.9225 -139.3125 200.0625 C-85.5225 200.0625 -31.7325 200.0625 23.6875 200.0625 C23.6875 176.6325 23.6875 153.2025 23.6875 129.0625 C-30.1025 129.0625 -83.8925 129.0625 -139.3125 129.0625 Z M45.6875 129.0625 C45.6875 236.9725 45.6875 344.8825 45.6875 456.0625 C72.0875 456.0625 98.4875 456.0625 125.6875 456.0625 C125.6875 348.1525 125.6875 240.2425 125.6875 129.0625 C99.2875 129.0625 72.8875 129.0625 45.6875 129.0625 Z M147.6875 129.0625 C147.6875 152.4925 147.6875 175.9225 147.6875 200.0625 C201.4775 200.0625 255.2675 200.0625 310.6875 200.0625 C310.6875 176.6325 310.6875 153.2025 310.6875 129.0625 C256.8975 129.0625 203.1075 129.0625 147.6875 129.0625 Z M-118.3125 221.0625 C-118.3125 298.6125 -118.3125 376.1625 -118.3125 456.0625 C-71.4525 456.0625 -24.5925 456.0625 23.6875 456.0625 C23.6875 378.5125 23.6875 300.9625 23.6875 221.0625 C-23.1725 221.0625 -70.0325 221.0625 -118.3125 221.0625 Z M147.6875 221.0625 C147.6875 298.6125 147.6875 376.1625 147.6875 456.0625 C194.5475 456.0625 241.4075 456.0625 289.6875 456.0625 C289.6875 378.5125 289.6875 300.9625 289.6875 221.0625 C242.8275 221.0625 195.9675 221.0625 147.6875 221.0625 Z " fill="#000000" transform="translate(170.3125,24.9375)"/>
</svg>
