<?xml version="1.0" encoding="UTF-8"?>
<!-- Generator: visioncortex VTracer 0.6.12 -->
<svg version="1.1" xmlns="http://www.w3.org/2000/svg" width="512" height="512">
<path d="M0 0 C9.63147982 7.59636979 18.08809794 16.92542251 26.75317383 25.57617188 C28.43106311 27.24778585 30.10913826 28.91921328 31.78738403 30.59046936 C37.26415104 36.04634017 42.73571236 41.5074166 48.20703125 46.96875 C49.6225461 48.3812306 51.03806107 49.79371109 52.45362482 51.20614269 C60.7876994 59.52178082 69.12043236 67.83876061 77.44914722 76.15976715 C79.47902799 78.1877385 81.50891426 80.21570435 83.53881836 82.24365234 C84.04324692 82.74759716 84.54767548 83.25154198 85.06738975 83.77075785 C93.25285385 91.94790776 101.44681145 100.11649142 109.64431588 108.28156918 C118.08092303 116.68507738 126.5099547 125.09612403 134.93162555 133.51460123 C139.65227398 138.23308918 144.37636144 142.94804572 149.10849953 147.65501404 C153.55537611 152.07861374 157.99263737 156.51163674 162.42274857 160.95202446 C164.04744851 162.57721976 165.67556099 164.19901198 167.3073597 165.81707954 C169.53904063 168.03103062 171.75795037 170.25706425 173.97419739 172.4864502 C174.29618076 172.80294895 174.29618076 172.80294895 175.92561179 174.40462446 C182.82173277 181.3994609 187.06379679 188.70305099 187.3125 198.625 C187.04069153 217.28918161 169.64743284 229.50932557 157.42382812 241.75317383 C155.75221415 243.43106311 154.08078672 245.10913826 152.40953064 246.78738403 C146.95365983 252.26415104 141.4925834 257.73571236 136.03125 263.20703125 C134.6187694 264.6225461 133.20628891 266.03806107 131.79385731 267.45362482 C123.47821918 275.7876994 115.16123939 284.12043236 106.84023285 292.44914722 C104.8122615 294.47902799 102.78429565 296.50891426 100.75634766 298.53881836 C100.25240284 299.04324692 99.74845802 299.54767548 99.22924215 300.06738975 C91.05209224 308.25285385 82.88350858 316.44681145 74.71843082 324.64431588 C66.31492262 333.08092303 57.90387597 341.5099547 49.48539877 349.93162555 C44.76691082 354.65227398 40.05195428 359.37636144 35.34498596 364.10849953 C30.92138626 368.55537611 26.48836326 372.99263737 22.04797554 377.42274857 C20.42278024 379.04744851 18.80098802 380.67556099 17.18292046 382.3073597 C14.96896938 384.53904063 12.74293575 386.75795037 10.5135498 388.97419739 C10.19705105 389.29618076 10.19705105 389.29618076 8.59537554 390.92561179 C1.6005391 397.82173277 -5.70305099 402.06379679 -15.625 402.3125 C-34.28918161 402.04069153 -46.50932557 384.64743284 -58.75317383 372.42382812 C-60.43106311 370.75221415 -62.10913826 369.08078672 -63.78738403 367.40953064 C-69.26415104 361.95365983 -74.73571236 356.4925834 -80.20703125 351.03125 C-81.6225461 349.6187694 -83.03806107 348.20628891 -84.45362482 346.79385731 C-92.7876994 338.47821918 -101.12043236 330.16123939 -109.44914722 321.84023285 C-111.47902799 319.8122615 -113.50891426 317.78429565 -115.53881836 315.75634766 C-116.04324692 315.25240284 -116.54767548 314.74845802 -117.06738975 314.22924215 C-125.25285385 306.05209224 -133.44681145 297.88350858 -141.64431588 289.71843082 C-150.08092303 281.31492262 -158.5099547 272.90387597 -166.93162555 264.48539877 C-171.65227398 259.76691082 -176.37636144 255.05195428 -181.10849953 250.34498596 C-185.55537611 245.92138626 -189.99263737 241.48836326 -194.42274857 237.04797554 C-196.04744851 235.42278024 -197.67556099 233.80098802 -199.3073597 232.18292046 C-201.53904063 229.96896938 -203.75795037 227.74293575 -205.97419739 225.5135498 C-206.29618076 225.19705105 -206.29618076 225.19705105 -207.92561179 223.59537554 C-214.82173277 216.6005391 -219.06379679 209.29694901 -219.3125 199.375 C-219.05513808 181.70281489 -203.93290309 170.7913878 -192.29867172 159.22350693 C-190.00845023 156.94621118 -187.72150938 154.66566431 -185.43533325 152.38430786 C-180.58471348 147.54503388 -175.73015471 142.70972359 -170.875 137.875 C-165.23629002 132.2599809 -159.59925579 126.64330015 -153.96643448 121.0223732 C-151.72462597 118.78699703 -149.47980408 116.55467834 -147.23483276 114.32247925 C-145.84895151 112.94023344 -144.4632121 111.55784539 -143.07763672 110.17529297 C-142.77001404 109.87025345 -142.77001404 109.87025345 -141.21325684 108.3265686 C-137.50406596 104.61782424 -134.00763017 100.77698312 -130.57746124 96.8091774 C-128.68192189 94.63519882 -126.70845708 92.55463258 -124.6887207 90.49584961 C-123.92135086 89.71241684 -123.15398102 88.92898407 -122.36335754 88.12181091 C-118.92300712 84.6364503 -115.48036458 81.15346586 -112.02905273 77.67895508 C-110.20729253 75.84049499 -108.3909339 73.99666771 -106.57983398 72.14770508 C-103.9570513 69.47051273 -101.31852049 66.80982001 -98.67578125 64.15234375 C-97.86530838 63.31920151 -97.05483551 62.48605927 -96.21980286 61.62767029 C-95.4618895 60.87260696 -94.70397614 60.11754364 -93.9230957 59.33959961 C-93.59167824 59.00413872 -93.59167824 59.00413872 -91.914505 57.3065033 C-90 56 -90 56 -88.02415466 56.04321289 C-85.38373648 57.29129839 -83.74809214 58.89273836 -81.69042969 60.96899414 C-80.84986023 61.80979019 -80.00929077 62.65058624 -79.14324951 63.51686096 C-78.24519592 64.43039841 -77.34714233 65.34393585 -76.421875 66.28515625 C-75.4953009 67.21597519 -74.56872681 68.14679413 -73.61407471 69.1058197 C-71.15460013 71.57673121 -68.70426899 74.05651969 -66.2557373 76.53826904 C-63.75407949 79.07065253 -61.24387378 81.5945313 -58.734375 84.11914062 C-53.81451987 89.07113953 -48.90427247 94.03256949 -44 99 C-44.32307129 100.07975098 -44.64614258 101.15950195 -44.97900391 102.27197266 C-47.24982836 110.56357702 -47.47772796 120.29288096 -43.3203125 128.01171875 C-39.64886989 133.54060718 -36.22262091 137.41767359 -30.3581543 140.62011719 C-29.54332077 141.06683777 -28.72848724 141.51355835 -27.88896179 141.97381592 C-27.5772831 142.14313629 -27.5772831 142.14313629 -26 143 C-25.766223 157.62933223 -25.5899736 172.25841679 -25.48187828 186.88923836 C-25.43034884 193.68297956 -25.36012478 200.47555921 -25.24560547 207.26855469 C-25.13514853 213.82371529 -25.07716423 220.37812238 -25.05122757 226.93416977 C-25.0327437 229.43579993 -24.99664714 231.93736367 -24.94269943 234.43848038 C-24.87012541 237.94237338 -24.86010657 241.44127765 -24.86474609 244.94580078 C-24.82879333 245.98086258 -24.79284058 247.01592438 -24.75579834 248.08235168 C-24.79817687 251.0389295 -24.93147132 253.23913054 -26 256 C-28.36355633 258.05116629 -30.64264744 259.36259266 -33.46788979 260.69770622 C-38.6917905 263.38441921 -42.46503449 268.28561758 -44.9375 273.5625 C-47.36464116 281.23833392 -47.37670574 290.77872975 -44.1875 298.1875 C-42.70284201 300.99831158 -40.98782736 303.5152158 -39 306 C-39 306.66 -39 307.32 -39 308 C-38.7215625 308.13857422 -38.7215625 308.13857422 -37.3125 308.83984375 C-35.72499827 309.63627621 -34.1418596 310.44144722 -32.5625 311.25390625 C-32.1396875 311.46982422 -32.1396875 311.46982422 -30 312.5625 C-29.154375 312.99691406 -28.30875 313.43132812 -27.4375 313.87890625 C-20.17084425 317.22110208 -12.65265899 316.82245344 -5.1875 314.25 C-1.21831103 312.68026425 1.80998072 310.88130774 5 308 C5.66 308 6.32 308 7 308 C7.28746094 307.42378906 7.57492187 306.84757812 7.87109375 306.25390625 C8.58823673 304.82210175 9.30916007 303.39217964 10.03515625 301.96484375 C10.37417969 301.29582031 10.71320313 300.62679688 11.0625 299.9375 C11.40410156 299.26589844 11.74570312 298.59429687 12.09765625 297.90234375 C15.24911315 291.25836318 15.05017106 282.38414785 13.3515625 275.29296875 C9.35260228 265.53482224 3.14005644 261.07780913 -6 256 C-6 219.04 -6 182.08 -6 144 C-1 143 -1 143 1.20921326 144.41366577 C1.57974068 144.7742659 1.57974068 144.7742659 3.45483398 146.59912109 C4.30178329 147.41101898 5.1487326 148.22291687 6.02134705 149.05941772 C6.92051346 149.95504425 7.81967987 150.85067078 8.74609375 151.7734375 C9.211045 152.22958939 9.211045 152.22958939 11.5639801 154.53799438 C13.53045862 156.47305833 15.48438748 158.41986845 17.43139648 160.37451172 C19.92416046 162.87347079 22.45350839 165.33135239 24.99496365 167.78064537 C27.41621431 170.1283044 29.79713227 172.51542536 32.18359375 174.8984375 C33.09692978 175.77382172 34.01026581 176.64920593 34.95127869 177.55111694 C40.94439071 183.67889536 40.94439071 183.67889536 41.1060791 187.52011108 C40.59908579 189.8140675 39.88324949 191.82879709 39 194 C37.95256144 203.71925549 39.59023176 212.83955823 45.5 220.8125 C51.31471721 226.90620617 60.03389166 230.79306285 68.421875 231.171875 C76.14125271 230.65724982 82.87107492 228.71455775 89 224 C89.99 223.67 90.98 223.34 92 223 C93.02734375 221.24609375 93.02734375 221.24609375 94 219 C94.41378906 218.20722656 94.82757813 217.41445313 95.25390625 216.59765625 C95.46982422 216.17935547 95.46982422 216.17935547 96.5625 214.0625 C96.99691406 213.22847656 97.43132812 212.39445313 97.87890625 211.53515625 C101.2924604 203.81600418 100.48681184 196.11745048 97.90234375 188.31640625 C94.98156023 180.81846414 88.77423126 174.45114276 81.4375 171.0625 C72.84286579 168.29993901 63.44210147 169.58797101 55 172 C40.81 157.81 26.62 143.62 12 129 C12.66 126.69 13.32 124.38 14 122 C15.04144774 110.68939314 13.87984807 102.67579932 6.875 93.75 C0.77179058 87.16011224 -7.04640272 84.23969019 -15.875 83.8125 C-18.84206682 83.83485079 -20.74142554 84.21363109 -23.6875 85.0625 C-27.2267929 86.06418667 -28.55597422 86.08123703 -32 85 C-34.195755 83.28526306 -34.195755 83.28526306 -36.4230957 81.03100586 C-37.26358963 80.19020981 -38.10408356 79.34941376 -38.970047 78.48313904 C-39.8629393 77.56960159 -40.7558316 76.65606415 -41.67578125 75.71484375 C-42.13836082 75.24943428 -42.13836082 75.24943428 -44.47929382 72.8941803 C-46.93280023 70.42543803 -49.37405455 67.94491957 -51.81292725 65.46173096 C-54.30612896 62.92753232 -56.81076396 60.40468971 -59.31445312 57.88085938 C-64.22086764 52.93161028 -69.11442854 47.96982274 -74 43 C-72.59870148 39.84032174 -70.9430075 37.68201037 -68.51928711 35.22875977 C-67.80771957 34.50443253 -67.09615204 33.78010529 -66.36302185 33.03382874 C-65.59224808 32.26082932 -64.8214743 31.4878299 -64.02734375 30.69140625 C-63.6288044 30.2895385 -63.6288044 30.2895385 -61.61195374 28.25584412 C-59.92242112 26.55618756 -58.23016315 24.85923643 -56.53540039 23.16479492 C-53.96107278 20.58611265 -51.40314033 17.99190454 -48.84570312 15.39648438 C-47.19890101 13.74381024 -45.55114426 12.09208668 -43.90234375 10.44140625 C-43.14573959 9.67043106 -42.38913544 8.89945587 -41.60960388 8.1051178 C-29.93230922 -3.47423491 -15.26162993 -8.70478562 0 0 Z " fill="#F3501D" transform="translate(272,57)"/>
</svg>
