<?xml version="1.0" encoding="UTF-8"?>
<!-- Generator: visioncortex VTracer 0.6.12 -->
<svg version="1.1" xmlns="http://www.w3.org/2000/svg" width="512" height="512">
<path d="M0 0 C3.12601173 2.85446 6.17543008 5.78127744 9.19238281 8.75048828 C10.89868421 10.42650883 12.62481294 12.07965122 14.35546875 13.73046875 C21.45655431 20.57591109 27.7492572 27.80503433 33.63476562 35.71777344 C34.47585238 36.84834164 35.32322639 37.97426796 36.17773438 39.09472656 C59.54103269 69.73360035 73.91819982 106.56273615 79.92578125 144.453125 C79.99071777 144.85152588 79.99071777 144.85152588 80.31933594 146.86767578 C89.51664077 206.10913926 72.92317381 269.52870949 37.734375 317.68359375 C30.98923422 326.77702611 23.72554017 335.25589487 15.92578125 343.453125 C15.65612549 343.73712158 15.65612549 343.73712158 14.29150391 345.17431641 C6.58679174 353.23076059 -1.39578698 360.53928813 -10.35498047 367.17822266 C-12.02393197 368.4158348 -13.67599428 369.67366319 -15.328125 370.93359375 C-64.4122292 407.75763797 -128.42075349 421.89027648 -188.76171875 413.4921875 C-237.98163828 405.82254081 -282.08645984 383.69589231 -318.07421875 349.453125 C-318.35821533 349.18346924 -318.35821533 349.18346924 -319.79541016 347.81884766 C-327.85185434 340.11413549 -335.16038188 332.13155677 -341.79931641 323.17236328 C-343.03692855 321.50341178 -344.29475694 319.85134947 -345.5546875 318.19921875 C-368.24704683 287.95174991 -382.18087449 251.62300914 -388.07421875 214.453125 C-388.2040918 213.65632324 -388.33396484 212.85952148 -388.46777344 212.03857422 C-397.66507827 152.79711074 -381.07161131 89.37754051 -345.8828125 41.22265625 C-339.13767172 32.12922389 -331.87397767 23.65035513 -324.07421875 15.453125 C-323.53490723 14.88513184 -322.9955957 14.31713867 -322.43994141 13.73193359 C-314.73522924 5.67548941 -306.75265052 -1.63303813 -297.79345703 -8.27197266 C-296.12450553 -9.5095848 -294.47244322 -10.76741319 -292.8203125 -12.02734375 C-262.23557981 -34.97272632 -225.6754236 -48.80613587 -188.07421875 -54.546875 C-187.25115234 -54.67674805 -186.42808594 -54.80662109 -185.58007812 -54.94042969 C-120.38637421 -64.81072328 -49.30001196 -43.77386394 0 0 Z M-310.07421875 31.453125 C-340.36379642 62.02272959 -359.3135451 103.89792416 -366.38671875 145.953125 C-366.54624023 146.87569092 -366.70576172 147.79825684 -366.87011719 148.7487793 C-368.51132205 159.36136062 -368.57882519 169.55446663 -369.07421875 180.453125 C-345.64421875 180.453125 -322.21421875 180.453125 -298.07421875 180.453125 C-298.07421875 172.863125 -298.07421875 165.273125 -298.07421875 157.453125 C-296.11228228 142.73860144 -291.83562633 129.46978243 -284.2734375 116.6875 C-282.26991845 112.95455897 -281.85979281 110.34776231 -282.81640625 106.22265625 C-282.99558594 105.41892578 -283.17476563 104.61519531 -283.359375 103.78710938 C-283.55402344 102.95501953 -283.74867188 102.12292969 -283.94921875 101.265625 C-288.06566112 83.36619801 -290.6804418 61.40279339 -281.13671875 44.828125 C-279.10077549 41.64662433 -277.01913524 38.83988944 -274.07421875 36.453125 C-254.42884543 32.75688439 -232.24046942 42.3892338 -216.07421875 52.453125 C-215.10484375 53.236875 -214.13546875 54.020625 -213.13671875 54.828125 C-210.07421875 56.453125 -210.07421875 56.453125 -206.48046875 55.85546875 C-205.16973934 55.39089582 -203.8677562 54.9011154 -202.57421875 54.390625 C-201.14088514 53.88874509 -199.70595289 53.39140965 -198.26953125 52.8984375 C-197.55829102 52.64868164 -196.84705078 52.39892578 -196.11425781 52.14160156 C-168.25304093 42.73894101 -132.6125727 44.22068046 -105.16015625 54.1796875 C-101.6935551 55.36502895 -99.59228239 55.86266117 -96.07421875 54.453125 C-93.66030648 53.08984199 -91.34242141 51.69422355 -89.01171875 50.203125 C-76.39247728 42.40875165 -62.97971207 37.36816336 -48.07421875 36.453125 C-47.01847656 36.34226562 -45.96273438 36.23140625 -44.875 36.1171875 C-36.5156231 35.56434387 -36.5156231 35.56434387 -32.86328125 37.81640625 C-21.87819655 49.40111348 -21.64119577 64.84547498 -21.77734375 79.76171875 C-21.99461663 87.48488264 -23.33024206 94.77444599 -25.1015625 102.2734375 C-27.49834473 112.46294763 -27.49834473 112.46294763 -26.0703125 115.796875 C-25.55597656 116.5084375 -25.04164063 117.22 -24.51171875 117.953125 C-14.57580752 133.22670018 -11.86516738 149.53230366 -12.00390625 167.46875 C-12.00644409 168.09402588 -12.00644409 168.09402588 -12.01928711 171.25830078 C-12.03246048 174.323306 -12.05091075 177.38818291 -12.07421875 180.453125 C-11.40817627 180.45090439 -10.74213379 180.44868378 -10.0559082 180.44639587 C-3.04639224 180.42406046 3.96311341 180.40910213 10.97265625 180.39819336 C13.57943127 180.39320262 16.18620355 180.38640768 18.79296875 180.37768555 C46.57034614 180.28715345 46.57034614 180.28715345 59.92578125 181.453125 C69.37657605 153.10074061 49.93540854 106.98770525 37.69482422 81.93359375 C11.82873921 30.93180935 -34.62895374 -7.58605891 -88.70751953 -25.41503906 C-168.8747735 -50.42025509 -250.92730335 -26.41287973 -310.07421875 31.453125 Z M-262.07421875 58.453125 C-269.64632701 70.30512054 -266.43604649 86.63242724 -263.6730957 99.68945312 C-262.87628871 103.2668037 -261.98911709 106.72122304 -260.87890625 110.21875 C-260.03507419 113.61046334 -259.9098703 115.19401267 -261.07421875 118.453125 C-262.23834205 120.26737921 -263.47658578 122.03497927 -264.76171875 123.765625 C-276.6775635 141.0724803 -279.72365249 162.51178451 -276.45703125 183.05078125 C-273.59399191 197.24505245 -266.37016502 209.43404451 -256.07421875 219.453125 C-255.33816406 220.20980469 -254.60210937 220.96648437 -253.84375 221.74609375 C-240.0464952 235.17357288 -221.59813877 241.87737018 -203.19921875 246.203125 C-202.36310059 246.40196289 -201.52698242 246.60080078 -200.66552734 246.80566406 C-185.74337882 250.09412091 -170.61833248 250.83622232 -155.38671875 250.765625 C-154.56238342 250.76380219 -153.7380481 250.76197937 -152.88873291 250.76010132 C-118.59923522 250.6330664 -80.1883897 245.20638473 -54.6875 220.08984375 C-53.82511719 219.21972656 -52.96273437 218.34960938 -52.07421875 217.453125 C-51.74099609 217.13666016 -51.74099609 217.13666016 -50.0546875 215.53515625 C-35.77239784 200.93046728 -32.39685872 179.90773054 -32.53735352 160.39233398 C-32.9774749 144.95131877 -37.82895152 128.69839223 -49.07421875 117.453125 C-48.55017013 110.40654269 -46.51784759 103.49234652 -44.890625 96.63476562 C-42.05509748 84.46213121 -40.38569963 73.3679855 -45.07421875 61.453125 C-45.40421875 60.958125 -45.40421875 60.958125 -47.07421875 58.453125 C-53.31192896 58.98937084 -58.89635769 60.01639921 -64.82421875 62.015625 C-65.60063721 62.27666016 -66.37705566 62.53769531 -67.17700195 62.80664062 C-76.07735873 65.95344442 -84.14448494 70.36959642 -90.82421875 77.140625 C-94.07421875 79.453125 -94.07421875 79.453125 -95.96484375 79.328125 C-98.41988818 78.52796237 -100.71407854 77.5016967 -103.07421875 76.453125 C-105.46089643 75.59392103 -107.85776858 74.76274552 -110.26171875 73.953125 C-110.90052979 73.737771 -111.53934082 73.52241699 -112.19750977 73.30053711 C-143.56991369 62.9606128 -181.11708435 64.57103045 -211.09375 78.94921875 C-213.07421875 79.453125 -213.07421875 79.453125 -215.0234375 78.78515625 C-217.46657377 77.19828107 -219.76336088 75.47753372 -222.07421875 73.703125 C-233.94685409 65.0112222 -247.32248856 59.4532423 -262.07421875 58.453125 Z M-368.07421875 192.453125 C-367.74421875 197.073125 -367.41421875 201.693125 -367.07421875 206.453125 C-365.98109375 206.3190625 -365.98109375 206.3190625 -360.44921875 205.640625 C-342.45249538 203.5058868 -324.39623493 201.39044097 -306.27612305 200.74389648 C-301.80419818 200.58147069 -297.49434156 200.16360587 -293.07421875 199.453125 C-293.40421875 198.133125 -293.40421875 198.133125 -295.07421875 191.453125 C-301.3746543 190.52161148 -307.49954802 190.30695992 -313.86328125 190.3203125 C-314.37372482 190.31983414 -314.37372482 190.31983414 -316.95687866 190.31741333 C-319.11008771 190.31673556 -321.26329884 190.31856165 -323.41650391 190.32275391 C-326.66834249 190.32807448 -329.92004086 190.32281235 -333.171875 190.31640625 C-361.63295749 190.30603791 -361.63295749 190.30603791 -368.07421875 192.453125 Z M-15.07421875 191.453125 C-15.73421875 194.093125 -16.39421875 196.733125 -17.07421875 199.453125 C-12.9685707 200.40725448 -9.00838396 200.67376874 -4.80078125 200.84765625 C-3.33525118 200.91410275 -1.8697576 200.98135777 -0.40429688 201.04931641 C-0.0205188 201.0667691 -0.0205188 201.0667691 1.92163086 201.15509033 C18.83700199 201.94097379 35.44628928 203.64415269 52.19726562 206.11767578 C54.92578125 206.453125 54.92578125 206.453125 58.92578125 206.453125 C59.25578125 201.833125 59.58578125 197.213125 59.92578125 192.453125 C47.19690134 189.90734902 34.01248057 190.29371374 21.08178711 190.32275391 C18.23220552 190.32813648 15.38278011 190.32276309 12.53320312 190.31640625 C3.27958201 190.31338643 -5.86938842 190.40121285 -15.07421875 191.453125 Z M-22.07421875 210.453125 C-22.533125 211.2577417 -22.99203125 212.0623584 -23.46484375 212.89135742 C-24.0784375 213.95717041 -24.69203125 215.0229834 -25.32421875 216.12109375 C-25.9275 217.17321045 -26.53078125 218.22532715 -27.15234375 219.30932617 C-30.05106433 224.05104681 -33.42679842 228.27104265 -37.07421875 232.453125 C-37.59242188 233.05511719 -38.110625 233.65710938 -38.64453125 234.27734375 C-55.94279736 252.92296225 -81.33283429 260.86014586 -105.07421875 267.453125 C-104.49414062 268.32066406 -103.9140625 269.18820312 -103.31640625 270.08203125 C-102.56871883 271.20553517 -101.8213287 272.32923699 -101.07421875 273.453125 C-100.75582031 273.93201172 -100.75582031 273.93201172 -99.14453125 276.35546875 C-89.86041429 290.84092835 -83.11347864 307.51720714 -82.86889648 324.91748047 C-82.84895126 326.17833466 -82.82900604 327.43918884 -82.80845642 328.73825073 C-82.79147741 330.09893677 -82.77459842 331.45962406 -82.7578125 332.8203125 C-82.73721759 334.22421851 -82.71622049 335.62811868 -82.69483948 337.03201294 C-82.63988054 340.7111332 -82.59035685 344.39030697 -82.54199219 348.06951904 C-82.4915849 351.83024813 -82.43599962 355.59090036 -82.38085938 359.3515625 C-82.27359845 366.71868475 -82.17208354 374.0858713 -82.07421875 381.453125 C-79.85543741 380.67407683 -77.63788391 379.89179535 -75.42089844 379.10766602 C-74.18587585 378.67229019 -72.95085327 378.23691437 -71.67840576 377.78834534 C-66.73007281 375.95516777 -62.02855282 373.77227112 -57.32421875 371.390625 C-56.39319336 370.92164795 -55.46216797 370.4526709 -54.50292969 369.96948242 C-38.27637865 361.60603606 -23.88783817 350.89213528 -10.44140625 338.59765625 C-8.35527389 336.70774426 -6.22772114 334.89000753 -4.07421875 333.078125 C5.14042623 325.01068482 12.74222791 315.32235739 19.92578125 305.453125 C20.12405518 305.18306641 20.12405518 305.18306641 21.12744141 303.81640625 C37.62815992 281.06797401 56.92578125 246.45531293 56.92578125 217.453125 C30.58278245 213.04766245 4.59542163 211.15525808 -22.07421875 210.453125 Z M-365.07421875 217.453125 C-360.36831666 256.64193032 -339.53444659 294.30454532 -313.21875 323.0859375 C-311.32883801 325.17206986 -309.51110128 327.29962261 -307.69921875 329.453125 C-287.24176671 352.7467238 -255.80236613 372.95936861 -226.07421875 381.453125 C-226.07421875 365.613125 -226.07421875 349.773125 -226.07421875 333.453125 C-242.63671875 333.203125 -242.63671875 333.203125 -247.76000977 333.15527344 C-263.85270325 332.87551893 -278.77950456 329.95955543 -290.69921875 318.203125 C-297.22667645 310.14530641 -300.96353619 299.49146452 -304.95703125 290.01171875 C-312.99002543 270.95335119 -312.99002543 270.95335119 -320.82421875 265.703125 C-324.51711618 263.1465037 -325.75878771 261.72827586 -327.07421875 257.453125 C-327.2604909 252.87730904 -326.67834068 249.4671868 -324.32421875 245.515625 C-319.86834661 241.43107554 -315.62464458 240.99190804 -309.74609375 241.1484375 C-300.38648571 242.21576122 -293.26564245 247.77101245 -286.07421875 253.453125 C-285.42453125 253.948125 -284.77484375 254.443125 -284.10546875 254.953125 C-279.75640479 258.43237617 -276.52871515 262.55406432 -273.1015625 266.921875 C-271.19784641 269.29876907 -269.26968104 271.59519182 -267.19921875 273.828125 C-266.64492188 274.43398438 -266.090625 275.03984375 -265.51953125 275.6640625 C-257.16945798 281.77322154 -248.62362698 282.02436216 -238.57421875 281.828125 C-237.31996094 281.82683594 -236.06570312 281.82554687 -234.7734375 281.82421875 C-213.29094002 281.62176589 -213.29094002 281.62176589 -206.37890625 274.7734375 C-202.07421875 269.94818314 -202.07421875 269.94818314 -202.07421875 267.453125 C-203.33234375 267.16179687 -204.59046875 266.87046875 -205.88671875 266.5703125 C-238.22129094 258.90426877 -267.01164625 245.56009255 -285.07421875 216.453125 C-286.10158187 214.46704217 -287.11063082 212.47092041 -288.07421875 210.453125 C-313.58046013 210.453125 -340.07774641 212.23978819 -365.07421875 217.453125 Z M-190.63671875 288.078125 C-199.46387657 301.31886174 -205.22058267 315.88116707 -205.18774414 331.93920898 C-205.18766861 333.17996689 -205.18759308 334.42072479 -205.18751526 335.69908142 C-205.18241029 337.03246095 -205.17719432 338.36584006 -205.171875 339.69921875 C-205.17000722 341.07926889 -205.16858502 342.45931969 -205.16758728 343.83937073 C-205.16379043 347.45114002 -205.15398469 351.06286835 -205.1428833 354.67462158 C-205.13260793 358.36836188 -205.1280766 362.06210887 -205.12304688 365.75585938 C-205.11235957 372.98829981 -205.09531763 380.22070664 -205.07421875 387.453125 C-175.07363273 399.77943577 -134.84200436 395.73525459 -104.07421875 388.453125 C-102.31913105 386.6980373 -102.91930181 384.22610366 -102.8972168 381.84204102 C-102.88438156 380.63890762 -102.87154633 379.43577423 -102.85832214 378.19618225 C-102.85093521 376.87976242 -102.84354828 375.56334259 -102.8359375 374.20703125 C-102.83186197 373.5353636 -102.82778645 372.86369595 -102.82358742 372.17167473 C-102.80266365 368.59776998 -102.78840486 365.02390403 -102.77905273 361.44995117 C-102.77028696 358.52395182 -102.74965138 355.59844211 -102.7175293 352.67260742 C-102.29480917 313.29745283 -102.29480917 313.29745283 -110.94921875 297.828125 C-111.29726563 297.17336182 -111.6453125 296.51859863 -112.00390625 295.84399414 C-117.00967575 286.62265818 -123.61412231 276.8033088 -134.07421875 273.453125 C-136.94719418 273.24068228 -139.72088056 273.12538177 -142.59375 273.1171875 C-143.00245079 273.1138591 -143.00245079 273.1138591 -145.07072449 273.09701538 C-146.79623169 273.08691622 -148.52177773 273.08219751 -150.24731445 273.08251953 C-152.86801615 273.07815614 -155.48701884 273.0418367 -158.10742188 273.00390625 C-159.79035888 272.99803527 -161.47330381 272.99406776 -163.15625 272.9921875 C-163.54336403 272.98500198 -163.54336403 272.98500198 -165.50239563 272.94863892 C-176.40502891 273.03880369 -184.41888676 279.56951281 -190.63671875 288.078125 Z M-281.07421875 289.453125 C-280.14826268 296.86077356 -276.75493619 302.63235417 -270.9296875 307.203125 C-263.68996977 312.08040852 -256.10874927 312.58604836 -247.609375 312.55078125 C-246.93120224 312.5493663 -246.25302948 312.54795135 -245.55430603 312.54649353 C-243.41506297 312.54095245 -241.2759295 312.52841153 -239.13671875 312.515625 C-237.67513173 312.51060236 -236.21354306 312.5060408 -234.75195312 312.50195312 C-231.19267349 312.49100245 -227.63345684 312.47377945 -224.07421875 312.453125 C-223.41421875 309.153125 -222.75421875 305.853125 -222.07421875 302.453125 C-223.07686768 302.4437793 -224.0795166 302.43443359 -225.11254883 302.42480469 C-228.88332246 302.38450212 -232.65331419 302.31863915 -236.42358398 302.24560547 C-238.04587653 302.21762659 -239.66829956 302.19629897 -241.29077148 302.18212891 C-254.2580271 302.0621728 -264.30028874 300.61338104 -275.1015625 292.8203125 C-277.02735351 291.48560586 -278.95637074 290.44808715 -281.07421875 289.453125 Z " fill="#000000" transform="translate(410.07421875,76.546875)"/>
</svg>
