<?xml version="1.0" encoding="UTF-8"?>
<!-- Generator: visioncortex VTracer 0.6.12 -->
<svg version="1.1" xmlns="http://www.w3.org/2000/svg" width="512" height="512">
<path d="M0 0 C1.45195069 1.29434971 2.91887508 2.5718464 4.38671875 3.84814453 C8.85046321 7.76736594 12.96761011 11.76839087 16.7890625 16.31689453 C17.99455814 17.73180812 19.23968859 19.11359742 20.515625 20.46533203 C31.51959119 32.14830884 40.64988375 45.6439219 48.53417969 59.59277344 C49.51415716 61.32457292 50.51653602 63.04363615 51.51953125 64.76220703 C81.27807188 116.97471739 87.12432741 182.85340361 71.54296875 240.37548828 C61.23977831 276.79663125 43.128464 309.17030972 17.6328125 337.06298828 C15.85940034 339.02534342 14.1614663 341.02210237 12.48046875 343.06298828 C9.80787236 346.20420432 6.85170555 348.85432905 3.70703125 351.51611328 C2.25530799 352.76344229 0.83304037 354.04582958 -0.55859375 355.35986328 C-12.23928052 366.35817316 -25.73024662 375.48510606 -39.67431641 383.36669922 C-41.40611589 384.34667669 -43.12517912 385.34905555 -44.84375 386.35205078 C-98.0834458 416.69603616 -163.157466 421.12478863 -221.7109375 406.06689453 C-257.54084924 396.23408724 -290.69732361 377.346729 -317.703125 351.91845703 C-319.6383703 350.13144329 -321.56293924 348.44410114 -323.59765625 346.78173828 C-325.91165238 344.83444099 -327.83624941 342.99094159 -329.76953125 340.68798828 C-331.62291168 338.50350285 -333.47807619 336.35320297 -335.4453125 334.27001953 C-346.44173377 322.59009127 -355.56754903 309.10068064 -363.44824219 295.15820312 C-364.42821966 293.42640364 -365.43059852 291.70734041 -366.43359375 289.98876953 C-396.87333017 236.58107481 -401.44103847 171.22605427 -385.9609375 112.55517578 C-376.36371189 78.17542744 -358.67446254 46.35357644 -334.80029297 19.87011719 C-333.51603441 18.44114029 -332.25353006 16.99270166 -330.9921875 15.54345703 C-327.07209395 11.07388028 -323.06784752 6.95397135 -318.515625 3.12939453 C-317.10071141 1.92389889 -315.71892211 0.67876844 -314.3671875 -0.59716797 C-302.68421069 -11.60113416 -289.18859763 -20.73142671 -275.23974609 -28.61572266 C-273.50794661 -29.59570012 -271.78888338 -30.59807899 -270.0703125 -31.60107422 C-186.68001491 -79.11428812 -74.93271754 -65.5765466 0 0 Z M-146.45703125 -36.62451172 C-146.45703125 -3.29451172 -146.45703125 30.03548828 -146.45703125 64.37548828 C-109.55271288 62.06896838 -109.55271288 62.06896838 -98.08203125 60.37548828 C-96.87933594 60.21048828 -95.67664063 60.04548828 -94.4375 59.87548828 C-78.53786417 57.64640462 -78.53786417 57.64640462 -74.45703125 56.37548828 C-73.45703125 54.37548828 -73.45703125 54.37548828 -74.07104492 52.21850586 C-75.249011 49.20250886 -76.43101668 46.18992217 -77.64453125 43.18798828 C-77.86979492 42.62994507 -77.86979492 42.62994507 -79.00976562 39.8059082 C-91.52605574 9.45904131 -108.26281699 -19.59061086 -138.765625 -34.53076172 C-141.45703125 -35.62451172 -141.45703125 -35.62451172 -146.45703125 -36.62451172 Z M-193.45703125 -23.62451172 C-194.30007812 -22.93357422 -195.143125 -22.24263672 -196.01171875 -21.53076172 C-218.74797391 -1.98183205 -232.51241977 27.25846063 -241.45703125 55.37548828 C-235.04308706 57.69446065 -228.52509199 58.58884667 -221.80859375 59.55273438 C-219.676125 59.86184881 -217.5473091 60.19015698 -215.41796875 60.52001953 C-199.71804546 62.79678777 -184.4704352 63.37465053 -168.45703125 64.37548828 C-168.45703125 31.04548828 -168.45703125 -2.28451172 -168.45703125 -36.62451172 C-177.39963508 -36.62451172 -186.93734052 -28.99595841 -193.45703125 -23.62451172 Z M-95.45703125 -28.62451172 C-95.12832031 -28.18623047 -94.79960937 -27.74794922 -94.4609375 -27.29638672 C-93.42218608 -25.91138482 -92.38604509 -24.52442373 -91.3515625 -23.13623047 C-90.05455887 -21.41669782 -88.73839283 -19.71149871 -87.40625 -18.01904297 C-73.35729988 0.07241145 -63.24023129 20.69157117 -56.19482422 42.4309082 C-55.89334473 43.32269775 -55.59186523 44.2144873 -55.28125 45.13330078 C-55.02432373 45.92881348 -54.76739746 46.72432617 -54.50268555 47.54394531 C-53.45703125 49.37548828 -53.45703125 49.37548828 -51.73583984 50.25146484 C-48.5703005 50.42374832 -46.18218731 49.59265431 -43.171875 48.60205078 C-41.92680176 48.19325684 -40.68172852 47.78446289 -39.39892578 47.36328125 C-38.06377017 46.91006857 -36.72897787 46.4557843 -35.39453125 46.00048828 C-34.72484314 45.77572815 -34.05515503 45.55096802 -33.36517334 45.31939697 C-21.97520186 41.48680105 -11.12298307 36.9368284 -0.45703125 31.37548828 C-3.21847745 26.92175439 -6.24993112 23.33799266 -10.14453125 19.81298828 C-10.42578857 19.55710937 -10.42578857 19.55710937 -11.84912109 18.26220703 C-31.69798628 0.50864946 -67.41115762 -28.62451172 -95.45703125 -28.62451172 Z M-223.38623047 -28.16235352 C-226.04020941 -27.22541439 -228.69070341 -26.28422903 -231.33203125 -25.31201172 C-231.82348633 -25.13150269 -231.82348633 -25.13150269 -234.31054688 -24.21801758 C-259.48071717 -14.72673223 -282.44193257 -0.30055845 -302.046875 18.12158203 C-304.90648323 20.79580237 -307.88258983 23.30973426 -310.8984375 25.80517578 C-312.60725514 27.52684168 -313.49422551 29.1624721 -314.45703125 31.37548828 C-298.11201137 39.52180428 -280.55244326 47.30068194 -262.45703125 50.37548828 C-260.14131996 44.89794041 -257.84439905 39.42249323 -255.73046875 33.86376953 C-247.18291274 11.54690241 -236.18999131 -10.24344405 -219.45703125 -27.62451172 C-221.45703125 -28.62451172 -221.45703125 -28.62451172 -223.38623047 -28.16235352 Z M-329.45703125 48.37548828 C-356.78934655 81.4305071 -369.97400356 124.16401757 -372.45703125 166.37548828 C-342.09703125 166.37548828 -311.73703125 166.37548828 -280.45703125 166.37548828 C-279.79703125 155.15548828 -279.13703125 143.93548828 -278.45703125 132.37548828 C-276.26276833 113.1756877 -273.13810852 94.60371653 -268.94433594 75.78857422 C-268.45703125 73.37548828 -268.45703125 73.37548828 -268.45703125 71.37548828 C-268.93479004 71.21729614 -268.93479004 71.21729614 -271.35253906 70.41674805 C-288.47898993 64.72851463 -305.36595995 59.03379444 -321.65087891 51.19091797 C-324.18909803 50.04497962 -326.795508 49.18606208 -329.45703125 48.37548828 Z M10.60546875 48.90771484 C9.92484375 49.27348633 9.24421875 49.63925781 8.54296875 50.01611328 C7.75188721 50.42273193 6.96080566 50.82935059 6.14575195 51.24829102 C5.71629272 51.47552856 5.71629272 51.47552856 3.54296875 52.62548828 C-5.15115596 57.00550349 -13.96285576 60.58167943 -23.14453125 63.81298828 C-24.31306641 64.22516602 -25.48160156 64.63734375 -26.68554688 65.06201172 C-33.22884613 67.33623006 -39.80094446 69.456063 -46.45703125 71.37548828 C-46.32651367 71.99141846 -46.19599609 72.60734863 -46.06152344 73.24194336 C-41.78373552 93.59514884 -38.20217287 114.02963442 -36.26953125 134.75048828 C-36.23363892 135.13507202 -36.23363892 135.13507202 -36.05200195 137.08129883 C-35.23093546 146.83108835 -34.92258293 156.5989031 -34.45703125 166.37548828 C-4.09703125 166.37548828 26.26296875 166.37548828 57.54296875 166.37548828 C56.37652321 146.54591411 56.37652321 146.54591411 54.35546875 137.06298828 C54.13407227 136.00176758 53.91267578 134.94054687 53.68457031 133.84716797 C47.82209471 106.57888883 37.36982272 80.60420619 21.73046875 57.43798828 C21.27430176 56.75696045 20.81813477 56.07593262 20.34814453 55.37426758 C15.00090516 47.7002991 15.00090516 47.7002991 10.60546875 48.90771484 Z M-247.45703125 76.37548828 C-253.56959714 96.50612826 -256.29867388 117.54010945 -258.26953125 138.43798828 C-258.33144653 139.08795776 -258.33144653 139.08795776 -258.64477539 142.37719727 C-259.35488812 150.4747815 -259.45703125 158.16130655 -259.45703125 166.37548828 C-229.42703125 166.37548828 -199.39703125 166.37548828 -168.45703125 166.37548828 C-168.45703125 139.64548828 -168.45703125 112.91548828 -168.45703125 85.37548828 C-174.72703125 84.88048828 -174.72703125 84.88048828 -206.45703125 82.37548828 C-215.82005878 81.13460511 -225.13674029 79.86077598 -234.45703125 78.37548828 C-236.88259901 78.00040716 -239.30837855 77.62669281 -241.734375 77.25439453 C-242.8287085 77.08625244 -243.92304199 76.91811035 -245.05053711 76.74487305 C-245.44760864 76.68392456 -245.44760864 76.68392456 -247.45703125 76.37548828 Z M-68.45703125 76.37548828 C-70.99023438 76.55981445 -70.99023438 76.55981445 -74.23828125 77.16845703 C-75.45660645 77.3853418 -76.67493164 77.60222656 -77.93017578 77.82568359 C-78.58520081 77.94609009 -79.24022583 78.06649658 -79.9151001 78.19055176 C-92.4241458 80.4721299 -104.91175253 82.07768855 -117.58203125 83.12548828 C-118.28497314 83.18392914 -118.98791504 83.24237 -119.7121582 83.30258179 C-124.29238595 83.67927881 -128.87434415 84.02989251 -133.45703125 84.37548828 C-135.60203125 84.54048828 -135.60203125 84.54048828 -146.45703125 85.37548828 C-146.45703125 112.10548828 -146.45703125 138.83548828 -146.45703125 166.37548828 C-116.42703125 166.37548828 -86.39703125 166.37548828 -55.45703125 166.37548828 C-55.45703125 151.71310886 -55.45703125 151.71310886 -55.97265625 145.98486328 C-56.08730225 144.71078613 -56.20194824 143.43670898 -56.32006836 142.12402344 C-56.44812672 140.79108878 -56.57713524 139.45824511 -56.70703125 138.12548828 C-56.77294464 137.43461121 -56.83885803 136.74373413 -56.9067688 136.03192139 C-58.52928469 119.17622733 -61.02645219 102.49936882 -64.58203125 85.93798828 C-64.66126831 85.56488525 -64.66126831 85.56488525 -65.06225586 83.67675781 C-66.21051559 78.62200394 -66.21051559 78.62200394 -68.45703125 76.37548828 Z M-372.45703125 188.37548828 C-371.29058571 208.20506245 -371.29058571 208.20506245 -369.26953125 217.68798828 C-369.04813477 218.74920898 -368.82673828 219.81042969 -368.59863281 220.90380859 C-362.73615721 248.17208774 -352.28388522 274.14677038 -336.64453125 297.31298828 C-336.18836426 297.99401611 -335.73219727 298.67504395 -335.26220703 299.37670898 C-331.28055994 305.09087889 -331.28055994 305.09087889 -327.45703125 306.37548828 C-325.51953125 305.84326172 -325.51953125 305.84326172 -323.45703125 304.73486328 C-322.66594971 304.32824463 -321.87486816 303.92162598 -321.05981445 303.50268555 C-320.200896 303.04821045 -319.34197754 302.59373535 -318.45703125 302.12548828 C-309.76290654 297.74547308 -300.95120674 294.16929713 -291.76953125 290.93798828 C-290.60099609 290.52581055 -289.43246094 290.11363281 -288.22851562 289.68896484 C-281.68521637 287.41474651 -275.11311804 285.29491356 -268.45703125 283.37548828 C-268.58754883 282.75955811 -268.71806641 282.14362793 -268.85253906 281.5090332 C-273.13032698 261.15582772 -276.71188963 240.72134214 -278.64453125 220.00048828 C-278.71631592 219.2313208 -278.78810059 218.46215332 -278.86206055 217.66967773 C-279.68312704 207.91988822 -279.99147957 198.15207347 -280.45703125 188.37548828 C-310.81703125 188.37548828 -341.17703125 188.37548828 -372.45703125 188.37548828 Z M-259.45703125 188.37548828 C-259.45703125 203.0378677 -259.45703125 203.0378677 -258.94140625 208.76611328 C-258.82676025 210.04019043 -258.71211426 211.31426758 -258.59399414 212.62695312 C-258.46593578 213.95988778 -258.33692726 215.29273145 -258.20703125 216.62548828 C-258.17407455 216.97092682 -258.17407455 216.97092682 -258.0072937 218.71905518 C-256.38477781 235.57474923 -253.88761031 252.25160774 -250.33203125 268.81298828 C-250.17355713 269.55919434 -250.01508301 270.30540039 -249.85180664 271.07421875 C-248.70354691 276.12897262 -248.70354691 276.12897262 -246.45703125 278.37548828 C-244.015625 278.19116211 -244.015625 278.19116211 -240.89453125 277.58251953 C-240.30800781 277.47407715 -240.30800781 277.47407715 -237.33984375 276.92529297 C-236.05851562 276.68198242 -234.7771875 276.43867188 -233.45703125 276.18798828 C-221.82570778 274.07755816 -210.23702879 272.6008592 -198.45703125 271.62548828 C-197.75658691 271.56704742 -197.05614258 271.50860657 -196.33447266 271.44839478 C-187.04741491 270.68234353 -177.7520245 270.03941637 -168.45703125 269.37548828 C-168.45703125 242.64548828 -168.45703125 215.91548828 -168.45703125 188.37548828 C-198.48703125 188.37548828 -228.51703125 188.37548828 -259.45703125 188.37548828 Z M-146.45703125 188.37548828 C-146.45703125 215.10548828 -146.45703125 241.83548828 -146.45703125 269.37548828 C-133.58703125 270.36548828 -120.71703125 271.35548828 -107.45703125 272.37548828 C-86.90147569 275.29215495 -86.90147569 275.29215495 -77.66210938 276.85058594 C-74.26638718 277.40671046 -70.86478611 277.89919911 -67.45703125 278.37548828 C-59.55848252 249.05002544 -55.45703125 218.73544637 -55.45703125 188.37548828 C-85.48703125 188.37548828 -115.51703125 188.37548828 -146.45703125 188.37548828 Z M-34.45703125 188.37548828 C-35.11703125 199.59548828 -35.77703125 210.81548828 -36.45703125 222.37548828 C-38.65129417 241.57528886 -41.77595398 260.14726003 -45.96972656 278.96240234 C-46.45703125 281.37548828 -46.45703125 281.37548828 -46.45703125 283.37548828 C-45.50151367 283.69187256 -44.54599609 284.00825684 -43.56152344 284.33422852 C-26.43507257 290.02246193 -9.54810255 295.71718212 6.73681641 303.56005859 C9.27503553 304.70599694 11.8814455 305.56491448 14.54296875 306.37548828 C40.60198608 274.13069611 57.54296875 230.00974801 57.54296875 188.37548828 C27.18296875 188.37548828 -3.17703125 188.37548828 -34.45703125 188.37548828 Z M-146.45703125 290.37548828 C-146.45703125 323.70548828 -146.45703125 357.03548828 -146.45703125 391.37548828 C-119.59970097 383.3182892 -102.8715689 362.04017728 -89.93994141 338.28369141 C-85.1396313 329.25031162 -80.89911089 320.07948721 -77.14453125 310.56298828 C-76.94887573 310.06766602 -76.94887573 310.06766602 -75.95874023 307.56103516 C-73.98532118 302.37182653 -73.98532118 302.37182653 -73.45703125 300.37548828 C-73.62203125 300.04548828 -73.62203125 300.04548828 -74.45703125 298.37548828 C-77.09887695 297.72119141 -77.09887695 297.72119141 -80.6328125 297.15673828 C-81.92590332 296.94758789 -83.21899414 296.7384375 -84.55126953 296.52294922 C-85.95723209 296.30631818 -87.36332247 296.09051525 -88.76953125 295.87548828 C-89.47575623 295.76499146 -90.1819812 295.65449463 -90.90960693 295.54064941 C-109.46104329 292.63890774 -127.61469792 291.27274225 -146.45703125 290.37548828 Z M-236.21875 297.37548828 C-236.61751343 297.44767578 -236.61751343 297.44767578 -238.63549805 297.81298828 C-238.93605103 297.90580078 -238.93605103 297.90580078 -240.45703125 298.37548828 C-241.45703125 300.37548828 -241.45703125 300.37548828 -240.84301758 302.5324707 C-239.6650515 305.5484677 -238.48304582 308.56105439 -237.26953125 311.56298828 C-236.81900391 312.67907471 -236.36847656 313.79516113 -235.90429688 314.94506836 C-223.38800676 345.29193525 -206.65124551 374.34158742 -176.1484375 389.28173828 C-173.45703125 390.37548828 -173.45703125 390.37548828 -168.45703125 391.37548828 C-168.45703125 358.04548828 -168.45703125 324.71548828 -168.45703125 290.37548828 C-191.04974026 290.37548828 -214.04262601 293.35275118 -236.21875 297.37548828 Z M-52.45703125 304.37548828 C-54.77274254 309.85303615 -57.06966345 315.32848333 -59.18359375 320.88720703 C-67.73114976 343.20407415 -78.72407119 364.99442061 -95.45703125 382.37548828 C-93.45703125 383.37548828 -93.45703125 383.37548828 -91.52783203 382.91333008 C-88.87385309 381.97639096 -86.22335909 381.03520559 -83.58203125 380.06298828 C-82.59912109 379.70197021 -81.61621094 379.34095215 -80.60351562 378.96899414 C-54.99325109 369.311756 -31.89620467 354.57690056 -12.0234375 335.78564453 C-9.85005834 333.74458678 -7.63682993 331.8263141 -5.33203125 329.93798828 C-2.74160893 327.62913361 -1.81054412 326.41122428 -0.45703125 323.37548828 C-8.79591212 318.98405716 -17.22418517 315.39220913 -26.08203125 312.18798828 C-27.231875 311.76324219 -28.38171875 311.33849609 -29.56640625 310.90087891 C-47.38691315 304.37548828 -47.38691315 304.37548828 -52.45703125 304.37548828 Z M-279.45703125 308.81298828 C-280.12921692 309.03525085 -280.80140259 309.25751343 -281.49395752 309.48651123 C-292.91946023 313.28545761 -303.76904893 317.80266123 -314.45703125 323.37548828 C-311.69558505 327.82922217 -308.66413138 331.4129839 -304.76953125 334.93798828 C-304.2070166 335.44974609 -303.64450195 335.96150391 -303.06494141 336.48876953 C-279.9579722 357.15649558 -251.65408476 375.32294068 -221.45703125 383.37548828 C-220.79703125 383.04548828 -220.13703125 382.71548828 -219.45703125 382.37548828 C-219.8953125 381.93462891 -220.33359375 381.49376953 -220.78515625 381.03955078 C-239.33981492 361.35351049 -250.40176265 335.9706254 -259.48657227 310.88305664 C-260.35850019 308.63008262 -261.33450182 306.5125213 -262.45703125 304.37548828 C-268.31517157 304.37548828 -273.93433664 306.97584735 -279.45703125 308.81298828 Z " fill="#000000" transform="translate(413.45703125,78.62451171875)"/>
</svg>
