<?xml version="1.0" encoding="UTF-8"?>
<!-- Generator: visioncortex VTracer 0.6.12 -->
<svg version="1.1" xmlns="http://www.w3.org/2000/svg" width="512" height="512">
<path d="M0 0 C0.34876448 -0.00102632 0.34876448 -0.00102632 2.11372414 -0.0062201 C4.46255405 -0.01189667 6.81132544 -0.01043204 9.16016102 -0.00901413 C10.85661744 -0.01159739 12.55307326 -0.01461044 14.24952823 -0.01801753 C18.92056677 -0.02609541 23.59158994 -0.02787754 28.26263463 -0.028615 C33.29687086 -0.03046419 38.33109909 -0.03801086 43.3653307 -0.04475021 C54.37774252 -0.05833977 65.39015071 -0.06435926 76.40256953 -0.06876087 C83.27726077 -0.07152231 90.1519506 -0.07575949 97.02664089 -0.08026505 C116.05615844 -0.09245865 135.08567486 -0.1027577 154.11519623 -0.10614014 C155.33344752 -0.1063597 156.55169881 -0.10657927 157.80686681 -0.10680549 C159.02805385 -0.10702377 160.24924089 -0.10724204 161.50743359 -0.10746694 C163.98207422 -0.1079104 166.45671485 -0.10835697 168.93135548 -0.10880661 C169.54511072 -0.10891732 169.54511072 -0.10891732 172.65108422 -0.10947761 C192.54226867 -0.11342583 212.43341648 -0.13088018 232.32458677 -0.15416613 C252.74069237 -0.17787392 273.15677958 -0.19034173 293.57289916 -0.19150805 C305.03814044 -0.19242515 316.50333399 -0.19818614 327.96856213 -0.21632767 C337.73142102 -0.23172093 347.49421746 -0.23685369 357.25708618 -0.22858956 C362.23840648 -0.2246803 367.21960095 -0.22562621 372.2009058 -0.23964691 C376.76258327 -0.2523691 381.32404015 -0.25120307 385.88571725 -0.2390562 C387.53447041 -0.23709629 389.1832391 -0.24019122 390.83197042 -0.24890056 C404.27945815 -0.31542904 414.0227834 1.31931923 424.0126543 10.98299026 C430.40777981 17.81352857 434.21365876 25.73396013 434.23281288 35.15316486 C434.23727073 36.17149688 434.24172857 37.18982889 434.2463215 38.23901945 C434.24622932 38.79752056 434.24622932 38.79752056 434.24576283 41.62387466 C434.24943951 42.81192843 434.2531162 43.99998219 434.2569043 45.22403759 C434.26602319 48.52303692 434.27063909 51.82198653 434.27329361 55.12099373 C434.2772004 58.67877545 434.28677854 62.2365428 434.29550648 65.79431534 C434.31526123 74.38750731 434.32533625 82.98070043 434.33423427 91.57390943 C434.33861915 95.62252673 434.34398548 99.67114272 434.34922314 103.71975899 C434.36623511 117.18191538 434.3807284 130.64407097 434.38797188 144.10623646 C434.38988172 147.59908995 434.39180206 151.09194344 434.39375782 154.58479691 C434.39424156 155.452909 434.3947253 156.32102109 434.3952237 157.21543961 C434.40352073 171.27248992 434.42885224 185.32945505 434.4613385 199.38646818 C434.49443343 213.82481808 434.51242287 228.26312473 434.51561612 242.70151275 C434.51777906 250.80554514 434.52649593 258.90945334 434.55207729 267.01344872 C434.57381765 273.91652196 434.5818184 280.81944084 434.57211051 287.72254444 C434.56757529 291.24194378 434.56940605 294.76102486 434.58887196 298.28038025 C434.60658119 302.1038858 434.59948802 305.92658897 434.586339 309.75009537 C434.59182362 310.30078895 434.59182362 310.30078895 434.61957914 313.08763224 C434.52159197 324.92464594 430.7482806 334.38786101 422.43843555 342.81502151 C415.20757683 349.41997448 407.92707074 352.25167059 398.19997692 352.26564884 C397.50274755 352.26800107 396.80551818 352.2703533 396.08716065 352.27277681 C393.7393421 352.27945982 391.39157898 352.2790088 389.04375172 352.27859879 C387.34800781 352.28189784 385.6522647 352.2856235 383.95652258 352.28974026 C379.28741652 352.29976358 374.61832332 352.30347759 369.94920802 352.30612957 C364.91699632 352.31003163 359.88479481 352.31961002 354.85258961 352.32834244 C342.69541008 352.34810936 330.53822971 352.35817322 318.38103813 352.36707023 C312.65718528 352.37145264 306.93333336 352.37681956 301.20948124 352.3820591 C282.18425596 352.39907139 263.15903127 352.41356593 244.13379955 352.42080784 C239.19611962 352.42271776 234.25843969 352.42463809 229.32075977 352.42659378 C228.0935116 352.42707752 226.86626342 352.42756126 225.60182591 352.42805966 C205.71777168 352.43636134 185.83377759 352.4617006 165.94974963 352.49417446 C145.53928952 352.52723656 125.12885998 352.54525582 104.71837294 352.54845208 C93.25699455 352.55061793 81.79570385 352.55937764 70.33435154 352.58491325 C60.57407142 352.6066086 50.8139003 352.61467637 41.05359881 352.60494647 C36.07414172 352.60039846 31.09490959 352.60231727 26.11548328 352.62170792 C21.55431546 352.63931633 16.99353708 352.63836068 12.43236525 352.62281062 C10.78493756 352.62043104 9.13748307 352.62477632 7.49009638 352.63663927 C-6.2895632 352.72969746 -16.42124833 350.29750764 -26.5889082 340.50642776 C-32.60749962 334.00634903 -36.01761902 325.96638892 -36.03562927 317.10969067 C-36.04008712 316.09135865 -36.04454496 315.07302664 -36.04913789 314.02383608 C-36.04895353 312.90683386 -36.04876917 311.78983164 -36.04857922 310.63898087 C-36.0522559 309.4509271 -36.05593259 308.26287334 -36.0597207 307.03881794 C-36.06883959 303.73981861 -36.07345549 300.440869 -36.07611001 297.1418618 C-36.0800168 293.58408008 -36.08959493 290.02631273 -36.09832287 286.46854019 C-36.11807762 277.87534822 -36.12815264 269.2821551 -36.13705066 260.6889461 C-36.14143554 256.6403288 -36.14680187 252.59171281 -36.15203953 248.54309654 C-36.1690515 235.08094015 -36.1835448 221.61878456 -36.19078827 208.15661907 C-36.19269811 204.66376558 -36.19461845 201.17091209 -36.19657421 197.67805862 C-36.19681608 197.24400258 -36.19681608 197.24400258 -36.19804009 195.04741592 C-36.20633712 180.99036561 -36.23166864 166.93340048 -36.26415489 152.87638735 C-36.29724982 138.43803745 -36.31523926 123.9997308 -36.31843251 109.56134278 C-36.32059545 101.45731038 -36.32931232 93.35340219 -36.35489368 85.24940681 C-36.37663404 78.34633357 -36.38463479 71.44341469 -36.3749269 64.54031109 C-36.37039168 61.02091175 -36.37222244 57.50183067 -36.39168835 53.98247528 C-36.40939759 50.15896973 -36.40230441 46.33626656 -36.38915539 42.51276016 C-36.40012463 41.41137299 -36.41109388 40.30998583 -36.42239553 39.17522329 C-36.32625409 27.56117567 -32.62635444 18.15423197 -24.7764082 9.56892776 C-17.76211214 2.73642772 -9.58622777 0.00959652 0 0 Z " fill="#E7504C" transform="translate(56.901408195495605,79.86857223510742)"/>
<path d="M0 0 C6.7158605 4.27372941 13.23628434 8.49166541 19.625 13.1875 C21.18824882 14.32628071 22.75206464 15.46428342 24.31640625 16.6015625 C25.0964502 17.16907227 25.87649414 17.73658203 26.68017578 18.32128906 C30.28685815 20.93121833 33.92219845 23.49975812 37.5625 26.0625 C38.25939941 26.55322998 38.95629883 27.04395996 39.67431641 27.54956055 C41.07972678 28.53867946 42.4853253 29.5275311 43.89111328 30.51611328 C47.43041167 33.00648786 50.96495184 35.50359792 54.5 38 C55.91664412 39.00003195 57.33331078 40.00003196 58.75 41 C61.58333333 43 64.41666667 45 67.25 47 C67.60058472 47.24745972 67.60058472 47.24745972 69.37475586 48.49975586 C70.79232654 49.50044188 72.20980692 50.50125583 73.62719727 51.50219727 C77.15430572 53.99275451 80.68292217 56.48111592 84.21484375 58.96484375 C91.47234973 64.07231989 98.69586324 69.22035849 105.875 74.4375 C112.07537574 78.94092371 118.34713637 83.32108331 124.6875 87.625 C130.96003131 91.88305576 137.13134336 96.24108627 143.21850586 100.75952148 C149.34197786 105.29005496 155.58266825 109.64913522 161.84570312 113.98413086 C165.47088746 116.49876852 169.07287273 119.0121412 172.54296875 121.73828125 C173.02056641 122.11146484 173.02056641 122.11146484 175.4375 124 C176.21996094 124.639375 177.00242188 125.27875 177.80859375 125.9375 C180 127 180 127 182.375 126.484375 C185.63099988 124.64318459 188.59221218 122.51042033 191.5625 120.25 C197.59284232 115.74425037 203.69860619 111.36585654 209.875 107.0625 C210.72441162 106.46993408 211.57382324 105.87736816 212.44897461 105.2668457 C214.15005221 104.08031454 215.85130343 102.89403224 217.55273438 101.70800781 C221.25025364 99.12741675 224.93985918 96.53573131 228.625 93.9375 C229.31335938 93.45216797 230.00171875 92.96683594 230.7109375 92.46679688 C235.79533861 88.8724871 240.83763684 85.22230969 245.875 81.5625 C252.07543421 77.05915433 258.34713359 72.67891858 264.6875 68.375 C270.96444834 64.11394577 277.13866566 59.75108974 283.23168945 55.23168945 C290.89363844 49.56602738 298.73602425 44.15683847 306.55273438 38.70800781 C316.09180604 32.05045141 325.5781446 25.32240836 335 18.5 C341.16808444 14.03496785 347.35096917 9.59194425 353.5625 5.1875 C354.29533203 4.66542969 355.02816406 4.14335937 355.78320312 3.60546875 C360.88278596 0 360.88278596 0 362 0 C362 87.12 362 174.24 362 264 C242.54 264 123.08 264 0 264 C0 176.88 0 89.76 0 0 Z " fill="#E0DFDF" transform="translate(75,168)"/>
<path d="M0 0 C135.96 0 271.92 0 412 0 C409.08835562 2.91164438 406.82487226 4.95133041 403.5 7.1796875 C402.62351807 7.77128662 401.74703613 8.36288574 400.84399414 8.97241211 C399.90547607 9.60026611 398.96695801 10.22812012 398 10.875 C395.99799983 12.22683132 393.99671198 13.57971808 391.99609375 14.93359375 C390.98788574 15.61534668 389.97967773 16.29709961 388.94091797 16.99951172 C384.61983777 19.93882196 380.33797642 22.93238662 376.0625 25.9375 C374.41801234 27.09250998 372.77348047 28.24745702 371.12890625 29.40234375 C370.71326416 29.69423584 370.71326416 29.69423584 368.60986328 31.17138672 C363.91554912 34.46048055 359.20712483 37.72927938 354.5 41 C347.32442841 45.98736565 340.15622697 50.98491614 333 56 C324.86852459 61.69853797 316.71976075 67.371884 308.56640625 73.0390625 C302.36945898 77.34781242 296.18100437 81.66841541 290 86 C278.04298219 94.37837909 266.0523 102.7082451 254.06347656 111.04101562 C243.70047478 118.24435509 233.3407098 125.45218075 223 132.6875 C222.19344971 133.25162598 221.38689941 133.81575195 220.5559082 134.39697266 C219.7949585 134.92983887 219.03400879 135.46270508 218.25 136.01171875 C217.528125 136.51106934 216.80625 137.01041992 216.0625 137.52490234 C214.69903946 138.50004777 213.36397012 139.51629341 212.0625 140.57275391 C210.25 142.01953125 210.25 142.01953125 207 144 C202.47454523 143.30647055 198.96087189 139.92176942 195.375 137.1875 C189.61284795 132.87789492 183.76557297 128.72914855 177.8125 124.6875 C171.25897245 120.23295292 164.73601223 115.73986622 158.25 111.1875 C151.01179209 106.1078938 143.76158695 101.04613617 136.5 96 C129.32445196 91.01259985 122.15626164 86.0150349 115 81 C104.9911359 73.98670797 94.95863162 67.00763171 84.92333984 60.03222656 C79.1585586 56.02470701 73.39561037 52.01455202 67.63232422 48.00488281 C62.80367052 44.64560511 57.97456382 41.28698241 53.14453125 37.9296875 C43.04811381 30.91074711 32.95831697 23.88275236 22.89208984 16.82055664 C19.2629218 14.27599731 15.6296658 11.73880044 11.97265625 9.234375 C11.36824707 8.81986084 10.76383789 8.40534668 10.14111328 7.97827148 C8.57389258 6.90583255 7.00387408 5.83748523 5.43359375 4.76953125 C3 3 3 3 0 0 Z " fill="#F4F4F4" transform="translate(50,80)"/>
<path d="M0 0 C0.62269272 0.77926346 1.24538544 1.55852692 1.88694763 2.36140442 C7.77397968 9.71261681 13.57625 15.58660369 21.4375 20.8125 C23.19564662 22.01122886 24.95345269 23.21045731 26.7109375 24.41015625 C27.58975586 25.0045752 28.46857422 25.59899414 29.37402344 26.21142578 C33.47461843 29.00437473 37.51776708 31.87702731 41.5625 34.75 C42.93838874 35.72454217 44.31465757 36.69854806 45.69140625 37.671875 C46.26060791 38.0750293 46.82980957 38.47818359 47.41625977 38.89355469 C48.92932033 39.9506212 50.4642547 40.9761698 52 42 C52.37259549 43.94758475 52.37259549 43.94758475 52.36914349 46.38469887 C52.37511663 47.31178079 52.38108978 48.23886272 52.38724393 49.19403803 C52.38287466 49.70667584 52.38287466 49.70667584 52.36076355 52.30093384 C52.36332682 53.38478406 52.3658901 54.46863429 52.36853105 55.58532846 C52.37349876 59.24144136 52.35692659 62.89714738 52.34057617 66.55322266 C52.33973055 69.1643218 52.34020378 71.77542166 52.34190369 74.38652039 C52.34347905 80.02051686 52.33404253 85.65440935 52.31719017 91.28837967 C52.29284016 99.43420248 52.28499901 107.57997486 52.2812262 115.72583012 C52.27465542 128.94094653 52.25467729 142.15600747 52.22631836 155.37109375 C52.19879398 168.21060915 52.17755248 181.0501095 52.16479492 193.88964844 C52.16400675 194.68067682 52.16321858 195.4717052 52.16240653 196.28670414 C52.1584915 200.25494166 52.15470036 204.22317928 52.15097082 208.19141698 C52.1198554 241.1276517 52.0670026 274.06381844 52 307 C48.20860154 307.11771717 44.41768265 307.18775198 40.625 307.25 C39.56410156 307.28351563 38.50320312 307.31703125 37.41015625 307.3515625 C25.55597252 307.49701261 16.80079351 303.54891227 8.3125 295.375 C1.08099452 287.56497408 -0.59467761 279.65986498 -0.48101807 269.24986267 C-0.48443577 268.09469463 -0.48785347 266.9395266 -0.49137473 265.74935347 C-0.49679824 262.56559894 -0.48439769 259.38250576 -0.46426249 256.19882929 C-0.44691191 252.75723861 -0.45283953 249.3156761 -0.45587158 245.87405396 C-0.45796416 239.9187543 -0.44546487 233.96363058 -0.42292023 228.00837517 C-0.39034629 219.39821498 -0.37998771 210.78813946 -0.37496826 202.17792434 C-0.36622405 188.20686559 -0.33963224 174.2359005 -0.30175781 160.26489258 C-0.26501507 146.697189 -0.2367144 133.1295109 -0.21972656 119.56176758 C-0.21867567 118.72478633 -0.21762477 117.88780509 -0.21654204 117.02546077 C-0.21132171 112.82637262 -0.20626692 108.62728429 -0.20129442 104.42819583 C-0.1598596 69.61873046 -0.08943503 34.80937389 0 0 Z " fill="#CA3737" transform="translate(22,125)"/>
<path d="M0 0 C0.33 0 0.66 0 1 0 C1.13743905 35.59342326 1.24311164 71.18679986 1.30639198 106.780434 C1.3138959 110.98594732 1.32166186 115.19146012 1.32958984 119.39697266 C1.33116371 120.23418768 1.33273757 121.07140271 1.33435912 121.93398789 C1.36044192 135.4765687 1.40773547 149.01899615 1.46291678 162.5614861 C1.519096 176.46520705 1.55236748 190.36884787 1.56453097 204.27267766 C1.57274925 212.84691456 1.59867207 221.42071789 1.6474988 229.99482128 C1.67930126 235.88049358 1.68878109 241.7659429 1.68100826 247.6516948 C1.6771783 251.04394267 1.68621664 254.434828 1.71523285 257.82704353 C1.74522516 261.5149913 1.7378579 265.20110614 1.7215271 268.88909912 C1.73900415 269.94750149 1.7564812 271.00590387 1.77448785 272.09637904 C1.66101807 281.62060601 -1.84828802 289.74322011 -8.1875 296.875 C-15.13644808 303.20350628 -23.26037744 307.14755118 -32.640625 307.09765625 C-33.71054687 307.09443359 -34.78046875 307.09121094 -35.8828125 307.08789062 C-36.99398438 307.07951172 -38.10515625 307.07113281 -39.25 307.0625 C-39.81332031 307.06024414 -39.81332031 307.06024414 -42.6640625 307.04882812 C-45.44276217 307.03705397 -48.22135409 307.0206084 -51 307 C-51.36648051 273.4281584 -51.64828209 239.85681572 -51.81704527 206.283417 C-51.83705581 202.31695246 -51.85776504 198.35049186 -51.87890625 194.3840332 C-51.88310322 193.5944057 -51.88730018 192.8047782 -51.89162433 191.9912226 C-51.9611862 179.21695068 -52.0873028 166.44383459 -52.23444474 153.67024764 C-52.38424183 140.55647278 -52.4729755 127.44330182 -52.50541592 114.32870656 C-52.52733748 106.2399765 -52.59647095 98.15451314 -52.72666347 90.06678931 C-52.82150731 83.85743279 -52.83124301 77.65054886 -52.8097229 71.44056702 C-52.8141175 68.89875522 -52.84585545 66.35681752 -52.9072876 63.8157444 C-53.33757088 45.09609025 -53.33757088 45.09609025 -49.42606544 39.91533875 C-45.68320048 36.4148975 -41.51787006 34.05745526 -36.8900156 31.91605532 C-34.31511353 30.6680483 -32.09305058 29.05081879 -29.81640625 27.328125 C-29.10137939 26.81282227 -28.38635254 26.29751953 -27.6496582 25.76660156 C-24.73113594 23.64590203 -21.81446715 21.52277566 -18.90429688 19.390625 C-17.31363824 18.22903634 -15.71272266 17.08151022 -14.109375 15.9375 C-8.30847102 11.67561136 -3.25216411 6.50432821 0 0 Z " fill="#CA3737" transform="translate(489,125)"/>
<path d="M0 0 C4.26574753 1.54398287 6.43358212 4.75233052 9.0625 8.25 C10.042767 9.52619666 11.0232415 10.80223395 12.00390625 12.078125 C12.25277588 12.40458008 12.25277588 12.40458008 13.51220703 14.05664062 C15.81218574 17.06087931 18.15679504 20.02944389 20.5 23 C21.41691141 24.16647432 22.33357738 25.33314162 23.25 26.5 C23.70375 27.0775 24.1575 27.655 24.625 28.25 C33.33333333 39.33333333 42.04166667 50.41666667 50.75 61.5 C51.2042334 62.07806396 51.6584668 62.65612793 52.12646484 63.25170898 C53.03845019 64.41252076 53.95023572 65.57348956 54.86181641 66.73461914 C57.22345068 69.74221742 59.5890231 72.74659413 61.9609375 75.74609375 C62.20489258 76.05514648 62.20489258 76.05514648 63.43945312 77.61914062 C64.36132204 78.78684125 65.28439667 79.95359156 66.20898438 81.11914062 C75 92.26513152 75 92.26513152 75 94 C9.33 94 -56.34 94 -124 94 C-124 93.01 -124 92.02 -124 91 C-122.6015625 89.65649414 -122.6015625 89.65649414 -120.625 88.28515625 C-119.89547119 87.77025635 -119.16594238 87.25535645 -118.41430664 86.72485352 C-117.61758545 86.17627686 -116.82086426 85.6277002 -116 85.0625 C-114.33110575 83.88672923 -112.66315399 82.70961966 -110.99609375 81.53125 C-110.57448975 81.23476563 -110.57448975 81.23476563 -108.44091797 79.734375 C-104.93222268 77.24129925 -101.49410696 74.6601604 -98.0625 72.0625 C-89.89658955 65.90468387 -81.6634153 59.84027842 -73.42333984 53.78222656 C-69.44677482 50.85769254 -65.47353729 47.92864567 -61.5 45 C-59.91668304 43.83331112 -58.33334969 42.66664447 -56.75 41.5 C-55.96625 40.9225 -55.1825 40.345 -54.375 39.75 C-52 38 -49.625 36.25 -47.25 34.5 C-46.46584717 33.92217773 -45.68169434 33.34435547 -44.8737793 32.74902344 C-43.2946132 31.58547866 -41.71534928 30.42206662 -40.13598633 29.25878906 C-36.11307101 26.29545312 -32.09202036 23.32964146 -28.07421875 20.359375 C-18.77481453 13.48851292 -9.43675093 6.68115808 0 0 Z " fill="#EDEDED" transform="translate(199,338)"/>
<path d="M0 0 C8.42834948 5.10527777 16.35523893 10.80727673 24.31640625 16.6015625 C28.70467855 19.79418697 33.12510786 22.93861301 37.5625 26.0625 C38.25939941 26.55322998 38.95629883 27.04395996 39.67431641 27.54956055 C41.07972678 28.53867946 42.4853253 29.5275311 43.89111328 30.51611328 C47.43041167 33.00648786 50.96495184 35.50359792 54.5 38 C55.91664412 39.00003195 57.33331078 40.00003196 58.75 41 C61.58333333 43 64.41666667 45 67.25 47 C67.60058472 47.24745972 67.60058472 47.24745972 69.37475586 48.49975586 C70.79232654 49.50044188 72.20980692 50.50125583 73.62719727 51.50219727 C77.15430572 53.99275451 80.68292217 56.48111592 84.21484375 58.96484375 C91.47234973 64.07231989 98.69586324 69.22035849 105.875 74.4375 C112.07537574 78.94092371 118.34713637 83.32108331 124.6875 87.625 C130.96003131 91.88305576 137.13134336 96.24108627 143.21850586 100.75952148 C148.49638886 104.66443452 153.86433382 108.43303809 159.25 112.1875 C161.75282533 113.93571888 164.25537339 115.6843338 166.7578125 117.43310547 C168.15843571 118.41189464 169.55941737 119.39017133 170.9609375 120.36767578 C172.56220958 121.48812144 174.15649779 122.61853129 175.75 123.75 C176.59046875 124.34296875 177.4309375 124.9359375 178.296875 125.546875 C178.85890625 126.02640625 179.4209375 126.5059375 180 127 C180 127.66 180 128.32 180 129 C178.6809082 130.16650391 178.6809082 130.16650391 176.80078125 131.4765625 C176.09663086 131.97438232 175.39248047 132.47220215 174.66699219 132.98510742 C174.27850098 133.2556897 174.27850098 133.2556897 172.3125 134.625 C165.18094436 139.67544325 158.18002097 144.86404702 151.25 150.1875 C147.83603658 152.79522411 144.41870493 155.39849611 141 158 C140.63285889 158.28020996 140.63285889 158.28020996 138.77490234 159.69824219 C136.83920684 161.1672033 134.89151015 162.6180372 132.9375 164.0625 C132.38416992 164.48619873 131.83083984 164.90989746 131.26074219 165.34643555 C129.10401808 166.91765606 127.59001996 167.99132324 124.875 168.03125 C122.25696961 166.59133328 120.89616977 164.79909773 119.0625 162.4375 C118.66804688 161.93798828 118.66804688 161.93798828 116.671875 159.41015625 C116.24326172 158.86117676 115.81464844 158.31219727 115.37304688 157.74658203 C112.892273 154.59091768 110.34770718 151.48696205 107.8125 148.375 C107.26408447 147.69945068 106.71566895 147.02390137 106.15063477 146.32788086 C102.12237706 141.36703242 98.06688983 136.42920383 94 131.5 C85.29802033 120.95086203 76.66256645 110.34911569 68.1328125 99.66015625 C60.82723212 90.54825105 53.43157412 81.50928448 46 72.5 C37.309961 61.96508071 28.68369235 51.37955459 20.16796875 40.703125 C17.23042571 37.04045872 14.27246343 33.39455832 11.3125 29.75 C10.76529297 29.07582031 10.21808594 28.40164062 9.65429688 27.70703125 C9.12513672 27.05605469 8.59597656 26.40507812 8.05078125 25.734375 C7.79510376 25.4154126 7.79510376 25.4154126 6.5012207 23.80126953 C5 22 5 22 3.50463867 20.47607422 C0.84137133 17.70205342 -0.30979799 15.68696404 -0.48828125 11.9140625 C-0.45547135 10.48355102 -0.39644891 9.05342296 -0.3125 7.625 C-0.28994141 6.88894531 -0.26738281 6.15289062 -0.24414062 5.39453125 C-0.18572927 3.59546158 -0.09606337 1.79745247 0 0 Z " fill="#D9D8D8" transform="translate(75,168)"/>
</svg>
