<?xml version="1.0" encoding="UTF-8"?>
<!-- Generator: visioncortex VTracer 0.6.12 -->
<svg version="1.1" xmlns="http://www.w3.org/2000/svg" width="512" height="512">
<path d="M0 0 C1.71875 0.93359375 1.71875 0.93359375 3.58650208 0.71131897 C6.24597183 -0.25870739 7.56831285 -1.56149398 9.5534668 -3.57641602 C10.2907048 -4.31710831 11.02794281 -5.0578006 11.78752136 -5.82093811 C12.573069 -6.62510666 13.35861664 -7.42927521 14.16796875 -8.2578125 C14.98119095 -9.07765121 15.79441315 -9.89748993 16.63227844 -10.74217224 C19.23077516 -13.36410118 21.81890728 -15.9959737 24.40625 -18.62890625 C27.00601024 -21.26365266 29.60786642 -23.89628106 32.21235657 -26.52635193 C33.83366462 -28.16472628 35.45188661 -29.80616102 37.06681824 -31.45082092 C37.430709 -31.81959099 37.430709 -31.81959099 39.2722168 -33.68579102 C39.91523239 -34.34007584 40.55824799 -34.99436066 41.2207489 -35.66847229 C42.71875 -37.06640625 42.71875 -37.06640625 43.71875 -37.06640625 C43.71875 -23.53640625 43.71875 -10.00640625 43.71875 3.93359375 C57.24875 3.93359375 70.77875 3.93359375 84.71875 3.93359375 C77.36367125 12.51451895 69.82321398 20.88251949 62.02307606 29.05851555 C59.52703668 31.67839188 57.06134005 34.31648089 54.65209961 37.01660156 C52.29236928 39.65931316 49.86960536 42.22781624 47.39499474 44.76309586 C46.04506583 46.17873268 44.76289577 47.65805748 43.4848175 49.1388855 C39.61846558 52.99968147 36.59813244 55.86598809 31.02449036 55.99685287 C28.93516588 55.85592193 26.84635277 55.70727182 24.75801945 55.55234528 C13.64137578 54.8459196 6.14828819 56.19787696 -2.35522026 63.33091736 C-9.0471896 69.24605646 -15.25729583 75.66767632 -21.4290204 82.1158061 C-24.8406398 85.65421419 -28.32335291 89.121418 -31.79721069 92.59854126 C-37.60838017 98.43547021 -43.36836364 104.31911251 -49.09619141 110.23779297 C-55.70675397 117.06806586 -62.37810906 123.83366771 -69.0887562 130.56554735 C-76.26368824 137.76345466 -83.39978449 144.99883717 -90.5211215 152.24974108 C-92.56489437 154.32652561 -94.61490292 156.39698829 -96.66609573 158.46644211 C-99.88732608 161.72117228 -103.08102509 165.00077484 -106.25548172 168.30112076 C-107.42038728 169.50466592 -108.5937255 170.70011724 -109.77611542 171.88648987 C-119.78919153 181.95276213 -119.78919153 181.95276213 -120.38290405 188.96401978 C-120.35533712 189.81943171 -120.3277702 190.67484364 -120.2993679 191.55617714 C-120.26234558 196.41421567 -122.682361 200.22836534 -125.92578125 203.6875 C-131.50247641 208.72961 -136.19727427 210.43227887 -143.72265625 210.2421875 C-149.62112424 209.53076922 -153.72117489 206.8493894 -157.65625 202.49609375 C-162.22671751 196.60913288 -163.17111811 191.31161416 -162.28125 183.93359375 C-160.16274029 176.74080929 -155.26293956 172.30108484 -148.96875 168.55859375 C-146.28125 167.93359375 -146.28125 167.93359375 -144.13479614 168.14172363 C-140.28650262 168.50039108 -137.41312397 168.61827073 -134.03924561 166.57739258 C-131.77364085 164.58012545 -129.70835841 162.48617635 -127.6484375 160.27734375 C-126.8857254 159.50048218 -126.12301331 158.72362061 -125.33718872 157.92321777 C-122.91895772 155.44923997 -120.5379048 152.94275128 -118.15625 150.43359375 C-116.51796405 148.74512315 -114.87736125 147.05889726 -113.234375 145.375 C-109.22280315 141.25348309 -105.24115746 137.10474098 -101.28125 132.93359375 C-102.65811713 128.80299236 -104.50107051 128.44126071 -108.34375 126.49609375 C-125.47987461 118.1431985 -144.3520021 115.95773003 -162.72265625 121.61328125 C-182.2888303 128.8727399 -196.86727941 141.17661359 -205.7734375 160.2109375 C-213.32947003 178.18859225 -213.64001131 197.62918642 -206.54980469 215.80908203 C-199.13461878 233.45162813 -185.79928438 246.78696253 -168.15673828 254.20214844 C-149.97684267 261.29235506 -130.5362485 260.98181378 -112.55859375 253.42578125 C-95.12733863 245.26969888 -82.29715001 231.92296086 -75.28125 213.93359375 C-70.05947235 199.47872995 -69.42562002 184.31696087 -73.72265625 169.53515625 C-74.32526461 166.72860264 -74.22590245 165.59775442 -73.28125 162.93359375 C-71.91430664 161.19433594 -71.91430664 161.19433594 -70.19140625 159.48046875 C-69.88170898 159.17109375 -69.88170898 159.17109375 -68.31445312 157.60546875 C-67.66412109 156.97125 -67.01378906 156.33703125 -66.34375 155.68359375 C-65.69728516 155.03390625 -65.05082031 154.38421875 -64.38476562 153.71484375 C-59.54827009 148.93359375 -59.54827009 148.93359375 -57.28125 148.93359375 C-52.61451316 160.36986586 -48.924431 171.53226007 -48.28125 183.93359375 C-48.24 184.69800781 -48.19875 185.46242187 -48.15625 186.25 C-47.55269516 209.14736168 -55.30560395 231.60036263 -70.28125 248.93359375 C-70.87292969 249.66835938 -71.46460938 250.403125 -72.07421875 251.16015625 C-87.15293412 269.25461469 -109.87089012 279.13235389 -132.8984375 281.65625 C-156.53603675 283.5942056 -180.86155571 277.01250566 -199.2421875 261.6953125 C-199.91507813 261.11394531 -200.58796875 260.53257812 -201.28125 259.93359375 C-201.64863281 259.63775391 -201.64863281 259.63775391 -203.5078125 258.140625 C-221.26188581 243.34556391 -231.31622163 220.85821358 -234.00390625 198.23046875 C-236.01965651 174.26859246 -229.59334039 149.63310221 -214.04296875 130.97265625 C-213.46160156 130.29976562 -212.88023437 129.626875 -212.28125 128.93359375 C-211.98541016 128.56621094 -211.98541016 128.56621094 -210.48828125 126.70703125 C-195.40956588 108.61257281 -172.69160988 98.73483361 -149.6640625 96.2109375 C-127.14862264 94.36498342 -102.81144936 100.11050616 -85.28125 114.93359375 C-82.32859888 113.60364992 -80.25774784 112.15580059 -77.98144531 109.86083984 C-77.36110413 109.2403476 -76.74076294 108.61985535 -76.10162354 107.9805603 C-75.44418152 107.31279572 -74.7867395 106.64503113 -74.109375 105.95703125 C-73.4269574 105.27178375 -72.74453979 104.58653625 -72.04144287 103.88052368 C-69.86663402 101.6945353 -67.69888928 99.50168946 -65.53125 97.30859375 C-64.0564501 95.8237612 -62.58119494 94.33938069 -61.10546875 92.85546875 C-57.49209552 89.22006465 -53.88504147 85.57849551 -50.28125 81.93359375 C-56.0743771 69.10069607 -80.03431858 60.00053181 -92.56469727 55.2565918 C-128.14198879 42.3649386 -167.82712416 44.15613741 -202.15625 60.18359375 C-236.14959571 76.72241423 -262.30194195 105.40131894 -275.28125 140.93359375 C-287.57607018 177.10151182 -285.97545335 216.54704384 -269.22705078 251.04296875 C-262.15608009 265.17760919 -253.1096278 277.43945674 -242.28125 288.93359375 C-241.68183594 289.59746094 -241.08242187 290.26132812 -240.46484375 290.9453125 C-216.79414031 316.14975482 -180.2930051 329.6195623 -146.30859375 331.21875 C-107.0476716 332.30439447 -71.03047558 317.70557261 -42.32421875 291.23046875 C-14.89982236 265.26200074 -0.01108173 228.20786537 1.07226562 190.71630859 C1.31064613 164.69490963 -5.28032467 136.35622404 -20.4453125 114.87890625 C-21.28125 112.93359375 -21.28125 112.93359375 -20.80078125 111.06640625 C-18.59850106 107.97528805 -16.03114639 105.35501276 -13.34375 102.68359375 C-12.80556641 102.12929687 -12.26738281 101.575 -11.71289062 101.00390625 C-10.29549346 99.58476136 -8.79264692 98.25217871 -7.28125 96.93359375 C-6.29125 96.93359375 -5.30125 96.93359375 -4.28125 96.93359375 C13.12268876 125.40682122 23.20640559 155.06521694 23.03125 188.62109375 C23.02909485 189.36715881 23.0269397 190.11322388 23.02471924 190.88189697 C22.97123224 202.44467264 22.51458523 213.66921413 19.71875 224.93359375 C19.62207031 225.32546875 19.62207031 225.32546875 19.1328125 227.30859375 C12.77999837 252.09241183 1.87236473 275.77047237 -15.28125 294.93359375 C-15.70728516 295.41957031 -15.70728516 295.41957031 -17.86328125 297.87890625 C-28.72760715 310.12607168 -40.46283511 320.18270179 -54.28125 328.93359375 C-54.92046387 329.33852051 -55.55967773 329.74344727 -56.21826172 330.16064453 C-71.53212058 339.68219445 -88.70275892 346.05433186 -106.28125 349.93359375 C-107.51101563 350.23136719 -108.74078125 350.52914063 -110.0078125 350.8359375 C-147.08031491 358.9500906 -188.54711811 351.43097621 -221.28125 332.93359375 C-221.92384766 332.57652344 -222.56644531 332.21945312 -223.22851562 331.8515625 C-231.94488734 326.97177379 -239.78308726 321.57795109 -247.28125 314.93359375 C-248.25707031 314.07894531 -249.23289063 313.22429687 -250.23828125 312.34375 C-262.4777489 301.47713541 -272.53237922 289.74881703 -281.28125 275.93359375 C-281.68617676 275.29437988 -282.09110352 274.65516602 -282.50830078 273.99658203 C-291.17356237 260.05992318 -296.9013548 244.80623516 -301.15625 228.99609375 C-301.34735352 228.28864014 -301.53845703 227.58118652 -301.73535156 226.85229492 C-304.87310911 214.41088695 -305.66036264 202.00757961 -305.59375 189.24609375 C-305.59267242 188.87306122 -305.59267242 188.87306122 -305.58721924 186.98529053 C-305.53373224 175.42251486 -305.07708523 164.19797337 -302.28125 152.93359375 C-302.18457031 152.54171875 -302.18457031 152.54171875 -301.6953125 150.55859375 C-295.3351606 125.7461493 -284.41256518 102.14514006 -267.28125 82.93359375 C-266.518125 82.0621875 -265.755 81.19078125 -264.96875 80.29296875 C-262.76904173 77.8108655 -260.53649719 75.36522899 -258.28125 72.93359375 C-257.74371094 72.34191406 -257.20617187 71.75023437 -256.65234375 71.140625 C-230.79920919 43.86200432 -189.59779934 25.72318862 -152.19714355 24.66868591 C-148.64136206 24.60758814 -145.08743362 24.60257892 -141.53125 24.62109375 C-140.78324127 24.6232489 -140.03523254 24.62540405 -139.26455688 24.62762451 C-128.02393365 24.67952762 -117.21020998 25.13972428 -106.28125 27.93359375 C-105.45415527 28.13758789 -104.62706055 28.34158203 -103.77490234 28.55175781 C-91.75565872 31.5725079 -80.40102101 35.46319758 -69.28125 40.93359375 C-68.65025391 41.24022949 -68.01925781 41.54686523 -67.36914062 41.86279297 C-55.29043347 47.8005672 -44.54805419 55.24154749 -34.28125 63.93359375 C-24.66073779 59.69088666 -12.40810785 47.82073615 -8.03027344 38.17822266 C-6.40492768 32.21388187 -6.49996862 26.52537966 -9.28125 20.93359375 C-13.16459213 16.04530134 -18.45040273 13.12817431 -23.88232422 10.22753906 C-26.18141236 8.98744471 -28.3868479 7.65976506 -30.59765625 6.26953125 C-77.81973747 -23.19814882 -136.02158661 -31.86944187 -190.08251953 -19.42138672 C-196.23377526 -17.89329699 -202.26943321 -16.07034518 -208.28125 -14.06640625 C-209.13106445 -13.78313477 -209.98087891 -13.49986328 -210.85644531 -13.20800781 C-229.70048822 -6.77501693 -248.22746171 2.06876771 -264.28125 13.93359375 C-265.33054687 14.70058594 -266.37984375 15.46757813 -267.4609375 16.2578125 C-274.28444166 21.3339443 -280.57414203 26.81038613 -286.72265625 32.68359375 C-289.28125 34.93359375 -289.28125 34.93359375 -291.49609375 35.99609375 C-293.84175997 37.22795347 -294.18568526 38.56504487 -295.28125 40.93359375 C-296.38447202 42.10041002 -297.5363632 43.22207615 -298.71875 44.30859375 C-336.25024898 81.09488246 -354.4247439 136.68972837 -355.26123047 188.20849609 C-355.58058367 231.67947634 -342.08601319 276.72709514 -316.28125 311.93359375 C-315.51296875 312.98546875 -314.7446875 314.03734375 -313.953125 315.12109375 C-308.87660464 321.94049568 -303.40239128 328.22864897 -297.53125 334.375 C-295.28125 336.93359375 -295.28125 336.93359375 -294.21875 339.1484375 C-292.98784233 341.49229086 -291.64764642 341.8417536 -289.28125 342.93359375 C-288.17834755 343.99740598 -287.11977893 345.10795715 -286.09375 346.24609375 C-248.37867745 384.72660135 -191.86863727 401.99217658 -139.28125 402.93359375 C-97.00196308 403.08948477 -52.35949157 389.1196994 -18.28125 363.93359375 C-17.23195313 363.16660156 -16.18265625 362.39960938 -15.1015625 361.609375 C-8.27805834 356.5332432 -1.98835797 351.05680137 4.16015625 345.18359375 C6.71875 342.93359375 6.71875 342.93359375 8.93359375 341.87109375 C11.27744711 340.64018608 11.62690985 339.29999017 12.71875 336.93359375 C13.78256223 335.8306913 14.8931134 334.77212268 16.03125 333.74609375 C52.43692173 298.06458547 71.50695495 243.23257201 72.71484375 193.046875 C73.06058348 154.30516701 64.23274728 110.92047938 41.484375 78.7734375 C40.71875 76.93359375 40.71875 76.93359375 41.20703125 75.078125 C43.39613881 71.97264683 45.96627857 69.35757248 48.65625 66.68359375 C49.19443359 66.12929687 49.73261719 65.575 50.28710938 65.00390625 C51.70450654 63.58476136 53.20735308 62.25217871 54.71875 60.93359375 C55.70875 60.93359375 56.69875 60.93359375 57.71875 60.93359375 C91.24389698 117.24423024 104.20474532 181.41159885 88.1862793 245.83032227 C78.88984411 281.51772618 62.87920744 313.94661819 38.71875 341.93359375 C38.04972656 342.71347656 37.38070313 343.49335938 36.69140625 344.296875 C26.25380024 356.17281033 15.15417338 367.27613172 2.421875 376.67480469 C0.75840069 377.90428771 -0.88652552 379.15575587 -2.53125 380.41015625 C-51.60828384 417.24166327 -115.63181348 431.37018452 -175.96875 422.97265625 C-219.72114351 416.15498155 -260.7413211 397.8877772 -294.28125 368.93359375 C-295.06113281 368.26457031 -295.84101563 367.59554688 -296.64453125 366.90625 C-308.52046658 356.46864399 -319.62378797 345.36901713 -329.02246094 332.63671875 C-330.25194396 330.97324444 -331.50341212 329.32831823 -332.7578125 327.68359375 C-368.91848472 279.50042999 -383.50044645 216.42325383 -375.76220703 157.03442383 C-369.17995821 112.18421683 -350.95668515 70.30900574 -321.28125 35.93359375 C-320.61222656 35.15371094 -319.94320312 34.37382813 -319.25390625 33.5703125 C-308.81630024 21.69437717 -297.71667338 10.59105578 -284.984375 1.19238281 C-283.32090069 -0.03710021 -281.67597448 -1.28856837 -280.03125 -2.54296875 C-202.19760081 -60.9558428 -81.54633629 -64.2386287 0 0 Z " fill="#000000" transform="translate(397.28125,67.06640625)"/>
</svg>
