<?xml version="1.0" encoding="UTF-8"?>
<!-- Generator: visioncortex VTracer 0.6.12 -->
<svg version="1.1" xmlns="http://www.w3.org/2000/svg" width="512" height="512">
<path d="M0 0 C11.33330571 10.23459214 21.57988444 20.84021734 29.94140625 33.65625 C30.37146973 34.31173828 30.8015332 34.96722656 31.24462891 35.64257812 C38.7479846 47.26536838 44.43899492 59.71061731 48.65722656 72.89331055 C50.20359851 77.56737568 51.62827228 79.77743052 55.81640625 82.34375 C79.2643066 98.27471132 94.34725549 125.05428931 99.75390625 152.53125 C104.96727658 182.77373952 98.60372477 213.04682254 81.94140625 238.65625 C79.17077401 242.56472937 76.18536489 246.13307739 72.94140625 249.65625 C72.46719238 250.1728418 71.99297852 250.68943359 71.50439453 251.22167969 C50.81045528 273.50949537 23.35634726 287.13755361 -7.24743938 288.77323747 C-12.91999056 288.95769613 -18.59366296 288.93969158 -24.26855469 288.9309082 C-26.15124715 288.93526622 -28.03393785 288.94045295 -29.91662598 288.94639587 C-34.98711999 288.95968109 -40.05753899 288.96037625 -45.12804699 288.95783257 C-49.38189667 288.95675554 -53.63573161 288.96166488 -57.8895781 288.966438 C-67.93713901 288.97749731 -77.98466253 288.97799102 -88.03222656 288.97192383 C-98.34947501 288.96588894 -108.66658692 288.97819105 -118.98381209 288.9994939 C-127.88540817 289.01718849 -136.78696109 289.02309887 -145.68857408 289.01985615 C-150.98581809 289.01805539 -156.28296471 289.02055741 -161.58019257 289.03457069 C-166.56755566 289.04727289 -171.55470811 289.04508958 -176.54206848 289.03215981 C-178.35629095 289.02982105 -180.17052884 289.03242969 -181.98473358 289.04078293 C-217.36510134 289.19174363 -247.75378593 278.74088221 -273.30859375 253.84375 C-294.4654958 232.40851344 -305.22733061 203.55971733 -305.43359375 173.65625 C-305.21661032 142.19858427 -293.56969264 115.37711192 -272.05859375 92.65625 C-271.37667969 91.93308594 -270.69476563 91.20992187 -269.9921875 90.46484375 C-265.73545588 86.07482895 -261.27821387 81.89094416 -256.05859375 78.65625 C-255.39859375 78.65625 -254.73859375 78.65625 -254.05859375 78.65625 C-253.99671875 78.32753906 -253.99671875 78.32753906 -253.68359375 76.6640625 C-246.84543407 45.12305097 -224.6055425 14.80772457 -199.05859375 -4.34375 C-198.54248535 -4.74013672 -198.02637695 -5.13652344 -197.49462891 -5.54492188 C-139.50808924 -49.93951361 -55.51163457 -46.99047457 0 0 Z M-130.05859375 37.65625 C-131.09757812 38.006875 -132.1365625 38.3575 -133.20703125 38.71875 C-145.78780622 43.47368857 -156.49054794 51.33071226 -166.05859375 60.65625 C-163.15502 62.59196583 -160.56964552 63.49974214 -157.25854492 64.50683594 C-135.50981099 71.16642936 -112.95817966 84.30687114 -100.05859375 103.65625 C-100.27151576 107.66990609 -102.71923591 109.69128943 -105.45483398 112.42480469 C-105.91018524 112.88380661 -106.3655365 113.34280853 -106.83468628 113.8157196 C-108.33822039 115.32734462 -109.85232029 116.82786413 -111.3671875 118.328125 C-112.41522972 119.37564857 -113.46275392 120.42369065 -114.50978088 121.472229 C-116.70341286 123.66577133 -118.90211659 125.85405784 -121.10473633 128.03857422 C-123.93248936 130.84359841 -126.74899105 133.65960604 -129.56202602 136.47938156 C-131.72258165 138.64327219 -133.88808181 140.8021568 -136.05522346 142.95944977 C-137.09600378 143.99637284 -138.13542929 145.03465754 -139.17349052 146.07430267 C-140.62172017 147.52290165 -142.07716344 148.96427814 -143.53295898 150.40527344 C-144.36045151 151.22815857 -145.18794403 152.0510437 -146.04051208 152.89886475 C-148.05859375 154.65625 -148.05859375 154.65625 -150.05859375 154.65625 C-151.28515625 152.96875 -151.28515625 152.96875 -152.68359375 150.65625 C-159.59854665 140.1018482 -168.08484009 134.15011075 -179.9765625 129.984375 C-193.60525172 127.83651403 -205.69421104 129.97475232 -216.99609375 138.02734375 C-225.809781 144.98815357 -231.06310451 152.84735176 -234.05859375 163.65625 C-234.17203125 164.0584375 -234.17203125 164.0584375 -234.74609375 166.09375 C-236.28906758 178.74613538 -233.73830787 190.37152273 -226.05859375 200.65625 C-216.9482087 212.05360413 -205.23304164 217.03447026 -191.05859375 218.65625 C-185.2753638 218.92783447 -179.50302779 218.92036998 -173.71459961 218.89916992 C-171.99670845 218.90024504 -170.27881766 218.90218711 -168.56092834 218.90492249 C-163.92878028 218.90973699 -159.29672974 218.90215786 -154.66459346 218.89196944 C-149.79841535 218.88313187 -144.93223979 218.88494749 -140.0660553 218.8853302 C-131.89810573 218.88439606 -123.7301935 218.87574583 -115.56225586 218.86206055 C-106.14074927 218.84633249 -96.71928349 218.8410628 -87.29776472 218.8417961 C-77.23402019 218.8424734 -67.17029122 218.83552288 -57.10655141 218.8263495 C-54.22080821 218.82422601 -51.33506756 218.82350939 -48.44932365 218.82311058 C-43.90283803 218.82210037 -39.35638618 218.81594882 -34.80991173 218.80594444 C-33.14875241 218.80304297 -31.48758921 218.80178926 -29.82642746 218.80237198 C-11.92022619 218.80627386 3.83997171 218.23833806 17.94140625 205.65625 C26.67566374 195.9548775 31.31557036 184.46103532 31.16015625 171.40625 C30.12408318 158.38133145 24.18470558 148.55609879 14.94140625 139.65625 C5.88014165 132.12397321 -3.44703517 129.32323067 -15.05859375 129.65625 C-15.0121875 128.33753906 -14.96578125 127.01882812 -14.91796875 125.66015625 C-14.26017865 99.0570318 -22.2933963 77.75498514 -40.56640625 58.09765625 C-58.09353371 40.92766462 -80.504996 33.38639052 -104.66894531 33.3371582 C-113.72170199 33.44285098 -121.48956452 34.71608647 -130.05859375 37.65625 Z " fill="#1875D1" transform="translate(358.05859375,117.34375)"/>
<path d="M0 0 C-5.00255879 6.04265914 -10.43177324 11.56098043 -15.9921875 17.08984375 C-16.94790248 18.04368954 -17.90339388 18.99775941 -18.8586731 19.95204163 C-21.35194916 22.44153194 -23.84821525 24.92800224 -26.34515381 27.41381836 C-28.90121509 29.95957994 -31.45438505 32.50823777 -34.0078125 35.05664062 C-39.00241019 40.04057069 -44.00017799 45.02131048 -49 50 C-52.71472359 48.56971349 -55.76752639 46.92887722 -59.0625 44.6875 C-78.04868308 32.48571301 -101.66312118 28.39422798 -123.76611328 33.18432617 C-126.89801873 33.97867236 -129.94467166 34.95167064 -133 36 C-134.03898438 36.350625 -135.07796875 36.70125 -136.1484375 37.0625 C-148.17219171 41.60691104 -158.81735314 49.08457302 -168 58 C-166.75347656 58.40089844 -165.50695312 58.80179687 -164.22265625 59.21484375 C-140.55440755 67.02941227 -116.27371945 79.58942082 -102 101 C-102.19951026 105.06233558 -104.74822549 107.11051093 -107.51977539 109.86035156 C-107.9880928 110.32910706 -108.45641022 110.79786255 -108.93891907 111.28082275 C-110.48482547 112.82464325 -112.04107683 114.3575726 -113.59765625 115.890625 C-114.67305184 116.96042394 -115.74778592 118.03088824 -116.82188416 119.10198975 C-119.64789349 121.91655581 -122.48279642 124.72199579 -125.31964111 127.52563477 C-128.21395852 130.38924028 -131.09978076 133.26137861 -133.98632812 136.1328125 C-139.64926883 141.76359817 -145.32163273 147.38477183 -151 153 C-154.57529506 151.80823498 -154.86057578 151.00634913 -156.75 147.875 C-163.2766805 137.86319885 -171.68476118 132.27548032 -182.921875 128.32421875 C-196.42298327 126.21784284 -208.65557117 128.24073864 -219.87109375 136.24609375 C-229.19504193 143.9276584 -235.50235219 153.91481418 -237 166 C-238.08492273 177.72104016 -235.02674706 188.57271266 -228 198 C-223.10333674 203.87806202 -217.81925313 207.6251241 -211 211 C-216.12541978 217.20347387 -221.7276906 222.85684676 -227.4296875 228.52734375 C-228.43024286 229.52603017 -229.43057481 230.52494047 -230.43069458 231.52406311 C-233.0423388 234.13191964 -235.65697367 236.73675695 -238.27227783 239.34094238 C-240.94898323 242.00735236 -243.62280102 244.67665464 -246.296875 247.34570312 C-251.52845398 252.56661101 -256.76320096 257.78432751 -262 263 C-263.27099265 262.05839102 -264.54037248 261.11460482 -265.80908203 260.16992188 C-266.51614288 259.64458862 -267.22320374 259.11925537 -267.95169067 258.57800293 C-289.74916113 241.78538679 -303.54778596 214.68356691 -307.49609375 187.78515625 C-311.11693526 157.75196817 -304.65325886 126.78064806 -286.06640625 102.51953125 C-282.52526931 98.2018879 -278.83876619 94.05465463 -275 90 C-274.31808594 89.27683594 -273.63617188 88.55367187 -272.93359375 87.80859375 C-268.67686213 83.41857895 -264.21962012 79.23469416 -259 76 C-258.34 76 -257.68 76 -257 76 C-256.938125 75.67128906 -256.938125 75.67128906 -256.625 74.0078125 C-249.78684032 42.46680097 -227.54694875 12.15147457 -202 -7 C-201.4838916 -7.39638672 -200.9677832 -7.79277344 -200.43603516 -8.20117188 C-140.47400378 -54.10820337 -56.32280023 -48.47742058 0 0 Z " fill="#FEC107" transform="translate(361,120)"/>
<path d="M0 0 C-5.00255879 6.04265914 -10.43177324 11.56098043 -15.9921875 17.08984375 C-16.94790248 18.04368954 -17.90339388 18.99775941 -18.8586731 19.95204163 C-21.35194916 22.44153194 -23.84821525 24.92800224 -26.34515381 27.41381836 C-28.90121509 29.95957994 -31.45438505 32.50823777 -34.0078125 35.05664062 C-39.00241019 40.04057069 -44.00017799 45.02131048 -49 50 C-52.71472359 48.56971349 -55.76752639 46.92887722 -59.0625 44.6875 C-78.04868308 32.48571301 -101.66312118 28.39422798 -123.76611328 33.18432617 C-126.89801873 33.97867236 -129.94467166 34.95167064 -133 36 C-134.03898437 36.350625 -135.07796875 36.70125 -136.1484375 37.0625 C-146.66452121 41.03708282 -156.27990026 47.02705991 -164.0625 55.125 C-168.13154959 58.88756669 -168.13154959 58.88756669 -171.625 59.33984375 C-173.71042936 59.14294816 -175.78945631 58.8720601 -177.859375 58.55078125 C-205.57670839 54.2827649 -232.5537248 61.27436223 -256 76 C-257.56415498 72.87169003 -256.20057137 70.82787843 -255.125 67.5625 C-245.20993695 38.3858269 -226.70441746 11.59508179 -202 -7 C-201.48244141 -7.39783691 -200.96488281 -7.79567383 -200.43164062 -8.20556641 C-140.46950117 -54.1084826 -56.32065541 -48.47557452 0 0 Z " fill="#FE3C00" transform="translate(361,120)"/>
<path d="M0 0 C0.37077667 0.12844551 0.37077667 0.12844551 2.24713135 0.77845764 C8.58626466 2.86763713 15.31789935 2.79444096 21.92871094 2.84179688 C22.79794693 2.85169647 23.66718292 2.86159607 24.5627594 2.87179565 C27.40867478 2.90314301 30.25460679 2.92806114 33.10058594 2.95288086 C35.08455821 2.97347356 37.06852632 2.99447061 39.05249023 3.01585388 C44.25393285 3.07083549 49.45541348 3.12034944 54.65692139 3.16870117 C60.90876895 3.22796379 67.16054761 3.29405918 73.41233826 3.35900116 C82.89171178 3.45670947 92.37113114 3.54577136 101.85058594 3.63647461 C101.85058594 26.73647461 101.85058594 49.83647461 101.85058594 73.63647461 C78.40475861 73.75680104 78.40475861 73.75680104 68.29785156 73.78295898 C61.44076444 73.80079105 54.58379914 73.82172944 47.72680664 73.86279297 C42.18949372 73.89574045 36.65231171 73.91340108 31.11490822 73.92110634 C29.0177384 73.92658708 26.92057455 73.93728637 24.82346153 73.95366478 C-3.28234472 74.16414701 -33.25000062 69.98549052 -55.14941406 50.63647461 C-47.8673185 41.92615158 -39.90788163 33.84960556 -31.96408463 25.74726772 C-29.41617696 23.14772107 -26.88137807 20.5377056 -24.37304688 17.89990234 C-21.92863993 15.32992817 -19.45586882 12.79070969 -16.96056366 10.27015877 C-15.56557696 8.84613778 -14.20088458 7.39264132 -12.8369751 5.93882751 C-5.72639105 -1.15258124 -5.72639105 -1.15258124 0 0 Z " fill="#4CAF50" transform="translate(154.1494140625,332.363525390625)"/>
</svg>
