<?xml version="1.0" encoding="UTF-8"?>
<!-- Generator: visioncortex VTracer 0.6.12 -->
<svg version="1.1" xmlns="http://www.w3.org/2000/svg" width="512" height="512">
<path d="M0 0 C0.93827637 0.53689453 1.87655273 1.07378906 2.84326172 1.62695312 C8.87492298 5.09680704 14.87255498 8.62290205 20.86572266 12.15869141 C26.18400933 15.28305019 31.52969481 18.35966918 36.875 21.4375 C37.95483154 22.05979492 39.03466309 22.68208984 40.1472168 23.32324219 C42.33728778 24.58532251 44.52747353 25.84720372 46.71777344 27.10888672 C49.98174327 28.98948106 53.24494189 30.87140546 56.5078125 32.75390625 C57.58015137 33.37257568 58.65249023 33.99124512 59.75732422 34.62866211 C61.91281498 35.87258898 64.06808976 37.1168902 66.22314453 38.36157227 C71.7833332 41.57202436 77.34835871 44.77368189 82.921875 47.9609375 C115.71989109 66.73789478 115.71989109 66.73789478 126 77 C126.68449219 77.67289062 127.36898438 78.34578125 128.07421875 79.0390625 C144.44868829 96.21777908 151.65540041 119.64416474 151.24609375 143.046875 C149.98156061 163.35969311 142.07942176 179.68244754 132 197 C131.48405273 197.88800293 130.96810547 198.77600586 130.43652344 199.69091797 C128.1618328 203.60118059 125.88256151 207.50870504 123.59570312 211.41186523 C119.00903362 219.24373861 114.49230375 227.11383261 110 235 C104.46502869 244.71345729 98.87715398 254.39407723 93.22973633 264.04272461 C89.50842042 270.40357238 85.81562218 276.78010584 82.14086914 283.16796875 C79.64696556 287.50183144 77.14590135 291.83152308 74.64208984 296.15966797 C73.61955406 297.92835385 72.59873649 299.69803562 71.58056641 301.46923828 C63.17455297 316.06510518 54.6006495 326.77036279 37.94921875 332.28125 C18.83522264 336.93949541 3.86109049 330.60551219 -12.3125 320.9375 C-13.37017578 320.31294922 -14.42785156 319.68839844 -15.51757812 319.04492188 C-23.15798756 314.52816248 -23.15798756 314.52816248 -26.71166992 312.29907227 C-29 311 -29 311 -31 311 C-31.37060547 311.64622314 -31.74121094 312.29244629 -32.12304688 312.95825195 C-35.64349947 319.09157412 -39.17751025 325.21682706 -42.72479248 331.33465576 C-44.52783926 334.44674046 -46.32381287 337.5624867 -48.10351562 340.68798828 C-62.98168037 366.8126208 -62.98168037 366.8126208 -73 376 C-73.79277344 376.79664063 -74.58554687 377.59328125 -75.40234375 378.4140625 C-91.94746599 394.44969151 -115.08278456 401.43566095 -137.7734375 401.1484375 C-158.52952305 400.19355705 -175.42353112 392.05923187 -193 381.625 C-195.10610909 380.38559357 -197.21290871 379.14735997 -199.3203125 377.91015625 C-200.41118164 377.26965332 -201.50205078 376.62915039 -202.62597656 375.96923828 C-208.35268521 372.6268626 -214.11378329 369.34486823 -219.875 366.0625 C-222.24500629 364.7113136 -224.61477416 363.35970981 -226.984375 362.0078125 C-227.56957916 361.67395035 -228.15478333 361.3400882 -228.75772095 360.99610901 C-235.9601568 356.88457056 -243.14392522 352.74066894 -250.32250977 348.58764648 C-255.85439618 345.38764346 -261.39398062 342.20225612 -266.94921875 339.04296875 C-299.85768583 320.29020393 -325.75502302 299.44215142 -337.25 262.0625 C-345.91398999 229.64473746 -339.48730393 198.60553049 -323 170 C-322.74718262 169.56067139 -322.74718262 169.56067139 -321.46777344 167.33740234 C-318.57941992 162.33593561 -315.66563774 157.34981895 -312.73828125 152.37109375 C-308.97879003 145.97533191 -305.26548751 139.55360297 -301.5625 133.125 C-300.94109131 132.04694092 -300.31968262 130.96888184 -299.67944336 129.8581543 C-297.78576706 126.57240703 -295.89277313 123.28626761 -294 120 C-289.62754983 112.40847137 -285.25150405 104.81905764 -280.8671875 97.234375 C-279.60205245 95.04288583 -278.33909742 92.85013697 -277.078125 90.65625 C-275.20258573 87.39311664 -273.3206162 84.13376518 -271.4375 80.875 C-270.87796631 79.89772949 -270.31843262 78.92045898 -269.74194336 77.91357422 C-261.66764238 63.98330709 -252.57183839 52.0910733 -236.7109375 46.9296875 C-212.58153771 40.88372051 -195.05006136 52.27522363 -175 64 C-174.72615479 63.27941406 -174.45230957 62.55882813 -174.17016602 61.81640625 C-160.98024232 30.0703266 -137.84485731 2.66998753 -106 -11 C-69.11611804 -24.93039319 -33.57634669 -19.21362651 0 0 Z " fill="#1E88E4" transform="translate(351,65)"/>
<path d="M0 0 C18.06777079 15.45071206 30.34767936 36.03581081 32.67578125 60.109375 C34.12610243 85.86356331 26.57721787 105.45382898 13.8046875 127.3984375 C13.28874023 128.28644043 12.77279297 129.17444336 12.24121094 130.08935547 C9.9665203 133.99961809 7.68724901 137.90714254 5.40039062 141.81030273 C0.81372112 149.64217611 -3.70300875 157.51227011 -8.1953125 165.3984375 C-13.73028381 175.11189479 -19.31815852 184.79251473 -24.96557617 194.44116211 C-28.68689208 200.80200988 -32.37969032 207.17854334 -36.05444336 213.56640625 C-38.54834694 217.90026894 -41.04941115 222.22996058 -43.55322266 226.55810547 C-44.57575844 228.32679135 -45.59657601 230.09647312 -46.61474609 231.86767578 C-55.02075953 246.46354268 -63.594663 257.16880029 -80.24609375 262.6796875 C-99.36008986 267.33793291 -114.33422201 261.00394969 -130.5078125 251.3359375 C-131.56548828 250.71138672 -132.62316406 250.08683594 -133.71289062 249.44335938 C-141.35330006 244.92659998 -141.35330006 244.92659998 -144.90698242 242.69750977 C-147.1953125 241.3984375 -147.1953125 241.3984375 -149.1953125 241.3984375 C-149.56591797 242.04466064 -149.93652344 242.69088379 -150.31835938 243.35668945 C-153.83881197 249.49001162 -157.37282275 255.61526456 -160.92010498 261.73309326 C-162.72315176 264.84517796 -164.51912537 267.9609242 -166.29882812 271.08642578 C-181.17699287 297.2110583 -181.17699287 297.2110583 -191.1953125 306.3984375 C-191.98808594 307.19507813 -192.78085937 307.99171875 -193.59765625 308.8125 C-210.14277849 324.84812901 -233.27809706 331.83409845 -255.96875 331.546875 C-272.4407132 330.78908493 -291.42734944 326.61081004 -303.1953125 314.3984375 C-304.11828125 313.53347656 -305.04125 312.66851562 -305.9921875 311.77734375 C-323.33068613 295.40047614 -332.74000626 274.36974676 -333.59765625 250.39453125 C-333.81856441 235.10277783 -329.62981235 222.12537052 -323.1953125 208.3984375 C-319.28673887 208.98461418 -316.49344197 210.16224253 -313.09765625 212.1640625 C-312.13021484 212.72480469 -311.16277344 213.28554688 -310.16601562 213.86328125 C-308.17101942 215.03741295 -306.17622205 216.21188257 -304.18164062 217.38671875 C-288.33297169 226.57162392 -274.20102096 231.22944164 -255.9453125 226.7109375 C-242.14582502 223.01371014 -231.19746215 216.24818239 -223.4453125 203.8984375 C-222.43739524 202.1474122 -221.43173832 200.39495645 -220.44775391 198.63037109 C-218.95568814 195.97141101 -217.42614842 193.33559487 -215.89453125 190.69921875 C-212.97916953 185.67582625 -210.0794006 180.64372031 -207.18740845 175.60684204 C-203.69908878 169.53214783 -200.19742805 163.46518486 -196.6953125 157.3984375 C-195.44525138 155.23180609 -194.1952515 153.06513936 -192.9453125 150.8984375 C-190.4453125 146.56510417 -187.9453125 142.23177083 -185.4453125 137.8984375 C-184.82648193 136.82577637 -184.20765137 135.75311523 -183.57006836 134.64794922 C-182.32095732 132.48286679 -181.07177121 130.31782768 -179.82250977 128.15283203 C-176.68328941 122.71228044 -173.54540687 117.27096534 -170.41015625 111.828125 C-163.82068028 100.39206945 -157.20163413 88.97451057 -150.53710938 77.58203125 C-146.36475843 70.43611931 -142.25022157 63.25833206 -138.1552124 56.06796265 C-132.85240249 46.76042484 -127.53621655 37.46052285 -122.1328125 28.2109375 C-121.63322021 27.3451709 -121.13362793 26.4794043 -120.61889648 25.58740234 C-109.24140101 6.22947448 -93.11647982 -8.18108128 -71.3828125 -14.9140625 C-46.56269959 -20.26742019 -20.09862003 -16.04690883 0 0 Z " fill="#FABF2D" transform="translate(469.1953125,134.6015625)"/>
<path d="M0 0 C0.93827637 0.53689453 1.87655273 1.07378906 2.84326172 1.62695312 C8.87492298 5.09680704 14.87255498 8.62290205 20.86572266 12.15869141 C26.18400933 15.28305019 31.52969481 18.35966918 36.875 21.4375 C37.95483154 22.05979492 39.03466309 22.68208984 40.1472168 23.32324219 C42.33728778 24.58532251 44.52747353 25.84720372 46.71777344 27.10888672 C49.98174327 28.98948106 53.24494189 30.87140546 56.5078125 32.75390625 C57.58111816 33.37313965 58.65442383 33.99237305 59.76025391 34.63037109 C61.90595791 35.86863796 64.05146838 37.10724025 66.19677734 38.34619141 C71.29041321 41.28706287 76.38639383 44.22363596 81.49072266 47.14590454 C83.9115662 48.53218831 86.33107889 49.92078547 88.75048828 51.30957031 C90.46647617 52.29328204 92.18439193 53.27362835 93.90234375 54.25390625 C94.93488281 54.846875 95.96742188 55.43984375 97.03125 56.05078125 C97.94455078 56.57325439 98.85785156 57.09572754 99.79882812 57.6340332 C102 59 102 59 104 61 C99.44975296 60.20616194 95.40057507 58.7046616 91.109375 57.03515625 C83.5960022 54.53384495 76.59291606 53.66522925 68.6875 53.75 C67.76396729 53.75749268 66.84043457 53.76498535 65.88891602 53.77270508 C54.16601197 53.95701775 44.62308304 55.93600036 34 61 C33.08347656 61.42023438 32.16695312 61.84046875 31.22265625 62.2734375 C17.11494767 69.27669025 6.79115068 81.36946454 -0.9375 94.8125 C-1.49324707 95.76608398 -2.04899414 96.71966797 -2.62158203 97.70214844 C-4.42215832 100.79699837 -6.21176777 103.89800357 -8 107 C-9.21724192 109.10298383 -10.43469121 111.20584765 -11.65234375 113.30859375 C-14.80693899 118.76311142 -17.95122004 124.22350967 -21.09277344 129.68554688 C-24.2236492 135.12650557 -27.36211805 140.56307989 -30.5 146 C-34.26369591 152.52229998 -38.02644625 159.04513767 -41.78515625 165.5703125 C-47.80747329 176.02206199 -53.84669337 186.46299548 -59.9375 196.875 C-65.01275362 205.5526265 -70.02231393 214.2662091 -75 223 C-81.75726421 234.85391038 -88.58145877 246.66680245 -95.49707031 258.42919922 C-96.86479453 260.76872748 -98.21328408 263.11797402 -99.5546875 265.47265625 C-108.98128241 281.87962878 -119.99829888 292.49066394 -138.42578125 297.68359375 C-157.14158649 302.12515146 -171.9919101 296.08724098 -188 287 C-189.50209069 286.15923822 -191.00470867 285.3194179 -192.5078125 284.48046875 C-196.34634426 282.33391863 -200.17533946 280.17116078 -204 278 C-200.15618294 270.09464461 -196.04462732 262.43491929 -191.5625 254.875 C-190.32231764 252.76597714 -189.08275562 250.65658939 -187.84375 248.546875 C-187.52664062 248.00772461 -187.52664062 248.00772461 -185.921875 245.27929688 C-182.77515867 239.91005225 -179.66846039 234.51789165 -176.5625 229.125 C-175.94133301 228.04734375 -175.32016602 226.9696875 -174.68017578 225.859375 C-172.78624084 222.57322918 -170.89300993 219.28667876 -169 216 C-161.63424308 203.21143699 -154.25945493 190.42899169 -146.8125 177.6875 C-145.10179889 174.75459397 -143.39205123 171.82113619 -141.68310547 168.88720703 C-140.55362416 166.94968948 -139.42241619 165.01317754 -138.28955078 163.07763672 C-136.64463208 160.26394749 -135.00881035 157.44515042 -133.375 154.625 C-132.8900708 153.79959717 -132.4051416 152.97419434 -131.90551758 152.1237793 C-124.4252153 139.14920094 -120.81180308 126.90535432 -124.125 111.9375 C-128.29919294 97.18355538 -137.53038851 87.07211684 -150.70481873 79.64071655 C-152.5473614 78.62432839 -154.39791818 77.62388105 -156.25 76.625 C-158.12037316 75.59576148 -159.98802899 74.56175491 -161.85491943 73.5262146 C-163.53467907 72.59763024 -165.22075651 71.68050076 -166.90722656 70.76416016 C-170.05244818 68.97008284 -173.0122887 67.04206984 -176 65 C-167.37399487 47.19358858 -157.75372537 29.38093108 -144 15 C-143.35289062 14.27554688 -142.70578125 13.55109375 -142.0390625 12.8046875 C-104.58320015 -27.49592389 -44.51456695 -25.4728804 0 0 Z " fill="#439F47" transform="translate(351,65)"/>
<path d="M0 0 C18.06777079 15.45071206 30.34767936 36.03581081 32.67578125 60.109375 C34.12610243 85.86356331 26.57721787 105.45382898 13.8046875 127.3984375 C13.28874023 128.28644043 12.77279297 129.17444336 12.24121094 130.08935547 C9.9665203 133.99961809 7.68724901 137.90714254 5.40039062 141.81030273 C0.81372112 149.64217611 -3.70300875 157.51227011 -8.1953125 165.3984375 C-13.73028381 175.11189479 -19.31815852 184.79251473 -24.96557617 194.44116211 C-28.68689208 200.80200988 -32.37969032 207.17854334 -36.05444336 213.56640625 C-38.54834694 217.90026894 -41.04941115 222.22996058 -43.55322266 226.55810547 C-44.57575844 228.32679135 -45.59657601 230.09647312 -46.61474609 231.86767578 C-55.02075953 246.46354268 -63.594663 257.16880029 -80.24609375 262.6796875 C-99.3018373 267.32373626 -114.25962597 261.05013839 -130.3828125 251.3984375 C-132.45954353 250.1691156 -134.53636412 248.93994497 -136.61328125 247.7109375 C-137.57540527 247.13859375 -138.5375293 246.56625 -139.52880859 245.9765625 C-142.73137033 244.08118079 -145.95642737 242.23090434 -149.1953125 240.3984375 C-147.56692144 234.21677463 -144.25284155 229.08753116 -141.0078125 223.6484375 C-139.73111472 221.48476201 -138.45509579 219.32068584 -137.1796875 217.15625 C-136.52033203 216.04024414 -135.86097656 214.92423828 -135.18164062 213.77441406 C-132.00605894 208.3771742 -128.8815469 202.9507975 -125.7578125 197.5234375 C-124.49872902 195.33852374 -123.23961427 193.15362801 -121.98046875 190.96875 C-121.35543457 189.88368164 -120.73040039 188.79861328 -120.08642578 187.68066406 C-116.95851102 182.25183808 -113.82672802 176.82524469 -110.6953125 171.3984375 C-109.44529371 169.23178167 -108.19529372 167.065115 -106.9453125 164.8984375 C-99.4453125 151.8984375 -99.4453125 151.8984375 -97.56738281 148.64428711 C-96.3260759 146.49207332 -95.0858295 144.33924749 -93.84667969 142.18579102 C-90.94242532 137.14157987 -88.02841235 132.10391379 -85.07519531 127.08822632 C-84.03251624 125.31621041 -82.9932933 123.54221249 -81.95507812 121.76757812 C-80.65330363 119.54482031 -79.34510719 117.32580603 -78.02929688 115.11132812 C-70.21380487 101.72676421 -66.46691967 87.20447376 -70.03125 71.78125 C-76.28531348 54.27826698 -87.93388181 46.45550655 -103.4453125 37.7109375 C-105.76501905 36.39798614 -108.08208689 35.08060416 -110.3984375 33.76171875 C-111.41583008 33.18719971 -112.43322266 32.61268066 -113.48144531 32.02075195 C-115.85360249 30.60270729 -118.02659255 29.10644995 -120.1953125 27.3984375 C-116.07638616 13.36130047 -103.3881248 1.28824397 -91.09375 -6.0390625 C-62.04830449 -21.69698461 -26.52417573 -21.17712704 0 0 Z " fill="#E54A19" transform="translate(469.1953125,134.6015625)"/>
<path d="M0 0 C2.31 1.65 4.62 3.3 7 5 C3.30581799 5 1.22163822 3.71820705 -2 2 C-1.34 1.34 -0.68 0.68 0 0 Z " fill="#5596B5" transform="translate(164,447)"/>
</svg>
