<?xml version="1.0" encoding="UTF-8"?>
<!-- Generator: visioncortex VTracer 0.6.12 -->
<svg version="1.1" xmlns="http://www.w3.org/2000/svg" width="512" height="512">
<path d="M0 0 C3.65900689 3.02731454 7.07319062 6.28738368 10.33789062 9.73535156 C10.88026367 10.29230713 11.42263672 10.8492627 11.98144531 11.4230957 C17.27956711 17.12117375 20.93709448 23.52901048 24.71289062 30.29785156 C25.37763523 31.472633 26.04349918 32.64678173 26.71044922 33.8203125 C28.01268966 36.11167791 29.31205309 38.40456442 30.609375 40.69873047 C32.67478464 44.32720012 34.79663855 47.91643841 36.96289062 51.48535156 C40.54231875 57.40080968 44.07339478 63.34356604 47.58789062 69.29785156 C47.86383057 69.76529785 47.86383057 69.76529785 49.26025391 72.13085938 C50.38978122 74.04468076 51.51917462 75.95858117 52.6484375 77.87255859 C55.37616864 82.49472267 58.10715444 87.11496244 60.83789062 91.73535156 C61.92124042 93.56867517 63.00457373 95.40200851 64.08789062 97.23535156 C64.35601562 97.68910156 64.35601562 97.68910156 65.71289062 99.98535156 C89.00455729 139.40201823 112.29622396 178.8186849 135.58789062 218.23535156 C136.12470459 219.14357666 136.66151855 220.05180176 137.21459961 220.98754883 C138.29304875 222.81307824 139.37069135 224.63908438 140.44750977 226.46557617 C143.22400274 231.17262897 146.01586063 235.86949334 148.83398438 240.55175781 C162.11824986 262.67414932 171.66709656 282.89545943 165.31054688 309.35644531 C160.16714562 327.22408422 149.57771763 342.91240953 133.27539062 352.23535156 C115.0207696 362.1428698 96.33086155 363.96577402 76.33789062 358.73535156 C50.3121155 350.33696313 38.26629962 330.81535777 25.36315918 308.5045166 C23.78475556 305.7808824 22.18964476 303.06710097 20.59570312 300.35253906 C18.27731759 296.39721446 15.96919977 292.43618755 13.66992188 288.46972656 C10.4002559 282.83296363 7.09413452 277.21833111 3.77539062 271.61035156 C3.24268555 270.71010254 2.70998047 269.80985352 2.16113281 268.88232422 C1.08986311 267.07248333 0.01841162 265.26275004 -1.05322266 263.453125 C-3.75911313 258.88226418 -6.46030742 254.30862978 -9.16210938 249.73535156 C-9.69771484 248.82914062 -10.23332031 247.92292969 -10.78515625 246.98925781 C-13.50797026 242.38242688 -16.22913711 237.77463628 -18.94726562 233.16503906 C-24.41066093 223.90274991 -29.89033206 214.65048063 -35.41210938 205.42285156 C-35.92588135 204.56224121 -36.43965332 203.70163086 -36.96899414 202.81494141 C-37.44006592 202.02941895 -37.9111377 201.24389648 -38.39648438 200.43457031 C-38.81124023 199.74194092 -39.22599609 199.04931152 -39.65332031 198.33569336 C-40.66210938 196.73535156 -40.66210938 196.73535156 -41.66210938 195.73535156 C-42.03795166 196.39204834 -42.41379395 197.04874512 -42.80102539 197.7253418 C-50.36998184 210.93525898 -58.02479415 224.07991974 -65.88842773 237.1171875 C-70.74808976 245.18449109 -75.53232719 253.29350182 -80.28710938 261.42285156 C-80.64621399 262.03674744 -81.0053186 262.65064331 -81.37530518 263.28314209 C-82.79813863 265.71562477 -84.2209582 268.14811556 -85.64358521 270.58071899 C-89.91695718 277.88502311 -94.22516215 285.16862289 -98.53710938 292.45019531 C-100.71259448 296.12475996 -102.87779195 299.80517008 -105.03710938 303.48925781 C-133.24670335 351.57637819 -133.24670335 351.57637819 -161.59960938 359.61035156 C-180.15667091 364.00048368 -199.7811003 362.10899863 -216.31054688 352.13769531 C-218.84501225 350.42595639 -221.25919436 348.62675496 -223.66210938 346.73535156 C-224.42265625 346.15140625 -225.18320313 345.56746094 -225.96679688 344.96582031 C-238.92489702 334.31686258 -247.43776636 318.28104151 -249.66210938 301.73535156 C-251.96865595 273.13539438 -238.90894004 252.46346908 -224.70204163 228.80464172 C-221.43264265 223.35983293 -218.2001807 217.89369779 -214.97460938 212.42285156 C-213.91875008 210.6350142 -212.86276129 208.8472533 -211.80664062 207.05957031 C-211.28924316 206.18349121 -210.7718457 205.30741211 -210.23876953 204.40478516 C-207.54729524 199.84786663 -204.85463258 195.29165037 -202.16210938 190.73535156 C-201.07877056 188.90202147 -199.99543722 187.06868814 -198.91210938 185.23535156 C-175.07877604 144.90201823 -151.24544271 104.5686849 -127.41210938 64.23535156 C-126.87537598 63.32696533 -126.33864258 62.4185791 -125.78564453 61.48266602 C-124.7074355 59.65814177 -123.62898683 57.83375913 -122.55029297 56.00952148 C-119.76152778 51.29257014 -116.97757042 46.57287526 -114.20117188 41.84863281 C-111.48521626 37.22923309 -108.75732604 32.61715234 -106.01611328 28.01269531 C-104.88562423 26.11128855 -103.76311147 24.20514236 -102.64257812 22.29785156 C-92.41981423 5.44345862 -78.0292701 -5.34943636 -59.22460938 -11.13964844 C-39.48919312 -15.51075522 -16.32466357 -12.42093968 0 0 Z " fill="#1E88E4" transform="translate(302.662109375,76.2646484375)"/>
<path d="M0 0 C1.14274621 3.42823863 0.83857544 4.11282015 -0.375 7.375 C-6.45917637 23.92168526 -3.2184831 43.34656006 4 59 C6.26431819 63.18538487 8.7155928 67.24705263 11.1875 71.3125 C12.26159545 73.09833343 13.3330018 74.88576425 14.40444946 76.67318726 C15.14640471 77.91037917 15.889232 79.14704851 16.63290405 80.38320923 C20.28490906 86.45642756 23.86751371 92.56936731 27.44171143 98.68859863 C32.69605969 107.68211312 37.9700126 116.66400991 43.27758789 125.6262207 C44.61850045 127.89056915 45.95757595 130.15600662 47.29467773 132.42260742 C50.37236175 137.62774777 53.48424942 142.80265791 56.703125 147.921875 C57.27248779 148.83702881 57.84185059 149.75218262 58.4284668 150.69506836 C59.4832476 152.3846403 60.5515326 154.06589096 61.63598633 155.73657227 C62.0977124 156.47963623 62.55943848 157.2227002 63.03515625 157.98828125 C63.23822388 158.30559204 63.23822388 158.30559204 64.26586914 159.91137695 C65.33407429 162.95045081 64.81833823 164.9065654 64 168 C62.57983398 170.91479492 62.57983398 170.91479492 60.74609375 173.98046875 C60.57991798 174.26131317 60.57991798 174.26131317 59.7389679 175.68255615 C58.6472317 177.5229101 57.54247081 179.35506734 56.4375 181.1875 C55.66674868 182.48131973 54.89690542 183.77568081 54.12792969 185.07055664 C52.54115915 187.73942939 50.94929403 190.40515576 49.35302734 193.06835938 C47.14616695 196.75184656 44.95465842 200.44421246 42.76953125 204.140625 C40.10905371 208.64016005 37.44551407 213.13783446 34.77734375 217.6328125 C31.28231914 223.52206657 27.79535457 229.416042 24.3125 235.3125 C24.05001465 235.75686401 24.05001465 235.75686401 22.72167969 238.00561523 C21.67329226 239.78057085 20.62495214 241.55555441 19.57666016 243.33056641 C17.97200732 246.04739423 16.36694036 248.76397694 14.76171875 251.48046875 C14.22345459 252.39143311 13.68519043 253.30239746 13.13061523 254.2409668 C12.0484253 256.07205356 10.96590872 257.90294731 9.88305664 259.73364258 C7.11685087 264.41134873 4.35742142 269.09284934 1.609375 273.78125 C-26.58773886 321.84191775 -26.58773886 321.84191775 -54.9375 329.875 C-73.49456154 334.26513212 -93.11899092 332.37364707 -109.6484375 322.40234375 C-112.18290288 320.69060483 -114.59708499 318.8914034 -117 317 C-117.76054688 316.41605469 -118.52109375 315.83210938 -119.3046875 315.23046875 C-132.26278765 304.58151102 -140.77565699 288.54568995 -143 272 C-145.30654658 243.40004282 -132.24683067 222.72811752 -118.03993225 199.06929016 C-114.77053327 193.62448137 -111.53807133 188.15834623 -108.3125 182.6875 C-107.2566407 180.89966263 -106.20065191 179.11190174 -105.14453125 177.32421875 C-104.62713379 176.44813965 -104.10973633 175.57206055 -103.57666016 174.66943359 C-100.88518587 170.11251506 -98.19252321 165.55629881 -95.5 161 C-94.41666119 159.16666991 -93.33332785 157.33333658 -92.25 155.5 C-72.75 122.5 -53.25 89.5 -33.75 56.5 C-33.48179443 56.04608887 -33.48179443 56.04608887 -32.12451172 53.74902344 C-31.04298151 51.91884158 -29.96127626 50.08876315 -28.87939453 48.25878906 C-26.14201619 43.62807798 -23.40786455 38.9955138 -20.6796875 34.359375 C-13.89493678 22.83817552 -7.01297144 11.38378129 0 0 Z " fill="#FEC007" transform="translate(196,106)"/>
<path d="M0 0 C13.48521685 11.46336178 22.55584304 27.41352689 25 45 C25.66470151 54.0522972 25.60799955 63.25627204 23 72 C22.82227051 72.61842773 22.64454102 73.23685547 22.46142578 73.87402344 C19.33290162 84.51150335 15.40926807 92.61046794 8 101 C7.37351562 101.73605469 6.74703125 102.47210938 6.1015625 103.23046875 C-5.97128698 116.39853453 -23.62779881 122.99015901 -41.11328125 124.21875 C-58.48260102 124.72774106 -74.38169559 119.71935842 -88 109 C-88.76054688 108.41605469 -89.52109375 107.83210938 -90.3046875 107.23046875 C-103.26278765 96.58151102 -111.77565699 80.54568995 -114 64 C-115.47517147 45.70865433 -112.18279975 28.54783232 -102 13 C-99.4453125 10.25 -99.4453125 10.25 -97 8 C-96.44957031 7.41476562 -95.89914063 6.82953125 -95.33203125 6.2265625 C-69.77125862 -20.7140976 -28.74745203 -22.2352007 0 0 Z " fill="#43A046" transform="translate(167,314)"/>
</svg>
