<?xml version="1.0" encoding="UTF-8"?>
<!-- Generator: visioncortex VTracer 0.6.12 -->
<svg version="1.1" xmlns="http://www.w3.org/2000/svg" width="512" height="512">
<path d="M0 0 C2.13029581 -0.00202459 4.26059094 -0.00493922 6.3908844 -0.00869751 C10.8414677 -0.01310369 15.29186955 -0.00674554 19.74243164 0.00732422 C25.41895996 0.02440443 31.09506229 0.01457117 36.77157497 -0.00339317 C41.16676483 -0.01428612 45.5618554 -0.0107593 49.95704842 -0.0030098 C52.04881911 -0.00102245 54.14059912 -0.00341494 56.23235893 -0.01044846 C77.73804718 -0.06690097 94.34802143 3.59679025 110.56640625 18.515625 C117.24450668 26.02848798 122.18963599 34.68958423 127.12890625 43.3984375 C128.11454941 45.12158989 129.10020017 46.84473798 130.08630371 48.56762695 C131.10063498 50.3411457 132.11295691 52.11579971 133.125 53.890625 C136.27208378 59.40525366 139.45249303 64.90067077 142.62890625 70.3984375 C143.87905672 72.56501735 145.12905637 74.73168423 146.37890625 76.8984375 C146.99765625 77.9709375 147.61640625 79.0434375 148.25390625 80.1484375 C165.12890625 109.3984375 182.00390625 138.6484375 198.87890625 167.8984375 C199.49813965 168.97174316 200.11737305 170.04504883 200.75537109 171.15087891 C202.00060109 173.30934248 203.24571897 175.46787073 204.49072266 177.62646484 C207.68776962 183.16918491 210.8869822 188.71063758 214.08984375 194.25 C217.23082979 199.68244718 220.36171013 205.12063565 223.48974609 210.56054688 C224.95784477 213.10227745 226.44044479 215.63468788 227.9296875 218.1640625 C238.16919882 235.69877157 242.45274051 254.12933671 237.62890625 274.2109375 C235.15426807 282.18097908 231.31835653 289.23647989 227.12890625 296.3984375 C226.09362156 298.18742568 225.05847475 299.97649365 224.0234375 301.765625 C221.67056585 305.81944936 219.30385817 309.86486713 216.9296875 313.90625 C213.65570978 319.48501962 210.4231565 325.0866987 207.2019043 330.69604492 C204.7153152 335.02318988 202.21753992 339.34377502 199.71484375 343.66162109 C198.75416447 345.31944356 197.79530393 346.97832426 196.83984375 348.63916016 C186.24981075 366.98194896 172.64775558 378.2279097 152.11555672 383.74529958 C147.59026328 384.7349168 143.23356786 384.81334493 138.61694336 384.77938843 C137.61891913 384.7840684 136.62089491 384.78874837 135.59262753 384.79357016 C132.28036262 384.80544463 128.96851727 384.79609249 125.65625 384.78662109 C123.26856242 384.79069014 120.88087673 384.79603389 118.49319458 384.80255127 C112.70036246 384.81477707 106.90766151 384.81303422 101.11482549 384.80431335 C96.4035975 384.79751661 91.69240215 384.79662864 86.98117065 384.7998848 C86.30864885 384.8003445 85.63612705 384.80080419 84.9432258 384.80127782 C83.57667771 384.80223708 82.21012963 384.80320972 80.84358156 384.8041956 C68.05290418 384.81273426 55.26229149 384.80293935 42.47162473 384.7867945 C31.51523047 384.77339269 20.5589316 384.77572121 9.60253906 384.78955078 C-3.14480755 384.8056336 -15.89209759 384.81191043 -28.63945293 384.80271399 C-30.00075467 384.80175842 -31.36205641 384.80081531 -32.72335815 384.7998848 C-33.39300836 384.79942197 -34.06265857 384.79895914 -34.75260121 384.79848229 C-39.45390665 384.79590049 -44.15517598 384.80024584 -48.85647583 384.80732346 C-55.19311157 384.81601172 -61.52956781 384.80993702 -67.86618423 384.79264069 C-70.18687772 384.78868581 -72.5075864 384.7897927 -74.82827377 384.79642868 C-78.00542769 384.80467369 -81.1820128 384.79428669 -84.35913086 384.77938843 C-85.26897767 384.78608059 -86.17882448 384.79277276 -87.11624241 384.79966772 C-96.63019832 384.7136281 -105.41324808 382.11968272 -113.87109375 377.8359375 C-114.21039917 377.66408936 -114.21039917 377.66408936 -115.92749023 376.79443359 C-130.25594936 369.19392896 -138.29433263 356.63476518 -145.93359375 342.7734375 C-147.06882981 340.73875537 -148.20559883 338.70492793 -149.34375 336.671875 C-149.92398926 335.63514648 -150.50422852 334.59841797 -151.10205078 333.53027344 C-153.96955292 328.45377365 -156.92088057 323.42716324 -159.87109375 318.3984375 C-161.6182708 315.40641819 -163.36368126 312.41337619 -165.10839844 309.41992188 C-166.29949286 307.37823426 -167.49291356 305.33790226 -168.68847656 303.29882812 C-170.46894394 300.25508132 -172.2340655 297.20288739 -173.99609375 294.1484375 C-174.26228516 293.69662109 -174.26228516 293.69662109 -175.609375 291.41015625 C-184.88970513 275.21132808 -187.75118117 256.82022212 -183.37109375 238.5859375 C-180.89645557 230.61589592 -177.06054403 223.56039511 -172.87109375 216.3984375 C-171.83580906 214.60944932 -170.80066225 212.82038135 -169.765625 211.03125 C-167.40297741 206.96090239 -165.02738513 202.8983921 -162.64453125 198.83984375 C-158.87679156 192.41866996 -155.15005064 185.97439817 -151.43359375 179.5234375 C-150.81154053 178.44408936 -150.1894873 177.36474121 -149.54858398 176.25268555 C-148.28628751 174.06211015 -147.02416205 171.87143619 -145.76220703 169.68066406 C-142.63429227 164.25183808 -139.50250927 158.82524469 -136.37109375 153.3984375 C-135.12107496 151.23178167 -133.87107497 149.065115 -132.62109375 146.8984375 C-120.12109375 125.23177083 -107.62109375 103.56510417 -95.12109375 81.8984375 C-94.50169922 80.824729 -93.88230469 79.75102051 -93.24414062 78.64477539 C-92.00097075 76.49013126 -90.757484 74.33566993 -89.51367188 72.18139648 C-86.62126228 67.17089629 -83.73174148 62.15881115 -80.85412598 57.13980103 C-79.84561061 55.38115001 -78.83604605 53.62310541 -77.82617188 51.86523438 C-76.56758857 49.67371519 -75.31092388 47.48109246 -74.05664062 45.28710938 C-62.75149371 25.61994317 -50.91382975 9.09743646 -28.42163086 1.78271484 C-19.17996617 -0.6418111 -9.48086667 -0.03184361 0 0 Z M26.12890625 130.3984375 C25.722771 131.1104834 25.31663574 131.8225293 24.89819336 132.55615234 C15.63699091 148.78889205 6.33810765 164.99903555 -3.01220703 181.18066406 C-6.13433981 186.58514396 -9.2524943 191.99191824 -12.37109375 197.3984375 C-13.61587134 199.55599771 -14.86066301 201.71354978 -16.10546875 203.87109375 C-18.6579471 208.29534519 -21.2099783 212.71985418 -23.76171875 217.14453125 C-24.0820105 217.69983521 -24.0820105 217.69983521 -25.70288086 220.51000977 C-26.96696316 222.70176148 -28.23080365 224.89365267 -29.49438477 227.08569336 C-32.40636515 232.13542635 -35.32397358 237.1816803 -38.2578125 242.21875 C-38.77569336 243.10892822 -39.29357422 243.99910645 -39.82714844 244.91625977 C-40.79077604 246.57148232 -41.75617676 248.22567431 -42.72363281 249.87866211 C-45.87109375 255.28737626 -45.87109375 255.28737626 -45.87109375 256.3984375 C2.30890625 256.3984375 50.48890625 256.3984375 100.12890625 256.3984375 C93.30418228 242.74898955 93.30418228 242.74898955 89.69140625 236.7734375 C88.82048685 235.31186932 87.95077674 233.84958013 87.08203125 232.38671875 C86.61216797 231.59604004 86.14230469 230.80536133 85.65820312 229.99072266 C82.71538117 225.00239515 79.83157094 219.97989342 76.94140625 214.9609375 C76.30404541 213.85476074 75.66668457 212.74858398 75.01000977 211.60888672 C73.70128209 209.33720085 72.39277141 207.06538995 71.08447266 204.79345703 C67.93558572 199.32673772 64.78208581 193.86268158 61.62890625 188.3984375 C57.18429421 180.69498634 52.74011352 172.99128697 48.29760742 165.28662109 C47.03315976 163.09495471 45.76772108 160.90385973 44.5012207 158.71337891 C41.58465172 153.66781146 38.68061299 148.6162615 35.8125 143.54296875 C35.30364258 142.64827881 34.79478516 141.75358887 34.27050781 140.83178711 C33.32491409 139.16810736 32.38513009 137.50110742 31.45214844 135.83032227 C30.40045545 133.98657043 29.27280208 132.18644793 28.12890625 130.3984375 C27.46890625 130.3984375 26.80890625 130.3984375 26.12890625 130.3984375 Z " fill="#4BAE4F" transform="translate(228.87109375,63.6015625)"/>
<path d="M0 0 C4.39252569 2.40081673 8.24516182 4.77775939 12 8.125 C12.391875 8.46660156 12.391875 8.46660156 14.375 10.1953125 C21.22678533 17.51611885 26.07978659 26.3247475 31 35 C31.98564316 36.72315239 32.97129392 38.44630048 33.95739746 40.16918945 C34.97172873 41.9427082 35.98405066 43.71736221 36.99609375 45.4921875 C40.14317753 51.00681616 43.32358678 56.50223327 46.5 62 C47.75015047 64.16657985 49.00015012 66.33324673 50.25 68.5 C50.86875 69.5725 51.4875 70.645 52.125 71.75 C60.5625 86.375 60.5625 86.375 102.75 159.5 C103.3692334 160.57330566 103.9884668 161.64661133 104.62646484 162.75244141 C105.87169484 164.91090498 107.11681272 167.06943323 108.36181641 169.22802734 C111.55886337 174.77074741 114.75807595 180.31220008 117.9609375 185.8515625 C121.10192354 191.28400968 124.23280388 196.72219815 127.36083984 202.16210938 C128.82893852 204.70383995 130.31153854 207.23625038 131.80078125 209.765625 C142.04029257 227.30033407 146.32383426 245.73089921 141.5 265.8125 C139.02536182 273.78254158 135.18945028 280.83804239 131 288 C129.96471531 289.78898818 128.9295685 291.57805615 127.89453125 293.3671875 C125.5416596 297.42101186 123.17495192 301.46642963 120.80078125 305.5078125 C117.52680353 311.08658212 114.29425025 316.6882612 111.07299805 322.29760742 C108.58640895 326.62475238 106.08863367 330.94533752 103.5859375 335.26318359 C102.62525822 336.92100606 101.66639768 338.57988676 100.7109375 340.24072266 C93.96788948 351.92022409 86.4697099 360.76857538 75 368 C72.34434213 365.60030318 70.72001447 363.03555811 68.953125 359.93359375 C68.36337891 358.90427734 67.77363281 357.87496094 67.16601562 356.81445312 C66.53373047 355.70005859 65.90144531 354.58566406 65.25 353.4375 C64.58058653 352.26598539 63.91065574 351.09476624 63.24023438 349.92382812 C61.84760003 347.49056166 60.45720253 345.05603768 59.06835938 342.62060547 C55.89970234 337.06842407 52.69820559 331.53519338 49.5 326 C48.24984475 323.83342291 46.99984527 321.66675593 45.75 319.5 C45.13125 318.4275 44.5125 317.355 43.875 316.25 C38.25 306.5 38.25 306.5 36.37329102 303.24682617 C35.12923208 301.09059787 33.88493058 298.93450951 32.64038086 296.77856445 C29.75839435 291.78541236 26.87863091 286.79103128 24.00787354 281.79141235 C11.8535263 260.62419805 11.8535263 260.62419805 6.05859375 251.33984375 C-3.67665287 235.54546831 -12.8434431 219.39572885 -22.09277344 203.31445312 C-25.22364924 197.87349435 -28.36216542 192.43694752 -31.5 187 C-32.75003758 184.83335502 -34.00003756 182.66668834 -35.25 180.5 C-35.86875 179.4275 -36.4875 178.355 -37.125 177.25 C-39 174 -40.875 170.75 -42.75 167.5 C-43.37003906 166.42580811 -43.99007813 165.35161621 -44.62890625 164.24487305 C-45.86778687 162.09639154 -47.10479334 159.94682816 -48.33984375 157.79614258 C-51.26644065 152.70514784 -54.21126278 147.62752266 -57.2232666 142.5866394 C-58.64765487 140.20019442 -60.06140853 137.80753319 -61.47436523 135.41430664 C-62.47843869 133.72380162 -63.49785518 132.04243962 -64.51757812 130.36132812 C-65.12021484 129.33845703 -65.72285156 128.31558594 -66.34375 127.26171875 C-66.88193359 126.36412842 -67.42011719 125.46653809 -67.97460938 124.54174805 C-69.22262486 121.44815536 -69.05319913 120.13544996 -68 117 C-66.83935547 114.6418457 -66.83935547 114.6418457 -65.3671875 112.17578125 C-64.81619385 111.24330566 -64.2652002 110.31083008 -63.69750977 109.35009766 C-63.39679565 108.84889404 -63.39679565 108.84889404 -61.875 106.3125 C-60.58913841 104.13974019 -59.30400648 101.96654843 -58.01953125 99.79296875 C-57.3538916 98.67067871 -56.68825195 97.54838867 -56.00244141 96.39208984 C-52.81524874 90.99305852 -49.68875325 85.5594716 -46.5625 80.125 C-45.30346844 77.94005632 -44.04435339 75.75516075 -42.78515625 73.5703125 C-42.16012207 72.48524414 -41.53508789 71.40017578 -40.89111328 70.28222656 C-37.14348395 63.77782059 -33.39095039 57.27624205 -29.63842773 50.7746582 C-26.43467538 45.22313708 -23.23415423 39.66979203 -20.0390625 34.11328125 C-13.46078718 22.67967041 -6.86060273 11.26700611 0 0 Z " fill="#FABF2C" transform="translate(325,72)"/>
<path d="M0 0 C36.21270307 -0.50399831 72.42478943 -0.89142978 108.64028002 -1.12343725 C112.91961624 -1.15095147 117.19894556 -1.17942669 121.47827148 -1.20849609 C121.90422438 -1.21138151 121.90422438 -1.21138151 124.05980418 -1.22598346 C137.83873248 -1.32161201 151.6156333 -1.49500801 165.39336034 -1.69736151 C179.53992168 -1.90339289 193.68542441 -2.02535259 207.83342439 -2.06994689 C216.55890864 -2.10007973 225.27866322 -2.19506005 234.00238202 -2.37416227 C239.99189873 -2.49083531 245.97847295 -2.52552625 251.96904238 -2.4970303 C255.42360221 -2.48298119 258.86819682 -2.50380822 262.320961 -2.62252045 C282.4918477 -3.21410516 282.4918477 -3.21410516 288.36576676 2.16747236 C292.52413776 7.45544035 295.34417888 13.22492737 297.90265429 19.41801333 C299.33695638 22.79283754 301.10727364 25.79902184 303.0234375 28.921875 C304.14183867 30.86388489 305.25904388 32.80658406 306.375 34.75 C307.64319629 36.95314392 308.91142645 39.15626835 310.1796875 41.359375 C310.81100586 42.45701172 311.44232422 43.55464844 312.09277344 44.68554688 C315.22364923 50.12650563 318.36215316 55.56305958 321.5 61 C322.744834 63.15752766 323.9896256 65.31507978 325.234375 67.47265625 C325.85248047 68.54402832 326.47058594 69.61540039 327.10742188 70.71923828 C329.03540755 74.06137856 330.96305304 77.40371485 332.890625 80.74609375 C340.24876951 93.50415943 347.61534981 106.25725643 355 119 C352.17634382 122.03965068 349.52944466 123.16865108 345.625 124.625 C344.50351562 125.05039062 343.38203125 125.47578125 342.2265625 125.9140625 C336.12337518 127.96816186 330.59510541 128.14640848 324.20956421 128.14044189 C323.21666653 128.14341302 322.22376886 128.14638414 321.20078337 128.1494453 C317.87001243 128.15812456 314.53927745 128.1596399 311.20849609 128.16113281 C308.82169518 128.16576157 306.43489501 128.17078631 304.0480957 128.17617798 C297.56025811 128.18929935 291.0724274 128.19578349 284.58457899 128.20018864 C280.53022729 128.20295446 276.47587796 128.20719247 272.42152786 128.21169281 C261.18712959 128.22388398 249.95273322 128.23418307 238.71832848 128.2375679 C238.3590013 128.23767768 238.3590013 128.23767768 236.540588 128.23823325 C235.82025124 128.23845153 235.09991449 128.23866981 234.35774934 128.2388947 C232.89816753 128.23933816 231.43858572 128.23978472 229.97900391 128.24023438 C229.25500682 128.2404558 228.53100974 128.24067723 227.78507335 128.24090537 C216.06251469 128.24485057 204.34001829 128.26229675 192.61748366 128.2855939 C180.57020758 128.30934229 168.52296269 128.32177136 156.47566283 128.32293582 C149.71641054 128.32385071 142.95723936 128.32955577 136.19800949 128.34775543 C129.83684963 128.36425358 123.47584345 128.36638301 117.1146698 128.35761642 C114.78429884 128.35684696 112.45391956 128.36117672 110.12356949 128.37107468 C106.93297733 128.38382793 103.74292669 128.37789871 100.55233765 128.36749268 C99.63839812 128.37554908 98.72445859 128.38360548 97.78282392 128.39190602 C88.25515025 128.31963588 79.46958167 125.72718929 71 121.4375 C70.32138916 121.09380371 69.64277832 120.75010742 68.94360352 120.39599609 C54.61514439 112.79549146 46.57676112 100.23632768 38.9375 86.375 C37.80226394 84.34031787 36.66549492 82.30649043 35.52734375 80.2734375 C34.94710449 79.23670898 34.36686523 78.19998047 33.76904297 77.13183594 C30.90154083 72.05533615 27.95021318 67.02872574 25 62 C23.25282295 59.00798069 21.50741249 56.01493869 19.76269531 53.02148438 C18.57160089 50.97979676 17.37818019 48.93946476 16.18261719 46.90039062 C14.40214981 43.85664382 12.63702825 40.80444989 10.875 37.75 C10.34261719 36.84636719 9.81023438 35.94273437 9.26171875 35.01171875 C3.91942581 25.68673955 -0.07997689 15.67447876 -0.02462769 4.82672119 C-0.02107206 3.92361332 -0.01751644 3.02050545 -0.01385307 2.09003067 C-0.00928156 1.40032055 -0.00471004 0.71061043 0 0 Z " fill="#1E87E4" transform="translate(44,320)"/>
<path d="M0 0 C45.54 0 91.08 0 138 0 C138 15.74548544 133.82058619 26.6305355 126 40 C124.96471531 41.78898818 123.9295685 43.57805615 122.89453125 45.3671875 C120.5416596 49.42101186 118.17495192 53.46642963 115.80078125 57.5078125 C112.52680353 63.08658212 109.29425025 68.6882612 106.07299805 74.29760742 C103.58640895 78.62475238 101.08863367 82.94533752 98.5859375 87.26318359 C97.62525822 88.92100606 96.66639768 90.57988676 95.7109375 92.24072266 C88.96788948 103.92022409 81.4697099 112.76857538 70 120 C67.34434213 117.60030318 65.72001447 115.03555811 63.953125 111.93359375 C63.36337891 110.90427734 62.77363281 109.87496094 62.16601562 108.81445312 C61.53373047 107.70005859 60.90144531 106.58566406 60.25 105.4375 C59.58058653 104.26598539 58.91065574 103.09476624 58.24023438 101.92382812 C56.84760003 99.49056166 55.45720253 97.05603768 54.06835938 94.62060547 C50.89970234 89.06842407 47.69820559 83.53519338 44.5 78 C43.24984475 75.83342291 41.99984527 73.66675593 40.75 71.5 C40.13125 70.4275 39.5125 69.355 38.875 68.25 C33.25 58.5 33.25 58.5 31.37304688 55.24658203 C30.1295949 53.09128689 28.88610564 50.93601327 27.64257812 48.78076172 C24.75537125 43.77662326 21.8684957 38.7722948 18.98303223 33.76715088 C17.97380896 32.01658759 16.96446164 30.26609589 15.95507812 28.515625 C14.6983234 26.33607835 13.44179414 24.15640168 12.18554688 21.9765625 C11.60869141 20.97625 11.03183594 19.9759375 10.4375 18.9453125 C9.87804687 17.9749707 9.31859375 17.00462891 8.7421875 16.00488281 C6.2785969 11.7557414 3.78355988 7.52514078 1.28515625 3.29638672 C0 1 0 1 0 0 Z " fill="#E43935" transform="translate(330,320)"/>
<path d="M0 0 C45.54 0 91.08 0 138 0 C131.17527603 13.64944795 131.17527603 13.64944795 127.5625 19.625 C126.6915806 21.08656818 125.82187049 22.54885737 124.953125 24.01171875 C124.71819336 24.40705811 124.71819336 24.40705811 123.52929688 26.40771484 C120.58647461 31.39604288 117.70270736 36.41856811 114.8125 41.4375 C114.17586426 42.54222656 113.53922852 43.64695312 112.88330078 44.78515625 C110.92162553 48.18977333 108.96073749 51.59484279 107 55 C98.97227041 68.93890873 90.92389555 82.86472903 82.80786133 96.75244141 C78.49207622 104.14218491 74.22038512 111.5553455 70 119 C65.82402018 118.45853192 63.4569595 117.18757491 60.1875 114.5625 C59.39730469 113.94503906 58.60710937 113.32757813 57.79296875 112.69140625 C50.25389127 105.42647704 44.95154765 96.96032674 39.875 87.875 C38.89595972 86.14981943 37.91690155 84.42464858 36.93655396 82.70021057 C36.27015465 81.52703471 35.60485172 80.3532354 34.94064331 79.17881775 C31.64574962 73.35441084 28.26153981 67.58388681 24.875 61.8125 C23.15786276 58.86737601 21.44357776 55.92061326 19.73046875 52.97314453 C18.55381545 50.9515187 17.37400906 48.9317255 16.19140625 46.91357422 C14.40819268 43.86533361 12.64011545 40.80874806 10.875 37.75 C10.34245605 36.84612549 9.80991211 35.94225098 9.26123047 35.01098633 C2.68827396 23.53736359 0 13.19985619 0 0 Z " fill="#1465C0" transform="translate(44,320)"/>
<path d="M0 0 C2.12314791 0.00171587 4.24629793 0.00164059 6.3694458 -0.00012207 C10.79028968 0.00151997 15.2106196 0.02001658 19.63134766 0.05175781 C25.26853456 0.09152884 30.90505387 0.09578434 36.54235458 0.08829498 C40.9161174 0.08521186 45.28973299 0.09739185 49.66345978 0.11442566 C51.74126512 0.12140284 53.81908711 0.12458669 55.89690399 0.12373352 C70.4223295 0.13280451 83.03861271 0.54246437 95.640625 8.59375 C94.32802467 12.07328075 92.80022766 15.21736333 90.91015625 18.41796875 C90.36238525 19.35044434 89.81461426 20.28291992 89.25024414 21.24365234 C88.95371948 21.74485596 88.95371948 21.74485596 87.453125 24.28125 C86.17649834 26.45408348 84.9004769 28.62727265 83.625 30.80078125 C82.96564453 31.92307129 82.30628906 33.04536133 81.62695312 34.20166016 C78.46030275 39.60940848 75.33073741 45.03835831 72.203125 50.46875 C71.58155518 51.54729248 70.95998535 52.62583496 70.31958008 53.73706055 C69.0567808 55.92844138 67.79416693 58.11992907 66.53173828 60.31152344 C63.40382353 65.7403494 60.27206454 71.16695669 57.140625 76.59375 C53.63418017 82.67091164 50.12787799 88.74815473 46.62365723 94.82659912 C45.61443396 96.57716241 44.60508664 98.32765411 43.59570312 100.078125 C42.3389484 102.25767165 41.08241914 104.43734832 39.82617188 106.6171875 C38.67820796 108.60784671 37.52789024 110.59715075 36.375 112.58496094 C35.1434226 114.72149809 33.92611513 116.86628918 32.71875 119.01660156 C32.09484375 120.11713867 31.4709375 121.21767578 30.828125 122.3515625 C30.26480469 123.35590332 29.70148438 124.36024414 29.12109375 125.39501953 C28.63253906 126.12060059 28.14398438 126.84618164 27.640625 127.59375 C26.980625 127.59375 26.320625 127.59375 25.640625 127.59375 C14.390625 108.09375 3.140625 88.59375 -8.109375 69.09375 C-8.72868896 68.0202832 -9.34800293 66.94681641 -9.98608398 65.84082031 C-11.23042498 63.68394097 -12.47472864 61.52704008 -13.71899414 59.37011719 C-16.59574237 54.38340174 -19.47282238 49.39687898 -22.3513031 44.41116333 C-35.91034612 20.92590937 -35.91034612 20.92590937 -42.359375 9.59375 C-32.60975068 -1.7608084 -13.52064536 -0.11711422 0 0 Z " fill="#2E7D32" transform="translate(229.359375,63.40625)"/>
</svg>
