<?xml version="1.0" encoding="UTF-8"?>
<!-- Generator: visioncortex VTracer 0.6.12 -->
<svg version="1.1" xmlns="http://www.w3.org/2000/svg" width="512" height="512">
<path d="M0 0 C15.13846441 13.4285475 27.04204004 28.5580563 36.21875 46.61328125 C36.77046875 47.68835938 37.3221875 48.7634375 37.890625 49.87109375 C55.88376966 86.87761292 58.50398754 131.66815608 45.21875 170.61328125 C38.05510984 189.94044622 27.91542081 206.43241335 15.98828125 223.13232422 C13.80154568 226.1982192 11.63442749 229.27763777 9.46801758 232.35791016 C3.75809005 240.47138152 -1.99414679 248.55470319 -7.78125 256.61328125 C-8.26674316 257.28939453 -8.75223633 257.96550781 -9.25244141 258.66210938 C-30.65244043 288.43719474 -30.65244043 288.43719474 -40.18676758 300.484375 C-47.32628563 309.51465732 -53.83222722 318.75612485 -59.78125 328.61328125 C-60.20889648 329.31888184 -60.63654297 330.02448242 -61.07714844 330.75146484 C-71.3599608 347.92710866 -78.70003502 365.67983053 -82.75488281 385.31469727 C-84.24893668 392.36241166 -85.52401422 397.44179073 -91.78125 401.61328125 C-96.41569842 402.28881102 -100.488104 402.24609738 -104.71875 400.17578125 C-108.83181131 395.06561417 -109.93370671 388.23968616 -111.31323242 381.93115234 C-118.39199852 350.1695465 -135.79761118 323.39416399 -155.39453125 298.02734375 C-165.29050392 285.18699605 -174.71664322 271.98156388 -184.18554688 258.82519531 C-185.75911942 256.64395798 -187.33934594 254.46771448 -188.921875 252.29296875 C-197.09894603 241.04412806 -205.09217465 229.67287401 -212.98193359 218.22070312 C-214.55957284 215.93451762 -216.14768932 213.65608064 -217.73828125 211.37890625 C-241.6915054 176.73618218 -252.30160623 133.29573587 -244.78125 91.61328125 C-236.64379135 49.72284725 -214.34421114 12.45147066 -178.7109375 -11.87109375 C-122.90031491 -48.46728445 -50.42874834 -43.27523207 0 0 Z M-143.53125 83.86328125 C-153.85714813 97.82643428 -156.73641894 113.7315818 -154.3515625 130.6640625 C-150.75254746 145.6599585 -142.2530245 158.88057211 -129.40625 167.48828125 C-114.33233153 176.27964349 -98.93476063 179.86621777 -81.78125 175.61328125 C-65.35758354 170.36259234 -52.94292448 160.77067671 -44.78125 145.61328125 C-38.16037609 130.66512264 -35.85362405 114.26558891 -41.78125 98.61328125 C-48.53692559 83.27112368 -59.39422872 71.5321092 -74.84375 64.73828125 C-100.53406373 54.9184316 -126.13531652 63.07208882 -143.53125 83.86328125 Z " fill="#48B563" transform="translate(352.78125,78.38671875)"/>
<path d="M0 0 C8.60176281 3.84291718 15.67238952 11.54296869 22.51977539 17.9140625 C25.73135616 20.88608118 29.02551099 23.69899503 32.4375 26.4375 C36.62237799 29.80346662 40.58310464 33.33179641 44.5 37 C49.29185534 41.48689342 54.2225188 45.70826509 59.34375 49.8203125 C63.6989997 53.39417917 67.84970857 57.19181502 72 61 C71.73445313 61.44150391 71.73445313 61.44150391 70.390625 63.67578125 C61.19001473 79.21309166 55.64695244 95.51061403 60.0625 113.6875 C65.77675618 131.1757817 75.46939489 142.91433493 91.8046875 151.46875 C105.25665347 157.73904308 120.0399463 158.50395769 134.15234375 153.9921875 C141.32802785 151.20318287 147.65418245 147.3212514 154 143 C154.99 142.34 155.98 141.68 157 141 C155.72395841 143.75187312 154.35527063 145.94516965 152.34765625 148.21484375 C151.82397461 148.81200195 151.30029297 149.40916016 150.76074219 150.02441406 C150.20032227 150.65573242 149.63990234 151.28705078 149.0625 151.9375 C147.88089746 153.28461885 146.69991831 154.63228473 145.51953125 155.98046875 C144.92736816 156.65513184 144.33520508 157.32979492 143.72509766 158.02490234 C141.20541292 160.90973811 138.72220078 163.82444435 136.25 166.75 C135.79882812 167.28367187 135.34765625 167.81734375 134.8828125 168.3671875 C132.0761997 171.69748315 129.31012198 175.05846758 126.5625 178.4375 C122.15086945 183.85570579 117.60676358 189.1527085 113.05078125 194.44921875 C106.80572679 201.71031003 100.6036885 209.00553429 94.5625 216.4375 C90.60491812 221.30129025 86.53457554 226.05881231 82.44165039 230.80834961 C79.41054711 234.33298919 76.43014684 237.89039882 73.5 241.5 C68.6052012 247.52711109 63.54438772 253.40694215 58.47509766 259.28710938 C55.97798802 262.18676532 53.48915627 265.09351658 51 268 C46.55439408 263.84468551 43.06314697 259.23277503 39.5 254.3125 C38.88833984 253.47452881 38.27667969 252.63655762 37.64648438 251.77319336 C35.75983253 249.18536181 33.87962943 246.59293488 32 244 C30.89601078 242.48424574 29.79185185 240.96861507 28.6875 239.453125 C21.86634487 230.07052251 15.17540897 220.60033767 8.55078125 211.078125 C6.17904248 207.67288746 3.77929977 204.29021572 1.35546875 200.921875 C-25.34852094 163.67731009 -39.93933038 120.350468 -32.40673828 74.25439453 C-27.46772369 46.87932805 -17.10217328 22.07330391 0 0 Z " fill="#FBC50E" transform="translate(140,98)"/>
<path d="M0 0 C5.71814656 5.4498193 10.99305231 10.94848002 15.7890625 17.23828125 C16.34561523 17.96756836 16.90216797 18.69685547 17.47558594 19.44824219 C21.22143401 24.46211483 24.58677798 29.60160876 27.6640625 35.05078125 C28.03450684 35.70554443 28.40495117 36.36030762 28.78662109 37.03491211 C32.51134949 43.89573676 32.51134949 43.89573676 32.4140625 47.30078125 C30.70213067 49.75071902 29.06272142 51.76354829 27.0390625 53.92578125 C25.91559326 55.17742276 24.79320609 56.43003634 23.671875 57.68359375 C23.1140332 58.29879883 22.55619141 58.91400391 21.98144531 59.54785156 C19.87715434 61.90124863 17.89219565 64.34088873 15.9140625 66.80078125 C11.52693348 72.20154297 7.00182838 77.47545825 2.46484375 82.75 C-3.76116117 89.98894249 -9.9467999 97.25944034 -15.9609375 104.67578125 C-19.58319097 109.12894591 -23.31465174 113.47424076 -27.0859375 117.80078125 C-31.60823219 122.98967012 -36.04137747 128.2334711 -40.375 133.58203125 C-42.9416534 136.73819869 -45.541493 139.86538378 -48.1484375 142.98828125 C-48.59082764 143.51832764 -49.03321777 144.04837402 -49.48901367 144.59448242 C-50.52091417 145.83025571 -51.55336251 147.0655715 -52.5859375 148.30078125 C-52.5859375 144.88319314 -51.7725361 143.34319964 -50.2734375 140.30078125 C-43.96760922 126.57843903 -42.1644511 111.88013041 -46.48828125 97.19921875 C-52.22657958 82.0468438 -61.94867951 70.09628987 -76.53515625 62.83203125 C-92.26935278 55.90173214 -107.3770432 55.72990765 -123.5859375 61.30078125 C-131.91417897 64.73866261 -138.18326762 70.05088657 -144.5859375 76.30078125 C-153.45084999 72.32897288 -160.7143764 64.33019967 -167.74560547 57.74682617 C-171.95852705 53.82270866 -176.34930365 50.18228853 -180.83984375 46.578125 C-183.84912992 44.08251499 -186.72529139 41.46309658 -189.5859375 38.80078125 C-194.20476831 34.50341571 -198.97814196 30.47306791 -203.89453125 26.515625 C-208.25753177 22.92517319 -212.42342073 19.12018384 -216.5859375 15.30078125 C-196.2233534 -14.68462741 -160.53957696 -32.21047406 -125.87890625 -38.91796875 C-79.86852279 -47.43220548 -34.01036449 -30.94582634 0 0 Z " fill="#5595F5" transform="translate(357.5859375,82.69921875)"/>
<path d="M0 0 C0 4.35231915 -2.67008827 6.41071904 -5.4375 9.5 C-6.55180216 10.76993826 -7.66507513 12.04078029 -8.77734375 13.3125 C-9.32890137 13.94027344 -9.88045898 14.56804688 -10.44873047 15.21484375 C-12.5209414 17.59948434 -14.51455194 20.04287091 -16.5 22.5 C-20.4337857 27.34596789 -24.48447759 32.08098528 -28.55859375 36.80859375 C-31.58958284 40.33317903 -34.56992581 43.89048832 -37.5 47.5 C-41.88712902 52.90076172 -46.41223412 58.174677 -50.94921875 63.44921875 C-57.94060541 71.57806647 -64.83870433 79.7742453 -71.59765625 88.09765625 C-73.41659217 90.29516745 -75.25417095 92.46495326 -77.12109375 94.62109375 C-77.66000244 95.2437915 -78.19891113 95.86648926 -78.75415039 96.50805664 C-79.80849054 97.72247736 -80.8661042 98.93406641 -81.92749023 100.14233398 C-84.64975683 103.27666815 -86.98638971 106.34262621 -89 110 C-97.86491249 106.02819163 -105.1284389 98.02941842 -112.15966797 91.44604492 C-116.37258955 87.52192741 -120.76336615 83.88150728 -125.25390625 80.27734375 C-128.26319242 77.78173374 -131.13935389 75.16231533 -134 72.5 C-138.61883081 68.20263446 -143.39220446 64.17228666 -148.30859375 60.21484375 C-152.67159427 56.62439194 -156.83748323 52.81940259 -161 49 C-140.6374159 19.01459134 -104.95363946 1.48874469 -70.29296875 -5.21875 C-46.40557281 -9.63912055 -23.18018217 -6.28046301 0 0 Z " fill="#2C85EA" transform="translate(302,49)"/>
<path d="M0 0 C8.60176281 3.84291718 15.67238952 11.54296869 22.51977539 17.9140625 C25.73135616 20.88608118 29.02551099 23.69899503 32.4375 26.4375 C36.62237799 29.80346662 40.58310464 33.33179641 44.5 37 C49.29185534 41.48689342 54.2225188 45.70826509 59.34375 49.8203125 C63.6989997 53.39417917 67.84970857 57.19181502 72 61 C69.33994309 65.23638692 66.56225416 68.44788028 63 72 C60.8767867 74.34076283 58.81200353 76.73028701 56.75 79.125 C56.17644775 79.78878662 55.60289551 80.45257324 55.01196289 81.13647461 C51.03186593 85.7590084 47.1475192 90.45086161 43.30859375 95.19140625 C40.58655909 98.5029848 37.79860269 101.75313059 35 105 C31.44542508 109.124643 27.93207702 113.27207904 24.5 117.5 C20.11287098 122.90076172 15.58776588 128.174677 11.05078125 133.44921875 C3.93152348 141.72674153 -3.09151377 150.07565901 -9.984375 158.54296875 C-12.60678793 161.73966978 -15.29212706 164.87553122 -18 168 C-35.90102267 141.14846599 -37.46275776 100.12146926 -31.51123047 69.48388672 C-26.22264642 43.89167706 -16.06374076 20.73302766 0 0 Z " fill="#EC5748" transform="translate(140,98)"/>
<path d="M0 0 C0 0.99 0 1.98 0 3 C-2 4.6875 -2 4.6875 -4 6 C-4 5.01 -4 4.02 -4 3 C-2 1.3125 -2 1.3125 0 0 Z " fill="#E8C215" transform="translate(296,239)"/>
</svg>
