<?xml version="1.0" encoding="UTF-8"?>
<!-- Generator: visioncortex VTracer 0.6.12 -->
<svg version="1.1" xmlns="http://www.w3.org/2000/svg" width="512" height="512">
<path d="M0 0 C0.39802484 -0.03824941 0.39802484 -0.03824941 2.41227174 -0.23181462 C5.07517331 -0.48280074 7.73903013 -0.72030904 10.40338135 -0.9553833 C11.33948997 -1.03990753 12.2755986 -1.12443176 13.24007416 -1.21151733 C32.08977956 -2.89685796 50.96173002 -3.91086921 69.86822128 -4.70255661 C81.85621628 -5.2179999 93.76280653 -5.92095486 105.70025635 -7.15264893 C159.05902282 -12.52870336 203.38510918 -6.41935156 245.54235423 27.9189775 C285.96866184 61.47581841 314.10369396 99.53317403 319.08436194 152.77091672 C321.98660847 186.83476902 320.05633747 221.16899182 317.80451536 255.209337 C316.96874152 267.99722422 316.42569967 280.77525712 316.06793213 293.58514404 C316.04234505 294.49851892 316.01675797 295.4118938 315.99039553 296.3529467 C315.86318573 300.94121359 315.74017259 305.52958293 315.61862731 310.11800289 C314.87649749 337.84133155 313.83614909 365.54528898 312.2054503 393.23118949 C312.08121998 395.37399708 311.96316007 397.51706174 311.84681702 399.66031075 C311.63227127 403.58497755 311.38749519 407.5074006 311.13772583 411.42999268 C311.0770725 412.56199018 311.01641918 413.69398768 310.95392787 414.86028814 C310.19095543 425.87584051 307.03463685 434.3215355 298.94342041 441.95379639 C291.21980887 448.55244711 284.04236325 449.24864995 274.12107849 449.22122192 C272.92173764 449.22575304 271.72239679 449.23028415 270.48671228 449.23495257 C267.16550931 449.24541284 263.84452313 449.24692413 260.52331913 449.24456382 C256.93833614 449.24415522 253.35338531 449.25519886 249.76841736 449.26467896 C242.74770295 449.28128058 235.72702213 449.28678812 228.70628973 449.28790371 C222.99855285 449.28885457 217.29082703 449.29296676 211.58309364 449.29930496 C195.39489453 449.316915 179.20672192 449.32614419 163.01851317 449.32464401 C162.1460934 449.3245641 161.27367363 449.32448419 160.37481689 449.32440186 C159.50132995 449.32432009 158.62784301 449.32423833 157.72788677 449.32415409 C143.57260964 449.32334123 129.41743892 449.34247948 115.26219257 449.37067859 C100.72208201 449.39941547 86.18202334 449.41321844 71.64188367 449.41149104 C63.48094361 449.41082742 55.32011512 449.41630735 47.15920067 449.43784714 C40.21072925 449.45606952 33.26241998 449.46039763 26.313935 449.44682829 C22.77047354 449.44030393 19.22732306 449.44016174 15.6838913 449.45753479 C11.8380218 449.47619631 7.99260494 449.46369699 4.14671326 449.44827271 C3.03308275 449.45855983 1.91945224 449.46884696 0.77207536 449.47944582 C-9.04940956 449.39244712 -16.08044983 446.56555455 -23.26751709 439.87957764 C-29.42710538 433.24927845 -32.30321143 426.09799014 -32.3138485 417.02772903 C-32.31735457 416.35182921 -32.32086064 415.67592938 -32.32447296 414.97954774 C-32.33377173 412.7162631 -32.32886766 410.45323664 -32.32400513 408.18994141 C-32.32774216 406.55021733 -32.3323439 404.91049503 -32.33773577 403.27077556 C-32.34997469 398.76579098 -32.34970425 394.26088062 -32.34734702 389.75588322 C-32.34693908 384.89684465 -32.35797587 380.03782995 -32.36746216 375.17880249 C-32.38407818 365.65916379 -32.38957198 356.13954986 -32.39068691 346.61989787 C-32.39163713 338.88175481 -32.39574612 331.14361991 -32.40208817 323.40547943 C-32.41970246 301.4672445 -32.42892678 279.52902914 -32.42742722 257.59078708 C-32.4273473 256.4079825 -32.42726739 255.22517791 -32.42718506 254.00653076 C-32.4271033 252.8222822 -32.42702154 251.63803363 -32.4269373 250.41789874 C-32.42612441 231.22588507 -32.44526219 212.03394988 -32.47346179 192.84195891 C-32.50218732 173.13655883 -32.51600226 153.43119703 -32.51427424 133.72577548 C-32.51361021 122.6623775 -32.51910822 111.5990618 -32.54063034 100.53568268 C-32.55883779 91.11580328 -32.56319305 81.69604344 -32.54961149 72.27615407 C-32.54307959 67.47085751 -32.54297275 62.66579036 -32.56031799 57.86051559 C-32.57604387 53.45855193 -32.57319004 49.05699967 -32.55574973 44.65504608 C-32.55267876 43.06555417 -32.5563159 41.47603159 -32.56746988 39.88657585 C-32.6456393 27.95371322 -31.34119926 18.61901912 -22.91595459 9.70770264 C-16.01908944 3.20204623 -9.47630826 0.85699384 0 0 Z " fill="#43A047" transform="translate(117.05657958984375,31.04620361328125)"/>
<path d="M0 0 C63.36 0 126.72 0 192 0 C192 49.5 192 99 192 150 C128.64 150 65.28 150 0 150 C0 100.5 0 51 0 0 Z " fill="#E5F3E6" transform="translate(160,245)"/>
<path d="M0 0 C34.98 0 69.96 0 106 0 C106 34.98 106 69.96 106 106 C98.12470017 99.249743 98.12470017 99.249743 94.39979553 95.52677917 C93.55717163 94.6869751 92.71454773 93.84717102 91.84638977 92.98191833 C90.94583359 92.07933792 90.0452774 91.17675751 89.11743164 90.24682617 C88.14124818 89.27200019 87.16485265 88.29738653 86.18826294 87.32296753 C83.55626489 84.69549896 80.92740405 82.06491296 78.29926229 79.43358779 C75.54479584 76.67657879 72.78787825 73.92202256 70.03135681 71.16706848 C65.41062592 66.54815192 60.79199697 61.92714145 56.17456055 57.30493164 C50.83051145 51.95542199 45.48284334 46.60955038 40.13331896 41.26551646 C35.53689755 36.67362415 30.94241648 32.07979725 26.34957021 27.48432904 C23.60756185 24.74075927 20.86487647 21.99787547 18.12043953 19.25673485 C15.54659762 16.68576934 12.9751908 14.11239347 10.40568924 11.5370903 C9.00709967 10.13653674 7.60603162 8.73845959 6.20491028 7.34043884 C5.38202515 6.51473389 4.55914001 5.68902893 3.71131897 4.83830261 C2.99035066 4.11695727 2.26938234 3.39561193 1.52656651 2.65240765 C0 1 0 1 0 0 Z " fill="#2E7D32" transform="translate(321,139)"/>
<path d="M0 0 C7.87529983 6.750257 7.87529983 6.750257 11.60020447 10.47322083 C12.44282837 11.3130249 13.28545227 12.15282898 14.15361023 13.01808167 C14.60388832 13.46937187 14.60388832 13.46937187 16.88256836 15.75317383 C17.85875182 16.72799981 18.83514735 17.70261347 19.81173706 18.67703247 C22.44373511 21.30450104 25.07259595 23.93508704 27.70073771 26.56641221 C30.45520416 29.32342121 33.21212175 32.07797744 35.96864319 34.83293152 C40.58937408 39.45184808 45.20800303 44.07285855 49.82543945 48.69506836 C55.16948855 54.04457801 60.51715666 59.39044962 65.86668104 64.73448354 C70.46310245 69.32637585 75.05758352 73.92020275 79.65042979 78.51567096 C82.39243815 81.25924073 85.13512353 84.00212453 87.87956047 86.74326515 C90.45340238 89.31423066 93.0248092 91.88760653 95.59431076 94.4629097 C96.99290033 95.86346326 98.39396838 97.26154041 99.79508972 98.65956116 C100.61797485 99.48526611 101.44085999 100.31097107 102.28868103 101.16169739 C103.00964934 101.88304273 103.73061766 102.60438807 104.47343349 103.34759235 C106 105 106 105 106 106 C71.02 106 36.04 106 0 106 C0 71.02 0 36.04 0 0 Z " fill="#C7E5C8" transform="translate(320,32)"/>
<path d="M0 0 C28.38 0 56.76 0 86 0 C86 7.26 86 14.52 86 22 C57.62 22 29.24 22 0 22 C0 14.74 0 7.48 0 0 Z " fill="#49A34D" transform="translate(245,309)"/>
<path d="M0 0 C28.38 0 56.76 0 86 0 C86 6.93 86 13.86 86 21 C57.62 21 29.24 21 0 21 C0 14.07 0 7.14 0 0 Z " fill="#44A048" transform="translate(245,352)"/>
<path d="M0 0 C27.72 0 55.44 0 84 0 C84 6.93 84 13.86 84 21 C56.28 21 28.56 21 0 21 C0 14.07 0 7.14 0 0 Z " fill="#43A047" transform="translate(246,267)"/>
<path d="M0 0 C14.19 0 28.38 0 43 0 C43 7.26 43 14.52 43 22 C28.81 22 14.62 22 0 22 C0 14.74 0 7.48 0 0 Z " fill="#49A34D" transform="translate(181,309)"/>
<path d="M0 0 C14.19 0 28.38 0 43 0 C43 6.93 43 13.86 43 21 C28.81 21 14.62 21 0 21 C0 14.07 0 7.14 0 0 Z " fill="#44A048" transform="translate(181,352)"/>
<path d="M0 0 C13.86 0 27.72 0 42 0 C42 6.93 42 13.86 42 21 C28.14 21 14.28 21 0 21 C0 14.07 0 7.14 0 0 Z " fill="#43A047" transform="translate(182,267)"/>
</svg>
