<?xml version="1.0" encoding="UTF-8"?>
<!-- Generator: visioncortex VTracer 0.6.12 -->
<svg version="1.1" xmlns="http://www.w3.org/2000/svg" width="512" height="512">
<path d="M0 0 C2.04176322 1.80786851 4.01644729 3.59765763 5.8984375 5.56640625 C4.56471333 8.52795623 3.10685825 10.60617419 0.81063843 12.89471436 C0.17682755 13.53127457 -0.45698334 14.16783478 -1.11000061 14.82368469 C-1.80411545 15.51060898 -2.49823029 16.19753326 -3.21337891 16.90527344 C-3.57928383 17.27132439 -3.57928383 17.27132439 -5.4309845 19.12376404 C-7.85032079 21.54170734 -10.27666363 23.95248994 -12.703125 26.36328125 C-14.38222052 28.03864654 -16.06087493 29.71445403 -17.73910522 31.39068604 C-22.15701612 35.80096127 -26.58090031 40.20519738 -31.00604248 44.60821533 C-35.52066237 49.10237545 -40.02962483 53.60220363 -44.5390625 58.1015625 C-53.38769196 66.92874321 -62.24264025 75.74955623 -71.1015625 84.56640625 C-74.8401879 83.15381481 -77.17874381 81.80758496 -80.0390625 79.00390625 C-101.55408583 59.37055988 -131.46060688 49.10884178 -160.2890625 49.25390625 C-160.8807019 49.25672607 -160.8807019 49.25672607 -163.87475586 49.27099609 C-196.93669695 49.72664951 -226.68196847 63.46895244 -250.1015625 86.56640625 C-250.96652344 87.41847656 -251.83148438 88.27054688 -252.72265625 89.1484375 C-275.86050171 113.22479151 -285.95888329 146.20390463 -285.3515625 179.02734375 C-284.26477907 210.44625285 -270.61334904 239.03606921 -249.1015625 261.56640625 C-248.5653125 262.16582031 -248.0290625 262.76523437 -247.4765625 263.3828125 C-230.64375671 281.52016073 -205.16576275 292.59642397 -181.1015625 296.56640625 C-180.59496094 296.65728516 -180.59496094 296.65728516 -178.03125 297.1171875 C-146.84593792 300.68210886 -114.76276029 295.23517799 -89.7265625 275.50390625 C-88.17739075 274.20027316 -86.6352243 272.88825112 -85.1015625 271.56640625 C-84.40546875 271.00308594 -83.709375 270.43976563 -82.9921875 269.859375 C-70.30377167 259.359465 -62.79611683 244.85629286 -55.1015625 230.56640625 C-93.3815625 230.56640625 -131.6615625 230.56640625 -171.1015625 230.56640625 C-171.1015625 195.25640625 -171.1015625 159.94640625 -171.1015625 123.56640625 C-94.8715625 123.56640625 -18.6415625 123.56640625 59.8984375 123.56640625 C61.42069892 127.3720598 62.29816295 130.10217523 62.93359375 134.03125 C63.1027832 135.07087891 63.27197266 136.11050781 63.44628906 137.18164062 C63.61612305 138.27798828 63.78595703 139.37433594 63.9609375 140.50390625 C64.1372168 141.63763672 64.31349609 142.77136719 64.49511719 143.93945312 C73.91392023 206.00740663 59.80168077 274.74253189 22.56640625 325.76171875 C17.21808626 332.94676022 11.44851308 339.659247 5.26318359 346.13427734 C3.94895283 347.51339678 2.65183089 348.90875838 1.35546875 350.3046875 C-37.69102056 391.12333215 -96.2623552 408.48173347 -151.3671875 409.8515625 C-205.9852796 410.89875879 -260.95647495 396.10854583 -304.1015625 361.56640625 C-304.93429687 360.92445313 -305.76703125 360.2825 -306.625 359.62109375 C-313.45370968 354.30030103 -319.82600907 348.51890926 -326.1015625 342.56640625 C-326.60478027 342.09187012 -327.10799805 341.61733398 -327.62646484 341.12841797 C-335.62207631 333.53914507 -342.53320627 325.41085338 -349.1015625 316.56640625 C-349.53210938 315.99132324 -349.96265625 315.41624023 -350.40625 314.82373047 C-388.30645874 263.9599276 -403.67038016 200.29175558 -394.67724609 137.60888672 C-389.27554997 102.25386008 -375.91335074 67.72536855 -355.1015625 38.56640625 C-354.67681641 37.96650879 -354.25207031 37.36661133 -353.81445312 36.74853516 C-346.33473888 26.2489786 -338.0938089 16.78969974 -329.1015625 7.56640625 C-328.11973287 6.54432731 -327.13795876 5.52219504 -326.15625 4.5 C-320.1666523 -1.63464494 -313.91515838 -7.23284905 -307.1015625 -12.43359375 C-306.78791748 -12.67456787 -306.78791748 -12.67456787 -305.20068359 -13.89404297 C-226.56897417 -73.81547625 -114.03939339 -79.58315285 0 0 Z M-228.1015625 -30.43359375 C-228.95137695 -30.15032227 -229.80119141 -29.86705078 -230.67675781 -29.57519531 C-249.52080072 -23.14220443 -268.04777421 -14.29841979 -284.1015625 -2.43359375 C-285.15085937 -1.66660156 -286.20015625 -0.89960937 -287.28125 -0.109375 C-296.91478037 7.05398296 -305.6214038 15.07265755 -314.1015625 23.56640625 C-314.83375 24.2521875 -315.5659375 24.93796875 -316.3203125 25.64453125 C-349.40253781 57.14062247 -367.29923361 102.22529942 -374.1015625 146.56640625 C-374.20686279 147.24574219 -374.31216309 147.92507812 -374.4206543 148.625 C-381.7089277 203.51378223 -364.68753005 260.03905099 -331.64868164 303.82470703 C-325.37306696 311.95703039 -318.36669265 319.31280806 -311.1015625 326.56640625 C-310.38097656 327.32179688 -309.66039062 328.0771875 -308.91796875 328.85546875 C-271.46035559 367.67635726 -216.24701261 387.42132787 -163.08984375 388.56640625 C-107.84013241 389.00570539 -56.20784137 374.24283126 -15.1015625 336.56640625 C-14.33328125 335.8703125 -13.565 335.17421875 -12.7734375 334.45703125 C22.15335222 301.23398737 38.97402658 251.31888124 43.8984375 204.56640625 C43.96417969 203.94894531 43.96417969 203.94894531 44.296875 200.82421875 C45.881982 182.61690859 46.35652941 162.3987739 41.8984375 144.56640625 C-21.4615625 144.56640625 -84.8215625 144.56640625 -150.1015625 144.56640625 C-150.1015625 166.01640625 -150.1015625 187.46640625 -150.1015625 209.56640625 C-108.5215625 209.56640625 -66.9415625 209.56640625 -24.1015625 209.56640625 C-34.89851304 241.95725787 -34.89851304 241.95725787 -41.1015625 252.56640625 C-41.27405518 252.86401855 -41.27405518 252.86401855 -42.14697266 254.37011719 C-60.46501557 285.47812422 -89.3174491 306.36063992 -124.1015625 315.56640625 C-162.25566393 324.61502576 -203.22017802 318.849562 -237.03417969 298.85693359 C-269.66111724 278.49014192 -294.13651537 246.03167822 -302.88769531 208.38037109 C-305.4229361 196.93415874 -306.34233759 185.90908038 -306.3515625 174.19140625 C-306.35223724 173.42563263 -306.35291199 172.65985901 -306.35360718 171.87088013 C-306.33808046 160.80294333 -305.95676227 150.31945699 -303.1015625 139.56640625 C-302.93527344 138.89512695 -302.76898438 138.22384766 -302.59765625 137.53222656 C-297.16060891 115.73369418 -286.89271068 95.51744483 -272.1015625 78.56640625 C-271.27011719 77.6021875 -270.43867188 76.63796875 -269.58203125 75.64453125 C-245.16279951 47.85208561 -210.92208646 31.78188475 -174.3515625 27.81640625 C-172.60314131 27.70474695 -170.85260593 27.62377662 -169.1015625 27.56640625 C-168.50472656 27.54642578 -168.50472656 27.54642578 -165.484375 27.4453125 C-131.50700278 26.70036082 -102.41086926 38.55139286 -74.1015625 56.56640625 C-58.2615625 40.72640625 -42.4215625 24.88640625 -26.1015625 8.56640625 C-30.2810048 4.38696395 -34.13918943 1.16121082 -38.9140625 -2.18359375 C-39.28829346 -2.44579712 -39.28829346 -2.44579712 -41.18212891 -3.77270508 C-48.55298856 -8.85945081 -56.15018593 -13.32234954 -64.1015625 -17.43359375 C-64.81473633 -17.80581055 -65.52791016 -18.17802734 -66.26269531 -18.56152344 C-116.06706605 -44.24087591 -175.07047707 -48.11062223 -228.1015625 -30.43359375 Z " fill="#000000" transform="translate(427.1015625,82.43359375)"/>
</svg>
