<?xml version="1.0" encoding="UTF-8"?>
<!-- Generator: visioncortex VTracer 0.6.12 -->
<svg version="1.1" xmlns="http://www.w3.org/2000/svg" width="512" height="512">
<path d="M0 0 C1.17125192 0.66451089 2.34314232 1.32789749 3.515625 1.99023438 C5.91272015 3.34611386 8.30655643 4.70747788 10.69775391 6.07373047 C16.00799052 9.10503258 21.3497133 12.08008245 26.6875 15.0625 C28.74744943 16.21735231 30.80734489 17.37230091 32.8671875 18.52734375 C39.5054666 22.24490455 46.158763 25.93520039 52.8125 29.625 C61.12452349 34.23542761 69.418771 38.87486978 77.6875 43.5625 C90.47547586 50.81094812 103.33081564 57.93684613 116.1875 65.0625 C129.98502668 72.70960377 143.77032675 80.37458239 157.49414062 88.15332031 C169.34969032 94.86547336 181.2716144 101.45827188 193.1875 108.0625 C206.98071125 115.707212 220.76327557 123.36714147 234.48095703 131.14672852 C240.74932207 134.69714001 247.03798646 138.2091399 253.33959961 141.70019531 C256.77461864 143.60400481 260.20587673 145.51445691 263.63671875 147.42578125 C267.7928233 149.74001046 271.96149856 152.02783164 276.14453125 154.29296875 C291.84914599 162.88168706 305.75806827 171.96909084 311.49609375 189.95703125 C315.75251003 204.66597973 315.15195906 218.89623949 308.90234375 232.953125 C300.16779041 248.42715264 286.54569445 255.90747031 271.4375 264.1875 C269.03552056 265.51132387 266.63497971 266.83774774 264.234375 268.1640625 C263.63592773 268.49428406 263.03748047 268.82450562 262.42089844 269.16473389 C256.82046903 272.25768789 251.25126028 275.40421324 245.6875 278.5625 C234.04323935 285.16361919 222.34245412 291.66132461 210.63574219 298.15087891 C192.12832156 308.41094004 173.64442596 318.71189332 155.1875 329.0625 C142.32628004 336.27504609 129.4576066 343.47317691 116.5625 350.625 C108.25050368 355.23547724 99.9562295 359.8748695 91.6875 364.5625 C80.04282737 371.16290388 68.3424631 377.66131964 56.63574219 384.15087891 C42.07683065 392.22198322 27.52502989 400.30555622 13 408.4375 C11.96254639 409.01685303 10.92509277 409.59620605 9.85620117 410.19311523 C5.38171473 412.69501345 0.9168299 415.20768244 -3.5078125 417.796875 C-18.27886741 426.41318174 -32.58542925 431.33459795 -49.87890625 427.84375 C-62.80077274 424.40250726 -75.18438596 417.31259625 -82.8125 406.0625 C-89.65858757 393.98034546 -92.11348959 384.68497532 -92.07992554 370.86225891 C-92.08366442 369.40458812 -92.08826689 367.94691933 -92.09365618 366.4892537 C-92.10587236 362.49205629 -92.10562734 358.49494266 -92.10326743 354.49773085 C-92.10285891 350.18332422 -92.11390184 345.86894431 -92.12338257 341.55455017 C-92.1399864 333.1045328 -92.14549185 324.65454334 -92.14660732 316.20451102 C-92.14755817 309.33406703 -92.15167032 302.46363223 -92.15800858 295.59319115 C-92.17561998 276.10584642 -92.18484771 256.61852371 -92.18334763 237.13117097 C-92.18326772 236.08088504 -92.1831878 235.0305991 -92.18310547 233.94848633 C-92.18302371 232.89691493 -92.18294195 231.84534354 -92.18285771 230.76190635 C-92.18204503 213.72465641 -92.20117833 196.68749492 -92.2293822 179.65027056 C-92.25812622 162.14835264 -92.27192163 144.64647784 -92.27019465 127.14453572 C-92.26953123 117.32187266 -92.27500233 107.49930231 -92.29655075 97.67666054 C-92.3147826 89.31233856 -92.31909349 80.94815132 -92.3055319 72.58381806 C-92.29901212 68.31900228 -92.29884906 64.05444482 -92.3162384 59.78965378 C-92.33201843 55.87920385 -92.32905571 51.969216 -92.31167014 48.058777 C-92.30861101 46.65030082 -92.31219136 45.24178973 -92.32339029 43.83335475 C-92.44510851 27.42821934 -87.24929338 14.21185724 -76.07421875 2.1640625 C-53.20130927 -19.08917636 -24.95864459 -14.39691324 0 0 Z " fill="#007BC3" transform="translate(155.8125,47.9375)"/>
<path d="M0 0 C2.62549833 0.94387711 4.92222532 2.08712721 7.34543252 3.47319621 C8.31803018 4.02427043 9.29062783 4.57534465 10.29269814 5.14311808 C10.81573525 5.44379191 10.81573525 5.44379191 13.46262002 6.96538371 C15.7253069 8.24982635 17.98833949 9.53366014 20.25168252 10.81694621 C20.83464089 11.14869853 21.41759927 11.48045085 22.01822305 11.82225627 C28.26471895 15.37633032 34.55059922 18.85860128 40.83762002 22.34038371 C43.09041617 23.59134011 45.34302025 24.84264249 47.59543252 26.09428996 C50.98012489 27.97505624 54.36496083 29.8555561 57.75070596 31.73442668 C64.96353164 35.73959061 72.16426386 39.76488975 79.33762002 43.84038371 C80.05707803 44.24869426 80.77653604 44.6570048 81.5177958 45.0776884 C96.79635203 53.83163582 107.25514205 63.94709522 112.61105752 81.01616496 C116.21469605 95.02385667 114.83225071 110.49160901 107.65012002 123.21538371 C98.30717451 137.11301515 85.99764925 144.06798271 71.58762002 151.96538371 C69.18564058 153.28920758 66.78509973 154.61563145 64.38449502 155.94194621 C63.78604775 156.27216777 63.18760049 156.60238932 62.57101846 156.9426176 C56.97058905 160.0355716 51.4013803 163.18209695 45.83762002 166.34038371 C34.19335937 172.9415029 22.49257414 179.43920832 10.78586221 185.92876261 C-7.72155842 196.18882375 -26.20545402 206.48977703 -44.66237998 216.84038371 C-57.52359994 224.05292979 -70.39227338 231.25106062 -83.28737998 238.40288371 C-91.5993763 243.01336095 -99.89365048 247.65275321 -108.16237998 252.34038371 C-119.80705261 258.94078759 -131.50741688 265.43920334 -143.21413779 271.92876261 C-157.77304933 279.99986693 -172.32485009 288.08343993 -186.84987998 296.21538371 C-187.88733359 296.79473674 -188.92478721 297.37408976 -189.99367881 297.97099894 C-194.46816525 300.47289715 -198.93305008 302.98556615 -203.35769248 305.57475871 C-218.12874739 314.19106545 -232.43530923 319.11248166 -249.72878623 315.62163371 C-264.57602877 311.66764102 -276.94865146 303.1488199 -285.16237998 290.09038371 C-286.66237998 286.84038371 -286.66237998 286.84038371 -286.5391798 284.94442749 C-285.29662052 281.96267605 -283.41362685 280.21135222 -281.13358283 277.9256832 C-280.65611722 277.44295847 -280.1786516 276.96023375 -279.68671733 276.462881 C-278.0755405 274.83768308 -276.45383021 273.22342053 -274.83199668 271.6088621 C-273.66674516 270.43800874 -272.50214468 269.26650714 -271.3381424 268.09441185 C-268.13019232 264.86805827 -264.91287079 261.65119278 -261.6939435 258.43579608 C-258.22700369 254.96946703 -254.76865957 251.49458018 -251.30915427 248.02083415 C-244.5277114 241.21444425 -237.73792387 234.41643804 -230.94483271 227.62167545 C-225.42597643 222.10139525 -219.90949283 216.57875527 -214.39468741 211.05442828 C-198.77227784 195.40559362 -183.14358712 179.76307103 -167.50683519 164.12856748 C-166.66339446 163.28524662 -165.81995374 162.44192576 -164.9509542 161.57304972 C-164.10648727 160.72870544 -163.26202035 159.88436115 -162.39196351 159.01443068 C-148.6967339 145.32042125 -135.01653986 131.61149982 -121.34307799 117.89575841 C-107.31618615 103.82583547 -93.27820037 89.76706683 -79.22847843 75.71994019 C-71.33550819 67.82796781 -63.44726503 59.93139794 -55.57091117 52.02283877 C-48.8667255 45.29141732 -42.15235137 38.5703727 -35.42432275 31.86277863 C-31.98928516 28.43757633 -28.55935171 25.00763187 -25.14219069 21.56458682 C-22.017628 18.41659976 -18.87970651 15.2826239 -15.73027459 12.15952311 C-14.58970764 11.02359916 -13.45425251 9.88251606 -12.32433257 8.73600086 C-10.7944358 7.18512182 -9.24745498 5.65365797 -7.69454169 4.12587851 C-7.26591862 3.69692938 -7.26591862 3.69692938 -5.09682608 1.52618682 C-2.66237998 -0.15961629 -2.66237998 -0.15961629 0 0 Z " fill="#ED4555" transform="translate(355.6623799800873,160.15961629152298)"/>
<path d="M0 0 C1.17125192 0.66451089 2.34314232 1.32789749 3.515625 1.99023438 C5.91272015 3.34611386 8.30655643 4.70747788 10.69775391 6.07373047 C16.00799052 9.10503258 21.3497133 12.08008245 26.6875 15.0625 C28.74744943 16.21735231 30.80734489 17.37230091 32.8671875 18.52734375 C39.5054666 22.24490455 46.158763 25.93520039 52.8125 29.625 C61.12452349 34.23542761 69.418771 38.87486978 77.6875 43.5625 C90.47547586 50.81094812 103.33081564 57.93684613 116.1875 65.0625 C129.96919282 72.70082805 143.74456447 80.34716832 157.44580078 88.12915039 C162.76037837 91.14278593 168.09264725 94.12115606 173.4453125 97.06640625 C174.68294844 97.74868752 175.92057867 98.43097915 177.15820312 99.11328125 C179.54211969 100.42717132 181.92919502 101.73467194 184.31835938 103.0390625 C185.40181641 103.63589844 186.48527344 104.23273438 187.6015625 104.84765625 C188.5601416 105.37238525 189.5187207 105.89711426 190.50634766 106.43774414 C193.1875 108.0625 193.1875 108.0625 198.1875 112.0625 C166.5075 143.7425 134.8275 175.4225 102.1875 208.0625 C94.31221799 201.31225828 94.31221799 201.31225828 91.48101044 198.49581814 C90.8324784 197.85297735 90.18394637 197.21013656 89.51576185 196.54781574 C88.82731703 195.8605508 88.13887221 195.17328586 87.42956543 194.4651947 C86.67967236 193.72038945 85.92977929 192.9755842 85.15716219 192.2082091 C82.65905126 189.72572511 80.16446285 187.23973299 77.66992188 184.75366211 C75.87435433 182.96764 74.07861422 181.18179135 72.28271484 179.39610291 C66.91031705 174.05228162 61.54227798 168.70409969 56.17567706 163.35445747 C54.65974936 161.84333203 53.14373182 160.33229677 51.62769508 158.82128072 C42.20580058 149.43033071 32.78604146 140.03724212 23.37120819 130.63921261 C21.1960694 128.46802293 19.02090364 126.29686026 16.84570312 124.12573242 C16.30510744 123.58614509 15.76451175 123.04655777 15.20753437 122.49061931 C6.42889752 113.72902908 -2.36172918 104.97956876 -11.15718561 96.23486667 C-20.19171301 87.25204591 -29.21493949 78.25799655 -38.227283 69.2529183 C-43.28612528 64.19874335 -48.34992218 59.1497537 -53.42652893 54.11341667 C-58.19417038 49.38355097 -62.94647103 44.63880868 -67.68859863 39.88334084 C-69.43500503 38.13698866 -71.1865961 36.39580437 -72.94358826 34.66010284 C-75.33323379 32.29788635 -77.70385774 29.91811547 -80.07043457 27.53282166 C-80.77672516 26.84332599 -81.48301576 26.15383033 -82.2107091 25.44344085 C-86.80773822 20.75440092 -86.80773822 20.75440092 -86.83177948 17.26113224 C-80.47085965 3.54033859 -69.27126527 -4.18679872 -55.8125 -9.9375 C-35.3405007 -16.31614399 -18.01093171 -10.38925893 0 0 Z " fill="#309F44" transform="translate(155.8125,47.9375)"/>
<path d="M0 0 C2.68720813 0.87976224 4.94715156 2.0123434 7.40253925 3.41681957 C8.37513691 3.96789379 9.34773457 4.51896801 10.34980488 5.08674145 C11.3958791 5.6880891 12.44195332 6.28943676 13.51972675 6.90900707 C15.78241363 8.19344971 18.04544622 9.4772835 20.30878925 10.76056957 C20.60026844 10.92644573 20.60026844 10.92644573 22.07532978 11.76587963 C28.32182568 15.31995369 34.60770596 18.80222464 40.89472675 22.28400707 C43.14752291 23.53496348 45.40012698 24.78626585 47.65253925 26.03791332 C51.03723162 27.91867961 54.42206756 29.79917946 57.80781269 31.67805004 C65.02063837 35.68321397 72.22137059 39.70851311 79.39472675 43.78400707 C80.11418476 44.19231762 80.83364277 44.60062817 81.57490253 45.02131176 C96.85345877 53.77525918 107.31224878 63.89071858 112.66816425 80.95978832 C116.27180279 94.96748004 114.88935744 110.43523238 107.70722675 123.15900707 C98.36428124 137.05663852 86.05475599 144.01160608 71.64472675 151.90900707 C69.24274731 153.23283094 66.84220647 154.55925482 64.44160175 155.88556957 C63.84315449 156.21579113 63.24470722 156.54601269 62.62812519 156.88624096 C57.02769772 159.9791939 51.45841157 163.12558981 45.89472675 166.28400707 C36.10841939 171.83448883 26.28104068 177.30858302 16.43964863 182.76056957 C15.36263691 183.35740551 14.28562519 183.95424145 13.17597675 184.56916332 C12.16664082 185.12491039 11.15730488 185.68065746 10.117383 186.25324535 C7.82532067 187.54191383 5.59715134 188.89472463 3.36347675 190.28010082 C0.39472675 191.78400707 0.39472675 191.78400707 -1.53771877 191.60855484 C-4.19046843 190.55062924 -5.63884766 189.11928196 -7.65489483 187.09514904 C-8.45132397 186.30284389 -9.24775311 185.51053875 -10.06831646 184.69422436 C-10.93290478 183.81885021 -11.7974931 182.94347607 -12.68828106 182.04157543 C-13.6057008 181.12459377 -14.52312054 180.20761211 -15.46834087 179.26284313 C-17.98305008 176.74899508 -20.48839883 174.226001 -22.99218369 171.70127845 C-25.61067535 169.06404011 -28.23765828 166.4352882 -30.86375713 163.80562878 C-35.83497782 158.82508173 -40.79850137 153.83693635 -45.75931334 148.8460241 C-51.40754821 143.16426366 -57.0642983 137.49101375 -62.72178411 131.81846702 C-74.35912334 120.14976537 -85.98570808 108.47040861 -97.60527325 96.78400707 C-96.16549587 93.49860006 -94.38632679 91.30629378 -91.8677702 88.76562023 C-91.08973034 87.97616009 -90.31169048 87.18669994 -89.51007366 86.37331676 C-88.65550076 85.51650814 -87.80092785 84.65969952 -86.92045879 83.77692699 C-86.02111614 82.86765453 -85.12177349 81.95838207 -84.19517803 81.0215559 C-81.73112137 78.53131325 -79.26046783 76.0477216 -76.78773761 73.56609416 C-75.24334869 72.01583767 -73.70013857 70.46441709 -72.15728474 68.91263294 C-67.33029012 64.05831345 -62.49932454 59.20799865 -57.66251439 54.36345881 C-52.07726593 48.76923513 -46.50535876 43.16215756 -40.9446246 37.54356784 C-36.64513239 33.20089964 -32.33423495 28.86977416 -28.01443988 24.54730207 C-25.43431209 21.9650753 -22.85930256 19.37818921 -20.29601383 16.77923679 C-17.43986675 13.88412538 -14.56047278 11.01328857 -11.67827129 8.14411449 C-10.82977108 7.27718472 -9.98127087 6.41025494 -9.10705853 5.51705456 C-8.3205592 4.74169353 -7.53405987 3.96633251 -6.72372723 3.1674757 C-6.04511985 2.4859352 -5.36651247 1.8043947 -4.66734123 1.10220146 C-2.60527325 -0.21599293 -2.60527325 -0.21599293 0 0 Z " fill="#FECC40" transform="translate(355.60527324676514,160.21599292755127)"/>
</svg>
