<?xml version="1.0" encoding="UTF-8"?>
<!-- Generator: visioncortex VTracer 0.6.12 -->
<svg version="1.1" xmlns="http://www.w3.org/2000/svg" width="512" height="512">
<path d="M0 0 C1.17620022 -0.00644889 2.35240043 -0.01289778 3.56424308 -0.0195421 C4.20577327 -0.0179935 4.20577327 -0.0179935 7.45230484 -0.01015663 C8.83629169 -0.01389476 10.22027642 -0.01849693 11.60425782 -0.02388728 C15.40234867 -0.03611274 19.2003514 -0.03585735 22.99845743 -0.03349853 C27.09675483 -0.03309024 31.19502402 -0.04413065 35.29330826 -0.05361366 C43.32101266 -0.0702224 51.34868769 -0.07572316 59.37640783 -0.07683842 C65.90269019 -0.077789 72.42896286 -0.08189981 78.95524216 -0.08823967 C97.4625511 -0.10585213 115.96983685 -0.11507859 134.47715423 -0.11357872 C134.97595966 -0.11353877 134.97595966 -0.11353877 137.50021744 -0.11333656 C138.49904789 -0.1132548 139.49787834 -0.11317304 140.52697638 -0.1130888 C156.71206152 -0.11227601 172.89705358 -0.13141183 189.08211181 -0.1596133 C205.70483909 -0.18834857 222.327521 -0.20215322 238.95027375 -0.20042574 C248.281046 -0.19976204 257.61172068 -0.20524569 266.94247055 -0.22678185 C274.88746531 -0.24500214 282.83231827 -0.24933405 290.77732489 -0.235763 C294.82923788 -0.22923747 298.88087891 -0.22910093 302.93276596 -0.2464695 C306.64639808 -0.26222406 310.35954313 -0.25931272 314.07316354 -0.24190123 C316.04385782 -0.23739123 318.01456734 -0.25247002 319.98520255 -0.26838052 C329.84381794 -0.19196629 338.1463045 1.67583393 345.51095963 8.55414391 C352.57032069 16.40588224 354.31838654 24.61196191 354.84796524 34.89157677 C354.90894162 35.96449624 354.969918 37.03741571 355.03274214 38.1428479 C355.23282063 41.74187459 355.41845801 45.34145864 355.60226822 48.94135094 C355.66919247 50.20350803 355.73611671 51.46566513 355.80506897 52.76606941 C357.09022472 77.14911224 357.89516778 101.5436047 358.49913212 125.95239229 C358.59879357 129.97353248 358.70196868 133.99457542 358.80734634 138.01556969 C358.82824942 138.81555228 358.84915249 139.61553487 358.87068899 140.43975936 C359.17097161 151.63295314 359.67467326 162.80016781 360.34749912 173.9769229 C367.75565601 297.18278915 367.75565601 297.18278915 328.39662051 342.64636123 C297.48639639 376.65647906 262.33285356 390.06328767 217.64104418 392.20550291 C192.2799374 393.25754118 166.9472876 392.04232643 141.6319226 390.53380764 C130.45815679 389.87602282 119.29173169 389.45062331 108.10226822 389.17328453 C107.70392423 389.16338095 107.70392423 389.16338095 105.68806224 389.11326283 C102.48281392 389.03439729 99.27753415 388.95703669 96.07220265 388.88162622 C71.70442798 388.30791992 47.3444855 387.53881815 23.00344086 386.24634361 C20.48904403 386.11351216 17.9743538 385.98610401 15.45938492 385.86458397 C12.0241573 385.69570129 8.59107655 385.50350091 5.15753555 385.30353355 C4.17006029 385.25788686 3.18258504 385.21224017 2.16518629 385.16521025 C-7.54543305 384.54083369 -16.32034775 381.6397306 -22.95779037 374.25726891 C-27.57768787 368.11378819 -30.20422565 362.08906262 -30.21505928 354.29947853 C-30.22150817 353.12327832 -30.22795707 351.9470781 -30.23460138 350.73523545 C-30.23150417 349.45217507 -30.22840697 348.16911469 -30.22521591 346.84717369 C-30.22895404 345.46318684 -30.23355621 344.07920211 -30.23894656 342.69522071 C-30.25117202 338.89712986 -30.25091663 335.09912713 -30.24855781 331.3010211 C-30.24814952 327.2027237 -30.25918993 323.10445451 -30.26867294 319.00617027 C-30.28528168 310.97846587 -30.29078244 302.95079084 -30.2918977 294.9230707 C-30.29284828 288.39678834 -30.29695909 281.87051567 -30.30329895 275.34423637 C-30.32091142 256.83692743 -30.33013787 238.32964169 -30.328638 219.82232431 C-30.32855809 218.82471345 -30.32847818 217.82710259 -30.32839584 216.79926109 C-30.32831408 215.80043064 -30.32823232 214.80160019 -30.32814808 213.77250215 C-30.32733529 197.58741701 -30.34647111 181.40242495 -30.37467258 165.21736673 C-30.40340785 148.59463944 -30.4172125 131.97195753 -30.41548502 115.34920478 C-30.41482132 106.01843253 -30.42030497 96.68775785 -30.44184113 87.35700798 C-30.46006143 79.41201322 -30.46439333 71.46716026 -30.45082228 63.52215365 C-30.44429675 59.47024065 -30.44416021 55.41859962 -30.46152878 51.36671257 C-30.47728334 47.65308045 -30.47437201 43.9399354 -30.45696051 40.22631499 C-30.45245051 38.25562072 -30.4675293 36.28491119 -30.4834398 34.31427598 C-30.40702557 24.45566059 -28.53922535 16.15317403 -21.66091537 8.78851891 C-15.41006072 3.16848445 -8.47204298 0.01178279 0 0 Z " fill="#FDFDFE" transform="translate(93.95779037475586,63.74273109436035)"/>
<path d="M0 0 C1.17620022 -0.00644889 2.35240043 -0.01289778 3.56424308 -0.0195421 C4.20577327 -0.0179935 4.20577327 -0.0179935 7.45230484 -0.01015663 C8.83629169 -0.01389476 10.22027642 -0.01849693 11.60425782 -0.02388728 C15.40234867 -0.03611274 19.2003514 -0.03585735 22.99845743 -0.03349853 C27.09675483 -0.03309024 31.19502402 -0.04413065 35.29330826 -0.05361366 C43.32101266 -0.0702224 51.34868769 -0.07572316 59.37640783 -0.07683842 C65.90269019 -0.077789 72.42896286 -0.08189981 78.95524216 -0.08823967 C97.4625511 -0.10585213 115.96983685 -0.11507859 134.47715423 -0.11357872 C134.97595966 -0.11353877 134.97595966 -0.11353877 137.50021744 -0.11333656 C138.49904789 -0.1132548 139.49787834 -0.11317304 140.52697638 -0.1130888 C156.71206152 -0.11227601 172.89705358 -0.13141183 189.08211181 -0.1596133 C205.70483909 -0.18834857 222.327521 -0.20215322 238.95027375 -0.20042574 C248.281046 -0.19976204 257.61172068 -0.20524569 266.94247055 -0.22678185 C274.88746531 -0.24500214 282.83231827 -0.24933405 290.77732489 -0.235763 C294.82923788 -0.22923747 298.88087891 -0.22910093 302.93276596 -0.2464695 C306.64639808 -0.26222406 310.35954313 -0.25931272 314.07316354 -0.24190123 C316.04385782 -0.23739123 318.01456734 -0.25247002 319.98520255 -0.26838052 C329.84381794 -0.19196629 338.1463045 1.67583393 345.51095963 8.55414391 C363.73286668 28.82136706 354.04220963 61.56038245 354.04220963 85.25726891 C255.37220963 85.25726891 156.70220963 85.25726891 55.04220963 85.25726891 C55.04220963 183.92726891 55.04220963 282.59726891 55.04220963 384.25726891 C-12.54301765 384.25726891 -12.54301765 384.25726891 -21.42654037 375.96039391 C-27.04657484 369.70953925 -30.20327649 362.77152152 -30.21505928 354.29947853 C-30.22150817 353.12327832 -30.22795707 351.9470781 -30.23460138 350.73523545 C-30.23150417 349.45217507 -30.22840697 348.16911469 -30.22521591 346.84717369 C-30.22895404 345.46318684 -30.23355621 344.07920211 -30.23894656 342.69522071 C-30.25117202 338.89712986 -30.25091663 335.09912713 -30.24855781 331.3010211 C-30.24814952 327.2027237 -30.25918993 323.10445451 -30.26867294 319.00617027 C-30.28528168 310.97846587 -30.29078244 302.95079084 -30.2918977 294.9230707 C-30.29284828 288.39678834 -30.29695909 281.87051567 -30.30329895 275.34423637 C-30.32091142 256.83692743 -30.33013787 238.32964169 -30.328638 219.82232431 C-30.32855809 218.82471345 -30.32847818 217.82710259 -30.32839584 216.79926109 C-30.32831408 215.80043064 -30.32823232 214.80160019 -30.32814808 213.77250215 C-30.32733529 197.58741701 -30.34647111 181.40242495 -30.37467258 165.21736673 C-30.40340785 148.59463944 -30.4172125 131.97195753 -30.41548502 115.34920478 C-30.41482132 106.01843253 -30.42030497 96.68775785 -30.44184113 87.35700798 C-30.46006143 79.41201322 -30.46439333 71.46716026 -30.45082228 63.52215365 C-30.44429675 59.47024065 -30.44416021 55.41859962 -30.46152878 51.36671257 C-30.47728334 47.65308045 -30.47437201 43.9399354 -30.45696051 40.22631499 C-30.45245051 38.25562072 -30.4675293 36.28491119 -30.4834398 34.31427598 C-30.40702557 24.45566059 -28.53922535 16.15317403 -21.66091537 8.78851891 C-15.41006072 3.16848445 -8.47204298 0.01178279 0 0 Z " fill="#1D87E4" transform="translate(93.95779037475586,63.74273109436035)"/>
<path d="M0 0 C28.05 0 56.1 0 85 0 C100.79208621 218.02334403 100.79208621 218.02334403 63.61102104 262.88752556 C34.62313431 295.26063011 -0.08834381 300.89217268 -41.57527131 303.23410255 C-99.0981744 306.1749682 -156.61774344 303.15636934 -214 299 C-214 270.95 -214 242.9 -214 214 C-143.38 214 -72.76 214 0 214 C0 143.38 0 72.76 0 0 Z " fill="#FABF2D" transform="translate(363,149)"/>
<path d="M0 0 C28.05 0 56.1 0 85 0 C85 70.62 85 141.24 85 214 C56.95 214 28.9 214 0 214 C0 143.38 0 72.76 0 0 Z " fill="#4CAE50" transform="translate(363,149)"/>
<path d="M0 0 C28.05 0 56.1 0 85 0 C85 28.05 85 56.1 85 85 C80.070625 85.04125 80.070625 85.04125 55.125 85.25 C52.03141113 85.28641602 48.93782227 85.32283203 45.75048828 85.36035156 C43.27377006 85.37204388 40.79704411 85.38223442 38.3203125 85.390625 C37.05437256 85.41108887 35.78843262 85.43155273 34.48413086 85.45263672 C24.42390619 85.45656726 16.05471325 83.72975577 8.53125 76.703125 C2.7967552 70.32496242 -0.26287207 63.3521687 -0.22705078 54.71923828 C-0.22680908 53.48149658 -0.22656738 52.24375488 -0.22631836 50.96850586 C-0.21608643 49.68210205 -0.20585449 48.39569824 -0.1953125 47.0703125 C-0.19329834 45.87720459 -0.19128418 44.68409668 -0.18920898 43.45483398 C-0.17877005 39.0115167 -0.1508475 34.56825436 -0.125 30.125 C-0.08375 20.18375 -0.0425 10.2425 0 0 Z " fill="#1464C0" transform="translate(64,363)"/>
<path d="M0 0 C4.929375 -0.04125 4.929375 -0.04125 29.875 -0.25 C31.42179443 -0.26820801 31.42179443 -0.26820801 39.24951172 -0.36035156 C41.72622994 -0.37204388 44.20295589 -0.38223442 46.6796875 -0.390625 C47.94562744 -0.41108887 49.21156738 -0.43155273 50.51586914 -0.45263672 C60.57609381 -0.45656726 68.94528675 1.27024423 76.46875 8.296875 C82.2032448 14.67503758 85.26287207 21.6478313 85.22705078 30.28076172 C85.22680908 31.51850342 85.22656738 32.75624512 85.22631836 34.03149414 C85.21608643 35.31789795 85.20585449 36.60430176 85.1953125 37.9296875 C85.19329834 39.12279541 85.19128418 40.31590332 85.18920898 41.54516602 C85.17877005 45.9884833 85.1508475 50.43174564 85.125 54.875 C85.08375 64.81625 85.0425 74.7575 85 85 C56.95 85 28.9 85 0 85 C0 56.95 0 28.9 0 0 Z " fill="#1464C0" transform="translate(363,64)"/>
<path d="M0 0 C8.10748272 4.79917541 14.14779852 11.93771043 17 21 C17.44346417 23.78451869 17.52420582 26.49602546 17.5 29.3125 C17.49645508 30.05653076 17.49291016 30.80056152 17.48925781 31.56713867 C17.25717673 39.30065205 14.79398375 44.82845088 9.6875 50.625 C9.130625 51.07875 8.57375 51.5325 8 52 C9.30113265 54.85629596 10.71588005 56.92210213 12.875 59.1875 C19.42632421 66.83071158 20.81584653 74.21635954 20.37890625 84.125 C19.49219663 93.19320561 15.44718817 100.58965291 9 107 C-2.48552526 115.58135492 -13.97494804 117.52400111 -28 116 C-37.84129559 113.75891288 -45.74384793 107.77620638 -51.6953125 99.69921875 C-54.87420802 94.4404173 -55.17103615 91.63171077 -56 85 C-53.03 84.67 -53.03 84.67 -38 83 C-37.01 85.31 -36.02 87.62 -35 90 C-31.50272997 94.17570219 -26.81020526 96.5899086 -21.45703125 97.37109375 C-14.29982356 97.55081684 -8.84312279 96.27122519 -3 92 C0.42152373 88.51658825 1.27628442 84.78757431 1.625 80 C1.40649801 75.36211915 0.17804 72.71062259 -3.125 69.46875 C-10.98211058 63.31401338 -19.36145633 63.34733491 -29 63 C-29 57.06 -29 51.12 -29 45 C-26.89625 44.938125 -24.7925 44.87625 -22.625 44.8125 C-15.85876048 44.31891414 -10.49339345 43.09507511 -5 39 C-1.93263749 35.03047204 -1.3995621 31.09391798 -1.58984375 26.1796875 C-2.30522946 22.37792343 -4.1742889 20.52510353 -7 18 C-12.96034983 14.56133664 -18.57941276 13.992481 -25.2109375 15.50390625 C-29.83813948 17.009037 -32.28929004 18.82967698 -35 23 C-35.66 23.99 -36.32 24.98 -37 26 C-48.52164009 24.07289294 -48.52164009 24.07289294 -54 22 C-53.62163154 14.62181495 -49.06711158 8.66274529 -43.8125 3.75 C-31.31149817 -5.9369235 -14.10052649 -7.63087316 0 0 Z " fill="#2089E5" transform="translate(238,200)"/>
<path d="M0 0 C28.05 0 56.1 0 85 0 C78.24974275 7.87530013 78.24974275 7.87530013 75.32402039 10.80296326 C74.99246696 11.13592659 74.99246696 11.13592659 73.31460571 12.82092285 C72.60839081 13.52511353 71.9021759 14.2293042 71.17456055 14.95483398 C70.41451218 15.71663467 69.65446381 16.47843536 68.87138367 17.26332092 C66.37899114 19.76008618 63.88299309 22.25320999 61.38671875 24.74609375 C59.64876426 26.48472217 57.91095821 28.223499 56.17329407 29.9624176 C52.54285225 33.59432982 48.91061719 37.22443647 45.27709961 40.85327148 C40.60829475 45.51635389 35.9440275 50.18394531 31.28106976 54.8528738 C27.69968173 58.43786347 24.11593014 62.02048272 20.53144264 65.60237312 C18.80942078 67.32372593 17.08814687 69.0458273 15.36762047 70.76867485 C12.97363891 73.16517916 10.57650457 75.5584832 8.1784668 77.95092773 C7.82029877 78.31010788 7.82029877 78.31010788 6.00775146 80.1277771 C5.35874374 80.773965 4.70973602 81.42015289 4.0410614 82.08592224 C3.47457728 82.65202933 2.90809317 83.21813643 2.32444286 83.80139828 C1 85 1 85 0 85 C0 56.95 0 28.9 0 0 Z " fill="#E43935" transform="translate(363,363)"/>
<path d="M0 0 C0 38.28 0 76.56 0 116 C-5.94 116 -11.88 116 -18 116 C-18.33 86.96 -18.66 57.92 -19 28 C-23.95 31.63 -28.9 35.26 -34 39 C-38.0744433 37.64185223 -39.42021951 34.8691574 -41.6875 31.4375 C-41.89536133 31.12973633 -41.89536133 31.12973633 -42.94726562 29.57226562 C-43.97193162 28.05293329 -44.98690678 26.52707343 -46 25 C-40.87773394 19.75510142 -35.35228722 15.07459523 -29.69335938 10.42529297 C-28.10161396 9.08552801 -26.5733744 7.69825559 -25.046875 6.28515625 C-15.92116036 -1.60634289 -13.8206454 0 0 0 Z " fill="#1E88E5" transform="translate(320,199)"/>
</svg>
