<?xml version="1.0" encoding="UTF-8"?>
<!-- Generator: visioncortex VTracer 0.6.12 -->
<svg version="1.1" xmlns="http://www.w3.org/2000/svg" width="512" height="512">
<path d="M0 0 C0.49348598 0.03916326 0.49348598 0.03916326 2.9908241 0.23735309 C32.1929357 2.60153286 32.1929357 2.60153286 41.52148438 13.38989258 C48.4978021 22.87422535 48.79136209 30.9858328 48.88867188 42.48754883 C48.90740557 43.89003104 48.92698058 45.29250224 48.94735718 46.69496155 C48.99845228 50.36582924 49.03819815 54.03673338 49.07550049 57.70776367 C49.11568293 61.4619227 49.16670993 65.21593307 49.21679688 68.9699707 C49.31328786 76.32077978 49.39777737 83.67166143 49.47460938 91.02270508 C51.23018586 89.58956219 52.98530594 88.15586021 54.74023438 86.72192383 C55.71766602 85.92359131 56.69509766 85.12525879 57.70214844 84.30273438 C61.00149017 81.5894064 64.24727719 78.82083183 67.47460938 76.02270508 C71.57591274 72.48547782 75.70267624 68.99403281 79.91210938 65.58520508 C84.34700255 61.98634479 88.67028723 58.27538443 92.97460938 54.52270508 C98.11997481 50.0367707 103.32715236 45.65262143 108.63476562 41.35864258 C112.7464706 37.97652487 116.77251903 34.4964031 120.79321289 31.00683594 C125.88363948 26.60722704 128.57359962 24.60591216 135.25195312 24.76879883 C138.31339045 25.11852365 140.13357956 26.03637675 142.47460938 28.02270508 C144.43446226 31.16190951 144.72562519 33.57938533 144.72908497 37.2486105 C144.73491716 38.31244345 144.74074936 39.37627641 144.74675828 40.47234672 C144.74297896 41.64013304 144.73919963 42.80791936 144.73530579 44.01109314 C144.73913133 45.25238293 144.74295688 46.49367272 144.74689835 47.77257735 C144.75544371 51.22003822 144.75499013 54.66728629 144.75071776 58.11474121 C144.74825515 61.8319225 144.75725889 65.54907852 144.76475525 69.26625061 C144.77751713 76.54926215 144.7792941 83.83223684 144.77695499 91.11525767 C144.77517337 97.03379314 144.7769181 102.9523174 144.78117943 108.87085152 C144.78177462 109.71257576 144.78236981 110.5543 144.78298303 111.42153104 C144.78419476 113.13138425 144.78540889 114.84123746 144.78662541 116.55109067 C144.79750663 132.59299332 144.79533567 148.63487496 144.78924056 164.6767788 C144.78407057 179.35865474 144.79532798 194.04046435 144.81433878 208.72232717 C144.83370141 223.79119959 144.84197597 238.86004062 144.83821553 253.92892557 C144.83630113 262.39155768 144.83881428 270.85413332 144.85293007 279.31675529 C144.86482477 286.52082271 144.86627028 293.72479889 144.8541399 300.92886751 C144.84823779 304.60543283 144.84718833 308.28183113 144.8591423 311.95838547 C144.87194254 315.94145154 144.86156831 319.92426259 144.84883118 323.90733337 C144.85620546 325.07288897 144.86357975 326.23844457 144.87117749 327.43932003 C144.86397095 328.50576073 144.85676441 329.57220143 144.84933949 330.67095852 C144.8493945 331.59037147 144.84944952 332.50978442 144.8495062 333.45705837 C144.39339507 336.57850389 143.2938308 338.46749648 141.47460938 341.02270508 C138.16940145 343.17075771 135.07003957 343.8654106 131.15820312 343.78833008 C125.51426458 342.17812345 121.28262227 337.39764193 117.06494141 333.47583008 C114.80342522 331.40942781 112.42731279 329.50018395 110.03710938 327.58520508 C104.61603982 323.17124278 99.31618963 318.62487702 94.01757812 314.06567383 C89.06902222 309.80918583 84.07982398 305.60103502 79.09228516 301.39038086 C77.44551959 299.9981109 75.8015087 298.60265035 74.15820312 297.20629883 C57.01770664 282.64948012 57.01770664 282.64948012 49.47460938 277.02270508 C49.46874313 277.79198837 49.46287689 278.56127167 49.45683289 279.35386658 C49.39871145 286.63576779 49.32652515 293.91733441 49.23889446 301.19893551 C49.19433879 304.94168341 49.15505112 308.68432618 49.12817383 312.42724609 C49.10199171 316.04549932 49.06148694 319.66334468 49.01142311 323.28134346 C48.99485437 324.65544081 48.9832783 326.02960855 48.97699547 327.40379143 C48.91510237 339.70681926 47.43951474 349.09137614 38.47460938 358.02270508 C28.84814675 365.36013913 19.64060402 366.32142353 7.88699341 366.28340149 C7.25823647 366.28531426 7.25823647 366.28531426 4.07634532 366.29499406 C0.60200986 366.30524726 -2.87222211 366.30309911 -6.34656596 366.29881346 C-10.09990082 366.29634136 -13.85321108 366.30536641 -17.60653687 366.31285095 C-24.95351031 366.32558653 -32.30044719 366.32739307 -39.64742981 366.32505069 C-45.62065116 366.32326609 -51.59386143 366.32502021 -57.56708145 366.32927513 C-58.41792156 366.32987032 -59.26876168 366.33046551 -60.14538483 366.33107873 C-61.87399124 366.33229051 -63.60259766 366.33350465 -65.33120407 366.33472111 C-81.53446568 366.34559226 -97.73770647 366.34343617 -113.94096924 366.33733626 C-128.75500989 366.3321675 -143.56898476 366.34342224 -158.3830124 366.36243448 C-173.60458721 366.38181959 -188.82613093 366.3900677 -204.04771817 366.38631123 C-212.58925677 366.38440021 -221.1307394 366.38687714 -229.67226791 366.40102577 C-236.94380104 366.4129491 -244.21524374 366.41433379 -251.48677813 366.4022356 C-255.19436922 366.39635359 -258.90179499 366.3952286 -262.609375 366.40723801 C-266.63431632 366.42012353 -270.65886547 366.40961633 -274.68380737 366.39692688 C-275.84763408 366.40430116 -277.01146078 366.41167545 -278.21055496 366.4192732 C-289.49110626 366.34454522 -298.38151461 364.1198667 -306.52539062 356.02270508 C-312.29425054 348.80854193 -314.74400711 342.35633431 -315.47918701 333.25117493 C-315.55587649 332.36625022 -315.63256598 331.48132551 -315.71157938 330.56958491 C-315.96372474 327.59943798 -316.20094 324.62839689 -316.43457031 321.65673828 C-316.51769639 320.61366555 -316.60082247 319.57059283 -316.68646753 318.49591184 C-333.32625811 107.20856356 -333.32625811 107.20856356 -286.74297976 51.89480114 C-283.26095566 47.90837315 -279.59580704 44.12333357 -275.83789062 40.39770508 C-275.31057405 39.87077718 -274.78325748 39.34384928 -274.23996162 38.80095387 C-207.65661424 -27.11153563 -84.55712987 -6.89065133 0 0 Z " fill="#4BAE4F" transform="translate(346.525390625,71.977294921875)"/>
<path d="M0 0 C1.31616129 0.03924292 2.63232259 0.07848584 3.98836756 0.11891794 C32.1298762 0.96935986 60.23249617 2.35486656 88.30517578 4.51000977 C89.29690642 4.58366009 90.28863707 4.65731041 91.31042016 4.73319256 C120.53162346 6.94496912 120.53162346 6.94496912 129.921875 17.8046875 C134.89586798 24.56685151 137.06814161 30.68792742 137.26074219 39.14794922 C137.29286804 40.43974091 137.3249939 41.73153259 137.35809326 43.06246948 C137.38106791 44.45568161 137.40228506 45.84892367 137.421875 47.2421875 C137.43252235 47.95268375 137.44316971 48.66318001 137.45413971 49.39520645 C137.50734862 53.153238 137.54618417 56.9111423 137.57519531 60.66943359 C137.60189417 63.76243159 137.6576438 66.85279578 137.73925781 69.94482422 C137.83834776 73.70098237 137.88748119 77.45475319 137.90164948 81.21216202 C137.91499407 82.63402636 137.94523192 84.05584559 137.99343109 85.47695541 C138.34698732 96.52756444 138.34698732 96.52756444 134.67938232 101.28636169 C132.17876974 103.55661587 129.65370841 105.52353928 126.875 107.4375 C125.92109375 108.23800781 124.9671875 109.03851563 123.984375 109.86328125 C123.20578125 110.48589844 122.4271875 111.10851562 121.625 111.75 C117.3104932 115.24182542 113.07786508 118.81322004 108.875 122.4375 C104.77273502 125.97364909 100.64697907 129.46613508 96.4375 132.875 C91.33192535 137.01810991 86.37699947 141.3198045 81.42211914 145.64038086 C76.93749149 149.54171641 72.3701833 153.32235162 67.75 157.0625 C63.57917165 160.5079669 59.51420066 164.07186475 55.43725586 167.62744141 C50.87639113 171.59538789 46.24867584 175.45604331 41.53515625 179.2421875 C40.65730469 179.96664062 39.77945312 180.69109375 38.875 181.4375 C38.22337387 181.81529099 37.57174774 182.19308197 36.90037537 182.58232117 C32.94957535 185.22518227 31.1281406 187.2361692 30.13148499 191.96600342 C29.74671964 196.48234483 29.816694 200.99917151 29.875 205.52734375 C29.86687773 207.00950487 29.85517287 208.49165078 29.83984375 209.97375488 C29.8082336 215.44075776 29.8457261 220.90798411 29.875 226.375 C29.875 238.605625 29.875 250.83625 29.875 263.4375 C-19.295 263.4375 -68.465 263.4375 -119.125 263.4375 C-119.125 213.9375 -119.125 164.4375 -119.125 113.4375 C-154.435 113.4375 -189.745 113.4375 -226.125 113.4375 C-224.145 111.1275 -222.165 108.8175 -220.125 106.4375 C-219.08656326 104.92203736 -218.08669714 103.37855006 -217.14805603 101.79933167 C-207.27027709 85.57564347 -196.25066657 70.5440666 -184.0625 56 C-183.57095586 55.41061441 -183.07941172 54.82122882 -182.5729723 54.21398306 C-133.74081075 -4.01089119 -71.42988326 -2.21688206 0 0 Z " fill="#FABF2C" transform="translate(258.125,67.5625)"/>
<path d="M0 0 C35.31 0 70.62 0 107 0 C107 84.81 107 169.62 107 257 C18.05769231 257 18.05769231 257 8 247 C1.90722589 239.3807707 -0.30354471 233.20514936 -0.24050903 223.55314636 C-0.24221788 222.59740654 -0.24392673 221.64166671 -0.24568737 220.65696508 C-0.24898324 217.45246765 -0.23797683 214.24817933 -0.22705078 211.04370117 C-0.22648669 208.7474264 -0.22680319 206.45115127 -0.22793579 204.15487671 C-0.22851038 197.91773689 -0.2167388 191.68067375 -0.20278788 185.44355178 C-0.19029827 178.92658993 -0.18911141 172.40962639 -0.18673706 165.89265442 C-0.18122409 154.95324331 -0.16872564 144.01386057 -0.15087891 133.07446289 C-0.13251696 121.80753722 -0.11838493 110.54061923 -0.10986328 99.27368164 C-0.10932729 98.57194342 -0.10879129 97.87020521 -0.10823905 97.14720219 C-0.10361327 91.04295568 -0.09930772 84.93870894 -0.09503365 78.83446217 C-0.07621905 52.55628161 -0.03637677 26.2781757 0 0 Z " fill="#1F88E4" transform="translate(32,181)"/>
<path d="M0 0 C2.92812665 1.24601134 4.43220142 2.0905257 6.11300153 4.78275591 C7.16468357 7.41166212 7.25180704 9.3957974 7.25447559 12.22590542 C7.26030779 13.28973837 7.26613998 14.35357133 7.27214891 15.44964164 C7.26836958 16.61742796 7.26459026 17.78521428 7.26069641 18.98838806 C7.26260918 19.60903296 7.26260918 19.60903296 7.27228898 22.74987227 C7.28083434 26.19733315 7.28038075 29.64458122 7.27610838 33.09203613 C7.27364577 36.80921742 7.28264952 40.52637344 7.29014587 44.24354553 C7.30290775 51.52655707 7.30468472 58.80953176 7.30234561 66.09255259 C7.30056399 72.01108806 7.30230873 77.92961232 7.30657005 83.84814644 C7.30716524 84.68987068 7.30776043 85.53159492 7.30837366 86.39882596 C7.30958538 88.10867917 7.31079952 89.81853238 7.31201603 91.52838559 C7.32289725 107.57028824 7.32072629 123.61216988 7.31463119 139.65407372 C7.30946119 154.33594966 7.3207186 169.01775927 7.33972941 183.69962209 C7.35909203 198.76849452 7.3673666 213.83733554 7.36360615 228.9062205 C7.36169175 237.3688526 7.36420491 245.83142824 7.37832069 254.29405022 C7.3902154 261.49811763 7.39166091 268.70209381 7.37953053 275.90616243 C7.37362842 279.58272775 7.37257896 283.25912605 7.38453293 286.93568039 C7.39733316 290.91874647 7.38695893 294.90155751 7.3742218 298.8846283 C7.38159609 300.05018389 7.38897037 301.21573949 7.39656812 302.41661495 C7.39296485 302.9498353 7.39296485 302.9498353 7.37473011 305.64825344 C7.37475762 306.10795992 7.37475762 306.10795992 7.37489682 308.43435329 C6.9187857 311.55579881 5.81922142 313.44479141 4 316 C0.69479208 318.14805263 -2.40456981 318.84270552 -6.31640625 318.765625 C-11.9603448 317.15541837 -16.1919871 312.37493685 -20.40966797 308.453125 C-22.67118416 306.38672273 -25.04729659 304.47747887 -27.4375 302.5625 C-32.85856956 298.1485377 -38.15841974 293.60217195 -43.45703125 289.04296875 C-48.40558716 284.78648075 -53.3947854 280.57832994 -58.38232422 276.36767578 C-60.02908979 274.97540583 -61.67310067 273.57994527 -63.31640625 272.18359375 C-64.41915273 271.24725672 -65.5220165 270.31105781 -66.625 269.375 C-67.16068604 268.92036377 -67.69637207 268.46572754 -68.24829102 267.99731445 C-72.63228218 264.28757806 -77.08192572 260.66296809 -81.5625 257.0703125 C-82.366875 256.38710938 -83.17125 255.70390625 -84 255 C-84.86106794 254.28646425 -85.72213589 253.5729285 -86.6092968 252.83777046 C-89.5324547 249.36797499 -89.7246094 246.86848831 -89.68875122 242.52536011 C-89.7021957 241.78155913 -89.71564018 241.03775814 -89.72949207 240.27141774 C-89.7681144 237.78331631 -89.77109371 235.29648605 -89.77392578 232.80810547 C-89.79380236 231.02226011 -89.81568286 229.23643609 -89.8394165 227.45063782 C-89.89640884 222.60114642 -89.92046958 217.75203952 -89.93508005 212.90225363 C-89.94530415 209.86966508 -89.96189131 206.83717767 -89.98058701 203.80463028 C-90.04482518 193.2167184 -90.07989023 182.62911026 -90.09130859 172.04101562 C-90.10280467 162.18534207 -90.1818693 152.33174691 -90.29177868 142.47672546 C-90.38293096 134.00596725 -90.42377347 125.53589736 -90.42650211 117.06465256 C-90.42913116 112.00923043 -90.45233781 106.95596939 -90.52731705 101.9010582 C-90.59639308 97.14089555 -90.60261861 92.38463128 -90.56186676 87.62418175 C-90.55748257 85.88391957 -90.57504773 84.14343223 -90.61696243 82.40366936 C-90.92891507 68.61465585 -90.92891507 68.61465585 -86.13277817 63.55850601 C-82.97195736 60.69118123 -79.55622369 58.3500008 -76 56 C-74.73837356 54.96864447 -73.49088919 53.91908426 -72.2734375 52.8359375 C-67.42569521 48.71992989 -62.56538077 44.62992406 -57.625 40.625 C-52.50266476 36.45843577 -47.52582622 32.13798719 -42.54956055 27.79956055 C-38.05103291 23.88657915 -33.47532827 20.08614904 -28.83984375 16.3359375 C-24.72813878 12.95381979 -20.70209034 9.47369802 -16.68139648 5.98413086 C-10.83390553 0.93019819 -7.65968614 -0.87500808 0 0 Z " fill="#4BAF4F" transform="translate(484,97)"/>
<path d="M0 0 C49.17 0 98.34 0 149 0 C149 49.5 149 99 149 150 C99.83 150 50.66 150 0 150 C0 100.5 0 51 0 0 Z " fill="#FEFEFE" transform="translate(139,181)"/>
<path d="M0 0 C35.31 0 70.62 0 107 0 C107 35.31 107 70.62 107 107 C94.00625 107.061875 81.0125 107.12375 67.625 107.1875 C65.58223877 107.20115601 65.58223877 107.20115601 55.24462891 107.27026367 C50.21166992 107.28381348 50.21166992 107.28381348 47.84701538 107.28633118 C46.21409647 107.29090356 44.58118696 107.30138265 42.94833374 107.31672668 C30.58440798 107.42698814 19.92301291 107.2850214 10.04296875 99.03125 C3.88317386 92.90678854 -0.21446771 85.90032652 -0.2488575 77.11500072 C-0.24166128 76.35541718 -0.23446507 75.59583364 -0.22705078 74.81323242 C-0.22729185 73.98991834 -0.22753292 73.16660425 -0.2277813 72.31834126 C-0.22629331 69.66393895 -0.21108427 67.00982055 -0.1953125 64.35546875 C-0.19237047 62.71244441 -0.19033101 61.06941819 -0.18920898 59.4263916 C-0.17874023 53.34673241 -0.15081771 47.26711339 -0.125 41.1875 C-0.08375 27.595625 -0.0425 14.00375 0 0 Z " fill="#1565BF" transform="translate(32,331)"/>
<path d="M0 0 C0 59.4 0 118.8 0 180 C-5.11087486 176.16684385 -10.02018996 172.37117491 -14.8125 168.1875 C-18.97457794 164.58502918 -23.15729091 161.0249975 -27.4375 157.5625 C-32.54307465 153.41939009 -37.49800053 149.1176955 -42.45288086 144.79711914 C-46.08737851 141.63534162 -49.75520843 138.53149794 -53.5 135.5 C-57.91668944 131.92458474 -62.21780385 128.23400652 -66.5 124.5 C-71.65083753 120.00921223 -76.86550048 115.62251306 -82.17578125 111.3203125 C-87.28451931 107.12309202 -92.2795692 102.79209625 -97.28710938 98.47509766 C-100.18676532 95.97798802 -103.09351658 93.48915627 -106 91 C-104.68904505 88.04688061 -103.3658972 86.17235391 -100.91015625 84.08203125 C-100.29648193 83.55472412 -99.68280762 83.02741699 -99.05053711 82.48413086 C-98.39448486 81.93249268 -97.73843262 81.38085449 -97.0625 80.8125 C-96.38517822 80.23443604 -95.70785645 79.65637207 -95.01000977 79.06079102 C-90.32572668 75.07663017 -85.57839885 71.17242099 -80.80078125 67.30078125 C-76.92833207 64.11964796 -73.13271217 60.85246445 -69.33398438 57.58398438 C-63.7858128 52.81025769 -58.20125646 48.08068993 -52.60888672 43.35888672 C-49.90427711 41.07453814 -47.20227873 38.78710492 -44.5 36.5 C-43.41667901 35.58331874 -42.33334568 34.66665207 -41.25 33.75 C-40.71375 33.29625 -40.1775 32.8425 -39.625 32.375 C-38 31 -36.375 29.625 -34.75 28.25 C-34.48179443 28.02304443 -34.48179443 28.02304443 -33.12451172 26.87451172 C-32.04290479 25.95935587 -30.96119931 25.0443165 -29.87939453 24.12939453 C-27.14382061 21.81556522 -24.41007526 19.49963529 -21.6796875 17.1796875 C-1.44867793 0 -1.44867793 0 0 0 Z " fill="#2E7D32" transform="translate(395,166)"/>
<path d="M0 0 C0 34.98 0 69.96 0 106 C-35.31 106 -70.62 106 -107 106 C-100.24947944 98.12439268 -100.24947944 98.12439268 -96.5335083 94.39979553 C-95.69514938 93.55717163 -94.85679047 92.71454773 -93.99302673 91.84638977 C-93.09201736 90.94583359 -92.191008 90.0452774 -91.26269531 89.11743164 C-90.28950048 88.14123923 -89.3165091 87.16484396 -88.34370422 86.18826294 C-85.72039206 83.5561767 -83.0939015 80.92728516 -80.46651936 78.29926229 C-78.82465075 76.65668049 -77.18349718 75.01338774 -75.54259491 73.36984062 C-69.81753743 67.63555821 -64.08992963 61.90383769 -58.35986328 56.17456055 C-53.01676137 50.83206169 -47.67928782 45.48398457 -42.34436536 40.13331896 C-37.75927226 35.53517745 -33.17035974 30.94087183 -28.57841754 26.34957021 C-25.83743363 23.60884168 -23.09803703 20.86657062 -20.3624649 18.12043953 C-17.79610012 15.54443688 -15.22503655 12.97322111 -12.65019798 10.40568924 C-11.25173287 9.0087774 -9.85823459 7.60689881 -8.46485901 6.20491028 C-8.0513192 5.79346771 -8.0513192 5.79346771 -5.95855713 3.71131897 C-5.59834536 3.35083481 -5.59834536 3.35083481 -3.77545547 1.52656651 C-2 0 -2 0 0 0 Z " fill="#E53934" transform="translate(139,75)"/>
</svg>
