<?xml version="1.0" encoding="UTF-8"?>
<!-- Generator: visioncortex VTracer 0.6.12 -->
<svg version="1.1" xmlns="http://www.w3.org/2000/svg" width="512" height="512">
<path d="M0 0 C2.0523279 1.70025491 4.12019952 3.38036197 6.1875 5.0625 C7.79166667 6.375 9.39583333 7.6875 11 9 C9.38376737 13.05602714 6.49847324 15.76955528 3.44873047 18.77832031 C3.1657309 19.06146591 3.1657309 19.06146591 1.73358154 20.49435425 C-0.1338472 22.36039238 -2.00825462 24.21925096 -3.8828125 26.078125 C-5.18076411 27.37234554 -6.47827416 28.66700905 -7.77536011 29.96209717 C-11.18714836 33.36625646 -14.60490052 36.76436634 -18.02392578 40.16125488 C-21.5130592 43.62991407 -24.99652387 47.10425583 -28.48046875 50.578125 C-35.31477368 57.39099302 -42.15539203 64.1974842 -49 71 C-52.12441188 69.50461966 -54.8272106 67.73648227 -57.6159668 65.67504883 C-86.1526906 44.58440979 -119.17679216 35.72954512 -154.38769531 40.58154297 C-178.80740181 44.49326044 -203.837863 55.23899942 -221.17578125 73.26171875 C-223 75 -223 75 -225 75 C-225.24621094 75.56976563 -225.49242187 76.13953125 -225.74609375 76.7265625 C-227.20685319 79.37504223 -228.95944549 81.20147276 -231.0625 83.375 C-254.86284208 109.46383651 -262.44622141 143.006707 -261.21142578 177.45263672 C-259.25446364 210.28711698 -241.79211 240.3263425 -217.99853516 262.25146484 C-193.97700075 283.2681066 -160.67424552 294.42317536 -128.921875 292.78515625 C-93.29028816 290.32552546 -61.73539267 274.75802888 -38 248 C-28.60806518 236.81179349 -21.40897079 223.52242697 -16 210 C-55.27 209.67 -94.54 209.34 -135 209 C-135 180.62 -135 152.24 -135 123 C-87.57676307 122.95969697 -87.57676307 122.95969697 -67.62890625 122.95117188 C-53.8823204 122.94524966 -40.13574071 122.93830621 -26.38916016 122.92456055 C-16.37541349 122.91455229 -6.36167183 122.90813203 3.6520797 122.90591151 C8.94780672 122.90461478 14.2435194 122.90159528 19.53924179 122.89426994 C24.53782799 122.88741254 29.53639413 122.88540253 34.53498459 122.88689232 C36.35606496 122.88662031 38.17714609 122.88467346 39.99822235 122.88079453 C51.70157365 122.85711812 63.32154027 123.2273478 75 124 C75.23016075 125.31788079 75.46017374 126.63578739 75.69012451 127.95370483 C75.81822887 128.68761129 75.94633324 129.42151775 76.07831955 130.1776638 C85.33198475 183.56783392 74.36259926 241.62196006 42.98828125 286.3125 C42.33214844 287.199375 41.67601562 288.08625 41 289 C40.61634277 289.52207031 40.23268555 290.04414063 39.83740234 290.58203125 C34.88332683 297.28957067 29.68504598 303.6640833 24.0078125 309.78125 C22.60100598 311.33585332 21.25318021 312.94492657 19.953125 314.58984375 C18.26727089 316.67018772 16.65713178 318.33840629 14.625 320.0625 C13.93019531 320.65417969 13.23539062 321.24585938 12.51953125 321.85546875 C11.68808594 322.56316406 10.85664063 323.27085937 10 324 C8.94023008 324.9322584 7.88172557 325.86595649 6.82421875 326.80078125 C-0.77082505 333.47667962 -8.49132598 339.50502398 -17 345 C-18.10214844 345.71542969 -19.20429688 346.43085938 -20.33984375 347.16796875 C-68.54224525 377.6465097 -127.03471 387.22426677 -182.60058594 375.05053711 C-238.65573616 361.91451237 -286.6211961 327.45353376 -317.34399414 278.8449707 C-347.39934406 229.85320697 -356.40260918 171.10921547 -343.3125 115.25 C-329.54879376 59.95363083 -294.62291565 12.35322753 -246.0625 -17.4375 C-170.44334458 -62.38426783 -67.70117777 -58.7515664 0 0 Z " fill="#4DAF4F" transform="translate(391,90)"/>
<path d="M0 0 C2.0523279 1.70025491 4.12019952 3.38036197 6.1875 5.0625 C7.79166667 6.375 9.39583333 7.6875 11 9 C9.38376737 13.05602714 6.49847324 15.76955528 3.44873047 18.77832031 C3.1657309 19.06146591 3.1657309 19.06146591 1.73358154 20.49435425 C-0.1338472 22.36039238 -2.00825462 24.21925096 -3.8828125 26.078125 C-5.18076411 27.37234554 -6.47827416 28.66700905 -7.77536011 29.96209717 C-11.18714836 33.36625646 -14.60490052 36.76436634 -18.02392578 40.16125488 C-21.5130592 43.62991407 -24.99652387 47.10425583 -28.48046875 50.578125 C-35.31477368 57.39099302 -42.15539203 64.1974842 -49 71 C-52.12441188 69.50461966 -54.8272106 67.73648227 -57.6159668 65.67504883 C-86.1526906 44.58440979 -119.17679216 35.72954512 -154.38769531 40.58154297 C-178.80740181 44.49326044 -203.837863 55.23899942 -221.17578125 73.26171875 C-223 75 -223 75 -225 75 C-225.24621094 75.56976563 -225.49242187 76.13953125 -225.74609375 76.7265625 C-227.20685319 79.37504223 -228.95944549 81.20147276 -231.0625 83.375 C-254.84832817 109.44792703 -262.44672384 142.98921678 -261.22900391 177.41748047 C-260.71411038 185.47243527 -259.04939555 193.21377928 -257 201 C-256.62072972 202.51260405 -256.24306427 204.02561161 -255.8671875 205.5390625 C-255.58101563 206.68117188 -255.29484375 207.82328125 -255 209 C-262.12070069 215.09575134 -269.40286118 220.87359869 -276.92700195 226.46142578 C-281.39884252 229.78646334 -285.8155574 233.1697254 -290.1875 236.625 C-301.6224927 245.65431852 -313.21781949 254.4281785 -325 263 C-348.49278057 234.93917877 -351.3072381 182.21738157 -348.53515625 147.57421875 C-343.18865911 90.93370047 -316.40816952 37.95770767 -272.5625 1.3125 C-197.01096549 -58.4945758 -88.47509679 -66.30577624 0 0 Z " fill="#FF3E00" transform="translate(391,90)"/>
<path d="M0 0 C47.42323693 -0.04030303 47.42323693 -0.04030303 67.37109375 -0.04882812 C81.1176796 -0.05475034 94.86425929 -0.06169379 108.61083984 -0.07543945 C118.62458651 -0.08544771 128.63832817 -0.09186797 138.6520797 -0.09408849 C143.94780672 -0.09538522 149.2435194 -0.09840472 154.53924179 -0.10573006 C159.53782799 -0.11258746 164.53639413 -0.11459747 169.53498459 -0.11310768 C171.35606496 -0.11337969 173.17714609 -0.11532654 174.99822235 -0.11920547 C186.70157365 -0.14288188 198.32154027 0.2273478 210 1 C210.23016075 2.31788079 210.46017374 3.63578739 210.69012451 4.95370483 C210.75417669 5.32065806 210.75417669 5.32065806 211.07831955 7.1776638 C220.33198475 60.56783392 209.36259926 118.62196006 177.98828125 163.3125 C177.66021484 163.7559375 177.66021484 163.7559375 176 166 C175.61634277 166.52207031 175.23268555 167.04414063 174.83740234 167.58203125 C169.88332683 174.28957067 164.68504598 180.6640833 159.0078125 186.78125 C157.60434274 188.332166 156.2561363 189.93408838 154.953125 191.5703125 C153.26536499 193.66988595 151.59947175 195.54884538 149.625 197.375 C149.08101562 197.89835938 148.53703125 198.42171875 147.9765625 198.9609375 C144.96117938 200.54609938 143.2080227 199.97899306 140 199 C137.39453125 197.03125 137.39453125 197.03125 134.8125 194.5 C131.23395502 191.07839803 127.61235984 187.79005134 123.75 184.6875 C119.2463222 181.05238864 114.86015272 177.30438793 110.5 173.5 C105.35837492 169.01693038 100.15381273 164.63681061 94.8515625 160.34375 C89.15261101 155.65968028 83.58513663 150.81870912 78 146 C78.82190575 141.89850289 80.3563931 140.47151975 83.5625 137.75 C84.47128906 136.95464844 85.38007813 136.15929687 86.31640625 135.33984375 C86.75919922 134.95376953 86.75919922 134.95376953 89 133 C102.72117762 120.71505779 112.21469794 103.96325514 119 87 C79.73 86.67 40.46 86.34 0 86 C0 57.62 0 29.24 0 0 Z " fill="#1A76D0" transform="translate(256,213)"/>
<path d="M0 0 C5.3044522 1.64109799 9.32032553 5.0114403 13.6875 8.3125 C15.39914821 9.59063608 17.11140197 10.86796157 18.82421875 12.14453125 C19.68966309 12.79115723 20.55510742 13.4377832 21.44677734 14.10400391 C25.26930202 16.94257023 29.13280862 19.72276269 33 22.5 C40.15211454 27.64699634 47.25667152 32.85587359 54.3449707 38.09033203 C60.21008142 42.4213203 66.09324663 46.72589981 72 51 C71.82871582 51.57331055 71.65743164 52.14662109 71.48095703 52.73730469 C70.68824918 55.40606995 69.90661541 58.07796591 69.125 60.75 C68.85558594 61.65105469 68.58617187 62.55210937 68.30859375 63.48046875 C64.91083935 75.16542899 63.61090199 86.33655211 63.625 98.5 C63.62516113 99.8092041 63.62532227 101.1184082 63.62548828 102.46728516 C63.75265539 113.37286892 65.23153954 123.48185276 68 134 C68.37927028 135.51260405 68.75693573 137.02561161 69.1328125 138.5390625 C69.41898437 139.68117188 69.70515625 140.82328125 70 142 C62.87929931 148.09575134 55.59713882 153.87359869 48.07299805 159.46142578 C43.60115748 162.78646334 39.1844426 166.1697254 34.8125 169.625 C23.3775073 178.65431852 11.78218051 187.4281785 0 196 C-23.49278057 167.93917877 -26.3072381 115.21738157 -23.53515625 80.57421875 C-20.88273364 52.47458882 -13.56987003 24.8498245 0 0 Z " fill="#FEC007" transform="translate(66,157)"/>
<path d="M0 0 C0.66 0.33 1.32 0.66 2 1 C-6.25 9.25 -14.5 17.5 -23 26 C-23.66 25.67 -24.32 25.34 -25 25 C-17.40627919 15.95491958 -9.12638166 7.50391381 0 0 Z " fill="#FF5F01" transform="translate(120,90)"/>
<path d="M0 0 C0.99 0.33 1.98 0.66 3 1 C1.35 2.32 -0.3 3.64 -2 5 C-1.125 1.125 -1.125 1.125 0 0 Z " fill="#3173BD" transform="translate(336,354)"/>
</svg>
