<?xml version="1.0" encoding="UTF-8"?>
<!-- Generator: visioncortex VTracer 0.6.12 -->
<svg version="1.1" xmlns="http://www.w3.org/2000/svg" width="512" height="512">
<path d="M0 0 C0.46283668 0.24061685 0.46283668 0.24061685 2.80507076 1.45828396 C3.80159251 1.95581081 4.79811425 2.45333765 5.82483363 2.96594107 C7.90356146 4.00564242 9.97814654 5.05366597 12.04860246 6.10974389 C14.91660272 7.56984108 17.79593305 9.00298508 20.68343151 10.42405659 C26.40913843 13.24296551 32.11875416 16.09348645 37.82756221 18.94642788 C39.99022851 20.02543827 42.15297095 21.10429606 44.31578243 22.18301541 C50.70860678 25.3722899 57.09981444 28.56479425 63.49077004 31.75781146 C66.51637132 33.26931179 69.54220952 34.78033763 72.56803691 36.29138523 C82.64065713 41.32162305 92.71291222 46.35259031 102.78378665 51.38632256 C103.42309554 51.70586722 104.06240443 52.02541188 104.72108632 52.35463971 C105.36169127 52.67483305 106.00229623 52.99502639 106.66231346 53.32492256 C107.95990877 53.9734985 109.25750471 54.62207319 110.55510128 55.27064663 C111.19871844 55.5923445 111.8423356 55.91404236 112.50545631 56.24548865 C122.98714155 61.48434747 133.47152924 66.71777391 143.95705391 71.94894319 C154.76636724 77.34174616 165.57342706 82.73904229 176.37823653 88.14086354 C182.42794528 91.16526036 188.47859938 94.18773026 194.53175914 97.20521504 C200.20627826 100.03425767 205.87792802 102.86897 211.54740322 105.70810658 C213.62769565 106.74863887 215.70901754 107.78711593 217.79143322 108.82339245 C220.63107952 110.23688365 223.46693611 111.65770759 226.30195796 113.08044583 C227.12771363 113.48929546 227.95346929 113.89814509 228.80424786 114.3193841 C235.24112802 117.56565322 240.67109633 120.50308755 243.10051143 127.6634689 C243.73394342 133.28710901 243.89804308 138.00932918 241.41301143 143.1634689 C236.46980219 148.50747889 230.88866077 151.48826136 224.45520198 154.6934219 C223.47793295 155.18616032 222.50066392 155.67889873 221.49378067 156.18656862 C218.21881175 157.83588842 214.93960936 159.47660379 211.66032588 161.11732632 C209.31107619 162.29807651 206.96206776 163.47930686 204.61328304 164.66098171 C198.23210041 167.86975986 191.84645344 171.06958176 185.45987523 174.26760417 C181.46982955 176.26564041 177.48073449 178.26556922 173.4918288 180.26588017 C162.4404648 185.80743652 151.38809588 191.34697532 140.33163345 196.87835366 C139.97811571 197.05521431 139.97811571 197.05521431 138.18910171 197.9502364 C136.75586835 198.66725692 135.3226346 199.38427665 133.88940046 200.10129561 C133.17797577 200.45721075 132.46655108 200.81312588 131.73356807 201.17982632 C131.02127114 201.53617578 130.30897421 201.89252523 129.57509252 202.25967316 C118.03337111 208.03427877 106.49912264 213.82364357 94.96806393 219.6195071 C83.12005099 225.57443029 71.26606643 231.51731726 59.40595394 237.44810712 C52.75071166 240.77647815 46.09809868 244.1098775 39.45200717 247.45648915 C33.79309756 250.30592599 28.12878343 253.14424439 22.45720933 255.96839526 C19.56578334 257.40858028 16.67807631 258.85546155 13.7953738 260.31304699 C10.66436331 261.89512163 7.52408398 263.4570774 4.38073909 265.01446682 C3.47945051 265.4757393 2.57816194 265.93701177 1.64956158 266.4122622 C-4.8353738 269.58713687 -11.17636981 271.93129598 -18.39411741 269.99383551 C-20.97001777 269.00301872 -23.42285109 267.88059505 -25.89948857 266.6634689 C-26.70346593 266.28612744 -27.50744329 265.90878598 -28.3357836 265.52000993 C-30.91348437 264.29346137 -33.46809233 263.02686986 -36.02113163 261.74981838 C-36.50514624 261.50964943 -36.50514624 261.50964943 -38.95455348 260.29424894 C-42.1727889 258.69607682 -45.38819305 257.09229407 -48.60359013 255.48842007 C-50.9202777 254.33634741 -53.23711513 253.18457606 -55.55409062 252.03308254 C-62.48187954 248.58884046 -69.40587147 245.13700243 -76.3293798 241.68416575 C-79.59587489 240.0553143 -82.86275566 238.42723677 -86.12958348 236.79905277 C-96.99523889 231.38321618 -107.85989604 225.96538458 -118.72166646 220.54176003 C-121.53256048 219.1382226 -124.34345883 217.73469383 -127.15437138 216.33119351 C-127.85292759 215.98239914 -128.5514838 215.63360478 -129.27120838 215.27424089 C-140.60334827 209.61648266 -151.9422424 203.97240119 -163.28400317 198.33395829 C-174.94529242 192.53639234 -186.60051742 186.72678351 -198.24988353 180.90529573 C-204.78414304 177.6403289 -211.32092612 174.38065566 -217.86452305 171.13443714 C-224.01470968 168.08333249 -230.15653635 165.01595831 -236.29303563 161.93741947 C-238.54530415 160.81078904 -240.80031746 159.68962656 -243.05824101 158.57437283 C-246.14170845 157.05031413 -249.21464878 155.50680216 -252.28578007 153.95807034 C-252.73276285 153.74006357 -252.73276285 153.74006357 -254.99476659 152.63681722 C-261.06298544 149.53980985 -265.79746396 145.86751811 -268.89948857 139.6634689 C-270.04681431 127.26858917 -270.04681431 127.26858917 -266.44342059 122.2968905 C-260.90947826 116.44218912 -251.97153116 113.05499418 -244.83358586 109.50689846 C-243.87160706 109.02470185 -242.90962825 108.54250524 -241.91849858 108.04569662 C-238.7246732 106.44598702 -235.52804425 104.85196611 -232.33137333 103.25795132 C-230.02920766 102.10633153 -227.7272153 100.95436521 -225.42538273 99.80207974 C-219.84200514 97.00788197 -214.25651629 94.21793058 -208.67027987 91.42945345 C-202.16237449 88.18071211 -195.65657764 84.92775876 -189.15085279 81.67465363 C-177.54697972 75.87246731 -165.94118431 70.07413675 -154.33430302 64.27797085 C-143.07210519 58.65392697 -131.81132135 53.02706483 -120.55207646 47.39711148 C-119.85744294 47.04977474 -119.16280942 46.702438 -118.4471264 46.3445759 C-117.75368809 45.99783657 -117.06024978 45.65109724 -116.34579819 45.29385066 C-103.51679197 38.87900286 -90.68647279 32.46678508 -77.85553743 26.05579689 C-73.3190143 23.78904393 -68.78288243 21.5215092 -64.24687207 19.25373036 C-58.15017856 16.2057598 -52.0523735 13.16002402 -45.95381558 10.11578518 C-43.71165267 8.99616814 -41.46983089 7.87586764 -39.22836888 6.75484806 C-36.17866836 5.22975369 -33.12775603 3.70711199 -30.07650578 2.18512112 C-29.62904469 1.96100342 -29.62904469 1.96100342 -27.36462039 0.82683206 C-26.54969967 0.42098392 -25.73477894 0.01513578 -24.89516366 -0.40301079 C-24.54302537 -0.57890382 -24.54302537 -0.57890382 -22.76099223 -1.46902919 C-14.8170255 -5.17109354 -7.59724267 -3.74669817 0 0 Z " fill="#000000" transform="translate(268.89948856830597,54.33653110265732)"/>
<path d="M0 0 C4.02113595 1.26335005 7.72626098 2.74337343 11.48669434 4.64328003 C12.5517218 5.17875458 13.61674927 5.71422913 14.71405029 6.26593018 C15.86737854 6.85090271 17.02070679 7.43587524 18.20898438 8.03857422 C19.44802918 8.66329526 20.68727201 9.28762371 21.92669678 9.91159058 C24.58938908 11.2528522 27.25088836 12.59644262 29.9115448 13.94173813 C34.13037571 16.074317 38.35317511 18.1989515 42.57678223 20.322052 C54.58489887 26.35945562 66.58971884 32.40334097 78.5859375 38.46435547 C85.21629452 41.81421835 91.85100991 45.15528082 98.49056482 48.48687756 C101.99645257 50.24654933 105.49997672 52.01059302 108.99809265 53.78567123 C112.29582834 55.45906791 115.59916938 57.12085203 118.90686798 58.77446365 C120.67592641 59.66251126 122.43898154 60.56248775 124.20172119 61.4630127 C140.11032202 69.37812864 153.93927798 72.43359881 171 67 C174.59146494 65.54454053 178.05087673 63.86917686 181.52026367 62.14526367 C182.50439082 61.66533809 183.48851797 61.1854125 184.50246716 60.69094372 C187.6742351 59.13900777 190.83790982 57.5715516 194 56 C195.04459507 55.48257359 196.08919014 54.96514717 197.16543961 54.43204117 C203.82469037 51.13025505 210.47110992 47.80333649 217.11260414 44.4659977 C220.77258422 42.62714537 224.43404562 40.79127449 228.09599304 38.9563446 C238.48654022 33.74915562 248.87451706 28.53685095 259.26098633 23.3215332 C265.04437485 20.41758383 270.82918715 17.51649072 276.61554974 14.6184718 C279.66137511 13.09282885 282.70639776 11.56562817 285.74959755 10.0347538 C289.11683785 8.34159227 292.48646425 6.65327476 295.85668945 4.96606445 C296.86064758 4.45970459 297.86460571 3.95334473 298.89898682 3.43164062 C299.81088272 2.97634476 300.72277863 2.52104889 301.66230774 2.05195618 C302.45651784 1.65327992 303.25072794 1.25460367 304.06900501 0.84384632 C306 0 306 0 308 0 C308.09319935 10.05845046 308.16401607 20.11679605 308.20724869 30.17559242 C308.22801145 34.84768693 308.25611891 39.51948327 308.30175781 44.19140625 C308.34562353 48.71074679 308.36922185 53.22980285 308.37950897 57.74934006 C308.38682803 59.46270595 308.40111752 61.1760585 308.42292023 62.8893013 C308.67457631 83.50806696 303.24088354 98.65324753 289 114 C264.37867662 137.1186135 231.70547035 148.27543328 199 154 C198.07832031 154.16371094 197.15664063 154.32742188 196.20703125 154.49609375 C168.01282467 159.25411188 137.13132316 158.9967525 109 154 C108.04996094 153.83371094 107.09992188 153.66742188 106.12109375 153.49609375 C78.83851258 148.53896258 52.44351563 139.53364431 30 123 C29.72736328 122.80027588 29.72736328 122.80027588 28.34765625 121.78955078 C14.17743814 111.21818697 3.18659558 96.66701183 0 79 C-0.51168425 72.89882054 -0.35079286 66.76073206 -0.29296875 60.64453125 C-0.28736251 58.88905706 -0.28309728 57.13357813 -0.28010559 55.37809753 C-0.26873766 50.79302653 -0.23934134 46.2082478 -0.20599365 41.62329102 C-0.17511762 36.9305415 -0.16156305 32.23774403 -0.14648438 27.54492188 C-0.11446266 18.36315395 -0.06336565 9.18160143 0 0 Z " fill="#000000" transform="translate(102,287)"/>
<path d="M0 0 C-0.00222061 0.86545 -0.00444122 1.7309 -0.00672913 2.62257576 C-0.0580123 23.67974285 -0.06521697 44.73652255 -0.02334595 65.79371834 C-0.00416056 75.97687687 0.0000993 86.15963345 -0.03076172 96.34277344 C-0.05762212 105.21832887 -0.05649448 114.09336365 -0.02174091 122.96889961 C-0.00431576 127.6687616 -0.0009178 132.36769092 -0.03103638 137.0675087 C-0.05894891 141.49209122 -0.04941526 145.91501908 -0.01126289 150.33950996 C-0.00384951 151.96244391 -0.01007232 153.58550683 -0.03101921 155.20832253 C-0.1784382 167.51044109 -0.1784382 167.51044109 2.77651978 171.24554062 C4.78936256 172.75565271 6.76379367 173.86341032 9 175 C11.0234375 177.34375 11.0234375 177.34375 12.375 179.5 C12.83648437 180.2115625 13.29796875 180.923125 13.7734375 181.65625 C16.53342051 186.93010289 17.33735645 191.63046765 17.4375 197.5625 C17.47746094 198.84253906 17.51742187 200.12257813 17.55859375 201.44140625 C16.8927417 211.79237896 10.79586149 221.92480076 6.0625 230.9375 C5.50763916 231.99638428 4.95277832 233.05526855 4.38110352 234.14624023 C0.31867249 241.7758499 -3.99119799 249.22678964 -8.5625 256.5625 C-8.85411011 257.03844604 -8.85411011 257.03844604 -10.32983398 259.44702148 C-10.88227783 260.31141846 -11.43472168 261.17581543 -12.00390625 262.06640625 C-12.24532349 262.44768677 -12.24532349 262.44768677 -13.46704102 264.37719727 C-13.97291748 264.91272217 -14.47879395 265.44824707 -15 266 C-16.32 266 -17.64 266 -19 266 C-20.88609241 263.63307811 -22.43420293 261.38260999 -24 258.8125 C-24.47276367 258.05727051 -24.94552734 257.30204102 -25.43261719 256.52392578 C-54.92104885 208.94603326 -54.92104885 208.94603326 -51.53125 191.6015625 C-49.92515205 185.38749303 -47.0966713 177.46367556 -41.31528378 173.98683739 C-37.88898509 171.77951552 -36.23708572 170.07736804 -35.34572029 166.02681351 C-35.0961217 162.13132383 -35.06773008 158.26583503 -35.11352539 154.36572266 C-35.10563211 152.867301 -35.09466802 151.36889285 -35.08087158 149.87051392 C-35.05218197 145.81276208 -35.06636027 141.75616576 -35.08831334 137.69841433 C-35.10395953 133.45423862 -35.08007594 129.21028852 -35.06040955 124.96615601 C-35.02918357 116.93388089 -35.03343924 108.90203322 -35.05048412 100.86973131 C-35.06816242 91.72336676 -35.0462228 82.57723097 -35.02097714 73.43089986 C-34.96994324 54.62051523 -34.96859067 35.81041855 -35 17 C-31.54332085 15.10113938 -28.08435287 13.2064846 -24.625 11.3125 C-23.65949219 10.78205078 -22.69398438 10.25160156 -21.69921875 9.70507812 C-16.97862477 7.12300826 -12.24407021 4.57006003 -7.4609375 2.10546875 C-7.06672607 1.90191772 -7.06672607 1.90191772 -5.07177734 0.87182617 C-3 0 -3 0 0 0 Z " fill="#000000" transform="translate(495,245)"/>
</svg>
