<?xml version="1.0" encoding="UTF-8"?>
<!-- Generator: visioncortex VTracer 0.6.12 -->
<svg version="1.1" xmlns="http://www.w3.org/2000/svg" width="512" height="512">
<path d="M0 0 C13.53415329 11.07121727 22.94538273 25.13175578 25.31298828 42.73095703 C26.50653151 59.37425429 23.66031449 76.13926992 12.48095703 89.17626953 C10.59464053 91.27241712 8.65114676 93.30033898 6.66845703 95.30517578 C4.31298828 97.73095703 4.31298828 97.73095703 2.31298828 100.73095703 C2.91884766 101.05966797 3.52470703 101.38837891 4.14892578 101.72705078 C11.02736514 105.63188789 16.68283072 110.19088199 22.31298828 115.73095703 C23.08771484 116.49279297 23.86244141 117.25462891 24.66064453 118.03955078 C34.85055996 128.68390498 40.25126116 140.78829758 44.31298828 154.73095703 C44.52052734 154.02712891 44.72806641 153.32330078 44.94189453 152.59814453 C48.90282523 139.90327879 54.35493504 128.63196324 63.31298828 118.73095703 C63.97814453 117.97298828 64.64330078 117.21501953 65.32861328 116.43408203 C71.4670385 109.84095865 78.65419875 105.33930408 86.31298828 100.73095703 C86.13123047 100.51890625 86.13123047 100.51890625 85.21142578 99.44580078 C84.14634997 98.20321233 83.08407458 96.9582205 82.02392578 95.71142578 C80.96654143 94.48746718 79.89155287 93.27818411 78.78955078 92.09423828 C66.80577529 79.00085395 62.53652663 62.08358793 63.17236328 44.74511719 C63.51230514 39.87615822 64.78847875 35.34408327 66.31298828 30.73095703 C66.44640625 30.30621094 66.44640625 30.30621094 67.12158203 28.15673828 C72.6224443 12.58318599 84.97185125 1.19099486 99.31298828 -6.26904297 C115.69471471 -13.01217354 133.30686198 -13.3697696 149.80908203 -6.89794922 C166.04286121 0.51660272 177.49183431 13.29177475 184.31298828 29.73095703 C189.89990466 46.32430792 188.35311152 63.32946743 181.00048828 79.10595703 C176.70071806 87.03489112 170.83408639 93.56663632 164.31298828 99.73095703 C168.68142632 103.28130576 173.20906464 106.5595266 177.78955078 109.82861328 C180.31298828 111.73095703 180.31298828 111.73095703 181.95361328 113.48876953 C182.17791016 113.69373047 182.17791016 113.69373047 183.31298828 114.73095703 C186.42649399 114.54414669 189.30094683 113.98442814 192.32397461 113.22729492 C211.09024622 108.62108682 230.29101623 111.84457531 246.83642578 121.53173828 C263.63640818 131.89896216 274.756638 147.6044762 279.81298828 166.60595703 C284.6356725 187.04950673 280.18417057 207.03412943 269.31298828 224.73095703 C264.72614326 231.39977427 259.66192289 236.70541145 253.06298828 241.39111328 C251.31298828 242.73095703 251.31298828 242.73095703 250.31298828 244.73095703 C250.67392578 244.86630859 250.67392578 244.86630859 252.50048828 245.55126953 C273.27714799 254.26592402 287.48539488 273.73581564 296.31298828 293.73095703 C299.53899338 302.28028097 301.40887719 311.07368773 301.48999023 320.20776367 C301.50282547 321.47250015 301.51566071 322.73723663 301.52888489 324.04029846 C301.53705003 325.40723271 301.54449419 326.77417143 301.55126953 328.14111328 C301.55534506 328.83545408 301.55942059 329.52979488 301.56361961 330.24517632 C301.58439262 333.91434294 301.59873685 337.58347304 301.6081543 341.25268555 C301.61925376 345.0345474 301.65371827 348.81582659 301.693326 352.59748173 C301.71948096 355.51518334 301.72784463 358.43274499 301.73143578 361.35055351 C301.73629775 362.74479587 301.74790086 364.13903213 301.76647377 365.53315926 C301.7908563 367.48314312 301.78748127 369.43341387 301.78295898 371.38354492 C301.78882523 372.49129776 301.79469147 373.5990506 301.80073547 374.7403717 C301.19906939 378.42944216 299.87620353 380.06171392 297.31298828 382.73095703 C282.94493117 392.60899629 263.26330373 395.71646937 246.31298828 397.73095703 C245.56718506 397.82086914 244.82138184 397.91078125 244.05297852 398.00341797 C219.59995809 400.70618633 194.53293194 400.28835369 170.12548828 397.48095703 C169.23676025 397.38395508 168.34803223 397.28695313 167.43237305 397.18701172 C157.54198002 395.92866945 147.94216459 393.24977522 138.31298828 390.73095703 C138.3163192 391.01244095 138.3163192 391.01244095 138.33317566 392.43692017 C138.39967432 398.30945104 138.44484908 404.1818745 138.4777832 410.0546875 C138.49284634 412.24483588 138.51330087 414.43495422 138.53930664 416.625 C138.57579817 419.77758206 138.59273967 422.9297644 138.60595703 426.08251953 C138.62144089 427.05774567 138.63692474 428.0329718 138.65287781 429.03775024 C138.65419072 434.37127163 138.32708105 438.12642583 135.31298828 442.73095703 C109.65619435 466.16380054 55.84003594 461.86966663 23.79003906 460.59033203 C1.27679484 459.36606786 -24.28424272 456.12717056 -43.68701172 443.73095703 C-46.91849976 440.07765971 -47.813725 436.9813035 -47.80053711 432.16772461 C-47.80046158 431.24699661 -47.80038605 430.32626862 -47.80030823 429.37763977 C-47.79514694 428.38692978 -47.78998566 427.39621979 -47.78466797 426.37548828 C-47.78396049 425.86710167 -47.78396049 425.86710167 -47.78038025 423.2943573 C-47.77477879 420.04402739 -47.76222604 416.79376615 -47.74951172 413.54345703 C-47.74449691 411.34098407 -47.73993397 409.13851002 -47.73583984 406.93603516 C-47.72480889 401.53431899 -47.70806934 396.13264291 -47.68701172 390.73095703 C-48.23330231 390.87325745 -48.7795929 391.01555786 -49.34243774 391.16217041 C-69.62922208 396.4183561 -69.62922208 396.4183561 -79.06201172 397.48095703 C-79.55056641 397.53848145 -79.55056641 397.53848145 -82.02294922 397.82958984 C-118.24835859 401.75778267 -174.97443014 405.5708742 -206.62451172 382.48095703 C-208.56122883 380.89753117 -209.56520674 379.97456698 -210.68701172 377.73095703 C-210.79882491 375.78918676 -210.84630611 373.84358792 -210.86401367 371.89868164 C-210.87684891 370.67237534 -210.88968414 369.44606903 -210.90290833 368.18260193 C-210.91108689 366.83283903 -210.91852846 365.4830715 -210.92529297 364.13330078 C-210.92733073 363.79178514 -210.92733073 363.79178514 -210.93764305 362.06350899 C-210.95854081 358.43239774 -210.97281365 354.80132444 -210.98217773 351.17016602 C-210.99095872 348.19566864 -211.01163575 345.22165053 -211.04370117 342.24731445 C-211.44041541 304.61869922 -211.44041541 304.61869922 -202.93701172 287.85595703 C-202.593396 287.155271 -202.24978027 286.45458496 -201.89575195 285.73266602 C-198.78566167 279.57410646 -195.09182982 274.04682859 -190.68701172 268.73095703 C-189.97673828 267.86986328 -189.26646484 267.00876953 -188.53466797 266.12158203 C-180.95249851 257.32679848 -172.07772558 250.00624253 -161.68701172 244.73095703 C-161.02701172 244.73095703 -160.36701172 244.73095703 -159.68701172 244.73095703 C-161.88076457 242.4686494 -164.01811458 240.26462062 -166.48388672 238.29736328 C-180.11445326 227.36564891 -188.55387314 209.84895337 -190.68701172 192.73095703 C-192.43926665 172.16451771 -187.06414332 153.09431174 -174.31201172 136.73095703 C-162.0700208 122.80256941 -144.98579262 113.15765901 -126.37207031 111.52832031 C-117.73736737 111.03304546 -109.91370823 111.5091609 -101.56201172 113.73095703 C-95.44860643 115.13167302 -95.44860643 115.13167302 -92.14794922 113.39501953 C-89.93701172 111.35595703 -89.93701172 111.35595703 -87.89404297 109.08251953 C-84.13829347 105.08081829 -79.36799365 102.53079669 -74.68701172 99.73095703 C-75.17169922 99.35326172 -75.65638672 98.97556641 -76.15576172 98.58642578 C-88.9234135 88.10221942 -96.24439803 73.96494342 -98.68701172 57.73095703 C-100.16966814 42.10882112 -96.26354595 24.81005473 -86.13623047 12.53564453 C-64.63073487 -12.2481739 -27.72031999 -20.85242016 0 0 Z M-63.99951172 19.91845703 C-73.13255211 29.47629 -77.20471491 39.6435809 -77.10913086 52.70825195 C-76.6658723 65.07443913 -71.12987608 73.69844336 -62.37451172 81.98095703 C-52.9057578 90.12216606 -42.7530885 91.46519322 -30.66992188 90.90576172 C-21.23141104 90.07370388 -12.44090368 84.55782541 -5.90576172 77.92236328 C1.23174541 69.16435071 4.92178288 58.31749746 4.12548828 47.08642578 C2.75026139 37.07305497 -1.93384459 26.45036855 -9.68701172 19.73095703 C-27.91373624 6.78200459 -45.47414374 7.68472346 -63.99951172 19.91845703 Z M97.93798828 20.04345703 C94.43316688 23.63172656 91.80386764 27.38591186 89.31298828 31.73095703 C89.10416016 32.09511719 89.10416016 32.09511719 88.04736328 33.93798828 C83.60113611 43.12790148 83.72183957 55.05733716 86.87548828 64.66845703 C92.01479388 76.46916222 99.61413353 84.0731923 111.43798828 89.16845703 C121.14989887 92.34615016 132.3932451 92.09652203 141.78955078 88.04736328 C153.05584927 82.17005277 160.65861835 74.15915344 164.64892578 61.91064453 C167.29259363 49.25214083 165.61491468 38.22982665 158.73876953 27.20751953 C152.28476069 18.15084512 142.66308912 12.54102636 131.84423828 10.19580078 C119.48165945 8.49399009 107.82814363 12.60647338 97.93798828 20.04345703 Z M-74.68701172 126.73095703 C-74.40857422 126.95589844 -74.40857422 126.95589844 -72.99951172 128.09423828 C-59.01607971 139.88094871 -49.08708912 156.88544586 -47.45947266 175.30615234 C-46.27912577 196.17379454 -50.79215834 215.19822013 -64.56201172 231.46923828 C-72.88896612 240.33193423 -72.88896612 240.33193423 -77.68701172 242.73095703 C-77.68701172 243.39095703 -77.68701172 244.05095703 -77.68701172 244.73095703 C-75.93805239 245.84283839 -74.13439952 246.86902157 -72.31201172 247.85595703 C-51.06287697 259.93046536 -36.19425917 279.44804263 -29.49560547 302.93798828 C-27.68256726 311.44262645 -26.69578222 320.09946106 -25.68701172 328.73095703 C-21.71836506 325.3765141 -17.86955961 321.96031439 -14.12451172 318.35595703 C-8.26547659 313.02215226 -1.64787088 309.41198774 5.31298828 305.73095703 C2.8058181 303.17375463 0.24291559 300.7821384 -2.49951172 298.48095703 C-16.27215801 286.33760716 -24.89601899 269.40594172 -26.06201172 250.90673828 C-26.78475913 231.29254351 -21.71960088 213.09535506 -8.76513672 197.96533203 C0.39017384 188.12165226 11.45082038 180.84685076 24.31298828 176.73095703 C25.16675846 160.95201921 20.76420252 145.93801673 10.40112305 133.83691406 C-0.67844214 121.62756926 -14.95838237 113.44233751 -31.60107422 112.51220703 C-46.64123646 112.06086642 -64.09534016 114.91916645 -74.68701172 126.73095703 Z M77.53564453 134.73095703 C68.53216127 146.09413183 63.27433381 161.18979447 64.31298828 175.73095703 C65.34037109 176.15505859 66.36775391 176.57916016 67.42626953 177.01611328 C87.26789652 185.34849203 101.67645363 196.3802259 110.91845703 216.16845703 C112.18891125 219.32782705 113.30161559 222.48011624 114.31298828 225.73095703 C114.55791016 226.50052734 114.80283203 227.27009766 115.05517578 228.06298828 C120.0053042 247.42273711 115.41843548 267.93284149 105.51953125 284.86035156 C100.37885704 292.83037298 93.22462571 299.56232284 85.31298828 304.73095703 C88.24006403 307.0045461 91.26640661 308.94191211 94.43798828 310.85595703 C99.40200449 313.98414882 103.65812158 317.50549667 107.92626953 321.52001953 C110.64134897 324.03513403 113.45488835 326.38013891 116.31298828 328.73095703 C116.37768311 328.14830078 116.44237793 327.56564453 116.5090332 326.96533203 C119.24982902 303.02512756 124.71962062 282.90464542 141.31298828 264.73095703 C141.97169922 264.00263672 142.63041016 263.27431641 143.30908203 262.52392578 C150.50984115 254.94646699 159.10368936 249.55805333 168.31298828 244.73095703 C168.31298828 244.07095703 168.31298828 243.41095703 168.31298828 242.73095703 C166.62548828 241.32080078 166.62548828 241.32080078 164.31298828 239.66845703 C149.65681867 228.47563893 141.5447939 212.68822064 138.31298828 194.73095703 C136.7203049 173.59330261 140.37323967 154.64855755 153.87548828 137.66845703 C157.09619588 133.92934787 160.35530883 130.67384688 164.31298828 127.73095703 C160.50816085 123.51400129 156.71696696 121.01438354 151.62548828 118.54345703 C150.90997803 118.19541016 150.19446777 117.84736328 149.45727539 117.48876953 C124.24165423 105.5863807 95.5512527 114.4584485 77.53564453 134.73095703 Z M-155.36279297 148.11376953 C-164.68011567 158.60554467 -169.66823653 170.72466718 -169.68701172 184.73095703 C-168.67299285 199.66468946 -163.21252204 211.67279196 -152.33544922 221.95361328 C-142.00820405 230.72357545 -129.97086399 235.33912786 -116.38232422 234.97705078 C-101.52281326 233.62031282 -89.88475929 227.53806034 -79.68701172 216.73095703 C-70.82463733 205.6958715 -66.51006472 192.85432096 -67.68701172 178.73095703 C-69.82178665 164.02074325 -76.51771937 151.91769968 -88.28857422 142.69189453 C-109.69111241 128.1973802 -136.56008344 130.12856911 -155.36279297 148.11376953 Z M170.31298828 150.73095703 C161.1436547 162.17286251 157.15897796 175.15012825 158.31298828 189.73095703 C160.45427211 203.76626277 167.49392193 215.64828716 178.57470703 224.54736328 C190.11489161 232.58319862 203.14803958 236.53615933 217.18798828 234.26611328 C231.73824902 231.06429809 243.75563564 223.84319744 252.18798828 211.41845703 C260.05158794 198.12081327 261.72870169 184.6817026 258.31298828 169.73095703 C254.85231409 157.39211345 246.48662938 146.77097188 235.63330078 140.07861328 C213.15945361 127.88789247 187.74077449 131.96496581 170.31298828 150.73095703 Z M8.31298828 209.73095703 C-1.2984164 221.31752092 -6.10218333 233.48585558 -5.68701172 248.73095703 C-4.03314333 262.40098421 1.30227121 274.7199977 11.78564453 283.89501953 C24.43349709 293.6129379 37.53577218 297.10240144 53.31298828 295.73095703 C67.98649769 292.9337194 79.44982197 285.09470543 88.15673828 273.13720703 C95.79632217 261.6112843 97.71327005 247.89107399 95.18798828 234.48095703 C91.82808271 220.93539178 84.79032711 210.46865945 73.29345703 202.52392578 C51.84119685 189.61883086 26.550855 192.5442817 8.31298828 209.73095703 Z M-172.40185547 280.10205078 C-188.67033011 298.81774895 -190.14985802 319.96584749 -189.87451172 343.54345703 C-189.85943713 345.79670329 -189.84575364 348.04995931 -189.83349609 350.30322266 C-189.800712 355.77934985 -189.75073312 361.25510696 -189.68701172 366.73095703 C-182.22483949 369.75960129 -174.99043921 372.45795723 -167.06201172 373.91845703 C-166.32595703 374.06992187 -165.58990234 374.22138672 -164.83154297 374.37744141 C-149.55662237 377.33428353 -134.08385334 378.11396783 -118.56201172 378.04345703 C-118.14086594 378.04254562 -118.14086594 378.04254562 -116.00961304 378.03793335 C-93.47798159 377.95634996 -68.11695114 377.29935761 -47.68701172 366.73095703 C-47.58448334 359.88497915 -47.51507976 353.03920358 -47.46728516 346.19262695 C-47.44733291 343.86996055 -47.42016123 341.5473433 -47.38525391 339.22485352 C-47.02767556 314.79909742 -50.68443665 294.36294331 -68.20898438 276.18115234 C-81.62019931 263.02247763 -99.54347057 256.05193099 -118.18701172 255.48095703 C-139.68458759 255.74900661 -157.67992122 264.82016975 -172.40185547 280.10205078 Z M156.31298828 278.73095703 C139.78539223 298.41824057 137.69210407 317.99241072 138.06298828 342.66845703 C138.08309354 345.00893646 138.10133715 347.34943265 138.11767578 349.68994141 C138.16132911 355.37065154 138.22791861 361.0507239 138.31298828 366.73095703 C144.89605344 369.77553882 151.08595107 371.86902913 158.18798828 373.35595703 C159.08517578 373.55962891 159.98236328 373.76330078 160.90673828 373.97314453 C176.55181043 377.33489557 192.42022105 378.11610401 208.37548828 378.04345703 C209.21583618 378.04163422 210.05618408 378.0398114 210.92199707 378.03793335 C234.60272408 377.95205253 258.36196241 376.30767044 280.31298828 366.73095703 C280.41570037 360.18812717 280.48499416 353.6455104 280.53271484 347.10205078 C280.5526406 344.88322176 280.57979125 342.66444393 280.61474609 340.44580078 C280.86270043 324.28501224 280.44381067 309.13703044 272.75048828 294.48095703 C272.41605713 293.82820801 272.08162598 293.17545898 271.73706055 292.50292969 C267.9938521 285.57820554 262.95951273 280.14718517 257.31298828 274.73095703 C256.70712891 274.12896484 256.10126953 273.52697266 255.47705078 272.90673828 C242.48213774 260.83097762 224.14724389 255.31969666 206.68798828 255.51611328 C187.50482332 256.73726383 169.63570422 264.82047421 156.31298828 278.73095703 Z M-8.31201172 341.35595703 C-18.34331358 352.94965636 -25.84079732 368.21593038 -25.80053711 383.79663086 C-25.80046158 384.77727005 -25.80038605 385.75790924 -25.80030823 386.76826477 C-25.79514694 387.81427353 -25.78998566 388.86028229 -25.78466797 389.93798828 C-25.78325302 391.01851974 -25.78183807 392.09905121 -25.78038025 393.21232605 C-25.77479252 396.65606479 -25.76224221 400.09973801 -25.74951172 403.54345703 C-25.74449514 405.88134672 -25.7399325 408.21923742 -25.73583984 410.55712891 C-25.7248271 416.28176056 -25.70810113 422.00635411 -25.68701172 427.73095703 C-24.42829806 428.37646605 -23.16766474 429.0182326 -21.90625 429.65844727 C-21.20444611 430.01623764 -20.50264221 430.37402802 -19.77957153 430.74266052 C15.84151749 447.56616907 74.19355682 443.04880049 110.46923828 430.87939453 C113.31298828 429.73095703 113.31298828 429.73095703 116.31298828 427.73095703 C116.70066833 425.7311554 116.70066833 425.7311554 116.71704102 423.24389648 C116.72972519 422.31144608 116.74240936 421.37899567 116.75547791 420.41828918 C116.75254227 419.40385239 116.74960663 418.38941559 116.74658203 417.34423828 C116.75182388 416.29503708 116.75706573 415.24583588 116.76246643 414.1648407 C116.76890527 411.93290084 116.76752573 409.70092713 116.7590332 407.46899414 C116.75063405 404.10189456 116.77907772 400.73655575 116.81103516 397.36962891 C116.88963432 373.81385479 111.83247842 354.85859336 95.07470703 337.39892578 C79.37506473 322.31596337 61.0047363 317.24911549 39.77001953 317.52783203 C21.00711811 318.0494655 4.45512988 328.09026831 -8.31201172 341.35595703 Z " fill="#000000" transform="translate(210.68701171875,31.26904296875)"/>
</svg>
