<?xml version="1.0" encoding="UTF-8"?>
<!-- Generator: visioncortex VTracer 0.6.12 -->
<svg version="1.1" xmlns="http://www.w3.org/2000/svg" width="512" height="512">
<path d="M0 0 C0.70095026 -0.00350607 1.40190051 -0.00701215 2.12409168 -0.01062447 C4.49060235 -0.01998415 6.85686938 -0.0150035 9.22339058 -0.01015663 C10.93008568 -0.0138906 12.63677908 -0.0184911 14.34346974 -0.02388728 C19.04730966 -0.03616407 23.75107872 -0.03585133 28.45493102 -0.03349853 C33.52251717 -0.03309154 38.59008023 -0.04411817 43.65765572 -0.05361366 C53.59112242 -0.07025014 63.5245654 -0.0757244 73.45804487 -0.07683842 C81.52954056 -0.07778762 89.60102839 -0.08189148 97.67252159 -0.08823967 C120.53920957 -0.10585912 143.40587876 -0.11507741 166.27257358 -0.11357872 C166.88937675 -0.11353877 166.88937675 -0.11353877 170.01077461 -0.11333656 C171.24588107 -0.1132548 172.48098753 -0.11317304 173.75352146 -0.1130888 C193.77681765 -0.11227565 213.80003866 -0.1314189 233.8233131 -0.1596133 C254.36593303 -0.18831154 274.90851625 -0.20215529 295.45115674 -0.20042574 C306.99119179 -0.19976079 318.53114804 -0.20529895 330.07116508 -0.22678185 C339.89566438 -0.24495342 349.72004913 -0.24937417 359.54455791 -0.235763 C364.55983831 -0.22921302 369.57489872 -0.22918903 374.59015846 -0.2464695 C379.17825094 -0.26211594 383.76594747 -0.2594235 388.35402979 -0.24190123 C390.0168731 -0.23881265 391.67974535 -0.24253308 393.34255455 -0.25362138 C395.59778073 -0.26766822 397.85160367 -0.25721666 400.10678101 -0.24050903 C401.36088992 -0.24094377 402.61499883 -0.24137851 403.90711105 -0.24182642 C407.7770715 0.34845719 409.40885351 1.54948618 412.17923164 4.25726891 C414.15326939 7.22584225 414.43786218 9.58503355 414.46975899 13.1142025 C414.48251869 14.07555107 414.4952784 15.03689964 414.50842476 16.02737999 C414.50953758 16.54355385 414.50953758 16.54355385 414.51516914 19.15570641 C414.52182594 20.22342278 414.52848274 21.29113914 414.53534126 22.39121056 C414.54546216 24.64895468 414.55015846 26.90672868 414.54983711 29.16449547 C414.55420671 32.61259009 414.59052385 36.05940101 414.62845039 39.50726891 C414.6343194 41.70257704 414.63828823 43.89789124 414.64016914 46.09320641 C414.65454018 47.12150566 414.66891121 48.14980492 414.68371773 49.20926476 C414.64555885 55.21007693 414.18103149 58.68598936 410.17923164 63.25726891 C407.03195174 65.48933562 403.836836 65.65504963 400.05423164 66.06976891 C391.31980132 67.32595664 383.87898243 70.29090684 378.17923164 77.25726891 C372.9695015 84.31928218 369.22329099 91.96975146 365.49173164 99.88226891 C364.87389614 101.17880475 364.25539615 102.47502415 363.63626289 103.77094078 C362.39249222 106.37694804 361.15244078 108.98466731 359.91604805 111.59418297 C357.94947644 115.74459118 355.96787463 119.88774413 353.98465157 124.03021812 C353.11021496 125.85693532 352.23668813 127.68408828 351.3640461 129.51166344 C347.65836174 137.27113576 343.92108744 145.0152025 340.17923164 152.75726891 C335.05637005 163.35727116 329.96024262 173.96970647 324.88626289 184.59320641 C320.50044496 193.77476172 316.09160028 202.94527934 311.68655586 212.11762047 C310.20537521 215.20281373 308.72531473 218.28854166 307.24563789 221.37445641 C301.88542259 232.55153097 296.50975869 243.72099674 291.11673164 254.88226891 C286.01505219 265.44076851 280.94012662 276.01173706 275.88626289 286.59320641 C272.51610327 293.64851685 269.13397906 300.6980856 265.74490547 307.74432945 C263.12478483 313.19351653 260.51717403 318.64818586 257.92923164 324.11273766 C257.3954792 325.23567223 256.86172676 326.3586068 256.3118 327.51556969 C255.29566983 329.6540094 254.28321561 331.79420135 253.27517891 333.93646812 C245.66044782 349.92832993 245.66044782 349.92832993 239.17923164 353.25726891 C236.45439339 353.64494896 236.45439339 353.64494896 233.47439766 353.66132164 C232.91367813 353.66766373 232.91367813 353.66766373 230.07609749 353.69975853 C229.47500916 353.69829071 229.47500916 353.69829071 226.43313789 353.69086266 C225.18926811 353.69610451 223.94539833 353.70134636 222.66383553 353.70674706 C219.36327824 353.71480701 216.06313725 353.70770841 212.76260567 353.69641685 C210.74493618 353.69477152 208.72783011 353.70675036 206.7102375 353.72382164 C202.82593658 353.75451159 198.9425407 353.75790361 195.05813789 353.75336266 C193.85798546 353.76459663 192.65783302 353.77583061 191.42131233 353.78740501 C180.56677465 353.69686022 180.56677465 353.69686022 176.17923164 349.25726891 C174.31735449 346.44196061 172.88024109 343.50104238 171.45657539 340.44476891 C171.03444771 339.57246635 170.61232002 338.7001638 170.17740059 337.80142784 C168.80781538 334.96075432 167.46214359 332.10946011 166.11673164 329.25726891 C165.1682373 327.27764446 164.21843977 325.29864389 163.26736641 323.32025719 C157.79158178 311.89930983 152.42057731 300.42882088 147.14187813 288.91547203 C142.32348737 278.44626215 137.25271774 268.10462887 132.17923164 257.75726891 C126.04004263 245.23627663 120.00305025 232.68795988 114.19095039 220.01117516 C108.93268095 208.60272727 103.3864767 197.33793283 97.85644722 186.05945396 C92.70546656 175.54919365 87.61956867 165.02262101 82.74173164 154.38226891 C77.52418499 143.05259042 72.19054486 131.77996346 66.76953316 120.54627037 C65.845964 118.62776525 64.92683588 116.70711484 64.01251411 114.78418541 C54.64048195 95.09396129 54.64048195 95.09396129 47.17923164 87.25726891 C46.32716133 86.35492516 45.47509102 85.45258141 44.59720039 84.52289391 C32.20701961 73.32616311 17.15666135 66.73252042 0.49173164 65.88226891 C-4.8991066 65.52329954 -7.88039741 64.98464682 -11.82076836 61.25726891 C-13.680733 58.23019649 -14.0794005 55.9293259 -14.1112957 52.40033531 C-14.1240554 51.43898674 -14.13681511 50.47763817 -14.14996147 49.48715782 C-14.15218712 48.4548101 -14.15441277 47.42246239 -14.15670586 46.35883141 C-14.16336266 45.29111504 -14.17001945 44.22339867 -14.17687798 43.12332726 C-14.18699888 40.86558313 -14.19169517 38.60780913 -14.19137383 36.35004234 C-14.19574342 32.90194772 -14.23206056 29.45513681 -14.26998711 26.00726891 C-14.27585611 23.81196078 -14.27982494 21.61664658 -14.28170586 19.42133141 C-14.29607689 18.39303215 -14.31044792 17.36473289 -14.32525444 16.30527306 C-14.28710759 10.30635368 -13.86157925 6.80078191 -9.82076836 2.25726891 C-6.14755508 -0.19153995 -4.38230277 0.0049243 0 0 Z " fill="#249448" transform="translate(55.82076835632324,84.74273109436035)"/>
<path d="M0 0 C0.70095026 -0.00350607 1.40190051 -0.00701215 2.12409168 -0.01062447 C4.49060235 -0.01998415 6.85686938 -0.0150035 9.22339058 -0.01015663 C10.93008568 -0.0138906 12.63677908 -0.0184911 14.34346974 -0.02388728 C19.04730966 -0.03616407 23.75107872 -0.03585133 28.45493102 -0.03349853 C33.52251717 -0.03309154 38.59008023 -0.04411817 43.65765572 -0.05361366 C53.59112242 -0.07025014 63.5245654 -0.0757244 73.45804487 -0.07683842 C81.52954056 -0.07778762 89.60102839 -0.08189148 97.67252159 -0.08823967 C120.53920957 -0.10585912 143.40587876 -0.11507741 166.27257358 -0.11357872 C166.88937675 -0.11353877 166.88937675 -0.11353877 170.01077461 -0.11333656 C171.24588107 -0.1132548 172.48098753 -0.11317304 173.75352146 -0.1130888 C193.77681765 -0.11227565 213.80003866 -0.1314189 233.8233131 -0.1596133 C254.36593303 -0.18831154 274.90851625 -0.20215529 295.45115674 -0.20042574 C306.99119179 -0.19976079 318.53114804 -0.20529895 330.07116508 -0.22678185 C339.89566438 -0.24495342 349.72004913 -0.24937417 359.54455791 -0.235763 C364.55983831 -0.22921302 369.57489872 -0.22918903 374.59015846 -0.2464695 C379.17825094 -0.26211594 383.76594747 -0.2594235 388.35402979 -0.24190123 C390.0168731 -0.23881265 391.67974535 -0.24253308 393.34255455 -0.25362138 C395.59778073 -0.26766822 397.85160367 -0.25721666 400.10678101 -0.24050903 C401.36088992 -0.24094377 402.61499883 -0.24137851 403.90711105 -0.24182642 C407.7770715 0.34845719 409.40885351 1.54948618 412.17923164 4.25726891 C414.15326939 7.22584225 414.43786218 9.58503355 414.46975899 13.1142025 C414.48251869 14.07555107 414.4952784 15.03689964 414.50842476 16.02737999 C414.50953758 16.54355385 414.50953758 16.54355385 414.51516914 19.15570641 C414.52182594 20.22342278 414.52848274 21.29113914 414.53534126 22.39121056 C414.54546216 24.64895468 414.55015846 26.90672868 414.54983711 29.16449547 C414.55420671 32.61259009 414.59052385 36.05940101 414.62845039 39.50726891 C414.6343194 41.70257704 414.63828823 43.89789124 414.64016914 46.09320641 C414.65454018 47.12150566 414.66891121 48.14980492 414.68371773 49.20926476 C414.64555885 55.21007693 414.18103149 58.68598936 410.17923164 63.25726891 C407.03195174 65.48933562 403.836836 65.65504963 400.05423164 66.06976891 C391.31980132 67.32595664 383.87898243 70.29090684 378.17923164 77.25726891 C372.9695015 84.31928218 369.22329099 91.96975146 365.49173164 99.88226891 C364.87389614 101.17880475 364.25539615 102.47502415 363.63626289 103.77094078 C362.39249222 106.37694804 361.15244078 108.98466731 359.91604805 111.59418297 C357.94947644 115.74459118 355.96787463 119.88774413 353.98465157 124.03021812 C353.11021496 125.85693532 352.23668813 127.68408828 351.3640461 129.51166344 C347.65836174 137.27113576 343.92108744 145.0152025 340.17923164 152.75726891 C335.05637005 163.35727116 329.96024262 173.96970647 324.88626289 184.59320641 C320.50044496 193.77476172 316.09160028 202.94527934 311.68655586 212.11762047 C310.20537521 215.20281373 308.72531473 218.28854166 307.24563789 221.37445641 C301.88542259 232.55153097 296.50975869 243.72099674 291.11673164 254.88226891 C286.01505219 265.44076851 280.94012662 276.01173706 275.88626289 286.59320641 C272.51610327 293.64851685 269.13397906 300.6980856 265.74490547 307.74432945 C263.12478483 313.19351653 260.51717403 318.64818586 257.92923164 324.11273766 C257.3954792 325.23567223 256.86172676 326.3586068 256.3118 327.51556969 C255.29566983 329.6540094 254.28321561 331.79420135 253.27517891 333.93646812 C245.66044782 349.92832993 245.66044782 349.92832993 239.17923164 353.25726891 C236.45439339 353.64494896 236.45439339 353.64494896 233.47439766 353.66132164 C232.91367813 353.66766373 232.91367813 353.66766373 230.07609749 353.69975853 C229.47500916 353.69829071 229.47500916 353.69829071 226.43313789 353.69086266 C225.18926811 353.69610451 223.94539833 353.70134636 222.66383553 353.70674706 C219.36327824 353.71480701 216.06313725 353.70770841 212.76260567 353.69641685 C210.74493618 353.69477152 208.72783011 353.70675036 206.7102375 353.72382164 C202.82593658 353.75451159 198.9425407 353.75790361 195.05813789 353.75336266 C193.85798546 353.76459663 192.65783302 353.77583061 191.42131233 353.78740501 C180.56677465 353.69686022 180.56677465 353.69686022 176.17923164 349.25726891 C174.31735449 346.44196061 172.88024109 343.50104238 171.45657539 340.44476891 C171.03444771 339.57246635 170.61232002 338.7001638 170.17740059 337.80142784 C168.80781538 334.96075432 167.46214359 332.10946011 166.11673164 329.25726891 C165.1682373 327.27764446 164.21843977 325.29864389 163.26736641 323.32025719 C157.79158178 311.89930983 152.42057731 300.42882088 147.14187813 288.91547203 C142.32348737 278.44626215 137.25271774 268.10462887 132.17923164 257.75726891 C126.04004263 245.23627663 120.00305025 232.68795988 114.19095039 220.01117516 C108.93268095 208.60272727 103.3864767 197.33793283 97.85644722 186.05945396 C92.70546656 175.54919365 87.61956867 165.02262101 82.74173164 154.38226891 C77.52418499 143.05259042 72.19054486 131.77996346 66.76953316 120.54627037 C65.845964 118.62776525 64.92683588 116.70711484 64.01251411 114.78418541 C54.64048195 95.09396129 54.64048195 95.09396129 47.17923164 87.25726891 C46.32716133 86.35492516 45.47509102 85.45258141 44.59720039 84.52289391 C32.20701961 73.32616311 17.15666135 66.73252042 0.49173164 65.88226891 C-4.8991066 65.52329954 -7.88039741 64.98464682 -11.82076836 61.25726891 C-13.680733 58.23019649 -14.0794005 55.9293259 -14.1112957 52.40033531 C-14.1240554 51.43898674 -14.13681511 50.47763817 -14.14996147 49.48715782 C-14.15218712 48.4548101 -14.15441277 47.42246239 -14.15670586 46.35883141 C-14.16336266 45.29111504 -14.17001945 44.22339867 -14.17687798 43.12332726 C-14.18699888 40.86558313 -14.19169517 38.60780913 -14.19137383 36.35004234 C-14.19574342 32.90194772 -14.23206056 29.45513681 -14.26998711 26.00726891 C-14.27585611 23.81196078 -14.27982494 21.61664658 -14.28170586 19.42133141 C-14.29607689 18.39303215 -14.31044792 17.36473289 -14.32525444 16.30527306 C-14.28710759 10.30635368 -13.86157925 6.80078191 -9.82076836 2.25726891 C-6.14755508 -0.19153995 -4.38230277 0.0049243 0 0 Z M9.17923164 27.25726891 C6.99447981 31.62677257 7.82413419 36.93833549 9.05423164 41.50726891 C12.29376131 45.69960141 16.40896873 47.13119667 21.17923164 49.25726891 C50.1206892 62.63594106 69.37378384 82.28459446 83.08255196 110.98773766 C84.71305972 114.36200305 86.40722614 117.70349182 88.09524727 121.04926109 C93.80910722 132.38507974 99.31067435 143.81604257 104.76126289 155.28021812 C107.20133991 160.40320351 109.65954268 165.51747488 112.11673164 170.63226891 C113.12586256 172.73382356 114.13497709 174.83538609 115.14407539 176.93695641 C115.64535957 177.98077477 116.14664375 179.02459312 116.66311836 180.10004234 C119.16918072 185.31878606 121.67415461 190.53805217 124.17923164 195.75726891 C125.17922635 197.84060478 126.17922635 199.92393811 127.17923164 202.00726891 C137.17923164 222.84060224 147.17923164 243.67393557 157.17923164 264.50726891 C157.67447334 265.5390023 158.16971504 266.5707357 158.67996407 267.63373375 C159.67758619 269.71215378 160.67514502 271.79060419 161.67263985 273.86908531 C164.20849712 279.15284606 166.7455322 284.43603587 169.28470039 289.71820641 C169.79565254 290.7820858 170.30660469 291.84596519 170.83304024 292.94208336 C171.84564534 295.04837291 172.8602546 297.15370027 173.87698555 299.25800133 C176.21942783 304.11661509 178.52242358 308.98457121 180.72220039 313.90961266 C181.11834541 314.78440269 181.51449043 315.65919273 181.92263985 316.56049156 C182.65061414 318.17475689 183.36515573 319.79518318 184.06277657 321.42279625 C184.38737862 322.13774254 184.71198067 322.85268883 185.04641914 323.58930016 C185.31567207 324.20523033 185.584925 324.82116051 185.86233711 325.45575523 C187.92575885 328.27851924 190.09863237 329.61530483 193.17923164 331.25726891 C196.07551794 331.64100286 198.57780058 331.8200691 201.46438789 331.78851891 C201.85374268 331.79043236 201.85374268 331.79043236 203.82411385 331.80011559 C205.46211231 331.80282518 207.10015475 331.7955309 208.73806953 331.77875328 C211.23832079 331.75729817 213.73570868 331.77859945 216.23587227 331.80414391 C217.83288378 331.80150102 219.42989352 331.79637686 221.02688789 331.78851891 C221.39830154 331.79256737 221.39830154 331.79256737 223.27787971 331.81305504 C226.71981735 331.75114639 228.97630106 331.37470649 231.97244453 329.64081383 C234.60296054 326.79960045 236.02200569 324.10910269 237.64016914 320.58930016 C237.94712715 319.93075035 238.25408516 319.27220055 238.57034492 318.59369469 C239.57749086 316.42459328 240.56587401 314.24748751 241.55423164 312.06976891 C242.26363013 310.53176755 242.9740975 308.9942588 243.6855793 307.45722008 C245.51539704 303.49461881 247.32891901 299.52481995 249.13577461 295.5517025 C250.12112917 293.3850291 251.1087085 291.21938743 252.09720039 289.05414391 C254.53613566 283.70961834 256.97013945 278.36289556 259.39163399 273.01044273 C264.26742107 262.2344919 269.21333019 251.49195626 274.17923164 240.75726891 C279.74007966 228.73353955 285.27127025 216.69740198 290.74173164 204.63226891 C296.00073723 193.03379191 301.29450652 181.45187832 306.61673164 169.88226891 C311.82234623 158.56594604 317.01871147 147.24555553 322.19351387 135.91510582 C323.17364085 133.76950772 324.15434845 131.62417608 325.13528633 129.47894859 C325.45949562 128.76992393 325.78370491 128.06089928 326.11773872 127.33038902 C326.77696623 125.88873259 327.43620699 124.44708222 328.09546089 123.00543785 C329.88256753 119.09655959 331.66766798 115.18677764 333.45022774 111.27582359 C335.37899629 107.0441708 337.31135158 102.81417136 339.24588203 98.58514977 C339.98287463 96.97230623 340.7185893 95.35887803 341.45291328 93.74481773 C351.09965565 72.54517061 360.74635412 56.11686749 383.19119453 46.55145836 C389.08361355 44.02725545 389.08361355 44.02725545 391.17923164 41.25726891 C392.62363198 36.92406789 392.72092008 32.7857842 392.17923164 28.25726891 C390.3827631 25.32303695 389.23512454 23.78521535 386.17923164 22.25726891 C384.5204681 22.15382712 382.85760535 22.11344011 381.1956501 22.10336876 C380.14138832 22.0947683 379.08712654 22.08616783 378.00091743 22.07730675 C376.8393412 22.0730468 375.67776497 22.06878685 374.48098946 22.06439781 C373.26138527 22.05622032 372.04178108 22.04804283 370.78521919 22.03961754 C366.73426837 22.01472959 362.68335493 21.99808826 358.63235664 21.98383141 C357.2376295 21.97847156 355.84290243 21.97309405 354.44817543 21.96769905 C348.64571338 21.94606865 342.84325412 21.92733268 337.04076195 21.91607666 C328.72685492 21.89984266 320.41341564 21.86668086 312.09968495 21.80967581 C306.25331468 21.77095696 300.40706941 21.75144163 294.56057429 21.7461561 C291.06922619 21.74250478 287.57837694 21.73050872 284.08716774 21.69805336 C280.18965676 21.6623409 276.29273109 21.6663486 272.39505196 21.67377281 C271.24157265 21.65736748 270.08809334 21.64096214 268.89966011 21.62405968 C260.174466 21.69217565 260.174466 21.69217565 256.47824287 24.66873741 C253.04875913 28.53010466 252.80882906 30.92233231 252.92141914 35.94867516 C253.35014493 39.7877197 254.50747275 41.46124216 257.17923164 44.25726891 C259.91809861 45.90058909 262.71448841 47.37007724 265.55423164 48.83148766 C271.53056486 52.0775615 275.11719523 56.88050911 277.17923164 63.25726891 C278.81807596 74.71204087 274.91183753 84.75658747 271.24173164 95.38226891 C270.61852361 97.23119493 269.99714669 99.08073904 269.37747383 100.93085289 C268.04412609 104.90369911 266.70005609 108.87271278 265.3496418 112.83978844 C263.03396061 119.66116773 260.78257179 126.50314578 258.53470039 133.34711266 C257.37901043 136.85587935 256.2224459 140.36435619 255.06543159 143.87268639 C254.30851946 146.16905911 253.55275993 148.46581206 252.79815865 150.76294518 C251.73850102 153.98313817 250.67091214 157.20059157 249.60110664 160.41742516 C249.44253937 160.90182816 249.44253937 160.90182816 248.64009285 163.35320091 C248.34460045 164.23685829 248.04910805 165.12051567 247.74466133 166.03095055 C247.48932625 166.80282204 247.23399117 167.57469353 246.97091866 168.36995506 C246.17923164 170.25726891 246.17923164 170.25726891 244.17923164 172.25726891 C241.55423164 172.38226891 241.55423164 172.38226891 239.17923164 172.25726891 C232.62859018 159.90422458 226.21589266 147.49271053 219.96048164 134.98773766 C219.12764989 133.32530114 218.29476293 131.66289229 217.46182442 130.00050926 C215.73960163 126.5619723 214.01896858 123.12264544 212.29934883 119.68280602 C210.10008044 115.28416642 207.89525919 110.88833467 205.68912697 106.4931345 C203.97749399 103.08098068 202.26949482 99.66701768 200.56251717 96.25253296 C199.75047998 94.62963374 198.93715453 93.00737843 198.12248421 91.38579941 C196.98979864 89.13024074 195.86222315 86.87219725 194.73587227 84.61347008 C194.40344521 83.95423546 194.07101814 83.29500084 193.72851753 82.61578941 C190.29747241 75.70697899 187.36789819 68.82506095 189.86673164 61.14398766 C192.31785339 55.72088079 195.60255912 51.74867387 201.24954414 49.39398766 C204.34275092 48.34315957 207.4679645 47.45332331 210.61673164 46.58539391 C214.18504499 45.52898535 216.78498684 44.56497217 219.74173164 42.25726891 C221.94959191 37.64956053 221.94693054 33.26989111 221.17923164 28.25726891 C219.37804686 25.25529427 218.27590432 23.80560524 215.17923164 22.25726891 C212.55822466 22.15074497 209.96327539 22.10505725 207.34163094 22.10336876 C206.52265589 22.09898651 205.70368085 22.09460425 204.85988837 22.0900892 C202.10004155 22.07667401 199.34022667 22.07051628 196.58035469 22.06439781 C194.60790041 22.05649906 192.63544758 22.04823025 190.66299629 22.03961754 C184.17232842 22.01337363 177.681654 21.99808864 171.19095039 21.98383141 C168.95916235 21.97847291 166.72737435 21.9730954 164.4955864 21.96769905 C155.21459418 21.94606784 145.93360372 21.92732965 136.65259266 21.91607666 C123.33751962 21.89982792 110.02273798 21.86663031 96.70777482 21.80967581 C87.35316892 21.77102127 77.99864112 21.75144935 68.64395744 21.7461561 C63.05288331 21.74249681 57.4621198 21.730414 51.8711319 21.69805336 C46.61223487 21.66805138 41.35383769 21.66163281 36.09487343 21.67343712 C34.16349681 21.67365851 32.23209752 21.66529982 30.30080032 21.64778328 C27.66585505 21.62518341 25.03273641 21.63334308 22.39778328 21.6492672 C21.63163112 21.63538511 20.86547896 21.62150302 20.07611006 21.60720026 C14.71449461 21.68716067 12.47579137 23.09481723 9.17923164 27.25726891 Z " fill="#454545" transform="translate(55.82076835632324,84.74273109436035)"/>
<path d="M0 0 C0.81982947 -0.00453111 1.63965894 -0.00906223 2.48433173 -0.01373065 C5.24112692 -0.02642655 7.99772586 -0.02475094 10.75454712 -0.02310181 C12.72715002 -0.02908382 14.69975057 -0.0358886 16.67234802 -0.04345703 C22.03804992 -0.06115754 27.40368807 -0.06581411 32.76941633 -0.0670886 C37.24517863 -0.06898537 41.72092601 -0.07634035 46.19668257 -0.08343279 C56.75455264 -0.09972975 67.31238858 -0.10460055 77.87026978 -0.10317993 C88.76924592 -0.10197815 99.66802415 -0.12308435 110.5669502 -0.15466726 C119.91733941 -0.18079947 129.26766386 -0.19154851 138.61808932 -0.19026911 C144.20573351 -0.18975858 149.79320189 -0.19549212 155.38080978 -0.21662521 C160.6355828 -0.23595612 165.89001137 -0.23616733 171.14479637 -0.22159195 C173.07454746 -0.21949635 175.00431982 -0.22424925 176.93403435 -0.23631287 C179.56653802 -0.25170532 182.19784513 -0.2424974 184.83032227 -0.22705078 C185.59579231 -0.23733791 186.36126235 -0.24762503 187.14992845 -0.25822389 C192.06192624 -0.1944365 194.60157247 0.75157971 198.04214478 4.26742554 C200.01848145 8.22009889 199.46618004 12.9584789 199.04214478 17.26742554 C197.50819934 20.46870297 196.33230953 21.7049137 193.08901978 23.11898804 C190.75846128 23.92571982 188.41956302 24.61211153 186.04214478 25.26742554 C178.45641051 27.41338983 172.72353566 29.87170479 168.66714478 37.07992554 C166.43878606 42.12899148 166.05443851 46.3786598 167.83651733 51.59074402 C172.10791754 61.84969639 177.13681292 71.72746473 182.12026978 81.65414429 C183.09751128 83.60743326 184.0744554 85.56087105 185.05111694 87.51445007 C187.08601322 91.58268748 189.12356879 95.64957739 191.16323853 99.71542358 C193.78246666 104.93677344 196.39632612 110.16078831 199.00841141 115.38571453 C201.01930054 119.40722173 203.03226719 123.42768593 205.04595184 127.44779396 C206.01133045 129.37536358 206.97622089 131.30317776 207.94062042 133.23123741 C209.28136732 135.91057529 210.62473326 138.58858265 211.96890259 141.26620483 C212.36888458 142.06662201 212.76886658 142.86703918 213.18096924 143.69171143 C215.92765791 149.15293867 215.92765791 149.15293867 217.04214478 150.26742554 C219.41714478 150.64242554 219.41714478 150.64242554 222.04214478 150.26742554 C225.06612498 146.18850969 226.46506058 141.5460543 228.02896118 136.77694702 C228.31064651 135.93408142 228.59233185 135.09121582 228.8825531 134.22280884 C229.808724 131.44660065 230.72630688 128.66763678 231.64370728 125.88851929 C232.28672973 123.95452637 232.93024065 122.02069579 233.57421875 120.08702087 C234.92099623 116.03905581 236.26389064 111.98983184 237.60366821 107.93954468 C239.32131277 102.74699733 241.0454336 97.55663178 242.77205849 92.36706448 C244.41889393 87.41658602 246.06275458 82.46512158 247.70620728 77.51351929 C247.86315882 77.04096679 247.86315882 77.04096679 248.65742874 74.64956474 C249.54461954 71.97641551 250.4297227 69.30258492 251.31411743 66.62850952 C251.57698044 65.8372316 251.83984344 65.04595367 252.110672 64.23069763 C254.9980731 55.48278487 257.51473857 45.55730113 253.35464478 36.76742554 C250.01266003 31.25891274 246.16856438 28.25760092 240.47964478 25.32992554 C235.94369408 22.92134794 233.06796742 21.18728054 231.04214478 16.26742554 C230.32508212 12.36576106 230.10633879 8.92494167 232.10073853 5.39242554 C233.85905154 3.22192639 235.5302603 1.52336777 238.04214478 0.26742554 C239.70321613 0.16608048 241.36831325 0.12797764 243.03245544 0.12025452 C244.08816238 0.11309921 245.14386932 0.10594391 246.23156738 0.09857178 C247.39471466 0.09588287 248.55786194 0.09319397 249.7562561 0.09042358 C250.97746658 0.08385239 252.19867706 0.07728119 253.45689392 0.07051086 C256.81238881 0.05415517 260.1678206 0.04254854 263.52334046 0.03430533 C265.61960933 0.02915551 267.71587377 0.02307976 269.81213951 0.0167942 C276.37047487 -0.00225865 282.92879897 -0.01648946 289.48715669 -0.02481776 C297.05841635 -0.03459096 304.62938371 -0.06091186 312.20054036 -0.10131866 C318.05199298 -0.13147611 323.90336179 -0.14628627 329.75489062 -0.14959878 C333.25003852 -0.15194975 336.74487418 -0.16091561 340.23993874 -0.18605995 C344.14000436 -0.21366445 348.03968522 -0.20951063 351.93984985 -0.20254517 C353.09692444 -0.21535522 354.25399902 -0.22816528 355.44613647 -0.24136353 C363.27450608 -0.19028245 363.27450608 -0.19028245 367.23603821 2.17179871 C370.50289891 5.96233967 370.3199673 8.93449971 370.25698853 13.79086304 C369.97529968 17.03796713 369.1935746 18.81924677 367.04214478 21.26742554 C363.34944607 23.67684597 359.47496849 25.47998611 355.47964478 27.32992554 C339.71670466 35.0081306 330.82626675 46.64757887 323.54214478 62.32992554 C323.03570435 63.4022644 322.52926392 64.47460327 322.00747681 65.57943726 C317.25387423 75.69504602 312.63753907 85.87482423 308.03237915 96.0586853 C303.08999449 106.98699165 298.07844684 117.88211349 293.04214478 128.76742554 C287.48111992 140.79107213 281.95010549 152.82729397 276.47964478 164.89242554 C271.22063919 176.49090253 265.92686989 188.07281612 260.60464478 199.64242554 C255.39932161 210.95811491 250.20322526 222.27786244 245.02868652 233.60766602 C243.0576892 237.92261796 241.0849302 242.23676485 239.11231995 246.55097961 C237.34696026 250.41218565 235.58253525 254.27381513 233.81948853 258.13607788 C231.92903831 262.27692612 230.03555683 266.41637778 228.14028931 270.55502319 C227.42411714 272.12015712 226.70890194 273.68572941 225.99478149 275.25180054 C223.70582907 280.27060567 221.3923382 285.27698861 219.04214478 290.26742554 C218.69232544 291.01171814 218.3425061 291.75601074 217.98208618 292.52285767 C216.93144664 294.74224435 215.86473321 296.95310677 214.79214478 299.16195679 C214.47495483 299.83329147 214.15776489 300.50462616 213.83096313 301.19630432 C212.06672727 304.77775064 210.70565788 307.51884106 207.04214478 309.26742554 C204.2798542 309.5720764 201.7488523 309.71185696 198.98745728 309.70101929 C198.20828949 309.70626114 197.4291217 309.71150299 196.62634277 309.71690369 C194.98061309 309.72331632 193.33483752 309.72199667 191.68911743 309.71347046 C189.1822558 309.70497674 186.6776867 309.73370232 184.17105103 309.76547241 C182.56818712 309.76708511 180.96531921 309.76650558 179.36245728 309.76351929 C178.61851715 309.77475327 177.87457703 309.78598724 177.10809326 309.79756165 C171.90424836 309.72855093 168.91217819 308.7491854 165.04214478 305.26742554 C163.28831189 302.69257097 161.98790423 299.97979847 160.68667603 297.15414429 C160.30320007 296.35641098 159.91972412 295.55867767 159.52462769 294.73677063 C158.28561069 292.14997097 157.07010457 289.55286535 155.85464478 286.95492554 C155.00192196 285.16367131 154.14766632 283.373146 153.29190063 281.58334351 C151.22011548 277.24243208 149.16557516 272.89363313 147.11611938 268.54214478 C145.22869314 264.54450392 143.31069165 260.56173816 141.39468384 256.57772827 C140.11523455 253.91446887 138.84310266 251.24784127 137.57339478 248.57992554 C134.7636759 242.67774878 131.93473494 236.78485562 129.10464478 230.89242554 C128.60521362 229.85231323 128.10578247 228.81220093 127.59121704 227.74057007 C126.58028577 225.63523764 125.56929926 223.52993173 124.55825806 221.4246521 C122.05219569 216.20590839 119.54722181 210.98664227 117.04214478 205.76742554 C116.04215007 203.68408966 115.04215007 201.60075633 114.04214478 199.51742554 C84.04214478 137.01742554 84.04214478 137.01742554 82.54116821 133.89022827 C81.54459286 131.81413782 80.547849 129.73812823 79.55093384 127.66220093 C76.99712471 122.34371388 74.44656901 117.02370436 71.90151978 111.70101929 C69.3985106 106.46788111 66.88649309 101.23917506 64.36587524 96.01449585 C63.53671083 94.29377325 62.70984444 92.57193932 61.88638306 90.84848022 C55.22992095 76.93404999 47.88148286 64.40996189 37.04214478 53.26742554 C36.6940979 52.88844116 36.6940979 52.88844116 34.93276978 50.97055054 C23.95892909 39.35590164 10.31669684 32.30020563 -4.09066772 25.86898804 C-7.96686343 24.09475269 -10.4468032 22.92878698 -13.08285522 19.51742554 C-14.52214022 14.17150984 -14.93592364 9.45643579 -12.64535522 4.32992554 C-8.94723909 -0.18999418 -5.41233292 -0.0217722 0 0 Z M19.04214478 12.26742554 C18.56167603 14.66195679 18.56167603 14.66195679 19.04214478 17.26742554 C20.99136353 19.15414429 20.99136353 19.15414429 23.72964478 20.95492554 C24.23431274 21.30168335 24.23431274 21.30168335 26.78823853 23.05648804 C27.86202759 23.78609741 28.93581665 24.51570679 30.04214478 25.26742554 C57.64994919 44.97236538 73.32227037 70.34986093 87.16714478 100.70492554 C87.99971168 102.51717729 88.83280998 104.329185 89.66641235 106.14096069 C92.13475353 111.51200819 94.59002904 116.88895496 97.04214478 122.26742554 C97.73370451 123.78289201 98.42527302 125.29835448 99.11685181 126.81381226 C102.21039921 133.59632696 105.29347569 140.38354665 108.37026978 147.17367554 C112.22119871 155.67189086 116.09836783 164.15803591 119.97964478 172.64242554 C120.31202148 173.36905396 120.64439819 174.09568237 120.98684692 174.84432983 C122.33145145 177.7837888 123.67611504 180.72322072 125.02096558 183.66256714 C127.35272985 188.75920408 129.68236194 193.85681151 132.01089478 198.95492554 C133.33372273 201.85079941 134.65664389 204.74663067 135.97964478 207.64242554 C136.30727814 208.35956726 136.6349115 209.07670898 136.97247314 209.81558228 C140.750044 218.08277784 144.53552626 226.34626104 148.33511353 234.60336304 C148.51404648 234.99239304 148.51404648 234.99239304 149.41955566 236.96112061 C151.21123541 240.85600862 153.00511519 244.74985723 154.80288696 248.64193726 C158.27543614 256.17058244 161.69594345 263.71653711 165.01480103 271.31430054 C165.95509639 273.45197666 166.89625765 275.58927 167.8374939 277.72653198 C168.70408406 279.70895259 169.55325468 281.69821751 170.40200806 283.68832397 C175.4769408 295.21645077 175.4769408 295.21645077 181.04214478 298.26742554 C184.73355103 298.86117554 184.73355103 298.86117554 188.60464478 298.76742554 C189.88468384 298.75711304 191.1647229 298.74680054 192.48355103 298.73617554 C196.30234339 298.2331513 197.97733436 297.5368773 201.04214478 295.26742554 C202.59683228 292.74081421 202.59683228 292.74081421 203.91714478 289.68539429 C204.41995972 288.54272095 204.92277466 287.40004761 205.44082642 286.2227478 C205.97488161 284.96692711 206.50864542 283.71098247 207.04214478 282.45492554 C207.61556876 281.13654153 208.1903848 279.81876222 208.76651001 278.5015564 C210.25609495 275.08644624 211.72774504 271.6639109 213.19515991 268.23922729 C214.4784313 265.25173969 215.77804746 262.27142831 217.07730103 259.29086304 C219.17822145 254.46507104 221.26982957 249.63534841 223.35464478 244.80258179 C227.75051493 234.61516338 232.17883263 224.44186202 236.60464478 214.26742554 C237.46257499 212.29477801 238.32048501 210.3221217 239.17837524 208.34945679 C240.48521419 205.34446692 241.79206781 202.33948343 243.09899902 199.33453369 C246.12524266 192.37636794 249.15039429 185.41772822 252.17495728 178.45883179 C265.5716598 147.63690016 265.5716598 147.63690016 271.37417603 134.32601929 C271.72131149 133.52949951 272.06844696 132.73297974 272.42610168 131.912323 C274.14546978 127.96790656 275.86679344 124.02436241 277.59170532 120.08236694 C281.06029913 112.14929361 284.50226482 104.20610193 287.89456177 96.24005127 C289.6692835 92.07565382 291.45345873 87.9153344 293.2381897 83.75521851 C294.09322453 81.75506775 294.94380896 79.75300738 295.78945923 77.74887085 C306.62924054 52.06779827 320.62999428 32.54493852 345.04214478 18.26742554 C345.53714478 17.93742554 345.53714478 17.93742554 348.04214478 16.26742554 C347.16714478 11.39242554 347.16714478 11.39242554 346.04214478 10.26742554 C343.18659897 10.16687441 340.35520455 10.1312701 337.49917603 10.13803101 C336.6033078 10.13627869 335.70743958 10.13452637 334.78442383 10.13272095 C331.8078114 10.12830107 328.83125786 10.1312409 325.85464478 10.13461304 C323.79580677 10.13394004 321.73696884 10.13297005 319.6781311 10.13171387 C315.35707851 10.13023671 311.03604654 10.13239202 306.71499634 10.13705444 C301.16277932 10.14275174 295.61061063 10.13947283 290.05839539 10.13348198 C285.80520256 10.12987685 281.55202129 10.13101473 277.29882812 10.13360977 C275.25099685 10.13427917 273.20316454 10.13345016 271.15533447 10.13113022 C268.2985657 10.12860448 265.44187635 10.13244317 262.58511353 10.13803101 C262.15756271 10.13701889 262.15756271 10.13701889 259.99389648 10.13189697 C254.15640716 10.15316315 254.15640716 10.15316315 253.04214478 11.26742554 C252.68667603 13.64242554 252.68667603 13.64242554 253.04214478 16.26742554 C255.05386353 17.89242554 255.05386353 17.89242554 257.72964478 19.26742554 C266.34384581 24.04770048 271.84174721 30.93648864 275.04214478 40.26742554 C277.29594752 56.62059898 267.31870622 74.03347131 261.42105103 88.77523804 C260.4743084 91.15154649 259.52793929 93.52800378 258.58192444 95.90460205 C256.60558839 100.8664885 254.62598258 105.82705085 252.64346313 110.78646851 C250.36327685 116.49061056 248.08852034 122.19689333 245.81683975 127.90442765 C243.61535502 133.43542709 241.41074298 138.96517536 239.2046032 144.49431992 C238.27306287 146.82947845 237.34217061 149.16489562 236.41195869 151.50058365 C235.10849814 154.77175788 233.80151622 158.04150342 232.49356079 161.31088257 C232.11573959 162.26079071 231.7379184 163.21069885 231.34864807 164.18939209 C228.76349863 170.63666224 225.96437488 176.96604528 223.04214478 183.26742554 C221.06214478 183.26742554 219.08214478 183.26742554 217.04214478 183.26742554 C209.77549431 170.45036869 202.87141345 157.44900369 195.99404907 144.42074585 C195.20543074 142.92691107 194.41677521 141.43309593 193.62808228 139.93930054 C193.2386293 139.20165466 192.84917633 138.46400879 192.44792175 137.70401001 C188.81895531 130.83550119 185.15425826 123.98661552 181.47964478 117.14242554 C176.37740901 107.63120754 171.28158126 98.11665211 166.2086792 88.5897522 C165.49039732 87.24150194 164.77141971 85.89362203 164.05163574 84.5461731 C160.14967448 77.24022998 156.31774189 69.90382153 152.60073853 62.50180054 C152.2586586 61.82272644 151.91657867 61.14365234 151.56413269 60.44400024 C147.44456942 52.18689093 146.25645848 43.90782209 149.10073853 34.92367554 C152.67480816 27.25250169 157.36399907 22.46566574 164.26480103 17.74789429 C166.04214478 16.26742554 166.04214478 16.26742554 166.35464478 13.64242554 C166.04214478 11.26742554 166.04214478 11.26742554 165.04214478 10.26742554 C163.20139959 10.16657882 161.35674788 10.13665588 159.51324463 10.13371277 C158.31298141 10.12944778 157.1127182 10.1251828 155.87608337 10.12078857 C154.53381344 10.12113814 153.19154354 10.1215997 151.84927368 10.12216187 C150.44514374 10.11917191 149.04101462 10.11576977 147.6368866 10.11198425 C143.81248181 10.10312252 139.98809938 10.10080521 136.16368532 10.10016847 C132.97523936 10.099221 129.78679865 10.09554452 126.5983547 10.09199637 C119.07733672 10.08384327 111.55633072 10.08141289 104.03530884 10.0821228 C96.26854558 10.08272357 88.50185179 10.07217393 80.73510611 10.05637914 C74.07521824 10.04331629 67.4153531 10.03793839 60.75545251 10.03857821 C56.77420577 10.03883361 52.79302068 10.03595988 48.81178665 10.02540016 C45.06734582 10.01574044 41.32302587 10.0156253 37.57858086 10.02291679 C36.2027144 10.02396535 34.82684051 10.02158374 33.45098686 10.01555634 C31.57567709 10.00787188 29.70032638 10.01366448 27.82501221 10.02018738 C26.77454523 10.01964261 25.72407825 10.01909784 24.64177895 10.01853657 C22.04214478 10.26742554 22.04214478 10.26742554 19.04214478 12.26742554 Z " fill="#FCFDFC" transform="translate(77.95785522460938,106.73257446289063)"/>
</svg>
