<?xml version="1.0" encoding="UTF-8"?>
<!-- Generator: visioncortex VTracer 0.6.12 -->
<svg version="1.1" xmlns="http://www.w3.org/2000/svg" width="512" height="512">
<path d="M0 0 C6.26318957 3.07036249 11.25783967 5.24564273 18.234375 3.62109375 C23.73392423 1.57627627 29.02712919 -0.93923458 34.28662109 -3.53100586 C42.80219337 -7.23802297 55.32059531 -6.5330613 63.9375 -3.41015625 C74.76191675 1.44978596 81.28866142 8.22680061 87.921875 17.93359375 C91.92330114 23.77277895 95.37735839 26.66429525 102.234375 28.62109375 C104.41744527 28.80813771 106.60680018 28.93011235 108.796875 28.99609375 C122.23566629 29.85900561 132.87646794 34.01655294 142.33203125 43.7890625 C149.0643354 51.86496875 152.12984236 60.93013725 152.609375 71.30859375 C153.18101022 79.29491776 153.66717601 85.64780012 159.796875 91.24609375 C162.85249857 93.68946921 166.05594362 95.86997698 169.296875 98.05859375 C178.77244405 104.61301344 184.33738263 112.77115866 187.0546875 124.015625 C189.34235997 137.14802327 186.6324897 146.76813176 180.79296875 158.37109375 C178.42223684 163.31457483 177.78275512 167.11133121 178.234375 172.62109375 C179.03230632 174.83708779 180.00307846 176.91662102 181.015625 179.04296875 C187.13276598 191.98307467 190.1789925 203.53574725 186.234375 217.62109375 C181.39576068 229.81500104 175.42078464 235.9857376 164.64624023 242.84887695 C158.97759659 246.56071642 155.33885434 250.22541423 153.65234375 256.9375 C153.16766963 260.0493796 153.04617868 263.09943484 152.921875 266.24609375 C151.95733498 280.23192408 146.12030851 290.55444528 135.7734375 299.796875 C132.45764723 302.17914278 128.92221435 303.88947678 125.234375 305.62109375 C130.93661544 318.44279813 136.78714382 331.19491835 142.671875 343.93359375 C143.05412231 344.76113159 143.43636963 345.58866943 143.8302002 346.44128418 C147.44593532 354.26802559 151.06474494 362.09334425 154.68505859 369.91796875 C156.693487 374.25884013 158.70070882 378.60026789 160.70730591 382.94198608 C161.81872406 385.34567699 162.93166187 387.74865993 164.04467773 390.15161133 C165.77020822 393.87936129 167.48141318 397.6134902 169.18859863 401.34967041 C170.29035018 403.74267168 171.41200518 406.12579286 172.53417969 408.50927734 C173.27592429 410.11270896 174.01715151 411.71638005 174.7578125 413.3203125 C175.10711823 414.0500679 175.45642395 414.7798233 175.8163147 415.5316925 C177.88513064 420.06207734 178.69486129 423.5393557 178.234375 428.62109375 C176.64686173 431.66281764 174.33133825 434.07261212 171.234375 435.62109375 C169.07562834 435.67517002 166.91511164 435.66248798 164.75610352 435.62011719 C163.37651932 435.59734667 161.9969258 435.57513621 160.61732483 435.55340576 C159.88409563 435.5406234 159.15086643 435.52784103 158.39541817 435.51467133 C153.68377974 435.44405761 148.97152824 435.43785245 144.25944614 435.42081833 C140.12558173 435.40222397 135.99449035 435.36062885 131.86157227 435.26806641 C127.85761615 435.17966707 123.85772329 435.15598003 119.85288811 435.17444611 C118.33501234 435.17017531 116.817007 435.14319338 115.2999897 435.09197235 C103.77520221 434.72206996 103.77520221 434.72206996 99.51528168 437.90595055 C95.86824819 441.42400532 93.05522231 445.43097654 90.234375 449.62109375 C89.2396634 450.88800073 88.23494284 452.14727568 87.2109375 453.390625 C86.43492187 454.39480469 85.65890625 455.39898437 84.859375 456.43359375 C80.75315681 461.71280092 76.58009227 466.93295406 72.359375 472.12109375 C71.82393066 472.77956299 71.28848633 473.43803223 70.73681641 474.11645508 C69.71996805 475.36431837 68.7013279 476.61072432 67.68066406 477.85546875 C66.71960084 479.02873162 65.76317477 480.20580893 64.81152344 481.38671875 C60.71843192 486.41699948 60.71843192 486.41699948 57.24609375 486.89453125 C56.47910156 486.92804688 55.71210938 486.9615625 54.921875 486.99609375 C54.16261719 487.04507812 53.40335938 487.0940625 52.62109375 487.14453125 C49.03760616 486.35862726 47.64161118 484.34070185 45.234375 481.62109375 C43.4543457 478.39648438 43.4543457 478.39648438 41.84765625 474.77734375 C41.55377518 474.12334595 41.2598941 473.46934814 40.95710754 472.79553223 C40.03804278 470.74226756 39.13539947 468.68232892 38.234375 466.62109375 C37.66524813 465.33823207 37.09543805 464.05567324 36.52490234 462.7734375 C34.80606163 458.89703741 33.11306112 455.00961853 31.421875 451.12109375 C30.81504402 449.73030707 30.20802639 448.33960182 29.60083008 446.94897461 C26.7692808 440.46051886 23.94934346 433.96711984 21.140625 427.46875 C20.67760986 426.39882813 20.21459473 425.32890625 19.73754883 424.2265625 C18.87831458 422.23927439 18.02128198 420.25103252 17.16674805 418.26171875 C16.97874634 417.82666016 16.97874634 417.82666016 16.02734375 415.625 C15.7027417 414.87033447 15.37813965 414.11566895 15.04370117 413.33813477 C14.234375 411.62109375 14.234375 411.62109375 13.234375 410.62109375 C11.31979374 414.97391348 9.4059126 419.32703866 7.49316406 423.68066406 C5.85561702 427.40764909 4.21527403 431.13338736 2.57324219 434.85839844 C-1.22973776 443.49560854 -5.00846969 452.13868011 -8.64453125 460.84765625 C-9.22540207 462.22846448 -9.80652942 463.60916482 -10.38793945 464.98974609 C-11.19637106 466.90959617 -11.99921835 468.83072491 -12.78353882 470.76055908 C-17.74470284 482.96611661 -17.74470284 482.96611661 -23.765625 486.62109375 C-27.87177922 487.41583328 -30.04680595 487.60226766 -33.66796875 485.53515625 C-39.24532107 481.04133863 -43.44947601 475.16007938 -47.7734375 469.50390625 C-51.34994553 464.82949343 -55.08293965 460.28633078 -58.82299805 455.74243164 C-59.320979 455.13391357 -59.81895996 454.52539551 -60.33203125 453.8984375 C-60.84287262 453.29248245 -61.35371399 452.6865274 -61.8800354 452.06221008 C-63.765625 449.62109375 -63.765625 449.62109375 -65.72319031 446.40701294 C-68.87651729 441.39250232 -71.52552835 437.3496218 -77.32215881 435.46443176 C-81.55308582 435.0883534 -85.60801692 435.10372591 -89.84375 435.2734375 C-91.38446516 435.2854309 -92.92524163 435.29105903 -94.46600342 435.29066467 C-98.49689139 435.30388081 -102.52251981 435.39102483 -106.55187988 435.49804688 C-113.01112635 435.65678375 -119.47215984 435.70082515 -125.93300629 435.74658394 C-128.17967355 435.77297842 -130.42382957 435.83048118 -132.66973877 435.89329529 C-134.05227693 435.91635976 -135.43482473 435.93885592 -136.81738281 435.96069336 C-138.01743958 435.99102158 -139.21749634 436.02134979 -140.45391846 436.05259705 C-144.48440163 435.52743977 -146.6179663 434.14064246 -149.765625 431.62109375 C-151.75506212 427.6422195 -151.37222378 422.70287269 -150.14776611 418.50067139 C-149.25812282 416.33531074 -148.27795185 414.24391044 -147.2421875 412.14453125 C-147.05584244 411.74901566 -147.05584244 411.74901566 -146.11282349 409.74746704 C-144.88771744 407.15592197 -143.63914687 404.57642764 -142.390625 401.99609375 C-141.52319816 400.17015657 -140.65766794 398.34331729 -139.79394531 396.515625 C-138.00860117 392.7411021 -136.21557778 388.97037856 -134.41699219 385.20214844 C-130.7542934 377.51244391 -127.1884059 369.77850316 -123.62878418 362.04067993 C-122.51983693 359.63024889 -121.40908478 357.22065724 -120.29785156 354.8112793 C-118.11749479 350.08257164 -115.94087251 345.35215358 -113.765625 340.62109375 C-113.39683228 339.81927673 -113.02803955 339.01745972 -112.64807129 338.19134521 C-110.47597399 333.46735805 -108.30862748 328.74124015 -106.14807129 324.01196289 C-105.48160884 322.55435388 -104.81390345 321.09731248 -104.14489746 319.64086914 C-103.23097142 317.65024246 -102.32184667 315.65749593 -101.4140625 313.6640625 C-100.90020996 312.5402417 -100.38635742 311.4164209 -99.85693359 310.25854492 C-98.765625 307.62109375 -98.765625 307.62109375 -98.765625 305.62109375 C-99.466875 305.28078125 -100.168125 304.94046875 -100.890625 304.58984375 C-113.72589494 298.03269497 -120.87226978 289.30115942 -125.43359375 275.6171875 C-125.9137409 272.73065581 -126.00561942 269.85550014 -126.140625 266.93359375 C-126.71505369 258.43204913 -127.96448818 252.05212634 -133.765625 245.62109375 C-136.3515625 243.77734375 -136.3515625 243.77734375 -139.140625 242.12109375 C-149.4649935 235.71286502 -156.84924635 227.88225016 -160.26953125 215.921875 C-163.24568949 202.11906235 -160.50376924 191.12596449 -154.32421875 178.7734375 C-151.73427834 173.53513698 -150.65617133 169.10622538 -152.484375 163.36328125 C-153.92168763 159.75840844 -155.48796697 156.22483855 -157.109375 152.69921875 C-161.91251802 141.92007219 -163.0674253 132.08606842 -159.765625 120.62109375 C-154.80130759 108.20360977 -148.72160424 101.36323482 -137.359375 94.37109375 C-132.65783532 91.19897059 -129.68259705 87.7606952 -127.453125 82.55859375 C-126.82505155 78.96144579 -126.57865791 75.57423102 -126.390625 71.93359375 C-125.59514193 59.43125154 -121.4528326 49.21700841 -112.4765625 40.36328125 C-103.33460153 32.49829261 -94.05877683 30.25882277 -82.31054688 29.39111328 C-76.26034497 28.89849975 -70.50242802 27.86123687 -65.69921875 23.9296875 C-65.45236328 23.62095703 -65.45236328 23.62095703 -64.203125 22.05859375 C-63.91824219 21.70796875 -63.91824219 21.70796875 -62.4765625 19.93359375 C-60.68967094 17.51843438 -59.00678169 15.04999372 -57.328125 12.55859375 C-51.08431445 3.53206497 -43.12982534 -2.20116255 -32.41015625 -4.9921875 C-20.53624765 -6.72854932 -10.73925773 -5.35446042 0 0 Z M-38.453125 23.30859375 C-40.75364085 26.14730368 -42.74628564 29.10104573 -44.703125 32.18359375 C-49.43108701 39.45738146 -55.73717405 44.40055544 -63.765625 47.62109375 C-64.631875 47.96914063 -65.498125 48.3171875 -66.390625 48.67578125 C-71.58833233 50.13162057 -76.87075251 50.29032448 -82.24609375 50.56835938 C-89.8709123 51.15265882 -95.4433048 53.83116527 -100.640625 59.49609375 C-104.46429683 65.11914055 -104.82111261 69.78081196 -105.203125 76.43359375 C-105.98899318 88.81101755 -109.76410772 99.32105346 -119.078125 107.87109375 C-122.09448585 110.40422647 -125.2033359 112.61873336 -128.515625 114.74609375 C-133.83892969 118.17419048 -138.17859748 122.27298365 -139.765625 128.62109375 C-141.24547466 136.88894945 -138.16715219 142.85647824 -134.4921875 150.0078125 C-129.81954548 159.40090495 -129.15979064 170.59014329 -131.48828125 180.78515625 C-132.79605376 184.45962637 -134.40350458 187.89582707 -136.14453125 191.3828125 C-139.5852604 198.41131051 -141.29991678 204.04919201 -139.171875 211.77734375 C-136.30493101 218.67924596 -130.29719294 222.36002891 -124.203125 226.26171875 C-113.98610278 232.92770276 -108.31165819 241.65900487 -105.765625 253.62109375 C-105.40621482 257.47981628 -105.20527205 261.32438357 -105.02734375 265.1953125 C-104.48370547 272.31129411 -101.98330878 277.63026579 -96.765625 282.62109375 C-90.62189993 286.721277 -84.47133072 287.00648357 -77.2578125 287.36328125 C-65.79571015 288.20947673 -55.38501372 292.88120669 -47.765625 301.62109375 C-45.73226075 303.99335204 -43.90107657 306.41725241 -42.171875 309.01953125 C-38.04390726 315.19337774 -34.97739173 319.21717151 -27.765625 321.62109375 C-18.79871502 322.89176698 -12.63159849 320.48551611 -4.9375 316.3125 C4.1960737 311.44201057 15.40589983 311.03296907 25.359375 313.74609375 C29.18882706 315.04134959 32.56944259 316.86896757 36.109375 318.80859375 C42.95119841 322.33503486 49.05531935 322.975616 56.51953125 321.0234375 C63.58538817 318.09634841 67.32773701 311.53712832 71.359375 305.37109375 C77.52826771 296.32338444 87.01177123 290.60394761 97.55078125 288.0625 C100.68862928 287.54637653 103.74398783 287.47073635 106.921875 287.37109375 C114.58768404 286.82525604 120.93712341 285.40383024 126.14453125 279.4296875 C130.37950953 273.35254372 131.27834354 268.98652809 131.546875 261.62109375 C132.23125401 249.65390586 135.70340122 239.30508948 144.234375 230.62109375 C147.31312495 228.27978967 150.57016501 226.23471297 153.85327148 224.19458008 C159.79534782 220.45265965 163.97352029 216.40365787 166.234375 209.62109375 C168.18712787 200.09890709 163.1614881 191.84681044 159.08227539 183.56884766 C154.88084704 173.91753887 156.37885186 160.86472622 160.01171875 151.3203125 C161.22607049 148.63942736 162.57798792 146.08048027 163.984375 143.49609375 C166.94615863 137.77425789 167.44339183 132.61796117 165.5703125 126.42578125 C162.42298397 119.22797773 156.55718305 115.50293868 150.234375 111.24609375 C141.19232566 104.96193806 135.36192308 96.99577347 132.62109375 86.20703125 C132.15807771 83.11090382 132.04446668 80.06143285 131.921875 76.93359375 C131.34813341 68.7556353 130.0519996 61.76086163 123.734375 56.12109375 C119.98134151 53.18690393 116.6507291 51.43614222 111.85546875 51.12890625 C111.43865845 51.09752563 111.43865845 51.09752563 109.3293457 50.9387207 C108.45238037 50.87515381 107.57541504 50.81158691 106.671875 50.74609375 C92.74806058 49.51271691 82.57697172 45.8872121 73.046875 35.24609375 C70.89792341 32.61762403 69.06503148 29.85324237 67.234375 26.99609375 C63.38625793 21.11368562 59.32268149 17.21234623 52.234375 15.62109375 C44.44014239 14.72175922 37.98054963 18.10294324 31.296875 21.74609375 C21.71000039 26.5970523 10.42669961 26.58179206 0.2109375 23.796875 C-5.15973697 21.93553166 -9.88886571 19.50733904 -14.765625 16.62109375 C-23.55595174 13.32472122 -32.40454146 16.6191007 -38.453125 23.30859375 Z M-75.765625 309.62109375 C-76.21663574 310.59828369 -76.66764648 311.57547363 -77.13232422 312.58227539 C-83.48535156 326.34716797 -89.83837891 340.11206055 -96.19140625 353.87695312 C-96.58229431 354.72388229 -96.97318237 355.57081146 -97.37591553 356.44340515 C-98.15409828 358.12945763 -98.93229642 359.81550301 -99.71051025 361.50154114 C-101.6052213 365.60657299 -103.499675 369.71172319 -105.39355469 373.81713867 C-108.4758158 380.49804532 -111.55859068 387.17868319 -114.65402222 393.85350037 C-115.53109773 395.74478558 -116.40749426 397.63638389 -117.28369141 399.52807617 C-118.32605816 401.77766896 -119.36991393 404.02657263 -120.41552734 406.2746582 C-120.8636377 407.24234131 -121.31174805 408.21002441 -121.7734375 409.20703125 C-122.16160645 410.04282715 -122.54977539 410.87862305 -122.94970703 411.73974609 C-123.765625 413.62109375 -123.765625 413.62109375 -123.765625 414.62109375 C-123.02504349 414.62251877 -122.28446198 414.62394379 -121.5214386 414.62541199 C-114.53255117 414.64326223 -107.54416519 414.68493553 -100.55560017 414.75318432 C-96.96284496 414.78743503 -93.37051407 414.81256113 -89.77758789 414.81665039 C-86.30828392 414.82093776 -82.83993677 414.84943391 -79.37093163 414.89452553 C-77.40739946 414.91378305 -75.44367419 414.90814732 -73.48005676 414.90214539 C-64.54683086 415.04826994 -64.54683086 415.04826994 -60.61254883 417.93310547 C-60.00306396 418.8201416 -59.3935791 419.70717773 -58.765625 420.62109375 C-58.21181152 421.25007568 -57.65799805 421.87905762 -57.08740234 422.52709961 C-56.5970752 423.12401611 -56.10674805 423.72093262 -55.6015625 424.3359375 C-55.04178711 425.01575684 -54.48201172 425.69557617 -53.90527344 426.39599609 C-53.61410645 426.75282471 -53.61410645 426.75282471 -52.140625 428.55859375 C-51.53250977 429.30061035 -50.92439453 430.04262695 -50.29785156 430.80712891 C-35.86203835 448.47647372 -35.86203835 448.47647372 -31.765625 454.62109375 C-31.105625 454.62109375 -30.445625 454.62109375 -29.765625 454.62109375 C-20.85529911 434.66131058 -12.00673536 414.67641957 -3.30322266 394.62548828 C0.53162812 385.79535356 4.39862252 376.98075104 8.30859375 368.18359375 C9.5635387 365.35281359 10.81798694 362.52181377 12.07232666 359.69076538 C12.88375916 357.86375815 13.69781536 356.03791377 14.5145874 354.21328735 C15.64776559 351.68149475 16.77200311 349.14590349 17.89453125 346.609375 C18.23425461 345.85708618 18.57397797 345.10479736 18.92399597 344.32971191 C20.47584472 340.80097554 21.234375 338.53905967 21.234375 334.62109375 C16.90498637 332.45639944 11.9107729 332.97501246 7.234375 333.62109375 C3.22453837 335.02204599 -0.50693661 337.02179268 -4.29296875 338.9296875 C-15.09009035 344.188578 -26.32929368 343.76993826 -37.55859375 339.93359375 C-48.86625298 335.30585501 -54.65918555 328.61186211 -61.12109375 318.5 C-64.16879454 313.91365414 -66.8349097 311.86232798 -71.765625 309.62109375 C-73.085625 309.62109375 -74.405625 309.62109375 -75.765625 309.62109375 Z M91.234375 313.62109375 C88.50326804 316.71882791 86.38557251 320.10388583 84.234375 323.62109375 C77.79518229 333.82867764 68.0350577 339.46981576 56.421875 342.30859375 C53.42584769 342.60232192 50.54330733 342.65170883 47.53515625 342.640625 C46.54298096 342.63780518 45.55080566 342.63498535 44.52856445 342.63208008 C43.77148193 342.62845459 43.01439941 342.6248291 42.234375 342.62109375 C40.45602604 346.58625859 38.67787707 350.55151304 36.89990234 354.5168457 C36.29676536 355.86192161 35.69357654 357.20697427 35.09033203 358.55200195 C34.79884277 359.20193115 34.50735352 359.85186035 34.20703125 360.52148438 C33.91807983 361.16461578 33.62912842 361.80774719 33.3314209 362.47036743 C32.75733119 363.75345833 32.18708114 365.03827425 31.62072754 366.32479858 C30.43083279 369.01929897 29.21287498 371.66096639 27.81445312 374.25439453 C25.82843328 378.00386304 24.77199707 380.47370803 26.01953125 384.6328125 C26.72206592 386.31098902 27.46725249 387.97144092 28.234375 389.62109375 C28.75241699 390.81943848 29.27045898 392.0177832 29.80419922 393.25244141 C31.37566578 396.88018809 32.98983521 400.48744082 34.61547852 404.09118652 C36.41321752 408.07741413 38.19685445 412.0699368 39.98046875 416.0625 C40.15974411 416.46351425 40.15974411 416.46351425 41.06698608 418.4928894 C44.53003445 426.25410937 47.89969245 434.05399491 51.234375 441.87109375 C51.74411865 443.06581299 52.2538623 444.26053223 52.77905273 445.49145508 C53.93284287 448.20048555 55.08487751 450.91023965 56.234375 453.62109375 C59.234375 453.62109375 59.234375 453.62109375 60.68554688 452.28271484 C60.93594727 451.97116455 60.93594727 451.97116455 62.203125 450.39453125 C62.769104 449.69884033 63.33508301 449.00314941 63.91821289 448.28637695 C64.21787964 447.90848022 64.21787964 447.90848022 65.734375 445.99609375 C66.04403198 445.61271851 66.04403198 445.61271851 67.61108398 443.67260742 C69.49688469 441.33092014 71.36830448 438.97852455 73.234375 436.62109375 C73.77852051 435.9338623 74.32266602 435.24663086 74.88330078 434.53857422 C77.21106988 431.59183518 79.5276168 428.63690037 81.83203125 425.671875 C88.78030953 416.84812648 88.78030953 416.84812648 91.234375 415.62109375 C93.11282408 415.50127118 94.99538331 415.44380214 96.87744141 415.41577148 C98.05851471 415.39582626 99.23958801 415.37588104 100.45645142 415.35533142 C101.73668182 415.33861893 103.01691223 415.32190643 104.3359375 415.3046875 C105.64267426 415.2839064 106.94941101 415.26312531 108.29574585 415.24171448 C111.771064 415.18650081 115.24644153 415.1370885 118.72186279 415.08886719 C122.267754 415.03864698 125.8135589 414.98296363 129.359375 414.92773438 C136.3176335 414.82016147 143.27596996 414.71871458 150.234375 414.62109375 C148.47597867 409.0444144 146.49994706 403.74899115 143.96875 398.46484375 C143.65878082 397.81296082 143.34881165 397.16107788 143.02944946 396.48944092 C142.36459499 395.09192205 141.69755978 393.69543886 141.02850342 392.29992676 C139.2180636 388.52199488 137.42569914 384.73550477 135.6328125 380.94921875 C135.26463409 380.17237732 134.89645569 379.39553589 134.51712036 378.59515381 C130.7955052 370.72575549 127.19304004 362.80403848 123.609375 354.87109375 C116.61242908 339.39394515 109.45307798 323.99597175 102.234375 308.62109375 C98.45821681 308.62109375 94.25056144 311.62074458 91.234375 313.62109375 Z " fill="#000000" transform="translate(242.765625,15.37890625)"/>
<path d="M0 0 C4.1403898 1.47980598 7.58703856 3.51507353 11.25 5.9375 C11.77851563 6.28232422 11.77851563 6.28232422 14.453125 8.02734375 C17 10 17 10 18 13 C16.77901358 15.32955466 15.50691836 17.43751047 14.0625 19.625 C13.61793457 20.3166626 13.17336914 21.0083252 12.71533203 21.72094727 C11.70940035 23.28458478 10.69900874 24.84535875 9.68505859 26.40380859 C7.88733877 29.17357861 6.10797741 31.95450296 4.33203125 34.73828125 C0.92774235 40.07367298 -2.48644 45.40264583 -5.90332031 50.72998047 C-9.27237421 55.98441782 -12.63598699 61.24233454 -16 66.5 C-17.3333056 68.58335108 -18.66663897 70.66668439 -20 72.75 C-20.66 73.78125 -21.32 74.8125 -22 75.875 C-29.33333333 87.33333333 -36.66666667 98.79166667 -44 110.25 C-44.6607251 111.2824585 -45.3214502 112.31491699 -46.00219727 113.37866211 C-47.32792896 115.449966 -48.65393552 117.52109399 -49.98022461 119.59204102 C-53.0686438 124.41520274 -56.15452459 129.23991419 -59.23013306 134.07125854 C-60.30962883 135.76669923 -61.39003163 137.46155851 -62.47070312 139.15625 C-63.81885156 141.27099264 -65.16533466 143.38679831 -66.50976562 145.50390625 C-70.51708697 151.78497419 -74.67478624 157.93339082 -79 164 C-83.07867085 162.11479401 -86.02286778 159.38237095 -89.25 156.3125 C-90.41984774 155.21537208 -91.59041724 154.11901323 -92.76171875 153.0234375 C-93.32294434 152.49717773 -93.88416992 151.97091797 -94.46240234 151.42871094 C-96.29577592 149.72516979 -98.16804085 148.07271737 -100.0625 146.4375 C-103.43419107 143.52202083 -106.72142867 140.51924358 -110 137.5 C-113.30026876 134.46109823 -116.60949347 131.438439 -120 128.5 C-123.9308925 125.0932265 -127.75196573 121.56997215 -131.578125 118.046875 C-134.35494057 115.49444857 -137.14980717 112.97016712 -140 110.5 C-143.92378077 107.09939 -147.74013187 103.58472303 -151.55615234 100.06445312 C-155.13014761 96.77450663 -158.76430582 93.57020606 -162.4765625 90.4375 C-164 89 -164 89 -166 86 C-165.22914063 85.16855469 -164.45828125 84.33710938 -163.6640625 83.48046875 C-162.6509335 82.38291233 -161.63791863 81.28525056 -160.625 80.1875 C-160.37105469 79.91389648 -160.37105469 79.91389648 -159.0859375 78.52929688 C-156.84783697 76.09977985 -154.83620888 73.75431332 -153 71 C-149.59986814 71.5765441 -148.07329515 72.60997661 -145.75 75.125 C-143.35563714 77.62566649 -140.93675434 79.99128629 -138.3125 82.25 C-134.81285787 85.26716719 -131.39742911 88.36879723 -128 91.5 C-124.69986653 94.53904534 -121.3905024 97.56156459 -118 100.5 C-114.65498717 103.40086175 -111.38418429 106.37849623 -108.125 109.375 C-107.08984884 110.32552638 -106.05469261 111.27604723 -105.01953125 112.2265625 C-103.12039877 113.97060218 -101.22205308 115.71548403 -99.32421875 117.4609375 C-94.07319644 122.24647261 -88.68072687 126.73259406 -83 131 C-82.73461426 130.27973633 -82.46922852 129.55947266 -82.19580078 128.81738281 C-80.98090671 125.95501498 -79.55568431 123.53043923 -77.8671875 120.921875 C-77.23425781 119.93896484 -76.60132813 118.95605469 -75.94921875 117.94335938 C-75.26472656 116.88955078 -74.58023438 115.83574219 -73.875 114.75 C-72.78658294 113.06226468 -71.69817219 111.37452524 -70.61016846 109.68652344 C-69.48325416 107.9392741 -68.35454346 106.19319531 -67.22558594 104.44726562 C-63.79838146 99.14347993 -60.40074203 93.82077416 -57 88.5 C-55.66680545 86.41657785 -54.33347167 84.33324479 -53 82.25 C-52.34 81.21875 -51.68 80.1875 -51 79.125 C-43.66666667 67.66666667 -36.33333333 56.20833333 -29 44.75 C-28.3387915 43.71681641 -27.67758301 42.68363281 -26.99633789 41.61914062 C-25.67537816 39.55523192 -24.35425438 37.49142821 -23.03295898 35.42773438 C-19.89060523 30.51933662 -16.75002341 25.60982887 -13.61514282 20.69665527 C-12.12435971 18.36043005 -10.6326524 16.02479566 -9.14086914 13.68920898 C-8.08063672 12.02841022 -7.02175182 10.36675146 -5.96289062 8.70507812 C-5.32673828 7.70927734 -4.69058594 6.71347656 -4.03515625 5.6875 C-3.75353638 5.24599609 -3.75353638 5.24599609 -2.32836914 3.01171875 C-1 1 -1 1 0 0 Z " fill="#000000" transform="translate(330,113)"/>
</svg>
