<?xml version="1.0" encoding="UTF-8"?>
<!-- Generator: visioncortex VTracer 0.6.12 -->
<svg version="1.1" xmlns="http://www.w3.org/2000/svg" width="512" height="512">
<path d="M0 0 C2.171875 1.90234375 2.171875 1.90234375 4.296875 4.33984375 C12.82172684 11.93808126 25.00483386 14.67942419 36.171875 14.90234375 C49.4415123 13.71368328 62.59607242 10.01243043 75.55371094 7.06494141 C78.59648312 6.37470502 81.64172757 5.696387 84.6875 5.01953125 C85.60646057 4.80706757 86.52542114 4.59460388 87.472229 4.3757019 C101.55773381 1.2685055 101.55773381 1.2685055 107.171875 4.77734375 C110.49351326 8.3065844 110.53153928 10.95458648 110.43359375 15.6484375 C110.013894 19.26286671 108.99520646 20.61678971 106.171875 22.90234375 C99.36299061 25.48385225 92.12462296 26.88036478 85.01171875 28.34765625 C83.98180313 28.56300018 82.95188751 28.77834412 81.89076233 29.00021362 C79.72897338 29.45102457 77.56672876 29.89965547 75.40405273 30.34619141 C72.11369723 31.02645016 68.82535497 31.71587299 65.53710938 32.40625 C63.42459347 32.84560205 61.31196686 33.28442218 59.19921875 33.72265625 C58.22709946 33.92682159 57.25498016 34.13098694 56.25340271 34.34133911 C33.39484536 39.03229019 12.62379755 36.97075941 -7.47265625 24.57421875 C-9.93021326 22.82988309 -12.0251924 20.92002354 -14.203125 18.83984375 C-19.15339961 14.26565008 -24.48490173 12.01675151 -30.828125 9.90234375 C-31.19744141 9.77923828 -31.19744141 9.77923828 -33.06640625 9.15625 C-50.06914252 4.51331825 -65.58432831 9.82282792 -80.703125 17.40234375 C-81.98340032 18.03329587 -83.26417024 18.66324528 -84.54541016 19.29223633 C-88.31406931 21.14686622 -92.07206803 23.02235354 -95.828125 24.90234375 C-96.85421875 25.41458496 -97.8803125 25.92682617 -98.9375 26.45458984 C-102.58676949 28.27735509 -106.23482897 30.10242626 -109.87841797 31.93652344 C-116.15685912 35.09129897 -122.47971937 38.14117478 -128.828125 41.15234375 C-139.06276109 46.00863713 -149.19842665 51.05215107 -159.30859375 56.16113281 C-166.68767148 59.87728877 -174.11104212 63.48647987 -181.5703125 67.0390625 C-195.93204346 73.8798378 -210.19653228 80.91651928 -224.46679688 87.94555664 C-227.90169404 89.63690345 -231.3375296 91.32633262 -234.7734375 93.015625 C-235.79349884 93.51886795 -236.81356018 94.0221109 -237.86453247 94.54060364 C-245.13339509 98.1134061 -252.46112396 101.5367604 -259.828125 104.90234375 C-246.44893086 121.80237845 -226.01449871 131.82580902 -204.80078125 134.65625 C-189.89877011 135.88992503 -176.16513474 133.97016787 -162.1328125 129 C-161.28599411 128.70198486 -160.43917572 128.40396973 -159.56669617 128.09692383 C-151.88648895 125.35403837 -144.30385089 122.37497754 -136.72265625 119.37109375 C-136.10928658 119.12883308 -136.10928658 119.12883308 -133.00526428 117.90284729 C-122.66866093 113.81849099 -122.66866093 113.81849099 -117.76147461 111.84179688 C-115.21989049 110.8185601 -112.67456249 109.80594442 -110.12419128 108.80480957 C-107.75175546 107.87331124 -105.38503391 106.92707705 -103.02534485 105.96374512 C-102.48737022 105.754776 -102.48737022 105.754776 -99.76489258 104.69726562 C-98.8326033 104.32533081 -97.90031403 103.953396 -96.93977356 103.57019043 C-92.4019733 102.59625177 -89.23402411 102.15447699 -84.828125 103.90234375 C-80.01580334 107.54661248 -75.89832694 111.82069233 -71.68920898 116.13305664 C-70.38912475 117.43539886 -69.08727359 118.73597925 -67.78379822 120.03492737 C-64.2580429 123.55839051 -60.7574714 127.10594501 -57.26093936 130.65837789 C-53.59978231 134.36959808 -49.91590615 138.05812514 -46.23439026 141.74913025 C-39.26991532 148.73845453 -32.32608142 155.7479175 -25.38945109 162.76486534 C-17.48987823 170.75390557 -9.56753464 178.72019925 -1.64320648 186.68467343 C14.65393193 203.06539729 30.9222982 219.47444762 47.171875 235.90234375 C49.63987547 234.7506102 51.21971065 233.8545081 53.171875 231.90234375 C55.80072669 231.31946181 58.37499231 230.84226502 61.03125 230.4296875 C61.81324768 230.3017128 62.59524536 230.1737381 63.40093994 230.04188538 C65.90675301 229.63358532 68.41420505 229.2365631 70.921875 228.83984375 C72.59647487 228.5691049 74.27095577 228.29762911 75.9453125 228.02539062 C79.71587246 227.41356648 83.48770479 226.81016323 87.26013184 226.2099762 C89.02913607 225.9253129 90.7963974 225.62987491 92.56347656 225.33349609 C97.95739352 224.44191454 101.70433019 224.10186476 106.609375 226.77734375 C109.2943241 229.00388691 110.02649587 229.72892651 110.4453125 233.109375 C110.47882812 233.96917969 110.51234375 234.82898438 110.546875 235.71484375 C110.59585938 236.56691406 110.64484375 237.41898438 110.6953125 238.296875 C109.92116879 242.15026196 108.24847946 243.5234838 105.171875 245.90234375 C102.54898982 246.68802782 100.34743427 247.17830317 97.671875 247.52734375 C96.94645508 247.64013672 96.22103516 247.75292969 95.47363281 247.86914062 C91.17868473 248.52433287 86.86954851 249.07548057 82.5625 249.64453125 C81.62470703 249.77134277 80.68691406 249.8981543 79.72070312 250.02880859 C77.88769755 250.27344385 76.05303107 250.50600906 74.21679688 250.72509766 C69.54144728 251.3340343 66.01158772 251.95760166 62.171875 254.90234375 C61.57246094 255.30710937 60.97304688 255.711875 60.35546875 256.12890625 C58.4551854 258.9761955 59.04274421 261.99537783 59.234375 265.27734375 C59.60673666 278.85623473 55.08178191 289.60010745 45.984375 299.58984375 C36.26584047 308.83535226 25.65007041 311.17813322 12.734375 310.97265625 C12.3115625 310.96105469 12.3115625 310.96105469 10.171875 310.90234375 C10.20667969 311.72476562 10.24148438 312.5471875 10.27734375 313.39453125 C10.60445937 326.88415645 7.20863574 337.69313038 -2.140625 347.71484375 C-5.95342132 351.27624691 -10.11591624 353.70706561 -14.828125 355.90234375 C-15.48039062 356.22332031 -16.13265625 356.54429687 -16.8046875 356.875 C-24.64839418 360.13059254 -36.75904181 360.52850206 -44.828125 357.90234375 C-44.745625 358.80984375 -44.663125 359.71734375 -44.578125 360.65234375 C-44.64399679 371.52118832 -50.46290728 381.30058336 -57.77734375 388.9375 C-67.98691281 398.38486155 -78.70716847 400.22015164 -92.21875 400.0703125 C-94.98741923 399.9414675 -97.21615368 399.74382936 -99.828125 398.90234375 C-99.84230469 399.485 -99.85648437 400.06765625 -99.87109375 400.66796875 C-100.57908779 412.83781222 -105.82234734 423.26050259 -114.6328125 431.61328125 C-124.72986235 439.86688631 -137.03007946 442.80337955 -149.828125 441.90234375 C-163.11656252 439.87907197 -172.47420918 433.27156876 -181.828125 423.90234375 C-182.13427734 423.47695313 -182.13427734 423.47695313 -183.68359375 421.32421875 C-186.40455772 417.7561093 -188.5666254 415.208516 -193.20849609 414.58007812 C-197.02224667 414.44067567 -200.77679743 414.51795239 -204.58300781 414.79467773 C-214.80853756 415.46551427 -222.73488648 411.99825848 -230.5703125 405.4453125 C-236.21850125 400.26982624 -240.43262201 393.52619692 -241.828125 385.90234375 C-241.89437007 384.15347394 -241.91365095 382.40231627 -241.890625 380.65234375 C-241.88160156 379.7603125 -241.87257812 378.86828125 -241.86328125 377.94921875 C-241.85748047 377.61148438 -241.85748047 377.61148438 -241.828125 375.90234375 C-242.41078125 375.96035156 -242.9934375 376.01835937 -243.59375 376.078125 C-253.54748049 376.62589319 -261.57584957 373.13864478 -269.203125 366.83984375 C-277.86319028 358.41646835 -280.72618311 348.68172252 -281.828125 336.90234375 C-282.50617188 336.8765625 -283.18421875 336.85078125 -283.8828125 336.82421875 C-297.30746118 336.00609612 -305.52210656 331.06480933 -314.4609375 321.078125 C-320.00478046 313.95744048 -321.29542249 305.70111962 -321.828125 296.90234375 C-322.50617188 296.8765625 -323.18421875 296.85078125 -323.8828125 296.82421875 C-337.30746118 296.00609612 -345.52210656 291.06480933 -354.4609375 281.078125 C-360.00583034 273.95609198 -361.01632147 266.87815832 -360.90234375 258.08203125 C-360.89698608 257.2943335 -360.89162842 256.50663574 -360.8861084 255.69506836 C-360.87220084 253.76411351 -360.85090538 251.83321431 -360.828125 249.90234375 C-361.3603064 249.80679199 -361.3603064 249.80679199 -364.0534668 249.32324219 C-368.01659192 248.60760201 -371.97588048 247.87239715 -375.93432617 247.13134766 C-377.6452618 246.81385445 -379.35718127 246.50161485 -381.07006836 246.19482422 C-383.5377959 245.75188038 -386.00132084 245.28991093 -388.46484375 244.82421875 C-388.84566856 244.75798309 -388.84566856 244.75798309 -390.77287292 244.42279053 C-395.39188086 243.52611646 -398.438505 242.38337568 -401.828125 238.90234375 C-402.4921875 235.80859375 -402.4921875 235.80859375 -402.453125 232.40234375 C-402.46601563 231.27828125 -402.47890625 230.15421875 -402.4921875 228.99609375 C-401.828125 225.90234375 -401.828125 225.90234375 -399.8515625 223.49609375 C-393.62504095 220.21389634 -386.14967873 221.97373697 -379.46875 223.25 C-377.92578577 223.52801985 -376.38281688 223.8060139 -374.83984375 224.08398438 C-372.44760698 224.52491901 -370.05597165 224.96896921 -367.66455078 225.41430664 C-365.3297607 225.84627851 -362.99317445 226.26725421 -360.65625 226.6875 C-359.94470764 226.82390396 -359.23316528 226.96030792 -358.50006104 227.10084534 C-354.6659068 227.7873728 -351.57269834 228.07648597 -347.828125 226.90234375 C-346.08984375 225.484375 -346.08984375 225.484375 -344.515625 223.71484375 C-336.96747454 215.75912577 -327.77457576 209.48495613 -316.578125 208.6640625 C-304.33782201 208.4218065 -294.58600117 210.36223243 -285.08984375 218.55859375 C-278.17819959 225.72091931 -273.7811756 233.80253653 -273.703125 243.83984375 C-273.73478131 245.1942814 -273.77287274 246.54866334 -273.828125 247.90234375 C-272.93351563 247.98871094 -272.03890625 248.07507813 -271.1171875 248.1640625 C-259.3047696 249.53672087 -249.93541535 252.90777485 -241.828125 261.90234375 C-235.81056118 270.20658181 -233.41174867 277.70112365 -233.828125 287.90234375 C-233.17328125 287.91652344 -232.5184375 287.93070312 -231.84375 287.9453125 C-220.43323849 288.54162454 -211.30837405 292.354742 -203.02734375 300.2890625 C-197.65692016 306.6706138 -193.65645193 314.68351763 -193.765625 323.08984375 C-193.77464844 323.99089844 -193.78367188 324.89195312 -193.79296875 325.8203125 C-193.79876953 326.16384766 -193.79876953 326.16384766 -193.828125 327.90234375 C-192.57 327.81984375 -191.311875 327.73734375 -190.015625 327.65234375 C-180.20577254 327.698544 -171.71416586 332.09425807 -164.828125 338.90234375 C-156.63683061 348.52791148 -154.04475203 357.45617997 -154.47265625 369.94921875 C-155.65661851 383.11591998 -163.18032298 391.55236977 -171.828125 400.90234375 C-157.52118513 418.00088164 -157.52118513 418.00088164 -146.390625 419.83984375 C-139.91651 420.29749671 -134.85185704 418.23877057 -129.515625 414.71484375 C-124.39259101 409.35352911 -122.18785496 403.81712287 -121.734375 396.4140625 C-121.96707805 390.17955992 -124.09490229 385.60603037 -128.015625 380.83984375 C-130.17290878 378.12705939 -131.30358856 376.26931894 -131.515625 372.77734375 C-130.6650154 367.98299874 -129.52849757 366.06307865 -125.828125 362.90234375 C-121.44034935 361.18578717 -118.52777506 361.61283338 -114.203125 363.40234375 C-111.62875131 365.07800591 -109.86027058 366.94543295 -107.953125 369.33984375 C-103.65112304 374.64602654 -98.0791941 377.79483852 -91.328125 378.90234375 C-84.78479185 379.27852841 -79.18826506 377.23678465 -74.015625 373.27734375 C-68.99683994 368.53867692 -66.6740917 362.81203551 -66.265625 355.96484375 C-66.52764526 349.50503653 -69.45399849 343.83905948 -73.4765625 338.86328125 C-75.67464838 335.67415088 -75.25898014 332.63385703 -74.828125 328.90234375 C-73.95042935 325.95009473 -73.0555856 325.08431223 -70.640625 323.15234375 C-67.04390399 321.55380108 -64.73441489 321.42262394 -60.828125 321.90234375 C-56.81269514 323.95277602 -54.10849709 326.64727474 -51.078125 329.90234375 C-46.26779846 334.79497626 -41.14055592 337.71152822 -34.1796875 338.01953125 C-27.77210589 337.57696555 -23.12561045 335.87161699 -18.203125 331.65234375 C-12.50378938 325.05311303 -11.15691435 320.79683271 -11.4375 312.05859375 C-12.1538325 306.27062712 -14.59068064 302.47423254 -18.140625 297.96484375 C-20.48670238 293.70714776 -20.15712193 290.5013726 -18.828125 285.90234375 C-17.12377775 283.061765 -15.91980858 282.19413955 -12.73828125 281.34375 C-9.04673871 280.74794363 -6.60030373 280.5611485 -3.140625 282.08984375 C-2.3775 282.68796875 -1.614375 283.28609375 -0.828125 283.90234375 C6.36573137 288.79416608 11.52907677 289.67108057 20.171875 288.90234375 C26.35634331 287.19982013 30.7055925 283.21215866 34.171875 277.90234375 C35.95346433 274.21713842 36.49336018 271.17302478 36.546875 267.08984375 C36.57523437 266.11402344 36.60359375 265.13820313 36.6328125 264.1328125 C35.4172249 255.61339774 30.10662165 250.27355602 24.2097168 244.50195312 C23.41083038 243.7040889 22.61194397 242.90622467 21.78884888 242.08418274 C19.15883109 239.46201684 16.51504791 236.85420029 13.87109375 234.24609375 C12.03175267 232.41676378 10.19337283 230.58646684 8.35591125 228.75524902 C4.01537784 224.43348599 -0.33358031 220.12038285 -4.68716353 215.81177092 C-12.93465446 207.64860211 -21.16087242 199.46400668 -29.38863182 191.28096008 C-32.08365092 188.60355333 -34.78289294 185.93046689 -37.48298645 183.25817871 C-39.14797437 181.60642004 -40.81290938 179.95460805 -42.4777832 178.30273438 C-43.22244339 177.56795364 -43.96710358 176.83317291 -44.73432922 176.0761261 C-48.77077639 172.06500514 -52.61214982 167.95177162 -56.32634258 163.64045143 C-58.04012692 161.65698053 -59.81481597 159.74537896 -61.6328125 157.85717773 C-61.961604 157.51551323 -61.961604 157.51551323 -63.62548828 155.78648376 C-66.57283175 152.75344308 -69.53099599 149.73129305 -72.49804688 146.7175293 C-74.05950724 145.12416567 -75.61284845 143.52280719 -77.15820312 141.91381836 C-79.40428067 139.57684398 -81.6752136 137.26684077 -83.953125 134.9609375 C-84.63874512 134.23716415 -85.32436523 133.51339081 -86.03076172 132.76768494 C-90.86521299 127.95252082 -90.86521299 127.95252082 -95.20141602 127.7265625 C-99.78735502 129.2133267 -104.26432253 130.84163204 -108.73046875 132.65625 C-110.68179191 133.43297155 -112.63312698 134.20966315 -114.58447266 134.98632812 C-115.5953595 135.39197998 -116.60624634 135.79763184 -117.64776611 136.21557617 C-145.89262903 147.53276299 -145.89262903 147.53276299 -158.953125 151.90234375 C-159.81800537 152.1969751 -160.68288574 152.49160645 -161.57397461 152.79516602 C-172.09521392 156.2085652 -182.55503521 157.27256921 -193.578125 157.21484375 C-194.71628662 157.2092041 -195.85444824 157.20356445 -197.02709961 157.19775391 C-226.22792052 156.77885143 -252.2317416 144.77254708 -273.21484375 124.63671875 C-278.08819144 119.53755077 -281.41423304 114.09054269 -281.8984375 106.94140625 C-281.62576237 99.03382736 -279.21721197 93.14215609 -273.43359375 87.61328125 C-268.76644381 83.80486426 -263.27709305 81.39802213 -257.890625 78.77734375 C-256.73981445 78.20967285 -255.58900391 77.64200195 -254.40332031 77.05712891 C-246.05313214 72.95083615 -237.66301091 68.9279537 -229.2565918 64.93823242 C-221.65763934 61.32518295 -214.12615489 57.58674938 -206.62207031 53.78076172 C-201.78820863 51.33948365 -196.91901035 49.00193933 -191.99853516 46.73950195 C-190.83955719 46.20613724 -189.68057922 45.67277252 -188.48648071 45.12324524 C-187.60922333 44.72034775 -186.73196594 44.31745026 -185.828125 43.90234375 C-187.07930618 43.93866913 -188.33048737 43.97499451 -189.61958313 44.01242065 C-245.63498119 45.56718078 -299.61191316 46.40710649 -354.140625 32.02734375 C-355.11524815 31.7712307 -356.08987129 31.51511765 -357.09402847 31.25124359 C-398.16828125 20.39210937 -398.16828125 20.39210937 -401.828125 14.90234375 C-402.51824848 10.61561519 -403.00814283 5.93700685 -400.765625 2.0703125 C-397.61805006 -0.89764539 -394.54165354 -1.55041974 -390.34216309 -1.44335938 C-385.32673745 -0.75369269 -380.62733353 1.13932987 -375.86143303 2.79085732 C-324.81358157 20.09741365 -274.05319069 22.0975483 -220.70323181 22.08535767 C-216.07962399 22.0856682 -211.45647518 22.10926664 -206.832982 22.14007646 C-197.02718501 22.20467485 -187.22617162 22.17945789 -177.42089653 22.05890846 C-174.11696662 22.01944562 -170.81491367 22.00752153 -167.51078987 22.02155113 C-145.87687512 22.0796799 -130.59152642 18.84199551 -111.87955284 7.66565895 C-106.88291571 4.7782742 -101.67642868 2.34778438 -96.453125 -0.09765625 C-95.4626073 -0.56676265 -94.4720896 -1.03586905 -93.45155621 -1.51919079 C-90.9143002 -2.72050292 -88.37229334 -3.91106438 -85.828125 -5.09765625 C-85.12494141 -5.42765625 -84.42175781 -5.75765625 -83.69726562 -6.09765625 C-56.76959518 -18.62969144 -24.48809314 -18.16312986 0 0 Z M-337.953125 248.90234375 C-340.52313299 253.42958202 -340.70590996 257.83437775 -339.828125 262.90234375 C-338.21105892 267.81061492 -335.12074409 271.173498 -330.81640625 273.95703125 C-325.93755258 276.27664341 -321.6792038 276.48246653 -316.5625 274.87890625 C-311.74349796 272.66371983 -308.26848354 269.00212728 -304.578125 265.27734375 C-303.87171875 264.60316406 -303.1653125 263.92898438 -302.4375 263.234375 C-297.85838817 258.66393573 -294.89245513 254.38431997 -293.828125 247.90234375 C-294.16832688 241.50158709 -297.15336977 237.13989166 -301.828125 232.90234375 C-316.30066762 222.93236995 -329.83034748 237.55806807 -337.953125 248.90234375 Z M-296.828125 286.90234375 C-299.86207119 291.39732259 -301.42358005 295.35062952 -300.49609375 300.8828125 C-298.70822134 306.84623209 -294.96536872 310.53911225 -289.828125 313.90234375 C-285.60642036 315.99657518 -282.10818164 316.25677625 -277.59765625 314.90234375 C-272.04284374 312.93137307 -268.4917421 309.45495723 -264.453125 305.27734375 C-263.75574219 304.60316406 -263.05835938 303.92898438 -262.33984375 303.234375 C-257.82339131 298.66590967 -254.89707434 294.32963775 -253.828125 287.90234375 C-254.1668897 281.50195885 -257.15406793 277.13925879 -261.828125 272.90234375 C-276.06262437 263.0963553 -287.79165494 276.83504673 -296.828125 286.90234375 Z M-256.828125 326.90234375 C-259.86207119 331.39732259 -261.42358005 335.35062952 -260.49609375 340.8828125 C-258.6981038 346.87997899 -254.77606093 350.27805947 -249.828125 353.90234375 C-247.37840876 355.12720187 -245.68578039 355.06957183 -242.953125 355.08984375 C-242.08945313 355.10402344 -241.22578125 355.11820312 -240.3359375 355.1328125 C-236.74505806 354.80280956 -234.71431698 353.80119562 -232.1875 351.23828125 C-231.65640625 350.59117187 -231.1253125 349.9440625 -230.578125 349.27734375 C-226.40588822 344.34079636 -221.9064186 339.74329228 -217.15625 335.359375 C-214.546182 332.49597687 -214.3665104 328.91110761 -214.421875 325.16015625 C-215.34455307 320.03219544 -218.63575719 315.84937517 -222.46875 312.4453125 C-236.43819978 303.20850342 -248.15123657 317.2356473 -256.828125 326.90234375 Z M-203.828125 353.90234375 C-214.828125 364.90234375 -214.828125 364.90234375 -217.609375 367.44140625 C-220.62833047 370.78989559 -220.74061461 373.04515287 -220.9609375 377.40625 C-220.69100296 382.47943146 -218.73214299 385.79743287 -215.578125 389.65234375 C-211.30493942 393.1485865 -207.36047174 395.27760848 -201.765625 394.83984375 C-194.8778837 394.00981996 -189.79575118 388.20944053 -185.140625 383.52734375 C-184.57279297 382.975625 -184.00496094 382.42390625 -183.41992188 381.85546875 C-179.01295734 377.45367065 -175.40259486 372.98841769 -175.390625 366.46484375 C-175.60183704 361.00088014 -177.49822424 357.25049439 -181.32421875 353.39453125 C-185.31512115 349.91119998 -188.49464679 348.73314988 -193.703125 348.52734375 C-194.12464844 348.50285156 -194.12464844 348.50285156 -196.2578125 348.37890625 C-199.96456653 349.13377713 -201.33331337 351.11402487 -203.828125 353.90234375 Z " fill="#000000" transform="translate(401.828125,56.09765625)"/>
</svg>
