<?xml version="1.0" encoding="UTF-8"?>
<!-- Generator: visioncortex VTracer 0.6.12 -->
<svg version="1.1" xmlns="http://www.w3.org/2000/svg" width="512" height="512">
<path d="M0 0 C2.67814128 2.46739961 5.29485318 4.99510874 7.90722656 7.53173828 C8.48069824 8.07942871 9.05416992 8.62711914 9.64501953 9.19140625 C17.69597852 16.8908909 24.99754603 24.85891546 31.63232422 33.8125 C32.86993636 35.4814515 34.12776476 37.13351381 35.38769531 38.78564453 C58.08005465 69.03311337 72.0138823 105.36185414 77.90722656 142.53173828 C77.97216309 142.93013916 77.97216309 142.93013916 78.30078125 144.94628906 C87.49808608 204.18775254 70.90461913 267.60732277 35.71582031 315.76220703 C28.97067953 324.85563939 21.70698549 333.33450816 13.90722656 341.53173828 C13.6375708 341.81573486 13.6375708 341.81573486 12.27294922 343.25292969 C4.56823705 351.30937387 -3.41434167 358.61790141 -12.37353516 365.25683594 C-14.04248666 366.49444808 -15.69454897 367.75227648 -17.34667969 369.01220703 C-66.43078389 405.83625125 -130.43930817 419.96888976 -190.78027344 411.57080078 C-240.00019297 403.90115409 -284.10501452 381.77450559 -320.09277344 347.53173828 C-320.37677002 347.26208252 -320.37677002 347.26208252 -321.81396484 345.89746094 C-329.87040903 338.19274877 -337.17893657 330.21017005 -343.81787109 321.25097656 C-345.05548324 319.58202506 -346.31331163 317.92996275 -347.57324219 316.27783203 C-370.26560152 286.03036319 -384.19942918 249.70162242 -390.09277344 212.53173828 C-390.22264648 211.73493652 -390.35251953 210.93813477 -390.48632812 210.1171875 C-399.68363296 150.87572402 -383.090166 87.45615379 -347.90136719 39.30126953 C-341.15622641 30.20783717 -333.89253236 21.72896841 -326.09277344 13.53173828 C-325.55346191 12.96374512 -325.01415039 12.39575195 -324.45849609 11.81054688 C-316.75378393 3.75410269 -308.77120521 -3.55442485 -299.81201172 -10.19335938 C-298.14306022 -11.43097152 -296.49099791 -12.68879991 -294.83886719 -13.94873047 C-264.2541345 -36.89411304 -227.69397829 -50.72752259 -190.09277344 -56.46826172 C-189.26970703 -56.59813477 -188.44664062 -56.72800781 -187.59863281 -56.86181641 C-121.04208593 -66.93844373 -49.86197391 -44.87577652 0 0 Z M-312.09277344 29.53173828 C-351.70093337 69.50607534 -371.17764453 126.48730632 -371.08886719 181.97314453 C-370.39197507 241.60719829 -343.22167919 294.76126526 -301.53417969 336.06689453 C-259.95618335 374.70007494 -203.28992946 393.91224879 -147.00585938 392.44018555 C-88.58999909 389.99060882 -34.9329787 363.19744467 4.59472656 320.65673828 C42.04517003 277.51495162 61.77743895 221.40923134 58.58276367 164.26953125 C54.45679696 106.88771935 28.2364164 52.61269623 -15.36621094 14.76220703 C-88.30081227 -44.90205853 -193.55933038 -56.20626759 -312.09277344 29.53173828 Z " fill="#000000" transform="translate(412.0927734375,78.46826171875)"/>
<path d="M0 0 C13.69259185 10.15504563 21.71784845 23.83374106 24.609375 40.515625 C28.08735518 71.53920823 11.72959077 94.46968156 -6.58984375 117.8828125 C-18.12160099 132.79746773 -27.03967646 145.09302911 -27.5625 164.4375 C-27.62213166 166.41549471 -27.68570908 168.39337583 -27.75390625 170.37109375 C-27.77783447 171.23661865 -27.8017627 172.10214355 -27.82641602 172.99389648 C-28 175 -28 175 -29 176 C-33.25706653 176.24189961 -37.51978162 176.22849951 -41.78295898 176.24023438 C-43.92536161 176.24994498 -46.06680697 176.28095753 -48.20898438 176.3125 C-49.56509845 176.31902936 -50.92121941 176.3242801 -52.27734375 176.328125 C-53.51734131 176.3374707 -54.75733887 176.34681641 -56.03491211 176.35644531 C-57.01339111 176.23881836 -57.99187012 176.12119141 -59 176 C-64.54288584 167.68567125 -60.78360005 150.58166539 -59 141 C-56.91119523 132.49905035 -51.6236713 125.87635315 -46.47558594 118.98632812 C-43.83892933 115.43704981 -41.26926336 111.83929022 -38.6875 108.25 C-35.31926883 103.57737294 -31.9405943 98.91330998 -28.52734375 94.2734375 C-16.67269933 78.11475942 -7.15668276 64.80015929 -9 44 C-10.5926653 36.78560542 -14.31983179 30.72841097 -20 26 C-30.72172528 19.3942659 -40.72876084 17.4709152 -53 20.125 C-62.32750261 22.6968781 -68.22625708 27.18804204 -73.50390625 35.28125 C-75.91955854 39.67105156 -77.43815751 44.25662652 -79 49 C-79.95029234 51.35934651 -80.96682464 53.67535544 -82 56 C-88.13608046 56.25460915 -93.79922061 55.29528626 -99.8125 54.125 C-100.76576172 53.95097656 -101.71902344 53.77695313 -102.70117188 53.59765625 C-103.61060547 53.42363281 -104.52003906 53.24960938 -105.45703125 53.0703125 C-106.28178955 52.91320801 -107.10654785 52.75610352 -107.95629883 52.59423828 C-110 52 -110 52 -112 50 C-111.50112966 32.51019282 -102.42357708 16.39629474 -90.08203125 4.578125 C-65.76404604 -16.60078674 -26.57306617 -16.44247919 0 0 Z " fill="#000000" transform="translate(301,139)"/>
<path d="M0 0 C1.28068359 -0.00257813 2.56136719 -0.00515625 3.88085938 -0.0078125 C4.21412231 -0.00571777 4.21412231 -0.00571777 5.90063477 0.00488281 C7.9308067 0.01556921 9.96009023 0.00498821 11.99023438 -0.0078125 C13.27220703 -0.00523437 14.55417969 -0.00265625 15.875 0 C17.0498999 0.00225586 18.2247998 0.00451172 19.43530273 0.00683594 C22.36572903 0.2539719 24.03362386 0.73363155 26.50390625 2.265625 C26.52858709 7.35595341 26.54675707 12.44624715 26.55883789 17.53662109 C26.56387307 19.26904914 26.57070157 21.00147292 26.5793457 22.73388672 C26.5914469 25.22103933 26.59714263 27.70813587 26.6015625 30.1953125 C26.60672379 30.97244598 26.61188507 31.74957947 26.61720276 32.55026245 C26.61777796 38.03788159 26.61777796 38.03788159 25.50390625 40.265625 C20.68009823 40.2902769 15.85632658 40.30846193 11.0324707 40.32055664 C9.39021161 40.32559674 7.74795702 40.33242878 6.10571289 40.34106445 C3.75015146 40.35314426 1.39464916 40.35885639 -0.9609375 40.36328125 C-1.69948471 40.36844254 -2.43803192 40.37360382 -3.19895935 40.37892151 C-4.96507463 40.3791175 -6.73106521 40.32757219 -8.49609375 40.265625 C-10.54296715 38.2187516 -9.68422478 33.9595778 -9.69921875 31.14453125 C-9.70491882 30.32943588 -9.7106189 29.51434052 -9.7164917 28.67454529 C-9.72595502 26.94702458 -9.73248095 25.21948571 -9.73632812 23.49194336 C-9.74604062 20.84261774 -9.77705339 18.19406542 -9.80859375 15.54492188 C-9.81512278 13.86979629 -9.82037364 12.19466514 -9.82421875 10.51953125 C-9.83656555 9.72366104 -9.84891235 8.92779083 -9.8616333 8.10780334 C-9.85253906 5.87329102 -9.85253906 5.87329102 -9.49609375 2.265625 C-5.90746612 -0.12679342 -4.26246641 0.00819199 0 0 Z " fill="#000000" transform="translate(248.49609375,341.734375)"/>
</svg>
