<?xml version="1.0" encoding="UTF-8"?>
<!-- Generator: visioncortex VTracer 0.6.12 -->
<svg version="1.1" xmlns="http://www.w3.org/2000/svg" width="512" height="512">
<path d="M0 0 C2.92643237 1.32856194 5.0700763 2.79564177 7.390625 5.01171875 C7.70205444 5.30639038 7.70205444 5.30639038 9.27807617 6.79760742 C9.92881104 7.42127197 10.5795459 8.04493652 11.25 8.6875 C12.60462334 9.96964379 13.96008243 11.25090521 15.31640625 12.53125 C15.63810791 12.83546875 15.63810791 12.83546875 17.26611328 14.375 C19.77903665 16.73011377 22.37052164 18.98443584 24.98046875 21.23046875 C27.69486193 23.6088442 30.34572387 26.05508905 33 28.5 C36.30022784 31.53894492 39.60949474 34.56156211 43 37.5 C46.9308925 40.9067735 50.75196573 44.43002785 54.578125 47.953125 C57.35494057 50.50555143 60.14980717 53.02983288 63 55.5 C66.9308925 58.9067735 70.75196573 62.43002785 74.578125 65.953125 C77.35494057 68.50555143 80.14980717 71.02983288 83 73.5 C86.9308925 76.9067735 90.75196573 80.43002785 94.578125 83.953125 C97.35494057 86.50555143 100.14980717 89.02983288 103 91.5 C106.9308925 94.9067735 110.75196573 98.43002785 114.578125 101.953125 C117.35494057 104.50555143 120.14980717 107.02983288 123 109.5 C126.9308925 112.9067735 130.75196573 116.43002785 134.578125 119.953125 C137.35494057 122.50555143 140.14980717 125.02983288 143 127.5 C146.9308925 130.9067735 150.75196573 134.43002785 154.578125 137.953125 C157.35494057 140.50555143 160.14980717 143.02983288 163 145.5 C166.9308925 148.9067735 170.75196573 152.43002785 174.578125 155.953125 C177.35494057 158.50555143 180.14980717 161.02983288 183 163.5 C186.9308925 166.9067735 190.75196573 170.43002785 194.578125 173.953125 C197.35494057 176.50555143 200.14980717 179.02983288 203 181.5 C206.39050908 184.4384412 209.69964934 187.46118463 213 190.5 C217.60580537 194.73945888 222.27339354 198.89606026 227 203 C228.66974815 204.45480412 230.33638217 205.91318962 232 207.375 C232.763125 208.04273438 233.52625 208.71046875 234.3125 209.3984375 C234.869375 209.92695313 235.42625 210.45546875 236 211 C236 211.33 236 211.66 236 212 C214.88 212 193.76 212 172 212 C172 275.36 172 338.72 172 404 C122.5 404 73 404 22 404 C22 361.76 22 319.52 22 276 C8.14 276 -5.72 276 -20 276 C-20 318.24 -20 360.48 -20 404 C-69.5 404 -119 404 -170 404 C-170 340.64 -170 277.28 -170 212 C-191.12 212 -212.24 212 -234 212 C-228.4124847 205.29498164 -228.4124847 205.29498164 -225.4375 202.8125 C-221.88579641 199.78448806 -218.42957308 196.66489426 -215 193.5 C-211.09062304 189.89940146 -207.14132382 186.35581398 -203.125 182.875 C-200.38176582 180.45449925 -197.69115432 177.97799358 -195 175.5 C-191.09018405 171.89987244 -187.14133532 168.35582395 -183.125 164.875 C-180.38176582 162.45449925 -177.69115432 159.97799358 -175 157.5 C-171.09018405 153.89987244 -167.14133532 150.35582395 -163.125 146.875 C-160.38176582 144.45449925 -157.69115432 141.97799358 -155 139.5 C-151.09018405 135.89987244 -147.14133532 132.35582395 -143.125 128.875 C-140.38176582 126.45449925 -137.69115432 123.97799358 -135 121.5 C-131.09018405 117.89987244 -127.14133532 114.35582395 -123.125 110.875 C-120.38176582 108.45449925 -117.69115432 105.97799358 -115 103.5 C-111.09018405 99.89987244 -107.14133532 96.35582395 -103.125 92.875 C-100.38176582 90.45449925 -97.69115432 87.97799358 -95 85.5 C-91.09018405 81.89987244 -87.14133532 78.35582395 -83.125 74.875 C-80.38176582 72.45449925 -77.69115432 69.97799358 -75 67.5 C-71.09018405 63.89987244 -67.14133532 60.35582395 -63.125 56.875 C-60.38176582 54.45449925 -57.69115432 51.97799358 -55 49.5 C-51.09018405 45.89987244 -47.14133532 42.35582395 -43.125 38.875 C-40.38176582 36.45449925 -37.69115432 33.97799358 -35 31.5 C-31.09018405 27.89987244 -27.14133532 24.35582395 -23.125 20.875 C-19.85385288 17.98869372 -16.65480306 15.02403072 -13.44604492 12.06884766 C-9.82074526 8.736051 -6.14929062 5.46460348 -2.42578125 2.2421875 C-1.59556994 1.51888012 -0.7785963 0.7785963 0 0 Z M-2.859375 61.50390625 C-3.48328125 62.18324219 -4.1071875 62.86257812 -4.75 63.5625 C-7.33122362 66.27658071 -9.90750837 68.87269468 -12.75 71.3125 C-16.23078088 74.30679379 -19.62425729 77.38841388 -23 80.5 C-26.90960866 84.10035014 -30.85867007 87.64418073 -34.875 91.125 C-37.61823418 93.54550075 -40.30884568 96.02200642 -43 98.5 C-46.90981595 102.10012756 -50.85866468 105.64417605 -54.875 109.125 C-57.61823418 111.54550075 -60.30884568 114.02200642 -63 116.5 C-66.90981595 120.10012756 -70.85866468 123.64417605 -74.875 127.125 C-77.61823418 129.54550075 -80.30884568 132.02200642 -83 134.5 C-86.90981595 138.10012756 -90.85866468 141.64417605 -94.875 145.125 C-97.61823494 147.54550142 -100.30881243 150.02204178 -103 152.5 C-106.3437503 155.57815921 -109.6966793 158.64083421 -113.125 161.625 C-113.6975181 162.14280061 -114.2700362 162.66060122 -114.85990334 163.19409275 C-117 165 -117 165 -119.5260067 166.65892696 C-123.98000543 169.88384408 -126.60660886 172.35038862 -127.90727615 177.80449104 C-128.36195978 182.59609681 -128.23842814 187.38205271 -128.13525391 192.18774414 C-128.13243017 194.03141119 -128.13402237 195.87508947 -128.13967896 197.71875 C-128.14253965 202.7045899 -128.08389477 207.68800726 -128.01393938 212.67328572 C-127.95127901 217.89017286 -127.94554063 223.10712017 -127.9336853 228.32432556 C-127.90264665 238.19498962 -127.82064462 248.06454156 -127.72019041 257.93471664 C-127.60828184 269.17518274 -127.55340043 280.41570292 -127.50323606 291.65658772 C-127.39880648 314.77181645 -127.2154748 337.88552129 -127 361 C-105.88 361 -84.76 361 -63 361 C-63 318.76 -63 276.52 -63 233 C-20.76 233 21.48 233 65 233 C65 275.24 65 317.48 65 361 C86.12 361 107.24 361 129 361 C129.36182245 336.87722744 129.6562746 312.75666681 129.82899475 288.6318655 C129.91133992 277.42912275 130.02350308 266.22819112 130.20703125 255.02661133 C130.36700632 245.25789144 130.46984603 235.49048349 130.50541592 225.72049004 C130.52619645 220.55120286 130.57466286 215.38566708 130.69168091 210.21758842 C131.46886616 174.51663221 131.46886616 174.51663221 123.55686951 166.11199284 C120.88876694 163.85483081 118.16506702 162.00415103 115.12277222 160.29004097 C111.36159193 158.00431449 108.22476434 154.97413027 105 152 C104.4679747 151.51653138 103.9359494 151.03306276 103.38780212 150.53494358 C101.91919317 149.19652549 100.45944726 147.84840236 99 146.5 C95.70047223 143.46031004 92.39048393 140.43841941 89 137.5 C85.0691075 134.0932265 81.24803427 130.56997215 77.421875 127.046875 C74.64505943 124.49444857 71.85019283 121.97016712 69 119.5 C65.0691075 116.0932265 61.24803427 112.56997215 57.421875 109.046875 C54.64505943 106.49444857 51.85019283 103.97016712 49 101.5 C45.0691075 98.0932265 41.24803427 94.56997215 37.421875 91.046875 C34.64505943 88.49444857 31.85019283 85.97016712 29 83.5 C25.07656055 80.09968581 21.26219913 76.58367918 17.44384766 73.06665039 C13.85314751 69.76533798 10.21623952 66.52624887 6.5234375 63.33984375 C5.30827165 62.27112096 4.1442894 61.1442894 3 60 C-1 60 -1 60 -2.859375 61.50390625 Z " fill="#000000" transform="translate(255,44)"/>
</svg>
