<?xml version="1.0" encoding="UTF-8"?>
<!-- Generator: visioncortex VTracer 0.6.12 -->
<svg version="1.1" xmlns="http://www.w3.org/2000/svg" width="512" height="512">
<path d="M0 0 C2.81640625 1.6796875 2.81640625 1.6796875 5.5625 3.875 C5.81700928 4.0750061 5.81700928 4.0750061 7.10498047 5.0871582 C8.19169251 5.94331062 9.27363996 6.80554066 10.35107422 7.67333984 C11.97486633 8.97977845 13.61142429 10.26794535 15.25390625 11.55078125 C17.56218465 13.3545567 19.86507289 15.16486924 22.1640625 16.98046875 C26.42612839 20.34167367 30.71283157 23.67091108 35 27 C40.34496915 31.15202588 45.68232577 35.31306882 51 39.5 C57.74559508 44.81004936 64.5210127 50.08133876 71.30078125 55.34765625 C74.55114052 57.87251945 77.79813409 60.40163469 81.04296875 62.93359375 C81.86249023 63.57256592 82.68201172 64.21153809 83.52636719 64.86987305 C85.10186495 66.09839757 86.67676115 67.32769405 88.25097656 68.55786133 C88.60595215 68.83448608 88.60595215 68.83448608 90.40234375 70.234375 C91.02616943 70.72131836 91.64999512 71.20826172 92.29272461 71.70996094 C93.82008396 72.86405314 95.40716029 73.93810686 97 75 C97 66.75 97 58.5 97 50 C117.46 50 137.92 50 159 50 C159 74.75 159 99.5 159 125 C160.32 125.66 161.64 126.32 163 127 C164.98417328 128.44431987 166.93921745 129.92894128 168.875 131.4375 C169.44452393 131.8799707 170.01404785 132.32244141 170.60083008 132.77832031 C172.40389209 134.18133179 174.2025984 135.58974609 176 137 C176.55510254 137.43521973 177.11020508 137.87043945 177.68212891 138.31884766 C179.93102433 140.08322226 182.17859781 141.84925919 184.42431641 143.61767578 C191.4791144 149.17186225 198.57294485 154.67577004 205.66357422 160.18408203 C208.00717053 162.00557308 210.34949427 163.82868777 212.69140625 165.65234375 C213.4587207 166.24958252 214.22603516 166.84682129 215.01660156 167.4621582 C216.53355059 168.64342338 218.04983936 169.825537 219.56542969 171.00854492 C223.0049665 173.68953966 226.45455477 176.35208297 229.94921875 178.9609375 C230.5527417 179.41436523 231.15626465 179.86779297 231.77807617 180.33496094 C233.37871749 181.53413699 234.98597331 182.72447015 236.59375 183.9140625 C240.30941192 187.13510709 240.91030138 189.05816449 241.375 193.9375 C241.28301495 198.04616551 239.97941228 200.10821749 237 203 C233.37143678 204.81428161 229.87415532 204.81591195 226 204 C222.03473343 201.68208785 218.55186016 198.89971534 215 196 C214.01 195.34 213.02 194.68 212 194 C211.9995116 194.28115293 211.9995116 194.28115293 211.99703997 195.70395714 C211.93876742 229.03109335 211.86497026 262.35815475 211.77101372 295.68520886 C211.75974556 299.68686744 211.74860711 303.68852638 211.73754883 307.69018555 C211.73534514 308.48684352 211.73314146 309.28350149 211.730871 310.10430061 C211.69549902 323.00351504 211.67063432 335.90272941 211.64965298 348.80197436 C211.62789014 362.03788223 211.59483512 375.27372717 211.55129844 388.50958151 C211.52479004 396.67675599 211.5070887 404.84385206 211.50065396 413.01106744 C211.49477619 419.27379967 211.47318719 425.53638813 211.44572449 431.79906082 C211.43692148 434.36813685 211.43322634 436.93723617 211.43499184 439.50632668 C211.43664036 443.0117136 211.4199802 446.51655382 211.39872742 450.02186584 C211.40115121 450.5311125 211.40115121 450.5311125 211.41341704 453.10820919 C211.35639003 458.8009595 211.02356915 463.09489222 208 468 C203.50373408 470.80589711 200.06617669 471.37547994 194.81288147 471.37752342 C194.10876928 471.38188374 193.40465708 471.38624407 192.67920816 471.39073652 C190.31987777 471.40168468 187.96113277 471.39127313 185.60180664 471.38095093 C183.89323407 471.38440767 182.18466373 471.38917234 180.47609806 471.39513266 C175.78092566 471.40767006 171.08593591 471.40145981 166.39076281 471.39217401 C161.32729885 471.38539508 156.26386662 471.395859 151.20040894 471.40411377 C141.28103677 471.41746565 131.36173263 471.41456688 121.44235778 471.40587585 C113.38190511 471.39910544 105.32147154 471.3981798 97.26101685 471.4014473 C96.68778971 471.40167715 96.68778971 471.40167715 93.78691298 471.40284032 C91.45803856 471.40379948 89.12916415 471.40477212 86.80028975 471.4057581 C64.95359828 471.41431625 43.10694455 471.40447118 21.26025927 471.388357 C2.50779717 471.37495344 -16.24460922 471.37728141 -34.99707031 471.39111328 C-56.76467208 471.40716157 -78.53224075 471.41349224 -100.2998476 471.40427649 C-102.62023735 471.40332083 -104.94062709 471.40237771 -107.26101685 471.4014473 C-107.83188057 471.40121588 -107.83188057 471.40121588 -110.720797 471.40004479 C-118.77317246 471.39745265 -126.82552696 471.40183073 -134.87789917 471.40888596 C-144.68874771 471.4172928 -154.49952422 471.41503797 -164.31036448 471.39904372 C-169.31764869 471.39115005 -174.32481274 471.38808811 -179.3320961 471.39799118 C-183.91390206 471.40691584 -188.49547622 471.40204204 -193.07726109 471.38605852 C-194.73666375 471.38270126 -196.3960859 471.38442595 -198.05547607 471.39168589 C-200.30822433 471.40078745 -202.56017504 471.39147365 -204.81288147 471.37752342 C-206.06498445 471.37703637 -207.31708742 471.37654931 -208.60713291 471.37604749 C-212.38703448 470.95710314 -214.78394172 470.00698286 -218 468 C-221.55827284 462.22744747 -221.43034564 456.66496978 -221.39872742 450.02186584 C-221.40537424 448.92557639 -221.41202107 447.82928694 -221.41886932 446.69977659 C-221.43750034 443.03160851 -221.43489387 439.36376659 -221.43237305 435.69555664 C-221.4413901 433.06401102 -221.45171718 430.43246961 -221.46325684 427.80093384 C-221.48602289 422.13814244 -221.49792449 416.47541247 -221.50238609 410.8125782 C-221.50885256 402.62515128 -221.53179864 394.43783532 -221.55872939 386.25045317 C-221.60197989 372.96605666 -221.63195655 359.68166484 -221.65356445 346.3972168 C-221.67457935 333.49484967 -221.7018589 320.59252079 -221.73754883 307.69018555 C-221.73864824 307.29234117 -221.73864824 307.29234117 -221.74421193 305.2790075 C-221.75528171 301.28715463 -221.7664745 297.29530211 -221.77772844 293.30344975 C-221.87088895 260.20233166 -221.94249831 227.10119954 -222 194 C-222.47594604 194.35586182 -222.47594604 194.35586182 -224.88452148 196.15673828 C-226.15052564 197.08674411 -227.41690282 198.01624229 -228.68359375 198.9453125 C-229.30890991 199.41493408 -229.93422607 199.88455566 -230.57849121 200.3684082 C-234.69854354 203.37044961 -237.88587829 205.27725377 -243.16015625 204.609375 C-246.06040299 203.64878372 -247.92431204 202.20541846 -250 200 C-251.57212151 196.85575698 -251.5179375 193.42208708 -251 190 C-248.95803879 185.65656412 -246.26580821 183.38361601 -242.4375 180.5625 C-241.26236744 179.68446755 -240.08792684 178.8055085 -238.9140625 177.92578125 C-238.28274414 177.4560791 -237.65142578 176.98637695 -237.00097656 176.50244141 C-233.40113658 173.79948689 -229.86061696 171.02027384 -226.3125 168.25 C-224.77228889 167.05058414 -223.23192241 165.85136778 -221.69140625 164.65234375 C-220.91812988 164.05019043 -220.14485352 163.44803711 -219.34814453 162.82763672 C-217.01302017 161.01013402 -214.6766529 159.19424212 -212.33984375 157.37890625 C-205.54747653 152.10163207 -198.75876555 146.82027103 -192 141.5 C-182.92206289 134.35415578 -173.79164394 127.27575356 -164.66796875 120.18847656 C-156.538745 113.87295777 -148.41518487 107.55106865 -140.32714844 101.18286133 C-134.79331593 96.82929401 -129.23226345 92.51096976 -123.671875 88.19140625 C-119.10385976 84.64109508 -114.5455646 81.0790019 -110 77.5 C-100.92215892 70.35403533 -91.79164276 63.27575265 -82.66796875 56.18847656 C-75.099269 50.30842369 -67.53107679 44.42820824 -60 38.5 C-53.24921769 33.18601311 -46.46876741 27.91059969 -39.68359375 22.640625 C-36.48459735 20.15573236 -33.2897256 17.66565936 -30.09765625 15.171875 C-29.29618164 14.54643799 -28.49470703 13.92100098 -27.66894531 13.27661133 C-26.1452888 12.08745836 -24.62244569 10.89726212 -23.10058594 9.70581055 C-8.31122169 -1.82722697 -8.31122169 -1.82722697 0 0 Z M-13.125 29.75 C-18.67111918 34.33234058 -24.27936833 38.78305383 -30.0625 43.0625 C-35.90821998 47.3961138 -41.62458708 51.85805269 -47.28540039 56.42993164 C-51.96506647 60.19899969 -56.71545817 63.86524017 -61.5 67.5 C-67.61046268 72.14359167 -73.63744428 76.87602857 -79.61499023 81.68920898 C-84.08683222 85.28489612 -88.61072037 88.80457035 -93.16821289 92.29077148 C-97.03139362 95.24794085 -100.866113 98.23904531 -104.6875 101.25 C-110.02740232 105.45596938 -115.38320684 109.6408937 -120.75 113.8125 C-121.50466553 114.399104 -122.25933105 114.98570801 -123.03686523 115.59008789 C-126.13492824 117.99765236 -129.23349 120.40457452 -132.33203125 122.81152344 C-140.461255 129.12704223 -148.58481513 135.44893135 -156.67285156 141.81713867 C-161.43435466 145.5631003 -166.21566524 149.28326068 -171 153 C-176.61439515 157.36204944 -182.2221554 161.73215656 -187.8125 166.125 C-188.36873047 166.56199219 -188.92496094 166.99898437 -189.49804688 167.44921875 C-191.0001846 168.63092513 -192.50015575 169.81538406 -194 171 C-194.87278186 171.48306988 -195.74556372 171.96613976 -196.64479351 172.46384811 C-200.37375596 176.47929864 -199.67433775 180.59310019 -199.60127258 185.88311768 C-199.60554471 187.00542872 -199.60981683 188.12773977 -199.61421841 189.28406024 C-199.62247834 193.05858988 -199.59491173 196.83201742 -199.56762695 200.60644531 C-199.56621713 203.30653392 -199.56678678 206.00655426 -199.56983948 208.70663452 C-199.57246226 214.52674089 -199.55676449 220.34656717 -199.52865028 226.16660309 C-199.48802846 234.58136576 -199.47499445 242.99599289 -199.46871033 251.41084298 C-199.45776504 265.06303462 -199.42448458 278.71507694 -199.37719727 292.3671875 C-199.33130768 305.62954981 -199.29597018 318.89187137 -199.2746582 332.15429688 C-199.27331822 332.98002071 -199.27197823 333.80574455 -199.27059764 334.65649033 C-199.26020063 341.11411787 -199.25041597 347.5717463 -199.24082482 354.02937508 C-199.19364961 385.68638709 -199.09306009 417.34302538 -199 449 C-158.74 449 -118.48 449 -77 449 C-77 384.98 -77 320.96 -77 255 C-29.48 255 18.04 255 67 255 C67 319.02 67 383.04 67 449 C107.26 449 147.52 449 189 449 C189.48397619 380.64284459 189.48397619 380.64284459 189.5859375 352.08984375 C189.6094312 345.55452109 189.63367676 339.01920187 189.65917969 332.48388672 C189.66234467 331.66481602 189.66550966 330.84574532 189.66877055 330.0018543 C189.72093195 316.78651825 189.81551946 303.57181014 189.92583355 290.35684617 C190.0381394 276.78990818 190.10472337 263.2232984 190.12906194 249.65591466 C190.14551048 241.2868409 190.19741211 232.9195413 190.2949976 224.55101387 C190.35853945 218.8086435 190.37757782 213.06718721 190.36201653 207.32449098 C190.35434443 204.01258425 190.37251101 200.70441449 190.4304657 197.39291763 C190.7786968 176.46710287 190.7786968 176.46710287 186.38262177 171.27482224 C183.55767711 168.6299204 180.42007361 166.80514325 177 165 C175.5983851 163.96683695 174.21095823 162.91328938 172.85546875 161.8203125 C171.63481848 160.91915149 170.41216646 160.02069543 169.1875 159.125 C163.89390678 155.20422 158.6871219 151.20169626 153.5625 147.0625 C148.27126003 142.78894068 142.91592494 138.61441411 137.5 134.5 C131.38953732 129.85640833 125.36255572 125.12397143 119.38500977 120.31079102 C114.91316778 116.71510388 110.38927963 113.19542965 105.83178711 109.70922852 C101.96860713 106.75205972 98.13384652 103.7610054 94.3125 100.75 C88.89125335 96.47892332 83.45053928 92.23362929 78 88 C72.65509121 83.84789584 67.31767476 79.6869316 62 75.5 C53.69557924 68.96286228 45.34635324 62.48345279 37 56 C19.81087558 42.64747663 19.81087558 42.64747663 11.4375 36.0625 C10.87095703 35.61777344 10.30441406 35.17304687 9.72070312 34.71484375 C7.20803591 32.74166973 4.70178282 30.76142626 2.20703125 28.765625 C1.80162109 28.44335938 1.80162109 28.44335938 -0.25 26.8125 C-0.93578125 26.26207031 -1.6215625 25.71164063 -2.328125 25.14453125 C-6.63169055 22.19839876 -9.85763591 27.01187581 -13.125 29.75 Z M118 71 C115.62373186 89.54809298 115.62373186 89.54809298 119.50585938 95.1875 C124.8436161 100.41099282 131.3845209 103.69226045 138 107 C138 95.12 138 83.24 138 71 C131.4 71 124.8 71 118 71 Z M-56 276 C-56 333.09 -56 390.18 -56 449 C-22.34 449 11.32 449 46 449 C46 391.91 46 334.82 46 276 C12.34 276 -21.32 276 -56 276 Z " fill="#000000" transform="translate(261,11)"/>
</svg>
