<?xml version="1.0" encoding="UTF-8"?>
<!-- Generator: visioncortex VTracer 0.6.12 -->
<svg version="1.1" xmlns="http://www.w3.org/2000/svg" width="512" height="512">
<path d="M0 0 C2.67578125 1.57421875 2.67578125 1.57421875 5.3125 3.6875 C5.82748047 4.09291016 5.82748047 4.09291016 8.43359375 6.14453125 C8.71581787 6.37116455 8.71581787 6.37116455 10.14404297 7.51806641 C12.17584978 9.14041149 14.22801293 10.73413209 16.28515625 12.32421875 C23.78022885 18.11861352 31.2359695 23.96298267 38.68017578 29.82250977 C46.42666256 35.91598516 54.21657951 41.95383375 62 48 C70.90690964 54.91889338 79.81144887 61.84001265 88.67285156 68.81713867 C93.43435444 72.56310013 98.21564129 76.28329181 103 80 C108.34487747 84.15214475 113.68232498 88.31306819 119 92.5 C127.30442076 99.03713772 135.65364676 105.51654721 144 112 C152.90690964 118.91889338 161.81144887 125.84001265 170.67285156 132.81713867 C175.43435444 136.56310013 180.21564129 140.28329181 185 144 C190.34487772 148.15214494 195.682301 152.31309839 201 156.5 C206.34127066 160.70413218 211.69814877 164.88785961 217.0625 169.0625 C217.82175781 169.65466309 218.58101563 170.24682617 219.36328125 170.85693359 C222.87567484 173.59190731 226.397538 176.30958535 229.96484375 178.97265625 C230.56611084 179.42439209 231.16737793 179.87612793 231.78686523 180.34155273 C233.38457895 181.53852879 234.98891718 182.72664832 236.59375 183.9140625 C240.30941192 187.13510709 240.91030138 189.05816449 241.375 193.9375 C241.27910435 196.9666745 240.94225953 198.10624246 239.4375 200.875 C236.29324208 203.61614793 234.13716835 204.43902802 230 205 C224.966166 203.644737 221.45167341 200.94151089 217.265625 197.8671875 C216.27852539 197.1438623 215.29142578 196.42053711 214.27441406 195.67529297 C213.52385742 195.12244629 212.77330078 194.56959961 212 194 C211.9995116 194.28115293 211.9995116 194.28115293 211.99703997 195.70395714 C211.93876742 229.03109335 211.86497026 262.35815475 211.77101372 295.68520886 C211.75974556 299.68686744 211.74860711 303.68852638 211.73754883 307.69018555 C211.73534514 308.48684352 211.73314146 309.28350149 211.730871 310.10430061 C211.69549902 323.00351504 211.67063432 335.90272941 211.64965298 348.80197436 C211.62789014 362.03788223 211.59483512 375.27372717 211.55129844 388.50958151 C211.52479004 396.67675599 211.5070887 404.84385206 211.50065396 413.01106744 C211.49477619 419.27379967 211.47318719 425.53638813 211.44572449 431.79906082 C211.43692148 434.36813685 211.43322634 436.93723617 211.43499184 439.50632668 C211.43664036 443.0117136 211.4199802 446.51655382 211.39872742 450.02186584 C211.40115121 450.5311125 211.40115121 450.5311125 211.41341704 453.10820919 C211.35639003 458.8009595 211.02356915 463.09489222 208 468 C203.9159102 470.79716776 200.62294658 471.3733811 195.73574829 471.36076355 C194.50158991 471.36489604 193.26743153 471.36902853 191.9958744 471.37328625 C190.63608214 471.36264785 189.27629201 471.35173418 187.91650391 471.34057617 C186.45397656 471.33965649 184.99144788 471.34005879 183.52892113 471.34167194 C179.62161924 471.34234765 175.71459444 471.32499353 171.80735779 471.30384064 C168.13743237 471.28672244 164.46757345 471.28594948 160.79760742 471.28381348 C150.07336842 471.26808796 139.34918069 471.22620433 128.625 471.1875 C104.65875 471.125625 80.6925 471.06375 56 471 C56 409.95 56 348.9 56 286 C15.74 286 -24.52 286 -66 286 C-66 347.05 -66 408.1 -66 471 C-89.96625 471.061875 -113.9325 471.12375 -138.625 471.1875 C-146.19260254 471.21481201 -153.76020508 471.24212402 -161.55712891 471.27026367 C-170.79760742 471.28381348 -170.79760742 471.28381348 -175.12338257 471.28633118 C-178.14485278 471.28912632 -181.16616488 471.30036936 -184.18759155 471.31672668 C-188.04338488 471.33732413 -191.89894874 471.34346979 -195.75479198 471.33921683 C-197.1687647 471.34010597 -198.58274556 471.34604315 -199.99667096 471.35764539 C-201.90963848 471.37261158 -203.82273296 471.36716914 -205.73574829 471.36076355 C-206.80687174 471.36352893 -207.87799519 471.36629431 -208.98157692 471.36914349 C-212.68686347 470.91599879 -214.91068787 470.11585071 -218 468 C-221.55827284 462.22744747 -221.43034564 456.66496978 -221.39872742 450.02186584 C-221.40537424 448.92557639 -221.41202107 447.82928694 -221.41886932 446.69977659 C-221.43750034 443.03160851 -221.43489387 439.36376659 -221.43237305 435.69555664 C-221.4413901 433.06401102 -221.45171718 430.43246961 -221.46325684 427.80093384 C-221.48602289 422.13814244 -221.49792449 416.47541247 -221.50238609 410.8125782 C-221.50885256 402.62515128 -221.53179864 394.43783532 -221.55872939 386.25045317 C-221.60197989 372.96605666 -221.63195655 359.68166484 -221.65356445 346.3972168 C-221.67457935 333.49484967 -221.7018589 320.59252079 -221.73754883 307.69018555 C-221.73864824 307.29234117 -221.73864824 307.29234117 -221.74421193 305.2790075 C-221.75528171 301.28715463 -221.7664745 297.29530211 -221.77772844 293.30344975 C-221.87088895 260.20233166 -221.94249831 227.10119954 -222 194 C-222.47594604 194.35586182 -222.47594604 194.35586182 -224.88452148 196.15673828 C-226.15052564 197.08674411 -227.41690282 198.01624229 -228.68359375 198.9453125 C-229.30890991 199.41493408 -229.93422607 199.88455566 -230.57849121 200.3684082 C-234.69854354 203.37044961 -237.88587829 205.27725377 -243.16015625 204.609375 C-246.06040299 203.64878372 -247.92431204 202.20541846 -250 200 C-251.57212151 196.85575698 -251.5179375 193.42208708 -251 190 C-248.95803879 185.65656412 -246.26580821 183.38361601 -242.4375 180.5625 C-241.26757464 179.68837533 -240.09834329 178.81332129 -238.9296875 177.9375 C-238.29901367 177.46828125 -237.66833984 176.9990625 -237.01855469 176.515625 C-233.3295825 173.74577263 -229.69958866 170.89991498 -226.0625 168.0625 C-225.67703003 167.76251099 -225.67703003 167.76251099 -223.72631836 166.24438477 C-218.57865757 162.23727241 -213.4454797 158.21213265 -208.31958008 154.17724609 C-199.79942345 147.47545266 -191.22861873 140.8383952 -182.66796875 134.18847656 C-174.538745 127.87295777 -166.41518487 121.55106865 -158.32714844 115.18286133 C-152.79331593 110.82929401 -147.23226345 106.51096976 -141.671875 102.19140625 C-137.10385976 98.64109508 -132.5455646 95.0790019 -128 91.5 C-118.92215892 84.35403533 -109.79164276 77.27575265 -100.66796875 70.18847656 C-92.538745 63.87295777 -84.41518487 57.55106865 -76.32714844 51.18286133 C-70.79331593 46.82929401 -65.23226345 42.51096976 -59.671875 38.19140625 C-55.10385825 34.64109391 -50.54572296 31.07880219 -46 27.5 C-8.64529957 -1.88102445 -8.64529957 -1.88102445 0 0 Z " fill="#000000" transform="translate(261,11)"/>
<path d="M0 0 C20.46 0 40.92 0 62 0 C62 19.47 62 38.94 62 59 C58.25252938 57.12626469 55.41707918 55.12802305 52.125 52.5625 C51.55547607 52.1200293 50.98595215 51.67755859 50.39916992 51.22167969 C48.59610791 49.81866821 46.7974016 48.41025391 45 47 C44.44489746 46.56478027 43.88979492 46.12956055 43.31787109 45.68115234 C41.07266553 43.91967263 38.82879083 42.15651786 36.58666992 40.39111328 C32.48803231 37.16453817 28.38027432 33.94997239 24.26196289 30.74853516 C22.71839053 29.5459073 21.17847042 28.33857633 19.64233398 27.12646484 C16.15720673 24.387533 12.6745131 21.73722621 8.96484375 19.30859375 C8.35455322 18.89295166 7.7442627 18.47730957 7.11547852 18.04907227 C5.49993011 16.95927394 3.8563664 15.91132387 2.2109375 14.8671875 C0 12 0 12 0 0 Z " fill="#000000" transform="translate(358,51)"/>
</svg>
