<?xml version="1.0" encoding="UTF-8"?>
<!-- Generator: visioncortex VTracer 0.6.12 -->
<svg version="1.1" xmlns="http://www.w3.org/2000/svg" width="512" height="512">
<path d="M0 0 C2.39706851 -0.00543239 4.79413367 -0.01256126 7.19119263 -0.02124023 C13.64989164 -0.03934359 20.10833264 -0.03245998 26.56703568 -0.01972389 C30.61264249 -0.01256791 34.65821704 -0.01397054 38.7038269 -0.01768494 C39.37892994 -0.01829787 40.05403297 -0.0189108 40.74959368 -0.01954231 C42.12176491 -0.02082142 43.49393614 -0.02211828 44.86610734 -0.02343267 C57.68279954 -0.03479349 70.49937663 -0.02179587 83.31604993 -0.00023121 C94.27358303 0.0176357 105.23094652 0.01453031 116.18847656 -0.00390625 C128.96452015 -0.025393 141.74046327 -0.03369528 154.51652241 -0.0214572 C155.88317679 -0.02018322 157.24983118 -0.01892573 158.6164856 -0.01768494 C159.28861412 -0.01706783 159.96074265 -0.01645073 160.65323871 -0.01581493 C165.3518539 -0.01238533 170.05038514 -0.01833784 174.74899292 -0.02760315 C181.09236024 -0.03924024 187.43541034 -0.03099329 193.77874374 -0.00802612 C196.09327546 -0.00278079 198.40783433 -0.00418022 200.72235489 -0.01307678 C229.97872284 -0.11508125 254.51833381 6.45094295 275.91015625 27.20507812 C297.34136673 48.97214558 302.2909087 75.41410498 302.17773438 104.85742188 C302.18316676 107.25449038 302.19029563 109.65155555 302.19897461 112.0486145 C302.21707796 118.50731352 302.21019435 124.96575452 302.19745827 131.42445755 C302.19030228 135.47006436 302.19170491 139.51563892 302.19541931 143.56124878 C302.19603224 144.23635181 302.19664518 144.91145485 302.19727668 145.60701555 C302.1985558 146.97918679 302.19985266 148.35135801 302.20116705 149.72352922 C302.21252787 162.54022142 302.19953024 175.3567985 302.17796558 188.17347181 C302.16009868 199.13100491 302.16320406 210.0883684 302.18164062 221.04589844 C302.20312737 233.82194202 302.21142965 246.59788515 302.19919157 259.37394428 C302.1979176 260.74059866 302.19666011 262.10725306 302.19541931 263.47390747 C302.19511076 263.80997174 302.19511076 263.80997174 302.19354931 265.51066059 C302.1901197 270.20927578 302.19607222 274.90780702 302.20533752 279.60641479 C302.21697462 285.94978212 302.20872766 292.29283221 302.1857605 298.63616562 C302.18051516 300.95069734 302.1819146 303.2652562 302.19081116 305.57977676 C302.29303847 334.90006116 295.80851496 359.01438118 274.66015625 380.51757812 C273.9125 381.278125 273.16484375 382.03867187 272.39453125 382.82226562 C262.06754153 392.70471606 249.48300854 399.83139509 235.66015625 403.51757812 C235.23052015 403.6407618 235.23052015 403.6407618 233.05630112 404.26414585 C221.35999219 407.21898736 209.76505553 406.94752788 197.77441406 406.92163086 C195.37793664 406.92734186 192.98146193 406.93430893 190.58499146 406.94242859 C184.7802018 406.9584458 178.9755367 406.96047654 173.17072967 406.95521569 C168.44580686 406.95115397 163.72091588 406.95264113 158.99599457 406.95796394 C158.65817207 406.95833815 158.65817207 406.95833815 156.9485855 406.96023189 C155.57544813 406.96176357 154.20231077 406.96330192 152.82917342 406.96484686 C139.9858167 406.97853775 127.1425211 406.97315877 114.29916582 406.96166164 C102.58834271 406.95173754 90.8776778 406.96466173 79.16687909 406.98859584 C67.10006016 407.01306892 55.03331465 407.02257435 42.96647143 407.01594311 C36.20879437 407.01246843 29.45123873 407.01456573 22.69358063 407.03219414 C16.33386405 407.04775414 9.9744474 407.04360768 3.61474228 407.02488899 C1.29375894 407.0212278 -1.02724707 407.02423855 -3.34820938 407.03477478 C-32.69333686 407.1577176 -56.81683298 400.6854237 -78.33984375 379.51757812 C-79.10039063 378.76992188 -79.8609375 378.02226562 -80.64453125 377.25195312 C-90.52698168 366.9249634 -97.65366072 354.34043041 -101.33984375 340.51757812 C-101.5862111 339.65830593 -101.83257845 338.79903374 -102.08641148 337.91372299 C-105.04125298 326.21741407 -104.76979351 314.62247741 -104.74389648 302.63183594 C-104.74960749 300.23535851 -104.75657456 297.8388838 -104.76469421 295.44241333 C-104.78071142 289.63762368 -104.78274216 283.83295858 -104.77748131 278.02815154 C-104.7734196 273.30322874 -104.77490675 268.57833776 -104.78022957 263.85341644 C-104.78097799 263.17777145 -104.78172641 262.50212646 -104.78249751 261.80600737 C-104.78402919 260.43287 -104.78556754 259.05973264 -104.78711248 257.68659529 C-104.80080338 244.84323858 -104.79542439 231.99994297 -104.78392727 219.15658769 C-104.77400317 207.44576459 -104.78692736 195.73509967 -104.81086146 184.02430096 C-104.83533455 171.95748203 -104.84483998 159.89073652 -104.83820873 147.82389331 C-104.83473406 141.06621624 -104.83683135 134.3086606 -104.85445976 127.5510025 C-104.87001977 121.19128593 -104.8658733 114.83186927 -104.84715462 108.47216415 C-104.84349342 106.15118082 -104.84650418 103.8301748 -104.85704041 101.50921249 C-104.97971318 72.228542 -98.42460569 47.67808428 -77.65234375 26.26757812 C-55.88527629 4.83636764 -29.44331689 -0.11317432 0 0 Z " fill="#01579B" transform="translate(157.33984375,52.482421875)"/>
<path d="M0 0 C1.02738281 0.66128906 2.05476562 1.32257813 3.11328125 2.00390625 C27.88596808 18.47109649 45.35820128 42.93754373 52 72 C52.22300781 72.8353125 52.44601562 73.670625 52.67578125 74.53125 C58.68874389 100.3828989 52.28804187 129.69452176 39.625 152.5 C22.14311677 180.30489573 -3.29800931 198.72672285 -35.15625 206.45703125 C-64.83934929 212.12454609 -93.32614215 206.29820003 -119 191 C-120.24591034 190.13637001 -121.48352404 189.26065078 -122.71264648 188.37329102 C-123.02213982 188.15040657 -123.02213982 188.15040657 -124.58836365 187.0224762 C-125.05420364 186.68505905 -125.52004364 186.34764191 -126 186 C-126.00586624 186.69633545 -126.01173248 187.3926709 -126.01777649 188.11010742 C-126.07589172 194.70066318 -126.14807465 201.29090121 -126.23571491 207.88113403 C-126.28027556 211.26855042 -126.31956199 214.6558505 -126.34643555 218.04345703 C-126.38008992 221.94593252 -126.43241401 225.84778692 -126.48828125 229.75 C-126.49147621 230.35275757 -126.49147621 230.35275757 -126.50764465 233.40307617 C-126.6461112 241.38179259 -127.29313986 248.56330711 -132.8125 254.8125 C-133.27269531 255.35519531 -133.73289063 255.89789063 -134.20703125 256.45703125 C-139.82322819 261.2901419 -145.38161076 261.65297704 -152.515625 261.46484375 C-157.98278908 260.73547993 -161.14827958 258.85103274 -165 255 C-170.76179978 247.11294041 -170.71025486 238.75757328 -170.63110352 229.40283203 C-170.63625116 227.84761237 -170.64353878 226.29239856 -170.65278625 224.73719788 C-170.6712166 220.53594587 -170.65840882 216.33533305 -170.63869596 212.13410807 C-170.6222093 207.71121489 -170.63113755 203.28835907 -170.63621521 198.865448 C-170.64072977 191.4294018 -170.62491768 183.9936076 -170.59692383 176.55761719 C-170.56499282 168.01097652 -170.56484387 159.46479312 -170.5821386 150.9181205 C-170.59812422 142.64851075 -170.59118592 134.37906552 -170.57420158 126.10946274 C-170.56740212 122.61476021 -170.56828961 119.1201924 -170.57574654 115.6254921 C-170.64063267 76.87764492 -164.48204338 44.72201315 -136.375 15.875 C-101.6771104 -18.5007795 -41.77768595 -27.87643824 0 0 Z " fill="#FAF9ED" transform="translate(362,133)"/>
<path d="M0 0 C4.43717526 3.27899731 6.8775803 7.8489106 9.3046875 12.703125 C9.4091861 14.64426928 9.44859438 16.58902967 9.45858765 18.53295898 C9.46718811 19.77496567 9.47578857 21.01697235 9.48464966 22.2966156 C9.48908514 23.68081623 9.49338348 25.06501731 9.49755859 26.44921875 C9.50545903 27.9012522 9.51372794 29.3532837 9.52233887 30.80531311 C9.54857917 35.58373129 9.56387459 40.36215828 9.578125 45.140625 C9.58348501 46.78662115 9.58886252 48.43261724 9.59425735 50.07861328 C9.61589446 56.92934408 9.63462808 63.78007252 9.64587975 70.63082886 C9.66209605 80.4396067 9.69520753 90.24798692 9.75228059 100.05661488 C9.79105645 106.95696669 9.81052181 113.85721254 9.81580031 120.7576704 C9.8194451 124.87621515 9.83137149 128.99433602 9.86390305 133.11276245 C9.89411654 136.99364312 9.90024886 140.87384648 9.88851929 144.75481987 C9.88829961 146.17292247 9.89651626 147.59105768 9.91417313 149.00905037 C10.01487845 157.56836333 9.45619708 164.60368892 4.3046875 171.703125 C-1.88097763 177.5643762 -7.95136998 178.16806427 -16.16796875 178.1171875 C-21.37676504 177.50574519 -24.16870634 175.44346487 -27.6953125 171.703125 C-28.4790625 170.89875 -29.2628125 170.094375 -30.0703125 169.265625 C-34.67978232 161.99684566 -33.99281582 153.94956713 -33.98583984 145.63305664 C-33.99183082 144.20659536 -33.99863767 142.78013731 -34.00619507 141.35368347 C-34.02380142 137.4941623 -34.02854809 133.63472992 -34.02982664 129.77517247 C-34.0312515 127.36074551 -34.03552735 124.94634088 -34.04082108 122.53191948 C-34.05930145 114.10012257 -34.06749392 105.66838875 -34.06591797 97.23657227 C-34.06471612 89.39017229 -34.08583191 81.54404719 -34.1174053 73.69771677 C-34.14359161 66.94844877 -34.15428433 60.19927045 -34.15300715 53.44995207 C-34.15249834 49.42440734 -34.15813689 45.39910725 -34.17936325 41.37361336 C-34.19878638 37.58710347 -34.19884273 33.80107066 -34.18432999 30.01454353 C-34.18224602 28.62947896 -34.1869182 27.24438419 -34.1990509 25.85937119 C-34.27254697 16.88426287 -33.84461753 10.43811722 -27.73046875 3.4609375 C-18.67264228 -4.03643174 -10.7127968 -5.80693658 0 0 Z " fill="#FAFAEE" transform="translate(150.6953125,216.296875)"/>
<path d="M0 0 C5.88914458 4.20795297 9.90930453 9.31988152 13.5625 15.52734375 C13.74361328 15.83349609 13.74361328 15.83349609 14.66015625 17.3828125 C18.10327082 24.63737483 17.71106961 34.93306529 15.80078125 42.57421875 C11.32872807 54.24044443 3.30543247 61.94473335 -7.62109375 67.671875 C-16.75069024 70.44494245 -28.77857516 70.01556295 -37.3125 65.83984375 C-39.05370323 64.78827439 -40.76848603 63.69009015 -42.4375 62.52734375 C-43.0459375 62.13289063 -43.654375 61.7384375 -44.28125 61.33203125 C-51.06952714 56.37935966 -56.00662386 47.73418709 -57.4375 39.52734375 C-58.46661175 27.2542332 -57.10665255 17.26960729 -49.203125 7.41015625 C-36.07347175 -6.59093416 -16.727406 -10.10614113 0 0 Z " fill="#02589B" transform="translate(324.4375,197.47265625)"/>
<path d="M0 0 C6.58073078 3.99392084 10.6556558 9.75983224 12.80859375 17.09765625 C13.80095628 24.91251115 11.26402849 32.15620826 6.55859375 38.47265625 C0.90259745 43.87156181 -6.0607448 46.57983803 -13.9140625 46.43359375 C-21.43193414 45.32461097 -27.25045178 40.8899785 -31.8515625 35.0546875 C-35.98728971 29.01387312 -35.9207892 22.19511338 -35.19140625 15.09765625 C-33.41488617 8.45257164 -28.74627257 3.92503155 -23.19140625 0.09765625 C-16.21181878 -3.33511471 -7.09873348 -3.17303056 0 0 Z " fill="#F9F9ED" transform="translate(150.19140625,148.90234375)"/>
<path d="M0 0 C0 17.82 0 35.64 0 54 C-12 57 -12 57 -15 57 C-15.43231934 56.24082275 -15.86463867 55.48164551 -16.31005859 54.69946289 C-24.44964891 40.41248212 -32.59931931 26.13576078 -41 12 C-38.29954969 8.60168051 -34.63643591 7.43894009 -30.6875 6 C-29.97980469 5.73944824 -29.27210938 5.47889648 -28.54296875 5.21044922 C-19.04444717 1.82024029 -10.15678922 0 0 0 Z " fill="#DD5B3E" transform="translate(299,128)"/>
<path d="M0 0 C0.71905518 0.14381104 1.43811035 0.28762207 2.17895508 0.43579102 C2.59286499 0.518573 2.59286499 0.518573 4.6875 0.9375 C6.45833333 1.29166667 8.22916667 1.64583333 10 2 C10.825 2.165 10.825 2.165 15 3 C15 20.49 15 37.98 15 56 C-0.82633059 56 -12.12849748 52.98603462 -26 46 C-21.997229 37.74703398 -17.66581059 29.77020351 -13 21.875 C-12.40960938 20.86824219 -11.81921875 19.86148437 -11.2109375 18.82421875 C-7.5121451 12.52649513 -3.76906382 6.2558866 0 0 Z " fill="#719340" transform="translate(284,274)"/>
<path d="M0 0 C1.67822266 2.10693359 1.67822266 2.10693359 3.1640625 4.8984375 C3.72399902 5.92718994 4.28393555 6.95594238 4.86083984 8.01586914 C5.4430127 9.12438232 6.02518555 10.23289551 6.625 11.375 C7.85809693 13.65303603 9.09248778 15.9303721 10.328125 18.20703125 C10.94107422 19.34736816 11.55402344 20.48770508 12.18554688 21.66259766 C14.82430544 26.51618076 17.58815112 31.29286147 20.375 36.0625 C20.84502441 36.87058105 21.31504883 37.67866211 21.79931641 38.51123047 C22.86439754 40.34187656 23.93188363 42.1711232 25 44 C21.54392483 46.95353363 17.71345163 48.50203603 13.5 50.0625 C13.14546753 50.19406494 13.14546753 50.19406494 11.35131836 50.85986328 C2.09459614 54.17722899 -6.12975522 55 -16 55 C-16 37.51 -16 20.02 -16 2 C-5 -1 -5 -1 0 0 Z " fill="#1CCAC4" transform="translate(325,275)"/>
<path d="M0 0 C11.8400372 0.98666977 21.71793964 3.03975882 32.6875 7.0625 C33.39551758 7.31990967 34.10353516 7.57731934 34.83300781 7.8425293 C39.87784067 9.75568133 39.87784067 9.75568133 41 12 C39.91113281 14.31225586 39.91113281 14.31225586 38.203125 17.21484375 C37.57865479 18.28557129 36.95418457 19.35629883 36.31079102 20.45947266 C35.623996 21.61889527 34.93706294 22.77823613 34.25 23.9375 C33.56163182 25.11200667 32.87405392 26.28697686 32.18725586 27.46240234 C30.79835747 29.83735554 29.40547737 32.20989875 28.00927734 34.58056641 C25.16887127 39.41443365 22.36531527 44.26927868 19.5625 49.125 C18.66828533 50.66945417 17.77378879 52.21374521 16.87890625 53.7578125 C16.25886719 54.82773438 15.63882812 55.89765625 15 57 C14.41992188 56.86722656 13.83984375 56.73445313 13.2421875 56.59765625 C12.46101563 56.42105469 11.67984375 56.24445313 10.875 56.0625 C10.10929687 55.88847656 9.34359375 55.71445313 8.5546875 55.53515625 C5.71912141 54.94116152 2.85769484 54.47628247 0 54 C0 36.18 0 18.36 0 0 Z " fill="#D82B48" transform="translate(309,128)"/>
<path d="M0 0 C4.31611391 0.94365167 7.86829497 2.97198772 11.6875 5.125 C12.45046387 5.55151855 13.21342773 5.97803711 13.99951172 6.41748047 C25.14073137 12.70187623 36.0608219 19.37287272 47 26 C46.01 30.62 45.02 35.24 44 40 C26.18 40 8.36 40 -10 40 C-8.87175533 23.07632999 -8.87175533 23.07632999 -6.6875 16.625 C-6.46747314 15.96435547 -6.24744629 15.30371094 -6.02075195 14.62304688 C-4.31150846 9.59825315 -2.30350268 4.77763518 0 0 Z " fill="#FCC939" transform="translate(213,184)"/>
<path d="M0 0 C3.63632623 1.37448867 6.97064121 3.00434858 10.359375 4.90625 C11.38554932 5.48101074 12.41172363 6.05577148 13.46899414 6.64794922 C14.55172607 7.25912598 15.63445801 7.87030273 16.75 8.5 C17.85786865 9.12277832 18.9657373 9.74555664 20.10717773 10.38720703 C29.13863815 15.47912834 38.09785622 20.68565282 47 26 C40.50379594 38.1292761 29.41265463 49.93913761 17 56 C11.32055365 46.91021854 5.90570213 37.70070516 0.625 28.375 C-0.44107334 26.49548421 -1.50782494 24.61636087 -2.57583618 22.73794556 C-3.52906594 21.06098808 -4.48017668 19.38282661 -5.43115234 17.70458984 C-6.55660037 15.7643917 -7.75581326 13.86628011 -9 12 C-8.893853 8.81559 -7.82220104 7.80816428 -5.625 5.4375 C-4.75875 4.633125 -3.8925 3.82875 -3 3 C-2.401875 2.401875 -1.80375 1.80375 -1.1875 1.1875 C-0.795625 0.795625 -0.40375 0.40375 0 0 Z " fill="#57A8F8" transform="translate(342,258)"/>
<path d="M0 0 C6.24185606 13.83712427 8.9494358 24.24153704 10 40 C-7.49 40 -24.98 40 -43 40 C-44.32 35.38 -45.64 30.76 -47 26 C-37.89887686 20.33566462 -28.7022293 14.90656518 -19.375 9.625 C-17.49548421 8.55892666 -15.61636087 7.49217506 -13.73794556 6.42416382 C-12.06098808 5.47093406 -10.38282661 4.51982332 -8.70458984 3.56884766 C-2.55213196 0 -2.55213196 0 0 0 Z " fill="#676BAD" transform="translate(395,184)"/>
<path d="M0 0 C4.0144599 1.3381533 5.35766442 3.76313892 8 7 C8.99 7.66 9.98 8.32 11 9 C10.05411317 13.34548387 7.98619575 16.91090457 5.8125 20.75 C5.38195312 21.51626709 4.95140625 22.28253418 4.5078125 23.07202148 C3.01362296 25.71955166 1.50824746 28.36045326 0 31 C-0.5976416 32.04752441 -1.1952832 33.09504883 -1.81103516 34.17431641 C-3.69943693 37.47500733 -5.59775713 40.76976897 -7.5 44.0625 C-8.11125732 45.12758789 -8.72251465 46.19267578 -9.35229492 47.29003906 C-9.9269751 48.27842773 -10.50165527 49.26681641 -11.09375 50.28515625 C-11.60615234 51.17082275 -12.11855469 52.05648926 -12.64648438 52.96899414 C-14 55 -14 55 -16 56 C-27.71524884 48.09164053 -37.3751039 38.99685017 -45 27 C-41.67413187 24.22318196 -38.36593165 21.9474032 -34.5703125 19.86328125 C-33.53406738 19.289729 -32.49782227 18.71617676 -31.43017578 18.12524414 C-30.33946777 17.52703857 -29.24875977 16.92883301 -28.125 16.3125 C-20.06960964 11.86579882 -12.05945697 7.39755611 -4.32861328 2.40161133 C-2.6953125 1.37890625 -2.6953125 1.37890625 0 0 Z " fill="#94BC3B" transform="translate(264,258)"/>
<path d="M0 0 C4.52491514 1.43371853 7.50577788 3.96781715 10.875 7.1875 C11.4016626 7.68217773 11.9283252 8.17685547 12.47094727 8.68652344 C13.98789655 10.11692986 15.49467831 11.55737827 17 13 C17.71285156 13.67160156 18.42570312 14.34320313 19.16015625 15.03515625 C22.98038451 18.72104681 26.24888833 22.4434713 29 27 C28.82446289 29.07666016 28.82446289 29.07666016 28 31 C25.49770114 32.63552949 23.08527892 34.01429273 20.4375 35.375 C18.80830249 36.24311009 17.18078991 37.11438733 15.5546875 37.98828125 C14.67006836 38.46217285 13.78544922 38.93606445 12.87402344 39.42431641 C6.45745947 42.94219815 0.18436072 46.71611701 -6.11352539 50.44091797 C-7.09571045 51.0185791 -8.07789551 51.59624023 -9.08984375 52.19140625 C-9.96503662 52.70904541 -10.84022949 53.22668457 -11.74194336 53.76000977 C-14 55 -14 55 -17 56 C-18.13033298 54.75482035 -19.25405036 53.50363348 -20.375 52.25 C-21.00148438 51.55390625 -21.62796875 50.8578125 -22.2734375 50.140625 C-25.21497803 46.49364715 -25.21497803 46.49364715 -26 44 C-24.90112305 41.21362305 -24.90112305 41.21362305 -23.01171875 38.01171875 C-22.67768036 37.43567902 -22.34364197 36.85963928 -21.9994812 36.2661438 C-20.91064718 34.39722427 -19.79965307 32.54262014 -18.6875 30.6875 C-17.94063529 29.41639548 -17.19511074 28.14450258 -16.45092773 26.87182617 C-14.31933648 23.23657123 -12.16077972 19.61797705 -10 16 C-8.98612818 14.28435678 -7.97297045 12.56829109 -6.9609375 10.8515625 C-1.30573005 1.30573005 -1.30573005 1.30573005 0 0 Z " fill="#EF667E" transform="translate(359,145)"/>
<path d="M0 0 C3.91137276 1.47985028 5.14295403 3.442509 7.1015625 7.06640625 C7.67003906 8.10192627 8.23851562 9.13744629 8.82421875 10.2043457 C9.41847656 11.31253662 10.01273437 12.42072754 10.625 13.5625 C11.86515363 15.83965051 13.1073525 18.11568831 14.3515625 20.390625 C14.65787598 20.95168945 14.65787598 20.95168945 16.20800781 23.79101562 C17.8154572 26.66953262 19.48125856 29.49063692 21.2109375 32.296875 C21.6857959 33.0695874 22.1606543 33.8422998 22.64990234 34.63842773 C23.53097502 36.05722561 24.42405501 37.46865704 25.33056641 38.87133789 C26.5 40.76953125 26.5 40.76953125 28 44 C27.45703125 46.2109375 27.45703125 46.2109375 26 48 C25.74412109 48.32291016 25.74412109 48.32291016 24.44921875 49.95703125 C23.86785156 50.56933594 23.28648437 51.18164062 22.6875 51.8125 C22.11386719 52.43769531 21.54023438 53.06289062 20.94921875 53.70703125 C19 55 19 55 16.69946289 54.75634766 C13.73901647 53.92687646 11.50108738 52.76123626 8.859375 51.19140625 C7.87839844 50.61342285 6.89742187 50.03543945 5.88671875 49.43994141 C4.85160156 48.82038574 3.81648438 48.20083008 2.75 47.5625 C2.21955078 47.24885498 2.21955078 47.24885498 -0.46484375 45.66162109 C-2.61825206 44.38782423 -4.76995739 43.11114387 -6.91992188 41.83154297 C-10.52448847 39.68811727 -14.1396609 37.56321357 -17.75683594 35.44116211 C-20.84049306 33.6318461 -23.92029002 31.81602464 -27 30 C-25.03289118 19.38235241 -11.20221044 7.79710991 -2.75 1.75 C-1.8425 1.1725 -0.935 0.595 0 0 Z " fill="#F47D24" transform="translate(247,145)"/>
<path d="M0 0 C17.82 0 35.64 0 54 0 C56.25 10.125 56.25 10.125 57 14 C56.31188232 14.39678955 55.62376465 14.7935791 54.91479492 15.20239258 C52.8487226 16.39383506 50.78273062 17.58541685 48.71679688 18.77709961 C46.35520944 20.13927136 43.99317672 21.50066678 41.63085938 22.86157227 C36.11553919 26.04010499 30.60450763 29.22523683 25.11328125 32.4453125 C24.24227783 32.95473389 23.37127441 33.46415527 22.47387695 33.98901367 C20.85183269 34.93874116 19.23179875 35.8919123 17.61401367 36.84887695 C12.22305954 40 12.22305954 40 10 40 C4.05142212 26.53828676 0 14.96686577 0 0 Z " fill="#DAEA80" transform="translate(203,235)"/>
<path d="M0 0 C17.82 0 35.64 0 54 0 C54 10.13552068 54 10.13552068 52.828125 14.375 C52.70179688 14.83648437 52.70179688 14.83648437 52.0625 17.171875 C51.794375 18.10515625 51.52625 19.0384375 51.25 20 C51.12367188 20.46664062 51.12367188 20.46664062 50.484375 22.828125 C48.81235296 28.81396389 46.69293478 34.39980187 44 40 C39.0944264 38.58115717 34.95951779 36.38603246 30.625 33.75 C29.13975894 32.8612501 27.65405214 31.97327822 26.16796875 31.0859375 C25.35634277 30.59963867 24.5447168 30.11333984 23.70849609 29.61230469 C18.47336563 26.49595336 13.20274692 23.44008967 7.9375 20.375 C5.84240352 19.15372199 3.74734784 17.932374 1.65234375 16.7109375 C0.11707031 15.81632813 -1.41820312 14.92171875 -3 14 C-2.01 9.38 -1.02 4.76 0 0 Z " fill="#2E81D3" transform="translate(351,235)"/>
</svg>
