<?xml version="1.0" encoding="UTF-8"?>
<!-- Generator: visioncortex VTracer 0.6.12 -->
<svg version="1.1" xmlns="http://www.w3.org/2000/svg" width="512" height="512">
<path d="M0 0 C36.64666958 -0.04523001 73.29333104 -0.08102857 109.94002282 -0.10213066 C114.26828349 -0.10463202 118.5965441 -0.10722067 122.92480469 -0.10986328 C123.78646925 -0.1103879 124.64813382 -0.11091252 125.53590943 -0.11145304 C139.48069337 -0.12015134 153.4254608 -0.13591816 167.37023495 -0.15430559 C181.68301927 -0.17302063 195.99579495 -0.18412012 210.30859101 -0.18817699 C219.13755361 -0.19091872 227.96646951 -0.19957267 236.79541774 -0.21583293 C242.85296896 -0.2264196 248.9104961 -0.22959681 254.96805589 -0.22700275 C258.46088634 -0.22572408 261.95363529 -0.22765922 265.44645119 -0.23841095 C269.2396646 -0.24837834 273.03267908 -0.24596212 276.82589722 -0.24050903 C277.92125286 -0.24633472 279.0166085 -0.2521604 280.14515674 -0.25816262 C291.51343174 -0.21406652 300.63838283 1.09687776 309.16796875 9.01171875 C317.0329654 17.22054039 318.44090626 25.25833143 318.51171875 36.37890625 C318.52069435 36.90524406 318.52069435 36.90524406 318.56611633 39.5688324 C318.61989126 42.90001532 318.65400969 46.23105769 318.6875 49.5625 C318.72070202 51.8340038 318.75519431 54.10548912 318.79101562 56.37695312 C318.87559852 61.91784258 318.94408596 67.458751 319 73 C319.57956923 72.83789661 320.15913847 72.67579323 320.75627041 72.50877762 C324.3722641 71.68883182 328.03449422 71.8438458 331.72485352 71.83886719 C332.1649752 71.83638474 332.1649752 71.83638474 334.39225769 71.82382202 C337.30448186 71.80921893 340.21665147 71.80239977 343.12890625 71.796875 C345.15950013 71.79111992 347.190094 71.78536223 349.22068787 71.77960205 C353.48184461 71.76909587 357.74298252 71.76325139 362.00415039 71.75976562 C367.442168 71.75429631 372.87993329 71.7303001 378.31787205 71.70179367 C382.51570846 71.68308684 386.71348523 71.67795731 390.91135979 71.67642975 C392.91465566 71.67341841 394.91795086 71.66544168 396.92120552 71.65224457 C418.33260177 71.52131387 432.21852358 75.51250666 447.8671875 90.68359375 C452.06272044 94.92530703 455.6103182 99.50173164 459.125 104.3125 C459.44662109 104.74691406 459.44662109 104.74691406 461.07421875 106.9453125 C463.05614303 109.62537058 465.02880131 112.31204688 467 115 C468.76040561 117.39048055 470.52209208 119.78001267 472.28393555 122.16943359 C473.43069518 123.726834 474.57538142 125.28576317 475.71801758 126.84619141 C478.73286046 130.95753405 481.78283005 135.03556219 484.89453125 139.07421875 C512.01710762 174.3702611 512.01710762 174.3702611 512.15390015 194.93778992 C512.16250061 195.90625351 512.17110107 196.8747171 512.17996216 197.87252808 C512.18209213 198.3980275 512.18209213 198.3980275 512.19287109 201.05737305 C512.20104858 202.17345444 512.20922607 203.28953583 512.21765137 204.43943787 C512.2424481 208.13019277 512.25900673 211.82090936 512.2734375 215.51171875 C512.27609934 216.14307393 512.27609934 216.14307393 512.28956985 219.33811378 C512.31078554 224.64743729 512.32991513 229.95674748 512.34119225 235.26610088 C512.35741133 242.84956599 512.39055758 250.43251725 512.44759309 258.01578873 C512.49111132 264.00814982 512.50695202 270.0002787 512.51332474 275.99280739 C512.52002899 278.5328417 512.53522932 281.07286878 512.55921555 283.61279869 C512.59092945 287.1741446 512.59089363 290.73420351 512.58349609 294.2956543 C512.59990143 295.33653198 512.61630676 296.37740967 512.63320923 297.4498291 C512.56254073 305.797054 510.06705253 311.94732779 505.04296875 318.5859375 C498.67817544 324.72293821 491.98575968 329.16655879 482.890625 329.09765625 C482.13652344 329.09443359 481.38242187 329.09121094 480.60546875 329.08789062 C479.82816406 329.07951172 479.05085938 329.07113281 478.25 329.0625 C477.45722656 329.05798828 476.66445313 329.05347656 475.84765625 329.04882812 C473.89840492 329.03708565 471.94919262 329.01915146 470 329 C469.87753906 330.20011719 469.75507813 331.40023438 469.62890625 332.63671875 C467.94736365 345.93406519 459.22255915 358.58261498 449 367 C437.03062358 375.69996342 424.50725739 380.41912792 409.6875 380.3125 C408.85790771 380.30686035 408.02831543 380.3012207 407.17358398 380.29541016 C390.20757426 379.96199893 376.04941907 372.90956632 364.03515625 361.0625 C356.11092919 352.46202599 349 340.99442201 349 329 C297.85 329 246.7 329 194 329 C193.34 332.3 192.68 335.6 192 339 C185.52597293 355.76790946 173.95888707 368.39544762 157.55859375 375.96875 C142.21829453 382.1517103 124.34638881 382.19646643 109 376 C100.72400194 372.39363793 94.36185706 367.35096347 88 361 C87.3503125 360.36191406 86.700625 359.72382813 86.03125 359.06640625 C77.87890981 350.46711759 74.63000486 340.30489001 72 329 C71.43560715 329.00888245 70.87121429 329.01776489 70.28971863 329.0269165 C64.36781027 329.1160276 58.44609512 329.17599612 52.52368164 329.21972656 C50.31917574 329.23973086 48.11472214 329.26694322 45.91040039 329.30175781 C42.72529117 329.35077058 39.54088884 329.37308127 36.35546875 329.390625 C35.38417526 329.41127014 34.41288177 329.43191528 33.41215515 329.45318604 C23.82443598 329.45626714 14.74079264 326.98487531 7.77383423 320.11224365 C-1.76458593 308.75409805 -0.79326235 296.82374677 -0.5859375 282.734375 C-0.57472958 280.48709248 -0.56619695 278.23979517 -0.56021118 275.99249268 C-0.53743883 270.1133284 -0.47861574 264.23507118 -0.4119873 258.35626221 C-0.35031386 252.34310166 -0.32314282 246.32979276 -0.29296875 240.31640625 C-0.22886075 228.54381073 -0.12343069 216.77212314 0 205 C6.93 205 13.86 205 21 205 C21.00410889 207.88194092 21.00821777 210.76388184 21.01245117 213.7331543 C21.02964487 223.25273962 21.07414022 232.77205611 21.13209057 242.29147625 C21.16638827 248.06342966 21.19147492 253.83511759 21.19555664 259.60717773 C21.19983354 265.1770942 21.2282464 270.74641153 21.27343178 276.31614113 C21.28642614 278.4415723 21.29070763 280.56707511 21.28615379 282.69254112 C21.28126172 285.66897737 21.30727907 288.64365312 21.34057617 291.61987305 C21.33626335 292.05972031 21.33626335 292.05972031 21.31443787 294.28561401 C21.39668896 298.66857301 21.57825518 300.4581949 24.35371399 304.02375793 C27.69453895 306.51868055 30.13745306 307.12000652 34.19604492 307.20532227 C35.03668991 307.22526749 35.8773349 307.24521271 36.74345398 307.26576233 C37.64666885 307.28247482 38.54988373 307.29918732 39.48046875 307.31640625 C39.94446327 307.3267968 39.94446327 307.3267968 42.29255676 307.37937927 C45.2574624 307.44477323 48.22245672 307.50371262 51.1875 307.5625 C53.1972748 307.60569487 55.20704063 307.64930947 57.21679688 307.69335938 C62.14444032 307.80044427 67.07217299 307.90174045 72 308 C72.1861084 307.20408447 72.3722168 306.40816895 72.56396484 305.58813477 C76.89871337 287.56780922 86.07376363 273.89417435 102 264 C105.91623162 262.03708488 109.86534224 260.43893376 114 259 C115.11375 258.5875 116.2275 258.175 117.375 257.75 C135.2488501 254.05196205 152.19327217 256.88932949 167.8125 266.3125 C180.26987894 274.71987475 188.38338118 286.73045093 193 301 C193.33 303.31 193.66 305.62 194 308 C227.66 308 261.32 308 296 308 C295.98270828 272.41466151 295.9476229 236.82954609 295.87314438 201.24429097 C295.86437745 197.04477834 295.85582767 192.8452653 295.84741211 188.64575195 C295.84573305 187.80969137 295.84405398 186.97363079 295.84232404 186.11223503 C295.81564166 172.56823369 295.80655808 159.02427467 295.80395857 145.48024974 C295.80090098 131.58666385 295.77897688 117.69320048 295.73947543 103.79966992 C295.71569001 95.22399425 295.7066863 86.64856303 295.71648689 78.07285889 C295.72179557 72.19513375 295.70880708 66.31762801 295.6813371 60.43996534 C295.66602228 57.0468657 295.65886448 53.65425693 295.67340279 50.26114273 C295.68495662 46.58397929 295.66600753 42.90820997 295.63923645 39.2311554 C295.64990971 38.15625408 295.66058297 37.08135276 295.67157966 35.97387868 C295.61093731 31.52764931 295.42367799 28.73840278 293.18572235 24.83800507 C288.33431914 22.03898409 283.90034759 22.30795221 278.38920593 22.36076355 C277.20070362 22.35240787 276.01220132 22.3440522 274.78768378 22.33544332 C271.49203538 22.31729059 268.19778451 22.32149912 264.90220487 22.3351289 C261.3473239 22.34439006 257.79258772 22.32484907 254.23774719 22.30880737 C248.07995526 22.28496096 241.9223635 22.2793602 235.76453209 22.28615379 C226.86139001 22.29594976 217.95847002 22.27822591 209.05536387 22.25378648 C194.6107162 22.21488257 180.16613201 22.1982331 165.72143555 22.19555664 C151.6898269 22.19290912 137.65829244 22.17979437 123.62670898 22.15258789 C123.19425143 22.1517512 123.19425143 22.1517512 121.00575414 22.14751705 C116.66672629 22.13905757 112.32769889 22.13039216 107.98867166 22.12162435 C71.9924549 22.04915376 35.99628345 22.01416201 0 22 C0 14.74 0 7.48 0 0 Z M320 98 C317.4673868 101.79891981 317.72731899 104.81962431 317.75949097 109.21928406 C317.75778212 110.06714267 317.75607327 110.91500128 317.75431263 111.78855258 C317.75100879 114.63996314 317.76203613 117.49114028 317.77294922 120.3425293 C317.77351314 122.38235468 317.77319715 124.42218047 317.77206421 126.46200562 C317.77148895 132.00920707 317.78327128 137.55632253 317.79721212 143.10350394 C317.80969064 148.89710797 317.81088771 154.69071383 317.81326294 160.48432922 C317.81948619 171.45965665 317.83590842 182.43494438 317.85596192 193.4102543 C317.87829466 205.90343009 317.88930774 218.39660775 317.89935279 230.88979852 C317.92027392 256.5932218 317.95586782 282.296607 318 308 C328.23 308 338.46 308 349 308 C349.350625 306.783125 349.350625 306.783125 351.125 300.625 C355.81367966 285.29936193 365.05711266 273.18205365 379 265 C395.054112 256.56934901 411.8710633 255.0362259 429.453125 259.96875 C437.30034406 262.72085526 443.63671223 266.68396179 450 272 C450.71929687 272.59425781 451.43859375 273.18851563 452.1796875 273.80078125 C461.17555766 281.97407185 466.20160203 293.00057436 469.30859375 304.55078125 C470 307 470 307 471 308 C476.29882807 308.55064482 480.68735943 308.65632028 485.5 306.25 C489.17733891 302.94039498 490.86031256 301.42101532 491.36076355 296.33001709 C491.36943863 294.83167504 491.36153318 293.33318153 491.34057617 291.83496094 C491.34101425 291.0150769 491.34145233 290.19519287 491.34190369 289.35046387 C491.33981637 286.64485731 491.3164882 283.9398731 491.29296875 281.234375 C491.28737259 279.35679462 491.28310259 277.47920986 491.28010559 275.60162354 C491.26865841 270.66300332 491.23919225 265.72464833 491.20599365 260.78613281 C491.17529009 255.74547921 491.16159964 250.70478269 491.14648438 245.6640625 C491.11432248 235.77592522 491.06312759 225.88798468 491 216 C490.38985298 215.99817719 490.38985298 215.99817719 487.30213928 215.98895264 C475.78204262 215.95195443 464.26221207 215.8941287 452.74231815 215.81609726 C446.82030722 215.77664812 440.89844441 215.74444688 434.97631836 215.72900391 C429.25732055 215.71382072 423.53873005 215.67934492 417.81991386 215.63169098 C415.64196762 215.61689445 413.46396322 215.60895998 411.28596687 215.60811615 C408.22674651 215.60573961 405.1686455 215.57860363 402.10961914 215.54589844 C401.66293633 215.54841362 401.66293633 215.54841362 399.40245056 215.56114197 C390.44363238 215.41370136 383.34468428 212.12118527 376.79296875 206.06640625 C371.9032758 200.4310085 368.91018689 193.34039743 368.84178162 185.87445068 C368.8319928 185.06119324 368.82220398 184.24793579 368.81211853 183.41003418 C368.8092408 182.96838928 368.8092408 182.96838928 368.79467773 180.73339844 C368.78477814 179.79647156 368.77487854 178.85954468 368.76467896 177.89422607 C368.73310746 174.79930137 368.70832365 171.70436131 368.68359375 168.609375 C368.66302047 166.46274417 368.6420239 164.31611735 368.62062073 162.16949463 C368.56543869 156.52082575 368.51601231 150.87212054 368.46777344 145.22338867 C368.41753021 139.45878874 368.36185886 133.69424154 368.30664062 127.9296875 C368.19910634 116.61983671 368.09765082 105.30994014 368 94 C361.96774061 93.90100439 355.93595573 93.82847093 349.90307617 93.78027344 C347.85156007 93.76017801 345.80010111 93.73289676 343.7487793 93.69824219 C340.79721975 93.64963331 337.84641852 93.62701048 334.89453125 93.609375 C333.97976517 93.58872986 333.06499908 93.56808472 332.12251282 93.54681396 C326.79609477 93.54494388 323.81035847 93.89247158 320 98 Z M390 94 C389.90733562 106.16965879 389.83625288 118.33923371 389.79275131 130.50917339 C389.77187312 136.1601323 389.74355079 141.8108499 389.69824219 147.46166992 C389.65479338 152.91463914 389.63086464 158.36737619 389.62049103 163.82050514 C389.61309797 165.9013516 389.59866114 167.9821853 389.57707977 170.06293297 C389.548059 172.97672396 389.54404349 175.88955462 389.54589844 178.8034668 C389.53151733 179.66445984 389.51713623 180.52545288 389.50231934 181.41253662 C389.52962948 185.37498327 389.69225614 187.48954834 391.77838135 190.94978333 C396.54991428 195.35318369 400.55572014 195.28097603 406.89941406 195.22705078 C407.79732666 195.22734283 408.69523926 195.22763489 409.62036133 195.22793579 C412.58554783 195.22654348 415.55048244 195.2109868 418.515625 195.1953125 C420.5725694 195.19158202 422.62951559 195.18873521 424.6864624 195.18673706 C430.09847933 195.17910335 435.51038879 195.15945704 440.92236328 195.1373291 C446.44562323 195.11686508 451.96890056 195.10773415 457.4921875 195.09765625 C468.3281722 195.07621096 479.16407716 195.0420781 490 195 C489.39801626 192.61510207 488.78745041 190.23295517 488.171875 187.8515625 C488.00413574 187.18326416 487.83639648 186.51496582 487.66357422 185.82641602 C484.28450804 172.85746485 475.24274567 162.84531839 467.1953125 152.44921875 C463.3209204 147.43984096 459.54991864 142.36202854 455.8125 137.25 C451.24466349 131.01805429 446.62833744 124.82750109 441.9375 118.6875 C441.41325439 118.00010742 440.88900879 117.31271484 440.34887695 116.60449219 C438.90974223 114.7278661 437.45860823 112.8615159 436 111 C435.58121582 110.45778809 435.16243164 109.91557617 434.73095703 109.35693359 C431.84660835 105.73571589 428.71397353 102.99758246 425 100.25 C423.989375 99.49203125 422.97875 98.7340625 421.9375 97.953125 C417.32216131 94.88441576 413.80624322 93.74538777 408.26171875 93.8046875 C407.19501953 93.81113281 406.12832031 93.81757813 405.02929688 93.82421875 C403.92650391 93.84097656 402.82371094 93.85773438 401.6875 93.875 C400.56537109 93.88402344 399.44324219 93.89304687 398.28710938 93.90234375 C395.52452091 93.92585514 392.76237068 93.95871845 390 94 Z M102.6875 291.25 C94.24410688 301.35130634 92.2305793 311.20400834 92.82080078 324.01269531 C93.68113787 333.5537633 99.30870437 342.8313431 106.25 349.25 C115.37933495 356.50510062 126.36787361 360.31066213 138 359 C151.33009071 356.14586866 160.97467649 350.17383474 168.47265625 338.7578125 C173.57748259 329.67925836 175.25665001 318.88771701 172.87890625 308.71875 C169.12481961 297.10610866 162.85583684 287.80324145 151.875 282.0625 C134.55641196 274.37124344 115.8799421 277.24076505 102.6875 291.25 Z M377.8984375 292.28515625 C371.23448742 301.00500582 367.58824336 312.01967055 369 323 C370.92014402 334.01305744 376.0978169 344.03825452 385 351 C394.84105229 357.46612389 404.96085843 360.67682626 416.6953125 358.5 C428.48746946 355.60944342 437.5610509 349.95849287 444.3515625 339.83203125 C449.99553377 330.13563512 451.71185456 319.80913427 449.3046875 308.828125 C445.90800681 297.58197214 439.70466333 288.17696636 429.21875 282.4921875 C411.07104036 273.9549585 391.65447179 277.32738662 377.8984375 292.28515625 Z " fill="#000000" transform="translate(0,81)"/>
<path d="M0 0 C61.05 0 122.1 0 185 0 C185 7.26 185 14.52 185 22 C123.95 22 62.9 22 0 22 C0 14.74 0 7.48 0 0 Z " fill="#000000" transform="translate(0,122)"/>
<path d="M0 0 C50.82 0 101.64 0 154 0 C154 7.26 154 14.52 154 22 C103.18 22 52.36 22 0 22 C0 14.74 0 7.48 0 0 Z " fill="#000000" transform="translate(0,163)"/>
<path d="M0 0 C40.59 0 81.18 0 123 0 C123 7.26 123 14.52 123 22 C82.41 22 41.82 22 0 22 C0 14.74 0 7.48 0 0 Z " fill="#000000" transform="translate(0,204)"/>
<path d="M0 0 C30.69 0 61.38 0 93 0 C93 7.26 93 14.52 93 22 C62.31 22 31.62 22 0 22 C0 14.74 0 7.48 0 0 Z " fill="#000000" transform="translate(0,245)"/>
</svg>
