<?xml version="1.0" encoding="UTF-8"?>
<!-- Generator: visioncortex VTracer 0.6.12 -->
<svg version="1.1" xmlns="http://www.w3.org/2000/svg" width="512" height="512">
<path d="M0 0 C2.67814128 2.46739961 5.29485318 4.99510874 7.90722656 7.53173828 C8.48069824 8.07942871 9.05416992 8.62711914 9.64501953 9.19140625 C17.69597852 16.8908909 24.99754603 24.85891546 31.63232422 33.8125 C32.86993636 35.4814515 34.12776476 37.13351381 35.38769531 38.78564453 C58.08005465 69.03311337 72.0138823 105.36185414 77.90722656 142.53173828 C77.97216309 142.93013916 77.97216309 142.93013916 78.30078125 144.94628906 C87.49808608 204.18775254 70.90461913 267.60732277 35.71582031 315.76220703 C28.97067953 324.85563939 21.70698549 333.33450816 13.90722656 341.53173828 C13.6375708 341.81573486 13.6375708 341.81573486 12.27294922 343.25292969 C4.56823705 351.30937387 -3.41434167 358.61790141 -12.37353516 365.25683594 C-14.04248666 366.49444808 -15.69454897 367.75227648 -17.34667969 369.01220703 C-66.43078389 405.83625125 -130.43930817 419.96888976 -190.78027344 411.57080078 C-240.00019297 403.90115409 -284.10501452 381.77450559 -320.09277344 347.53173828 C-320.37677002 347.26208252 -320.37677002 347.26208252 -321.81396484 345.89746094 C-329.87040903 338.19274877 -337.17893657 330.21017005 -343.81787109 321.25097656 C-345.05548324 319.58202506 -346.31331163 317.92996275 -347.57324219 316.27783203 C-370.26560152 286.03036319 -384.19942918 249.70162242 -390.09277344 212.53173828 C-390.22264648 211.73493652 -390.35251953 210.93813477 -390.48632812 210.1171875 C-399.68363296 150.87572402 -383.090166 87.45615379 -347.90136719 39.30126953 C-341.15622641 30.20783717 -333.89253236 21.72896841 -326.09277344 13.53173828 C-325.55346191 12.96374512 -325.01415039 12.39575195 -324.45849609 11.81054688 C-316.75378393 3.75410269 -308.77120521 -3.55442485 -299.81201172 -10.19335938 C-298.14306022 -11.43097152 -296.49099791 -12.68879991 -294.83886719 -13.94873047 C-264.2541345 -36.89411304 -227.69397829 -50.72752259 -190.09277344 -56.46826172 C-189.26970703 -56.59813477 -188.44664062 -56.72800781 -187.59863281 -56.86181641 C-121.04208593 -66.93844373 -49.86197391 -44.87577652 0 0 Z M-312.09277344 29.53173828 C-351.70093337 69.50607534 -371.17764453 126.48730632 -371.08886719 181.97314453 C-370.39197507 241.60719829 -343.22167919 294.76126526 -301.53417969 336.06689453 C-259.95618335 374.70007494 -203.28992946 393.91224879 -147.00585938 392.44018555 C-88.58999909 389.99060882 -34.9329787 363.19744467 4.59472656 320.65673828 C42.04517003 277.51495162 61.77743895 221.40923134 58.58276367 164.26953125 C54.45679696 106.88771935 28.2364164 52.61269623 -15.36621094 14.76220703 C-88.30081227 -44.90205853 -193.55933038 -56.20626759 -312.09277344 29.53173828 Z " fill="#000000" transform="translate(412.0927734375,78.46826171875)"/>
<path d="M0 0 C20.46 0 40.92 0 62 0 C62 50.49 62 100.98 62 153 C68.6 153 75.2 153 82 153 C82 160.26 82 167.52 82 175 C54.94 175 27.88 175 0 175 C0 167.74 0 160.48 0 153 C6.6 153 13.2 153 20 153 C20 109.44 20 65.88 20 21 C13.4 21 6.8 21 0 21 C0 14.07 0 7.14 0 0 Z " fill="#000000" transform="translate(215,215)"/>
<path d="M0 0 C7.32280163 5.03131269 12.61445482 11.40994478 15 20 C15.99480029 29.76292381 15.18249661 38.16678438 9.38671875 46.25 C3.44615401 53.41555925 -3.02246634 57.33911173 -12.25 58.75 C-21.16365717 59.5739515 -29.92662598 57.07737421 -36.91015625 51.46484375 C-42.98329342 45.80431887 -46.60673037 39.17697566 -47.23828125 30.86328125 C-47.46936864 19.80757408 -45.49377395 12.91105667 -37.921875 4.7890625 C-27.01174229 -5.36711795 -13.12746596 -6.68164435 0 0 Z " fill="#000000" transform="translate(272,116)"/>
</svg>
