<?xml version="1.0" encoding="UTF-8"?>
<!-- Generator: visioncortex VTracer 0.6.12 -->
<svg version="1.1" xmlns="http://www.w3.org/2000/svg" width="512" height="512">
<path d="M0 0 C0.96164062 0.75796875 1.92328125 1.5159375 2.9140625 2.296875 C18.21236246 14.76789421 32.45684731 28.96784348 44 45 C44.63679688 45.86496094 45.27359375 46.72992188 45.9296875 47.62109375 C81.74457321 97.36399056 96.96449412 160.29339416 88.03125 220.9296875 C81.40247172 261.47834514 65.77888721 299.82145897 40 332 C39.24203125 332.96164062 38.4840625 333.92328125 37.703125 334.9140625 C25.23210579 350.21236246 11.03215652 364.45684731 -5 376 C-5.86496094 376.63679688 -6.72992188 377.27359375 -7.62109375 377.9296875 C-58.37859546 414.47508873 -122.06353166 429.10973971 -183.78808594 419.54785156 C-225.7232292 412.39503448 -265.70447956 394.9285161 -298 367 C-298.37898438 366.67644531 -298.37898438 366.67644531 -300.296875 365.0390625 C-313.44427469 353.52405807 -325.69316954 341.13004791 -336 327 C-336.64066406 326.13117188 -337.28132813 325.26234375 -337.94140625 324.3671875 C-351.07234526 306.09550056 -361.3478963 286.12655187 -369 265 C-369.27827637 264.23252441 -369.55655273 263.46504883 -369.84326172 262.67431641 C-390.44895676 204.61276533 -385.42015472 138.61366762 -359.25 83.25 C-349.15626714 62.47641557 -336.02969261 44.43169827 -321 27 C-320.34902344 26.22398438 -319.69804687 25.44796875 -319.02734375 24.6484375 C-315.67731073 20.69555116 -312.1542567 17.23239539 -308.1953125 13.890625 C-306.65584101 12.56481682 -305.15302875 11.19580508 -303.6796875 9.796875 C-281.46325975 -11.26457027 -253.63497016 -26.60966197 -225 -37 C-224.2378418 -37.27827637 -223.47568359 -37.55655273 -222.69042969 -37.84326172 C-208.80171578 -42.81380145 -194.52870605 -45.59893763 -180 -48 C-179.20835449 -48.13422363 -178.41670898 -48.26844727 -177.60107422 -48.40673828 C-115.7440671 -58.45938561 -48.50873376 -38.86133853 0 0 Z M-170.6015625 55.0234375 C-175.80231248 62.96142431 -176.89030156 70.62365956 -176 80 C-173.8821873 88.31907265 -168.13447044 95.09962372 -161.125 99.875 C-153.82985262 104.02762236 -146.15310676 104.91322904 -138 103 C-129.42118713 99.90494925 -122.82264824 94.92042246 -118.625 86.75 C-115.30528624 79.53323096 -114.77635662 71.88127303 -116.71875 64.1328125 C-119.71992932 56.17000607 -124.46148639 50.11988534 -132 46 C-146.07669242 40.24971715 -160.81364266 42.65723633 -170.6015625 55.0234375 Z M-186 146 C-186 152.27 -186 158.54 -186 165 C-179.4 165 -172.8 165 -166 165 C-166 209.22 -166 253.44 -166 299 C-172.6 299 -179.2 299 -186 299 C-186 305.6 -186 312.2 -186 319 C-159.6 319 -133.2 319 -106 319 C-106 312.4 -106 305.8 -106 299 C-112.6 299 -119.2 299 -126 299 C-126 248.51 -126 198.02 -126 146 C-145.8 146 -165.6 146 -186 146 Z " fill="#000000" transform="translate(402,70)"/>
</svg>
