<?xml version="1.0" encoding="UTF-8"?>
<!-- Generator: visioncortex VTracer 0.6.12 -->
<svg version="1.1" xmlns="http://www.w3.org/2000/svg" width="512" height="512">
<path d="M0 0 C8.50994473 -0.04081134 17.0198759 -0.07087959 25.52989197 -0.09187031 C28.76327415 -0.09985381 31.99660791 -0.11153589 35.22996521 -0.12647724 C65.33454193 -0.25693933 92.40516195 0.87571629 116.12260437 22.08235455 C116.95533875 22.82098736 117.78807312 23.55962017 118.64604187 24.3206358 C133.85032777 38.61266454 143.56027356 58.67283058 144.42454529 79.59361553 C144.60380805 86.36112107 144.61718292 93.12927696 144.63432312 99.8987608 C144.65139721 102.47473234 144.66969725 105.050696 144.68913269 107.62665081 C144.73342473 113.82257338 144.76207372 120.01846921 144.78479564 126.21450466 C144.80348206 131.22485376 144.82823099 136.23514019 144.85713196 141.24544048 C144.85918523 141.60211538 144.85918523 141.60211538 144.86957604 143.40710652 C144.87791278 144.85266928 144.88625651 146.298232 144.89460719 147.74379468 C144.98612606 163.76564078 145.04650037 179.78753953 145.10048693 195.80954874 C145.12547867 203.11909117 145.15739677 210.42859963 145.18901062 217.73811626 C145.24359756 230.60551165 145.27892207 243.47287561 145.30293655 256.3403616 C145.3100644 259.56427694 145.32035607 262.78816859 145.33143616 266.01207256 C145.34803031 271.05375177 145.35409482 276.09533888 145.35198975 281.13704395 C145.35269478 282.95208533 145.35667268 284.76712938 145.36444092 286.58215427 C145.46994072 312.93291155 141.35400103 336.69241365 123.12260437 357.08235455 C122.38397156 357.91508892 121.64533875 358.7478233 120.88432312 359.60579205 C106.14130637 375.28985242 85.51576588 384.81310766 63.95648193 385.48108196 C61.38704483 385.50711169 58.81741591 385.51755074 56.24784851 385.51472759 C54.8141955 385.52377809 53.38055014 385.53411314 51.94691467 385.54561138 C48.07737645 385.57300485 44.20798553 385.58245576 40.33836293 385.58846545 C36.19822725 385.5980175 32.0581927 385.6242867 27.91812134 385.64847088 C20.01334969 385.69211229 12.10859758 385.72061075 4.20374244 385.74379426 C-4.5110566 385.77015426 -13.22573125 385.81451003 -21.94044757 385.86004329 C-38.1846971 385.94422265 -54.42891286 386.00223289 -70.67333031 386.0414896 C-80.00832215 386.06431923 -89.3432076 386.09535715 -98.67813081 386.13800663 C-105.26500875 386.16768719 -111.85188488 386.18991405 -118.43880874 386.20649296 C-122.2758076 386.21637342 -126.11272367 386.229424 -129.94967461 386.25127506 C-160.37193491 386.41941537 -187.90746645 385.51475051 -211.87739563 364.08235455 C-212.71013 363.34372173 -213.54286438 362.60508892 -214.40083313 361.8440733 C-229.40380512 347.74127963 -239.21089246 327.83954036 -240.17933655 307.1718626 C-240.35714588 301.31615361 -240.37195517 295.45984902 -240.38911438 289.6018858 C-240.40621778 287.35659157 -240.42452092 285.11130622 -240.44392395 282.86603069 C-240.49231295 276.8041817 -240.52209213 270.74237574 -240.54755783 264.68039227 C-240.57080171 259.6053207 -240.60391163 254.53033194 -240.63686085 249.45531559 C-240.73612301 234.05615957 -240.80152963 218.65699505 -240.85527819 203.25763047 C-240.87213351 198.45642065 -240.89087041 193.65522085 -240.91059875 188.85402203 C-240.98102983 171.60808804 -241.03005468 154.36223027 -241.05772781 137.11616421 C-241.06487012 133.34582072 -241.07517184 129.57549725 -241.08622742 125.80516338 C-241.10287062 119.86241152 -241.10887858 113.91973792 -241.10678101 107.976964 C-241.10749009 105.80626897 -241.11151033 103.63557189 -241.11923218 101.46489048 C-241.20923884 74.32944158 -237.7522872 50.19197827 -218.87739563 29.08235455 C-218.13876282 28.24962017 -217.40013 27.4168858 -216.63911438 26.55891705 C-202.01749123 11.0039988 -181.47600466 1.388102 -160.07554626 0.68362713 C-157.67709111 0.65763774 -155.27843133 0.64715215 -152.87983704 0.6499815 C-151.53815235 0.64093449 -150.1964758 0.63060701 -148.85480976 0.61912346 C-145.23603899 0.59177657 -141.61742508 0.58231865 -137.99856448 0.57628155 C-134.13622034 0.56667379 -130.27398678 0.54018582 -126.41171265 0.51582623 C-118.99365992 0.47169374 -111.57562986 0.4429708 -104.15748399 0.42016327 C-98.20248685 0.40152354 -92.24754277 0.37682682 -86.29258728 0.34782696 C-85.44929412 0.34372041 -84.60600097 0.33961387 -83.73715347 0.33538288 C-82.03400675 0.32705597 -80.33086012 0.31871226 -78.62771356 0.31035173 C-62.83065125 0.2334597 -47.03357039 0.17520374 -31.23639965 0.12618065 C-20.82421245 0.09363478 -10.41211773 0.05050289 0 0 Z " fill="#D9596E" transform="translate(303.8773956298828,62.91764545440674)"/>
<path d="M0 0 C8.50994473 -0.04081134 17.0198759 -0.07087959 25.52989197 -0.09187031 C28.76327415 -0.09985381 31.99660791 -0.11153589 35.22996521 -0.12647724 C65.33454193 -0.25693933 92.40516195 0.87571629 116.12260437 22.08235455 C116.95533875 22.82098736 117.78807312 23.55962017 118.64604187 24.3206358 C133.85032777 38.61266454 143.56027356 58.67283058 144.42454529 79.59361553 C144.60380805 86.36112107 144.61718292 93.12927696 144.63432312 99.8987608 C144.65139721 102.47473234 144.66969725 105.050696 144.68913269 107.62665081 C144.73342473 113.82257338 144.76207372 120.01846921 144.78479564 126.21450466 C144.80348206 131.22485376 144.82823099 136.23514019 144.85713196 141.24544048 C144.85918523 141.60211538 144.85918523 141.60211538 144.86957604 143.40710652 C144.87791278 144.85266928 144.88625651 146.298232 144.89460719 147.74379468 C144.98612606 163.76564078 145.04650037 179.78753953 145.10048693 195.80954874 C145.12547867 203.11909117 145.15739677 210.42859963 145.18901062 217.73811626 C145.24359756 230.60551165 145.27892207 243.47287561 145.30293655 256.3403616 C145.3100644 259.56427694 145.32035607 262.78816859 145.33143616 266.01207256 C145.34803031 271.05375177 145.35409482 276.09533888 145.35198975 281.13704395 C145.35269478 282.95208533 145.35667268 284.76712938 145.36444092 286.58215427 C145.46994072 312.93291155 141.35400103 336.69241365 123.12260437 357.08235455 C122.38397156 357.91508892 121.64533875 358.7478233 120.88432312 359.60579205 C106.14130637 375.28985242 85.51576588 384.81310766 63.95648193 385.48108196 C61.38704483 385.50711169 58.81741591 385.51755074 56.24784851 385.51472759 C54.8141955 385.52377809 53.38055014 385.53411314 51.94691467 385.54561138 C48.07737645 385.57300485 44.20798553 385.58245576 40.33836293 385.58846545 C36.19822725 385.5980175 32.0581927 385.6242867 27.91812134 385.64847088 C20.01334969 385.69211229 12.10859758 385.72061075 4.20374244 385.74379426 C-4.5110566 385.77015426 -13.22573125 385.81451003 -21.94044757 385.86004329 C-38.1846971 385.94422265 -54.42891286 386.00223289 -70.67333031 386.0414896 C-80.00832215 386.06431923 -89.3432076 386.09535715 -98.67813081 386.13800663 C-105.26500875 386.16768719 -111.85188488 386.18991405 -118.43880874 386.20649296 C-122.2758076 386.21637342 -126.11272367 386.229424 -129.94967461 386.25127506 C-160.37193491 386.41941537 -187.90746645 385.51475051 -211.87739563 364.08235455 C-212.71013 363.34372173 -213.54286438 362.60508892 -214.40083313 361.8440733 C-229.40380512 347.74127963 -239.21089246 327.83954036 -240.17933655 307.1718626 C-240.35714588 301.31615361 -240.37195517 295.45984902 -240.38911438 289.6018858 C-240.40621778 287.35659157 -240.42452092 285.11130622 -240.44392395 282.86603069 C-240.49231295 276.8041817 -240.52209213 270.74237574 -240.54755783 264.68039227 C-240.57080171 259.6053207 -240.60391163 254.53033194 -240.63686085 249.45531559 C-240.73612301 234.05615957 -240.80152963 218.65699505 -240.85527819 203.25763047 C-240.87213351 198.45642065 -240.89087041 193.65522085 -240.91059875 188.85402203 C-240.98102983 171.60808804 -241.03005468 154.36223027 -241.05772781 137.11616421 C-241.06487012 133.34582072 -241.07517184 129.57549725 -241.08622742 125.80516338 C-241.10287062 119.86241152 -241.10887858 113.91973792 -241.10678101 107.976964 C-241.10749009 105.80626897 -241.11151033 103.63557189 -241.11923218 101.46489048 C-241.20923884 74.32944158 -237.7522872 50.19197827 -218.87739563 29.08235455 C-218.13876282 28.24962017 -217.40013 27.4168858 -216.63911438 26.55891705 C-202.01749123 11.0039988 -181.47600466 1.388102 -160.07554626 0.68362713 C-157.67709111 0.65763774 -155.27843133 0.64715215 -152.87983704 0.6499815 C-151.53815235 0.64093449 -150.1964758 0.63060701 -148.85480976 0.61912346 C-145.23603899 0.59177657 -141.61742508 0.58231865 -137.99856448 0.57628155 C-134.13622034 0.56667379 -130.27398678 0.54018582 -126.41171265 0.51582623 C-118.99365992 0.47169374 -111.57562986 0.4429708 -104.15748399 0.42016327 C-98.20248685 0.40152354 -92.24754277 0.37682682 -86.29258728 0.34782696 C-85.44929412 0.34372041 -84.60600097 0.33961387 -83.73715347 0.33538288 C-82.03400675 0.32705597 -80.33086012 0.31871226 -78.62771356 0.31035173 C-62.83065125 0.2334597 -47.03357039 0.17520374 -31.23639965 0.12618065 C-20.82421245 0.09363478 -10.41211773 0.05050289 0 0 Z M-162.87739563 74.08235455 C-163.18483704 74.34210064 -163.18483704 74.34210064 -164.74067688 75.6565733 C-177.35915954 87.17275172 -185.32022858 105.2385214 -186.87739563 122.08235455 C-187.03306823 126.58214825 -187.03456474 131.08018283 -187.03852844 135.58235455 C-187.04316362 136.94819553 -187.04818921 138.31403523 -187.05357361 139.67987347 C-187.06663643 143.37662875 -187.07313112 147.07336592 -187.07758427 150.77014065 C-187.08052626 153.08678965 -187.08463324 155.40343382 -187.08908844 157.72008038 C-187.10275026 164.98855756 -187.11242208 172.25702357 -187.11629033 179.5255127 C-187.12076124 187.87761873 -187.13826959 196.22956032 -187.16729093 204.5816164 C-187.18901525 211.06177184 -187.19900039 217.54188138 -187.20033145 224.02207279 C-187.20137227 227.88069154 -187.20712326 231.73915545 -187.22515106 235.5977354 C-187.24181788 239.23563449 -187.24369877 242.87326544 -187.23501205 246.51118946 C-187.23389336 248.45606877 -187.24746795 250.40093994 -187.26176453 252.34576702 C-187.1602166 274.17003194 -180.28973032 293.65471572 -165.27583313 309.7190733 C-159.67332948 315.23945556 -154.52603581 319.86856578 -146.87739563 322.08235455 C-146.87739563 322.74235455 -146.87739563 323.40235455 -146.87739563 324.08235455 C-144.59004209 325.05219245 -142.29828351 326.00809321 -140.00239563 326.95735455 C-139.68657532 327.09206158 -139.68657532 327.09206158 -138.08833313 327.7737608 C-128.0906508 331.87281055 -118.36206794 332.38326714 -107.64131165 332.38875103 C-106.23225473 332.39638892 -104.82320193 332.40481916 -103.41415405 332.41397381 C-99.61193056 332.43577382 -95.80978742 332.44469881 -92.00750852 332.44980025 C-89.62162362 332.45346315 -87.23575915 332.45971325 -84.84988213 332.46680164 C-76.49616971 332.49125244 -68.14251893 332.50433713 -59.78877258 332.50789165 C-52.05210125 332.51151651 -44.31582911 332.54134746 -36.57927948 332.58329624 C-29.89856794 332.61822524 -23.21798716 332.63344402 -16.53718513 332.63413769 C-12.5643621 332.6349233 -8.59194594 332.64332495 -4.61921883 332.67213535 C22.2422925 332.85484699 46.18680635 330.90189862 67.12260437 312.08235455 C67.73362 311.56415142 68.34463562 311.0459483 68.97416687 310.51204205 C83.04840618 297.72312139 89.96769458 278.03671934 91.39959335 259.49575901 C91.50747339 255.84944495 91.52848313 252.21433009 91.51078796 248.5664854 C91.51486832 247.18798695 91.52021829 245.80949178 91.52671814 244.43100262 C91.54022267 240.73676989 91.53516449 237.04279263 91.52558088 233.34855628 C91.51789708 229.45273308 91.52505363 225.55692936 91.52973938 221.66110516 C91.53517123 215.12431763 91.5280727 208.58763235 91.51371765 202.0508604 C91.49738923 194.52936169 91.5026914 187.008107 91.51919687 179.48661417 C91.53287737 172.98846113 91.53469975 166.49038089 91.52688086 159.99221808 C91.52224106 156.12874394 91.52147636 152.26538393 91.53149033 148.40191746 C91.54025443 144.76798608 91.53396907 141.13436476 91.51680756 137.50046635 C91.51104828 135.55668705 91.51977636 133.61288105 91.52919006 131.66911602 C91.44919814 120.39411206 89.71864843 109.27396715 84.99760437 98.95735455 C84.69975037 98.29413189 84.40189636 97.63090923 84.09501648 96.94758892 C80.96889595 90.29006552 76.915371 84.67112263 72.12260437 79.08235455 C71.50901062 78.35661236 70.89541687 77.63087017 70.26322937 76.8831358 C57.81494134 63.34429262 38.78659189 55.30990568 20.66222954 53.79267979 C16.95945286 53.67513046 13.26645406 53.64265018 9.56181335 53.64656353 C8.15393284 53.63755929 6.74605964 53.62734505 5.3381958 53.61603069 C1.55257891 53.58979111 -2.23283392 53.58250822 -6.01853299 53.58058333 C-8.39591035 53.5784351 -10.77323756 53.5720008 -13.15060234 53.56409168 C-21.47956954 53.53641994 -29.80839375 53.52407531 -38.1374054 53.52644634 C-45.84410403 53.52824445 -53.55016988 53.49665055 -61.25670868 53.44921535 C-67.91967811 53.40969706 -74.58244325 53.39390682 -81.24552864 53.39581257 C-85.20442583 53.3965693 -89.16276003 53.38848203 -93.12153816 53.35627842 C-119.85886515 53.15377383 -142.03641075 55.89581524 -162.87739563 74.08235455 Z " fill="#C85D80" transform="translate(303.8773956298828,62.91764545440674)"/>
<path d="M0 0 C3.98690603 0.01283425 7.97376017 0.00087061 11.96066904 -0.00693083 C18.65290417 -0.01597932 25.34486174 -0.00416906 32.03705454 0.01977205 C39.7222337 0.04695188 47.40674868 0.03817285 55.09191167 0.01064003 C61.74308406 -0.01221506 68.3940591 -0.01517127 75.04525816 -0.00216663 C78.99444539 0.00554163 82.9433229 0.00691318 86.89248896 -0.00984907 C113.6516298 -0.10784307 137.57501158 1.93339434 158.42035532 20.67162752 C158.72586313 20.93072908 158.72586313 20.93072908 160.27191782 22.24194002 C173.44534187 34.21231165 181.58304512 53.33685793 182.60874987 70.89694643 C182.68576406 74.50513684 182.70208325 78.10851751 182.69501352 81.71752596 C182.69937163 83.09381048 182.7045584 84.47009258 182.71050119 85.84637117 C182.72378681 89.5532481 182.72448144 93.26002241 182.72193789 96.96691847 C182.72086069 100.07769566 182.72577074 103.18845273 182.73054332 106.29922557 C182.7416032 113.64831006 182.74209631 120.99734344 182.73602915 128.34643221 C182.72999693 135.88940259 182.74228933 143.43218608 182.76359922 150.9751246 C182.7813042 157.48509307 182.78720251 163.99500254 182.78396147 170.50499415 C182.78216201 174.37807239 182.78464893 178.25101741 182.79867601 182.12407351 C182.81139512 185.77189096 182.80917979 189.41942068 182.79626513 193.06723452 C182.79283064 195.01683499 182.80397359 196.96644485 182.81583261 198.91601229 C182.68073829 222.0187903 174.95355452 242.30212337 158.42035532 258.67162752 C137.38162545 278.35532055 111.63054052 279.44756223 84.44033337 279.27739191 C80.43997648 279.25699142 76.43964191 279.26317697 72.4392457 279.26549959 C65.7337706 279.26544637 59.02858057 279.24589094 52.32318735 279.21361971 C44.60502963 279.17665159 36.88724312 279.16796035 29.16900837 279.17491722 C21.69012224 279.18124982 14.21136134 279.17042293 6.73250055 279.15095186 C3.57255228 279.14284372 0.41266859 279.14005596 -2.74728918 279.141644 C-6.4724079 279.14253134 -10.19718097 279.12808203 -13.92220831 279.10241747 C-15.91740902 279.09199636 -17.91266899 279.09589244 -19.90789175 279.10043001 C-30.54808789 279.00135208 -40.63514654 277.33363272 -50.39214468 272.98412752 C-51.38858999 272.54713533 -52.38503531 272.11014315 -53.41167593 271.65990877 C-54.12710562 271.33377596 -54.84253531 271.00764315 -55.57964468 270.67162752 C-55.57964468 270.01162752 -55.57964468 269.35162752 -55.57964468 268.67162752 C-56.46780874 268.41768221 -57.35597281 268.1637369 -58.27105093 267.90209627 C-63.56781733 265.93222447 -67.350685 262.33987849 -71.57964468 258.67162752 C-72.20097281 258.14697908 -72.82230093 257.62233065 -73.46245718 257.08178377 C-87.49681016 244.25503791 -94.41769897 224.65007924 -95.85663366 206.10100794 C-95.96444124 202.47994423 -95.98553323 198.87015731 -95.96782827 195.24755526 C-95.97190878 193.87890887 -95.97725882 192.51026578 -95.98375845 191.14162874 C-95.9972613 187.47425403 -95.99220553 183.8071367 -95.98262119 180.13975835 C-95.9749365 176.27196233 -95.98209417 172.40418591 -95.98677969 168.53638887 C-95.99221128 162.04667951 -95.9851137 155.55707314 -95.97075796 149.06737947 C-95.95442954 141.60041173 -95.95973182 134.13368979 -95.97623718 126.66672796 C-95.98991837 120.21528351 -95.99173973 113.76391239 -95.98392117 107.3124581 C-95.97928174 103.47692934 -95.9785156 99.64151555 -95.98853064 95.80599451 C-95.99729576 92.19832714 -95.99100761 88.59097205 -95.97384787 84.98333788 C-95.96808961 83.05387199 -95.97681579 81.1243792 -95.98623037 79.19492769 C-95.83229662 57.65079989 -88.67259318 37.98647685 -73.53667593 22.49975252 C-65.88619421 15.00934399 -57.55885102 9.47604323 -47.57964468 5.67162752 C-46.54717611 5.24588442 -45.51470755 4.82014132 -44.45095205 4.38149691 C-30.04104741 -0.74906597 -15.0877052 -0.06393128 0 0 Z M-60.88823843 39.46459627 C-70.43735712 51.92476269 -74.04258101 63.44655921 -73.96782827 79.01293612 C-73.97190043 80.44467744 -73.97724591 81.87641561 -73.98375845 83.30814791 C-73.99736388 87.17401203 -73.99216098 91.0396343 -73.98262119 94.90550232 C-73.97498633 98.9669241 -73.98208105 103.0283262 -73.98677969 107.08974886 C-73.9922274 113.91037352 -73.98507287 120.73090052 -73.97075796 127.55151033 C-73.95444642 135.41376235 -73.95971299 143.27578075 -73.97623718 151.13802707 C-73.98989588 157.91031914 -73.99174998 164.68254128 -73.98392117 171.45484269 C-73.97926697 175.4898952 -73.97855697 179.5248383 -73.98853064 183.55988359 C-73.99726168 187.35705609 -73.99106775 191.15393061 -73.97384787 194.95107126 C-73.96991495 196.33647784 -73.97096155 197.72190992 -73.97763586 199.107306 C-74.04963365 215.5840786 -69.82911902 230.21970451 -58.18511343 242.35131502 C-45.57184288 253.58412268 -31.59813787 257.29779595 -14.96782827 257.17333651 C-13.55519974 257.17713086 -12.14257495 257.18264002 -10.72995901 257.18970919 C-6.93449477 257.20353334 -3.13949046 257.19258836 0.65594769 257.17599797 C4.65061078 257.16202373 8.64525049 257.16862129 12.63992929 257.17213106 C19.34252846 257.17482287 26.04494748 257.16144456 32.74750376 257.13818026 C40.47124848 257.11155524 48.19469272 257.10983418 55.91846764 257.12156862 C63.38452226 257.13238544 70.85046933 257.12613021 78.31651545 257.11201334 C81.47812459 257.10628947 84.63965409 257.10630756 87.80126429 257.11107874 C91.52956353 257.11588703 95.2575379 257.1055895 98.98577547 257.08412409 C100.9885858 257.07599967 102.99143892 257.08236423 104.99425364 257.08932161 C120.74515543 256.96106724 134.66315156 252.19046174 146.17035532 241.14428377 C157.04317221 229.19551104 161.19349715 215.51786807 161.06732798 199.63256502 C161.07412273 198.17391549 161.08303617 196.71527456 161.09387827 195.25664949 C161.1164583 191.33496534 161.10792487 187.41394697 161.09198284 183.49225283 C161.07921209 179.36371402 161.09109466 175.23522746 161.09891367 171.10668612 C161.10797803 164.17705862 161.0961073 157.24769866 161.07221079 150.3181119 C161.04500555 142.33752609 161.05382201 134.35757926 161.08134282 126.37700891 C161.1041251 119.49161978 161.10718969 112.60642157 161.09414947 105.72100687 C161.08640476 101.62328434 161.0851744 97.5258609 161.10183191 93.42815828 C161.11641132 89.57328206 161.10601364 85.71921943 161.07736063 81.86442995 C161.07082086 80.46051803 161.0725236 79.05653609 161.08367395 77.65265322 C161.19195672 62.61862142 156.319928 49.50555826 146.24066782 38.23412752 C133.91439997 26.27158561 119.91153979 22.37083059 103.15424204 22.36523104 C101.70633632 22.35760103 100.25843463 22.34917209 98.81053782 22.34000826 C94.89077504 22.31813462 90.97109025 22.30927358 87.05127335 22.30418181 C84.59660508 22.30052866 82.14195694 22.29428354 79.68729639 22.28718042 C71.10709605 22.26270711 62.52695595 22.24963939 53.94672251 22.24609041 C45.97653662 22.2424606 38.00673709 22.21259974 30.03666914 22.17068583 C23.17267411 22.13586747 16.30880636 22.12053996 9.44472373 22.11984438 C5.35468115 22.11905524 1.26503225 22.11048621 -2.82491827 22.08184671 C-6.67799484 22.05546816 -10.53035694 22.05356931 -14.38348341 22.06950235 C-15.7874199 22.07130149 -17.19139937 22.06476696 -18.59524488 22.04868364 C-34.47628947 21.87802305 -49.83883237 27.66968811 -60.88823843 39.46459627 Z " fill="#FDFBFB" transform="translate(212.5796446800232,116.32837247848511)"/>
<path d="M0 0 C0.42285278 0.00281982 0.42285278 0.00281982 2.56274414 0.01708984 C17.08917332 0.29839928 30.01917566 5.73246046 40.55859375 15.83203125 C51.40961864 27.77380041 55.30499078 41.65009311 55.0234375 57.5 C54.23586408 71.73466026 47.27713608 84.79017712 36.8125 94.3125 C23.92372661 104.35671914 10.82309768 107.79176 -5.1875 106.3125 C-19.81607169 104.40374519 -32.16410151 97.39448081 -41.2265625 85.67578125 C-50.28743634 72.16158431 -52.62575895 58.27559388 -51.1875 42.3125 C-50.11049859 37.5891485 -48.46190867 33.57845941 -46.1875 29.3125 C-45.67960938 28.34957031 -45.17171875 27.38664062 -44.6484375 26.39453125 C-37.00052346 13.25534244 -25.9990233 6.76168654 -12.33984375 1.140625 C-8.18030674 0.04790896 -4.28391919 -0.0297229 0 0 Z " fill="#F65050" transform="translate(254.1875,202.6875)"/>
<path d="M0 0 C16.35615747 13.07032226 26.7374009 30.31635285 30 51 C31.8300985 71.53076016 25.73088843 91.57140219 12.90234375 107.625 C-1.23898794 123.98604689 -20.07358567 133.60003763 -41.74609375 135.203125 C-61.92505862 135.55457286 -79.71605445 129.10707175 -95 116 C-95.36287109 115.69320312 -95.36287109 115.69320312 -97.19921875 114.140625 C-111.65973254 100.84490702 -118.66967803 81.46093709 -120.3203125 62.27734375 C-120.94786423 42.38395398 -113.3515541 23.63483231 -100 9 C-99.48308594 8.3915625 -98.96617187 7.783125 -98.43359375 7.15625 C-73.40936578 -20.43938986 -28.92530248 -21.39267163 0 0 Z M-69 12 C-69.96421875 12.50789063 -70.9284375 13.01578125 -71.921875 13.5390625 C-85.05914117 21.1964193 -91.52344079 32.17541033 -97.16796875 45.82421875 C-100.78426892 59.62727998 -98.11406376 74.98470575 -91.25 87.25 C-83.0644615 99.84470636 -72.56465367 107.93849238 -58 112 C-42.59997771 115.16173642 -29.28080369 113.237791 -15.87109375 105.1015625 C-4.33916844 97.16257718 3.77114557 86.19514183 7.4375 72.5625 C9.98910553 57.28121801 7.75033339 41.88615837 -1 29 C-9.9039601 17.18012314 -22.25241213 9.26885967 -37 7 C-48.53333787 6.07974112 -58.56794917 6.50504274 -69 12 Z " fill="#FEFCFC" transform="translate(301,196)"/>
<path d="M0 0 C0.42285278 0.00281982 0.42285278 0.00281982 2.56274414 0.01708984 C17.09944571 0.29859821 29.96000561 5.74391486 40.54296875 15.796875 C49.8125 26.07153614 49.8125 26.07153614 49.8125 31.3125 C47 32.875 47 32.875 43.8125 34.3125 C43.3175 34.1475 43.3175 34.1475 40.8125 33.3125 C40.9775 32.9825 40.9775 32.9825 41.8125 31.3125 C40.89726562 31.68503906 39.98203125 32.05757812 39.0390625 32.44140625 C37.85054688 32.91449219 36.66203125 33.38757813 35.4375 33.875 C34.25414062 34.35066406 33.07078125 34.82632813 31.8515625 35.31640625 C28.8125 36.3125 28.8125 36.3125 26.8125 35.3125 C27.1425 34.3225 27.1425 34.3225 28.8125 29.3125 C27.4925 29.3125 26.1725 29.3125 24.8125 29.3125 C24.8125 28.6525 24.8125 27.9925 24.8125 27.3125 C22.46078869 27.91111742 20.1265622 28.58174352 17.8125 29.3125 C17.4825 29.9725 17.1525 30.6325 16.8125 31.3125 C8.24107143 31.59821429 8.24107143 31.59821429 4.8125 29.3125 C5.4725 28.6525 6.1325 27.9925 6.8125 27.3125 C4.29309644 25.66082451 3.14334692 25.26462056 0.11328125 25.703125 C-0.87285156 25.98671875 -1.85898438 26.2703125 -2.875 26.5625 C-3.92945313 26.85382813 -4.98390625 27.14515625 -6.0703125 27.4453125 C-7.09898437 27.73148438 -8.12765625 28.01765625 -9.1875 28.3125 C-11.56967455 28.86116411 -13.95651036 29.37519494 -16.34765625 29.8828125 C-18.1875 30.3125 -18.1875 30.3125 -21.1875 31.3125 C-23.92979621 31.38042065 -26.65621611 31.31043463 -29.3984375 31.25 C-34.48759809 31.36404281 -38.66057432 32.79668781 -43.3203125 34.69140625 C-45.1875 35.3125 -45.1875 35.3125 -48.1875 35.3125 C-44.52131295 23.27401078 -36.68598733 13.38921317 -25.64453125 7.26953125 C-17.03294637 2.76866351 -9.72784647 -0.06749423 0 0 Z " fill="#D64C76" transform="translate(254.1875,202.6875)"/>
<path d="M0 0 C3.96 0 7.92 0 12 0 C11.32932987 3.35335066 10.69790531 6.05189879 9.5625 9.1875 C5.94533345 19.98606552 5.46751777 30.70575496 5 42 C4.34 42 3.68 42 3 42 C2.835 42.33 2.835 42.33 2 44 C0.9275 43.979375 -0.145 43.95875 -1.25 43.9375 C-8.05084746 44.05084746 -8.05084746 44.05084746 -10 46 C-15.28176226 46.28324908 -20.5190485 46.22214272 -25.75 45.4375 C-29 45 -29 45 -37 46 C-37 33.79 -37 21.58 -37 9 C-35.68 9 -34.36 9 -33 9 C-33 8.34 -33 7.68 -33 7 C-31.9275 7.020625 -30.855 7.04125 -29.75 7.0625 C-24.53658537 6.97560976 -24.53658537 6.97560976 -22 6 C-21.67 5.34 -21.34 4.68 -21 4 C-16.45906828 2.58095884 -11.7056901 2.90773157 -7 3 C-7 2.34 -7 1.68 -7 1 C-4.69 1.33 -2.38 1.66 0 2 C0 1.34 0 0.68 0 0 Z " fill="#CF4F75" transform="translate(176,223)"/>
<path d="M0 0 C-0.66 0.99 -1.32 1.98 -2 3 C1.72430357 3.69289369 5.21083746 4.11144596 9 4 C9 3.34 9 2.68 9 2 C11.64 1.67 14.28 1.34 17 1 C17 1.66 17 2.32 17 3 C17.825 2.835 17.825 2.835 22 2 C21.01 4.31 20.02 6.62 19 9 C20.155 8.835 20.155 8.835 26 8 C26 9.32 26 10.64 26 12 C24.73392393 12.53229326 23.46189588 13.05044544 22.1875 13.5625 C21.47980469 13.85253906 20.77210938 14.14257812 20.04296875 14.44140625 C18 15 18 15 15 14 C15.33 13.34 15.66 12.68 16 12 C15.34 12.33 14.68 12.66 14 13 C13.9175 13.639375 13.835 14.27875 13.75 14.9375 C13 17 13 17 10.4375 18.25 C7.61560487 18.86568621 5.57826321 19.06181996 2.75 19 C1.5125 19 0.275 19 -1 19 C-1.66 19.66 -2.32 20.32 -3 21 C-3.66 20.67 -4.32 20.34 -5 20 C-5 20.99 -5 21.98 -5 23 C-7.31 22.67 -9.62 22.34 -12 22 C-12 22.99 -12 23.98 -12 25 C-14.31 24.67 -16.62 24.34 -19 24 C-19 24.99 -19 25.98 -19 27 C-21.64 26.67 -24.28 26.34 -27 26 C-27 26.99 -27 27.98 -27 29 C-32.75 29.125 -32.75 29.125 -35 28 C-35.33 28.99 -35.66 29.98 -36 31 C-37.47831221 31.19412181 -38.95769316 31.38012131 -40.4375 31.5625 C-40.84935547 31.61470703 -40.84935547 31.61470703 -42.93359375 31.87890625 C-43.27455078 31.89888672 -43.27455078 31.89888672 -45 32 C-45.33 31.67 -45.66 31.34 -46 31 C-48.18639453 30.92741054 -50.37500389 30.91626217 -52.5625 30.9375 C-53.76003906 30.94652344 -54.95757812 30.95554687 -56.19140625 30.96484375 C-56.65482422 30.97064453 -56.65482422 30.97064453 -59 31 C-59.60348469 13.63305174 -59.60348469 13.63305174 -56 9 C-48.0033608 4.53900784 -38.98813624 3.85479097 -30 4.0625 C-27 4 -27 4 -24 2 C-21.72372603 1.41555128 -19.42862285 0.90260778 -17.125 0.4375 C-15.91070312 0.18871094 -14.69640625 -0.06007812 -13.4453125 -0.31640625 C-12.30835938 -0.54199219 -11.17140625 -0.76757812 -10 -1 C-9.08605469 -1.21398437 -8.17210937 -1.42796875 -7.23046875 -1.6484375 C-4.31831362 -2.10744619 -2.60961816 -1.26752882 0 0 Z " fill="#E04D69" transform="translate(262,229)"/>
<path d="M0 0 C4.98669007 2.49334503 8.49675474 5.99350949 11 11 C11.54360446 15.95482094 11.56437074 19.87125852 9.3125 24.375 C4.45305518 29.89112655 1.30858296 31.73317879 -5.875 32.3125 C-10.23455451 32.24767391 -12.6384369 30.82676897 -16 28 C-20.39893104 23.00661882 -21.35676337 20.08984773 -21.28125 13.5390625 C-20.73016315 8.56397287 -17.99302299 5.87480597 -14.375 2.6875 C-9.71860985 -0.62098774 -5.60468123 -0.62082623 0 0 Z " fill="#FDFAFC" transform="translate(341,160)"/>
<path d="M0 0 C0.5775 0.1546875 0.5775 0.1546875 3.5 0.9375 C4.49 0.2775 5.48 -0.3825 6.5 -1.0625 C8.52346863 -0.83767015 10.54773688 -0.60754075 12.55859375 -0.2890625 C14.75658154 -0.03255688 16.42872216 -0.28577081 18.5 -1.0625 C18.5 0.2575 18.5 1.5775 18.5 2.9375 C17.23392393 3.46979326 15.96189588 3.98794544 14.6875 4.5 C13.97980469 4.79003906 13.27210938 5.08007812 12.54296875 5.37890625 C10.5 5.9375 10.5 5.9375 7.5 4.9375 C7.83 4.2775 8.16 3.6175 8.5 2.9375 C7.84 3.2675 7.18 3.5975 6.5 3.9375 C6.4175 4.576875 6.335 5.21625 6.25 5.875 C5.5 7.9375 5.5 7.9375 2.9375 9.1875 C0.11560487 9.80318621 -1.92173679 9.99931996 -4.75 9.9375 C-5.9875 9.9375 -7.225 9.9375 -8.5 9.9375 C-9.16 10.5975 -9.82 11.2575 -10.5 11.9375 C-11.16 11.6075 -11.82 11.2775 -12.5 10.9375 C-12.5 11.9275 -12.5 12.9175 -12.5 13.9375 C-14.81 13.6075 -17.12 13.2775 -19.5 12.9375 C-19.5 13.9275 -19.5 14.9175 -19.5 15.9375 C-21.81 15.6075 -24.12 15.2775 -26.5 14.9375 C-26.5 15.9275 -26.5 16.9175 -26.5 17.9375 C-29.14 17.6075 -31.78 17.2775 -34.5 16.9375 C-34.5 17.9275 -34.5 18.9175 -34.5 19.9375 C-40.25 20.0625 -40.25 20.0625 -42.5 18.9375 C-42.83 19.9275 -43.16 20.9175 -43.5 21.9375 C-44.97831221 22.13162181 -46.45769316 22.31762131 -47.9375 22.5 C-48.76121094 22.60441406 -49.58492187 22.70882813 -50.43359375 22.81640625 C-51.11550781 22.85636719 -51.79742187 22.89632813 -52.5 22.9375 C-52.83 22.6075 -53.16 22.2775 -53.5 21.9375 C-55.68639453 21.86491054 -57.87500389 21.85376217 -60.0625 21.875 C-61.26003906 21.88402344 -62.45757812 21.89304687 -63.69140625 21.90234375 C-64.15482422 21.90814453 -64.15482422 21.90814453 -66.5 21.9375 C-66.55399736 20.47957116 -66.59279177 19.02107288 -66.625 17.5625 C-66.63660156 17.15644531 -66.63660156 17.15644531 -66.6953125 15.1015625 C-66.5 12.9375 -66.5 12.9375 -64.5 10.9375 C-62.55039145 10.6731463 -60.59886012 10.4167508 -58.640625 10.2265625 C-56.5 9.9375 -56.5 9.9375 -53.0625 8.8125 C-48.61336227 7.71972933 -44.96914267 8.18757583 -40.5 8.9375 C-40.17 7.9475 -39.84 6.9575 -39.5 5.9375 C-38.08344207 5.9102585 -36.66672955 5.89099533 -35.25 5.875 C-34.46109375 5.86339844 -33.6721875 5.85179687 -32.859375 5.83984375 C-30.5 5.9375 -30.5 5.9375 -28.37109375 6.4921875 C-25.44400358 7.18882274 -23.30099181 5.94162914 -20.5 4.9375 C-15.86752279 3.79165758 -11.18463784 2.8442041 -6.5 1.9375 C-6.5 1.2775 -6.5 0.6175 -6.5 -0.0625 C-3.5 -1.0625 -3.5 -1.0625 0 0 Z " fill="#EC4D5D" transform="translate(269.5,238.0625)"/>
<path d="M0 0 C0.721875 -0.144375 1.44375 -0.28875 2.1875 -0.4375 C5 -1 5 -1 12 -1 C12 4.61 12 10.22 12 16 C11.34 16 10.68 16 10 16 C9.67 16.66 9.34 17.32 9 18 C7.9275 17.979375 6.855 17.95875 5.75 17.9375 C-1.05084746 18.05084746 -1.05084746 18.05084746 -3 20 C-8.28176226 20.28324908 -13.5190485 20.22214272 -18.75 19.4375 C-22.75304869 18.89862806 -26.01864727 19.37136536 -30 20 C-30 14.72 -30 9.44 -30 4 C-25 3 -25 3 -22 3 C-22 2.34 -22 1.68 -22 1 C-19.60468244 0.66254646 -17.20885732 0.3299171 -14.8125 0 C-14.47573242 -0.04769531 -14.47573242 -0.04769531 -12.77148438 -0.2890625 C-3.19432471 -1.59716236 -3.19432471 -1.59716236 0 0 Z " fill="#E74F5E" transform="translate(169,249)"/>
<path d="M0 0 C0.36802734 0.00451172 0.36802734 0.00451172 2.23046875 0.02734375 C4.0287888 0.05069856 5.82693911 0.08656164 7.625 0.125 C6.965 2.765 6.305 5.405 5.625 8.125 C6.615 8.125 7.605 8.125 8.625 8.125 C7.29076819 13.70451482 7.29076819 13.70451482 4.25 15.625 C1.14763623 16.21592643 0.29343931 15.63711561 -2.375 14.125 C-3.365 14.455 -4.355 14.785 -5.375 15.125 C-5.54 14.795 -5.54 14.795 -6.375 13.125 C-7.695 13.125 -9.015 13.125 -10.375 13.125 C-10.705 14.115 -11.035 15.105 -11.375 16.125 C-10.715 16.125 -10.055 16.125 -9.375 16.125 C-9.375 16.785 -9.375 17.445 -9.375 18.125 C-9.705 18.29 -9.705 18.29 -11.375 19.125 C-11.375 20.115 -11.375 21.105 -11.375 22.125 C-13.685 22.125 -15.995 22.125 -18.375 22.125 C-18.375 21.465 -18.375 20.805 -18.375 20.125 C-21.77812738 21.18375074 -24.38853231 22.13402154 -27.375 24.125 C-29.4609375 24.21484375 -29.4609375 24.21484375 -31.75 24.0625 C-35.84632269 23.96275188 -38.04847308 24.5811853 -41.375 27.125 C-41.87 27.455 -41.87 27.455 -44.375 29.125 C-40.58010923 18.70729505 -32.15775677 10.75598664 -22.5 5.5859375 C-19.81496479 4.33827168 -17.14088184 3.18061763 -14.375 2.125 C-13.44945312 1.75375 -12.52390625 1.3825 -11.5703125 1 C-7.61674628 -0.08263916 -4.07221678 -0.09573023 0 0 Z " fill="#CA4F7F" transform="translate(253.375,202.875)"/>
<path d="M0 0 C0.33 0.99 0.66 1.98 1 3 C2.65 3 4.3 3 6 3 C6.33 3.99 6.66 4.98 7 6 C7.85722656 5.855625 8.71445313 5.71125 9.59765625 5.5625 C24.45261562 3.15087187 24.45261562 3.15087187 30 5 C30.04241723 7.33294775 30.04092937 9.66702567 30 12 C28.01072655 13.98927345 24.41239719 13.76303985 21.6875 14.125 C21.01009766 14.22425781 20.33269531 14.32351562 19.63476562 14.42578125 C16.09980555 14.90263803 13.40900168 14.96481179 10 14 C8.16278376 14.08375545 6.32784516 14.23412712 4.5 14.4375 C1.27572026 14.7873875 -1.74542248 15 -5 15 C-5 15.66 -5 16.32 -5 17 C-6.32 17.165 -6.32 17.165 -13 18 C-13 13.38 -13 8.76 -13 4 C-11.60026042 3.77213542 -11.60026042 3.77213542 -4.6015625 2.6328125 C-2 2 -2 2 0 0 Z " fill="#DA4E6B" transform="translate(152,235)"/>
<path d="M0 0 C0.99 0 1.98 0 3 0 C3.08685287 3.29150125 3.14033895 6.5827096 3.1875 9.875 C3.21263672 10.81214844 3.23777344 11.74929688 3.26367188 12.71484375 C3.27333984 13.61074219 3.28300781 14.50664062 3.29296875 15.4296875 C3.3086792 16.25710449 3.32438965 17.08452148 3.34057617 17.93701172 C3.22818604 18.61779785 3.1157959 19.29858398 3 20 C0 22 0 22 -1.75 21.6875 C-2.4925 21.460625 -3.235 21.23375 -4 21 C-8.94187089 20.01162582 -11.41026139 20.13929516 -16 22 C-18.3125 21.125 -18.3125 21.125 -20 20 C-17.11593757 16.59156258 -15.6291735 15.13408616 -11.1875 14.1875 C-10.6615625 14.1565625 -10.6615625 14.1565625 -8 14 C-8 13.01 -8 12.02 -8 11 C-8.99 11.66 -9.98 12.32 -11 13 C-13.6875 13.125 -13.6875 13.125 -16 13 C-16.33 12.34 -16.66 11.68 -17 11 C-15.49736177 7.99472353 -13.08347159 8.02782386 -10 7 C-9.67 6.34 -9.34 5.68 -9 5 C-6.93359375 4.1484375 -6.93359375 4.1484375 -4.4375 3.375 C-3.61121094 3.11460937 -2.78492187 2.85421875 -1.93359375 2.5859375 C-1.29550781 2.39257812 -0.65742187 2.19921875 0 2 C0 1.34 0 0.68 0 0 Z " fill="#EA4C60" transform="translate(114,248)"/>
<path d="M0 0 C0 1.65 0 3.3 0 5 C-0.66 5 -1.32 5 -2 5 C-2.33 5.66 -2.66 6.32 -3 7 C-4.0725 6.979375 -5.145 6.95875 -6.25 6.9375 C-13.05084746 7.05084746 -13.05084746 7.05084746 -15 9 C-20.28176226 9.28324908 -25.5190485 9.22214272 -30.75 8.4375 C-34.75304869 7.89862806 -38.01864727 8.37136536 -42 9 C-42.042721 7.33388095 -42.04063832 5.66617115 -42 4 C-39.31915334 1.31915334 -32.06273484 2.15251124 -28.4375 1.875 C-27.85323242 1.82537109 -27.85323242 1.82537109 -24.89648438 1.57421875 C-18.69770396 1.09174176 -13.13769278 1.09781599 -7 2 C-4.92395523 1.43380597 -2.15708655 0 0 0 Z " fill="#F14F54" transform="translate(181,260)"/>
<path d="M0 0 C0.66 0.33 1.32 0.66 2 1 C1.63197266 1.33193359 1.63197266 1.33193359 -0.23046875 3.01171875 C-1.20628906 3.89472656 -2.18210938 4.77773437 -3.1875 5.6875 C-3.66896484 6.12255859 -3.66896484 6.12255859 -6.10546875 8.32421875 C-10.82231051 12.68459204 -15.18870128 17.23654966 -19.37109375 22.10546875 C-20.59639875 23.53058368 -21.85331793 24.92861069 -23.125 26.3125 C-30.49101445 36.87045404 -35.23086239 51.06682569 -36.5625 63.8125 C-36.64628906 64.60269531 -36.73007813 65.39289063 -36.81640625 66.20703125 C-36.87699219 66.79871094 -36.93757813 67.39039063 -37 68 C-37.33 68 -37.66 68 -38 68 C-39.50495652 50.23315216 -30.77813629 32.399295 -20.203125 18.59765625 C-14.22320411 11.54686301 -7.79865476 5.02579973 0 0 Z " fill="#6C58BD" transform="translate(102,77)"/>
<path d="M0 0 C0.99 0 1.98 0 3 0 C3 3.3 3 6.6 3 10 C1.9275 10.12375 0.855 10.2475 -0.25 10.375 C-3.37863615 10.89643936 -5.33480424 11.40088254 -8 13 C-8 12.34 -8 11.68 -8 11 C-8.99 11.66 -9.98 12.32 -11 13 C-13.6875 13.125 -13.6875 13.125 -16 13 C-16.33 12.34 -16.66 11.68 -17 11 C-15.49736177 7.99472353 -13.08347159 8.02782386 -10 7 C-9.67 6.34 -9.34 5.68 -9 5 C-6.93359375 4.1484375 -6.93359375 4.1484375 -4.4375 3.375 C-3.61121094 3.11460937 -2.78492187 2.85421875 -1.93359375 2.5859375 C-1.29550781 2.39257812 -0.65742187 2.19921875 0 2 C0 1.34 0 0.68 0 0 Z " fill="#E14C69" transform="translate(114,248)"/>
<path d="M0 0 C0.33 0 0.66 0 1 0 C1.0825 1.27875 1.165 2.5575 1.25 3.875 C1.76004673 7.7692757 1.76004673 7.7692757 3.625 9.5625 C6 10 6 10 9.5625 9.4375 C10.1296875 9.3653125 10.1296875 9.3653125 13 9 C14.71484375 10.47265625 14.71484375 10.47265625 16 12 C11.77636704 15.23846795 7.5927916 18.29835788 3 21 C2.34 21.66 1.68 22.32 1 23 C0.02840067 15.31395526 -0.10920422 7.74136601 0 0 Z " fill="#E4496D" transform="translate(63,247)"/>
<path d="M0 0 C1.5 1.125 1.5 1.125 3 3 C3.1875 6.1875 3.1875 6.1875 3 9 C2.484375 9.0309375 2.484375 9.0309375 -0.125 9.1875 C-5.90459938 10.39935148 -8.98204064 13.75882068 -13 18 C-13.99 17.01 -14.98 16.02 -16 15 C-13.75410981 10.38344794 -11.54005686 9.17922729 -7 7 C-4.25 4.4375 -4.25 4.4375 -2 2 C-1.34 1.34 -0.68 0.68 0 0 Z " fill="#D14493" transform="translate(370,178)"/>
<path d="M0 0 C2 1 2 1 4 4 C4.99 4.66 5.98 5.32 7 6 C6.62875 5.9690625 6.62875 5.9690625 4.75 5.8125 C1.45967264 6.0368405 0.57583124 7.0486127 -2 9 C-5.25 9.6875 -5.25 9.6875 -8 10 C-8 7.36 -8 4.72 -8 2 C-6.865625 1.855625 -5.73125 1.71125 -4.5625 1.5625 C-1 1 -1 1 0 0 Z " fill="#C04F82" transform="translate(147,216)"/>
<path d="M0 0 C1.32 1.32 2.64 2.64 4 4 C0.7 7.3 -2.6 10.6 -6 14 C-7.32 12.68 -8.64 11.36 -10 10 C-9.44570313 9.52949219 -8.89140625 9.05898437 -8.3203125 8.57421875 C-7.59585937 7.95160156 -6.87140625 7.32898438 -6.125 6.6875 C-5.40570313 6.07261719 -4.68640625 5.45773438 -3.9453125 4.82421875 C-2 3 -2 3 0 0 Z " fill="#BE469F" transform="translate(355,152)"/>
<path d="M0 0 C0.94875 0.350625 1.8975 0.70125 2.875 1.0625 C0.12692027 4.01414119 -2.44512377 6.3571915 -6.125 8.0625 C-8.8125 7.6875 -8.8125 7.6875 -11.125 7.0625 C-11.455 7.2275 -11.455 7.2275 -13.125 8.0625 C-12.795 6.7425 -12.465 5.4225 -12.125 4.0625 C-10.97 3.8975 -10.97 3.8975 -5.125 3.0625 C-5.125 2.0725 -5.125 1.0825 -5.125 0.0625 C-3.125 -0.9375 -3.125 -0.9375 0 0 Z " fill="#E54A6A" transform="translate(87.125,257.9375)"/>
<path d="M0 0 C0.33 0.66 0.66 1.32 1 2 C3.31 2 5.62 2 8 2 C7.67 3.65 7.34 5.3 7 7 C3.03956254 8.32014582 0.90278401 7.27727477 -3 6 C-3.66 5.67 -4.32 5.34 -5 5 C-5 4.01 -5 3.02 -5 2 C-3.35 1.34 -1.7 0.68 0 0 Z " fill="#CD4D7A" transform="translate(109,232)"/>
<path d="M0 0 C1.22346561 3.67039683 0.62604315 4.65266453 -0.75 8.1875 C-1.12253906 9.16332031 -1.49507813 10.13914062 -1.87890625 11.14453125 C-2.06388672 11.61568359 -2.06388672 11.61568359 -3 14 C-5.87070011 21.39422755 -7.19573074 28.1455406 -8 36 C-8.33 36 -8.66 36 -9 36 C-10.07919402 23.25951503 -5.69196311 11.22063219 0 0 Z " fill="#844DB5" transform="translate(73,109)"/>
<path d="M0 0 C2.50037734 2.17424117 3.43628586 3.73045798 4 7 C1.1875 8.5625 1.1875 8.5625 -2 10 C-2.99 9.67 -3.98 9.34 -5 9 C-4.34 8.34 -3.68 7.68 -3 7 C-3.375 4.875 -3.375 4.875 -4 3 C-3.01 2.67 -2.02 2.34 -1 2 C-0.67 1.34 -0.34 0.68 0 0 Z " fill="#E54B71" transform="translate(300,227)"/>
<path d="M0 0 C0.33 0.66 0.66 1.32 1 2 C1.66 1.835 2.32 1.67 3 1.5 C6.73099794 0.87816701 10.21873378 0.93591074 14 1 C13.67 1.66 13.34 2.32 13 3 C10.56640625 3.59765625 10.56640625 3.59765625 7.5625 4.0625 C2.1752381 4.91238095 2.1752381 4.91238095 0 6 C0 4.02 0 2.04 0 0 Z " fill="#E7596A" transform="translate(203,245)"/>
<path d="M0 0 C0.33 0 0.66 0 1 0 C1.0825 1.27875 1.165 2.5575 1.25 3.875 C1.51171875 6.0859375 1.51171875 6.0859375 2 8 C4.0625 9.5 4.0625 9.5 6 10 C2.25 13 2.25 13 0 13 C0 8.71 0 4.42 0 0 Z " fill="#EE485E" transform="translate(63,247)"/>
<path d="M0 0 C0 3.66459051 -1.06864541 4.92413899 -3 8 C-4.0150089 9.99242489 -5.01873444 11.99074195 -6 14 C-6.71484375 12.328125 -6.71484375 12.328125 -7 10 C-5.56640625 7.421875 -5.56640625 7.421875 -3.5625 4.75 C-3.23314453 4.30398437 -3.23314453 4.30398437 -1.56640625 2.046875 C-1.04949219 1.37140625 -0.53257813 0.6959375 0 0 Z " fill="#7854BA" transform="translate(81,97)"/>
<path d="M0 0 C-3.82517513 2.39073445 -7.59665524 2.55966552 -12 3 C-11 1 -11 1 -8.25 -0.1875 C-4.95578208 -1.01105448 -3.20978295 -0.94405381 0 0 Z " fill="#B662A0" transform="translate(243,182)"/>
<path d="M0 0 C0.99 0.33 1.98 0.66 3 1 C0.64031256 3.09749995 -0.54616994 3.96905704 -3.75 4.1875 C-4.12125 4.1565625 -4.12125 4.1565625 -6 4 C-4.03617993 2.49440461 -2.21736634 1.10868317 0 0 Z " fill="#C5598C" transform="translate(236,206)"/>
<path d="M0 0 C0.66 0.66 1.32 1.32 2 2 C1.01 4.31 0.02 6.62 -1 9 C-1.66 8.67 -2.32 8.34 -3 8 C-2.01 5.36 -1.02 2.72 0 0 Z " fill="#7C55B1" transform="translate(68,122)"/>
<path d="M0 0 C-1.155 0.495 -1.155 0.495 -7 3 C-7.66 2.34 -8.32 1.68 -9 1 C-5.57367167 -0.61798838 -3.61944899 -1.34053666 0 0 Z " fill="#6958B9" transform="translate(127,68)"/>
<path d="M0 0 C0.66 0.33 0.66 0.33 4 2 C3.34 2.33 3.34 2.33 0 4 C0 2.68 0 1.36 0 0 Z " fill="#E3457D" transform="translate(63,243)"/>
<path d="M0 0 C1.32 0.33 2.64 0.66 4 1 C3.67 1.99 3.34 2.98 3 4 C2.01 3.34 1.02 2.68 0 2 C0 1.34 0 0.68 0 0 Z " fill="#D84A82" transform="translate(315,209)"/>
<path d="M0 0 C0.66 0.33 1.32 0.66 2 1 C2 1.66 2 2.32 2 3 C1.01 2.835 1.01 2.835 -4 2 C-2.125 0.9375 -2.125 0.9375 0 0 Z " fill="#C56EA7" transform="translate(277,182)"/>
<path d="M0 0 C0.99 0.33 1.98 0.66 3 1 C2.34 1.33 2.34 1.33 -1 3 C-0.67 2.01 -0.34 1.02 0 0 Z " fill="#DB4B72" transform="translate(88,250)"/>
<path d="M0 0 C0.66 0.66 1.32 1.32 2 2 C0.68 2 -0.64 2 -2 2 C-1.34 1.34 -0.68 0.68 0 0 Z " fill="#C44D83" transform="translate(104,226)"/>
<path d="M0 0 C0.66 0.66 1.32 1.32 2 2 C1.01 2.33 0.02 2.66 -1 3 C-0.67 2.01 -0.34 1.02 0 0 Z " fill="#CB4B81" transform="translate(80,234)"/>
</svg>
