<?xml version="1.0" encoding="UTF-8"?>
<!-- Generator: visioncortex VTracer 0.6.12 -->
<svg version="1.1" xmlns="http://www.w3.org/2000/svg" width="512" height="512">
<path d="M0 0 C0.40456842 -0.00183834 0.40456842 -0.00183834 2.45192981 -0.01114148 C5.15519525 -0.02212793 7.85842217 -0.02601366 10.56170654 -0.02983093 C12.50380575 -0.03609968 14.44590377 -0.04274685 16.38800049 -0.04974365 C22.7619748 -0.07074794 29.13594924 -0.08114676 35.50994873 -0.09111023 C37.71049766 -0.09515998 39.91104647 -0.09927696 42.11159515 -0.10346031 C52.45822075 -0.12250872 62.80483925 -0.13673713 73.15147901 -0.14507228 C85.05966968 -0.15482565 96.96767354 -0.18109698 108.87579846 -0.22157317 C118.10075442 -0.2518427 127.32565719 -0.26655163 136.5506618 -0.26985329 C142.04982221 -0.27219257 147.54878298 -0.28100507 153.04788971 -0.30631447 C158.23214173 -0.32978866 163.41606543 -0.33375154 168.60035706 -0.32355309 C170.48917999 -0.32306219 172.37802016 -0.3292487 174.2667923 -0.34310913 C189.49214411 -0.44846227 204.44737157 1.13972795 218.55682373 7.33467102 C219.24743896 7.6301886 219.9380542 7.92570618 220.64959717 8.23017883 C246.64364502 19.77645549 266.85409665 41.40666011 277.68182373 67.58467102 C282.75489405 82.45977831 284.39910956 96.61841196 284.32440186 112.26435852 C284.32983847 114.20823181 284.33696966 116.15210098 284.34564209 118.09596252 C284.36369554 123.31918422 284.35688312 128.54208574 284.34412575 133.76531219 C284.3339039 139.26614155 284.34341665 144.76694591 284.34967041 150.26777649 C284.35692032 159.5004105 284.3474292 168.73291596 284.32830811 177.9655304 C284.30654459 188.5959014 284.31359784 199.22596538 284.33561373 209.85632896 C284.35384379 219.03059682 284.35628906 228.20477297 284.34585905 237.37905312 C284.33966574 242.83775988 284.33867252 248.29632297 284.352005 253.75502014 C284.36367435 258.8902325 284.35533826 264.02505417 284.33242798 269.16022491 C284.32719947 271.02968959 284.32855221 272.89918793 284.33747864 274.76863861 C284.40309702 289.9239066 282.78435313 304.85584951 276.61932373 318.89717102 C276.32380615 319.58778625 276.02828857 320.27840149 275.72381592 320.98994446 C264.31248851 346.68018206 243.19729962 366.487216 217.49432373 377.45967102 C202.31744254 383.03784873 187.78423948 384.74159914 171.68963623 384.66474915 C169.74576294 384.67018576 167.80189378 384.67731695 165.85803223 384.68598938 C160.63481053 384.70404283 155.41190901 384.69723041 150.18868256 384.68447304 C144.68785321 384.67425119 139.18704884 384.68376394 133.68621826 384.6900177 C124.45358425 384.69726761 115.22107879 384.68777649 105.98846436 384.6686554 C95.35809335 384.64689188 84.72802937 384.65394513 74.09766579 384.67596102 C64.92339793 384.69419108 55.74922178 384.69663635 46.57494164 384.68620634 C41.11623487 384.68001303 35.65767178 384.67901981 30.19897461 384.69235229 C25.06376226 384.70402164 19.92894058 384.69568555 14.79376984 384.67277527 C12.92430516 384.66754676 11.05480682 384.6688995 9.18535614 384.67782593 C-5.96991185 384.74344431 -20.90185476 383.12470042 -34.94317627 376.95967102 C-35.6337915 376.66415344 -36.32440674 376.36863586 -37.03594971 376.06416321 C-62.72618731 364.6528358 -82.53322125 343.53764691 -93.50567627 317.83467102 C-99.07666694 302.67885444 -100.78938464 288.15004606 -100.72662354 272.07759094 C-100.73370246 270.13858389 -100.74245565 268.19958235 -100.75273132 266.2605896 C-100.77501602 261.0495754 -100.77233474 255.83886791 -100.76340985 250.62782454 C-100.75825725 246.25221733 -100.765627 241.87666561 -100.77288193 237.50106412 C-100.7898152 227.16519444 -100.78638245 216.82947261 -100.76959229 206.49360657 C-100.75268349 195.88710532 -100.76850366 185.28101605 -100.80081517 174.67455977 C-100.82764376 165.51552736 -100.83475129 156.35662212 -100.82630008 147.19755441 C-100.82140867 141.75044722 -100.82337847 136.30358745 -100.8440876 130.85651207 C-100.86265434 125.72861645 -100.85623397 120.60130575 -100.8318882 115.47344017 C-100.8269458 113.61006958 -100.83019491 111.74665275 -100.84303665 109.88331985 C-101.03856889 79.03006815 -90.29673044 51.76135478 -68.70880127 29.59638977 C-50.29665439 12.08306072 -25.74382266 -0.0063415 0 0 Z " fill="#FEFEFE" transform="translate(164.19317626953125,63.85282897949219)"/>
<path d="M0 0 C2.52215716 1.95873674 4.94964607 3.9865363 7.35546875 6.0859375 C7.97035156 6.60542969 8.58523438 7.12492187 9.21875 7.66015625 C21.15885107 18.55721401 29.52300802 36.19380016 31.35546875 52.0859375 C31.29325073 53.80084291 31.19830204 55.51474208 31.078125 57.2265625 C30.11502096 71.47595213 30.11502096 71.47595213 33.78125 76.234375 C36.49795323 78.44308028 39.48474094 80.18090445 42.51220703 81.92724609 C45.66097346 83.90658987 48.29036237 86.40868133 50.98046875 88.9609375 C51.52082764 89.46874756 52.06118652 89.97655762 52.61791992 90.49975586 C61.1218776 98.57832346 68.57684364 107.11902898 75.48046875 116.5859375 C75.7650293 116.97499268 75.7650293 116.97499268 77.20507812 118.94384766 C77.46836914 119.31276123 77.46836914 119.31276123 78.80078125 121.1796875 C79.27016113 121.83646484 79.73954102 122.49324219 80.22314453 123.16992188 C81.3906307 125.14543534 81.9208436 126.84359597 82.35546875 129.0859375 C83.01546875 129.0859375 83.67546875 129.0859375 84.35546875 129.0859375 C82.18143642 147.07891559 76.02451156 162.73886852 61.95458984 174.83398438 C48.09176616 185.68719962 33.21950018 189.39091263 15.9699707 189.37646484 C14.53324539 189.38245963 13.09652327 189.38926735 11.6598053 189.39682007 C7.77933925 189.41439298 3.89896156 189.41917181 0.01845956 189.42045164 C-2.41311086 189.42187903 -4.84465923 189.42615974 -7.27622414 189.43144608 C-15.77978552 189.44991925 -24.28328445 189.45812031 -32.78686523 189.45654297 C-40.67976626 189.45534309 -48.57239318 189.47642224 -56.46522492 189.5080303 C-63.26897885 189.53429378 -70.07264382 189.54490603 -76.87644798 189.54363215 C-80.927864 189.54312536 -84.97903627 189.54864971 -89.03040123 189.56998825 C-92.84650234 189.58954093 -96.66213145 189.58938078 -100.4782505 189.57495499 C-102.52230784 189.571911 -104.56636611 189.5884242 -106.61035156 189.60583496 C-125.54660837 189.47890603 -141.33532361 182.54113279 -154.64453125 169.0859375 C-155.19496094 168.56902344 -155.74539062 168.05210937 -156.3125 167.51953125 C-160.05833462 163.67327211 -162.40302699 159.07288276 -164.83203125 154.3359375 C-165.16541504 153.69261475 -165.49879883 153.04929199 -165.84228516 152.38647461 C-171.17698444 141.54122158 -172.17317065 130.8390879 -172.2890625 118.91015625 C-172.29879278 118.15545359 -172.30852306 117.40075092 -172.3185482 116.62317848 C-172.36897166 112.64159524 -172.40197851 108.66032297 -172.42016602 104.6784668 C-172.44234232 100.58055166 -172.52511632 96.4861434 -172.62128162 92.3893919 C-172.68472378 89.2193774 -172.70346358 86.05021293 -172.71011925 82.87961769 C-172.72100583 81.36880003 -172.74857782 79.85800264 -172.7935276 78.34781456 C-172.92032178 73.78621344 -172.90109367 69.51593525 -171.64453125 65.0859375 C-168.67315025 62.03751479 -165.57870305 60.59477904 -161.64453125 59.0859375 C-160.32913638 58.40474756 -159.01983933 57.71135555 -157.72265625 56.99609375 C-147.91980569 52.1752694 -137.89255156 48.69181514 -127.4453125 45.53125 C-126.61153076 45.27520996 -125.77774902 45.01916992 -124.91870117 44.75537109 C-123.01364118 44.19459015 -121.08463912 43.71603019 -119.15234375 43.2578125 C-116.64453125 42.0859375 -116.64453125 42.0859375 -115.2109375 39.46875 C-114.87964844 38.39367187 -114.54835937 37.31859375 -114.20703125 36.2109375 C-107.90184611 18.13076939 -94.99548031 2.5821565 -77.64453125 -5.953125 C-52.59698038 -17.54775931 -22.7144894 -16.44032468 0 0 Z " fill="#FFD44F" transform="translate(299.64453125,194.9140625)"/>
<path d="M0 0 C1.43392591 -0.00735902 2.86784593 -0.01595049 4.30175781 -0.02566528 C8.16155597 -0.04769986 12.02113953 -0.05082105 15.88099194 -0.04891777 C19.12097278 -0.0487972 22.36090957 -0.05739635 25.600878 -0.06569529 C33.25543357 -0.08486523 40.90988014 -0.08783701 48.56445312 -0.08105469 C56.41939262 -0.07442194 64.27386159 -0.097262 72.12870574 -0.13436842 C78.90963593 -0.16522056 85.69041598 -0.17640867 92.4714148 -0.1725316 C96.50501104 -0.17047968 100.53824098 -0.17569861 104.57176971 -0.20042419 C136.78140686 -0.38243747 136.78140686 -0.38243747 149.30566406 5.41992188 C150.35083191 5.89667358 151.39599976 6.37342529 152.47283936 6.86462402 C159.4200035 10.21348128 164.87516461 15.00864543 170.30566406 20.41992188 C170.58216797 20.68482422 170.58216797 20.68482422 171.98144531 22.02539062 C175.53538037 25.7517538 178.00956121 30.12518004 180.49316406 34.60742188 C180.82654785 35.19475098 181.15993164 35.78208008 181.50341797 36.38720703 C186.96203401 46.65885544 187.74225318 57.38162285 187.64624023 68.81738281 C187.64539177 70.21814963 187.64587338 71.61891778 187.64756775 73.01968384 C187.64842057 76.78343612 187.63091203 80.54689543 187.60984588 84.31058025 C187.59095863 88.25832785 187.58931922 92.20608382 187.58576965 96.15386963 C187.57648429 103.61213674 187.55191859 111.07027029 187.52172118 118.52847886 C187.48806723 127.02676275 187.47166366 135.52505338 187.45663488 144.02338743 C187.42536546 161.48897588 187.37267406 178.95443471 187.30566406 196.41992188 C186.64566406 196.41992188 185.98566406 196.41992188 185.30566406 196.41992188 C183.93066406 194.47070312 183.93066406 194.47070312 182.30566406 191.73242188 C171.91750543 175.03031057 158.63855803 160.57695906 143.55957031 148.00585938 C143.03484131 147.56749756 142.5101123 147.12913574 141.96948242 146.67749023 C140.30566406 145.41992188 140.30566406 145.41992188 138.34692383 144.32055664 C136.33856817 143.15750511 134.83672534 142.16922837 133.30566406 140.41992188 C132.53766823 137.10796386 132.84244982 133.97494479 133.11816406 130.60742188 C133.84668595 111.75203946 127.87391834 94.06502421 115.41503906 79.65039062 C101.94877048 65.41105848 85.65953753 55.93990225 65.86425781 55.01367188 C63.57421406 54.9642137 61.28370479 54.93294741 58.99316406 54.91992188 C57.9203418 54.91347656 56.84751953 54.90703125 55.7421875 54.90039062 C45.21898298 55.06871011 35.52550449 57.2254463 26.18066406 62.10742188 C25.50253662 62.45627441 24.82440918 62.80512695 24.12573242 63.16455078 C9.41707998 70.96456721 -1.81557678 83.26362951 -8.69433594 98.41992188 C-8.83516602 98.90468994 -8.83516602 98.90468994 -9.54785156 101.35791016 C-11.061454 106.15367867 -12.14444905 109.48161055 -16.56640625 112.15869141 C-19.58322455 113.27148033 -22.58285418 114.2255699 -25.6963501 115.02856445 C-29.09681022 115.9073759 -32.45028229 116.94214933 -35.81152344 117.95898438 C-36.4831955 118.15780212 -37.15486755 118.35661987 -37.84689331 118.5614624 C-44.11133082 120.45185477 -49.95794314 123.01350719 -55.81933594 125.91992188 C-56.67011719 126.34160645 -57.52089844 126.76329102 -58.39746094 127.19775391 C-60.50415704 128.2576202 -62.59997194 129.33598252 -64.69433594 130.41992188 C-66.02714294 131.08764016 -67.36041011 131.75444151 -68.69433594 132.41992188 C-68.7875453 122.4918563 -68.85835696 112.56389702 -68.90158463 102.63548088 C-68.92234526 98.02391842 -68.95044865 93.41265815 -68.99609375 88.80126953 C-69.03996729 84.3402833 -69.06355937 79.87958536 -69.07384491 75.41839981 C-69.0811626 73.72736201 -69.0954493 72.03633767 -69.11725616 70.34542465 C-69.37777176 49.28250562 -63.52508789 32.80001597 -48.94433594 17.29492188 C-35.26603667 3.98845987 -18.53120116 -0.0412788 0 0 Z " fill="#D81B60" transform="translate(196.6943359375,127.580078125)"/>
<path d="M0 0 C0.40456842 -0.00183834 0.40456842 -0.00183834 2.45192981 -0.01114148 C5.15519525 -0.02212793 7.85842217 -0.02601366 10.56170654 -0.02983093 C12.50380575 -0.03609968 14.44590377 -0.04274685 16.38800049 -0.04974365 C22.7619748 -0.07074794 29.13594924 -0.08114676 35.50994873 -0.09111023 C37.71049766 -0.09515998 39.91104647 -0.09927696 42.11159515 -0.10346031 C52.45822075 -0.12250872 62.80483925 -0.13673713 73.15147901 -0.14507228 C85.05966968 -0.15482565 96.96767354 -0.18109698 108.87579846 -0.22157317 C118.10075442 -0.2518427 127.32565719 -0.26655163 136.5506618 -0.26985329 C142.04982221 -0.27219257 147.54878298 -0.28100507 153.04788971 -0.30631447 C158.23214173 -0.32978866 163.41606543 -0.33375154 168.60035706 -0.32355309 C170.48917999 -0.32306219 172.37802016 -0.3292487 174.2667923 -0.34310913 C189.49214411 -0.44846227 204.44737157 1.13972795 218.55682373 7.33467102 C219.24743896 7.6301886 219.9380542 7.92570618 220.64959717 8.23017883 C246.64364502 19.77645549 266.85409665 41.40666011 277.68182373 67.58467102 C283.34269127 84.30185105 284.36198163 99.76037691 284.19744873 117.31123352 C284.18996945 119.68446877 284.18428452 122.05771029 284.18029785 124.43095398 C284.16517433 130.61557178 284.12600985 136.79980155 284.08148193 142.98426819 C284.04023959 149.31976577 284.02222553 155.6553273 284.00213623 161.99092102 C283.95950043 174.37650626 283.89141392 186.76180612 283.80682373 199.14717102 C280.60026812 196.0074274 277.92549901 192.75151867 275.24432373 189.14717102 C271.90153356 184.74287342 268.46000691 180.49801648 264.74432373 176.39717102 C264.30999023 175.90579651 263.87565674 175.414422 263.42816162 174.90815735 C260.61876641 171.81826396 257.68934423 169.23784582 254.36541748 166.70576477 C242.78429241 157.41383364 242.78429241 157.41383364 241.00018311 149.62617493 C240.18056458 141.63489431 240.46163562 133.67933687 240.75115967 125.66377258 C241.11540831 102.65220483 229.44331447 82.28994077 214.11932373 66.02217102 C201.10814683 53.32979784 180.95584358 44.04168796 162.56048584 44.01345825 C161.30186234 44.00919327 160.04323883 44.00492828 158.74647522 44.00053406 C157.35903928 44.00088355 155.97160336 44.00134507 154.58416748 44.00190735 C153.11685602 43.99891367 151.64954536 43.99551066 150.18223572 43.99172974 C146.20037674 43.98290233 142.21853926 43.98055203 138.23667145 43.97991395 C135.7441638 43.97920222 133.25166157 43.97706548 130.75915527 43.97441673 C122.04929255 43.96516436 113.33944511 43.96108132 104.62957764 43.96186829 C96.5357415 43.96246762 88.44197233 43.9519439 80.34815311 43.93612462 C73.38229849 43.92299966 66.4164656 43.91768653 59.45059872 43.9183237 C55.29806604 43.91857742 51.14559277 43.91579663 46.99307251 43.90514565 C43.07946962 43.89538207 39.16598187 43.89544136 35.25237465 43.90266228 C33.82587832 43.90369825 32.39937451 43.90140486 30.97289085 43.89530182 C6.72250482 43.79837743 -13.90887434 50.35398208 -31.50958252 67.46748352 C-32.39516846 68.3517804 -33.28075439 69.23607727 -34.19317627 70.14717102 C-34.52768799 70.47588196 -34.52768799 70.47588196 -36.22052002 72.13935852 C-42.51276179 78.78830334 -47.96149277 87.47460075 -50.47052002 96.32685852 C-53.67178544 107.54364507 -53.67178544 107.54364507 -58.56036377 110.61982727 C-61.94326568 112.40114981 -65.46264828 113.822093 -69.01446533 115.22871399 C-72.64415538 116.75884554 -76.02895804 118.69159392 -79.44317627 120.64717102 C-79.77249146 120.83303772 -79.77249146 120.83303772 -81.43902588 121.77363586 C-86.81183472 124.84094588 -91.94113522 128.19791523 -97.03302002 131.71357727 C-99.19317627 133.14717102 -99.19317627 133.14717102 -100.19317627 133.14717102 C-101.24608508 87.62587362 -101.24608508 87.62587362 -95.19317627 71.14717102 C-94.96855713 70.49941711 -94.74393799 69.85166321 -94.51251221 69.1842804 C-85.52283937 43.77242501 -65.20700378 22.00845029 -41.20489502 10.10420227 C-28.22632538 4.02015216 -14.40028136 -0.00354723 0 0 Z " fill="#6200E9" transform="translate(164.19317626953125,63.85282897949219)"/>
<path d="M0 0 C0.33 0 0.66 0 1 0 C0.89937256 0.80816162 0.79874512 1.61632324 0.69506836 2.44897461 C-1.83582458 27.05342869 -1.83582458 27.05342869 5.72938538 36.44044495 C10.8243843 42.12552654 16.61331566 47.12445051 22.44068909 52.04090881 C26.77327184 55.70570568 30.39022251 59.56584107 33.75 64.125 C34.48734375 65.11757812 35.2246875 66.11015625 35.984375 67.1328125 C36.64953125 68.07898438 37.3146875 69.02515625 38 70 C38.41857238 70.49276271 38.83714476 70.98552542 39.26840115 71.49322033 C43.16812649 76.28779171 43.71805948 79.9761891 43.63110352 86.04614258 C43.63468117 86.48573807 43.63468117 86.48573807 43.65278625 88.71035767 C43.66963503 91.60561799 43.65027537 94.49931972 43.62890625 97.39453125 C43.62973611 99.42648953 43.63219992 101.45844774 43.63621521 103.49040222 C43.63907171 107.75153802 43.62440065 112.0121479 43.59692383 116.27319336 C43.5630808 121.68484506 43.56878084 127.09554205 43.5875864 132.50723743 C43.59826394 136.70885381 43.58911819 140.91025605 43.57420158 145.11185265 C43.56908149 147.10376025 43.56942491 149.09569084 43.57574654 151.08759499 C43.60685111 166.79561145 42.21009887 182.17898391 35.8125 196.75 C35.51698242 197.44061523 35.22146484 198.13123047 34.91699219 198.84277344 C23.50566478 224.53301104 2.39047589 244.34004498 -23.3125 255.3125 C-38.36998856 260.84536218 -52.64817727 262.58628737 -68.625 262.25 C-70.32549923 262.22985652 -72.02602215 262.21161994 -73.7265625 262.1953125 C-77.81831414 262.15204694 -81.9088795 262.08347915 -86 262 C-85.85786703 260.10388566 -85.71113093 258.20811606 -85.5625 256.3125 C-85.48128906 255.25675781 -85.40007812 254.20101562 -85.31640625 253.11328125 C-85 250 -85 250 -84.47094727 247.49145508 C-83.91603405 244.55579443 -83.88762871 241.81137197 -83.90234375 238.82421875 C-83.90556641 237.66728516 -83.90878906 236.51035156 -83.91210938 235.31835938 C-83.92048828 234.12017578 -83.92886719 232.92199219 -83.9375 231.6875 C-83.94201172 230.46998047 -83.94652344 229.25246094 -83.95117188 227.99804688 C-83.96293422 224.99864774 -83.97937174 221.99934911 -84 219 C-83.49082031 218.96261719 -83.49082031 218.96261719 -80.9140625 218.7734375 C-56.42155874 216.63246392 -35.27825154 206.73148882 -19 188 C-8.84757085 174.67318322 -0.94321441 157.78629645 -0.84178162 140.81803894 C-0.8319928 139.57428497 -0.82220398 138.33053101 -0.81211853 137.04908752 C-0.80621516 135.67880287 -0.80040466 134.30851782 -0.79467773 132.93823242 C-0.78509321 131.48923466 -0.77508279 130.04023967 -0.76467896 128.59124756 C-0.73768605 124.66400065 -0.71664616 120.73674179 -0.69667697 116.80945373 C-0.67478272 112.70280652 -0.64741088 108.59619591 -0.62062073 104.48957825 C-0.57074031 96.71595998 -0.52578425 88.94232135 -0.48259836 81.16866332 C-0.43318621 72.31742198 -0.37828285 63.46621737 -0.32291877 54.61501157 C-0.20917013 36.41004183 -0.10231563 18.20503741 0 0 Z " fill="#F40056" transform="translate(405,186)"/>
<path d="M0 0 C0.66 0.33 1.32 0.66 2 1 C1.83832336 2.18196457 1.67664673 3.36392914 1.5100708 4.58171082 C0.77261594 11.27264907 0.84384356 17.96938345 0.83886719 24.69262695 C0.83423019 26.16215131 0.82920436 27.63167448 0.82382202 29.10119629 C0.81078391 33.07035033 0.80427038 37.03948753 0.79981136 41.0086596 C0.79686766 43.49448064 0.79276056 45.98029719 0.78830719 48.46611595 C0.77465703 56.26157492 0.76497736 64.0570235 0.7611053 71.85249358 C0.7566257 80.81869999 0.73907189 89.78475387 0.7101047 98.75091392 C0.68842571 105.70494401 0.67839777 112.65893136 0.67706418 119.61299485 C0.67602092 123.75597059 0.67021545 127.89880248 0.65224457 132.04174232 C0.635655 135.9414808 0.63366057 139.84096889 0.64238358 143.74073029 C0.64314807 145.16281751 0.63888983 146.58491884 0.62892532 148.00697136 C0.49641136 168.11504298 6.83073065 188.65568137 21 203.375 C21.78375 204.12523437 22.5675 204.87546875 23.375 205.6484375 C25 208 25 208 24.875 210.81640625 C24.58625 211.86699219 24.2975 212.91757812 24 214 C23.8453125 214.60908203 23.8453125 214.60908203 23.0625 217.69140625 C22.71120269 218.98255496 22.35699633 220.27291541 22 221.5625 C20.11202706 228.42350311 18.84937069 234.56331673 18.90234375 241.70703125 C18.90305122 242.06972862 18.90305122 242.06972862 18.90663147 243.90519714 C18.91220069 246.2076745 18.92474739 248.51005235 18.9375 250.8125 C18.94251898 252.37955588 18.94708119 253.9466133 18.95117188 255.51367188 C18.96216002 259.34248589 18.97940327 263.17122611 19 267 C-6.53465369 254.68629515 -25.89418877 235.01512384 -36.75 208.75 C-43.43464659 189.33977256 -43.7556966 170.67832837 -43.89954925 150.39749908 C-43.91810636 147.79318736 -43.94043104 145.18893036 -43.96358681 142.58465576 C-44.03405478 134.40910542 -44.08655272 126.23369821 -44.11562461 118.05789566 C-44.14954809 108.66527423 -44.24653914 99.27599886 -44.39612788 89.88452435 C-44.50836131 82.58466603 -44.56274229 75.2857645 -44.57400876 67.98505878 C-44.58207991 63.63964689 -44.61443057 59.29775673 -44.7082119 54.95327759 C-45.29059095 26.52187752 -45.29059095 26.52187752 -39.7562561 20.73521423 C-36.68890774 18.35443431 -33.52394857 16.86439839 -29.84975624 15.65415001 C-27.0547861 14.66573343 -24.6751903 13.0944218 -22.1875 11.50390625 C-20.46153011 10.51782093 -18.73244447 9.53716532 -17 8.5625 C-16.12472656 8.06041016 -15.24945313 7.55832031 -14.34765625 7.04101562 C-9.67223332 4.38692215 -5.06054591 1.83840144 0 0 Z " fill="#FE5929" transform="translate(107,172)"/>
<path d="M0 0 C0.40456842 -0.00183834 0.40456842 -0.00183834 2.45192981 -0.01114148 C5.15519525 -0.02212793 7.85842217 -0.02601366 10.56170654 -0.02983093 C12.50380575 -0.03609968 14.44590377 -0.04274685 16.38800049 -0.04974365 C22.7619748 -0.07074794 29.13594924 -0.08114676 35.50994873 -0.09111023 C37.71049766 -0.09515998 39.91104647 -0.09927696 42.11159515 -0.10346031 C52.45822075 -0.12250872 62.80483925 -0.13673713 73.15147901 -0.14507228 C85.05966968 -0.15482565 96.96767354 -0.18109698 108.87579846 -0.22157317 C118.10075442 -0.2518427 127.32565719 -0.26655163 136.5506618 -0.26985329 C142.04982221 -0.27219257 147.54878298 -0.28100507 153.04788971 -0.30631447 C158.23214173 -0.32978866 163.41606543 -0.33375154 168.60035706 -0.32355309 C170.48917999 -0.32306219 172.37802016 -0.3292487 174.2667923 -0.34310913 C189.49214411 -0.44846227 204.44737157 1.13972795 218.55682373 7.33467102 C219.24743896 7.6301886 219.9380542 7.92570618 220.64959717 8.23017883 C246.64364502 19.77645549 266.85409665 41.40666011 277.68182373 67.58467102 C279.51508235 72.77129237 280.8745006 78.04421143 282.11932373 83.39717102 C282.20528809 83.76354675 282.20528809 83.76354675 282.64031982 85.61763 C283.77302269 90.87812937 283.9503366 95.76809611 283.80682373 101.14717102 C279.8059847 98.92042667 276.47061366 96.22644625 273.05682373 93.20967102 C260.64374101 82.50228513 246.85876143 73.54233922 232.80682373 65.14717102 C232.19613037 64.78059387 231.58543701 64.41401672 230.95623779 64.03633118 C210.94857228 52.13107586 189.74113082 42.85370705 167.80682373 35.14717102 C166.42918158 34.65118276 165.05157312 34.15510091 163.67401123 33.65888977 C146.74594196 27.75417446 129.17932119 24.10136348 111.49432373 21.33467102 C110.52490845 21.18175598 109.55549316 21.02884094 108.55670166 20.87129211 C85.66987623 17.35381353 62.90094383 17.27649267 39.80682373 18.14717102 C38.99761475 18.17646698 38.18840576 18.20576294 37.35467529 18.23594666 C27.20591359 18.62691123 17.32442469 19.57406397 7.30682373 21.33467102 C6.02420654 21.5567926 4.74158936 21.77891418 3.42010498 22.00776672 C-24.17439157 26.86171532 -50.9515798 34.21588238 -76.77130127 45.18623352 C-79.19317627 46.14717102 -79.19317627 46.14717102 -81.19317627 46.14717102 C-72.36986842 26.92026138 -50.39181504 13.14557407 -31.20587158 5.85810852 C-21.04945066 2.2705906 -10.79224543 -0.00265846 0 0 Z " fill="#4927F3" transform="translate(164.19317626953125,63.85282897949219)"/>
<path d="M0 0 C0.87253418 0.00757324 1.74506836 0.01514648 2.64404297 0.02294922 C17.36879441 0.39534925 29.40177793 6.25400673 40.14453125 16.16015625 C51.37938619 28.31214221 54.88103877 41.41209714 54.5625 57.40625 C53.9130664 71.86697146 46.73766797 84.6756222 36.25 94.4375 C22.24498152 105.20731664 7.44382114 107.73454673 -9.75 106.4375 C-13.7845894 105.62873351 -17.12311949 104.35831501 -20.75 102.4375 C-21.595625 102.00179687 -22.44125 101.56609375 -23.3125 101.1171875 C-37.54649915 93.17565749 -46.06119409 81.99122715 -50.75 66.4375 C-53.84853516 55.47498811 -53.04009462 41.47151427 -47.75 31.4375 C-47.49541016 30.93541016 -47.49541016 30.93541016 -46.20703125 28.39453125 C-38.66814614 14.50711131 -27.15519022 5.75615841 -12.11303711 1.0065918 C-8.07501815 0.03411301 -4.1377751 -0.0507653 0 0 Z " fill="#FF6F00" transform="translate(254.75,202.5625)"/>
<path d="M0 0 C0.51062988 0.38849121 1.02125977 0.77698242 1.54736328 1.17724609 C2.89831178 2.20119504 4.25596237 3.21631528 5.6171875 4.2265625 C7.15561901 5.37155906 8.68268759 6.53205901 10.1953125 7.7109375 C26.34993858 19.8132167 43.98384148 23.11541767 63.78149414 23.20532227 C65.15226524 23.21491965 66.5230335 23.22493076 67.89379883 23.23532104 C71.58941067 23.26217493 75.28503503 23.28328914 78.98068929 23.30332303 C82.85241891 23.32530412 86.72411083 23.35263307 90.59580994 23.37937927 C97.91596994 23.42914323 105.23615106 23.47414199 112.55635208 23.51740164 C120.8950002 23.56691397 129.23361045 23.62177986 137.57222188 23.67708123 C154.71477952 23.79065085 171.85737241 23.89754362 189 24 C190.03502944 28.98766337 190.22031401 33.66627338 190.25 38.75 C190.2603125 39.16830078 190.2603125 39.16830078 190.3125 41.28515625 C190.34817483 47.30528335 189.56900901 52.98038575 188.47949219 58.87988281 C188.33788666 59.66328033 188.19628113 60.44667786 188.05038452 61.2538147 C187.7035655 63.16981175 187.35224238 65.08499258 187 67 C166.0583564 67.09376882 145.11674782 67.1641378 124.17493629 67.20724869 C114.44956028 67.22780489 104.7243153 67.25579144 94.99902344 67.30175781 C86.51466952 67.34183953 78.03041058 67.36748315 69.5459646 67.37635398 C65.0605488 67.38153291 60.57540453 67.39355735 56.09007645 67.42292023 C51.85307616 67.45042807 47.61645467 67.45837508 43.37937355 67.45243073 C41.83885819 67.4535154 40.2983278 67.461256 38.7578907 67.4768219 C23.90145199 67.61935533 7.0357153 65.77269753 -6 58 C-7.82504873 52.5248538 -7.29087075 46.60786329 -7.3125 40.875 C-7.31545074 40.19693298 -7.31840149 39.51886597 -7.32144165 38.82025146 C-7.33530971 24.85490665 -5.01035481 13.06424893 0 0 Z " fill="#FFECB3" transform="translate(132,381)"/>
<path d="M0 0 C2.52215716 1.95873674 4.94964607 3.9865363 7.35546875 6.0859375 C7.97035156 6.60542969 8.58523438 7.12492187 9.21875 7.66015625 C22.23388474 19.53833669 30.28081208 38.40982724 31.640625 55.71484375 C32.1695247 77.7676618 24.80995872 97.68970406 9.72265625 113.7421875 C-5.29671902 128.61285609 -25.02643458 136.3984375 -46.125 136.3984375 C-64.22042517 136.03978943 -81.37242018 128.19426271 -94.64453125 116.0859375 C-95.25296875 115.56902344 -95.86140625 115.05210937 -96.48828125 114.51953125 C-108.02095262 104.06149517 -116.65743153 86.71036615 -117.8659668 71.25390625 C-118.75007389 47.24540305 -115.00073819 28.57699073 -98.64453125 10.0859375 C-98.12632812 9.47363281 -97.608125 8.86132812 -97.07421875 8.23046875 C-72.85623804 -18.36063068 -28.38536307 -20.5447975 0 0 Z M-65.64453125 12.0859375 C-66.64871094 12.59511719 -67.65289062 13.10429687 -68.6875 13.62890625 C-82.57491994 21.16779136 -91.32587284 32.68074728 -96.07543945 47.72290039 C-97.04791824 51.76091935 -97.13279655 55.6981624 -97.08203125 59.8359375 C-97.07445801 60.70847168 -97.06688477 61.58100586 -97.05908203 62.47998047 C-96.686682 77.20473191 -90.82802452 89.23771543 -80.921875 99.98046875 C-68.76988904 111.21532369 -55.66993411 114.71697627 -39.67578125 114.3984375 C-25.21505979 113.7490039 -12.40640905 106.57360547 -2.64453125 96.0859375 C8.12528539 82.08091902 10.65251548 67.27975864 9.35546875 50.0859375 C8.54670226 46.0513481 7.27628376 42.71281801 5.35546875 39.0859375 C4.91976562 38.2403125 4.4840625 37.3946875 4.03515625 36.5234375 C-3.90637376 22.28943835 -15.0908041 13.77474341 -30.64453125 9.0859375 C-41.60704314 5.98740234 -55.61051698 6.79584288 -65.64453125 12.0859375 Z " fill="#FEFCFC" transform="translate(299.64453125,194.9140625)"/>
<path d="M0 0 C5.6447673 2.82238365 9.9209222 6.44126114 14.5390625 10.7265625 C16.58571591 12.61728041 18.67105962 14.40748416 20.8125 16.1875 C30.08062177 24.3389806 38.01011927 33.65617132 45.25 43.625 C45.81098389 44.39497314 46.37196777 45.16494629 46.94995117 45.95825195 C51.2083705 51.95775587 51.2083705 51.95775587 52 56 C52.66 56 53.32 56 54 56 C51.82596767 73.99297809 45.66904281 89.65293102 31.59912109 101.74804688 C17.35971455 112.89608913 2.6746435 116.41916151 -15 116 C-15.53367187 114.92363281 -16.06734375 113.84726562 -16.6171875 112.73828125 C-27.71279339 90.81179081 -42.83892421 74.13916508 -65 63 C-61.90962124 61.2226319 -58.75092795 60.34790721 -55.31518555 59.45458984 C-36.62584041 54.50881954 -20.9220811 43.85988587 -11 27 C-6.66092561 19.46703066 -3.93362624 12.1234937 -1.76171875 3.73828125 C-1 1 -1 1 0 0 Z " fill="#FF5722" transform="translate(330,268)"/>
<path d="M0 0 C1.43392591 -0.00735902 2.86784593 -0.01595049 4.30175781 -0.02566528 C8.16155597 -0.04769986 12.02113953 -0.05082105 15.88099194 -0.04891777 C19.12097278 -0.0487972 22.36090957 -0.05739635 25.600878 -0.06569529 C33.25543357 -0.08486523 40.90988014 -0.08783701 48.56445312 -0.08105469 C56.41939262 -0.07442194 64.27386159 -0.097262 72.12870574 -0.13436842 C78.90963593 -0.16522056 85.69041598 -0.17640867 92.4714148 -0.1725316 C96.50501104 -0.17047968 100.53824098 -0.17569861 104.57176971 -0.20042419 C136.78140686 -0.38243747 136.78140686 -0.38243747 149.30566406 5.41992188 C150.35083191 5.89667358 151.39599976 6.37342529 152.47283936 6.86462402 C159.4200035 10.21348128 164.87516461 15.00864543 170.30566406 20.41992188 C170.58216797 20.68482422 170.58216797 20.68482422 171.98144531 22.02539062 C183.20600927 33.79454259 187.70206676 49.50676409 187.45996094 65.34155273 C187.41863135 67.03461923 187.36365847 68.72734427 187.30566406 70.41992188 C182.96916155 68.92038362 179.46930343 66.59192988 175.74316406 63.98242188 C169.53281054 59.7383112 163.13831437 55.93303131 156.55566406 52.29492188 C155.68611084 51.80967041 154.81655762 51.32441895 153.9206543 50.82446289 C153.10411377 50.37901123 152.28757324 49.93355957 151.44628906 49.47460938 C151.08293457 49.27601318 151.08293457 49.27601318 149.24414062 48.27099609 C147.30566406 47.41992188 147.30566406 47.41992188 144.30566406 47.41992188 C142.92698126 49.04927428 141.59292313 50.71741794 140.30566406 52.41992188 C136.83570174 54.15490304 133.09059211 54.02786369 129.30566406 53.41992188 C126.30566406 50.98242188 126.30566406 50.98242188 124.30566406 48.41992188 C123.97566406 48.08992188 123.64566406 47.75992188 123.30566406 47.41992188 C123.07036994 40.12580423 123.07036994 40.12580423 124.30566406 36.41992188 C123.04753906 36.17242187 121.78941406 35.92492187 120.49316406 35.66992188 C116.93395177 34.88601072 113.63334083 33.84593115 110.23535156 32.53320312 C104.32825643 30.35338648 98.36943769 28.7889778 92.24316406 27.35742188 C91.15044189 27.09993164 90.05771973 26.84244141 88.93188477 26.57714844 C79.77072423 24.45698838 70.62567768 22.66577953 61.30566406 21.41992188 C60.56171387 21.31695801 59.81776367 21.21399414 59.05126953 21.10791016 C18.77705166 15.72383837 -22.11254675 21.3603632 -60.69433594 33.41992188 C-54.38363609 19.93566509 -43.29337779 11.30670682 -30.25683594 4.66992188 C-20.08980322 1.10254197 -10.75277279 -0.02395212 0 0 Z " fill="#8E24A9" transform="translate(196.6943359375,127.580078125)"/>
<path d="M0 0 C1.28013787 2.56027575 0.7108655 3.28020585 0 6 C-1.75397644 29.38117201 1.46349681 49.17103442 16.79296875 67.578125 C22.46739735 73.8049316 28.44027594 79.22013797 36 83 C36 83.66 36 84.32 36 85 C34.86304688 85.17015625 33.72609375 85.3403125 32.5546875 85.515625 C10.95285621 88.8525506 -7.01411362 95.00565778 -24 109 C-24.76054687 109.6084375 -25.52109375 110.216875 -26.3046875 110.84375 C-30.97678681 114.72247396 -34.5701781 118.9981764 -38 124 C-39.75390625 123.87890625 -39.75390625 123.87890625 -42 123 C-43.96484375 120.40234375 -43.96484375 120.40234375 -45.9375 116.9375 C-46.58589844 115.83277344 -47.23429688 114.72804688 -47.90234375 113.58984375 C-53.84756301 101.52065902 -55.80624473 89.62831033 -55.83984375 76.3359375 C-55.85597233 74.80375447 -55.87279721 73.27157864 -55.89027405 71.7394104 C-55.91986761 68.56453559 -55.929509 65.39033458 -55.92651367 62.21533203 C-55.92600048 58.15658687 -55.9949058 54.10211738 -56.08037472 50.04439354 C-56.13599933 46.89572338 -56.14611056 43.74809874 -56.14346504 40.59898758 C-56.14933749 39.10218854 -56.17130079 37.60535766 -56.21012688 36.10905075 C-56.31655701 31.59449767 -56.27392302 27.37572734 -55 23 C-52.02429097 19.96871941 -48.92297742 18.51560064 -45 17 C-43.68481067 16.31841331 -42.37556991 15.62494299 -41.078125 14.91015625 C-30.48471675 9.70055318 -19.57849318 6.07096367 -8.28369141 2.69238281 C-5.50357896 1.84949219 -2.74898079 0.93912113 0 0 Z " fill="#FFC008" transform="translate(183,237)"/>
<path d="M0 0 C1.43274827 0.4778032 2.86637221 0.95298721 4.30078125 1.42578125 C7.87186408 2.60346573 11.43732253 3.79708447 15 5 C14.97679687 5.74765625 14.95359375 6.4953125 14.9296875 7.265625 C14.91164063 8.25046875 14.89359375 9.2353125 14.875 10.25 C14.85179687 11.22453125 14.82859375 12.1990625 14.8046875 13.203125 C15.00462794 16.06627213 15.37332298 17.65155238 17 20 C21.04879722 21.34959907 24.77125342 21.69360394 29 21 C31.8125 18.5625 31.8125 18.5625 34 16 C36.51145815 14.92579019 37.6029805 14.85527084 40.18798828 15.79760742 C40.97415527 16.22920166 41.76032227 16.6607959 42.5703125 17.10546875 C43.45895996 17.58693359 44.34760742 18.06839844 45.26318359 18.56445312 C49.20917945 20.80238014 53.1353831 23.07317288 57.05273438 25.36083984 C59.80641371 26.89233447 62.57792822 28.20414622 65.453125 29.48828125 C75.03996597 34.15668014 75.03996597 34.15668014 78 39 C80.12228889 48.16368148 79.11067885 57.7462415 78 67 C77.54939209 66.65461182 77.09878418 66.30922363 76.63452148 65.95336914 C44.1835309 41.32375359 8.15908143 23.38441247 -31.75 14.75 C-32.09756348 14.67438843 -32.09756348 14.67438843 -33.85644531 14.29174805 C-36.23116471 13.80922991 -38.60901329 13.39461195 -41 13 C-42.06774658 12.82122314 -43.13549316 12.64244629 -44.2355957 12.45825195 C-55.89565711 10.74812993 -67.50088397 10.66154183 -79.27026367 10.68432617 C-82.6642293 10.68747839 -86.05731372 10.66397168 -89.45117188 10.63867188 C-108.24668862 10.58233721 -126.11402394 12.57921006 -144.3125 17.3125 C-145.49384521 17.6122876 -146.67519043 17.9120752 -147.89233398 18.22094727 C-155.88390026 20.30253522 -163.5594195 22.78714496 -171.19140625 25.93359375 C-174 27 -174 27 -177 27 C-177.71288152 18.73057438 -175.73848708 11.41235834 -172 4 C-167.80484031 -0.64231818 -162.30442256 -1.578814 -156.4375 -3 C-155.92425171 -3.1278186 -155.92425171 -3.1278186 -153.3269043 -3.7746582 C-150.22232975 -4.53648317 -147.1129374 -5.27317521 -144 -6 C-143.14889648 -6.20157715 -142.29779297 -6.4031543 -141.42089844 -6.61083984 C-95.28984788 -17.33090679 -44.85209462 -15.62371999 0 0 Z " fill="#C1185B" transform="translate(306,159)"/>
<path d="M0 0 C0.66 0.33 1.32 0.66 2 1 C1.85553436 1.69978973 1.71106873 2.39957947 1.56222534 3.12057495 C-0.18119128 12.70582074 -0.17374072 21.9957092 -0.02987289 31.70590591 C0.03543183 36.66961337 0.0392093 41.63358886 0.0546875 46.59765625 C0.07824421 52.87657852 0.11962976 59.15395984 0.22265625 65.43212891 C0.30493429 70.54415282 0.32810765 75.65354469 0.31283188 80.7661705 C0.31777023 82.69985279 0.34400831 84.63361245 0.39282608 86.56668472 C0.77703497 102.40283005 0.77703497 102.40283005 -3.63919067 107.58761597 C-6.5165733 110.43627489 -9.67150025 112.70601135 -13 115 C-14.17547113 116.05126203 -15.33084731 117.12645834 -16.4453125 118.2421875 C-17.32960938 119.11101562 -18.21390625 119.97984375 -19.125 120.875 C-27.60023114 129.34464338 -34.51245419 138.8076009 -40.72265625 149.05078125 C-40.93341797 149.37240234 -40.93341797 149.37240234 -42 151 C-42.33 151 -42.66 151 -43 151 C-43.35110022 134.74489487 -43.61524133 118.49102713 -43.77718258 102.23304176 C-43.85439055 94.68320272 -43.95954537 87.13572496 -44.1315918 79.58740234 C-44.28155939 73.00459762 -44.37797439 66.4235028 -44.41132742 59.8390373 C-44.43081654 56.35453221 -44.47624919 52.87491612 -44.58595085 49.39198685 C-45.22620234 28.25843331 -45.22620234 28.25843331 -41.54979324 22.87737083 C-38.11722482 19.53228786 -34.28189073 17.50301488 -29.85202217 15.76027107 C-27.11559745 14.63694513 -24.68518933 13.07629501 -22.1875 11.50390625 C-20.46153011 10.51782093 -18.73244447 9.53716532 -17 8.5625 C-16.12472656 8.06041016 -15.24945313 7.55832031 -14.34765625 7.04101562 C-9.67223332 4.38692215 -5.06054591 1.83840144 0 0 Z " fill="#FE1743" transform="translate(107,172)"/>
<path d="M0 0 C2.97281694 2.47847846 3.75339587 4.75790261 4.75390625 8.453125 C5.05031006 9.53924072 5.34671387 10.62535645 5.65209961 11.74438477 C5.95253174 12.90123779 6.25296387 14.05809082 6.5625 15.25 C6.8726001 16.437146 7.1827002 17.62429199 7.50219727 18.84741211 C11.40693685 34.13705504 11.40693685 34.13705504 11.859375 41.80224609 C11.96833989 43.5052008 12.11351164 45.2058585 12.2734375 46.90478516 C13.93071544 65.4791756 13.93071544 65.4791756 10.97314453 70.87255859 C8.1987168 73.94000882 4.72488914 75.6065173 0.9765625 77.15820312 C-1.08628842 78.03674932 -3.00792848 79.05448367 -4.96875 80.140625 C-12.95909279 84.50331915 -21.1084895 87.90909765 -30 90 C-30.35622437 90.08902588 -30.35622437 90.08902588 -32.15893555 90.53955078 C-41.4312988 92.57182505 -50.75186265 92.22077493 -60.1875 92.125 C-61.91991669 92.11494761 -63.65233904 92.10582576 -65.38476562 92.09765625 C-69.58998586 92.07582749 -73.794929 92.04142299 -78 92 C-77.85786703 90.10388566 -77.71113093 88.20811606 -77.5625 86.3125 C-77.48128906 85.25675781 -77.40007812 84.20101562 -77.31640625 83.11328125 C-77 80 -77 80 -76.47094727 77.49145508 C-75.91603405 74.55579443 -75.88762871 71.81137197 -75.90234375 68.82421875 C-75.90556641 67.66728516 -75.90878906 66.51035156 -75.91210938 65.31835938 C-75.92048828 64.12017578 -75.92886719 62.92199219 -75.9375 61.6875 C-75.94201172 60.46998047 -75.94652344 59.25246094 -75.95117188 57.99804688 C-75.96293422 54.99864774 -75.97937174 51.99934911 -76 49 C-74.98164063 48.92523438 -73.96328125 48.85046875 -72.9140625 48.7734375 C-48.47214737 46.63688605 -27.20269135 36.75967858 -11 18 C-6.857807 12.35169807 -2.99620889 6.33573338 0 0 Z " fill="#FF5622" transform="translate(397,356)"/>
<path d="M0 0 C7.39094583 5.82316944 13.90521159 12.17594222 18.45166016 20.45507812 C18.8990152 21.26755005 19.34637024 22.08002197 19.80728149 22.91711426 C20.14673798 23.5374353 20.48619446 24.15775635 20.8359375 24.796875 C6.99634421 24.89073034 -6.84319901 24.96078763 -20.68304634 25.00412369 C-27.11058778 25.02493079 -33.53791427 25.05312244 -39.96533203 25.09863281 C-46.17695074 25.14233614 -52.38836367 25.16606373 -58.60012436 25.17638397 C-60.96100983 25.18373154 -63.32188501 25.19807872 -65.68268204 25.21979523 C-81.57398512 25.36006185 -94.98023357 24.7398192 -109.1640625 16.796875 C-108.8134375 16.4565625 -108.8134375 16.4565625 -107.0390625 14.734375 C-105.56931971 13.28493252 -104.21250328 11.85984802 -102.953125 10.22265625 C-78.92175186 -21.01812883 -30.14881868 -20.99251078 0 0 Z " fill="#FFDF81" transform="translate(269.1640625,359.203125)"/>
<path d="M0 0 C3.22700137 0.01064458 6.4534362 0.00008774 9.68041992 -0.01269531 C20.76291327 -0.01957165 31.65334949 0.42254639 42.68032837 1.51443481 C55.79745927 2.74583325 68.96683654 2.72840431 82.1315918 2.88574219 C84.8210704 2.92310623 87.51050972 2.96299109 90.19995117 3.00292969 C96.6979015 3.09754626 103.1959193 3.18295457 109.6940918 3.26074219 C109.6940918 3.59074219 109.6940918 3.92074219 109.6940918 4.26074219 C109.32901473 4.26239726 109.32901473 4.26239726 107.48150349 4.27077293 C89.66821669 4.35219604 71.85501452 4.44435077 54.04184437 4.54826927 C45.42732814 4.59826918 36.81282083 4.64471292 28.19824219 4.68261719 C20.68477355 4.71568576 13.1713768 4.75559762 5.65798777 4.80353224 C1.68426055 4.82865038 -2.2894199 4.85047391 -6.26320457 4.86408615 C-10.01345375 4.87704122 -13.76354129 4.89923603 -17.51370049 4.92812538 C-19.52577447 4.94133294 -21.53790375 4.94509646 -23.55001831 4.94844055 C-48.64406151 5.17628513 -68.58564608 13.56627375 -86.3059082 31.26074219 C-86.64041992 31.58945313 -86.64041992 31.58945313 -88.33325195 33.25292969 C-94.62549373 39.90187451 -100.0742247 48.58817191 -102.58325195 57.44042969 C-105.78451737 68.65721624 -105.78451737 68.65721624 -110.6730957 71.73339844 C-114.05599762 73.51472097 -117.57538021 74.93566417 -121.12719727 76.34228516 C-124.75688731 77.87241671 -128.14168997 79.80516508 -131.5559082 81.76074219 C-131.88522339 81.94660889 -131.88522339 81.94660889 -133.55175781 82.88720703 C-138.92456665 85.95451704 -144.05386716 89.31148639 -149.14575195 92.82714844 C-151.3059082 94.26074219 -151.3059082 94.26074219 -152.3059082 94.26074219 C-152.38086449 88.65977807 -152.4348858 83.05911508 -152.47070312 77.45776367 C-152.48565705 75.55797225 -152.50602763 73.65821454 -152.53222656 71.75854492 C-152.90183842 44.24057955 -152.90183842 44.24057955 -147.86523438 38.66625977 C-146.0514626 37.47241463 -144.34898441 36.74152626 -142.3059082 36.01074219 C-140.85118704 35.39164108 -139.39677232 34.77181953 -137.94262695 34.15136719 C-137.18127441 33.84650391 -136.41992188 33.54164063 -135.63549805 33.22753906 C-132.50409727 31.92798477 -129.49327617 30.420233 -126.45776367 28.91308594 C-98.49148297 15.13716808 -68.12102346 6.62823884 -37.3059082 2.26074219 C-36.77139038 2.17542236 -36.77139038 2.17542236 -34.06640625 1.74365234 C-22.7090439 0.08806016 -11.46450979 -0.04479334 0 0 Z " fill="#673AB7" transform="translate(216.305908203125,102.7392578125)"/>
<path d="M0 0 C0.33 0 0.66 0 1 0 C0.89937256 0.80816162 0.79874512 1.61632324 0.69506836 2.44897461 C-1.83582458 27.05342869 -1.83582458 27.05342869 5.72938538 36.44044495 C10.8243843 42.12552654 16.61331566 47.12445051 22.44068909 52.04090881 C26.77327184 55.70570568 30.39022251 59.56584107 33.75 64.125 C34.48734375 65.11757812 35.2246875 66.11015625 35.984375 67.1328125 C36.64953125 68.07898438 37.3146875 69.02515625 38 70 C38.4191247 70.49055343 38.8382494 70.98110685 39.27007484 71.48652554 C43.22981325 76.33445077 43.70410632 80.09755602 43.58349609 86.23657227 C43.58583252 87.13503876 43.58816895 88.03350525 43.59057617 88.959198 C43.59218358 91.91220334 43.55822951 94.86362399 43.5234375 97.81640625 C43.51664286 99.87710507 43.51192381 101.93781169 43.50918579 103.9985199 C43.49579689 109.41337251 43.45153592 114.82756609 43.40161133 120.2421875 C43.3662115 124.6590463 43.35313069 129.07583864 43.34119225 133.49281406 C43.32638389 138.76738592 43.30119016 144.04188842 43.2734375 149.31640625 C43.27098211 149.8179979 43.27098211 149.8179979 43.25855637 152.35635567 C43.24222682 155.20192041 43.21882025 158.04733082 43.19287109 160.89282227 C43.18861115 161.72987198 43.1843512 162.56692169 43.17996216 163.42933655 C43.13263398 167.72522812 42.84926839 171.7691944 42 176 C40.15950947 173.2392642 39.33832112 171.27982152 38.37109375 168.16015625 C38.06341064 167.18997559 37.75572754 166.21979492 37.4387207 165.22021484 C37.10831787 164.17816895 36.77791504 163.13612305 36.4375 162.0625 C28.49409333 137.79893732 17.03547122 116.67377293 2 96 C1.67 110.19 1.34 124.38 1 139 C0.67 139 0.34 139 0 139 C0 93.13 0 47.26 0 0 Z " fill="#D81F64" transform="translate(405,186)"/>
<path d="M0 0 C18.96890921 13.13232176 32.06697723 32.14237293 42.4375 52.4375 C42.77990723 53.09983643 43.12231445 53.76217285 43.47509766 54.44458008 C45.38827809 58.28994605 46.53130164 61.72890368 47 66 C32.61554438 73.59831345 21.3937372 77.59734265 5 77 C4.46632813 75.92363281 3.93265625 74.84726562 3.3828125 73.73828125 C-7.71279339 51.81179081 -22.83892421 35.13916508 -45 24 C-41.90946021 22.22253929 -38.7504382 21.34801881 -35.31469727 20.45410156 C-21.25976272 16.73704228 -10.39265521 10.34476279 0 0 Z " fill="#FF9800" transform="translate(310,307)"/>
<path d="M0 0 C6.30771261 1.87788981 11.91314239 4.30620141 17.625 7.5625 C18.40061279 8.00013672 19.17622559 8.43777344 19.9753418 8.88867188 C37.44054691 18.87389087 53.75406141 30.75406141 68 45 C68.09425595 47.14743549 68.11742648 49.29801026 68.11352539 51.44750977 C68.11367142 52.12065216 68.11381744 52.79379456 68.1139679 53.48733521 C68.11326878 55.72205784 68.10547652 57.9566981 68.09765625 60.19140625 C68.09579206 61.73697362 68.09436816 63.28254157 68.09336853 64.82810974 C68.0895434 68.90357077 68.07971317 72.97899637 68.06866455 77.05444336 C68.05845032 81.21011882 68.05387089 85.36579999 68.04882812 89.52148438 C68.03809089 97.68100587 68.02101454 105.84049853 68 114 C67.34 114 66.68 114 66 114 C64.625 112.05078125 64.625 112.05078125 63 109.3125 C52.61184137 92.61038869 39.33289397 78.15703719 24.25390625 65.5859375 C23.72917725 65.14757568 23.20444824 64.70921387 22.66381836 64.25756836 C21 63 21 63 19.04125977 61.90063477 C17.03290411 60.73758324 15.53106128 59.74930649 14 58 C13.23200416 54.68804199 13.53678576 51.55502292 13.8125 48.1875 C14.39324891 33.15673298 10.88513415 21.60953198 3.8046875 8.42578125 C2.33988752 5.64519774 1.09097434 2.94113185 0 0 Z " fill="#F40057" transform="translate(316,210)"/>
<path d="M0 0 C-2.89673833 3.08362468 -5.84539368 5.67131109 -9.25 8.1875 C-19.18937681 15.86867677 -28.28739156 26.66260585 -31.85351562 38.93798828 C-33.36711807 43.73375679 -34.45011311 47.06168868 -38.87207031 49.73876953 C-41.88888861 50.85155846 -44.88851824 51.80564802 -48.00201416 52.60864258 C-51.40247428 53.48745402 -54.75594635 54.52222745 -58.1171875 55.5390625 C-58.78885956 55.73788025 -59.46053162 55.936698 -60.15255737 56.14154053 C-66.41699488 58.03193289 -72.26360721 60.59358531 -78.125 63.5 C-78.97578125 63.92168457 -79.8265625 64.34336914 -80.703125 64.77783203 C-82.8098211 65.83769832 -84.905636 66.91606065 -87 68 C-87.66 68.33 -87.66 68.33 -91 70 C-91 53.5 -91 37 -91 20 C-67.95386622 10.78154649 -67.95386622 10.78154649 -57.8125 8.125 C-56.78576172 7.84398437 -55.75902344 7.56296875 -54.70117188 7.2734375 C-51.80680341 6.48927633 -48.90722544 5.73491395 -46 5 C-45.62311035 4.90420654 -45.62311035 4.90420654 -43.71582031 4.41943359 C-37.25456317 2.87677542 -30.7186668 2.12202815 -24.125 1.375 C-23.01769531 1.2409375 -21.91039062 1.106875 -20.76953125 0.96875 C-13.81261554 0.16760107 -7.00117554 -0.17401867 0 0 Z " fill="#F40057" transform="translate(219,190)"/>
<path d="M0 0 C0.66 0.33 1.32 0.66 2 1 C2.6081365 2.83344124 3.13441936 4.6941672 3.625 6.5625 C7.28323148 18.892095 13.35639998 33.31486273 23.79296875 41.38671875 C25 43 25 43 24.8125 45.71484375 C23.91521973 49.34278947 22.99705304 52.9608265 22 56.5625 C20.11202706 63.42350311 18.84937069 69.56331673 18.90234375 76.70703125 C18.90305122 77.06972862 18.90305122 77.06972862 18.90663147 78.90519714 C18.91220069 81.2076745 18.92474739 83.51005235 18.9375 85.8125 C18.94251898 87.37955588 18.94708119 88.9466133 18.95117188 90.51367188 C18.96216002 94.34248589 18.97940327 98.17122611 19 102 C5.55564685 95.51666177 -5.32804827 87.50304314 -16 77 C-16.51030762 76.57396484 -17.02061523 76.14792969 -17.54638672 75.70898438 C-21.49112174 72.40641552 -24.74712286 69.11619046 -26 64 C-25.72509688 41.53151004 -12.27850827 18.14611399 0 0 Z " fill="#FF9800" transform="translate(107,337)"/>
<path d="M0 0 C12.66532558 8.23143526 22.49098599 20.20839686 25.75 35.25 C25.80418838 36.99403214 25.81937311 38.73960028 25.80078125 40.484375 C25.79344971 41.37866211 25.78611816 42.27294922 25.77856445 43.19433594 C25.76913818 43.87270508 25.75971191 44.55107422 25.75 45.25 C24.62207031 44.75371094 23.49414062 44.25742188 22.33203125 43.74609375 C-9.58507044 29.87432454 -40.62348244 24.44060468 -75.25 24.25 C-70.98328881 10.85554997 -60.46963032 3.13491855 -48.49609375 -3.26953125 C-33.17509545 -10.25708643 -14.43430381 -8.07791314 0 0 Z " fill="#FE1844" transform="translate(283.25,209.75)"/>
<path d="M0 0 C1.28127155 2.56254311 0.70294551 3.27384841 0 6 C-0.25285998 10.18406648 -0.23132178 14.3715745 -0.25 18.5625 C-0.270625 19.69236328 -0.29125 20.82222656 -0.3125 21.98632812 C-0.34325277 28.66352323 0.31150406 34.33430558 2.45019531 40.67553711 C3.05522362 43.23347427 3.00797544 44.5834176 2 47 C-0.2734375 47.94921875 -0.2734375 47.94921875 -3.375 48.6875 C-20.81038718 53.57861521 -36.14768707 62.85955351 -49.94140625 74.43359375 C-52 76 -52 76 -55 77 C-55.25380077 69.42016221 -55.42876573 61.84142049 -55.54931641 54.25830078 C-55.59957089 51.67975933 -55.667789 49.10150236 -55.75439453 46.52392578 C-55.87589078 42.8147169 -55.93244306 39.10927451 -55.9765625 35.3984375 C-56.02817535 34.24822113 -56.07978821 33.09800476 -56.13296509 31.91293335 C-56.1352446 28.65149823 -56.03622325 26.09536962 -55 23 C-51.99229295 20.17040329 -48.771944 18.60729158 -45 17 C-43.68757225 16.31311079 -42.37903133 15.61862368 -41.078125 14.91015625 C-30.48471675 9.70055318 -19.57849318 6.07096367 -8.28369141 2.69238281 C-5.50357896 1.84949219 -2.74898079 0.93912113 0 0 Z " fill="#FF6F00" transform="translate(183,237)"/>
<path d="M0 0 C12.5531671 6.00759947 23.62220288 15.85592702 34 25 C34.37318359 25.32355469 34.37318359 25.32355469 36.26171875 26.9609375 C37.50674841 28.0420831 38.74050838 29.13650305 39.95680237 30.24987793 C42 32 42 32 44.30406189 33.52307129 C48.26023211 36.363469 50.64592685 38.50189613 51.78982544 43.34179688 C52.0415903 47.47658491 52.01446391 51.52019895 51.87890625 55.65625 C51.86209509 57.16935419 51.84929575 58.68250777 51.84031677 60.19567871 C51.80614553 64.15570172 51.71792226 68.11269701 51.61798096 72.0715332 C51.52548503 76.12018884 51.48471865 80.16933965 51.43945312 84.21875 C51.34327276 92.14721441 51.18991979 100.07322938 51 108 C47.79344439 104.86025638 45.11867528 101.60434765 42.4375 98 C39.09470983 93.5957024 35.65318318 89.35084546 31.9375 85.25 C31.5031665 84.75862549 31.06883301 84.26725098 30.62133789 83.76098633 C27.81194268 80.67109294 24.8825205 78.0906748 21.55859375 75.55859375 C9.97746868 66.26666262 9.97746868 66.26666262 8.19335938 58.47900391 C7.37359529 50.48630411 7.65479679 42.52920185 7.94433594 34.51220703 C8.13528448 22.46402418 4.43825712 11.06932902 0 0 Z " fill="#8E23A9" transform="translate(397,155)"/>
<path d="M0 0 C35.6210642 -1.20079306 70.43313313 3.15037164 102 21 C102.67620721 29.32110535 100.74493505 36.18183678 98 44 C96.906875 43.443125 95.81375 42.88625 94.6875 42.3125 C67.87485839 28.96505632 41.6688647 22.76644959 11.8125 22.9375 C10.27278792 22.94252803 8.73307425 22.94708862 7.19335938 22.95117188 C3.46220572 22.96206736 -0.26888654 22.97925918 -4 23 C-4.53847315 14.42930243 -3.4673054 7.86335332 0 0 Z " fill="#FF5722" transform="translate(207,234)"/>
<path d="M0 0 C0.51062988 0.38849121 1.02125977 0.77698242 1.54736328 1.17724609 C2.89831178 2.20119504 4.25596237 3.21631528 5.6171875 4.2265625 C7.15561901 5.37155906 8.68268759 6.53205901 10.1953125 7.7109375 C18.93562438 14.25876437 28.91430671 18.00083729 39 22 C38.08695652 27.60869565 38.08695652 27.60869565 37.4765625 30.35546875 C35.13202314 43.36574043 38.13866925 55.43393894 44 67 C27.15476062 67.63301526 8.95039584 66.91434817 -6 58 C-7.82504873 52.5248538 -7.29087075 46.60786329 -7.3125 40.875 C-7.31545074 40.19693298 -7.31840149 39.51886597 -7.32144165 38.82025146 C-7.33530971 24.85490665 -5.01035481 13.06424893 0 0 Z " fill="#FFD54E" transform="translate(132,381)"/>
<path d="M0 0 C8.42478558 -0.09360991 16.84934579 -0.16421771 25.2745266 -0.20724869 C29.18874143 -0.22792486 33.10259472 -0.25586511 37.01660156 -0.30175781 C70.49932247 -0.6837252 70.49932247 -0.6837252 85 4 C85.89702637 4.27730957 86.79405273 4.55461914 87.71826172 4.84033203 C89.78231398 5.53724431 91.75626782 6.31212531 93.75 7.1875 C94.44061523 7.48301758 95.13123047 7.77853516 95.84277344 8.08300781 C119.37037568 18.53371584 139.06044779 37.67580988 150 61 C150.7734375 64 150.7734375 64 151 66 C147.77921272 64.48981899 144.9247804 62.66599139 141.9921875 60.65625 C130.58303754 52.90287858 119.18994707 45.49467828 106.98486328 39.05859375 C105.10650832 38.05680444 103.25271607 37.02113326 101.40234375 35.96875 C84.63504652 26.53394766 66.39953934 19.82820681 48.19433594 13.74072266 C46.17638326 13.05954014 44.16937259 12.35410396 42.1640625 11.63671875 C28.44533963 6.83070195 14.25091889 3.77486863 0 1 C0 0.67 0 0.34 0 0 Z " fill="#304EFD" transform="translate(289,64)"/>
<path d="M0 0 C0.66 0.33 1.32 0.66 2 1 C1.855625 1.72525879 1.71125 2.45051758 1.5625 3.19775391 C0.37478313 9.85701023 -0.13543086 16.14929453 -0.0625 22.8984375 C-0.05943848 23.66939758 -0.05637695 24.44035767 -0.05322266 25.23468018 C-0.03937335 28.42620243 -0.0224511 31.61486995 0.07177734 34.80517578 C0.43326826 48.26187894 0.43326826 48.26187894 -3.0534668 52.49023438 C-5.62263839 54.29479758 -8.16403741 55.66222187 -11 57 C-12.21304865 57.79997804 -13.41014766 58.62522382 -14.58203125 59.484375 C-15.11505859 59.85820312 -15.11505859 59.85820312 -17.8125 61.75 C-23.87216535 66.04229788 -29.55180543 70.69236427 -35.16015625 75.5546875 C-37.72896397 77.76661822 -40.34735416 79.89026402 -43 82 C-43.34939235 74.7424633 -43.61493585 67.48676731 -43.77718258 60.22249031 C-43.8551169 56.84775714 -43.96047845 53.4788173 -44.1315918 50.10742188 C-45.15267109 28.42049861 -45.15267109 28.42049861 -41.65655518 22.86532593 C-38.28120303 19.45942066 -34.35380668 17.53933539 -29.93411255 15.79260254 C-27.16519149 14.65789408 -24.71765187 13.09129236 -22.1875 11.50390625 C-20.46153011 10.51782093 -18.73244447 9.53716532 -17 8.5625 C-16.12472656 8.06041016 -15.24945313 7.55832031 -14.34765625 7.04101562 C-9.67223332 4.38692215 -5.06054591 1.83840144 0 0 Z " fill="#D81A5F" transform="translate(107,172)"/>
<path d="M0 0 C2.33857021 17.66455712 2.69119034 34.36309186 0 52 C-5.78680841 53.65911471 -10.87315863 54.27597818 -16.875 54.1953125 C-17.68493408 54.1924826 -18.49486816 54.18965271 -19.3293457 54.18673706 C-21.88638834 54.17564715 -24.44306535 54.15056452 -27 54.125 C-28.74608865 54.1149557 -30.49218285 54.1058324 -32.23828125 54.09765625 C-36.49232585 54.07574466 -40.74610119 54.04129382 -45 54 C-44.85786703 52.10388566 -44.71113093 50.20811606 -44.5625 48.3125 C-44.48128906 47.25675781 -44.40007812 46.20101562 -44.31640625 45.11328125 C-44 42 -44 42 -43.47094727 39.49145508 C-42.91603405 36.55579443 -42.88762871 33.81137197 -42.90234375 30.82421875 C-42.90556641 29.66728516 -42.90878906 28.51035156 -42.91210938 27.31835938 C-42.92048828 26.12017578 -42.92886719 24.92199219 -42.9375 23.6875 C-42.94201172 22.46998047 -42.94652344 21.25246094 -42.95117188 19.99804688 C-42.96293422 16.99864774 -42.97937174 13.99934911 -43 11 C-41.98164063 10.92523438 -40.96328125 10.85046875 -39.9140625 10.7734375 C-26.75836155 9.61942864 -12.02197082 0 0 0 Z " fill="#FF9800" transform="translate(364,394)"/>
<path d="M0 0 C1.25342104 4.89238535 1.22070673 9.73352718 1.25 14.75 C1.270625 15.58660156 1.29125 16.42320312 1.3125 17.28515625 C1.36621554 26.34965335 -0.34951928 33.64727594 -2 43 C-17.84 43 -33.68 43 -50 43 C-47 34 -47 34 -45.875 31.3125 C-42.28574422 21.82660974 -43.9270322 10.84979554 -45 1 C-29.98802974 0.16710922 -15.03408581 -0.13538592 0 0 Z " fill="#FFE081" transform="translate(321,405)"/>
<path d="M0 0 C9.93785507 1.03192175 20.19545592 14.74980332 26.3125 22.0625 C34.92484438 32.78398994 42.56708994 43.83373984 49 56 C49.45246094 56.78375 49.90492188 57.5675 50.37109375 58.375 C51.375 60.375 51.375 60.375 52 64 C50.56230236 67.20473571 48.42528425 69.49258462 46 72 C45.31164062 72.74121094 44.62328125 73.48242188 43.9140625 74.24609375 C38.58215066 79.80594978 38.58215066 79.80594978 35 81 C34.5153125 79.85144531 34.030625 78.70289063 33.53125 77.51953125 C23.32875162 53.71970266 8.63516295 33.86664757 -11 17 C-9.3189585 13.3650778 -7.16668 10.13401865 -4.9375 6.8125 C-4.22464844 5.74644531 -3.51179688 4.68039062 -2.77734375 3.58203125 C-1 1 -1 1 0 0 Z " fill="#FF6F00" transform="translate(322,291)"/>
<path d="M0 0 C29.54285489 -0.5918283 55.25112213 2.60830372 82 16 C82.33 16.33 82.33 16.33 84 18 C69.10275158 29.07185895 55.42720142 32.55733796 37 31 C32.96935994 30.18366784 29.62518593 28.91991755 26 27 C25.154375 26.56429688 24.30875 26.12859375 23.4375 25.6796875 C13.0913667 19.90730215 5.52010795 12.5432287 0 2 C0 1.34 0 0.68 0 0 Z " fill="#FF9801" transform="translate(208,278)"/>
<path d="M0 0 C20.45435453 14.55405995 36.52041186 34.21578936 45 58 C45 58.66 45 59.32 45 60 C45.66 60.33 46.32 60.66 47 61 C38.95075394 63.25943749 31.29683005 63.19676277 23 63 C22.46632813 61.92363281 21.93265625 60.84726562 21.3828125 59.73828125 C10.28720661 37.81179081 -4.83892421 21.13916508 -27 10 C-22.47131582 7.40019982 -17.371637 6.31830202 -12.375 4.94335938 C-7.97239332 3.69491702 -4.04415872 2.20181975 0 0 Z " fill="#FFC108" transform="translate(292,321)"/>
<path d="M0 0 C0.33 0 0.66 0 1 0 C1.06058594 1.30453125 1.12117188 2.6090625 1.18359375 3.953125 C1.20393677 4.37364136 1.20393677 4.37364136 1.30688477 6.50170898 C1.39447647 8.34473664 1.47693729 10.18801481 1.55444336 12.03149414 C1.77576816 16.92523144 2.2404405 21.60300721 3.0625 26.4375 C3.6817861 33.34641056 -0.04243555 37.8085827 -3.84619141 43.28173828 C-14.37365799 58.95933241 -19.35802861 76.68302625 -23 95 C-26.86680801 91.62627489 -28.8560639 87.91071674 -31.0625 83.375 C-31.41175537 82.6629541 -31.76101074 81.9509082 -32.12084961 81.21728516 C-36.56848759 71.96124818 -39.20080275 65.44323068 -35.7578125 55.36328125 C-27.61965396 34.66639445 -15.67820826 15.84588964 0 0 Z " fill="#FF6E00" transform="translate(105,305)"/>
<path d="M0 0 C2.15276788 2.70573375 3.71690029 5.28548417 5.0859375 8.45703125 C5.45686523 9.31417725 5.82779297 10.17132324 6.20996094 11.05444336 C6.59442383 11.96460205 6.97888672 12.87476074 7.375 13.8125 C7.77493164 14.75810791 8.17486328 15.70371582 8.58691406 16.67797852 C15.72396073 33.75673987 20.9503284 51.55295556 23 70 C23.17144531 70.96164062 23.34289062 71.92328125 23.51953125 72.9140625 C24.0688341 77.99694486 23.60497098 81.50947875 20.60546875 85.671875 C15.42002939 92.09306136 9.72692602 97.22681854 3 102 C2.98541748 101.37246826 2.97083496 100.74493652 2.95581055 100.09838867 C2.40736365 78.8213621 -0.39726382 59.70784443 -6.38330078 39.28564453 C-7.63990311 34.62835593 -8.31979069 31.97722829 -6.3125 27.5 C-2.83573592 18.7172336 -1.60553624 9.26797083 0 0 Z " fill="#FE1744" transform="translate(406,322)"/>
<path d="M0 0 C16.00315366 8.70802235 29.19336748 20.11256854 42 33 C42.84820312 33.83660156 43.69640625 34.67320312 44.5703125 35.53515625 C44.99183594 35.95216797 44.99183594 35.95216797 47.125 38.0625 C47.97320312 38.89910156 48.82140625 39.73570312 49.6953125 40.59765625 C50.45585937 41.39042969 51.21640625 42.18320312 52 43 C52.5364917 43.53906982 53.0729834 44.07813965 53.62573242 44.63354492 C55.625294 48.07674093 55.3710457 51.3990007 55.29296875 55.265625 C55.28872391 56.05902283 55.28447906 56.85242065 55.28010559 57.66986084 C55.2633504 60.1969232 55.22570506 62.72317983 55.1875 65.25 C55.17244903 66.96613429 55.15876134 68.68228112 55.14648438 70.3984375 C55.11345735 74.59926746 55.06169765 78.79949725 55 83 C54.34 83 53.68 83 53 83 C51.625 81.05078125 51.625 81.05078125 50 78.3125 C39.61184137 61.61038869 26.33289397 47.15703719 11.25390625 34.5859375 C10.72893555 34.14677002 10.20396484 33.70760254 9.66308594 33.25512695 C8 32 8 32 6.04785156 30.92260742 C4.00961968 29.75713182 2.53334962 28.78462325 1 27 C0.16770041 23.48424521 0.38218753 20.14770046 0.625 16.5625 C0.7047132 14.70981104 0.78034265 12.85694114 0.8515625 11.00390625 C0.89055664 10.13910645 0.92955078 9.27430664 0.96972656 8.38330078 C1.00635449 5.4997374 0.62886273 2.81111024 0 0 Z " fill="#FE1744" transform="translate(329,241)"/>
<path d="M0 0 C0.47050781 0.96421875 0.94101563 1.9284375 1.42578125 2.921875 C2.05447179 4.19802296 2.68339007 5.47405874 3.3125 6.75 C3.46686523 7.06710937 3.46686523 7.06710937 4.24804688 8.671875 C5.91785767 12.0466505 7.72913897 15.00945071 10 18 C10 18.66 10 19.32 10 20 C8.97003906 20.268125 7.94007813 20.53625 6.87890625 20.8125 C-15.84604389 26.96515364 -35.78823208 38.29390972 -52.24609375 55.32421875 C-54 57 -54 57 -56 57 C-59.10890501 49.30175903 -62.19743523 39.10521923 -59 31 C-54.59652979 25.29481809 -48.08747387 21.66161934 -42 18 C-41.65855957 17.78553223 -41.65855957 17.78553223 -39.93066406 16.70019531 C-13.2609986 0 -13.2609986 0 0 0 Z " fill="#FF9800" transform="translate(187,283)"/>
<path d="M0 0 C13.79173695 11.50540623 26.46768454 24.43953582 37 39 C37.42702713 39.48998978 37.85405426 39.97997955 38.29402161 40.4848175 C42.42043184 45.47755597 42.6732315 49.5458674 42.48828125 55.87109375 C42.48120651 56.793423 42.47413177 57.71575226 42.46684265 58.66603088 C42.43901755 61.59070475 42.37630266 64.51341206 42.3125 67.4375 C42.28740171 69.42900867 42.26459123 71.42054756 42.24414062 73.41210938 C42.18922996 78.27548882 42.10304109 83.13741185 42 88 C38.83059977 84.14118838 36.39571925 80.2097209 34.0625 75.8125 C25.92589122 60.96223804 15.1392017 44.70695083 2.20703125 33.6015625 C-1.95862882 28.57994488 -0.50203646 20.79172974 -0.3125 14.625 C-0.28739387 13.20707042 -0.26458475 11.78909821 -0.24414062 10.37109375 C-0.18930824 6.91317012 -0.10316611 3.45685812 0 0 Z " fill="#C1185B" transform="translate(406,217)"/>
<path d="M0 0 C-1.37548479 3.51160632 -2.86184486 6.94880906 -4.4375 10.375 C-5.87670268 13.50605535 -7.03764468 16.16856659 -7.79296875 19.55078125 C-8.99534089 22.34171665 -9.93334758 22.96725888 -12.71166992 24.33203125 C-15.73725013 25.38704753 -18.77053737 26.35021819 -21.85113525 27.23144531 C-25.26931157 28.212809 -28.65792921 29.28594599 -32.046875 30.36328125 C-32.72473053 30.57755768 -33.40258606 30.79183411 -34.10098267 31.01260376 C-43.50186742 34.04682368 -52.24587347 38.46929654 -61 43 C-62.32 43.66 -63.64 44.32 -65 45 C-65 36.75 -65 28.5 -65 20 C-49.00524983 12.06367358 -33.05125287 5.80365767 -15.6875 1.5625 C-15.02476074 1.39838623 -14.36202148 1.23427246 -13.67919922 1.06518555 C-9.0116438 0.00318892 -4.75203884 -0.13185457 0 0 Z " fill="#FE1744" transform="translate(193,215)"/>
<path d="M0 0 C2.01771706 2.5187609 4.03177319 5.04012814 6.03515625 7.5703125 C6.70417969 8.41335938 7.37320313 9.25640625 8.0625 10.125 C8.73410156 10.97320312 9.40570313 11.82140625 10.09765625 12.6953125 C12 15 12 15 13.80859375 16.4296875 C15 18 15 18 14.8125 20.71484375 C13.91521973 24.34278947 12.99705304 27.9608265 12 31.5625 C10.11202706 38.42350311 8.84937069 44.56331673 8.90234375 51.70703125 C8.90305122 52.06972862 8.90305122 52.06972862 8.90663147 53.90519714 C8.91220069 56.2076745 8.92474739 58.51005235 8.9375 60.8125 C8.94251898 62.37955588 8.94708119 63.9466133 8.95117188 65.51367188 C8.96216002 69.34248589 8.97940327 73.17122611 9 77 C8.20625977 76.60240479 7.41251953 76.20480957 6.59472656 75.79516602 C5.53737305 75.26592529 4.48001953 74.73668457 3.390625 74.19140625 C2.29427734 73.63984863 1.19792969 73.08829102 0.06835938 72.52001953 C-2.12444598 71.43373642 -4.34363002 70.40006039 -6.578125 69.40234375 C-9.91647162 67.57210986 -11.7970662 66.13981369 -14 63 C-18.86122525 42.56263715 -9.54909931 17.62153379 0 0 Z " fill="#FFC008" transform="translate(117,362)"/>
<path d="M0 0 C1.27717529 2.55435057 0.72058734 3.29409633 0 6 C-0.14298131 7.6586512 -0.24541225 9.3210869 -0.31640625 10.984375 C-0.33735352 11.45166016 -0.33735352 11.45166016 -0.44335938 13.81640625 C-0.48267578 14.78449219 -0.52199219 15.75257813 -0.5625 16.75 C-0.5840918 17.24177734 -0.5840918 17.24177734 -0.69335938 19.73046875 C-0.79922052 22.15351275 -0.90130171 24.5766554 -1 27 C-1.165 26.67 -1.165 26.67 -2 25 C-21.24337246 29.70256047 -38.12492116 38.8598423 -55 49 C-55.29133413 44.79313516 -55.46826779 40.58885739 -55.625 36.375 C-55.70878906 35.18519531 -55.79257813 33.99539063 -55.87890625 32.76953125 C-55.97681316 29.2644637 -55.92285348 26.38672489 -55 23 C-52.07343527 20.01729272 -48.82498489 18.58428856 -45 17 C-43.68780159 16.31267277 -42.37994373 15.61694573 -41.078125 14.91015625 C-30.48471675 9.70055318 -19.57849318 6.07096367 -8.28369141 2.69238281 C-5.50357896 1.84949219 -2.74898079 0.93912113 0 0 Z " fill="#FF5723" transform="translate(183,237)"/>
<path d="M0 0 C12.5531671 6.00759947 23.62220288 15.85592702 34 25 C34.37318359 25.32355469 34.37318359 25.32355469 36.26171875 26.9609375 C37.50706785 28.04236049 38.74053241 29.13779836 39.95556641 30.25317383 C42 32 42 32 44.31518555 33.4934082 C48.4843369 36.43550979 50.70709447 38.53262382 51.72802734 43.6472168 C51.99598298 47.94184771 51.78717734 52.20805054 51.5625 56.5 C51.51728902 58.00508816 51.47623598 59.51030728 51.43945312 61.015625 C51.34093491 64.67983302 51.18603578 68.33907017 51 72 C47.89446419 69.60789362 45.17489194 67.24381036 42.66015625 64.23828125 C39.07668989 60.05482862 35.32126825 56.09247523 31.4375 52.1875 C31.09485107 51.84178955 31.09485107 51.84178955 29.36083984 50.09228516 C24.35248047 45.12770716 19.11919956 40.67285341 13.34155273 36.62573242 C9.46734198 33.81099737 8.01556298 31.66802633 7 27 C6.68972262 25.00573857 6.42019938 23.00479468 6.1875 21 C5.13132279 13.5552387 2.73864556 6.97204805 0 0 Z " fill="#673AB7" transform="translate(397,155)"/>
<path d="M0 0 C-0.37511719 0.58265625 -0.75023437 1.1653125 -1.13671875 1.765625 C-5.66245775 9.01592728 -9.82344508 16.71872259 -11.6953125 25.12109375 C-13.50664587 29.1179581 -16.28981853 30.15052781 -20.125 31.8125 C-21.58238023 32.49256667 -23.03806593 33.1762745 -24.4921875 33.86328125 C-25.23952148 34.21213379 -25.98685547 34.56098633 -26.75683594 34.92041016 C-30.3329375 36.64151607 -33.79460939 38.54992392 -37.25 40.5 C-37.90830811 40.87092773 -38.56661621 41.24185547 -39.24487305 41.62402344 C-44.61611731 44.69559724 -49.74721154 48.05022816 -54.83984375 51.56640625 C-57 53 -57 53 -58 53 C-60.32747497 31.05966932 -60.32747497 31.05966932 -56.8984375 25.07861328 C-53.69244908 21.96788477 -49.61684955 20.53230514 -45.48681641 19.00195312 C-41.68318248 17.46944639 -38.16822549 15.45563641 -34.57739258 13.48461914 C-26.65113435 9.16329106 -18.5759228 5.17925104 -10.25 1.6875 C-9.55342285 1.39149902 -8.8568457 1.09549805 -8.13916016 0.79052734 C-3.37629241 -1.1254308 -3.37629241 -1.1254308 0 0 Z " fill="#8E24A9" transform="translate(122,144)"/>
<path d="M0 0 C2.04345872 22.97863284 2.04345872 22.97863284 -1.05029297 29.06689453 C-3.81812978 32.2005776 -7.43473299 34.05662398 -11.10498047 35.92919922 C-14.48832941 37.84099624 -17.290122 40.4320056 -20.1875 43 C-20.77152588 43.50402344 -21.35555176 44.00804687 -21.95727539 44.52734375 C-27.23206858 49.10342505 -32.14131027 53.98485872 -37 59 C-38.66527823 60.66805395 -40.33178319 62.33488492 -42 64 C-42.22446328 59.60781002 -42.38666898 55.21875004 -42.49438477 50.82250977 C-42.53932712 49.33135782 -42.60051176 47.84059536 -42.67895508 46.35083008 C-43.30922987 34.06253136 -43.30922987 34.06253136 -40.18945312 29.14770508 C-37.91811463 26.84444689 -35.60392886 24.91439597 -33 23 C-31.85940637 22.02513759 -30.72105537 21.04763914 -29.5859375 20.06640625 C-28.52166564 19.22408176 -27.45128293 18.38942211 -26.375 17.5625 C-25.79451904 17.11076416 -25.21403809 16.65902832 -24.6159668 16.19360352 C-17.98492201 11.10647181 -11.01102386 6.54072648 -4 2 C-1 0 -1 0 0 0 Z " fill="#F40056" transform="translate(106,222)"/>
<path d="M0 0 C0.99 0 1.98 0 3 0 C3.48913541 1.93500736 3.96565717 3.8732034 4.4375 5.8125 C4.70433594 6.89144531 4.97117187 7.97039062 5.24609375 9.08203125 C7.35598309 20.04689659 7.12233052 31.07144107 7.0625 42.1875 C7.05747294 43.82356633 7.05291217 45.45963417 7.04882812 47.09570312 C7.03792277 51.06383986 7.0207253 55.03190291 7 59 C4.48241883 59.98829417 1.96145276 60.9657226 -0.5625 61.9375 C-0.91473633 62.07639648 -0.91473633 62.07639648 -2.69726562 62.77929688 C-7.16090498 64.4865875 -11.24380456 65.50625566 -16 66 C-15.9278125 65.05382812 -15.855625 64.10765625 -15.78125 63.1328125 C-15.2386681 55.5868692 -14.89404737 48.0665666 -14.875 40.5 C-14.87048828 39.77184082 -14.86597656 39.04368164 -14.86132812 38.29345703 C-14.87732517 32.45853577 -15.52433083 26.85401501 -16.484375 21.09375 C-16.79144416 18.09530996 -16.81231384 15.91752512 -16 13 C-12.72119776 9.68182964 -8.9395977 7.45599744 -5 5 C-3.26171875 3.3984375 -3.26171875 3.3984375 -2 2 C-1.34 1.34 -0.68 0.68 0 0 Z " fill="#FF6F00" transform="translate(380,380)"/>
<path d="M0 0 C7.54649364 -0.11699867 15.09289072 -0.20526517 22.64009094 -0.25906086 C26.14645934 -0.28490964 29.65219739 -0.31983866 33.15820312 -0.37719727 C56.88830235 -0.75514254 76.73717501 0.6495532 94.78515625 17.78515625 C100.89483529 23.89483529 105.31092969 30.11166881 109 38 C109 38.66 109 39.32 109 40 C105.40446902 38.69687587 102.18620287 37.01574067 98.89086914 35.08203125 C81.21930672 24.72778995 62.33520479 17.59873592 43 11 C42.22108398 10.73171387 41.44216797 10.46342773 40.63964844 10.18701172 C27.44692517 5.68492641 13.85289061 2.57419211 0 1 C0 0.67 0 0.34 0 0 Z " fill="#683AB7" transform="translate(270,128)"/>
<path d="M0 0 C0.66 0.33 1.32 0.66 2 1 C1.86722656 1.79921875 1.73445313 2.5984375 1.59765625 3.421875 C1.42105469 4.52015625 1.24445313 5.6184375 1.0625 6.75 C0.85753906 7.93722656 0.65257812 9.12445313 0.44140625 10.34765625 C0 14 0 14 0.27734375 17.18359375 C0.53974275 20.72367846 0.47279067 22.7445938 -1 26 C-4.81637499 29.23832074 -9.45748194 31.23952538 -13.92578125 33.41796875 C-19.04245454 35.9219144 -23.58630282 38.96953905 -28.1875 42.3125 C-28.52813477 42.55838867 -28.52813477 42.55838867 -30.25195312 43.80273438 C-31.54327327 44.73967446 -32.83228821 45.67980228 -34.11865234 46.62353516 C-37.06017633 48.77566495 -40.03104866 50.88592181 -43 53 C-45.3341009 29.35256542 -45.3341009 29.35256542 -41.86621094 22.88574219 C-38.69098067 19.53305394 -34.64581477 17.83145328 -30.43603516 16.08544922 C-26.70774225 14.42419543 -23.27932864 12.2987361 -19.77612305 10.21289062 C-6.67742554 2.4257835 -6.67742554 2.4257835 0 0 Z " fill="#C1185B" transform="translate(107,172)"/>
<path d="M0 0 C3.3 1.32 3.3 1.32 20 8 C19 14 19 14 18.44921875 16.5234375 C16.10432526 29.45093724 19.18175076 41.51895092 25 53 C21.79168609 53.0292483 18.58340693 53.04688189 15.375 53.0625 C14.47136719 53.07087891 13.56773437 53.07925781 12.63671875 53.08789062 C11.75371094 53.09111328 10.87070313 53.09433594 9.9609375 53.09765625 C9.15446777 53.10289307 8.34799805 53.10812988 7.51708984 53.11352539 C4.62000082 52.98286134 1.85000779 52.52328606 -1 52 C-3.44578131 43.006136 -4.47062389 34.68239234 -4.375 25.375 C-4.38660156 24.23804688 -4.39820313 23.10109375 -4.41015625 21.9296875 C-4.34967455 4.34967455 -4.34967455 4.34967455 0 0 Z " fill="#FFDF81" transform="translate(151,395)"/>
<path d="M0 0 C4.17928197 2.7148063 7.92306885 5.72292305 11.5625 9.125 C11.5625 9.455 11.5625 9.785 11.5625 10.125 C-15.1675 10.125 -41.8975 10.125 -69.4375 10.125 C-66.05293578 6.74043578 -62.7903425 4.1274594 -58.8125 1.5625 C-58.19584473 1.16482422 -57.57918945 0.76714844 -56.94384766 0.35742188 C-51.9878228 -2.73478777 -47.17000392 -4.67267708 -41.4375 -5.875 C-40.81359375 -6.04410889 -40.1896875 -6.21321777 -39.546875 -6.38745117 C-26.4143338 -9.42283135 -11.51810874 -6.58177642 0 0 Z " fill="#FFEBB2" transform="translate(251.4375,373.875)"/>
<path d="M0 0 C0.04979311 5.10455945 0.08590409 10.2089745 0.10986328 15.3137207 C0.11986161 17.04681871 0.13346473 18.7799001 0.15087891 20.51293945 C0.17540084 23.01778284 0.18654496 25.52240136 0.1953125 28.02734375 C0.20563507 28.79022202 0.21595764 29.55310028 0.22659302 30.33909607 C0.22775903 36.05166426 -0.70459295 40.1706683 -2 46 C-9.26 46 -16.52 46 -24 46 C-23.11756817 34.52838623 -23.11756817 34.52838623 -22.48632812 31.69140625 C-21.94230232 28.68069317 -21.88727495 25.88318554 -21.90234375 22.82421875 C-21.90556641 21.66728516 -21.90878906 20.51035156 -21.91210938 19.31835938 C-21.92048828 18.12017578 -21.92886719 16.92199219 -21.9375 15.6875 C-21.94201172 14.46998047 -21.94652344 13.25246094 -21.95117188 11.99804688 C-21.96293422 8.99864774 -21.97937174 5.99934911 -22 3 C-21.40380859 2.93361328 -21.40380859 2.93361328 -18.38671875 2.59765625 C-16.82029322 2.41944017 -15.25388802 2.24104544 -13.6875 2.0625 C-12.90181641 1.97548828 -12.11613281 1.88847656 -11.30664062 1.79882812 C-10.54931641 1.71181641 -9.79199219 1.62480469 -9.01171875 1.53515625 C-8.31522217 1.456604 -7.61872559 1.37805176 -6.90112305 1.29711914 C-4.48949821 0.92021566 -2.45992062 0 0 0 Z " fill="#FFC108" transform="translate(343,402)"/>
<path d="M0 0 C7.26 0 14.52 0 22 0 C25.39462623 13.57850493 22.80733251 28.54819838 20 42 C12.41 42 4.82 42 -3 42 C-1.92939702 34.50577914 -1.92939702 34.50577914 -0.9453125 30.91015625 C0.45350166 24.79715672 0.21475058 18.67516559 0.125 12.4375 C0.12048828 11.83776367 0.12048828 11.83776367 0.09765625 8.80273438 C0.07427512 5.86840218 0.038411 2.93417394 0 0 Z " fill="#FFD44E" transform="translate(299,406)"/>
<path d="M0 0 C6.41378556 4.12240051 12.32411173 9.00658395 16.75 15.25 C16.42 15.91 16.09 16.57 15.75 17.25 C15.12770508 17.02860352 14.50541016 16.80720703 13.86425781 16.57910156 C-9.49371372 8.34166647 -31.61420556 4.56728105 -56.25 2.25 C-54.11236473 0.04504651 -52.26244237 -1.44785347 -49.5 -2.8125 C-49.18289062 -2.97298828 -49.18289062 -2.97298828 -47.578125 -3.78515625 C-32.34640994 -10.09762877 -14.16163344 -7.9253178 0 0 Z " fill="#F50359" transform="translate(283.25,209.75)"/>
<path d="M0 0 C2.9375 2.4375 2.9375 2.4375 5 5 C5.33 5.33 5.66 5.66 6 6 C6.58169863 10.61544489 6.6241677 14.00133167 4.125 18 C0.61339986 21.30503543 -2.06427518 21.38586099 -6.73828125 21.36328125 C-10.29566317 20.7918883 -11.85459738 18.7487971 -14 16 C-14.33 15.67 -14.66 15.34 -15 15 C-15.69087003 8.20644468 -15.69087003 8.20644468 -13.953125 5.171875 C-9.92357342 0.28900662 -6.28174654 -1.11916174 0 0 Z " fill="#FCF7FA" transform="translate(335,160)"/>
<path d="M0 0 C3.22700137 0.01064458 6.4534362 0.00008774 9.68041992 -0.01269531 C20.76291327 -0.01957165 31.65334949 0.42254639 42.68032837 1.51443481 C55.79745927 2.74583325 68.96683654 2.72840431 82.1315918 2.88574219 C84.8210704 2.92310623 87.51050972 2.96299109 90.19995117 3.00292969 C96.6979015 3.09754626 103.1959193 3.18295457 109.6940918 3.26074219 C109.6940918 3.59074219 109.6940918 3.92074219 109.6940918 4.26074219 C91.11830149 4.30744371 72.54252307 4.34272196 53.96668625 4.36436653 C45.34178455 4.37468318 36.71691931 4.38875094 28.09204102 4.41162109 C20.57541322 4.43154307 13.05881183 4.4444558 5.54215837 4.44891918 C1.56141533 4.45152858 -2.41925216 4.45766988 -6.39997101 4.4722023 C-10.14603253 4.48576738 -13.89198732 4.48996701 -17.63807106 4.48695755 C-19.01352073 4.4875082 -20.38897394 4.49149208 -21.76440239 4.49915314 C-23.64159443 4.50909695 -25.51884361 4.50552108 -27.39605713 4.50125122 C-27.92147913 4.50217301 -27.92147913 4.50217301 -30.58043289 4.50683784 C-33.32414457 4.25909554 -34.96778898 3.67305949 -37.3059082 2.26074219 C-24.85106886 0.23549005 -12.59881151 -0.0492252 0 0 Z " fill="#7A4CC6" transform="translate(216.305908203125,102.7392578125)"/>
<path d="M0 0 C8.46463492 -0.4489706 15.8848832 0.82667983 24.0625 2.9375 C24.62549805 3.07639648 24.62549805 3.07639648 27.47460938 3.77929688 C35.6278699 5.81393495 35.6278699 5.81393495 38 7 C38 7.66 38 8.32 38 9 C23.44579237 9.5131748 12.61994862 8.85241248 0 1 C0 0.67 0 0.34 0 0 Z " fill="#FFC10E" transform="translate(227,300)"/>
<path d="M0 0 C0.99 0.33 1.98 0.66 3 1 C2.01 1.825 2.01 1.825 -3 6 C-1.125 1.125 -1.125 1.125 0 0 Z " fill="#5B0AED" transform="translate(82,110)"/>
</svg>
