<?xml version="1.0" encoding="UTF-8"?>
<!-- Generator: visioncortex VTracer 0.6.12 -->
<svg version="1.1" xmlns="http://www.w3.org/2000/svg" width="512" height="512">
<path d="M0 0 C1.95752555 -0.00463513 3.91505022 -0.00966071 5.87257385 -0.01504517 C11.17074308 -0.02810806 16.46889966 -0.03460265 21.76708245 -0.03905582 C25.08700937 -0.04199768 28.40693293 -0.04610463 31.72685814 -0.05056 C42.14235616 -0.06422156 52.55784638 -0.07389362 62.97335273 -0.07776189 C74.94312947 -0.08223334 86.91279148 -0.09974446 98.88253337 -0.12876248 C108.16876366 -0.15048281 117.45496193 -0.16047173 126.74121732 -0.16180301 C132.27111467 -0.16284406 137.800904 -0.16860046 143.33077431 -0.18662262 C148.5437762 -0.20328236 153.75659095 -0.20517341 158.96961021 -0.19648361 C160.86523317 -0.19572259 162.76086695 -0.19992962 164.65646362 -0.20994186 C188.89911747 -0.33030414 211.89412643 3.04860149 233.6550293 14.16113281 C234.73397461 14.69609375 235.81291992 15.23105469 236.92456055 15.78222656 C268.1050169 31.7978109 290.95849644 60.40400111 301.70751953 93.50219727 C306.93590189 110.41712137 307.80645064 126.9562837 307.81616211 144.50610352 C307.82079724 146.46362907 307.82582282 148.42115373 307.83120728 150.37867737 C307.84427017 155.67684659 307.85076476 160.97500317 307.85521793 166.27318597 C307.85815979 169.59311289 307.86226674 172.91303644 307.86672211 176.23296165 C307.88038367 186.64845967 307.89005573 197.06394989 307.893924 207.47945625 C307.89839545 219.44923298 307.91590657 231.418895 307.94492459 243.38863689 C307.96664491 252.67486718 307.97663384 261.96106545 307.97796512 271.24732083 C307.97900616 276.77721818 307.98476257 282.30700752 308.00278473 287.83687782 C308.01944447 293.04987971 308.02133552 298.26269446 308.01264572 303.47571373 C308.0118847 305.37133669 308.01609172 307.26697047 308.02610397 309.16256714 C308.14650262 333.4125472 304.75899785 356.39079052 293.6550293 378.16113281 C293.13166992 379.22847656 292.60831055 380.29582031 292.0690918 381.39550781 C276.46156161 412.02436987 248.11113234 434.9162066 215.78393555 445.89550781 C198.10412289 451.46226745 180.68996404 452.31206744 162.31665039 452.30639648 C160.37219173 452.30939305 158.42773367 452.31279672 156.48327637 452.3165741 C151.2267524 452.32536863 145.97024474 452.32775032 140.71371412 452.32838988 C137.42145209 452.32910308 134.12919415 452.33124252 130.83693314 452.3338871 C119.32789092 452.34312618 107.81886025 452.34722388 96.30981445 452.34643555 C85.6200094 452.34583546 74.93025493 452.35637739 64.24046266 452.37217921 C55.0315564 452.38530174 45.82266658 452.39061746 36.61375105 452.38998014 C31.12761823 452.38972649 25.64153038 452.39250334 20.15540695 452.40315819 C14.98921711 452.41291859 9.8231145 452.41286454 4.65692139 452.40564156 C2.77413428 452.40460544 0.8913415 452.4068998 -0.991436 452.41300201 C-15.76392994 452.45773227 -30.58243342 451.95418055 -44.9074707 447.97363281 C-45.30051392 447.86647949 -45.30051392 447.86647949 -47.28955078 447.32421875 C-55.33725872 445.03066659 -62.86877452 441.89829568 -70.3449707 438.16113281 C-71.00062012 437.83661133 -71.65626953 437.51208984 -72.33178711 437.17773438 C-97.11927367 424.68421224 -116.61880995 404.70159029 -129.3449707 380.16113281 C-129.65563477 379.56574707 -129.96629883 378.97036133 -130.28637695 378.35693359 C-141.9153394 355.72546431 -144.82318834 331.75029914 -144.7331543 306.56738281 C-144.73723439 304.60823273 -144.74258422 302.64908495 -144.74908447 300.68994141 C-144.76259317 295.43781736 -144.7575285 290.18587295 -144.74794722 284.93374634 C-144.74026418 279.39430312 -144.7474199 273.85487361 -144.75210571 268.31542969 C-144.75753841 259.01917812 -144.75043739 249.72299843 -144.73608398 240.42675781 C-144.71976235 229.73337797 -144.72505262 219.04016982 -144.7415632 208.34679413 C-144.7552494 199.10703835 -144.75706311 189.86733376 -144.74924719 180.62757111 C-144.74460963 175.13474216 -144.74383627 169.64199347 -144.75385666 164.14916992 C-144.76262881 158.98114121 -144.75632085 153.8133303 -144.73917389 148.64532471 C-144.73526303 146.76743936 -144.73624809 144.88953514 -144.74296188 143.01165771 C-144.82134634 118.8265224 -141.43060239 95.86935997 -130.3449707 74.16113281 C-130.07749023 73.62166016 -130.07749023 73.62166016 -128.72387695 70.89160156 C-112.70829261 39.71114521 -84.1021024 16.85766567 -51.00390625 6.10864258 C-34.08898214 0.88026022 -17.54981982 0.00971147 0 0 Z M189.2800293 90.59863281 C185.46121867 95.50704973 184.16460289 99.61326082 184.3503418 105.82519531 C185.14721062 111.93452292 187.90244629 115.87425922 192.7175293 119.59863281 C197.86258044 123.22288189 202.48461375 123.8623164 208.6550293 123.16113281 C215.84587132 120.99866945 220.47833281 116.1187628 224.0300293 109.66113281 C225.58241527 103.45158891 224.89742159 97.65488719 221.6550293 92.16113281 C216.63484028 86.50926439 211.83251514 83.62529791 204.2800293 82.78613281 C197.97563396 83.43831164 193.50927729 85.88574818 189.2800293 90.59863281 Z M9.6550293 140.16113281 C8.82487305 140.85980469 7.9947168 141.55847656 7.1394043 142.27832031 C-13.71842512 160.25700149 -27.43010646 186.74963169 -30.3449707 214.16113281 C-32.06617411 244.82158361 -25.0582418 274.69134275 -4.3449707 298.16113281 C-3.64629883 298.99128906 -2.94762695 299.82144531 -2.2277832 300.67675781 C15.75089798 321.53458723 42.24352817 335.24626857 69.6550293 338.16113281 C100.31548009 339.88233622 130.18523923 332.87440391 153.6550293 312.16113281 C154.48518555 311.46246094 155.3153418 310.76378906 156.1706543 310.04394531 C177.02848371 292.06526413 190.74016505 265.57263394 193.6550293 238.16113281 C195.3762327 207.50068202 188.3683004 177.63092288 167.6550293 154.16113281 C166.95635742 153.33097656 166.25768555 152.50082031 165.5378418 151.64550781 C147.55916062 130.7876784 121.06653042 117.07599706 93.6550293 114.16113281 C62.9945785 112.43992941 33.12481936 119.44786171 9.6550293 140.16113281 Z " fill="#000000" transform="translate(174.344970703125,29.8388671875)"/>
<path d="M0 0 C0.67289063 0.58136719 1.34578125 1.16273438 2.0390625 1.76171875 C2.77382813 2.35339844 3.50859375 2.94507813 4.265625 3.5546875 C22.36008344 18.63340287 32.23782264 41.35135887 34.76171875 64.37890625 C36.69967435 88.0165055 30.11797441 112.34202446 14.80078125 130.72265625 C14.51009766 131.05910156 14.51009766 131.05910156 13.0390625 132.76171875 C12.74322266 133.12910156 12.74322266 133.12910156 11.24609375 134.98828125 C-3.83262162 153.08273969 -26.55057762 162.96047889 -49.578125 165.484375 C-73.21572425 167.4223306 -97.54124321 160.84063066 -115.921875 145.5234375 C-116.25832031 145.23275391 -116.25832031 145.23275391 -117.9609375 143.76171875 C-118.32832031 143.46587891 -118.32832031 143.46587891 -120.1875 141.96875 C-137.94157331 127.17368891 -147.99590913 104.68633858 -150.68359375 82.05859375 C-152.69934401 58.09671746 -146.27302789 33.46122721 -130.72265625 14.80078125 C-130.14128906 14.12789062 -129.55992187 13.455 -128.9609375 12.76171875 C-128.66509766 12.39433594 -128.66509766 12.39433594 -127.16796875 10.53515625 C-112.08925338 -7.55930219 -89.37129738 -17.43704139 -66.34375 -19.9609375 C-42.70615075 -21.8988931 -18.38063179 -15.31719316 0 0 Z " fill="#000000" transform="translate(313.9609375,183.23828125)"/>
</svg>
