<?xml version="1.0" encoding="UTF-8"?>
<!-- Generator: visioncortex VTracer 0.6.12 -->
<svg version="1.1" xmlns="http://www.w3.org/2000/svg" width="512" height="512">
<path d="M0 0 C1.94534434 -0.00271767 3.89068765 -0.00628292 5.83602905 -0.01062012 C11.0674281 -0.01965415 16.2987473 -0.01623737 21.53014755 -0.00986195 C27.0367833 -0.00475498 32.54341277 -0.00950633 38.05004883 -0.01263428 C47.29281831 -0.01626035 56.53555571 -0.01151066 65.77832031 -0.00195312 C76.4239487 0.00892877 87.06950045 0.00540223 97.71512699 -0.00560594 C106.89868094 -0.0147177 116.08221199 -0.01594515 125.265769 -0.0107286 C130.73168631 -0.0076302 136.19756774 -0.00714036 141.66348267 -0.01380157 C146.80513678 -0.01963133 151.94669325 -0.01547652 157.08833694 -0.00401306 C158.96145085 -0.0013963 160.83457314 -0.00207961 162.70768356 -0.00653839 C177.45116357 -0.03836515 192.2464957 0.47632406 206.54296875 4.44628906 C206.93419922 4.55235474 206.93419922 4.55235474 208.9140625 5.08911133 C216.96494756 7.37459215 224.47121887 10.59453803 231.98046875 14.25878906 C232.95242188 14.73058594 233.924375 15.20238281 234.92578125 15.68847656 C265.7586835 31.59933283 289.41868372 60.40609507 300.11857283 93.32279205 C305.39047962 110.41122951 306.43216593 128.08750991 306.36865234 145.85253906 C306.37273244 147.81168915 306.37808227 149.77083692 306.38458252 151.72998047 C306.39809122 156.98210452 306.39302655 162.23404893 306.38344526 167.48617554 C306.37576223 173.02561875 306.38291795 178.56504826 306.38760376 184.10449219 C306.39303645 193.40074376 306.38593543 202.69692345 306.37158203 211.99316406 C306.35526039 222.68654391 306.36055067 233.37975205 306.37706125 244.07312775 C306.39074745 253.31288352 306.39256115 262.55258811 306.38474524 271.79235077 C306.38010768 277.28517972 306.37933432 282.77792841 306.38935471 288.27075195 C306.39812686 293.43878067 306.39181889 298.60659158 306.37467194 303.77459717 C306.37076108 305.65248252 306.37174614 307.53038674 306.37845993 309.40826416 C306.50803578 349.38825028 294.70833169 385.07423246 266.33203125 414.04003906 C236.84514469 442.99017079 199.71506497 452.79281096 159.47265625 452.64697266 C157.53468534 452.6510539 155.59671676 452.65640435 153.65875244 452.66290283 C148.46860117 452.67639796 143.27863191 452.67135269 138.08847809 452.66176558 C132.61090162 452.65407528 127.13333891 452.66124021 121.65576172 452.66592407 C112.46383925 452.67135471 103.27198951 452.66426123 94.08007812 452.64990234 C83.51109677 452.63358111 72.94228915 452.63887153 62.373312 452.65538156 C53.2362795 452.66907371 44.09929875 452.67087861 34.96225929 452.66306555 C29.53257025 452.65843121 24.10296237 452.65764545 18.67327881 452.66767502 C13.56432875 452.67645601 8.45559878 452.67012377 3.34667206 452.65299225 C1.49178174 452.64908597 -0.3631277 452.65005816 -2.21800995 452.65678024 C-42.60547507 452.78944741 -78.50626588 441.30867095 -107.80078125 412.61035156 C-136.45640902 383.42342925 -146.55026211 346.53613593 -146.40771484 306.66503906 C-146.41179494 304.70588898 -146.41714477 302.7467412 -146.42364502 300.78759766 C-146.43715372 295.53547361 -146.43208905 290.2835292 -146.42250776 285.03140259 C-146.41482473 279.49195937 -146.42198045 273.95252986 -146.42666626 268.41308594 C-146.43209895 259.11683437 -146.42499793 249.82065468 -146.41064453 240.52441406 C-146.39432289 229.83103422 -146.39961317 219.13782607 -146.41612375 208.44445038 C-146.42980995 199.2046946 -146.43162365 189.96499001 -146.42380774 180.72522736 C-146.41917018 175.23239841 -146.41839682 169.73964972 -146.42841721 164.24682617 C-146.43718936 159.07879746 -146.43088139 153.91098655 -146.41373444 148.74298096 C-146.40982358 146.86509561 -146.41080864 144.98719139 -146.41752243 143.10931396 C-146.54904425 102.52890747 -134.3584334 67.11421568 -105.57226562 37.78417969 C-89.39089233 21.91613865 -68.41638224 10.3896985 -46.58203125 4.44628906 C-46.2312854 4.34884399 -46.2312854 4.34884399 -44.45629883 3.85571289 C-29.89395413 0.16015757 -14.92390694 -0.03552507 0 0 Z M-50.64453125 28.44628906 C-51.03987061 28.59614258 -51.03987061 28.59614258 -53.04052734 29.35449219 C-64.05027212 33.67029434 -74.02668195 39.54594386 -83.01953125 47.25878906 C-83.8290625 47.94714844 -84.63859375 48.63550781 -85.47265625 49.34472656 C-106.79495292 67.98538469 -120.61226303 92.96662971 -124.01953125 121.25878906 C-124.15597527 124.16170531 -124.16317728 127.05955011 -124.15997314 129.96531677 C-124.16294427 130.81755469 -124.16591539 131.66979261 -124.16897655 132.54785591 C-124.17761704 135.39088213 -124.17916786 138.23386601 -124.18066406 141.0769043 C-124.18529566 143.12091664 -124.19032078 145.16492811 -124.19570923 147.2089386 C-124.20880536 152.75487574 -124.21527316 158.30080079 -124.21971989 163.84675097 C-124.22265611 167.3172139 -124.22676202 170.78767356 -124.23122406 174.25813484 C-124.24489385 185.13228382 -124.25456212 196.0064253 -124.25842595 206.88058227 C-124.26290061 219.40284189 -124.28042322 231.92499202 -124.30942655 244.44721836 C-124.33110286 254.14519611 -124.34113346 263.84314321 -124.34246707 273.54114491 C-124.34351116 279.32411322 -124.34933395 285.10697854 -124.36728668 290.88992119 C-124.38386968 296.33760732 -124.3858736 301.78511419 -124.37714767 307.2328167 C-124.37638265 309.22084028 -124.3806485 311.20887392 -124.39060593 313.19687271 C-124.46185508 328.32154578 -123.36031217 342.61947904 -117.83203125 356.88378906 C-117.52942383 357.67809326 -117.22681641 358.47239746 -116.91503906 359.29077148 C-106.03366456 386.94806241 -84.34796743 409.43953351 -57.14794922 421.37548828 C-53.40062738 422.93063974 -49.60811522 424.32147698 -45.76953125 425.63378906 C-45.0736792 425.87266846 -44.37782715 426.11154785 -43.66088867 426.35766602 C-30.792622 430.50209087 -18.00158716 430.55233157 -4.63378906 430.53344727 C-2.58903824 430.53780121 -0.54428904 430.54298663 1.50045776 430.54893494 C7.0254572 430.56226399 12.55038798 430.56291032 18.07540035 430.56037164 C22.70218107 430.55929759 27.32894813 430.56419645 31.95572591 430.56897706 C42.87999965 430.58005159 53.804239 430.58052149 64.72851562 430.57446289 C75.96427301 430.56842692 87.19990504 430.58072935 98.43564105 430.60203296 C108.11249419 430.61970007 117.78930762 430.6256422 127.46617627 430.62239522 C133.23229462 430.62059006 138.99832357 430.62314133 144.76442719 430.63710976 C150.19167146 430.64976658 155.61872169 430.6476703 161.04596329 430.63469887 C163.0259241 430.63235039 165.00589892 430.63500489 166.98584366 430.64332199 C182.08251073 430.70211348 196.36848752 429.58897843 210.60546875 424.07128906 C211.00262085 423.91998535 211.00262085 423.91998535 213.01245117 423.15429688 C240.6697421 412.27292237 263.1612132 390.58722524 275.09716797 363.38720703 C276.65231943 359.63988519 278.04315667 355.84737303 279.35546875 352.00878906 C279.59434814 351.31293701 279.83322754 350.61708496 280.0793457 349.90014648 C284.22377055 337.03187982 284.27401125 324.24084497 284.25512695 310.87304688 C284.2594809 308.82829605 284.26466631 306.78354686 284.27061462 304.73880005 C284.28394368 299.21380061 284.28459001 293.68886983 284.28205132 288.16385746 C284.28097728 283.53707675 284.28587614 278.91030968 284.29065675 274.2835319 C284.30173128 263.35925817 284.30220118 252.43501882 284.29614258 241.51074219 C284.29010661 230.2749848 284.30240903 219.03935277 284.32371265 207.80361676 C284.34137976 198.12676362 284.34732189 188.4499502 284.3440749 178.77308154 C284.34226974 173.00696319 284.34482102 167.24093424 284.35878944 161.47483063 C284.37144626 156.04758635 284.36934999 150.62053612 284.35637856 145.19329453 C284.35403008 143.21333371 284.35668458 141.2333589 284.36500168 139.25341415 C284.42379317 124.15674708 283.31065812 109.87077029 277.79296875 95.63378906 C277.64166504 95.23663696 277.64166504 95.23663696 276.87597656 93.22680664 C266.13640318 65.92993295 244.65636549 43.46487953 217.98046875 31.25878906 C214.43563491 29.82376713 210.85423036 28.54208168 207.23046875 27.32128906 C206.39201416 27.03882324 205.55355957 26.75635742 204.68969727 26.46533203 C191.37567026 22.2344157 178.42333964 21.96459558 164.59472656 21.98413086 C162.54997574 21.97977691 160.50522654 21.9745915 158.46047974 21.96864319 C152.9354803 21.95531414 147.41054952 21.9546678 141.88553715 21.95720649 C137.25875643 21.95828054 132.63198937 21.95338167 128.00521159 21.94860107 C117.08093785 21.93752653 106.1566985 21.93705663 95.23242188 21.94311523 C83.99666449 21.94915121 72.76103246 21.93684878 61.52529645 21.91554517 C51.84844331 21.89787805 42.17162988 21.89193592 32.49476123 21.89518291 C26.72864288 21.89698807 20.96261393 21.89443679 15.19651031 21.88046837 C9.76926604 21.86781155 4.34221581 21.86990782 -1.08502579 21.88287926 C-3.0649866 21.88522773 -5.04496142 21.88257323 -7.02490616 21.87425613 C-22.12309043 21.81545873 -36.40545634 22.93108683 -50.64453125 28.44628906 Z " fill="#000000" transform="translate(176.01953125,29.7412109375)"/>
<path d="M0 0 C1.79555216 1.55524518 3.56507951 3.14086459 5.3125 4.75 C5.57345459 4.98976562 5.57345459 4.98976562 6.89404297 6.203125 C28.54027262 26.31906971 42.25906587 53.73162981 43.6328125 83.46484375 C44.46738734 113.38858528 35.85849995 142.43832818 15.3125 164.75 C14.83296875 165.27190918 14.3534375 165.79381836 13.859375 166.33154297 C-6.25656971 187.97777262 -33.66912981 201.69656587 -63.40234375 203.0703125 C-93.32608528 203.90488734 -122.37582818 195.29599995 -144.6875 174.75 C-145.20940918 174.27046875 -145.73131836 173.7909375 -146.26904297 173.296875 C-167.91527262 153.18093029 -181.63406587 125.76837019 -183.0078125 96.03515625 C-183.84238734 66.11141472 -175.23349995 37.06167182 -154.6875 14.75 C-154.20796875 14.22809082 -153.7284375 13.70618164 -153.234375 13.16845703 C-113.73917837 -29.33126687 -46.1551634 -36.45588993 0 0 Z M-138.125 28.25 C-153.84795803 46.39187465 -163.39679653 70.52890445 -161.6875 94.75 C-159.42198954 120.59596435 -148.19982337 143.45398726 -128.57421875 160.50390625 C-123.55422115 164.40985838 -118.22443502 167.63591044 -112.6875 170.75 C-112.29498047 170.98589844 -112.29498047 170.98589844 -110.30859375 172.1796875 C-90.37593508 183.34197636 -65.08177886 184.01721274 -43.47070312 178.14794922 C-19.998435 170.90107643 -0.07593535 154.24619023 11.78515625 132.8125 C23.24495382 109.83428696 25.31477893 85.14581025 17.47509766 60.72558594 C13.63400911 49.44563479 8.20413992 39.70968141 0.3125 30.75 C-0.02007812 30.34007812 -0.02007812 30.34007812 -1.703125 28.265625 C-17.43264914 9.50671102 -40.72195162 0.06551192 -64.6875 -2.25 C-92.44012692 -4.24420074 -119.35974491 8.37756647 -138.125 28.25 Z " fill="#000000" transform="translate(325.6875,166.25)"/>
<path d="M0 0 C4.57247349 3.1234502 7.70978553 6.59852548 9.6875 11.8125 C10.61785304 18.3249713 10.45357001 24.2707332 7 30 C1.84975917 35.67418308 -2.98438874 38.95830179 -10.6875 39.4375 C-16.57934819 39.28800534 -21.26948156 37.50595161 -26 34 C-30.75086848 28.39920551 -32.37915393 22.89162506 -32.2734375 15.62890625 C-31.65930072 9.72441977 -28.93850675 5.58462704 -24.625 1.625 C-16.91235753 -4.40101365 -8.45413391 -4.54018303 0 0 Z " fill="#000000" transform="translate(390,115)"/>
</svg>
