<?xml version="1.0" encoding="UTF-8"?>
<!-- Generator: visioncortex VTracer 0.6.12 -->
<svg version="1.1" xmlns="http://www.w3.org/2000/svg" width="512" height="512">
<path d="M0 0 C0.40456842 -0.00183834 0.40456842 -0.00183834 2.45192981 -0.01114148 C5.15519525 -0.02212793 7.85842217 -0.02601366 10.56170654 -0.02983093 C12.50380575 -0.03609968 14.44590377 -0.04274685 16.38800049 -0.04974365 C22.7619748 -0.07074794 29.13594924 -0.08114676 35.50994873 -0.09111023 C37.71049766 -0.09515998 39.91104647 -0.09927696 42.11159515 -0.10346031 C52.45822075 -0.12250872 62.80483925 -0.13673713 73.15147901 -0.14507228 C85.05966968 -0.15482565 96.96767354 -0.18109698 108.87579846 -0.22157317 C118.10075442 -0.2518427 127.32565719 -0.26655163 136.5506618 -0.26985329 C142.04982221 -0.27219257 147.54878298 -0.28100507 153.04788971 -0.30631447 C158.23214173 -0.32978866 163.41606543 -0.33375154 168.60035706 -0.32355309 C170.48917999 -0.32306219 172.37802016 -0.3292487 174.2667923 -0.34310913 C204.76256235 -0.55412724 231.8148369 9.79519549 254.05682373 31.02217102 C275.88814138 53.95422738 284.29399214 80.95841454 284.21087646 111.92378235 C284.21659222 113.8672118 284.22356109 115.81063791 284.23167419 117.75405884 C284.24948897 122.98979854 284.2484592 128.22536958 284.24273181 133.46113038 C284.23962252 137.85177344 284.24575174 142.2423849 284.25177056 146.63302344 C284.26577626 157.00178016 284.26428793 167.37045442 284.25286865 177.73921204 C284.24139527 188.39166415 284.25545918 199.04386425 284.28226513 209.69628316 C284.30450709 218.88322069 284.31104033 228.0700796 284.30518872 237.25704211 C284.30183773 242.72586431 284.30410928 248.19452512 284.32143974 253.66332436 C284.33704263 258.81079238 284.33280719 263.95789065 284.3141346 269.10534477 C284.31048513 270.97965048 284.31344886 272.85398441 284.32402039 274.72826385 C284.47532229 303.80389298 275.3126152 329.36148184 255.80682373 351.14717102 C255.52645264 351.46299133 255.52645264 351.46299133 254.10760498 353.06123352 C237.59358282 370.57489383 211.8968251 383.48537647 187.67432022 384.34127617 C182.62722024 384.45336918 177.58003196 384.45230278 172.53192139 384.4535675 C170.59395024 384.46120045 168.6559821 384.46962988 166.71801758 384.47879028 C161.47775068 384.50063685 156.2375421 384.50952151 150.99723482 384.51461673 C147.71297687 384.51827358 144.42873387 384.52452062 141.14448166 384.53161812 C129.65675952 384.55608354 118.1690823 384.56915713 106.68133545 384.57270813 C96.02331534 384.57633569 85.36558454 384.60618278 74.70765269 384.64811271 C65.51905845 384.68297671 56.33055929 384.69825938 47.14189947 384.69895416 C41.67118552 384.69974184 36.20076639 384.70824302 30.73012161 384.73695183 C25.57363137 384.76340834 20.41767452 384.76518623 15.26114655 384.74929619 C13.38647915 384.74750308 11.51177909 384.75397444 9.63718033 384.7701149 C-21.77228662 385.02369261 -48.13497561 374.1782092 -70.93927002 352.54170227 C-92.54237459 330.32574367 -100.85556262 302.35699891 -100.71075439 272.02998352 C-100.71619101 270.08611023 -100.7233222 268.14224107 -100.73199463 266.19837952 C-100.75004808 260.97515782 -100.74323565 255.7522563 -100.73047829 250.52902985 C-100.72025644 245.0282005 -100.72976919 239.52739613 -100.73602295 234.02656555 C-100.74327286 224.79393154 -100.73378174 215.56142608 -100.71466064 206.32881165 C-100.69289713 195.69844064 -100.69995038 185.06837666 -100.72196627 174.43801308 C-100.74019633 165.26374522 -100.7426416 156.08956907 -100.73221159 146.91528893 C-100.72601827 141.45658216 -100.72502506 135.99801907 -100.73835754 130.5393219 C-100.75002689 125.40410955 -100.7416908 120.26928787 -100.71878052 115.13411713 C-100.71355201 113.26465245 -100.71490475 111.39515411 -100.72383118 109.52570343 C-100.86176243 77.66900162 -89.59413047 51.26244607 -67.54083252 28.39717102 C-49.82940171 11.35158347 -24.70555977 -0.00608574 0 0 Z " fill="#FE3A70" transform="translate(164.19317626953125,63.85282897949219)"/>
<path d="M0 0 C0.40456842 -0.00183834 0.40456842 -0.00183834 2.45192981 -0.01114148 C5.15519525 -0.02212793 7.85842217 -0.02601366 10.56170654 -0.02983093 C12.50380575 -0.03609968 14.44590377 -0.04274685 16.38800049 -0.04974365 C22.7619748 -0.07074794 29.13594924 -0.08114676 35.50994873 -0.09111023 C37.71049766 -0.09515998 39.91104647 -0.09927696 42.11159515 -0.10346031 C52.45822075 -0.12250872 62.80483925 -0.13673713 73.15147901 -0.14507228 C85.05966968 -0.15482565 96.96767354 -0.18109698 108.87579846 -0.22157317 C118.10075442 -0.2518427 127.32565719 -0.26655163 136.5506618 -0.26985329 C142.04982221 -0.27219257 147.54878298 -0.28100507 153.04788971 -0.30631447 C158.23214173 -0.32978866 163.41606543 -0.33375154 168.60035706 -0.32355309 C170.48917999 -0.32306219 172.37802016 -0.3292487 174.2667923 -0.34310913 C204.76256235 -0.55412724 231.8148369 9.79519549 254.05682373 31.02217102 C278.12185905 56.30056947 283.80682373 82.81968948 283.80682373 117.14717102 C157.08682373 117.14717102 30.36682373 117.14717102 -100.19317627 117.14717102 C-100.19317627 80.37980015 -92.83656144 54.62425962 -67.54083252 28.39717102 C-49.82940171 11.35158347 -24.70555977 -0.00608574 0 0 Z " fill="#FEFDFE" transform="translate(164.19317626953125,63.85282897949219)"/>
<path d="M0 0 C1 1 1 1 1.12469864 2.78737736 C1.12467787 3.17993576 1.12467787 3.17993576 1.12457275 5.16651917 C1.12713577 6.06506119 1.12969879 6.96360321 1.13233948 7.88937378 C1.13023972 8.8830899 1.12813995 9.87680603 1.12597656 10.90063477 C1.12691063 11.42097542 1.12691063 11.42097542 1.13163757 14.05421448 C1.13565294 16.32359633 1.13771745 18.59298226 1.13809967 20.86236763 C1.1415037 25.68674574 1.16285596 30.51098767 1.18333054 35.33531857 C1.22139881 44.326509 1.25261834 53.31755779 1.25048828 62.30883789 C1.24970067 68.55418703 1.27309241 74.79904337 1.3123703 81.04426384 C1.32282941 83.4240084 1.32435505 85.80380985 1.31671906 88.18356514 C1.30708332 91.52078476 1.32831031 94.85651795 1.35644531 98.19360352 C1.34624863 99.17315002 1.33605194 100.15269653 1.32554626 101.16192627 C1.41421794 107.04428701 2.41661373 110.66897166 5.92887497 115.43459988 C7 117 7 117 7 119 C7.28875 119.144375 7.28875 119.144375 8.75 119.875 C10.11301596 120.55650798 11.46242847 121.26772175 12.78125 122.03125 C18.85163424 124.68169946 25.61337051 123.88863864 31.671875 121.6328125 C37.83758538 118.72891562 43.66862949 115.19741022 49.546875 111.76171875 C50.49240234 111.21225586 51.43792969 110.66279297 52.41210938 110.09667969 C54.28137142 109.00381107 56.14237619 107.89667557 57.99414062 106.77441406 C58.84685547 106.27006836 59.69957031 105.76572266 60.578125 105.24609375 C61.33512695 104.78904053 62.09212891 104.3319873 62.87207031 103.86108398 C65 103 65 103 67.14648438 103.16723633 C70.47073764 104.66078584 71.67575433 108.13281962 73.25 111.25 C73.63841064 112.00796875 74.02682129 112.7659375 74.42700195 113.546875 C85.71560048 136.14700238 93.25812565 161.08140588 93.0625 186.4375 C93.05798828 187.55060547 93.05347656 188.66371094 93.04882812 189.81054688 C93.03711193 192.54042101 93.02070699 195.27018174 93 198 C76.6736184 198.11751579 60.34737686 198.20531844 44.0206728 198.25906086 C36.43754637 198.28469291 28.85468477 198.31955071 21.27172852 198.37719727 C14.65184249 198.42749786 8.03214851 198.45939953 1.41207665 198.47044247 C-2.08372149 198.4768837 -5.57897092 198.49169515 -9.07459068 198.52865028 C-44.21763687 198.88532692 -71.81323162 190.99939475 -97.74609375 166.39453125 C-121.85561979 141.60104703 -127.67328016 111.81114118 -127.390625 78.4296875 C-127.38314804 75.80982906 -127.37746201 73.18996495 -127.37347412 70.57009888 C-127.36115821 64.42942942 -127.32849528 58.28905288 -127.28807616 52.14851105 C-127.24299842 45.14464103 -127.221282 38.14075526 -127.20129442 31.13677573 C-127.15974894 16.75770103 -127.08962467 2.37885463 -127 -12 C-123.96564033 -12.4879134 -120.93093811 -12.97349739 -117.89599609 -13.45776367 C-117.04287338 -13.5951873 -116.18975067 -13.73261093 -115.31077576 -13.87419891 C-77.47689005 -19.89526996 -35.1677393 -15.9046893 0 0 Z " fill="#FF6804" transform="translate(191,250)"/>
<path d="M0 0 C126.72 0 253.44 0 384 0 C384 201.28822496 384 201.28822496 360 229 C357.72766241 225.28947406 357.37184911 221.41243822 356.8125 217.1875 C347.40814277 153.64199385 319.23728143 96.27087397 276 49 C275.08911758 47.98502623 274.178991 46.96937374 273.26953125 45.953125 C268.75841905 40.93531293 264.23386716 36.07851295 259.046875 31.7421875 C257.58375865 30.49686328 256.16029774 29.20433807 254.765625 27.8828125 C245.86207201 19.44932287 236.04484434 12.02478983 226 5 C225.31447209 4.48107272 224.62894419 3.96214544 223.92264271 3.4274931 C219.88891563 1.45731811 216.44174301 1.57585137 212.00871277 1.60127258 C211.10197557 1.59462576 210.19523838 1.58797893 209.2610243 1.58113068 C206.22232336 1.56247628 203.18401534 1.56510764 200.14526367 1.56762695 C197.96720828 1.5586113 195.78915798 1.54828457 193.6111145 1.53674316 C187.69629663 1.50912407 181.7815749 1.49988194 175.86670089 1.49388909 C169.68602281 1.48451824 163.50541691 1.45831589 157.32478333 1.43388367 C145.61998693 1.39017954 133.91520451 1.36165658 122.21035129 1.33856028 C108.88517355 1.3117684 95.56007401 1.26761678 82.23494756 1.22227156 C54.82333764 1.1293692 27.41170499 1.05771404 0 1 C0 0.67 0 0.34 0 0 Z " fill="#DF37A5" transform="translate(64,181)"/>
<path d="M0 0 C3.60893452 1.81965018 7.10749493 3.81240127 10.60253906 5.84057617 C11.46218262 6.33396484 12.32182617 6.82735352 13.20751953 7.33569336 C18.17492966 10.19250222 23.12063156 13.08448622 28.05566406 15.99682617 C34.281356 19.66520122 40.54929995 23.25634256 46.82937622 26.83032227 C48.59806324 27.83802609 50.36511175 28.84854044 52.1315918 29.86010742 C57.89569116 33.16024864 63.66940672 36.44106503 69.46582031 39.68432617 C71.61578374 40.90268126 73.76553333 42.12141378 75.91503906 43.34057617 C76.89279297 43.8794043 77.87054688 44.41823242 78.87792969 44.97338867 C85.83796106 48.95054946 91.45976868 53.46187148 95.04003906 60.77807617 C96.2387345 67.30430687 96.46507434 72.94566896 93.01220703 78.82080078 C87.89435138 86.1536757 79.78770182 90.27242859 72.10253906 94.40307617 C69.85801205 95.63425968 67.61454758 96.86738196 65.37207031 98.10229492 C64.23979004 98.72410645 63.10750977 99.34591797 61.94091797 99.98657227 C56.84394504 102.81722989 51.8157774 105.76082356 46.79003906 108.71557617 C38.43931475 113.60912291 30.07437478 118.4764475 21.67861938 123.29229736 C19.91519262 124.3046093 18.15372595 125.32033334 16.39233398 126.33618164 C-7.04912382 139.75923343 -7.04912382 139.75923343 -18.39746094 137.84057617 C-24.76419333 135.7461192 -27.8774733 131.26033275 -31.13529205 125.63949585 C-33.21408986 121.02966259 -33.23590375 116.75943055 -33.17382812 111.76635742 C-33.18434204 110.70806732 -33.19485596 109.64977722 -33.20568848 108.55941772 C-33.23191769 105.09002178 -33.21467653 101.62248806 -33.19433594 98.15307617 C-33.1983824 95.7250941 -33.20420943 93.29711441 -33.21173096 90.86914062 C-33.22055441 85.79199983 -33.20779117 80.7154944 -33.1796875 75.63842773 C-33.14550363 69.14857911 -33.16519858 62.66021948 -33.20112228 56.17042542 C-33.2228612 51.16016534 -33.21587665 46.15025506 -33.20035553 41.13998413 C-33.19636891 38.74791281 -33.20120875 36.35580916 -33.21523285 33.96377563 C-33.23056808 30.61326656 -33.20711307 27.26512854 -33.17382812 23.91479492 C-33.18597351 22.93787689 -33.1981189 21.96095886 -33.21063232 20.95443726 C-33.07723871 13.66264992 -30.86775544 8.59806079 -26.39746094 2.84057617 C-18.96267114 -4.29625066 -9.08542275 -4.18597281 0 0 Z " fill="#FFFEFE" transform="translate(224.3974609375,236.159423828125)"/>
<path d="M0 0 C1.23105469 0.24492187 2.46210938 0.48984375 3.73046875 0.7421875 C30.07405311 6.33522274 53.13718249 23.78863066 68 46 C80.15125343 65.01213296 84.24275634 84.77430812 84 107 C76.80061068 107.11755258 69.60143893 107.20553226 62.40127277 107.25906086 C59.05519855 107.28479574 55.71029713 107.32236852 52.36450195 107.37719727 C16.98800465 107.94168052 -10.6396761 100.16406264 -36.74609375 75.39453125 C-52.71274283 58.97492759 -66.06625666 34.41183028 -66.1015625 10.96875 C-66.06804687 9.9890625 -66.03453125 9.009375 -66 8 C-44.98051927 -1.10521285 -22.53620935 -4.98259266 0 0 Z " fill="#FF7401" transform="translate(130,341)"/>
<path d="M0 0 C9.55393216 -0.20965437 19.10705821 -0.36900455 28.66279888 -0.46630955 C33.10130952 -0.51304121 37.53823285 -0.57629287 41.97583008 -0.67895508 C46.26835742 -0.77762584 50.55937045 -0.8307377 54.85294533 -0.85389519 C56.48081081 -0.87037036 58.10860469 -0.90254073 59.73581505 -0.95157051 C71.99774635 -1.30593141 78.58452313 0.97212698 88 9 C89.28580501 9.96230937 90.5764321 10.91826525 91.875 11.86328125 C99.39147459 17.75431821 106.47515402 23.95307415 113.41210938 30.51367188 C115.00280727 32.00262772 116.61361641 33.46574002 118.234375 34.921875 C123.20723553 39.3926274 128.01421451 43.86994323 132.31640625 49.0078125 C134.18511177 51.21904177 136.15234194 53.31858701 138.125 55.4375 C164.91863182 85.23347427 184.65445162 121.3966036 198 159 C198.13116211 159.35819824 198.13116211 159.35819824 198.79492188 161.17089844 C203.00332355 172.76313213 205.65861527 184.72848453 208.3125 196.75 C208.48966553 197.53914795 208.66683105 198.3282959 208.84936523 199.14135742 C210.63292696 207.141193 212.24085849 215.13438993 212.9921875 223.3046875 C213.04624756 223.88726318 213.04624756 223.88726318 213.31982422 226.83544922 C212.79772613 232.00143048 209.85671322 234.49581628 206.01953125 237.7265625 C205.52130859 238.10167969 205.52130859 238.10167969 203 240 C202.01386719 240.79148437 201.02773438 241.58296875 200.01171875 242.3984375 C183.87250831 255 183.87250831 255 179 255 C178.98710937 254.38705078 178.98710937 254.38705078 178.921875 251.28515625 C177.1313694 190.47383718 154.08091721 130.57688458 115 84 C114.58347168 83.4946875 114.16694336 82.989375 113.73779297 82.46875 C102.68058167 69.06894267 90.74417295 56.66855383 77 46 C75.91127961 45.12292873 74.82411777 44.24392032 73.73828125 43.36328125 C52.82982025 26.49961181 29.78729891 13.78285729 5.21044922 3.04638672 C3 2 3 2 0 0 Z " fill="#FA3592" transform="translate(210,182)"/>
<path d="M0 0 C1.71987206 1.71987206 1.11974788 3.90877029 1.12442017 6.20132446 C1.12082489 6.94578827 1.11722961 7.69025208 1.11352539 8.45727539 C1.11367142 9.23770706 1.11381744 10.01813873 1.1139679 10.82221985 C1.11326858 13.4140598 1.10547536 16.00582878 1.09765625 18.59765625 C1.09579213 20.3898464 1.0943682 22.18203706 1.09336853 23.97422791 C1.08954284 28.70070797 1.07971212 33.42715752 1.06866455 38.15362549 C1.05845153 42.9728555 1.05387115 47.79209042 1.04882812 52.61132812 C1.03808989 62.07423219 1.02101286 71.53711356 1 81 C0.18305664 80.52088165 -0.63388672 80.04176331 -1.47558594 79.54812622 C-2.55098633 78.91881195 -3.62638672 78.28949768 -4.734375 77.64111328 C-5.79881836 77.01761993 -6.86326172 76.39412659 -7.95996094 75.7517395 C-13.55857873 72.52568887 -19.32727889 69.67998657 -25.15136719 66.88720703 C-26.7445491 66.12259754 -28.33008342 65.34209011 -29.9140625 64.55859375 C-36.4212473 61.56753907 -43.11113294 59.85920953 -50.0625 58.25 C-50.97273926 58.03899658 -51.88297852 57.82799316 -52.82080078 57.6105957 C-75.15880366 52.71423727 -99.13163207 53.77309121 -121.0234375 60.1953125 C-124 61 -124 61 -127 61 C-127 36.91 -127 12.82 -127 -12 C-84.51815187 -18.70766023 -39.95285932 -18.06877061 0 0 Z " fill="#FE5917" transform="translate(191,250)"/>
<path d="M0 0 C13.01999244 -0.62836029 26.03633436 -1.10660662 39.06845093 -1.39892864 C45.12240271 -1.53932896 51.16592468 -1.7292018 57.21386719 -2.03686523 C97.50837465 -4.03379447 97.50837465 -4.03379447 105.69262695 2.527771 C111.50373574 8.3299062 114.27279316 15.7383679 116.73332214 23.44813538 C118.86363456 29.42169942 122.19767965 34.60091677 125.5 40 C126.72837086 42.12561407 127.95171392 44.25414887 129.16796875 46.38671875 C131.88551669 51.09822399 134.64158541 55.78476937 137.42578125 60.45703125 C137.79351654 61.07456268 138.16125183 61.69209412 138.54013062 62.32833862 C140.32084234 65.31656273 142.10629094 68.30182351 143.8984375 71.28320312 C144.21748047 71.81719727 144.21748047 71.81719727 145.83203125 74.51953125 C146.39639893 75.45901611 146.9607666 76.39850098 147.54223633 77.36645508 C149 80 149 80 151 85 C117.34 85 83.68 85 49 85 C43.72 75.76 38.44 66.52 33 57 C28.34340728 48.99392831 23.6795717 40.99258885 19 33 C16.47757184 28.68843045 13.95717763 24.37567738 11.4375 20.0625 C10.86563965 19.08571289 10.2937793 18.10892578 9.70458984 17.10253906 C9.16141113 16.17280273 8.61823242 15.24306641 8.05859375 14.28515625 C7.58736084 13.47957275 7.11612793 12.67398926 6.63061523 11.84399414 C5.19914357 9.34733096 3.7942862 6.83872521 2.39808655 4.32225037 C1.9487378 3.51260047 1.49938906 2.70295057 1.03642368 1.86876583 C0.69440387 1.25207311 0.35238405 0.63538038 0 0 Z " fill="#BE37B5" transform="translate(178,64)"/>
<path d="M0 0 C24.52226766 23.07256761 34.48210724 73.95409214 37 106 C37 114.91 37 123.82 37 133 C13.9 133 -9.2 133 -33 133 C-33.165 129.04 -33.165 129.04 -34 109 C-34.5839431 104.63007867 -35.17284854 100.5715293 -36.125 96.3125 C-36.34381836 95.28688965 -36.56263672 94.2612793 -36.78808594 93.20458984 C-40.72012072 75.5486084 -46.78357152 50.21642848 -60 37 C-59.66585083 36.8141333 -59.66585083 36.8141333 -57.97485352 35.87353516 C-45.18981399 28.75550251 -32.41117915 21.63674375 -19.859375 14.11279297 C-17.99381604 12.99629904 -16.1220219 11.89077003 -14.25 10.78515625 C-13.08286666 10.08671675 -11.9161747 9.38753896 -10.75 8.6875 C-9.75484375 8.09324219 -8.7596875 7.49898438 -7.734375 6.88671875 C-4.79650358 4.85958747 -2.44482823 2.59205328 0 0 Z " fill="#FE3F43" transform="translate(317,315)"/>
<path d="M0 0 C34.98 0 69.96 0 106 0 C106 55.77 106 111.54 106 169 C103.96894941 165.95342411 103.09214035 163.50236728 102.00390625 160.0234375 C101.61614014 158.80809326 101.22837402 157.59274902 100.82885742 156.34057617 C100.62328217 155.69462494 100.41770691 155.04867371 100.2059021 154.38314819 C85.28637819 107.81722152 60.75697482 66.91286912 29 30 C28.30519531 29.19046875 27.61039062 28.3809375 26.89453125 27.546875 C19.89439577 19.58540563 12.2882246 12.1973789 4.75830078 4.74243164 C3.16768155 3.16616818 1.58345761 1.58345761 0 0 Z " fill="#BE36B4" transform="translate(342,182)"/>
<path d="M0 0 C5.22455543 -0.10066581 10.44851777 -0.17229274 15.67382812 -0.21972656 C17.44248311 -0.2395488 19.21107529 -0.26661492 20.97949219 -0.30175781 C51.68036004 -0.89551749 78.86898669 9.51534246 101.25 30.875 C111.82288658 41.9809733 119.97137407 55.08644307 125.4375 69.375 C125.56104858 69.69581543 125.56104858 69.69581543 126.1862793 71.31933594 C127.85041028 75.91601574 128.4502616 80.18267898 129 85 C118.84926573 85.62955659 108.70324935 86.10710999 98.53688049 86.39892864 C93.8130902 86.53913715 89.10275156 86.72842533 84.38671875 87.03686523 C54.77789987 88.92297684 54.77789987 88.92297684 47.29851151 83.84475327 C40.76023499 77.93535916 37.50203673 69.63197269 34.4490509 61.55699158 C32.04835652 55.6639966 28.7291409 50.37461621 25.4375 44.9375 C24.20721603 42.80888517 22.98134488 40.67770804 21.76171875 38.54296875 C19.12768036 33.9568639 16.4835848 29.376767 13.83203125 24.80078125 C12.8033774 23.02399357 11.77485634 21.24712909 10.74636841 19.47024536 C9.77656579 17.79586625 8.80517521 16.12240719 7.83374023 14.44897461 C7.24407471 13.42940674 6.65440918 12.40983887 6.046875 11.359375 C5.52963867 10.46702148 5.01240234 9.57466797 4.47949219 8.65527344 C2.89503955 5.81162543 1.43548556 2.92128269 0 0 Z " fill="#8638C6" transform="translate(317,64)"/>
<path d="M0 0 C1.49536133 2.11938477 1.49536133 2.11938477 3.08203125 4.94140625 C3.37952271 5.46452393 3.37952271 5.46452393 4.88500977 8.11181641 C5.52108154 9.25054199 6.15715332 10.38926758 6.8125 11.5625 C7.48325383 12.74717136 8.15506211 13.93124626 8.82788086 15.11474609 C10.21325549 17.55244233 11.5949978 19.99214364 12.97460938 22.43310547 C15.95388411 27.69284549 19.0078864 32.90876687 22.0625 38.125 C23.20587367 40.08194683 24.34910223 42.03897845 25.4921875 43.99609375 C26.06163086 44.97046387 26.63107422 45.94483398 27.21777344 46.94873047 C29.10794634 50.18481006 30.99567324 53.4223067 32.8828125 56.66015625 C33.51952881 57.75247559 34.15624512 58.84479492 34.81225586 59.97021484 C36.03199984 62.06288327 37.25157287 64.15565135 38.47094727 66.24853516 C39.02065186 67.19132324 39.57035645 68.13411133 40.13671875 69.10546875 C40.61842529 69.93199951 41.10013184 70.75853027 41.59643555 71.61010742 C42.59816249 73.31577886 43.62905578 75.00445857 44.67895508 76.6809082 C46 79 46 79 46 81 C5.08 81 -35.84 81 -78 81 C-76.87315011 71.98520085 -76.87315011 71.98520085 -75.80078125 69.10546875 C-75.56439941 68.46569092 -75.32801758 67.82591309 -75.08447266 67.16674805 C-74.82972168 66.51359619 -74.5749707 65.86044434 -74.3125 65.1875 C-74.0448584 64.49245361 -73.7772168 63.79740723 -73.50146484 63.08129883 C-63.29145537 37.20338084 -42.88514628 15.65302869 -17.39355469 4.40673828 C-3.9711724 -1.32372413 -3.9711724 -1.32372413 0 0 Z " fill="#DF35A5" transform="translate(144,68)"/>
<path d="M0 0 C0.7661261 0.00376648 1.5322522 0.00753296 2.32159424 0.01141357 C63.94829163 0.3653231 123.17166855 22.48857315 168.75 64.25 C169.08 64.91 169.41 65.57 169.75 66.25 C165.72750099 65.66019076 162.87485877 64.3868916 159.3828125 62.328125 C158.34261963 61.72049316 157.30242676 61.11286133 156.23071289 60.48681641 C155.12332764 59.83116699 154.01594238 59.17551758 152.875 58.5 C151.1360567 57.48174299 149.3955344 56.46622023 147.65498352 55.45071411 C146.46577624 54.75660374 145.27704892 54.06167044 144.08879089 53.36593628 C138.02600272 49.81728183 131.92547645 46.33643487 125.8125 42.875 C124.8426416 42.32231445 123.8727832 41.76962891 122.87353516 41.20019531 C121.97812012 40.69327148 121.08270508 40.18634766 120.16015625 39.6640625 C119.37777588 39.2201416 118.59539551 38.7762207 117.78930664 38.31884766 C111.71151915 35.13333902 103.84598318 35.01459862 97.328125 36.98046875 C92.86321811 39.37732768 90.85268436 42.51112141 88.52734375 46.94921875 C88.00261475 47.94139404 87.47788574 48.93356934 86.93725586 49.95581055 C86.54546143 50.71289307 86.15366699 51.46997559 85.75 52.25 C85.12770508 52.03384033 84.50541016 51.81768066 83.86425781 51.5949707 C57.12738041 42.35970984 31.63608113 36.04470975 3.1875 36.0625 C1.97255859 36.06258057 0.75761719 36.06266113 -0.49414062 36.06274414 C-23.0258136 36.20408784 -23.0258136 36.20408784 -32.25 38.81640625 C-35.51071681 39.52331946 -38.91353475 39.25 -42.25 39.25 C-42.25 27.7 -42.25 16.15 -42.25 4.25 C-28.0257248 1.08904995 -14.5029116 -0.10914591 0 0 Z " fill="#FE3F43" transform="translate(106.25,198.75)"/>
<path d="M0 0 C1.0302832 -0.00563965 2.06056641 -0.0112793 3.12207031 -0.01708984 C20.99804241 0.15351552 36.99465974 7.77362698 49.9375 19.9375 C64.43591049 35.1363168 69.99939983 52.54765512 69.75 73.3125 C37.50168361 74.75156396 10.90787257 66.10672461 -13.25 44.3125 C-22.24684821 35.77637232 -34.9702067 22.18722057 -36.25 9.3125 C-23.97879242 2.58944478 -13.93382512 0.07351279 0 0 Z " fill="#FF8B00" transform="translate(109.25,374.6875)"/>
<path d="M0 0 C1 1 1 1 1.11352539 4.69360352 C1.11336624 6.33871292 1.10766988 7.98382731 1.09765625 9.62890625 C1.09694878 10.06102165 1.09694878 10.06102165 1.09336853 12.24778748 C1.08775239 15.01939292 1.07519719 17.7909188 1.0625 20.5625 C1.05748708 22.4368478 1.05292381 24.31119685 1.04882812 26.18554688 C1.03777772 30.79039544 1.0205023 35.39518421 1 40 C-0.19641113 39.44747559 -1.39282227 38.89495117 -2.62548828 38.32568359 C-42.64512264 19.91193347 -83.85948436 15.41321875 -127 25 C-127 12.79 -127 0.58 -127 -12 C-125.55625 -12.2371875 -125.55625 -12.2371875 -118.25 -13.4375 C-117.80865723 -13.51125854 -117.80865723 -13.51125854 -115.57519531 -13.88452148 C-77.71315026 -19.97683882 -35.18590122 -15.91290307 0 0 Z " fill="#FE4B2B" transform="translate(191,250)"/>
<path d="M0 0 C5.21434508 1.73811503 6.71083815 7.30865496 9.125 12 C9.7025 13.12196777 10.28 14.24393555 10.875 15.39990234 C19.90575248 33.37360832 25.90903547 51.88670721 29.55957031 71.64404297 C29.92011522 73.57267841 30.32493476 75.49298973 30.7421875 77.41015625 C31.79712865 82.77879512 32.08955661 88.10020274 32.11328125 93.5625 C32.12012939 94.64273438 32.12697754 95.72296875 32.1340332 96.8359375 C32.12179333 102.22412966 32.05526075 107.61207732 32 113 C20.45 113 8.9 113 -3 113 C-3.061875 109.555625 -3.12375 106.11125 -3.1875 102.5625 C-4.07057482 76.79874766 -10.71077791 36.28922209 -30 17 C-29.26885986 16.59160889 -28.53771973 16.18321777 -27.78442383 15.76245117 C-25.05376892 14.23670722 -22.32350786 12.71026146 -19.59350586 11.18334961 C-17.83802811 10.20177404 -16.08210323 9.22099827 -14.32617188 8.24023438 C-13.21435547 7.61826172 -12.10253906 6.99628906 -10.95703125 6.35546875 C-9.93585205 5.78465576 -8.91467285 5.21384277 -7.86254883 4.62573242 C-5.97697952 3.55485771 -4.12491417 2.42236537 -2.31518555 1.2277832 C-1.55117432 0.82261475 -0.78716309 0.41744629 0 0 Z " fill="#FE4C2B" transform="translate(287,335)"/>
<path d="M0 0 C3.49720218 1.31677413 4.65232276 4.83163682 6.25488281 8.00488281 C6.44908813 8.38386719 6.44908813 8.38386719 7.43188477 10.30175781 C18.71254689 32.88599625 26.26133433 57.85682232 26.06738281 83.19238281 C26.04675781 87.00800781 26.02613281 90.82363281 26.00488281 94.75488281 C14.45488281 94.75488281 2.90488281 94.75488281 -8.99511719 94.75488281 C-9.07761719 91.70238281 -9.16011719 88.64988281 -9.24511719 85.50488281 C-10.25161779 61.24231997 -17.35464414 40.47863586 -29.17236328 19.45629883 C-29.99511719 17.75488281 -29.99511719 17.75488281 -29.99511719 15.75488281 C-26.32936448 13.6362252 -22.66317666 11.51832313 -18.99658203 9.40112305 C-17.74906593 8.68062812 -16.50166939 7.95992614 -15.25439453 7.23901367 C-13.46255311 6.2033949 -11.67028435 5.16851925 -9.87792969 4.13378906 C-9.3385376 3.82219849 -9.3385376 3.82219849 -6.60888672 2.24536133 C-2.19780377 -0.27001897 -2.19780377 -0.27001897 0 0 Z " fill="#FE5A17" transform="translate(257.9951171875,353.2451171875)"/>
<path d="M0 0 C0.52865662 -0.00006042 0.52865662 -0.00006042 3.20397949 -0.00036621 C19.69120994 0.02640585 35.59251872 0.9002479 51.84570312 3.83691406 C54.88584127 4.36600949 57.92429051 4.78435114 60.984375 5.1796875 C73.4297425 6.95049292 73.4297425 6.95049292 77.484375 10.78125 C79.44411908 13.9096488 80.9375 16.63347057 80.9375 20.375 C40.0175 20.375 -0.9025 20.375 -43.0625 20.375 C-42.17931899 13.30955193 -40.78178162 8.69075086 -38.0625 2.375 C-25.377843 0.19633275 -12.84537307 -0.02254893 0 0 Z " fill="#FA3593" transform="translate(109.0625,128.625)"/>
<path d="M0 0 C12.75916618 -0.62844741 25.51460504 -1.10664427 38.28614807 -1.39892864 C44.219146 -1.53931434 50.14149647 -1.7291456 56.06835938 -2.03686523 C95.56192802 -4.03456339 95.56192802 -4.03456339 103.65771484 2.54086304 C109.44291528 8.37507082 112.26436857 15.8001924 114.75561523 23.51042175 C116.76938555 29.15755703 119.88566741 34.09142253 123 39.1875 C123.98542271 40.90658522 124.96575581 42.62861463 125.9375 44.35546875 C126.33839844 45.06340576 126.73929687 45.77134277 127.15234375 46.50073242 C127.43207031 46.99549072 127.71179688 47.49024902 128 48 C127.67 48.165 127.67 48.165 126 49 C123.41471703 47.67477092 120.93817946 46.28458484 118.4375 44.8125 C99.74220162 34.14993479 80.22433729 25.33110675 60 18 C59.5268335 17.82742676 59.5268335 17.82742676 57.13232422 16.95410156 C41.63917969 11.37122255 25.9347575 7.3777949 9.90966797 3.69238281 C6.56909825 2.89746288 3.28612216 1.99403989 0 1 C0 0.67 0 0.34 0 0 Z " fill="#A035BF" transform="translate(180,64)"/>
<path d="M0 0 C18.48 0 36.96 0 56 0 C56 25.41 56 50.82 56 77 C52.95320574 73.19150717 50.79138064 70.01838947 48.5 65.8125 C41.08858989 52.5303645 32.35269647 39.98203944 23 28 C22.35804688 27.17628906 21.71609375 26.35257813 21.0546875 25.50390625 C16.77302387 20.08682169 12.33613013 14.80600109 7.85595703 9.55297852 C5.1765551 6.40943975 2.58208906 3.22761133 0 0 Z " fill="#A035BE" transform="translate(392,182)"/>
<path d="M0 0 C6.80089178 1.2535927 13.2634114 2.85087366 19.8125 5.0625 C20.71339355 5.36559082 21.61428711 5.66868164 22.54248047 5.98095703 C32.60047486 9.44303009 42.3135274 13.61873393 52 18 C52.81210938 18.36351563 53.62421875 18.72703125 54.4609375 19.1015625 C68.55626929 25.44218101 82.88881403 32.31105122 95 42 C71.57 42 48.14 42 24 42 C20 35 20 35 0 0 Z " fill="#DE35A5" transform="translate(203,107)"/>
<path d="M0 0 C17.37385175 8.45404183 33.5945473 21.88639432 48.10546875 34.5078125 C50.78639911 36.81608992 53.53057995 39.00317759 56.3125 41.1875 C61.40857808 45.32333785 66.04585264 49.86345728 70.6875 54.5 C71.40784424 55.21953857 72.12818848 55.93907715 72.87036133 56.68041992 C78 61.86595731 78 61.86595731 78 63 C42.31384947 67.24547141 42.31384947 67.24547141 32.68212891 60.76904297 C27.34367635 54.66305135 24.44743091 47.32353271 21.58203125 39.83740234 C19.07531459 33.47548256 15.34781844 27.76561949 11.8125 21.9375 C7.60772308 14.74649813 3.62484967 7.5014394 0 0 Z " fill="#A036BF" transform="translate(330,86)"/>
<path d="M0 0 C1.70166016 2.45263672 1.70166016 2.45263672 3.5390625 5.6796875 C3.70222458 5.9639711 3.70222458 5.9639711 4.52792358 7.40261841 C5.21622712 8.6056705 5.900177 9.81122239 6.58007812 11.01904297 C7.61977175 12.86571375 8.67184497 14.70484525 9.7265625 16.54296875 C14.8306358 25.49190739 14.8306358 25.49190739 16 29 C15.41138184 28.94465088 14.82276367 28.88930176 14.21630859 28.83227539 C-6.50519309 26.93901021 -27.20710678 26.40602093 -48 26 C-38.7780874 16.76777836 -14.45436448 -4.81812149 0 0 Z " fill="#BE37B5" transform="translate(144,68)"/>
<path d="M0 0 C7.67002899 5.47314983 13.54154639 13.25433803 15.671875 22.55859375 C15.88218792 25.28331453 15.81861851 27.81938157 15.671875 30.55859375 C-3.59524404 27.46209248 -24.59322109 15.06931165 -36.328125 -0.44140625 C-25.9606418 -7.06507607 -10.37973255 -6.42637804 0 0 Z " fill="#FF9A03" transform="translate(128.328125,414.44140625)"/>
<path d="M0 0 C26.39477767 5.24896147 50.26240921 21.44838889 65.22460938 43.83203125 C66.48947198 45.78913649 67.72150233 47.76219351 68.9375 49.75 C69.31543701 50.36391602 69.69337402 50.97783203 70.08276367 51.61035156 C72.46945472 55.65263587 73.88312191 59.43892716 75 64 C69.91454945 59.75230707 65.2006918 55.29026676 60.5625 50.5625 C55.53315996 45.49034666 50.46992804 40.59717514 45 36 C44.04738281 35.15824219 43.09476562 34.31648438 42.11328125 33.44921875 C29.52847298 22.36752284 16.2054608 11.6737432 1.703125 3.19921875 C1.14109375 2.80347656 0.5790625 2.40773438 0 2 C0 1.34 0 0.68 0 0 Z " fill="#7137CE" transform="translate(365,66)"/>
<path d="M0 0 C2.97 0 5.94 0 9 0 C9 3.96 9 7.92 9 12 C5.74483572 8.83525695 2.67991207 5.67247209 0 2 C0 1.34 0 0.68 0 0 Z " fill="#8637C5" transform="translate(439,182)"/>
</svg>
