<?xml version="1.0" encoding="UTF-8"?>
<!-- Generator: visioncortex VTracer 0.6.12 -->
<svg version="1.1" xmlns="http://www.w3.org/2000/svg" width="512" height="512">
<path d="M0 0 C0.82877655 0.00182281 1.6575531 0.00364563 2.51144409 0.00552368 C15.64153442 0.05397187 28.41359648 0.67665947 41.3125 3.3125 C41.74111328 3.39830322 41.74111328 3.39830322 43.91015625 3.83251953 C78.69405455 10.99805381 111.84142937 25.61094654 139.3125 48.3125 C139.87388672 48.77237305 140.43527344 49.23224609 141.01367188 49.70605469 C153.6361259 60.09811968 165.39278763 71.27142839 175.3125 84.3125 C175.80218262 84.9528418 176.29186523 85.59318359 176.79638672 86.25292969 C185.02807489 97.090026 192.11049411 108.20270596 198.3125 120.3125 C198.69889648 121.0554834 199.08529297 121.7984668 199.48339844 122.56396484 C208.0986456 139.27812207 214.12165085 156.90107652 218.1875 175.25 C218.37860352 176.11141602 218.56970703 176.97283203 218.76660156 177.86035156 C221.79265831 192.50734495 222.69360331 207.08413589 222.625 222 C222.62408859 222.41438828 222.62408859 222.41438828 222.61947632 224.51144409 C222.57102813 237.64153442 221.94834053 250.41359648 219.3125 263.3125 C219.14089355 264.16972656 218.96928711 265.02695312 218.79248047 265.91015625 C211.62694619 300.69405455 197.01405346 333.84142937 174.3125 361.3125 C173.85262695 361.87388672 173.39275391 362.43527344 172.91894531 363.01367188 C162.52688032 375.6361259 151.35357161 387.39278763 138.3125 397.3125 C137.6721582 397.80218262 137.03181641 398.29186523 136.37207031 398.79638672 C125.534974 407.02807489 114.42229404 414.11049411 102.3125 420.3125 C101.5695166 420.69889648 100.8265332 421.08529297 100.06103516 421.48339844 C83.34687793 430.0986456 65.72392348 436.12165085 47.375 440.1875 C46.51358398 440.37860352 45.65216797 440.56970703 44.76464844 440.76660156 C30.11820224 443.79254527 15.54048387 444.69526124 0.625 444.625 C-0.2051059 444.62284485 -1.03521179 444.6206897 -1.89047241 444.61846924 C-15.02573704 444.5639471 -27.78755498 443.97378616 -40.6875 441.3125 C-41.17822998 441.21316162 -41.17822998 441.21316162 -43.66162109 440.71044922 C-94.67476953 430.09099605 -142.86693824 402.14579207 -174.6875 360.3125 C-175.17718262 359.6721582 -175.66686523 359.03181641 -176.17138672 358.37207031 C-184.40307489 347.534974 -191.48549411 336.42229404 -197.6875 324.3125 C-198.07389648 323.5695166 -198.46029297 322.8265332 -198.85839844 322.06103516 C-207.4736456 305.34687793 -213.49665085 287.72392348 -217.5625 269.375 C-217.75360352 268.51358398 -217.94470703 267.65216797 -218.14160156 266.76464844 C-221.16765831 252.11765505 -222.06860331 237.54086411 -222 222.625 C-221.99817719 221.79622345 -221.99635437 220.9674469 -221.99447632 220.11355591 C-221.94602813 206.98346558 -221.32334053 194.21140352 -218.6875 181.3125 C-218.51589355 180.45527344 -218.34428711 179.59804687 -218.16748047 178.71484375 C-207.63318552 127.57785521 -179.57458778 79.17398156 -137.6875 47.3125 C-137.0471582 46.82281738 -136.40681641 46.33313477 -135.74707031 45.82861328 C-124.909974 37.59692511 -113.79729404 30.51450589 -101.6875 24.3125 C-100.9445166 23.92610352 -100.2015332 23.53970703 -99.43603516 23.14160156 C-82.72187793 14.5263544 -65.09892348 8.50334915 -46.75 4.4375 C-45.88858398 4.24639648 -45.02716797 4.05529297 -44.13964844 3.85839844 C-29.49265505 0.83234169 -14.91586411 -0.06860331 0 0 Z M-121.6875 94.3125 C-122.48929688 95.0446875 -123.29109375 95.776875 -124.1171875 96.53125 C-140.80606978 112.48964248 -151.50396854 135.46093844 -152.87760353 158.50113678 C-152.95200106 161.90933986 -152.96928693 165.31267209 -152.9621582 168.72167969 C-152.96726913 170.00470978 -152.97238007 171.28773987 -152.97764587 172.60964966 C-152.99090513 176.09340299 -152.99162914 179.57704698 -152.98908257 183.06082058 C-152.98800354 185.98763988 -152.99291999 188.91443789 -152.997688 191.84125257 C-153.00873879 198.75746623 -153.00924618 205.67362556 -153.00317383 212.58984375 C-152.99714253 219.68123016 -153.00943375 226.77241773 -153.0307439 233.86377025 C-153.04846657 239.99076355 -153.05434445 246.11769418 -153.05110615 252.24471211 C-153.04930947 255.8869794 -153.05176488 259.52910494 -153.06582069 263.17134857 C-153.17373107 293.7698486 -149.0418275 320.92083383 -127.6875 344.3125 C-127.04039062 345.02921875 -126.39328125 345.7459375 -125.7265625 346.484375 C-109.81359524 363.24170379 -86.56776871 374.13270683 -63.50084686 375.50161171 C-60.09194897 375.57702363 -56.68804373 375.59428842 -53.27832031 375.5871582 C-51.99529022 375.59226913 -50.71226013 375.59738007 -49.39035034 375.60264587 C-45.90659701 375.61590513 -42.42295302 375.61662914 -38.93917942 375.61408257 C-36.01236012 375.61300354 -33.08556211 375.61791999 -30.15874743 375.622688 C-23.24253377 375.63373879 -16.32637444 375.63424618 -9.41015625 375.62817383 C-2.31876984 375.62214253 4.77241773 375.63443375 11.86377025 375.6557439 C17.99076355 375.67346657 24.11769418 375.67934445 30.24471211 375.67610615 C33.8869794 375.67430947 37.52910494 375.67676488 41.17134857 375.69082069 C75.01510264 375.81017597 102.37050085 369.78698496 127.0625 345.62109375 C145.27874464 326.54402048 153.4495066 302.42814694 153.47363281 276.47094727 C153.47859772 275.18864731 153.48356262 273.90634735 153.48867798 272.58518982 C153.50173626 269.08051005 153.50823481 265.57584938 153.51268864 262.07114911 C153.51563189 259.87375911 153.51973913 257.67637417 153.52419281 255.47898674 C153.53785459 248.58159301 153.54752594 241.68421105 153.5513947 234.78680474 C153.55586302 226.86711861 153.57335917 218.94760614 153.6023953 211.02797276 C153.62414096 204.87985823 153.6341059 198.73179207 153.63543582 192.58363956 C153.6364753 188.92451744 153.64219668 185.26555881 153.66025543 181.60647774 C153.81048227 149.30385297 148.73976883 122.60588045 126.3125 98.3125 C125.71824219 97.63703125 125.12398438 96.9615625 124.51171875 96.265625 C109.51102822 80.03659008 85.85972249 70.41681308 64.12427521 69.12267113 C60.71592558 69.04799044 57.31248032 69.03071275 53.90332031 69.0378418 C52.62029022 69.03273087 51.33726013 69.02761993 50.01535034 69.02235413 C46.53159701 69.00909487 43.04795302 69.00837086 39.56417942 69.01091743 C36.63736012 69.01199646 33.71056211 69.00708001 30.78374743 69.002312 C23.86753377 68.99126121 16.95137444 68.99075382 10.03515625 68.99682617 C2.94376984 69.00285747 -4.14741773 68.99056625 -11.23877025 68.9692561 C-17.36576355 68.95153343 -23.49269418 68.94565555 -29.61971211 68.94889385 C-33.2619794 68.95069053 -36.90410494 68.94823512 -40.54634857 68.93417931 C-71.11365369 68.82637894 -98.33700585 72.93837997 -121.6875 94.3125 Z " fill="#000000" transform="translate(255.6875,33.6875)"/>
<path d="M0 0 C1.24854263 -0.00511093 2.49708527 -0.01022186 3.78346252 -0.01548767 C7.18041026 -0.02693935 10.57711256 -0.02946793 13.9740622 -0.02692437 C16.82401903 -0.02584735 19.67395387 -0.03075669 22.52390593 -0.03552979 C29.25586319 -0.04658965 35.98776464 -0.04708263 42.71972656 -0.04101562 C49.63163313 -0.03498156 56.54333584 -0.04728045 63.45520765 -0.06858569 C69.41905812 -0.08628312 75.3828442 -0.09219022 81.34671992 -0.08894795 C84.89558414 -0.08714751 88.44430299 -0.0896456 91.99314308 -0.10366249 C95.95774755 -0.11873823 99.92209859 -0.10919996 103.88671875 -0.09765625 C105.03986572 -0.10529999 106.1930127 -0.11294373 107.38110352 -0.12081909 C125.74741878 -0.00341101 141.97375586 6.27347765 155.13745117 19.2746582 C167.99406651 33.59595124 172.45230121 49.33086076 172.41210938 68.13720703 C172.41722031 69.38574966 172.42233124 70.6342923 172.42759705 71.92066956 C172.43904872 75.31761729 172.44157731 78.71431959 172.43903375 82.11126924 C172.43795672 84.96122606 172.44286606 87.8111609 172.44763917 90.66111296 C172.45869902 97.39307022 172.459192 104.12497167 172.453125 110.85693359 C172.44709094 117.76884016 172.45938982 124.68054287 172.48069507 131.59241468 C172.4983925 137.55626515 172.50429959 143.52005123 172.50105733 149.48392695 C172.49925688 153.03279117 172.50175497 156.58151002 172.51577187 160.13035011 C172.53084761 164.09495458 172.52130934 168.05930562 172.50976562 172.02392578 C172.51740936 173.17707275 172.5250531 174.33021973 172.53292847 175.51831055 C172.41552039 193.88462581 166.13863173 210.11096289 153.13745117 223.2746582 C138.81615814 236.13127354 123.08124862 240.58950824 104.27490234 240.54931641 C103.02635971 240.55442734 101.77781708 240.55953827 100.49143982 240.56480408 C97.09449208 240.57625575 93.69778978 240.57878434 90.30084014 240.57624078 C87.45088332 240.57516376 84.60094848 240.5800731 81.75099641 240.5848462 C75.01903915 240.59590605 68.28713771 240.59639903 61.55517578 240.59033203 C54.64326921 240.58429797 47.73156651 240.59659685 40.8196947 240.6179021 C34.85584422 240.63559953 28.89205815 240.64150662 22.92818242 240.63826436 C19.3793182 240.63646391 15.83059936 240.63896201 12.28175926 240.6529789 C8.31715479 240.66805464 4.35280375 240.65851637 0.38818359 240.64697266 C-0.18838989 240.65079453 -0.18838989 240.65079453 -3.10620117 240.6701355 C-21.47251644 240.55272742 -37.69885352 234.27583876 -50.86254883 221.2746582 C-63.71916417 206.95336517 -68.17739886 191.21845565 -68.13720703 172.41210938 C-68.14231796 171.16356674 -68.14742889 169.91502411 -68.1526947 168.62864685 C-68.16414638 165.23169911 -68.16667496 161.83499681 -68.1641314 158.43804717 C-68.16305438 155.58809035 -68.16796372 152.73815551 -68.17273682 149.88820344 C-68.18379668 143.15624618 -68.18428966 136.42434474 -68.17822266 129.69238281 C-68.17218859 122.78047625 -68.18448748 115.86877354 -68.20579273 108.95690173 C-68.22349015 102.99305125 -68.22939725 97.02926518 -68.22615498 91.06538945 C-68.22435454 87.51652523 -68.22685263 83.96780639 -68.24086952 80.41896629 C-68.25594526 76.45436183 -68.24640699 72.49001078 -68.23486328 68.52539062 C-68.24250702 67.37224365 -68.25015076 66.21909668 -68.25802612 65.03100586 C-68.14061804 46.6646906 -61.86372938 30.43835351 -48.86254883 17.2746582 C-34.54125579 4.41804286 -18.80634627 -0.04019183 0 0 Z M124.13745117 32.2746582 C121.67208697 35.13766179 121.18194769 36.96874464 120.63745117 40.7121582 C121.30120675 45.44141671 122.79426908 46.93147611 126.13745117 50.2746582 C129.20174893 51.80680708 131.75401537 51.50404368 135.13745117 51.2746582 C138.67615057 49.62326515 139.9481527 48.55860591 142.13745117 45.2746582 C142.84814466 40.86174749 142.6827947 37.29990403 140.57495117 33.3371582 C134.96398393 28.58941669 130.35184482 28.56992353 124.13745117 32.2746582 Z M-4.86254883 57.2746582 C-5.62438477 57.94110352 -6.3862207 58.60754883 -7.17114258 59.29418945 C-21.44426434 72.62731359 -32.01090444 93.68683731 -32.86254883 113.2746582 C-32.91411133 114.2749707 -32.96567383 115.2752832 -33.01879883 116.3059082 C-33.63267692 139.01939745 -25.89283577 160.18847249 -10.86254883 177.2746582 C-10.52932617 177.65557617 -10.52932617 177.65557617 -8.84301758 179.58325195 C4.49010656 193.85637371 25.54963027 204.42301382 45.13745117 205.2746582 C46.13776367 205.3262207 47.13807617 205.3777832 48.16870117 205.4309082 C70.88219042 206.04478629 92.05126546 198.30494515 109.13745117 183.2746582 C109.89928711 182.60821289 110.66112305 181.94176758 111.44604492 181.25512695 C125.71916668 167.92200281 136.28580679 146.8624791 137.13745117 127.2746582 C137.18901367 126.2743457 137.24057617 125.2740332 137.29370117 124.2434082 C137.90757926 101.52991895 130.16773812 80.36084392 115.13745117 63.2746582 C114.47100586 62.51282227 113.80456055 61.75098633 113.11791992 60.96606445 C99.78479578 46.69294269 78.72527207 36.12630259 59.13745117 35.2746582 C58.13713867 35.2230957 57.13682617 35.1715332 56.10620117 35.1184082 C33.39271192 34.50453012 12.22363689 42.24437126 -4.86254883 57.2746582 Z " fill="#000000" transform="translate(203.862548828125,135.725341796875)"/>
<path d="M0 0 C10.91506219 10.47705809 15.89101515 23.46259093 16.9375 38.375 C16.65863358 52.79239394 11.23745231 66.10402713 1.3046875 76.48828125 C-9.4402768 86.03045104 -22.46107839 91.30261454 -36.89453125 91.0234375 C-51.95053229 89.70998991 -65.1872258 84.21406926 -75.3125 72.8125 C-84.36597148 60.50471424 -89.06249144 46.95862705 -86.8515625 31.61328125 C-84.18566122 17.3585503 -78.26404143 5.81513226 -66.7109375 -3.22265625 C-45.90963964 -17.33996358 -19.31890677 -16.28849002 0 0 Z " fill="#000000" transform="translate(291.3125,217.1875)"/>
</svg>
