<?xml version="1.0" encoding="UTF-8"?>
<!-- Generator: visioncortex VTracer 0.6.12 -->
<svg version="1.1" xmlns="http://www.w3.org/2000/svg" width="512" height="512">
<path d="M0 0 C4.06889418 3.59339305 8.04685192 7.28005922 12 11 C12.65871094 11.61617188 13.31742187 12.23234375 13.99609375 12.8671875 C19.14594458 17.83863703 23.55496436 23.40173672 28 29 C28.79535156 29.97839844 29.59070313 30.95679687 30.41015625 31.96484375 C37.45149742 40.81394604 43.33708108 50.22078528 49 60 C49.37398926 60.64195312 49.74797852 61.28390625 50.13330078 61.9453125 C62.91232945 84.118431 70.70856141 108.86985645 75 134 C75.10763672 134.61875 75.10763672 134.61875 75.65234375 137.75 C80.98551611 172.62972579 77.8079932 209.73663193 66 243 C61.98563044 241.40564046 59.36531911 238.55820782 56.4375 235.5 C53.75088887 232.71628244 51.24160167 230.16106778 48 228 C48.99461063 222.4967096 49.99734849 216.9953259 51.03515625 211.5 C51.20466797 210.5925 51.37417969 209.685 51.54882812 208.75 C51.89140846 206.91595773 52.23776703 205.0826172 52.58789062 203.25 C53.63357609 197.60890752 54.34043374 192.03603719 54.75170898 186.3125 C55 184 55 184 56 181 C55.29779831 181.02442673 54.59559662 181.04885345 53.87211609 181.07402039 C47.20973618 181.2956904 40.54840416 181.46251694 33.88315105 181.56993389 C30.45718598 181.62702424 27.0342999 181.70423877 23.61010742 181.82983398 C-1.61812506 182.73143077 -1.61812506 182.73143077 -7.74589539 177.20503235 C-9.74092381 174.95665251 -11.36691183 172.5188007 -13 170 C-15.31347656 167.80859375 -15.31347656 167.80859375 -17.375 166.125 C-24.47088529 160.01991594 -26.83510445 157.06777087 -27.578125 147.7421875 C-29.7156901 122.49747871 -34.0997084 98.53128967 -41.43676758 74.22290039 C-42 72 -42 72 -42 69 C-73.68 69 -105.36 69 -138 69 C-138 99.03 -138 129.06 -138 160 C-120.84 160 -103.68 160 -86 160 C-86 166.93 -86 173.86 -86 181 C-103.16 181 -120.32 181 -138 181 C-138 211.36 -138 241.72 -138 273 C-120.84 273 -103.68 273 -86 273 C-86 279.93 -86 286.86 -86 294 C-103.16 294 -120.32 294 -138 294 C-138 320.4 -138 346.8 -138 374 C-117.81094093 368.39192804 -104.79411185 361.92444454 -89.3125 348.9375 C-87 347 -87 347 -86 347 C-86 360.53 -86 374.06 -86 388 C-144.98732188 403.70166122 -207.10738184 397.91438434 -260.62109375 367.40625 C-285.03516688 353.07285996 -307.62343962 334.41829961 -325 312 C-325.72703125 311.07832031 -326.4540625 310.15664063 -327.203125 309.20703125 C-363.72599337 261.89331541 -379.70690181 202.29371143 -372.8125 143 C-367.48837299 102.17953653 -352.00182944 63.12261407 -326 31 C-325.61005859 30.50886719 -325.61005859 30.50886719 -323.63671875 28.0234375 C-311.78452782 13.38209065 -298.23025189 0.08359298 -283 -11 C-282.21367187 -11.59296875 -281.42734375 -12.1859375 -280.6171875 -12.796875 C-196.41825531 -74.40584977 -78.51083124 -67.24858786 0 0 Z M-138 -33 C-138 -6.6 -138 19.8 -138 47 C-109.29 47 -80.58 47 -51 47 C-60.37823006 28.24353989 -60.37823006 28.24353989 -63.8125 22.875 C-64.22717529 22.22233154 -64.64185059 21.56966309 -65.0690918 20.8972168 C-83.1959237 -7.11821026 -105.22299443 -24.80574861 -138 -33 Z M-212 -3.5 C-222.69472957 7.29156058 -245 31.05230292 -245 47 C-216.62 47 -188.24 47 -159 47 C-159 20.93 -159 -5.14 -159 -32 C-179.73500666 -32 -197.88724347 -17.28385043 -212 -3.5 Z M-232 -16 C-233.91674805 -15.26245117 -233.91674805 -15.26245117 -236.26171875 -14.04296875 C-237.12627686 -13.59477783 -237.99083496 -13.14658691 -238.8815918 -12.68481445 C-239.34456665 -12.43775757 -239.34456665 -12.43775757 -241.6875 -11.1875 C-242.63343018 -10.68629639 -243.57936035 -10.18509277 -244.55395508 -9.66870117 C-256.51994455 -3.23030789 -267.6532181 4.16395365 -278 13 C-278.74894531 13.63808594 -279.49789062 14.27617188 -280.26953125 14.93359375 C-285.7767033 19.76492711 -291.02510876 24.8669409 -296.25 30 C-296.58684814 30.32613281 -296.58684814 30.32613281 -298.29150391 31.9765625 C-298.94296387 32.62367187 -299.59442383 33.27078125 -300.265625 33.9375 C-300.84086914 34.50339844 -301.41611328 35.06929687 -302.00878906 35.65234375 C-305.00129232 39.18053298 -307.43375791 43.15063687 -310 47 C-296.47 47 -282.94 47 -269 47 C-261 31 -261 31 -258.671875 26.31640625 C-251.00092537 11.1783667 -241.12510549 -2.22581914 -230 -15 C-230.33 -15.165 -230.33 -15.165 -232 -16 Z M-67 -16 C-66.21625 -14.948125 -65.4325 -13.89625 -64.625 -12.8125 C-64.07328125 -12.07128906 -63.5215625 -11.33007812 -62.953125 -10.56640625 C-61.59521526 -8.78211285 -60.20732612 -7.02040125 -58.796875 -5.27734375 C-46.69095105 9.85506118 -37.79191985 26.66346868 -29.84106445 44.27612305 C-29 46 -29 46 -28 47 C-24.89748799 47.08874135 -21.8173188 47.11518455 -18.71484375 47.09765625 C-17.78402481 47.0962413 -16.85320587 47.09482635 -15.8941803 47.09336853 C-12.90858809 47.08775172 -9.92306971 47.0751964 -6.9375 47.0625 C-4.91862087 47.05748716 -2.89974057 47.05292388 -0.88085938 47.04882812 C4.07945572 47.03777683 9.03971532 47.02050095 14 47 C13.06200202 45.73433458 12.1218876 44.47023752 11.1809082 43.20678711 C10.65761429 42.50267197 10.13432037 41.79855682 9.59516907 41.07310486 C7.2897903 38.07700118 4.77621011 35.31380678 2.1875 32.5625 C1.66397949 32.00320801 1.14045898 31.44391602 0.60107422 30.86767578 C-0.44817938 29.75105953 -1.49986753 28.63672501 -2.55419922 27.52490234 C-3.80436398 26.20633951 -5.0456047 24.87932625 -6.28515625 23.55078125 C-20.94598065 8.28708183 -39.45080102 -3.0935733 -58 -13 C-58.54076172 -13.28939453 -58.54076172 -13.28939453 -61.27734375 -14.75390625 C-64 -16 -64 -16 -67 -16 Z M-328.06445312 72.8203125 C-328.74423118 74.19699311 -329.39100882 75.59057549 -330 77 C-330.64565949 78.22230428 -331.29693099 79.44168358 -331.95703125 80.65625 C-343.98569453 105.08040135 -352 132.6891088 -352 160 C-332.2 160 -312.4 160 -292 160 C-291.34 153.07 -290.68 146.14 -290 139 C-287.40083584 115.15857602 -282.86460333 92.2486858 -277 69 C-283.74386112 68.79702657 -290.48693454 68.65701102 -297.2331543 68.56054688 C-299.527399 68.52033395 -301.82143892 68.46575325 -304.11499023 68.39648438 C-307.41441302 68.29933748 -310.71112613 68.25405197 -314.01171875 68.21875 C-315.03585373 68.17745972 -316.05998871 68.13616943 -317.11515808 68.09362793 C-322.34205724 68.09034011 -325.14135447 68.21544607 -328.06445312 72.8203125 Z M-254 69 C-261.06757234 90.20271701 -261.06757234 90.20271701 -262.625 96.9375 C-262.82319336 97.78103027 -263.02138672 98.62456055 -263.22558594 99.49365234 C-267.7077242 119.41944618 -270 139.60225558 -270 160 C-233.37 160 -196.74 160 -159 160 C-159 129.97 -159 99.94 -159 69 C-190.35 69 -221.7 69 -254 69 Z M-20 69 C-19.77860352 69.84369141 -19.55720703 70.68738281 -19.32910156 71.55664062 C-11.63516063 101.06742761 -7.37761407 129.56653985 -5 160 C15.13 160 35.26 160 56 160 C53.66317305 135.46331707 53.66317305 135.46331707 51.8125 127.5 C51.59601807 126.55044434 51.37953613 125.60088867 51.15649414 124.62255859 C40.79855632 80.79855632 40.79855632 80.79855632 29 69 C27.4651703 68.90680551 25.92607918 68.882542 24.38842773 68.88647461 C23.40748642 68.88655014 22.4265451 68.88662567 21.4158783 68.88670349 C20.3492244 68.89186478 19.2825705 68.89702606 18.18359375 68.90234375 C17.0974025 68.9037587 16.01121124 68.90517365 14.8921051 68.90663147 C11.40720925 68.91224952 7.92237658 68.92480508 4.4375 68.9375 C2.08138113 68.94251267 -0.27473874 68.94707598 -2.63085938 68.95117188 C-8.42059464 68.96222481 -14.21029281 68.97898049 -20 69 Z M-352 181 C-352 212.16726202 -342.42772644 246.85841034 -325 273 C-322.93722534 273.36076355 -322.93722534 273.36076355 -320.36669922 273.34057617 C-319.40585419 273.34034958 -318.44500916 273.34012299 -317.45504761 273.33988953 C-316.93523819 273.3321476 -316.93523819 273.3321476 -314.3046875 273.29296875 C-313.77339737 273.29084633 -313.77339737 273.29084633 -311.08474731 273.28010559 C-307.68124354 273.26327389 -304.27832567 273.22561303 -300.875 273.1875 C-298.57162312 273.17245899 -296.26823698 273.15876958 -293.96484375 273.14648438 C-288.30969495 273.11335574 -282.65488932 273.06311197 -277 273 C-278.05786637 268.17096148 -279.13165963 263.35373019 -280.3671875 258.56640625 C-286.85739701 232.90359898 -289.71175999 207.31476007 -292 181 C-311.8 181 -331.6 181 -352 181 Z M-270 181 C-270 190.28385618 -269.9696438 198.99636079 -268.875 208.125 C-268.74520752 209.21828613 -268.61541504 210.31157227 -268.48168945 211.43798828 C-262.92805434 255.14389132 -262.92805434 255.14389132 -254 273 C-222.65 273 -191.3 273 -159 273 C-159 242.64 -159 212.28 -159 181 C-195.63 181 -232.26 181 -270 181 Z M-310 294 C-307.96906665 298.0618667 -305.50801265 301.16731901 -302.5625 304.5625 C-302.29538208 304.87135132 -302.29538208 304.87135132 -300.94360352 306.43432617 C-282.21283474 327.8736907 -257.59284814 347.1193783 -231 358 C-230.34 357.67 -229.68 357.34 -229 357 C-229.58265625 356.40316406 -230.1653125 355.80632812 -230.765625 355.19140625 C-247.71342162 337.25765291 -258.62314923 316.23610879 -269 294 C-282.53 294 -296.06 294 -310 294 Z M-245 294 C-243.43209346 298.70371963 -241.70644266 302.80699265 -239.375 307.125 C-239.02308594 307.77879639 -238.67117187 308.43259277 -238.30859375 309.10620117 C-223.21563095 336.70389851 -200.89346741 361.3460062 -170.71875 371.94140625 C-167 373 -167 373 -159 374 C-159 347.6 -159 321.2 -159 294 C-187.38 294 -215.76 294 -245 294 Z " fill="#000000" transform="translate(394,75)"/>
<path d="M0 0 C4.75743665 1.02411995 7.25303468 4.15233871 10.55859375 7.55078125 C12.24410088 9.14332786 13.94740004 10.71556018 15.65136719 12.28833008 C18.97170367 15.35662361 22.26196185 18.45706778 25.55859375 21.55078125 C26.88009599 22.78918239 28.20170996 24.02746432 29.5234375 25.265625 C32.86424103 28.39577688 36.20358287 31.52748326 39.54248047 34.65966797 C42.88052043 37.79074783 46.21960721 40.92071089 49.55859375 44.05078125 C50.89193216 45.30077584 52.22526549 46.55077584 53.55859375 47.80078125 C53.88859375 48.11015625 53.88859375 48.11015625 55.55859375 49.67578125 C109.55859375 100.30078125 109.55859375 100.30078125 111.55957031 102.17675781 C112.88956719 103.42358928 114.21964499 104.67033442 115.54980469 105.91699219 C118.93486307 109.08975882 122.31839283 112.26412958 125.69921875 115.44140625 C127.06894592 116.72793326 128.43873687 118.01439235 129.80859375 119.30078125 C130.46875488 119.92114258 131.12891602 120.54150391 131.80908203 121.18066406 C134.90677716 124.08624808 138.01545933 126.97732018 141.16015625 129.83203125 C141.71541992 130.33637695 142.27068359 130.84072266 142.84277344 131.36035156 C144.32579302 132.70317163 145.81312156 134.0412286 147.30078125 135.37890625 C149.63719935 137.62639494 151.36691503 139.3605901 151.89453125 142.63671875 C151.96498744 146.76545177 151.92599945 148.96293214 149.68359375 152.55078125 C146.56024526 155.49040336 144.83734482 155.68390623 140.64990234 155.75610352 C139.62899506 155.77604874 138.60808777 155.79599396 137.5562439 155.81654358 C136.45100372 155.83325607 135.34576355 155.84996857 134.20703125 155.8671875 C133.07786285 155.8879686 131.94869446 155.90874969 130.78530884 155.93016052 C127.16813403 155.9956946 123.55088494 156.05455899 119.93359375 156.11328125 C117.48566931 156.15646279 115.03775247 156.20007696 112.58984375 156.24414062 C106.57950625 156.35137992 100.5690944 156.45313912 94.55859375 156.55078125 C95.09750244 157.70900391 95.63641113 158.86722656 96.19165039 160.06054688 C98.22683802 164.43584082 100.25962081 168.81224875 102.29174805 173.18896484 C103.16480958 175.06849235 104.03848811 176.94773341 104.9128418 178.82666016 C107.81304857 185.05969204 110.69868567 191.29914687 113.55859375 197.55078125 C113.92383148 198.34916412 114.28906921 199.147547 114.66537476 199.97012329 C115.66468486 202.16633311 116.65305583 204.36705746 117.63671875 206.5703125 C117.92656143 207.20710937 118.21640411 207.84390625 118.51502991 208.5 C120.74592881 213.55415072 121.54061258 217.10504049 120.55859375 222.55078125 C117.39809926 227.77017422 113.11251856 229.56113458 107.7421875 231.94140625 C106.88931656 232.33148865 106.03644562 232.72157104 105.1577301 233.12347412 C102.44258998 234.36156944 99.71956961 235.58114922 96.99609375 236.80078125 C95.16027661 237.63555267 93.32498375 238.4714781 91.49023438 239.30859375 C88.13514379 240.83401368 84.77885622 242.35653347 81.41577148 243.86425781 C80.74166733 244.16672424 80.06756317 244.46919067 79.37303162 244.78082275 C75.20778422 246.54834959 71.03595316 247.44461307 66.55859375 246.55078125 C62.09762124 243.61074914 60.05441675 240.25968207 57.921875 235.49609375 C57.60043015 234.80570007 57.27898529 234.1153064 56.94779968 233.4039917 C55.90983278 231.16674346 54.89032629 228.92161773 53.87109375 226.67578125 C53.16189757 225.13768042 52.45160561 223.60008437 51.74023438 222.06298828 C49.98699479 218.26633121 48.24885157 214.46301693 46.51715088 210.65649414 C45.62777275 208.7027504 44.73540444 206.75041654 43.84130859 204.79882812 C41.05931025 198.72551309 38.29606783 192.64429326 35.55859375 186.55078125 C28.46911174 192.32701623 22.16529514 198.86723607 15.74609375 205.36328125 C13.49244887 207.64348796 11.23552516 209.92037538 8.9765625 212.1953125 C8.46199997 212.71817337 7.94743744 213.24103424 7.4172821 213.77973938 C4.00431048 217.21630754 2.66822324 218.45982801 -2.25390625 218.86328125 C-5.43598692 218.81708044 -6.45213478 218.54448407 -9.31640625 216.86328125 C-13.60330259 212.19812935 -13.73118442 207.49243408 -13.69537354 201.39038086 C-13.69849352 200.57292609 -13.7016135 199.75547132 -13.70482802 198.9132452 C-13.7127998 196.17646493 -13.70648757 193.43990689 -13.70019531 190.703125 C-13.70290554 188.74008047 -13.70646665 186.77703695 -13.71081543 184.81399536 C-13.71993794 179.48352188 -13.71639572 174.15312576 -13.71005726 168.82265091 C-13.70499658 163.24626709 -13.7096889 157.66988993 -13.71282959 152.09350586 C-13.71646903 142.72866628 -13.7116707 133.36385823 -13.70214844 123.99902344 C-13.69126394 113.16936306 -13.69478953 102.33977799 -13.70580125 91.51011944 C-13.71487474 82.21489409 -13.71615909 72.91969143 -13.71092391 63.62446308 C-13.70780456 58.07155943 -13.70739394 52.51869118 -13.71399689 46.96578979 C-13.71977059 41.74553779 -13.71577293 36.52538295 -13.70420837 31.30514145 C-13.70156193 29.38829586 -13.70232661 27.47144211 -13.7067337 25.55459976 C-13.71219116 22.94001633 -13.70535255 20.32574513 -13.69537354 17.71118164 C-13.69983498 16.95096679 -13.70429642 16.19075193 -13.70889306 15.40750027 C-13.67004525 10.167075 -12.77600759 6.60829166 -9.94140625 2.23828125 C-6.56380186 -0.04160171 -4.02803512 -0.20461717 0 0 Z M8.55859375 36.55078125 C8.55859375 84.40078125 8.55859375 132.25078125 8.55859375 181.55078125 C16.37376901 174.8520596 16.37376901 174.8520596 19.93359375 171.0625 C20.31257813 170.66836914 20.31257813 170.66836914 22.23046875 168.67382812 C23.79233562 167.03989525 25.34435111 165.39649253 26.88671875 163.74414062 C30.26268781 160.26195485 32.59310515 157.8729517 37.24609375 156.3203125 C41.1976364 156.59524294 43.21012046 157.43016244 46.55859375 159.55078125 C48.08833742 161.90238794 49.22135026 163.95615356 50.3515625 166.484375 C50.6825444 167.18437119 51.01352631 167.88436737 51.35453796 168.60557556 C52.4402215 170.91283266 53.49903088 173.23142828 54.55859375 175.55078125 C55.31545897 177.16895639 56.07411316 178.78629587 56.83447266 180.40283203 C58.80496463 184.6050439 60.75129253 188.8178952 62.68774414 193.03588867 C63.88476098 195.64304913 65.08563164 198.2484083 66.28710938 200.85351562 C67.06141813 202.53505486 67.83551459 204.21669188 68.609375 205.8984375 C68.96252274 206.66519302 69.31567047 207.43194855 69.67951965 208.22193909 C71.70592879 212.63834818 73.66373925 217.07629627 75.55859375 221.55078125 C80.2964854 220.10754656 84.54717526 218.17851392 88.93359375 215.92578125 C89.57425781 215.6009375 90.21492188 215.27609375 90.875 214.94140625 C92.43806876 214.14820718 93.99859997 213.35001094 95.55859375 212.55078125 C94.10498569 207.89564632 92.26139949 203.50026267 90.21484375 199.08203125 C89.88915405 198.37254333 89.56346436 197.66305542 89.22790527 196.93206787 C88.53280195 195.41866947 87.83635573 193.90588725 87.13867188 192.39367676 C86.05062629 190.03349832 84.96797079 187.67091482 83.88671875 185.30761719 C80.71822983 178.38761604 77.53424841 171.47653424 74.27734375 164.59765625 C73.81005859 163.60056641 73.34277344 162.60347656 72.86132812 161.57617188 C72.01968315 159.78310215 71.16752047 157.99491484 70.30273438 156.21289062 C68.0869295 151.46805191 66.99141662 147.9052034 67.55859375 142.55078125 C68.75708803 139.85416912 69.7053543 138.16158042 72.11035156 136.43994141 C75.85253524 135.08084359 79.52701861 135.19157862 83.48046875 135.13671875 C83.91046173 135.12703568 83.91046173 135.12703568 86.08648682 135.07803345 C88.82708896 135.01836311 91.56773339 134.97190265 94.30859375 134.92578125 C96.16928892 134.88758991 98.02996663 134.8485375 99.890625 134.80859375 C104.44647239 134.7126719 109.00240254 134.62859457 113.55859375 134.55078125 C112.79651611 133.78942871 112.03443848 133.02807617 111.24926758 132.24365234 C109.3298341 130.32265142 107.41497126 128.3979659 105.5078125 126.46484375 C100.27439123 121.1804657 95.05621501 115.97328987 89.3828125 111.15625 C86.64071189 108.74296659 84.12034547 106.12131035 81.55859375 103.51953125 C79.61968373 101.6109167 77.62159824 99.82367573 75.55859375 98.05078125 C72.04717727 95.03315772 68.80551973 91.81719044 65.55859375 88.51953125 C63.61968373 86.6109167 61.62159824 84.82367573 59.55859375 83.05078125 C56.04717727 80.03315772 52.80551973 76.81719044 49.55859375 73.51953125 C47.61968373 71.6109167 45.62159824 69.82367573 43.55859375 68.05078125 C40.04717727 65.03315772 36.80551973 61.81719044 33.55859375 58.51953125 C30.99734116 55.99829823 28.29015458 53.67783339 25.5625 51.33984375 C22.80286553 48.87607653 20.25539466 46.22661941 17.7109375 43.54296875 C14.89340117 40.93508576 11.68269074 38.7822791 8.55859375 36.55078125 Z " fill="#000000" transform="translate(350.44140625,255.44921875)"/>
</svg>
