<?xml version="1.0" encoding="UTF-8"?>
<!-- Generator: visioncortex VTracer 0.6.12 -->
<svg version="1.1" xmlns="http://www.w3.org/2000/svg" width="512" height="512">
<path d="M0 0 C4.37794136 3.94957538 8.65786097 7.99557479 12.8671875 12.12402344 C13.47095215 12.7145752 14.0747168 13.30512695 14.69677734 13.91357422 C46.74985561 45.57336318 68.0252324 89.80185905 74.8671875 134.12402344 C75.07730469 135.34734375 75.28742188 136.57066406 75.50390625 137.83105469 C81.91858938 179.09430006 76.28084291 223.43722773 58.67480469 261.32446289 C58.48547363 261.73998413 58.48547363 261.73998413 57.52734375 263.84277344 C57.18324463 264.57431641 56.83914551 265.30585938 56.48461914 266.05957031 C55.74478629 268.53328586 55.93986807 269.73491816 56.8671875 272.12402344 C58.87109375 274.45605469 58.87109375 274.45605469 61.4296875 276.93652344 C62.33589844 277.81695312 63.24210937 278.69738281 64.17578125 279.60449219 C67.0369995 282.28299113 69.95974202 284.86584718 72.9375 287.41308594 C75.70826332 289.86975463 78.2701165 292.51762321 80.8671875 295.15527344 C83.42894499 297.67700346 86.1377449 299.99735944 88.86328125 302.33886719 C91.67034654 304.8395082 94.2763091 307.5215466 96.91015625 310.20214844 C99.30039768 312.54945139 101.82193918 314.68962422 104.421875 316.79980469 C106.49042819 318.69504666 107.75343774 320.4177168 108.203125 323.20996094 C108.27358119 327.33869395 108.2345932 329.53617432 105.9921875 333.12402344 C102.86883901 336.06364555 101.14593857 336.25714842 96.95849609 336.3293457 C95.93758881 336.34929092 94.91668152 336.36923615 93.86483765 336.38978577 C92.75959747 336.40649826 91.6543573 336.42321075 90.515625 336.44042969 C89.3864566 336.46121078 88.25728821 336.48199188 87.09390259 336.50340271 C83.47672778 336.56893679 79.85947869 336.62780118 76.2421875 336.68652344 C73.79426306 336.72970498 71.34634622 336.77331915 68.8984375 336.81738281 C62.8881 336.92462211 56.87768815 337.0263813 50.8671875 337.12402344 C51.40609619 338.28224609 51.94500488 339.44046875 52.50024414 340.63378906 C54.53543177 345.00908301 56.56821456 349.38549094 58.6003418 353.76220703 C59.47340333 355.64173454 60.34708186 357.5209756 61.22143555 359.39990234 C64.12164232 365.63293423 67.00727942 371.87238905 69.8671875 378.12402344 C70.23242523 378.92240631 70.59766296 379.72078918 70.97396851 380.54336548 C71.97327861 382.7395753 72.96164958 384.94029965 73.9453125 387.14355469 C74.23515518 387.78035156 74.52499786 388.41714844 74.82362366 389.07324219 C77.05452256 394.12739291 77.84920633 397.67828267 76.8671875 403.12402344 C73.70669301 408.34341641 69.42111231 410.13437677 64.05078125 412.51464844 C63.19791031 412.90473083 62.34503937 413.29481323 61.46632385 413.69671631 C58.75118373 414.93481163 56.02816336 416.15439141 53.3046875 417.37402344 C51.46887036 418.20879486 49.6335775 419.04472029 47.79882812 419.88183594 C44.44373754 421.40725586 41.08744997 422.92977565 37.72436523 424.4375 C37.05026108 424.73996643 36.37615692 425.04243286 35.68162537 425.35406494 C31.51637797 427.12159178 27.34454691 428.01785526 22.8671875 427.12402344 C18.40621499 424.18399133 16.3630105 420.83292425 14.23046875 416.06933594 C13.9090239 415.37894226 13.58757904 414.68854858 13.25639343 413.97723389 C12.21842653 411.73998565 11.19892004 409.49485992 10.1796875 407.24902344 C9.47049132 405.7109226 8.76019936 404.17332655 8.04882812 402.63623047 C6.29558854 398.8395734 4.55744532 395.03625912 2.82574463 391.22973633 C1.9363665 389.27599259 1.04399819 387.32365873 0.14990234 385.37207031 C-2.632096 379.29875528 -5.39533842 373.21753545 -8.1328125 367.12402344 C-15.22229451 372.90025842 -21.52611111 379.44047825 -27.9453125 385.93652344 C-30.19895738 388.21673015 -32.45588109 390.49361757 -34.71484375 392.76855469 C-35.22940628 393.29141556 -35.74396881 393.81427643 -36.27412415 394.35298157 C-39.68709577 397.78954972 -41.02318301 399.0330702 -45.9453125 399.43652344 C-49.12739317 399.39032263 -50.14354103 399.11772626 -53.0078125 397.43652344 C-56.87656403 393.22641148 -57.38097247 389.41530208 -57.2578125 383.81152344 C-57.23976563 382.74289062 -57.22171875 381.67425781 -57.203125 380.57324219 C-57.19152344 380.16912109 -57.19152344 380.16912109 -57.1328125 378.12402344 C-57.64851807 378.33494629 -58.16422363 378.54586914 -58.69555664 378.76318359 C-117.6085128 402.61830349 -180.94783762 402.70048649 -239.66601562 378.06103516 C-272.72820154 363.68359455 -302.91269263 340.54051776 -325.1328125 312.12402344 C-325.91011719 311.17527344 -326.68742187 310.22652344 -327.48828125 309.24902344 C-351.38913248 279.45845529 -365.99266893 242.60476676 -372.1328125 205.12402344 C-372.26268555 204.3322168 -372.39255859 203.54041016 -372.52636719 202.72460938 C-381.53954238 144.17684112 -364.80310708 83.53820936 -330.1328125 36.12402344 C-327.56167746 32.70204262 -324.9075098 29.38274501 -322.1328125 26.12402344 C-321.50761719 25.38796875 -320.88242187 24.65191406 -320.23828125 23.89355469 C-317.92340572 21.25114419 -315.54764386 18.67464439 -313.1328125 16.12402344 C-312.5435498 15.50076172 -311.95428711 14.8775 -311.34716797 14.23535156 C-240.11554207 -60.47745278 -128.41664046 -74.25639527 0 0 Z M-285.9140625 20.11621094 C-287.46260209 21.51753022 -289.06630559 22.85920237 -290.70703125 24.15136719 C-292.88970954 25.92633101 -294.63589497 27.66985554 -296.4453125 29.81152344 C-298.23311417 31.91324318 -300.01459553 33.99797752 -301.90234375 36.01074219 C-337.43332561 74.08499433 -354.52933615 127.75087822 -353.04736328 179.23022461 C-350.72783842 230.79803448 -328.79159251 278.28005276 -293.1328125 315.12402344 C-292.42640625 315.87039063 -291.72 316.61675781 -290.9921875 317.38574219 C-261.63166941 347.76074973 -221.12875345 365.66180628 -180.1328125 373.12402344 C-179.40739258 373.25679688 -178.68197266 373.38957031 -177.93457031 373.52636719 C-158.36063197 376.90740651 -136.66429088 376.69886533 -117.1328125 373.12402344 C-116.2759082 372.96804688 -115.41900391 372.81207031 -114.53613281 372.65136719 C-94.16601556 368.8173263 -75.43455287 362.87354868 -57.1328125 353.12402344 C-57.1328125 346.19402344 -57.1328125 339.26402344 -57.1328125 332.12402344 C-63.85951076 334.36625619 -63.85951076 334.36625619 -67.15625 335.99902344 C-67.8678125 336.34449219 -68.579375 336.68996094 -69.3125 337.04589844 C-70.76975054 337.76155885 -72.22549953 338.48028535 -73.6796875 339.20214844 C-78.44661719 341.50817219 -82.95387193 343.0017248 -88.1328125 344.12402344 C-87.46636719 343.33382813 -86.79992187 342.54363281 -86.11328125 341.72949219 C-73.43157846 326.34836851 -56.92515834 303.50750739 -57.01928711 282.98071289 C-57.0192141 282.5659671 -57.0192141 282.5659671 -57.0188446 280.46710205 C-57.01954158 277.72380971 -57.02732397 274.98058517 -57.03515625 272.23730469 C-57.03702119 270.33587176 -57.03844474 268.43443834 -57.03944397 266.53300476 C-57.04326314 261.52707596 -57.05308834 256.52117614 -57.06414795 251.51525879 C-57.07437494 246.40763745 -57.07894435 241.30001144 -57.08398438 236.19238281 C-57.09471112 226.16958361 -57.11178038 216.14680594 -57.1328125 206.12402344 C-57.4628125 206.12402344 -57.7928125 206.12402344 -58.1328125 206.12402344 C-58.22256348 206.83606934 -58.31231445 207.54811523 -58.40478516 208.28173828 C-60.56466263 225.10080911 -63.4945729 241.3898021 -67.64550781 257.84106445 C-68.1328125 260.12402344 -68.1328125 260.12402344 -68.1328125 263.12402344 C-91.2328125 263.12402344 -114.3328125 263.12402344 -138.1328125 263.12402344 C-138.1328125 236.06402344 -138.1328125 209.00402344 -138.1328125 181.12402344 C-111.0728125 181.12402344 -84.0128125 181.12402344 -56.1328125 181.12402344 C-56.1328125 182.77402344 -56.1328125 184.42402344 -56.1328125 186.12402344 C-55.48423782 185.47528259 -54.83566315 184.82654175 -54.16743469 184.15814209 C-50.28919869 181.55854593 -47.08987768 181.5496008 -42.57885742 181.578125 C-41.72956665 181.56778732 -40.88027588 181.55744965 -40.00524902 181.54679871 C-37.20773263 181.51738241 -34.41094012 181.51587179 -31.61328125 181.51464844 C-29.6698519 181.49966599 -27.72643528 181.48293871 -25.78303528 181.46453857 C-20.6752158 181.42086012 -15.56756808 181.40086481 -10.45959473 181.38580322 C-5.24444419 181.36623399 -0.02947919 181.32426373 5.18554688 181.28417969 C15.41270319 181.20887215 25.639818 181.15858391 35.8671875 181.12402344 C35.26051846 185.40643301 34.6428923 189.68719618 34.0234375 193.96777344 C33.85360352 195.16756836 33.68376953 196.36736328 33.50878906 197.60351562 C31.58711773 210.8037813 28.65376279 223.66586922 23.46875 235.99511719 C22.72059062 238.64282408 22.727705 239.60766625 23.8671875 242.12402344 C25.61285904 244.13410451 27.33761373 245.9679937 29.2421875 247.81152344 C29.7371875 248.30974609 30.2321875 248.80796875 30.7421875 249.32128906 C33.09724163 251.64171005 34.68994078 253.0649412 37.8671875 254.12402344 C60.87346302 207.90787704 61.26362985 152.10413313 45.12109375 103.75683594 C34.60947327 73.92837018 17.37761565 48.98690366 -4.1328125 26.12402344 C-4.46023438 25.76953125 -4.46023438 25.76953125 -6.1171875 23.97558594 C-12.18162206 17.62607112 -19.14688001 12.4046988 -26.1328125 7.12402344 C-26.68710937 6.69831055 -27.24140625 6.27259766 -27.8125 5.83398438 C-104.1211206 -52.53845925 -216.21830642 -44.56717912 -285.9140625 20.11621094 Z M-35.1328125 217.12402344 C-35.1328125 264.97402344 -35.1328125 312.82402344 -35.1328125 362.12402344 C-27.31763724 355.42530179 -27.31763724 355.42530179 -23.7578125 351.63574219 C-23.37882812 351.24161133 -23.37882812 351.24161133 -21.4609375 349.24707031 C-19.89907063 347.61313744 -18.34705514 345.96973472 -16.8046875 344.31738281 C-13.42871844 340.83519704 -11.0983011 338.44619389 -6.4453125 336.89355469 C-2.49376985 337.16848513 -0.48128579 338.00340462 2.8671875 340.12402344 C4.39693117 342.47563012 5.52994401 344.52939575 6.66015625 347.05761719 C6.99113815 347.75761337 7.32212006 348.45760956 7.66313171 349.17881775 C8.74881525 351.48607485 9.80762463 353.80467047 10.8671875 356.12402344 C11.62405272 357.74219857 12.38270691 359.35953806 13.14306641 360.97607422 C15.11355838 365.17828609 17.05988628 369.39113738 18.99633789 373.60913086 C20.19335473 376.21629132 21.39422539 378.82165049 22.59570312 381.42675781 C23.37001188 383.10829705 24.14410834 384.78993407 24.91796875 386.47167969 C25.27111649 387.23843521 25.62426422 388.00519073 25.9881134 388.79518127 C28.01452254 393.21159037 29.972333 397.64953846 31.8671875 402.12402344 C36.60507915 400.68078875 40.85576901 398.75175611 45.2421875 396.49902344 C45.88285156 396.17417969 46.52351563 395.84933594 47.18359375 395.51464844 C48.74666251 394.72144937 50.30719372 393.92325313 51.8671875 393.12402344 C50.41357944 388.46888851 48.56999324 384.07350485 46.5234375 379.65527344 C46.1977478 378.94578552 45.87205811 378.23629761 45.53649902 377.50531006 C44.8413957 375.99191166 44.14494948 374.47912944 43.44726562 372.96691895 C42.35922004 370.6067405 41.27656454 368.24415701 40.1953125 365.88085938 C37.02682358 358.96085823 33.84284216 352.04977643 30.5859375 345.17089844 C30.11865234 344.17380859 29.65136719 343.17671875 29.16992188 342.14941406 C28.3282769 340.35634434 27.47611422 338.56815703 26.61132812 336.78613281 C24.39552325 332.0412941 23.30001037 328.47844559 23.8671875 323.12402344 C25.06568178 320.42741131 26.01394805 318.7348226 28.41894531 317.01318359 C32.16112899 315.65408577 35.83561236 315.76482081 39.7890625 315.70996094 C40.21905548 315.70027786 40.21905548 315.70027786 42.39508057 315.65127563 C45.13568271 315.5916053 47.87632714 315.54514484 50.6171875 315.49902344 C52.47788267 315.46083209 54.33856038 315.42177969 56.19921875 315.38183594 C60.75506614 315.28591409 65.31099629 315.20183676 69.8671875 315.12402344 C69.10510986 314.3626709 68.34303223 313.60131836 67.55786133 312.81689453 C65.63842785 310.8958936 63.72356501 308.97120809 61.81640625 307.03808594 C56.58298498 301.75370788 51.36480876 296.54653205 45.69140625 291.72949219 C42.94930564 289.31620878 40.42893922 286.69455253 37.8671875 284.09277344 C35.92827748 282.18415889 33.93019199 280.39691792 31.8671875 278.62402344 C28.35577102 275.6063999 25.11411348 272.39043263 21.8671875 269.09277344 C19.92827748 267.18415889 17.93019199 265.39691792 15.8671875 263.62402344 C12.35577102 260.6063999 9.11411348 257.39043263 5.8671875 254.09277344 C3.92827748 252.18415889 1.93019199 250.39691792 -0.1328125 248.62402344 C-3.64422898 245.6063999 -6.88588652 242.39043263 -10.1328125 239.09277344 C-12.69406509 236.57154042 -15.40125167 234.25107558 -18.12890625 231.91308594 C-20.88854072 229.44931871 -23.43601159 226.79986159 -25.98046875 224.11621094 C-28.79800508 221.50832794 -32.00871551 219.35552129 -35.1328125 217.12402344 Z " fill="#000000" transform="translate(394.1328125,74.8759765625)"/>
<path d="M0 0 C23.1 0 46.2 0 70 0 C70 27.39 70 54.78 70 83 C42.61 83 15.22 83 -13 83 C-8.61538462 17.23076923 -8.61538462 17.23076923 0 0 Z " fill="#000000" transform="translate(166,153)"/>
<path d="M0 0 C23.1 0 46.2 0 70 0 C76.97747693 27.90990772 76.97747693 27.90990772 78.25 36.1875 C78.32782715 36.67500732 78.32782715 36.67500732 78.72167969 39.14208984 C79.74678474 45.78378203 80.58053637 52.43833351 81.25 59.125 C81.29012207 59.52086304 81.29012207 59.52086304 81.49316406 61.52416992 C82.13618995 68.74774326 82 75.66023868 82 83 C54.94 83 27.88 83 0 83 C0 55.61 0 28.22 0 0 Z " fill="#000000" transform="translate(256,153)"/>
<path d="M0 0 C27.39 0 54.78 0 83 0 C83 27.06 83 54.12 83 82 C59.9 82 36.8 82 13 82 C10.49700089 73.86525291 8.14161272 66.03727937 6.4375 57.75 C6.22770508 56.73131836 6.01791016 55.71263672 5.80175781 54.66308594 C4.32600209 47.22518615 3.17221977 39.77587755 2.25 32.25 C2.13454834 31.31897461 2.01909668 30.38794922 1.90014648 29.42871094 C0.79118829 19.61203474 0.49602305 9.92046091 0 0 Z " fill="#000000" transform="translate(153,256)"/>
<path d="M0 0 C19.8 0 39.6 0 60 0 C69.35508533 17.54078499 69.35508533 17.54078499 72.1875 25.25 C72.51645264 26.13421631 72.84540527 27.01843262 73.18432617 27.92944336 C79.61266133 45.61564287 84 64.12429413 84 83 C60.24 83 36.48 83 12 83 C10.98979898 79.96939693 10.78978008 77.66605599 10.640625 74.48828125 C9.39515413 51.34519784 6.98460956 28.05190995 0.69921875 5.66796875 C0 3 0 3 0 0 Z " fill="#000000" transform="translate(346,153)"/>
<path d="M0 0 C0.52073341 0.00444122 0.52073341 0.00444122 3.15596008 0.0269165 C3.74645897 0.02706757 3.74645897 0.02706757 6.73474121 0.02783203 C7.37227577 0.0381546 7.37227577 0.0381546 10.59858704 0.09039307 C11.90390884 0.09605286 13.20923065 0.10171265 14.55410767 0.10754395 C18.02155775 0.12280415 21.48833578 0.16208775 24.95552063 0.20635986 C28.49465341 0.24730516 32.03389496 0.26555328 35.57319641 0.28570557 C42.51552948 0.32858275 49.45741661 0.39683791 56.39936829 0.48101807 C55.91142173 5.29892339 55.39971712 10.03955244 54.31343079 14.76617432 C54.10629456 15.69607178 53.89915833 16.62596924 53.68574524 17.58404541 C53.46749084 18.56067139 53.24923645 19.53729736 53.02436829 20.54351807 C48.55312865 41.3707163 47.03723579 62.1887405 45.39936829 83.48101807 C21.30936829 83.48101807 -2.78063171 83.48101807 -27.60063171 83.48101807 C-25.27307916 60.20549249 -25.27307916 60.20549249 -23.35063171 52.35601807 C-23.13374695 51.44553711 -22.91686218 50.53505615 -22.69340515 49.59698486 C-11.03131487 2.04037416 -11.03131487 2.04037416 0 0 Z " fill="#000000" transform="translate(88.60063171386719,152.51898193359375)"/>
<path d="M0 0 C24.09 0 48.18 0 73 0 C73.99 11.55 74.98 23.1 76 35 C78.07308076 48.57867897 80.1464412 61.92798616 83.43164062 75.24462891 C84 78 84 78 84 82 C64.2 82 44.4 82 24 82 C9.9515728 52.62601586 3.34456967 31.77341188 0 0 Z " fill="#000000" transform="translate(61,256)"/>
<path d="M0 0 C0 23.76 0 47.52 0 72 C-20.79 72 -41.58 72 -63 72 C-61.81735901 66.08679503 -59.53944995 61.34188226 -56.9375 55.9375 C-56.43943848 54.90270508 -55.94137695 53.86791016 -55.42822266 52.80175781 C-46.02714179 33.58835549 -24.86881476 0 0 0 Z " fill="#000000" transform="translate(236,62)"/>
<path d="M0 0 C20.79 0 41.58 0 63 0 C63 23.43 63 46.86 63 71 C44.99447628 68.42778233 31.53468512 55.03829312 21 41 C14.19276395 31.61126934 8.92918797 21.47053525 4 11 C3.54238281 10.02933594 3.08476562 9.05867188 2.61328125 8.05859375 C0 2.34605263 0 2.34605263 0 0 Z " fill="#000000" transform="translate(173,358)"/>
<path d="M0 0 C24.44036862 7.33211059 39.88322725 25.12037037 51.87207031 46.87109375 C61.04713115 64.18852459 61.04713115 64.18852459 63 72 C42.21 72 21.42 72 0 72 C0 48.24 0 24.48 0 0 Z " fill="#000000" transform="translate(256,62)"/>
<path d="M0 0 C20.46 0 40.92 0 62 0 C60.87466758 6.75199454 60.87466758 6.75199454 59.36328125 9.69921875 C59.20005371 10.02212891 59.20005371 10.02212891 58.37402344 11.65625 C58.0237207 12.3265625 57.67341797 12.996875 57.3125 13.6875 C56.94801758 14.39519531 56.58353516 15.10289062 56.20800781 15.83203125 C55.47593326 17.24853435 54.74017288 18.66313948 54.00048828 20.07568359 C53.1655227 21.6816374 52.35851709 23.30208861 51.55859375 24.92578125 C41.95443952 43.81872943 26.42193742 62.13723369 6.3125 70.0625 C3 71 3 71 0 71 C0 47.57 0 24.14 0 0 Z " fill="#000000" transform="translate(256,358)"/>
<path d="M0 0 C7.35993869 1.97269506 14.13701054 4.63974558 21 7.9375 C21.99676758 8.41622559 22.99353516 8.89495117 24.02050781 9.38818359 C37.83056583 16.19176535 50.45871168 24.81147396 62 35 C62.50305664 35.43747559 63.00611328 35.87495117 63.52441406 36.32568359 C70.07236318 42.04470291 76.13303415 48.03736384 81.8125 54.625 C82.33448975 55.22916748 82.85647949 55.83333496 83.39428711 56.45581055 C87 60.73992892 87 60.73992892 87 63 C69.84 63 52.68 63 35 63 C34.175 61.02 34.175 61.02 30 51 C22.81819313 34.78578415 14.7117221 19.4691418 3.33984375 5.76171875 C1.94305634 3.92512656 1.00420096 2.07128154 0 0 Z " fill="#000000" transform="translate(305,71)"/>
<path d="M0 0 C-1.33287262 3.82359419 -2.99346461 6.43861222 -5.625 9.5 C-10.3864766 15.31862754 -14.24232877 21.49746737 -18 28 C-18.66 29.14210938 -19.32 30.28421875 -20 31.4609375 C-25.73598816 41.79019742 -29.52103217 51.80258043 -34 63 C-51.16 63 -68.32 63 -86 63 C-84.08213202 58.20533006 -81.9698992 55.43100881 -78.5 51.8125 C-78.22941772 51.52665039 -78.22941772 51.52665039 -76.86010742 50.08007812 C-75.75844099 48.92059971 -74.65324205 47.76446681 -73.54443359 46.61181641 C-72.20859994 45.21770105 -70.89332889 43.80393704 -69.58203125 42.38671875 C-55.21913584 27.28219363 -22.3605294 0 0 0 Z " fill="#000000" transform="translate(186,71)"/>
<path d="M0 0 C17.16 0 34.32 0 52 0 C54.97 6.93 57.94 13.86 61 21 C75.00423955 49.37222559 75.00423955 49.37222559 84.66040039 58.58398438 C86 60 86 60 86 62 C80.38168032 61.41003105 75.76820874 59.38213465 70.6875 57.0625 C69.80956787 56.66281006 68.93163574 56.26312012 68.02709961 55.85131836 C54.23011742 49.44126557 41.72272248 41.67578491 30 32 C29.43716309 31.54399414 28.87432617 31.08798828 28.29443359 30.61816406 C18.09608468 22.33324945 7.30569609 13.04641333 0 2 C0 1.34 0 0.68 0 0 Z " fill="#000000" transform="translate(100,358)"/>
</svg>
