<?xml version="1.0" encoding="UTF-8"?>
<!-- Generator: visioncortex VTracer 0.6.12 -->
<svg version="1.1" xmlns="http://www.w3.org/2000/svg" width="512" height="512">
<path d="M0 0 C1.95242706 -0.00570914 3.90485078 -0.0126755 5.85726929 -0.02079773 C11.13835461 -0.03868475 16.41927337 -0.03756905 21.70037985 -0.03185534 C26.11867621 -0.02875684 30.53694089 -0.03486335 34.95523274 -0.04089409 C45.38359362 -0.05492328 55.81187256 -0.05339158 66.24023438 -0.04199219 C76.97733829 -0.03051424 87.71419232 -0.04458499 98.45126331 -0.07138866 C107.68981042 -0.09358293 116.9282793 -0.10017459 126.16685116 -0.09431225 C131.67579772 -0.0909502 137.18458416 -0.09330767 142.69350815 -0.11056328 C147.8761843 -0.12608961 153.05849182 -0.12201387 158.24115372 -0.10325813 C160.13571352 -0.09958789 162.03030099 -0.10263472 163.92483521 -0.11314392 C179.95660403 -0.19523764 191.7628673 1.74703407 203.66455078 13.31811523 C215.05052447 25.4277737 214.99612263 40.63185498 214.95649719 56.34968567 C214.95952166 58.05687062 214.96341261 59.76405423 214.96808976 61.47123545 C214.9783405 66.13962913 214.97619541 70.80794575 214.97190917 75.47634566 C214.96943661 80.52010203 214.97846268 85.5638401 214.98594666 90.60758972 C214.99868106 100.48015075 215.00048891 110.35268457 214.99814639 120.22525243 C214.99636164 128.25214267 214.99811625 136.27902467 215.00237083 144.30591393 C215.00296602 145.44938097 215.00356121 146.59284801 215.00417444 147.77096557 C215.00538622 150.09410646 215.00660035 152.41724735 215.00781681 154.74038824 C215.01868754 176.51580049 215.01653209 198.29119724 215.01043197 220.06661036 C215.00526345 239.97337415 215.01651739 259.88008899 215.03553019 279.7868431 C215.05491721 300.24274805 215.06316305 320.69862986 215.05940694 341.15454406 C215.05749618 352.63269168 215.05997023 364.11079765 215.07412148 375.58893776 C215.08604726 385.36063802 215.08742671 395.13227098 215.07533131 404.90397219 C215.06945102 409.88595731 215.06831968 414.86781943 215.08033371 419.8497963 C215.09122069 424.41762913 215.0880558 428.98523665 215.07407203 433.55305906 C215.07143283 435.19832503 215.07376698 436.84360881 215.08180789 438.48885725 C215.15454169 454.49200319 213.7681296 469.0374312 202.32080078 481.21655273 C190.17175792 492.51489675 177.15923679 492.8497799 161.39160156 492.80810547 C159.43917451 492.81381461 157.48675078 492.82078096 155.53433228 492.8289032 C150.25324695 492.84679022 144.97232819 492.84567452 139.69122171 492.83996081 C135.27292535 492.83686231 130.85466067 492.84296881 126.43636882 492.84899956 C116.00800794 492.86302874 105.579729 492.86149705 95.15136719 492.85009766 C84.41426328 492.8386197 73.67740924 492.85269046 62.94033825 492.87949413 C53.70179115 492.90168839 44.46332226 492.90828006 35.2247504 492.90241772 C29.71580384 492.89905567 24.2070174 492.90141314 18.69809341 492.91866875 C13.51541726 492.93419508 8.33310974 492.93011934 3.15044785 492.9113636 C1.25588804 492.90769335 -0.63869943 492.91074019 -2.53323364 492.92124939 C-17.1375764 492.9960337 -29.16112032 491.86008245 -40.30419922 481.40405273 C-40.94228516 480.8072168 -41.58037109 480.21038086 -42.23779297 479.59545898 C-51.3015918 470.21978751 -53.42572804 458.57993304 -53.43283367 445.98480511 C-53.43458671 445.27988321 -53.43633975 444.57496131 -53.43814591 443.84867814 C-53.44277871 441.49876404 -53.44034747 439.14891256 -53.43791199 436.79899597 C-53.43978133 435.09226329 -53.44208252 433.38553103 -53.44477731 431.67879945 C-53.45088643 426.99785454 -53.45076276 422.31692752 -53.44958293 417.63597953 C-53.44937871 412.58405335 -53.45489979 407.53213287 -53.4596405 402.48020935 C-53.46794259 392.58619151 -53.47069514 382.69217964 -53.47125288 372.79815861 C-53.47172822 364.75544078 -53.47378387 356.71272491 -53.47695351 348.67000771 C-53.48575863 325.86325743 -53.49037307 303.05651186 -53.48962303 280.24975988 C-53.48958308 279.02055689 -53.48954312 277.7913539 -53.48950195 276.52490234 C-53.48946107 275.29419726 -53.48942019 274.06349217 -53.48937807 272.79549298 C-53.48897157 252.84772405 -53.49854247 232.89997399 -53.51264032 212.95221051 C-53.52700445 192.46590797 -53.53391049 171.97961464 -53.53304654 151.49330693 C-53.5327146 139.99342096 -53.53546051 128.49355477 -53.54622459 116.99367332 C-53.55533003 107.20316301 -53.55750445 97.41268146 -53.55071517 87.62216874 C-53.54745029 82.62844819 -53.54739219 77.63478281 -53.55606842 72.6410675 C-53.56393559 68.06591508 -53.56249973 63.49086158 -53.55378429 58.91571156 C-53.5522498 57.26435227 -53.55406354 55.61298559 -53.55964436 53.96163502 C-53.60854756 38.45937524 -52.73436578 23.80582165 -41.42919922 11.96655273 C-28.91376231 0.54147586 -16.199224 -0.04281513 0 0 Z M-27.30419922 29.40405273 C-31.08133712 33.99057733 -31.42986116 37.43440045 -31.43562698 43.315732 C-31.43767962 44.0265129 -31.43973225 44.73729381 -31.44184709 45.46961352 C-31.44753582 47.86951475 -31.44605754 50.26935893 -31.44464111 52.66926575 C-31.44722367 54.39999558 -31.45023653 56.13072483 -31.45364451 57.86145324 C-31.46173053 62.63175549 -31.46350497 67.40204271 -31.46424198 72.172351 C-31.46608974 77.31152446 -31.47363565 82.45069007 -31.4803772 87.58985901 C-31.49397214 98.83352623 -31.49998697 110.07718989 -31.50438786 121.32086396 C-31.50714817 128.33774215 -31.51138511 135.35461895 -31.51589203 142.3714962 C-31.52808593 161.78872116 -31.53838519 181.20594501 -31.54176712 200.62317371 C-31.54198669 201.8664557 -31.54220625 203.1097377 -31.54243247 204.3906949 C-31.54265075 205.636996 -31.54286903 206.8832971 -31.54309392 208.1673649 C-31.54353739 210.69295681 -31.54398395 213.21854872 -31.54443359 215.74414062 C-31.54465502 216.99692846 -31.54487645 218.2497163 -31.54510459 219.5404674 C-31.54905399 239.84759945 -31.5665118 260.15469565 -31.58979312 280.46181384 C-31.61348772 301.29710787 -31.6259681 322.13238388 -31.62713504 342.9676916 C-31.62805283 354.67150778 -31.63383144 366.37527724 -31.65195465 378.07908058 C-31.66733009 388.04370303 -31.67249122 398.00826432 -31.66421655 407.97289637 C-31.66030104 413.05915088 -31.66128346 418.14528214 -31.6752739 423.23152161 C-31.68795884 427.88560182 -31.6868631 432.5394655 -31.67468318 437.19354519 C-31.67271678 438.87928667 -31.67584788 440.56504322 -31.68452755 442.25076351 C-31.695566 444.53905682 -31.68817068 446.82657858 -31.67613602 449.11485004 C-31.67673311 450.38680581 -31.67733019 451.65876158 -31.67794538 452.96926147 C-30.98467447 459.34053995 -28.02204152 463.24785832 -23.30419922 467.40405273 C-17.770074 471.18345532 -13.25264129 471.55240001 -6.66387939 471.54449463 C-6.27705533 471.54598019 -6.27705533 471.54598019 -4.31949115 471.55349803 C-1.72486467 471.56217559 0.86971562 471.56369248 3.46435547 471.56518555 C5.32386371 471.5698144 7.18337101 471.57483915 9.0428772 471.58023071 C14.09673496 471.59335053 19.15057943 471.5997989 24.20445156 471.60424137 C27.36243048 471.60717287 30.52040578 471.61127783 33.67838287 471.61574554 C43.56047256 471.62941958 53.44255395 471.63908661 63.32465243 471.64294744 C74.72920678 471.64742762 86.13364124 471.66497413 97.53815913 471.69394803 C106.35527948 471.71557031 115.17236611 471.72565202 123.98951268 471.72698855 C129.25472068 471.72803622 134.51981597 471.73393586 139.78499603 471.75180817 C144.73933677 471.76829816 149.69348018 471.7704398 154.64783859 471.76166916 C156.46345168 471.76089928 158.27907541 471.76523507 160.09466171 471.77512741 C162.57919024 471.78786765 165.06302206 471.7819591 167.54754639 471.77154541 C167.90417087 471.77557361 167.90417087 471.77557361 169.70890689 471.79595876 C176.23700401 471.73225564 181.5780544 470.23943293 186.50830078 465.96655273 C191.74720074 459.82955564 192.81919179 456.55599341 192.82722855 448.40335369 C192.82825486 448.04922449 192.82825486 448.04922449 192.83344865 446.25711611 C192.83912589 443.87180742 192.83766051 441.48655634 192.83624268 439.10124207 C192.83882589 437.37861146 192.84183893 435.65598146 192.84524608 433.93335229 C192.85332435 429.19004313 192.85510611 424.4467491 192.85584354 419.70343387 C192.85769264 414.59152563 192.8652392 409.47962526 192.87197876 404.36772156 C192.88556803 393.18602791 192.8915876 382.00433785 192.89598942 370.82263732 C192.89875059 363.84343562 192.90298768 356.86423532 192.90749359 349.88503456 C192.91968656 330.56899572 192.92998613 311.252958 192.93336868 291.9369154 C192.93358825 290.70035531 192.93380782 289.46379523 192.93403403 288.18976362 C192.93425231 286.95021598 192.93447059 285.71066834 192.93469548 284.43355864 C192.93513895 281.92168883 192.93558551 279.40981903 192.93603516 276.89794922 C192.93625659 275.65197042 192.93647802 274.40599163 192.93670616 273.1222559 C192.94065551 252.92579385 192.95811359 232.72936785 192.98139468 212.53291973 C193.00509345 191.80720041 193.01756985 171.0814992 193.0187366 150.35576612 C193.01965414 138.71509006 193.02542638 127.07446098 193.04355621 115.43379784 C193.05893724 105.5230269 193.06408945 95.61231746 193.05581811 85.70153686 C193.05190465 80.64350496 193.05287514 75.585597 193.06687546 70.52758026 C193.07957248 65.89815958 193.07845391 61.26895649 193.06628475 56.6395363 C193.06432046 54.96390104 193.06743979 53.28825059 193.07612911 51.61263671 C193.08719066 49.33558499 193.07975551 47.0593054 193.06773758 44.7822752 C193.06803612 44.14979597 193.06803612 44.14979597 193.06954694 40.94906777 C192.36965346 34.31051681 189.81125299 29.78872605 184.69580078 25.40405273 C179.16167556 21.62465015 174.64424285 21.25570546 168.05548096 21.26361084 C167.6686569 21.26212528 167.6686569 21.26212528 165.71109271 21.25460744 C163.11646623 21.24592988 160.52188594 21.24441299 157.92724609 21.24291992 C156.06773785 21.23829107 154.20823055 21.23326632 152.34872437 21.22787476 C147.29486661 21.21475494 142.24102213 21.20830657 137.18715 21.2038641 C134.02917108 21.2009326 130.87119578 21.19682764 127.71321869 21.19235992 C117.83112901 21.17868589 107.94904762 21.16901886 98.06694913 21.16515803 C86.66239478 21.16067785 75.25796032 21.14313134 63.85344243 21.11415744 C55.03632209 21.09253516 46.21923546 21.08245345 37.40208888 21.08111691 C32.13688088 21.08006925 26.8717856 21.07416961 21.60660553 21.0562973 C16.65226479 21.03980731 11.69812138 21.03766567 6.74376297 21.04643631 C4.92814988 21.04720619 3.11252615 21.0428704 1.29693985 21.03297806 C-1.18758868 21.02023782 -3.6714205 21.02614637 -6.15594482 21.03656006 C-6.51256931 21.03253186 -6.51256931 21.03253186 -8.31730533 21.01214671 C-16.30138701 21.09005776 -22.09977251 23.30743858 -27.30419922 29.40405273 Z " fill="#000000" transform="translate(175.30419921875,9.595947265625)"/>
<path d="M0 0 C1.36710892 -0.00269807 2.73421597 -0.0065831 4.10131836 -0.01159668 C6.95933394 -0.01747711 9.81684769 -0.00897682 12.67480469 0.00976562 C16.32667489 0.03255548 19.97736905 0.0194244 23.62919617 -0.00452423 C26.45008097 -0.01902235 29.27068985 -0.01435813 32.09158325 -0.00401306 C34.08897674 -0.00007109 36.08638122 -0.01215657 38.08374023 -0.02453613 C49.30864993 0.09133343 49.30864993 0.09133343 54.0625 4.53125 C57.49167072 8.23114473 58.36219749 11.1104849 58.5625 16.03125 C58.30830368 22.27600617 56.32472739 25.41841499 51.78515625 29.65820312 C46.60988782 32.98919408 40.03763166 32.09914628 34.125 32.0625 C32.75789108 32.06519807 31.39078403 32.0690831 30.02368164 32.07409668 C27.16566606 32.07997711 24.30815231 32.07147682 21.45019531 32.05273438 C17.79832511 32.02994452 14.14763095 32.0430756 10.49580383 32.06702423 C7.67491903 32.08152235 4.85431015 32.07685813 2.03341675 32.06651306 C0.03602326 32.06257109 -1.96138122 32.07465657 -3.95874023 32.08703613 C-15.18364993 31.97116657 -15.18364993 31.97116657 -19.9375 27.53125 C-23.36667072 23.83135527 -24.23719749 20.9520151 -24.4375 16.03125 C-24.18330368 9.78649383 -22.19972739 6.64408501 -17.66015625 2.40429688 C-12.48488782 -0.92669408 -5.91263166 -0.03664628 0 0 Z " fill="#000000" transform="translate(238.9375,50.46875)"/>
</svg>
