<?xml version="1.0" encoding="UTF-8"?>
<!-- Generator: visioncortex VTracer 0.6.12 -->
<svg version="1.1" xmlns="http://www.w3.org/2000/svg" width="512" height="512">
<path d="M0 0 C0.92296875 0.51949219 1.8459375 1.03898437 2.796875 1.57421875 C3.52390625 2.04472656 4.2509375 2.51523437 5 3 C5 3.66 5 4.32 5 5 C3.81664062 4.96519531 2.63328125 4.93039062 1.4140625 4.89453125 C-20.11539855 4.44808877 -20.11539855 4.44808877 -29 12 C-30.5625 14.4375 -30.5625 14.4375 -31 17 C-27.92763378 23.57029669 -22.44318708 25.40072069 -16 28 C-6.08882528 31.58602934 4.1780124 33.53567105 14.5625 35.1875 C15.52236816 35.34234863 16.48223633 35.49719727 17.47119141 35.65673828 C38.22154383 38.72702871 59.11814012 39.37756787 80.0625 39.3125 C80.66025742 39.31175476 80.66025742 39.31175476 83.68527222 39.3079834 C110.13088243 39.24892203 136.10012097 37.74263216 162 32 C162.70350586 31.84418457 163.40701172 31.68836914 164.13183594 31.52783203 C178.34122211 28.2765318 195.45780479 23.81329281 204 11 C206.89789886 6.17016857 205.76615375 1.33201593 205 -4 C217.99727229 1.57392903 217.99727229 1.57392903 221 8 C222.07580322 13.70097179 221.95654472 19.11964799 219.0625 24.25 C201.25293411 48.06168479 163.87074896 52.98067459 136.671875 56.97265625 C78.66745814 64.7762759 -11.31626171 72.07175519 -61 36 C-65.36051185 31.9153729 -69.54199475 27.52557533 -70.3359375 21.4140625 C-70.42010004 15.40485679 -70.27316611 11.59365356 -66 7 C-49.53166756 -7.46444243 -18.58569827 -13.35440907 0 0 Z " fill="#1464C0" transform="translate(166,377)"/>
<path d="M0 0 C7.54746991 6.44296212 12.36722378 20.44535502 13.17578125 30.09863281 C14.59197131 54.08282304 5.09124187 72.99381929 -10.42285156 90.61621094 C-13.37939765 93.9089529 -16.40356475 97.13518032 -19.44580078 100.34863281 C-21.57089488 102.60658702 -23.66360224 104.89354946 -25.75854492 107.17944336 C-32.80415043 114.86706791 -32.80415043 114.86706791 -36.5625 118.4375 C-46.0903988 127.87198802 -57.95985212 141.62086557 -58.265625 155.62109375 C-58.19937159 161.00613183 -56.875504 165.1613799 -54.75 170.0625 C-54.3979248 170.90466064 -54.04584961 171.74682129 -53.68310547 172.61450195 C-46.27946652 190.02395512 -37.9918711 206.92900379 -28 223 C-32.00488785 223 -33.9303306 221.07071487 -36.9375 218.6875 C-37.5145166 218.23528076 -38.0915332 217.78306152 -38.68603516 217.31713867 C-44.73821123 212.51129074 -50.42491924 207.34528352 -56 202 C-56.60134766 201.43120117 -57.20269531 200.86240234 -57.82226562 200.27636719 C-72.40116548 186.43460272 -90.0894208 167.26890104 -91.3359375 145.984375 C-91.74533954 126.97833025 -83.54118664 115.31249584 -70.7890625 101.84765625 C-64.27851592 95.20033348 -57.20930931 89.30162197 -49.98828125 83.44921875 C-40.777858 75.90028362 -31.71658194 68.11398865 -23 60 C-22.09507812 59.16082031 -21.19015625 58.32164063 -20.2578125 57.45703125 C-9.40308544 47.03829738 1.02161091 34.33339555 2.16796875 18.7109375 C2.22170996 12.2834888 1.33716094 6.27988082 0 0 Z " fill="#F44235" transform="translate(281,42)"/>
<path d="M0 0 C-2.86170409 1.90780273 -5.01281219 2.7560776 -8.26171875 3.76953125 C-9.29876953 4.10146484 -10.33582031 4.43339844 -11.40429688 4.77539062 C-13.57197973 5.46012566 -15.74123143 6.13991625 -17.91210938 6.81445312 C-33.15990286 11.72124769 -33.15990286 11.72124769 -36.2097168 17.15551758 C-36.47051025 17.76419678 -36.73130371 18.37287598 -37 19 C16.52286575 28.68161053 75.71427323 22.95533705 129 14 C127.68564758 16.9885823 126.3953596 18.78274897 123.83984375 20.8046875 C123.52499023 21.05541016 123.52499023 21.05541016 121.93164062 22.32421875 C121.27357422 22.83597656 120.61550781 23.34773438 119.9375 23.875 C119.30650391 24.37902344 118.67550781 24.88304687 118.02539062 25.40234375 C116.04038975 26.96871174 114.02860029 28.49057658 112 30 C111.28408691 30.54285645 110.56817383 31.08571289 109.83056641 31.64501953 C104.50342882 35.47408169 99.95672453 37.17340515 93.5 38.125 C92.56696045 38.27694824 91.6339209 38.42889648 90.67260742 38.58544922 C87.45255903 39.09143833 84.22841871 39.55057243 81 40 C79.78650879 40.17273438 78.57301758 40.34546875 77.32275391 40.5234375 C-42.41349663 57.22026971 -42.41349663 57.22026971 -78.4140625 33.24609375 C-81.73950913 30.63324282 -82.86885399 29.52458404 -83.9375 25.25 C-84.25531895 21.48453636 -83.5664032 18.7882377 -81.390625 15.58984375 C-71.14135388 3.87227817 -49.4668298 2.71157761 -35 1 C-33.88367188 0.86722656 -32.76734375 0.73445313 -31.6171875 0.59765625 C-21.12428611 -0.40231999 -10.52884891 -0.09214692 0 0 Z " fill="#1464C0" transform="translate(208,257)"/>
<path d="M0 0 C0 0.66 0 1.32 0 2 C-1.65714156 3.23830358 -3.38028161 4.38848228 -5.125 5.5 C-54.716659 37.80442576 -54.716659 37.80442576 -63 58 C-64.91511148 70.25671349 -58.50470544 80.15297487 -52.88842773 90.49414062 C-46.49742087 102.38694421 -43.03524945 113.65691098 -46.86328125 127.01171875 C-52.47613368 141.76715555 -63.21838219 148.9330154 -76.96875 155.19775391 C-80.24447539 156.49150795 -83.56318463 157.24436091 -87 158 C-86.63648438 157.52691406 -86.27296875 157.05382812 -85.8984375 156.56640625 C-71.55263166 137.69615395 -71.55263166 137.69615395 -71.875 127.3125 C-73.45154804 116.55878284 -80.39427504 107.22985063 -86.42724609 98.48803711 C-94.30955941 86.87159584 -97.66692703 74.94803773 -95.5390625 60.97265625 C-91.71227838 43.84216967 -81.88818108 30.44784075 -67.31347656 20.89453125 C-48.45967219 8.94393161 -22.59357636 0 0 0 Z " fill="#F44235" transform="translate(350,117)"/>
<path d="M0 0 C-0.144375 0.2784375 -0.144375 0.2784375 -0.875 1.6875 C-2.0413253 4.08494645 -3.0339881 6.51596939 -4 9 C3.63354685 17.40745482 16.30298564 18.49951356 27.12335205 19.12219238 C32.53995877 19.33020316 37.9551674 19.33714205 43.375 19.3125 C44.20804657 19.31067719 45.04109314 19.30885437 45.89938354 19.30697632 C64.8555375 19.2373721 82.96776905 17.50192686 101.31860352 12.53833008 C102.12483154 12.3245874 102.93105957 12.11084473 103.76171875 11.890625 C104.46256592 11.69500977 105.16341309 11.49939453 105.88549805 11.29785156 C110.81703791 10.60318829 114.22485823 12.50200851 118.30078125 15.08984375 C118.78901367 15.39954102 118.78901367 15.39954102 121.25976562 16.96679688 C122.26716797 17.61712891 123.27457031 18.26746094 124.3125 18.9375 C125.33923828 19.58396484 126.36597656 20.23042969 127.42382812 20.89648438 C133.05299805 24.49840506 133.05299805 24.49840506 135 26 C135 26.66 135 27.32 135 28 C88.08702077 44.86328018 25.29449538 54.34094915 -22 33 C-31.08128608 28.0708868 -31.08128608 28.0708868 -33 23 C-33 17.78245903 -31.68055711 14.50375134 -28.19921875 10.76953125 C-20.4352757 4.52252201 -9.98093077 0 0 0 Z " fill="#1464C0" transform="translate(188,304)"/>
<path d="M0 0 C-0.33128906 0.61746094 -0.66257813 1.23492187 -1.00390625 1.87109375 C-2 4 -2 4 -1.9375 6.0625 C-0.48731564 9.05954768 0.93030465 9.64933405 4 11 C12.38006696 13.12813862 20.70806388 13.35013922 29.3125 13.3125 C29.96931763 13.31040527 29.96931763 13.31040527 33.29321289 13.29980469 C48.76578291 13.16361926 63.76147162 11.34129416 78.61328125 6.96484375 C79.73089844 6.64644531 80.84851563 6.32804687 82 6 C82.65210449 5.72406006 83.30420898 5.44812012 83.97607422 5.16381836 C87.88785388 3.77812014 90.08211179 3.59737481 93.95043945 5.29418945 C97.24761695 7.29247108 100.37094473 9.43541361 103.5 11.6875 C104.60515695 12.44441908 105.71191862 13.19900075 106.8203125 13.95117188 C114.83921425 19.51764276 114.83921425 19.51764276 116 23 C79.4175956 42.82398451 29.47497237 46.67866591 -10.5625 36.0546875 C-18.74933457 33.50633458 -25.16865668 30.24701498 -30 23 C-30.67364746 18.80841578 -30.36587145 16.71710804 -28.4375 12.9375 C-20.75058799 3.67378552 -12.16913596 -0.78510555 0 0 Z " fill="#1464C0" transform="translate(200,349)"/>
<path d="M0 0 C0.33 0 0.66 0 1 0 C2.0086693 8.74180058 -1.59385278 15.62564324 -6.91015625 22.453125 C-31.24687938 48.47294861 -74.34410337 55.23126368 -108 58 C-109.21171875 58.11085938 -110.4234375 58.22171875 -111.671875 58.3359375 C-161.04814146 62.19020303 -223.39739418 57.84693776 -268 34 C-264.13415572 32.71138524 -261.97588308 33.4448255 -257.9921875 34.29296875 C-256.53161345 34.59546597 -255.07091426 34.89735941 -253.61010742 35.19873047 C-252.83863373 35.36032654 -252.06716003 35.52192261 -251.27230835 35.68841553 C-237.96967238 38.45782942 -224.68413187 40.79127013 -211.1875 42.375 C-209.88087402 42.5299292 -208.57424805 42.6848584 -207.22802734 42.84448242 C-191.13087953 44.65677825 -175.18311052 45.23872962 -159 45.25 C-158.495327 45.25050354 -158.495327 45.25050354 -155.94137573 45.25305176 C-138.44799684 45.24131112 -121.34326525 44.39859168 -104 42 C-102.97551758 41.86078125 -101.95103516 41.7215625 -100.89550781 41.578125 C-65.64058653 36.58954787 -25.85559636 25.97259001 0 0 Z " fill="#1464C0" transform="translate(415,411)"/>
<path d="M0 0 C8.18334202 5.53723143 12.73714484 11.09034558 15.20703125 20.69921875 C18.04563499 35.71057367 14.12338119 49.75761868 5.65625 62.2421875 C-5.69243621 76.87161486 -26.43025822 86.09516121 -44.5 88.8515625 C-47.02027548 89.08773722 -49.51300797 89.2652578 -52.04296875 89.32421875 C-49.19349129 86.36896023 -46.20330219 83.80106469 -42.98046875 81.26171875 C-28.72658609 69.64955568 -13.47576889 54.20461951 -10.04296875 35.32421875 C-9.53659262 29.06356843 -9.21449238 23.58837376 -13.04296875 18.32421875 C-18.80329457 12.19311333 -24.16935539 8.55579433 -32.66015625 8.15234375 C-36.1274115 8.13839101 -39.57844898 8.19283949 -43.04296875 8.32421875 C-43.04296875 7.66421875 -43.04296875 7.00421875 -43.04296875 6.32421875 C-32.36287905 -2.91091764 -12.78572222 -6.96736297 0 0 Z " fill="#1464C0" transform="translate(385.04296875,259.67578125)"/>
</svg>
