<?xml version="1.0" encoding="UTF-8"?>
<!-- Generator: visioncortex VTracer 0.6.12 -->
<svg version="1.1" xmlns="http://www.w3.org/2000/svg" width="512" height="512">
<path d="M0 0 C1.01607834 0.49954193 2.03215668 0.99908386 3.07902527 1.51376343 C6.29785906 3.09692472 9.51429277 4.68488487 12.73046875 6.2734375 C16.94441815 8.35077756 21.15940542 10.42600073 25.375 12.5 C25.89615387 12.75650581 25.89615387 12.75650581 28.5335083 14.05458069 C37.55032868 18.48474141 46.60863454 22.82507264 55.67749023 27.14746094 C62.1660551 30.24037653 68.63450188 33.37412165 75.0993042 36.5163269 C78.57450915 38.20525796 82.05102418 39.89148969 85.52734375 41.578125 C86.22834198 41.91829147 86.92934021 42.25845795 87.65158081 42.6089325 C94.25120537 45.81110843 100.8533732 49.00799449 107.45837402 52.19906616 C109.27256603 53.07607451 111.0860221 53.95459079 112.89941406 54.83325195 C118.14620185 57.37032583 123.39899506 59.88486873 128.69921875 62.30859375 C129.5701416 62.70957275 130.44106445 63.11055176 131.33837891 63.52368164 C132.89596017 64.23740522 134.45772179 64.94213008 136.02490234 65.63452148 C145.31615788 69.89930627 149.96703141 75.24208346 153.91796875 84.6484375 C155.10738293 88.36846712 155.9732385 92.12795181 156.80859375 95.94140625 C157.06682922 97.06894821 157.3250647 98.19649017 157.59112549 99.35820007 C158.31057316 102.51269836 159.01821564 105.66956617 159.7203064 108.82796478 C160.48465058 112.25640201 161.26166497 115.68196986 162.03710938 119.10791016 C163.08881653 123.75916784 164.1379985 128.41097008 165.1809082 133.06420898 C167.72289494 144.39949169 170.30803772 155.72435572 172.91578293 167.04469013 C175.2272536 177.07914967 177.52669794 187.11631622 179.81840897 197.15530682 C181.25926866 203.46528496 182.70535482 209.77396272 184.16369629 216.07992554 C185.55688414 222.10661304 186.9336247 228.13683976 188.29866791 234.16996193 C188.81008567 236.41739051 189.32725716 238.6635186 189.85056305 240.90820885 C190.57414522 244.016063 191.27672176 247.1279897 191.97460938 250.24169922 C192.18843891 251.13809711 192.40226845 252.03449499 192.62257767 252.95805645 C194.40963467 261.1172709 194.68141131 269.91523075 190.453125 277.38671875 C186.60454548 283.05676339 182.24754715 288.34359571 177.91796875 293.6484375 C177.39992676 294.28346191 176.88188477 294.91848633 176.34814453 295.57275391 C175.82591309 296.2126123 175.30368164 296.8524707 174.765625 297.51171875 C174.23710937 298.15939209 173.70859375 298.80706543 173.1640625 299.47436523 C172.07490627 300.8090737 170.98505168 302.14321256 169.89453125 303.47680664 C165.98915877 308.27294864 162.21238771 313.15404823 158.48046875 318.0859375 C153.46232832 324.71566572 148.25494314 331.15888022 142.93994141 337.55224609 C138.65187061 342.72164057 134.54183352 347.99291093 130.4765625 353.33984375 C127.53723055 357.17461677 124.47698348 360.90895259 121.41796875 364.6484375 C116.66520691 370.45966566 112.05144622 376.34975623 107.5 382.3203125 C104.08441411 386.76070742 100.51363729 391.07503157 96.95849609 395.40380859 C94.04975409 398.96387631 91.20656738 402.5583914 88.4453125 406.234375 C88.16030884 406.61352051 88.16030884 406.61352051 86.71801758 408.53222656 C85.63645177 409.97935877 84.56155895 411.43151353 83.49487305 412.88964844 C78.41125591 419.69416595 73.16482455 424.95035702 64.91796875 427.6484375 C62.18497217 427.9228403 59.68686406 428.05922379 56.96157837 428.03611755 C56.57586723 428.03881032 56.57586723 428.03881032 54.6239351 428.05243737 C52.05462622 428.06667574 49.48583555 428.05962355 46.91650391 428.05249023 C45.06802457 428.058196 43.21954876 428.06516106 41.37107849 428.07328796 C36.360667 428.09121264 31.35043072 428.09005214 26.33999681 428.08434558 C22.15270301 428.08125242 17.9654428 428.08734768 13.77815378 428.09338433 C3.89699591 428.10742598 -5.9840755 428.10587153 -15.86523438 428.09448242 C-26.04850421 428.08300423 -36.23151058 428.09707272 -46.41474569 428.1238789 C-55.1674155 428.14605398 -63.92000272 428.15266911 -72.67269862 428.14680248 C-77.89599264 428.14343572 -83.11911783 428.14582928 -88.34238815 428.16305351 C-93.25580797 428.1785491 -98.16883838 428.17453803 -103.08224297 428.15574837 C-104.88130686 428.15206959 -106.68039977 428.15515016 -108.47943687 428.16563416 C-119.42490249 428.22452951 -128.32080804 428.08997381 -136.83203125 420.4609375 C-141.22324346 415.7746636 -145.02653052 410.61074918 -148.88183594 405.48364258 C-152.81762185 400.25561821 -156.89020764 395.17291554 -161.08203125 390.1484375 C-165.72028874 384.57958237 -170.21317065 378.93104624 -174.58203125 373.1484375 C-179.57721469 366.53700827 -184.76339266 360.11584183 -190.06030273 353.74438477 C-194.34823871 348.57502975 -198.45823617 343.3038724 -202.5234375 337.95703125 C-205.46276945 334.12225823 -208.52301652 330.38792241 -211.58203125 326.6484375 C-216.33135122 320.84141773 -220.94342727 314.95709111 -225.48828125 308.98828125 C-227.89577883 305.85759397 -230.39274829 302.80548998 -232.90112305 299.75537109 C-237.6730967 293.95137583 -242.35583915 288.10617971 -246.76953125 282.0234375 C-247.17945313 281.46793213 -247.589375 280.91242676 -248.01171875 280.34008789 C-253.76407659 272.26985377 -254.04800814 264.10009169 -252.60962105 254.49326134 C-251.92813754 251.11866309 -251.17060043 247.77116805 -250.37915039 244.4206543 C-250.09124634 243.1550618 -249.80334229 241.8894693 -249.50671387 240.58552551 C-248.72231544 237.13882441 -247.92199363 233.69600351 -247.11861348 230.25368476 C-246.26855367 226.59860255 -245.43354945 222.94008123 -244.5967865 219.28193665 C-243.00301001 212.32462072 -241.39596305 205.37044167 -239.78404754 198.41730863 C-237.98533247 190.65556115 -236.20123103 182.89048126 -234.41853452 175.12504172 C-232.18512525 165.39634789 -229.94930127 155.66825174 -227.69424438 145.94454956 C-227.03325569 143.09374105 -226.37230539 140.24292365 -225.71142578 137.39208984 C-225.55197896 136.70442024 -225.39253214 136.01675064 -225.2282536 135.30824256 C-223.18899417 126.50773178 -221.19216306 117.69894018 -219.24560547 108.87744141 C-218.64285026 106.17048151 -218.03913471 103.46373769 -217.43511772 100.7570591 C-216.91355373 98.39673223 -216.40812084 96.03336939 -215.90357971 93.6693573 C-213.55591878 82.98071841 -210.32705842 74.95843119 -201.08203125 68.6484375 C-197.49796152 66.57280737 -193.81344031 64.75538824 -190.08203125 62.9609375 C-189.02169678 62.44112305 -187.9613623 61.92130859 -186.86889648 61.38574219 C-183.61249438 59.79414214 -180.34884961 58.21853237 -177.08203125 56.6484375 C-176.14762207 56.19839355 -175.21321289 55.74834961 -174.25048828 55.28466797 C-169.65148511 53.07304808 -165.04596611 50.87541577 -160.4375 48.68359375 C-152.92583573 45.10517883 -145.44190062 41.4699543 -137.95703125 37.8359375 C-135.11594496 36.45690856 -132.27479049 35.07802014 -129.43359375 33.69921875 C-128.7314122 33.35844299 -128.02923065 33.01766724 -127.30577087 32.66656494 C-119.13021521 28.69987075 -110.94714937 24.74878099 -102.76196289 20.80200195 C-96.13682071 17.60737176 -89.51569522 14.40475029 -82.89982605 11.190979 C-77.48600399 8.56315152 -72.05849097 5.96442383 -66.63085938 3.36523438 C-63.0632532 1.63935335 -59.51775786 -0.12686547 -55.97265625 -1.8984375 C-53.69705382 -3.0087132 -51.4210297 -4.11812516 -49.14453125 -5.2265625 C-48.6390979 -5.48574463 -48.6390979 -5.48574463 -46.08129883 -6.79736328 C-28.96712279 -15.00416115 -15.67416116 -7.76675908 0 0 Z M-38.08203125 46.6484375 C-40.81813529 50.16628555 -40.57061461 54.39488826 -40.08203125 58.6484375 C-39.6361316 60.34503128 -39.15409733 62.03236687 -38.64453125 63.7109375 C-36.42496442 71.32543233 -34.18302212 81.2554718 -37.39453125 88.8359375 C-37.95140625 89.7640625 -38.50828125 90.6921875 -39.08203125 91.6484375 C-40.90597453 94.912336 -41.16166557 96.91175009 -41.08203125 100.6484375 C-41.65566406 100.66261719 -42.22929687 100.67679688 -42.8203125 100.69140625 C-69.68582003 102.19978831 -94.72499202 115.49369884 -114.08203125 133.6484375 C-115.23703125 133.1946875 -116.39203125 132.7409375 -117.58203125 132.2734375 C-120.42218586 131.18337816 -123.09276056 130.43223584 -126.08203125 129.8984375 C-136.62285376 127.36616959 -144.91454804 114.5434418 -150.85546875 106.1796875 C-152.08203125 104.6484375 -152.08203125 104.6484375 -154.08203125 103.6484375 C-159.07894772 103.27131173 -162.0727085 103.55553138 -166.08203125 106.6484375 C-168.56406489 110.37148795 -168.8280546 113.3362586 -168.08203125 117.6484375 C-164.818404 123.59290143 -160.38147295 124.94192412 -154.22265625 127.30078125 C-144.61997005 131.4213369 -136.95480209 137.82635236 -132.87890625 147.46484375 C-132.6159375 148.18542969 -132.35296875 148.90601563 -132.08203125 149.6484375 C-131.80746094 150.27878906 -131.53289062 150.90914063 -131.25 151.55859375 C-130.97953136 154.92372682 -132.78834192 156.78188346 -134.64453125 159.5234375 C-145.59570883 176.43035062 -152.36441132 197.53140611 -152.01953125 217.75 C-152.00237061 218.83337646 -151.98520996 219.91675293 -151.9675293 221.03295898 C-151.919409 223.21028182 -151.84593253 225.387213 -151.74536133 227.56274414 C-151.67103299 230.33744574 -151.63373244 232.90866941 -152.08203125 235.6484375 C-154.4296875 237.6953125 -154.4296875 237.6953125 -157.08203125 238.6484375 C-157.94828125 239.4940625 -158.81453125 240.3396875 -159.70703125 241.2109375 C-167.18848451 247.4050584 -178.62645764 245.81033905 -187.73266602 245.48754883 C-192.73678978 245.37108822 -195.99550172 245.39375094 -200.08203125 248.6484375 C-200.37078125 248.8546875 -200.37078125 248.8546875 -201.83203125 249.8984375 C-203.88993076 252.77949682 -204.02274018 255.15026452 -204.08203125 258.6484375 C-202.3247582 262.30356544 -200.60184605 264.24950986 -197.39453125 266.7109375 C-191.05604139 268.50484973 -185.78727695 265.05370828 -180.20703125 262.1484375 C-172.13930818 257.99537943 -162.91607276 254.78154422 -153.95703125 257.6484375 C-153.00828125 257.9784375 -152.05953125 258.3084375 -151.08203125 258.6484375 C-148.20703125 258.7734375 -148.20703125 258.7734375 -146.08203125 258.6484375 C-145.96730469 259.50695312 -145.85257813 260.36546875 -145.734375 261.25 C-142.3593931 278.83224105 -129.84216997 294.73606123 -118.08203125 307.6484375 C-117.49035156 308.31101562 -116.89867187 308.97359375 -116.2890625 309.65625 C-109.69957319 316.65249791 -101.39597584 322.88878149 -93.08203125 327.6484375 C-92.94300673 344.23207663 -97.82713913 354.7129882 -109.04296875 366.89453125 C-111.31878361 369.96818925 -111.90022874 371.85655661 -112.08203125 375.6484375 C-110.56721022 379.71453605 -109.05268755 382.71676687 -105.08203125 384.6484375 C-100.43672947 385.16458214 -98.2385183 385.32724511 -94.20703125 382.9609375 C-90.69860737 379.14294681 -89.90019292 375.18410138 -89.09521484 370.12866211 C-87.49519673 360.09316616 -85.83114657 350.06145393 -77.33203125 343.5859375 C-76.5534375 343.07933594 -75.77484375 342.57273437 -74.97265625 342.05078125 C-73.08203125 340.6484375 -73.08203125 340.6484375 -72.08203125 337.6484375 C-71.06625 337.98617188 -70.05046875 338.32390625 -69.00390625 338.671875 C-67.61342576 339.12284165 -66.22279225 339.57333667 -64.83203125 340.0234375 C-64.16945312 340.24515625 -63.506875 340.466875 -62.82421875 340.6953125 C-52.23341901 344.09236147 -41.66122355 345.03733571 -30.58203125 345.0234375 C-29.36604248 345.02327637 -28.15005371 345.02311523 -26.8972168 345.02294922 C-15.39286296 344.87909748 -4.70822632 342.95162298 6.36669922 339.99462891 C6.76767822 339.8936792 6.76767822 339.8936792 8.796875 339.3828125 C9.52076416 339.19170898 10.24465332 339.00060547 10.99047852 338.80371094 C12.91796875 338.6484375 12.91796875 338.6484375 15.66796875 340.7734375 C16.41046875 341.7221875 17.15296875 342.6709375 17.91796875 343.6484375 C18.73394531 344.24785156 19.54992187 344.84726562 20.390625 345.46484375 C27.49432053 351.60234886 29.5245659 363.86209441 30.79296875 372.7734375 C31.52574935 377.42019701 32.31416796 380.38249303 35.91796875 383.6484375 C39.12410722 385.25150674 42.43936872 385.13584211 45.91796875 384.6484375 C49.31687017 382.57954098 51.80733886 380.53564213 52.91796875 376.6484375 C52.61534949 370.86428302 51.20749 368.22179111 47.29296875 364.0234375 C39.19032959 354.75285035 33.59167964 345.727459 33.60864258 333.09790039 C33.96789966 328.81009638 34.54564282 327.05299463 37.53515625 323.8046875 C39.87241113 322.08912785 42.34167309 320.64430086 44.84375 319.18359375 C63.7770394 308.06000211 80.31900962 282.81442242 86.04296875 261.9609375 C86.36023995 260.52887092 86.66472908 259.09320231 86.91796875 257.6484375 C87.96984375 257.6896875 89.02171875 257.7309375 90.10546875 257.7734375 C93.91796875 257.6484375 93.91796875 257.6484375 96.29296875 256.6484375 C103.13002507 254.04384462 109.36041193 255.84362623 116.04296875 257.8984375 C116.71175049 258.10283447 117.38053223 258.30723145 118.06958008 258.51782227 C121.49854846 259.63630401 124.52627882 260.92402326 127.62109375 262.78515625 C131.89966521 265.20325884 135.13059403 265.71528692 139.91796875 264.6484375 C142.67366322 262.46684605 144.35385622 260.77666256 145.91796875 257.6484375 C146.35761604 253.77954138 146.04432099 251.89178256 144.23046875 248.3984375 C141.72711884 245.42148085 140.55793521 244.76347925 136.91796875 243.6484375 C134.10644531 243.46899414 134.10644531 243.46899414 131.05859375 243.55859375 C130.50042969 243.56858398 130.50042969 243.56858398 127.67578125 243.61914062 C125.35274773 243.6799327 123.02982133 243.74497916 120.70703125 243.81445312 C110.31242734 243.98769652 103.69509954 242.52125076 95.91796875 235.6484375 C93.75 235 93.75 235 91.91796875 234.6484375 C91.9336792 233.91431641 91.94938965 233.18019531 91.96557617 232.42382812 C92.46129143 205.70121992 89.26940685 180.70449386 74.11328125 157.9375 C72.91796875 155.6484375 72.91796875 155.6484375 73.1015625 153.66796875 C73.23626953 153.33474609 73.23626953 153.33474609 73.91796875 151.6484375 C74.21832031 150.80667969 74.51867187 149.96492188 74.828125 149.09765625 C79.5026128 137.89473126 86.42030542 133.48437465 97.10668945 128.57543945 C101.99046976 126.30022412 107.40940064 123.66557372 109.91796875 118.6484375 C110.5945737 112.78452791 110.5945737 112.78452791 108.87109375 109.890625 C107.08202382 107.71216926 105.4588125 105.91885938 102.91796875 104.6484375 C99.18226684 104.29601279 96.74337959 104.19446154 93.41796875 106.0234375 C90.43346892 109.15716232 88.10378957 112.54547711 85.671875 116.1171875 C78.66306181 126.23235664 72.01418874 131.0079647 59.91796875 133.6484375 C59.05171875 133.90753906 58.18546875 134.16664063 57.29296875 134.43359375 C54.91796875 134.6484375 54.91796875 134.6484375 53.20703125 133.34765625 C52.65789062 132.68378906 52.10875 132.01992187 51.54296875 131.3359375 C35.161112 113.75765301 9.10682846 104.19158004 -14.08203125 100.6484375 C-15.40203125 100.6484375 -16.72203125 100.6484375 -18.08203125 100.6484375 C-18.50520833 98.72786458 -18.92838542 96.80729167 -19.3515625 94.88671875 C-20.08203125 92.6484375 -20.08203125 92.6484375 -21.63671875 90.328125 C-25.69241304 82.80864856 -23.31372351 70.58667172 -21.08203125 62.6484375 C-20.88609375 62.1225 -20.88609375 62.1225 -19.89453125 59.4609375 C-18.82108789 55.74517203 -19.06610671 53.37349416 -20.08203125 49.6484375 C-23.10710716 46.08039925 -25.17222481 43.81819807 -29.89453125 43.3984375 C-33.52368281 43.68307684 -35.2249929 44.42629656 -38.08203125 46.6484375 Z " fill="#0176BC" transform="translate(285.08203125,42.3515625)"/>
<path d="M0 0 C1.99639666 3.99279333 1.11488671 7.61185767 -0.11401367 11.76367188 C-0.62218936 13.16895064 -1.14075977 14.57050051 -1.66796875 15.96875 C-1.80631386 16.34743225 -1.80631386 16.34743225 -2.50642395 18.26379395 C-3.391113 20.6792861 -4.28893103 23.08964129 -5.1875 25.5 C-5.77238302 27.08821102 -6.35637536 28.67675034 -6.93945312 30.265625 C-8.0785607 33.36736383 -9.22211099 36.46740838 -10.36865234 39.56640625 C-12.62994747 45.69281594 -14.81995005 51.84427166 -17 58 C-34.78223559 47.00080686 -51.90842833 28.4982425 -57.62084961 7.74438477 C-57.74596924 7.16873779 -57.87108887 6.59309082 -58 6 C-48.33750506 4.57271695 -38.66536203 3.29339834 -28.96679688 2.14013672 C-27.48144718 1.96248366 -25.9964196 1.7821176 -24.51171875 1.59912109 C-16.31316129 0.58865966 -8.27905238 -0.24542645 0 0 Z " fill="#0176BC" transform="translate(216,293)"/>
<path d="M0 0 C3.14616662 1.397846 5.3092223 3.04415262 7.75878906 5.45239258 C8.47923401 6.15685013 9.19967896 6.86130768 9.94195557 7.58711243 C10.32536102 7.96783653 10.32536102 7.96783653 12.265625 9.89453125 C13.05902283 10.6789006 13.85242065 11.46326996 14.66986084 12.27140808 C16.34350436 13.93055471 18.01435911 15.59251853 19.68261719 17.25708008 C22.24216676 19.80470326 24.81976686 22.3330798 27.3984375 24.86132812 C29.02197996 26.47540997 30.64441421 28.09060745 32.265625 29.70703125 C33.04053284 30.46240677 33.81544067 31.21778229 34.61383057 31.99604797 C34.96774872 32.35300499 34.96774872 32.35300499 36.75878906 34.15942383 C37.38626038 34.78182449 38.01373169 35.40422516 38.66021729 36.04548645 C40.36991423 38.53964152 40.37876302 40.03495567 40 43 C37.07787852 46.06782407 33.43194584 47.02333103 29.4609375 48.26953125 C28.82642166 48.47129471 28.19190582 48.67305817 27.53816223 48.88093567 C25.48595958 49.5319522 23.4305884 50.17226367 21.375 50.8125 C19.26462641 51.47871508 17.1550688 52.14747228 15.04551697 52.81628418 C13.65117231 53.25806398 12.25652989 53.69890509 10.86158752 54.13879395 C4.54661005 56.13228628 -1.7327879 58.2254207 -7.99658203 60.37426758 C-12.79079112 62 -12.79079112 62 -15 62 C-18.87162984 41.07075462 -10.76036077 20.08403292 -1 2 C-0.67 1.34 -0.34 0.68 0 0 Z " fill="#0176BC" transform="translate(168,209)"/>
<path d="M0 0 C0.35312759 0.0243512 0.35312759 0.0243512 2.14016724 0.14758301 C4.44562642 0.30958161 6.7501611 0.48150371 9.0546875 0.65625 C9.8221228 0.71393555 10.58955811 0.77162109 11.38024902 0.83105469 C16.09924797 1.18909034 20.81635282 1.56732633 25.53271484 1.95849609 C27.97591787 2.16006408 30.41957495 2.35542048 32.86328125 2.55078125 C34.42451021 2.67931099 35.98570941 2.80820285 37.546875 2.9375 C37.91034531 2.9661615 37.91034531 2.9661615 39.74972534 3.11120605 C44.82602261 3.54191755 44.82602261 3.54191755 47.0546875 4.65625 C41.40709163 24.77581029 26.9302653 44.62663816 9.0546875 55.65625 C8.3946875 55.65625 7.7346875 55.65625 7.0546875 55.65625 C6.64629639 54.45613281 6.23790527 53.25601563 5.81713867 52.01953125 C4.29201392 47.53880151 2.76526306 43.05862723 1.23803711 38.57861328 C0.57906916 36.64484365 -0.07946614 34.71092654 -0.73754883 32.77685547 C-1.68715707 29.98625805 -2.63835418 27.19620643 -3.58984375 24.40625 C-3.73521828 23.97848267 -3.73521828 23.97848267 -4.47090149 21.8137207 C-5.79719795 17.92928573 -7.16269821 14.08111799 -8.66674805 10.26171875 C-10.02348979 6.4357951 -10.16284957 4.4961746 -8.9453125 0.65625 C-5.92930219 -0.85175515 -3.34783416 -0.23558059 0 0 Z " fill="#0176BC" transform="translate(304.9453125,294.34375)"/>
<path d="M0 0 C3.14983881 0.7362779 4.63106736 1.5336919 6.64648438 4.08105469 C7.12408203 4.93602539 7.60167969 5.79099609 8.09375 6.671875 C8.64337402 7.63673828 9.19299805 8.60160156 9.75927734 9.59570312 C10.04649658 10.11616211 10.04649658 10.11616211 11.5 12.75 C12.73093252 14.92235023 13.96272473 17.09421353 15.1953125 19.265625 C15.50807129 19.8215332 15.50807129 19.8215332 17.09082031 22.63476562 C20.11484939 27.96510025 23.24442762 33.23177369 26.375 38.5 C27.46636387 40.34362095 28.5575309 42.18735844 29.6484375 44.03125 C30.43218826 45.35422793 31.21599882 46.67717045 32 48 C25.07521395 54.92478605 7.8171368 54.22133928 -1.47680664 54.25805664 C-6.9816173 54.17539798 -12.32222889 53.52310055 -17.75 52.625 C-18.5123999 52.49899414 -19.2747998 52.37298828 -20.06030273 52.24316406 C-23.65792408 51.59514782 -26.85186823 50.90544818 -30 49 C-28.5633023 45.11455757 -26.74291783 41.68762675 -24.62109375 38.1328125 C-23.95102295 37.00609131 -23.28095215 35.87937012 -22.59057617 34.71850586 C-21.8731141 33.52053281 -21.15541803 32.32269986 -20.4375 31.125 C-19.70852208 29.90450853 -18.97976292 28.68388637 -18.2512207 27.46313477 C-17.16864418 25.64974978 -16.08557805 23.83666837 -15.0007782 22.02461243 C-12.99828437 18.67897149 -11.01210032 15.32468734 -9.046875 11.95703125 C-8.63767822 11.26013184 -8.22848145 10.56323242 -7.80688477 9.84521484 C-6.76784855 8.07443426 -5.73334233 6.30099775 -4.69921875 4.52734375 C-3 2 -3 2 0 0 Z " fill="#0176BC" transform="translate(255,314)"/>
<path d="M0 0 C3.57599217 3.39293983 5.58107629 6.74895515 7.5 11.25 C7.80115723 11.94802734 8.10231445 12.64605469 8.41259766 13.36523438 C13.55213449 25.71781672 16.18183279 38.63472729 16.0625 52 C16.05798828 52.67933594 16.05347656 53.35867188 16.04882812 54.05859375 C16.0372283 55.70576874 16.01930199 57.35289726 16 59 C10.99729883 58.39209723 6.30397089 57.35077392 1.4765625 55.890625 C0.77212006 55.68193787 0.06767761 55.47325073 -0.65811157 55.25823975 C-2.89847681 54.59343689 -5.13675703 53.9219092 -7.375 53.25 C-8.83710311 52.81464558 -10.2993419 52.37974654 -11.76171875 51.9453125 C-14.68262462 51.07706025 -17.60278195 50.20635276 -20.52246094 49.33398438 C-27.67481373 47.1995561 -34.83781528 45.10114825 -42 43 C-37.43852453 37.52686034 -32.59258679 32.46045191 -27.5390625 27.44140625 C-26.74849457 26.65225327 -25.95792664 25.86310028 -25.1434021 25.05003357 C-22.63962374 22.55181339 -20.13237525 20.05710956 -17.625 17.5625 C-15.91773752 15.86025792 -14.21070391 14.15778627 -12.50390625 12.45507812 C-8.33858102 8.30072637 -4.17040781 4.14924919 0 0 Z " fill="#0176BC" transform="translate(342,211)"/>
<path d="M0 0 C18.93080452 2.36194395 41.16318147 10.06566211 54 25 C54 25.66 54 26.32 54 27 C51.48048382 28.85791799 48.95388063 30.59455044 46.3359375 32.3046875 C45.55110992 32.82507599 44.76628235 33.34546448 43.95767212 33.88162231 C41.43435632 35.55260226 38.90482139 37.2138898 36.375 38.875 C34.6909864 39.98764606 33.00738723 41.10091964 31.32421875 42.21484375 C27.52785289 44.72580039 23.72961423 47.23379457 19.92059326 49.7255249 C18.68920842 50.54265227 17.4677115 51.37500065 16.25958252 52.22613525 C12.63084984 54.77123246 10.46282598 55.42503105 6 55 C3.76608591 50.38254282 3.39060794 45.89298951 2.9296875 40.859375 C2.84373322 39.97775696 2.75777893 39.09613892 2.66921997 38.18780518 C2.48928518 36.32557785 2.31300273 34.46299446 2.14013672 32.60009766 C1.87712349 29.77282651 1.60163397 26.94698415 1.32421875 24.12109375 C1.15029642 22.30475871 0.97709623 20.48835434 0.8046875 18.671875 C0.72346649 17.83718689 0.64224548 17.00249878 0.55856323 16.14251709 C0.06371053 10.73859832 -0.07006217 5.42675739 0 0 Z " fill="#0176BC" transform="translate(270,163)"/>
<path d="M0 0 C-0.76413468 11.98377497 -1.90638064 23.92403482 -3.0625 35.875 C-3.25080652 37.83462048 -3.43895865 39.79425581 -3.62695312 41.75390625 C-4.08285845 46.50277689 -4.54084303 51.2514427 -5 56 C-9.09627579 54.4415737 -12.16413995 52.56761384 -15.6875 49.9375 C-23.95065677 43.8647745 -32.57954183 38.34846777 -41.19995117 32.80249023 C-41.74639282 32.44900513 -41.74639282 32.44900513 -44.51171875 30.66015625 C-45.49615967 30.02730713 -46.48060059 29.39445801 -47.49487305 28.74243164 C-49.59145479 27.28416209 -51.28880069 25.88018882 -53 24 C-40.22671528 11.30605245 -18.3608673 0 0 0 Z " fill="#0176BC" transform="translate(241,163)"/>
<path d="M0 0 C5.54188348 1.66638024 8.41156668 5.87615238 11.19873047 10.66113281 C11.76720703 11.510625 12.33568359 12.36011719 12.92138672 13.23535156 C15.02834553 17.23664031 13.98899665 20.36447549 13.19873047 24.66113281 C13.1684375 25.11423828 13.1684375 25.11423828 13.01513672 27.40722656 C12.48248949 31.36638792 11.83642311 34.35743021 8.58740234 36.94384766 C3.3145164 40.291944 -2.55688214 43.79090831 -8.92626953 43.53613281 C-12.11487191 42.56568861 -14.99677576 41.38248083 -17.98876953 39.91113281 C-19.01357422 39.42128906 -20.03837891 38.93144531 -21.09423828 38.42675781 C-25.29918359 35.68413836 -26.47948283 32.6603652 -27.98876953 27.97363281 C-28.28284034 26.54070598 -28.55256129 25.10262549 -28.80126953 23.66113281 C-28.88505859 23.28472656 -28.88505859 23.28472656 -29.30908203 21.37988281 C-30.05432309 15.4943893 -28.02339376 11.20653293 -24.55126953 6.53613281 C-18.09347997 -1.20746556 -9.50596256 -1.70634393 0 0 Z " fill="#0176BD" transform="translate(263.80126953125,244.3388671875)"/>
</svg>
