<?xml version="1.0" encoding="UTF-8"?>
<!-- Generator: visioncortex VTracer 0.6.12 -->
<svg version="1.1" xmlns="http://www.w3.org/2000/svg" width="512" height="512">
<path d="M0 0 C0.70443237 0.00215515 1.40886475 0.0043103 2.13464355 0.00653076 C12.78148031 0.05873593 22.91597135 0.53965191 33.25 3.3125 C34.02666016 3.51117676 34.80332031 3.70985352 35.60351562 3.91455078 C61.9835416 10.77685294 83.67617682 23.66479648 102.87890625 42.953125 C104.18589202 44.2536512 105.50710601 45.54192713 106.8828125 46.76953125 C127.7846287 65.75625958 139.34781555 97.05964378 143.25 124.3125 C143.38019531 125.13878906 143.51039063 125.96507812 143.64453125 126.81640625 C146.42550611 148.13721349 143.81532382 170.92190383 137.25 191.3125 C137.05067871 191.9322168 136.85135742 192.55193359 136.64599609 193.19042969 C130.98860054 210.3760208 122.27626058 226.01852313 111.25 240.3125 C110.59515625 241.16714844 109.9403125 242.02179688 109.265625 242.90234375 C101.49623139 252.80671535 93.20585662 262.29151959 84.5625 271.4375 C63.15765873 294.22708081 63.15765873 294.22708081 63.1081543 309.078125 C63.10111984 310.26365967 63.09408539 311.44919434 63.08683777 312.6706543 C63.08475563 313.31280884 63.08475563 313.31280884 63.07421875 316.5625 C63.06378575 317.89950341 63.05236172 319.23649942 63.03999329 320.57348633 C62.9877074 326.24410483 62.93966715 331.91459539 62.92407227 337.58544922 C62.91389843 341.0581018 62.88433335 344.53015104 62.84275246 348.00256348 C62.82468992 349.94922097 62.82707214 351.89603435 62.83000183 353.84277344 C62.67767305 365.02663648 60.45723331 374.23819632 52.484375 382.37109375 C45.24279212 388.66316839 38.01240416 389.99575863 28.67041016 390.41772461 C22.82998867 390.79376912 20.49654775 392.31397 16.25 396.3125 C8.5268535 400.7898723 0.11280641 401.8566476 -8.5234375 399.58203125 C-12.57157316 398.09285221 -15.31172035 396.72518212 -18.4921875 393.73046875 C-22.19382577 390.54832777 -25.77579596 390.52588629 -30.5 390.3125 C-40.32440336 389.51247038 -47.06469868 387.3895227 -54.125 380.1875 C-60.20455545 372.67095872 -61.92716546 365.23491302 -62.359375 355.77734375 C-62.379645 355.36532967 -62.379645 355.36532967 -62.48222351 353.2802887 C-62.75322653 347.05634893 -62.7816358 340.84960255 -62.70703125 334.62109375 C-62.69691513 333.72845825 -62.68679901 332.83582275 -62.67637634 331.9161377 C-62.63093967 328.26627003 -62.58098281 324.61686672 -62.50317383 320.9675293 C-62.10243106 301.08263812 -62.10243106 301.08263812 -66.75 293.3125 C-67.30558594 292.37019531 -67.86117187 291.42789062 -68.43359375 290.45703125 C-75.74148879 280.74029775 -83.73532998 271.5920216 -92.02246094 262.70141602 C-98.3718921 255.88781164 -104.14146281 248.74257822 -109.75 241.3125 C-110.17667969 240.75336914 -110.60335937 240.19423828 -111.04296875 239.61816406 C-136.60974941 205.92901385 -147.97843171 165.32032483 -142.625 123.3125 C-138.61473066 95.44576847 -126.76068168 70.81616237 -108.75 49.3125 C-108.16347656 48.60222656 -107.57695312 47.89195312 -106.97265625 47.16015625 C-102.93314334 42.38785189 -98.5574844 38.29962468 -93.75 34.3125 C-93.05777344 33.70921875 -92.36554688 33.1059375 -91.65234375 32.484375 C-65.99834971 10.83469221 -33.33902146 -0.18424248 0 0 Z M-93.04125977 63.95117188 C-117.10370155 91.72038254 -124.02032335 126.11572465 -121.56396484 162.03271484 C-121.05484073 166.89894598 -120.06299751 171.59948397 -118.75 176.3125 C-118.52425293 177.12444824 -118.29850586 177.93639648 -118.06591797 178.77294922 C-109.99193652 206.80543801 -94.0983274 227.77454718 -74.7890625 249.0625 C-72.39231844 251.7071831 -70.02440355 254.37313835 -67.69140625 257.07421875 C-66.19487395 258.79959704 -64.67783252 260.50720091 -63.15234375 262.20703125 C-53.53144506 273.06545211 -47.77377519 283.49711824 -42.75 297.3125 C-14.37 297.3125 14.01 297.3125 43.25 297.3125 C44.9 293.0225 46.55 288.7325 48.25 284.3125 C52.34051609 275.80310071 57.77626054 269.1110866 64.25 262.3125 C65.38261988 261.02750973 66.50806024 259.73614288 67.625 258.4375 C70.0999971 255.59010751 72.63436376 252.80556117 75.19970703 250.03930664 C80.80226659 243.98858071 86.1611023 237.80731351 91.25 231.3125 C91.67249023 230.78382324 92.09498047 230.25514648 92.53027344 229.71044922 C116.4889814 199.54767846 125.09565569 164.70176165 122.03173828 126.59814453 C121.47901609 122.05882856 120.49028887 117.71852618 119.25 113.3125 C118.9096875 112.08402344 118.569375 110.85554688 118.21875 109.58984375 C112.25410014 90.10397749 101.72333458 73.43974691 88.25 58.3125 C87.67765625 57.65507812 87.1053125 56.99765625 86.515625 56.3203125 C68.99485352 37.44484219 43.06687907 26.75963497 18.25 22.3125 C17.88003906 22.24611328 17.88003906 22.24611328 16.0078125 21.91015625 C-24.99533797 16.08675161 -65.85842725 33.62410895 -93.04125977 63.95117188 Z M-39.75 318.3125 C-39.75 324.9125 -39.75 331.5125 -39.75 338.3125 C-37.44 339.3025 -35.13 340.2925 -32.75 341.3125 C-30.71088281 343.79490353 -30.72747131 345.51901298 -30.375 348.75 C-30.81821258 352.96051951 -31.70040728 354.42775013 -34.75 357.3125 C-37.5 358.625 -37.5 358.625 -39.75 359.3125 C-39.47107852 362.65955778 -39.0243052 364.03724028 -36.61888123 366.45103455 C-33.14033419 368.70807993 -31.15769715 368.82427089 -27.03540039 368.84594727 C-26.38106522 368.85456284 -25.72673004 368.86317841 -25.05256653 368.87205505 C-22.90052146 368.89466335 -20.74978421 368.88798649 -18.59765625 368.87890625 C-17.09459549 368.8841445 -15.59153803 368.89042172 -14.08848572 368.89768982 C-10.94205226 368.90808468 -7.79607131 368.90354667 -4.6496582 368.88891602 C-0.62658406 368.87173599 3.39506077 368.89521641 7.41797543 368.93040562 C10.52109661 368.95241648 13.62387777 368.9509293 16.72705269 368.9426403 C18.2097588 368.94182265 19.69249035 368.94865055 21.17512321 368.96341133 C34.19090482 369.0731283 34.19090482 369.0731283 38.20532227 366.02319336 C40.25 363.3125 40.25 363.3125 40.25 359.3125 C39.57205887 359.30885437 38.89411774 359.30520874 38.19563293 359.30145264 C31.13878107 359.25963863 24.08258025 359.19030005 17.02612305 359.10498047 C14.39272575 359.07675681 11.75924351 359.0555493 9.12573242 359.04150391 C5.33988923 359.0200948 1.55506879 358.97345135 -2.23046875 358.921875 C-3.40772018 358.92064636 -4.58497162 358.91941772 -5.79789734 358.91815186 C-13.97722362 358.77163077 -13.97722362 358.77163077 -17.9699707 356.39941406 C-21.1234186 352.70229808 -21.07706115 350.13665189 -20.75 345.3125 C-18.55 340.7125 -18.55 340.7125 -15.75 339.3125 C-13.9634547 339.19305524 -12.17263749 339.13527682 -10.38232422 339.10717773 C-9.26131317 339.08723251 -8.14030212 339.06728729 -6.98532104 339.04673767 C-5.77071198 339.03002518 -4.55610291 339.01331268 -3.3046875 338.99609375 C-2.06453888 338.97531265 -0.82439026 338.95453156 0.45333862 338.93312073 C3.75111823 338.87872295 7.0489272 338.82849905 10.34680176 338.78027344 C13.71172653 338.73004766 17.0765605 338.67436723 20.44140625 338.61914062 C27.04420082 338.51188439 33.64706377 338.41063214 40.25 338.3125 C40.25 331.7125 40.25 325.1125 40.25 318.3125 C13.85 318.3125 -12.55 318.3125 -39.75 318.3125 Z " fill="#000000" transform="translate(255.75,91.6875)"/>
<path d="M0 0 C3.11905047 2.57660691 4.7181368 4.1544104 6 8 C6.10106984 9.49217469 6.14829525 10.98834814 6.16113281 12.48388672 C6.17074036 13.38847626 6.1803479 14.2930658 6.19024658 15.22506714 C6.19449646 16.20009186 6.19874634 17.17511658 6.203125 18.1796875 C6.20882507 19.18460236 6.21452515 20.18951721 6.22039795 21.22488403 C6.22984577 23.35157214 6.23638107 25.47827487 6.24023438 27.60498047 C6.24994148 30.85540333 6.28096785 34.10519426 6.3125 37.35546875 C6.31903006 39.42187125 6.32428052 41.48827826 6.328125 43.5546875 C6.3404718 44.52566376 6.3528186 45.49664001 6.36553955 46.49703979 C6.34525649 52.6533564 5.61186215 56.19466658 1.3125 60.8125 C-2.11129854 62.57066682 -5.29249678 62.77565806 -9 62 C-12.52185256 60.02321824 -14.69957163 57.9012851 -16 54 C-16.10103901 52.51312165 -16.14829193 51.02223448 -16.16113281 49.53198242 C-16.17074036 48.63062057 -16.1803479 47.72925873 -16.19024658 46.80058289 C-16.19449646 45.82869522 -16.19874634 44.85680756 -16.203125 43.85546875 C-16.20882507 42.85292557 -16.21452515 41.85038239 -16.22039795 40.81745911 C-16.2298466 38.69496719 -16.2363814 36.57246062 -16.24023438 34.44995117 C-16.24993112 31.21051274 -16.28095248 27.97171116 -16.3125 24.73242188 C-16.31903113 22.6692746 -16.32428117 20.60612279 -16.328125 18.54296875 C-16.3342984 18.06006126 -16.3342984 18.06006126 -16.36553955 15.61625671 C-16.34813706 10.33468819 -16.03823311 6.52994987 -13 2 C-8.47609191 -1.18729888 -5.29441691 -1.54019401 0 0 Z " fill="#000000" transform="translate(261,10)"/>
<path d="M0 0 C1.71850586 1.09008789 1.71850586 1.09008789 3.40234375 2.66015625 C4.08941406 3.29646973 4.77648437 3.9327832 5.484375 4.58837891 C6.31453125 5.38421387 7.1446875 6.18004883 8 7 C9.08331374 8.02394651 10.16664867 9.0478706 11.25 10.07177734 C14.36768234 13.03440935 17.44609276 16.03486978 20.51147461 19.05151367 C21.80101443 20.31424597 23.09766358 21.56975662 24.40112305 22.81811523 C26.3041209 24.64195067 28.18306651 26.4878205 30.05859375 28.33984375 C30.64080185 28.88905991 31.22300995 29.43827606 31.82286072 30.00413513 C35.97397907 34.17620748 36.91451033 37.09661208 37 43 C35.4521983 46.66584612 33.55768353 49.17308143 30 51 C23.61859633 52.06356728 23.61859633 52.06356728 20.3425293 49.91088867 C13.86858075 44.0077076 7.67233763 37.82332408 1.48852539 31.61889648 C-0.45377265 29.67118197 -2.4014314 27.7289407 -4.34960938 25.78710938 C-5.58625875 24.54980017 -6.82259842 23.31218132 -8.05859375 22.07421875 C-8.64080185 21.49403488 -9.22300995 20.91385101 -9.82286072 20.31608582 C-14.88200841 15.22711257 -14.88200841 15.22711257 -15.3125 10.75 C-14.94713599 6.36563187 -13.73973233 4.38437523 -11 1 C-7.4014312 -0.7992844 -3.91340203 -0.66422396 0 0 Z " fill="#000000" transform="translate(383,348)"/>
<path d="M0 0 C2.91599222 2.7493641 3.12921948 3.63996622 3.6875 7.6875 C3.4554993 17.16173688 -9.82073407 26.22228019 -16.19360352 32.57397461 C-18.14131803 34.51627265 -20.0835593 36.4639314 -22.02539062 38.41210938 C-23.26269983 39.64875875 -24.50031868 40.88509842 -25.73828125 42.12109375 C-26.31846512 42.70330185 -26.89864899 43.28550995 -27.49641418 43.88536072 C-32.58538743 48.94450841 -32.58538743 48.94450841 -37.0625 49.375 C-41.44686813 49.00963599 -43.42812477 47.80223233 -46.8125 45.0625 C-48.61206052 41.46337896 -48.4753104 37.9765458 -47.8125 34.0625 C-46.73120117 32.34399414 -46.73120117 32.34399414 -45.16796875 30.66015625 C-44.5322998 29.97308594 -43.89663086 29.28601563 -43.24169922 28.578125 C-42.44006348 27.74796875 -41.63842773 26.9178125 -40.8125 26.0625 C-40.56513092 25.80577515 -40.56513092 25.80577515 -39.31329346 24.5065918 C-35.75399123 20.82320965 -32.15751815 17.17844651 -28.54125977 13.55102539 C-26.6120705 11.61200461 -24.69380045 9.66256958 -22.77539062 7.71289062 C-21.54492826 6.47590819 -20.31383117 5.23955674 -19.08203125 4.00390625 C-18.51216995 3.42169815 -17.94230865 2.83949005 -17.35517883 2.23963928 C-11.85345628 -3.23137531 -6.78595748 -4.67477071 0 0 Z " fill="#000000" transform="translate(415.8125,74.9375)"/>
<path d="M0 0 C2.6531134 2.1617961 3.5538562 4.153065 4.6875 7.375 C4.74608674 12.69095763 4.06460014 15.41962006 0.48461914 19.38842773 C-0.91800853 20.79667065 -2.33989728 22.18591021 -3.77734375 23.55859375 C-4.52585098 24.29956802 -5.27435822 25.0405423 -6.04554749 25.80397034 C-8.43107636 28.15706227 -10.84010189 30.48439937 -13.25 32.8125 C-14.86808049 34.40403069 -16.4846352 35.9971142 -18.09960938 37.59179688 C-21.05093077 40.49286176 -24.00487341 43.39090088 -26.98022461 46.26733398 C-27.57677353 46.84499008 -28.17332245 47.42264618 -28.78794861 48.01780701 C-31.69366152 50.60454382 -34.35847735 50.78103866 -38.20703125 50.7109375 C-42.06271408 50.09574506 -43.83883516 48.27099786 -46.3125 45.375 C-47.29027066 42.65042559 -47.70977737 40.24845826 -47.3125 37.375 C-44.84298739 32.36586957 -41.01014676 28.80064266 -37.08984375 24.921875 C-36.3885585 24.22104797 -35.68727325 23.52022095 -34.96473694 22.79815674 C-33.48691565 21.32334791 -32.00667331 19.85096159 -30.52416992 18.38085938 C-28.24923607 16.12424222 -25.98246628 13.85966485 -23.71679688 11.59375 C-22.27911798 10.16098441 -20.84098268 8.72867662 -19.40234375 7.296875 C-18.72211655 6.61776062 -18.04188934 5.93864624 -17.34104919 5.23895264 C-17.02563423 4.9267276 -17.02563423 4.9267276 -15.42944336 3.34667969 C-14.87445663 2.79550476 -14.31946991 2.24432983 -13.74766541 1.67645264 C-9.97391215 -1.74570421 -4.6604111 -1.25957057 0 0 Z " fill="#000000" transform="translate(139.3125,348.625)"/>
<path d="M0 0 C0.50238441 -0.00480377 0.50238441 -0.00480377 3.04475403 -0.02911377 C4.13430893 -0.03336365 5.22386383 -0.03761353 6.34643555 -0.04199219 C7.46374557 -0.04769226 8.5810556 -0.05339233 9.73222351 -0.05926514 C12.10028127 -0.0687246 14.46835225 -0.07525286 16.83642578 -0.07910156 C20.45783515 -0.08879939 24.07867528 -0.11981138 27.69995117 -0.15136719 C29.99877592 -0.15789785 32.29760474 -0.16314808 34.59643555 -0.16699219 C35.67991776 -0.17933899 36.76339996 -0.19168579 37.87971497 -0.20440674 C47.26616677 -0.17663217 47.26616677 -0.17663217 51.1706543 3.16113281 C53.73697946 6.5828997 53.5350048 10.00753702 53.1706543 14.16113281 C51.4699891 17.98762952 50.02066819 19.62325706 46.1706543 21.16113281 C43.78712463 21.42855835 43.78712463 21.42855835 41.11425781 21.45166016 C40.10964005 21.46441986 39.10502228 21.47717957 38.06996155 21.49032593 C36.99072922 21.49255157 35.91149689 21.49477722 34.79956055 21.49707031 C34.24232048 21.50039871 34.24232048 21.50039871 31.42234802 21.51724243 C29.0662501 21.52736395 26.71012354 21.53205961 24.35400391 21.53173828 C20.75008954 21.53611226 17.14739895 21.57244122 13.54370117 21.61035156 C11.25399182 21.61621961 8.96427665 21.62018908 6.67456055 21.62207031 C5.59735245 21.63644135 4.52014435 21.65081238 3.41029358 21.6656189 C-4.06862514 21.61995398 -4.06862514 21.61995398 -7.98583984 19.25732422 C-10.86771882 15.98043203 -11.16215099 13.6406535 -11.12231445 9.26660156 C-10.6518031 5.88519334 -8.96675043 3.73859145 -6.8293457 1.16113281 C-4.37473948 -0.0661703 -2.74470447 0.02114057 0 0 Z " fill="#000000" transform="translate(428.829345703125,224.8388671875)"/>
<path d="M0 0 C2.9560097 2.16342102 5.43152661 4.70635386 7.96484375 7.34375 C8.68362198 8.06864624 9.40240021 8.79354248 10.14295959 9.54040527 C12.42226607 11.84653551 14.67955995 14.17296636 16.9375 16.5 C18.48108565 18.06512105 20.02599473 19.62893805 21.57226562 21.19140625 C24.38399494 24.0451991 27.19399666 26.9004668 29.98413086 29.77539062 C30.54402206 30.35115845 31.10391327 30.92692627 31.68077087 31.5201416 C34.48626417 34.66723162 34.38549814 37.68266364 34.359375 41.73828125 C33.78943134 45.32520929 31.79773951 46.86838894 29 49 C25.73952371 50.63023814 23.62198965 50.4673535 20 50 C18.37915039 48.90771484 18.37915039 48.90771484 16.66015625 47.3359375 C15.9640625 46.69946289 15.26796875 46.06298828 14.55078125 45.40722656 C13.70902344 44.6128418 12.86726563 43.81845703 12 43 C11.4851001 42.51704468 10.9702002 42.03408936 10.43969727 41.53649902 C6.74851468 38.06640428 3.10522466 34.55102015 -0.51147461 31.00341797 C-1.80015027 29.74659575 -3.09680744 28.49790788 -4.40112305 27.25732422 C-6.30661733 25.44327265 -8.18439374 23.60411343 -10.05859375 21.7578125 C-10.64080185 21.21375763 -11.22300995 20.66970276 -11.82286072 20.10916138 C-15.58435125 16.32921497 -16.72904384 13.37760738 -17.14881897 8.06686401 C-16.89200308 4.50009074 -15.37472927 2.56220789 -13 0 C-8.67873648 -2.88084235 -4.57217224 -1.92000105 0 0 Z " fill="#000000" transform="translate(110,74)"/>
<path d="M0 0 C1.00154114 -0.01606293 2.00308228 -0.03212585 3.03497314 -0.04867554 C7.62242999 -0.09311363 12.20974149 -0.13419821 16.79736328 -0.15722656 C19.2164065 -0.17377979 21.63540094 -0.20106111 24.05419922 -0.23925781 C27.54127389 -0.29404857 31.02720115 -0.31590588 34.51464844 -0.33056641 C35.59296936 -0.35323578 36.67129028 -0.37590515 37.7822876 -0.39926147 C46.16839567 -0.37569423 46.16839567 -0.37569423 49.85913086 2.59667969 C52.66925722 5.73135752 53.14518589 7.2236662 53.35839844 11.26708984 C53.01528328 15.11153927 51.1752944 17.30631412 48.38926697 19.80433655 C45.75073002 21.46758043 44.23000759 21.57793547 41.13012695 21.59692383 C40.12550919 21.609608 39.12089142 21.62229218 38.08583069 21.63536072 C37.54621452 21.6338929 37.54621452 21.6338929 34.81542969 21.62646484 C33.70094955 21.6317067 32.58646942 21.63694855 31.43821716 21.64234924 C29.08211093 21.64877056 26.72597264 21.64743107 24.36987305 21.63891602 C20.7658575 21.63041082 17.16342908 21.65916049 13.55957031 21.69091797 C11.26985725 21.69253018 8.98014137 21.69195207 6.69042969 21.68896484 C5.61322159 21.70019882 4.53601349 21.7114328 3.42616272 21.7230072 C-4.05079318 21.65340703 -4.05079318 21.65340703 -7.9699707 19.28686523 C-11.10799086 15.72246332 -11.14355396 13.06348368 -11.10644531 8.45458984 C-10.67691856 5.13864329 -9.20423302 3.44299482 -6.81347656 1.19287109 C-4.36946349 -0.02913544 -2.7327313 0.03977952 0 0 Z " fill="#000000" transform="translate(39.8134765625,224.80712890625)"/>
</svg>
