<?xml version="1.0" encoding="UTF-8"?>
<!-- Generator: visioncortex VTracer 0.6.12 -->
<svg version="1.1" xmlns="http://www.w3.org/2000/svg" width="512" height="512">
<path d="M0 0 C17.32190143 -0.46544523 33.83398366 2.24899346 50.10546875 8.15625 C51.12640625 8.52492188 52.14734375 8.89359375 53.19921875 9.2734375 C70.8584975 16.15675852 97.24474104 30.43479458 106.10546875 48.15625 C106.76546875 48.15625 107.42546875 48.15625 108.10546875 48.15625 C109.55078125 46.6875 109.55078125 46.6875 111.23046875 44.65625 C133.65723331 18.52220396 165.90227765 3.03209159 200.10546875 0.15625 C226.47680539 -1.4428663 252.06006491 4.36189854 275.10546875 17.15625 C276.00265625 17.63707031 276.89984375 18.11789063 277.82421875 18.61328125 C306.36662762 34.69155378 328.76723815 63.3922588 337.87646484 94.81591797 C350.56145269 142.31981775 340.18773232 192.22523401 316.07836914 234.39892578 C306.54950261 250.61995334 295.03922986 265.51479253 282.10546875 279.15625 C281.03697077 280.40112683 279.9742156 281.65096165 278.91796875 282.90625 C270.74262692 292.3078931 261.64328886 301.1494084 252.10546875 309.15625 C251.11804688 310.02121094 250.130625 310.88617188 249.11328125 311.77734375 C240.0923569 319.66704786 230.70269284 326.98374062 221.10546875 334.15625 C220.34572754 334.72633789 219.58598633 335.29642578 218.80322266 335.88378906 C216.44983494 337.64698396 214.09124006 339.40295595 211.73046875 341.15625 C211.04960205 341.66462402 210.36873535 342.17299805 209.66723633 342.69677734 C193.08708002 354.92881263 175.73022516 366.15000845 158.64038086 377.65039062 C149.46487358 383.82613511 140.2903439 390.00345432 131.16015625 396.24609375 C130.8454966 396.46008316 130.8454966 396.46008316 129.25312805 397.54299927 C123.59365328 401.42671357 118.34544179 405.72377699 113.10546875 410.15625 C111.44265537 411.49438573 109.77704834 412.82908112 108.10546875 414.15625 C104.23157567 412.48663022 101.16384277 409.9160561 97.91796875 407.28125 C92.83177284 403.2171324 87.65544245 399.32406517 82.328125 395.58203125 C81.60060028 395.06990585 80.87307556 394.55778046 80.12350464 394.03013611 C71.42834651 387.93999132 62.58116121 382.07932005 53.73046875 376.21875 C20.03671418 353.88427966 20.03671418 353.88427966 5.73046875 343.46875 C4.99626709 342.93604492 4.26206543 342.40333984 3.50561523 341.85449219 C-6.89094793 334.28058176 -17.00746171 326.38626878 -26.89453125 318.15625 C-27.9 317.32609375 -28.90546875 316.4959375 -29.94140625 315.640625 C-38.56648766 308.47186409 -46.79817304 300.91498412 -54.89453125 293.15625 C-55.45092285 292.62322266 -56.00731445 292.09019531 -56.58056641 291.54101562 C-62.68753729 285.65379966 -68.40597616 279.59681095 -73.6640625 272.921875 C-75.48242945 270.66722736 -77.34655372 268.50355722 -79.26953125 266.33984375 C-104.07133615 238.11881231 -120.65309221 202.10849863 -126.89453125 165.15625 C-127.0116748 164.47739746 -127.12881836 163.79854492 -127.24951172 163.09912109 C-133.59418802 124.60682786 -126.03434533 86.84337349 -103.62109375 54.91796875 C-80.92945287 23.80545621 -48.60651425 6.90907864 -11.11328125 0.6953125 C-7.41523175 0.22672404 -3.72342519 0.14938516 0 0 Z M-67.89453125 48.15625 C-68.62414062 48.73117188 -69.35375 49.30609375 -70.10546875 49.8984375 C-75.84444668 54.63933231 -80.37082047 60.27214794 -84.89453125 66.15625 C-85.19875 66.54683594 -85.19875 66.54683594 -86.73828125 68.5234375 C-106.58646785 95.31848941 -110.33405106 127.9036825 -105.89453125 160.15625 C-103.5691954 174.36531349 -99.43830175 187.88893327 -93.89453125 201.15625 C-93.59708008 201.87087402 -93.29962891 202.58549805 -92.99316406 203.32177734 C-85.75867368 220.35997982 -75.59615091 235.86238386 -63.89453125 250.15625 C-63.44190918 250.71038574 -62.98928711 251.26452148 -62.52294922 251.83544922 C-57.47704433 257.98639857 -52.31356857 263.92259648 -46.58984375 269.4609375 C-44.89453125 271.15625 -44.89453125 271.15625 -42.39453125 274.21875 C-39.78113316 277.28949276 -36.98430784 279.77270176 -33.921875 282.37890625 C-32.04417993 284.02505511 -30.31325427 285.73360116 -28.58203125 287.53125 C-24.51707472 291.65089205 -20.04843718 295.2170448 -15.53564453 298.83154297 C-13.77786187 300.25042555 -12.03653462 301.68786899 -10.296875 303.12890625 C12.17233461 321.68395838 36.35068301 337.97159616 60.43017578 354.33789062 C80.98929493 368.31163761 80.98929493 368.31163761 89.73046875 374.53125 C90.29564209 374.93230957 90.86081543 375.33336914 91.44311523 375.74658203 C95.51250734 378.66205811 99.3780615 381.77359374 103.140625 385.07421875 C105.10546875 386.15625 105.10546875 386.15625 107.4296875 386.14453125 C111.08668031 384.79384632 113.84169598 382.55973184 116.85546875 380.15625 C123.80556292 374.78198229 130.95073603 369.76108556 138.23046875 364.84375 C139.2968457 364.12292236 140.36322266 363.40209473 141.46191406 362.65942383 C143.62139135 361.20163044 145.78154559 359.74483934 147.94238281 358.2890625 C181.66836806 335.54823145 215.37645188 312.51537051 245.25390625 284.78515625 C247.94248403 282.30650851 250.67379917 279.88544315 253.41796875 277.46875 C256.96111794 274.28553978 260.15168351 270.99833922 263.21484375 267.35546875 C265.49155757 264.70714255 267.89471096 262.19497717 270.29296875 259.65625 C302.02513969 225.31842481 322.95139119 179.38533562 322.10546875 132.15625 C320.97771843 104.869009 311.67338454 81.03958591 294.10546875 60.15625 C293.88568359 59.87523437 293.88568359 59.87523437 292.7734375 58.453125 C276.32219438 37.5451906 248.76658264 25.92545213 223.10546875 22.15625 C209.02366355 21.37961497 194.72780171 21.1977603 181.10546875 25.15625 C179.90664063 25.48496094 178.7078125 25.81367187 177.47265625 26.15234375 C149.98055783 34.4458891 128.89157546 52.63240942 113.10546875 76.15625 C112.18152236 77.41931302 111.25573998 78.68103504 110.328125 79.94140625 C108.10546875 83.15625 108.10546875 83.15625 108.10546875 85.15625 C107.44546875 85.15625 106.78546875 85.15625 106.10546875 85.15625 C105.85023438 84.43824219 105.595 83.72023437 105.33203125 82.98046875 C103.10040147 77.84203456 99.47785005 73.59675207 96.10546875 69.15625 C95.48414063 68.32609375 94.8628125 67.4959375 94.22265625 66.640625 C75.86034716 42.823404 51.46526217 28.11470629 21.88671875 22.55078125 C-11.73405512 19.0428286 -41.40655017 26.8589972 -67.89453125 48.15625 Z " fill="#000000" transform="translate(148.89453125,70.84375)"/>
</svg>
