<?xml version="1.0" encoding="UTF-8"?>
<!-- Generator: visioncortex VTracer 0.6.12 -->
<svg version="1.1" xmlns="http://www.w3.org/2000/svg" width="512" height="512">
<path d="M0 0 C1.09951661 -0.00453111 2.19903323 -0.00906223 3.33186853 -0.01373065 C7.00566172 -0.02636184 10.67930643 -0.02475506 14.3531189 -0.02310181 C16.99165392 -0.02908792 19.63017745 -0.03583745 22.26870728 -0.04345703 C28.68656549 -0.06003513 35.10438695 -0.06556517 41.52226479 -0.06668179 C46.74316448 -0.06763396 51.9640521 -0.07175272 57.18494797 -0.07808304 C72.00790229 -0.09568826 86.83082772 -0.10492326 101.65379258 -0.10342209 C102.45208003 -0.10334218 103.25036748 -0.10326227 104.07284546 -0.10317993 C104.47248027 -0.10313905 104.47248027 -0.10313905 106.49487464 -0.10293217 C119.4374107 -0.10211991 132.37983021 -0.12124431 145.32233258 -0.14945666 C158.63194778 -0.17823875 171.94150625 -0.19199397 185.25115335 -0.19026911 C192.7152622 -0.18960695 200.17924892 -0.19502235 207.64332962 -0.21662521 C214.0005597 -0.23490747 220.35761232 -0.23912711 226.71485741 -0.22560637 C229.95316588 -0.21911134 233.19106684 -0.2210399 236.42935562 -0.23631287 C261.43888162 -0.34658022 261.43888162 -0.34658022 272.88192749 4.26742554 C273.62520609 4.56240244 274.36848469 4.85737934 275.13428688 5.16129494 C292.39252876 12.67963178 303.69658111 25.84000792 311.52255249 42.70101929 C314.85350421 51.43998171 316.32524334 59.40613709 316.26960754 68.7462616 C316.27230031 69.29730154 316.27230031 69.29730154 316.28592736 72.08589762 C316.30014683 75.75044561 316.29311788 79.41462929 316.28598022 83.07919312 C316.29168697 85.71817656 316.29855265 88.35713453 316.30677795 90.99610901 C316.32391515 97.40355097 316.32481647 103.81089464 316.31956505 110.21835355 C316.31551217 115.43060503 316.31698014 120.64282762 316.32231331 125.85507774 C316.32306173 126.59889277 316.32381015 127.34270779 316.32458125 128.10906267 C316.32611285 129.62047556 316.32765119 131.13188845 316.32919622 132.64330133 C316.3429032 146.79606982 316.33749655 160.94878292 316.32601101 175.10155012 C316.31608324 188.02450092 316.32901459 200.94730845 316.3529452 213.87023715 C316.37737982 227.16639377 316.38693321 240.46248379 316.38029248 253.7586624 C316.37680958 261.21265847 316.37897045 268.66654446 316.3965435 276.12052345 C316.41132032 282.466711 316.41183001 288.81271097 316.39447259 295.15889505 C316.38600436 298.39114167 316.3859079 301.62298792 316.39912415 304.85522842 C316.49076981 329.13148238 312.64623973 348.28018363 294.94833374 366.22836304 C281.88821685 378.26364178 265.36626124 384.58842094 247.76385498 384.53485107 C246.66433837 384.53938219 245.56482175 384.5439133 244.43198645 384.54858172 C240.75819326 384.56121292 237.08454855 384.55960614 233.41073608 384.55795288 C230.77220106 384.563939 228.13367753 384.57068852 225.49514771 384.57830811 C219.07728949 384.5948862 212.65946803 384.60041624 206.24159019 384.60153286 C201.0206905 384.60248504 195.79980288 384.60660379 190.57890701 384.61293411 C175.75595269 384.63053934 160.93302726 384.63977434 146.11006241 384.63827316 C145.31177495 384.63819325 144.5134875 384.63811334 143.69100952 384.63803101 C143.29137471 384.63799013 143.29137471 384.63799013 141.26898034 384.63778324 C128.32644428 384.63697098 115.38402477 384.65609539 102.4415224 384.68430774 C89.1319072 384.71308982 75.82234873 384.72684505 62.51270163 384.72512019 C55.04859278 384.72445803 47.58460606 384.72987342 40.12052536 384.75147629 C33.76329528 384.76975854 27.40624266 384.77397819 21.04899757 384.76045744 C17.8106891 384.75396242 14.57278814 384.75589097 11.33449936 384.77116394 C-12.96193326 384.87828725 -32.11464575 381.04769694 -50.07901001 363.33383179 C-62.11428876 350.27371489 -68.43906791 333.75175929 -68.38549805 316.14935303 C-68.39002916 315.04983641 -68.39456027 313.9503198 -68.39922869 312.8174845 C-68.41185989 309.1436913 -68.41025311 305.4700466 -68.40859985 301.79623413 C-68.41458597 299.1576991 -68.42133549 296.51917558 -68.42895508 293.88064575 C-68.44553318 287.46278754 -68.45106321 281.04496607 -68.45217983 274.62708823 C-68.45313201 269.40618855 -68.45725076 264.18530093 -68.46358109 258.96440506 C-68.48118631 244.14145073 -68.49042131 229.31852531 -68.48892014 214.49556045 C-68.48884022 213.697273 -68.48876031 212.89898555 -68.48867798 212.07650757 C-68.48859622 211.27723794 -68.48851446 210.47796831 -68.48843022 209.65447839 C-68.48761796 196.71194233 -68.50674236 183.76952282 -68.53495471 170.82702045 C-68.56373679 157.51740524 -68.57749202 144.20784677 -68.57576716 130.89819968 C-68.575105 123.43409083 -68.5805204 115.97010411 -68.60212326 108.50602341 C-68.62040551 102.14879333 -68.62462516 95.79174071 -68.61110441 89.43449561 C-68.60460939 86.19618715 -68.60653795 82.95828619 -68.62181091 79.71999741 C-68.72893423 55.42356479 -64.89834392 36.2708523 -47.18447876 18.30648804 C-34.12436187 6.27120929 -17.60240626 -0.05356986 0 0 Z " fill="#00C300" transform="translate(132.11807250976563,63.732574462890625)"/>
<path d="M0 0 C14.93266833 13.76531722 28.02663236 31.16169927 33.00732422 51.21728516 C33.28318359 52.26400391 33.55904297 53.31072266 33.84326172 54.38916016 C39.70624771 79.45476998 34.77989957 103.26503503 22.19482422 125.40478516 C8.8058975 146.48970913 -9.58225576 163.81014851 -29.28417969 178.90283203 C-30.88759385 180.13643904 -32.47774768 181.38722744 -34.06689453 182.63916016 C-95.64312764 230.8909587 -95.64312764 230.8909587 -113.99267578 229.21728516 C-115.99267578 227.21728516 -115.99267578 227.21728516 -116.22314453 224.82666016 C-116.20896484 223.88306641 -116.19478516 222.93947266 -116.18017578 221.96728516 C-116.17373047 221.03400391 -116.16728516 220.10072266 -116.16064453 219.13916016 C-115.99267578 216.21728516 -115.99267578 216.21728516 -115.50048828 213.33447266 C-114.91290333 209.72760503 -114.74973121 206.2457754 -114.68017578 202.59228516 C-114.64279297 201.30064453 -114.60541016 200.00900391 -114.56689453 198.67822266 C-114.99267578 195.21728516 -114.99267578 195.21728516 -116.53173828 192.88134766 C-119.74190004 190.71066685 -122.941709 189.96337039 -126.68017578 189.21728516 C-127.43057129 189.05268799 -128.1809668 188.88809082 -128.95410156 188.71850586 C-131.29763254 188.20465086 -133.6443745 187.70883594 -135.99267578 187.21728516 C-172.24227789 179.60182253 -205.64251906 162.38018801 -226.99267578 131.21728516 C-241.35598276 109.20115059 -247.69727792 83.17274535 -242.46875 57.17089844 C-236.00812488 28.34275231 -216.64718008 3.6825771 -192.17529297 -12.41796875 C-179.5712888 -20.29899597 -166.25530742 -26.59574191 -151.99267578 -30.78271484 C-151.32429688 -30.97945801 -150.65591797 -31.17620117 -149.96728516 -31.37890625 C-99.34352362 -45.89349682 -39.66877587 -35.48902247 0 0 Z " fill="#FDFEFD" transform="translate(359.99267578125,162.78271484375)"/>
<path d="M0 0 C8.43025575 2.85771381 12.97000788 12.33125312 17.91015625 19.3515625 C22.68039831 26.09767532 27.70601738 32.65937866 32.6875 39.25 C32.69160889 38.24622314 32.69571777 37.24244629 32.69995117 36.20825195 C32.72178312 32.47108156 32.77611294 28.73495799 32.84008789 24.99829102 C32.86323286 23.38348451 32.87765543 21.76852779 32.88305664 20.15356445 C32.89237274 17.82668852 32.93341368 15.50216324 32.98046875 13.17578125 C32.97850243 12.81683022 32.97850243 12.81683022 32.96855164 11.00032043 C33.08052421 7.1222116 33.60323173 5.35876847 36.00512695 2.25854492 C38.6875 0.25 38.6875 0.25 42.3125 0.1875 C46.07863824 1.37313611 46.78335008 1.91599675 48.6875 5.25 C49.07518005 7.97520447 49.07518005 7.97520447 49.09155273 11.13256836 C49.10423691 12.31737289 49.11692108 13.50217743 49.12998962 14.72288513 C49.12705399 15.99898148 49.12411835 17.27507782 49.12109375 18.58984375 C49.1263356 19.90408829 49.13157745 21.21833282 49.13697815 22.57240295 C49.14590429 25.35232144 49.14349237 28.13195258 49.13354492 30.91186523 C49.12205922 34.46745361 49.14226128 38.02204823 49.17146206 41.57750607 C49.19426356 44.97750416 49.18735583 48.37727106 49.18359375 51.77734375 C49.19482773 53.05141586 49.20606171 54.32548798 49.21763611 55.63816833 C49.21294563 56.23214668 49.21294563 56.23214668 49.18920898 59.23803711 C49.18904282 60.28076279 49.18887665 61.32348846 49.18870544 62.39781189 C48.55471503 66.00563369 47.25828461 67.67997265 44.6875 70.25 C41.375 71.0625 41.375 71.0625 37.6875 70.25 C34.82952142 67.9919273 32.82411841 65.17972423 30.6875 62.25 C29.95917969 61.25484375 29.23085938 60.2596875 28.48046875 59.234375 C26.81299214 56.92888053 25.16718986 54.60921127 23.53125 52.28125 C20.25082212 47.61512414 16.90636978 42.99576952 13.5625 38.375 C12.4348876 36.81511012 11.30728274 35.25521479 10.1796875 33.6953125 C9.34901136 32.54683664 8.51830387 31.39838346 7.6875 30.25 C7.6781543 31.31959961 7.66880859 32.38919922 7.65917969 33.49121094 C7.61926488 37.4649397 7.55350279 41.43789544 7.47998047 45.41113281 C7.45177933 47.12978169 7.43056046 48.84856005 7.41650391 50.56738281 C7.39506167 53.04038747 7.34840844 55.51183675 7.296875 57.984375 C7.29626068 58.36778046 7.29626068 58.36778046 7.29315186 60.30804443 C7.19687706 63.82556565 6.96486268 65.87749973 4.83691406 68.73535156 C1.89394015 70.80920551 0.21240945 70.83748491 -3.3125 70.25 C-6.09766798 68.11620322 -7.18919066 66.93165381 -7.82043457 63.44213867 C-7.82361694 62.3616626 -7.82679932 61.28118652 -7.83007812 60.16796875 C-7.83638245 59.55393188 -7.83638245 59.55393188 -7.86828613 56.4465332 C-7.86112627 55.11018295 -7.85292227 53.77383795 -7.84375 52.4375 C-7.84644577 51.06274135 -7.85032889 49.68798456 -7.85534668 48.31323242 C-7.86123793 45.43487356 -7.85269176 42.55701191 -7.83398438 39.67871094 C-7.81119389 35.99295984 -7.82431913 32.30837378 -7.84827423 28.62266541 C-7.86274299 25.78470107 -7.85812154 22.94701202 -7.84776306 20.10903931 C-7.8450987 18.75029359 -7.84835541 17.39152272 -7.85768127 16.0328064 C-7.86786241 14.13255301 -7.84958729 12.23221176 -7.83007812 10.33203125 C-7.82689575 9.25155518 -7.82371338 8.1710791 -7.82043457 7.05786133 C-6.9559725 2.27911666 -4.78001565 0.3607559 0 0 Z " fill="#03C303" transform="translate(248.3125,205.75)"/>
<path d="M0 0 C0.35747566 -0.00191345 0.35747566 -0.00191345 2.16651917 -0.01159668 C3.67523612 -0.01431259 5.18400042 -0.00697364 6.69262695 0.00976562 C8.9934272 0.03115259 11.29109438 0.00997392 13.59179688 -0.015625 C15.06120477 -0.01298105 16.53061072 -0.00785466 18 0 C18.68348007 -0.00809692 19.36696014 -0.01619385 20.07115173 -0.02453613 C23.57728199 0.04374899 25.50899548 0.49505594 28.50024414 2.38085938 C30.56640625 4.53125 30.56640625 4.53125 31.19140625 7.46875 C30.31728474 11.75194538 29.11550108 12.94851432 25.56640625 15.53125 C21.61210292 16.14854564 17.74366509 16.00217048 13.75390625 15.84375 C13.21668945 15.8324707 13.21668945 15.8324707 10.49804688 15.77539062 C7.85356737 15.71662441 5.20980692 15.62694833 2.56640625 15.53125 C2.56640625 19.82125 2.56640625 24.11125 2.56640625 28.53125 C4.2525 28.48484375 5.93859375 28.4384375 7.67578125 28.390625 C9.88930522 28.35310764 12.10284832 28.31670745 14.31640625 28.28125 C14.87199219 28.26449219 14.87199219 28.26449219 17.68359375 28.1796875 C18.75351562 28.16679687 19.8234375 28.15390625 20.92578125 28.140625 C21.91030273 28.11967773 22.89482422 28.09873047 23.90917969 28.07714844 C27.31802155 28.65969583 28.47451149 29.82947338 30.56640625 32.53125 C31.05041054 35.85013659 30.99788487 37.7316473 29.39916992 40.69433594 C27.56640625 42.53125 27.56640625 42.53125 24.9309082 42.98535156 C23.89925537 42.9644043 22.86760254 42.94345703 21.8046875 42.921875 C20.68642578 42.90898437 19.56816406 42.89609375 18.41601562 42.8828125 C17.24876953 42.84929687 16.08152344 42.81578125 14.87890625 42.78125 C13.70005859 42.76320312 12.52121094 42.74515625 11.30664062 42.7265625 C8.39288389 42.67937616 5.47954384 42.60763234 2.56640625 42.53125 C2.56640625 47.15125 2.56640625 51.77125 2.56640625 56.53125 C4.2525 56.48484375 5.93859375 56.4384375 7.67578125 56.390625 C9.88930522 56.35310764 12.10284832 56.31670745 14.31640625 56.28125 C14.87199219 56.26449219 14.87199219 56.26449219 17.68359375 56.1796875 C18.75351562 56.16679687 19.8234375 56.15390625 20.92578125 56.140625 C21.91030273 56.11967773 22.89482422 56.09873047 23.90917969 56.07714844 C27.31818891 56.65972443 28.47154192 57.83193383 30.56640625 60.53125 C31.06640625 63.53125 31.06640625 63.53125 30.56640625 66.53125 C29.015625 68.68554688 29.015625 68.68554688 26.56640625 70.53125 C23.86445667 70.9294795 21.57726053 71.09325004 18.87890625 71.0625 C18.13938721 71.0663269 17.39986816 71.07015381 16.63793945 71.07409668 C15.07794835 71.07681271 13.51791147 71.06947292 11.95800781 71.05273438 C9.57383439 71.03131673 7.19267376 71.05254263 4.80859375 71.078125 C3.29035795 71.07548166 1.77212402 71.07035656 0.25390625 71.0625 C-0.45660889 71.07059692 -1.16712402 71.07869385 -1.89916992 71.08703613 C-5.0941882 71.02668365 -7.03962518 70.82886481 -9.62072754 68.87902832 C-11.93609485 65.88047876 -11.94008711 64.21270597 -11.95117188 60.44921875 C-11.9574762 59.83518188 -11.9574762 59.83518188 -11.98937988 56.7277832 C-11.98222002 55.39143295 -11.97401602 54.05508795 -11.96484375 52.71875 C-11.96753952 51.34399135 -11.97142264 49.96923456 -11.97644043 48.59448242 C-11.98233168 45.71612356 -11.97378551 42.83826191 -11.95507812 39.95996094 C-11.93228764 36.27420984 -11.94541288 32.58962378 -11.96936798 28.90391541 C-11.98383674 26.06595107 -11.97921529 23.22826202 -11.96885681 20.39028931 C-11.96619245 19.03154359 -11.96944916 17.67277272 -11.97877502 16.3140564 C-11.98895616 14.41380301 -11.97068104 12.51346176 -11.95117188 10.61328125 C-11.9479895 9.53280518 -11.94480713 8.4523291 -11.94152832 7.33911133 C-10.72123559 0.59333548 -6.00741592 -0.07095738 0 0 Z " fill="#02C302" transform="translate(318.43359375,205.46875)"/>
<path d="M0 0 C3.75226579 1.18126886 4.45561328 1.76001494 6.375 5.0625 C6.73576355 7.47967529 6.73576355 7.47967529 6.71557617 10.19824219 C6.71534958 11.21899841 6.71512299 12.23975464 6.71488953 13.29144287 C6.69940567 14.38636047 6.68392181 15.48127808 6.66796875 16.609375 C6.66372391 17.7357135 6.65947906 18.862052 6.65510559 20.02252197 C6.63831497 23.61942463 6.60066099 27.21576672 6.5625 30.8125 C6.54745371 33.25129399 6.53376521 35.69009677 6.52148438 38.12890625 C6.48841015 44.10696205 6.43820643 50.08469097 6.375 56.0625 C7.08108398 56.03631592 7.78716797 56.01013184 8.51464844 55.9831543 C11.71787208 55.87913643 14.9207406 55.81415851 18.125 55.75 C19.23617187 55.70810547 20.34734375 55.66621094 21.4921875 55.62304688 C29.70398246 55.49937526 29.70398246 55.49937526 33.14453125 58.38671875 C34.71953952 61.81173673 34.53550278 63.5036248 33.375 67.0625 C32.30444336 68.71289062 32.30444336 68.71289062 30.375 70.0625 C27.69419302 70.3850595 25.2497288 70.53051722 22.56640625 70.53125 C21.80327621 70.53886353 21.04014618 70.54647705 20.25389099 70.55432129 C18.64089223 70.56511975 17.02782356 70.56797639 15.41479492 70.56347656 C12.94916916 70.5625046 10.48666028 70.60411309 8.02148438 70.6484375 C6.45313148 70.65364501 4.88476778 70.65633269 3.31640625 70.65625 C2.58088028 70.67264526 1.84535431 70.68904053 1.08753967 70.70593262 C-2.50755063 70.65750083 -4.21700696 70.46506494 -6.81787109 67.89880371 C-8.89939097 64.63184112 -9.13555561 62.90610486 -9.15844727 59.06640625 C-9.1742836 57.88167725 -9.19011993 56.69694824 -9.20643616 55.47631836 C-9.20395622 54.84085083 -9.20395622 54.84085083 -9.19140625 51.625 C-9.19760483 50.31217041 -9.20380341 48.99934082 -9.21018982 47.64672852 C-9.22057801 44.87270523 -9.21605568 42.09919543 -9.20141602 39.32519531 C-9.18422068 35.77725781 -9.2077372 32.23093873 -9.24290562 28.68318176 C-9.27019434 25.28869286 -9.26014287 21.8945935 -9.25390625 18.5 C-9.26716446 17.22906494 -9.28042267 15.95812988 -9.29408264 14.64868164 C-9.19049162 4.85643795 -9.19049162 4.85643795 -6.31225586 1.7265625 C-3.625 0.0625 -3.625 0.0625 0 0 Z " fill="#05C405" transform="translate(174.625,205.9375)"/>
<path d="M0 0 C4.42252834 1.31037877 4.42252834 1.31037877 6.375 4 C6.76268005 6.68760681 6.76268005 6.68760681 6.77905273 9.96850586 C6.79173691 11.19665512 6.80442108 12.42480438 6.81748962 13.69017029 C6.81543809 15.03172982 6.81244999 16.37328819 6.80859375 17.71484375 C6.81315486 19.09103148 6.81846022 20.46721692 6.82447815 21.84339905 C6.83341347 24.72764336 6.83098192 27.61161085 6.82104492 30.49584961 C6.80955869 34.18943462 6.82975764 37.8820631 6.85896206 41.57552242 C6.87732264 44.41775061 6.87703194 47.25974956 6.87132454 50.10202217 C6.87117128 51.4635712 6.87721955 52.82513573 6.88961601 54.18662834 C6.90451702 56.09173201 6.89122347 57.99699295 6.87670898 59.90209961 C6.87654282 60.98559189 6.87637665 62.06908417 6.87620544 63.18540955 C6.25133287 66.69447036 5.19028512 67.87117052 2.375 70 C-1.125 70.5625 -1.125 70.5625 -4.625 70 C-8.22421289 66.44197539 -9.12860301 64.00978984 -9.15844727 59.00390625 C-9.1742836 57.81917725 -9.19011993 56.63444824 -9.20643616 55.41381836 C-9.20395622 54.77835083 -9.20395622 54.77835083 -9.19140625 51.5625 C-9.19760483 50.24967041 -9.20380341 48.93684082 -9.21018982 47.58422852 C-9.22057801 44.81020523 -9.21605568 42.03669543 -9.20141602 39.26269531 C-9.18422068 35.71475781 -9.2077372 32.16843873 -9.24290562 28.62068176 C-9.27019434 25.22619286 -9.26014287 21.8320935 -9.25390625 18.4375 C-9.26716446 17.16656494 -9.28042267 15.89562988 -9.29408264 14.58618164 C-9.19049079 4.79385906 -9.19049079 4.79385906 -6.31225586 1.66015625 C-3.625 0 -3.625 0 0 0 Z " fill="#07C407" transform="translate(223.625,206)"/>
</svg>
