<?xml version="1.0" encoding="UTF-8"?>
<!-- Generator: visioncortex VTracer 0.6.12 -->
<svg version="1.1" xmlns="http://www.w3.org/2000/svg" width="512" height="512">
<path d="M0 0 C1.35504129 -0.00231128 2.71008132 -0.00549223 4.06511879 -0.00945449 C7.74621046 -0.0177196 11.42719697 -0.01371545 15.10828876 -0.00748205 C19.09472133 -0.00292423 23.08113683 -0.00995771 27.06756592 -0.01544189 C34.86023665 -0.02430225 42.6528687 -0.02242892 50.4455409 -0.01661661 C56.78280929 -0.01208686 63.12006689 -0.01149289 69.45733643 -0.01366425 C69.90952618 -0.01381748 69.90952618 -0.01381748 72.19788039 -0.01459293 C74.03551468 -0.01523243 75.87314896 -0.01588085 77.71078324 -0.01653811 C94.91376204 -0.02223157 112.11671947 -0.01569899 129.31969476 -0.00493738 C144.05802986 0.00399723 158.79633344 0.00244491 173.53466797 -0.0067749 C190.67906144 -0.01749495 207.82343621 -0.02168234 224.96783257 -0.01555037 C226.79844029 -0.01491332 228.62904803 -0.01428458 230.45965576 -0.01366425 C231.36018413 -0.01335569 232.2607125 -0.01304714 233.18852961 -0.01272924 C239.51299976 -0.0110075 245.83745797 -0.01390613 252.16192627 -0.01862335 C259.8767503 -0.02425149 267.59153367 -0.02267525 275.30635309 -0.01206186 C279.23722475 -0.00683108 283.16802879 -0.00470381 287.09889984 -0.01136017 C290.70621193 -0.01737593 294.31339452 -0.01395314 297.92069507 -0.00340506 C299.82441209 -0.00015791 301.72813829 -0.00659133 303.63184547 -0.01351953 C321.91901759 0.06857471 336.82422612 3.18010398 350.58349609 15.62896729 C363.78542833 30.2205766 366.28182371 46.02238501 366.21246338 65.25787354 C366.21477387 66.62101405 366.2179543 67.98415332 366.22191787 69.34729004 C366.23019383 73.05537449 366.22617375 76.76335475 366.21994543 80.47143936 C366.21539216 84.48513715 366.22241886 88.49881789 366.22790527 92.51251221 C366.23677041 100.360464 366.23489014 108.20837742 366.22907999 116.05633068 C366.22455214 122.43796795 366.22395545 128.8195945 366.22612762 135.20123291 C366.22643409 136.11158735 366.22674056 137.0219418 366.22705631 137.95988274 C366.2276958 139.80959829 366.22834423 141.65931384 366.22900149 143.50902939 C366.23469635 160.82928909 366.22816016 178.14952757 366.21740076 195.46978378 C366.20846602 210.31191807 366.2100183 225.15402106 366.21923828 239.99615479 C366.22995584 257.25699376 366.23414711 274.51781417 366.22801375 291.77865601 C366.2273767 293.62133789 366.22674795 295.46401977 366.22612762 297.30670166 C366.22581907 298.21319395 366.22551052 299.11968624 366.22519262 300.05364799 C366.22347014 306.42316002 366.22637113 312.79266022 366.23108673 319.16217041 C366.23671209 326.93084595 366.23514442 334.6994811 366.22452524 342.46815205 C366.21929075 346.42724643 366.21717362 350.38627363 366.22382355 354.34536743 C366.22983148 357.97733914 366.22642903 361.60918207 366.21586844 365.24114227 C366.21261508 367.16055827 366.21906181 369.07998337 366.2259829 370.99938965 C366.14595251 388.91263876 362.75190068 403.42967801 350.58349609 416.87896729 C335.72320922 430.32398874 319.47295336 432.5791049 299.91699219 432.50793457 C298.5619509 432.51024585 297.20691087 432.51342681 295.8518734 432.51738906 C292.17078173 432.52565417 288.48979522 432.52165002 284.80870342 432.51541662 C280.82227086 432.5108588 276.83585535 432.51789228 272.84942627 432.52337646 C265.05675554 432.53223682 257.26412349 432.53036349 249.47145128 432.52455118 C243.1341829 432.52002143 236.7969253 432.51942746 230.45965576 432.52159882 C229.55527625 432.52190528 228.65089675 432.52221175 227.7191118 432.5225275 C225.88147751 432.523167 224.04384323 432.52381542 222.20620894 432.52447268 C205.00323015 432.53016614 187.80027272 432.52363356 170.59729743 432.51287195 C155.85896233 432.50393734 141.12065875 432.50548966 126.38232422 432.51470947 C109.23793075 432.52542952 92.09355598 432.52961691 74.94915962 432.52348495 C73.11855189 432.52284789 71.28794416 432.52221915 69.45733643 432.52159882 C68.55680806 432.52129026 67.65627969 432.52098171 66.72846258 432.52066381 C60.40399243 432.51894207 54.07953422 432.5218407 47.75506592 432.52655792 C40.04024188 432.53218606 32.32545851 432.53060983 24.6106391 432.51999643 C20.67976744 432.51476565 16.7489634 432.51263838 12.81809235 432.51929474 C9.21078026 432.5253105 5.60359767 432.52188771 1.99629712 432.51133963 C0.0925801 432.50809248 -1.81114611 432.5145259 -3.71485329 432.5214541 C-22.0020254 432.43935986 -36.90723393 429.32783059 -50.66650391 416.87896729 C-63.86843614 402.28735798 -66.36483152 386.48554956 -66.29547119 367.25006104 C-66.29778168 365.88692052 -66.30096211 364.52378125 -66.30492568 363.16064453 C-66.31320165 359.45256008 -66.30918156 355.74457982 -66.30295324 352.03649521 C-66.29839998 348.02279742 -66.30542668 344.00911668 -66.31091309 339.99542236 C-66.31977823 332.14747057 -66.31789795 324.29955715 -66.3120878 316.45160389 C-66.30755995 310.06996662 -66.30696326 303.68834007 -66.30913544 297.30670166 C-66.3094419 296.39634722 -66.30974837 295.48599277 -66.31006412 294.54805183 C-66.31070361 292.69833628 -66.31135204 290.84862073 -66.3120093 288.99890518 C-66.31770416 271.67864548 -66.31116797 254.358407 -66.30040857 237.03815079 C-66.29147383 222.1960165 -66.29302611 207.35391351 -66.30224609 192.51177979 C-66.31296366 175.25094081 -66.31715492 157.9901204 -66.31102157 140.72927856 C-66.31038451 138.88659668 -66.30975577 137.0439148 -66.30913544 135.20123291 C-66.30882689 134.29474062 -66.30851833 133.38824833 -66.30820043 132.45428658 C-66.30647795 126.08477455 -66.30937894 119.71527435 -66.31409454 113.34576416 C-66.31971991 105.57708862 -66.31815223 97.80845347 -66.30753306 90.03978252 C-66.30229857 86.08068814 -66.30018143 82.12166094 -66.30683136 78.16256714 C-66.3128393 74.53059543 -66.30943684 70.8987525 -66.29887626 67.2667923 C-66.2956229 65.3473763 -66.30206962 63.4279512 -66.30899072 61.50854492 C-66.22896032 43.59529581 -62.83490849 29.07825656 -50.66650391 15.62896729 C-35.80621703 2.18394583 -19.55596117 -0.07117033 0 0 Z M14.11865234 92.04302979 C9.23501975 97.21628476 7.38958093 101.44605126 6.58349609 108.56646729 C7.29270517 115.54035654 9.44753789 121.29367482 14.64599609 126.12896729 C23.12520138 132.74993053 31.90956606 134.91294401 42.63037109 134.03521729 C51.29484621 132.63598528 58.38470247 128.89551491 63.81005859 121.94146729 C67.49989028 116.51967379 68.35344101 110.74212027 67.33349609 104.31646729 C65.01964064 96.49775311 61.09884149 91.80369203 54.23974609 87.48052979 C41.47823202 80.61903078 24.68191889 81.77131837 14.11865234 92.04302979 Z M6.95849609 165.25396729 C6.95849609 229.27396729 6.95849609 293.29396729 6.95849609 359.25396729 C27.08849609 359.25396729 47.21849609 359.25396729 67.95849609 359.25396729 C67.95849609 295.23396729 67.95849609 231.21396729 67.95849609 165.25396729 C47.82849609 165.25396729 27.69849609 165.25396729 6.95849609 165.25396729 Z M98.95849609 165.25396729 C98.95849609 229.27396729 98.95849609 293.29396729 98.95849609 359.25396729 C119.08849609 359.25396729 139.21849609 359.25396729 159.95849609 359.25396729 C159.98427734 351.3197876 160.01005859 343.38560791 160.03662109 335.21099854 C160.0618058 330.16604494 160.08815139 325.12115033 160.11865234 320.07623291 C160.16688951 312.07955987 160.21097113 304.0830468 160.22949219 296.08624268 C160.24470459 289.63457409 160.27923209 283.18326445 160.32680511 276.73175621 C160.34157159 274.27800312 160.34953437 271.82419876 160.35037994 269.37040138 C160.37247567 237.38378236 160.37247567 237.38378236 170.95849609 225.25396729 C177.93340237 218.41435014 185.84492108 216.15009043 195.45849609 215.87896729 C205.22203569 216.15399657 213.52454638 218.74747771 220.95849609 225.25396729 C229.11235509 234.40662861 231.56358971 246.06300062 231.50439453 257.98931885 C231.51473221 259.09322464 231.52506989 260.19713043 231.53572083 261.33448792 C231.56492471 264.93800891 231.56664328 268.54096276 231.56787109 272.14459229 C231.58286782 274.66094011 231.59959808 277.17727815 231.61798096 279.69360352 C231.65706468 285.61122193 231.67882855 291.52870036 231.69195485 297.44642901 C231.7122756 306.0417819 231.76819288 314.63691902 231.81965637 323.23213196 C231.88829245 335.23944813 231.91988639 347.24634804 231.95849609 359.25396729 C252.08849609 359.25396729 272.21849609 359.25396729 292.95849609 359.25396729 C293.0789871 330.27811185 293.0789871 330.27811185 293.1092577 315.84095287 C293.12580421 308.0704458 293.14672342 300.30003661 293.18481445 292.52960205 C293.21823554 285.70848957 293.23540353 278.88748301 293.24312782 272.06629372 C293.24862494 269.47789662 293.25935783 266.88950461 293.27568626 264.30115318 C293.44684783 236.01632039 291.79330919 208.09989589 271.18505859 186.49224854 C270.81767578 186.12293213 270.81767578 186.12293213 268.95849609 184.25396729 C268.66330078 183.94136963 268.66330078 183.94136963 267.16943359 182.35943604 C256.31800293 171.7709255 239.8475116 166.09529864 224.95849609 165.25396729 C224.56146484 165.2275415 224.56146484 165.2275415 222.55224609 165.09381104 C200.72027691 164.33758319 181.80672628 172.64509593 165.11083984 186.20318604 C162.95849609 188.25396729 162.95849609 188.25396729 161.95849609 191.25396729 C161.29849609 191.25396729 160.63849609 191.25396729 159.95849609 191.25396729 C159.95849609 182.67396729 159.95849609 174.09396729 159.95849609 165.25396729 C139.82849609 165.25396729 119.69849609 165.25396729 98.95849609 165.25396729 Z " fill="#000000" transform="translate(106.04150390625,39.74603271484375)"/>
</svg>
