<?xml version="1.0" encoding="UTF-8"?>
<!-- Generator: visioncortex VTracer 0.6.12 -->
<svg version="1.1" xmlns="http://www.w3.org/2000/svg" width="512" height="512">
<path d="M0 0 C0.52851563 0.18691406 0.52851563 0.18691406 3.203125 1.1328125 C15.07447583 5.72915603 24.90845086 12.12732148 34 21 C34.886875 21.845625 35.77375 22.69125 36.6875 23.5625 C37.450625 24.366875 38.21375 25.17125 39 26 C39.51820313 26.52335937 40.03640625 27.04671875 40.5703125 27.5859375 C48.30292677 35.80400738 53.39352923 45.78570225 57.375 56.25 C57.61355713 56.87455078 57.85211426 57.49910156 58.09790039 58.14257812 C64.75505557 76.60072578 64.61715122 99.57577503 58 118 C57.62617188 119.05703125 57.25234375 120.1140625 56.8671875 121.203125 C53.04282385 131.08062052 47.91738381 140.0273516 41.0324707 148.08325195 C40.55478147 148.64417447 40.07709223 149.20509699 39.58492756 149.78301716 C34.19768825 156.03458305 28.43439544 161.89375413 22.60546875 167.73046875 C21.44390187 168.89849247 20.28247208 170.06665253 19.12117004 171.23493958 C16.70692015 173.66104081 14.28870085 176.0831019 11.86791992 178.50268555 C8.80218646 181.56821557 5.7504779 184.64730841 2.70208263 187.73006725 C0.31433834 190.14028637 -2.08268323 192.54112013 -4.48221397 194.93959999 C-5.60990635 196.06961434 -6.73444961 197.20278243 -7.85541725 198.339468 C-27.82865545 218.5666273 -51.69472747 231.96184352 -80.75 232.3125 C-90.97526866 232.29734504 -101.56150385 231.13496022 -111 227 C-109.64627618 223.99868194 -108.11999533 221.84191716 -105.84228516 219.47241211 C-105.20046295 218.80169174 -104.55864075 218.13097137 -103.89736938 217.43992615 C-100.93241547 214.3986435 -97.96611532 211.35911039 -94.98193359 208.33666992 C-93.41851143 206.74523118 -91.86496257 205.14402865 -90.32177734 203.53295898 C-74.60501265 187.1275124 -74.60501265 187.1275124 -63 186 C-49.83038923 180.73853323 -40.19606402 169.36948045 -30.33203125 159.5703125 C-30.06517108 159.30549009 -30.06517108 159.30549009 -28.71469688 157.96532822 C-25.89616834 155.16745404 -23.08078071 152.36646198 -20.26782227 149.56298828 C-17.39189929 146.69815982 -14.50446802 143.84522387 -11.61436939 140.99470711 C-9.36404928 138.7707149 -7.12283528 136.53770679 -4.88385582 134.30230331 C-3.82407421 133.24733622 -2.76096952 132.19569479 -1.69425392 131.14773941 C10.15627113 119.49300424 19.02538308 106.94382054 20.03515625 89.8515625 C19.84885635 74.74057064 14.86626553 63.30611855 5 52 C-5.03724647 42.43050871 -18.35312341 38.16785826 -32 38 C-52.25124843 39.41470558 -64.81012411 51.49601621 -78.5078125 65.1015625 C-79.08441494 65.67251019 -79.66101738 66.24345787 -80.25509262 66.831707 C-83.30417044 69.85103562 -86.34763191 72.87588832 -89.38623047 75.90576172 C-92.4901345 78.99870363 -95.61217107 82.07263275 -98.73889351 85.14248085 C-101.17380244 87.53978338 -103.59484349 89.95074852 -106.01253891 92.36539841 C-107.15638473 93.5032739 -108.30512981 94.63625027 -109.45923233 95.76372147 C-118.5507424 104.66016555 -126.65257689 114.05614597 -129.47583008 126.80200195 C-130.96621887 133.21556086 -134.70997071 136.73447224 -139.38671875 141.16796875 C-139.79522316 141.57081337 -139.79522316 141.57081337 -141.86250305 143.60945129 C-144.4525263 146.1550247 -147.0690478 148.6712125 -149.6875 151.1875 C-151.45821385 152.91804766 -153.22711428 154.6504529 -154.99414062 156.38476562 C-159.30868915 160.61155134 -163.64529425 164.81461965 -168 169 C-168.66 168.67 -169.32 168.34 -170 168 C-177.50153652 143.5571944 -175.0713548 117.05908281 -163.1484375 94.49609375 C-155.67298759 81.88313345 -145.82474255 71.50970412 -135.51171875 61.2109375 C-134.32000185 60.01531947 -133.12850348 58.8194836 -131.93721008 57.6234436 C-129.45540871 55.13423907 -126.96984658 52.64886641 -124.48168945 50.16601562 C-121.32331292 47.01343409 -118.17646142 43.84962098 -115.03259563 40.68257713 C-112.57976805 38.21488785 -110.11990934 35.75429842 -107.65809059 33.29558182 C-106.49615849 32.13314301 -105.336527 30.96839908 -104.17944908 29.80112839 C-76.68086566 2.09002228 -38.97486059 -13.99801331 0 0 Z " fill="#000000" transform="translate(409,45)"/>
<path d="M0 0 C-6.0341413 7.14815427 -12.43778302 13.87335112 -18.9831543 20.55297852 C-20.36599569 21.97251384 -21.73979521 23.40091546 -23.10424805 24.83813477 C-36.58606204 39.02481652 -36.58606204 39.02481652 -46.7305603 41.14256287 C-58.64193283 44.26641712 -67.03408233 53.30202711 -75.39453125 61.765625 C-76.63776303 63.00802558 -77.88181356 64.24960734 -79.12663269 65.49041748 C-81.71706833 68.07801416 -84.29861776 70.67405996 -86.8737793 73.27685547 C-90.15088297 76.58805535 -93.44767336 79.87878914 -96.75119495 83.16360855 C-99.31796276 85.71973489 -101.87478464 88.28563036 -104.42874718 90.85454559 C-105.63984196 92.07076911 -106.85369204 93.28425619 -108.07050514 94.49475861 C-120.25142656 106.63616009 -129.97843181 119.2614434 -131.03515625 137.1484375 C-130.85210841 151.99565086 -126.07122966 164.09194805 -116 175 C-105.96201944 184.04207089 -93.55434676 189.14894887 -80 189 C-59.11843862 187.55276307 -46.66592959 175.97683515 -32.4921875 161.8984375 C-31.91558506 161.32748981 -31.33898262 160.75654213 -30.74490738 160.168293 C-27.69582956 157.14896438 -24.65236809 154.12411168 -21.61376953 151.09423828 C-18.5098655 148.00129637 -15.38782893 144.92736725 -12.26110649 141.85751915 C-9.82619756 139.46021662 -7.40515651 137.04925148 -4.98746109 134.63460159 C-3.84361527 133.4967261 -2.69487019 132.36374973 -1.54076767 131.23627853 C7.72345246 122.17083003 15.83724689 112.74024692 18.48950195 99.69042969 C19.89383073 93.01888382 23.29667818 89.53129739 28.16796875 84.953125 C28.96278152 84.17104675 29.7575943 83.38896851 30.57649231 82.58319092 C33.0929827 80.11664543 35.63903385 77.6834488 38.1875 75.25 C39.91026646 73.57242882 41.63099193 71.89275896 43.34960938 70.2109375 C47.54312344 66.11607342 51.76130516 62.04805084 56 58 C56.99 58.33 57.98 58.66 59 59 C66.75459413 81.56785726 64.0335035 107.63381178 54 129 C50.38252476 135.97315951 46.07616485 142.14026678 40.99584961 148.11035156 C40.51991584 148.67043537 40.04398207 149.23051918 39.55362606 149.80757523 C34.23115013 155.99640035 28.52727084 161.78189831 22.75390625 167.546875 C21.6098902 168.69479595 20.46609116 169.8429332 19.32249451 170.99127197 C16.94679154 173.37435672 14.56735827 175.75363687 12.18530273 178.13037109 C9.16373723 181.14612864 6.15373658 184.17314558 3.14666843 187.20335007 C0.79507045 189.56981223 -1.56355971 191.92917057 -3.92415047 194.28665924 C-5.03584346 195.39885829 -6.14524206 196.51335654 -7.25207329 197.63039398 C-27.70503398 218.24891115 -50.54932853 231.1248225 -80.125 231.375 C-103.51161321 231.42303412 -122.68244617 224.5649994 -141 210 C-141.515625 209.6184375 -141.515625 209.6184375 -144.125 207.6875 C-159.5789256 193.24143912 -171.85422023 171.56637341 -173.17700195 150.13183594 C-173.85677135 115.21714639 -165.70881156 92.61323337 -141.28897095 67.17602539 C-138.29019145 64.09939226 -135.2665124 61.04761137 -132.23828125 58 C-131.69031576 57.44795898 -131.14235027 56.89591797 -130.57777977 56.32714844 C-127.67919902 53.40789385 -124.77748427 50.49179557 -121.87329102 47.578125 C-118.91457642 44.6083549 -115.96774482 41.62707787 -113.02340412 38.64306641 C-110.71956247 36.31279548 -108.40660627 33.99172563 -106.09129906 31.67285156 C-105.00251763 30.57927592 -103.91704068 29.48239767 -102.83532143 28.38183594 C-77.13129974 2.25790672 -36.1770543 -16.1567427 0 0 Z " fill="#000000" transform="translate(214,240)"/>
<path d="M0 0 C5.31786039 3.95551099 7.93219814 8.06882519 9.0625 14.6875 C9.41523796 22.37578475 7.62548153 28.09093415 2.40315127 33.89686191 C-0.3413951 36.79034958 -3.16709858 39.59610745 -6.00634766 42.39624023 C-7.27441979 43.67216984 -8.54099285 44.94959077 -9.80618286 46.2283783 C-13.23253116 49.68227026 -16.68044152 53.1138442 -20.13357973 56.54092669 C-23.75166813 60.13750326 -27.35218451 63.75160094 -30.95541382 67.36305237 C-37.0075749 73.42336279 -43.07396439 79.46914264 -49.14892578 85.5065918 C-56.16389841 92.47862179 -63.15532598 99.47360469 -70.13471186 106.48124546 C-76.86078139 113.23338099 -83.60370657 119.96844162 -90.35425949 126.69609261 C-93.2217161 129.5544683 -96.08308407 132.41873943 -98.9396553 135.28799248 C-102.30613465 138.66794716 -105.68713254 142.03268469 -109.07972336 145.38642311 C-110.31958753 146.61678684 -111.55443413 147.85223161 -112.78372192 149.09316254 C-119.74843072 156.11676547 -125.30070672 161.69511954 -135.66015625 162.625 C-141.67400844 161.96481726 -146.33109484 160.49480734 -150.875 156.375 C-155.66508638 150.36951857 -157.3884979 145.07746854 -156.875 137.375 C-155.3902363 131.66562799 -152.85662382 127.62502843 -148.63949585 123.49784851 C-148.11242086 122.962268 -147.58534587 122.42668749 -147.04229891 121.87487727 C-145.28774239 120.09818365 -143.51601822 118.33972469 -141.74365234 116.58081055 C-140.47601022 115.30474896 -139.20942543 114.02763628 -137.94381714 112.7495575 C-134.51308245 109.29181667 -131.06670209 105.85008435 -127.61642027 102.41186118 C-124.73387425 99.53645684 -121.85919076 96.65325662 -118.98448336 93.77001888 C-112.20123194 86.9668287 -105.40532872 80.17646634 -98.60107422 73.39428711 C-91.58903793 66.40461471 -84.59721553 59.39518949 -77.61528814 52.37545174 C-71.61248599 46.34139046 -65.59806708 40.31908847 -59.57406962 34.30618697 C-55.97965158 30.7182481 -52.3895848 27.12622395 -48.8103447 23.52313805 C-45.44369833 20.1352069 -42.06270685 16.76227025 -38.67027664 13.40016365 C-37.43038633 12.16658915 -36.19553906 10.92792094 -34.96627808 9.68375397 C-24.94600894 -0.44808287 -14.04658541 -8.58914157 0 0 Z " fill="#000000" transform="translate(329.875,176.625)"/>
</svg>
