<?xml version="1.0" encoding="UTF-8"?>
<!-- Generator: visioncortex VTracer 0.6.12 -->
<svg version="1.1" xmlns="http://www.w3.org/2000/svg" width="512" height="512">
<path d="M0 0 C1.1089003 -0.00445784 2.2178006 -0.00891569 3.36030394 -0.01350862 C4.57847081 -0.01332426 5.79663769 -0.01313989 7.05171871 -0.01294994 C7.69883177 -0.01478829 7.69883177 -0.01478829 10.97361606 -0.02409142 C14.56904394 -0.03410344 18.16445513 -0.03782693 21.75989497 -0.04048073 C25.63669742 -0.0443862 29.51348669 -0.05396442 33.39028072 -0.0626936 C42.75470722 -0.08245191 52.11913479 -0.09252374 61.48357692 -0.10142139 C65.89481022 -0.10580561 70.30604232 -0.1111721 74.71727467 -0.11641026 C89.38383294 -0.13342245 104.05039047 -0.14791601 118.71695709 -0.155159 C122.52263102 -0.15706885 126.32830494 -0.15898919 130.13397884 -0.16094494 C130.60691288 -0.16118681 130.60691288 -0.16118681 133.00024574 -0.16241082 C148.31826535 -0.17070883 163.6362068 -0.19604191 178.95419229 -0.22852562 C194.68527624 -0.261613 210.41632049 -0.27960931 226.14743942 -0.28280324 C234.97805498 -0.28496686 243.8085566 -0.29369373 252.63913822 -0.31926441 C260.16071091 -0.34099442 267.68214199 -0.34901056 275.20374251 -0.33929763 C279.03907345 -0.33475947 282.87411234 -0.33661059 286.70940304 -0.35605907 C290.87441249 -0.37699641 295.03877711 -0.36668447 299.20381832 -0.35352612 C299.80509423 -0.35901074 299.80509423 -0.35901074 302.84791476 -0.38676625 C314.14239462 -0.30078273 323.06242333 2.65647125 331.57221127 10.13422108 C332.17807064 10.63566639 332.78393002 11.1371117 333.40814877 11.65375233 C339.53520592 17.15205034 343.94415715 25.03892196 345.57221127 33.13422108 C345.66447775 34.94168363 345.70305531 36.75219695 345.70643234 38.56200981 C345.71089019 39.67091011 345.71534803 40.77981041 345.71994096 41.92231375 C345.71984878 42.53139719 345.71984878 42.53139719 345.71938229 45.61372852 C345.72305897 46.90795465 345.72673566 48.20218078 345.73052377 49.53562587 C345.74053578 53.13105375 345.74425928 56.72646494 345.74691308 60.32190478 C345.75081854 64.19870724 345.76039676 68.0754965 345.76912594 71.95229053 C345.78888425 81.31671703 345.79895609 90.6811446 345.80785373 100.04558674 C345.81223796 104.45682003 345.81760445 108.86805213 345.8228426 113.27928448 C345.83985479 127.94584275 345.85434835 142.61240028 345.86159134 157.2789669 C345.8635012 161.08464083 345.86542153 164.89031475 345.86737728 168.69598866 C345.86786102 169.64185673 345.86834476 170.58772481 345.86884316 171.56225555 C345.87714117 186.88027516 345.90247425 202.19821661 345.93495796 217.5162021 C345.96804534 233.24728605 345.98604165 248.97833031 345.98923558 264.70944923 C345.9913992 273.54006479 346.00012607 282.37056642 346.02569675 291.20114803 C346.04742676 298.72272073 346.0554429 306.2441518 346.04572997 313.76575232 C346.04119181 317.60108326 346.04304293 321.43612215 346.06249142 325.27141285 C346.08342875 329.4364223 346.07311681 333.60078692 346.05995846 337.76582813 C346.06544308 338.36710404 346.06544308 338.36710404 346.0931986 341.40992457 C346.00721507 352.70440443 343.04996109 361.62443314 335.57221127 370.13422108 C335.07076595 370.74008045 334.56932064 371.34593983 334.05268002 371.97015858 C328.554382 378.09721573 320.66751038 382.50616697 312.57221127 384.13422108 C310.76474871 384.22648756 308.95423539 384.26506512 307.14442253 384.26844215 C306.58997238 384.27067108 306.58997238 384.27067108 303.78411859 384.28195077 C302.56595172 384.28176641 301.34778484 384.28158205 300.09270382 384.2813921 C298.79847769 384.28506879 297.50425157 384.28874547 296.17080647 384.29253358 C292.57537859 384.30254559 288.97996741 384.30626909 285.38452756 384.30892289 C281.50772511 384.31282835 277.63093584 384.32240657 273.75414181 384.33113575 C264.38971531 384.35089406 255.02528774 384.3609659 245.66084561 384.36986354 C241.24961231 384.37424777 236.83838021 384.37961426 232.42714787 384.38485241 C217.76058959 384.4018646 203.09403206 384.41635816 188.42746544 384.42360115 C184.62179151 384.42551101 180.81611759 384.42743135 177.01044369 384.42938709 C176.53750965 384.42962896 176.53750965 384.42962896 174.14417679 384.43085297 C158.82615719 384.43915098 143.50821573 384.46448406 128.19023024 384.49696777 C112.45914629 384.53005516 96.72810204 384.54805146 80.99698311 384.55124539 C72.16636755 384.55340901 63.33586593 384.56213588 54.50528431 384.58770657 C46.98371162 384.60943657 39.46228054 384.61745272 31.94068002 384.60773978 C28.10534908 384.60320162 24.27031019 384.60505274 20.43501949 384.62450123 C16.27001004 384.64543856 12.10564542 384.63512662 7.94060421 384.62196827 C7.3393283 384.62745289 7.3393283 384.62745289 4.29650778 384.65520841 C-6.99797209 384.56922488 -15.9180008 381.6119709 -24.42778873 374.13422108 C-25.03364811 373.63277576 -25.63950748 373.13133045 -26.26372623 372.61468983 C-32.39078339 367.11639181 -36.79973462 359.22952019 -38.42778873 351.13422108 C-38.52005522 349.32675852 -38.55863278 347.5162452 -38.56200981 345.70643234 C-38.56646766 344.59753204 -38.5709255 343.48863174 -38.57551843 342.3461284 C-38.57533407 341.12796153 -38.5751497 339.90979465 -38.57495975 338.65471363 C-38.57863644 337.3604875 -38.58231313 336.06626138 -38.58610123 334.73281628 C-38.59611325 331.1373884 -38.59983675 327.54197722 -38.60249054 323.94653738 C-38.60639601 320.06973492 -38.61597423 316.19294565 -38.62470341 312.31615162 C-38.64446172 302.95172512 -38.65453355 293.58729755 -38.6634312 284.22285542 C-38.66781543 279.81162212 -38.67318191 275.40039003 -38.67842007 270.98915768 C-38.69543226 256.3225994 -38.70992582 241.65604187 -38.71716881 226.98947525 C-38.71907867 223.18380132 -38.720999 219.3781274 -38.72295475 215.5724535 C-38.72343849 214.62658542 -38.72392223 213.68071735 -38.72442063 212.7061866 C-38.73271864 197.388167 -38.75805172 182.07022554 -38.79053543 166.75224005 C-38.82362281 151.02115611 -38.84161912 135.29011185 -38.84481305 119.55899292 C-38.84697667 110.72837736 -38.85570354 101.89787574 -38.88127422 93.06729412 C-38.90300423 85.54572143 -38.91102037 78.02429035 -38.90130744 70.50268983 C-38.89676928 66.66735889 -38.8986204 62.83232 -38.91806889 58.9970293 C-38.93900622 54.83201985 -38.92869428 50.66765524 -38.91553593 46.50261402 C-38.92650517 45.3000622 -38.93747442 44.09751037 -38.94877607 42.85851759 C-38.86279254 31.56403772 -35.90553856 22.64400901 -28.42778873 14.13422108 C-27.92634342 13.5283617 -27.42489811 12.92250233 -26.90825748 12.29828358 C-20.05944917 4.6662782 -10.22812657 0.01908525 0 0 Z M39.19721127 81.44672108 C35.25850329 87.96073811 33.42033639 94.75880499 35.04096127 102.32172108 C37.1985661 109.92470953 41.12750258 114.96913009 47.88471127 119.07172108 C55.63339848 122.6173325 65.27897419 122.48263377 73.45502377 120.39984608 C75.67610938 119.48129541 77.57429506 118.46471113 79.57221127 117.13422108 C80.14197689 116.77199451 80.71174252 116.40976795 81.29877377 116.03656483 C86.58869537 112.19290258 89.26223029 106.3998848 90.57221127 100.13422108 C91.23755217 92.41626662 89.68770758 85.88423802 84.65424252 79.82562733 C78.5254871 73.91381901 72.01537566 71.14237112 63.50971127 70.82172108 C53.49874269 71.61624239 46.50373144 74.33247775 39.19721127 81.44672108 Z M36.57221127 150.13422108 C36.57221127 198.97422108 36.57221127 247.81422108 36.57221127 298.13422108 C54.06221127 298.13422108 71.55221127 298.13422108 89.57221127 298.13422108 C89.57221127 249.29422108 89.57221127 200.45422108 89.57221127 150.13422108 C72.08221127 150.13422108 54.59221127 150.13422108 36.57221127 150.13422108 Z M134.57221127 150.13422108 C134.57221127 198.97422108 134.57221127 247.81422108 134.57221127 298.13422108 C152.06221127 298.13422108 169.55221127 298.13422108 187.57221127 298.13422108 C187.59799252 291.74176014 187.62377377 285.3492992 187.65033627 278.76312733 C187.67551607 274.70254088 187.70185774 270.64202807 187.73236752 266.5814867 C187.78063617 260.14276358 187.82470587 253.70421103 187.84320736 247.26532459 C187.85840122 242.07149961 187.89289553 236.87812217 187.94052029 231.68449688 C187.9553059 229.70751247 187.96325066 227.73046416 187.96409512 225.75342464 C187.96647502 222.97435935 187.99363655 220.19652067 188.02631283 217.41766834 C188.02379765 217.01306385 188.02379765 217.01306385 188.0110693 214.96551991 C188.15442816 207.0350196 191.00049267 199.87477963 196.57221127 194.13422108 C202.19640308 190.19728681 207.81590672 189.33398196 214.57221127 190.13422108 C219.53828238 191.77312327 222.55765811 194.87138676 225.52924252 199.06000233 C228.5087831 204.98560551 228.87384916 210.68653021 228.89105892 217.19061756 C228.90110455 218.0694611 228.91115017 218.94830463 228.92150021 219.85377979 C228.95221149 222.73761859 228.96933369 225.62136507 228.98627377 228.50531483 C229.00499511 230.51314043 229.02456925 232.52095824 229.04495907 234.52876759 C229.09618406 239.79761625 229.1358613 245.0664904 229.17310238 250.33545399 C229.22026044 256.66573787 229.28181691 262.99589628 229.34094906 269.32607746 C229.42904383 278.92874108 229.49889242 288.53138207 229.57221127 298.13422108 C246.73221127 298.13422108 263.89221127 298.13422108 281.57221127 298.13422108 C281.65242888 278.84188379 281.65242888 278.84188379 281.66986752 270.4642992 C281.68171185 264.80158088 281.6955473 259.13892867 281.72309017 253.47626209 C282.06682132 180.78077538 282.06682132 180.78077538 263.54486752 160.91547108 C252.52487783 150.96474772 240.04692278 149.24966345 225.79682064 149.96576405 C211.62286581 151.03907713 200.45313678 155.95516419 190.57221127 166.13422108 C189.91221127 167.12422108 189.25221127 168.11422108 188.57221127 169.13422108 C188.24221127 162.86422108 187.91221127 156.59422108 187.57221127 150.13422108 C170.08221127 150.13422108 152.59221127 150.13422108 134.57221127 150.13422108 Z " fill="#000000" transform="translate(102.42778873443604,63.86577892303467)"/>
</svg>
