<?xml version="1.0" encoding="UTF-8"?>
<!-- Generator: visioncortex VTracer 0.6.12 -->
<svg version="1.1" xmlns="http://www.w3.org/2000/svg" width="512" height="512">
<path d="M0 0 C0.77988281 0.66902344 1.55976563 1.33804688 2.36328125 2.02734375 C14.23921658 12.46494976 25.34253797 23.56457662 34.74121094 36.296875 C35.97069396 37.96034931 37.22216212 39.60527552 38.4765625 41.25 C74.66476777 89.46985084 89.19859163 152.54493693 81.48095703 211.97167969 C74.91035525 256.70985444 56.57788551 298.7375875 27 333 C26.33097656 333.77988281 25.66195313 334.55976563 24.97265625 335.36328125 C14.53505024 347.23921658 3.43542338 358.34253797 -9.296875 367.74121094 C-10.96034931 368.97069396 -12.60527552 370.22216212 -14.25 371.4765625 C-63.32703384 408.30806952 -127.35056348 422.43659077 -187.6875 414.0390625 C-231.43989351 407.2213878 -272.4600711 388.95418345 -306 360 C-306.77988281 359.33097656 -307.55976563 358.66195313 -308.36328125 357.97265625 C-320.23921658 347.53505024 -331.34253797 336.43542338 -340.74121094 323.703125 C-341.97069396 322.03965069 -343.22216212 320.39472448 -344.4765625 318.75 C-380.63723472 270.56683624 -395.21919645 207.48966008 -387.48095703 148.10083008 C-380.89870821 103.25062308 -362.67543515 61.37541199 -333 27 C-332.33097656 26.22011719 -331.66195312 25.44023438 -330.97265625 24.63671875 C-320.53505024 12.76078342 -309.43542338 1.65746203 -296.703125 -7.74121094 C-295.03965069 -8.97069396 -293.39472448 -10.22216212 -291.75 -11.4765625 C-212.55551526 -70.91072126 -96.99796264 -70.86160417 0 0 Z M-261.375 65.5 C-264.89299765 70.91230407 -265.84427396 75.6091667 -265 82 C-263.15407842 88.07938246 -259.48464317 92.78666898 -254 96 C-248.02313984 98.325434 -242.97962046 98.456975 -237.03515625 96.03515625 C-231.09790116 93.01524723 -228.07309696 89.33383904 -225.69921875 83.25390625 C-224.00175281 77.78218642 -224.7820996 73.98702341 -227.0625 68.875 C-230.11329811 63.16453175 -233.7790436 60.07365213 -240 58 C-249.2754647 56.95107831 -254.96183852 58.7493037 -261.375 65.5 Z M-265 129 C-265 179.49 -265 229.98 -265 282 C-251.8 282 -238.6 282 -225 282 C-225 231.51 -225 181.02 -225 129 C-238.2 129 -251.4 129 -265 129 Z M-183 129 C-183 179.49 -183 229.98 -183 282 C-169.8 282 -156.6 282 -143 282 C-142.97421875 276.06386719 -142.9484375 270.12773437 -142.921875 264.01171875 C-142.89668554 260.23368178 -142.87033649 256.4557232 -142.83984375 252.67773438 C-142.79163588 246.69132265 -142.74754355 240.70509258 -142.72900391 234.71850586 C-142.71377371 229.88775289 -142.67921615 225.05747761 -142.63169098 220.22693825 C-142.61694251 218.39116397 -142.60896277 216.55532147 -142.60811615 214.71948814 C-142.59511095 200.64928135 -141.68729868 189.74467786 -131.42578125 179.1640625 C-123.94273186 172.48836304 -115.0310763 169.47964694 -105.02734375 169.81640625 C-98.22377242 170.43252928 -92.9090694 172.2765487 -87.04296875 175.78125 C-85 177 -85 177 -82.86328125 177.90625 C-80.5098531 179.28771726 -80.06135439 180.52045655 -79 183 C-77.76617388 184.95355802 -76.49679521 186.87982673 -75.21875 188.8046875 C-72.20846596 194.22705812 -71.69819423 199.38372571 -71.68115234 205.48388672 C-71.67110672 206.31381638 -71.6610611 207.14374603 -71.65071106 207.99882507 C-71.61996709 210.72577256 -71.60286846 213.45262225 -71.5859375 216.1796875 C-71.56721878 218.07684159 -71.54764484 219.97398743 -71.5272522 221.87112427 C-71.47599942 226.85228598 -71.43633702 231.83347466 -71.39910889 236.8147583 C-71.35197277 242.79794242 -71.29040433 248.78099343 -71.23126221 254.7640686 C-71.14313352 263.84265847 -71.07330928 272.92122389 -71 282 C-57.8 282 -44.6 282 -31 282 C-30.93203533 269.56002566 -30.87707511 257.12017605 -30.84456348 244.68005753 C-30.82895409 238.90268263 -30.80780257 233.12544211 -30.77368164 227.34814453 C-30.74091916 221.7654769 -30.72311149 216.18293798 -30.71536827 210.60018158 C-30.70985497 208.47768887 -30.69908935 206.35520264 -30.68280983 204.2327652 C-30.51887523 181.95997535 -34.51832222 163.79338514 -50.47021484 147.45458984 C-63.45654798 135.10658907 -81.28071692 128.4700284 -99.12109375 128.796875 C-115.62095485 129.9610443 -129.50950115 136.29385813 -142 147 C-142.165 144.03 -142.165 144.03 -143 129 C-156.2 129 -169.4 129 -183 129 Z " fill="#000000" transform="translate(409,76)"/>
</svg>
