<?xml version="1.0" encoding="UTF-8"?>
<!-- Generator: visioncortex VTracer 0.6.12 -->
<svg version="1.1" xmlns="http://www.w3.org/2000/svg" width="512" height="512">
<path d="M0 0 C0.47179687 0.38994141 0.47179687 0.38994141 2.859375 2.36328125 C25.53588653 21.93298258 39.37781449 50.45542044 43 80 C43.25134343 85.13152941 43.23510543 90.25465824 43.1953125 95.390625 C43.19157164 96.83078818 43.18872976 98.27095395 43.18673706 99.71112061 C43.17918493 103.45932327 43.15961138 107.20736521 43.1373291 110.95550537 C43.1166867 114.79713773 43.10769645 118.63879664 43.09765625 122.48046875 C43.07635542 129.98705159 43.04232446 137.49350308 43 145 C44.29099609 144.98952637 45.58199219 144.97905273 46.91210938 144.96826172 C51.72783608 144.93190612 56.54355079 144.90904306 61.359375 144.89013672 C63.43882288 144.8801145 65.51825679 144.86649313 67.59765625 144.84912109 C70.59638936 144.82470612 73.5949352 144.81347883 76.59375 144.8046875 C77.51490601 144.79436493 78.43606201 144.78404236 79.38513184 144.77340698 C88.82741063 144.77178668 97.86198614 146.4995499 105.140625 152.875 C113.18977038 161.22226187 115.61374097 170.61685332 115.50793457 182.00549316 C115.51105455 182.53104837 115.51105455 182.53104837 115.52684355 185.19067621 C115.54268921 188.68269005 115.53020195 192.17399767 115.51757812 195.66601562 C115.52300296 198.18178207 115.53012765 200.69754533 115.53881836 203.21330261 C115.55512516 209.31900227 115.55279271 215.42444409 115.5411678 221.53014696 C115.53210812 226.49548159 115.53092038 231.46076115 115.53526306 236.42610168 C115.53587599 237.13470318 115.53648893 237.84330468 115.53712043 238.57337895 C115.53839942 240.01320805 115.53969628 241.45303713 115.5410108 242.89286619 C115.55239764 256.3717174 115.53933275 269.85045952 115.51780933 283.32929283 C115.49994005 294.87697247 115.50304469 306.42449123 115.52148438 317.97216797 C115.54292469 331.40511581 115.55129918 344.83796821 115.53903532 358.27093077 C115.53776122 359.70525327 115.53650373 361.13957578 115.53526306 362.57389832 C115.53495451 362.92669014 115.53495451 362.92669014 115.53339306 364.71203056 C115.52994962 369.66732218 115.5357467 374.6225529 115.54518127 379.57783508 C115.55761744 386.2559683 115.54867389 392.93375221 115.52560425 399.61187172 C115.52032884 402.05834259 115.52181083 404.50483909 115.53065491 406.95129967 C115.54163971 410.29937606 115.52781021 413.64649113 115.50793457 416.99450684 C115.51239601 417.47472141 115.51239601 417.47472141 115.53497362 419.90489817 C115.426563 429.36628911 112.84179102 438.31096452 106.14678955 445.22685313 C97.40617341 452.44618962 88.60523431 453.87584083 77.578125 453.76190186 C76.15737476 453.76883012 74.7366353 453.77836935 73.31591797 453.79026532 C69.44375819 453.81513958 65.57249416 453.80301343 61.70033264 453.78434801 C57.51207643 453.77070671 53.32396842 453.79175908 49.13574219 453.80822754 C40.94365393 453.83484293 32.75189635 453.82917352 24.55979538 453.81175169 C17.89921109 453.79817589 11.23871917 453.79637468 4.578125 453.80289459 C4.10330814 453.80335429 4.10330814 453.80335429 1.70044708 453.80568065 C-0.22899376 453.80759909 -2.15843458 453.80954437 -4.08787537 453.8115162 C-22.16070024 453.8286066 -40.23334221 453.80898318 -58.30613708 453.776714 C-73.79793294 453.74990911 -89.28945901 453.75456579 -104.78125 453.78222656 C-122.79142698 453.8143691 -140.80144385 453.82695882 -158.81164551 453.80855298 C-160.73380531 453.80664178 -162.65596514 453.80475555 -164.578125 453.80289459 C-165.52375053 453.80196894 -166.46937607 453.80104329 -167.44365692 453.80008958 C-174.09268553 453.79491905 -180.74161218 453.80363171 -187.390625 453.81777191 C-195.49872933 453.83463684 -203.60648535 453.82996905 -211.71455002 453.79808745 C-215.84785876 453.7823681 -219.98058775 453.77605813 -224.1138916 453.79598236 C-227.90411087 453.81397584 -231.69321783 453.80385254 -235.4833374 453.77211705 C-237.49003256 453.76233144 -239.49680607 453.78172687 -241.50341797 453.80246043 C-251.02341245 453.67984201 -258.71354565 451.36636184 -266.14678955 445.22685313 C-273.7276604 437.39586779 -275.60545947 427.49704372 -275.50793457 416.94981384 C-275.51417453 415.89391432 -275.5204145 414.83801479 -275.52684355 413.75011832 C-275.54269015 410.24195207 -275.5302016 406.73448871 -275.51757812 403.22631836 C-275.52300289 400.69907733 -275.53012753 398.17183946 -275.53881836 395.64460754 C-275.55512518 389.5111698 -275.55279289 383.37798871 -275.5411678 377.24454778 C-275.53210894 372.2572748 -275.53092003 367.27005664 -275.53526306 362.28277779 C-275.53587599 361.5711122 -275.53648893 360.85944662 -275.53712043 360.12621542 C-275.53839942 358.68018359 -275.53969627 357.23415178 -275.5410108 355.78811998 C-275.55239742 342.2515952 -275.53933266 328.71517905 -275.51780933 315.17867208 C-275.4999362 303.57893994 -275.50304789 291.97936793 -275.52148438 280.37963867 C-275.54291841 266.8877369 -275.55130302 253.39593012 -275.53903532 239.90401369 C-275.53776121 238.46381129 -275.53650372 237.02360888 -275.53526306 235.58340645 C-275.53464596 234.87491799 -275.53402886 234.16642952 -275.53339306 233.43647171 C-275.52994803 228.45816808 -275.53575007 223.47992503 -275.54518127 218.50163078 C-275.55760873 211.79477395 -275.54868808 205.08826517 -275.52560425 198.38142204 C-275.5203249 195.92324321 -275.52181761 193.46503889 -275.53065491 191.00687027 C-275.54162388 187.64530721 -275.52782916 184.28470477 -275.50793457 180.92320251 C-275.51239601 180.43958605 -275.51239601 180.43958605 -275.53497362 177.99219364 C-275.4210632 168.03451826 -272.12354641 160.19296403 -265.28125 152.98046875 C-256.75430036 145.57779158 -247.60735988 144.8424 -236.7890625 144.90234375 C-235.82092621 144.9037587 -234.85278992 144.90517365 -233.85531616 144.90663147 C-230.77851201 144.91220635 -227.70178197 144.92475423 -224.625 144.9375 C-222.53255314 144.94251825 -220.44010513 144.94708059 -218.34765625 144.95117188 C-213.2317425 144.96216755 -208.11588379 144.97941485 -203 145 C-203.00888245 144.23008728 -203.01776489 143.46017456 -203.0269165 142.66693115 C-203.10796431 135.31512422 -203.16841309 127.96354194 -203.20724869 120.6114006 C-203.22788741 116.8339974 -203.25575395 113.05697136 -203.30175781 109.27978516 C-203.50015578 92.53295743 -203.63071169 76.25746262 -199 60 C-198.85868652 59.49275391 -198.85868652 59.49275391 -198.14355469 56.92578125 C-197.43021022 54.61251973 -196.637362 52.37628991 -195.75 50.125 C-195.45335449 49.35019287 -195.15670898 48.57538574 -194.85107422 47.77709961 C-183.45245959 18.98356942 -160.43453304 -5.13633063 -132.296875 -18.0078125 C-88.09344018 -37.10249353 -37.06463677 -31.29148 0 0 Z M-155.71484375 25.4140625 C-186.30936359 60.03555332 -182 98.97843512 -182 145 C-114.68 145 -47.36 145 22 145 C22 53.16055511 22 53.16055511 -8.8125 20.75 C-30.25991419 0.13646661 -57.29507628 -7.77186403 -86.46875 -7.30859375 C-113.08161176 -6.38175854 -137.37475753 6.45940549 -155.71484375 25.4140625 Z M-253 172 C-253.93465807 174.81240503 -254.12649399 177.38192661 -254.13142776 180.33292198 C-254.13526891 181.19758469 -254.13911005 182.0622474 -254.1430676 182.95311201 C-254.14220112 183.89843215 -254.14133463 184.8437523 -254.14044189 185.81771851 C-254.14341302 186.82554024 -254.14638414 187.83336198 -254.1494453 188.87172377 C-254.15813738 192.25872914 -254.15964097 195.64569919 -254.16113281 199.03271484 C-254.16576056 201.45703711 -254.17078516 203.88135864 -254.17617798 206.30567932 C-254.18930664 212.89860943 -254.1957843 219.49153219 -254.20018864 226.08447218 C-254.20295219 230.20126061 -254.20718971 234.31804669 -254.21169281 238.43483353 C-254.22388335 249.83390594 -254.23418367 261.23297649 -254.2375679 272.63205528 C-254.23778747 273.36140541 -254.23800703 274.09075553 -254.23823325 274.84220717 C-254.23845153 275.57329417 -254.23866981 276.30438117 -254.2388947 277.05762231 C-254.23933817 278.53906592 -254.23978473 280.02050952 -254.24023438 281.50195312 C-254.2404558 282.2367991 -254.24067723 282.97164508 -254.24090537 283.72875912 C-254.24485441 295.63905468 -254.26231261 307.5492891 -254.2855939 319.45956104 C-254.30930556 331.68871328 -254.32176964 343.91783484 -254.32293582 356.14701045 C-254.32385259 363.01287011 -254.32960554 369.87865006 -254.34775543 376.74448776 C-254.36476278 383.20081332 -254.36641044 389.65702788 -254.35761642 396.1133709 C-254.35684402 398.48454251 -254.36121546 400.85572215 -254.37107468 403.2268734 C-254.38373434 406.46086886 -254.37794966 409.69432289 -254.36749268 412.92831421 C-254.37554908 413.86917291 -254.38360548 414.81003161 -254.39190602 415.77940118 C-254.35295954 420.92044827 -253.96766236 424.60440114 -251 429 C-247.80626133 431.98241071 -245.62490156 432.37591727 -241.30557346 432.38031673 C-240.13723864 432.38875668 -238.96890382 432.39719662 -237.76516491 432.40589231 C-237.12290753 432.40288729 -237.12290753 432.40288729 -233.87269592 432.38768005 C-232.49511942 432.39185186 -231.11754635 432.39732853 -229.73997968 432.40399987 C-225.95047628 432.41849353 -222.16118965 432.41419762 -218.37167418 432.40683305 C-214.28638182 432.40211333 -210.20113718 432.4146006 -206.11585999 432.42485046 C-198.11093203 432.44206733 -190.10608247 432.44287251 -182.1011408 432.43763756 C-175.59621688 432.43360001 -169.09131617 432.43503448 -162.58639336 432.44038582 C-161.66140828 432.44113424 -160.7364232 432.44188266 -159.78340827 432.44265376 C-157.90444505 432.4441852 -156.02548184 432.44572355 -154.14651864 432.44726873 C-136.51655377 432.46100421 -118.88663326 432.45554872 -101.25666939 432.44408352 C-85.11980738 432.43414991 -68.98306 432.44709215 -52.84621567 432.47101771 C-36.28572121 432.49538683 -19.7252802 432.50502198 -3.16476816 432.49836498 C6.13624598 432.49486791 15.43717192 432.49713697 24.73817253 432.51461601 C32.65591819 432.52931068 40.57351355 432.53000937 48.49125617 432.5125451 C52.5324043 432.50401008 56.57328365 432.50194617 60.61441803 432.51719666 C64.31245853 432.53097981 68.00999837 432.52636368 71.70800943 432.50695742 C73.6824876 432.50138391 75.65699086 432.51552196 77.63142151 432.53031152 C78.80236408 432.52049723 79.97330665 432.51068294 81.17973232 432.50057125 C82.19027815 432.50046391 83.20082398 432.50035658 84.24199241 432.50024599 C87.75635187 431.86281329 89.43384643 430.43244567 92 428 C94.7870443 423.42497475 94.27852103 418.24563115 94.25396729 413.05529785 C94.25708727 412.04591612 94.26020725 411.0365344 94.26342177 409.99656534 C94.27140663 406.61028125 94.26507614 403.2241761 94.25878906 399.83789062 C94.2614987 397.41179804 94.26505948 394.98570628 94.26940918 392.55961609 C94.27759019 386.65169468 94.27638162 380.74381983 94.2705839 374.83589971 C94.26606702 370.03437913 94.26545462 365.2328728 94.26763153 360.43135071 C94.26778476 360.08965413 94.26778476 360.08965413 94.26856022 358.36046234 C94.26919967 356.97215966 94.26984809 355.58385699 94.2705054 354.19555432 C94.2762084 341.17762146 94.26965127 328.15971678 94.25890467 315.14178854 C94.24996918 303.97195299 94.25152123 292.80215902 94.26074219 281.63232422 C94.27144534 268.66095276 94.27565908 255.68960598 94.26951766 242.71823072 C94.26888056 241.33503692 94.26825182 239.95184311 94.26763153 238.56864929 C94.26732298 237.88809256 94.26701443 237.20753582 94.26669653 236.50635615 C94.26496972 231.71063704 94.26788438 226.9149336 94.27259064 222.11921692 C94.27878568 215.6645316 94.27437461 209.20990637 94.26280212 202.75522804 C94.26015336 200.38364098 94.2609243 198.01204733 94.26532745 195.64046288 C94.2707757 192.4084527 94.26395732 189.17669608 94.25396729 185.94470215 C94.25842873 185.00161273 94.26289017 184.0585233 94.26748681 183.08685541 C94.21668258 174.63875766 94.21668258 174.63875766 92 171 C88.37530239 167.56527677 86.16476474 166.49971944 81.18531895 166.49384212 C80.01560978 166.48279444 78.8459006 166.47174675 77.6407457 166.46036428 C76.35982589 166.46860505 75.07890609 166.47684582 73.75917053 166.4853363 C72.38144052 166.48001088 71.00371632 166.4729452 69.62600321 166.46428925 C65.84063332 166.44563409 62.05565389 166.45197658 58.27026761 166.46244228 C54.18768648 166.46942622 50.10518623 166.45344249 46.02262878 166.44044495 C38.02483579 166.41878601 30.02718498 166.41893669 22.02937228 166.42707049 C15.52971908 166.43336663 9.03010739 166.43223701 2.53045464 166.42579842 C1.60589377 166.42489676 0.6813329 166.42399511 -0.27124496 166.42306613 C-2.14940092 166.42121495 -4.02755686 166.41935239 -5.90571279 166.41747857 C-23.52428011 166.40089344 -41.14276738 166.40962529 -58.7613299 166.42646415 C-74.88454573 166.4411611 -91.00757521 166.42653405 -107.13076704 166.39769398 C-123.68113628 166.36831 -140.23141949 166.35732483 -156.78181368 166.36687618 C-158.65342206 166.36789875 -160.52503046 166.36889336 -162.39663887 166.3698597 C-162.85708568 166.37009789 -162.85708568 166.37009789 -165.18722559 166.3713033 C-171.6791861 166.37346879 -178.17106527 166.36365618 -184.66300774 166.34908867 C-192.57451016 166.33158363 -200.48577498 166.33165627 -208.39726799 166.35444032 C-212.43454785 166.36559939 -216.47140881 166.36870778 -220.50867081 166.35013962 C-224.20435854 166.33336102 -227.89926119 166.33964916 -231.59489781 166.36435641 C-233.56560887 166.3715673 -235.53636246 166.35418559 -237.50700229 166.33594507 C-244.37752697 166.40874613 -248.50260785 166.52573476 -253 172 Z " fill="#000000" transform="translate(336,59)"/>
<path d="M0 0 C5.87746798 4.70635239 10.4170335 10.9675124 11.78515625 18.4921875 C12.4188012 26.8334481 12.51384264 34.33818631 7.78515625 41.4921875 C6.9437207 42.36504395 6.10228516 43.23790039 5.23535156 44.13720703 C2.33766255 47.60678028 2.11319543 50.83023718 2.21875 55.234375 C2.21593269 55.59797623 2.21593269 55.59797623 2.20167542 57.4380188 C2.18530911 59.74840804 2.2006785 62.05686719 2.22265625 64.3671875 C2.36625232 84.1834453 2.36625232 84.1834453 -3.9609375 91.515625 C-9.77805907 96.16394847 -14.10868945 97.99143285 -21.65625 97.80078125 C-28.41532652 96.98556439 -32.74349668 93.48143495 -36.98828125 88.37109375 C-40.07589799 83.64133689 -40.4757816 79.34595799 -40.41796875 73.8125 C-40.42851733 72.31118924 -40.44027376 70.80988657 -40.453125 69.30859375 C-40.46342496 66.96265628 -40.46484948 64.61785825 -40.44482422 62.27197266 C-40.34847953 47.48772531 -40.34847953 47.48772531 -44.14453125 43.14453125 C-44.67288574 42.69070068 -45.20124023 42.23687012 -45.74560547 41.76928711 C-49.4594091 38.54115371 -50.07870121 33.89899373 -50.53125 29.22265625 C-50.86584353 19.26040368 -49.25071996 11.8500404 -42.83984375 4.1171875 C-31.44769943 -7.90516055 -13.69611835 -9.32398886 0 0 Z " fill="#000000" transform="translate(275.21484375,312.5078125)"/>
</svg>
