<?xml version="1.0" encoding="UTF-8"?>
<!-- Generator: visioncortex VTracer 0.6.12 -->
<svg version="1.1" xmlns="http://www.w3.org/2000/svg" width="512" height="512">
<path d="M0 0 C0.47179687 0.38994141 0.47179687 0.38994141 2.859375 2.36328125 C25.53588653 21.93298258 39.37781449 50.45542044 43 80 C43.25134343 85.13152941 43.23510543 90.25465824 43.1953125 95.390625 C43.19157164 96.83078818 43.18872976 98.27095395 43.18673706 99.71112061 C43.17918493 103.45932327 43.15961138 107.20736521 43.1373291 110.95550537 C43.1166867 114.79713773 43.10769645 118.63879664 43.09765625 122.48046875 C43.07635542 129.98705159 43.04232446 137.49350308 43 145 C43.65540771 144.99214478 43.65540771 144.99214478 46.97216797 144.95239258 C51.87363447 144.89775505 56.77507448 144.86352759 61.67675781 144.83520508 C63.7910618 144.82019513 65.90533507 144.7997808 68.01953125 144.77368164 C71.07299421 144.73695367 74.12604257 144.72019526 77.1796875 144.70703125 C77.64604111 144.69928932 77.64604111 144.69928932 80.006073 144.66011047 C90.01310094 144.6575915 98.66175458 146.90766224 106.03515625 153.94140625 C113.8327469 162.07863788 115.45588099 169.78670263 115.38768005 180.84764099 C115.39037282 181.3767781 115.39037282 181.3767781 115.40399987 184.05453259 C115.4182492 187.58261768 115.41118301 191.11032598 115.40405273 194.63842773 C115.40975784 197.17522482 115.41672265 199.71201934 115.42485046 202.24880981 C115.44092037 208.41322611 115.44288579 214.57750443 115.43763756 220.74193531 C115.43358831 225.75451728 115.43504836 230.76706919 115.44038582 235.77964973 C115.44113424 236.49436166 115.44188266 237.20907358 115.44265376 237.94544344 C115.44418531 239.39759533 115.44572366 240.84974721 115.44726873 242.30189908 C115.46098105 255.90468065 115.4555649 269.50740462 115.44408352 283.11018486 C115.43415131 295.54127793 115.4470938 307.97222217 115.47101771 320.40329229 C115.49542836 333.18408123 115.50501183 345.9648009 115.49836498 358.74561268 C115.49487727 365.91446676 115.49707519 373.08320638 115.51461601 380.25204277 C115.5309069 386.99333225 115.52612589 393.73429249 115.50731087 400.47558975 C115.50362595 402.94667189 115.50673055 405.41777509 115.51719666 407.88883781 C115.53041411 411.2680102 115.51885109 414.64624297 115.50120544 418.02537537 C115.51081045 418.99786348 115.52041546 419.9703516 115.53031152 420.97230905 C115.42706697 430.6143501 112.41725936 438.30685364 105.79296875 445.3125 C99.92844715 450.83204974 93.92381255 453.2463963 85.91447735 453.25726891 C85.31213531 453.26049335 85.31213531 453.26049335 82.26391953 453.276811 C80.94904944 453.2737138 79.63417936 453.2706166 78.27946472 453.26742554 C76.86176684 453.27116349 75.44407102 453.2757656 74.02637845 453.28115618 C70.13514499 453.29338362 66.24399752 453.29312602 62.35274923 453.29076743 C58.15426585 453.2903592 53.95581001 453.30139899 49.75733948 453.31088257 C41.53345244 453.32749203 33.30959406 453.33299209 25.08569165 453.33410732 C18.40064792 453.3350578 11.71561364 453.33916809 5.03057289 453.34550858 C-13.92450182 453.36312068 -32.87955389 453.37234747 -51.83463684 453.37084763 C-52.85640639 453.37076772 -53.87817594 453.3706878 -54.9309082 453.37060547 C-55.95392588 453.37052371 -56.97694356 453.37044195 -58.03096177 453.37035771 C-74.61117963 453.36954477 -91.19130666 453.38868449 -107.77149824 453.4168822 C-124.79763497 453.44560976 -141.8237274 453.45942257 -158.84988898 453.45769465 C-168.40810621 453.45703071 -177.9662282 453.4625246 -187.5244236 453.48405075 C-195.66231634 453.50226083 -203.80007067 453.5066113 -211.93797497 453.4930319 C-216.08899975 453.48650143 -220.23975899 453.48638781 -224.39075851 453.5037384 C-228.1937717 453.51947081 -231.99630882 453.51660414 -235.79931041 453.49917014 C-237.82045093 453.49465087 -239.84160623 453.50975623 -241.86268932 453.52564943 C-252.26437192 453.44674646 -259.54027196 451.10055152 -267.20703125 444 C-272.26242379 438.36086932 -275.11686767 432.0571636 -275.13422108 424.49084282 C-275.13867892 423.58684616 -275.14313676 422.6828495 -275.14772969 421.751459 C-275.14754533 420.76217596 -275.14736097 419.77289291 -275.14717102 418.75363159 C-275.15084771 417.69962949 -275.1545244 416.64562739 -275.1583125 415.55968583 C-275.16935465 412.0161854 -275.1731941 408.47271429 -275.17700195 404.92919922 C-275.1832662 402.39314175 -275.18991297 399.8570852 -275.19691467 397.32102966 C-275.21614467 389.70226582 -275.22674336 382.08350712 -275.23564246 374.4647252 C-275.24002814 370.87472808 -275.24539424 367.28473244 -275.25063133 363.69473648 C-275.26764221 351.75695286 -275.28213558 339.81917015 -275.28938007 327.88137627 C-275.29128989 324.78452427 -275.29321023 321.68767228 -275.29516602 318.59082031 C-275.29564976 317.8211362 -275.2961335 317.05145208 -275.2966319 316.2584442 C-275.30492925 303.79471189 -275.3302618 291.33107564 -275.36274669 278.86738525 C-275.39584379 266.06416791 -275.41383124 253.26099934 -275.41702431 240.457739 C-275.41918699 233.27202656 -275.42790001 226.08645421 -275.45348549 218.90078354 C-275.47750617 212.13906598 -275.48100158 205.37764372 -275.47072411 198.61587715 C-275.4702285 196.1367274 -275.47655616 193.65756526 -275.49028015 191.17845345 C-275.50799563 187.78809128 -275.50089358 184.39863347 -275.48774719 181.00827026 C-275.49871644 180.03237155 -275.50968568 179.05647283 -275.52098733 178.05100143 C-275.43850757 169.21136789 -272.75312984 160.84155981 -267 154 C-258.10605249 146.56707057 -248.55005091 144.51827205 -237.1796875 144.70703125 C-236.19501495 144.71127609 -235.21034241 144.71552094 -234.1958313 144.71989441 C-231.08859476 144.73652295 -227.98203643 144.7741445 -224.875 144.8125 C-222.75261361 144.82756732 -220.63021694 144.84125212 -218.5078125 144.85351562 C-213.33828523 144.88637443 -208.16925711 144.93804517 -203 145 C-203.00888245 144.23008728 -203.01776489 143.46017456 -203.0269165 142.66693115 C-203.10796431 135.31512422 -203.16841309 127.96354194 -203.20724869 120.6114006 C-203.22788741 116.8339974 -203.25575395 113.05697136 -203.30175781 109.27978516 C-203.50015578 92.53295743 -203.63071169 76.25746262 -199 60 C-198.85868652 59.49275391 -198.85868652 59.49275391 -198.14355469 56.92578125 C-197.43021022 54.61251973 -196.637362 52.37628991 -195.75 50.125 C-195.45335449 49.35019287 -195.15670898 48.57538574 -194.85107422 47.77709961 C-183.45245959 18.98356942 -160.43453304 -5.13633063 -132.296875 -18.0078125 C-88.09344018 -37.10249353 -37.06463677 -31.29148 0 0 Z M-155.71484375 25.4140625 C-186.30936359 60.03555332 -182 98.97843512 -182 145 C-114.68 145 -47.36 145 22 145 C22 53.16055511 22 53.16055511 -8.8125 20.75 C-30.25991419 0.13646661 -57.29507628 -7.77186403 -86.46875 -7.30859375 C-113.08161176 -6.38175854 -137.37475753 6.45940549 -155.71484375 25.4140625 Z M-104 260 C-109.95781386 267.52565961 -110.96280958 275.65718108 -110 285 C-108.73398677 289.94087326 -107.39320498 293.81671541 -103.44799805 297.16748047 C-100.42189448 300.66891196 -100.34270698 303.1633276 -100.46875 307.57421875 C-100.46548706 308.2980928 -100.46222412 309.02196686 -100.4588623 309.76777649 C-100.44579095 312.84374337 -100.49006555 315.91823151 -100.52978516 318.99389648 C-100.6905762 336.49581482 -100.6905762 336.49581482 -95 344 C-89.93368382 348.86879759 -85.01539516 350.33076405 -78.0859375 350.21484375 C-72.01442531 349.58950073 -67.77991693 346.59719627 -64 342 C-58.35354767 333.72269604 -59.51451763 324.23624186 -59.66015625 314.61499023 C-59.83402401 299.96197413 -59.83402401 299.96197413 -56.078125 295.671875 C-55.54864258 295.21780273 -55.01916016 294.76373047 -54.47363281 294.29589844 C-50.93427045 291.18341742 -50.16159021 286.64283375 -49.71875 282.140625 C-49.42641606 272.54232717 -50.93537641 266.07147355 -57.1875 258.6875 C-62.41638619 253.19418401 -68.28420814 249.36974718 -76.0390625 248.76171875 C-88.20943777 248.50982645 -95.53286848 251.20647112 -104 260 Z " fill="#000000" transform="translate(336,59)"/>
</svg>
