<?xml version="1.0" encoding="UTF-8"?>
<!-- Generator: visioncortex VTracer 0.6.12 -->
<svg version="1.1" xmlns="http://www.w3.org/2000/svg" width="512" height="512">
<path d="M0 0 C4.59926187 2.60358749 7.98352659 5.87839128 11.4375 9.8125 C16.65454148 15.61784794 22.0847947 21.16065919 27.65991211 26.62231445 C30.70614521 29.62633648 33.62669544 32.67435786 36.41796875 35.91796875 C40.23009448 40.33602352 44.33865845 44.41310105 48.5 48.5 C53.26857774 53.18327224 57.84975966 57.91966352 62.20898438 62.98632812 C65.47191 66.65489554 68.99848712 70.06112599 72.5 73.5 C76.62981622 77.55593758 80.71212531 81.59746517 84.48828125 85.98828125 C88.32952584 90.45343975 92.48796594 94.56170666 96.6875 98.6875 C105.58372678 107.42994585 105.58372678 107.42994585 109 112 C104.79744189 121.42391819 95.1089988 128.98561434 87.84912109 136.11425781 C84.61945684 139.30175103 81.49940676 142.52044603 78.5390625 145.9609375 C74.07908578 151.13753849 69.18818719 155.85990202 64.31640625 160.64453125 C60.92081439 164.00328124 57.61582231 167.37852424 54.5 171 C50.05564748 176.16560744 45.17492912 180.87292293 40.31640625 185.64453125 C36.92211044 189.00199926 33.61828896 192.37578529 30.50390625 195.99609375 C26.7030474 200.41395398 22.59318304 204.48069577 18.4375 208.5625 C13.85402184 213.06492638 9.39141746 217.52072478 5.40649414 222.57006836 C2.53321244 225.49122977 0.1228523 225.98829978 -3.9375 226.375 C-8.04616551 226.28301495 -10.10821749 224.97941228 -13 222 C-14.78447835 218.4310433 -14.72849208 214.88110437 -14 211 C-12.14158658 207.88142954 -9.57121338 205.5406037 -7 203 C-5.65600282 201.52522466 -4.31245265 200.05001802 -2.97631836 198.56811523 C2.69910248 192.29952986 8.6215629 186.29481772 14.66015625 180.37670898 C17.70683675 177.37349336 20.62686892 174.32544055 23.41796875 171.08203125 C27.89507268 165.89330146 32.79723629 161.15441374 37.68359375 156.35546875 C38.39644531 155.65035156 39.10929687 154.94523438 39.84375 154.21875 C40.15924805 153.90905273 40.15924805 153.90905273 41.75585938 152.34179688 C43.6066079 150.41051099 45.34324525 148.44626219 47.08166504 146.4161377 C51.16504972 141.73614819 55.52284245 137.3654797 59.9375 133 C60.71673828 132.22527344 61.49597656 131.45054687 62.29882812 130.65234375 C64.1969242 128.76589243 66.09733149 126.88183755 68 125 C67.06452404 124.99902319 66.12904809 124.99804638 65.16522437 124.99703997 C9.7596472 124.93892244 -45.64589065 124.86504057 -101.05141909 124.77101372 C-107.69939965 124.75974513 -114.34738041 124.74860328 -120.99536133 124.73754883 C-121.32614209 124.73699755 -121.32614209 124.73699755 -123.0000932 124.73420772 C-144.45144006 124.69852561 -165.90278535 124.67255546 -187.35415124 124.65161031 C-210.01877793 124.62942787 -232.68336506 124.5962033 -255.34795839 124.55129844 C-268.92921249 124.52474821 -282.51041919 124.50707768 -296.09169797 124.50065396 C-305.39639942 124.49541038 -314.70104115 124.47922819 -324.00571062 124.45433434 C-329.37939127 124.44028398 -334.75296494 124.43116169 -340.12666512 124.43499184 C-345.04235874 124.43838941 -349.95782342 124.42811056 -354.87347011 124.40676448 C-356.65550443 124.40147415 -358.4375624 124.40128503 -360.21959665 124.40660437 C-362.63542875 124.41308322 -365.05049736 124.40126699 -367.46626568 124.38476086 C-368.16385564 124.39103755 -368.8614456 124.39731425 -369.58017465 124.40378115 C-374.8756933 124.33678991 -377.98433094 122.8766574 -381.8125 119.3125 C-383.57066682 115.88870146 -383.77565806 112.70750322 -383 109 C-381.02321824 105.47814744 -378.9012851 103.30042837 -375 102 C-372.56133302 101.90087045 -370.15117313 101.85778622 -367.71236134 101.8613348 C-366.96095026 101.85849258 -366.20953919 101.85565036 -365.43535808 101.85272202 C-362.89730891 101.84434711 -360.35930523 101.84310462 -357.82124329 101.84178162 C-355.99136645 101.83721817 -354.16149066 101.83221847 -352.3316161 101.82681805 C-347.28749924 101.81320279 -342.24338914 101.8058088 -337.19925869 101.79939139 C-331.76571474 101.79140229 -326.33218492 101.77769941 -320.89865112 101.76467896 C-311.47944391 101.74289501 -302.06023528 101.72475755 -292.64101601 101.70907402 C-279.02228756 101.68639284 -265.40357476 101.65824759 -251.78485956 101.62875474 C-229.69113398 101.58105733 -207.59740201 101.53779046 -185.50366211 101.49731445 C-164.03751121 101.45797767 -142.57136598 101.41655832 -121.10522461 101.37231445 C-120.44375242 101.37095192 -119.78228023 101.36958939 -119.10076343 101.36818558 C-111.79897644 101.3531425 -104.49718957 101.33804233 -97.19540274 101.32291877 C-42.13028034 101.20892023 12.93485437 101.10211836 68 101 C67.66995972 100.67257813 67.66995972 100.67257813 65.99975586 99.015625 C63.51703534 96.55009874 61.03669808 94.08222166 58.55786133 91.61279297 C57.49107703 90.55099139 56.42339147 89.49009442 55.35473633 88.43017578 C49.83702816 82.95640252 44.36847254 77.48424265 39.33072662 71.5568161 C37.59803715 69.52974396 35.74618366 67.64870531 33.84375 65.78125 C33.13089844 65.07613281 32.41804688 64.37101562 31.68359375 63.64453125 C30.96300781 62.93683594 30.24242187 62.22914063 29.5 61.5 C24.73142226 56.81672776 20.15024034 52.08033648 15.79101562 47.01367188 C12.52809 43.34510446 9.00151288 39.93887401 5.5 36.5 C0.62683663 31.71401307 -4.09082243 26.88423637 -8.52954102 21.68920898 C-9.77342745 20.26027818 -11.09789246 18.90210754 -12.4375 17.5625 C-14.74729501 13.77443619 -14.79866998 10.32221399 -14 6 C-10.48690673 0.37905076 -6.56337797 -1.23346241 0 0 Z " fill="#000000" transform="translate(393,143)"/>
</svg>
