<?xml version="1.0" encoding="UTF-8"?>
<!-- Generator: visioncortex VTracer 0.6.12 -->
<svg version="1.1" xmlns="http://www.w3.org/2000/svg" width="512" height="512">
<path d="M0 0 C2.96946501 2.81658166 5.67400411 5.82285466 8.36328125 8.90625 C11.45575607 12.42000508 14.64452252 15.83347783 17.84765625 19.24609375 C22.12006044 23.80922705 26.37920575 28.38300656 30.59765625 32.99609375 C38.69700419 41.85216909 46.83938645 50.66667462 55.03515625 59.43359375 C60.14625236 64.90126176 65.22230789 70.39881504 70.2734375 75.921875 C77.5234519 83.84338132 84.82344521 91.71736658 92.16015625 99.55859375 C97.50139957 105.26812294 102.77644581 111.02879365 107.97265625 116.87109375 C106.67550607 119.70750315 105.28458627 121.83036491 103.13671875 124.0859375 C102.5732373 124.68293457 102.00975586 125.27993164 101.42919922 125.89501953 C100.82479004 126.52649902 100.22038086 127.15797852 99.59765625 127.80859375 C98.32127356 129.15853181 97.04523769 130.50879786 95.76953125 131.859375 C95.44952148 132.19686768 95.44952148 132.19686768 93.83007812 133.90478516 C91.14547789 136.74676338 88.49452081 139.61900942 85.84765625 142.49609375 C84.86592518 143.56123457 83.88415443 144.62633881 82.90234375 145.69140625 C82.66112793 145.95324707 82.66112793 145.95324707 81.44042969 147.27832031 C78.95299411 149.97759339 76.46266292 152.67419266 73.97265625 155.37109375 C72.97264273 156.45441461 71.97264273 157.53774793 70.97265625 158.62109375 C68.97265625 160.78776042 66.97265625 162.95442708 64.97265625 165.12109375 C64.47781738 165.65718262 63.98297852 166.19327148 63.47314453 166.74560547 C62.47157099 167.83061631 61.46994325 168.91557713 60.46826172 170.00048828 C57.99189353 172.68275132 55.51642561 175.36583309 53.04296875 178.05078125 C47.68553212 183.86409416 42.30913751 189.65882696 36.91015625 195.43359375 C31.80657066 200.89317877 26.7369284 206.38161775 21.6953125 211.8984375 C19.77250582 214.0012217 17.84191448 216.09654561 15.90625 218.1875 C15.3903833 218.74493896 14.8745166 219.30237793 14.34301758 219.87670898 C13.31386888 220.9877896 12.28377519 222.09799574 11.25268555 223.20727539 C8.30732528 226.38606522 5.46575251 229.62970626 2.66015625 232.93359375 C-2.54818663 238.76223209 -7.54921177 241.49991543 -15.4765625 241.95703125 C-20.82138487 241.77696066 -25.0483769 240.65367458 -29.07421875 237.02734375 C-33.65706547 231.95212507 -36.31198704 228.09663168 -36.40234375 221.12109375 C-36.43070312 220.13625 -36.4590625 219.15140625 -36.48828125 218.13671875 C-35.34882231 210.06394186 -30.51126292 204.75698257 -24.96484375 199.12109375 C-23.61010879 197.71148345 -22.25594578 196.30132325 -20.90234375 194.890625 C-20.23976563 194.20564941 -19.5771875 193.52067383 -18.89453125 192.81494141 C-16.37050312 190.18728555 -13.91614547 187.50429609 -11.46484375 184.80859375 C-7.34875642 180.30108058 -3.19718876 175.82890216 0.97265625 171.37109375 C6.02784891 165.96528356 11.05453783 160.53550521 16.04670715 155.07145691 C18.96289006 151.88069051 21.88334898 148.69385827 24.8046875 145.5078125 C25.30536743 144.96169312 25.80604736 144.41557373 26.32189941 143.85290527 C27.53877886 142.52559855 28.75571183 141.1983409 29.97265625 139.87109375 C29.13315837 139.87011694 28.29366049 139.86914013 27.42872328 139.86813372 C-22.30702709 139.80988431 -72.0427337 139.73610468 -121.77843002 139.64210747 C-127.74787566 139.63083906 -133.71732154 139.61970065 -139.68676758 139.60864258 C-140.87519608 139.60643889 -142.06362459 139.60423521 -143.28806608 139.60196475 C-162.54064609 139.56657513 -181.79322607 139.54172039 -201.04582656 139.52074673 C-220.79511316 139.49899794 -240.54435748 139.46595629 -260.29360813 139.42239219 C-272.48371848 139.39585961 -284.67377614 139.37817606 -296.86391395 139.37174771 C-305.21878027 139.36649875 -313.57358023 139.35029832 -321.92841101 139.32542809 C-326.75147021 139.31139627 -331.57441057 139.30224857 -336.39749146 139.30608559 C-340.81245199 139.30949147 -345.22715856 139.29915604 -349.64206707 139.27785823 C-351.23974972 139.27258242 -352.8374587 139.27236374 -354.43514115 139.27769812 C-356.60716188 139.28421176 -358.77834446 139.27230244 -360.95029545 139.25585461 C-361.55348119 139.25490531 -361.55348119 139.25490531 -364.60596663 139.25010127 C-371.31567979 138.50682403 -376.25483487 135.53513652 -381.02734375 130.87109375 C-384.66568689 125.22538888 -385.7327037 119.26268851 -384.33984375 112.74609375 C-382.29502686 105.87174223 -378.24207632 101.29192242 -372.02734375 97.87109375 C-368.45659607 96.70493385 -365.05728919 96.74065652 -361.31943893 96.73242855 C-360.64285083 96.72958633 -359.96626273 96.72674411 -359.26917195 96.72381577 C-356.99167126 96.71546363 -354.71422139 96.71420015 -352.43670654 96.71287537 C-350.79158255 96.70831037 -349.14645971 96.70331044 -347.50133824 96.6979118 C-342.9725518 96.68431419 -338.44377288 96.67690763 -333.91497135 96.67048514 C-329.03427815 96.66248833 -324.15360063 96.64878808 -319.2729187 96.63577271 C-310.81409953 96.61399975 -302.35527878 96.59585825 -293.89644623 96.58016777 C-281.66632176 96.55747661 -269.43621466 96.52933273 -257.2061049 96.49984849 C-237.36462447 96.45216334 -217.52313694 96.40890166 -197.68164062 96.3684082 C-178.4049423 96.32905797 -159.12825028 96.28763288 -139.8515625 96.2434082 C-138.66378915 96.24068393 -137.47601581 96.23795966 -136.25224933 96.23515283 C-130.29367143 96.22147343 -124.33509362 96.20775314 -118.37651587 96.19401252 C-68.92680497 96.08003324 -19.47708043 95.97322709 29.97265625 95.87109375 C29.52069885 95.39146179 29.06874146 94.91182983 28.60308838 94.41766357 C26.52285495 92.20971225 24.44306557 90.00134311 22.36328125 87.79296875 C21.65252441 87.03870605 20.94176758 86.28444336 20.20947266 85.50732422 C14.56970357 79.5179024 8.97583649 73.48806485 3.40820312 67.43164062 C0.93341058 64.74135594 -1.54735008 62.05658293 -4.02734375 59.37109375 C-5.02606196 58.28908123 -6.0247599 57.20705 -7.0234375 56.125 C-9.54145653 53.39707773 -12.06043479 50.67004408 -14.58032227 47.94384766 C-15.58077989 46.86005901 -16.57998255 45.77511044 -17.57788086 44.68896484 C-20.06834002 41.97964093 -22.57530894 39.29029683 -25.12109375 36.6328125 C-25.61988037 36.1056665 -26.11866699 35.57852051 -26.63256836 35.03540039 C-27.99898989 33.59206185 -29.37419298 32.15705123 -30.75 30.72265625 C-35.50352899 24.77055305 -36.64572372 19.23831997 -36.44140625 11.80859375 C-35.59116102 5.77666536 -32.37226052 2.2771431 -28.27734375 -2.00390625 C-19.0001124 -8.06978829 -8.46817916 -7.02033939 0 0 Z " fill="#000000" transform="translate(394.02734375,138.12890625)"/>
</svg>
