<?xml version="1.0" encoding="UTF-8"?>
<!-- Generator: visioncortex VTracer 0.6.12 -->
<svg version="1.1" xmlns="http://www.w3.org/2000/svg" width="512" height="512">
<path d="M0 0 C0.46816132 -0.00498756 0.46816132 -0.00498756 2.83734131 -0.03022766 C3.34750793 -0.03056 3.34750793 -0.03056 5.92926025 -0.03224182 C7.00939392 -0.04056534 8.08952759 -0.04888885 9.20239258 -0.0574646 C12.77837719 -0.0815881 16.35417942 -0.09034023 19.93023682 -0.09693909 C22.41642309 -0.10590447 24.9026088 -0.1150263 27.38879395 -0.1242981 C32.60411897 -0.14079764 37.81937974 -0.14848984 43.034729 -0.15138245 C49.71079851 -0.15541286 56.38617435 -0.19442827 63.06209946 -0.24012661 C68.19915967 -0.26990212 73.33607419 -0.27710615 78.4732132 -0.2781086 C80.93395 -0.2823108 83.39468725 -0.29474496 85.85533905 -0.31562614 C89.30230428 -0.34254542 92.74786782 -0.3377118 96.19488525 -0.32521057 C96.70100342 -0.33262772 96.70100342 -0.33262772 99.26226807 -0.37016296 C107.50730943 -0.28520996 112.41903638 2.44915157 118.3369751 8.01316833 C119.27919331 8.98226498 120.21379318 9.95881894 121.14117432 10.94212341 C122.18145208 12.01056732 123.22181926 13.07892419 124.26226807 14.14720154 C125.86258539 15.80982731 127.45934022 17.47575726 129.05377197 19.14402771 C130.6159867 20.77278563 132.19039522 22.38900147 133.76617432 24.00462341 C134.00062759 24.25410484 134.00062759 24.25410484 135.18710327 25.51663208 C139.58139598 30.0075246 143.73495438 31.34490246 149.9099102 31.52190113 C151.74111554 31.53111503 153.57239594 31.52937275 155.40359497 31.51898193 C155.90969647 31.52011422 155.90969647 31.52011422 158.47087681 31.52584428 C161.86087719 31.53113916 165.25069474 31.52230985 168.64068604 31.51365662 C171.07191018 31.51476953 173.50313406 31.51682739 175.93435669 31.51976013 C181.16935256 31.52448289 186.40431534 31.52349449 191.63930893 31.51798439 C199.91723395 31.50975972 208.19507941 31.52101069 216.47299194 31.53518677 C219.30730229 31.53978753 222.14161285 31.54423794 224.97592354 31.54862499 C225.68418528 31.54972313 226.39244703 31.55082128 227.12217125 31.55195269 C235.17846994 31.56411902 243.23477119 31.57167662 251.29107666 31.57762146 C252.02725763 31.57816952 252.7634386 31.57871758 253.52192809 31.57928225 C265.45335743 31.58774255 277.38476421 31.58440245 289.31619368 31.57846711 C301.57484619 31.57284703 313.83338518 31.58639563 326.09200299 31.6160199 C333.64855212 31.63354595 341.20477283 31.63521213 348.76132037 31.61637475 C354.55372185 31.60338258 360.34584092 31.61631281 366.13820267 31.63880157 C368.51175443 31.64385126 370.88534215 31.64035784 373.25886536 31.62766838 C376.50115974 31.61156708 379.74193524 31.62620048 382.98416138 31.64837646 C383.45294124 31.64235772 383.45294124 31.64235772 385.82525146 31.6118992 C392.93709513 31.71097549 397.67781451 33.82911463 402.84640205 38.71677858 C408.60181364 45.09238707 408.6135415 51.76194682 408.58828735 59.88165283 C408.59281847 60.95032001 408.59734958 62.01898718 408.602018 63.12003821 C408.61467877 66.70115809 408.61304052 70.28212621 408.61138916 73.86326599 C408.61737334 76.4307983 408.62417863 78.9983288 408.63174438 81.56585693 C408.64833942 87.81654101 408.65385325 94.06718737 408.65496914 100.31789164 C408.65592032 105.40015228 408.66003411 110.4824005 408.66637039 115.56465721 C408.68397869 129.9820561 408.6932099 144.39942524 408.69170944 158.81683496 C408.69162953 159.59367087 408.69154962 160.37050679 408.69146729 161.17088318 C408.69138552 161.94867045 408.69130376 162.72645771 408.69121952 163.52781429 C408.69040673 176.13113071 408.70954373 188.7343276 408.73774402 201.33760945 C408.76648876 214.28666347 408.78028344 227.23565923 408.77855647 240.18474597 C408.77789311 247.45142999 408.78336129 254.71798869 408.80491257 261.98464394 C408.82505355 268.81943701 408.82443442 275.65396147 408.8098793 282.48876762 C408.80778737 284.995748 408.8125149 287.50274484 408.82460022 290.00969696 C408.84004331 293.43534423 408.83074953 296.86007787 408.81533813 300.28570557 C408.82562526 301.27482573 408.83591239 302.26394589 408.84651124 303.28303939 C408.77619896 310.36861944 407.55434695 316.84896256 402.54154336 322.15896541 C397.42314972 326.77764388 393.62568323 328.52288212 386.6353035 328.53421688 C385.96111217 328.53802255 385.28692083 328.54182822 384.59229946 328.54574922 C382.32280829 328.55609324 380.05356593 328.55215371 377.78405762 328.54830933 C376.1446339 328.55276022 374.50521234 328.55807377 372.86579394 328.56417805 C368.35243336 328.57838648 363.83914154 328.5800208 359.3257618 328.57958114 C354.46127008 328.58122685 349.59680691 328.59428876 344.73233032 328.60577393 C334.09187393 328.62864224 323.45143745 328.6365465 312.81095982 328.64160037 C306.16877762 328.64485526 299.52660122 328.65137648 292.8844223 328.65860176 C274.4991385 328.67817007 256.1138601 328.69457293 237.72856522 328.69747829 C236.55160892 328.69766586 235.37465262 328.69785343 234.16203098 328.69804669 C231.77598302 328.69841294 229.38993505 328.69877664 227.00388709 328.6991378 C225.81942625 328.69932061 224.63496541 328.69950342 223.41461182 328.69969177 C222.82165972 328.69978205 222.82165972 328.69978205 219.82096276 328.70023889 C200.60158814 328.70378114 181.38232553 328.73080566 162.16298977 328.76818966 C142.43732202 328.80625193 122.71170988 328.82563562 102.98600459 328.82593781 C91.90808659 328.82652285 80.83030218 328.83504477 69.75241852 328.86393547 C60.31997368 328.88842152 50.88771116 328.89575101 41.45524314 328.88068794 C36.6420575 328.87350769 31.82923208 328.87442451 27.01608658 328.89709854 C22.60913883 328.91766024 18.2028289 328.91511462 13.79588827 328.8942237 C12.20233159 328.8907234 10.60872914 328.8956617 9.01523247 328.90992814 C-0.41435129 328.98890387 -7.16733428 328.56384959 -14.18238139 321.8314876 C-20.28138585 315.18527102 -19.97005305 307.94838738 -19.94656372 299.45181274 C-19.95109483 298.25247189 -19.95562595 297.05313104 -19.96029437 295.81744653 C-19.97075464 292.49624356 -19.97226593 289.17525738 -19.96990561 285.85405338 C-19.96949702 282.26907039 -19.98054066 278.68411956 -19.99002075 275.09915161 C-20.00662238 268.0784372 -20.01212992 261.05775638 -20.01324551 254.03702398 C-20.01419637 248.3292871 -20.01830856 242.62156128 -20.02464676 236.9138279 C-20.04225679 220.72562879 -20.05148599 204.53745618 -20.04998581 188.34924742 C-20.0499059 187.47682765 -20.04982599 186.60440788 -20.04974365 185.70555115 C-20.04966189 184.83206421 -20.04958013 183.95857727 -20.04949589 183.05862103 C-20.04868303 168.90334389 -20.06782128 154.74817318 -20.09602039 140.59292682 C-20.12475727 126.05281627 -20.13856024 111.5127576 -20.13683283 96.97261792 C-20.13616922 88.81167787 -20.14164915 80.65084938 -20.16318893 72.48993492 C-20.18141132 65.54146351 -20.18573943 58.59315424 -20.17217009 51.64466926 C-20.16564573 48.1012078 -20.16550354 44.55805731 -20.18287659 41.01462555 C-20.2015381 37.16875606 -20.18903879 33.32333919 -20.1736145 29.47744751 C-20.18390163 28.363817 -20.19418875 27.25018649 -20.20478761 26.10280961 C-20.13905589 18.6822026 -19.1801744 11.97342309 -13.89981973 6.3940894 C-9.63675739 2.53547803 -5.87164876 0.03363452 0 0 Z " fill="#4EC2F6" transform="translate(61.67913818359375,95.72584533691406)"/>
<path d="M0 0 C0.46816132 -0.00498756 0.46816132 -0.00498756 2.83734131 -0.03022766 C3.34750793 -0.03056 3.34750793 -0.03056 5.92926025 -0.03224182 C7.00939392 -0.04056534 8.08952759 -0.04888885 9.20239258 -0.0574646 C12.77837719 -0.0815881 16.35417942 -0.09034023 19.93023682 -0.09693909 C22.41642309 -0.10590447 24.9026088 -0.1150263 27.38879395 -0.1242981 C32.60411897 -0.14079764 37.81937974 -0.14848984 43.034729 -0.15138245 C49.71079851 -0.15541286 56.38617435 -0.19442827 63.06209946 -0.24012661 C68.19915967 -0.26990212 73.33607419 -0.27710615 78.4732132 -0.2781086 C80.93395 -0.2823108 83.39468725 -0.29474496 85.85533905 -0.31562614 C89.30230428 -0.34254542 92.74786782 -0.3377118 96.19488525 -0.32521057 C96.70100342 -0.33262772 96.70100342 -0.33262772 99.26226807 -0.37016296 C107.50730943 -0.28520996 112.41903638 2.44915157 118.3369751 8.01316833 C119.27919331 8.98226498 120.21379318 9.95881894 121.14117432 10.94212341 C122.18145208 12.01056732 123.22181926 13.07892419 124.26226807 14.14720154 C125.86258539 15.80982731 127.45934022 17.47575726 129.05377197 19.14402771 C130.6159867 20.77278563 132.19039522 22.38900147 133.76617432 24.00462341 C134.00062759 24.25410484 134.00062759 24.25410484 135.18710327 25.51663208 C139.58139598 30.0075246 143.73495438 31.34490246 149.9099102 31.52190113 C151.74111554 31.53111503 153.57239594 31.52937275 155.40359497 31.51898193 C155.90969647 31.52011422 155.90969647 31.52011422 158.47087681 31.52584428 C161.86087719 31.53113916 165.25069474 31.52230985 168.64068604 31.51365662 C171.07191018 31.51476953 173.50313406 31.51682739 175.93435669 31.51976013 C181.16935256 31.52448289 186.40431534 31.52349449 191.63930893 31.51798439 C199.91723395 31.50975972 208.19507941 31.52101069 216.47299194 31.53518677 C219.30730229 31.53978753 222.14161285 31.54423794 224.97592354 31.54862499 C225.68418528 31.54972313 226.39244703 31.55082128 227.12217125 31.55195269 C235.17846994 31.56411902 243.23477119 31.57167662 251.29107666 31.57762146 C252.02725763 31.57816952 252.7634386 31.57871758 253.52192809 31.57928225 C265.45335743 31.58774255 277.38476421 31.58440245 289.31619368 31.57846711 C301.57484619 31.57284703 313.83338518 31.58639563 326.09200299 31.6160199 C333.64855212 31.63354595 341.20477283 31.63521213 348.76132037 31.61637475 C354.55372185 31.60338258 360.34584092 31.61631281 366.13820267 31.63880157 C368.51175443 31.64385126 370.88534215 31.64035784 373.25886536 31.62766838 C376.50115974 31.61156708 379.74193524 31.62620048 382.98416138 31.64837646 C383.45294124 31.64235772 383.45294124 31.64235772 385.82525146 31.6118992 C392.93709513 31.71097549 397.67781451 33.82911463 402.84640205 38.71677858 C408.92783395 45.45353898 408.58291866 52.58837358 408.44586182 61.14915466 C408.43683838 62.21907654 408.42781494 63.28899841 408.41851807 64.39134216 C408.39505524 67.01917905 408.3622264 69.64654873 408.32086182 72.27415466 C408.01164795 71.65467957 407.70243408 71.03520447 407.3838501 70.3969574 C403.3180495 62.27749571 399.1754232 57.22567512 390.32086182 54.27415466 C388.17335968 54.17771734 386.02292347 54.14318859 383.87325954 54.13993359 C383.21263987 54.13758136 382.55202019 54.13522913 381.87138173 54.13280562 C379.6420773 54.12611124 377.4128311 54.12657397 375.18351746 54.12698364 C373.57525737 54.12368528 371.96699811 54.11995977 370.35873991 54.11584216 C365.92680749 54.10581072 361.49488861 54.10210352 357.06294644 54.09945285 C352.2877063 54.09555314 347.51247693 54.0859745 342.73724365 54.07723999 C331.19811705 54.05746516 319.65898956 54.04740763 308.11985025 54.0385122 C302.68738313 54.03413057 297.25491699 54.0287634 291.82245064 54.02352333 C273.7657628 54.00650929 255.70907557 53.99201515 237.65238094 53.98477459 C232.96513302 53.98286465 228.27788511 53.98094433 223.59063721 53.97898865 C222.42562644 53.97850491 221.26061567 53.97802117 220.06030155 53.97752277 C201.18819358 53.96922262 182.31614901 53.94388672 163.44406872 53.91140797 C144.07325161 53.87834244 124.70246671 53.86032624 105.33162123 53.85713035 C94.45373166 53.85496468 83.57593451 53.84620778 72.69807243 53.82066917 C63.43366673 53.79896904 54.16937587 53.79090836 44.90494763 53.80063596 C40.17865123 53.80518276 35.45259184 53.80327231 30.7263279 53.78387451 C26.39641622 53.7662571 22.06691469 53.76722899 17.73699874 53.7827718 C16.17365879 53.78515005 14.61029054 53.78081304 13.04699384 53.76894315 C-4.99677051 53.64046645 -4.99677051 53.64046645 -12.28035408 59.57986659 C-15.69696064 63.27261733 -17.14466388 67.58996995 -18.67913818 72.27415466 C-19.00913818 72.27415466 -19.33913818 72.27415466 -19.67913818 72.27415466 C-19.78093794 64.60622047 -19.85077157 56.93846195 -19.89886475 49.27000427 C-19.91892353 46.66381823 -19.94617729 44.05767687 -19.980896 41.4516449 C-20.02966448 37.6957544 -20.05216535 33.94046136 -20.06976318 30.18431091 C-20.09040833 29.02770462 -20.11105347 27.87109833 -20.13232422 26.67944336 C-20.13442847 19.01487213 -19.37174157 12.16921869 -13.89941406 6.39685059 C-9.64017843 2.53395735 -5.87078286 0.03362956 0 0 Z " fill="#0277BD" transform="translate(61.67913818359375,95.72584533691406)"/>
</svg>
