<?xml version="1.0" encoding="UTF-8"?>
<!-- Generator: visioncortex VTracer 0.6.12 -->
<svg version="1.1" xmlns="http://www.w3.org/2000/svg" width="512" height="512">
<path d="M0 0 C6.70342075 7.28170881 4.75731667 20.21175107 4.40527344 29.45361328 C2.44864886 60.46764948 -14.90248785 89.17895263 -37.78125 109.41015625 C-41.01995663 111.91644949 -44.33811445 114.19883398 -47.78125 116.41015625 C-47.15782715 116.23887207 -46.5344043 116.06758789 -45.89208984 115.89111328 C-8.9247898 105.80292987 26.04509953 104.69224131 60.1875 124 C74.38927146 132.3442183 97.20030586 147.33962989 103.21875 163.41015625 C103.61721688 167.25501215 103.32950696 170.91986164 100.97265625 174.08203125 C97.63315572 177.06115402 93.83664622 179.268159 90.03125 181.59765625 C71.58586962 193.12601899 58.76017093 211.86342361 52.96875 232.75390625 C47.24433314 260.66043843 52.02228683 286.49402292 67.1953125 310.54296875 C77.14746488 324.77732216 90.0875685 334.45969693 105.75024414 341.58422852 C110.03219472 343.58247212 113.262259 345.59319399 116.21875 349.41015625 C118.05903816 355.40524884 116.57537313 359.11389316 113.96875 364.47265625 C113.78807983 364.85885132 113.78807983 364.85885132 112.8737793 366.81323242 C111.67447763 369.35508496 110.44714467 371.88225182 109.21875 374.41015625 C108.80512207 375.28220703 108.39149414 376.15425781 107.96533203 377.05273438 C89.15340971 416.7099106 57.98356399 471.01217529 14.25732422 487.13330078 C-7.90965058 494.47491537 -28.20783159 488.80419882 -48.91015625 479.5703125 C-70.57654503 470.0457169 -95.22569098 467.78476908 -117.734375 476.1796875 C-121.98166453 477.84588176 -126.1850959 479.61110574 -130.3828125 481.39794922 C-150.97441762 490.0881767 -171.18032076 494.16547067 -192.78125 486.41015625 C-219.98244752 475.29940255 -238.81683462 452.10341824 -254.78125 428.41015625 C-255.25449707 427.70987305 -255.72774414 427.00958984 -256.21533203 426.28808594 C-284.13074643 384.72834982 -303.33984506 337.35652576 -308.78125 287.41015625 C-308.83732422 286.9203125 -308.83732422 286.9203125 -309.12109375 284.44140625 C-312.09654299 253.46412651 -309.53727062 220.09089051 -296.78125 191.41015625 C-296.48879395 190.74967285 -296.19633789 190.08918945 -295.89501953 189.40869141 C-291.29825528 179.23448741 -285.66257928 170.18793496 -278.78125 161.41015625 C-278.34941406 160.85730957 -277.91757812 160.30446289 -277.47265625 159.73486328 C-256.21833989 132.85950554 -225.64315638 112.66380788 -191.12695312 108.62109375 C-171.22035464 106.83099164 -153.529393 109.99893309 -134.6328125 115.9140625 C-128.07272162 117.96360105 -121.43582376 119.69609937 -114.78125 121.41015625 C-114.81605469 120.16363281 -114.85085937 118.91710937 -114.88671875 117.6328125 C-115.5423113 84.13799299 -103.73204539 56.79012205 -80.78125 32.41015625 C-80.24242187 31.806875 -79.70359375 31.20359375 -79.1484375 30.58203125 C-64.62701729 14.96603163 -21.77732168 -12.44855326 0 0 Z M-63.78125 46.41015625 C-64.46316406 46.99925781 -65.14507812 47.58835937 -65.84765625 48.1953125 C-80.43245544 61.63844444 -89.4801731 82.87388858 -91.0234375 102.48828125 C-91.02965007 104.46387992 -90.92455213 106.43975193 -90.78125 108.41015625 C-67.67692949 103.50532843 -47.11287584 92.38537764 -33.86474609 72.18212891 C-25.90618128 59.16652201 -19.48491098 42.96853188 -19.71875 27.53515625 C-19.72777344 26.75398438 -19.73679687 25.9728125 -19.74609375 25.16796875 C-19.75769531 24.58789062 -19.76929688 24.0078125 -19.78125 23.41015625 C-34.46611379 23.41015625 -53.45706514 37.13145846 -63.78125 46.41015625 Z M-256.78125 168.53515625 C-283.04431457 198.13779418 -289.44932136 236.52627962 -287.66113281 274.99414062 C-283.70086774 340.2250036 -253.37441969 407.84933612 -205.96875 453.16015625 C-195.0747224 462.70110399 -181.47759971 469.61375807 -166.78125 469.41015625 C-155.46124684 468.54237569 -145.85019054 464.58308117 -135.51391602 460.11401367 C-119.67903625 453.27688323 -104.25541675 450.01475794 -86.96875 450.09765625 C-85.73406982 450.1032959 -84.49938965 450.10893555 -83.22729492 450.11474609 C-64.1616629 450.36860264 -47.39545076 456.15477621 -30.22094727 464.04980469 C-19.04670153 469.14171701 -7.65600087 470.88803636 4.21875 467.41015625 C4.60675781 467.29865234 4.60675781 467.29865234 6.5703125 466.734375 C26.26391887 459.96670245 41.30677628 441.66106852 53.21875 425.41015625 C53.70053711 424.7567627 54.18232422 424.10336914 54.67871094 423.43017578 C65.20999943 409.06527902 74.4099095 394.09962271 82.71875 378.34765625 C83.22341797 377.39616699 83.72808594 376.44467773 84.24804688 375.46435547 C87.1415653 369.88245613 89.39524995 364.4289385 91.21875 358.41015625 C90.15398437 357.7553125 89.08921875 357.10046875 87.9921875 356.42578125 C57.65390325 337.47621684 38.82566895 312.69265311 30.67211914 277.5859375 C25.09448392 250.81809414 30.92477418 221.84750165 45.08203125 198.66015625 C48.42723616 193.57202008 52.2114053 188.98491259 56.21875 184.41015625 C56.53650391 184.02021484 56.53650391 184.02021484 58.14453125 182.046875 C63.42622536 175.71540318 69.51196782 171.13843769 76.21875 166.41015625 C60.36913115 146.1578655 35.43398468 133.72705588 10.37109375 129.80859375 C-13.15541597 127.12499406 -35.12214109 135.29745679 -56.83203125 143.26171875 C-85.00084825 153.42934047 -108.61216814 147.54572824 -136.07324219 138.28198242 C-183.03642041 122.46599125 -222.04435538 131.95861301 -256.78125 168.53515625 Z " fill="#000000" transform="translate(349.78125,1.58984375)"/>
</svg>
