<?xml version="1.0" encoding="UTF-8"?>
<!-- Generator: visioncortex VTracer 0.6.12 -->
<svg version="1.1" xmlns="http://www.w3.org/2000/svg" width="512" height="512">
<path d="M0 0 C0.74894531 0.50080078 1.49789062 1.00160156 2.26953125 1.51757812 C3.93468762 2.59992977 5.60005831 3.68195175 7.265625 4.76367188 C8.10593262 5.31522949 8.94624023 5.86678711 9.81201172 6.43505859 C13.7887507 9.03099613 17.81127481 11.55309085 21.83203125 14.08007812 C23.41560846 15.07969189 24.99894136 16.07969278 26.58203125 17.08007812 C27.36578125 17.57507813 28.14953125 18.07007812 28.95703125 18.58007812 C62.99869792 40.08007812 97.04036458 61.58007812 131.08203125 83.08007812 C131.4742688 83.32777954 131.4742688 83.32777954 133.45922852 84.58129883 C135.03543897 85.57691113 136.6114496 86.57283987 138.18725586 87.5690918 C142.25295084 90.1389139 146.32244145 92.70240222 150.3984375 95.25585938 C178.53710861 112.90048063 178.53710861 112.90048063 181.33203125 122.08007812 C181.62516115 125.32523819 181.61040135 128.55816476 181.59945679 131.81477356 C181.6039879 132.80162083 181.60851901 133.7884681 181.61318743 134.80521983 C181.62585808 138.11539258 181.62420933 141.42540137 181.62255859 144.7355957 C181.62854218 147.10756136 181.63534733 149.47952507 181.64291382 151.85148621 C181.65876105 157.62805903 181.66502297 163.40458203 181.66613857 169.18117551 C181.6670895 173.87779018 181.67120203 178.5743914 181.67753983 183.27100182 C181.69515014 196.59262447 181.70437907 209.91421492 181.70287888 223.2358493 C181.70279897 223.95377342 181.70271905 224.67169755 181.70263672 225.41137695 C181.70255496 226.13017974 181.7024732 226.84898252 181.70238896 227.58956721 C181.7015762 239.23658108 181.72071174 250.88346558 181.74891345 262.53044204 C181.77765559 274.49521948 181.791453 286.45993386 181.7897259 298.42474669 C181.78906244 305.13977026 181.79453538 311.85465822 181.816082 318.56965065 C181.83543814 324.88570397 181.83560651 331.20147087 181.82104874 337.51753426 C181.81895629 339.83465238 181.82368734 342.15178831 181.83576965 344.46887589 C181.85120591 347.63439814 181.84192386 350.79893081 181.82650757 353.96443176 C181.83679469 354.87932792 181.84708182 355.79422408 181.85768068 356.73684436 C181.78580152 363.42512743 180.32391529 369.04958913 175.515625 373.91992188 C174.93941406 374.28214844 174.36320312 374.644375 173.76953125 375.01757812 C173.19074219 375.39785156 172.61195313 375.778125 172.015625 376.16992188 C168.31438628 378.17082355 165.21031707 378.20783785 161.08186817 378.2142992 C159.76410509 378.21875705 158.44634201 378.22321489 157.08864671 378.22780782 C155.61735077 378.22771852 154.14605483 378.22752866 152.67475891 378.22724915 C151.11869581 378.23054759 149.56263357 378.23427312 148.00657243 378.23839062 C143.71899919 378.24842095 139.43143995 378.25212908 135.14385664 378.25477993 C130.52407524 378.25867992 125.90430496 378.26825846 121.28453064 378.2769928 C110.12213302 378.29676571 98.95973449 378.3068244 87.79732373 378.31572059 C82.54291826 378.32010207 77.28851379 378.32546924 72.03410912 378.33070946 C54.57103974 378.34772244 37.10797099 378.36221718 19.6448946 378.3694582 C15.11197725 378.37136814 10.57905991 378.37328847 6.04614258 378.37524414 C4.91948518 378.37572788 3.79282779 378.37621162 2.63202926 378.37671002 C-15.62387757 378.3850124 -33.87971891 378.41035253 -52.13559713 378.44282482 C-70.87133766 378.47587942 -89.6070449 378.49390551 -108.34281474 378.49710244 C-118.86517287 378.499269 -129.3874355 378.50803905 -139.90976524 378.53356361 C-148.87010144 378.55524875 -157.83031895 378.5633318 -166.7906784 378.55359683 C-171.36280974 378.54904581 -175.93469609 378.5509849 -180.50679398 378.57035828 C-184.69350642 378.58794552 -188.87979434 378.58702849 -193.06651101 378.57146098 C-194.58001776 378.56907815 -196.09355355 378.57344348 -197.60701581 378.58528963 C-205.52360681 378.6434094 -211.87648632 378.55805065 -218.66796875 374.08007812 C-220.5078125 372.26367188 -220.5078125 372.26367188 -221.60546875 370.51757812 C-221.98574219 369.93878906 -222.36601562 369.36 -222.7578125 368.76367188 C-224.3727254 365.77642956 -224.79403261 363.28168626 -224.80218983 359.95387745 C-224.80664767 359.10985617 -224.81110551 358.26583488 -224.81569844 357.39623719 C-224.81551408 356.46882319 -224.81532972 355.54140918 -224.81513977 354.58589172 C-224.81881646 353.6007533 -224.82249315 352.61561489 -224.82628125 351.60062379 C-224.83733504 348.28428109 -224.84116481 344.96796971 -224.8449707 341.65161133 C-224.85123407 339.27994181 -224.85788075 336.90827328 -224.86488342 334.53660583 C-224.8841227 327.40835723 -224.89471349 320.28010803 -224.90361121 313.15184072 C-224.90799528 309.79419584 -224.9133618 306.43655255 -224.91860008 303.07890892 C-224.93561211 291.91578785 -224.95010584 280.75266776 -224.95734882 269.58953571 C-224.95925869 266.69290986 -224.96117902 263.79628402 -224.96313477 260.8996582 C-224.96361851 260.17972442 -224.96410225 259.45979063 -224.96460065 258.71804067 C-224.97289932 247.05797304 -224.99823357 235.39800805 -225.03071544 223.73798523 C-225.06379904 211.76423816 -225.08179877 199.79054324 -225.08499306 187.81675023 C-225.08715701 181.09498078 -225.0958886 174.373361 -225.12145424 167.65163612 C-225.14470819 161.32741444 -225.14897875 155.00346209 -225.13869286 148.67920876 C-225.13819674 146.35886236 -225.14453935 144.03850282 -225.1582489 141.71819687 C-225.17592981 138.54820217 -225.16887963 135.37917803 -225.15571594 132.20918274 C-225.16668519 131.29292234 -225.17765443 130.37666195 -225.18895608 129.43263608 C-225.11970761 122.51609531 -223.40674844 117.27037432 -218.86572266 111.98071289 C-213.84838137 107.84515507 -208.62271434 104.349441 -203.04296875 101.01757812 C-201.17758638 99.88347467 -199.31302943 98.74801267 -197.44921875 97.61132812 C-196.4953125 97.03125 -195.54140625 96.45117188 -194.55859375 95.85351562 C-189.8504726 92.96501967 -185.19669123 89.99265259 -180.54296875 87.01757812 C-178.70059481 85.84168097 -176.8581475 84.66589874 -175.015625 83.49023438 C-174.12117676 82.91934082 -173.22672852 82.34844727 -172.30517578 81.76025391 C-168.20398131 79.14736552 -164.09302417 76.55003667 -159.98046875 73.95507812 C-159.20815918 73.46773193 -158.43584961 72.98038574 -157.64013672 72.47827148 C-156.09169889 71.50136216 -154.54319656 70.52455507 -152.99462891 69.54785156 C-149.0513663 67.06024455 -145.10976107 64.57001398 -141.16796875 62.08007812 C-139.58464315 61.08006588 -138.00130982 60.08006587 -136.41796875 59.08007812 C-135.63421875 58.58507812 -134.85046875 58.09007813 -134.04296875 57.58007812 C-123.35546875 50.83007812 -123.35546875 50.83007812 -69.91796875 17.08007812 C-69.13349365 16.58435303 -68.34901855 16.08862793 -67.54077148 15.57788086 C-65.96573692 14.58365953 -64.38973476 13.59096931 -62.81274414 12.59985352 C-58.71795036 10.02350163 -54.64606758 7.41838729 -50.6015625 4.76367188 C-50.18326172 4.49200195 -50.18326172 4.49200195 -48.06640625 3.1171875 C-46.48309669 2.08803629 -44.90571761 1.04967224 -43.3359375 0 C-29.12418591 -9.18472244 -14.21175159 -9.18472244 0 0 Z " fill="#1DA0E3" transform="translate(277.66796875,48.919921875)"/>
<path d="M0 0 C1.06333425 -0.00384115 2.12666851 -0.00768229 3.22222501 -0.01163983 C3.81097648 -0.01120659 3.81097648 -0.01120659 6.79041576 -0.00901413 C7.41224801 -0.01049969 7.41224801 -0.01049969 10.55909604 -0.01801753 C14.02241949 -0.02521393 17.48569335 -0.02787809 20.94902074 -0.028615 C24.67986477 -0.03046245 28.41069797 -0.03800823 32.14153576 -0.04475021 C40.30471436 -0.05834687 48.46788806 -0.06436035 56.6310761 -0.06876087 C61.7257674 -0.07152109 66.82045681 -0.07575804 71.91514683 -0.08026505 C86.01375014 -0.09245954 100.11235192 -0.10275844 114.21096039 -0.10614014 C115.11375377 -0.1063597 116.01654715 -0.10657927 116.9466979 -0.10680549 C117.85168354 -0.10702377 118.75666918 -0.10724204 119.68907863 -0.10746694 C121.52300314 -0.10791041 123.35692765 -0.10835697 125.19085217 -0.10880661 C125.64569964 -0.10891732 125.64569964 -0.10891732 127.94750353 -0.10947761 C142.69093497 -0.11342641 157.434317 -0.1308821 172.17772935 -0.15416613 C187.30529479 -0.1778645 202.43283543 -0.1903413 217.56041974 -0.19150805 C226.05773939 -0.19242568 234.55499468 -0.1981999 243.05229664 -0.21632767 C250.28751433 -0.23170826 257.52264778 -0.23686124 264.7578787 -0.22858956 C268.45063641 -0.22467576 272.14322438 -0.22564802 275.83596134 -0.23964691 C279.83669064 -0.25467491 283.83703539 -0.24654102 287.83777905 -0.23606491 C288.42318444 -0.24009311 288.42318444 -0.24009311 291.38569051 -0.26047826 C291.92126926 -0.25718334 291.92126926 -0.25718334 294.63162231 -0.24050903 C295.55515717 -0.24110612 296.47869203 -0.24170321 297.4302128 -0.24231839 C301.30285961 0.31991332 303.93047871 2.16388071 306.79876232 4.7476387 C308.69435054 8.49506195 308.3725271 12.13480512 308.29754162 16.27205276 C308.29329678 17.15423477 308.28905193 18.03641678 308.28467846 18.94533157 C308.26791125 21.7576766 308.23026285 24.56930003 308.19207287 27.38142776 C308.17702349 29.29027157 308.16333553 31.19912663 308.15105724 33.10799026 C308.11801414 37.78274666 308.06624542 42.45696494 308.00457287 47.13142776 C307.45281384 47.43282669 307.45281384 47.43282669 304.66057873 48.95808792 C294.78510934 54.36143664 285.07767001 60.01756975 275.40905285 65.78224564 C266.59676772 71.03324295 257.73344306 76.18426144 248.81707287 81.25642776 C237.14259358 87.899464 225.5229381 94.63144331 213.93133068 101.41804886 C198.27434015 110.58394472 182.59673281 119.71331627 166.86394787 128.74861526 C163.35558467 130.76575554 159.86303616 132.8032405 156.39519787 134.88924026 C155.74244884 135.27740921 155.08969982 135.66557816 154.41717052 136.0655098 C152.78751873 137.03724699 151.16516396 138.02119521 149.54363537 139.00642776 C147.00457287 140.13142776 147.00457287 140.13142776 145.07097912 140.04549026 C142.04817123 138.70836919 139.18103099 137.14869237 136.31707287 135.50642776 C135.62484631 135.11310257 134.93261974 134.71977737 134.21941662 134.31453323 C125.73631351 129.458397 117.3801371 124.387095 109.00847912 119.34236526 C101.50601636 114.82222369 93.97551821 110.34968316 86.44207287 105.88142776 C85.08269705 105.07495129 83.72332205 104.26847342 82.36394787 103.46199417 C79.61521784 101.83140269 76.86632766 100.20108154 74.11736584 98.57088089 C70.06990358 96.17045087 66.02340155 93.76840615 61.97722912 91.36580276 C61.3183218 90.97455215 60.65941448 90.58330154 59.98054028 90.18019485 C56.665942 88.21195801 53.35145771 86.24352936 50.03704357 84.27498245 C44.61887148 81.05716924 39.20063604 77.83947421 33.77898693 74.62752151 C33.07501781 74.21032349 32.3710487 73.79312546 31.64574718 73.36328506 C30.22856108 72.52420653 28.81071824 71.68623618 27.39220715 70.84939957 C23.94012742 68.81049591 20.50249924 66.75319318 17.09051037 64.64778519 C10.77520434 60.77423994 4.75503956 57.25399026 -2.43732166 55.20882034 C-6.4148761 53.24206051 -9.38947474 50.73548359 -11.99542713 47.13142776 C-13.03943229 44.00904522 -13.1828102 41.05680726 -13.24152088 37.77986526 C-13.2775391 36.90292511 -13.31355732 36.02598495 -13.350667 35.12247086 C-13.54605934 28.77344112 -13.44172139 22.42350266 -13.11652088 16.08064651 C-13.0849741 15.27150803 -13.05342731 14.46236954 -13.02092457 13.6287117 C-12.59524562 7.89745212 -11.10908569 5.16175181 -6.99542713 1.13142776 C-4.49204052 -0.12026554 -2.80246638 0.00378449 0 0 Z " fill="#F5F5F4" transform="translate(107.99542713165283,159.86857223510742)"/>
<path d="M0 0 C0.74894531 0.50080078 1.49789062 1.00160156 2.26953125 1.51757812 C3.93468762 2.59992977 5.60005831 3.68195175 7.265625 4.76367188 C8.10593262 5.31522949 8.94624023 5.86678711 9.81201172 6.43505859 C13.7887507 9.03099613 17.81127481 11.55309085 21.83203125 14.08007812 C23.41560846 15.07969189 24.99894136 16.07969278 26.58203125 17.08007812 C27.36578125 17.57507813 28.14953125 18.07007812 28.95703125 18.58007812 C62.99869792 40.08007812 97.04036458 61.58007812 131.08203125 83.08007812 C131.4742688 83.32777954 131.4742688 83.32777954 133.45922852 84.58129883 C135.03543897 85.57691113 136.6114496 86.57283987 138.18725586 87.5690918 C142.25295084 90.1389139 146.32244145 92.70240222 150.3984375 95.25585938 C178.25381215 112.72283689 178.25381215 112.72283689 181.33203125 122.08007812 C181.52734375 124.97460937 181.52734375 124.97460937 181.45703125 127.89257812 C181.43898438 128.86839844 181.4209375 129.84421875 181.40234375 130.84960938 C181.39074219 131.21763672 181.39074219 131.21763672 181.33203125 133.08007812 C180.31109375 133.63953125 179.29015625 134.19898438 178.23828125 134.77539062 C167.74144054 140.55533538 157.36483816 146.52069389 147.04296875 152.60791016 C146.54861328 152.89851318 146.54861328 152.89851318 144.046875 154.36914062 C143.1612085 154.8920166 142.27554199 155.41489258 141.36303711 155.95361328 C139.33203125 157.08007812 139.33203125 157.08007812 138.33203125 157.08007812 C138.32268555 155.92483643 138.31333984 154.76959473 138.30371094 153.5793457 C138.26376515 149.2832213 138.19799379 144.98780957 138.12451172 140.69213867 C138.09632866 138.8348101 138.07510085 136.97736218 138.06103516 135.11987305 C138.03956841 132.44583151 137.99290056 129.77322078 137.94140625 127.09960938 C137.94079193 126.68597389 137.94079193 126.68597389 137.93768311 124.59272766 C137.83730254 120.61982601 137.61218734 118.53442626 135.48144531 115.07885742 C132.20444656 112.03151658 129.50737299 111.95418051 125.21355629 111.94585705 C124.68089364 111.94362813 124.68089364 111.94362813 121.9852978 111.93234843 C121.39800275 111.93244061 121.39800275 111.93244061 118.42593384 111.9329071 C117.18141492 111.92923042 115.93689601 111.92555373 114.6546644 111.92176563 C111.19360222 111.91263562 107.73258747 111.90802842 104.27151775 111.90537632 C100.54137115 111.90147418 96.8112383 111.89189592 93.08110046 111.88316345 C84.07075955 111.86339867 75.06041751 111.85333379 66.05006033 111.84443566 C61.80889949 111.84005365 57.5677399 111.83468669 53.32658005 111.82944679 C39.23222678 111.81243612 25.1378743 111.79794057 11.04351234 111.79069805 C7.38577905 111.78878811 3.72804577 111.78686778 0.0703125 111.78491211 C-0.83881695 111.78442837 -1.7479464 111.78394463 -2.68462522 111.78344623 C-17.42154254 111.77514071 -32.15837883 111.74979429 -46.89526074 111.71733143 C-62.01833745 111.68428879 -77.14137294 111.66625191 -92.26448596 111.66305381 C-100.75846102 111.66088635 -109.25231784 111.65210303 -117.74625778 111.62659264 C-124.97780717 111.60492395 -132.2092096 111.59681632 -139.44078778 111.60655942 C-143.1315786 111.61111503 -146.82206595 111.60914523 -150.51281548 111.58979797 C-154.51139365 111.56901763 -158.50929399 111.57911611 -162.50790405 111.59233093 C-163.67803272 111.58136169 -164.84816138 111.57039244 -166.05374849 111.55909079 C-173.89924932 111.62197621 -173.89924932 111.62197621 -177.86547279 113.98556232 C-181.29855134 117.97482912 -180.88428103 121.75923851 -180.984375 126.80664062 C-181.0051561 127.66945648 -181.02593719 128.53227234 -181.04734802 129.42123413 C-181.11282909 132.18243306 -181.17172173 134.9437285 -181.23046875 137.70507812 C-181.27365535 139.57487985 -181.31726968 141.44467174 -181.36132812 143.31445312 C-181.46850899 147.90289541 -181.5697805 152.49143495 -181.66796875 157.08007812 C-185.7879953 155.57135632 -189.41118945 153.57531594 -193.18359375 151.34179688 C-193.79885925 150.97915237 -194.41412476 150.61650787 -195.04803467 150.24287415 C-197.00664256 149.08772816 -198.96242941 147.92790988 -200.91796875 146.76757812 C-203.48470671 145.24900494 -206.05260977 143.73241476 -208.62109375 142.21679688 C-209.23480835 141.85431854 -209.84852295 141.49184021 -210.48083496 141.11837769 C-215.16623362 138.35794421 -219.89028507 135.67723984 -224.66796875 133.08007812 C-225.06820513 125.74241112 -225.07219279 120.17630757 -220.66796875 114.08007812 C-215.43264576 108.75443771 -209.42081115 104.82601276 -203.04296875 101.01757812 C-201.17758638 99.88347467 -199.31302943 98.74801267 -197.44921875 97.61132812 C-196.4953125 97.03125 -195.54140625 96.45117188 -194.55859375 95.85351562 C-189.8504726 92.96501967 -185.19669123 89.99265259 -180.54296875 87.01757812 C-178.70059481 85.84168097 -176.8581475 84.66589874 -175.015625 83.49023438 C-174.12117676 82.91934082 -173.22672852 82.34844727 -172.30517578 81.76025391 C-168.20398131 79.14736552 -164.09302417 76.55003667 -159.98046875 73.95507812 C-159.20815918 73.46773193 -158.43584961 72.98038574 -157.64013672 72.47827148 C-156.09169889 71.50136216 -154.54319656 70.52455507 -152.99462891 69.54785156 C-149.0513663 67.06024455 -145.10976107 64.57001398 -141.16796875 62.08007812 C-139.58464315 61.08006588 -138.00130982 60.08006587 -136.41796875 59.08007812 C-135.63421875 58.58507812 -134.85046875 58.09007813 -134.04296875 57.58007812 C-123.35546875 50.83007812 -123.35546875 50.83007812 -69.91796875 17.08007812 C-69.13349365 16.58435303 -68.34901855 16.08862793 -67.54077148 15.57788086 C-65.96573692 14.58365953 -64.38973476 13.59096931 -62.81274414 12.59985352 C-58.71795036 10.02350163 -54.64606758 7.41838729 -50.6015625 4.76367188 C-50.18326172 4.49200195 -50.18326172 4.49200195 -48.06640625 3.1171875 C-46.48309669 2.08803629 -44.90571761 1.04967224 -43.3359375 0 C-29.12418591 -9.18472244 -14.21175159 -9.18472244 0 0 Z " fill="#026DC2" transform="translate(277.66796875,48.919921875)"/>
<path d="M0 0 C0.06843752 29.32588487 0.12152889 58.65176407 0.15319599 87.97771246 C0.15694811 91.43989438 0.16083108 94.90207613 0.16479492 98.36425781 C0.16558185 99.05351596 0.16636878 99.74277411 0.16717956 100.45291887 C0.18023355 111.61334803 0.20388734 122.77373082 0.23145839 133.93413247 C0.25951282 145.38570787 0.27595178 156.83724564 0.28226548 168.28885639 C0.28618031 174.72107102 0.29539685 181.15318051 0.31719017 187.58536148 C0.33753106 193.63782037 0.34383859 199.69013065 0.33932304 205.74262047 C0.34014931 207.96543752 0.34612911 210.18825946 0.35761642 212.41104698 C0.37252276 215.44382109 0.36896014 218.47603269 0.36076355 221.50881958 C0.36950207 222.39015159 0.3782406 223.2714836 0.38724393 224.17952263 C0.35038059 229.2192456 -0.28977735 232.58498959 -3 237 C-6.73677215 236.32347219 -9.53456296 234.67052082 -12.78515625 232.74609375 C-13.34935776 232.41392349 -13.91355927 232.08175323 -14.49485779 231.73951721 C-16.35359038 230.6435945 -18.2080106 229.54058513 -20.0625 228.4375 C-21.37083418 227.66427417 -22.67943195 226.89149418 -23.98828125 226.11914062 C-27.35037778 224.13347597 -30.70892191 222.14189186 -34.06622314 220.14813232 C-37.01039178 218.40010479 -39.95645443 216.65528244 -42.90234375 214.91015625 C-46.20861265 212.9510482 -49.51453676 210.9913716 -52.81933594 209.02978516 C-61.13429546 204.0963395 -69.46895417 199.19739591 -77.8125 194.3125 C-89.01189186 187.75537086 -100.19473757 181.17093533 -111.36279297 174.56054688 C-115.90719099 171.87143447 -120.45372726 169.1859413 -125 166.5 C-126.83334305 165.41668311 -128.66667639 164.33334979 -130.5 163.25 C-131.4075 162.71375 -132.315 162.1775 -133.25 161.625 C-136 160 -138.75 158.375 -141.5 156.75 C-142.4072583 156.21391113 -143.3145166 155.67782227 -144.24926758 155.12548828 C-146.08510711 154.04063698 -147.92088171 152.9556758 -149.7565918 151.87060547 C-154.30105797 149.18459844 -158.84658608 146.50042525 -163.39453125 143.8203125 C-177.30609006 135.61808551 -191.16192129 127.32541875 -205 119 C-202.4916488 116.18215963 -199.70077062 114.54276277 -196.42578125 112.69921875 C-195.86068848 112.37912842 -195.86068848 112.37912842 -193.00097656 110.75927734 C-192.40031372 110.42192566 -191.79965088 110.08457397 -191.18078613 109.73699951 C-187.99120661 107.94527067 -184.81086847 106.13724106 -181.62890625 104.33203125 C-180.98279388 103.96609863 -180.33668152 103.60016602 -179.67098999 103.22314453 C-173.66939065 99.82144207 -167.70414889 96.35906975 -161.75 92.875 C-160.77571045 92.30539551 -159.8014209 91.73579102 -158.79760742 91.14892578 C-156.84041327 90.00416103 -154.8834616 88.85898161 -152.92675781 87.71337891 C-138.55043686 79.29721103 -124.15029945 70.9239385 -109.71582031 62.60791016 C-98.4520275 56.11500122 -87.22447236 49.56057444 -76 43 C-62.61033006 35.17389259 -49.20782094 27.37176904 -35.76416016 19.63867188 C-30.1926476 16.43090781 -24.63318984 13.20424701 -19.09375 9.94140625 C-18.54009766 9.61591797 -18.54009766 9.61591797 -15.73828125 7.96875 C-13.61890626 6.72115652 -11.50162887 5.46999116 -9.38671875 4.21484375 C-8.44441406 3.66054687 -7.50210938 3.10625 -6.53125 2.53515625 C-5.70173828 2.044104 -4.87222656 1.55305176 -4.01757812 1.04711914 C-2 0 -2 0 0 0 Z " fill="#33BDEF" transform="translate(459,182)"/>
</svg>
