<?xml version="1.0" encoding="UTF-8"?>
<!-- Generator: visioncortex VTracer 0.6.12 -->
<svg version="1.1" xmlns="http://www.w3.org/2000/svg" width="512" height="512">
<path d="M0 0 C168.96 0 337.92 0 512 0 C512 122.1 512 244.2 512 370 C343.04 370 174.08 370 0 370 C0 247.9 0 125.8 0 0 Z M21 22 C21 129.58 21 237.16 21 348 C176.1 348 331.2 348 491 348 C491 240.42 491 132.84 491 22 C335.9 22 180.8 22 21 22 Z " fill="#000000" transform="translate(0,71)"/>
<path d="M0 0 C4.28999092 1.30189998 7.95884 2.95321218 11.83203125 5.203125 C12.94739258 5.84652832 14.06275391 6.48993164 15.21191406 7.15283203 C15.50503479 7.32356232 15.50503479 7.32356232 16.98840332 8.18756104 C20.12287556 10.01322383 23.26735377 11.82154128 26.41015625 13.6328125 C26.72969772 13.81732468 26.72969772 13.81732468 28.34677124 14.75106812 C34.4474593 18.26979854 40.59490365 21.70245716 46.75 25.125 C54.95444989 29.69514207 63.09124622 34.36595862 71.1875 39.125 C79.68591333 44.11844928 88.26539487 48.92326492 96.93579102 53.61083984 C105.73141149 58.37319659 114.40793684 63.33152805 123.07714844 68.31933594 C128.63026128 71.5124222 134.18969306 74.6944643 139.75 77.875 C140.34286804 78.21428528 140.93573608 78.55357056 141.54656982 78.90313721 C149.92026111 83.69366493 158.3227842 88.42905972 166.75 93.125 C176.1605196 98.36905289 185.49119281 103.73792151 194.77246094 109.20751953 C196.60075762 110.2827428 198.4327022 111.35179161 200.26855469 112.4140625 C202.16543749 113.51543456 204.05083068 114.63673958 205.92675781 115.7734375 C206.88163086 116.33289063 207.83650391 116.89234375 208.8203125 117.46875 C209.67125488 117.97857422 210.52219727 118.48839844 211.39892578 119.01367188 C215.45888767 120.55321064 218.47082865 119.68572635 222.34814453 117.94702148 C223.10208496 117.50946533 223.85602539 117.07190918 224.6328125 116.62109375 C225.50663574 116.12037354 226.38045898 115.61965332 227.28076172 115.10375977 C228.21936035 114.55389404 229.15795898 114.00402832 230.125 113.4375 C230.62459229 113.14999878 230.62459229 113.14999878 233.15283203 111.69506836 C235.3116468 110.45233068 237.46831158 109.20585225 239.62304688 107.95605469 C244.77236362 104.97338221 249.94017909 102.02315855 255.10772705 99.07223511 C256.88671567 98.05580623 258.6648671 97.03792551 260.44287109 96.01977539 C268.18484453 91.58925556 275.95768929 87.216439 283.75 82.875 C291.95403639 78.3040964 300.09122779 73.63405222 308.1875 68.875 C316.68591333 63.88155072 325.26539487 59.07673508 333.93579102 54.38916016 C342.73141149 49.62680341 351.40793684 44.66847195 360.07714844 39.68066406 C365.63026071 36.48757812 371.18959047 33.30535559 376.75 30.125 C377.33954468 29.78770874 377.92908936 29.45041748 378.53649902 29.10290527 C388.1599566 23.59918433 397.81673414 18.15709035 407.49926758 12.7578125 C411.88010829 10.31382087 416.25606391 7.86476011 420.59765625 5.3515625 C421.26039551 4.96806641 421.92313477 4.58457031 422.60595703 4.18945312 C424.28012943 3.21646037 425.95079838 2.23744586 427.62109375 1.2578125 C430 0 430 0 432 0 C434.6451261 20.94556867 434.6451261 20.94556867 430.734375 26.93994141 C426.9917143 30.25821112 422.3562983 31.97210012 417.76025391 33.81103516 C412.53017103 36.06386583 407.68014493 39.03905917 402.75 41.875 C400.59275327 43.0823038 398.43389887 44.2867395 396.2734375 45.48828125 C390.6209288 48.64571707 384.99219541 51.84273793 379.375 55.0625 C372.24326627 59.15032464 365.09736318 63.21163999 357.9375 67.25 C348.71755172 72.45095616 339.52494288 77.69880705 330.33944702 82.96026611 C322.00446281 87.73283965 313.64038555 92.45034721 305.25 97.125 C297.04596361 101.6959036 288.90877221 106.36594778 280.8125 111.125 C272.32802196 116.11026126 263.76434052 120.91070547 255.10595703 125.58666992 C246.89393895 130.02932255 238.79069639 134.65087061 230.69921875 139.30859375 C229.91853027 139.75058105 229.1378418 140.19256836 228.33349609 140.64794922 C226.73740029 141.57274296 225.162529 142.53489421 223.60791016 143.52783203 C222.83624512 144.00462402 222.06458008 144.48141602 221.26953125 144.97265625 C220.93038696 145.19119263 220.93038696 145.19119263 219.21411133 146.29711914 C215.18697815 147.57555297 211.96167856 145.48097254 208.35717773 143.67822266 C207.47489502 143.1785498 206.5926123 142.67887695 205.68359375 142.1640625 C204.68352295 141.60090332 203.68345215 141.03774414 202.65307617 140.45751953 C201.59193604 139.85278809 200.5307959 139.24805664 199.4375 138.625 C198.32415283 137.99577637 197.21080566 137.36655273 196.0637207 136.71826172 C192.70574277 134.8180979 189.35220302 132.91032985 186 131 C185.08669922 130.48050781 184.17339844 129.96101562 183.23242188 129.42578125 C177.14759626 125.96332518 171.07320648 122.48278326 165 119 C160.41768343 116.3732208 155.8344435 113.7480647 151.25 111.125 C150.65686005 110.78553345 150.06372009 110.44606689 149.4526062 110.09631348 C140.05564734 104.72042708 130.61716377 99.42254199 121.15991211 94.15332031 C113.99190511 90.14721668 106.89148194 86.03608102 99.8125 81.875 C91.31408667 76.88155072 82.73460513 72.07673508 74.06420898 67.38916016 C65.27999676 62.63298037 56.61555292 57.68026868 47.95800781 52.69824219 C44.05731052 50.45878607 40.15076109 48.22963131 36.23977661 46.00819397 C33.19689373 44.27826972 30.16291824 42.53565281 27.14501953 40.76245117 C22.01189024 37.75922005 16.95824285 34.87724049 11.4375 32.63671875 C2.41091402 28.77835582 2.41091402 28.77835582 0 25 C-1.95462481 16.813522 -1.04409052 8.26768514 0 0 Z " fill="#000000" transform="translate(40,142)"/>
</svg>
