<?xml version="1.0" encoding="UTF-8"?>
<!-- Generator: visioncortex VTracer 0.6.12 -->
<svg version="1.1" xmlns="http://www.w3.org/2000/svg" width="512" height="512">
<path d="M0 0 C3.66366563 1.15989482 6.7454939 2.94873037 9.98364258 4.9675293 C11.49668635 5.8837076 13.01111315 6.79760418 14.52661133 7.7097168 C15.36756348 8.21728516 16.20851562 8.72485352 17.07495117 9.24780273 C21.84931286 12.0901433 26.68194279 14.83024274 31.51153564 17.57736206 C34.50761111 19.28166881 37.50154082 20.98973413 40.49536133 22.69799805 C40.79625671 22.86965736 40.79625671 22.86965736 42.31896973 23.73835754 C49.09431193 27.60622116 55.85256709 31.50363692 62.60864258 35.4050293 C63.73971436 36.05818115 64.87078613 36.71133301 66.03613281 37.38427734 C68.64390434 38.89073126 71.25143742 40.39759544 73.85864258 41.9050293 C73.72586914 43.07678711 73.5930957 44.24854492 73.45629883 45.45581055 C73.27785254 47.04304329 73.09947062 48.63028327 72.92114258 50.2175293 C72.83413086 50.98387695 72.74711914 51.75022461 72.6574707 52.53979492 C72.48205564 54.1055368 72.32908898 55.67396069 72.19893551 57.24411297 C71.85864258 59.9050293 71.85864258 59.9050293 71.08494663 62.25012684 C70.22787484 65.51534279 70.17119675 67.5737716 70.85864258 70.9050293 C74.49649759 76.93124885 80.14733787 81.70647055 85.15722656 86.56591797 C86.7064348 88.11174012 88.25300305 89.66021191 89.79711914 91.21112061 C93.99167234 95.40911568 98.22218143 99.56909513 102.46011615 103.72323012 C106.88447847 108.0725561 111.27486149 112.45590907 115.66896057 116.83576965 C123.51960131 124.65123854 131.39555391 132.44054377 139.28536112 140.21645758 C146.44606548 147.27433843 153.59273779 154.34609968 160.72607422 161.43164062 C161.19529525 161.89770897 161.66451628 162.36377732 162.14795613 162.84396895 C164.50193199 165.18228383 166.85564676 167.52086132 169.20926559 169.85953557 C188.72138224 189.24623478 208.27589897 208.58969234 227.85864258 227.9050293 C231.62131875 226.16463675 233.8335199 224.01071205 236.67114258 220.9675293 C242.3902659 215.19004757 246.04009355 212.86445473 254.29614258 212.4675293 C263.95520643 212.82283546 269.19544341 217.54029699 275.71411133 224.3894043 C279.97901197 229.39231143 281.19731682 233.76061 281.15942383 240.3034668 C280.85864258 242.9050293 280.85864258 242.9050293 280.05078125 244.81005859 C279.08776642 247.39411482 278.67891113 249.13796377 278.85864258 251.9050293 C281.10966005 255.62982677 283.93164208 258.56195184 287.07568359 261.55615234 C288.53787407 262.95959301 289.93211488 264.41184312 291.3293457 265.87963867 C298.12013613 272.56588229 298.12013613 272.56588229 302.8059082 273.47998047 C305.53202315 273.45337633 308.15236693 273.21350402 310.85864258 272.9050293 C314.24145508 273.38549805 314.24145508 273.38549805 316.98364258 274.0925293 C317.8937207 274.31295898 318.80379883 274.53338867 319.74145508 274.76049805 C330.69665448 278.78289582 337.75610998 286.23171983 345.8203125 294.34912109 C347.21007697 295.73345906 348.60068956 297.11694603 349.99208069 298.49964905 C353.75327336 302.24266695 357.50177544 305.9981545 361.24752975 309.75661445 C365.17849399 313.6977386 369.11924607 317.6290566 373.0584259 321.56196594 C379.67181348 328.16808499 386.27674294 334.78257264 392.87695312 341.40185547 C400.4942695 349.04092987 408.1258761 356.66550011 415.76508254 364.28267926 C422.33660539 370.83601482 428.90025673 377.39715771 435.45746499 383.96481639 C439.36803746 387.88160661 443.28121849 391.79568792 447.20152855 395.70273399 C450.88867939 399.37827893 454.56581021 403.06356979 458.23563194 406.75641441 C459.57935464 408.10539925 460.9264429 409.45104182 462.27722549 410.79295731 C475.66080924 424.09680213 485.01293679 437.42642347 485.17114258 456.9050293 C485.197005 471.96270875 480.226237 485.9340147 469.82348633 497.06518555 C455.65607774 510.33128783 440.29193221 512.66113811 421.69018555 512.08422852 C416.2335744 511.7388972 411.70477789 510.36310114 406.85864258 507.9050293 C406.46225586 507.72198242 406.46225586 507.72198242 404.45629883 506.7956543 C395.71882575 502.20741884 388.84260643 494.745108 381.85864258 487.9050293 C381.5729541 487.62691406 381.5729541 487.62691406 380.12719727 486.21948242 C375.54330768 481.74673386 371.01328857 477.28014231 366.86062622 472.40084839 C362.17603171 467.03450274 357.10916967 462.06285838 352.0456543 457.05786133 C350.96874543 455.98943731 349.89210294 454.92074474 348.81570435 453.85180664 C346.51165313 451.56437214 344.20621638 449.27834662 341.89980698 446.99328995 C338.24720313 443.37352189 334.60073732 439.7476127 330.95559692 436.12033081 C330.33814948 435.50596983 329.72070204 434.89160885 329.08454406 434.25863087 C327.82280523 433.00319884 326.5610749 431.74775827 325.29935288 430.49230933 C316.82349982 422.05933805 308.34314608 413.63097216 299.84838867 405.21704102 C294.10223123 399.5254623 288.3650975 393.82495359 282.63801777 388.11417663 C279.61361227 385.09911253 276.58484004 382.08875404 273.54488754 379.08935928 C270.68580929 376.26832418 267.83878798 373.43565111 265.0002861 370.59391785 C263.96183888 369.55842272 262.91914725 368.52716234 261.87175751 367.50071335 C255.72811487 361.47442232 251.08732704 355.92833968 247.85864258 347.9050293 C247.42551758 346.8325293 246.99239258 345.7600293 246.54614258 344.6550293 C245.85864258 340.9050293 245.85864258 340.9050293 246.14086914 337.88061523 C246.59346652 332.54056366 246.77749464 328.4902 244.03759766 323.76342773 C241.48630561 320.76202702 238.80580057 318.08654236 235.92114258 315.4050293 C234.98300114 314.44270812 234.04743203 313.47787227 233.11450195 312.51049805 C226.3976008 305.99628233 226.3976008 305.99628233 222.30175781 305.75341797 C220.01535497 306.27044374 218.02542843 307.02584309 215.85864258 307.9050293 C210.18199495 308.67510135 204.73781215 307.94929749 199.85864258 304.9050293 C193.42924477 299.62227569 186.66944335 293.91732835 185.00708008 285.40112305 C184.63798587 279.19451263 185.12315733 274.31752562 188.83129883 269.1628418 C191.08338884 266.62877057 193.41191575 264.25051226 195.85864258 261.9050293 C196.88052748 260.86439421 197.90162514 259.82298392 198.92114258 258.7800293 C199.56051758 258.1612793 200.19989258 257.5425293 200.85864258 256.9050293 C199.19346839 252.63705075 196.01081496 249.7242802 192.8548584 246.52615356 C192.23289912 245.88837412 191.61093984 245.25059467 190.9701333 244.59348857 C188.88121274 242.45437985 186.78509195 240.32247948 184.6887207 238.19067383 C183.19026779 236.66004753 181.69211111 235.12913118 180.19422913 233.59794617 C166.51446889 219.62895675 152.76432866 205.72855812 138.99852753 191.84440804 C128.82605446 181.58277818 118.68750296 171.28990976 108.59089899 160.95361054 C101.48584523 153.68563815 94.34280165 146.45639029 87.17100286 139.25427902 C82.88999731 134.9529573 78.62774856 130.63626023 74.40602112 126.27667618 C70.43040282 122.17268863 66.40971767 118.11884435 62.35021782 114.09786415 C60.87266785 112.61801339 59.4120188 111.1210527 57.97061348 109.6059742 C47.36247803 98.48450302 47.36247803 98.48450302 41.51465034 97.51737356 C36.79193636 97.44385742 32.37920719 98.27387372 27.82098866 99.44225287 C24.98100476 100.11200099 22.13906956 100.32589849 19.23364258 100.5300293 C18.80438477 100.56741211 18.80438477 100.56741211 16.63208008 100.7565918 C16.0468457 100.80557617 15.46161133 100.85456055 14.85864258 100.9050293 C13.23313677 98.06039413 11.60763946 95.21575411 9.98217773 92.37109375 C8.54974479 89.86431523 7.11710369 87.35765581 5.68432617 84.85107422 C2.33104226 78.98427693 -1.02158078 73.11711484 -4.36759949 67.24617004 C-5.40641806 65.42363219 -6.44583339 63.60143576 -7.48535156 61.77929688 C-8.83297566 59.41703192 -10.17817259 57.05340688 -11.52197266 54.68896484 C-14.4209641 49.60149419 -17.33954459 44.53610834 -20.40307617 39.5456543 C-20.88276855 38.75892334 -21.36246094 37.97219238 -21.85668945 37.16162109 C-22.72097581 35.753984 -23.59728202 34.35361646 -24.48852539 32.96289062 C-26.04679876 30.42199238 -27.16925171 28.58087 -27.04418945 25.55078125 C-25.23061624 20.23609955 -20.48320834 16.54329922 -16.56884766 12.64624023 C-14.95681752 11.03299163 -13.37636333 9.3926577 -11.7956543 7.7487793 C-10.77336211 6.71834818 -9.74932922 5.68964051 -8.72338867 4.6628418 C-7.7976001 3.72585449 -6.87181152 2.78886719 -5.91796875 1.82348633 C-3.14135742 -0.0949707 -3.14135742 -0.0949707 0 0 Z M295.55175781 312.09838867 C295.01236572 312.64301758 294.47297363 313.18764648 293.91723633 313.7487793 C293.33393555 314.33530273 292.75063477 314.92182617 292.1496582 315.52612305 C291.84382813 315.83614258 291.84382813 315.83614258 290.29614258 317.4050293 C289.98837891 317.71504883 289.98837891 317.71504883 288.4309082 319.28393555 C286.90458742 320.82208827 285.38133108 322.36328072 283.85864258 323.9050293 C289.21505137 330.41053074 295.13387227 336.31463399 301.09643555 342.25634766 C302.23052606 343.39015569 303.36439562 344.52418477 304.49806213 345.65841675 C307.5594243 348.72006452 310.62384859 351.77863037 313.68885183 354.83663249 C316.89772933 358.03923701 320.10375433 361.24469453 323.31008911 364.44984436 C329.37463928 370.51129281 335.44173291 376.57018873 341.50975525 382.62816101 C348.4210558 389.52826435 355.32949969 396.43122478 362.23771071 403.33442104 C376.44152232 417.52779452 390.64889925 431.71759454 404.85864258 445.9050293 C408.70892249 444.12302242 411.13855678 441.82827525 414.10864258 438.7800293 C414.5546582 438.32499023 414.5546582 438.32499023 416.81176758 436.0222168 C417.48723633 435.32354492 418.16270508 434.62487305 418.85864258 433.9050293 C417.29402374 430.14927171 414.96887147 427.76623714 412.10716248 424.90631104 C411.62021646 424.4169506 411.13327045 423.92759017 410.63156849 423.42340064 C409.00031058 421.78651139 407.36200838 420.15686238 405.72363281 418.52709961 C404.55213891 417.35453272 403.3810781 416.18153298 402.2104187 415.00813293 C399.0312567 411.82412346 395.84587969 408.64639913 392.65922427 405.46989155 C389.32919107 402.148636 386.00442507 398.82211548 382.67897034 395.49627686 C377.09618767 389.91443067 371.50954503 384.33647163 365.92041016 378.76098633 C359.44935413 372.30567486 352.98355881 365.84513242 346.52073711 359.38157773 C340.31135975 353.17159113 334.09913532 346.96446133 327.88530159 340.75893402 C325.23659884 338.1137708 322.58875524 335.46775186 319.94155693 332.82108307 C316.8290381 329.70956501 313.71399491 326.6005965 310.59693527 323.49362755 C309.44995505 322.34958036 308.30383204 321.20467307 307.15860558 320.05887032 C305.60241478 318.50219259 304.04320917 316.94860143 302.48313904 315.39581299 C301.60911155 314.52346134 300.73508406 313.6511097 299.83457088 312.75232315 C297.36453166 310.44308538 297.36453166 310.44308538 295.55175781 312.09838867 Z " fill="#000000" transform="translate(27.141357421875,0.094970703125)"/>
<path d="M0 0 C0.43255096 -0.00233643 0.43255096 -0.00233643 2.621521 -0.01416016 C5.1285105 -0.01939284 7.63383921 0.00059444 10.140625 0.03125 C10.88895599 0.03169312 11.63728699 0.03213623 12.40829468 0.03259277 C18.64400308 0.16899588 24.03062502 1.54762822 29.1875 5.25 C31.37269179 8.39667618 31.68421684 10.68457695 31.75 14.5 C29.81291053 19.2923081 27.02790519 22.63669495 23.37646484 26.19824219 C22.84118668 26.73235214 22.30590851 27.2664621 21.75440979 27.8167572 C19.99680464 29.56721807 18.22893562 31.30691748 16.4609375 33.046875 C15.23378019 34.26589044 14.00736056 35.48564888 12.78164673 36.70611572 C9.56298042 39.90770914 6.33583942 43.10061472 3.10638428 46.2913208 C-2.07172339 51.4100915 -7.23705865 56.5417445 -12.40192795 61.67386627 C-14.20793173 63.46588847 -16.01768329 65.25405698 -17.82803345 67.04168701 C-18.93052104 68.13415515 -20.03293208 69.22670054 -21.13525391 70.31933594 C-21.64123611 70.81700974 -22.14721832 71.31468353 -22.66853333 71.82743835 C-25.6709734 74.8105454 -27.07278543 76.39240895 -27.75 80.625 C-26.56237327 89.82910714 -15.59647466 97.31688348 -9.20703125 103.7109375 C-8.1503757 104.77081354 -7.09379233 105.83076155 -6.03727722 106.89077759 C-3.83789288 109.09610737 -1.63649498 111.29940409 0.56616211 113.50146484 C3.38561055 116.32081099 6.1980752 119.14701691 9.00889111 121.97496605 C11.18191839 124.15910615 13.35946966 126.33869196 15.53832436 128.51701736 C16.57772906 129.55759983 17.61551793 130.59979898 18.65163231 131.64365768 C20.09662569 133.0984524 21.54782188 134.54677035 23.00073242 135.99365234 C23.82345139 136.81779633 24.64617035 137.64194031 25.49382019 138.49105835 C28.41739512 141.0942602 30.68465981 142.28208951 34.5 143.0625 C42.92574789 141.60419748 49.88049701 131.46727365 55.70281029 125.56122398 C57.32725456 123.91446189 58.95588578 122.27194699 60.58576965 120.63056946 C65.21349093 115.96951194 69.83675827 111.30410223 74.44995117 106.62866211 C77.28618845 103.75475283 80.1297132 100.88822903 82.97802162 98.02628517 C84.05685868 96.93941422 85.13291622 95.84977673 86.20607567 94.75729942 C87.70369286 93.23316088 89.21040705 91.71859297 90.71948242 90.20581055 C91.14598839 89.77446556 91.14598839 89.77446556 93.30436707 87.59159851 C96.9309831 84.48997824 99.48709586 83.47744814 104.25 83.5625 C108.70255478 84.7551486 110.07955639 85.71687155 112.75 89.5 C115.73442819 97.98459253 116.23343924 106.33041316 116.125 115.25 C116.11267334 116.48935303 116.10034668 117.72870605 116.08764648 119.00561523 C115.92010213 128.16770908 115.33136515 136.66487004 112.75 145.5 C112.4701123 146.46695801 112.19022461 147.43391602 111.90185547 148.43017578 C104.07198699 174.80218364 92.56616318 198.44783984 74.75 219.5 C74.13898438 220.25667969 73.52796875 221.01335937 72.8984375 221.79296875 C61.47863739 235.44503432 44.57234824 245.42504885 26.75 247.5 C6.26526422 248.98859606 -13.29586715 245.73213963 -31.421875 235.75390625 C-34.25 234.5 -34.25 234.5 -36.15356445 234.65576172 C-39.00973562 235.80594687 -40.51584624 237.51401418 -42.62109375 239.75390625 C-43.44287109 240.60791016 -44.26464844 241.46191406 -45.11132812 242.34179688 C-46.82888384 244.1557128 -48.54243335 245.97343051 -50.25195312 247.79492188 C-51.07501953 248.64763672 -51.89808594 249.50035156 -52.74609375 250.37890625 C-53.49044678 251.1685376 -54.2347998 251.95816895 -55.00170898 252.77172852 C-57.25 254.5 -57.25 254.5 -59.9074707 254.81591797 C-63.61396509 254.31605307 -65.29105712 252.81099764 -67.8203125 250.140625 C-70.07889427 245.96903682 -69.83108691 241.67767928 -69.91699219 237.05078125 C-70.24147948 224.77345895 -75.75508986 216.98018759 -84.25 208.5 C-84.83910156 207.84 -85.42820312 207.18 -86.03515625 206.5 C-92.68310202 199.20769069 -101.8464114 195.06580271 -111.65234375 194.31640625 C-120.57779876 194.08261159 -127.5845133 195.69987428 -135.20703125 200.37890625 C-137.31731976 201.5369422 -138.8649161 202.18522883 -141.25 202.5 C-143.54016466 200.58065216 -145.48281698 198.73652142 -147.5 196.5625 C-148.05429688 195.98564453 -148.60859375 195.40878906 -149.1796875 194.81445312 C-150.54794145 193.38722271 -151.9005038 191.94497942 -153.25 190.5 C-151.88886987 187.45418514 -150.35669904 185.36160974 -147.99365234 183.01660156 C-147.66338547 182.68641022 -147.66338547 182.68641022 -145.99203491 181.01544189 C-145.28052277 180.31425232 -144.56901062 179.61306274 -143.8359375 178.890625 C-143.10629791 178.16381531 -142.37665833 177.43700562 -141.62490845 176.68817139 C-139.2962612 174.37070802 -136.96075174 172.0603005 -134.625 169.75 C-133.04381347 168.17884556 -131.46307875 166.60723629 -129.8828125 165.03515625 C-126.0104331 161.18481347 -122.13239829 157.34023883 -118.25 153.5 C-119.70541544 149.80584167 -121.32529775 146.2581611 -123.0625 142.6875 C-133.62843192 119.82478667 -136.58994683 95.80546655 -128.0625 71.75 C-115.80831039 42.15704659 -84.44722109 23.2126762 -56.0703125 11.265625 C-51.68596252 9.49216628 -47.25871334 7.88151364 -42.78076172 6.36083984 C-41.18224807 5.81710464 -39.58912462 5.25700364 -38.00439453 4.67431641 C-25.56408992 0.1764295 -13.07813911 0.03119628 0 0 Z " fill="#000000" transform="translate(396.25,-0.5)"/>
<path d="M0 0 C3.76363368 1.76199891 6.32604243 3.96201534 9.3125 6.875 C10.21613281 7.73867187 11.11976563 8.60234375 12.05078125 9.4921875 C14 12 14 12 13.98046875 13.9453125 C12.18267522 17.71280014 10.30095963 21.42123149 8.375 25.125 C4.43572296 33.36167017 4.76991006 43.48044876 7.75 52 C12.77283108 64.7563964 24.11029659 75.49201963 36.44140625 81.046875 C40.70740265 82.63604007 44.14881659 83.06614434 48.73803711 83.13745117 C59.44048857 83.38810838 59.44048857 83.38810838 62.9375 86.6875 C65.07828291 90.1257271 65.84527316 91.98969862 66 96 C64.40515137 98.36933899 64.40515137 98.36933899 61.96679688 100.66918945 C61.51467834 101.10490517 61.51467834 101.10490517 59.22668457 103.30989075 C58.73652359 103.76635294 58.24636261 104.22281513 57.74134827 104.69310951 C56.20323899 106.12774882 54.68967454 107.58455303 53.18054199 109.04960632 C48.88747051 113.20827258 44.55076993 117.32047945 40.20556641 121.42456055 C37.54675724 123.93895483 34.91302345 126.47756173 32.29225159 129.03154564 C31.29069345 129.99713391 30.27950071 130.95283429 29.25865173 131.89800453 C21.27164799 139.29312956 21.27164799 139.29312956 20.61442566 143.42271423 C20.87070125 145.71755458 21.36833257 147.78260655 22 150 C22.8288268 165.9123314 23.01235471 181.74550495 18 197 C17.78569336 197.65597168 17.57138672 198.31194336 17.35058594 198.98779297 C9.92843467 220.85991121 -5.39967804 240.71633844 -25 253 C-25.90105469 253.58394531 -26.80210937 254.16789063 -27.73046875 254.76953125 C-50.93034925 269.14030743 -80.17410248 273.3219987 -106.8125 267.4375 C-132.64001135 261.00958343 -156.83458641 244.60292387 -171 222 C-171.29197266 221.54947266 -171.29197266 221.54947266 -172.76953125 219.26953125 C-188.24662737 194.28363097 -191.06549942 164.77541037 -184.4375 136.5 C-176.66776773 109.8114029 -158.77420799 86.35896271 -134.39428711 72.81640625 C-113.51930569 61.6092724 -88.89675181 55.52029715 -65.20718384 60.85394287 C-61.49486813 61.31215782 -61.0857787 61.05745587 -57.72216797 58.80445862 C-56.62246887 57.73071121 -55.54702311 56.63176817 -54.4921875 55.51391602 C-53.89605148 54.91909424 -53.29991547 54.32427246 -52.68571472 53.71142578 C-50.72671081 51.74616706 -48.8014832 49.75101093 -46.875 47.75390625 C-45.52077373 46.3828884 -44.16454233 45.01384844 -42.80639648 43.64671326 C-39.2417849 40.04778251 -35.70502483 36.4226497 -32.17340088 32.79138184 C-28.56303045 29.08884856 -24.92695992 25.41174811 -21.29296875 21.73242188 C-14.16993095 14.51293915 -7.07605845 7.2655139 0 0 Z M-118 129 C-126.91952939 140.16954208 -131.37470038 160.8132811 -131 175 C-129.83479652 178.00245564 -128.15592313 180.16651888 -126.01342773 182.546875 C-125.71059624 182.88352173 -125.71059624 182.88352173 -124.17808533 184.5871582 C-121.37558217 187.62621389 -118.54040697 190.63233844 -115.68383789 193.62060547 C-114.19164944 195.20118026 -112.72052393 196.80192048 -111.27172852 198.42236328 C-99.63480161 211.4117435 -99.63480161 211.4117435 -93.84393311 212.34893799 C-89.29502632 212.10200142 -85.28690325 210.52694407 -81.11380005 208.79846191 C-77.67203543 207.49837775 -74.12300285 206.93677656 -70.515625 206.2734375 C-50.1144885 201.95228426 -50.1144885 201.95228426 -45.18115234 197.27587891 C-42.73468769 193.11786025 -42.5793923 188.65581518 -42.31542969 183.93017578 C-41.66152734 177.85576715 -39.68888393 171.99857584 -38.0625 166.125 C-37.41009486 163.7158162 -36.77472858 161.30192389 -36.16015625 158.8828125 C-35.88824463 157.84527832 -35.61633301 156.80774414 -35.33618164 155.73876953 C-34.94514264 152.55309378 -35.38673353 151.70059692 -37 149 C-38.4798584 147.26617432 -38.4798584 147.26617432 -40.22460938 145.51660156 C-40.87868774 144.85621887 -41.53276611 144.19583618 -42.20666504 143.51544189 C-42.91190308 142.81425232 -43.61714111 142.11306274 -44.34375 141.390625 C-44.70619812 141.02722015 -44.70619812 141.02722015 -46.54040527 139.18817139 C-48.07119011 137.65602721 -49.60449697 136.12639925 -51.14013672 134.59912109 C-53.4981077 132.25188369 -55.84519546 129.89414222 -58.19140625 127.53515625 C-59.67904636 126.04883718 -61.16730644 124.56313831 -62.65625 123.078125 C-63.36148804 122.3688385 -64.06672607 121.659552 -64.79333496 120.92877197 C-65.44741333 120.28099792 -66.1014917 119.63322388 -66.77539062 118.96582031 C-67.35115845 118.39164368 -67.92692627 117.81746704 -68.5201416 117.22589111 C-77.12076906 110.10126839 -110.41251704 123.05895781 -118 129 Z " fill="#000000" transform="translate(188,243)"/>
</svg>
