<?xml version="1.0" encoding="UTF-8"?>
<!-- Generator: visioncortex VTracer 0.6.12 -->
<svg version="1.1" xmlns="http://www.w3.org/2000/svg" width="512" height="512">
<path d="M0 0 C4.26867438 1.75877028 8.08715793 4.12585839 12 6.5625 C13.72052456 7.59503623 15.4410704 8.62753895 17.16287231 9.65794373 C18.94035934 10.72515744 20.7121314 11.80140702 22.48339844 12.87890625 C27.97297791 16.20587824 33.55498325 19.37284308 39.125 22.5625 C41.26610321 23.7999542 43.40672904 25.03823474 45.546875 26.27734375 C49.9629592 28.83093972 54.39158868 31.3610262 58.828125 33.87890625 C61.01049819 35.12746169 63.1927928 36.37615447 65.375 37.625 C66.38578613 38.1929126 67.39657227 38.7608252 68.43798828 39.34594727 C77.44865745 44.52781909 77.44865745 44.52781909 80 49 C81.33459377 55.4241463 79.56456845 62.56646126 78.4375 68.921875 C77.28429251 77.03551339 77.28429251 77.03551339 80.1239624 80.86224937 C81.1215577 81.88500092 82.13601589 82.89146439 83.16308594 83.88461304 C83.4407675 84.16485787 83.4407675 84.16485787 84.84600449 85.58306658 C86.71149315 87.45844214 88.59762482 89.31156194 90.484375 91.16552734 C91.82554791 92.50500793 93.16540124 93.84581089 94.50402832 95.18783569 C98.14349012 98.82902114 101.8011738 102.45139333 105.46235657 106.0707202 C109.2847532 109.85564528 113.09019962 113.65753367 116.89746094 117.45767212 C124.11036386 124.65191584 131.33842692 131.83072671 138.57203293 139.00414717 C146.80616833 147.17125139 155.02330187 155.35537041 163.23903656 163.54097819 C180.14047947 180.37968164 197.06320979 197.19685549 214 214 C217.10587474 212.51830937 219.26381377 210.95108801 221.75 208.5625 C228.59207075 202.53645603 234.68691842 201.37922464 243.76953125 201.671875 C254.71246684 202.78337027 261.74198268 209.2824823 269 217 C273.75067076 222.86847565 276.15292699 227.67446822 276.125 235.3125 C276.12757813 236.00988281 276.13015625 236.70726562 276.1328125 237.42578125 C276 240 276 240 275.09375 243.80078125 C274.76169998 246.41529299 274.82236618 247.65906033 276.05029297 250.01586914 C277.70087945 252.14011359 279.44643548 253.99933757 281.375 255.875 C282.04966309 256.54192871 282.72432617 257.20885742 283.41943359 257.89599609 C290.25661472 264.105481 296.12506716 264.57747887 305.00146484 264.84375 C320.7405708 266.07426891 332.20899825 279.9067371 342.65063477 290.34423828 C343.88833925 291.57430465 345.12643864 292.80397377 346.36489868 294.03327942 C349.70237303 297.34896858 353.03340017 300.67105903 356.36255002 303.99510431 C358.44918019 306.0780728 360.53709827 308.15974167 362.6254406 310.2409935 C369.92908729 317.52020414 377.22704746 324.80506602 384.52026367 332.09472656 C391.28968448 338.8605136 398.07212471 345.61305429 404.86062962 352.35968792 C410.71360215 358.17783732 416.55678709 364.00569949 422.39272159 369.84093845 C425.86732337 373.31475172 429.34568609 376.78457216 432.83419991 380.2444191 C436.11799582 383.5018265 439.38932817 386.77127661 442.65198135 390.04985619 C443.84197554 391.24164824 445.03614182 392.42929362 446.23505592 393.61211205 C461.92941199 409.10875788 471.36845074 425.0158886 471.625 447.5 C471.41956741 466.75176297 464.90070096 482.55518346 451.546875 496.71484375 C439.21771778 507.7770477 425.67713455 512.20008212 409.54003906 512.29516602 C407.53427092 512.3122088 405.52878829 512.35606804 403.5234375 512.40039062 C388.0926533 512.50009251 374.80482796 507.60635678 363.44013977 497.0579834 C363.18135014 496.81782021 363.18135014 496.81782021 361.87171775 495.60244894 C355.94561875 490.06997707 350.19656067 484.36009417 344.45776367 478.63476562 C343.25571925 477.43900738 342.05349409 476.2434308 340.85110474 475.04801941 C336.95324422 471.17091801 333.06046068 467.28874001 329.16796875 463.40625 C327.81722815 462.0595653 326.46645697 460.71291127 325.1156559 459.36628723 C318.7747763 453.04438473 312.43626042 446.72012412 306.10067385 440.39291716 C298.82104855 433.12308442 291.53319329 425.86163293 284.23833865 418.60708284 C278.57237052 412.97133662 272.91415942 407.3278767 267.26162893 401.67865324 C263.89676684 398.31613131 260.52874222 394.956935 257.15242577 391.60591125 C253.97928884 388.45617201 250.8159507 385.29690327 247.65961075 382.13033485 C246.50661309 380.97684485 245.35024711 379.82670932 244.19011497 378.68039513 C234.59224501 369.19040299 224.24574443 358.42811165 223.91015625 344.1875 C223.65023182 334.66790488 221.6870127 329.25133921 214.875 322.375 C214.23530273 321.71741699 213.59560547 321.05983398 212.93652344 320.38232422 C208.3109 316.10867565 208.3109 316.10867565 204.87963867 315.82421875 C202.78515625 316.0859375 202.78515625 316.0859375 199 317 C191.3400212 317.63935618 184.75049672 316.7826266 178.45703125 312.11328125 C169.9401047 304.73022692 161.86819841 296.54090183 160.6875 284.92578125 C160.32594601 275.19771919 162.22576989 268.88665046 168.75 261.6875 C169.36359375 261.07261719 169.9771875 260.45773437 170.609375 259.82421875 C172 258 172 258 172 254 C170.38317428 251.96859779 168.79215121 250.20947847 166.96235657 248.38713074 C166.42024935 247.8317279 165.87814214 247.27632507 165.31960744 246.70409185 C163.49387836 244.83887966 161.65398606 242.98831502 159.8137207 241.13745117 C158.50401374 239.80596066 157.19509258 238.4736968 155.88690186 237.14071655 C152.32431955 233.51703498 148.74823671 229.90698224 145.16768289 226.30106521 C142.93072969 224.04795294 140.69589596 221.79275826 138.46162987 219.53698158 C131.46990376 212.47978729 124.46938194 205.4314784 117.45704204 198.39476603 C109.36323164 190.27245768 101.29989019 182.12142305 93.26152545 173.94424647 C87.04655938 167.62569018 80.80492354 161.33429888 74.54259938 155.06267911 C70.8029811 151.31626528 67.07569373 147.55928121 63.37594032 143.77345848 C59.89247956 140.21039929 56.37705119 136.6822933 52.83459473 133.17791367 C51.54253134 131.88837964 50.26230186 130.58685798 48.99535179 129.27264214 C39.44281192 119.38452468 39.44281192 119.38452468 33.46159935 118.44301796 C30.15033806 118.66452001 27.21171258 119.18579692 24 120 C20.29334476 120.65521435 16.70248716 121.19913272 12.9375 121.3125 C12.52951172 121.33119141 12.52951172 121.33119141 10.46484375 121.42578125 C7.07107232 120.83953547 5.54541179 119.2932846 3 117 C1.29345703 114.57177734 1.29345703 114.57177734 -0.2421875 111.8359375 C-0.82556885 110.80968262 -1.4089502 109.78342773 -2.01000977 108.72607422 C-2.62545654 107.62021973 -3.24090332 106.51436523 -3.875 105.375 C-4.53398069 104.20917901 -5.19407642 103.04398768 -5.85522461 101.87939453 C-7.22767149 99.45979031 -8.59529201 97.03755499 -9.95947266 94.61328125 C-12.50895994 90.08960199 -15.10280472 85.59179909 -17.70141602 81.09619141 C-18.94156428 78.94972463 -20.17773758 76.80095633 -21.40991211 74.64990234 C-24.5497349 69.17833905 -27.74612745 63.75426371 -31.0546875 58.3828125 C-31.70622803 57.31047363 -32.35776855 56.23813477 -33.02905273 55.13330078 C-34.26296667 53.10745308 -35.51402711 51.09190696 -36.78540039 49.08935547 C-39.92754856 43.89400828 -42.08768253 39.50555668 -41.63378906 33.32641602 C-40.39893829 28.79371454 -37.33164955 26.15520482 -34 23 C-32.6659967 21.63552518 -31.33216974 20.27087069 -30.00216675 18.90249634 C-28.07933245 16.93503384 -26.13180167 14.99306807 -24.18237305 13.05200195 C-22.66921334 11.54427904 -21.16157115 10.03118241 -19.65429688 8.51757812 C-18.69042526 7.55436608 -17.72624416 6.5914636 -16.76171875 5.62890625 C-16.32839233 5.1961438 -16.32839233 5.1961438 -14.13549805 3.00610352 C-9.91846966 -0.95540583 -5.55196021 -0.83896703 0 0 Z M-5.42041016 25.19335938 C-5.95456543 25.73798828 -6.4887207 26.28261719 -7.0390625 26.84375 C-7.32910156 27.13701172 -7.32910156 27.13701172 -8.796875 28.62109375 C-9.40015625 29.24113281 -10.0034375 29.86117188 -10.625 30.5 C-11.23601563 31.12003906 -11.84703125 31.74007813 -12.4765625 32.37890625 C-13.98887719 33.91485086 -15.49502114 35.45686675 -17 37 C-15.6027689 40.69813356 -13.93435305 44.09595998 -12.015625 47.55078125 C-11.41661377 48.63077393 -10.81760254 49.7107666 -10.20043945 50.82348633 C-9.55679443 51.97486084 -8.91314941 53.12623535 -8.25 54.3125 C-7.92107758 54.90259857 -7.59215515 55.49269714 -7.25326538 56.10067749 C-2.35521376 64.88586501 2.62551217 73.6205875 7.6875 82.3125 C8.26274414 83.30096924 8.83798828 84.28943848 9.43066406 85.30786133 C12.16084186 89.96806232 14.93698909 94.55080897 18 99 C18.51949219 98.9278125 18.51949219 98.9278125 21.1484375 98.5625 C24.75802777 98.07315953 28.37139341 97.63365378 31.99121094 97.22705078 C33.66490902 97.03787489 35.3366651 96.83161492 37.0078125 96.62109375 C40.28003292 96.38003676 42.8993835 96.28388887 45.71539307 98.11611271 C52.49284455 104.34400734 58.98651597 110.85387003 65.484375 117.37084961 C66.83507656 118.72183363 68.18599912 120.07259672 69.53712463 121.42315674 C73.18547072 125.07121713 76.83073575 128.722342 80.47543716 132.37404323 C84.29196612 136.19684371 88.11134665 140.01679305 91.93041992 143.83705139 C99.15347824 151.06321184 106.37398467 158.29191656 113.59356785 165.52154881 C121.81652366 173.75570051 130.04233538 181.98699668 138.26838303 190.21805942 C155.18209185 207.14220732 172.09222798 224.06992118 189 241 C190.08839774 240.11032656 191.17044608 239.21288426 192.25 238.3125 C192.85328125 237.81363281 193.4565625 237.31476563 194.078125 236.80078125 C196.3109424 234.7086495 198.13539658 232.42150931 200 230 C199.26393807 229.26485987 198.52787615 228.52971973 197.76950932 227.77230263 C179.88247661 209.90744221 161.9983069 192.03971969 144.11715794 174.16897011 C135.47000436 165.52697891 126.82191345 156.88592958 118.17163086 148.24707031 C110.63448812 140.71987619 103.09908843 133.19094229 95.56580108 125.65988958 C91.57473453 121.67012982 87.58278409 117.68126333 83.58874702 113.69447708 C79.83318239 109.94567546 76.07994426 106.19456064 72.3285141 102.44162178 C70.94785036 101.06123424 69.56632278 99.68171012 68.18388939 98.30309486 C66.30331784 96.42746491 64.42581781 94.54881432 62.54908752 92.66934204 C61.99559476 92.11876212 61.44210199 91.56818219 60.87183672 91.00091803 C57.41001435 87.52531356 55.85399297 85.7711706 55.8125 80.875 C55.86658861 73.51894889 57.00719161 66.27608289 58 59 C49.23239828 53.52997964 40.36683822 48.28238638 31.375 43.1875 C28.92647174 41.79664725 26.47874984 40.40438029 24.03125 39.01171875 C23.43182587 38.6708725 22.83240173 38.33002625 22.21481323 37.97885132 C18.47341671 35.84850353 14.74692808 33.69439255 11.03125 31.51953125 C10.15033691 31.00430908 9.26942383 30.48908691 8.36181641 29.95825195 C6.74220965 29.00852574 5.12458688 28.0554054 3.50927734 27.09838867 C-3.0883717 23.23409434 -3.0883717 23.23409434 -5.42041016 25.19335938 Z M218.41015625 241.45703125 C217.41522022 242.45129212 216.42013591 243.44540463 215.4249115 244.43937683 C213.35676268 246.5060628 211.29040484 248.57451793 209.2253418 250.64428711 C206.57683484 253.29853564 203.9238022 255.94820835 201.26944828 258.59660816 C199.22165919 260.64079149 197.176248 262.68734072 195.13155937 264.73462486 C194.15346109 265.71339005 193.1746199 266.69141341 192.19502449 267.66868019 C190.83341106 269.02776205 189.47533188 270.390382 188.11743164 271.75317383 C187.34436172 272.52703934 186.57129181 273.30090485 185.77479553 274.09822083 C183.46398898 276.57436171 183.04220118 277.7362426 182.5 281.125 C183.36451252 287.824972 188.06574469 291.38154148 193.0625 295.5625 C196.69796406 297.34155688 198.17017291 297.19682096 202 296 C202.928125 295.443125 203.85625 294.88625 204.8125 294.3125 C208.36986366 292.8477032 210.60818087 292.84908463 214.32739258 293.76293945 C220.4030483 296.57515719 224.88278452 302.14860891 229.4375 306.9375 C230.53421871 308.06079798 231.63251462 309.18255836 232.73242188 310.30273438 C242.96885754 320.79492206 242.96885754 320.79492206 243.08984375 325.4765625 C243.043366 326.85952633 242.99236229 328.2423434 242.9375 329.625 C242.72897346 341.73578816 246.27577855 348.85521398 254.51456451 357.69931221 C257.63665123 360.92871031 260.8172151 364.0993969 263.99707031 367.27172852 C265.21364681 368.49265868 266.4298068 369.71400399 267.64558411 370.93572998 C270.93236606 374.23584278 274.22546243 377.52958357 277.52018452 380.82176709 C280.27774545 383.57825428 283.03231492 386.33772145 285.78694701 389.09713501 C292.28970668 395.61096944 298.79775466 402.1194867 305.30908203 408.62475586 C312.00925767 415.31889301 318.70020587 422.02215252 325.38670468 428.72994858 C331.14371129 434.50461148 336.90655203 440.27340694 342.67401767 446.03762382 C346.11158226 449.47338183 349.54692239 452.91128933 352.97660065 456.35492134 C356.20387416 459.59483422 359.43841721 462.82731458 362.67850304 466.05441284 C363.86053829 467.23409603 365.0400677 468.41629674 366.21676826 469.60130119 C377.55038003 481.00905396 389.58152424 491.76207014 406.5 492.3125 C418.22874891 492.15518444 428.06568036 487.24428247 436.6875 479.625 C445.42106173 469.71122722 450.39485805 459.25356771 450.21484375 445.8125 C448.59656268 424.62772961 432.92260734 411.77470962 418.84667969 397.68554688 C417.67397797 396.50820104 416.50146791 395.33066427 415.32913208 394.1529541 C412.18312943 390.9939964 409.03394345 387.83823256 405.88369656 384.68350792 C403.91104898 382.70790778 401.93898061 380.73173121 399.96707916 378.75538635 C393.78266137 372.55735111 387.59628809 366.36127781 381.4070003 360.1681056 C374.28646383 353.04307342 367.17254804 345.91151577 360.0642097 338.7743144 C354.54650901 333.23499341 349.0230532 327.70145437 343.4952004 322.17226458 C340.20230223 318.87832056 336.91185808 315.58201276 333.62740326 312.27964783 C330.54441358 309.18016689 327.4543272 306.08794077 324.3586998 303.00108337 C323.22698571 301.87013852 322.09781524 300.73664148 320.97144699 299.60037231 C319.42898879 298.04515654 317.87746289 296.49956583 316.32342529 294.95593262 C315.45924358 294.09028435 314.59506187 293.22463608 313.70469284 292.33275604 C308.34541962 287.71046519 303.00743492 284.93902544 295.8828125 284.82421875 C295.11066406 284.80037109 294.33851563 284.77652344 293.54296875 284.75195312 C291.93906744 284.7091997 290.3348197 284.67783221 288.73046875 284.65820312 C287.95574219 284.63048828 287.18101562 284.60277344 286.3828125 284.57421875 C285.68559082 284.55963623 284.98836914 284.54505371 284.27001953 284.5300293 C276.86823147 282.80177786 271.43792302 275.77648019 266.2578125 270.57348633 C264.74860001 269.06109706 263.22648735 267.56257315 261.703125 266.06445312 C260.7335652 265.09716519 259.76478746 264.12909259 258.796875 263.16015625 C257.92385742 262.29011963 257.05083984 261.42008301 256.15136719 260.52368164 C253.00129385 256.8284583 251.92755623 254.35228369 252.1875 249.5 C253 246 253 246 254.625 243.4375 C256 241 256 241 256.125 238.1875 C254.02042182 232.22452849 249.24276385 227.45710963 244 224 C233.49827278 221.98043707 225.14120425 234.70971188 218.41015625 241.45703125 Z " fill="#000000" transform="translate(41,0)"/>
<path d="M0 0 C2.58665448 0.02939099 5.17130046 0.020462 7.75805664 0.00756836 C9.43189458 0.0137966 11.1057262 0.02218035 12.77954102 0.03295898 C13.15876961 0.03149117 13.15876961 0.03149117 15.07789612 0.02406311 C21.35760241 0.13387852 26.79042803 1.45591824 31.93188477 5.27905273 C33.98312624 8.15079079 34.42505222 9.93059309 34.49438477 13.46655273 C32.64136998 18.80549095 30.23540232 22.2735992 26.12084961 26.16723633 C25.85321053 26.42874229 25.85321053 26.42874229 24.49879456 27.75212097 C23.3441668 28.87829938 22.18507815 29.99991907 21.0219841 31.11735153 C19.17889803 32.8904105 17.35074843 34.67768822 15.52603149 36.46963501 C10.33924087 41.55900588 5.13033377 46.62528736 -0.09643555 51.67358398 C-3.30056716 54.77030136 -6.48470405 57.88646136 -9.65754318 61.01521683 C-10.86605475 62.19898296 -12.0820937 63.37511681 -13.30580521 64.5431633 C-24.04384668 74.79684768 -24.04384668 74.79684768 -25.19458008 80.25805664 C-25.02193798 85.81207636 -21.32235381 88.84743022 -17.50561523 92.46655273 C-15.79116727 94.22554532 -14.07883753 95.98660396 -12.36816406 97.74926758 C-10.40596267 99.73164717 -8.43424853 101.70446548 -6.46264648 103.67749023 C-5.40599093 104.73736628 -4.34940757 105.79731429 -3.29289246 106.85733032 C-1.09350812 109.06266011 1.10788979 111.26595682 3.31054688 113.46801758 C6.12999531 116.28736373 8.94245996 119.11356964 11.75327587 121.94151878 C13.92630315 124.12565888 16.10385443 126.30524469 18.28270912 128.4835701 C19.32211383 129.52415256 20.35990269 130.56635171 21.39601707 131.61021042 C22.84101046 133.06500513 24.29220665 134.51332308 25.74511719 135.96020508 C26.56783615 136.78434906 27.39055511 137.60849304 28.23820496 138.45761108 C31.89970954 141.7178783 33.33817635 142.48076158 38.36831665 142.41894531 C42.84278274 141.70065129 45.46029268 139.44536002 48.51147461 136.22827148 C49.05563019 135.6835318 49.59978577 135.13879211 50.16043091 134.57754517 C51.94239201 132.78566573 53.69839343 130.97045334 55.45532227 129.15405273 C56.6930175 127.90074835 57.93235259 126.64906146 59.17324829 125.39892578 C62.42662275 122.11324698 65.6588492 118.80753697 68.88659668 115.4967041 C72.82018493 111.46915339 76.77707701 107.46452264 80.73171425 103.45765686 C83.80601625 100.3422144 86.87626599 97.22311276 89.93490601 94.09228516 C90.49645386 93.51916595 91.05800171 92.94604675 91.63656616 92.3555603 C92.68664935 91.28363878 93.73477159 90.20979143 94.78057861 89.13369751 C98.36201404 85.48455389 100.21282486 84.29012179 105.30688477 84.09155273 C108.88337233 84.1637009 110.28842758 84.34385484 113.43188477 86.21655273 C118.95553648 94.92048876 119.0173297 105.51463924 118.93188477 115.52905273 C118.92737305 116.16689697 118.92737305 116.16689697 118.90454102 119.39477539 C118.46063691 143.79408766 110.21135333 167.20666251 98.49438477 188.46655273 C98.16438477 189.07821289 97.83438477 189.68987305 97.49438477 190.32006836 C83.72244256 215.79278178 65.64240395 237.14277264 37.30688477 245.96655273 C13.94225524 251.47568643 -7.38184865 245.11226622 -28.52294922 235.34277344 C-30.50561523 234.46655273 -30.50561523 234.46655273 -33.50561523 233.46655273 C-34.34866211 234.32120117 -35.19170898 235.17584961 -36.06030273 236.05639648 C-37.16694116 237.17241321 -38.27371926 238.28829146 -39.38061523 239.40405273 C-39.93620117 239.96801758 -40.49178711 240.53198242 -41.06420898 241.11303711 C-46.32907937 246.40962358 -46.32907937 246.40962358 -51.38061523 246.65405273 C-56.95709072 246.54312827 -56.95709072 246.54312827 -59.50561523 244.46655273 C-62.0894032 240.40631451 -63.36655036 237.24952565 -62.50561523 232.46655273 C-59.51722594 226.76502053 -54.46743851 222.2158573 -50.00561523 217.65405273 C-49.4601001 217.09065186 -48.91458496 216.52725098 -48.35253906 215.94677734 C-44.1819753 211.7849687 -40.50902046 208.48497853 -34.32202148 208.44702148 C-28.99151842 209.8710351 -24.34675097 212.28462951 -19.44311523 214.77905273 C-1.44776866 223.66560846 16.73211923 228.95763972 36.43969727 222.50170898 C59.44387992 213.76482631 72.73123709 190.63851507 82.62426758 169.33374023 C83.44311873 167.5765647 84.29201896 165.83348178 85.14282227 164.09155273 C88.36551897 157.15539333 90.50345688 150.26003466 92.30688477 142.84155273 C92.514021 141.9950415 92.72115723 141.14853027 92.93457031 140.27636719 C94.01048532 135.56600858 94.68277213 130.95654441 95.05566406 126.13696289 C95.13962936 125.07079742 95.22359467 124.00463196 95.31010437 122.90615845 C95.3709169 122.10108856 95.43172943 121.29601868 95.49438477 120.46655273 C95.03608276 120.93151657 94.57778076 121.39648041 94.10559082 121.87553406 C89.31245371 126.73530019 84.50858438 131.58426822 79.69848633 136.42724609 C77.90732722 138.23344473 76.11887581 140.04233288 74.33325195 141.85400391 C71.75871223 144.46513826 69.17442827 147.06628484 66.58813477 149.66577148 C65.79822144 150.47116867 65.00830811 151.27656586 64.19445801 152.10636902 C56.30100667 160.00217321 49.04126353 165.26993983 37.60766602 165.53295898 C19.69037396 164.77589031 8.90942551 151.04015261 -3.02514648 139.18530273 C-3.55033056 138.66419418 -4.07551464 138.14308563 -4.61661339 137.60618591 C-7.38744328 134.85599836 -10.15514197 132.10270297 -12.92041016 129.34692383 C-15.75394655 126.52450934 -18.59899309 123.71399205 -21.44666004 120.90584564 C-23.65911803 118.71964273 -25.86253843 116.52449443 -28.06369591 114.32691956 C-29.10839163 113.28705319 -30.15642501 112.25052756 -31.20801735 111.21763611 C-39.7970065 102.7721973 -47.2760421 94.20315438 -47.57202148 81.65014648 C-46.74718439 62.07901188 -29.88344709 49.70084505 -16.94311523 36.84155273 C-15.53858381 35.4420485 -14.13428518 34.04231061 -12.73022461 32.64233398 C-9.32469645 29.24770988 -5.91604342 25.85625368 -2.50561523 22.46655273 C-5.18334207 22.75964197 -7.86018565 23.05869469 -10.53686523 23.36108398 C-11.28484375 23.44233521 -12.03282227 23.52358643 -12.8034668 23.6072998 C-42.30324535 26.97481791 -77.19608387 43.9326969 -96.49780273 66.82983398 C-106.58307989 80.39950948 -109.36584829 95.02856907 -107.23754883 111.54711914 C-105.14788882 123.09492914 -99.83455829 135.01165188 -93.31030273 144.73999023 C-91.09452555 148.08763628 -90.65081495 150.47356051 -90.50561523 154.46655273 C-91.83276792 159.89613719 -95.82906032 163.29312342 -99.63842773 167.13842773 C-100.34909393 167.86145081 -101.05976013 168.58447388 -101.79196167 169.32940674 C-103.29596039 170.85294432 -104.80413287 172.37237142 -106.31616211 173.88793945 C-108.61930878 176.2051771 -110.89446125 178.54770912 -113.16967773 180.89233398 C-114.6367799 182.37183442 -116.10547906 183.84975329 -117.57592773 185.32592773 C-118.25019806 186.02691589 -118.92446838 186.72790405 -119.61917114 187.45013428 C-124.17388318 191.94105523 -127.04605661 193.50220807 -133.50561523 193.46655273 C-136.72755023 192.33290894 -138.71881913 191.43216613 -140.88061523 188.77905273 C-141.84998695 185.1923774 -142.36652383 182.08586575 -141.50561523 178.46655273 C-140.21166992 176.61352539 -140.21166992 176.61352539 -138.48999023 174.75561523 C-137.85520752 174.06274414 -137.2204248 173.36987305 -136.56640625 172.65600586 C-135.88634521 171.93348633 -135.20628418 171.2109668 -134.50561523 170.46655273 C-133.83135498 169.73887695 -133.15709473 169.01120117 -132.46240234 168.26147461 C-130.38364941 166.02753231 -128.29074503 163.80776957 -126.19311523 161.59155273 C-125.47833008 160.83358398 -124.76354492 160.07561523 -124.02709961 159.29467773 C-118.8628821 153.8238196 -118.8628821 153.8238196 -116.50561523 151.46655273 C-116.85546782 147.51725533 -118.36841603 144.59284098 -120.25561523 141.15405273 C-130.23442679 121.67618018 -133.68167823 99.67351605 -127.50561523 78.46655273 C-121.28655929 60.26499341 -110.65164955 47.0405974 -95.50561523 35.46655273 C-94.5375293 34.69827148 -93.56944336 33.92999023 -92.57202148 33.13842773 C-78.39963029 22.21058679 -61.75015742 14.05468189 -45.00561523 7.90405273 C-44.19608398 7.60611816 -43.38655273 7.30818359 -42.55249023 7.0012207 C-28.33627944 2.06912368 -15.01175413 -0.18622139 0 0 Z " fill="#000000" transform="translate(393.505615234375,-0.466552734375)"/>
<path d="M0 0 C3.69007314 3.15193748 4.8278682 5.11065238 5.75 9.875 C5.07478985 19.15997222 -7.27987673 27.42623783 -13.55078125 33.68359375 C-14.65714347 34.79063089 -15.76335731 35.89781634 -16.86943054 37.00514221 C-19.17150757 39.30868363 -21.47535883 41.61043126 -23.78051758 43.91088867 C-26.73743375 46.86206783 -29.6897831 49.81776876 -32.64085102 52.77479458 C-34.91665001 55.05419902 -37.19481516 57.33122651 -39.47371483 59.60753059 C-40.56412365 60.69727218 -41.6537897 61.78775751 -42.74270058 62.8789959 C-44.25746145 64.39628736 -45.77537469 65.91035198 -47.29418945 67.42358398 C-48.15687943 68.28547836 -49.0195694 69.14737274 -49.90840149 70.03538513 C-53.11808566 73.05020524 -55.19517318 73.20699756 -59.55859375 73.16796875 C-62.2481097 72.98293005 -64.79121499 72.51324097 -67.4375 72 C-89.72858958 68.0976556 -112.31921826 73.20494402 -131 86 C-134.50812317 88.83464394 -137.76471498 91.86070075 -141 95 C-141.62519531 95.55171875 -142.25039062 96.1034375 -142.89453125 96.671875 C-155.75504617 108.40020011 -164.04478382 128.72394597 -165.12597656 146.01464844 C-165.97651266 170.27107658 -159.67239616 191.51693226 -143.75 210.1875 C-129.74431322 225.08766762 -108.41633017 235.30741556 -87.890625 236.23828125 C-63.68780544 236.82438196 -41.80191281 229.81323152 -24 213 C-7.83082156 196.62842573 0.15285923 175.2256252 0.25976562 152.34765625 C0.1887053 146.37858855 -0.94779721 140.86428575 -2.3046875 135.0546875 C-3.24411657 130.92753283 -3.72502384 128.20513824 -3 124 C2.94256484 115.33668026 11.87029245 108.06629974 19.32080078 100.69970703 C31.78808428 88.36036217 31.78808428 88.36036217 36.65649414 82.47680664 C39.32735714 79.54094434 42.02945703 78.15577415 45.9765625 77.84375 C50.11678788 78.02982755 51.77010781 78.80363376 55 81.5625 C56.90864632 84.84298586 57.86519905 87.11268494 57.61497498 90.94061279 C55.59826709 97.69402973 47.73554284 103.26578532 42.68359375 107.921875 C41.32814936 109.20630098 39.97468873 110.4928231 38.62304688 111.78125 C36.52597907 113.77953662 34.42182364 115.76430385 32.28198242 117.71679688 C20.34234887 128.64769724 20.34234887 128.64769724 19.53417969 134.20068359 C20.08845584 137.27426014 20.99906937 140.04537057 22 143 C24.69021122 171.08295639 17.39002963 196.6935256 0.25 219 C-17.26887872 240.21768229 -40.55939373 254.33895266 -68 258 C-100.40513394 260.18311288 -128.201199 253.66551643 -153 232 C-174.74452188 212.29113549 -186.35568356 186.4669648 -187.9140625 157.36767578 C-188.99001156 127.72405653 -177.4185317 101.54274289 -157.91796875 79.6640625 C-140.49252113 61.23640917 -115.33786194 49.50368461 -89.984375 48.66796875 C-71.82286853 48.4253439 -71.82286853 48.4253439 -68.03244019 49.62026978 C-65.39833365 50.31205347 -63.69758893 50.48200683 -61 50 C-56.54527608 46.95604938 -52.97877384 43.09352379 -49.2890625 39.1953125 C-48.19045701 38.07295471 -47.08945397 36.95293917 -45.98617554 35.83517456 C-43.09463779 32.89424508 -40.23354038 29.9254447 -37.37878418 26.94885254 C-33.3444467 22.75333251 -29.26965427 18.59702704 -25.19955444 14.43624878 C-23.03328328 12.22150131 -20.8785766 9.99638825 -18.73233032 7.76223755 C-17.75078753 6.74787082 -16.76921177 5.73353599 -15.78759766 4.71923828 C-14.93316071 3.83019806 -14.07872375 2.94115784 -13.19839478 2.025177 C-9.23109307 -1.62952972 -4.97715515 -1.54930899 0 0 Z " fill="#000000" transform="translate(188,254)"/>
<path d="M0 0 C2.11812064 1.52286474 4.0207296 3.14464009 5.93495178 4.91662598 C6.56471924 5.49673431 7.19448669 6.07684265 7.84333801 6.67453003 C9.81334036 8.5489695 11.73366448 10.46380862 13.64588928 12.39709473 C14.34009979 13.09176346 15.0343103 13.78643219 15.7495575 14.50215149 C17.20224804 15.95784071 18.65253041 17.41593685 20.10047913 18.87634277 C22.31946263 21.11371564 24.54647789 23.34284992 26.77479553 25.57092285 C28.19063504 26.99167368 29.6060162 28.41288146 31.02088928 29.83459473 C31.35316025 30.1674221 31.35316025 30.1674221 33.03465271 31.85173035 C33.64934418 32.47280167 34.26403564 33.09387299 34.89735413 33.73376465 C35.16730698 34.0056234 35.16730698 34.0056234 36.53343201 35.38139343 C40.17101916 39.3660266 40.26956934 41.9736681 40.15971375 47.10934448 C39.77800987 51.8768337 38.63096326 56.3839773 37.41542053 60.99865723 C37.15618301 62.01586349 36.8969455 63.03306976 36.62985229 64.08110046 C36.08326078 66.2145276 35.53082231 68.34646455 34.97279358 70.47692871 C34.12126119 73.73367948 33.29145797 76.99541914 32.46424866 80.25842285 C31.92841374 82.33882965 31.39134708 84.41891966 30.85292053 86.49865723 C30.72941978 86.98410255 30.72941978 86.98410255 30.10443115 89.44075012 C27.15188249 100.61412784 27.15188249 100.61412784 22.95863342 103.07775879 C22.15804504 103.33911621 21.35745667 103.60047363 20.53260803 103.86975098 C19.55308167 104.19008301 18.5735553 104.51041504 17.56434631 104.8404541 C10.44404585 106.95173383 3.30834696 108.98549829 -3.86265564 110.91809082 C-6.62836319 111.66684661 -9.38853693 112.43406607 -12.14903259 113.20178223 C-13.93453037 113.68599791 -15.72032823 114.16910869 -17.50645447 114.65100098 C-18.31715897 114.87906433 -19.12786346 115.10712769 -19.96313477 115.34210205 C-26.33347474 117.02537797 -33.65119378 118.79252753 -39.68418884 115.47741699 C-40.35643494 114.77802002 -41.02868103 114.07862305 -41.72129822 113.35803223 C-42.54500916 112.53448242 -43.36872009 111.71093262 -44.21739197 110.86242676 C-44.66518005 110.39556458 -45.11296814 109.92870239 -45.57432556 109.44769287 C-47.22329032 107.75410129 -48.9203966 106.12115906 -50.63145447 104.49035645 C-53.96248028 101.31237748 -57.2520264 98.09542543 -60.52696228 94.85974121 C-61.89387206 93.51460898 -63.26702033 92.17578901 -64.64610291 90.84313965 C-66.66506672 88.89117263 -68.66354364 86.92013103 -70.65879822 84.94396973 C-71.27331848 84.35728012 -71.88783875 83.77059052 -72.52098083 83.16612244 C-76.51053945 79.15708272 -78.64728011 75.64028336 -79.06504822 69.91662598 C-78.66880798 66.61950684 -78.66880798 66.61950684 -77.75645447 63.38146973 C-77.42500427 62.17031494 -77.09355408 60.95916016 -76.75205994 59.71130371 C-76.37824396 58.4252805 -76.00338495 57.13956008 -75.62754822 55.85412598 C-75.25151574 54.52381546 -74.87669117 53.19316296 -74.5030365 51.86218262 C-73.74324726 49.17098764 -72.9704754 46.48400658 -72.18760681 43.79943848 C-71.14423017 40.21376852 -70.15767095 36.61410002 -69.17832947 33.01037598 C-68.60104576 30.95768865 -68.02174513 28.90556704 -67.44004822 26.85412598 C-67.18811707 25.91625244 -66.93618591 24.97837891 -66.67662048 24.01208496 C-66.42066101 23.14398193 -66.16470154 22.27587891 -65.90098572 21.38146973 C-65.69006287 20.63502197 -65.47914001 19.88857422 -65.26182556 19.11950684 C-62.51296487 14.05974142 -58.50396716 11.86416492 -53.21226501 10.15563965 C-51.31757584 9.61539893 -49.41785557 9.09258836 -47.51426697 8.58459473 C-46.5008876 8.30312088 -45.48750824 8.02164703 -44.44342041 7.73164368 C-42.30641162 7.14200743 -40.16728166 6.56001174 -38.02622986 5.98522949 C-34.76823569 5.10834822 -31.51918517 4.20294169 -28.27012634 3.2935791 C-26.18531095 2.72219608 -24.10003802 2.15247931 -22.01426697 1.58459473 C-21.05147324 1.31592087 -20.0886795 1.04724701 -19.09671021 0.77043152 C-5.43481144 -2.85123296 -5.43481144 -2.85123296 0 0 Z M-46.06504822 30.91662598 C-53.04132991 39.69342333 -55.46579952 55.63755722 -54.93980408 66.50402832 C-53.67238923 69.99958889 -51.34183782 72.30923418 -48.77989197 74.90881348 C-48.24537918 75.45901154 -47.71086639 76.00920959 -47.16015625 76.57608032 C-46.02814369 77.73266898 -44.89058477 78.88385178 -43.74790955 80.02990723 C-42.00921593 81.78489577 -40.30814753 83.57151475 -38.60606384 85.36193848 C-37.49948439 86.4838494 -36.39082515 87.60371352 -35.27989197 88.72131348 C-35.0286834 88.98947372 -35.0286834 88.98947372 -33.75741577 90.3465271 C-32.25230408 91.8145752 -32.25230408 91.8145752 -29.06504822 93.91662598 C-26.01965909 93.85698944 -23.9285719 93.6449451 -21.06504822 92.91662598 C-20.51409485 92.79710571 -20.51409485 92.79710571 -17.72593689 92.19226074 C-14.23319477 91.29376644 -10.74113586 90.39364628 -7.25254822 89.47912598 C-6.02600525 89.16652832 -4.79946228 88.85393066 -3.53575134 88.53186035 C-2.363349 88.22699707 -1.19094666 87.92213379 0.01698303 87.60803223 C1.08150696 87.33160889 2.14603088 87.05518555 3.24281311 86.77038574 C5.93495178 85.91662598 5.93495178 85.91662598 8.93495178 83.91662598 C9.77002206 81.55476762 10.42810686 79.32106158 11.01307678 76.89709473 C11.18877197 76.20150955 11.36446716 75.50592438 11.54548645 74.78926086 C11.91412936 73.31711151 12.27688053 71.8434761 12.63417053 70.36853027 C13.18133808 68.11898282 13.75196952 65.87635537 14.32557678 63.63342285 C14.68117221 62.20083403 15.03538438 60.76790101 15.38807678 59.33459473 C15.55881714 58.66671432 15.7295575 57.99883392 15.9054718 57.31071472 C16.80898449 53.50704718 17.36552716 50.59887401 15.93495178 46.91662598 C14.18172142 44.77642545 12.4690063 42.88944071 10.50917053 40.95959473 C9.96517105 40.41176834 9.42117157 39.86394196 8.86068726 39.29951477 C7.71140035 38.14751255 6.55707307 37.00051965 5.39808655 35.85827637 C3.62488493 34.10652968 1.87407124 32.33442377 0.12440491 30.5592041 C-0.99605923 29.44138249 -2.11776319 28.32480197 -3.24082947 27.20959473 C-3.76389175 26.67843552 -4.28695404 26.14727631 -4.8258667 25.60002136 C-12.96351539 17.66882534 -37.35219732 24.08704031 -46.06504822 30.91662598 Z " fill="#000000" transform="translate(124.06504821777344,349.0833740234375)"/>
<path d="M0 0 C3.02981639 1.34193146 4.86688882 3.31174883 7.20553207 5.65767002 C7.70305961 6.15263428 8.20058714 6.64759854 8.71319127 7.15756172 C10.38014486 8.81957 12.03614301 10.49208119 13.69240952 12.16473484 C14.88445823 13.35762966 16.07716772 14.54986449 17.27048874 15.74148655 C20.51037193 18.98050773 23.7409115 22.22870648 26.96988201 25.47860169 C30.34511687 28.87256904 33.72882878 32.258063 37.11166 35.64445591 C43.51721995 42.05934639 49.91509312 48.48184706 56.31025624 54.90710062 C63.59087441 62.22123137 70.87999592 69.52686242 78.16985273 76.83178341 C93.16636111 91.85966365 108.15213084 106.89821354 123.13088608 121.94378757 C121.78361347 124.73948921 120.53382374 126.7834656 118.31057358 128.95941257 C117.77561264 129.4879282 117.2406517 130.01644382 116.68947983 130.56097507 C116.41168686 130.83038914 116.41168686 130.83038914 115.00588608 132.19378757 C114.44256577 132.74808445 113.87924545 133.30238132 113.29885483 133.87347507 C111.9140258 135.23483242 110.52305404 136.58993617 109.13088608 137.94378757 C105.36582053 136.37517348 102.96294328 134.03484716 100.08747482 131.17453098 C99.59332527 130.68561811 99.09917573 130.19670524 98.59005195 129.69297683 C96.93701065 128.05492685 95.29118598 126.40981582 93.64529037 124.76458836 C92.46121848 123.58813818 91.27674492 122.41209214 90.09189987 121.23642063 C86.87655991 118.04302315 83.66781485 114.84307847 80.46088767 111.64123487 C78.45846742 109.64245655 76.45475489 107.64498304 74.45059776 105.64794636 C67.46322211 98.68505816 60.4815794 91.7164742 53.50466537 84.74310398 C46.99305419 78.23513406 40.46841126 71.74043075 33.9377448 65.25158799 C28.33567566 59.68414671 22.74320222 54.10718791 17.15807086 48.5227555 C13.8200688 45.1855484 10.47816382 41.85248378 7.12640572 38.52908802 C3.97749166 35.40622799 0.84062347 32.27176258 -2.28722191 29.12780476 C-3.43947188 27.97373054 -4.59604002 26.82394986 -5.75710297 25.67874241 C-7.33671214 24.11940463 -8.90027556 22.54559025 -10.46062088 20.96701145 C-11.34126866 20.088375 -12.22191645 19.20973854 -13.12925053 18.30447674 C-14.86911392 15.94378757 -14.86911392 15.94378757 -14.80602169 13.82050991 C-13.18350721 10.57044702 -10.60233797 8.16498932 -8.05661392 5.63128757 C-7.78945572 5.34994968 -7.78945572 5.34994968 -6.4374733 3.92620945 C-2.45695676 -0.07389143 -2.45695676 -0.07389143 0 0 Z " fill="#000000" transform="translate(324.86911392211914,310.05621242523193)"/>
</svg>
