<?xml version="1.0" encoding="UTF-8"?>
<!-- Generator: visioncortex VTracer 0.6.12 -->
<svg version="1.1" xmlns="http://www.w3.org/2000/svg" width="512" height="512">
<path d="M0 0 C0.64259766 0.35707031 1.28519531 0.71414062 1.94726562 1.08203125 C10.66480092 5.96247138 18.48653455 11.37114746 26 18 C26.86367188 18.75410156 27.72734375 19.50820313 28.6171875 20.28515625 C31.10850105 22.49250549 33.55977501 24.73642429 36 27 C36.32097656 27.28810547 36.32097656 27.28810547 37.9453125 28.74609375 C60.18183182 49.63353553 73.67876741 78.83382443 81 108 C81.17934082 108.70898438 81.35868164 109.41796875 81.54345703 110.1484375 C87.19647251 133.95060794 85.48428177 162.14212205 81 186 C80.82259277 186.99032227 80.64518555 187.98064453 80.46240234 189.00097656 C70.65418183 242.35969277 46.11468238 293.48981224 19 340 C18.44538086 340.95890137 17.89076172 341.91780273 17.31933594 342.90576172 C6.70880378 361.19568935 -4.95690966 378.72700182 -16.80352783 396.22937012 C-18.48913355 398.72385677 -20.16408974 401.2254507 -21.83984375 403.7265625 C-27.86740668 412.68167251 -34.18560318 421.34738396 -40.80859375 429.87109375 C-43.46101943 433.28527478 -46.04883434 436.74249752 -48.62011719 440.21801758 C-54.44839088 448.08769992 -60.57834232 455.6090355 -67 463 C-67.71671875 463.84046875 -68.4334375 464.6809375 -69.171875 465.546875 C-74.5364251 471.7981276 -74.5364251 471.7981276 -79.625 472.5 C-85.26628616 472.42709879 -88.1819021 468.78235479 -92 465 C-94.29921423 462.521958 -96.44468331 459.94640478 -98.5625 457.3125 C-99.15401855 456.58554932 -99.74553711 455.85859863 -100.35498047 455.10961914 C-106.87556755 447.02864478 -113.06977515 438.70357052 -119.24658203 430.35888672 C-120.8592627 428.18933498 -122.48563935 426.03131765 -124.12109375 423.87890625 C-149.72022343 390.16966204 -172.80543339 354.23932364 -192.52978516 316.78027344 C-193.94363006 314.10659929 -195.38037209 311.44662856 -196.82421875 308.7890625 C-223.61760021 259.12965273 -244.59658255 202.19065132 -244.3125 145.125 C-244.31034485 144.33907471 -244.3081897 143.55314941 -244.30596924 142.7434082 C-244.11107261 98.34302652 -226.85357624 58.75704845 -196 27 C-195.46793945 26.44675049 -194.93587891 25.89350098 -194.38769531 25.32348633 C-144.8852322 -25.35594868 -60.83528573 -34.37676463 0 0 Z M-164 28 C-164.87011719 28.6496875 -165.74023438 29.299375 -166.63671875 29.96875 C-197.01806337 53.74159776 -216.51939468 86.72345243 -222 125 C-222.13019531 125.82628906 -222.26039063 126.65257812 -222.39453125 127.50390625 C-228.47750846 174.14006488 -211.72598289 223.89698726 -193 266 C-192.55720703 267.0007959 -192.11441406 268.0015918 -191.65820312 269.03271484 C-164.61749841 329.76302184 -127.72754699 386.67914304 -85.4765625 437.9453125 C-83 441 -83 441 -81 444 C-80.34 444 -79.68 444 -79 444 C-77.25054066 441.97415039 -75.61698451 439.94072472 -74 437.8125 C-73.50870605 437.17538086 -73.01741211 436.53826172 -72.51123047 435.88183594 C-71.49289614 434.56006352 -70.47713274 433.23630665 -69.46386719 431.91064453 C-68.15484306 430.2021017 -66.83489576 428.50311923 -65.5078125 426.80859375 C-58.42522971 417.71734404 -51.68251252 408.3879679 -45 399 C-44.41637695 398.18015625 -43.83275391 397.3603125 -43.23144531 396.515625 C-35.19242733 385.19331209 -27.40164355 373.74921088 -20 362 C-19.50177734 361.21077148 -19.00355469 360.42154297 -18.49023438 359.60839844 C-4.23683637 336.96803834 8.99795296 313.91529124 21 290 C21.28053223 289.4436084 21.28053223 289.4436084 22.70019531 286.62792969 C41.74463506 248.66063396 56.52963489 208.29180674 62 166 C62.06574219 165.51982422 62.06574219 165.51982422 62.3984375 163.08984375 C66.51014536 127.14018181 57.98006431 89.08869622 36 60 C35.3503125 59.12988281 34.700625 58.25976562 34.03125 57.36328125 C10.26373369 26.98875014 -22.72625121 7.4676784 -61 2 C-61.84949219 1.86980469 -62.69898438 1.73960938 -63.57421875 1.60546875 C-98.20757888 -2.80455164 -136.14964685 6.95565519 -164 28 Z " fill="#000000" transform="translate(336,30)"/>
<path d="M0 0 C14.69533559 12.55655586 25.5911334 29.65379585 27.18457031 49.27246094 C28.32679354 69.79139182 23.77338164 88.77717747 10.14453125 104.69921875 C-1.73964504 117.44927309 -17.64635215 127.92699107 -35.53271484 129.17700195 C-58.69623511 129.70699681 -77.29615747 126.25319323 -95 110 C-108.86703896 96.71268675 -116.86168379 79.38551785 -117.29296875 60.12402344 C-117.44180246 40.6044819 -111.88888969 22.18065743 -98.05712891 7.95336914 C-96.71722102 6.62290371 -95.35913882 5.31081389 -94 4 C-93.36707031 3.33613281 -92.73414063 2.67226562 -92.08203125 1.98828125 C-83.5149834 -6.42747216 -70.62115713 -11.70739077 -59 -14 C-57.906875 -14.226875 -56.81375 -14.45375 -55.6875 -14.6875 C-35.49843685 -16.39843755 -16.31149256 -12.46143356 0 0 Z M-64 10 C-64.66773438 10.26683594 -65.33546875 10.53367188 -66.0234375 10.80859375 C-78.84872526 16.51153791 -87.89457321 27.12780691 -93 40 C-97.39984518 54.62508539 -96.86925312 67.90284223 -89.9375 81.75 C-82.90993842 93.87106734 -72.47082824 102.31953722 -59.10546875 106.45703125 C-46.1010199 109.81068318 -33.0273151 108.52538134 -20.9921875 102.4921875 C-7.65728223 94.50610217 0.19436929 83.63000745 4.9765625 69.015625 C7.67997636 56.83223987 5.64974594 43.38264057 -0.38671875 32.5 C-1.83544104 30.24896695 -3.37005141 28.12262826 -5 26 C-5.43957031 25.38511719 -5.87914062 24.77023438 -6.33203125 24.13671875 C-13.31997681 15.05440333 -24.96556883 9.44188938 -36 7 C-45.62000802 6.5086047 -55.00219913 6.10769288 -64 10 Z " fill="#000000" transform="translate(301,127)"/>
</svg>
