<?xml version="1.0" encoding="UTF-8"?>
<!-- Generator: visioncortex VTracer 0.6.12 -->
<svg version="1.1" xmlns="http://www.w3.org/2000/svg" width="512" height="512">
<path d="M0 0 C1.1240625 0.63679688 2.248125 1.27359375 3.40625 1.9296875 C37.82100022 22.33271799 62.4854569 53.58212698 76 91 C76.20496094 91.55236328 76.20496094 91.55236328 77.2421875 94.34765625 C78.32836063 97.54302603 79.19816256 100.72105763 80 104 C80.09023438 104.36383789 80.09023438 104.36383789 80.546875 106.20507812 C99.67720476 186.79805518 57.67154752 276.87040268 16.66796875 344.25390625 C14.97941562 347.03388951 13.31602556 349.82775587 11.65625 352.625 C-52.59839424 460.29919712 -52.59839424 460.29919712 -76 472 C-82.63595932 472.91530473 -82.63595932 472.91530473 -85.94213867 470.69677734 C-90.60871347 466.46309777 -94.74768552 462.03909657 -98.6875 457.125 C-98.9858374 456.75765747 -98.9858374 456.75765747 -100.49560547 454.89868164 C-106.28600309 447.72900001 -111.89839398 440.42525388 -117.44287109 433.06445312 C-118.95165607 431.06409474 -120.46897258 429.07049683 -121.98828125 427.078125 C-145.61926515 395.98081401 -167.00064714 363.11522829 -186 329 C-186.5259375 328.05785645 -187.051875 327.11571289 -187.59375 326.14501953 C-214.05957369 278.54948023 -235.73753842 227.33435391 -243 173 C-243.0515625 172.62270752 -243.0515625 172.62270752 -243.3125 170.71337891 C-244.30592516 162.3455459 -244.24268531 153.91479827 -244.25 145.5 C-244.25100708 144.69664215 -244.25201416 143.8932843 -244.25305176 143.06558228 C-244.24317884 131.4322306 -243.80784229 120.33982658 -241 109 C-240.85498047 108.36771484 -240.85498047 108.36771484 -240.12109375 105.16796875 C-230.0268875 64.15761614 -204.17300493 27.28261662 -168.20458984 4.88183594 C-164.1995026 2.46718099 -160.11604994 0.2192971 -156 -2 C-155.07316406 -2.52207031 -154.14632812 -3.04414063 -153.19140625 -3.58203125 C-106.80296799 -28.51992927 -45.22812373 -25.7323686 0 0 Z M-87.25 93.3984375 C-105.273511 96.28970906 -119.73077663 105.24128452 -130.875 119.6875 C-139.55732374 132.94506786 -143.22990598 149.48274544 -140.31640625 165.08203125 C-136.64663556 182.07971433 -127.50232377 196.22669485 -113 206 C-98.21435102 214.83532683 -81.69887187 217.5094484 -64.8125 214 C-47.58206368 208.90266259 -34.24456641 197.96495132 -25.49609375 182.30859375 C-18.13848739 167.22000996 -16.95878558 151.64222957 -21.75390625 135.59765625 C-27.69419108 118.44717873 -38.95764196 106.37691562 -55.1875 98.25 C-65.32736391 93.88582562 -76.33105967 92.05981741 -87.25 93.3984375 Z " fill="#000000" transform="translate(336,30)"/>
</svg>
