<?xml version="1.0" encoding="UTF-8"?>
<!-- Generator: visioncortex VTracer 0.6.12 -->
<svg version="1.1" xmlns="http://www.w3.org/2000/svg" width="512" height="512">
<path d="M0 0 C0.35006813 -0.00087652 0.35006813 -0.00087652 2.12162501 -0.00531223 C4.46727329 -0.00996351 6.81285936 -0.00750899 9.15851021 -0.00507832 C10.85740526 -0.00694672 12.55629989 -0.00924755 14.25519383 -0.01194364 C18.92364614 -0.01806428 23.59208055 -0.01792773 28.26053596 -0.01674926 C33.29539819 -0.01654533 38.33025466 -0.02206332 43.36511421 -0.02680683 C53.22898857 -0.0351152 63.09285696 -0.03786175 72.95673452 -0.03841921 C80.97330552 -0.03889424 88.98987455 -0.04094837 97.00644493 -0.04411983 C119.72953344 -0.05292662 142.45261722 -0.05753913 165.17570744 -0.05678936 C165.78828143 -0.05676938 165.78828143 -0.05676938 168.88827705 -0.05666828 C169.50159795 -0.05664784 169.50159795 -0.05664784 172.6053734 -0.0565444 C192.49063094 -0.05613784 212.37586955 -0.06570992 232.26112162 -0.07980665 C252.67389555 -0.0941633 273.08666025 -0.10107724 293.49943936 -0.10021287 C304.96181228 -0.09988067 316.42416536 -0.10263774 327.88653374 -0.11339092 C337.6446063 -0.12248653 347.40265002 -0.12467888 357.16072498 -0.1178815 C362.13988313 -0.11461166 367.1189859 -0.11457637 372.09813881 -0.12323475 C376.65656043 -0.13108005 381.2148826 -0.1296885 385.77330174 -0.12095062 C387.42197566 -0.11941129 389.07065693 -0.12124804 390.71932219 -0.12681069 C392.9622426 -0.13387692 395.20481468 -0.1285725 397.44772339 -0.12025452 C398.6929914 -0.12047188 399.93825941 -0.12068925 401.22126281 -0.12091321 C409.22102581 0.42927424 415.53187153 2.5343172 421.09970284 8.56613445 C425.00333817 14.2821719 425.54284561 19.31450776 424.84970284 26.12863445 C423.23617304 32.24120354 419.939503 36.69810154 414.76323128 40.24141979 C408.01838803 43.47563708 400.23084608 42.67858323 392.92074776 42.63656902 C391.1788738 42.64118016 389.43700374 42.64753451 387.69514179 42.655478 C382.91709113 42.67216517 378.13936034 42.6639277 373.36130857 42.65153313 C368.20512514 42.64248249 363.04899669 42.65645245 357.89282417 42.66745281 C347.79523642 42.68524243 337.69776757 42.68139605 327.60017514 42.66980225 C319.39390223 42.66076996 311.18766264 42.65954305 302.98138618 42.66389751 C301.81357744 42.66451045 300.6457687 42.66512338 299.44257182 42.66575488 C297.07021593 42.66703378 294.69786005 42.66833063 292.32550418 42.66964525 C270.07814222 42.68105235 247.83084617 42.66793529 225.58349502 42.64644378 C206.49283597 42.6285727 187.4022742 42.63167677 168.3116169 42.65011883 C146.1440467 42.67152322 123.97653428 42.6799537 101.80895519 42.66766977 C99.44530997 42.66639557 97.08166473 42.66513809 94.71801949 42.66389751 C93.55505055 42.66328041 92.39208162 42.66266331 91.1938712 42.66202751 C82.99713357 42.65857332 74.80043259 42.66440445 66.60370064 42.67381573 C56.6150725 42.68503228 46.62657011 42.68200283 36.63795638 42.66069275 C31.54126868 42.65017779 26.44479065 42.64606823 21.34810448 42.65928936 C16.68232522 42.67120967 12.01694998 42.66465654 7.35120738 42.64337915 C5.66356703 42.63891158 3.97589255 42.64118285 2.28827417 42.6508823 C-15.3989552 42.74473898 -15.3989552 42.74473898 -22.20889091 36.12863445 C-22.66392998 35.46863445 -23.11896904 34.80863445 -23.58779716 34.12863445 C-24.0608831 33.46863445 -24.53396904 32.80863445 -25.02139091 32.12863445 C-27.79856713 27.20851605 -27.73793994 21.63261254 -27.15029716 16.12863445 C-25.09254068 9.34391735 -21.06376807 5.57455377 -15.15029716 1.87863445 C-10.24654351 0.03972683 -5.17920863 0.00293055 0 0 Z " fill="#000000" transform="translate(57.15029716491699,80.87136554718018)"/>
<path d="M0 0 C1.74187396 -0.00461114 3.48374402 -0.01096549 5.22560596 -0.01890898 C10.00365663 -0.03559614 14.78138742 -0.02735868 19.55943918 -0.0149641 C24.71562262 -0.00591346 29.87175107 -0.01988342 35.02792358 -0.03088379 C45.12551134 -0.04867341 55.22298019 -0.04482702 65.32057261 -0.03323323 C73.52684553 -0.02420094 81.73308511 -0.02297402 89.93936157 -0.02732849 C91.10717031 -0.02794142 92.27497905 -0.02855436 93.47817594 -0.02918586 C95.85053183 -0.03046476 98.2228877 -0.03176161 100.59524357 -0.03307623 C122.84260554 -0.04448333 145.08990158 -0.03136626 167.33725274 -0.00987476 C186.42791179 0.00799632 205.51847356 0.00489225 224.60913086 -0.0135498 C246.77670106 -0.0349542 268.94421348 -0.04338468 291.11179256 -0.03110075 C293.47543779 -0.02982655 295.83908303 -0.02856907 298.20272827 -0.02732849 C299.36569721 -0.02671139 300.52866614 -0.02609429 301.72687656 -0.02545848 C309.92361418 -0.0220043 318.12031517 -0.02783542 326.31704712 -0.0372467 C336.30567526 -0.04846325 346.29417765 -0.0454338 356.28279138 -0.02412373 C361.37947908 -0.01360876 366.47595711 -0.00949921 371.57264328 -0.02272034 C376.23842253 -0.03464065 380.90379777 -0.02808752 385.56954038 -0.00681013 C387.25718072 -0.00234256 388.94485521 -0.00461383 390.63247359 -0.01431328 C408.31970296 -0.10816995 408.31970296 -0.10816995 415.12963867 6.50793457 C415.58467773 7.16793457 416.0397168 7.82793457 416.50854492 8.50793457 C416.98163086 9.16793457 417.4547168 9.82793457 417.94213867 10.50793457 C420.71931488 15.42805298 420.65868769 21.00395649 420.07104492 26.50793457 C418.01328843 33.29265167 413.98451583 37.06201526 408.07104492 40.75793457 C403.16729126 42.59684219 398.09995639 42.63363848 392.92074776 42.63656902 C392.57067963 42.63744554 392.57067963 42.63744554 390.79912275 42.64188126 C388.45347446 42.64653253 386.1078884 42.64407801 383.76223755 42.64164734 C382.06334249 42.64351575 380.36444787 42.64581657 378.66555393 42.64851266 C373.99710162 42.65463331 369.32866721 42.65449676 364.6602118 42.65331829 C359.62534957 42.65311435 354.5904931 42.65863235 349.55563354 42.66337585 C339.69175918 42.67168423 329.8278908 42.67443077 319.96401323 42.67498823 C311.94744223 42.67546327 303.9308732 42.67751739 295.91430283 42.68068886 C273.19121432 42.68949564 250.46813054 42.69410815 227.74504031 42.69335838 C227.13246633 42.69333841 227.13246633 42.69333841 224.0324707 42.6932373 C222.80582891 42.69319642 221.57918712 42.69315554 220.31537436 42.69311342 C200.43011682 42.69270686 180.54487821 42.70227894 160.65962614 42.71637567 C140.24685221 42.73073233 119.83408751 42.73764626 99.4213084 42.7367819 C87.95893548 42.7364497 76.4965824 42.73920677 65.03421402 42.74995995 C55.27614146 42.75905556 45.51809774 42.7612479 35.76002277 42.75445052 C30.78086463 42.75118068 25.80176186 42.7511454 20.82260895 42.75980377 C16.26418732 42.76764907 11.70586516 42.76625752 7.14744602 42.75751964 C5.4987721 42.75598031 3.85009082 42.75781706 2.20142557 42.76337972 C-0.04149484 42.77044594 -2.28406692 42.76514152 -4.52697563 42.75682354 C-5.77224364 42.75704091 -7.01751165 42.75725828 -8.30051506 42.75748223 C-14.99984809 42.29673247 -20.64326495 40.85394645 -25.92895508 36.50793457 C-30.67932215 30.88452707 -32.23349786 26.44179629 -32.14770508 19.07434082 C-31.65728003 13.32060405 -28.99728043 8.57625992 -24.92895508 4.50793457 C-17.20951102 -0.77626388 -8.98081416 -0.05161651 0 0 Z " fill="#000000" transform="translate(61.928955078125,388.4920654296875)"/>
<path d="M0 0 C0.3562447 -0.00175304 0.3562447 -0.00175304 2.15905878 -0.01062447 C4.55280855 -0.01994786 6.94631554 -0.01501277 9.34007549 -0.01015663 C11.0711074 -0.01389242 12.80213762 -0.01849365 14.53316516 -0.02388728 C19.29510379 -0.03614152 24.0569723 -0.03585396 28.81892312 -0.03349853 C33.95265326 -0.03309097 39.08636074 -0.04412362 44.22008038 -0.05361366 C54.27994439 -0.07023788 64.33978498 -0.07572385 74.39966158 -0.07683842 C82.57548865 -0.07778821 90.75130798 -0.08189505 98.92713261 -0.08823967 C122.09883242 -0.10585588 145.27051369 -0.11507793 168.44222025 -0.11357872 C169.06702492 -0.11353877 169.06702492 -0.11353877 172.22891521 -0.11333656 C172.85448132 -0.11329568 172.85448132 -0.11329568 176.02022495 -0.1130888 C196.30002796 -0.11227577 216.57975671 -0.13141675 236.85953823 -0.1596133 C257.67456888 -0.18832605 278.48956329 -0.20215448 299.30461425 -0.20042574 C310.9939447 -0.19976129 322.68319732 -0.2052778 334.37250996 -0.22678185 C344.32460087 -0.24497246 354.27657866 -0.2493584 364.22867898 -0.235763 C369.30712725 -0.22922269 374.38535837 -0.22915453 379.46378613 -0.2464695 C384.11301768 -0.26215819 388.76185913 -0.25937963 393.41108092 -0.24190123 C395.09276022 -0.23882206 396.77446834 -0.24249816 398.45611367 -0.25362138 C415.49844949 -0.35887956 415.49844949 -0.35887956 422.8712492 6.00336266 C427.51957267 11.82048423 429.34705705 16.1511146 429.15640545 23.69867516 C428.34118859 30.45775167 424.83705915 34.78592184 419.72671795 39.03070641 C415.11378998 42.04205647 411.15618516 42.50847845 405.6956234 42.51453781 C404.983134 42.51804389 404.2706446 42.52154996 403.53656462 42.52516228 C401.14281485 42.53448567 398.74930786 42.52955058 396.3555479 42.52469444 C394.624516 42.52843023 392.89348578 42.53303146 391.16245824 42.53842509 C386.40051961 42.55067933 381.6386511 42.55039177 376.87670028 42.54803634 C371.74297013 42.54762878 366.60926265 42.55866143 361.47554302 42.56815147 C351.415679 42.58477569 341.35583842 42.59026166 331.29596182 42.59137623 C323.12013475 42.59232602 314.94431542 42.59643287 306.76849079 42.60277748 C283.59679098 42.62039369 260.42510971 42.62961575 237.25340315 42.62811653 C236.62859848 42.62807658 236.62859848 42.62807658 233.46670818 42.62787437 C232.84114208 42.62783349 232.84114208 42.62783349 229.67539845 42.62762661 C209.39559544 42.62681358 189.11586669 42.64595456 168.83608516 42.67415111 C148.02105452 42.70286387 127.20606011 42.71669229 106.39100915 42.71496356 C94.7016787 42.7142991 83.01242608 42.71981561 71.32311344 42.74131966 C61.37102253 42.75951027 51.41904474 42.76389621 41.46694442 42.75030081 C36.38849615 42.7437605 31.31026503 42.74369235 26.23183727 42.76100731 C21.58260572 42.77669601 16.93376427 42.77391745 12.28454248 42.75643905 C10.60286317 42.75335988 8.92115506 42.75703597 7.23950972 42.7681592 C-9.80282609 42.87341737 -9.80282609 42.87341737 -17.1756258 36.51117516 C-21.82394927 30.69405359 -23.65143365 26.36342321 -23.46078205 18.81586266 C-22.64556519 12.05678614 -19.14143575 7.72861597 -14.03109455 3.48383141 C-9.41816658 0.47248134 -5.46056177 0.00605936 0 0 Z " fill="#000000" transform="translate(53.152188301086426,234.74273109436035)"/>
</svg>
