<?xml version="1.0" encoding="UTF-8"?>
<!-- Generator: visioncortex VTracer 0.6.12 -->
<svg version="1.1" xmlns="http://www.w3.org/2000/svg" width="512" height="512">
<path d="M0 0 C1.19217703 -0.00382555 2.38435406 -0.00765109 3.61265767 -0.01159257 C6.90458281 -0.02009905 10.19636458 -0.01969912 13.48829341 -0.01541197 C17.04530802 -0.01293881 20.60229672 -0.02196623 24.15930176 -0.02944946 C31.12126022 -0.04218212 38.08318009 -0.04399194 45.04514824 -0.0416492 C50.7056314 -0.03986427 56.36610286 -0.04161943 62.02658463 -0.04587364 C62.83301896 -0.04646883 63.63945329 -0.04706402 64.47032503 -0.04767724 C66.10873945 -0.04888903 67.74715386 -0.05010316 69.38556828 -0.05131962 C84.74186827 -0.06218965 100.09814629 -0.06003522 115.45444752 -0.05393478 C129.49250644 -0.04876615 143.53049596 -0.06002059 157.56854115 -0.07903299 C171.99458758 -0.09842061 186.42060119 -0.10666577 200.84666073 -0.10290974 C208.94106971 -0.10099909 217.03541963 -0.10347198 225.12981796 -0.11762428 C232.02073559 -0.12955082 238.91155778 -0.13092872 245.80247675 -0.11883412 C249.31564551 -0.11295433 252.82863984 -0.11182087 256.34179688 -0.12383652 C260.156574 -0.13429508 263.97088411 -0.12620961 267.78564453 -0.11352539 C268.88721606 -0.12089968 269.98878759 -0.12827396 271.12374008 -0.13587171 C280.41651365 -0.07098756 288.81416581 1.40777978 296.19558716 7.38179016 C303.56526909 14.97240474 305.40778094 22.70072883 305.29324341 32.94038391 C304.61047656 41.2311242 300.14860432 47.79914621 294.01980591 53.26069641 C288.94847863 56.48620972 284.06115279 58.38290533 278.02182579 58.39491749 C277.50258842 58.39714641 277.50258842 58.39714641 274.87493265 58.40842611 C273.73030766 58.40824174 272.58568267 58.40805738 271.40637207 58.40786743 C270.19326028 58.41154412 268.9801485 58.41522081 267.73027575 58.41900891 C264.3567467 58.42813836 260.98326631 58.43274602 257.60972953 58.43539822 C253.97357664 58.43930074 250.33743784 58.44887918 246.70129395 58.45761108 C237.91636948 58.4773779 229.13144386 58.48744239 220.34650272 58.49633887 C216.209462 58.50072178 212.07242255 58.50608862 207.93538284 58.51132774 C194.18245649 58.52834093 180.42953094 58.54283476 166.67659569 58.55007648 C163.10724257 58.55198638 159.53788947 58.55390671 155.96853638 58.55586243 C155.08139047 58.55634617 154.19424457 58.55682991 153.28021546 58.55732831 C138.91135808 58.56562731 124.54258398 58.59096162 110.17376296 58.6234431 C95.42131096 58.65651985 80.66890127 58.67452584 65.916412 58.67772073 C57.63357736 58.67988535 49.35086414 58.68862692 41.06806564 58.7141819 C34.01339698 58.73589739 26.95887922 58.74393521 19.90418093 58.73421512 C16.30605366 58.72967271 12.7082377 58.73155272 9.1101532 58.75097656 C5.20502051 58.77187543 1.30031572 58.76161533 -2.6048584 58.7484436 C-3.73609906 58.75941285 -4.86733972 58.7703821 -6.0328604 58.78168374 C-15.90512279 58.70132029 -23.00060393 55.9021901 -30.25363159 49.19819641 C-36.10483454 42.63214061 -37.33753506 35.2315953 -37.26144409 26.69038391 C-36.6292031 18.98055622 -33.47130597 12.62701029 -27.98019409 7.26069641 C-19.31640682 0.57188 -10.61843674 -0.03628329 0 0 Z " fill="#000000" transform="translate(121.98019409179688,112.73930358886719)"/>
<path d="M0 0 C1.03847474 -0.00445784 2.07694947 -0.00891569 3.14689314 -0.01350862 C4.29151813 -0.01332426 5.43614312 -0.01313989 6.61545372 -0.01294994 C7.82856551 -0.01662663 9.04167729 -0.02030332 10.29155004 -0.02409142 C13.66507909 -0.03322087 17.03855948 -0.03782853 20.41209626 -0.04048073 C24.04824915 -0.04438325 27.68438795 -0.05396169 31.32053185 -0.0626936 C40.10545631 -0.08246042 48.89038193 -0.0925249 57.67532307 -0.10142139 C61.81236379 -0.10580429 65.94940324 -0.11117113 70.08644295 -0.11641026 C83.8393693 -0.13342344 97.59229485 -0.14791727 111.3452301 -0.155159 C114.91458322 -0.15706889 118.48393632 -0.15898922 122.05328941 -0.16094494 C122.94043532 -0.16142868 123.82758122 -0.16191242 124.74161033 -0.16241082 C139.11046771 -0.17070982 153.47924181 -0.19604413 167.84806283 -0.22852562 C182.60051483 -0.26160236 197.35292452 -0.27960835 212.10541379 -0.28280324 C220.38824843 -0.28496786 228.67096165 -0.29370943 236.95376015 -0.31926441 C244.00842881 -0.34097991 251.06294657 -0.34901772 258.11764486 -0.33929763 C261.71577213 -0.33475522 265.31358809 -0.33663523 268.91167259 -0.35605907 C272.81680528 -0.37695794 276.72151007 -0.36669785 280.62668419 -0.35352612 C281.75792485 -0.36449536 282.88916551 -0.37546461 284.05468619 -0.38676625 C293.92694858 -0.3064028 301.02242972 2.49272739 308.27545738 9.19672108 C314.12666033 15.76277688 315.35936085 23.16332218 315.28326988 31.70453358 C314.65102889 39.41436127 311.49313176 45.7679072 306.00201988 51.13422108 C297.33823261 57.82303749 288.64026253 58.43120077 278.02182579 58.39491749 C276.82964876 58.39874304 275.63747173 58.40256858 274.40916812 58.40651006 C271.11724298 58.41501654 267.82546121 58.41461661 264.53353238 58.41032946 C260.97651777 58.40785629 257.41952907 58.41688372 253.86252403 58.42436695 C246.90056557 58.4370996 239.9386457 58.43890943 232.97667755 58.43656669 C227.31619439 58.43478176 221.65572293 58.43653692 215.99524117 58.44079113 C215.18880683 58.44138632 214.3823725 58.44198151 213.55150076 58.44259473 C211.91308634 58.44380652 210.27467193 58.44502065 208.63625751 58.44623711 C193.27995752 58.45710713 177.9236795 58.45495271 162.56737827 58.44885226 C148.52931935 58.44368364 134.49132983 58.45493807 120.45328464 58.47395048 C106.02723821 58.49333809 91.6012246 58.50158326 77.17516506 58.49782723 C69.08075608 58.49591658 60.98640616 58.49838946 52.89200783 58.51254177 C46.00109021 58.52446831 39.11026801 58.52584621 32.21934904 58.5137516 C28.70618028 58.50787181 25.19318595 58.50673836 21.68002892 58.51875401 C17.86525179 58.52921257 14.05094168 58.5211271 10.23618126 58.50844288 C9.13460973 58.51581716 8.0330382 58.52319145 6.89808571 58.5307892 C-2.39468786 58.46590505 -10.79234002 56.98713771 -18.17376137 51.01312733 C-25.5434433 43.42251275 -27.38595515 35.69418866 -27.27141762 25.45453358 C-26.58865077 17.16379329 -22.12677853 10.59577128 -15.99798012 5.13422108 C-10.92665284 1.90870777 -6.039327 0.01201216 0 0 Z " fill="#000000" transform="translate(111.99798011779785,340.86577892303467)"/>
<path d="M0 0 C0.51426163 -0.00192057 0.51426163 -0.00192057 3.11673713 -0.01163983 C3.67835488 -0.01120659 3.67835488 -0.01120659 6.52048111 -0.00901413 C7.71896754 -0.01198525 8.91745396 -0.01495637 10.15225816 -0.01801753 C13.47566446 -0.02519 16.79901905 -0.02787624 20.12242937 -0.028615 C23.70810174 -0.03046823 27.29376296 -0.0380169 30.87942886 -0.04475021 C38.71832851 -0.05832283 46.55722303 -0.06435651 54.39613247 -0.06876087 C59.29203716 -0.07152496 64.18793988 -0.0757626 69.08384323 -0.08026505 C82.64298122 -0.09245603 96.20211763 -0.10275587 109.76126099 -0.10614014 C110.19503001 -0.10624992 110.19503001 -0.10624992 112.39016415 -0.10680549 C113.25975923 -0.10702377 114.1293543 -0.10724204 115.02530074 -0.10746694 C116.78738642 -0.1079104 118.54947209 -0.10835696 120.31155777 -0.10880661 C121.18561021 -0.10902804 122.05966265 -0.10924947 122.96020153 -0.10947761 C137.12198681 -0.11342537 151.28372063 -0.1308795 165.44548604 -0.15416613 C179.99007945 -0.17788896 194.53464704 -0.1903424 209.07926011 -0.19150805 C217.24355132 -0.19242426 225.40777547 -0.19816293 233.57204819 -0.21632767 C240.52417875 -0.23174119 247.47622151 -0.23684172 254.42836592 -0.22858956 C257.97379833 -0.22468755 261.519054 -0.22559056 265.06446457 -0.23964691 C268.91250952 -0.25476327 272.76030685 -0.24650604 276.60837173 -0.23606491 C277.16552805 -0.24009311 277.16552805 -0.24009311 279.98507667 -0.26047826 C289.97031106 -0.19714425 298.61859286 1.85599876 305.81839371 9.13142776 C312.01585855 17.65967829 313.73686672 24.64013747 312.81839371 35.13142776 C310.91945165 42.80315367 307.19120408 49.46761132 300.34964371 53.63533401 C294.72838858 56.53689365 290.11338429 58.25392394 283.75983524 58.26285553 C283.24656914 58.2647761 283.24656914 58.2647761 280.6491316 58.27449536 C280.08605742 58.27406212 280.08605742 58.27406212 277.23656082 58.27186966 C276.03892882 58.27484078 274.84129682 58.2778119 273.60737294 58.28087306 C270.28170731 58.28805335 266.95609334 58.29073238 263.63042367 58.29147053 C260.04405204 58.29332189 256.4576916 58.30086969 252.87132645 58.30760574 C245.02823549 58.32118676 237.18514964 58.32721353 229.34204888 58.3316164 C224.44397196 58.33437943 219.54589701 58.33861692 214.64782143 58.34312057 C201.08443482 58.35531335 187.52104979 58.36561238 173.95765781 58.36899567 C173.08958465 58.36921523 172.22151148 58.3694348 171.32713307 58.36966102 C170.89206148 58.36977016 170.89206148 58.36977016 168.69033557 58.37032247 C166.92711341 58.37076593 165.16389126 58.37121249 163.4006691 58.37166214 C162.52605115 58.37188357 161.65143321 58.372105 160.7503117 58.37233314 C146.58199631 58.37628018 132.41373239 58.39373131 118.24543688 58.41702166 C103.69635508 58.44074473 89.14729909 58.45319797 74.59819764 58.45436358 C66.43053808 58.45527985 58.26294556 58.46101991 50.09530449 58.4791832 C43.13948992 58.49459714 36.1837631 58.49969706 29.2279347 58.49144509 C25.680484 58.48754304 22.13320996 58.48844623 18.5857811 58.50250244 C14.73549314 58.51761881 10.88545268 58.50936155 7.03514481 58.49892044 C5.92015006 58.50697685 4.80515531 58.51503325 3.65637285 58.52333379 C-6.33085091 58.46002474 -14.98020087 56.4084782 -22.18160629 49.13142776 C-28.37907113 40.60317724 -30.1000793 33.62271806 -29.18160629 23.13142776 C-27.29028462 15.49048823 -23.52643052 9.0868294 -16.97066879 4.62752151 C-11.3217146 1.33386218 -6.56226736 0.00922895 0 0 Z " fill="#000000" transform="translate(114.18160629272461,226.86857223510742)"/>
</svg>
