<?xml version="1.0" encoding="UTF-8"?>
<!-- Generator: visioncortex VTracer 0.6.12 -->
<svg version="1.1" xmlns="http://www.w3.org/2000/svg" width="512" height="512">
<path d="M0 0 C0.77186195 -0.00205263 1.5437239 -0.00410527 2.33897561 -0.0062201 C4.94664732 -0.0119115 7.55426657 -0.01043023 10.16194344 -0.00901413 C12.04187873 -0.01159653 13.92181347 -0.01460934 15.80174744 -0.01801753 C20.98443673 -0.02610532 26.16711218 -0.02787809 31.34980702 -0.028615 C36.93272796 -0.03046244 42.51564166 -0.03800815 48.09855843 -0.04475021 C60.31320201 -0.05834614 72.52784231 -0.06436006 84.7424922 -0.06876087 C92.36440761 -0.07152086 99.98632176 -0.07575774 107.60823631 -0.08026505 C128.69738559 -0.09245878 149.78653403 -0.10279366 170.87568665 -0.10614014 C172.23969428 -0.10636177 173.60370191 -0.10658355 174.96770955 -0.10680549 C176.33503751 -0.10702613 177.70236548 -0.10724661 179.06969345 -0.10746694 C181.81285596 -0.10790949 184.55601847 -0.10835661 187.29918098 -0.10880661 C187.63925389 -0.10886131 187.63925389 -0.10886131 189.36022891 -0.1091381 C211.4220711 -0.11277005 233.48388046 -0.12869535 255.54571008 -0.15199697 C278.86242299 -0.17657905 302.17911458 -0.19030547 325.49584305 -0.19150805 C338.20958256 -0.19242615 350.92327907 -0.19821225 363.63700676 -0.21632767 C374.46060685 -0.23169523 385.28415066 -0.23686891 396.10775958 -0.22858956 C401.63336934 -0.22467133 407.15886565 -0.22566969 412.68446159 -0.23964691 C417.73879196 -0.25231554 422.79292281 -0.25125066 427.84725262 -0.2390562 C429.67967774 -0.23708694 431.51211666 -0.2402338 433.34452234 -0.24890056 C435.82823401 -0.25990785 438.31123086 -0.25256616 440.79492188 -0.24050903 C441.51251079 -0.24810423 442.2300997 -0.25569942 442.96943372 -0.26352477 C448.336007 -0.2069738 451.45510717 1.20586699 455.33580208 4.81892776 C457.09396889 8.2427263 457.29896014 11.42392454 456.52330208 15.13142776 C454.54652032 18.65328033 452.42458718 20.8309994 448.52330208 22.13142776 C446.02174924 22.22846542 443.54821512 22.26898415 441.04660416 22.26285553 C440.66067318 22.26388185 440.66067318 22.26388185 438.70762855 22.26907563 C436.09995684 22.27476703 433.49233758 22.27328576 430.88466072 22.27186966 C429.00472543 22.27445206 427.12479069 22.27746487 425.24485672 22.28087306 C420.06216743 22.28896085 414.87949198 22.29073362 409.69679713 22.29147053 C404.1138762 22.29331797 398.5309625 22.30086368 392.94804573 22.30760574 C380.73340215 22.32120167 368.51876185 22.32721559 356.30411196 22.3316164 C348.68219654 22.33437639 341.0602824 22.33861327 333.43836784 22.34312057 C312.34921856 22.35531431 291.26007012 22.36564919 270.17091751 22.36899567 C268.80690988 22.3692173 267.44290224 22.36943908 266.07889461 22.36966102 C264.71156664 22.36988166 263.34423868 22.37010214 261.97691071 22.37032247 C259.2337482 22.37076502 256.49058568 22.37121214 253.74742317 22.37166214 C253.40735027 22.37171684 253.40735027 22.37171684 251.68637525 22.37199363 C229.62453306 22.37562558 207.5627237 22.39155088 185.50089408 22.4148525 C162.18418117 22.43943458 138.86748958 22.453161 115.5507611 22.45436358 C102.8370216 22.45528168 90.12332509 22.46106778 77.4095974 22.4791832 C66.58599731 22.49455076 55.7624535 22.49972444 44.93884458 22.49144509 C39.41323482 22.48752686 33.88773851 22.48852522 28.36214256 22.50250244 C23.30781219 22.51517107 18.25368135 22.51410619 13.19935153 22.50191173 C11.36692641 22.49994247 9.5344875 22.50308933 7.70208181 22.51175609 C5.21837015 22.52276338 2.73537329 22.51542169 0.25168228 22.50336456 C-0.46590663 22.51095976 -1.18349554 22.51855495 -1.92282957 22.5263803 C-7.28940284 22.46982933 -10.40850301 21.05698854 -14.28919792 17.44392776 C-16.04736474 14.02012923 -16.25235599 10.83893099 -15.47669792 7.13142776 C-11.72863339 0.45384153 -7.07861127 -0.01734168 0 0 Z " fill="#000000" transform="translate(35.47669792175293,244.86857223510742)"/>
<path d="M0 0 C0.38819627 -0.00160324 0.38819627 -0.00160324 2.35270467 -0.0097166 C4.96982497 -0.01805736 7.58671883 -0.01207813 10.20384312 -0.00622082 C12.09289198 -0.00923964 13.98193962 -0.01312776 15.87098509 -0.01781338 C21.07423636 -0.02813678 26.27741905 -0.02590056 31.48067605 -0.02163279 C37.0874417 -0.01917343 42.6941905 -0.02816986 48.30095005 -0.03567028 C59.28973255 -0.0484412 70.27849065 -0.05020801 81.26727932 -0.04787002 C90.19592065 -0.04608942 99.12455456 -0.04783093 108.053195 -0.05209446 C108.68775994 -0.05239205 108.68775994 -0.05239205 111.8990431 -0.05389806 C114.47699431 -0.05510977 117.05494552 -0.0563239 119.63289673 -0.05754044 C136.95054504 -0.06533154 154.26818896 -0.06924404 171.58583832 -0.06522369 C171.92456824 -0.06514551 171.92456824 -0.06514551 173.63874693 -0.06474983 C177.07252339 -0.06394402 180.50629984 -0.06309825 183.94007628 -0.06223653 C184.28106679 -0.06215098 184.28106679 -0.06215098 186.00668544 -0.06171808 C187.38581709 -0.06137142 188.76494875 -0.06102289 190.1440804 -0.06067249 C211.6070158 -0.05531437 233.06991013 -0.06324735 254.53283787 -0.08170605 C278.63662019 -0.10241158 302.74037073 -0.11312046 326.84416491 -0.10913056 C339.61042385 -0.107215 352.37664537 -0.10974057 365.14289761 -0.1238451 C376.01039489 -0.13572997 386.87783172 -0.13719639 397.74532979 -0.12505493 C403.29322134 -0.11914595 408.84100213 -0.11812235 414.38888645 -0.13005733 C419.4635362 -0.14084769 424.53798181 -0.137895 429.61262173 -0.12379565 C431.45241733 -0.12112973 433.29222858 -0.12357409 435.1320089 -0.13153151 C437.62565461 -0.14157184 440.11858165 -0.13327238 442.61219788 -0.12025452 C443.33270963 -0.12756386 444.05322138 -0.13487321 444.79556683 -0.14240405 C449.15839898 -0.09493347 451.87630279 0.61974017 455.36901951 3.25447559 C457.7101496 6.2645 457.78118558 9.53189102 457.69714451 13.28572559 C457.17849184 16.39764163 455.58347176 18.10515429 453.36901951 20.25447559 C450.3578081 21.7600813 447.25560222 21.39539688 443.95289993 21.38869667 C443.56416913 21.38987279 443.56416913 21.38987279 441.59695569 21.39582464 C438.96421578 21.40253757 436.33152497 21.40205573 433.6987772 21.40164661 C431.80320561 21.40494381 429.90763473 21.40866906 428.01206475 21.41278809 C422.78151151 21.42283255 417.55096975 21.4265288 412.32040823 21.4291774 C406.68770664 21.43307318 401.05501422 21.44265195 395.42231846 21.45139027 C381.80936713 21.47117443 368.19641503 21.48122299 354.58345291 21.49011806 C348.17904627 21.49449743 341.77464047 21.49986512 335.37023449 21.50510693 C314.09154473 21.52212054 292.81285592 21.53664109 271.53416061 21.54385567 C270.1576221 21.54433043 268.7810836 21.54480632 267.40454509 21.54528333 C266.7218928 21.5455197 266.03924052 21.54575608 265.3359018 21.54599962 C261.87713309 21.54720084 258.41836438 21.54841628 254.95959568 21.54964161 C254.27318761 21.54988176 253.58677954 21.55012191 252.87957122 21.55036934 C230.61702838 21.55826492 208.35453878 21.58170176 186.09201919 21.61419755 C162.56576838 21.64847541 139.03956021 21.66820373 115.51328069 21.67149991 C102.68437457 21.67366872 89.85554668 21.68247163 77.02666378 21.70796108 C66.10421513 21.72961208 55.18186371 21.73774616 44.25939604 21.7279943 C38.68312796 21.72343342 33.10706074 21.72543928 27.53081989 21.74475574 C22.43014042 21.76227284 17.32981004 21.76148351 12.22912744 21.74585845 C10.37984654 21.74346487 8.53054218 21.74789565 6.68129732 21.7596871 C4.17465611 21.77468554 1.66927124 21.76521818 -0.83733749 21.74946022 C-1.56162963 21.75968243 -2.28592177 21.76990463 -3.03216216 21.78043661 C-7.82769176 21.71427208 -10.26285826 20.65289076 -13.63098049 17.25447559 C-15.2278709 14.06069478 -15.00447006 10.72926244 -14.63098049 7.25447559 C-13.41733381 4.46308823 -12.50956649 2.85560047 -9.99854177 1.13756782 C-6.68135893 -0.09972999 -3.49173723 -0.0212372 0 0 Z " fill="#000000" transform="translate(34.630980491638184,398.7455244064331)"/>
<path d="M0 0 C0.7774616 -0.00235223 1.5549232 -0.00470446 2.35594425 -0.00712797 C4.98868415 -0.0138409 7.62137497 -0.01335906 10.25412273 -0.01294994 C12.14969432 -0.01624714 14.0452652 -0.01997239 15.94083518 -0.02409142 C21.17138842 -0.03413588 26.40193018 -0.03783213 31.63249171 -0.04048073 C37.26519329 -0.04437651 42.89788572 -0.05395528 48.53058147 -0.0626936 C62.14353281 -0.08247776 75.7564849 -0.09252632 89.36944702 -0.10142139 C95.77385366 -0.10580076 102.17825946 -0.11116845 108.58266544 -0.11641026 C129.86135521 -0.13342387 151.14004401 -0.14794442 172.41873932 -0.155159 C173.79527783 -0.15563376 175.17181634 -0.15610965 176.54835485 -0.15658666 C177.23100713 -0.15682303 177.91365942 -0.15705941 178.61699813 -0.15730295 C182.07576685 -0.15850417 185.53453555 -0.15971961 188.99330425 -0.16094494 C189.33650829 -0.16106501 189.33650829 -0.16106501 191.07332871 -0.16167267 C213.33587155 -0.16956825 235.59836115 -0.19300509 257.86088074 -0.22550088 C281.38713156 -0.25977874 304.91333972 -0.27950705 328.43961924 -0.28280324 C341.26852537 -0.28497205 354.09735325 -0.29377496 366.92623615 -0.31926441 C377.8486848 -0.3409154 388.77103622 -0.34904949 399.69350389 -0.33929763 C405.26977197 -0.33473675 410.84583919 -0.33674261 416.42208004 -0.35605907 C421.52275951 -0.37357617 426.6230899 -0.37278684 431.72377249 -0.35716178 C433.57305339 -0.3547682 435.42235775 -0.35919898 437.27160261 -0.37099043 C439.77824382 -0.38598887 442.28362869 -0.37652151 444.79023743 -0.36076355 C445.51452957 -0.37098576 446.23882171 -0.38120796 446.98506209 -0.39173993 C451.78059169 -0.32557541 454.21575819 0.73580592 457.58388042 4.13422108 C459.18077083 7.32800189 458.95736999 10.65943423 458.58388042 14.13422108 C457.37023374 16.92560844 456.46246642 18.5330962 453.95144171 20.25112885 C450.63425887 21.48842666 447.44463716 21.40993387 443.95289993 21.38869667 C443.56470366 21.39029991 443.56470366 21.39029991 441.60019526 21.39841327 C438.98307497 21.40675403 436.3661811 21.4007748 433.74905682 21.39491749 C431.86000795 21.39793631 429.97096031 21.40182443 428.08191484 21.40651006 C422.87866358 21.41683345 417.67548088 21.41459723 412.47222388 21.41032946 C406.86545823 21.4078701 401.25870943 21.41686653 395.65194988 21.42436695 C384.66316738 21.43713787 373.67440929 21.43890468 362.68562061 21.43656669 C353.75697928 21.43478609 344.82834538 21.4365276 335.89970493 21.44079113 C335.26514 21.44108872 335.26514 21.44108872 332.05385683 21.44259473 C329.47590562 21.44380644 326.89795441 21.44502057 324.3200032 21.44623711 C307.00235489 21.45402821 289.68471097 21.45794071 272.36706161 21.45392036 C272.02833169 21.45384218 272.02833169 21.45384218 270.314153 21.4534465 C266.88037654 21.45264069 263.44660009 21.45179492 260.01282365 21.4509332 C259.33084263 21.45076211 258.64886161 21.45059102 257.94621449 21.45041475 C256.56708284 21.45006809 255.18795119 21.44971956 253.80881954 21.44936916 C232.34588413 21.44401105 210.88298981 21.45194402 189.42006207 21.47040272 C165.31627974 21.49110825 141.21252921 21.50181713 117.10873502 21.49782723 C104.34247608 21.49591167 91.57625457 21.49843724 78.81000233 21.51254177 C67.94250504 21.52442664 57.07506822 21.52589306 46.20757014 21.5137516 C40.6596786 21.50784262 35.1118978 21.50681902 29.56401348 21.51875401 C24.48936373 21.52954436 19.41491812 21.52659167 14.3402782 21.51249232 C12.5004826 21.5098264 10.66067135 21.51227076 8.82089103 21.52022818 C6.32724532 21.53026851 3.83431829 21.52196905 1.34070206 21.50895119 C0.6201903 21.51626053 -0.10032145 21.52356988 -0.84266689 21.53110072 C-5.20549905 21.48363014 -7.92340286 20.7689565 -11.41611958 18.13422108 C-13.75724967 15.12419667 -13.82828565 11.85680565 -13.74424458 8.10297108 C-13.2255919 4.99105504 -11.63057183 3.28354238 -9.41611958 1.13422108 C-6.40490817 -0.37138463 -3.30270229 -0.00670021 0 0 Z " fill="#000000" transform="translate(33.41611957550049,91.86577892303467)"/>
</svg>
