<?xml version="1.0" encoding="UTF-8"?>
<!-- Generator: visioncortex VTracer 0.6.12 -->
<svg version="1.1" xmlns="http://www.w3.org/2000/svg" width="512" height="512">
<path d="M0 0 C168.96 0 337.92 0 512 0 C512 17.16 512 34.32 512 52 C343.04 52 174.08 52 0 52 C0 34.84 0 17.68 0 0 Z " fill="#000000" transform="translate(0,384)"/>
<path d="M0 0 C168.96 0 337.92 0 512 0 C512 17.16 512 34.32 512 52 C343.04 52 174.08 52 0 52 C0 34.84 0 17.68 0 0 Z " fill="#000000" transform="translate(0,230)"/>
<path d="M0 0 C168.96 0 337.92 0 512 0 C512 17.16 512 34.32 512 52 C343.04 52 174.08 52 0 52 C0 34.84 0 17.68 0 0 Z " fill="#000000" transform="translate(0,76)"/>
</svg>
