<?xml version="1.0" encoding="UTF-8"?>
<!-- Generator: visioncortex VTracer 0.6.12 -->
<svg version="1.1" xmlns="http://www.w3.org/2000/svg" width="512" height="512">
<path d="M0 0 C4.53232636 3.44320189 8.78330584 7.18147069 13 11 C13.56380371 11.50354004 14.12760742 12.00708008 14.70849609 12.52587891 C21.22549218 18.35187232 27.39427089 24.27981182 33 31 C35.30469418 33.67344525 37.62201991 36.33589637 39.9375 39 C41.09274118 40.33307925 42.24771165 41.66639317 43.40234375 43 C44.25957031 43.99 45.11679687 44.98 46 46 C46.58265625 45.22398437 47.1653125 44.44796875 47.765625 43.6484375 C69.65468269 14.7108222 95.10966438 -12.50414829 131.9140625 -20.64453125 C160.22122155 -23.90522932 186.49904698 -15.99703654 208.96484375 1.49609375 C236.82213895 24.47746598 255.76222662 55.19842593 268 89 C268.27005859 89.72541992 268.54011719 90.45083984 268.81835938 91.19824219 C287.62053323 142.01053672 295.10521098 209.18111653 272.15917969 259.85693359 C263.08983617 278.74708052 248.6539678 293.45247707 228.875 300.875 C219.15258792 304.27427855 209.49938614 305.36984271 199.25 305.3125 C198.20158936 305.30758545 197.15317871 305.3026709 196.07299805 305.29760742 C169.28516645 304.89538773 148.5657148 293.06559691 130.22241211 274.25195312 C103.14776442 245.61729593 84.08827779 209.6984863 64.12670898 175.99267578 C58.59228036 166.65243213 53.00624909 157.34468567 47.375 148.0625 C47.18989868 147.75687134 47.18989868 147.75687134 46.25317383 146.21020508 C45.21993755 144.50500557 44.18425446 142.80128937 43.1484375 141.09765625 C42.56239746 140.13351807 41.97635742 139.16937988 41.37255859 138.17602539 C40 136 40 136 39 135 C38.80946045 135.34611328 38.80946045 135.34611328 37.84521484 137.09765625 C30.42412886 150.56070796 22.9232552 163.96084858 15.13232422 177.21459961 C11.17550882 183.95433431 7.31835653 190.74355114 3.5 197.5625 C-6.47247103 215.29100003 -16.87761941 232.64858123 -29 249 C-29.42732422 249.5789502 -29.85464844 250.15790039 -30.29492188 250.75439453 C-48.40389024 275.15630004 -69.79020728 299.92546427 -101.52294922 304.72314453 C-127.1147634 307.58349514 -151.4464231 303.08203139 -172.171875 287.3515625 C-193.58627076 269.67223577 -203.29411397 240.48059781 -206.3125 213.75 C-211.37351202 160.26468689 -199.34193759 104.23219414 -174 57 C-173.68208496 56.4028418 -173.36416992 55.80568359 -173.03662109 55.19042969 C-154.91260089 21.44352247 -127.58488145 -5.88345674 -90.79296875 -17.9921875 C-58.94605923 -26.45408519 -26.44187427 -19.05708127 0 0 Z M103 41 C102.18789063 41.67933594 101.37578125 42.35867187 100.5390625 43.05859375 C94.25327004 48.48371617 89.01557347 54.4044023 84 61 C83.44747559 61.71526855 82.89495117 62.43053711 82.32568359 63.16748047 C80.48961841 65.55609502 78.67948884 67.96246369 76.875 70.375 C76.28162842 71.14835693 75.68825684 71.92171387 75.0769043 72.71850586 C74.53332275 73.4585083 73.98974121 74.19851074 73.4296875 74.9609375 C72.93710449 75.61884277 72.44452148 76.27674805 71.93701172 76.95458984 C70.66933832 79.72180396 71.08156653 81.13544251 72 84 C73.03710938 85.95922852 73.03710938 85.95922852 74.34375 87.87890625 C74.83907227 88.62011719 75.33439453 89.36132812 75.84472656 90.125 C76.3909668 90.929375 76.93720703 91.73375 77.5 92.5625 C82.94566388 100.76001085 88.16465043 109.07558302 93.25 117.5 C93.60593231 118.08893036 93.96186462 118.67786072 94.32858276 119.28463745 C96.15639941 122.30934691 97.98203594 125.33536245 99.80615234 128.36230469 C105.1453879 137.21983418 110.51747846 146.05755023 115.89482117 154.89198303 C118.22184692 158.71609213 120.53789338 162.54670647 122.8515625 166.37890625 C130.42748446 178.87139566 138.29210436 191.14392927 146.375 203.3125 C146.8316806 204.00274261 147.28836121 204.69298523 147.75888062 205.40414429 C175.45011923 247.18924351 175.45011923 247.18924351 194 251 C202.85427275 252.20133349 212.16386933 250.15523695 219.65234375 245.26953125 C231.695736 235.23003122 235.31011449 219.9993952 237 205 C237.28598957 200.12091644 237.33398055 195.26166875 237.3125 190.375 C237.31067719 189.70902802 237.30885437 189.04305603 237.30697632 188.35690308 C237.14259873 152.24362832 230.13467569 115.86881858 215 83 C214.67773438 82.28972656 214.35546875 81.57945312 214.0234375 80.84765625 C203.93518809 58.82574594 188.80483579 38.62795791 165.875 28.99609375 C142.99159854 21.06774134 121.32909218 25.22920867 103 41 Z M-112.0625 59.875 C-133.63870613 87.43019759 -144.46080283 121.87546424 -150 156 C-150.05663818 156.34683838 -150.05663818 156.34683838 -150.34326172 158.10205078 C-154.30484815 183.27971619 -157.48904132 216.00055332 -142 238 C-136.5692937 244.78551252 -130.78011369 248.22150348 -122.5625 250.75 C-109.5444617 252.02005252 -99.71753257 249.73089587 -89 242 C-81.71211011 235.94795064 -75.60752988 228.75967255 -69.890625 221.2421875 C-69.61185768 220.87625488 -69.61185768 220.87625488 -68.2011261 219.02441406 C-61.84226246 210.5867953 -56.00133083 201.81766875 -50.1875 193 C-49.04339696 191.27374982 -47.89902503 189.54767783 -46.75439453 187.82177734 C-38.02488396 174.63872893 -29.45771127 161.35903168 -21 148 C-18.37998336 143.87181135 -15.75408981 139.74741539 -13.125 135.625 C-12.48167725 134.61300537 -11.83835449 133.60101074 -11.17553711 132.55834961 C-7.51919652 126.83512643 -3.78406676 121.17616943 0.04296875 115.56640625 C0.88757127 114.3227802 1.7321354 113.07912808 2.57666016 111.83544922 C4.2041358 109.44024985 5.84799675 107.05748185 7.50146484 104.68017578 C8.23445801 103.60364746 8.96745117 102.52711914 9.72265625 101.41796875 C10.38015869 100.46688232 11.03766113 99.5157959 11.71508789 98.53588867 C13 96 13 96 12.79614258 93.80541992 C10.71077426 89.07641082 7.12259384 85.08516154 4 81 C3.55736816 80.41766602 3.11473633 79.83533203 2.65869141 79.23535156 C-6.78295071 66.85667842 -6.78295071 66.85667842 -12.484375 61.48828125 C-14.00457161 59.99551087 -15.25589361 58.43048473 -16.5625 56.75 C-27.94884416 43.2989321 -44.36877238 34.44704449 -61.84375 32.71875 C-82.61458975 32.00251415 -99.43790199 44.46103006 -112.0625 59.875 Z " fill="#0078F3" transform="translate(217,122)"/>
<path d="M0 0 C0.66 0 1.32 0 2 0 C3.22998047 1.44262695 3.22998047 1.44262695 4.6171875 3.48828125 C5.13659912 4.24866699 5.65601074 5.00905273 6.19116211 5.79248047 C6.74682861 6.62408691 7.30249512 7.45569336 7.875 8.3125 C8.44420166 9.1595752 9.01340332 10.00665039 9.59985352 10.87939453 C10.79711866 12.66926879 11.99012761 14.46199628 13.17919922 16.25732422 C14.38368025 18.07163635 15.59614325 19.88067709 16.81689453 21.68408203 C18.54294526 24.23553239 20.24326829 26.80234324 21.9375 29.375 C22.47552246 30.16430908 23.01354492 30.95361816 23.56787109 31.7668457 C24.89748356 33.82265166 26.09548229 35.72487608 27 38 C26.31640625 41.0390625 26.31640625 41.0390625 25 43 C24.01 43 23.02 43 22 43 C20.23630301 40.42819794 18.66933396 37.88814152 17.125 35.1875 C12.45789015 27.2309598 7.41585197 19.64724749 1.97705078 12.19604492 C1.44321777 11.44299072 0.90938477 10.68993652 0.359375 9.9140625 C-0.12047852 9.2535791 -0.60033203 8.5930957 -1.09472656 7.91259766 C-2 6 -2 6 -1.70996094 3.88037109 C-1 2 -1 2 0 0 Z " fill="#0072E0" transform="translate(230,216)"/>
<path d="M0 0 C4.64353826 4.3181388 8.27378628 9.19691813 12 14.3125 C12.60328125 15.12912109 13.2065625 15.94574219 13.828125 16.78710938 C16.62883733 20.6076463 19.37564397 24.46073451 21.98046875 28.41796875 C22.38934326 29.03824951 22.79821777 29.65853027 23.21948242 30.29760742 C24 32 24 32 23.3125 35 C22.879375 35.66 22.44625 36.32 22 37 C17.77704965 35.59234988 16.39901399 32.51074712 14.0625 28.9375 C9.97471359 22.82779023 5.7455459 16.86443262 1.3125 11 C1.04796021 10.64997925 1.04796021 10.64997925 -0.29077148 8.87866211 C-1.52456906 7.25045887 -2.76186971 5.62491096 -4 4 C-2.68 2.68 -1.36 1.36 0 0 Z " fill="#0072E0" transform="translate(266,166)"/>
</svg>
