<?xml version="1.0" encoding="UTF-8"?>
<!-- Generator: visioncortex VTracer 0.6.12 -->
<svg version="1.1" xmlns="http://www.w3.org/2000/svg" width="512" height="512">
<path d="M0 0 C0.40658844 -0.00489693 0.40658844 -0.00489693 2.46417236 -0.02967834 C20.45239728 -0.20158465 37.82991384 -0.048381 55.41015625 4.23828125 C56.29574219 4.44727051 57.18132812 4.65625977 58.09375 4.87158203 C106.96449824 16.70802051 149.27211206 48.15770896 175.91723633 90.57495117 C203.28548582 135.58318838 210.94873533 188.43288066 198.875 239.546875 C190.70309601 272.25104444 173.97751322 301.51680611 150.77490234 325.80615234 C149.46067158 327.18527178 148.16354964 328.58063338 146.8671875 329.9765625 C135.68475008 341.66652356 122.46872792 351.28927577 108.41015625 359.23828125 C107.79269531 359.59341797 107.17523438 359.94855469 106.5390625 360.31445312 C89.27812676 370.17540354 70.81456582 376.9911231 51.41015625 381.23828125 C50.7032666 381.40199219 49.99637695 381.56570313 49.26806641 381.734375 C25.41447601 387.05348938 -3.81115549 386.74526718 -27.58984375 381.23828125 C-28.34958496 381.07199219 -29.10932617 380.90570313 -29.89208984 380.734375 C-77.57102087 370.10625415 -116.19121213 342.48661916 -145.58984375 304.23828125 C-145.98861221 303.55465012 -146.38738068 302.87101898 -146.79823303 302.16667175 C-148.58984375 300.23828125 -148.58984375 300.23828125 -151.25053406 299.75294495 C-152.32116592 299.75914352 -153.39179779 299.7653421 -154.49487305 299.77172852 C-155.71011154 299.76814835 -156.92535004 299.76456818 -158.17741394 299.76087952 C-158.83521095 299.76810783 -158.83521095 299.76810783 -162.1640625 299.8046875 C-163.53067133 299.80240021 -164.89727807 299.79763794 -166.26387024 299.79051208 C-171.33421863 299.76885457 -176.40424016 299.78609609 -181.47454834 299.81201172 C-185.75414008 299.833507 -190.03278002 299.83521855 -194.31235695 299.80909538 C-196.31080457 299.8047756 -198.30924784 299.82940218 -200.30754089 299.85462952 C-207.62219396 299.81462571 -213.05942273 299.34275722 -218.58984375 294.23828125 C-223.19643795 288.45050905 -223.73921126 284.0243384 -223.73028564 276.82574463 C-223.73325677 276.07659782 -223.73622789 275.32745101 -223.73928905 274.55560279 C-223.74796455 272.04389315 -223.74948332 269.53223124 -223.75097656 267.02050781 C-223.75560556 265.22011208 -223.76063034 263.41971734 -223.76602173 261.61932373 C-223.77914017 256.72661787 -223.78558965 251.83392573 -223.79003239 246.94120502 C-223.79296412 243.88373187 -223.79706913 240.82626247 -223.80153656 237.7687912 C-223.81521028 228.20065588 -223.82487745 218.63252912 -223.82873845 209.0643847 C-223.83321846 198.0231919 -223.85076426 186.98212294 -223.87973905 175.9409678 C-223.90136347 167.40409983 -223.91144315 158.86726668 -223.91277957 150.33037162 C-223.91382709 145.23283613 -223.91972359 140.13541709 -223.93759918 135.03791046 C-223.95409287 130.24115673 -223.95622903 125.44460679 -223.94746017 120.64783478 C-223.94669049 118.89027358 -223.95102351 117.13270136 -223.96091843 115.37516785 C-223.97366497 112.969455 -223.96774682 110.56446104 -223.95733643 108.15875244 C-223.96539283 107.46884917 -223.97344923 106.77894589 -223.98174977 106.06813645 C-223.92707058 100.6382035 -222.94602257 94.85691722 -219.20871091 90.70330262 C-214.37672574 86.54299677 -210.93625965 84.9714105 -204.60302734 85.12573242 C-203.39431976 85.14782272 -202.18561218 85.16991302 -200.9402771 85.19267273 C-199.63611847 85.22190323 -198.33195984 85.25113373 -196.98828125 85.28125 C-194.22140888 85.31036391 -191.45447249 85.32519052 -188.6875 85.34179688 C-184.32823163 85.37132718 -179.9716462 85.41897409 -175.61376953 85.53637695 C-150.01071004 86.19432699 -150.01071004 86.19432699 -144.56420898 81.45092773 C-141.90028715 78.37507214 -140.29949414 74.91956424 -138.58984375 71.23828125 C-136.17700195 68.31054687 -136.17700195 68.31054687 -133.90234375 65.92578125 C-131.21539859 63.01256703 -128.58825077 60.07520085 -126.02734375 57.05078125 C-122.51218253 53.04142503 -118.69800664 49.62914586 -114.58984375 46.23828125 C-114.08485352 45.8103125 -113.57986328 45.38234375 -113.05957031 44.94140625 C-85.21837408 21.38720421 -51.6031815 6.67914523 -15.58984375 1.23828125 C-14.52056641 1.06393555 -13.45128906 0.88958984 -12.34960938 0.70996094 C-8.20755315 0.19032116 -4.16917848 0.04142753 0 0 Z " fill="#DC4B2B" transform="translate(265.58984375,63.76171875)"/>
<path d="M0 0 C0 63.36 0 126.72 0 192 C-6.93 192 -13.86 192 -21 192 C-20.97905273 194.77535156 -20.95810547 197.55070313 -20.93652344 200.41015625 C-20.87015513 209.59423688 -20.82602529 218.77832828 -20.79275131 227.96258545 C-20.77190347 233.52938555 -20.74363672 239.09593931 -20.69824219 244.66259766 C-20.65468494 250.03777478 -20.63084181 255.41271539 -20.62049103 260.78805542 C-20.61311742 262.83572104 -20.59871848 264.88337416 -20.57707977 266.93093872 C-20.54791472 269.80580309 -20.5440495 272.67969827 -20.54589844 275.5546875 C-20.53870789 275.97511574 -20.53870789 275.97511574 -20.50231934 278.10273743 C-20.54219521 283.85724277 -21.79552682 288.18083852 -25 293 C-30.32152865 298.1850792 -35.39781401 299.298896 -42.64668274 299.27415466 C-43.40893463 299.27939134 -44.17118652 299.28462802 -44.95653695 299.29002339 C-47.50664112 299.30500595 -50.05654432 299.30572815 -52.60668945 299.30639648 C-54.43679136 299.31401914 -56.26689007 299.32244682 -58.09698486 299.33161926 C-63.06608191 299.35356055 -68.03511742 299.36236267 -73.00425744 299.36744571 C-76.10981682 299.37108968 -79.21536008 299.37732996 -82.32091331 299.3844471 C-93.15820397 299.40894022 -103.99544676 299.42199322 -114.83276367 299.42553711 C-124.92970291 299.42917236 -135.02633817 299.45906741 -145.1231845 299.50094169 C-153.79596062 299.53564723 -162.46863601 299.5510856 -171.1414811 299.55178314 C-176.319564 299.55257586 -181.49733722 299.56131219 -186.67534828 299.58978081 C-191.54692005 299.61596587 -196.41792547 299.61816413 -201.28953552 299.60212517 C-203.07451806 299.60031104 -204.85953319 299.60699817 -206.64444542 299.62294388 C-222.92207142 299.75946253 -222.92207142 299.75946253 -228.64459515 295.37175083 C-234.4120044 289.53478749 -235.15015501 284.42118645 -235.14044189 276.58746338 C-235.14341302 275.83831657 -235.14638414 275.08916976 -235.1494453 274.31732154 C-235.1581208 271.8056119 -235.15963957 269.29394999 -235.16113281 266.78222656 C-235.16576181 264.98183083 -235.17078659 263.18143609 -235.17617798 261.38104248 C-235.18929642 256.48833662 -235.1957459 251.59564448 -235.20018864 246.70292377 C-235.20312037 243.64545062 -235.20722538 240.58798122 -235.21169281 237.53050995 C-235.22536653 227.96237463 -235.2350337 218.39424787 -235.2388947 208.82610345 C-235.24337471 197.78491065 -235.26092051 186.74384169 -235.2898953 175.70268655 C-235.31151972 167.16581858 -235.3215994 158.62898543 -235.32293582 150.09209037 C-235.32398334 144.99455488 -235.32987984 139.89713584 -235.34775543 134.79962921 C-235.36424912 130.00287548 -235.36638528 125.20632554 -235.35761642 120.40955353 C-235.35684674 118.65199233 -235.36117976 116.89442011 -235.37107468 115.1368866 C-235.38382122 112.73117375 -235.37790307 110.32617979 -235.36749268 107.92047119 C-235.37554908 107.23056792 -235.38360548 106.54066464 -235.39190602 105.8298552 C-235.33722683 100.39992225 -234.35617882 94.61863597 -230.61886716 90.46502137 C-225.78688199 86.30471552 -222.3464159 84.73312925 -216.01318359 84.88745117 C-214.80447601 84.90954147 -213.59576843 84.93163177 -212.35043335 84.95439148 C-211.04627472 84.98362198 -209.74211609 85.01285248 -208.3984375 85.04296875 C-205.63156513 85.07208266 -202.86462874 85.08690927 -200.09765625 85.10351562 C-195.73838788 85.13304593 -191.38180245 85.18069284 -187.02392578 85.2980957 C-161.42086629 85.95604574 -161.42086629 85.95604574 -155.97436523 81.21264648 C-153.3104434 78.13679089 -151.70965039 74.68128299 -150 71 C-147.5871582 68.07226562 -147.5871582 68.07226562 -145.3125 65.6875 C-142.62555484 62.77428578 -139.99840702 59.8369196 -137.4375 56.8125 C-133.92233878 52.80314378 -130.10816289 49.39086461 -126 46 C-125.49500977 45.57203125 -124.99001953 45.1440625 -124.46972656 44.703125 C-89.12827585 14.80355949 -46.0442292 0 0 0 Z " fill="#9B341F" transform="translate(277,64)"/>
<path d="M0 0 C23.27317146 0 23.27317146 0 31.9375 1.625 C32.4365686 1.71446899 32.4365686 1.71446899 34.9621582 2.16723633 C84.49034114 11.46136547 129.56110889 39.57672908 158.45556641 81.09130859 C181.06058163 114.2379797 193 151.88352619 193 192 C129.31 192 65.62 192 0 192 C0 128.64 0 65.28 0 0 Z " fill="#F6A177" transform="translate(277,64)"/>
<path d="M0 0 C0 63.36 0 126.72 0 192 C-6.93 192 -13.86 192 -21 192 C-21.00410889 189.19435547 -21.00821777 186.38871094 -21.01245117 183.49804688 C-21.02967128 174.21397113 -21.07421091 164.93016995 -21.13209057 155.64626312 C-21.1663381 150.01900432 -21.19146713 144.39201638 -21.19555664 138.76464844 C-21.19984429 133.33087398 -21.22834646 127.89771031 -21.27343178 122.46412659 C-21.28639174 120.39420635 -21.2907198 118.32421297 -21.28615379 116.2542572 C-21.28123724 113.34787566 -21.30738748 110.44327198 -21.34057617 107.53710938 C-21.33195053 106.68690216 -21.32332489 105.83669495 -21.31443787 104.96072388 C-21.42998981 98.8992707 -22.84335787 94.51728295 -27 90 C-32.99728269 85.1122123 -39.98638011 85.42146635 -47.3828125 85.45410156 C-48.60317703 85.44376389 -49.82354156 85.43342621 -51.08088684 85.42277527 C-54.40495735 85.39844449 -57.72818808 85.39150727 -61.05228806 85.39249516 C-64.53437279 85.38935336 -68.01629252 85.363709 -71.49829102 85.34051514 C-78.0818508 85.30004805 -84.66531177 85.27963641 -91.24897671 85.26654124 C-98.74850326 85.25063956 -106.2478624 85.21221074 -113.74729156 85.17194796 C-129.1648112 85.08967634 -144.58229741 85.03550486 -160 85 C-159.04629611 83.55890317 -158.09119149 82.11873326 -157.13549805 80.67895508 C-156.60377487 79.87686111 -156.0720517 79.07476715 -155.5242157 78.24836731 C-147.50088899 66.41317527 -137.08488995 55.03213255 -126 46 C-124.93475988 45.09911907 -123.86966945 44.19806112 -122.8046875 43.296875 C-87.91418073 14.16601059 -45.12627986 0 0 0 Z " fill="#C06245" transform="translate(277,64)"/>
<path d="M0 0 C4.49625 -0.0515625 4.49625 -0.0515625 27.25 -0.3125 C30.0643457 -0.35802002 32.87869141 -0.40354004 35.77832031 -0.45043945 C38.04490981 -0.4650621 40.31151258 -0.47779854 42.578125 -0.48828125 C43.72587402 -0.51386108 44.87362305 -0.53944092 46.05615234 -0.5657959 C56.48395772 -0.57134496 65.04378535 2.11196793 73 9 C79.7635323 17.29078153 82.64041229 24.99920285 82.34375 35.69140625 C81.27679762 45.96082291 76.47441661 54.52637518 68.5 61.04296875 C60.21854395 67.01991247 53.32240428 69.14301949 43.0703125 69.09765625 C41.90773926 69.09515869 40.74516602 69.09266113 39.54736328 69.09008789 C38.0879834 69.08098389 36.62860352 69.07187988 35.125 69.0625 C30.46375 69.041875 25.8025 69.02125 21 69 C21 81.21 21 93.42 21 106 C14.07 106 7.14 106 0 106 C0 71.02 0 36.04 0 0 Z " fill="#FEFDFD" transform="translate(107,203)"/>
<path d="M0 0 C1.8975 -0.04125 1.8975 -0.04125 11.5 -0.25 C12.68013672 -0.28641602 13.86027344 -0.32283203 15.07617188 -0.36035156 C22.30777417 -0.4360368 28.21172245 0.29333812 33.55249023 5.51904297 C37.84115023 10.49186254 38.35284749 13.70442959 38.27734375 20.10546875 C37.86766152 24.38116642 36.6223363 27.59978412 34 31 C29.0809842 34.91513503 25.43565577 36.129115 19.23828125 36.09765625 C18.73445923 36.09640747 18.73445923 36.09640747 16.18481445 36.09008789 C15.54588257 36.08553589 15.54588257 36.08553589 12.3125 36.0625 C10.2809375 36.0521875 10.2809375 36.0521875 0 36 C0 24.12 0 12.24 0 0 Z " fill="#9D3824" transform="translate(128,219)"/>
</svg>
