<?xml version="1.0" encoding="UTF-8"?>
<!-- Generator: visioncortex VTracer 0.6.12 -->
<svg version="1.1" xmlns="http://www.w3.org/2000/svg" width="512" height="512">
<path d="M0 0 C0 141.24 0 282.48 0 428 C-42.5664162 421.09733791 -42.5664162 421.09733791 -60.1706543 418.0300293 C-62.21222099 417.67592565 -64.25381756 417.32199419 -66.29544067 416.96821594 C-71.69231193 416.03246682 -77.08873628 415.09416683 -82.4850347 414.15512061 C-87.01979663 413.36622979 -91.55477938 412.57861224 -96.08975536 411.79095298 C-106.76728532 409.93637511 -117.44443456 408.07961735 -128.12133789 406.22143555 C-139.12041616 404.30722624 -150.1201733 402.39695371 -161.12024945 400.4884879 C-170.62283022 398.83968451 -180.12498677 397.18845247 -189.6268037 395.53525287 C-195.27892372 394.5518815 -200.9312029 393.56944931 -206.58389854 392.58939171 C-211.86493743 391.67366868 -217.14544238 390.75492846 -222.42554092 389.83379936 C-224.36444596 389.49608173 -226.30354109 389.15945346 -228.24283409 388.82397079 C-230.87905596 388.36775128 -233.5145761 387.9076783 -236.14994812 387.44657898 C-236.9243103 387.3135104 -237.69867249 387.18044182 -238.49650019 387.04334086 C-243.77171218 386.11414391 -243.77171218 386.11414391 -246 385 C-246 272.14 -246 159.28 -246 43 C-236.99997054 40.74999263 -236.99997054 40.74999263 -233.33550453 40.11359215 C-232.49872819 39.96679083 -231.66195184 39.81998952 -230.79981863 39.66873968 C-229.90622181 39.51503648 -229.01262498 39.36133328 -228.09194946 39.20297241 C-227.12280684 39.03383792 -226.15366421 38.86470342 -225.15515363 38.69044363 C-221.92374228 38.12724296 -218.69161602 37.56826053 -215.45947266 37.00927734 C-213.13640072 36.60529593 -210.81337326 36.20105866 -208.49038696 35.79658508 C-202.19387692 34.7010424 -195.89673008 33.60920178 -189.59944582 32.51811934 C-183.68012012 31.49202959 -177.76123457 30.46340817 -171.84233133 29.43488498 C-160.12073584 27.39814716 -148.39864137 25.36429566 -136.67626953 23.33203125 C-125.29762132 21.35935522 -113.91935801 19.3844777 -102.54150391 17.40722656 C-88.82569011 15.02368794 -75.10959034 12.64180337 -61.39319992 10.26158524 C-56.15309424 9.35225185 -50.91309473 8.44231109 -45.67317581 7.53190231 C-39.51259262 6.46165062 -33.35171783 5.39309374 -27.19060898 4.32587242 C-24.92408478 3.93299431 -22.65766074 3.5395379 -20.39134216 3.14547539 C-17.30987867 2.60977842 -14.22806545 2.07614235 -11.14614868 1.5430603 C-10.23916752 1.38489566 -9.33218637 1.22673102 -8.39772093 1.06377351 C-2.2283447 0 -2.2283447 0 0 0 Z " fill="#5C6BC0" transform="translate(288,42)"/>
<path d="M0 0 C24.75 0 49.5 0 75 0 C75.16121214 37.67438076 75.16121214 37.67438076 75.1953125 53.49414062 C75.21902235 64.40575707 75.24685503 75.31724972 75.30175781 86.22875977 C75.34172885 94.17651329 75.36745724 102.12416612 75.37635398 110.07201737 C75.38155141 114.27720148 75.39369644 118.48209763 75.42292023 122.6871891 C75.450252 126.65249773 75.45840953 130.61740222 75.45243073 134.5827961 C75.45352308 136.03111219 75.4613708 137.47944307 75.4768219 138.92767715 C75.61477785 152.53614348 72.92515444 162.78908278 63.375 172.68359375 C46.3882847 188.45135494 21.19322616 182 0 182 C0 121.94 0 61.88 0 0 Z " fill="#5B6ABF" transform="translate(309,213)"/>
<path d="M0 0 C24.75 0 49.5 0 75 0 C75.16043524 21.52060448 75.16043524 21.52060448 75.1953125 30.74414062 C75.21915821 37.0204025 75.24726751 43.29642937 75.30175781 49.57250977 C75.34544559 54.63647717 75.36918536 59.7001923 75.37950897 64.76433372 C75.38685936 66.68950556 75.4012123 68.61466469 75.42292023 70.53972816 C75.58672476 85.67774229 74.32950366 97.33409597 63.375 108.68359375 C46.3882847 124.45135494 21.19322616 118 0 118 C0 79.06 0 40.12 0 0 Z " fill="#5B6ABF" transform="translate(405,245)"/>
<path d="M0 0 C0 9.57 0 19.14 0 29 C-6.93 29.33 -6.93 29.33 -42 31 C-42.33 72.58 -42.66 114.16 -43 157 C-53.67187373 157 -64.35176279 156.70988248 -75 156 C-75 115.08 -75 74.16 -75 32 C-77.145 32.165 -77.145 32.165 -88 33 C-90.53701457 33.06960362 -93.07533853 33.10924503 -95.61328125 33.09765625 C-96.87978516 33.09443359 -98.14628906 33.09121094 -99.45117188 33.08789062 C-100.72541016 33.07951172 -101.99964844 33.07113281 -103.3125 33.0625 C-104.65038892 33.05746607 -105.9882797 33.05290657 -107.32617188 33.04882812 C-110.55080131 33.03718686 -113.77540705 33.01925769 -117 33 C-117 24.09 -117 15.18 -117 6 C-111.05822754 5.63989258 -105.11645508 5.27978516 -99.17468262 4.91967773 C-98.51042519 4.87941971 -97.84616776 4.83916168 -97.16178131 4.79768372 C-95.74633026 4.7118988 -94.33087921 4.62611389 -92.91542816 4.54032898 C-92.53577534 4.51731972 -92.53577534 4.51731972 -90.61450195 4.40087891 C-88.36334229 4.26444499 -86.11218262 4.12801107 -83.86102295 3.99157715 C-83.50243195 3.96984436 -83.50243195 3.96984436 -81.68774414 3.85986328 C-80.97326898 3.8165645 -80.25879381 3.77326572 -79.52266788 3.72865486 C-78.07869873 3.64113602 -76.63473091 3.55359498 -75.19076443 3.46603203 C-71.55193588 3.24539946 -67.91308443 3.02515825 -64.27418518 2.80569458 C-57.5552096 2.40008399 -50.83647687 1.99146164 -44.11854458 1.56887627 C-41.1270734 1.38088411 -38.13547847 1.19490476 -35.14387321 1.00905991 C-33.73956936 0.92124648 -32.3353266 0.83244923 -30.93115425 0.74255753 C-20.58819571 0.08073626 -10.36165735 -0.18669653 0 0 Z " fill="#FCFDFE" transform="translate(224,174)"/>
<path d="M0 0 C7.75745693 6.11960614 12.76614344 14.95559073 14.91015625 24.54296875 C16.15661354 36.92351086 15.46110595 48.38938164 8.09765625 58.79296875 C7.05556229 60.06003088 5.99306283 61.31060533 4.91015625 62.54296875 C4.40871094 63.14882812 3.90726562 63.7546875 3.390625 64.37890625 C-2.43133693 70.86663998 -11.31508591 75.95041242 -20.11352539 76.7199707 C-36.26751473 77.18330647 -46.21277306 74.92540397 -59.08984375 64.54296875 C-60.81757794 62.81523456 -60.27990981 60.48255423 -60.33032227 58.12451172 C-60.35606827 56.96595673 -60.38181427 55.80740173 -60.40834045 54.61373901 C-60.49232958 49.29075078 -60.55846154 43.9679509 -60.60473633 38.64453125 C-60.63142757 35.83675899 -60.68006575 33.03069719 -60.74829102 30.22363281 C-60.8462866 26.18138782 -60.87836151 22.14100146 -60.90625 18.09765625 C-60.94440323 16.84636932 -60.98255646 15.5950824 -61.02186584 14.30587769 C-61.00283841 5.76588115 -61.00283841 5.76588115 -58.34663391 2.20802307 C-56.34134081 0.424142 -54.37123361 -1.04991459 -52.08984375 -2.45703125 C-51.65220703 -2.73869141 -51.65220703 -2.73869141 -49.4375 -4.1640625 C-32.36844154 -12.42140189 -15.56352324 -10.85083022 0 0 Z " fill="#5B6AC0" transform="translate(369.08984375,115.45703125)"/>
<path d="M0 0 C7.94363468 5.84405447 14.18208196 13.71972071 16.3828125 23.45703125 C17.83400233 35.43879899 16.67310998 45.93560831 9.5859375 56.01171875 C2.54844587 64.59745854 -7.06536893 69.46924208 -18.0859375 70.7421875 C-29.33277959 71.15148713 -39.09856062 67.47396478 -47.3671875 59.95703125 C-48.1096875 59.13203125 -48.8521875 58.30703125 -49.6171875 57.45703125 C-49.9575 57.08578125 -49.9575 57.08578125 -51.6796875 55.20703125 C-58.2070752 45.94235193 -59.48000226 36.60270687 -58.6171875 25.45703125 C-56.48720421 16.55083169 -52.32913633 9.67786187 -45.6171875 3.45703125 C-44.8953125 2.77640625 -44.1734375 2.09578125 -43.4296875 1.39453125 C-30.37342043 -7.59978606 -13.65151481 -8.04828112 0 0 Z " fill="#5B6AC0" transform="translate(463.6171875,143.54296875)"/>
</svg>
