<?xml version="1.0" encoding="UTF-8"?>
<!-- Generator: visioncortex VTracer 0.6.12 -->
<svg version="1.1" xmlns="http://www.w3.org/2000/svg" width="512" height="512">
<path d="M0 0 C1.41810252 0.85502517 2.83673011 1.70918005 4.25585938 2.5625 C12.63924889 7.61489612 20.97385864 12.74695828 29.27270508 17.93701172 C37.3348128 22.96169367 45.51082116 27.79012673 53.6875 32.625 C62.36476668 37.75619955 71.0328904 42.88432051 79.54492188 48.28710938 C86.72461708 52.82872076 94.03607598 57.15378396 101.33569336 61.49902344 C126.69337973 76.629845 147.9372311 93.16421985 155.8125 122.9375 C158.32404038 133.02871156 158.52880271 142.73010234 158.53613281 153.07983398 C158.5407682 154.61006284 158.54579382 156.14029056 158.55117798 157.67051697 C158.56423871 161.81154808 158.57073507 165.95256301 158.57518864 170.09361148 C158.57813096 172.68884986 158.58223799 175.28408395 158.58669281 177.87932014 C158.60035405 186.02238519 158.61002616 194.16544026 158.6138947 202.30851597 C158.61836553 211.66464329 158.63587377 221.02062381 158.6648953 230.37670654 C158.68662152 237.63652443 158.69660486 244.89630135 158.69793582 252.15615135 C158.69897649 256.4787103 158.70472447 260.80113101 158.72275543 265.12365532 C158.73942553 269.1990387 158.74130152 273.27418274 158.73261642 277.34958839 C158.73185592 278.83085148 158.73605525 280.31212846 158.74607468 281.79335785 C158.91365064 308.15053278 151.32066843 330.7544252 133.16015625 350.32421875 C125.25659363 358.0779508 115.91938074 363.45315724 106.46191406 369.09228516 C102.64870213 371.37164736 98.85451492 373.68156359 95.06047058 375.99264526 C90.92770431 378.50964103 86.79125572 381.02046725 82.65234375 383.52734375 C77.78798398 386.47395823 72.92598493 389.42441333 68.06640625 392.37890625 C57.07255762 399.06205017 46.0737383 405.73583755 35.03149414 412.33886719 C29.60351348 415.58870583 24.19447542 418.86890276 18.79267883 422.16201782 C13.98508486 425.09240623 9.17143213 428.01264613 4.35282898 430.92489624 C1.73590451 432.50669512 -0.8782916 434.09254385 -3.48632812 435.68896484 C-25.66545787 449.25159351 -49.5638016 456.36783307 -75.625 450.3125 C-88.3899043 447.14831821 -99.67878616 441.05576642 -110.75 434.125 C-111.9557583 433.38025845 -113.16215444 432.63654873 -114.36914062 431.89379883 C-116.86998668 430.35373084 -119.36807973 428.80934026 -121.86425781 427.26171875 C-127.33669759 423.87356226 -132.84159445 420.53893484 -138.34613037 417.20327759 C-140.12604177 416.12436852 -141.90516736 415.04417461 -143.68408203 413.96362305 C-150.31888836 409.9344838 -156.96456579 405.92412767 -163.625 401.9375 C-172.66876796 396.52431905 -181.68398456 391.06441003 -190.68579102 385.58178711 C-196.83695935 381.83660387 -202.99865433 378.1110608 -209.18359375 374.421875 C-233.61757643 359.82086904 -233.61757643 359.82086904 -242.625 351.9375 C-243.30691406 351.34195312 -243.98882812 350.74640625 -244.69140625 350.1328125 C-259.23421737 336.5008902 -268.03717232 315.60372218 -269.625 295.9375 C-269.77973508 290.89053296 -269.78255697 285.84406412 -269.78613281 280.79516602 C-269.7907682 279.26493716 -269.79579382 277.73470944 -269.80117798 276.20448303 C-269.81423871 272.06345192 -269.82073507 267.92243699 -269.82518864 263.78138852 C-269.82813096 261.18615014 -269.83223799 258.59091605 -269.83669281 255.99567986 C-269.85035405 247.85261481 -269.86002616 239.70955974 -269.8638947 231.56648403 C-269.86836553 222.21035671 -269.88587377 212.85437619 -269.9148953 203.49829346 C-269.93662152 196.23847557 -269.94660486 188.97869865 -269.94793582 181.71884865 C-269.94897649 177.3962897 -269.95472447 173.07386899 -269.97275543 168.75134468 C-269.98942553 164.6759613 -269.99130152 160.60081726 -269.98261642 156.52541161 C-269.98185592 155.04414852 -269.98605525 153.56287154 -269.99607468 152.08164215 C-270.15609365 126.91306829 -263.3767721 105.18349973 -246.625 85.9375 C-246.11839844 85.33550781 -245.61179687 84.73351562 -245.08984375 84.11328125 C-228.9486887 66.4034206 -201.47843113 54.83134565 -181.05444336 42.59838867 C-173.29110879 37.94601753 -165.54732701 33.26204004 -157.8125 28.5625 C-157.23167664 28.20965942 -156.65085327 27.85681885 -156.0524292 27.49328613 C-150.70508732 24.24453559 -145.35895305 20.99380456 -140.01513672 17.73925781 C-132.98516047 13.45786602 -125.95016139 9.18502135 -118.90673828 4.92578125 C-116.75957367 3.62489533 -114.61462069 2.32035024 -112.47216797 1.01171875 C-91.08416076 -12.04861026 -91.08416076 -12.04861026 -80.625 -15.0625 C-79.5834375 -15.37574219 -78.541875 -15.68898438 -77.46875 -16.01171875 C-49.547212 -23.22043358 -23.74674575 -14.50791642 0 0 Z M-132.95629883 164.28686523 C-135.625 165.9375 -135.625 165.9375 -138.43432617 167.00170898 C-141.09723534 169.3547912 -141.00940886 170.05977066 -141.24023438 173.50634766 C-141.25981484 175.45466738 -141.25059498 177.40340465 -141.21875 179.3515625 C-141.21879028 180.39460541 -141.21883057 181.43764832 -141.21887207 182.51229858 C-141.21350213 184.72993967 -141.19585701 186.94757933 -141.16699219 189.16503906 C-141.1257568 192.50126954 -141.12587398 195.83543705 -141.1328125 199.171875 C-141.04835026 227.83232587 -134.91113897 250.68305835 -115.5703125 272.2421875 C-107.26015171 279.84697655 -97.57338515 285.56767549 -87.9375 291.3125 C-85.46222575 292.79468794 -82.98857937 294.27957017 -80.515625 295.765625 C-79.91613541 296.12532379 -79.31664581 296.48502258 -78.69898987 296.85562134 C-75.23238697 298.94321514 -71.80913984 301.08306518 -68.421875 303.296875 C-67.68928467 303.77334473 -66.95669434 304.24981445 -66.2019043 304.74072266 C-64.90353642 305.59266348 -63.61262534 306.45613376 -62.33129883 307.33349609 C-58.24351684 310.00318764 -58.24351684 310.00318764 -55.21582031 309.68164062 C-52.553961 308.91709604 -50.54125217 307.94189847 -48.16796875 306.5234375 C-47.31452881 306.01731934 -46.46108887 305.51120117 -45.58178711 304.98974609 C-45.12485474 304.71300049 -45.12485474 304.71300049 -42.8125 303.3125 C-41.8541626 302.73709473 -40.8958252 302.16168945 -39.90844727 301.56884766 C-36.80855138 299.70053406 -33.71689251 297.81902272 -30.625 295.9375 C-29.58021484 295.3084375 -28.53542969 294.679375 -27.45898438 294.03125 C-2.49075099 278.97936872 18.98126652 262.49716413 26.87744141 233.09619141 C30.96437538 215.36475364 37.29406782 183.45339563 28.26519775 166.90319824 C22.58589222 159.61567387 13.40318584 156.34130198 4.97021484 153.31542969 C-0.12827549 151.36134308 -4.52666124 148.59176439 -9.125 145.6875 C-55.26470017 118.78978541 -92.31942415 138.96863914 -132.95629883 164.28686523 Z " fill="#3592D7" transform="translate(311.625,39.0625)"/>
<path d="M0 0 C1.57010133 0.7725243 3.13874261 1.54801634 4.70678711 2.32470703 C5.58048447 2.75623077 6.45418182 3.18775452 7.35435486 3.63235474 C11.57184592 5.81255327 15.55422232 8.33617523 19.5625 10.875 C27.34776945 15.74962044 35.17774479 20.53798992 43.0625 25.25 C61.42597881 36.24537195 61.42597881 36.24537195 68.94039917 40.78356934 C70.68250452 41.83429122 72.42726054 42.88061444 74.17211914 43.92675781 C98.85299483 58.85134719 117.61349266 75.60475592 126.25390625 103.9453125 C131.64812439 126.03054072 127.53837313 146.70880922 116 166 C113.27829921 170.22462443 110.23430982 174.15555481 107 178 C106.73058594 178.32033203 106.73058594 178.32033203 105.3671875 179.94140625 C96.73340026 189.29106027 84.9603078 195.76408101 74.04296875 202.0625 C67.86778959 205.63502166 61.78064635 209.35260282 55.6875 213.0625 C54.47902783 213.79764675 53.27053154 214.53275385 52.06201172 215.26782227 C49.60014232 216.76548955 47.13860724 218.26370461 44.67724609 219.76220703 C41.10536039 221.93642396 37.53156785 224.10748836 33.95703125 226.27734375 C33.38242661 226.62615097 32.80782196 226.97495819 32.21580505 227.33433533 C29.89361409 228.7438855 27.5713338 230.1532884 25.24899292 231.56259155 C18.87640988 235.4298434 12.50561322 239.29994598 6.140625 243.1796875 C0.35249949 246.70717891 -5.44369449 250.22115629 -11.24462891 253.72753906 C-13.87704111 255.31910847 -16.50641222 256.91558308 -19.13427734 258.51464844 C-22.69973944 260.68322736 -26.27200359 262.84022993 -29.84851074 264.99053955 C-31.21651317 265.81531399 -32.58240809 266.64359658 -33.94592285 267.47576904 C-55.76837306 280.78358503 -79.56604028 287.2329327 -105 281.375 C-117.7649043 278.21081821 -129.05378616 272.11826642 -140.125 265.1875 C-141.3307583 264.44275845 -142.53715444 263.69904873 -143.74414062 262.95629883 C-146.24498668 261.41623084 -148.74307973 259.87184026 -151.23925781 258.32421875 C-156.71187179 254.93595442 -162.21695986 251.60125167 -167.72167969 248.26550293 C-169.49999523 247.18750289 -171.2774558 246.10810614 -173.0546875 245.02832031 C-179.73031298 240.97360476 -186.42079831 236.9447592 -193.125 232.9375 C-200.51160773 228.51158233 -207.88455648 224.06305913 -215.23431396 219.57620239 C-216.96138556 218.52353587 -218.69183898 217.47642414 -220.42236328 216.42944336 C-221.4792334 215.78241455 -222.53610352 215.13538574 -223.625 214.46875 C-224.56601563 213.89576172 -225.50703125 213.32277344 -226.4765625 212.73242188 C-228.96710277 211.02258501 -230.89849803 209.15739298 -233 207 C-233.9075 206.46375 -234.815 205.9275 -235.75 205.375 C-236.4925 204.92125 -237.235 204.4675 -238 204 C-238 203.34 -238 202.68 -238 202 C-236.76765625 202.2165625 -235.5353125 202.433125 -234.265625 202.65625 C-196.34273395 209.12583301 -171.54667662 195.21955516 -140.22753906 175.97851562 C-134.93743246 172.73562426 -129.63302521 169.51634062 -124.32839966 166.29727173 C-122.51470713 165.19642669 -120.70152402 164.09474664 -118.88842773 162.99291992 C-113.98072775 160.01177585 -109.07142977 157.03395205 -104.13671875 154.09765625 C-103.4509375 153.68942627 -102.76515625 153.28119629 -102.05859375 152.8605957 C-100.36777301 151.85700182 -98.67427754 150.85791757 -96.98046875 149.859375 C-94.64293428 148.40109662 -92.45468474 146.89269906 -90.23828125 145.265625 C-87 143 -87 143 -85 143 C-85 142.34 -85 141.68 -85 141 C-82.76293945 139.41870117 -82.76293945 139.41870117 -79.61328125 137.54296875 C-79.04848557 137.20369354 -78.48368988 136.86441833 -77.90177917 136.51486206 C-76.68054907 135.78231321 -75.45734267 135.05305134 -74.23242188 134.32669067 C-72.30544292 133.18331267 -70.38440263 132.03054189 -68.46484375 130.87475586 C-64.64688848 128.57704096 -60.82386311 126.28786551 -57 124 C-32.29323194 109.21597765 -11.24831612 93.33815303 -3.50244141 64.15454102 C-0.38742174 50.79688867 -0.56333812 37.33514712 -0.375 23.6875 C-0.33674792 21.3860541 -0.2976922 19.0846214 -0.2578125 16.78320312 C-0.16260402 11.18892076 -0.07733633 5.5945565 0 0 Z " fill="#8046BB" transform="translate(341,208)"/>
<path d="M0 0 C0.33 0.165 0.33 0.165 2 1 C1.154375 1.66 0.30875 2.32 -0.5625 3 C-4.49994158 6.29195935 -7.71322249 10.07393384 -11 14 C-11.64066406 14.71800781 -12.28132812 15.43601562 -12.94140625 16.17578125 C-28.25768831 34.00980831 -32.14481344 55.16000983 -32.16113281 78.05053711 C-32.16576827 79.57091388 -32.1707939 81.09128951 -32.17617798 82.61166382 C-32.18923806 86.72583628 -32.19573495 90.83999246 -32.20018864 94.95418239 C-32.20313108 97.53266981 -32.20723813 100.11115291 -32.21169281 102.68963814 C-32.22535391 110.78037746 -32.23502608 118.87110674 -32.2388947 126.96185678 C-32.24336543 136.25742398 -32.26087328 145.55284341 -32.2898953 154.84836572 C-32.31162262 162.06147489 -32.32160491 169.27454282 -32.32293582 176.48768431 C-32.32397642 180.78229796 -32.32972277 185.07677246 -32.34775543 189.37135124 C-32.36442746 193.42047026 -32.36630063 197.4693484 -32.35761642 201.51848984 C-32.35685602 202.99007762 -32.36105388 204.4616794 -32.37107468 205.93323326 C-32.53533618 231.59717239 -25.53751303 254.74364654 -7.48486328 273.61181641 C-0.06446218 280.74350864 8.97872493 285.98837334 17.77209473 291.24240112 C19.60343146 292.33696413 21.43057267 293.43825511 23.25683594 294.54125977 C28.76992748 297.8687353 34.2948392 301.17622318 39.82421875 304.4765625 C41.46614819 305.46353774 43.10807547 306.45051659 44.75 307.4375 C45.12483521 307.65845337 45.12483521 307.65845337 47.02172852 308.77661133 C48.71528808 309.79642206 50.36415805 310.88996439 52 312 C52 312.66 52 313.32 52 314 C50.04858398 315.44970703 50.04858398 315.44970703 47.30859375 317.1328125 C46.29909668 317.75704102 45.28959961 318.38126953 44.24951172 319.02441406 C43.17717285 319.67635742 42.10483398 320.32830078 41 321 C40.49154541 321.31179199 40.49154541 321.31179199 37.91845703 322.88964844 C34.63877971 324.89415123 31.3516262 326.88606528 28.0625 328.875 C26.84091354 329.61479405 25.6193982 330.35470554 24.39794922 331.09472656 C22.50281494 332.24288979 20.60762816 333.39096522 18.7121582 334.53857422 C14.37854436 337.16275975 10.04930297 339.79403291 5.72265625 342.4296875 C-0.08754433 345.96907033 -5.90527968 349.49579656 -11.72705078 353.01611328 C-14.86378167 354.91743174 -17.99257357 356.83130703 -21.12109375 358.74609375 C-33.64501579 366.35461656 -46.25655463 373.81262949 -61 376 C-61.69996094 376.10957031 -62.39992188 376.21914063 -63.12109375 376.33203125 C-75.36822545 377.96934832 -89.56426367 378.08729952 -101 373 C-98.3765992 375.91488977 -95.28183606 377.88503898 -92 380 C-92.66 380.33 -93.32 380.66 -94 381 C-96.59106445 379.71166992 -96.59106445 379.71166992 -99.86328125 377.73046875 C-100.44734741 377.37861008 -101.03141357 377.0267514 -101.63317871 376.66423035 C-103.53232392 375.51492255 -105.42289572 374.35241883 -107.3125 373.1875 C-107.63216232 372.99189484 -107.63216232 372.99189484 -109.24984741 372.00201416 C-118.23349348 366.49836351 -127.05175915 360.95636387 -135 354 C-135.68191406 353.40445312 -136.36382812 352.80890625 -137.06640625 352.1953125 C-151.60921737 338.5633902 -160.41217232 317.66622218 -162 298 C-162.15473508 292.95303296 -162.15755697 287.90656412 -162.16113281 282.85766602 C-162.1657682 281.32743716 -162.17079382 279.79720944 -162.17617798 278.26698303 C-162.18923871 274.12595192 -162.19573507 269.98493699 -162.20018864 265.84388852 C-162.20313096 263.24865014 -162.20723799 260.65341605 -162.21169281 258.05817986 C-162.22535405 249.91511481 -162.23502616 241.77205974 -162.2388947 233.62898403 C-162.24336553 224.27285671 -162.26087377 214.91687619 -162.2898953 205.56079346 C-162.31162152 198.30097557 -162.32160486 191.04119865 -162.32293582 183.78134865 C-162.32397649 179.4587897 -162.32972447 175.13636899 -162.34775543 170.81384468 C-162.36442553 166.7384613 -162.36630152 162.66331726 -162.35761642 158.58791161 C-162.35685592 157.10664852 -162.36105525 155.62537154 -162.37107468 154.14414215 C-162.53109365 128.97556829 -155.7517721 107.24599973 -139 88 C-138.49339844 87.39800781 -137.98679687 86.79601562 -137.46484375 86.17578125 C-121.3236887 68.4659206 -93.85343113 56.89384565 -73.42944336 44.66088867 C-62.73152702 38.24989648 -52.07355194 31.77364383 -41.41763306 25.29321289 C-37.04203214 22.63245654 -32.66404738 19.97564997 -28.28515625 17.3203125 C-26.38569827 16.16821464 -24.48626006 15.01608418 -22.58682251 13.86395264 C-21.38052154 13.13238378 -20.17412402 12.4009741 -18.96762085 11.66973877 C-17.28540411 10.6501147 -15.60363263 9.62975613 -13.921875 8.609375 C-13.41108398 8.30032227 -13.41108398 8.30032227 -10.82617188 6.73632812 C-8.297331 5.1826726 -5.81270168 3.57602459 -3.328125 1.953125 C-2.22984375 1.30859375 -1.1315625 0.6640625 0 0 Z " fill="#5073D1" transform="translate(204,37)"/>
<path d="M0 0 C5.38888788 1.51994273 9.21974375 2.69832909 13 7 C14.97630407 8.36821051 16.97209016 9.70951192 19 11 C18.67 11.165 18.67 11.165 17 12 C15.32006836 11.22729492 15.32006836 11.22729492 13.33984375 9.98046875 C12.62892578 9.53509766 11.91800781 9.08972656 11.18554688 8.63085938 C10.44369141 8.15455078 9.70183594 7.67824219 8.9375 7.1875 C8.19177734 6.72279297 7.44605469 6.25808594 6.67773438 5.77929688 C1.135299 2.27059801 1.135299 2.27059801 0 0 Z " fill="#8F79DE" transform="translate(93,406)"/>
<path d="M0 0 C0.66 0.33 1.32 0.66 2 1 C0.90716423 2.03295436 -0.19970579 3.05107835 -1.3125 4.0625 C-1.92738281 4.63097656 -2.54226562 5.19945312 -3.17578125 5.78515625 C-3.77777344 6.18605469 -4.37976563 6.58695313 -5 7 C-5.99 6.67 -6.98 6.34 -8 6 C-5.38485683 3.87961365 -2.80362384 1.86908256 0 0 Z " fill="#837FE2" transform="translate(204,37)"/>
<path d="M0 0 C1.32 0.33 2.64 0.66 4 1 C4 1.66 4 2.32 4 3 C2.68 2.67 1.36 2.34 0 2 C0 1.34 0 0.68 0 0 Z " fill="#AA82EC" transform="translate(99,409)"/>
</svg>
