<?xml version="1.0" encoding="UTF-8"?>
<!-- Generator: visioncortex VTracer 0.6.12 -->
<svg version="1.1" xmlns="http://www.w3.org/2000/svg" width="512" height="512">
<path d="M0 0 C0.50896606 -0.0029161 0.50896606 -0.0029161 3.08464277 -0.01767331 C4.20116464 -0.01389399 5.31768651 -0.01011467 6.46804237 -0.00622082 C7.65554042 -0.01004636 8.84303846 -0.01387191 10.06652129 -0.01781338 C13.36383444 -0.02635718 16.66092503 -0.02590576 19.95823193 -0.02163279 C23.51387716 -0.01916972 27.06949599 -0.02817453 30.62513161 -0.03567028 C37.59164347 -0.04843129 44.55811682 -0.05020921 51.5246384 -0.04787002 C57.18668182 -0.04608816 62.84871352 -0.04783366 68.51075554 -0.05209446 C69.31611136 -0.05268965 70.12146719 -0.05328484 70.95122773 -0.05389806 C72.58723421 -0.0551098 74.22324069 -0.05632393 75.85924716 -0.05754044 C91.20825488 -0.06842151 106.55724064 -0.06625088 121.9062496 -0.06015559 C135.95049833 -0.05498668 149.99467769 -0.06624018 164.0389127 -0.08525381 C178.45577309 -0.10462244 192.87260064 -0.11288988 207.28947413 -0.10913056 C215.38493292 -0.10721693 223.48033268 -0.1097217 231.57578087 -0.1238451 C238.46800777 -0.1357475 245.3601393 -0.1371767 252.25236748 -0.12505493 C255.76906334 -0.119158 259.28558466 -0.11808909 262.80226898 -0.13005733 C266.61420548 -0.14287964 270.4258763 -0.13247086 274.23781776 -0.11974621 C275.34987819 -0.12712049 276.46193862 -0.13449478 277.60769784 -0.14209253 C284.66109528 -0.0924119 289.05897251 0.82035793 294.60491371 5.44197559 C301.78259642 13.94186301 301.52212211 21.95339987 301.39885902 32.56526661 C301.39449176 34.22008864 301.39200368 35.87491653 301.39124489 37.52974415 C301.38627174 41.08145983 301.36938324 44.63284613 301.34350777 48.18447018 C301.30396299 53.80331945 301.29924369 59.42186848 301.30065346 65.04083729 C301.29938466 81.01449124 301.25152268 96.98782976 301.16887856 112.9612627 C301.12349423 121.79248897 301.10683077 130.62331326 301.12085414 139.45464939 C301.12798777 145.0381074 301.09931612 150.61986607 301.04393911 156.20303643 C301.01782954 159.67797505 301.02514964 163.152253 301.04182434 166.62722492 C301.04285389 168.23528865 301.03021861 169.84342961 301.00272751 171.45125866 C300.80421549 183.70354676 300.80421549 183.70354676 303.75334358 187.59390545 C305.91344643 189.39081287 305.91344643 189.39081287 308.06752586 190.70616531 C310.78895902 192.90949605 311.19080813 194.8752514 311.97991371 198.25447559 C312.23438931 201.6097517 312.23438931 201.6097517 312.24061012 205.33806324 C312.24443567 206.02766561 312.24826122 206.71726798 312.25220269 207.4277674 C312.26247688 209.72603925 312.25855126 212.02405867 312.25457191 214.32234669 C312.25892151 215.97525735 312.26410548 217.628166 312.27005959 219.28107166 C312.2834348 223.76253833 312.28402986 228.24392058 312.28149629 232.72540331 C312.28042549 236.47034686 312.28531277 240.2152734 312.29010171 243.9602133 C312.30119196 252.79757152 312.30163712 261.63488723 312.29558754 270.47224903 C312.28954846 279.58018431 312.3018582 288.68796508 312.32315761 297.795874 C312.34078831 305.62366607 312.34677262 313.45140903 312.34351987 321.27922022 C312.34170908 325.95082814 312.3443227 330.62232586 312.35823441 335.29391575 C312.3708319 339.68853531 312.36885051 344.08291451 312.35582352 348.47753048 C312.3534623 350.08673338 312.35617608 351.6959533 312.36444664 353.30513668 C312.44959156 371.16495797 312.44959156 371.16495797 307.07756996 377.49666309 C306.4059684 378.03549122 305.73436684 378.57431934 305.04241371 379.12947559 C304.37339027 379.68377247 303.70436684 380.23806934 303.01506996 380.80916309 C299.20057582 383.51811287 296.50458208 384.50445528 291.79362297 384.51453781 C291.26611494 384.51807061 291.26611494 384.51807061 288.59660459 384.53594869 C288.01762555 384.53474115 288.01762555 384.53474115 285.08764076 384.52863026 C283.85663478 384.53386694 282.62562879 384.53910361 281.35731959 384.54449898 C277.93846094 384.5569223 274.51980782 384.56034208 271.1009407 384.55990207 C267.4143695 384.56154937 263.72783583 384.57461427 260.04128456 384.58609486 C251.97925847 384.60895122 243.91725868 384.6168662 235.85520458 384.6219213 C230.82111468 384.62517769 225.78703243 384.63169983 220.75294685 384.63892269 C206.81468514 384.65848973 192.87643055 384.67489324 178.93815422 384.67779922 C178.49212141 384.67789301 178.49212141 384.67789301 176.23492508 384.67836762 C174.42648999 384.67873387 172.6180549 384.67909757 170.80961981 384.67945873 C169.91191055 384.67964154 169.01420129 384.67982435 168.08928871 384.6800127 C167.19048354 384.68019325 166.29167837 384.6803738 165.36563668 384.68055982 C150.80214501 384.68410137 136.23880121 384.71112206 121.67536083 384.74851059 C106.72286355 384.78659069 91.77043964 384.80595668 76.81789279 384.80625874 C68.42274188 384.80684339 60.02776734 384.81534022 51.63266182 384.8442564 C44.48390286 384.86876639 37.33538461 384.87605589 30.18659499 384.86100888 C26.53992011 384.85383818 22.89372055 384.85470344 19.24709892 384.87741947 C15.29122878 384.90182552 11.33603702 384.88737782 7.38012123 384.86920643 C6.23108606 384.8824064 5.08205088 384.89560636 3.89819646 384.90920633 C-3.9145563 384.82716182 -8.852753 383.21635704 -14.53756595 377.81180853 C-19.31099963 372.55554411 -20.27282212 367.24041302 -20.24713707 360.33113575 C-20.24742912 359.66701679 -20.24772118 359.00289783 -20.24802208 358.31865406 C-20.2466389 356.14347822 -20.23112617 353.96865341 -20.21539879 351.79353809 C-20.21166505 350.27753861 -20.20881978 348.76153671 -20.20682335 347.24553394 C-20.19921531 343.27037777 -20.17959139 339.29536953 -20.15741539 335.32027149 C-20.13689577 331.25799529 -20.12780859 327.19569502 -20.11774254 323.13338184 C-20.0963426 315.17367881 -20.06224114 307.21409565 -20.02008629 299.25447559 C-21.12540703 299.26557865 -22.23072777 299.27668171 -23.36954308 299.28812122 C-33.81479906 299.38972739 -44.25995403 299.46455124 -54.70559311 299.51353645 C-60.0751203 299.53956751 -65.44424673 299.57484678 -70.81354332 299.63167286 C-76.00071305 299.68622432 -81.18749867 299.71594491 -86.37493324 299.72886181 C-88.34840117 299.73806026 -90.32184942 299.75602249 -92.29515266 299.78312588 C-112.88408682 300.05452441 -112.88408682 300.05452441 -120.02008629 294.25447559 C-125.01788825 288.90564249 -126.16928653 284.05565878 -126.16052818 276.94873524 C-126.16349931 276.19903172 -126.16647043 275.44932821 -126.16953158 274.67690641 C-126.17822342 272.1574228 -126.17972724 269.63798669 -126.1812191 267.11848927 C-126.18584693 265.314996 -126.19087154 263.51150372 -126.19626427 261.70801258 C-126.20939356 256.80298549 -126.21583424 251.89797209 -126.22027493 246.99293017 C-126.22320475 243.92928015 -126.22730938 240.86563388 -126.2317791 237.80198574 C-126.24545533 228.21890091 -126.25512141 218.63582465 -126.25898099 209.05273074 C-126.26346242 197.9860378 -126.28101376 186.91946834 -126.30998158 175.85281295 C-126.3315891 167.30155915 -126.34168477 158.75034012 -126.34302211 150.19905931 C-126.34407079 145.0903946 -126.34999203 139.98184595 -126.36784172 134.87320995 C-126.38430632 130.06744723 -126.38648573 125.26188799 -126.37770271 120.45610714 C-126.37693148 118.69286905 -126.38128642 116.9296201 -126.39116096 115.16640949 C-126.40385843 112.7577526 -126.39801596 110.34981878 -126.38757896 107.94116688 C-126.39563537 107.2447558 -126.40369177 106.54834472 -126.41199231 105.83083028 C-126.35237367 99.94083047 -124.56036057 96.10280474 -120.83258629 91.62947559 C-114.55823606 86.3311354 -108.97256842 84.65666276 -100.85016441 84.80037403 C-100.41066963 84.80008198 -100.41066963 84.80008198 -98.18655968 84.79860401 C-95.30773718 84.80137033 -92.42997583 84.83239285 -89.55133629 84.86385059 C-87.54495369 84.87131816 -85.53856377 84.87700866 -83.53217125 84.88100147 C-78.2713028 84.89621713 -73.01088154 84.93546382 -67.75018883 84.97981739 C-62.37407034 85.02085801 -56.99787904 85.03903123 -51.62164879 85.05916309 C-41.08759899 85.10196207 -30.55387994 85.17016395 -20.02008629 85.25447559 C-20.02896873 84.42255192 -20.03785118 83.59062824 -20.04700279 82.73349476 C-20.12741276 74.86321854 -20.18818419 66.99308185 -20.22733498 59.12248802 C-20.24814009 55.07686761 -20.27632655 51.03158887 -20.3218441 46.98616505 C-20.36555687 43.07632533 -20.38927651 39.16681262 -20.39959526 35.25674725 C-20.40694135 33.77090215 -20.42128588 32.28507335 -20.44300652 30.79936886 C-20.69056317 13.15187721 -20.69056317 13.15187721 -14.24036217 6.38827991 C-9.84094671 2.36984276 -6.06745135 0.0059816 0 0 Z " fill="#0F74CE" transform="translate(158.02008628845215,63.745524406433105)"/>
<path d="M0 0 C0.07011879 21.50552247 0.12300227 43.01102606 0.15543652 64.51663971 C0.17089739 74.50234298 0.19197205 84.48797517 0.22631836 94.47363281 C0.25624453 103.17836286 0.27558067 111.88304142 0.28226548 120.58782148 C0.28617228 125.19582462 0.29533762 129.80368047 0.31719017 134.41163635 C0.33760615 138.75197855 0.34382348 143.09211328 0.33932304 147.43249893 C0.34014596 149.02235671 0.34608114 150.61222167 0.35761642 152.20203781 C0.47968202 169.89869101 0.47968202 169.89869101 -4.90234375 176.2421875 C-5.57394531 176.78101563 -6.24554688 177.31984375 -6.9375 177.875 C-7.60652344 178.42929687 -8.27554687 178.98359375 -8.96484375 179.5546875 C-12.7793379 182.26363728 -15.47533163 183.24997969 -20.18629074 183.26006222 C-21.24130681 183.26712781 -22.29632288 183.2741934 -23.38330913 183.2814731 C-24.54126719 183.27905802 -25.69922525 183.27664293 -26.89227295 183.27415466 C-28.12327893 183.27939134 -29.35428492 183.28462802 -30.62259412 183.29002339 C-34.04145277 183.30244671 -37.46010589 183.30586648 -40.87897301 183.30542648 C-44.56554421 183.30707377 -48.25207789 183.32013868 -51.93862915 183.33161926 C-60.00065525 183.35447563 -68.06265503 183.36239061 -76.12470913 183.36744571 C-81.15879903 183.3707021 -86.19288128 183.37722424 -91.22696686 183.3844471 C-105.16522857 183.40401414 -119.10348316 183.42041764 -133.04175949 183.42332363 C-133.93382511 183.4235112 -134.82589073 183.42369877 -135.74498864 183.42389202 C-137.55342372 183.42425828 -139.36185881 183.42462197 -141.1702939 183.42498314 C-142.06800316 183.42516595 -142.96571243 183.42534876 -143.890625 183.42553711 C-144.78943017 183.42571766 -145.68823534 183.42589821 -146.61427703 183.42608423 C-161.1777687 183.42962578 -175.7411125 183.45664647 -190.30455288 183.494035 C-205.25705016 183.5321151 -220.20947407 183.55148109 -235.16202092 183.55178314 C-243.55717184 183.55236779 -251.95214637 183.56086462 -260.34725189 183.58978081 C-267.49601085 183.61429079 -274.64452911 183.62158029 -281.79331872 183.60653328 C-285.4399936 183.59936259 -289.08619316 183.60022785 -292.73281479 183.62294388 C-296.68868493 183.64734992 -300.64387669 183.63290223 -304.59979248 183.61473083 C-305.74882766 183.6279308 -306.89786283 183.64113077 -308.08171725 183.65473074 C-315.89447001 183.57268623 -320.83266671 181.96188144 -326.51747966 176.55733293 C-331.58911681 170.97270189 -332.30255147 165.1647662 -332.23046875 157.890625 C-332.23001053 157.1237738 -332.22955231 156.35692261 -332.2290802 155.5668335 C-332.22607142 153.9498133 -332.21822649 152.33279564 -332.20581055 150.71582031 C-332.18765874 148.27137689 -332.18530055 145.82731608 -332.18554688 143.3828125 C-332.1358657 121.1358657 -332.1358657 121.1358657 -330 119 C-327.2280263 118.896038 -324.4801557 118.85638819 -321.70751953 118.8581543 C-320.8374678 118.85467987 -319.96741608 118.85120544 -319.07099915 118.84762573 C-317.1732256 118.84025211 -315.27544334 118.83491533 -313.37765884 118.83133507 C-310.36684414 118.82418081 -307.35619348 118.80851831 -304.34542847 118.78999329 C-295.78174203 118.7375017 -287.21814041 118.68962257 -278.65429688 118.67407227 C-273.42043388 118.6639444 -268.18697611 118.63448851 -262.95327377 118.59275246 C-260.9639786 118.58049531 -258.97462601 118.57531147 -256.98529434 118.57755089 C-243.22243392 118.58922167 -230.40715769 118.29329382 -220 108 C-212.91489678 99.35270253 -211.71476528 91.4420675 -211.375 80.5625 C-211.33632813 79.54478516 -211.29765625 78.52707031 -211.2578125 77.47851562 C-211.16419128 74.98585064 -211.07846007 72.4931805 -211 70 C-207.55009755 68.8402777 -207.12365381 68.94272434 -203.55078125 70.59765625 C-202.13139079 71.40776318 -200.71911347 72.23040562 -199.3125 73.0625 C-198.54591064 73.49916992 -197.77932129 73.93583984 -196.98950195 74.38574219 C-193.24025278 76.52353345 -189.51341128 78.69843925 -185.79199219 80.88427734 C-182.43207842 82.85406705 -179.06006811 84.8019772 -175.6875 86.75 C-174.60831299 87.39461182 -173.52912598 88.03922363 -172.41723633 88.70336914 C-171.39654053 89.29110107 -170.37584473 89.87883301 -169.32421875 90.484375 C-168.41760498 91.01772461 -167.51099121 91.55107422 -166.5769043 92.10058594 C-164 93 -164 93 -161.44799805 92.30493164 C-160.64015869 91.8743042 -159.83231934 91.44367676 -159 91 C-158.26668457 90.62963623 -157.53336914 90.25927246 -156.77783203 89.87768555 C-156.02872559 89.4681665 -155.27961914 89.05864746 -154.5078125 88.63671875 C-154.07891724 88.40279419 -154.07891724 88.40279419 -151.90844727 87.21899414 C-150.98990967 86.71360107 -150.07137207 86.20820801 -149.125 85.6875 C-148.1568335 85.15697021 -147.18866699 84.62644043 -146.19116211 84.07983398 C-136.36862397 78.68159172 -126.61432469 73.16421936 -116.86914062 67.62792969 C-114.05572818 66.03161977 -111.23944139 64.44052738 -108.421875 62.8515625 C-97.37062737 56.6187631 -86.34522055 50.34213293 -75.33486938 44.03744507 C-67.08156177 39.31321167 -58.80374948 34.63514421 -50.5 30 C-46.33220973 27.66866959 -42.16591952 25.33467134 -38 23 C-37.40606445 22.66768372 -36.81212891 22.33536743 -36.20019531 21.99298096 C-32.4108419 19.87238713 -28.62620175 17.7437261 -24.84692383 15.60522461 C-23.63728358 14.92229354 -22.42623064 14.24185726 -21.21362305 13.56420898 C-14.61894944 9.87663563 -8.45023404 6.07303137 -2.609375 1.26538086 C-1 0 -1 0 0 0 Z " fill="#259BE5" transform="translate(470,265)"/>
<path d="M0 0 C0.07011879 21.50552247 0.12300227 43.01102606 0.15543652 64.51663971 C0.17089739 74.50234298 0.19197205 84.48797517 0.22631836 94.47363281 C0.25624453 103.17836286 0.27558067 111.88304142 0.28226548 120.58782148 C0.28617228 125.19582462 0.29533762 129.80368047 0.31719017 134.41163635 C0.33760615 138.75197855 0.34382348 143.09211328 0.33932304 147.43249893 C0.34014596 149.02235671 0.34608114 150.61222167 0.35761642 152.20203781 C0.47993825 169.93583854 0.47993825 169.93583854 -4.60546875 175.875 C-6.0703125 176.91666667 -7.53515625 177.95833333 -9 179 C-20.85619745 172.63333693 -32.68172651 166.22457656 -44.375 159.5625 C-53.61199957 154.30228774 -62.94346572 149.23868111 -72.31689453 144.22631836 C-79.35143128 140.45450053 -86.31927522 136.58392975 -93.25 132.625 C-102.82615924 127.15977139 -112.5221083 121.94477563 -122.26144409 116.77871704 C-131.91917504 111.65591797 -141.52480107 106.45250295 -151.05322266 101.09228516 C-154.69511917 99.04891357 -158.34821047 97.02562251 -162 95 C-162 94.34 -162 93.68 -162 93 C-161.36312256 92.64397705 -160.72624512 92.2879541 -160.07006836 91.92114258 C-145.63311485 83.84868704 -131.21483199 75.74448227 -116.82080078 67.59570312 C-114.02623673 66.0148419 -111.23017841 64.43665857 -108.43359375 62.859375 C-97.37916302 56.62270193 -86.3492811 50.34445806 -75.33486938 44.03744507 C-67.08156177 39.31321167 -58.80374948 34.63514421 -50.5 30 C-46.33220973 27.66866959 -42.16591952 25.33467134 -38 23 C-37.40606445 22.66768372 -36.81212891 22.33536743 -36.20019531 21.99298096 C-32.4108419 19.87238713 -28.62620175 17.7437261 -24.84692383 15.60522461 C-23.63728358 14.92229354 -22.42623064 14.24185726 -21.21362305 13.56420898 C-14.61894944 9.87663563 -8.45023404 6.07303137 -2.609375 1.26538086 C-1 0 -1 0 0 0 Z " fill="#2092DE" transform="translate(470,265)"/>
<path d="M0 0 C0.50896606 -0.0029161 0.50896606 -0.0029161 3.08464277 -0.01767331 C4.20116464 -0.01389399 5.31768651 -0.01011467 6.46804237 -0.00622082 C7.65554042 -0.01004636 8.84303846 -0.01387191 10.06652129 -0.01781338 C13.36383444 -0.02635718 16.66092503 -0.02590576 19.95823193 -0.02163279 C23.51387716 -0.01916972 27.06949599 -0.02817453 30.62513161 -0.03567028 C37.59164347 -0.04843129 44.55811682 -0.05020921 51.5246384 -0.04787002 C57.18668182 -0.04608816 62.84871352 -0.04783366 68.51075554 -0.05209446 C69.31611136 -0.05268965 70.12146719 -0.05328484 70.95122773 -0.05389806 C72.58723421 -0.0551098 74.22324069 -0.05632393 75.85924716 -0.05754044 C91.20825488 -0.06842151 106.55724064 -0.06625088 121.9062496 -0.06015559 C135.95049833 -0.05498668 149.99467769 -0.06624018 164.0389127 -0.08525381 C178.45577309 -0.10462244 192.87260064 -0.11288988 207.28947413 -0.10913056 C215.38493292 -0.10721693 223.48033268 -0.1097217 231.57578087 -0.1238451 C238.46800777 -0.1357475 245.3601393 -0.1371767 252.25236748 -0.12505493 C255.76906334 -0.119158 259.28558466 -0.11808909 262.80226898 -0.13005733 C266.61420548 -0.14287964 270.4258763 -0.13247086 274.23781776 -0.11974621 C275.34987819 -0.12712049 276.46193862 -0.13449478 277.60769784 -0.14209253 C284.66109528 -0.0924119 289.05897251 0.82035793 294.60491371 5.44197559 C304.86193878 17.58845265 300.97991371 25.41880092 300.97991371 43.25447559 C195.04991371 43.25447559 89.11991371 43.25447559 -20.02008629 43.25447559 C-20.02008629 17.25447559 -20.02008629 17.25447559 -16.02008629 8.25447559 C-11.06285206 3.38576341 -7.15134026 0.00705015 0 0 Z " fill="#0566B1" transform="translate(158.02008628845215,63.745524406433105)"/>
<path d="M0 0 C35.31 0 70.62 0 107 0 C107 31.68 107 63.36 107 96 C71.69 96 36.38 96 0 96 C0 64.32 0 32.64 0 0 Z " fill="#53D9FE" transform="translate(352,107)"/>
<path d="M0 0 C35.31 0 70.62 0 107 0 C107 31.68 107 63.36 107 96 C99.554375 96.0103125 99.554375 96.0103125 61.875 96.0625 C57.19940918 96.071604 52.52381836 96.08070801 47.70654297 96.09008789 C41.92993164 96.09460449 41.92993164 96.09460449 39.212677 96.09544373 C37.3432898 96.09696406 35.47390349 96.10044886 33.60452271 96.10557556 C22.68392564 96.13398812 11.88280184 96.01575025 1 95 C0.84976417 89.18555354 0.70823923 83.37096122 0.57275391 77.55615234 C0.52629592 75.6046052 0.47798151 73.65310078 0.42724609 71.70166016 C-0.19090113 47.79576238 0 23.92601021 0 0 Z " fill="#32AEEB" transform="translate(245,107)"/>
<path d="M0 0 C1.10666016 0.00499512 2.21332031 0.00999023 3.35351562 0.01513672 C11.79099207 0.19515939 18.33319709 1.24740045 25.75 5.5 C26.57113281 5.95761719 27.39226562 6.41523438 28.23828125 6.88671875 C41.09684087 14.77474272 49.25669817 26.982475 52.75 41.5625 C55.93265299 59.97642087 53.41674397 78.03664739 42.75 93.5 C35.72782109 102.75822156 24.2995121 110.18849885 12.75 112.5 C-0.27305521 113.48782656 -13.66356414 114.25020968 -25.25 107.5 C-26.14460938 106.98050781 -27.03921875 106.46101563 -27.9609375 105.92578125 C-39.69424364 98.36784081 -47.9820354 86.90950775 -51.421875 73.328125 C-54.86088482 56.31672981 -53.57391889 37.61931805 -43.99609375 22.90625 C-32.81443876 7.49707891 -18.97398902 -0.11191554 0 0 Z " fill="#FCFDFE" transform="translate(138.25,199.5)"/>
<path d="M0 0 C35.31 0 70.62 0 107 0 C107.061875 10.291875 107.12375 20.58375 107.1875 31.1875 C107.20115601 32.80926147 107.20115601 32.80926147 107.27026367 41.01635742 C107.27902566 43.58772407 107.28667027 46.15909488 107.29296875 48.73046875 C107.30080887 49.39500565 107.30864899 50.05954254 107.31672668 50.74421692 C107.33877627 52.71242714 107.34001799 54.68083628 107.34057617 56.64916992 C107.34390709 57.20321251 107.34390709 57.20321251 107.36076355 60.00700378 C106.95035753 63.41184794 106.02552588 65.25723395 104 68 C101.51416016 69.75415039 101.51416016 69.75415039 98.5390625 71.34765625 C97.98863281 71.64760498 97.98863281 71.64760498 95.203125 73.16552734 C94.01085338 73.79867462 92.81813444 74.43098018 91.625 75.0625 C89.15639189 76.38476879 86.69116511 77.71325184 84.2265625 79.04296875 C83.91804352 79.20860321 83.91804352 79.20860321 82.35675049 80.04681396 C78.55073631 82.10583828 74.86294956 84.2874584 71.2109375 86.61328125 C58.94611278 94.37813566 51.89085735 96.35454422 37 96 C24.79 96 12.58 96 0 96 C0 64.32 0 32.64 0 0 Z " fill="#24A1E4" transform="translate(352,203)"/>
<path d="M0 0 C28.05 0 56.1 0 85 0 C85 31.35 85 62.7 85 95 C56.95 95 28.9 95 0 95 C0 63.65 0 32.3 0 0 Z " fill="#027AD4" transform="translate(267,203)"/>
<path d="M0 0 C2.31 0 4.62 0 7 0 C7 31.35 7 62.7 7 95 C40.59033996 95.04030303 40.59033996 95.04030303 54.77148438 95.04882812 C64.52564017 95.05473934 74.27978727 95.06165137 84.03393555 95.07543945 C91.14089169 95.08548069 98.2478407 95.09187563 105.35480374 95.09408849 C109.10964064 95.09537975 112.86445719 95.09836311 116.61928749 95.10573006 C143.51548726 95.15598022 143.51548726 95.15598022 155.05224609 94.67651367 C155.7783524 94.65376153 156.50445871 94.63100939 157.25256824 94.60756779 C164.68239472 94.2157974 170.09226308 91.16712274 176.3125 87.25 C178.02888695 86.23111775 179.74528095 85.21224692 181.46228027 84.19439697 C183.18936087 83.16214194 184.90493691 82.11286206 186.61865234 81.05859375 C189.90998924 79.05479933 193.23393772 77.12589826 196.58203125 75.21875 C198.59687764 74.06341244 200.61122663 72.90720685 202.625 71.75 C203.56126221 71.21407227 204.49752441 70.67814453 205.4621582 70.12597656 C206.31253662 69.62549805 207.16291504 69.12501953 208.0390625 68.609375 C208.78365723 68.17592773 209.52825195 67.74248047 210.29541016 67.29589844 C212 66 212 66 213 63 C213.14403348 61.66636297 213.24590423 60.32781954 213.31640625 58.98828125 C213.35830078 58.23095703 213.40019531 57.47363281 213.44335938 56.69335938 C213.48267578 55.90767578 213.52199219 55.12199219 213.5625 54.3125 C213.5840918 53.91385742 213.5840918 53.91385742 213.69335938 51.89648438 C213.79927368 49.93118553 213.90012551 47.96561504 214 46 C219.54910138 49.16559475 223.05271308 52.34759663 225.25 58.5 C225 62 225 62 222.2265625 64.78125 C217.24494911 68.81160053 211.69364506 71.86324205 206.125 75 C204.98240723 75.65154053 203.83981445 76.30308105 202.66259766 76.97436523 C193.89466713 81.96972991 185.08109534 86.88493188 176.26489258 91.79443359 C169.06037864 95.8156367 161.92490285 99.94336491 154.8125 104.125 C146.31643839 109.11718866 137.73997964 113.92215526 129.07080078 118.60644531 C122.02797866 122.41809298 115.06638371 126.35687074 108.12451172 130.34887695 C100.0784602 134.97125298 91.98318546 139.50339579 83.87573242 144.01708984 C82.89451416 144.56445801 81.9132959 145.11182617 80.90234375 145.67578125 C80.41950928 145.94302002 80.41950928 145.94302002 77.97607422 147.29541016 C75.87693791 148.49772104 73.8076475 149.75288492 71.76220703 151.04443359 C71.2348999 151.37419189 71.2348999 151.37419189 68.56640625 153.04296875 C67.61838135 153.65551514 66.67035645 154.26806152 65.69360352 154.89916992 C63 156 63 156 60.55102539 155.39160156 C59.70918701 154.93237305 58.86734863 154.47314453 58 154 C57.00339355 153.49799072 56.00678711 152.99598145 54.97998047 152.47875977 C53.87025879 151.88893311 52.76053711 151.29910645 51.6171875 150.69140625 C51.00937943 150.36867737 50.40157135 150.04594849 49.77534485 149.71343994 C47.80681972 148.66636043 45.84072573 147.61482446 43.875 146.5625 C43.20481842 146.2047348 42.53463684 145.8469696 41.84414673 145.47836304 C32.1129732 140.27997907 22.48147556 134.94254936 12.98046875 129.33203125 C8.6927752 126.82000667 4.34400613 124.41333674 0 122 C0 81.74 0 41.48 0 0 Z " fill="#0452A2" transform="translate(245,203)"/>
<path d="M0 0 C35.31 0 70.62 0 107 0 C107 13.53 107 27.06 107 41 C102.71 39.35 98.42 37.7 94 36 C90.45473681 35.55839824 87.41020068 35.30414567 83.89526367 35.34057617 C82.97652969 35.33009247 82.05779572 35.31960876 81.11122131 35.30880737 C78.12977766 35.28042738 75.14952114 35.28630482 72.16796875 35.29296875 C70.07903108 35.27983121 67.99010607 35.26452074 65.90119934 35.24714661 C60.44490774 35.20752447 54.98895019 35.1971209 49.53253174 35.19311523 C43.94801852 35.18374063 38.36369807 35.14630024 32.77929688 35.11132812 C21.85282766 35.04698425 10.92664682 35.0161529 0 35 C0 23.45 0 11.9 0 0 Z " fill="#0083D6" transform="translate(138,107)"/>
<path d="M0 0 C9.62028488 4.96853535 15.02044868 13.86828555 18.44140625 23.7890625 C21.068364 35.85886837 19.45313258 48.76939234 13.44140625 59.5390625 C9.71884608 65.26537111 4.92195912 70.21726865 -1.59765625 72.6953125 C-9.49055251 74.36871807 -18.72463931 74.37614352 -25.80859375 70.1640625 C-34.27042423 64.61765261 -38.41690527 55.76191404 -40.80859375 46.1640625 C-41.22685253 42.69372695 -41.28658122 39.28182395 -41.24609375 35.7890625 C-41.23779541 34.86512695 -41.22949707 33.94119141 -41.22094727 32.98925781 C-40.9444579 21.82341682 -37.79740776 13.18508947 -29.80859375 5.1640625 C-21.28064147 -1.38866554 -10.36419328 -3.08475294 0 0 Z " fill="#1175CE" transform="translate(149.80859375,219.8359375)"/>
<path d="M0 0 C5.28 2.64 10.56 5.28 16 8 C15.67 8.66 15.34 9.32 15 10 C14.8829747 11.56100156 14.82125243 13.12635526 14.7890625 14.69140625 C14.76070313 15.63693359 14.73234375 16.58246094 14.703125 17.55664062 C14.65175682 19.53303141 14.60728508 21.50961564 14.5703125 23.48632812 C14.22155244 34.24702906 11.59264773 42.18663577 4 50 C-4.18626924 56.85674741 -12.91852234 59.45065771 -23.46704102 59.43237305 C-24.36568375 59.4425647 -25.26432648 59.45275635 -26.19020081 59.46325684 C-29.12816769 59.49318708 -32.06580747 59.50262205 -35.00390625 59.51171875 C-37.0537167 59.52858026 -39.1035169 59.54673247 -41.15330505 59.56611633 C-46.52406614 59.61346253 -51.89478565 59.64337126 -57.26568604 59.66955566 C-62.75598353 59.69943898 -68.24613804 59.74594253 -73.73632812 59.79101562 C-84.49082676 59.87687381 -95.24531094 59.94275888 -106 60 C-106 52.74 -106 45.48 -106 38 C-103.35629395 37.99589111 -100.71258789 37.99178223 -97.98876953 37.98754883 C-89.2275717 37.97030668 -80.46666384 37.92573045 -71.70564461 37.86790943 C-66.39680522 37.83370349 -61.08825166 37.80853938 -55.77929688 37.80444336 C-50.65023978 37.80014673 -45.52182678 37.77157079 -40.39297104 37.72656822 C-38.44193151 37.7136368 -36.49081472 37.70927 -34.5397377 37.71384621 C-14.50075121 37.74988101 -14.50075121 37.74988101 -7 32 C-2.55562375 27.55562375 -0.80447585 22.92756167 -0.5859375 16.69921875 C-0.54726562 15.72275391 -0.50859375 14.74628906 -0.46875 13.74023438 C-0.4378125 12.73283203 -0.406875 11.72542969 -0.375 10.6875 C-0.33632812 9.66076172 -0.29765625 8.63402344 -0.2578125 7.57617188 C-0.16385511 5.05106691 -0.08085192 2.52555856 0 0 Z " fill="#1F87CA" transform="translate(245,325)"/>
<path d="M0 0 C5.54910138 3.16559475 9.05271308 6.34759663 11.25 12.5 C11 16 11 16 8.2265625 18.78125 C3.24494911 22.81160053 -2.30635494 25.86324205 -7.875 29 C-9.01759277 29.65154053 -10.16018555 30.30308105 -11.33740234 30.97436523 C-20.10533287 35.96972991 -28.91890466 40.88493188 -37.73510742 45.79443359 C-44.93962136 49.8156367 -52.07509715 53.94336491 -59.1875 58.125 C-67.68356161 63.11718866 -76.26002036 67.92215526 -84.92919922 72.60644531 C-91.97202134 76.41809298 -98.93361629 80.35687074 -105.87548828 84.34887695 C-113.9215398 88.97125298 -122.01681454 93.50339579 -130.12426758 98.01708984 C-131.10548584 98.56445801 -132.0867041 99.11182617 -133.09765625 99.67578125 C-134.0633252 100.21025879 -135.02899414 100.74473633 -136.02392578 101.29541016 C-138.12306209 102.49772104 -140.1923525 103.75288492 -142.23779297 105.04443359 C-142.7651001 105.37419189 -142.7651001 105.37419189 -145.43359375 107.04296875 C-146.38161865 107.65551514 -147.32964355 108.26806152 -148.30639648 108.89916992 C-151 110 -151 110 -153.44897461 109.39160156 C-154.29081299 108.93237305 -155.13265137 108.47314453 -156 108 C-156.99660645 107.49799072 -157.99321289 106.99598145 -159.02001953 106.47875977 C-160.12974121 105.88893311 -161.23946289 105.29910645 -162.3828125 104.69140625 C-162.99062057 104.36867737 -163.59842865 104.04594849 -164.22465515 103.71343994 C-166.19318028 102.66636043 -168.15927427 101.61482446 -170.125 100.5625 C-170.79518158 100.2047348 -171.46536316 99.8469696 -172.15585327 99.47836304 C-181.8870268 94.27997907 -191.51852444 88.94254936 -201.01953125 83.33203125 C-205.3072248 80.82000667 -209.65599387 78.41333674 -214 76 C-214 67.42 -214 58.84 -214 50 C-209.38 50 -204.76 50 -200 50 C-199.93941406 51.40894531 -199.87882812 52.81789063 -199.81640625 54.26953125 C-199.73199509 56.11719776 -199.64734737 57.96485347 -199.5625 59.8125 C-199.52318359 60.74126953 -199.48386719 61.67003906 -199.44335938 62.62695312 C-199.42241211 63.07329102 -199.42241211 63.07329102 -199.31640625 65.33203125 C-199.29807739 65.74312134 -199.29807739 65.74312134 -199.20532227 67.82348633 C-199 70 -199 70 -198 73 C-197.01 73.495 -196.02 73.99 -195 74.5 C-194.01 74.995 -193.02 75.49 -192 76 C-191.67 76.99 -191.34 77.98 -191 79 C-189.40156555 80.13349915 -189.40156555 80.13349915 -187.30981445 81.20825195 C-186.52842606 81.61489578 -185.74703766 82.02153961 -184.94197083 82.44050598 C-184.51648705 82.6546389 -184.51648705 82.6546389 -182.36328125 83.73828125 C-181.49108444 84.18270065 -180.61888763 84.62712006 -179.72026062 85.08500671 C-177.87094924 86.02233203 -176.01887399 86.95422095 -174.16430664 87.88110352 C-171.33042752 89.30350171 -168.51407444 90.75704237 -165.69726562 92.21289062 C-163.89942432 93.11914783 -162.10062534 94.02350816 -160.30078125 94.92578125 C-159.45993484 95.36416824 -158.61908844 95.80255524 -157.75276184 96.25422668 C-151.85426276 99.14656249 -151.85426276 99.14656249 -147.75268555 98.44287109 C-145.01283837 97.00672947 -142.3086818 95.58133411 -139.65625 93.98828125 C-138.66326904 93.39805176 -137.67028809 92.80782227 -136.6472168 92.19970703 C-135.60863525 91.57692871 -134.57005371 90.95415039 -133.5 90.3125 C-109.29530571 76 -109.29530571 76 -104 76 C-102.04739452 75.03155299 -100.13604608 73.97914174 -98.25 72.88671875 C-97.68379944 72.56102402 -97.11759888 72.23532928 -96.53424072 71.89976501 C-95.31806601 71.19895703 -94.10362149 70.4951396 -92.89074707 69.78863525 C-90.99290205 68.68336629 -89.09038175 67.58657272 -87.18652344 66.49169922 C-81.50294005 63.21808128 -75.8387952 59.91416071 -70.203125 56.55859375 C-69.35492188 56.05690674 -68.50671875 55.55521973 -67.6328125 55.03833008 C-66.09605122 54.1268228 -64.56435576 53.20669342 -63.0390625 52.27612305 C-59.09034292 49.93434377 -55.73946539 48.65364569 -51.2109375 47.671875 C-46.25454742 46.16569285 -41.83708681 43.26510989 -37.375 40.6875 C-36.29283203 40.07028076 -35.21066406 39.45306152 -34.09570312 38.81713867 C-30.72448547 36.88830935 -27.36229542 34.94433058 -24 33 C-21.83597478 31.76295562 -19.67191335 30.52597458 -17.5078125 29.2890625 C-15.50433716 28.1317151 -13.50169469 26.9729244 -11.5 25.8125 C-10.55688965 25.27262451 -9.6137793 24.73274902 -8.64208984 24.17651367 C-8.21130127 23.92373657 -8.21130127 23.92373657 -6.03125 22.64453125 C-5.27392578 22.20471924 -4.51660156 21.76490723 -3.73632812 21.31176758 C-2 20 -2 20 -1 17 C-0.85596652 15.66636297 -0.75409577 14.32781954 -0.68359375 12.98828125 C-0.64169922 12.23095703 -0.59980469 11.47363281 -0.55664062 10.69335938 C-0.51732422 9.90767578 -0.47800781 9.12199219 -0.4375 8.3125 C-0.4159082 7.91385742 -0.4159082 7.91385742 -0.30664062 5.89648438 C-0.20072632 3.93118553 -0.09987449 1.96561504 0 0 Z " fill="#05478B" transform="translate(459,249)"/>
<path d="M0 0 C2.2109885 0.42793326 3.98119242 0.99059621 6 2 C6.11765973 6.27059561 6.18773631 10.54076597 6.25 14.8125 C6.28351563 16.00810547 6.31703125 17.20371094 6.3515625 18.43554688 C6.49091673 31.22129777 3.07710419 40.69411012 -5.8125 49.87109375 C-12.46056019 56.10365018 -20.76405866 61.13258722 -30.08758545 61.12025452 C-30.4900071 61.12094185 -30.4900071 61.12094185 -32.52650452 61.12442017 C-33.40044357 61.12082489 -34.27438263 61.11722961 -35.17480469 61.11352539 C-36.101978 61.11367142 -37.02915131 61.11381744 -37.98442078 61.1139679 C-41.04692937 61.11327162 -44.10937704 61.10549249 -47.171875 61.09765625 C-49.2960812 61.09579106 -51.42028784 61.09436763 -53.54449463 61.09336853 C-59.13402495 61.08955131 -64.72352927 61.07972778 -70.31304932 61.06866455 C-76.01728972 61.05843337 -81.72153432 61.05386725 -87.42578125 61.04882812 C-98.61719892 61.03810482 -109.8085973 61.02103791 -121 61 C-121.02688151 59.35425434 -121.04634123 57.70838587 -121.0625 56.0625 C-121.07410156 55.14597656 -121.08570313 54.22945313 -121.09765625 53.28515625 C-121 51 -121 51 -120 50 C-117.2280263 49.896038 -114.4801557 49.85638819 -111.70751953 49.8581543 C-110.8374678 49.85467987 -109.96741608 49.85120544 -109.07099915 49.84762573 C-107.1732256 49.84025211 -105.27544334 49.83491533 -103.37765884 49.83133507 C-100.36684414 49.82418081 -97.35619348 49.80851831 -94.34542847 49.78999329 C-85.78174203 49.7375017 -77.21814041 49.68962257 -68.65429688 49.67407227 C-63.42043388 49.6639444 -58.18697611 49.63448851 -52.95327377 49.59275246 C-50.9639786 49.58049531 -48.97462601 49.57531147 -46.98529434 49.57755089 C-33.22243392 49.58922167 -20.40715769 49.29329382 -10 39 C-2.91481366 30.35260108 -1.72897854 22.50212604 -1.4375 11.625 C-1.37786137 9.63789151 -1.31428252 7.65089596 -1.24609375 5.6640625 C-1.23412964 5.22811768 -1.23412964 5.22811768 -1.17358398 3.02197266 C-1 1 -1 1 0 0 Z " fill="#208FD8" transform="translate(260,334)"/>
<path d="M0 0 C4.95 0 9.9 0 15 0 C15 31.35 15 62.7 15 95 C43.05 95 71.1 95 100 95 C100 95.33 100 95.66 100 96 C88.14285955 96.02320205 76.28572453 96.04095515 64.42856598 96.05181217 C58.92242123 96.0570238 53.41629204 96.06409018 47.91015625 96.07543945 C42.59335681 96.0863295 37.27657231 96.0922898 31.95976257 96.09487724 C29.93446111 96.09672047 27.90916043 96.10031981 25.88386536 96.10573006 C23.04039766 96.11302169 20.19699121 96.11398752 17.35351562 96.11352539 C16.93776276 96.11532303 16.93776276 96.11532303 14.83380127 96.12442017 C14.04870178 96.1230455 13.26360229 96.12167084 12.45471191 96.12025452 C11.78364662 96.12117631 11.11258133 96.1220981 10.42118073 96.12304783 C6.93184425 95.94571481 3.46685986 95.43335748 0 95 C0 63.65 0 32.3 0 0 Z " fill="#0272C8" transform="translate(252,203)"/>
<path d="M0 0 C1.485 0.66 1.485 0.66 9 4 C8.34 4.33 7.68 4.66 7 5 C7.01047363 5.29189209 7.01047363 5.29189209 7.06347656 6.76904297 C7.84135985 31.70561783 7.84135985 31.70561783 -1.2890625 41.53125 C-6.91697702 46.36251908 -13.31538293 48.05268599 -20.58081055 48.29663086 C-21.7071138 48.33567032 -22.83341705 48.37470978 -23.99385071 48.41493225 C-24.60523643 48.43348015 -24.60523643 48.43348015 -27.69921875 48.52734375 C-28.33954796 48.54800652 -28.33954796 48.54800652 -31.58000183 48.65257263 C-45.96090526 49.10313952 -60.34602247 49.32543527 -74.7321167 49.53222656 C-78.28042716 49.58386106 -81.82868695 49.63878036 -85.37695312 49.69335938 C-92.25125832 49.79864687 -99.12561263 49.90022241 -106 50 C-106 46.04 -106 42.08 -106 38 C-105.45360367 37.99928749 -105.45360367 37.99928749 -102.68850708 37.99568176 C-92.36068637 37.97897019 -82.03325758 37.93606966 -71.70564461 37.86790943 C-66.39680522 37.83370349 -61.08825166 37.80853938 -55.77929688 37.80444336 C-50.65023978 37.80014673 -45.52182678 37.77157079 -40.39297104 37.72656822 C-38.44193151 37.7136368 -36.49081472 37.70927 -34.5397377 37.71384621 C-14.50075121 37.74988101 -14.50075121 37.74988101 -7 32 C-2.55562375 27.55562375 -0.80447585 22.92756167 -0.5859375 16.69921875 C-0.54726562 15.72275391 -0.50859375 14.74628906 -0.46875 13.74023438 C-0.4378125 12.73283203 -0.406875 11.72542969 -0.375 10.6875 C-0.33632812 9.66076172 -0.29765625 8.63402344 -0.2578125 7.57617188 C-0.16385511 5.05106691 -0.08085192 2.52555856 0 0 Z " fill="#1D7CB9" transform="translate(245,325)"/>
<path d="M0 0 C12.08330439 -0.09289098 24.1665231 -0.16386192 36.25011253 -0.20724869 C41.86169469 -0.2280776 47.47303161 -0.25630944 53.08447266 -0.30175781 C58.50504576 -0.34538299 63.92538374 -0.3691724 69.34611893 -0.37950897 C71.4088778 -0.38687046 73.47162455 -0.40124547 75.53428268 -0.42292023 C78.43507939 -0.4521758 81.33491815 -0.45594677 84.23583984 -0.45410156 C84.65734818 -0.46129211 84.65734818 -0.46129211 86.79043579 -0.49768066 C94.33772891 -0.44610721 100.72774132 1.81849421 107 6 C107.22107787 8.7885289 107.28107535 11.34653181 107.1875 14.125 C107.18073242 14.50205078 107.18073242 14.50205078 107.14648438 16.41015625 C107.11109985 18.27374127 107.05729167 20.13695978 107 22 C105.25732705 19.69629559 103.57481649 17.38155126 101.9375 15 C97.98430075 10.46379901 92.88594662 8.43899953 86.93035126 7.76618958 C80.81210308 7.35921898 74.68365931 7.3932804 68.5546875 7.390625 C66.57356424 7.37562642 64.59245341 7.35889577 62.61135864 7.34051514 C57.42634472 7.29701789 52.24149944 7.27688172 47.05633545 7.26177979 C41.75360211 7.24214493 36.45104919 7.20018222 31.1484375 7.16015625 C20.7656809 7.08504521 10.38296505 7.03463827 0 7 C0 4.69 0 2.38 0 0 Z " fill="#0075BE" transform="translate(138,142)"/>
<path d="M0 0 C2.31 0 4.62 0 7 0 C7 31.35 7 62.7 7 95 C5.845 95.165 5.845 95.165 0 96 C0 64.32 0 32.64 0 0 Z " fill="#0261AC" transform="translate(245,203)"/>
<path d="M0 0 C2.31 0 4.62 0 7 0 C7 31.35 7 62.7 7 95 C4.69 95 2.38 95 0 95 C0 63.65 0 32.3 0 0 Z " fill="#026BBC" transform="translate(252,203)"/>
<path d="M0 0 C7.94412331 6.80924855 7.94412331 6.80924855 9.75 9.8125 C9.93304688 10.10447266 9.93304688 10.10447266 10.859375 11.58203125 C15.18448333 20.75066843 15.3682615 29.10242745 15.1875 39.0625 C15.17242256 40.51496005 15.15873958 41.96743527 15.14648438 43.41992188 C15.11630142 46.94730357 15.0575477 50.47253939 15 54 C10.38 54 5.76 54 1 54 C0.67 36.18 0.34 18.36 0 0 Z " fill="#2D9BD1" transform="translate(245,148)"/>
<path d="M0 0 C0.33 0 0.66 0 1 0 C1 12.21 1 24.42 1 37 C2.65 37.66 4.3 38.32 6 39 C14.62146774 45.2886 19.94506478 55.72532389 22 66 C22 75.57 22 85.14 22 95 C50.05 95 78.1 95 107 95 C107 95.33 107 95.66 107 96 C76.64 96 46.28 96 15 96 C14.67 85.44 14.34 74.88 14 64 C8.59922393 49.14786581 8.59922393 49.14786581 4.50057983 45.76095581 C2.02745861 43.69829623 0.26659517 42.06906172 -0.52801514 38.88262939 C-0.69248319 36.38296403 -0.67547506 33.94878258 -0.5859375 31.4453125 C-0.57744781 30.54376434 -0.56895813 29.64221619 -0.56021118 28.71334839 C-0.52677026 25.84932153 -0.45151154 22.98816767 -0.375 20.125 C-0.34488822 18.17712416 -0.31751454 16.22920393 -0.29296875 14.28125 C-0.22700977 9.51973563 -0.12355504 4.76035394 0 0 Z " fill="#2DA4E1" transform="translate(245,107)"/>
<path d="M0 0 C2.9375 0.8125 2.9375 0.8125 6 2 C6.33 2.99 6.66 3.98 7 5 C7.99 5.495 8.98 5.99 10 6.5 C10.99 6.995 11.98 7.49 13 8 C13.33 8.99 13.66 9.98 14 11 C15.90214539 12.28535461 15.90214539 12.28535461 18.42456055 13.57543945 C18.89533775 13.81880287 18.89533775 13.81880287 21.27775574 15.05036926 C22.30371353 15.56613022 23.32967133 16.08189117 24.38671875 16.61328125 C25.43648392 17.14648483 26.48624908 17.67968842 27.56782532 18.22904968 C29.79376616 19.35469407 32.02246827 20.47489195 34.25366211 21.59008789 C37.6668631 23.30214853 41.06280442 25.04548608 44.45898438 26.79101562 C46.62141011 27.87956454 48.78479194 28.96621664 50.94921875 30.05078125 C51.96505539 30.57666336 52.98089203 31.10254547 54.0275116 31.6443634 C61.12701119 35.13707209 61.12701119 35.13707209 65.40209961 34.46582031 C66.25940674 33.98209961 67.11671387 33.49837891 68 33 C68.77714355 32.60868896 69.55428711 32.21737793 70.35498047 31.81420898 C71.10150879 31.37923096 71.84803711 30.94425293 72.6171875 30.49609375 C73.46450439 30.00657227 74.31182129 29.51705078 75.18481445 29.01269531 C76.07257568 28.49288086 76.96033691 27.97306641 77.875 27.4375 C79.74060739 26.35759247 81.60649617 25.27817092 83.47265625 24.19921875 C83.93551025 23.93069092 83.93551025 23.93069092 86.27783203 22.57177734 C90.27149744 20.26583852 94.28958212 18.00440438 98.3125 15.75 C98.6530542 15.5588562 98.6530542 15.5588562 100.37646484 14.59155273 C101.91725305 13.72700609 103.45855864 12.86338158 105 12 C105.33 12.495 105.33 12.495 107 15 C98.141235 20.55788174 89.16843226 25.77855029 80 30.8125 C77.64508703 32.10932996 75.29125033 33.40809012 72.9375 34.70703125 C71.91527344 35.2688208 70.89304687 35.83061035 69.83984375 36.40942383 C67 38 67 38 64.44140625 39.83081055 C62 41 62 41 59.58642578 40.39428711 C58.73290527 39.93417236 57.87938477 39.47405762 57 39 C56.00339355 38.49799072 55.00678711 37.99598145 53.97998047 37.47875977 C52.87025879 36.88893311 51.76053711 36.29910645 50.6171875 35.69140625 C50.00933411 35.36863205 49.40148071 35.04585785 48.77520752 34.71330261 C46.80675905 33.6662126 44.84072235 32.61469782 42.875 31.5625 C42.20515076 31.20506714 41.53530151 30.84763428 40.84515381 30.47937012 C31.77653327 25.63738468 22.77913722 20.69926979 13.93701172 15.45141602 C9.38129993 12.75231651 4.76044708 10.32164981 0 8 C0 5.36 0 2.72 0 0 Z " fill="#053D75" transform="translate(246,318)"/>
<path d="M0 0 C12.87 0 25.74 0 39 0 C35.81397488 3.18602512 34.00131879 4.76327628 30.21875 6.76953125 C29.29924561 7.26291992 28.37974121 7.75630859 27.43237305 8.26464844 C26.46468994 8.77543945 25.49700684 9.28623047 24.5 9.8125 C22.51617958 10.87490747 20.53310095 11.93870126 18.55078125 13.00390625 C17.5963916 13.5158252 16.64200195 14.02774414 15.65869141 14.55517578 C11.35688733 16.89292386 7.14898601 19.37435931 2.94921875 21.890625 C1 23 1 23 0 23 C0 15.41 0 7.82 0 0 Z " fill="#0261B7" transform="translate(352,299)"/>
<path d="M0 0 C0.33 0 0.66 0 1 0 C1.08126109 2.72977064 1.14061663 5.4571017 1.1875 8.1875 C1.21263672 8.95642578 1.23777344 9.72535156 1.26367188 10.51757812 C1.27333984 11.26845703 1.28300781 12.01933594 1.29296875 12.79296875 C1.3086792 13.4789917 1.32438965 14.16501465 1.34057617 14.87182617 C0.86466356 17.84568298 -0.20190703 19.58713117 -2 22 C-4.48583984 23.75415039 -4.48583984 23.75415039 -7.4609375 25.34765625 C-8.56228027 25.94763428 -9.66362305 26.5476123 -10.79833984 27.16577148 C-11.99021542 27.79866347 -13.18244346 28.43089209 -14.375 29.0625 C-16.83574564 30.38356349 -19.29292234 31.71119233 -21.75 33.0390625 C-22.36579926 33.37012497 -22.98159851 33.70118744 -23.61605835 34.0422821 C-27.48404188 36.1341847 -31.25823207 38.33518327 -35 40.6484375 C-52.12124138 51.17978837 -52.12124138 51.17978837 -63 49 C-59.76733025 46.3091852 -56.57222803 44.06115192 -52.88671875 42.0390625 C-51.89720215 41.49169434 -50.90768555 40.94432617 -49.88818359 40.38037109 C-48.83195801 39.80109863 -47.77573242 39.22182617 -46.6875 38.625 C-35.72043001 32.55155123 -24.86698416 26.30507288 -14.0546875 19.9609375 C-13.61946777 19.70618652 -13.61946777 19.70618652 -11.41699219 18.41699219 C-9.8889285 17.52114555 -8.36321386 16.62126921 -6.84082031 15.71582031 C-2.22083151 13 -2.22083151 13 0 13 C0 8.71 0 4.42 0 0 Z " fill="#2298D8" transform="translate(458,249)"/>
<path d="M0 0 C5.54910138 3.16559475 9.05271308 6.34759663 11.25 12.5 C11 16 11 16 8.2421875 18.7734375 C3.18666183 22.86515823 -2.47039721 25.94692914 -8.125 29.125 C-9.8619967 30.10900385 -11.59898954 31.09301478 -13.33554077 32.07780457 C-14.50799174 32.74225721 -15.68102762 33.40567881 -16.85464478 34.06806946 C-20.6348662 36.20621944 -24.37316554 38.40444981 -28.09375 40.64453125 C-29.0307373 41.20188965 -29.96772461 41.75924805 -30.93310547 42.33349609 C-32.67956095 43.3741466 -34.4187183 44.42718227 -36.14892578 45.49462891 C-41.41722984 48.59749317 -44.88203365 49.56699688 -51 49 C-47.85329925 46.51968158 -44.56700108 44.53144655 -41.08203125 42.55859375 C-40.51145996 42.23445496 -39.94088867 41.91031616 -39.35302734 41.57635498 C-38.1356802 40.8849655 -36.91769581 40.19469702 -35.6991272 39.50546265 C-33.16679969 38.07198857 -30.63927281 36.63015356 -28.11149597 35.18867493 C-24.08987026 32.89542459 -20.06692587 30.60454441 -16.0390625 28.32226562 C-13.62526369 26.9524169 -11.21795015 25.57193751 -8.8125 24.1875 C-8.11938721 23.79812256 -7.42627441 23.40874512 -6.7121582 23.00756836 C-2.11431984 20.34295953 -2.11431984 20.34295953 -1 17 C-0.85596652 15.66636297 -0.75409577 14.32781954 -0.68359375 12.98828125 C-0.66264648 12.60961914 -0.66264648 12.60961914 -0.55664062 10.69335938 C-0.51732422 9.90767578 -0.47800781 9.12199219 -0.4375 8.3125 C-0.4159082 7.91385742 -0.4159082 7.91385742 -0.30664062 5.89648438 C-0.20072632 3.93118553 -0.09987449 1.96561504 0 0 Z " fill="#1B74A5" transform="translate(459,249)"/>
<path d="M0 0 C0.53431641 0.01353516 0.53431641 0.01353516 3.23828125 0.08203125 C4.04652344 0.11683594 4.85476563 0.15164063 5.6875 0.1875 C2.32669478 2.99915902 -1.01720045 5.27346689 -4.86328125 7.3671875 C-5.94335449 7.95991455 -7.02342773 8.5526416 -8.13623047 9.16333008 C-9.28752441 9.79005615 -10.43881836 10.41678223 -11.625 11.0625 C-14.05290981 12.39328578 -16.47821145 13.72875305 -18.90234375 15.06640625 C-19.20969452 15.23593559 -19.20969452 15.23593559 -20.76507568 16.09385681 C-28.16044362 20.18827057 -35.44089261 24.47736488 -42.70825195 28.79443359 C-43.63726318 29.34309082 -44.56627441 29.89174805 -45.5234375 30.45703125 C-45.92715576 30.69732056 -45.92715576 30.69732056 -47.97021484 31.91333008 C-50.36137909 33.21408953 -52.76728802 34.22831594 -55.3125 35.1875 C-56.3125 34.1875 -56.3125 34.1875 -56.796875 31.89453125 C-56.3125 29.1875 -56.3125 29.1875 -53.578125 27.07421875 C-52.25013249 26.32220439 -50.91032643 25.59085866 -49.5625 24.875 C-48.02078681 24.01310405 -46.47912402 23.15111794 -44.9375 22.2890625 C-44.06222656 21.80856445 -43.18695313 21.32806641 -42.28515625 20.83300781 C-36.97301517 17.89248294 -31.7170737 14.85266904 -26.45056152 11.83145142 C-24.58478739 10.76276586 -22.71713247 9.697457 -20.84863281 8.63354492 C-20.25606689 8.29606232 -19.66350098 7.95857971 -19.05297852 7.61087036 C-17.42902948 6.68635147 -15.80485425 5.76222994 -14.18066406 4.83813477 C-12.30827669 3.76057169 -10.45662507 2.64590565 -8.63110352 1.49072266 C-5.61154726 -0.20648607 -3.43494738 -0.11324002 0 0 Z " fill="#034988" transform="translate(408.3125,297.8125)"/>
<path d="M0 0 C11.97019073 -0.09284971 23.9402952 -0.16384109 35.91077328 -0.20724869 C41.46969804 -0.22808654 47.02837565 -0.2563349 52.5871582 -0.30175781 C57.9558561 -0.34535087 63.32431689 -0.36916569 68.69317818 -0.37950897 C70.73722628 -0.38687618 72.78126202 -0.40126253 74.82520866 -0.42292023 C77.69747417 -0.45213301 80.56877097 -0.45594853 83.44116211 -0.45410156 C83.85979271 -0.46129211 83.85979271 -0.46129211 85.97831726 -0.49768066 C93.34297147 -0.44673551 98.66434291 2.2300595 105.0625 5.625 C108.12087693 9.37397817 107.39951327 13.34788993 107 18 C105.25732705 15.69629559 103.57481649 13.38155126 101.9375 11 C97.98430075 6.46379901 92.88594662 4.43899953 86.93035126 3.76618958 C80.81210308 3.35921898 74.68365931 3.3932804 68.5546875 3.390625 C66.57356424 3.37562642 64.59245341 3.35889577 62.61135864 3.34051514 C57.42634472 3.29701789 52.24149944 3.27688172 47.05633545 3.26177979 C41.75360211 3.24214493 36.45104919 3.20018222 31.1484375 3.16015625 C20.7656809 3.08504521 10.38296505 3.03463827 0 3 C0 2.01 0 1.02 0 0 Z " fill="#006BAE" transform="translate(138,146)"/>
<path d="M0 0 C4.33039219 4.33039219 6.09017794 8.99310343 6.34057617 15.12109375 C6.34011048 16.55998327 6.32372219 17.99893909 6.29296875 19.4375 C6.28872391 20.20304199 6.28447906 20.96858398 6.28010559 21.75732422 C6.26348328 24.17192687 6.22586506 26.58565511 6.1875 29 C6.17243178 30.64972742 6.15874714 32.29946809 6.14648438 33.94921875 C6.11363417 37.9664762 6.06196973 41.98309052 6 46 C4.02 46 2.04 46 0 46 C0 30.82 0 15.64 0 0 Z " fill="#2A8EBF" transform="translate(246,156)"/>
<path d="M0 0 C4.29 0 8.58 0 13 0 C9.46236582 2.83010734 6.58544035 4.93359195 2.7109375 7.06640625 C1.69515625 7.62956543 0.679375 8.19272461 -0.3671875 8.77294922 C-1.44226563 9.36350098 -2.51734375 9.95405273 -3.625 10.5625 C-5.86785625 11.80478297 -8.11003627 13.04828754 -10.3515625 14.29296875 C-11.46692383 14.91220215 -12.58228516 15.53143555 -13.73144531 16.16943359 C-19.33672813 19.30869342 -24.88496566 22.54519181 -30.42431641 25.79907227 C-35.89826112 29 -35.89826112 29 -37 29 C-37.5 26.8125 -37.5 26.8125 -37 24 C-30.08913629 19.21096744 -22.54890318 15.36327612 -15.1875 11.3125 C-13.34568678 10.29768237 -11.50424649 9.28220631 -9.66365051 8.2651825 C-8.0073237 7.35014536 -6.34976568 6.43733787 -4.69213867 5.5246582 C-2 4 -2 4 1 2 C0.835 1.67 0.835 1.67 0 0 Z " fill="#035EAE" transform="translate(389,298)"/>
<path d="M0 0 C0.33 0 0.66 0 1 0 C1.08126109 2.72977064 1.14061663 5.4571017 1.1875 8.1875 C1.21263672 8.95642578 1.23777344 9.72535156 1.26367188 10.51757812 C1.27333984 11.26845703 1.28300781 12.01933594 1.29296875 12.79296875 C1.3086792 13.4789917 1.32438965 14.16501465 1.34057617 14.87182617 C0.86466356 17.84568298 -0.20190703 19.58713117 -2 22 C-4.48583984 23.75415039 -4.48583984 23.75415039 -7.4609375 25.34765625 C-8.01197144 25.64768555 -8.01197144 25.64768555 -10.80053711 27.16601562 C-11.99183973 27.79852566 -13.18333134 28.43067986 -14.375 29.0625 C-16.2064046 30.0495903 -18.03558341 31.04071478 -19.86454773 32.03231812 C-21.10065566 32.70227371 -22.3375687 33.37074588 -23.57527161 34.03775024 C-27.53516792 36.17822236 -31.43850028 38.39652819 -35.31640625 40.68359375 C-36.27047363 41.2448999 -37.22454102 41.80620605 -38.20751953 42.38452148 C-39.99374657 43.44152956 -41.77492225 44.50713265 -43.55029297 45.58227539 C-44.34709473 46.05012451 -45.14389648 46.51797363 -45.96484375 47 C-46.6518335 47.4125 -47.33882324 47.825 -48.04663086 48.25 C-50.43483975 49.16695759 -51.62990474 48.84752673 -54 48 C-53.24082275 47.56768066 -52.48164551 47.13536133 -51.69946289 46.68994141 C-44.93998862 42.83892822 -38.18464743 38.98082916 -31.43537903 35.11195374 C-27.75864382 33.00479789 -24.07644959 30.90763969 -20.390625 28.81640625 C-18.86421631 27.94074363 -17.33814037 27.06450055 -15.8125 26.1875 C-15.11970947 25.79836426 -14.42691895 25.40922852 -13.71313477 25.00830078 C-9.11422048 22.34266143 -9.11422048 22.34266143 -8 19 C-6.845 18.5875 -5.69 18.175 -4.5 17.75 C-2.58984375 16.78125 -2.58984375 16.78125 -1 15 C-0.04597474 9.98455291 0.04435587 5.09458821 0 0 Z " fill="#1F86BE" transform="translate(458,249)"/>
<path d="M0 0 C5.72046762 3.43228057 8.98616334 6.16125736 11.25 12.5 C10.96858118 16.43986343 10.61096196 16.85939334 7.8125 19.375 C5.03353081 21.56307258 3.59437616 22.10140596 0 23 C0 15.41 0 7.82 0 0 Z " fill="#0F3262" transform="translate(459,249)"/>
<path d="M0 0 C0 0.33 0 0.66 0 1 C-1.24652344 1.03738281 -2.49304688 1.07476562 -3.77734375 1.11328125 C-10.19184804 1.84018334 -15.08508475 4.95094362 -20.5625 8.1875 C-21.63717529 8.80520264 -22.71185059 9.42290527 -23.8190918 10.05932617 C-27.22337074 12.02187451 -30.6131897 14.00747485 -34 16 C-37.37506052 17.98109721 -40.75015424 19.96212421 -44.12670898 21.94067383 C-46.21605461 23.16827847 -48.30165664 24.4022818 -50.38305664 25.64331055 C-51.32528076 26.20058838 -52.26750488 26.75786621 -53.23828125 27.33203125 C-54.06368408 27.82421143 -54.88908691 28.3163916 -55.73950195 28.82348633 C-57.84927913 29.92155482 -59.6761659 30.54509773 -62 31 C-60.74327861 27.22983584 -59.70437669 26.99288597 -56.27734375 25.13671875 C-55.27533936 24.58580566 -54.27333496 24.03489258 -53.2409668 23.46728516 C-52.69589478 23.17362061 -52.69589478 23.17362061 -49.9375 21.6875 C-47.64946132 20.44170017 -45.36304353 19.19291954 -43.078125 17.94140625 C-42.49222092 17.62097351 -41.90631683 17.30054077 -41.30265808 16.97039795 C-37.26892383 14.74735358 -33.33483599 12.39657071 -29.421875 9.96484375 C-28.37394775 9.32135986 -27.32602051 8.67787598 -26.24633789 8.01489258 C-24.25859919 6.78677499 -22.2829051 5.5388669 -20.32202148 4.26831055 C-13.40778456 0.04371968 -8.04733695 -0.77647426 0 0 Z " fill="#035197" transform="translate(414,298)"/>
<path d="M0 0 C0 0.99 0 1.98 0 3 C-1.86987305 4.43530273 -1.86987305 4.43530273 -4.51171875 5.93359375 C-5.48778076 6.49481934 -6.46384277 7.05604492 -7.46948242 7.63427734 C-8.53142822 8.22934082 -9.59337402 8.8244043 -10.6875 9.4375 C-11.76427002 10.05061035 -12.84104004 10.6637207 -13.95043945 11.29541016 C-16.18870103 12.56949499 -18.42922102 13.83961973 -20.671875 15.10595703 C-23.83123201 16.90395378 -26.96573699 18.73797384 -30.09375 20.58984375 C-31.03774658 21.14422119 -31.98174316 21.69859863 -32.9543457 22.26977539 C-34.74346874 23.32055555 -36.52864621 24.37808987 -38.30932617 25.44311523 C-38.71397095 25.67808716 -38.71397095 25.67808716 -40.76171875 26.8671875 C-41.46256592 27.28081543 -42.16341309 27.69444336 -42.88549805 28.12060547 C-45.38426414 29.15981058 -47.31946574 29.15986583 -50 29 C-46.86152469 26.52949513 -43.586206 24.53446351 -40.1171875 22.55859375 C-39.54930511 22.234319 -38.98142273 21.91004425 -38.39633179 21.57594299 C-36.55745442 20.52701736 -34.71631714 19.48213589 -32.875 18.4375 C-31.61158106 17.71822644 -30.34823503 16.9988248 -29.08496094 16.27929688 C-19.42770737 10.78486117 -9.73446631 5.35653172 0 0 Z " fill="#2090CC" transform="translate(449,269)"/>
<path d="M0 0 C-15.58501101 9.14731885 -31.24105612 18.15560401 -47 27 C-47.33 26.01 -47.66 25.02 -48 24 C-47.63555786 23.79898682 -47.63555786 23.79898682 -45.79125977 22.78173828 C-43.00294392 21.24231211 -40.21567573 19.70101105 -37.42922974 18.15820312 C-36.18788893 17.47114213 -34.94625202 16.78461583 -33.70431519 16.09863281 C-27.60717207 12.72923003 -21.51958781 9.35606302 -15.5625 5.7421875 C-14.7883374 5.27280762 -14.0141748 4.80342773 -13.21655273 4.31982422 C-11.81340799 3.46009391 -10.41666613 2.5897967 -9.02758789 1.70751953 C-5.53220222 -0.43568334 -3.90717237 -1.29551103 0 0 Z " fill="#0257A4" transform="translate(400,300)"/>
</svg>
