<?xml version="1.0" encoding="UTF-8"?>
<!-- Generator: visioncortex VTracer 0.6.12 -->
<svg version="1.1" xmlns="http://www.w3.org/2000/svg" width="512" height="512">
<path d="M0 0 C2.33271117 -0.00434172 4.6634753 -0.04067247 6.99584961 -0.07861328 C36.92449721 -0.30320555 64.363136 12.93727952 85.54858398 33.68310547 C106.15718234 54.54246878 116.11203073 81.82861153 116.08911133 110.83764648 C116.09510867 112.36669743 116.10191696 113.89574536 116.10946655 115.42478943 C116.12701535 119.5491985 116.13181732 123.67352439 116.13309813 127.7979672 C116.13452711 130.38469301 116.13881084 132.97139817 116.14409256 135.55811882 C116.16255911 144.61094359 116.17076779 153.66370975 116.16918945 162.71655273 C116.16799037 171.10814592 116.18905562 179.49948096 116.22067678 187.89100891 C116.24697791 195.13307781 116.25755093 202.37506315 116.25627863 209.61717933 C116.25577286 213.92578766 116.26123942 218.23416647 116.28263474 222.54272652 C116.43688977 255.94009902 112.14859484 285.67476663 88.79858398 311.37060547 C88.3282373 311.89009766 87.85789062 312.40958984 87.37329102 312.94482422 C67.3703602 334.75442959 39.81943544 347.7696739 10.22729492 349.52294922 C-21.27270591 350.70938993 -51.69778098 341.39439332 -75.09204102 319.85498047 C-94.09367602 301.75840969 -108.91398066 276.66004071 -110.39338303 249.89796257 C-110.47433622 245.89922628 -110.49510312 241.90286964 -110.49194336 237.90356445 C-110.49794071 236.37451351 -110.50474899 234.84546557 -110.51229858 233.31642151 C-110.52984738 229.19201244 -110.53464935 225.06768655 -110.53593016 220.94324374 C-110.53735914 218.35651793 -110.54164287 215.76981276 -110.54692459 213.18309212 C-110.56539114 204.13026735 -110.57359982 195.07750118 -110.57202148 186.0246582 C-110.5708224 177.63306502 -110.59188765 169.24172998 -110.62350881 160.85020202 C-110.64980995 153.60813313 -110.66038296 146.36614779 -110.65911067 139.1240316 C-110.65860489 134.81542327 -110.66407146 130.50704447 -110.68546677 126.19848442 C-110.85788012 88.86970049 -104.31962393 58.86779241 -77.51391602 31.30810547 C-63.15817434 17.07117624 -44.89155904 7.07964835 -25.20141602 2.37060547 C-24.87540405 2.28375488 -24.87540405 2.28375488 -23.22558594 1.84423828 C-15.55088001 0.01424783 -7.8433018 -0.00162572 0 0 Z M-67.51391602 52.74560547 C-79.81617581 67.30587497 -88.37002779 86.43453547 -88.24511719 105.6484375 C-88.23880783 106.9077005 -88.23249847 108.1669635 -88.22599792 109.46438599 C-88.21788589 110.42343842 -88.20977386 111.38249084 -88.20141602 112.37060547 C-87.84365334 112.37353859 -87.84365334 112.37353859 -86.03315735 112.38838196 C-79.27979175 112.44636011 -72.52674066 112.51846583 -65.77369404 112.60632038 C-62.30211536 112.6509892 -58.83065307 112.69025254 -55.35888672 112.71704102 C-51.36469041 112.74810002 -47.37112233 112.80288735 -43.37719727 112.85888672 C-42.13432449 112.86527664 -40.89145172 112.87166656 -39.61091614 112.87825012 C-38.45009018 112.89804428 -37.28926422 112.91783844 -36.09326172 112.93823242 C-35.07400101 112.94933548 -34.0547403 112.96043854 -33.0045929 112.97187805 C-29.72550113 113.4383002 -27.85789396 114.41602439 -25.20141602 116.37060547 C-22.71755542 120.09639636 -22.82099481 121.95771949 -23.20141602 126.37060547 C-24.53447703 129.52785525 -25.36789831 130.95703079 -28.45219421 132.48739624 C-31.44307949 133.44824177 -33.86415781 133.64771512 -37.00146484 133.68945312 C-38.14227005 133.70932281 -39.28307526 133.7291925 -40.45845032 133.74966431 C-41.06894981 133.75543991 -41.06894981 133.75543991 -44.15844727 133.78466797 C-44.78749718 133.79435104 -44.78749718 133.79435104 -47.97087097 133.84335327 C-51.30315921 133.89293624 -54.63533932 133.93423645 -57.96777344 133.97149658 C-61.37322841 134.01162171 -64.77851792 134.06267507 -68.18383789 134.11279297 C-74.85626635 134.20878048 -81.52875135 134.29283622 -88.20141602 134.37060547 C-88.20141602 140.64060547 -88.20141602 146.91060547 -88.20141602 153.37060547 C-86.47060791 153.38518799 -84.7397998 153.39977051 -82.95654297 153.41479492 C-77.22875544 153.46650553 -71.50123006 153.53180733 -65.77369404 153.60632038 C-62.30211536 153.6509892 -58.83065307 153.69025254 -55.35888672 153.71704102 C-51.36469041 153.74810002 -47.37112233 153.80288735 -43.37719727 153.85888672 C-42.75576088 153.86208168 -42.75576088 153.86208168 -39.61091614 153.87825012 C-39.03050316 153.8881472 -39.03050316 153.8881472 -36.09326172 153.93823242 C-35.58363136 153.94378395 -35.58363136 153.94378395 -33.0045929 153.97187805 C-29.72550113 154.4383002 -27.85789396 155.41602439 -25.20141602 157.37060547 C-22.71755542 161.09639636 -22.82099481 162.95771949 -23.20141602 167.37060547 C-24.32641602 170.18310547 -24.32641602 170.18310547 -26.20141602 172.37060547 C-30.22742969 174.00361741 -33.69681607 174.63072402 -38.02319336 174.68945312 C-39.14390228 174.70932281 -40.26461121 174.7291925 -41.41928101 174.74966431 C-42.61324493 174.76121552 -43.80720886 174.77276672 -45.03735352 174.78466797 C-45.65459793 174.79435104 -45.65459793 174.79435104 -48.77822876 174.84335327 C-52.71088814 174.90300644 -56.64357701 174.9494781 -60.57641602 174.99560547 C-63.24702054 175.0327309 -65.91756966 175.07285072 -68.58813477 175.11279297 C-75.12579623 175.20869656 -81.66351535 175.29278085 -88.20141602 175.37060547 C-88.20141602 181.64060547 -88.20141602 187.91060547 -88.20141602 194.37060547 C-87.32086548 194.37527832 -87.32086548 194.37527832 -82.86474609 194.39892578 C-77.03714467 194.43448896 -71.20986453 194.48830976 -65.38254261 194.55450821 C-61.85038749 194.59396831 -58.31848109 194.62616351 -54.78613281 194.64160156 C-50.72233254 194.65968388 -46.65946131 194.70964066 -42.59594727 194.76123047 C-41.96357399 194.76184479 -41.96357399 194.76184479 -38.76338196 194.76495361 C-37.58253525 194.78467224 -36.40168854 194.80439087 -35.18505859 194.82470703 C-34.14803299 194.83358948 -33.11100739 194.84247192 -32.04255676 194.85162354 C-28.48332582 195.50177667 -26.79216279 196.89544494 -24.20141602 199.37060547 C-22.66926714 202.43490323 -22.97203054 204.98716967 -23.20141602 208.37060547 C-24.32641602 211.18310547 -24.32641602 211.18310547 -26.20141602 213.37060547 C-30.22742969 215.00361741 -33.69681607 215.63072402 -38.02319336 215.68945312 C-39.14390228 215.70932281 -40.26461121 215.7291925 -41.41928101 215.74966431 C-42.61324493 215.76121552 -43.80720886 215.77276672 -45.03735352 215.78466797 C-45.65459793 215.79435104 -45.65459793 215.79435104 -48.77822876 215.84335327 C-52.71088814 215.90300644 -56.64357701 215.9494781 -60.57641602 215.99560547 C-63.24702054 216.0327309 -65.91756966 216.07285072 -68.58813477 216.11279297 C-75.12578716 216.20869643 -81.66351304 216.29378575 -88.20141602 216.37060547 C-88.91873971 248.59223408 -86.69856099 275.10013771 -63.67016602 299.89404297 C-45.68146423 317.93967103 -22.76888947 327.0637935 2.54858398 327.68310547 C27.53259012 327.53872402 51.09999336 318.07063131 68.86499023 300.46044922 C83.76009241 285.06386092 94.05298666 263.99285481 93.89624023 242.34716797 C93.89482529 241.60099213 93.89341034 240.85481628 93.89195251 240.08602905 C93.88639272 237.72251228 93.87384788 235.3590932 93.86108398 232.99560547 C93.85606378 231.38492976 93.85150179 229.77425256 93.84741211 228.16357422 C93.83643649 224.23254748 93.81919994 220.30159299 93.79858398 216.37060547 C93.112556 216.36473923 92.42652802 216.35887299 91.7197113 216.35282898 C84.56531337 216.28878625 77.41136072 216.20433786 70.25732422 216.1081543 C67.58898988 216.07331647 64.92095008 216.04690221 62.25244141 216.02416992 C58.41205256 215.99055132 54.57229896 215.93822905 50.73217773 215.88232422 C50.13777641 215.87912926 50.13777641 215.87912926 47.12974548 215.86296082 C40.97366802 215.75422376 36.16475578 215.5246326 30.79858398 212.37060547 C28.13084792 208.36900137 28.08379585 205.07629399 28.79858398 200.37060547 C30.67479012 197.86899729 32.03749702 196.75114895 34.79858398 195.37060547 C36.67703307 195.2507829 38.55959229 195.19331386 40.44165039 195.1652832 C41.62272369 195.14533798 42.803797 195.12539276 44.0206604 195.10484314 C44.6607756 195.09648689 44.6607756 195.09648689 47.90014648 195.05419922 C49.20688324 195.03341812 50.51362 195.01263702 51.85995483 194.9912262 C55.33527298 194.93601253 58.81065051 194.88660021 62.28607178 194.83837891 C65.83196298 194.78815869 69.37776788 194.73247535 72.92358398 194.67724609 C79.8818441 194.56967317 86.8401843 194.46873108 93.79858398 194.37060547 C93.79858398 188.10060547 93.79858398 181.83060547 93.79858398 175.37060547 C92.13359863 175.35078613 90.46861328 175.3309668 88.75317383 175.31054688 C82.56942756 175.23441227 76.38591417 175.14570637 70.20239258 175.05322266 C67.52727278 175.01389458 64.85224572 174.98010779 62.17700195 174.94873047 C58.32932367 174.90300982 54.48199459 174.84502553 50.63452148 174.78466797 C49.44055756 174.77311676 48.24659363 174.76156555 47.01644897 174.74966431 C45.89574005 174.72979462 44.77503113 174.70992493 43.62036133 174.68945312 C42.63885101 174.67612946 41.6573407 174.66280579 40.64608765 174.64907837 C36.62139127 174.25548138 33.06465955 173.42566844 29.92358398 170.80810547 C28.1858634 167.04304421 28.10301756 163.43929507 28.79858398 159.37060547 C30.67479012 156.86899729 32.03749702 155.75114895 34.79858398 154.37060547 C36.67703307 154.2507829 38.55959229 154.19331386 40.44165039 154.1652832 C41.62272369 154.14533798 42.803797 154.12539276 44.0206604 154.10484314 C44.6607756 154.09648689 44.6607756 154.09648689 47.90014648 154.05419922 C49.20688324 154.03341812 50.51362 154.01263702 51.85995483 153.9912262 C55.33527298 153.93601253 58.81065051 153.88660021 62.28607178 153.83837891 C65.83196298 153.78815869 69.37776788 153.73247535 72.92358398 153.67724609 C79.8818441 153.56967317 86.8401843 153.46873108 93.79858398 153.37060547 C93.79858398 147.10060547 93.79858398 140.83060547 93.79858398 134.37060547 C92.09806885 134.35078613 90.39755371 134.3309668 88.64550781 134.31054688 C83.01755328 134.24268708 77.38976748 134.16590503 71.76201344 134.08307838 C68.35098627 134.03320143 64.93998878 133.98687106 61.52880859 133.94873047 C57.60423529 133.90469242 53.67997207 133.84507628 49.75561523 133.78466797 C48.53461624 133.77311676 47.31361725 133.76156555 46.05561829 133.74966431 C44.91481308 133.72979462 43.77400787 133.70992493 42.59863281 133.68945312 C41.59713699 133.67612946 40.59564117 133.66280579 39.563797 133.64907837 C35.77123496 133.2671455 32.88393332 132.30625145 29.98608398 129.80810547 C28.15898129 126.05773679 28.09960107 122.45927972 28.79858398 118.37060547 C30.67479012 115.86899729 32.03749702 114.75114895 34.79858398 113.37060547 C36.67703307 113.2507829 38.55959229 113.19331386 40.44165039 113.1652832 C41.62272369 113.14533798 42.803797 113.12539276 44.0206604 113.10484314 C45.30089081 113.08813065 46.58112122 113.07141815 47.90014648 113.05419922 C49.20688324 113.03341812 50.51362 113.01263702 51.85995483 112.9912262 C55.33527298 112.93601253 58.81065051 112.88660021 62.28607178 112.83837891 C65.83196298 112.78815869 69.37776788 112.73247535 72.92358398 112.67724609 C79.88184249 112.56967319 86.84017894 112.4682263 93.79858398 112.37060547 C93.81753659 110.12991562 93.83105824 107.88917938 93.84228516 105.6484375 C93.85039719 104.40063507 93.85850922 103.15283264 93.86686707 101.86721802 C93.45819443 80.94007432 81.09447947 60.02003707 66.3215332 45.76123047 C50.88928409 31.66984044 29.79015135 22.23430144 8.79858398 21.37060547 C8.35063477 21.350625 8.35063477 21.350625 6.08374023 21.24951172 C-22.55315642 20.60979129 -48.02480669 32.12340839 -67.51391602 52.74560547 Z " fill="#000000" transform="translate(253.201416015625,-0.37060546875)"/>
<path d="M0 0 C2.8100346 1.79363911 4.50940468 3.01880935 6 6 C6.10523452 8.05918098 6.14606146 10.12175844 6.15771484 12.18359375 C6.16797699 13.48675537 6.17823914 14.78991699 6.18881226 16.13256836 C6.19225018 16.83284149 6.1956881 17.53311462 6.19923019 18.25460815 C6.21106314 20.46092553 6.23053843 22.66705097 6.25234985 24.87329102 C6.31373617 31.14853238 6.36749623 37.42376407 6.40136719 43.69921875 C6.59366008 77.42338529 6.59366008 77.42338529 10 92 C10.07459442 92.32954178 10.07459442 92.32954178 10.4520874 93.9972229 C18.30010501 128.55902801 40.13127021 160.44412112 69.9375 179.75 C72.26905668 181.20669384 74.62636416 182.6131055 77 184 C77.59393555 184.35046387 78.18787109 184.70092773 78.79980469 185.06201172 C112.57407047 204.74400594 152.2265003 208.24189496 189.72265625 198.5390625 C209.93625969 192.90789164 228.06510595 182.4746617 244 169 C244.86625 168.27554688 245.7325 167.55109375 246.625 166.8046875 C264.3941392 151.49681421 277.02329103 130.85856368 285 109 C285.38027344 107.98164063 285.76054687 106.96328125 286.15234375 105.9140625 C291.35452553 91.26943003 293.12285631 76.35120233 293.19923019 60.89885902 C293.21114583 58.69983472 293.23062391 56.50099588 293.25234985 54.30204773 C293.3135808 48.05583861 293.3681022 41.80965867 293.40136719 35.56323242 C293.42232885 31.72832555 293.4576255 27.89377531 293.50212479 24.05907249 C293.51625272 22.60350932 293.52499998 21.14788328 293.52817917 19.69225502 C293.53309653 17.65844719 293.55787971 15.6247169 293.58349609 13.59106445 C293.58753952 13.0135569 293.58753952 13.0135569 293.60800171 10.09101868 C294.04667016 6.63199246 294.9175905 4.77374742 297 2 C300.7373856 -0.4915904 302.57331583 -0.45793285 307 0 C309.75329021 1.79562405 311.52627461 3.05254922 313 6 C313.10704332 8.04323185 313.14888085 10.08998912 313.16113281 12.13598633 C313.17074036 13.42946487 313.1803479 14.72294342 313.19024658 16.05561829 C313.19510296 17.48108747 313.1993797 18.90655872 313.203125 20.33203125 C313.20595238 21.05420019 313.20877975 21.77636913 313.21169281 22.52042198 C313.22672341 26.36363466 313.23592046 30.20680964 313.24023438 34.05004883 C313.24457431 37.19112046 313.25828266 40.33191047 313.28125 43.47290039 C313.43180956 64.48254707 313.50342604 85.37805776 307.3125 105.6875 C307.05831299 106.54432373 306.80412598 107.40114746 306.54223633 108.28393555 C300.54843251 127.72567513 290.83458244 146.22415909 278 162 C277.77376953 162.279646 277.77376953 162.279646 276.62890625 163.69482422 C254.14567785 191.30380218 222.22220282 212.65600161 187 220 C185.35 220 183.7 220 182 220 C182 241.45 182 262.9 182 285 C186.80433594 284.97679687 191.60867188 284.95359375 196.55859375 284.9296875 C199.61654192 284.91945897 202.67446876 284.90983036 205.73242188 284.90234375 C210.5777631 284.89042463 215.42302817 284.87637972 220.26831055 284.84912109 C224.17812493 284.82726485 228.08785755 284.81540463 231.99772835 284.81024551 C233.48353422 284.80657257 234.96933602 284.79940069 236.45510674 284.78853989 C249.45218677 284.69737923 260.46526427 285.51662274 270.6875 294.3125 C282.70940996 308.28390887 282 315.96866679 282 337 C194.22 337 106.44 337 16 337 C16 306.78607294 16 306.78607294 27.09765625 294.8203125 C37.65196105 284.72112146 51.4175585 284.55582856 65.265625 284.70703125 C66.79546691 284.71264134 68.3253143 284.71690474 69.85516357 284.71989441 C73.84018395 284.73123219 77.82486511 284.76060082 81.80975342 284.79400635 C86.6131947 284.83040971 91.41675077 284.84392123 96.22029114 284.86136627 C103.48042847 284.89024748 110.73982466 284.94781024 118 285 C118 263.55 118 242.1 118 220 C115.03 219.67 112.06 219.34 109 219 C106.3203125 218.37084961 106.3203125 218.37084961 104.125 217.65234375 C103.70931763 217.51675049 103.70931763 217.51675049 101.60571289 216.83056641 C101.17577026 216.68321045 101.17577026 216.68321045 99 215.9375 C98.54395386 215.78240967 98.54395386 215.78240967 96.23608398 214.99755859 C67.16971922 204.85383029 40.74766624 186.54555562 22 162 C21.26265625 161.07832031 20.5253125 160.15664063 19.765625 159.20703125 C7.39899538 143.40759583 -1.61601695 124.88943255 -7.3125 105.6875 C-7.54283936 104.93186768 -7.77317871 104.17623535 -8.01049805 103.39770508 C-13.68676093 83.04023089 -13.44572183 62.20410483 -13.3225708 41.26898193 C-13.30899273 38.12553544 -13.31434238 34.98222952 -13.31969929 31.83876705 C-13.32303548 28.7958689 -13.31642144 25.75305806 -13.30657005 22.71017647 C-13.30273726 21.26491311 -13.30156182 19.81964005 -13.3031559 18.37437248 C-13.30352674 16.37057154 -13.28942611 14.36678366 -13.2746582 12.36303711 C-13.27005081 11.22724716 -13.26544342 10.09145721 -13.26069641 8.92124939 C-13.00154035 6.01726051 -12.62347966 4.39611365 -11 2 C-7.31502204 -0.45665197 -4.28028214 -0.70086491 0 0 Z M141 223 C141 243.46 141 263.92 141 285 C146.94 285 152.88 285 159 285 C159 264.54 159 244.08 159 223 C153.06 223 147.12 223 141 223 Z M41 313 C40.67 313.99 40.34 314.98 40 316 C111.94 316 183.88 316 258 316 C255.82725308 310.5681327 255.04316694 309.55404856 250 307 C247.08882755 306.61748635 244.56095559 306.44986507 241.65687561 306.47860718 C240.83181045 306.47095608 240.00674528 306.46330499 239.15667814 306.45542204 C236.39984503 306.43483084 233.64385039 306.44273227 230.88696289 306.45068359 C228.90730521 306.44198677 226.92765426 306.43161961 224.94801331 306.41970825 C219.57609318 306.39293402 214.20445452 306.3917701 208.83248067 306.39683485 C204.34679889 306.39897454 199.86117402 306.38920696 195.37550443 306.37962401 C184.79301757 306.35743597 174.2106727 306.35655779 163.62817383 306.36865234 C152.71258338 306.38073576 141.79750827 306.35610005 130.88200575 306.31351221 C121.50772187 306.27828306 112.13360205 306.26627692 102.7592544 306.27278769 C97.1614588 306.27641399 91.56403088 306.27113541 85.96629524 306.24335861 C80.7022865 306.21821492 75.43908141 306.22207626 70.17508507 306.24818039 C68.2445613 306.25291393 66.31398108 306.24743503 64.38352203 306.23093414 C61.74478551 306.21000748 59.10874803 306.22618328 56.47010803 306.2515564 C55.70861908 306.23680783 54.94713014 306.22205926 54.16256577 306.20686376 C48.30942797 306.32503687 44.77046519 308.52698971 41 313 Z " fill="#000000" transform="translate(106,175)"/>
</svg>
