<?xml version="1.0" encoding="UTF-8"?>
<!-- Generator: visioncortex VTracer 0.6.12 -->
<svg version="1.1" xmlns="http://www.w3.org/2000/svg" width="512" height="512">
<path d="M0 0 C0.845625 0.26683594 1.69125 0.53367188 2.5625 0.80859375 C19.04473937 6.60313103 30.49534685 19.75298976 38 35 C44.99833927 51.2215841 45.2206453 69.46715401 39 86 C32.39922445 101.58715749 20.65492473 114.13341473 5.02587891 120.84814453 C-3.7324879 124.25642599 -12.25884859 126.14731633 -21.6875 126.125 C-22.78449219 126.12757813 -23.88148438 126.13015625 -25.01171875 126.1328125 C-28 126 -28 126 -32 125 C-32 135.56 -32 146.12 -32 157 C-30.76860291 156.99555878 -30.76860291 156.99555878 -24.5369873 156.9730835 C-1.34686063 156.89135698 21.84324705 156.8318225 45.03348541 156.79275131 C56.95630073 156.77212953 68.87901034 156.7440161 80.80175781 156.69824219 C91.1940949 156.65836287 101.58635544 156.6325644 111.97876692 156.62364602 C117.48106329 156.61843317 122.98314066 156.60618877 128.48536682 156.57707977 C133.66621023 156.54989355 138.84674477 156.54156158 144.02765274 156.54756927 C145.92712712 156.54647048 147.82661202 156.53853581 149.72602463 156.5231781 C152.32476558 156.50319984 154.92234896 156.50808907 157.52111816 156.51898193 C158.2682232 156.50733057 159.01532823 156.4956792 159.7850728 156.48367476 C166.71164258 156.5618513 171.86901803 158.91637318 176.8125 163.75 C181.38141349 170.53810004 182.44671076 176.47015507 182.40405273 184.45092773 C182.40748436 184.90602974 182.40748436 184.90602974 182.42485046 187.2091217 C182.44306016 190.20077395 182.43928595 193.19189825 182.43359375 196.18359375 C182.43816143 198.28377958 182.44346874 200.38396392 182.44947815 202.48414612 C182.45840025 206.8845934 182.45599997 211.28485916 182.44604492 215.68530273 C182.43461274 221.27968414 182.454683 226.87342889 182.48396206 232.46772671 C182.50246681 236.80823144 182.50200246 241.14858803 182.49632454 245.48912239 C182.49617276 247.54885812 182.50209627 249.60860485 182.51461601 251.66830254 C182.63317055 274.38707861 179.23508943 293.62794947 162.6875 310.41015625 C150.25830286 322.38771105 134.94057989 328.61903432 117.6875 328.4375 C116.68710693 328.43137695 115.68671387 328.42525391 114.65600586 328.41894531 C103.27310425 328.17994391 94.0668574 325.21333679 84 320 C83.67128906 321.10214844 83.34257812 322.20429688 83.00390625 323.33984375 C73.93348393 352.70203129 56.57644758 376.05670267 29.44921875 391.3046875 C1.92524244 404.8328933 -28.4905332 407.16090821 -57.625 397.3125 C-70.24812175 392.7615211 -81.05145329 386.04032264 -91 377 C-91.51949219 376.52965332 -92.03898438 376.05930664 -92.57421875 375.57470703 C-112.23523071 357.54238342 -123.68784437 334.22091081 -128 308 C-129.26009888 307.99635437 -130.52019775 307.99270874 -131.81848145 307.98895264 C-143.70678879 307.95197534 -155.59483776 307.89417236 -167.4829483 307.81609726 C-173.59443723 307.77662622 -179.70578215 307.74443569 -185.81738281 307.72900391 C-191.71791844 307.71383519 -197.61805814 307.67938496 -203.51841736 307.63169098 C-205.76696833 307.61687956 -208.01557582 307.60895913 -210.26417542 307.60811615 C-213.41938245 307.60574412 -216.57349743 307.57864392 -219.72851562 307.54589844 C-220.65352875 307.5509288 -221.57854187 307.55595917 -222.53158569 307.56114197 C-230.07161978 307.44045844 -235.38351594 305.55833997 -240.8125 300.25 C-244.90042961 294.17650458 -246.37384672 288.70455353 -246.38768005 281.34768677 C-246.39306559 280.62103471 -246.39845113 279.89438265 -246.40399987 279.14571083 C-246.41819901 276.73384497 -246.41119597 274.32253424 -246.40405273 271.91064453 C-246.40976057 270.17201296 -246.41672643 268.43338514 -246.42485046 266.69476318 C-246.44275236 261.98804971 -246.44161895 257.28152297 -246.43590808 252.57478571 C-246.43281161 248.63855336 -246.43891385 244.70235664 -246.44494683 240.76612937 C-246.458981 231.47605464 -246.45744027 222.18607188 -246.44604492 212.89599609 C-246.43456753 203.32790322 -246.44863555 193.76009077 -246.4754414 184.19203484 C-246.49762985 175.96246597 -246.50422861 167.73298493 -246.49836498 159.50338829 C-246.4950014 154.59474144 -246.4973705 149.68627429 -246.51461601 144.77765274 C-246.53013302 140.15968741 -246.52607705 135.54213597 -246.50731087 130.92418671 C-246.50363797 129.23519594 -246.50669533 127.54617418 -246.51719666 125.85721207 C-246.63064872 106.09220175 -246.63064872 106.09220175 -240.25000668 99.07557869 C-235.22376065 94.38271066 -230.50912427 92.74812696 -223.6282196 92.75949097 C-222.34239487 92.75674164 -221.05657013 92.75399231 -219.73178101 92.75115967 C-218.31426908 92.75823707 -216.8967581 92.76550667 -215.47924805 92.77294922 C-213.98099271 92.77351359 -212.48273682 92.77319626 -210.98448181 92.77206421 C-206.92287538 92.77149071 -202.86138723 92.78324451 -198.79980826 92.79721212 C-194.55305313 92.80971999 -190.30629525 92.81089003 -186.05952454 92.81326294 C-178.02024034 92.81947754 -169.98101058 92.8358881 -161.94175035 92.85596192 C-152.78824909 92.87832153 -143.63474523 92.88931451 -134.48122346 92.89935279 C-115.65411812 92.92025433 -96.82706344 92.95542994 -78 93 C-78.27701248 92.45408707 -78.55402496 91.90817413 -78.83943176 91.34571838 C-79.20155258 90.6277861 -79.5636734 89.90985382 -79.93676758 89.17016602 C-80.11652382 88.81470955 -80.11652382 88.81470955 -81.02619934 87.0158844 C-88.45044783 71.64679776 -87.41464171 53.77416171 -82 38 C-74.93437114 20.18959825 -62.17225257 8.3525542 -44.91015625 0.79833984 C-31.00584946 -5.01289267 -14.17697495 -4.87333514 0 0 Z " fill="#4951B7" transform="translate(288,56)"/>
<path d="M0 0 C23.85241553 -0.09347093 47.70480358 -0.16399281 71.55736542 -0.20724869 C82.63270696 -0.22786762 93.70793466 -0.25597556 104.78320312 -0.30175781 C114.43721229 -0.34164591 124.091139 -0.36743767 133.74522829 -0.37635398 C138.85629262 -0.38156535 143.96712106 -0.39380026 149.07810974 -0.42292023 C153.89125179 -0.45012038 158.70406134 -0.45843566 163.51727295 -0.45243073 C165.28129383 -0.4535289 167.04532611 -0.46145535 168.8092804 -0.4768219 C187.2651017 -0.62967834 187.2651017 -0.62967834 194.8125 6.75 C199.38141349 13.53810004 200.44671076 19.47015507 200.40405273 27.45092773 C200.40748436 27.90602974 200.40748436 27.90602974 200.42485046 30.2091217 C200.44306016 33.20077395 200.43928595 36.19189825 200.43359375 39.18359375 C200.43816143 41.28377958 200.44346874 43.38396392 200.44947815 45.48414612 C200.45840025 49.8845934 200.45599997 54.28485916 200.44604492 58.68530273 C200.43461274 64.27968414 200.454683 69.87342889 200.48396206 75.46772671 C200.50246681 79.80823144 200.50200246 84.14858803 200.49632454 88.48912239 C200.49617276 90.54885812 200.50209627 92.60860485 200.51461601 94.66830254 C200.63317055 117.38707861 197.23508943 136.62794947 180.6875 153.41015625 C168.25830286 165.38771105 152.94057989 171.61903432 135.6875 171.4375 C134.68710693 171.43137695 133.68671387 171.42525391 132.65600586 171.41894531 C121.27310425 171.17994391 112.0668574 168.21333679 102 163 C101.83564453 163.55107422 101.83564453 163.55107422 101.00390625 166.33984375 C91.93348393 195.70203129 74.57644758 219.05670267 47.44921875 234.3046875 C19.92524244 247.8328933 -10.4905332 250.16090821 -39.625 240.3125 C-52.24812175 235.7615211 -63.05145329 229.04032264 -73 220 C-73.51949219 219.52965332 -74.03898437 219.05930664 -74.57421875 218.57470703 C-88.15866513 206.11557554 -100.80678482 189.32170595 -105 171 C-104.0656311 170.99191315 -103.13126221 170.98382629 -102.1685791 170.97549438 C-93.34126648 170.89783952 -84.51410433 170.81005215 -75.68698883 170.71247292 C-71.1494296 170.66263471 -66.61189225 170.61630402 -62.07421875 170.578125 C-57.6909789 170.54111403 -53.30792785 170.49471214 -48.92485046 170.44193649 C-47.25684437 170.42347624 -45.58879793 170.40833776 -43.92073059 170.39665604 C-41.57521438 170.37964934 -39.23012272 170.35058165 -36.88476562 170.31884766 C-36.54381866 170.31776756 -36.54381866 170.31776756 -34.81842041 170.31230164 C-25.48844446 170.15217966 -17.11153485 167.42731365 -10.015625 161.28125 C-1.32947308 152.22389501 -0.40776369 141.57169101 -0.45410156 129.5324707 C-0.44534743 128.11213561 -0.43485529 126.69181034 -0.42277527 125.27149963 C-0.39511934 121.44987903 -0.39150602 117.62858346 -0.39249516 113.80687737 C-0.38934833 109.80031219 -0.36369362 105.79388964 -0.34051514 101.78739929 C-0.30008631 94.21583361 -0.27964543 86.64435378 -0.26654124 79.07269686 C-0.25062654 70.44616894 -0.21219229 61.81978618 -0.17194796 53.1933428 C-0.08972874 35.46227454 -0.03552457 17.73122025 0 0 Z " fill="#7A83EA" transform="translate(270,213)"/>
<path d="M0 0 C12.7697686 -0.09278153 25.53945668 -0.16380667 38.30949402 -0.20724869 C44.23949104 -0.2281013 50.16925702 -0.25637698 56.09912109 -0.30175781 C61.82442488 -0.34529773 67.54950677 -0.3691546 73.27496338 -0.37950897 C75.45659883 -0.38688566 77.63822248 -0.40129061 79.81976318 -0.42292023 C82.8814088 -0.4520619 85.94214371 -0.45595143 89.00390625 -0.45410156 C89.4523867 -0.46129211 89.4523867 -0.46129211 91.7219696 -0.49768066 C99.18909797 -0.44903226 104.44473472 1.50151839 109.8125 6.75 C114.38141349 13.53810004 115.44671076 19.47015507 115.40405273 27.45092773 C115.41091599 28.36113174 115.41777924 29.27133575 115.42485046 30.2091217 C115.44306016 33.20077395 115.43928595 36.19189825 115.43359375 39.18359375 C115.43816143 41.28377958 115.44346874 43.38396392 115.44947815 45.48414612 C115.45840025 49.8845934 115.45599997 54.28485916 115.44604492 58.68530273 C115.43461274 64.27968414 115.454683 69.87342889 115.48396206 75.46772671 C115.50246681 79.80823144 115.50200246 84.14858803 115.49632454 88.48912239 C115.49617276 90.54885812 115.50209627 92.60860485 115.51461601 94.66830254 C115.63317055 117.38707861 112.23508943 136.62794947 95.6875 153.41015625 C83.25900808 165.38703146 67.94009418 171.62047762 50.6875 171.4375 C50.18694092 171.43407593 50.18694092 171.43407593 47.65380859 171.41674805 C35.86365513 171.16267452 26.03670335 168.30552629 16 162 C16.16102203 160.7947316 16.32204407 159.5894632 16.48794556 158.34767151 C17.18262342 152.04980215 17.17122002 145.7673544 17.19287109 139.43725586 C17.20078946 138.08931781 17.20905942 136.7413818 17.21765137 135.39344788 C17.2436442 131.0005998 17.2591437 126.60774319 17.2734375 122.21484375 C17.27880424 120.69539448 17.28418175 119.17594524 17.28956985 117.65649605 C17.31115416 111.33647832 17.32989153 105.01646294 17.34119225 98.69641781 C17.35744845 89.6689554 17.39071734 80.64192191 17.44759309 71.6146211 C17.48633264 65.24748835 17.50582893 58.88047023 17.51111281 52.51322275 C17.51475722 48.71788255 17.52668311 44.92300227 17.55921555 41.12779045 C17.58937237 37.55952162 17.59558168 33.99198945 17.58383179 30.42362022 C17.58350734 28.50002498 17.60791505 26.57647462 17.63320923 24.65304565 C17.581789 17.48786142 16.82519362 12.48922526 12 7 C9.90234375 5.1953125 9.90234375 5.1953125 7.9375 4.125 C7.28652344 3.75632813 6.63554687 3.38765625 5.96484375 3.0078125 C3.98326245 1.99141493 1.99258769 0.99460938 0 0 Z " fill="#5059C9" transform="translate(355,213)"/>
<path d="M0 0 C0.4228125 0.13341797 0.4228125 0.13341797 2.5625 0.80859375 C19.04473937 6.60313103 30.49534685 19.75298976 38 35 C44.99833927 51.2215841 45.2206453 69.46715401 39 86 C32.39922445 101.58715749 20.65492473 114.13341473 5.02587891 120.84814453 C-3.7324879 124.25642599 -12.25884859 126.14731633 -21.6875 126.125 C-22.78449219 126.12757813 -23.88148438 126.13015625 -25.01171875 126.1328125 C-27.53170606 126.02081306 -29.60246277 125.73501141 -32 125 C-32.00128906 124.48050781 -32.00128906 124.48050781 -32.0078125 121.8515625 C-32.184989 113.1164463 -32.68077694 105.6853583 -39 99 C-44.39512601 95.20305283 -49.88612572 93.89048471 -56.41796875 93.68359375 C-57.67158203 93.64169922 -58.92519531 93.59980469 -60.21679688 93.55664062 C-61.52712891 93.51732422 -62.83746094 93.47800781 -64.1875 93.4375 C-65.52279978 93.39429008 -66.85808652 93.350675 -68.19335938 93.30664062 C-71.46213297 93.20043498 -74.73098333 93.09839003 -78 93 C-86.84479754 75.95371105 -88.41871962 58.23506585 -82.64160156 39.86914062 C-77.20024357 24.01714795 -66.04297505 11.24832616 -51.1875 3.6875 C-35.04138959 -4.1035799 -17.155695 -5.89727016 0 0 Z " fill="#7A83EB" transform="translate(288,56)"/>
<path d="M0 0 C8.2056933 6.85848992 13.78713429 15.21776645 16.09375 25.75 C16.97248891 40.28520594 15.64792044 52.10117921 6.09375 63.75 C-1.25908679 71.83373507 -11.19650197 77.27834483 -22.2265625 77.953125 C-36.48726375 78.12882152 -47.4215988 74.9412875 -58.15625 65.125 C-66.54387798 56.2449809 -70.47058827 44.4925403 -70.15234375 32.41796875 C-69.03310142 20.28396064 -64.23043273 10.05669324 -55.38671875 1.640625 C-38.89513837 -10.92933548 -17.07522577 -12.37335201 0 0 Z " fill="#4F58C8" transform="translate(431.90625,93.25)"/>
<path d="M0 0 C4.62 0 9.24 0 14 0 C14.09276297 18.58525116 14.16406376 37.17043652 14.20724869 55.75587177 C14.22783694 64.38623774 14.25588567 73.01645684 14.30175781 81.64672852 C14.34174047 89.1725804 14.36745996 96.69832586 14.37635398 104.22428101 C14.38154948 108.20590692 14.39368185 112.18722851 14.42292023 116.16875648 C14.45027053 119.92395243 14.45840592 123.67872155 14.45243073 127.43400764 C14.45403885 129.45371093 14.47545822 131.47336878 14.49768066 133.49295044 C14.44438283 145.38378585 11.83770597 154.19618277 3.50390625 162.83203125 C-4.34314993 169.62628426 -12.51495731 171.1664449 -22.65771484 171.11352539 C-23.39986237 171.11367142 -24.14200989 171.11381744 -24.90664673 171.1139679 C-27.34144083 171.11327539 -29.77615689 171.10551419 -32.2109375 171.09765625 C-33.90630044 171.09578972 -35.60166392 171.09436692 -37.29702759 171.09336853 C-41.74560044 171.08956189 -46.19414032 171.07974751 -50.6427002 171.06866455 C-55.18757684 171.05841051 -59.73245885 171.05386237 -64.27734375 171.04882812 C-73.18491027 171.0381235 -82.09245239 171.02106944 -91 171 C-91.65177969 168.81426438 -92.29614674 166.6263177 -92.9375 164.4375 C-93.29714844 163.21933594 -93.65679687 162.00117188 -94.02734375 160.74609375 C-94.96676959 157.12798381 -95.54743991 153.70146514 -96 150 C-95.04501617 149.99635437 -94.09003235 149.99270874 -93.10610962 149.98895264 C-84.07331163 149.95189115 -75.04085104 149.89399749 -66.00831032 149.81609726 C-61.36538984 149.77671384 -56.72265644 149.74448079 -52.07958984 149.72900391 C-47.59246799 149.71377683 -43.10586074 149.67922503 -38.61896896 149.63169098 C-36.91355252 149.61693927 -35.20806258 149.60896258 -33.50258255 149.60811615 C-15.01337278 149.58972388 -15.01337278 149.58972388 -8 145 C-2.68675108 139.5172916 -0.89189706 135.05869768 -0.84178162 127.4697876 C-0.8319928 126.34520645 -0.82220398 125.22062531 -0.81211853 124.06196594 C-0.80636307 122.83269882 -0.8006076 121.6034317 -0.79467773 120.33691406 C-0.78477814 119.03910507 -0.77487854 117.74129608 -0.76467896 116.40415955 C-0.73766826 112.8487443 -0.71663797 109.29331583 -0.69667697 105.73785496 C-0.67479373 102.02091125 -0.64741649 98.30400812 -0.62062073 94.58709717 C-0.57072544 87.55009989 -0.52577489 80.51308005 -0.48259836 73.47603869 C-0.43319893 65.46397972 -0.37829084 57.45196146 -0.32291877 49.43994188 C-0.20914731 32.95999856 -0.10249315 16.48001737 0 0 Z " fill="#6C74D0" transform="translate(256,213)"/>
<path d="M0 0 C28.71 0 57.42 0 87 0 C87 5.94 87 11.88 87 18 C76.11 18 65.22 18 54 18 C54 47.37 54 76.74 54 107 C46.74 107 39.48 107 32 107 C32 77.63 32 48.26 32 18 C21.44 18 10.88 18 0 18 C0 12.06 0 6.12 0 0 Z " fill="#FBFCFD" transform="translate(106,203)"/>
<path d="M0 0 C2.31 0 4.62 0 7 0 C7.09357129 19.51520387 7.1640418 39.03036201 7.20724869 58.54574394 C7.22784644 67.60772083 7.25591355 76.66955807 7.30175781 85.73144531 C7.34171114 93.63267747 7.36745306 101.53380845 7.37635398 109.43513882 C7.38155439 113.61625837 7.39371863 117.79708856 7.42292023 121.97811508 C7.45022391 125.91961875 7.4584151 129.86071596 7.45243073 133.80230522 C7.45352432 135.24297869 7.461389 136.68366682 7.4768219 138.12425804 C7.61486595 151.6838419 4.56706286 161.01716445 -4.77734375 170.875 C-13.21472091 178.88101841 -22.89874931 182.13305153 -34.3605957 182.11352539 C-35.08309006 182.11367142 -35.80558441 182.11381744 -36.54997253 182.1139679 C-38.92527322 182.11327422 -41.30049435 182.10550745 -43.67578125 182.09765625 C-45.32773292 182.09579013 -46.97968515 182.09436714 -48.63163757 182.09336853 C-52.97007792 182.08955861 -57.30848455 182.07974139 -61.64691162 182.06866455 C-66.07775415 182.0584176 -70.50860215 182.05386388 -74.93945312 182.04882812 C-83.62631752 182.03811771 -92.31315456 182.02105966 -101 182 C-102.32 178.37 -103.64 174.74 -105 171 C-104.0656311 170.99191315 -103.13126221 170.98382629 -102.1685791 170.97549438 C-93.34126648 170.89783952 -84.51410433 170.81005215 -75.68698883 170.71247292 C-71.1494296 170.66263471 -66.61189225 170.61630402 -62.07421875 170.578125 C-57.6909789 170.54111403 -53.30792785 170.49471214 -48.92485046 170.44193649 C-47.25684437 170.42347624 -45.58879793 170.40833776 -43.92073059 170.39665604 C-41.57521438 170.37964934 -39.23012272 170.35058165 -36.88476562 170.31884766 C-36.54381866 170.31776756 -36.54381866 170.31776756 -34.81842041 170.31230164 C-25.48844446 170.15217966 -17.11153485 167.42731365 -10.015625 161.28125 C-1.32947308 152.22389501 -0.40776369 141.57169101 -0.45410156 129.5324707 C-0.44534743 128.11213561 -0.43485529 126.69181034 -0.42277527 125.27149963 C-0.39511934 121.44987903 -0.39150602 117.62858346 -0.39249516 113.80687737 C-0.38934833 109.80031219 -0.36369362 105.79388964 -0.34051514 101.78739929 C-0.30008631 94.21583361 -0.27964543 86.64435378 -0.26654124 79.07269686 C-0.25062654 70.44616894 -0.21219229 61.81978618 -0.17194796 53.1933428 C-0.08972874 35.46227454 -0.03552457 17.73122025 0 0 Z " fill="#747CDF" transform="translate(270,213)"/>
<path d="M0 0 C2.31 0 4.62 0 7 0 C7.14049066 17.91600456 7.24612727 35.83186512 7.31087303 53.74830246 C7.34174182 62.0682294 7.38378757 70.38781303 7.45263672 78.70751953 C7.51265391 85.96346793 7.55119981 93.21916755 7.56453097 100.47535729 C7.57231736 104.31355373 7.59046799 108.15103881 7.63438034 111.98900604 C7.67547619 115.61056807 7.68759606 119.23113411 7.67864609 122.85290718 C7.68105261 124.7973472 7.71314655 126.74168173 7.746521 128.68583679 C7.68195672 137.97020328 5.49483366 145.96905916 -0.81960487 153.03663254 C-6.76201461 158.64103143 -13.20553332 160.45877867 -21.23022461 160.34057617 C-22.02128601 160.34101425 -22.81234741 160.34145233 -23.62738037 160.34190369 C-26.21929364 160.33982828 -28.81054471 160.31655705 -31.40234375 160.29296875 C-33.20837552 160.28736834 -35.01441186 160.28310034 -36.82044983 160.28010559 C-41.55682115 160.26869185 -46.29291324 160.23925476 -51.0291748 160.20599365 C-55.86902083 160.17521772 -60.7089123 160.16158421 -65.54882812 160.14648438 C-75.03267427 160.11438155 -84.51631384 160.06322744 -94 160 C-94.33 158.35 -94.33 158.35 -96 150 C-95.04501617 149.99635437 -94.09003235 149.99270874 -93.10610962 149.98895264 C-84.07331163 149.95189115 -75.04085104 149.89399749 -66.00831032 149.81609726 C-61.36538984 149.77671384 -56.72265644 149.74448079 -52.07958984 149.72900391 C-47.59246799 149.71377683 -43.10586074 149.67922503 -38.61896896 149.63169098 C-36.91355252 149.61693927 -35.20806258 149.60896258 -33.50258255 149.60811615 C-15.01337278 149.58972388 -15.01337278 149.58972388 -8 145 C-2.68675108 139.5172916 -0.89189706 135.05869768 -0.84178162 127.4697876 C-0.8319928 126.34520645 -0.82220398 125.22062531 -0.81211853 124.06196594 C-0.80636307 122.83269882 -0.8006076 121.6034317 -0.79467773 120.33691406 C-0.78477814 119.03910507 -0.77487854 117.74129608 -0.76467896 116.40415955 C-0.73766826 112.8487443 -0.71663797 109.29331583 -0.69667697 105.73785496 C-0.67479373 102.02091125 -0.64741649 98.30400812 -0.62062073 94.58709717 C-0.57072544 87.55009989 -0.52577489 80.51308005 -0.48259836 73.47603869 C-0.43319893 65.46397972 -0.37829084 57.45196146 -0.32291877 49.43994188 C-0.20914731 32.9599988 -0.10229775 16.48001838 0 0 Z " fill="#626ABE" transform="translate(256,213)"/>
</svg>
