<?xml version="1.0" encoding="UTF-8"?>
<!-- Generator: visioncortex VTracer 0.6.12 -->
<svg version="1.1" xmlns="http://www.w3.org/2000/svg" width="512" height="512">
<path d="M0 0 C0.54666671 -0.0035328 0.54666671 -0.0035328 3.31313157 -0.02141088 C4.51389006 -0.0189958 5.71464856 -0.01658071 6.95179367 -0.01409245 C8.22771873 -0.01932912 9.50364379 -0.0245658 10.81823325 -0.02996117 C14.36246462 -0.04415433 17.90660835 -0.04580421 21.45086408 -0.04536426 C25.2724052 -0.04701132 29.09391009 -0.06007579 32.91543198 -0.07155704 C41.27290321 -0.09441516 49.63034907 -0.10232857 57.98784733 -0.10738349 C63.20619777 -0.11063966 68.42454084 -0.11716167 73.64288712 -0.12438488 C88.09070346 -0.1439521 102.53851294 -0.16035552 116.98634338 -0.16326141 C117.91105273 -0.16344898 118.83576207 -0.16363655 119.7884929 -0.16382981 C121.6631128 -0.16419606 123.5377327 -0.16455976 125.41235259 -0.16492092 C126.34291881 -0.16510373 127.27348502 -0.16528654 128.23225021 -0.16547489 C129.16395215 -0.16565544 130.09565408 -0.16583599 131.05558941 -0.16602201 C146.15256716 -0.16956366 161.24940227 -0.19658491 176.34633055 -0.23397278 C191.84575356 -0.27205028 207.34510578 -0.29141885 222.8445766 -0.29172093 C231.54712734 -0.29230563 240.24950795 -0.30080613 248.95201492 -0.32971859 C256.36244569 -0.35422508 263.77264428 -0.36152041 271.1831046 -0.34647106 C274.96344084 -0.33929898 278.74331854 -0.34017178 282.52360344 -0.36288166 C286.62410914 -0.38727901 290.72357039 -0.37284444 294.82410812 -0.35466862 C295.42002593 -0.3612686 295.42002593 -0.3612686 298.43573117 -0.39466852 C306.38339143 -0.31410467 311.3752481 1.19937619 317.15776658 6.70272928 C321.6947665 11.69264865 322.89039758 16.85076206 322.89918709 23.43928909 C322.90563598 24.66487355 322.91208487 25.890458 322.91872919 27.15318137 C322.91578721 28.5049149 322.9126518 29.85664802 322.90934372 31.2083807 C322.91308156 32.65082734 322.91768361 34.09327196 322.92307436 35.53571337 C322.93530325 39.49535587 322.93504403 43.45491386 322.93268561 47.41457093 C322.93227742 51.6866744 322.94331682 55.95875079 322.95280075 60.23084164 C322.969411 68.59910941 322.9749103 76.96734901 322.97602551 85.33563188 C322.97697595 92.13795246 322.98108605 98.94026374 322.98742676 105.74258137 C323.00503907 125.02968117 323.01426562 144.31675871 323.01276581 163.60386661 C323.0126859 164.64355814 323.01260599 165.68324966 323.01252365 166.75444698 C323.01244189 167.79540835 323.01236013 168.83636972 323.01227589 169.90887537 C323.01146294 186.78008624 323.03060281 203.65120785 323.05880038 220.52239291 C323.087527 237.8468528 323.10134081 255.17126915 323.09961283 272.49575347 C323.09894886 282.22164409 323.10444416 291.94744111 323.12596893 301.67331028 C323.14417777 309.95393372 323.14853049 318.23442114 323.13495009 326.51505593 C323.12841899 330.73898863 323.12830825 334.96266037 323.14565659 339.18656826 C323.16138621 343.05619389 323.15852511 346.92535161 323.14108832 350.79496583 C323.13801816 352.19197848 323.14165151 353.58902606 323.15280847 354.98599754 C323.21673811 363.56119163 323.06474987 371.60744797 316.86259973 378.13182288 C312.31542519 382.26953799 308.54960078 384.50798271 302.29945374 384.51733112 C301.75452872 384.52055557 301.75452872 384.52055557 298.99687791 384.53687322 C298.39844414 384.53532462 298.39844414 384.53532462 295.37000656 384.52748775 C294.09816505 384.53201887 292.82632354 384.53654998 291.51594138 384.5412184 C287.98310663 384.55346832 284.45036643 384.5531856 280.91751528 384.55082965 C277.1082478 384.55042198 273.29901084 384.56145595 269.48975754 384.57094479 C262.02526758 384.58756726 254.56080921 384.59305492 247.0963023 384.59416954 C241.02857404 384.59511954 234.96085622 384.59922741 228.89313126 384.60557079 C211.691975 384.62318752 194.49084371 384.63240913 177.28967836 384.63090985 C176.36209915 384.63082993 175.43451993 384.63075002 174.47883224 384.63066769 C173.55012093 384.63058593 172.62140961 384.63050416 171.66455552 384.63041992 C156.61609772 384.62960716 141.56774006 384.64874121 126.51931122 384.67694442 C111.06960927 384.70567126 95.61995615 384.71948479 80.17022681 384.71775687 C71.49565006 384.71709284 62.82117823 384.72259056 54.14662552 384.74411297 C46.76000428 384.76232227 39.37353552 384.7666743 31.98690155 384.75309412 C28.21878009 384.74656281 24.45095117 384.74645278 20.68285751 384.76380062 C16.59560495 384.78242406 12.50903004 384.76998099 8.42176437 384.75453854 C7.23381972 384.76482566 6.04587506 384.77511279 4.82193208 384.78571165 C-2.87277065 384.72138923 -8.71505289 383.86161453 -14.41667557 378.22490597 C-14.87171463 377.55588253 -15.32675369 376.88685909 -15.79558182 376.19756222 C-16.26866776 375.52596066 -16.74175369 374.85435909 -17.22917557 374.16240597 C-19.54834095 370.25433143 -19.47959686 366.94394177 -19.47160721 362.4937048 C-19.47175323 361.81051678 -19.47189926 361.12732876 -19.47204971 360.42343807 C-19.47135351 358.16712415 -19.46357477 355.91089296 -19.45573807 353.65459347 C-19.45387285 352.08946433 -19.45244944 350.52433461 -19.45145035 348.95920467 C-19.44763333 344.84102928 -19.43781 340.72288919 -19.42674637 336.60472775 C-19.41651472 332.40195347 -19.41194897 328.19917349 -19.40690994 323.99639034 C-19.39618701 315.75093144 -19.37912036 307.50550122 -19.35808182 299.26006222 C-20.21728226 299.26894466 -21.0764827 299.27782711 -21.96171951 299.28697872 C-30.08248369 299.36732522 -38.20311321 299.42812822 -46.32418442 299.46731091 C-50.49874283 299.48813284 -54.67297115 299.51635073 -58.84733963 299.56182003 C-62.88036695 299.60547187 -66.91307796 299.62923985 -70.94632339 299.63957119 C-72.48044179 299.64692807 -74.01454404 299.66129414 -75.54852676 299.68298244 C-90.52924802 299.88625 -90.52924802 299.88625 -97.35808182 295.26006222 C-102.53904299 290.19423352 -105.01103531 284.66954739 -105.73839855 277.52372074 C-105.7396135 276.8775854 -105.7396135 276.8775854 -105.74576187 273.60774899 C-105.75114741 272.88109692 -105.75653295 272.15444486 -105.76208168 271.40577304 C-105.77628083 268.99390719 -105.76927779 266.58259646 -105.76213455 264.17070675 C-105.76784239 262.43207518 -105.77480824 260.69344736 -105.78293228 258.9548254 C-105.80083418 254.24811192 -105.79970077 249.54158519 -105.7939899 244.83484793 C-105.79089342 240.89861558 -105.79699567 236.96241886 -105.80302864 233.02619159 C-105.81706282 223.73611686 -105.81552209 214.4461341 -105.80412674 205.15605831 C-105.79264935 195.58796543 -105.80671737 186.02015298 -105.83352321 176.45209706 C-105.85571167 168.22252819 -105.86231042 159.99304715 -105.8564468 151.7634505 C-105.85308322 146.85480366 -105.85545232 141.94633651 -105.87269783 137.03771496 C-105.88821484 132.41974963 -105.88415887 127.80219819 -105.86539268 123.18424892 C-105.86171979 121.49525816 -105.86477715 119.8062364 -105.87527847 118.11727428 C-105.98873054 98.35226397 -105.98873054 98.35226397 -99.60808849 91.33564091 C-94.35523106 86.43119202 -89.53885065 85.00715855 -82.36467361 85.03301144 C-81.68119354 85.03271938 -80.99771347 85.03242733 -80.29352188 85.03212643 C-78.04798291 85.03351305 -75.80278115 85.04904235 -73.55730057 85.06474972 C-71.99503129 85.06848223 -70.43275967 85.07132808 -68.87048721 85.07332516 C-64.76873123 85.08094287 -60.66711802 85.10057525 -56.56541824 85.12273312 C-52.37588304 85.14323175 -48.18632465 85.15233545 -43.99675369 85.16240597 C-35.78379772 85.183823 -27.57095756 85.21793633 -19.35808182 85.26006222 C-19.36918488 84.3883337 -19.38028793 83.51660519 -19.39172745 82.61846066 C-19.49215316 74.37999832 -19.56815999 66.14174328 -19.61714268 57.90280819 C-19.64317253 53.66762208 -19.67844793 49.43294418 -19.73527908 45.1980505 C-19.78983736 41.10665083 -19.81955204 37.01573818 -19.83246803 32.92400265 C-19.84166549 31.36752823 -19.85962609 29.81107874 -19.8867321 28.25481319 C-20.1515867 12.4099521 -20.1515867 12.4099521 -14.35808182 6.26006222 C-9.8136167 2.04811894 -6.21616631 0.01283356 0 0 Z " fill="#1C59B7" transform="translate(147.35808181762695,63.7399377822876)"/>
<path d="M0 0 C0.54666671 -0.0035328 0.54666671 -0.0035328 3.31313157 -0.02141088 C4.51389006 -0.0189958 5.71464856 -0.01658071 6.95179367 -0.01409245 C8.22771873 -0.01932912 9.50364379 -0.0245658 10.81823325 -0.02996117 C14.36246462 -0.04415433 17.90660835 -0.04580421 21.45086408 -0.04536426 C25.2724052 -0.04701132 29.09391009 -0.06007579 32.91543198 -0.07155704 C41.27290321 -0.09441516 49.63034907 -0.10232857 57.98784733 -0.10738349 C63.20619777 -0.11063966 68.42454084 -0.11716167 73.64288712 -0.12438488 C88.09070346 -0.1439521 102.53851294 -0.16035552 116.98634338 -0.16326141 C117.91105273 -0.16344898 118.83576207 -0.16363655 119.7884929 -0.16382981 C121.6631128 -0.16419606 123.5377327 -0.16455976 125.41235259 -0.16492092 C126.34291881 -0.16510373 127.27348502 -0.16528654 128.23225021 -0.16547489 C129.16395215 -0.16565544 130.09565408 -0.16583599 131.05558941 -0.16602201 C146.15256716 -0.16956366 161.24940227 -0.19658491 176.34633055 -0.23397278 C191.84575356 -0.27205028 207.34510578 -0.29141885 222.8445766 -0.29172093 C231.54712734 -0.29230563 240.24950795 -0.30080613 248.95201492 -0.32971859 C256.36244569 -0.35422508 263.77264428 -0.36152041 271.1831046 -0.34647106 C274.96344084 -0.33929898 278.74331854 -0.34017178 282.52360344 -0.36288166 C286.62410914 -0.38727901 290.72357039 -0.37284444 294.82410812 -0.35466862 C295.42002593 -0.3612686 295.42002593 -0.3612686 298.43573117 -0.39466852 C306.38339143 -0.31410467 311.3752481 1.19937619 317.15776658 6.70272928 C322.18518875 12.23202875 322.94124389 17.98495866 322.86896896 25.19316769 C322.86926102 25.96457592 322.86955307 26.73598415 322.86985397 27.53076839 C322.8684683 30.06304601 322.8529433 32.59502393 322.83723068 35.12724972 C322.83349784 36.88987219 322.83065215 38.65249674 322.82865524 40.41512203 C322.82104016 45.0412897 322.80141 49.66733065 322.77924728 54.29344845 C322.75874299 59.01928144 322.74964374 63.74513501 322.73957443 68.47099972 C322.71816204 77.73407605 322.68405184 86.99705857 322.64191818 96.26006222 C294.41776659 96.37676385 266.19365105 96.46498589 237.96930695 96.51912308 C224.86481546 96.54492588 211.76047372 96.58011627 198.65607834 96.63725948 C187.23685905 96.68703064 175.81774817 96.71933811 164.39842343 96.73050469 C158.34959702 96.73703405 152.30108084 96.75242336 146.25235367 96.7887125 C140.56260725 96.82257238 134.87329974 96.83313532 129.18346214 96.82560062 C127.09201868 96.82697965 125.00056101 96.83697133 122.90920448 96.85608959 C120.05929046 96.880871 117.21104595 96.8750219 114.36109543 96.8613348 C113.52841101 96.87589901 112.6957266 96.89046322 111.83780932 96.90546876 C109.52307892 96.87530136 109.52307892 96.87530136 105.64191818 96.26006222 C103.38085747 93.89568806 103.38085747 93.89568806 101.64191818 91.26006222 C94.91306804 86.44845599 88.39696605 85.53108299 80.31721115 85.60063839 C79.23310455 85.59015469 78.14899796 85.57967098 77.03203964 85.56886959 C73.48243119 85.54028592 69.93380783 85.54639194 66.38410568 85.55303097 C63.90973829 85.53990593 61.43538159 85.52459925 58.9610405 85.50720882 C52.47393235 85.46744102 45.98710503 85.45717358 39.49988937 85.45317745 C32.87005821 85.44383065 26.24040978 85.40640735 19.61066818 85.37139034 C6.62109943 85.30689793 -6.3683643 85.2726347 -19.35808182 85.26006222 C-19.47422868 76.1410852 -19.56292446 67.02236507 -19.61714268 57.90280819 C-19.64317253 53.66762208 -19.67844793 49.43294418 -19.73527908 45.1980505 C-19.78983736 41.10665083 -19.81955204 37.01573818 -19.83246803 32.92400265 C-19.84166549 31.36752823 -19.85962609 29.81107874 -19.8867321 28.25481319 C-20.1515867 12.4099521 -20.1515867 12.4099521 -14.35808182 6.26006222 C-9.8136167 2.04811894 -6.21616631 0.01283356 0 0 Z " fill="#41A3EE" transform="translate(147.35808181762695,63.7399377822876)"/>
<path d="M0 0 C0.89363211 -0.0034177 1.78726423 -0.0068354 2.7079761 -0.01035666 C5.70853468 -0.01695606 8.70820276 0.00507467 11.7086792 0.0269165 C13.85702493 0.02804454 16.00537221 0.02741199 18.15371704 0.02514648 C23.99227146 0.02399669 29.83049857 0.04754926 35.66897678 0.07544231 C41.76819268 0.10041156 47.86741569 0.10279444 53.9666748 0.10754395 C65.51930266 0.11998687 77.07177949 0.1528264 88.62434077 0.1929419 C101.77531077 0.23761857 114.92628789 0.25963634 128.07731485 0.27972364 C155.13258 0.3215578 182.18771099 0.39193553 209.24285889 0.48101807 C209.33578841 10.49543844 209.40673998 20.50975519 209.45010757 30.52451992 C209.47092831 35.17545812 209.49914444 39.82609998 209.5446167 44.47686768 C209.58827217 48.97024995 209.61203741 53.46334827 209.62236786 57.95692635 C209.62972403 59.66605152 209.64408861 61.37516221 209.66577911 63.08416557 C209.90368094 82.61611822 209.90368094 82.61611822 203.46313477 89.33866882 C198.93432871 93.49778709 195.14633387 95.72894485 188.90039444 95.73828697 C188.35546943 95.74151142 188.35546943 95.74151142 185.59781861 95.75782907 C184.99938484 95.75628047 184.99938484 95.75628047 181.97094727 95.7484436 C180.69910576 95.75297472 179.42726425 95.75750583 178.11688209 95.76217425 C174.58404733 95.77442417 171.05130714 95.77414145 167.51845598 95.7717855 C163.70918851 95.77137783 159.89995155 95.7824118 156.09069824 95.79190063 C148.62620829 95.80852311 141.16174992 95.81401077 133.69724301 95.81512539 C127.62951475 95.81607539 121.56179692 95.82018326 115.49407196 95.82652664 C98.2929157 95.84414337 81.09178441 95.85336498 63.89061907 95.85186569 C62.96303985 95.85178578 62.03546063 95.85170587 61.07977295 95.85162354 C60.15106163 95.85154177 59.22235031 95.85146001 58.26549622 95.85137577 C43.21703843 95.85056301 28.16868076 95.86969706 13.12025192 95.89790027 C-2.32945003 95.92662711 -17.77910315 95.94044064 -33.22883248 95.93871272 C-41.90340924 95.93804869 -50.57788107 95.94354641 -59.25243378 95.96506882 C-66.63905502 95.98327811 -74.02552378 95.98763015 -81.41215774 95.97404997 C-85.1802792 95.96751866 -88.94810813 95.96740862 -92.71620178 95.98475647 C-96.80345434 96.00337991 -100.89002926 95.99093684 -104.97729492 95.97549438 C-106.16523958 95.98578151 -107.35318424 95.99606864 -108.57712722 96.00666749 C-116.27182995 95.94234508 -122.11411219 95.08257038 -127.81573486 89.44586182 C-128.04325439 89.1113501 -128.04325439 89.1113501 -129.19464111 87.41851807 C-129.43118408 87.08271729 -129.43118408 87.08271729 -130.62823486 85.38336182 C-132.96313743 81.44876821 -132.87859731 78.10377002 -132.8706665 73.62286377 C-132.87081253 72.92992218 -132.87095856 72.23698059 -132.87110901 71.52304077 C-132.87041274 69.2342617 -132.86263372 66.94556416 -132.85479736 64.65679932 C-132.85293217 63.06924992 -132.85150874 61.48169995 -132.85050964 59.89414978 C-132.84669246 55.71679087 -132.83686897 51.53946675 -132.82580566 47.36212158 C-132.81557439 43.09902416 -132.81100834 38.83592111 -132.80596924 34.57281494 C-132.795246 26.20886669 -132.77817914 17.84494671 -132.75714111 9.48101807 C-132.18729744 9.47955151 -131.61745377 9.47808495 -131.0303421 9.47657394 C-117.14097352 9.43946228 -103.25185113 9.38013907 -89.36267853 9.29711533 C-82.64585489 9.25736868 -75.92914767 9.22495413 -69.21221924 9.21002197 C-62.72815357 9.19486142 -56.24444878 9.16042546 -49.76054382 9.11270905 C-47.28870279 9.09788925 -44.81681024 9.08997671 -42.34492493 9.08913422 C-38.8784248 9.08676475 -35.41292212 9.05968426 -31.94659424 9.0269165 C-31.43733398 9.02943169 -31.43733398 9.02943169 -28.86016846 9.04216003 C-22.69257577 8.95215571 -17.85329876 8.11646559 -12.75714111 4.48101807 C-12.48083296 4.13312729 -12.48083296 4.13312729 -11.08254623 2.37258911 C-7.64562109 -0.42313368 -4.23660238 -0.05900509 0 0 Z " fill="#103F8B" transform="translate(260.75714111328125,352.51898193359375)"/>
<path d="M0 0 C66.99 0 133.98 0 203 0 C203 31.68 203 63.36 203 96 C137 96 71 96 3 96 C2.67 66.96 2.34 37.92 2 8 C1.34 5.36 0.68 2.72 0 0 Z " fill="#2F78D5" transform="translate(267,160)"/>
<path d="M0 0 C63.69 0 127.38 0 193 0 C193 31.68 193 63.36 193 96 C129.31 96 65.62 96 0 96 C0 64.32 0 32.64 0 0 Z " fill="#1A5AB9" transform="translate(277,256)"/>
<path d="M0 0 C6.93 0 13.86 0 21 0 C21.58007812 2.77921875 22.16015625 5.5584375 22.7578125 8.421875 C26.94583989 28.47412467 31.1482147 48.52233399 35.47851562 68.54443359 C36.00550367 71.02591569 36.5075284 73.51145855 37 76 C37.33 76 37.66 76 38 76 C38.10957031 75.4534375 38.10957031 75.4534375 38.6640625 72.6875 C40.72923222 62.55546989 43.08076067 52.52887231 45.63818359 42.51025391 C47.95647295 33.35235442 50.00939767 24.14335397 51.99560547 14.90820312 C52.22908691 13.83248047 52.46256836 12.75675781 52.703125 11.6484375 C52.90583008 10.70145996 53.10853516 9.75448242 53.31738281 8.77880859 C54.04733543 5.80730621 55.03239175 2.90282475 56 0 C63.92 0 71.84 0 80 0 C84.30596639 16.99455375 88.44233253 34.00953054 92.33886719 51.10302734 C93.32047643 55.40427376 94.31181369 59.70315461 95.3125 64 C95.39222046 64.34720093 95.39222046 64.34720093 95.7956543 66.10424805 C96.88505772 70.77011544 96.88505772 70.77011544 98 73 C98.17015625 72.18885742 98.3403125 71.37771484 98.515625 70.54199219 C102.0465536 53.73721364 105.64465403 36.94924495 109.375 20.1875 C109.46233398 19.79475891 109.46233398 19.79475891 109.90429688 17.80725098 C112.78992475 4.840301 112.78992475 4.840301 114 0 C120.93 0 127.86 0 135 0 C132.75283447 11.23582766 132.75283447 11.23582766 131.73828125 15.57421875 C131.51035889 16.55430908 131.28243652 17.53439941 131.04760742 18.54418945 C130.9263147 19.06283569 130.9263147 19.06283569 130.3125 21.6875 C128.63854766 28.88244963 126.97559942 36.07913938 125.3671875 43.2890625 C122.08598217 57.99725056 118.67811462 72.66756729 115.125 87.3125 C114.92587006 88.13634186 114.72674011 88.96018372 114.52157593 89.80899048 C113.95733066 92.14029048 113.38952298 94.4706892 112.8203125 96.80078125 C112.65083603 97.50134644 112.48135956 98.20191162 112.30674744 98.92370605 C111.11542 103.76916001 111.11542 103.76916001 110 106 C102.08 106 94.16 106 86 106 C84.1430902 99.19133072 82.37812228 92.50556255 80.94921875 85.6171875 C80.5793973 83.86571176 80.20952229 82.11424733 79.83959961 80.36279297 C79.74541245 79.91394745 79.74541245 79.91394745 79.26876831 77.64251709 C75.77872412 61.0258243 72.12657266 44.47171732 68 28 C64.93963794 38.8801327 62.4529265 49.8283135 60.13619995 60.88775635 C59.16514117 65.52088291 58.18104702 70.15122659 57.1953125 74.78125 C57.00470749 75.67683624 56.81410248 76.57242249 56.61772156 77.49514771 C54.57785673 87.0396218 52.33185221 96.52214907 50 106 C41.42 106 32.84 106 24 106 C20.53418509 91.83937755 17.10672446 77.68185813 14 63.4375 C11.93979836 53.99566342 9.68987335 44.61692604 7.3125 35.25 C4.34252513 23.53999656 1.70964432 11.96751022 0 0 Z " fill="#FBFCFD" transform="translate(82,203)"/>
<path d="M0 0 C0.84046875 0.01804687 1.6809375 0.03609375 2.546875 0.0546875 C4.61507395 0.10169202 6.68268441 0.17343276 8.75 0.25 C7.68993555 10.02818072 4.68132974 16.87478399 -2.625 23.5625 C-9.16178968 28.76879267 -15.79678696 31.37949638 -24.17915344 31.37025452 C-25.14524033 31.37162918 -26.11132721 31.37300385 -27.10668945 31.37442017 C-28.15469727 31.37082489 -29.20270508 31.36722961 -30.2824707 31.36352539 C-30.83878929 31.3635984 -30.83878929 31.3635984 -33.65409851 31.3639679 C-37.32801266 31.3632718 -41.00187597 31.3554935 -44.67578125 31.34765625 C-47.22454297 31.345791 -49.77330505 31.3443676 -52.32206726 31.34336853 C-58.34262536 31.33994182 -64.36316167 31.33206204 -70.38371104 31.32201904 C-77.23980042 31.31083118 -84.09589067 31.30534072 -90.95198691 31.30032361 C-105.05133654 31.2898787 -119.15066319 31.27154392 -133.25 31.25 C-133.25 23.99 -133.25 16.73 -133.25 9.25 C-131.57454102 9.24532715 -131.57454102 9.24532715 -123.09570312 9.22167969 C-112.01553634 9.18788957 -100.9355554 9.13232904 -89.85553741 9.06609726 C-83.13871378 9.02635061 -76.42200655 8.99393606 -69.70507812 8.97900391 C-63.22101245 8.96384335 -56.73730767 8.92940739 -50.25340271 8.88169098 C-47.78156168 8.86687118 -45.30966913 8.85895865 -42.83778381 8.85811615 C-39.37128368 8.85574669 -35.905781 8.8286662 -32.43945312 8.79589844 C-31.93019287 8.79841362 -31.93019287 8.79841362 -29.35302734 8.81114197 C-23.17431819 8.72097542 -18.39391457 7.82741133 -13.25 4.25 C-12.93289062 3.88132812 -12.93289062 3.88132812 -11.328125 2.015625 C-7.95045163 -0.85412756 -4.26897658 -0.17342717 0 0 Z " fill="#0D367A" transform="translate(261.25,352.75)"/>
<path d="M0 0 C6.93 0 13.86 0 21 0 C21 31.68 21 63.36 21 96 C84.69 96 148.38 96 214 96 C214 96.33 214 96.66 214 97 C142.06 97 70.12 97 -4 97 C-3.34 95.35 -2.68 93.7 -2 92 C-0.93202152 87.15612304 -0.83100465 82.36382281 -0.79467773 77.42431641 C-0.78477814 76.58463318 -0.77487854 75.74494995 -0.76467896 74.87982178 C-0.73323806 72.12043013 -0.70837578 69.3610213 -0.68359375 66.6015625 C-0.66300917 64.68199226 -0.64201231 62.7624264 -0.62062073 60.84286499 C-0.56555539 55.80250608 -0.51607787 50.76210732 -0.46777344 45.72167969 C-0.41744465 40.57353184 -0.36181809 35.42544151 -0.30664062 30.27734375 C-0.1992492 20.18494326 -0.09825222 10.09249361 0 0 Z " fill="#1955AD" transform="translate(256,256)"/>
<path d="M0 0 C14.78678638 -0.11717625 29.57351071 -0.20515504 44.36066818 -0.25906086 C51.22774595 -0.28476368 58.09453404 -0.31976061 64.96142578 -0.37719727 C71.59445765 -0.43265106 78.22726881 -0.46146371 84.8605423 -0.47438622 C87.38497895 -0.48358959 89.9094001 -0.5015614 92.43370819 -0.52865028 C95.9831784 -0.56520854 99.53142503 -0.56993394 103.08105469 -0.56762695 C103.5971505 -0.57661514 103.5971505 -0.57661514 106.20890808 -0.62210083 C116.647897 -0.54919279 125.82880587 3.00181492 133.44140625 10.21875 C135.52218622 12.59678425 136.85485209 15.06555847 138 18 C135.91846065 18.13536022 133.83438794 18.23215465 131.75 18.3125 C130.58984375 18.37050781 129.4296875 18.42851562 128.234375 18.48828125 C123.97168494 17.8447592 123.62624201 16.32936709 121 13 C114.07853284 8.36160481 107.86093371 7.27010924 99.67529297 7.34057617 C98.59118637 7.33009247 97.50707977 7.31960876 96.39012146 7.30880737 C92.840513 7.2802237 89.29188965 7.28632972 85.7421875 7.29296875 C83.26782011 7.27984371 80.79346341 7.26453703 78.31912231 7.24714661 C71.83201417 7.2073788 65.34518685 7.19711136 58.85797119 7.19311523 C52.22814003 7.18376843 45.5984916 7.14634513 38.96875 7.11132812 C25.97918125 7.04683572 12.98971752 7.01257248 0 7 C0 4.69 0 2.38 0 0 Z " fill="#3B90D6" transform="translate(128,142)"/>
<path d="M0 0 C2.31 0 4.62 0 7 0 C7 31.68 7 63.36 7 96 C9.31 96 11.62 96 14 96 C14 96.33 14 96.66 14 97 C8.06 97 2.12 97 -4 97 C-3.34 95.35 -2.68 93.7 -2 92 C-0.93202152 87.15612304 -0.83100465 82.36382281 -0.79467773 77.42431641 C-0.78477814 76.58463318 -0.77487854 75.74494995 -0.76467896 74.87982178 C-0.73323806 72.12043013 -0.70837578 69.3610213 -0.68359375 66.6015625 C-0.66300917 64.68199226 -0.64201231 62.7624264 -0.62062073 60.84286499 C-0.56555539 55.80250608 -0.51607787 50.76210732 -0.46777344 45.72167969 C-0.41744465 40.57353184 -0.36181809 35.42544151 -0.30664062 30.27734375 C-0.19924922 20.18494503 -0.09776237 10.09249626 0 0 Z " fill="#154892" transform="translate(256,256)"/>
<path d="M0 0 C2.31 0 4.62 0 7 0 C7 31.68 7 63.36 7 96 C4.69 96 2.38 96 0 96 C0 64.32 0 32.64 0 0 Z " fill="#174FA1" transform="translate(263,256)"/>
<path d="M0 0 C2.31 0 4.62 0 7 0 C9.54480847 5.91727252 10.42757898 10.58077695 10.34057617 16.98632812 C10.34101425 17.84581055 10.34145233 18.70529297 10.34190369 19.59082031 C10.33982969 22.40453577 10.31656489 25.21763987 10.29296875 28.03125 C10.28736784 29.99279454 10.28310008 31.9543433 10.28010559 33.91589355 C10.26869578 39.05830639 10.23926203 44.20046176 10.20599365 49.34277344 C10.17520924 54.59827187 10.16158241 59.85381223 10.14648438 65.109375 C10.11438848 75.40636262 10.06323913 85.70315983 10 96 C7.69 96 5.38 96 3 96 C2.99191315 94.9005455 2.98382629 93.801091 2.97549438 92.6683197 C2.89793344 82.29551614 2.81016902 71.92284213 2.71247292 61.55020809 C2.66257548 56.21782458 2.61624481 50.88546026 2.578125 45.55297852 C2.5411895 40.40466447 2.49480703 35.2565135 2.44193649 30.10833931 C2.42343646 28.14643788 2.40831237 26.18450156 2.39665604 24.22254753 C2.3797184 21.46972919 2.3506653 18.71728073 2.31884766 15.96459961 C2.31668747 15.15755081 2.31452728 14.35050201 2.31230164 13.51899719 C2.24074944 8.65751463 1.53945175 4.61756432 0 0 Z " fill="#2B6ABD" transform="translate(260,160)"/>
<path d="M0 0 C2.31 0 4.62 0 7 0 C9.7861587 5.53893835 10.42281979 9.81072686 10.34057617 15.96459961 C10.34101425 16.83368958 10.34145233 17.70277954 10.34190369 18.59820557 C10.33982593 21.44981937 10.31654296 24.30083359 10.29296875 27.15234375 C10.28736919 29.13773782 10.28310079 31.12313606 10.28010559 33.10853577 C10.26868519 38.31836516 10.23924215 43.52794118 10.20599365 48.7376709 C10.17523224 54.06010512 10.16158729 59.38258052 10.14648438 64.70507812 C10.11436976 75.13682969 10.06320738 85.56839372 10 96 C7.69 96 5.38 96 3 96 C2.99191315 94.9005455 2.98382629 93.801091 2.97549438 92.6683197 C2.89793344 82.29551614 2.81016902 71.92284213 2.71247292 61.55020809 C2.66257548 56.21782458 2.61624481 50.88546026 2.578125 45.55297852 C2.5411895 40.40466447 2.49480703 35.2565135 2.44193649 30.10833931 C2.42343646 28.14643788 2.40831237 26.18450156 2.39665604 24.22254753 C2.3797184 21.46972919 2.3506653 18.71728073 2.31884766 15.96459961 C2.31668747 15.15755081 2.31452728 14.35050201 2.31230164 13.51899719 C2.24074944 8.65751463 1.53945175 4.61756432 0 0 Z " fill="#2661AD" transform="translate(253,160)"/>
<path d="M0 0 C1.98 0 3.96 0 6 0 C9.54413447 6.62599053 10.14795839 11.93037397 10.11352539 19.37036133 C10.11367142 20.20014496 10.11381744 21.02992859 10.1139679 21.88485718 C10.11327333 24.61727547 10.10550229 27.34962492 10.09765625 30.08203125 C10.09579045 31.9806057 10.09436731 33.87918063 10.09336853 35.77775574 C10.0895561 40.76721534 10.0797367 45.75664568 10.06866455 50.74609375 C10.05842303 55.84049077 10.05386504 60.93489252 10.04882812 66.02929688 C10.03811328 76.01954408 10.02105216 86.0097696 10 96 C7.69 96 5.38 96 3 96 C2.99191315 94.91529419 2.98382629 93.83058838 2.97549438 92.7130127 C2.8978904 82.47296522 2.81011535 72.23304827 2.71247292 61.99317169 C2.6626027 56.72919838 2.61627193 51.46524423 2.578125 46.20117188 C2.54115494 41.1176911 2.49476341 36.03437439 2.44193649 30.95103455 C2.42345472 29.01507963 2.408324 27.07908963 2.39665604 25.14308167 C2.37968685 22.42399421 2.35062671 19.70527743 2.31884766 16.98632812 C2.31668747 16.19222534 2.31452728 15.39812256 2.31230164 14.57995605 C2.23576761 9.42825281 1.41338123 4.95851897 0 0 Z " fill="#2D72CB" transform="translate(267,160)"/>
<path d="M0 0 C14.89993247 -0.09377596 29.79984192 -0.16414116 44.70000744 -0.20724869 C51.61968588 -0.2278035 58.5391801 -0.25578693 65.45874023 -0.30175781 C72.14368008 -0.34614849 78.82838958 -0.36917645 85.51348305 -0.37950897 C88.05661329 -0.38686702 90.59973378 -0.40123511 93.14278221 -0.42292023 C124.64139306 -0.68069371 124.64139306 -0.68069371 135.98828125 8.98828125 C139.36763838 12.36763838 142.34688679 16.02459563 145 20 C145 20.33 145 20.66 145 21 C141.9375 21.5625 141.9375 21.5625 138 21 C136.07629685 18.93696321 134.56885409 16.70531497 132.953125 14.39453125 C128.49257422 8.925896 121.71759232 5.79190935 115 4 C111.25496086 3.69199729 107.51842268 3.68885249 103.76220703 3.68115234 C102.63967026 3.67110672 101.51713348 3.6610611 100.36058044 3.65071106 C96.65966288 3.61988338 92.95881765 3.60284478 89.2578125 3.5859375 C86.68805316 3.56722555 84.11829996 3.54765212 81.54855347 3.5272522 C75.48202436 3.48117048 69.41549887 3.44376124 63.34888732 3.41057932 C56.43951147 3.37230194 49.53022894 3.32290658 42.62093186 3.27259517 C28.41402502 3.16939293 14.20705497 3.08009462 0 3 C0 2.01 0 1.02 0 0 Z " fill="#3E9AE5" transform="translate(128,139)"/>
<path d="M0 0 C14.70825168 -0.0936276 29.41646368 -0.16406914 44.12495327 -0.20724869 C50.95506721 -0.22783465 57.78499549 -0.25587867 64.61499023 -0.30175781 C71.20910781 -0.34603121 77.80308355 -0.36915339 84.39735603 -0.37950897 C86.91029962 -0.38688673 89.42323293 -0.40129373 91.93609428 -0.42292023 C95.46210195 -0.45205306 98.98731863 -0.45595171 102.51342773 -0.45410156 C103.54705444 -0.46848267 104.58068115 -0.48286377 105.64562988 -0.49768066 C115.00946979 -0.44468631 122.34565496 2.34565496 129 9 C130.375 11.8125 130.375 11.8125 131 14 C128.25 14.3125 128.25 14.3125 125 14 C123.66666667 12.33333333 122.33333333 10.66666667 121 9 C114.07592428 4.36385564 107.86285831 3.27009268 99.67529297 3.34057617 C98.59118637 3.33009247 97.50707977 3.31960876 96.39012146 3.30880737 C92.840513 3.2802237 89.29188965 3.28632972 85.7421875 3.29296875 C83.26782011 3.27984371 80.79346341 3.26453703 78.31912231 3.24714661 C71.83201417 3.2073788 65.34518685 3.19711136 58.85797119 3.19311523 C52.22814003 3.18376843 45.5984916 3.14634513 38.96875 3.11132812 C25.97918125 3.04683572 12.98971752 3.01257248 0 3 C0 2.01 0 1.02 0 0 Z " fill="#3583C4" transform="translate(128,146)"/>
<path d="M0 0 C0.99 0 1.98 0 3 0 C2.34 1.32 1.68 2.64 1 4 C0.67 2.68 0.34 1.36 0 0 Z " fill="#5784CA" transform="translate(118,277)"/>
</svg>
