<?xml version="1.0" encoding="UTF-8"?>
<!-- Generator: visioncortex VTracer 0.6.12 -->
<svg version="1.1" xmlns="http://www.w3.org/2000/svg" width="512" height="512">
<path d="M0 0 C1.07909984 -0.00623996 2.15819967 -0.01247993 3.2699995 -0.01890898 C6.8804996 -0.03484471 10.49032515 -0.02223178 14.10083008 -0.00964355 C16.69146112 -0.01506438 19.28208907 -0.02218681 21.87271118 -0.03088379 C28.17544826 -0.04865162 34.47799458 -0.04483686 40.78073907 -0.03323323 C45.90400267 -0.0241923 51.02721289 -0.02297774 56.15048218 -0.02732849 C56.88020806 -0.02794142 57.60993393 -0.02855436 58.36177272 -0.02918586 C59.84428987 -0.03046479 61.32680702 -0.03176164 62.80932415 -0.03307623 C76.70436273 -0.04447693 90.59929568 -0.03137635 104.49431694 -0.00987476 C116.41171014 0.00799579 128.32894749 0.00489153 140.24633789 -0.0135498 C154.09232937 -0.03496555 167.93822832 -0.04337834 181.78423405 -0.03110075 C183.26123618 -0.02982658 184.73823832 -0.0285691 186.21524048 -0.02732849 C186.94191569 -0.02671139 187.6685909 -0.02609429 188.41728657 -0.02545848 C193.53320839 -0.02200769 198.64907142 -0.02782808 203.76498413 -0.0372467 C210.65315885 -0.04964962 217.54103442 -0.04079387 224.42918015 -0.01766968 C226.95795579 -0.01237828 229.48675619 -0.01390365 232.015522 -0.02272034 C235.46592406 -0.03364169 238.91538091 -0.01995182 242.36572266 0 C242.86674547 -0.00446144 242.86674547 -0.00446144 245.40222454 -0.02703905 C252.27454396 0.05010499 256.9555831 1.20829584 261.92504883 6.28918457 C262.11196289 6.57277832 262.11196289 6.57277832 263.05786133 8.00793457 C263.4471582 8.57512207 263.83645508 9.14230957 264.23754883 9.72668457 C266.41779139 13.83491022 266.30177701 17.82109223 266.2872467 22.40916443 C266.28654015 23.1032582 266.28583361 23.79735197 266.28510565 24.51247889 C266.2817316 26.83773957 266.27137637 29.16291896 266.26123047 31.48815918 C266.25771408 33.1554911 266.25474708 34.82282426 266.25228882 36.49015808 C266.24661622 40.08055813 266.23860419 43.67094308 266.22926521 47.26133537 C266.21609211 52.93808294 266.21781792 58.61476256 266.22349548 64.29151917 C266.22395552 64.77052019 266.22395552 64.77052019 266.22628361 67.1945557 C266.22925472 70.1447186 266.23241963 73.09488126 266.2355957 76.04504395 C266.24839816 88.26969773 266.25032955 100.49403032 266.20703125 112.71862793 C266.17555885 121.63410056 266.17220011 130.54908498 266.20179075 139.46457106 C266.21635513 144.18281237 266.21646987 148.90007708 266.18239021 153.61823845 C266.15061654 158.05514537 266.15597197 162.49044812 266.18989182 166.9273243 C266.19571586 168.55553314 266.18785017 170.18385707 266.16530037 171.81192017 C266.00486079 184.20899042 266.00486079 184.20899042 268.95922661 187.46667671 C271.11936951 188.76478577 271.11936951 188.76478577 273.27214718 189.58991337 C275.18286133 190.50793457 275.18286133 190.50793457 276.42011547 192.17257977 C277.46884639 195.38355597 277.44146531 198.23781349 277.45028687 201.61676025 C277.45481798 202.33323864 277.45934909 203.04971703 277.46401751 203.78790689 C277.47667932 206.18911446 277.47504 208.59009574 277.47338867 210.99133301 C277.47937291 212.71291394 277.48617822 214.43449219 277.4937439 216.15606689 C277.51142413 220.83391827 277.5161002 225.5116965 277.51737547 230.18957806 C277.51879676 233.11304931 277.52306598 236.03650194 277.5283699 238.95996857 C277.54687856 249.16184165 277.55503968 259.36366244 277.5534668 269.56555176 C277.55226594 279.06996994 277.57335518 288.57416082 277.60495412 298.07852149 C277.63112536 306.24172779 277.6418337 314.40485992 277.64055598 322.56810784 C277.64004649 327.44211071 277.64572207 332.31591172 277.66691208 337.18987274 C277.68630811 341.77657269 277.68640962 346.36287856 277.67187881 350.94959259 C277.66979114 352.62975135 277.67448917 354.30993486 277.68659973 355.99005127 C277.79355785 371.86105994 277.79355785 371.86105994 273.18286133 378.50793457 C270.28925708 381.43353474 267.29575356 384.38104452 263.03814632 384.63673574 C262.14048476 384.63852431 261.24282321 384.64031288 260.31795979 384.64215565 C259.80084294 384.64438457 259.80084294 384.64438457 257.1839183 384.65566427 C256.03890717 384.6554799 254.89389605 384.65529554 253.71418762 384.65510559 C252.50460268 384.65878228 251.29501774 384.66245897 250.04877871 384.66624707 C246.68053063 384.6753862 243.31233133 384.67998629 239.94407547 384.68263638 C236.31544158 384.686535 232.68682187 384.6961137 229.05819702 384.70484924 C220.28918014 384.72462717 211.52016208 384.73468198 202.75112846 384.74357703 C198.6232917 384.74795815 194.49545622 384.75332545 190.36762047 384.7585659 C176.64818621 384.77558024 162.92875277 384.79007453 149.20930958 384.79731464 C145.64767773 384.79922459 142.08604589 384.80114492 138.52441406 384.80310059 C137.63916865 384.80358433 136.75392324 384.80406807 135.84185221 384.80456647 C121.50067943 384.81286717 107.15959006 384.83820384 92.81845371 384.87068126 C78.09994339 384.90374193 63.38147546 384.92176254 48.66292781 384.92495888 C40.39690939 384.92712501 32.13101255 384.93588846 23.86503029 384.96142006 C16.82528523 384.98311361 9.78569128 384.99118419 2.74591658 384.98145328 C-0.84588028 384.97690448 -4.43736528 384.97882793 -8.02911949 384.99821472 C-11.92405844 385.01905632 -15.81856645 385.00887401 -19.71354675 384.99568176 C-20.84740427 385.00665101 -21.98126178 385.01762025 -23.14947861 385.0289219 C-29.59385848 384.97611947 -33.60317271 384.4038952 -38.81713867 380.50793457 C-43.0253485 375.08155873 -43.94247633 371.32641324 -43.93066406 364.5579834 C-43.93081009 363.85528824 -43.93095612 363.15259308 -43.93110657 362.42860413 C-43.93041024 360.10735989 -43.92263093 357.78619603 -43.91479492 355.46496582 C-43.91292975 353.85499617 -43.91150631 352.24502596 -43.9105072 350.63505554 C-43.90668985 346.3985131 -43.89686622 342.16200497 -43.88580322 337.92547607 C-43.87557231 333.6020555 -43.87100598 329.27862938 -43.8659668 324.9552002 C-43.85524326 316.47276258 -43.8381762 307.99035284 -43.81713867 299.50793457 C-44.97701294 299.51903763 -46.13688721 299.53014069 -47.33190918 299.5415802 C-58.27814183 299.64306648 -69.22427866 299.71795305 -80.17087555 299.76699543 C-85.79828036 299.79305661 -91.42530449 299.82839174 -97.05249023 299.88513184 C-102.48603543 299.93957473 -107.91921512 299.96938127 -113.35301208 299.98232079 C-115.42302705 299.99153856 -117.49302267 300.00953893 -119.56288147 300.03658485 C-122.46903248 300.073038 -125.37368538 300.07787308 -128.2800293 300.07556152 C-129.13023651 300.0935379 -129.98044373 300.11151428 -130.85641479 300.1300354 C-136.9643545 300.07768426 -141.10269162 298.42402257 -145.81713867 294.50793457 C-150.42373287 288.72016237 -150.96650618 284.29399172 -150.95758057 277.09539795 C-150.96055169 276.34625114 -150.96352281 275.59710433 -150.96658397 274.82525611 C-150.97525947 272.31354647 -150.97677825 269.80188456 -150.97827148 267.29016113 C-150.98290049 265.4897654 -150.98792526 263.68937066 -150.99331665 261.88897705 C-151.00643509 256.99627119 -151.01288458 252.10357905 -151.01732731 247.21085835 C-151.02025904 244.15338519 -151.02436406 241.09591579 -151.02883148 238.03844452 C-151.0425052 228.4703092 -151.05217237 218.90218244 -151.05603337 209.33403802 C-151.06051338 198.29284522 -151.07805918 187.25177626 -151.10703397 176.21062112 C-151.12865839 167.67375315 -151.13873807 159.13692 -151.14007449 150.60002494 C-151.14112201 145.50248945 -151.14701851 140.40507041 -151.1648941 135.30756378 C-151.1813878 130.51081005 -151.18352395 125.71426011 -151.1747551 120.9174881 C-151.17398541 119.1599269 -151.17831843 117.40235468 -151.18821335 115.64482117 C-151.20095989 113.23910832 -151.19504175 110.83411436 -151.18463135 108.42840576 C-151.19268775 107.73850249 -151.20074416 107.04859921 -151.20904469 106.33778977 C-151.1543655 100.90785682 -150.17331749 95.12657054 -146.43600583 90.97295594 C-142.16172854 87.29283272 -138.64261124 85.25501503 -133.00823975 85.26742554 C-132.52588364 85.26605087 -132.52588364 85.26605087 -130.08486938 85.25909424 C-129.55906784 85.26268951 -129.55906784 85.26268951 -126.89819336 85.28088379 C-125.78570221 85.28059174 -124.67321106 85.28029968 -123.52700806 85.27999878 C-119.84759742 85.2813928 -116.16838896 85.29695764 -112.48901367 85.31262207 C-109.93882355 85.31635194 -107.388632 85.31919903 -104.83843994 85.32119751 C-98.81073496 85.32805516 -92.78311685 85.34382022 -86.75544667 85.36389649 C-79.89213319 85.3862593 -73.02881622 85.39724988 -66.16547537 85.40728736 C-52.04932293 85.42818659 -37.93323478 85.46336018 -23.81713867 85.50793457 C-23.8215799 84.68631836 -23.82602112 83.86470215 -23.83059692 83.01818848 C-23.87077939 75.25056313 -23.90117663 67.48298866 -23.92076302 59.71528625 C-23.93117128 55.72245831 -23.94527604 51.72971673 -23.96801758 47.73693848 C-23.98985197 43.87899942 -24.00172951 40.02114309 -24.00689316 36.16314697 C-24.01056998 34.69605203 -24.01774962 33.22896129 -24.02859879 31.76190186 C-24.16841165 12.06079973 -24.16841165 12.06079973 -17.81713867 4.50793457 C-11.88709826 0.23263639 -7.18767147 -0.06400385 0 0 Z " fill="#1F76D4" transform="translate(192.817138671875,63.4920654296875)"/>
<path d="M0 0 C1.07909984 -0.00623996 2.15819967 -0.01247993 3.2699995 -0.01890898 C6.8804996 -0.03484471 10.49032515 -0.02223178 14.10083008 -0.00964355 C16.69146112 -0.01506438 19.28208907 -0.02218681 21.87271118 -0.03088379 C28.17544826 -0.04865162 34.47799458 -0.04483686 40.78073907 -0.03323323 C45.90400267 -0.0241923 51.02721289 -0.02297774 56.15048218 -0.02732849 C56.88020806 -0.02794142 57.60993393 -0.02855436 58.36177272 -0.02918586 C59.84428987 -0.03046479 61.32680702 -0.03176164 62.80932415 -0.03307623 C76.70436273 -0.04447693 90.59929568 -0.03137635 104.49431694 -0.00987476 C116.41171014 0.00799579 128.32894749 0.00489153 140.24633789 -0.0135498 C154.09232937 -0.03496555 167.93822832 -0.04337834 181.78423405 -0.03110075 C183.26123618 -0.02982658 184.73823832 -0.0285691 186.21524048 -0.02732849 C186.94191569 -0.02671139 187.6685909 -0.02609429 188.41728657 -0.02545848 C193.53320839 -0.02200769 198.64907142 -0.02782808 203.76498413 -0.0372467 C210.65315885 -0.04964962 217.54103442 -0.04079387 224.42918015 -0.01766968 C226.95795579 -0.01237828 229.48675619 -0.01390365 232.015522 -0.02272034 C235.46592406 -0.03364169 238.91538091 -0.01995182 242.36572266 0 C242.86674547 -0.00446144 242.86674547 -0.00446144 245.40222454 -0.02703905 C252.27454396 0.05010499 256.9555831 1.20829584 261.92504883 6.28918457 C262.11196289 6.57277832 262.11196289 6.57277832 263.05786133 8.00793457 C263.4471582 8.57512207 263.83645508 9.14230957 264.23754883 9.72668457 C267.70526195 16.26088781 266.18286133 23.0508544 266.18286133 30.50793457 C202.49286133 30.50793457 138.80286133 30.50793457 73.18286133 30.50793457 C73.18286133 109.37793457 73.18286133 188.24793457 73.18286133 269.50793457 C69.88286133 267.85793457 66.58286133 266.20793457 63.18286133 264.50793457 C63.22926758 265.93105957 63.27567383 267.35418457 63.32348633 268.82043457 C63.36102716 270.71624678 63.39742483 272.61208186 63.43286133 274.50793457 C63.46637695 275.44250488 63.49989258 276.3770752 63.53442383 277.33996582 C63.62222153 283.61750182 62.7991773 288.28374519 59.18286133 293.50793457 C53.86133268 298.69301377 48.78504732 299.80683057 41.53617859 299.78208923 C40.7739267 299.78732591 40.01167481 299.79256259 39.22632438 299.79795796 C36.67622021 299.81294052 34.12631701 299.81366272 31.57617188 299.81433105 C29.74606997 299.82195371 27.91597126 299.83038139 26.08587646 299.83955383 C21.11677942 299.86149512 16.14774391 299.87029724 11.17860389 299.87538028 C8.07304451 299.87902426 4.96750125 299.88526453 1.86194801 299.89238167 C-8.97534264 299.91687479 -19.81258543 299.92992779 -30.64990234 299.93347168 C-40.74684158 299.93710693 -50.84347684 299.96700198 -60.94032317 300.00887626 C-69.61309929 300.0435818 -78.28577468 300.05902017 -86.95861977 300.05971771 C-92.13670267 300.06051043 -97.31447589 300.06924676 -102.49248695 300.09771538 C-107.36405872 300.12390044 -112.23506415 300.1260987 -117.10667419 300.11005974 C-118.89165673 300.10824561 -120.67667186 300.11493274 -122.46158409 300.13087845 C-138.73921009 300.2673971 -138.73921009 300.2673971 -144.46173382 295.8796854 C-150.22914307 290.04272206 -150.96729369 284.92912102 -150.95758057 277.09539795 C-150.96055169 276.34625114 -150.96352281 275.59710433 -150.96658397 274.82525611 C-150.97525947 272.31354647 -150.97677825 269.80188456 -150.97827148 267.29016113 C-150.98290049 265.4897654 -150.98792526 263.68937066 -150.99331665 261.88897705 C-151.00643509 256.99627119 -151.01288458 252.10357905 -151.01732731 247.21085835 C-151.02025904 244.15338519 -151.02436406 241.09591579 -151.02883148 238.03844452 C-151.0425052 228.4703092 -151.05217237 218.90218244 -151.05603337 209.33403802 C-151.06051338 198.29284522 -151.07805918 187.25177626 -151.10703397 176.21062112 C-151.12865839 167.67375315 -151.13873807 159.13692 -151.14007449 150.60002494 C-151.14112201 145.50248945 -151.14701851 140.40507041 -151.1648941 135.30756378 C-151.1813878 130.51081005 -151.18352395 125.71426011 -151.1747551 120.9174881 C-151.17398541 119.1599269 -151.17831843 117.40235468 -151.18821335 115.64482117 C-151.20095989 113.23910832 -151.19504175 110.83411436 -151.18463135 108.42840576 C-151.19268775 107.73850249 -151.20074416 107.04859921 -151.20904469 106.33778977 C-151.1543655 100.90785682 -150.17331749 95.12657054 -146.43600583 90.97295594 C-142.16172854 87.29283272 -138.64261124 85.25501503 -133.00823975 85.26742554 C-132.52588364 85.26605087 -132.52588364 85.26605087 -130.08486938 85.25909424 C-129.55906784 85.26268951 -129.55906784 85.26268951 -126.89819336 85.28088379 C-125.78570221 85.28059174 -124.67321106 85.28029968 -123.52700806 85.27999878 C-119.84759742 85.2813928 -116.16838896 85.29695764 -112.48901367 85.31262207 C-109.93882355 85.31635194 -107.388632 85.31919903 -104.83843994 85.32119751 C-98.81073496 85.32805516 -92.78311685 85.34382022 -86.75544667 85.36389649 C-79.89213319 85.3862593 -73.02881622 85.39724988 -66.16547537 85.40728736 C-52.04932293 85.42818659 -37.93323478 85.46336018 -23.81713867 85.50793457 C-23.8215799 84.68631836 -23.82602112 83.86470215 -23.83059692 83.01818848 C-23.87077939 75.25056313 -23.90117663 67.48298866 -23.92076302 59.71528625 C-23.93117128 55.72245831 -23.94527604 51.72971673 -23.96801758 47.73693848 C-23.98985197 43.87899942 -24.00172951 40.02114309 -24.00689316 36.16314697 C-24.01056998 34.69605203 -24.01774962 33.22896129 -24.02859879 31.76190186 C-24.16841165 12.06079973 -24.16841165 12.06079973 -17.81713867 4.50793457 C-11.88709826 0.23263639 -7.18767147 -0.06400385 0 0 Z " fill="#00488D" transform="translate(192.817138671875,63.4920654296875)"/>
<path d="M0 0 C0.33 0 0.66 0 1 0 C1.09348307 22.41819215 1.16399874 44.83635212 1.20724869 67.25469971 C1.22786506 77.66416951 1.25596805 88.07351814 1.30175781 98.48291016 C1.3416538 107.55680454 1.36743954 116.63061114 1.37635398 125.7045908 C1.38156403 130.50825937 1.39379038 135.31167687 1.42292023 140.11526489 C1.45013293 144.63949944 1.45843317 149.16338021 1.45243073 153.68768883 C1.45352835 155.3452821 1.46144738 157.00288759 1.4768219 158.66040993 C1.61495418 174.32487038 1.61495418 174.32487038 -3 181 C-5.89274293 183.9260677 -8.88758522 186.87313863 -13.14471501 187.12880117 C-14.04237657 187.13058974 -14.94003812 187.13237831 -15.86490154 187.13422108 C-16.38201839 187.13645 -16.38201839 187.13645 -18.99894303 187.14772969 C-20.14395415 187.14754533 -21.28896528 187.14736097 -22.46867371 187.14717102 C-23.67825865 187.15084771 -24.88784359 187.1545244 -26.13408262 187.1583125 C-29.5023307 187.16745163 -32.87053 187.17205172 -36.23878586 187.17470181 C-39.86741974 187.17860043 -43.49603945 187.18817913 -47.12466431 187.19691467 C-55.89368119 187.21669259 -64.66269925 187.22674741 -73.43173286 187.23564246 C-77.55956963 187.24002358 -81.68740511 187.24539088 -85.81524086 187.25063133 C-99.53467511 187.26764567 -113.25410856 187.28213996 -126.97355175 187.28938007 C-130.5351836 187.29129002 -134.09681544 187.29321035 -137.65844727 187.29516602 C-138.54369268 187.29564976 -139.42893809 187.2961335 -140.34100912 187.2966319 C-154.68218189 187.3049326 -169.02327127 187.33026927 -183.36440762 187.36274669 C-198.08291794 187.39580736 -212.80138587 187.41382797 -227.51993352 187.41702431 C-235.78595194 187.41919044 -244.05184878 187.42795388 -252.31783104 187.45348549 C-259.3575761 187.47517904 -266.39717005 187.48324962 -273.43694475 187.47351871 C-277.0287416 187.46896991 -280.62022661 187.47089336 -284.21198082 187.49028015 C-288.10691977 187.51112175 -292.00142777 187.50093943 -295.89640808 187.48774719 C-296.46333684 187.49323182 -296.46333684 187.49323182 -299.33233994 187.52098733 C-305.77671981 187.4681849 -309.78603404 186.89596063 -315 183 C-319.20820983 177.57362416 -320.12533766 173.81847867 -320.11352539 167.05004883 C-320.11367142 166.34735367 -320.11381744 165.64465851 -320.1139679 164.92066956 C-320.11327157 162.59942532 -320.10549226 160.27826146 -320.09765625 157.95703125 C-320.09579108 156.3470616 -320.09436764 154.73709139 -320.09336853 153.12712097 C-320.08955118 148.89057853 -320.07972755 144.6540704 -320.06866455 140.4175415 C-320.05843364 136.09412093 -320.05386731 131.77069481 -320.04882812 127.44726562 C-320.03810459 118.96482801 -320.02103753 110.48241827 -320 102 C-318.85265381 101.99635437 -317.70530762 101.99270874 -316.52319336 101.98895264 C-305.69443404 101.95196255 -294.86595803 101.89414576 -284.03741455 101.81609726 C-278.47073207 101.77663953 -272.90420737 101.74444254 -267.33740234 101.72900391 C-261.96204068 101.71382632 -256.58711285 101.67936063 -251.21194458 101.63169098 C-249.16435524 101.61688865 -247.11670395 101.60895965 -245.06906128 101.60811615 C-242.19401146 101.60574133 -239.32015557 101.57861981 -236.4453125 101.54589844 C-235.60445602 101.5509288 -234.76359955 101.55595917 -233.89726257 101.56114197 C-228.2152951 101.46151905 -223.71045394 100.28508003 -219 97 C-215.39449025 92.47000057 -213.92628189 88.8337874 -213.68359375 83.11328125 C-213.64169922 82.17548828 -213.59980469 81.23769531 -213.55664062 80.27148438 C-213.51732422 79.29501953 -213.47800781 78.31855469 -213.4375 77.3125 C-213.4159082 76.8184668 -213.4159082 76.8184668 -213.30664062 74.31835938 C-213.20058346 71.87904454 -213.09852286 69.43962887 -213 67 C-209.05713337 68.47789078 -205.45089451 70.31042206 -201.765625 72.34375 C-201.17445389 72.66948502 -200.58328278 72.99522003 -199.97419739 73.33082581 C-198.71452479 74.02585846 -197.45565804 74.72235332 -196.19754028 75.42019653 C-194.23717669 76.50710982 -192.27390026 77.58861983 -190.31030273 78.66967773 C-184.65467356 81.79277855 -179.02660347 84.93560862 -173.51953125 88.31640625 C-172.74899414 88.78820312 -171.97845703 89.26 -171.18457031 89.74609375 C-169.81356955 90.5965811 -168.4514154 91.46157566 -167.10058594 92.34375 C-164.26925998 94.10438088 -162.521531 95.04060919 -159.14990234 94.77807617 C-155.80246506 93.95120571 -153.31220205 92.77640931 -150.31640625 91.078125 C-149.23601074 90.47154053 -148.15561523 89.86495605 -147.04248047 89.23999023 C-145.88239198 88.57682631 -144.72240092 87.91349193 -143.5625 87.25 C-142.35088152 86.56567549 -141.13879775 85.88217418 -139.92626953 85.19946289 C-136.85630228 83.46839581 -133.79212044 81.72736274 -130.72943115 79.98345947 C-128.15247633 78.51804663 -125.57043305 77.06169993 -122.98828125 75.60546875 C-119.23992965 73.4909394 -115.4941055 71.37203781 -111.75 69.25 C-105.63770126 65.78973171 -99.50656873 62.3634683 -93.375 58.9375 C-84.87089309 54.18405286 -76.39600115 49.38339498 -67.94604492 44.53442383 C-62.26845624 41.28157715 -56.56701108 38.07430988 -50.85131836 34.88891602 C-41.18385079 29.49903615 -31.53493489 24.07622003 -21.9375 18.5625 C-20.95676514 18.00771973 -19.97603027 17.45293945 -18.96557617 16.88134766 C-11.44355627 12.52989537 -4.08234522 7.92455249 0 0 Z " fill="#139FE2" transform="translate(469,261)"/>
<path d="M0 0 C32.01 0 64.02 0 97 0 C97.04030303 38.18488586 97.04030303 38.18488586 97.04882812 54.26757812 C97.05474645 65.34318508 97.06167884 76.4187844 97.07543945 87.49438477 C97.08545933 95.56305242 97.09187068 103.63171383 97.09408849 111.70038754 C97.09538329 115.96600656 97.09839008 120.23160774 97.10573006 124.49722099 C97.11260599 128.52646908 97.11459388 132.55569228 97.11310768 136.58494568 C97.11337888 138.05007119 97.11531444 139.5151977 97.11920547 140.98031807 C97.1200659 141.32154418 97.1200659 141.32154418 97.12442017 143.0483551 C97.12643779 143.63537201 97.12845541 144.22238892 97.13053417 144.82719421 C97.08862858 153.97531032 96.54095426 162.80377757 96 172 C64.32 172 32.64 172 0 172 C0 115.24 0 58.48 0 0 Z " fill="#2DCCFC" transform="translate(362,94)"/>
<path d="M0 0 C1.07909984 -0.00623996 2.15819967 -0.01247993 3.2699995 -0.01890898 C6.8804996 -0.03484471 10.49032515 -0.02223178 14.10083008 -0.00964355 C16.69146112 -0.01506438 19.28208907 -0.02218681 21.87271118 -0.03088379 C28.17544826 -0.04865162 34.47799458 -0.04483686 40.78073907 -0.03323323 C45.90400267 -0.0241923 51.02721289 -0.02297774 56.15048218 -0.02732849 C56.88020806 -0.02794142 57.60993393 -0.02855436 58.36177272 -0.02918586 C59.84428987 -0.03046479 61.32680702 -0.03176164 62.80932415 -0.03307623 C76.70436273 -0.04447693 90.59929568 -0.03137635 104.49431694 -0.00987476 C116.41171014 0.00799579 128.32894749 0.00489153 140.24633789 -0.0135498 C154.09232937 -0.03496555 167.93822832 -0.04337834 181.78423405 -0.03110075 C183.26123618 -0.02982658 184.73823832 -0.0285691 186.21524048 -0.02732849 C186.94191569 -0.02671139 187.6685909 -0.02609429 188.41728657 -0.02545848 C193.53320839 -0.02200769 198.64907142 -0.02782808 203.76498413 -0.0372467 C210.65315885 -0.04964962 217.54103442 -0.04079387 224.42918015 -0.01766968 C226.95795579 -0.01237828 229.48675619 -0.01390365 232.015522 -0.02272034 C235.46592406 -0.03364169 238.91538091 -0.01995182 242.36572266 0 C242.86674547 -0.00446144 242.86674547 -0.00446144 245.40222454 -0.02703905 C252.27454396 0.05010499 256.9555831 1.20829584 261.92504883 6.28918457 C262.11196289 6.57277832 262.11196289 6.57277832 263.05786133 8.00793457 C263.4471582 8.57512207 263.83645508 9.14230957 264.23754883 9.72668457 C267.70526195 16.26088781 266.18286133 23.0508544 266.18286133 30.50793457 C202.49286133 30.50793457 138.80286133 30.50793457 73.18286133 30.50793457 C73.18286133 87.26793457 73.18286133 144.02793457 73.18286133 202.50793457 C69.88286133 202.50793457 66.58286133 202.50793457 63.18286133 202.50793457 C63.18143631 201.22277954 63.18001129 199.93762451 63.17854309 198.61352539 C63.16185846 186.48974055 63.11903957 174.36629072 63.05077076 162.24268341 C63.01651082 156.01008817 62.99139224 149.7777378 62.98730469 143.54504395 C62.98301975 137.52774813 62.95453958 131.51100462 62.90942955 125.49388123 C62.896461 123.20067057 62.89214456 120.90739379 62.89670753 118.614151 C62.90161779 115.39650161 62.87549982 112.18046376 62.84228516 108.9630127 C62.8509108 108.0192981 62.85953644 107.0755835 62.86842346 106.10327148 C62.75907988 99.76566533 61.3494781 95.36972792 57.18286133 90.50793457 C50.34069712 84.81343272 41.06120344 85.90306193 32.65161133 85.89855957 C31.04877057 85.8835613 29.44594518 85.86683071 27.84313965 85.84844971 C23.64777882 85.8049483 19.45262642 85.7848156 15.25708008 85.76971436 C10.96659102 85.75008081 6.67632501 85.70811803 2.38598633 85.66809082 C-6.01499668 85.59297541 -14.41589167 85.54257139 -22.81713867 85.50793457 C-22.99470445 76.91058942 -23.16061451 68.31312988 -23.31191444 59.71528625 C-23.38254014 55.72236828 -23.45708087 51.72960568 -23.54077148 47.73693848 C-23.62148769 43.87913871 -23.69165505 40.02127437 -23.75471115 36.16314697 C-23.78050544 34.69599415 -23.81001094 33.22890142 -23.84340286 31.76190186 C-24.28256213 12.19654625 -24.28256213 12.19654625 -17.81713867 4.50793457 C-11.88709826 0.23263639 -7.18767147 -0.06400385 0 0 Z " fill="#0B4998" transform="translate(192.817138671875,63.4920654296875)"/>
<path d="M0 0 C0.33 0 0.66 0 1 0 C1.09348307 22.41819215 1.16399874 44.83635212 1.20724869 67.25469971 C1.22786506 77.66416951 1.25596805 88.07351814 1.30175781 98.48291016 C1.3416538 107.55680454 1.36743954 116.63061114 1.37635398 125.7045908 C1.38156403 130.50825937 1.39379038 135.31167687 1.42292023 140.11526489 C1.45013293 144.63949944 1.45843317 149.16338021 1.45243073 153.68768883 C1.45352835 155.3452821 1.46144738 157.00288759 1.4768219 158.66040993 C1.61744604 174.60745238 1.61744604 174.60745238 -3 181 C-5.00805283 182.23300171 -5.00805283 182.23300171 -7 183 C-9.09277344 182.34765625 -9.09277344 182.34765625 -11.359375 181.0625 C-12.21515137 180.5869165 -13.07092773 180.11133301 -13.95263672 179.62133789 C-14.41420166 179.35381714 -14.41420166 179.35381714 -16.75 178 C-17.7208252 177.45400146 -18.69165039 176.90800293 -19.69189453 176.34545898 C-27.81120995 171.75551783 -35.84936046 167.0207714 -43.88696289 162.28955078 C-51.8987936 157.59022326 -60.02866524 153.14280998 -68.21264648 148.75195312 C-75.54250564 144.81205659 -82.78490894 140.74052485 -89.99682617 136.58935547 C-96.8025579 132.67418544 -103.64439427 128.82710265 -110.5 125 C-120.92977515 119.17390517 -131.31624056 113.27590676 -141.67871094 107.33105469 C-145.22094314 105.29989672 -148.76672956 103.27497272 -152.3125 101.25 C-154.20833333 100.16666667 -156.10416667 99.08333333 -158 98 C-158 97.01 -158 96.02 -158 95 C-157.72176392 94.84966309 -157.72176392 94.84966309 -156.3137207 94.08886719 C-145.173074 88.06123174 -134.08829857 81.95349266 -123.10620117 75.64135742 C-116.30478442 71.73528745 -109.47192937 67.88818293 -102.625 64.0625 C-94.57155342 59.56224417 -86.52791903 55.04564646 -78.5 50.5 C-70.47207785 45.95435177 -62.42814642 41.43829621 -54.375 36.9375 C-4.89887113 9.25342324 -4.89887113 9.25342324 0 0 Z " fill="#2DCFFE" transform="translate(469,261)"/>
<path d="M0 0 C9.00900901 3.6036036 9.00900901 3.6036036 11.375 6.9375 C12.47682725 10.57352993 11.28337747 12.45788658 9.5625 15.75 C3.5154192 24.3502927 -6.79239942 29.413688 -15.8125 34.25 C-17.61869964 35.23318038 -19.42293621 36.21990318 -21.22717285 37.2066803 C-22.43448302 37.86661227 -23.64240722 38.52542219 -24.85095215 39.18309021 C-30.15190315 42.06959379 -35.39515038 45.04964631 -40.625 48.0625 C-49.23711653 53.00928375 -57.89316138 57.87416899 -66.56298828 62.71899414 C-73.55320819 66.62636711 -80.53141553 70.55418026 -87.5 74.5 C-96.56991021 79.63565285 -105.65837837 84.73729104 -114.76293945 89.8112793 C-119.88034361 92.66884164 -124.97612368 95.55577264 -130.03515625 98.515625 C-130.98890137 99.07113037 -131.94264648 99.62663574 -132.92529297 100.19897461 C-134.71414189 101.24391915 -136.49864313 102.2963572 -138.27783203 103.35766602 C-139.07688965 103.82358154 -139.87594727 104.28949707 -140.69921875 104.76953125 C-141.38846436 105.17792236 -142.07770996 105.58631348 -142.7878418 106.00708008 C-145.60366745 107.27095415 -147.91306825 107.80326566 -151 108 C-153.63037109 106.97119141 -153.63037109 106.97119141 -156.2734375 105.3515625 C-157.25626709 104.76205811 -158.23909668 104.17255371 -159.25170898 103.56518555 C-159.767052 103.24505493 -159.767052 103.24505493 -162.375 101.625 C-164.51889191 100.33097142 -166.66342553 99.03800542 -168.80859375 97.74609375 C-169.85772949 97.10784668 -170.90686523 96.46959961 -171.98779297 95.81201172 C-176.08791656 93.34555708 -180.25099405 91.00333538 -184.4375 88.6875 C-190.87643286 85.12356714 -190.87643286 85.12356714 -192 84 C-192 61.89 -192 39.78 -192 17 C-128.64 17 -65.28 17 0 17 C0 11.39 0 5.78 0 0 Z " fill="#1467C7" transform="translate(458,249)"/>
<path d="M0 0 C12.40459609 8.49405626 19.84077987 21.62064135 22.6875 36.28125 C24.90358522 53.85163994 22.3414619 70.92153529 12.125 85.75 C2.42684833 97.29918552 -8.84623961 103.74234117 -23.875 105.75 C-38.30111531 106.76851046 -50.95490699 104.28272845 -62.875 95.75 C-63.50921875 95.29882812 -64.1434375 94.84765625 -64.796875 94.3828125 C-75.24425951 86.20056888 -81.11164633 73.1297668 -83.5234375 60.30078125 C-85.36305496 41.7206449 -83.21892243 25.35548025 -71.8046875 9.95703125 C-64.20526517 0.95484816 -55.32699099 -4.59624095 -43.875 -7.25 C-43.56647095 -7.33491699 -43.56647095 -7.33491699 -42.00512695 -7.76464844 C-27.20060607 -11.13787337 -12.79983841 -7.51180667 0 0 Z " fill="#FBFCFD" transform="translate(178.875,208.25)"/>
<path d="M0 0 C32.01 0 64.02 0 97 0 C97.020625 11.034375 97.04125 22.06875 97.0625 33.4375 C97.071604 36.88501709 97.08070801 40.33253418 97.09008789 43.88452148 C97.09460449 48.18762207 97.09460449 48.18762207 97.09544373 50.22010803 C97.09695088 51.6001976 97.10040627 52.98028611 97.10557556 54.36036682 C97.10682686 54.71294304 97.10682686 54.71294304 97.11315918 56.49719238 C97.11588081 57.11384514 97.11860245 57.73049789 97.12140656 58.3658371 C97.09046417 67.67170778 96.55008041 76.64863306 96 86 C64.32 86 32.64 86 0 86 C0 57.62 0 29.24 0 0 Z " fill="#1BB4FF" transform="translate(362,180)"/>
<path d="M0 0 C31.68 0 63.36 0 96 0 C96 28.38 96 56.76 96 86 C64.32 86 32.64 86 0 86 C0 57.62 0 29.24 0 0 Z " fill="#158FD4" transform="translate(266,94)"/>
<path d="M0 0 C31.68 0 63.36 0 96 0 C96 56.76 96 113.52 96 172 C92.7 172 89.4 172 86 172 C85.99857498 170.71484497 85.99714996 169.42968994 85.99568176 168.10559082 C85.97899714 155.98180598 85.93617824 143.85835615 85.86790943 131.73474884 C85.8336495 125.5021536 85.80853091 119.26980323 85.80444336 113.03710938 C85.80015842 107.01981356 85.77167825 101.00307005 85.72656822 94.98594666 C85.71359968 92.692736 85.70928323 90.39945922 85.71384621 88.10621643 C85.71875647 84.88856704 85.69263849 81.67252919 85.65942383 78.45507812 C85.66804947 77.51136353 85.67667511 76.56764893 85.68556213 75.59533691 C85.57621855 69.25773076 84.16661677 64.86179335 80 60 C73.15783579 54.30549815 63.87834211 55.39512736 55.46875 55.390625 C53.86590925 55.37562673 52.26308385 55.35889614 50.66027832 55.34051514 C46.46491749 55.29701373 42.26976509 55.27688103 38.07421875 55.26177979 C33.02787872 55.23868742 27.98176652 55.18627777 22.93560791 55.13883972 C15.29034613 55.07022157 7.64573714 55.03861483 0 55 C0 36.85 0 18.7 0 0 Z " fill="#1B5EAF" transform="translate(170,94)"/>
<path d="M0 0 C9.26948086 4.97935694 13.53664113 13.56116217 16.88671875 23.1328125 C19.50242983 35.77964862 17.60828714 49.46353012 10.69921875 60.4453125 C6.51663701 66.10966315 0.8619134 71.55851524 -6.37402344 72.68652344 C-8.52567864 72.82119174 -10.64516509 72.85057596 -12.80078125 72.8203125 C-13.17871826 72.81616333 -13.17871826 72.81616333 -15.09130859 72.79516602 C-20.67336823 72.62544531 -24.97421155 71.9696888 -29.42578125 68.3828125 C-30.03550781 67.9084375 -30.64523438 67.4340625 -31.2734375 66.9453125 C-39.57243832 59.61540944 -42.89472992 48.64596062 -43.6796875 37.91015625 C-44.05931364 25.87233373 -41.68058945 14.56492294 -33.42578125 5.3828125 C-23.1074524 -3.09425979 -12.5277809 -5.11119164 0 0 Z " fill="#02498E" transform="translate(161.42578125,221.6171875)"/>
<path d="M0 0 C9.00900901 3.6036036 9.00900901 3.6036036 11.375 6.9375 C12.47682725 10.57352993 11.28337747 12.45788658 9.5625 15.75 C3.5154192 24.3502927 -6.79239942 29.413688 -15.8125 34.25 C-17.61869964 35.23318038 -19.42293621 36.21990318 -21.22717285 37.2066803 C-22.43448302 37.86661227 -23.64240722 38.52542219 -24.85095215 39.18309021 C-30.15189962 42.06959187 -35.39521932 45.049531 -40.625 48.0625 C-49.30940462 53.05306259 -58.04425708 57.94941789 -66.79150391 62.82885742 C-74.38437019 67.07290754 -81.92753547 71.39608734 -89.42822266 75.80102539 C-94.8974177 79 -94.8974177 79 -96 79 C-96 58.54 -96 38.08 -96 17 C-64.32 17 -32.64 17 0 17 C0 11.39 0 5.78 0 0 Z " fill="#0F73D9" transform="translate(458,249)"/>
<path d="M0 0 C3.3 0 6.6 0 10 0 C10 28.38 10 56.76 10 86 C6.7 86 3.4 86 0 86 C0 57.62 0 29.24 0 0 Z " fill="#074DAF" transform="translate(256,180)"/>
<path d="M0 0 C3.3 0 6.6 0 10 0 C10 22.11 10 44.22 10 67 C6.7 65.35 3.4 63.7 0 62 C0 41.54 0 21.08 0 0 Z " fill="#0E439D" transform="translate(256,266)"/>
<path d="M0 0 C9.00900901 3.6036036 9.00900901 3.6036036 11.375 6.9375 C12.1626146 9.53662817 12.03590484 10.48423111 11 13 C8.27275526 17.74742603 5.30690187 20.74589637 1 24 C0.67 24 0.34 24 0 24 C0 16.08 0 8.16 0 0 Z " fill="#192882" transform="translate(458,249)"/>
</svg>
