<?xml version="1.0" encoding="UTF-8"?>
<!-- Generator: visioncortex VTracer 0.6.12 -->
<svg version="1.1" xmlns="http://www.w3.org/2000/svg" width="512" height="512">
<path d="M0 0 C1.02925795 -0.00445784 2.0585159 -0.00891569 3.11896348 -0.01350862 C4.25327986 -0.01332426 5.38759625 -0.01313989 6.55628586 -0.01294994 C7.15742199 -0.01478829 7.15742199 -0.01478829 10.19953513 -0.02409142 C13.54272081 -0.03322052 16.88585739 -0.03782844 20.22905087 -0.04048073 C23.83244544 -0.04438332 27.43582578 -0.05396164 31.03921127 -0.0626936 C39.74403532 -0.08245867 48.44886054 -0.09252399 57.15370142 -0.10142139 C61.25214821 -0.10580396 65.3505937 -0.11117083 69.44903946 -0.11641026 C83.07157879 -0.1334221 96.69411732 -0.14791677 110.31666565 -0.155159 C113.85200374 -0.15706891 117.38734183 -0.15898924 120.9226799 -0.16094494 C121.36202924 -0.16118681 121.36202924 -0.16118681 123.58540317 -0.16241082 C137.82304822 -0.17071297 152.06060931 -0.1960532 166.29821768 -0.22852562 C180.91279853 -0.26158633 195.52733669 -0.27960684 210.14195514 -0.28280324 C218.34871423 -0.28496919 226.55535085 -0.29373024 234.76207352 -0.31926441 C241.75055771 -0.34095789 248.73888969 -0.34902852 255.72740373 -0.33929763 C259.29287995 -0.33474903 262.85804202 -0.33667122 266.42347527 -0.35605907 C270.28989775 -0.37690201 274.15588616 -0.36671792 278.02235031 -0.35352612 C279.14774381 -0.36449536 280.27313731 -0.37546461 281.43263364 -0.38676625 C287.86811965 -0.33365209 291.79978222 0.31598388 297.04328537 4.13422108 C298.78547287 5.91547108 298.78547287 5.91547108 299.91828537 7.63422108 C300.30758224 8.20140858 300.69687912 8.76859608 301.09797287 9.35297108 C303.1297156 13.18137886 303.16972938 16.85711259 303.17471313 21.1354084 C303.17855428 22.37217774 303.18239542 23.60894707 303.18635297 24.88319427 C303.18557273 26.25791098 303.18469395 27.63262765 303.18372726 29.00734425 C303.18631095 30.46598775 303.18932412 31.92463054 303.19273067 33.38327235 C303.20080342 37.39688134 303.20259039 41.41047245 303.20332813 45.4240886 C303.20517819 49.75071418 303.21272524 54.07733047 303.21946335 58.40395069 C303.23304873 67.86669069 303.23907159 77.32942645 303.24347401 86.79217458 C303.24623584 92.69931424 303.25047307 98.60645226 303.25497818 104.51359081 C303.26717066 120.8649485 303.27747031 137.21630487 303.28085327 153.56766701 C303.28107284 154.61429997 303.2812924 155.66093294 303.28151862 156.73928205 C303.2817369 157.78843303 303.28195518 158.837584 303.28218007 159.91852742 C303.28262354 162.04454315 303.2830701 164.17055887 303.28351974 166.29657459 C303.28374117 167.35115404 303.2839626 168.40573349 303.28419074 169.4922699 C303.28813977 186.58480228 303.30559708 203.67729205 303.32887927 220.76980797 C303.35258327 238.31341263 303.36505467 255.85699589 303.36622119 273.40061682 C303.36713844 283.25277316 303.37290333 293.10487398 303.3910408 302.95701504 C303.40642889 311.34532055 303.41156986 319.73355338 303.4033027 328.12187032 C303.39939173 332.40220831 303.40034755 336.68239987 303.41436005 340.96271992 C303.42707206 344.88159131 303.42592533 348.80020582 303.41376933 352.71907672 C303.41180765 354.13630222 303.41491251 355.55354575 303.4236137 356.9707459 C303.47935564 366.6638393 303.10517263 373.87056561 296.04328537 381.13422108 C290.36380835 384.96962044 284.76133636 384.55438013 278.16279221 384.515172 C276.95725111 384.51985198 275.75171 384.52453195 274.50963736 384.52935374 C271.17113351 384.53924072 267.83313685 384.53569434 264.49466395 384.52639508 C260.89133135 384.51960429 257.2880429 384.53008596 253.68471909 384.53833485 C246.62889073 384.55167407 239.57315811 384.54879361 232.517326 384.54009692 C226.78286302 384.53332153 221.04842686 384.53240303 215.31396103 384.53566837 C214.49777474 384.53612807 213.68158845 384.53658777 212.84066924 384.5370614 C211.18259783 384.53802058 209.52452642 384.53899322 207.86645502 384.53997917 C192.31903729 384.54853362 176.77167263 384.53869808 161.22426361 384.52257808 C147.8841258 384.50917484 134.5440663 384.51150292 121.2039299 384.52533436 C105.71211218 384.54138921 90.22034098 384.54770964 74.7285161 384.53849757 C73.07654731 384.53754192 71.42457851 384.53659881 69.77260971 384.53566837 C68.95981138 384.53520555 68.14701305 384.53474272 67.30958447 384.53426587 C61.58206875 384.53167569 55.85458253 384.53604757 50.12707138 384.54310703 C43.147052 384.55152117 36.16713383 384.54924374 29.18712604 384.5332648 C25.62586578 384.52538088 22.06477426 384.52229244 18.50351524 384.53221226 C14.64350759 384.54280162 10.78377623 384.53015671 6.92377853 384.515172 C5.79751855 384.52186417 4.67125857 384.52855633 3.5108695 384.53545129 C-2.82257421 384.48761795 -7.66465636 384.13063334 -12.56608963 379.66937733 C-16.85417664 374.13304582 -18.20850209 371.14543582 -18.18376541 364.07074451 C-18.18405746 363.36790333 -18.18434952 362.66506214 -18.18465042 361.94092274 C-18.18326055 359.62502024 -18.16771576 357.30944216 -18.15202713 354.99359608 C-18.14829578 353.38505701 -18.14544938 351.77651567 -18.14345169 350.16797352 C-18.13582486 345.93961757 -18.11618457 341.71139957 -18.09404373 337.48309803 C-18.07356481 333.16630386 -18.0644456 328.84948735 -18.05437088 324.53265858 C-18.03293775 316.06644952 -17.99881331 307.60035247 -17.95671463 299.13422108 C-19.1165889 299.14532413 -20.27646317 299.15642719 -21.47148514 299.16786671 C-32.41771779 299.26935299 -43.36385462 299.34423956 -54.31045151 299.39328194 C-59.93785632 299.41934312 -65.56488045 299.45467825 -71.19206619 299.51141834 C-76.62561139 299.56586124 -82.05879108 299.59566778 -87.49258804 299.60860729 C-89.56260301 299.61782507 -91.63259863 299.63582543 -93.70245743 299.66287136 C-96.60860844 299.69932451 -99.51326133 299.70415959 -102.41960526 299.70184803 C-103.26981247 299.71982441 -104.12001968 299.73780079 -104.99599075 299.75632191 C-111.10393046 299.70397077 -115.24226758 298.05030908 -119.95671463 294.13422108 C-124.56330883 288.34644887 -125.10608214 283.92027823 -125.09715652 276.72168446 C-125.10012765 275.97253765 -125.10309877 275.22339084 -125.10615993 274.45154262 C-125.11483543 271.93983298 -125.1163542 269.42817107 -125.11784744 266.91644764 C-125.12247644 265.11605191 -125.12750122 263.31565716 -125.13289261 261.51526356 C-125.14601105 256.6225577 -125.15246053 251.72986555 -125.15690327 246.83714485 C-125.159835 243.7796717 -125.16394001 240.72220229 -125.16840744 237.66473103 C-125.18208116 228.0965957 -125.19174833 218.52846894 -125.19560933 208.96032453 C-125.20008934 197.91913173 -125.21763514 186.87806277 -125.24660993 175.83690763 C-125.26823435 167.30003966 -125.27831403 158.76320651 -125.27965045 150.22631145 C-125.28069797 145.12877596 -125.28659447 140.03135691 -125.30447006 134.93385029 C-125.32096375 130.13709655 -125.32309991 125.34054661 -125.31433105 120.5437746 C-125.31356137 118.7862134 -125.31789439 117.02864119 -125.32778931 115.27110767 C-125.34053585 112.86539483 -125.3346177 110.46040087 -125.32420731 108.05469227 C-125.33226371 107.36478899 -125.34032012 106.67488572 -125.34862065 105.96407628 C-125.29394146 100.53414333 -124.31289345 94.75285704 -120.57558179 90.59924245 C-116.67297724 87.23912689 -113.10243032 84.87982077 -107.90709305 84.89371204 C-107.50887848 84.89233738 -107.50887848 84.89233738 -105.49367142 84.88538074 C-105.06137726 84.88897602 -105.06137726 84.88897602 -102.87370682 84.9071703 C-101.95628708 84.90687824 -101.03886734 84.90658619 -100.093647 84.90628529 C-97.06353142 84.90767779 -94.03366222 84.92323537 -91.00358963 84.93890858 C-88.9018047 84.94263899 -86.80001803 84.94548583 -84.69823074 84.94748402 C-79.16784738 84.95511825 -73.63756916 84.97476503 -68.10722733 84.99689198 C-62.4633209 85.01735486 -56.81939747 85.02648669 -51.17546463 85.03656483 C-40.10250178 85.05801105 -29.02961695 85.09214454 -17.95671463 85.13422108 C-17.96781769 84.24996449 -17.97892075 83.36570789 -17.99036026 82.45465565 C-18.09077915 74.09846287 -18.16678941 65.74247439 -18.21577549 57.38581562 C-18.24180712 53.09009918 -18.27708594 48.79488365 -18.3339119 44.49945545 C-18.38846359 40.3497018 -18.41818352 36.20042822 -18.43110085 32.05034351 C-18.44029945 30.47154151 -18.45826232 28.89276413 -18.48536491 27.31416798 C-18.75007566 11.24890126 -18.75007566 11.24890126 -12.95671463 5.13422108 C-8.74597248 1.22424622 -5.68214018 0.01140354 0 0 Z " fill="#00488D" transform="translate(166.95671463012695,63.86577892303467)"/>
<path d="M0 0 C1.02925795 -0.00445784 2.0585159 -0.00891569 3.11896348 -0.01350862 C4.25327986 -0.01332426 5.38759625 -0.01313989 6.55628586 -0.01294994 C7.15742199 -0.01478829 7.15742199 -0.01478829 10.19953513 -0.02409142 C13.54272081 -0.03322052 16.88585739 -0.03782844 20.22905087 -0.04048073 C23.83244544 -0.04438332 27.43582578 -0.05396164 31.03921127 -0.0626936 C39.74403532 -0.08245867 48.44886054 -0.09252399 57.15370142 -0.10142139 C61.25214821 -0.10580396 65.3505937 -0.11117083 69.44903946 -0.11641026 C83.07157879 -0.1334221 96.69411732 -0.14791677 110.31666565 -0.155159 C113.85200374 -0.15706891 117.38734183 -0.15898924 120.9226799 -0.16094494 C121.36202924 -0.16118681 121.36202924 -0.16118681 123.58540317 -0.16241082 C137.82304822 -0.17071297 152.06060931 -0.1960532 166.29821768 -0.22852562 C180.91279853 -0.26158633 195.52733669 -0.27960684 210.14195514 -0.28280324 C218.34871423 -0.28496919 226.55535085 -0.29373024 234.76207352 -0.31926441 C241.75055771 -0.34095789 248.73888969 -0.34902852 255.72740373 -0.33929763 C259.29287995 -0.33474903 262.85804202 -0.33667122 266.42347527 -0.35605907 C270.28989775 -0.37690201 274.15588616 -0.36671792 278.02235031 -0.35352612 C279.14774381 -0.36449536 280.27313731 -0.37546461 281.43263364 -0.38676625 C287.86811965 -0.33365209 291.79978222 0.31598388 297.04328537 4.13422108 C298.78547287 5.91547108 298.78547287 5.91547108 299.91828537 7.63422108 C300.30758224 8.20140858 300.69687912 8.76859608 301.09797287 9.35297108 C302.92124803 12.78856395 303.16808987 16.06197959 303.1663332 19.90557194 C303.16832425 20.86798652 303.1703153 21.8304011 303.17236668 22.82197976 C303.16945384 23.87644823 303.166541 24.9309167 303.16353989 26.01733875 C303.1639671 26.57849428 303.1639671 26.57849428 303.16612905 29.41828132 C303.16778087 33.19242573 303.1622673 36.96652605 303.15681076 40.74066639 C303.1565288 43.44073048 303.15664273 46.14079184 303.15725327 48.8408556 C303.15777781 54.66084979 303.15463823 60.48083279 303.14901543 66.30082417 C303.14089108 74.71557144 303.13828424 83.13031329 303.13702744 91.54506406 C303.13483839 105.19718197 303.12818229 118.84929391 303.11872482 132.50140858 C303.1095469 145.76377807 303.10247939 159.02614593 303.09821701 172.28851795 C303.09794901 173.11424179 303.09768102 173.93996563 303.0974049 174.7907114 C303.0953255 181.24833962 303.09336856 187.70596788 303.09145033 194.16359615 C303.08201533 225.82047661 303.06189733 257.47734212 303.04328537 289.13422108 C232.09328537 289.13422108 161.14328537 289.13422108 88.04328537 289.13422108 C88.35578537 194.13422108 88.35578537 194.13422108 88.49372482 164.13812733 C88.51630783 152.0502367 88.51630783 152.0502367 88.520504 146.39130116 C88.52516219 142.43900995 88.54389869 138.48705457 88.57116318 134.53485584 C88.60549707 129.49096083 88.61573431 124.44755309 88.60864675 119.40355206 C88.61012846 117.55406371 88.62002138 115.70455807 88.63936102 113.85517025 C88.81045942 96.69412523 88.81045942 96.69412523 84.63096523 91.53063297 C78.83366507 86.43173419 73.11929156 85.54332688 65.59797287 85.58832264 C65.14384773 85.5831538 65.14384773 85.5831538 62.84569931 85.55699635 C59.86971077 85.52770422 56.89440637 85.52607205 53.91828537 85.52484608 C51.84462319 85.50985527 49.77097292 85.49312623 47.6973381 85.47473621 C42.25912027 85.43115186 36.82106349 85.41108328 31.38270187 85.39600086 C25.82545611 85.37639769 20.26838345 85.33443125 14.71125412 85.29437733 C3.82198471 85.21917171 -7.06724576 85.16882177 -17.95671463 85.13422108 C-18.0728531 75.88485873 -18.1615531 66.63574954 -18.21577549 57.38581562 C-18.24180712 53.09009918 -18.27708594 48.79488365 -18.3339119 44.49945545 C-18.38846359 40.3497018 -18.41818352 36.20042822 -18.43110085 32.05034351 C-18.44029945 30.47154151 -18.45826232 28.89276413 -18.48536491 27.31416798 C-18.75007566 11.24890126 -18.75007566 11.24890126 -12.95671463 5.13422108 C-8.74597248 1.22424622 -5.68214018 0.01140354 0 0 Z " fill="#2C8BD3" transform="translate(166.95671463012695,63.86577892303467)"/>
<path d="M0 0 C0.165 0.33 0.165 0.33 1 2 C71.95 2 142.9 2 216 2 C216 86.8 216 86.8 209 94 C203.32052298 97.83539936 197.71805099 97.42015906 191.11950684 97.38095093 C189.91396574 97.3856309 188.70842463 97.39031087 187.46635199 97.39513266 C184.12784814 97.40501964 180.78985148 97.40147326 177.45137858 97.39217401 C173.84804598 97.38538321 170.24475753 97.39586488 166.64143372 97.40411377 C159.58560536 97.41745299 152.52987274 97.41457254 145.47404063 97.40587585 C139.73957765 97.39910045 134.00514149 97.39818196 128.27067566 97.4014473 C127.45448937 97.401907 126.63830308 97.40236669 125.79738387 97.40284032 C124.13931246 97.4037995 122.48124105 97.40477214 120.82316965 97.4057581 C105.27575192 97.41431254 89.72838726 97.404477 74.18097824 97.388357 C60.84084043 97.37495376 47.50078093 97.37728184 34.16064453 97.39111328 C18.66882681 97.40716813 3.17705561 97.41348857 -12.31476927 97.40427649 C-13.96673806 97.40332084 -15.61870685 97.40237773 -17.27067566 97.4014473 C-18.08347399 97.40098447 -18.89627232 97.40052164 -19.7337009 97.40004479 C-25.46121662 97.39745462 -31.18870284 97.40182649 -36.91621399 97.40888596 C-43.89623337 97.41730009 -50.87615154 97.41502266 -57.85615933 97.39904372 C-61.41741959 97.39115981 -64.97851111 97.38807136 -68.53977013 97.39799118 C-72.39977778 97.40858054 -76.25950914 97.39593564 -80.11950684 97.38095093 C-80.68263683 97.38429701 -80.68263683 97.38429701 -83.53241587 97.40123022 C-89.86585958 97.35339687 -94.70794173 96.99641226 -99.609375 92.53515625 C-103.89746201 86.99882474 -105.25178746 84.01121474 -105.22705078 76.93652344 C-105.22734283 76.23368225 -105.22763489 75.53084106 -105.22793579 74.80670166 C-105.22654592 72.49079916 -105.21100113 70.17522108 -105.1953125 67.859375 C-105.19158115 66.25083594 -105.18873475 64.64229459 -105.18673706 63.03375244 C-105.17911023 58.80539649 -105.15946994 54.5771785 -105.1373291 50.34887695 C-105.11685018 46.03208278 -105.10773097 41.71526627 -105.09765625 37.3984375 C-105.07622312 28.93222844 -105.04209868 20.4661314 -105 12 C-104.42410629 11.99706688 -104.42410629 11.99706688 -101.50973511 11.98222351 C-90.65095209 11.92499058 -79.79236923 11.85222576 -68.93379021 11.76428509 C-63.35138266 11.71957304 -57.76904823 11.68031858 -52.18652344 11.65356445 C-46.79826053 11.62754006 -41.41027888 11.58714334 -36.02219009 11.53681374 C-33.96736273 11.52013926 -31.9124867 11.50862861 -29.85760117 11.50238609 C-26.97752198 11.4927515 -24.09816332 11.46469937 -21.21826172 11.43237305 C-20.37021469 11.43380814 -19.52216766 11.43524323 -18.64842224 11.4367218 C-12.20467667 11.3345515 -8.10167538 9.86815589 -3.1875 5.5 C-1 3 -1 3 0 0 Z " fill="#2050A8" transform="translate(254,351)"/>
<path d="M0 0 C70.62 0 141.24 0 214 0 C214 32.01 214 64.02 214 97 C143.05 97 72.1 97 -1 97 C-0.67 64.99 -0.34 32.98 0 0 Z " fill="#2D6FC8" transform="translate(256,256)"/>
<path d="M0 0 C6.93 0 13.86 0 21 0 C21.58007812 2.77921875 22.16015625 5.5584375 22.7578125 8.421875 C26.94583989 28.47412467 31.1482147 48.52233399 35.47851562 68.54443359 C36.00550367 71.02591569 36.5075284 73.51145855 37 76 C39.53032222 68.90166244 41.24759859 61.80314611 42.8125 54.4375 C45.41532388 42.45417757 48.28697566 30.55949312 51.31835938 18.67822266 C52.35067688 14.62216139 53.36262227 10.56107361 54.375 6.5 C54.91125 4.355 55.4475 2.21 56 0 C63.92 0 71.84 0 80 0 C85.01733196 19.80213265 89.86578578 39.63090417 94.2265625 59.58984375 C94.4119458 60.43659668 94.5973291 61.28334961 94.78833008 62.15576172 C95.12795336 63.71514986 95.46395957 65.27533195 95.7956543 66.83642578 C96.89104287 71.89104287 96.89104287 71.89104287 98 73 C98.17015625 72.18885742 98.3403125 71.37771484 98.515625 70.54199219 C102.0465536 53.73721364 105.64465403 36.94924495 109.375 20.1875 C109.46233398 19.79475891 109.46233398 19.79475891 109.90429688 17.80725098 C112.78992475 4.840301 112.78992475 4.840301 114 0 C120.93 0 127.86 0 135 0 C133.73632527 8.32238304 132.00362595 16.37785965 129.88763428 24.52270508 C126.62002019 37.12630384 123.65486991 49.78059766 120.875 62.5 C118.56057136 73.0740027 116.19114732 83.62331996 113.5625 94.125 C113.3154834 95.11435547 113.0684668 96.10371094 112.81396484 97.12304688 C111.13685672 103.72628656 111.13685672 103.72628656 110 106 C102.08 106 94.16 106 86 106 C84.1430902 99.19133072 82.37812228 92.50556255 80.94921875 85.6171875 C80.5793973 83.86571176 80.20952229 82.11424733 79.83959961 80.36279297 C79.74541245 79.91394745 79.74541245 79.91394745 79.26876831 77.64251709 C75.77872412 61.0258243 72.12657266 44.47171732 68 28 C64.93963794 38.8801327 62.4529265 49.8283135 60.13619995 60.88775635 C59.16514117 65.52088291 58.18104702 70.15122659 57.1953125 74.78125 C57.00470749 75.67683624 56.81410248 76.57242249 56.61772156 77.49514771 C54.57785673 87.0396218 52.33185221 96.52214907 50 106 C41.42 106 32.84 106 24 106 C20.51379648 91.75607378 17.06888938 77.51426206 13.9375 63.1875 C12.07503474 54.66992457 10.08906803 46.19919317 7.9375 37.75 C5.86162286 29.59073462 3.92135324 21.41307716 2.125 13.1875 C2.017323 12.69781738 2.017323 12.69781738 1.47241211 10.21972656 C1.37512817 9.76774902 1.37512817 9.76774902 0.8828125 7.48046875 C0.71152832 6.68535889 0.54024414 5.89024902 0.36376953 5.07104492 C0 3 0 3 0 0 Z " fill="#FBFCFD" transform="translate(82,203)"/>
</svg>
