<?xml version="1.0" encoding="UTF-8"?>
<!-- Generator: visioncortex VTracer 0.6.12 -->
<svg version="1.1" xmlns="http://www.w3.org/2000/svg" width="512" height="512">
<path d="M0 0 C0.54666671 -0.0035328 0.54666671 -0.0035328 3.31313157 -0.02141088 C4.51389006 -0.0189958 5.71464856 -0.01658071 6.95179367 -0.01409245 C8.22771873 -0.01932912 9.50364379 -0.0245658 10.81823325 -0.02996117 C14.36246462 -0.04415433 17.90660835 -0.04580421 21.45086408 -0.04536426 C25.2724052 -0.04701132 29.09391009 -0.06007579 32.91543198 -0.07155704 C41.27290321 -0.09441516 49.63034907 -0.10232857 57.98784733 -0.10738349 C63.20619777 -0.11063966 68.42454084 -0.11716167 73.64288712 -0.12438488 C88.09070346 -0.1439521 102.53851294 -0.16035552 116.98634338 -0.16326141 C117.91105273 -0.16344898 118.83576207 -0.16363655 119.7884929 -0.16382981 C121.6631128 -0.16419606 123.5377327 -0.16455976 125.41235259 -0.16492092 C126.34291881 -0.16510373 127.27348502 -0.16528654 128.23225021 -0.16547489 C129.16395215 -0.16565544 130.09565408 -0.16583599 131.05558941 -0.16602201 C146.15256716 -0.16956366 161.24940227 -0.19658491 176.34633055 -0.23397278 C191.84575356 -0.27205028 207.34510578 -0.29141885 222.8445766 -0.29172093 C231.54712734 -0.29230563 240.24950795 -0.30080613 248.95201492 -0.32971859 C256.36244569 -0.35422508 263.77264428 -0.36152041 271.1831046 -0.34647106 C274.96344084 -0.33929898 278.74331854 -0.34017178 282.52360344 -0.36288166 C286.62410914 -0.38727901 290.72357039 -0.37284444 294.82410812 -0.35466862 C295.42002593 -0.3612686 295.42002593 -0.3612686 298.43573117 -0.39466852 C306.38339143 -0.31410467 311.3752481 1.19937619 317.15776658 6.70272928 C321.6947665 11.69264865 322.89039758 16.85076206 322.89918709 23.43928909 C322.90563598 24.66487355 322.91208487 25.890458 322.91872919 27.15318137 C322.91578721 28.5049149 322.9126518 29.85664802 322.90934372 31.2083807 C322.91308156 32.65082734 322.91768361 34.09327196 322.92307436 35.53571337 C322.93530325 39.49535587 322.93504403 43.45491386 322.93268561 47.41457093 C322.93227742 51.6866744 322.94331682 55.95875079 322.95280075 60.23084164 C322.969411 68.59910941 322.9749103 76.96734901 322.97602551 85.33563188 C322.97697595 92.13795246 322.98108605 98.94026374 322.98742676 105.74258137 C323.00503907 125.02968117 323.01426562 144.31675871 323.01276581 163.60386661 C323.0126859 164.64355814 323.01260599 165.68324966 323.01252365 166.75444698 C323.01244189 167.79540835 323.01236013 168.83636972 323.01227589 169.90887537 C323.01146294 186.78008624 323.03060281 203.65120785 323.05880038 220.52239291 C323.087527 237.8468528 323.10134081 255.17126915 323.09961283 272.49575347 C323.09894886 282.22164409 323.10444416 291.94744111 323.12596893 301.67331028 C323.14417777 309.95393372 323.14853049 318.23442114 323.13495009 326.51505593 C323.12841899 330.73898863 323.12830825 334.96266037 323.14565659 339.18656826 C323.16138621 343.05619389 323.15852511 346.92535161 323.14108832 350.79496583 C323.13801816 352.19197848 323.14165151 353.58902606 323.15280847 354.98599754 C323.21673811 363.56119163 323.06474987 371.60744797 316.86259973 378.13182288 C312.31542519 382.26953799 308.54960078 384.50798271 302.29945374 384.51733112 C301.75452872 384.52055557 301.75452872 384.52055557 298.99687791 384.53687322 C298.39844414 384.53532462 298.39844414 384.53532462 295.37000656 384.52748775 C294.09816505 384.53201887 292.82632354 384.53654998 291.51594138 384.5412184 C287.98310663 384.55346832 284.45036643 384.5531856 280.91751528 384.55082965 C277.1082478 384.55042198 273.29901084 384.56145595 269.48975754 384.57094479 C262.02526758 384.58756726 254.56080921 384.59305492 247.0963023 384.59416954 C241.02857404 384.59511954 234.96085622 384.59922741 228.89313126 384.60557079 C211.691975 384.62318752 194.49084371 384.63240913 177.28967836 384.63090985 C176.36209915 384.63082993 175.43451993 384.63075002 174.47883224 384.63066769 C173.55012093 384.63058593 172.62140961 384.63050416 171.66455552 384.63041992 C156.61609772 384.62960716 141.56774006 384.64874121 126.51931122 384.67694442 C111.06960927 384.70567126 95.61995615 384.71948479 80.17022681 384.71775687 C71.49565006 384.71709284 62.82117823 384.72259056 54.14662552 384.74411297 C46.76000428 384.76232227 39.37353552 384.7666743 31.98690155 384.75309412 C28.21878009 384.74656281 24.45095117 384.74645278 20.68285751 384.76380062 C16.59560495 384.78242406 12.50903004 384.76998099 8.42176437 384.75453854 C7.23381972 384.76482566 6.04587506 384.77511279 4.82193208 384.78571165 C-2.87277065 384.72138923 -8.71505289 383.86161453 -14.41667557 378.22490597 C-14.87171463 377.55588253 -15.32675369 376.88685909 -15.79558182 376.19756222 C-16.26866776 375.52596066 -16.74175369 374.85435909 -17.22917557 374.16240597 C-19.54834095 370.25433143 -19.47959686 366.94394177 -19.47160721 362.4937048 C-19.47175323 361.81051678 -19.47189926 361.12732876 -19.47204971 360.42343807 C-19.47135351 358.16712415 -19.46357477 355.91089296 -19.45573807 353.65459347 C-19.45387285 352.08946433 -19.45244944 350.52433461 -19.45145035 348.95920467 C-19.44763333 344.84102928 -19.43781 340.72288919 -19.42674637 336.60472775 C-19.41651472 332.40195347 -19.41194897 328.19917349 -19.40690994 323.99639034 C-19.39618701 315.75093144 -19.37912036 307.50550122 -19.35808182 299.26006222 C-20.21728226 299.26894466 -21.0764827 299.27782711 -21.96171951 299.28697872 C-30.08248369 299.36732522 -38.20311321 299.42812822 -46.32418442 299.46731091 C-50.49874283 299.48813284 -54.67297115 299.51635073 -58.84733963 299.56182003 C-62.88036695 299.60547187 -66.91307796 299.62923985 -70.94632339 299.63957119 C-72.48044179 299.64692807 -74.01454404 299.66129414 -75.54852676 299.68298244 C-90.52924802 299.88625 -90.52924802 299.88625 -97.35808182 295.26006222 C-102.53904299 290.19423352 -105.01103531 284.66954739 -105.73839855 277.52372074 C-105.7396135 276.8775854 -105.7396135 276.8775854 -105.74576187 273.60774899 C-105.75114741 272.88109692 -105.75653295 272.15444486 -105.76208168 271.40577304 C-105.77628083 268.99390719 -105.76927779 266.58259646 -105.76213455 264.17070675 C-105.76784239 262.43207518 -105.77480824 260.69344736 -105.78293228 258.9548254 C-105.80083418 254.24811192 -105.79970077 249.54158519 -105.7939899 244.83484793 C-105.79089342 240.89861558 -105.79699567 236.96241886 -105.80302864 233.02619159 C-105.81706282 223.73611686 -105.81552209 214.4461341 -105.80412674 205.15605831 C-105.79264935 195.58796543 -105.80671737 186.02015298 -105.83352321 176.45209706 C-105.85571167 168.22252819 -105.86231042 159.99304715 -105.8564468 151.7634505 C-105.85308322 146.85480366 -105.85545232 141.94633651 -105.87269783 137.03771496 C-105.88821484 132.41974963 -105.88415887 127.80219819 -105.86539268 123.18424892 C-105.86171979 121.49525816 -105.86477715 119.8062364 -105.87527847 118.11727428 C-105.98873054 98.35226397 -105.98873054 98.35226397 -99.60808849 91.33564091 C-94.35523106 86.43119202 -89.53885065 85.00715855 -82.36467361 85.03301144 C-81.68119354 85.03271938 -80.99771347 85.03242733 -80.29352188 85.03212643 C-78.04798291 85.03351305 -75.80278115 85.04904235 -73.55730057 85.06474972 C-71.99503129 85.06848223 -70.43275967 85.07132808 -68.87048721 85.07332516 C-64.76873123 85.08094287 -60.66711802 85.10057525 -56.56541824 85.12273312 C-52.37588304 85.14323175 -48.18632465 85.15233545 -43.99675369 85.16240597 C-35.78379772 85.183823 -27.57095756 85.21793633 -19.35808182 85.26006222 C-19.36918488 84.3883337 -19.38028793 83.51660519 -19.39172745 82.61846066 C-19.49215316 74.37999832 -19.56815999 66.14174328 -19.61714268 57.90280819 C-19.64317253 53.66762208 -19.67844793 49.43294418 -19.73527908 45.1980505 C-19.78983736 41.10665083 -19.81955204 37.01573818 -19.83246803 32.92400265 C-19.84166549 31.36752823 -19.85962609 29.81107874 -19.8867321 28.25481319 C-20.1515867 12.4099521 -20.1515867 12.4099521 -14.35808182 6.26006222 C-9.8136167 2.04811894 -6.21616631 0.01283356 0 0 Z " fill="#20A265" transform="translate(147.35808181762695,63.7399377822876)"/>
<path d="M0 0 C70.62 0 141.24 0 214 0 C214.0825 28.689375 214.165 57.37875 214.25 86.9375 C214.28641602 95.99179443 214.32283203 105.04608887 214.36035156 114.37475586 C214.37841797 125.44250488 214.37841797 125.44250488 214.3817749 130.62599182 C214.38549722 134.24152979 214.40046978 137.85683216 214.42230225 141.4723053 C214.44981266 146.08947389 214.45795107 150.70630167 214.4522891 155.32354462 C214.45347242 157.01467616 214.4613608 158.70582006 214.47686052 160.39688098 C214.64068051 179.14673641 214.64068051 179.14673641 208.22052383 185.86099148 C203.68714386 190.01490787 199.90459022 192.24792512 193.65753555 192.25726891 C193.11261054 192.26049335 193.11261054 192.26049335 190.35495973 192.276811 C189.75652595 192.2752624 189.75652595 192.2752624 186.72808838 192.26742554 C185.45624687 192.27195665 184.18440536 192.27648776 182.8740232 192.28115618 C179.34118845 192.2934061 175.80844825 192.29312338 172.2755971 192.29076743 C168.46632962 192.29035976 164.65709266 192.30139374 160.84783936 192.31088257 C153.3833494 192.32750504 145.91889103 192.3329927 138.45438412 192.33410732 C132.38665586 192.33505732 126.31893803 192.33916519 120.25121307 192.34550858 C103.05005682 192.3631253 85.84892553 192.37234691 68.64776018 192.37084763 C67.72018096 192.37076772 66.79260174 192.3706878 65.83691406 192.37060547 C64.90820274 192.37052371 63.97949142 192.37044195 63.02263734 192.37035771 C47.97417954 192.36954495 32.92582187 192.38867899 17.87739304 192.4168822 C2.42769109 192.44560904 -13.02196203 192.45942257 -28.47169137 192.45769465 C-37.14626813 192.45703062 -45.82073995 192.46252834 -54.49529266 192.48405075 C-61.8819139 192.50226005 -69.26838267 192.50661208 -76.65501663 192.4930319 C-80.42313809 192.48650059 -84.19096701 192.48639056 -87.95906067 192.5037384 C-92.04631323 192.52236184 -96.13288815 192.50991877 -100.22015381 192.49447632 C-101.40809847 192.50476344 -102.59604312 192.51505057 -103.8199861 192.52564943 C-111.51468883 192.46132701 -117.35697108 191.60155231 -123.05859375 185.96484375 C-123.51363281 185.29582031 -123.96867188 184.62679687 -124.4375 183.9375 C-124.67404297 183.60169922 -124.67404297 183.60169922 -125.87109375 181.90234375 C-128.20599632 177.96775014 -128.1214562 174.62275195 -128.11352539 170.1418457 C-128.11367142 169.44890411 -128.11381744 168.75596252 -128.1139679 168.04202271 C-128.11327163 165.75324363 -128.1054926 163.4645461 -128.09765625 161.17578125 C-128.09579106 159.58823186 -128.09436763 158.00068189 -128.09336853 156.41313171 C-128.08955134 152.2357728 -128.07972786 148.05844869 -128.06866455 143.88110352 C-128.05843328 139.61800609 -128.05386723 135.35490304 -128.04882812 131.09179688 C-128.03810489 122.72784862 -128.02103803 114.36392864 -128 106 C-127.43015633 105.99853344 -126.86031265 105.99706688 -126.27320099 105.99555588 C-112.38383241 105.95844421 -98.49471002 105.89912101 -84.60553741 105.81609726 C-77.88871378 105.77635061 -71.17200655 105.74393606 -64.45507812 105.72900391 C-57.97101245 105.71384335 -51.48730767 105.67940739 -45.00340271 105.63169098 C-42.53156168 105.61687118 -40.05966913 105.60895865 -37.58778381 105.60811615 C-34.12128368 105.60574669 -30.655781 105.5786662 -27.18945312 105.54589844 C-26.68019287 105.54841362 -26.68019287 105.54841362 -24.10302734 105.56114197 C-16.69025134 105.45296655 -11.1524275 103.98202602 -5.6875 98.8125 C11.28675197 70.52208006 -0.37919352 32.98983635 0 0 Z " fill="#175B36" transform="translate(256,256)"/>
<path d="M0 0 C1.04058563 -0.0030162 2.08117126 -0.00603241 3.15328979 -0.00914001 C4.29992096 -0.00201492 5.44655212 0.00511017 6.62792969 0.01245117 C7.2481752 0.01240837 7.2481752 0.01240837 10.38699341 0.01219177 C13.86994484 0.01294336 17.35272201 0.02728194 20.83562469 0.0448761 C23.0539278 0.05543956 25.2722214 0.06307471 27.49053955 0.06970215 C35.89155821 0.09500593 44.2924369 0.13362992 52.69335938 0.1809082 C61.48044731 0.23013861 70.26749641 0.26136464 79.0546875 0.28540039 C90.57040555 0.31737504 102.08593929 0.36617548 113.60151672 0.43164158 C120.02996659 0.46794902 126.45830295 0.49805553 132.88684082 0.51309204 C139.02420734 0.52807226 145.16117712 0.56244904 151.29836655 0.61104012 C153.5850879 0.62590338 155.8718647 0.63397341 158.15863419 0.63485527 C161.31598585 0.6372113 164.4722336 0.66415296 167.62939453 0.69702148 C168.54743488 0.69199018 169.46547523 0.68695887 170.41133499 0.68177509 C177.29238588 0.79303832 182.87029396 2.34676226 187.85839844 7.27807617 C188.3134375 7.94709961 188.76847656 8.61612305 189.23730469 9.30541992 C189.71039063 9.97702148 190.18347656 10.64862305 190.67089844 11.34057617 C193.03622271 15.32643402 192.92984054 18.7593677 192.94024658 23.3006897 C192.9432177 24.0237752 192.94618883 24.7468607 192.94924998 25.49185789 C192.95794031 27.92142276 192.95944553 30.35093838 192.9609375 32.78051758 C192.96556556 34.52003078 192.9705902 36.25954296 192.97598267 37.99905396 C192.98911266 42.73073427 192.99555317 47.4624004 192.99999332 52.19409609 C193.00292399 55.15123339 193.00702886 58.10836682 193.0114975 61.06550217 C193.025176 70.32022255 193.03484008 79.57493408 193.03869939 88.82966387 C193.04317665 99.50749531 193.06070764 110.18519852 193.08969998 120.86299098 C193.11133636 129.11875279 193.12140477 137.37447859 193.12274051 145.63026845 C193.12378743 150.5596194 193.12967087 155.48884987 193.14756012 160.41817093 C193.16407388 165.05896916 193.16618027 169.6995568 193.15742111 174.34037399 C193.15665242 176.03946243 193.16097125 177.73856235 193.17087936 179.43762207 C193.28413925 200.07802528 193.28413925 200.07802528 187.04980469 207.11791992 C186.60121094 207.6515918 186.15261719 208.18526367 185.69042969 208.73510742 C179.85797626 213.38660953 173.99838484 213.68657427 166.8347168 213.67529297 C165.85244362 213.68547046 164.87017044 213.69564795 163.85813141 213.70613384 C160.59774664 213.73632263 157.33765487 213.74553253 154.07714844 213.75463867 C151.76464403 213.77176254 149.45214868 213.79015027 147.1396637 213.8097229 C140.95067214 213.85818878 134.76172585 213.88815173 128.57260132 213.91348648 C122.18865096 213.94167263 115.8047864 213.98337234 109.42089844 214.02294922 C99.26712124 214.083819 89.11334207 214.1330657 78.95947266 214.17553711 C68.40457261 214.2201514 57.85032444 214.29484028 47.29579163 214.39207458 C41.5256013 214.44478089 35.75536205 214.4831059 29.98501873 214.51452732 C26.29966229 214.53484976 22.61459553 214.56100026 18.92941284 214.60263062 C14.93819034 214.647102 10.94751391 214.65971458 6.95605469 214.66870117 C5.82172501 214.68615387 4.68739532 214.70360657 3.51869202 214.72158813 C-4.64407328 214.69913709 -10.11380438 213.26072439 -16.01269531 207.49291992 C-20.10062492 201.4194245 -21.57404203 195.94747346 -21.58787537 188.59060669 C-21.5932609 187.86395463 -21.59864644 187.13730257 -21.60419518 186.38863075 C-21.61839432 183.9767649 -21.61139128 181.56545416 -21.60424805 179.15356445 C-21.60995588 177.41493289 -21.61692174 175.67630506 -21.62504578 173.93768311 C-21.64294767 169.23096963 -21.64181427 164.52444289 -21.63610339 159.81770563 C-21.63300692 155.88147328 -21.63910917 151.94527657 -21.64514214 148.0090493 C-21.65917632 138.71897456 -21.65763558 129.4289918 -21.64624023 120.13891602 C-21.63476284 110.57082314 -21.64883086 101.00301069 -21.67563671 91.43495476 C-21.69782516 83.2053859 -21.70442392 74.97590485 -21.6985603 66.74630821 C-21.69519672 61.83766137 -21.69756581 56.92919421 -21.71481133 52.02057266 C-21.73032834 47.40260733 -21.72627236 42.78505589 -21.70750618 38.16710663 C-21.70383329 36.47811586 -21.70689064 34.7890941 -21.71739197 33.10013199 C-21.83084403 13.33512167 -21.83084403 13.33512167 -15.45020199 6.31849861 C-10.870014 2.04210274 -6.31785836 -0.01009756 0 0 Z " fill="#117740" transform="translate(63.2001953125,148.757080078125)"/>
<path d="M0 0 C56.43 0 112.86 0 171 0 C171 31.68 171 63.36 171 96 C114.57 96 58.14 96 0 96 C0 64.32 0 32.64 0 0 Z " fill="#107B41" transform="translate(299,256)"/>
<path d="M0 0 C56.43 0 112.86 0 171 0 C171 31.68 171 63.36 171 96 C114.57 96 58.14 96 0 96 C0 64.32 0 32.64 0 0 Z " fill="#21A266" transform="translate(299,160)"/>
<path d="M0 0 C38.79838761 -0.20151517 38.79838761 -0.20151517 55.0625 -0.24414062 C66.29048079 -0.27380361 77.51827392 -0.30866635 88.74609375 -0.37719727 C96.92344763 -0.42708528 105.1006492 -0.45930359 113.27815104 -0.47044247 C117.6068244 -0.47695213 121.93506207 -0.49221525 126.26359558 -0.52865028 C130.34139644 -0.56269533 134.41858388 -0.57303599 138.49651337 -0.56553841 C139.98964018 -0.56690918 141.4827884 -0.57679143 142.97579193 -0.59602737 C152.18378258 -0.70880205 158.66083324 -0.11382167 165.50643158 6.44285107 C185.70409323 28.50123923 171 66.09150582 171 96 C114.57 96 58.14 96 0 96 C0 64.32 0 32.64 0 0 Z " fill="#32C380" transform="translate(299,64)"/>
<path d="M0 0 C8.58 0 17.16 0 26 0 C27.02480469 2.0728125 28.04960937 4.145625 29.10546875 6.28125 C30.1140029 8.31396898 31.12395122 10.34597948 32.1340332 12.37792969 C32.82887032 13.77758768 33.52226263 15.17796399 34.21411133 16.57910156 C37.84156914 23.92306669 41.46217789 31.16242726 46 38 C46.17595703 37.67314209 46.17595703 37.67314209 47.06640625 36.01904297 C53.57802905 23.93301202 60.11592207 11.87840897 67 0 C74.92 0 82.84 0 91 0 C87.24267833 7.19258719 83.14962236 14.10538695 78.875 21 C78.59765015 21.44839233 78.59765015 21.44839233 77.1940918 23.7175293 C74.33514075 28.31806041 71.43404667 32.88369995 68.453125 37.40625 C67.89383301 38.26347656 67.33454102 39.12070313 66.75830078 40.00390625 C65.69122418 41.63466726 64.6119295 43.25751606 63.51904297 44.87109375 C63.04096191 45.60457031 62.56288086 46.33804688 62.0703125 47.09375 C61.64508301 47.72990234 61.21985352 48.36605469 60.78173828 49.02148438 C59.7007057 51.7574894 60.11841157 53.21433915 61 56 C62.30004883 58.46923828 62.30004883 58.46923828 63.95703125 61.0703125 C64.5696582 62.04057373 65.18228516 63.01083496 65.81347656 64.01049805 C66.4731543 65.03828369 67.13283203 66.06606934 67.8125 67.125 C68.4837793 68.18436768 69.15505859 69.24373535 69.84667969 70.33520508 C71.2241837 72.50788681 72.60489187 74.67854033 73.98876953 76.84716797 C76.40393176 80.63320888 78.8021998 84.42971489 81.19799805 88.22802734 C82.20700137 89.82700477 83.21749959 91.42504019 84.22973633 93.02197266 C85.49074632 95.01200754 86.74635593 97.00532021 88 99 C88.60328125 99.95519531 89.2065625 100.91039062 89.828125 101.89453125 C91 104 91 104 91 106 C87.10517784 106.23282073 83.21214146 106.37456639 79.3125 106.5 C78.20970703 106.56703125 77.10691406 106.6340625 75.97070312 106.703125 C68.13724355 106.89245333 68.13724355 106.89245333 65.42456055 104.76367188 C64.01827118 102.59432864 63.04367594 100.36784108 62 98 C61.00082302 96.09442082 59.9688425 94.20836348 58.93717957 92.32019043 C56.98395432 88.73292623 55.09145043 85.11357974 53.1875 81.5 C52.39154949 79.99464705 51.59532783 78.48943744 50.79882812 76.984375 C48.86275299 73.32456297 46.93036557 69.66282651 45 66 C42.17750908 69.47653625 40.15153574 73.29545809 38.09375 77.25 C37.7277771 77.94512695 37.3618042 78.64025391 36.98474121 79.35644531 C35.81984434 81.56924015 34.65938297 83.78431174 33.5 86 C31.97271991 88.91877375 30.44089928 91.83509543 28.90625 94.75 C28.55929077 95.41676758 28.21233154 96.08353516 27.8548584 96.77050781 C24.03765394 104.01868247 24.03765394 104.01868247 22 106 C19.36450195 106.45410156 19.36450195 106.45410156 16.23828125 106.390625 C15.12001953 106.37773437 14.00175781 106.36484375 12.84960938 106.3515625 C11.68236328 106.31804687 10.51511719 106.28453125 9.3125 106.25 C8.13365234 106.23195313 6.95480469 106.21390625 5.74023438 106.1953125 C2.82601074 106.14811859 -0.08659031 106.08229077 -3 106 C0.62878104 98.9080335 4.70894828 92.22861402 9.0625 85.5625 C9.61462158 84.71445801 10.16674316 83.86641602 10.7355957 82.99267578 C13.70213749 78.45431907 16.70978843 73.94872688 19.76953125 69.47265625 C20.37337646 68.57667725 20.97722168 67.68069824 21.59936523 66.75756836 C22.76029444 65.0363667 23.93509965 63.32442236 25.12524414 61.62329102 C25.64852295 60.84268311 26.17180176 60.0620752 26.7109375 59.2578125 C27.17806152 58.5786377 27.64518555 57.89946289 28.12646484 57.19970703 C29.35581953 54.10398715 28.84769186 52.18836409 28 49 C26.82348633 46.49658203 26.82348633 46.49658203 25.33203125 44.0078125 C24.77467285 43.06623291 24.21731445 42.12465332 23.64306641 41.15454102 C23.34102295 40.65466675 23.34102295 40.65466675 21.8125 38.125 C20.54537279 35.99100423 19.27845214 33.85688581 18.01171875 31.72265625 C17.35478027 30.62324707 16.6978418 29.52383789 16.02099609 28.39111328 C12.68936303 22.8008278 9.40729319 17.18188114 6.125 11.5625 C5.81872681 11.04147705 5.81872681 11.04147705 4.26879883 8.40478516 C3.70829834 7.44749512 3.14779785 6.49020508 2.5703125 5.50390625 C2.07289551 4.65642822 1.57547852 3.8089502 1.06298828 2.93579102 C0 1 0 1 0 0 Z " fill="#FCFDFC" transform="translate(105,203)"/>
<path d="M0 0 C4.62 0 9.24 0 14 0 C14.06964786 12.86563861 14.12288636 25.73123204 14.15543652 38.5970211 C14.17106247 44.5717474 14.19224473 50.54634427 14.22631836 56.52099609 C14.25902116 62.29168589 14.27687609 68.06225154 14.28463173 73.83302689 C14.29015564 76.02974017 14.30094235 78.22644701 14.31719017 80.42310715 C14.33910943 83.51057126 14.34196086 86.59752864 14.34057617 89.68505859 C14.351362 90.58417969 14.36214783 91.48330078 14.3732605 92.40966797 C14.32495808 102.42578464 11.80260751 110.54714324 5 118 C-1.02525241 123.89135791 -9.19029784 128.12956347 -17.72660828 128.12025452 C-18.69835999 128.12162918 -19.67011169 128.12300385 -20.67131042 128.12442017 C-21.20358498 128.12262253 -21.20358498 128.12262253 -23.8972168 128.11352539 C-25.01931549 128.11367142 -26.14141418 128.11381744 -27.29751587 128.1139679 C-31.01476968 128.11326998 -34.73197367 128.10548317 -38.44921875 128.09765625 C-41.0232592 128.09579164 -43.59730001 128.09436794 -46.17134094 128.09336853 C-52.25925528 128.08993757 -58.34714899 128.08205218 -64.43505555 128.07201904 C-71.36606694 128.06084421 -78.29707917 128.055344 -85.22809732 128.05032361 C-99.48540944 128.03986921 -113.74270041 128.0215292 -128 128 C-128 120.74 -128 113.48 -128 106 C-124.64908203 105.9906543 -121.29816406 105.98130859 -117.84570312 105.97167969 C-106.76553634 105.93788957 -95.6855554 105.88232904 -84.60553741 105.81609726 C-77.88871378 105.77635061 -71.17200655 105.74393606 -64.45507812 105.72900391 C-57.97101245 105.71384335 -51.48730767 105.67940739 -45.00340271 105.63169098 C-42.53156168 105.61687118 -40.05966913 105.60895865 -37.58778381 105.60811615 C-34.12128368 105.60574669 -30.655781 105.5786662 -27.18945312 105.54589844 C-26.68019287 105.54841362 -26.68019287 105.54841362 -24.10302734 105.56114197 C-16.69025134 105.45296655 -11.1524275 103.98202602 -5.6875 98.8125 C-1.72861884 92.21436473 -0.55367013 85.58900743 -0.56762695 77.99194336 C-0.5574353 77.14206848 -0.54724365 76.2921936 -0.53674316 75.41656494 C-0.50683785 72.6409222 -0.49738192 69.8656258 -0.48828125 67.08984375 C-0.47141787 65.15213393 -0.45326541 63.21443493 -0.43388367 61.27674866 C-0.38655772 56.20190821 -0.35663601 51.12711168 -0.33044434 46.05212402 C-0.30055067 40.86343719 -0.25405073 35.67490143 -0.20898438 30.48632812 C-0.12314945 20.32429806 -0.05571638 10.16223674 0 0 Z " fill="#134F2F" transform="translate(256,256)"/>
<path d="M0 0 C10.56 0 21.12 0 32 0 C32 31.68 32 63.36 32 96 C22.43 96 12.86 96 3 96 C2.98018066 93.37611328 2.96036133 90.75222656 2.93994141 88.04882812 C2.87292831 79.36352425 2.7952904 70.67833852 2.71247292 61.99317169 C2.6626027 56.72919838 2.61627193 51.46524423 2.578125 46.20117188 C2.54115494 41.1176911 2.49476341 36.03437439 2.44193649 30.95103455 C2.42345472 29.01507963 2.408324 27.07908963 2.39665604 25.14308167 C2.37968685 22.42399421 2.35062671 19.70527743 2.31884766 16.98632812 C2.31668747 16.19222534 2.31452728 15.39812256 2.31230164 14.57995605 C2.30671989 14.20423462 2.30671989 14.20423462 2.2784729 12.30285645 C2.27294214 11.66128853 2.26741138 11.01972061 2.26171303 10.35871124 C1.87195894 6.84601886 0.85718129 3.42872517 0 0 Z " fill="#3E9D6F" transform="translate(267,160)"/>
<path d="M0 0 C14.56062564 -0.07025278 29.12122867 -0.12306755 43.68198967 -0.15543652 C50.4436499 -0.17086917 57.20520448 -0.19188922 63.96679688 -0.22631836 C70.49608078 -0.25954861 77.02529631 -0.27687012 83.5546608 -0.28463173 C86.04164478 -0.29016077 88.52862299 -0.30095756 91.01556015 -0.31719017 C94.50773678 -0.33907086 97.99946471 -0.34196242 101.49169922 -0.34057617 C102.51237991 -0.351362 103.53306061 -0.36214783 104.58467102 -0.3732605 C114.996987 -0.32874182 123.99230277 2.16597268 132 9 C139.36394709 16.72142025 142.48391938 24.43273472 142.34057617 34.98632812 C142.34101425 35.84581055 142.34145233 36.70529297 142.34190369 37.59082031 C142.33982969 40.40453577 142.31656489 43.21763987 142.29296875 46.03125 C142.28736784 47.99279454 142.28310008 49.9543433 142.28010559 51.91589355 C142.26869578 57.05830639 142.23926203 62.20046176 142.20599365 67.34277344 C142.17520924 72.59827187 142.16158241 77.85381223 142.14648438 83.109375 C142.11438848 93.40636262 142.06323913 103.70315983 142 114 C137.38 114 132.76 114 128 114 C127.99857498 112.87993057 127.99714996 111.75986115 127.99568176 110.60585022 C127.97898045 100.02754793 127.93611097 89.44962879 127.86790943 78.87152958 C127.83368292 73.4337473 127.80853616 67.99624469 127.80444336 62.55834961 C127.80015118 57.30610988 127.77161168 52.05450057 127.72656822 46.80245781 C127.71362269 44.80314245 127.70927505 42.80375154 127.71384621 40.80439949 C127.71877316 37.99399667 127.69256752 35.18542165 127.65942383 32.37524414 C127.66804947 31.55668442 127.67667511 30.73812469 127.68556213 29.89476013 C127.5633014 23.67226875 125.67485253 19.0306064 122 14 C117.95351567 10.31421805 113.75802475 8.88380263 108.34931946 8.84178162 C107.39439606 8.8319928 106.43947266 8.82220398 105.45561218 8.81211853 C104.93268837 8.8092408 104.93268837 8.8092408 102.28637695 8.79467773 C101.1837854 8.78477814 100.08119385 8.77487854 98.94519043 8.76467896 C95.29290937 8.73303722 91.6406153 8.70829586 87.98828125 8.68359375 C85.45907753 8.66302654 82.92987727 8.64203013 80.40068054 8.62062073 C74.41904566 8.57102565 68.4373931 8.52576655 62.45570964 8.48259836 C55.64558088 8.43321027 48.83550019 8.37829798 42.02541792 8.32291877 C28.01699014 8.20912695 14.00851621 8.10228181 0 8 C0 5.36 0 2.72 0 0 Z " fill="#388D64" transform="translate(128,142)"/>
<path d="M0 0 C14.56062564 -0.07025278 29.12122867 -0.12306755 43.68198967 -0.15543652 C50.4436499 -0.17086917 57.20520448 -0.19188922 63.96679688 -0.22631836 C70.49608078 -0.25954861 77.02529631 -0.27687012 83.5546608 -0.28463173 C86.04164478 -0.29016077 88.52862299 -0.30095756 91.01556015 -0.31719017 C94.50773678 -0.33907086 97.99946471 -0.34196242 101.49169922 -0.34057617 C102.51237991 -0.351362 103.53306061 -0.36214783 104.58467102 -0.3732605 C114.97565425 -0.32883303 124.01411291 2.15495393 132 9 C138 15.75463918 138 15.75463918 138 18 C135.855 18.165 135.855 18.165 125 19 C124.505 18.0925 124.01 17.185 123.5 16.25 C120.80021028 12.27394721 117.5019982 10.53219375 113 9 C109.23262351 8.44644988 105.52185486 8.4354893 101.71875 8.45410156 C100.61542831 8.44376389 99.51210663 8.43342621 98.37535095 8.42277527 C94.75008375 8.39341762 91.12537658 8.39184952 87.5 8.390625 C84.97793518 8.37563869 82.45588015 8.3589106 79.93383789 8.34051514 C73.98776283 8.30133383 68.04178903 8.2796414 62.09561443 8.26654124 C55.32157865 8.25063236 48.54772794 8.21220061 41.7737999 8.17194796 C27.84926238 8.0897052 13.92472955 8.03551574 0 8 C0 5.36 0 2.72 0 0 Z " fill="#1C905A" transform="translate(128,142)"/>
<path d="M0 0 C1.98 0 3.96 0 6 0 C8.7861587 5.53893835 9.42281979 9.81072686 9.34057617 15.96459961 C9.34101425 16.83368958 9.34145233 17.70277954 9.34190369 18.59820557 C9.33982593 21.44981937 9.31654296 24.30083359 9.29296875 27.15234375 C9.28736919 29.13773782 9.28310079 31.12313606 9.28010559 33.10853577 C9.26868519 38.31836516 9.23924215 43.52794118 9.20599365 48.7376709 C9.17523224 54.06010512 9.16158729 59.38258052 9.14648438 64.70507812 C9.11436976 75.13682969 9.06320738 85.56839372 9 96 C6.69 96 4.38 96 2 96 C1.99484627 95.43552406 1.99484627 95.43552406 1.96876526 92.57893372 C1.87101743 81.94066495 1.76828197 71.30245449 1.66066074 60.66428089 C1.60549179 55.19507147 1.55208141 49.72585665 1.50268555 44.2565918 C1.45495312 38.97866389 1.40260709 33.70080007 1.34705925 28.42294884 C1.32667592 26.40914188 1.30795627 24.39531737 1.29092598 22.38147926 C1.26679289 19.56130254 1.23675053 16.74124613 1.20532227 13.92114258 C1.1995668 13.08820175 1.19381134 12.25526093 1.18788147 11.39707947 C1.13814219 7.4715143 0.96136669 3.83315118 0 0 Z " fill="#33815C" transform="translate(254,160)"/>
<path d="M0 0 C14.85590247 -0.09358587 29.71178203 -0.16404885 44.56791687 -0.20724869 C51.46643957 -0.22784344 58.36477873 -0.25590444 65.26318359 -0.30175781 C71.92216511 -0.34599851 78.5809167 -0.36914681 85.24005127 -0.37950897 C87.77894082 -0.38689229 90.3178201 -0.40131015 92.85662842 -0.42292023 C96.41636585 -0.45201172 99.97531882 -0.45595342 103.53515625 -0.45410156 C104.05844261 -0.46129211 104.05844261 -0.46129211 106.70658875 -0.49768066 C115.98027992 -0.44557404 122.39412287 2.55140566 129 9 C130.375 11.8125 130.375 11.8125 131 14 C129.02 14.33 127.04 14.66 125 15 C124.505 14.0925 124.01 13.185 123.5 12.25 C120.80021028 8.27394721 117.5019982 6.53219375 113 5 C109.23262351 4.44644988 105.52185486 4.4354893 101.71875 4.45410156 C100.61542831 4.44376389 99.51210663 4.43342621 98.37535095 4.42277527 C94.75008375 4.39341762 91.12537658 4.39184952 87.5 4.390625 C84.97793518 4.37563869 82.45588015 4.3589106 79.93383789 4.34051514 C73.98776283 4.30133383 68.04178903 4.2796414 62.09561443 4.26654124 C55.32157865 4.25063236 48.54772794 4.21220061 41.7737999 4.17194796 C27.84926238 4.0897052 13.92472955 4.03551574 0 4 C0 2.68 0 1.36 0 0 Z " fill="#198351" transform="translate(128,146)"/>
<path d="M0 0 C0.66 0.66 1.32 1.32 2 2 C0.68 2.99 -0.64 3.98 -2 5 C-1.34 3.35 -0.68 1.7 0 0 Z " fill="#2E8756" transform="translate(149,268)"/>
</svg>
