<?xml version="1.0" encoding="UTF-8"?>
<!-- Generator: visioncortex VTracer 0.6.12 -->
<svg version="1.1" xmlns="http://www.w3.org/2000/svg" width="512" height="512">
<path d="M0 0 C1.02925795 -0.00445784 2.0585159 -0.00891569 3.11896348 -0.01350862 C4.25327986 -0.01332426 5.38759625 -0.01313989 6.55628586 -0.01294994 C7.15742199 -0.01478829 7.15742199 -0.01478829 10.19953513 -0.02409142 C13.54272081 -0.03322052 16.88585739 -0.03782844 20.22905087 -0.04048073 C23.83244544 -0.04438332 27.43582578 -0.05396164 31.03921127 -0.0626936 C39.74403532 -0.08245867 48.44886054 -0.09252399 57.15370142 -0.10142139 C61.25214821 -0.10580396 65.3505937 -0.11117083 69.44903946 -0.11641026 C83.07157879 -0.1334221 96.69411732 -0.14791677 110.31666565 -0.155159 C113.85200374 -0.15706891 117.38734183 -0.15898924 120.9226799 -0.16094494 C121.36202924 -0.16118681 121.36202924 -0.16118681 123.58540317 -0.16241082 C137.82304822 -0.17071297 152.06060931 -0.1960532 166.29821768 -0.22852562 C180.91279853 -0.26158633 195.52733669 -0.27960684 210.14195514 -0.28280324 C218.34871423 -0.28496919 226.55535085 -0.29373024 234.76207352 -0.31926441 C241.75055771 -0.34095789 248.73888969 -0.34902852 255.72740373 -0.33929763 C259.29287995 -0.33474903 262.85804202 -0.33667122 266.42347527 -0.35605907 C270.28989775 -0.37690201 274.15588616 -0.36671792 278.02235031 -0.35352612 C279.14774381 -0.36449536 280.27313731 -0.37546461 281.43263364 -0.38676625 C287.86811965 -0.33365209 291.79978222 0.31598388 297.04328537 4.13422108 C298.78547287 5.91547108 298.78547287 5.91547108 299.91828537 7.63422108 C300.30758224 8.20140858 300.69687912 8.76859608 301.09797287 9.35297108 C303.1297156 13.18137886 303.16972938 16.85711259 303.17471313 21.1354084 C303.17855428 22.37217774 303.18239542 23.60894707 303.18635297 24.88319427 C303.18557273 26.25791098 303.18469395 27.63262765 303.18372726 29.00734425 C303.18631095 30.46598775 303.18932412 31.92463054 303.19273067 33.38327235 C303.20080342 37.39688134 303.20259039 41.41047245 303.20332813 45.4240886 C303.20517819 49.75071418 303.21272524 54.07733047 303.21946335 58.40395069 C303.23304873 67.86669069 303.23907159 77.32942645 303.24347401 86.79217458 C303.24623584 92.69931424 303.25047307 98.60645226 303.25497818 104.51359081 C303.26717066 120.8649485 303.27747031 137.21630487 303.28085327 153.56766701 C303.28107284 154.61429997 303.2812924 155.66093294 303.28151862 156.73928205 C303.2817369 157.78843303 303.28195518 158.837584 303.28218007 159.91852742 C303.28262354 162.04454315 303.2830701 164.17055887 303.28351974 166.29657459 C303.28374117 167.35115404 303.2839626 168.40573349 303.28419074 169.4922699 C303.28813977 186.58480228 303.30559708 203.67729205 303.32887927 220.76980797 C303.35258327 238.31341263 303.36505467 255.85699589 303.36622119 273.40061682 C303.36713844 283.25277316 303.37290333 293.10487398 303.3910408 302.95701504 C303.40642889 311.34532055 303.41156986 319.73355338 303.4033027 328.12187032 C303.39939173 332.40220831 303.40034755 336.68239987 303.41436005 340.96271992 C303.42707206 344.88159131 303.42592533 348.80020582 303.41376933 352.71907672 C303.41180765 354.13630222 303.41491251 355.55354575 303.4236137 356.9707459 C303.47935564 366.6638393 303.10517263 373.87056561 296.04328537 381.13422108 C290.36380835 384.96962044 284.76133636 384.55438013 278.16279221 384.515172 C276.95725111 384.51985198 275.75171 384.52453195 274.50963736 384.52935374 C271.17113351 384.53924072 267.83313685 384.53569434 264.49466395 384.52639508 C260.89133135 384.51960429 257.2880429 384.53008596 253.68471909 384.53833485 C246.62889073 384.55167407 239.57315811 384.54879361 232.517326 384.54009692 C226.78286302 384.53332153 221.04842686 384.53240303 215.31396103 384.53566837 C214.49777474 384.53612807 213.68158845 384.53658777 212.84066924 384.5370614 C211.18259783 384.53802058 209.52452642 384.53899322 207.86645502 384.53997917 C192.31903729 384.54853362 176.77167263 384.53869808 161.22426361 384.52257808 C147.8841258 384.50917484 134.5440663 384.51150292 121.2039299 384.52533436 C105.71211218 384.54138921 90.22034098 384.54770964 74.7285161 384.53849757 C73.07654731 384.53754192 71.42457851 384.53659881 69.77260971 384.53566837 C68.95981138 384.53520555 68.14701305 384.53474272 67.30958447 384.53426587 C61.58206875 384.53167569 55.85458253 384.53604757 50.12707138 384.54310703 C43.147052 384.55152117 36.16713383 384.54924374 29.18712604 384.5332648 C25.62586578 384.52538088 22.06477426 384.52229244 18.50351524 384.53221226 C14.64350759 384.54280162 10.78377623 384.53015671 6.92377853 384.515172 C5.79751855 384.52186417 4.67125857 384.52855633 3.5108695 384.53545129 C-2.82257421 384.48761795 -7.66465636 384.13063334 -12.56608963 379.66937733 C-16.85417664 374.13304582 -18.20850209 371.14543582 -18.18376541 364.07074451 C-18.18405746 363.36790333 -18.18434952 362.66506214 -18.18465042 361.94092274 C-18.18326055 359.62502024 -18.16771576 357.30944216 -18.15202713 354.99359608 C-18.14829578 353.38505701 -18.14544938 351.77651567 -18.14345169 350.16797352 C-18.13582486 345.93961757 -18.11618457 341.71139957 -18.09404373 337.48309803 C-18.07356481 333.16630386 -18.0644456 328.84948735 -18.05437088 324.53265858 C-18.03293775 316.06644952 -17.99881331 307.60035247 -17.95671463 299.13422108 C-19.1165889 299.14532413 -20.27646317 299.15642719 -21.47148514 299.16786671 C-32.41771779 299.26935299 -43.36385462 299.34423956 -54.31045151 299.39328194 C-59.93785632 299.41934312 -65.56488045 299.45467825 -71.19206619 299.51141834 C-76.62561139 299.56586124 -82.05879108 299.59566778 -87.49258804 299.60860729 C-89.56260301 299.61782507 -91.63259863 299.63582543 -93.70245743 299.66287136 C-96.60860844 299.69932451 -99.51326133 299.70415959 -102.41960526 299.70184803 C-103.26981247 299.71982441 -104.12001968 299.73780079 -104.99599075 299.75632191 C-111.10393046 299.70397077 -115.24226758 298.05030908 -119.95671463 294.13422108 C-124.56330883 288.34644887 -125.10608214 283.92027823 -125.09715652 276.72168446 C-125.10012765 275.97253765 -125.10309877 275.22339084 -125.10615993 274.45154262 C-125.11483543 271.93983298 -125.1163542 269.42817107 -125.11784744 266.91644764 C-125.12247644 265.11605191 -125.12750122 263.31565716 -125.13289261 261.51526356 C-125.14601105 256.6225577 -125.15246053 251.72986555 -125.15690327 246.83714485 C-125.159835 243.7796717 -125.16394001 240.72220229 -125.16840744 237.66473103 C-125.18208116 228.0965957 -125.19174833 218.52846894 -125.19560933 208.96032453 C-125.20008934 197.91913173 -125.21763514 186.87806277 -125.24660993 175.83690763 C-125.26823435 167.30003966 -125.27831403 158.76320651 -125.27965045 150.22631145 C-125.28069797 145.12877596 -125.28659447 140.03135691 -125.30447006 134.93385029 C-125.32096375 130.13709655 -125.32309991 125.34054661 -125.31433105 120.5437746 C-125.31356137 118.7862134 -125.31789439 117.02864119 -125.32778931 115.27110767 C-125.34053585 112.86539483 -125.3346177 110.46040087 -125.32420731 108.05469227 C-125.33226371 107.36478899 -125.34032012 106.67488572 -125.34862065 105.96407628 C-125.29394146 100.53414333 -124.31289345 94.75285704 -120.57558179 90.59924245 C-116.67297724 87.23912689 -113.10243032 84.87982077 -107.90709305 84.89371204 C-107.50887848 84.89233738 -107.50887848 84.89233738 -105.49367142 84.88538074 C-105.06137726 84.88897602 -105.06137726 84.88897602 -102.87370682 84.9071703 C-101.95628708 84.90687824 -101.03886734 84.90658619 -100.093647 84.90628529 C-97.06353142 84.90767779 -94.03366222 84.92323537 -91.00358963 84.93890858 C-88.9018047 84.94263899 -86.80001803 84.94548583 -84.69823074 84.94748402 C-79.16784738 84.95511825 -73.63756916 84.97476503 -68.10722733 84.99689198 C-62.4633209 85.01735486 -56.81939747 85.02648669 -51.17546463 85.03656483 C-40.10250178 85.05801105 -29.02961695 85.09214454 -17.95671463 85.13422108 C-17.96781769 84.24996449 -17.97892075 83.36570789 -17.99036026 82.45465565 C-18.09077915 74.09846287 -18.16678941 65.74247439 -18.21577549 57.38581562 C-18.24180712 53.09009918 -18.27708594 48.79488365 -18.3339119 44.49945545 C-18.38846359 40.3497018 -18.41818352 36.20042822 -18.43110085 32.05034351 C-18.44029945 30.47154151 -18.45826232 28.89276413 -18.48536491 27.31416798 C-18.75007566 11.24890126 -18.75007566 11.24890126 -12.95671463 5.13422108 C-8.74597248 1.22424622 -5.68214018 0.01140354 0 0 Z " fill="#0C7238" transform="translate(166.95671463012695,63.86577892303467)"/>
<path d="M0 0 C24.275625 -0.0825 48.55125 -0.165 73.5625 -0.25 C81.2254126 -0.28641602 88.8883252 -0.32283203 96.78344727 -0.36035156 C106.1463623 -0.37841797 106.1463623 -0.37841797 110.53062439 -0.3817749 C113.59043497 -0.38549908 116.64996749 -0.40047877 119.70970154 -0.42230225 C123.61606476 -0.44979403 127.52202523 -0.45795462 131.42847621 -0.4522891 C132.85994881 -0.45347331 134.29143587 -0.46137307 135.72282517 -0.47686052 C148.99706175 -0.61378137 148.99706175 -0.61378137 155 4 C156.7421875 5.78125 156.7421875 5.78125 157.875 7.5 C158.26429688 8.0671875 158.65359375 8.634375 159.0546875 9.21875 C160.87796266 12.65434287 161.1248045 15.92775851 161.12304783 19.77135086 C161.12503888 20.73376544 161.12702993 21.69618002 161.12908131 22.68775868 C161.12616847 23.74222715 161.12325563 24.79669562 161.12025452 25.88311768 C161.12068173 26.4442732 161.12068173 26.4442732 161.12284368 29.28406024 C161.1244955 33.05820465 161.11898193 36.83230497 161.11352539 40.60644531 C161.11324343 43.3065094 161.11335736 46.00657076 161.1139679 48.70663452 C161.11449244 54.52662872 161.11135286 60.34661171 161.10573006 66.16660309 C161.09760571 74.58135036 161.09499887 82.99609221 161.09374207 91.41084298 C161.09155302 105.0629609 161.08489692 118.71507283 161.07543945 132.3671875 C161.06626153 145.62955699 161.05919402 158.89192485 161.05493164 172.15429688 C161.05466364 172.98002071 161.05439565 173.80574455 161.05411953 174.65649033 C161.05204013 181.11411855 161.05008319 187.5717468 161.04816496 194.02937508 C161.03872996 225.68625553 161.01861196 257.34312104 161 289 C107.87 289 54.74 289 0 289 C0 193.63 0 98.26 0 0 Z " fill="#18AB64" transform="translate(309,64)"/>
<path d="M0 0 C17.49 0 34.98 0 53 0 C53 32.01 53 64.02 53 97 C106.13 97 159.26 97 214 97 C214 181.8 214 181.8 207 189 C201.32052298 192.83539936 195.71805099 192.42015906 189.11950684 192.38095093 C187.91396574 192.3856309 186.70842463 192.39031087 185.46635199 192.39513266 C182.12784814 192.40501964 178.78985148 192.40147326 175.45137858 192.39217401 C171.84804598 192.38538321 168.24475753 192.39586488 164.64143372 192.40411377 C157.58560536 192.41745299 150.52987274 192.41457254 143.47404063 192.40587585 C137.73957765 192.39910045 132.00514149 192.39818196 126.27067566 192.4014473 C125.45448937 192.401907 124.63830308 192.40236669 123.79738387 192.40284032 C122.13931246 192.4037995 120.48124105 192.40477214 118.82316965 192.4057581 C103.27575192 192.41431254 87.72838726 192.404477 72.18097824 192.388357 C58.84084043 192.37495376 45.50078093 192.37728184 32.16064453 192.39111328 C16.66882681 192.40716813 1.17705561 192.41348857 -14.31476927 192.40427649 C-15.96673806 192.40332084 -17.61870685 192.40237773 -19.27067566 192.4014473 C-20.08347399 192.40098447 -20.89627232 192.40052164 -21.7337009 192.40004479 C-27.46121662 192.39745462 -33.18870284 192.40182649 -38.91621399 192.40888596 C-45.89623337 192.41730009 -52.87615154 192.41502266 -59.85615933 192.39904372 C-63.41741959 192.39115981 -66.97851111 192.38807136 -70.53977013 192.39799118 C-74.39977778 192.40858054 -78.25950914 192.39593564 -82.11950684 192.38095093 C-82.68263683 192.38429701 -82.68263683 192.38429701 -85.53241587 192.40123022 C-91.86585958 192.35339687 -96.70794173 191.99641226 -101.609375 187.53515625 C-105.89746201 181.99882474 -107.25178746 179.01121474 -107.22705078 171.93652344 C-107.22734283 171.23368225 -107.22763489 170.53084106 -107.22793579 169.80670166 C-107.22654592 167.49079916 -107.21100113 165.17522108 -107.1953125 162.859375 C-107.19158115 161.25083594 -107.18873475 159.64229459 -107.18673706 158.03375244 C-107.17911023 153.80539649 -107.15946994 149.5771785 -107.1373291 145.34887695 C-107.11685018 141.03208278 -107.10773097 136.71526627 -107.09765625 132.3984375 C-107.07622312 123.93222844 -107.04209868 115.4661314 -107 107 C-105.85265381 106.99635437 -104.70530762 106.99270874 -103.52319336 106.98895264 C-92.69443404 106.95196255 -81.86595803 106.89414576 -71.03741455 106.81609726 C-65.47073207 106.77663953 -59.90420737 106.74444254 -54.33740234 106.72900391 C-48.96204068 106.71382632 -43.58711285 106.67936063 -38.21194458 106.63169098 C-36.16435524 106.61688865 -34.11670395 106.60895965 -32.06906128 106.60811615 C-29.19401146 106.60574133 -26.32015557 106.57861981 -23.4453125 106.54589844 C-22.60445602 106.5509288 -21.76359955 106.55595917 -20.89726257 106.56114197 C-15.2152951 106.46151905 -10.71045394 105.28508003 -6 102 C-1.32085571 96.12107512 -0.84351369 91.40963942 -0.79467773 84.12231445 C-0.78477814 83.21479431 -0.77487854 82.30727417 -0.76467896 81.37225342 C-0.7330638 78.36928933 -0.7083064 75.36630942 -0.68359375 72.36328125 C-0.66302424 70.28248175 -0.64202777 68.20168644 -0.62062073 66.12089539 C-0.56539976 60.64154442 -0.51599055 55.16215574 -0.46777344 49.68273926 C-0.40873148 43.10979838 -0.34250334 36.5369265 -0.27747345 29.96404266 C-0.17946361 19.97607054 -0.09060771 9.98805438 0 0 Z " fill="#174729" transform="translate(256,256)"/>
<path d="M0 0 C53.13 0 106.26 0 161 0 C161 32.01 161 64.02 161 97 C107.87 97 54.74 97 0 97 C0 64.99 0 32.98 0 0 Z " fill="#129551" transform="translate(309,256)"/>
<path d="M0 0 C36.83249516 -0.16121214 36.83249516 -0.16121214 52.26757812 -0.1953125 C62.92496439 -0.21904667 73.58222415 -0.24694769 84.23950195 -0.30175781 C92.00117 -0.34165682 99.76273542 -0.36744022 107.52450317 -0.37635398 C111.63342905 -0.38156356 115.74206134 -0.39378655 119.85089302 -0.42292023 C123.72098187 -0.45013791 127.59065712 -0.45843229 131.4608326 -0.45243073 C132.87857819 -0.45352814 134.29633808 -0.46144449 135.7140007 -0.4768219 C148.99704356 -0.61379535 148.99704356 -0.61379535 155 4 C156.7421875 5.78125 156.7421875 5.78125 157.875 7.5 C158.26429688 8.0671875 158.65359375 8.634375 159.0546875 9.21875 C161.36593689 13.57383149 161.13682752 18.0684607 161.11352539 22.88964844 C161.11364593 23.69301762 161.11376646 24.4963868 161.11389065 25.32410049 C161.1131455 27.91922036 161.10553539 30.51426801 161.09765625 33.109375 C161.0961856 34.71370408 161.09516565 36.31803363 161.09460449 37.92236328 C161.08936589 43.86491618 161.07540467 49.8074588 161.0625 55.75 C161.041875 69.0325 161.02125 82.315 161 96 C107.87 96 54.74 96 0 96 C0 64.32 0 32.64 0 0 Z " fill="#28C17E" transform="translate(309,64)"/>
<path d="M0 0 C53.13 0 106.26 0 161 0 C161 84.8 161 84.8 154 92 C149.72088248 94.52656454 146.60862679 95.37336662 141.65982056 95.36076355 C141.03304916 95.36282555 141.03304916 95.36282555 137.86120605 95.3732605 C136.48510524 95.3626452 135.10900663 95.3517408 133.73291016 95.34057617 C132.27391579 95.33972933 130.81492014 95.34020616 129.35592651 95.34190369 C125.40588187 95.34276284 121.45611168 95.32515015 117.5061307 95.30418181 C113.37416769 95.28540164 109.24219808 95.28366352 105.11019897 95.28010559 C97.29049267 95.27078906 89.4709125 95.2461806 81.65126169 95.21605712 C71.081178 95.17622389 60.51105971 95.16005507 49.94091988 95.14255047 C33.29385214 95.11435921 16.64705056 95.05458712 0 95 C0 63.65 0 32.3 0 0 Z " fill="#26653E" transform="translate(309,353)"/>
<path d="M0 0 C1.24100464 -0.00137466 2.48200928 -0.00274933 3.76062012 -0.00416565 C5.13816858 -0.00062651 6.51571679 0.0030083 7.89326477 0.00672913 C9.3419647 0.00701116 10.79066478 0.00685295 12.23936462 0.00628662 C16.17502435 0.00599928 20.11065371 0.01188588 24.04630637 0.01886058 C28.15828024 0.02510454 32.27025478 0.02569874 36.38223267 0.02688599 C44.17011069 0.02999622 51.95797471 0.03820547 59.74584657 0.04823548 C70.26870857 0.0614942 80.79157439 0.06689901 91.31444263 0.07273769 C107.89582158 0.08214555 124.47717096 0.10206653 141.05854797 0.12025452 C141.05854797 31.80025452 141.05854797 63.48025452 141.05854797 96.12025452 C132.06604797 96.24400452 123.07354797 96.36775452 113.80854797 96.49525452 C110.97357727 96.54987854 108.13860657 96.60450256 105.21772766 96.66078186 C102.97197678 96.67830459 100.72620688 96.69359413 98.48042297 96.70619202 C97.89688049 96.72153992 97.89688049 96.72153992 94.94380188 96.79920959 C91.86678908 96.80120852 89.06886293 96.75708924 86.05854797 96.12025452 C83.78218079 93.33363342 83.78218079 93.33363342 82.05854797 90.12025452 C76.6396101 86.12465297 71.15121557 85.53524307 64.61323547 85.57435608 C64.15911034 85.56918724 64.15911034 85.56918724 61.86096191 85.54302979 C58.88497337 85.51373766 55.90966897 85.51210549 52.93354797 85.51087952 C50.8598858 85.49588871 48.78623552 85.47915967 46.71260071 85.46076965 C41.27438287 85.4171853 35.83632609 85.39711672 30.39796448 85.3820343 C24.84071872 85.36243113 19.28364606 85.32046469 13.72651672 85.28041077 C2.83724732 85.20520515 -8.05198316 85.15485521 -18.94145203 85.12025452 C-19.05759049 75.87089217 -19.1462905 66.62178298 -19.20051289 57.37184906 C-19.22654451 53.07613262 -19.26182333 48.78091709 -19.31864929 44.48548889 C-19.37320099 40.33573524 -19.40292091 36.18646166 -19.41583824 32.03637695 C-19.42503685 30.45757495 -19.44299972 28.87879757 -19.47010231 27.30020142 C-19.73481306 11.2349347 -19.73481306 11.2349347 -13.94145203 5.12025452 C-9.36999943 0.87533425 -6.13998068 -0.00523443 0 0 Z " fill="#159053" transform="translate(167.9414520263672,63.87974548339844)"/>
<path d="M0 0 C17.82 0 35.64 0 54 0 C54 31.68 54 63.36 54 96 C36.51 96 19.02 96 1 96 C0.835 80.16 0.835 80.16 0 0 Z " fill="#0C7F44" transform="translate(255,160)"/>
<path d="M0 0 C8.58 0 17.16 0 26 0 C27.02480469 2.0728125 28.04960937 4.145625 29.10546875 6.28125 C30.1140029 8.31396898 31.12395122 10.34597948 32.1340332 12.37792969 C32.82887032 13.77758768 33.52226263 15.17796399 34.21411133 16.57910156 C37.84156914 23.92306669 41.46217789 31.16242726 46 38 C46.17595703 37.67314209 46.17595703 37.67314209 47.06640625 36.01904297 C53.57802905 23.93301202 60.11592207 11.87840897 67 0 C74.92 0 82.84 0 91 0 C87.24267833 7.19258719 83.14962236 14.10538695 78.875 21 C78.59765015 21.44839233 78.59765015 21.44839233 77.1940918 23.7175293 C74.33514075 28.31806041 71.43404667 32.88369995 68.453125 37.40625 C67.89383301 38.26347656 67.33454102 39.12070313 66.75830078 40.00390625 C65.69122418 41.63466726 64.6119295 43.25751606 63.51904297 44.87109375 C63.04096191 45.60457031 62.56288086 46.33804688 62.0703125 47.09375 C61.64508301 47.72990234 61.21985352 48.36605469 60.78173828 49.02148438 C59.7007057 51.7574894 60.11841157 53.21433915 61 56 C62.30004883 58.46923828 62.30004883 58.46923828 63.95703125 61.0703125 C64.5696582 62.04057373 65.18228516 63.01083496 65.81347656 64.01049805 C66.4731543 65.03828369 67.13283203 66.06606934 67.8125 67.125 C68.4837793 68.18436768 69.15505859 69.24373535 69.84667969 70.33520508 C71.2241837 72.50788681 72.60489187 74.67854033 73.98876953 76.84716797 C76.40393176 80.63320888 78.8021998 84.42971489 81.19799805 88.22802734 C82.20700137 89.82700477 83.21749959 91.42504019 84.22973633 93.02197266 C85.49074632 95.01200754 86.74635593 97.00532021 88 99 C88.60328125 99.95519531 89.2065625 100.91039062 89.828125 101.89453125 C91 104 91 104 91 106 C87.10517784 106.23282073 83.21214146 106.37456639 79.3125 106.5 C78.20970703 106.56703125 77.10691406 106.6340625 75.97070312 106.703125 C68.13724355 106.89245333 68.13724355 106.89245333 65.42456055 104.76367188 C64.01827118 102.59432864 63.04367594 100.36784108 62 98 C61.00082302 96.09442082 59.9688425 94.20836348 58.93717957 92.32019043 C56.98395432 88.73292623 55.09145043 85.11357974 53.1875 81.5 C52.39154949 79.99464705 51.59532783 78.48943744 50.79882812 76.984375 C48.86275299 73.32456297 46.93036557 69.66282651 45 66 C42.17750908 69.47653625 40.15153574 73.29545809 38.09375 77.25 C37.7277771 77.94512695 37.3618042 78.64025391 36.98474121 79.35644531 C35.81984434 81.56924015 34.65938297 83.78431174 33.5 86 C31.97271991 88.91877375 30.44089928 91.83509543 28.90625 94.75 C28.55929077 95.41676758 28.21233154 96.08353516 27.8548584 96.77050781 C24.03765394 104.01868247 24.03765394 104.01868247 22 106 C19.36450195 106.45410156 19.36450195 106.45410156 16.23828125 106.390625 C15.12001953 106.37773437 14.00175781 106.36484375 12.84960938 106.3515625 C11.68236328 106.31804687 10.51511719 106.28453125 9.3125 106.25 C8.13365234 106.23195313 6.95480469 106.21390625 5.74023438 106.1953125 C2.82601074 106.14811859 -0.08659031 106.08229077 -3 106 C0.62878104 98.9080335 4.70894828 92.22861402 9.0625 85.5625 C9.61462158 84.71445801 10.16674316 83.86641602 10.7355957 82.99267578 C13.70213749 78.45431907 16.70978843 73.94872688 19.76953125 69.47265625 C20.37337646 68.57667725 20.97722168 67.68069824 21.59936523 66.75756836 C22.76029444 65.0363667 23.93509965 63.32442236 25.12524414 61.62329102 C25.64852295 60.84268311 26.17180176 60.0620752 26.7109375 59.2578125 C27.17806152 58.5786377 27.64518555 57.89946289 28.12646484 57.19970703 C29.35581953 54.10398715 28.84769186 52.18836409 28 49 C26.82348633 46.49658203 26.82348633 46.49658203 25.33203125 44.0078125 C24.77467285 43.06623291 24.21731445 42.12465332 23.64306641 41.15454102 C23.34102295 40.65466675 23.34102295 40.65466675 21.8125 38.125 C20.54537279 35.99100423 19.27845214 33.85688581 18.01171875 31.72265625 C17.35478027 30.62324707 16.6978418 29.52383789 16.02099609 28.39111328 C12.68936303 22.8008278 9.40729319 17.18188114 6.125 11.5625 C5.81872681 11.04147705 5.81872681 11.04147705 4.26879883 8.40478516 C3.70829834 7.44749512 3.14779785 6.49020508 2.5703125 5.50390625 C2.07289551 4.65642822 1.57547852 3.8089502 1.06298828 2.93579102 C0 1 0 1 0 0 Z " fill="#FCFDFC" transform="translate(105,203)"/>
<path d="M0 0 C0.66 0.66 1.32 1.32 2 2 C0.68 2.99 -0.64 3.98 -2 5 C-1.34 3.35 -0.68 1.7 0 0 Z " fill="#2A8350" transform="translate(149,268)"/>
</svg>
