<?xml version="1.0" encoding="UTF-8"?>
<!-- Generator: visioncortex VTracer 0.6.12 -->
<svg version="1.1" xmlns="http://www.w3.org/2000/svg" width="512" height="512">
<path d="M0 0 C0.97987371 -0.00384115 1.95974742 -0.00768229 2.96931428 -0.01163983 C4.04847527 -0.01077335 5.12763626 -0.00990687 6.23949909 -0.00901413 C6.81169757 -0.01049969 6.81169757 -0.01049969 9.70736867 -0.01801753 C12.8889966 -0.02520453 16.07059166 -0.02787737 19.25222647 -0.028615 C22.68181281 -0.03046475 26.11138742 -0.03801176 29.54096699 -0.04475021 C37.04315173 -0.0583382 44.54533112 -0.06435918 52.04752612 -0.06876087 C56.73201502 -0.0715229 61.41650184 -0.07576022 66.10098934 -0.08026505 C79.0707149 -0.09245906 92.04043881 -0.10275763 105.01016998 -0.10614014 C105.84045088 -0.1063597 106.67073179 -0.10657927 107.52617272 -0.10680549 C108.35844513 -0.10702377 109.19071754 -0.10724204 110.04821032 -0.10746694 C111.73472003 -0.1079104 113.42122974 -0.10835697 115.10773945 -0.10880661 C115.94430721 -0.10902804 116.78087497 -0.10924947 117.64279328 -0.10947761 C131.19429561 -0.11342452 144.74574413 -0.13087469 158.29722568 -0.15416613 C172.2100741 -0.17788561 186.12289554 -0.19034228 200.03576452 -0.19150805 C207.84738043 -0.19242456 215.65892627 -0.19817055 223.47052288 -0.21632767 C230.1233616 -0.2317368 236.7761086 -0.23684439 243.42896178 -0.22858956 C246.82240608 -0.22468566 250.21551567 -0.22723517 253.60896206 -0.23964691 C257.29114276 -0.2523251 260.97284919 -0.24651143 264.65502644 -0.23606491 C265.72303382 -0.24412132 266.7910412 -0.25217772 267.89141244 -0.26047826 C276.26707851 -0.20488994 282.97989526 1.16889996 289.26472187 7.13142776 C291.6830014 9.72713541 293.97247172 12.42430968 296.26472187 15.13142776 C298.17843918 17.38395079 300.09550632 19.63358778 302.01472187 21.88142776 C302.52744648 22.48213089 303.04017109 23.08283401 303.56843281 23.70174026 C307.87798957 28.72821395 312.32719567 33.61234626 316.81940937 38.47517776 C320.97976714 42.99441624 324.99157723 47.63321385 328.97175312 52.31111526 C334.79921247 59.15262484 340.72128919 65.87394884 346.81940937 72.47517776 C350.97976714 76.99441624 354.99157723 81.63321385 358.97175312 86.31111526 C364.79921247 93.15262484 370.72128919 99.87394884 376.81940937 106.47517776 C380.97976714 110.99441624 384.99157723 115.63321385 388.97175312 120.31111526 C393.87598508 126.06822232 398.80415275 131.77772343 403.95222187 137.31892776 C408.2117072 141.90600748 412.21645214 146.65388165 416.13190937 151.53767776 C418.19963835 154.05227857 420.36312026 156.4332537 422.57722187 158.81892776 C430.02135636 167.09348363 431.59633691 174.65164312 431.47175312 185.59236526 C430.73708011 198.1511152 422.63878391 205.75730806 414.44978046 214.55305862 C411.46190713 217.77424837 408.63613616 221.0734099 405.88972187 224.50642776 C401.8380597 229.54559182 397.49117571 234.23608547 393.06208515 238.93953323 C389.81923735 242.40204255 386.73042708 245.92429625 383.76472187 249.63142776 C379.20430261 255.32774481 374.24737524 260.60461842 369.26081562 265.92439651 C364.88355473 270.59536097 360.71329297 275.42890317 356.56550312 280.30330276 C350.73453974 287.14661256 344.81063853 293.87125994 338.71003437 300.47517776 C334.5496766 304.99441624 330.53786652 309.63321385 326.55769062 314.31111526 C320.73023127 321.15262484 314.80815456 327.87394884 308.71003437 334.47517776 C304.47915502 339.07102115 300.38242159 343.76576135 296.41706562 348.59236526 C295.89878193 349.21514359 295.38049824 349.83792191 294.84650898 350.4795723 C293.81876096 351.71528106 292.79950242 352.95811808 291.79035664 354.20906448 C287.54361288 359.28985086 282.92936653 362.83766413 276.26472187 364.13142776 C274.66282951 364.22150283 273.05766909 364.26047083 271.45324802 364.26285553 C270.96754074 364.2647761 270.96754074 364.2647761 268.5095675 364.27449536 C267.4449922 364.27362888 266.38041689 364.2727624 265.28358173 364.27186966 C264.150581 364.27484078 263.01758028 364.2778119 261.85024619 364.28087306 C258.03950411 364.28957063 254.22879341 364.29106921 250.41804218 364.29256058 C247.691549 364.29664984 244.96505913 364.30219189 242.23856831 364.30760574 C234.82115084 364.3211846 227.40373878 364.32721309 219.98631096 364.3316164 C215.3542472 364.33437959 210.72218553 364.33861709 206.09012318 364.34312057 C193.26361567 364.35531268 180.43710983 364.3656121 167.61059666 364.36899567 C166.78975371 364.36921523 165.96891076 364.3694348 165.12319379 364.36966102 C164.30039432 364.3698793 163.47759485 364.37009757 162.62986207 364.37032247 C160.96257575 364.37076593 159.29528944 364.37121249 157.62800312 364.37166214 C156.8009727 364.37188357 155.97394229 364.372105 155.12185034 364.37233314 C141.72237469 364.37628077 128.32295343 364.39373398 114.92349878 364.41702166 C101.16430036 364.44074142 87.40512922 364.4531978 73.64591002 364.45436358 C65.92149916 364.45528 58.19715916 364.46102379 50.47276783 364.4791832 C43.89497855 364.49459261 37.31728204 364.49969971 30.73947814 364.49144509 C27.38450568 364.48754148 24.02987175 364.49008966 20.67489719 364.50250244 C17.0343693 364.51518201 13.394321 364.50936625 9.75379658 364.49892044 C9.22597037 364.50294864 9.22597037 364.50294864 6.55484986 364.52333379 C0.2051209 364.48071637 -6.24244363 364.22169793 -11.2563169 359.78569531 C-15.95743965 354.4758871 -17.29318924 349.6157031 -17.09855938 342.67049026 C-15.84471689 333.90707505 -7.46876491 327.27315332 -1.73527813 321.13142776 C1.55963167 317.45355695 4.77598386 313.70860567 7.97565937 309.94783401 C13.80136517 303.10722343 19.72253123 296.38756217 25.81940937 289.78767776 C29.97976714 285.26843929 33.99157723 280.62964168 37.97175312 275.95174026 C43.79921247 269.11023069 49.72128919 262.38890669 55.81940937 255.78767776 C59.97976714 251.26843929 63.99157723 246.62964168 67.97175312 241.95174026 C73.79921247 235.11023069 79.72128919 228.38890669 85.81940937 221.78767776 C89.97976714 217.26843929 93.99157723 212.62964168 97.97175312 207.95174026 C98.98596744 206.76154355 100.00029377 205.57144228 101.01472187 204.38142776 C101.52357929 203.7829805 102.03243671 203.18453323 102.55671406 202.5679512 C105.13142952 199.55684329 107.73886141 196.59260502 110.44831562 193.70174026 C110.70081074 193.43216507 110.70081074 193.43216507 111.97858906 192.0679512 C113.37302378 190.5903494 114.77756631 189.12230553 116.18269062 187.65486526 C119.30280295 183.8732657 119.30280295 183.8732657 119.26472187 181.13142776 C117.85065937 178.82674026 117.85065937 178.82674026 115.63972187 176.25642776 C114.81214375 175.28963089 113.98456562 174.32283401 113.13190937 173.32674026 C109.51662741 169.25986519 105.79600995 165.29009131 102.0672121 161.32747269 C98.02610678 157.0151918 94.27604758 152.53403611 90.58112812 147.92049026 C86.90485691 143.49408614 82.96045815 139.32341664 79.03815937 135.11580276 C74.73366673 130.49789016 70.62159782 125.7238117 66.52644062 120.92049026 C60.94153254 114.37487345 55.29918226 107.9110327 49.48737812 101.56502151 C45.4042243 97.09436276 41.44629808 92.52000887 37.51862812 87.91267776 C31.93715801 81.36891635 26.29671449 74.90833809 20.48737812 68.56502151 C16.4042243 64.09436276 12.44629808 59.52000887 8.51862812 54.91267776 C7.49653429 53.71472562 6.47439762 52.51681001 5.45222187 51.31892776 C5.19473164 51.01664261 5.19473164 51.01664261 3.891675 49.48689651 C0.63753709 45.68293556 -2.69893392 41.98239244 -6.11027813 38.31892776 C-17.03325171 26.23318602 -17.03325171 26.23318602 -17.36027813 18.00642776 C-16.99004107 11.23883876 -15.20453432 7.42000667 -10.17277813 2.75642776 C-6.69397886 0.43722825 -4.08163577 0.00599875 0 0 Z " fill="#3D8FF9" transform="translate(48.73527812957764,73.86857223510742)"/>
<path d="M0 0 C4.18178203 1.59920881 6.76731202 4.68875003 9.6875 7.9375 C10.21931885 8.52088135 10.7511377 9.1042627 11.29907227 9.70532227 C15.22428804 14.04626723 18.91893488 18.54551723 22.58203125 23.109375 C26.53898549 27.8398211 30.78739902 32.29474188 35.00390625 36.79296875 C39.38116714 41.4639332 43.5514289 46.29747541 47.69921875 51.171875 C48.71595599 52.36474517 49.73288937 53.55744819 50.75 54.75 C51.26191895 55.35150879 51.77383789 55.95301758 52.30126953 56.57275391 C55.29702891 60.07420571 58.35815206 63.49328832 61.51098633 66.85375977 C71.15377076 77.13686601 75.51781148 85.0961472 75.2421875 99.56640625 C74.35999608 112.07360402 66.36505209 119.63555781 58.18505859 128.42163086 C55.19718526 131.6428206 52.37141429 134.94198213 49.625 138.375 C45.57333783 143.41416406 41.22645384 148.10465771 36.79736328 152.80810547 C33.55451548 156.27061478 30.46570521 159.79286848 27.5 163.5 C22.93958074 169.19631705 17.98265337 174.47319066 12.99609375 179.79296875 C8.61883286 184.4639332 4.4485711 189.29747541 0.30078125 194.171875 C-5.53018213 201.01518479 -11.45408334 207.73983217 -17.5546875 214.34375 C-21.71504527 218.86298847 -25.72685535 223.50178609 -29.70703125 228.1796875 C-35.5344906 235.02119707 -41.45656731 241.74252108 -47.5546875 248.34375 C-51.78556685 252.93959338 -55.88230028 257.63433359 -59.84765625 262.4609375 C-60.36593994 263.08371582 -60.88422363 263.70649414 -61.41821289 264.34814453 C-62.44596091 265.58385329 -63.46521945 266.82669031 -64.47436523 268.07763672 C-68.69642363 273.12888963 -73.35021074 276.77521658 -80 278 C-82.18359951 278.08983277 -84.36979091 278.12196725 -86.55523682 278.12025452 C-86.88362985 278.12068173 -86.88362985 278.12068173 -88.54549766 278.12284368 C-90.74422679 278.12448959 -92.94287947 278.11899169 -95.14160156 278.11352539 C-96.71852619 278.1132433 -98.29545094 278.11340168 -99.87237549 278.1139679 C-104.15300533 278.11425502 -108.4336072 278.10837196 -112.71423054 278.10139394 C-117.18788321 278.09514631 -121.66153651 278.09455548 -126.13519287 278.09336853 C-134.60656523 278.09025938 -143.07792469 278.08205158 -151.54929137 278.07201904 C-161.19369706 278.060845 -170.83810336 278.0553442 -180.4825139 278.05032361 C-200.32168313 278.03986864 -220.16084076 278.02227723 -240 278 C-239.04785033 276.71955128 -238.09418839 275.440227 -237.13989258 274.16137695 C-236.60898514 273.44883255 -236.0780777 272.73628815 -235.53108215 272.00215149 C-233.70175296 269.60999104 -231.73784447 267.39229603 -229.6875 265.1875 C-226.5452813 261.75151794 -223.54315664 258.25311962 -220.625 254.625 C-216.94363311 250.07139288 -213.07225527 245.76417484 -209.08642578 241.48095703 C-206.09587359 238.24823796 -203.26228315 234.93312334 -200.5 231.5 C-197.30068278 227.52370574 -193.97415055 223.73331702 -190.5 220 C-186.2104224 215.38998361 -182.19589103 210.62216764 -178.24609375 205.71484375 C-175.11832821 201.93432714 -171.78726117 198.35519125 -168.46484375 194.74609375 C-166.07292703 192.08124834 -163.80745116 189.35168175 -161.5625 186.5625 C-157.90428985 182.02683557 -154.05257035 177.7429883 -150.08618164 173.48071289 C-147.09573 170.24806025 -144.26220993 166.93303234 -141.5 163.5 C-138.30068278 159.52370574 -134.97415055 155.73331702 -131.5 152 C-127.2104224 147.38998361 -123.19589103 142.62216764 -119.24609375 137.71484375 C-116.11832821 133.93432714 -112.78726117 130.35519125 -109.46484375 126.74609375 C-107.07292703 124.08124834 -104.80745116 121.35168175 -102.5625 118.5625 C-98.90493736 114.02763839 -95.05382973 109.74463817 -91.08837891 105.48291016 C-87.28601193 101.37220724 -83.75729408 97.07724416 -80.24609375 92.71484375 C-77.11832821 88.93432714 -73.78726117 85.35519125 -70.46484375 81.74609375 C-68.07292703 79.08124834 -65.80745116 76.35168175 -63.5625 73.5625 C-59.90428985 69.02683557 -56.05257035 64.7429883 -52.08618164 60.48071289 C-49.09573 57.24806025 -46.26220993 53.93303234 -43.5 50.5 C-39.86500611 45.98222187 -36.0328971 41.72181484 -32.0859375 37.48046875 C-28.30619159 33.3945423 -24.80506464 29.12257589 -21.31640625 24.78515625 C-18.34764078 21.2156288 -15.20275483 17.83318326 -12.03979492 14.43652344 C-7.77033781 9.82081222 -3.84085899 4.97440763 0 0 Z " fill="#5FAFFB" transform="translate(405,160)"/>
<path d="M0 0 C0.49117025 -0.00130387 0.49117025 -0.00130387 2.97678941 -0.00790226 C3.51773415 -0.0067869 3.51773415 -0.0067869 6.25524235 -0.0011425 C7.40246157 -0.00270249 8.5496808 -0.00426248 9.73166424 -0.00586975 C12.92101889 -0.00917542 16.11033569 -0.00797591 19.29968941 -0.00488353 C22.7373752 -0.00262644 26.17505576 -0.00611061 29.61274052 -0.00886345 C36.34944089 -0.01331695 43.08613015 -0.0123465 49.82283097 -0.00945081 C55.2970783 -0.00719495 60.77132252 -0.00688505 66.24557018 -0.00797462 C66.63472776 -0.00805124 66.63472776 -0.00805124 68.60410093 -0.00843897 C70.18511041 -0.00875868 71.76611988 -0.0090829 73.34712935 -0.00941156 C88.18293067 -0.01226517 103.01872581 -0.00898129 117.85452611 -0.00361119 C130.58983163 0.00085586 143.32512803 0.0000815 156.06043339 -0.00452995 C170.84060553 -0.00987932 185.62077227 -0.01198956 200.40094525 -0.00891769 C201.97653393 -0.00859913 203.55212261 -0.00828476 205.1277113 -0.00797462 C205.51534488 -0.00789749 205.51534488 -0.00789749 207.47700576 -0.00750712 C212.94542845 -0.00664299 218.4138477 -0.00810263 223.88226986 -0.01045418 C230.54544896 -0.01325643 237.20861629 -0.01250493 243.87179404 -0.00717343 C247.27273953 -0.00454206 250.67366536 -0.00352185 254.07461071 -0.00682259 C257.75805072 -0.00954092 261.44143484 -0.00614444 265.12487125 -0.0011425 C265.66470063 -0.00225786 265.66470063 -0.00225786 268.39656442 -0.00790226 C269.38151268 -0.00529452 270.36646093 -0.00268677 271.3812561 0 C272.23172231 0.00016235 273.08218851 0.0003247 273.95842642 0.00049198 C276.18520385 0.12210846 278.11684847 0.505637 280.25354862 1.12584114 C278.90245896 4.08910058 277.36648214 6.33369279 275.19104862 8.75084114 C274.56843143 9.44822395 273.94581425 10.14560677 273.30432987 10.86412239 C271.90749109 12.40463602 270.50898571 13.94363975 269.10901737 15.48130989 C265.2852026 19.69353317 261.56273774 23.93663273 258.00354862 28.37584114 C253.34295997 34.14025342 248.31575582 39.51436068 243.24964237 44.91880989 C238.87238148 49.58977434 234.70211973 54.42331655 230.55432987 59.29771614 C224.72336649 66.14102593 218.79946528 72.86567332 212.69886112 79.46959114 C208.54966198 83.97670842 204.54654059 88.60103845 200.58167362 93.27037239 C195.03288138 99.79432367 189.39203699 106.18805313 183.54163456 112.44322395 C180.49733104 115.71879087 177.61388094 119.07115628 174.81604862 122.56334114 C170.23042567 128.27657629 165.2560932 133.57786051 160.24964237 138.91880989 C155.87238148 143.58977434 151.70211973 148.42331655 147.55432987 153.29771614 C141.73667643 160.12507629 135.83932591 166.84217081 129.72620487 173.40709114 C127.14246402 176.24798155 124.69173505 179.15988985 122.25354862 182.12584114 C118.55078293 180.89158591 117.75004292 179.50338566 115.37854862 176.43834114 C111.68618962 171.80184473 107.82247571 167.43411688 103.75354862 163.12584114 C99.12982864 158.21700173 94.78747754 153.18098167 90.56995487 147.91490364 C86.89368366 143.48849951 82.9492849 139.31783002 79.02698612 135.11021614 C74.72249348 130.49230353 70.61042457 125.71822508 66.51526737 120.91490364 C60.93035929 114.36928683 55.28800902 107.90544607 49.47620487 101.55943489 C45.39305105 97.08877614 41.43512484 92.51442225 37.50745487 87.90709114 C31.92598476 81.36332972 26.28554125 74.90275147 20.47620487 68.55943489 C16.39305105 64.08877614 12.43512484 59.51442225 8.50745487 54.90709114 C7.48536104 53.70913899 6.46322437 52.51122339 5.44104862 51.31334114 C5.18355839 51.01105598 5.18355839 51.01105598 3.88050175 49.48130989 C0.62636384 45.67734894 -2.71010716 41.97680582 -6.12145138 38.31334114 C-17.04442496 26.2275994 -17.04442496 26.2275994 -17.37145138 18.00084114 C-17.00121432 11.23325214 -15.21570757 7.41442005 -10.18395138 2.75084114 C-6.69954899 0.42790621 -4.08799778 0.00078054 0 0 Z " fill="#155DD5" transform="translate(48.74645137786865,73.87415885925293)"/>
<path d="M0 0 C1.58323688 -0.027193 3.16661062 -0.04648306 4.75 -0.0625 C5.19085938 -0.06830078 5.19085938 -0.06830078 7.421875 -0.09765625 C9.7818838 -0.00826198 11.74498524 0.33087179 14 1 C12.64891034 3.96325944 11.11293352 6.20785165 8.9375 8.625 C8.31488281 9.32238281 7.69226563 10.01976563 7.05078125 10.73828125 C5.65394247 12.27879488 4.25543709 13.81779861 2.85546875 15.35546875 C-0.96834602 19.56769203 -4.69081088 23.81079159 -8.25 28.25 C-12.91058865 34.01441228 -17.93779281 39.38851953 -23.00390625 44.79296875 C-27.38116714 49.4639332 -31.5514289 54.29747541 -35.69921875 59.171875 C-41.53018213 66.01518479 -47.45408334 72.73983217 -53.5546875 79.34375 C-57.70388665 83.85086728 -61.70700804 88.47519731 -65.671875 93.14453125 C-71.22066724 99.66848253 -76.86151163 106.06221199 -82.71191406 112.31738281 C-85.75621758 115.59294973 -88.63966768 118.94531514 -91.4375 122.4375 C-96.02312295 128.15073515 -100.99745542 133.45201937 -106.00390625 138.79296875 C-110.38116714 143.4639332 -114.5514289 148.29747541 -118.69921875 153.171875 C-124.51687219 159.99923515 -130.41422271 166.71632967 -136.52734375 173.28125 C-139.1110846 176.12214041 -141.56181357 179.03404871 -144 182 C-148.1424367 180.61918777 -149.32203099 178.40174442 -152 175 C-150.30712014 170.66665345 -147.10229065 167.73146578 -143.9375 164.4375 C-139.96420789 160.23766053 -136.10885427 156.02282853 -132.5 151.5 C-128.49588267 146.49485334 -124.18532008 141.85139857 -119.79467773 137.18920898 C-116.57215839 133.74856433 -113.50491207 130.25010395 -110.5625 126.5625 C-106.35289665 121.29855768 -101.78257706 116.44162354 -97.15478516 111.54931641 C-92.99814015 107.13210895 -89.13317896 102.56106057 -85.34765625 97.8203125 C-81.4233519 93.10592358 -77.18973138 88.68094284 -72.99609375 84.20703125 C-68.61883286 79.5360668 -64.4485711 74.70252459 -60.30078125 69.828125 C-54.46981787 62.98481521 -48.54591666 56.26016783 -42.4453125 49.65625 C-38.29611335 45.14913272 -34.29299196 40.52480269 -30.328125 35.85546875 C-25.24409638 29.87810727 -20.11183273 23.98067218 -14.75 18.25 C-2.65271967 5.30543933 -2.65271967 5.30543933 0 0 Z " fill="#1250C2" transform="translate(315,74)"/>
<path d="M0 0 C3.1875 -0.25 3.1875 -0.25 6 0 C4.64891034 2.96325944 3.11293352 5.20785165 0.9375 7.625 C0.31488281 8.32238281 -0.30773437 9.01976563 -0.94921875 9.73828125 C-2.34605753 11.27879488 -3.74456291 12.81779861 -5.14453125 14.35546875 C-8.96834602 18.56769203 -12.69081088 22.81079159 -16.25 27.25 C-20.91058865 33.01441228 -25.93779281 38.38851953 -31.00390625 43.79296875 C-35.38116714 48.4639332 -39.5514289 53.29747541 -43.69921875 58.171875 C-49.53018213 65.01518479 -55.45408334 71.73983217 -61.5546875 78.34375 C-65.70388665 82.85086728 -69.70700804 87.47519731 -73.671875 92.14453125 C-79.22066724 98.66848253 -84.86151163 105.06221199 -90.71191406 111.31738281 C-93.75621758 114.59294973 -96.63966768 117.94531514 -99.4375 121.4375 C-104.02312295 127.15073515 -108.99745542 132.45201937 -114.00390625 137.79296875 C-118.38116714 142.4639332 -122.5514289 147.29747541 -126.69921875 152.171875 C-132.51687219 158.99923515 -138.41422271 165.71632967 -144.52734375 172.28125 C-147.1110846 175.12214041 -149.56181357 178.03404871 -152 181 C-152.99 180.67 -153.98 180.34 -155 180 C-155.85302734 178.14282227 -155.85302734 178.14282227 -156 176 C-154.97119141 174.34350586 -154.97119141 174.34350586 -153.3515625 172.71484375 C-153.057052 172.41094727 -153.057052 172.41094727 -151.56665039 170.87304688 C-151.24627808 170.55368164 -151.24627808 170.55368164 -149.625 168.9375 C-148.32152933 167.59505404 -147.02075331 166.2499865 -145.72265625 164.90234375 C-145.08344238 164.24089355 -144.44422852 163.57944336 -143.78564453 162.89794922 C-141.40100012 160.36332717 -139.23249307 157.72098261 -137.0625 155 C-134.11155339 151.30722577 -131.04953205 147.93744454 -127.66015625 144.6484375 C-123.59896016 140.61590868 -119.98360187 136.15636662 -116.27734375 131.80078125 C-110.45431757 124.96650799 -104.53775352 118.25133121 -98.4453125 111.65625 C-94.29611335 107.14913272 -90.29299196 102.52480269 -86.328125 97.85546875 C-80.72991027 91.27281046 -75.04514387 84.80502059 -69.15625 78.48046875 C-65.94030561 75.02630626 -62.79482045 71.52564408 -59.70703125 67.95703125 C-57.66366569 65.6144085 -55.58319141 63.30726578 -53.5 61 C-48.68985199 55.66437363 -43.94019763 50.28413119 -39.28515625 44.8125 C-33.46540141 37.97771593 -27.55122299 31.26300847 -21.45703125 24.671875 C-18.83964775 21.82562648 -16.28910396 18.93041472 -13.7578125 16.0078125 C-10.88859236 12.7305255 -7.94864673 9.51704571 -5.015625 6.296875 C-3 4 -3 4 -1.43359375 1.71875 C-1.19705078 1.43515625 -1.19705078 1.43515625 0 0 Z " fill="#124CB5" transform="translate(323,75)"/>
</svg>
