<?xml version="1.0" encoding="UTF-8"?>
<!-- Generator: visioncortex VTracer 0.6.12 -->
<svg version="1.1" xmlns="http://www.w3.org/2000/svg" width="512" height="512">
<path d="M0 0 C0.4021875 0.35964844 0.4021875 0.35964844 2.4375 2.1796875 C28.13261654 26.49827994 38.11514108 59.76127964 41 94 C42.05316406 94.21914062 43.10632813 94.43828125 44.19140625 94.6640625 C74.33480401 101.18345671 100.80882564 117.43533781 117.94140625 143.55859375 C134.66248325 170.9398538 140.15813739 201.6855607 133 233 C126.04200044 260.16046382 109.32155783 284.76346116 85.68359375 300.16015625 C66.05148958 311.7518082 46.29255207 318.20465356 23.3125 318.125 C22.74885742 318.12693359 22.74885742 318.12693359 19.89648438 318.13671875 C18.81302734 318.13542969 17.72957031 318.13414062 16.61328125 318.1328125 C16.12234985 318.13224854 16.12234985 318.13224854 13.63793945 318.12939453 C11.26735217 318.01311399 9.26611081 317.67563985 7 317 C6.98582031 317.54785156 6.97164063 318.09570312 6.95703125 318.66015625 C5.87410063 336.66021919 -3.17425401 352.83041924 -15 366 C-15.30679688 366.35384766 -15.30679688 366.35384766 -16.859375 368.14453125 C-31.16553436 383.64287055 -53.25637656 392.07344003 -73.9921875 393.15625 C-97.85759146 393.80564875 -119.14204221 385.84041752 -137 370 C-137.35513672 369.69255859 -137.35513672 369.69255859 -139.15234375 368.13671875 C-154.43967873 353.99971789 -163.25134681 331.76634934 -164.16796875 311.23828125 C-164.17441406 309.94277344 -164.18085938 308.64726562 -164.1875 307.3125 C-164.20167969 306.02988281 -164.21585937 304.74726563 -164.23046875 303.42578125 C-164.14382938 299.78819208 -163.60279045 296.30746012 -162.9855957 292.72338867 C-162.80205032 291.64957443 -162.61850494 290.57576019 -162.42939758 289.46940613 C-162.28769638 288.65450211 -162.14599518 287.83959808 -162 287 C-162.59561234 286.99945523 -163.19122467 286.99891047 -163.80488586 286.99834919 C-178.3201442 286.9833598 -192.83514283 286.94082596 -207.35021973 286.86790943 C-214.36974538 286.833306 -221.38907561 286.80791005 -228.40869141 286.80444336 C-235.1845761 286.80107087 -241.95995379 286.7717041 -248.73568726 286.72656822 C-251.31917458 286.71359073 -253.90272068 286.70928639 -256.48623657 286.71384621 C-260.1085497 286.71874993 -263.72942607 286.69266572 -267.3515625 286.65942383 C-267.8841996 286.66373665 -267.8841996 286.66373665 -270.57966614 286.68556213 C-277.25775316 286.58300475 -281.88248422 285.4403261 -287 281 C-291.6065942 275.2122278 -292.14936751 270.78605715 -292.14044189 263.58746338 C-292.14341302 262.83831657 -292.14638414 262.08916976 -292.1494453 261.31732154 C-292.1581208 258.8056119 -292.15963957 256.29394999 -292.16113281 253.78222656 C-292.16576181 251.98183083 -292.17078659 250.18143609 -292.17617798 248.38104248 C-292.18929642 243.48833662 -292.1957459 238.59564448 -292.20018864 233.70292377 C-292.20312037 230.64545062 -292.20722538 227.58798122 -292.21169281 224.53050995 C-292.22536653 214.96237463 -292.2350337 205.39424787 -292.2388947 195.82610345 C-292.24337471 184.78491065 -292.26092051 173.74384169 -292.2898953 162.70268655 C-292.31151972 154.16581858 -292.3215994 145.62898543 -292.32293582 137.09209037 C-292.32398334 131.99455488 -292.32987984 126.89713584 -292.34775543 121.79962921 C-292.36424912 117.00287548 -292.36638528 112.20632554 -292.35761642 107.40955353 C-292.35684674 105.65199233 -292.36117976 103.89442011 -292.37107468 102.1368866 C-292.38382122 99.73117375 -292.37790307 97.32617979 -292.36749268 94.92047119 C-292.37554908 94.23056792 -292.38360548 93.54066464 -292.39190602 92.8298552 C-292.33722683 87.39992225 -291.35617882 81.61863597 -287.61886716 77.46502137 C-282.67143159 73.20531353 -279.15030868 71.74743973 -272.67089844 71.77294922 C-272.03038544 71.77302475 -272.03038544 71.77302475 -268.78900146 71.77340698 C-267.39579106 71.78361949 -266.00258224 71.79405147 -264.609375 71.8046875 C-263.18019814 71.80841936 -261.75101872 71.81126552 -260.32183838 71.81326294 C-256.56694429 71.82088581 -252.81220581 71.84052261 -249.05737305 71.8626709 C-245.22316594 71.88315841 -241.38893361 71.89227086 -237.5546875 71.90234375 C-230.03638752 71.92376988 -222.5182156 71.95788944 -215 72 C-214.94303955 71.40687012 -214.8860791 70.81374023 -214.82739258 70.20263672 C-214.2073734 64.14310596 -212.95134055 58.76913375 -211 53 C-210.69312256 52.09008301 -210.38624512 51.18016602 -210.07006836 50.24267578 C-203.83671084 32.45393096 -193.92297894 17.658961 -181 4 C-180.24074219 3.17628906 -179.48148437 2.35257813 -178.69921875 1.50390625 C-159.61248509 -18.51998291 -133.99926176 -29.63055426 -107 -34 C-106.62101562 -34.06574219 -106.62101562 -34.06574219 -104.703125 -34.3984375 C-66.13558905 -39.92944072 -28.41072518 -25.53583037 0 0 Z " fill="#027178" transform="translate(334,77)"/>
<path d="M0 0 C0.31678711 0.10715332 0.31678711 0.10715332 1.91992188 0.64941406 C30.73848332 10.61837263 53.90132257 31.62400073 67.25195312 58.92382812 C80.29223334 86.67079353 81.50190364 117.57958774 71.5378418 146.49829102 C60.84069126 175.67321587 39.00797277 197.76460792 11.12963867 210.8425293 C-3.60604335 217.51315773 -18.54357813 220.18095813 -34.6875 220.125 C-35.81478516 220.12886719 -36.94207031 220.13273438 -38.10351562 220.13671875 C-39.18697266 220.13542969 -40.27042969 220.13414062 -41.38671875 220.1328125 C-41.87765015 220.13224854 -41.87765015 220.13224854 -44.36206055 220.12939453 C-46.73264783 220.01311399 -48.73388919 219.67563985 -51 219 C-51.01417969 219.54785156 -51.02835938 220.09570312 -51.04296875 220.66015625 C-52.12589937 238.66021919 -61.17425401 254.83041924 -73 268 C-73.30679688 268.35384766 -73.30679688 268.35384766 -74.859375 270.14453125 C-89.16553436 285.64287055 -111.25637656 294.07344003 -131.9921875 295.15625 C-155.85759146 295.80564875 -177.14204221 287.84041752 -195 272 C-195.35513672 271.69255859 -195.35513672 271.69255859 -197.15234375 270.13671875 C-212.43967873 255.99971789 -221.25134681 233.76634934 -222.16796875 213.23828125 C-222.20892698 205.00567685 -221.99447592 197.05069478 -220 189 C-218.15505325 187.15505325 -215.14912244 187.86531868 -212.67944336 187.8581543 C-212.01915131 187.85467987 -211.35885925 187.85120544 -210.67855835 187.84762573 C-209.23913865 187.84025511 -207.79970748 187.83491672 -206.36027336 187.83133507 C-204.07696686 187.82417839 -201.79387639 187.80851479 -199.51063538 187.78999329 C-193.01664328 187.73750963 -186.52276369 187.68961482 -180.02856445 187.67407227 C-176.05900665 187.66394813 -172.0899837 187.6345039 -168.12063789 187.59275246 C-166.61173119 187.5804911 -165.10274872 187.57531227 -163.59379387 187.57755089 C-148.74006729 187.59415225 -148.74006729 187.59415225 -142 183 C-138.45171572 178.54189924 -136.86867607 175.02552401 -136.89561462 169.36759949 C-136.89738708 168.41608002 -136.89915955 167.46456055 -136.90098572 166.48420715 C-136.90779861 165.44165268 -136.91461151 164.39909821 -136.92163086 163.32495117 C-136.9277485 161.04518176 -136.93367508 158.76541182 -136.93943787 156.48564148 C-136.94411009 155.27373327 -136.94878231 154.06182507 -136.95359612 152.81319237 C-136.97276093 146.38911952 -136.95755791 139.96509704 -136.94726562 133.54101562 C-136.93450921 125.36870896 -136.9322672 117.19687969 -136.97583008 109.0246582 C-137.0109174 102.42030831 -137.00367404 95.81681779 -136.97226143 89.21239662 C-136.96735702 86.70360363 -136.97652152 84.1947396 -137.00047112 81.68605614 C-137.12889107 67.38541293 -137.08211788 56.56047518 -128 45 C-127.52481934 44.30224457 -127.04963867 43.60448914 -126.56005859 42.8855896 C-110.55782791 19.39016779 -85.69351632 3.85786458 -58.23828125 -2.38671875 C-39.62905226 -5.91102388 -18.03895168 -6.17930047 0 0 Z " fill="#12A2A8" transform="translate(392,175)"/>
<path d="M0 0 C0.4021875 0.35964844 0.4021875 0.35964844 2.4375 2.1796875 C24.53883704 23.09702434 38.64744397 54.62257086 40 85 C40.01636011 86.76034835 40.02145419 88.52083528 40.015625 90.28125 C40.01336914 91.16876953 40.01111328 92.05628906 40.00878906 92.97070312 C40.00733887 93.30553711 40.00733887 93.30553711 40 95 C39.20529297 94.98428955 38.41058594 94.9685791 37.59179688 94.95239258 C8.1639233 94.44758612 8.1639233 94.44758612 -5 98 C-6.0828125 98.26683594 -7.165625 98.53367188 -8.28125 98.80859375 C-36.13510015 106.41431739 -58.80324252 125.64892591 -73.23828125 150.21484375 C-74.70973994 152.5411188 -76.03847354 154.12874579 -78 156 C-78.00142502 155.12827148 -78.00285004 154.25654297 -78.00431824 153.35839844 C-78.02219109 145.11958402 -78.0639312 136.88130385 -78.13209057 128.64274597 C-78.16629624 124.40775553 -78.19146047 120.17312337 -78.19555664 115.93798828 C-78.19985351 111.84628576 -78.22842977 107.75539055 -78.27343178 103.66394043 C-78.28636272 102.10759189 -78.29073012 100.55114651 -78.28615379 98.99475098 C-78.25144685 83.59883027 -78.25144685 83.59883027 -82.38105297 78.61806107 C-87.62183954 73.3801425 -93.64286456 72.53407513 -100.80110168 72.43885803 C-101.361791 72.44137321 -101.361791 72.44137321 -104.19921875 72.45410156 C-105.40007614 72.44376389 -106.60093353 72.43342621 -107.83818054 72.42277527 C-111.1084175 72.39844876 -114.37812068 72.39150718 -117.64842987 72.39249516 C-121.07446151 72.38935293 -124.50032553 72.36370771 -127.92626953 72.34051514 C-134.40358138 72.30005127 -140.88079281 72.27963718 -147.35821152 72.26654124 C-154.73682282 72.25063846 -162.115264 72.21220919 -169.49377632 72.17194796 C-184.6624611 72.08968078 -199.83112823 72.03550652 -215 72 C-214.84806089 70.55562027 -214.69370729 69.11149439 -214.53833008 67.66748047 C-214.4526326 66.86325653 -214.36693512 66.05903259 -214.27864075 65.23043823 C-213.74762069 60.97977697 -212.3675769 57.04323789 -211 53 C-210.69312256 52.09008301 -210.38624512 51.18016602 -210.07006836 50.24267578 C-203.83671084 32.45393096 -193.92297894 17.658961 -181 4 C-180.62037109 3.58814453 -180.62037109 3.58814453 -178.69921875 1.50390625 C-159.61248509 -18.51998291 -133.99926176 -29.63055426 -107 -34 C-106.62101562 -34.06574219 -106.62101562 -34.06574219 -104.703125 -34.3984375 C-66.13558905 -39.92944072 -28.41072518 -25.53583037 0 0 Z " fill="#12504F" transform="translate(334,77)"/>
<path d="M0 0 C7.57056367 -0.21007056 14.53448565 -0.20158014 21.8125 2 C22.1892688 2.11037598 22.1892688 2.11037598 24.09594727 2.66894531 C37.01167322 6.66297041 48.05671312 12.78783716 58 22 C58.72703125 22.65871094 59.4540625 23.31742187 60.203125 23.99609375 C75.91183387 38.89538442 84.55562873 59.41365652 85.23828125 80.8203125 C85.6996391 106.95499873 78.46145716 127.85642146 60.375 147.125 C43.33668625 163.5875182 20.33742266 171.44055065 -3.0859375 171.21484375 C-24.43004043 170.04326125 -43.0119728 162.18174626 -59 148 C-59.71027344 147.38511719 -60.42054688 146.77023437 -61.15234375 146.13671875 C-76.43967873 131.99971789 -85.25134681 109.76634934 -86.16796875 89.23828125 C-86.20892698 81.00567685 -85.99447592 73.05069478 -84 65 C-82.15505325 63.15505325 -79.14912244 63.86531868 -76.67944336 63.8581543 C-76.01915131 63.85467987 -75.35885925 63.85120544 -74.67855835 63.84762573 C-73.23913865 63.84025511 -71.79970748 63.83491672 -70.36027336 63.83133507 C-68.07696686 63.82417839 -65.79387639 63.80851479 -63.51063538 63.78999329 C-57.01664328 63.73750963 -50.52276369 63.68961482 -44.02856445 63.67407227 C-40.05900665 63.66394813 -36.0899837 63.6345039 -32.12063789 63.59275246 C-30.61173119 63.5804911 -29.10274872 63.57531227 -27.59379387 63.57755089 C-12.74006729 63.59415225 -12.74006729 63.59415225 -6 59 C-2.36563182 54.43374255 -0.89648067 50.84326071 -0.79467773 45.06958008 C-0.77473251 44.06876907 -0.75478729 43.06795807 -0.73423767 42.03681946 C-0.71752518 40.95861435 -0.70081268 39.88040924 -0.68359375 38.76953125 C-0.6732032 38.21675255 -0.6732032 38.21675255 -0.62062073 35.4193573 C-0.55517668 31.8838021 -0.49626397 28.34817194 -0.4375 24.8125 C-0.3943099 22.41730992 -0.35069546 20.02212745 -0.30664062 17.62695312 C-0.19950052 11.75138158 -0.09772443 5.87573528 0 0 Z " fill="#1CD9E9" transform="translate(256,299)"/>
<path d="M0 0 C0 7.59 0 15.18 0 23 C-1.010625 22.505 -1.010625 22.505 -6.125 20 C-12.83843413 17.08765016 -19.15740181 16.39458003 -26.4375 16.375 C-27.35998535 16.3646875 -28.2824707 16.354375 -29.23291016 16.34375 C-35.17434129 16.46406103 -40.11738234 17.44501206 -45 21 C-47.35048538 24.52572807 -47.66397817 25.85013645 -47 30 C-41.10276112 36.05964132 -33.15569881 38.85871267 -25.56054688 42.27539062 C-13.15271713 48.01767118 -1.04656067 55.327851 4.30859375 68.48046875 C6.73858839 77.33553397 5.22820845 86.21479477 0.81640625 94.12109375 C-5.0279805 102.87939571 -14.08963205 106.58326115 -24 109 C-24.30164063 109.09152344 -24.30164063 109.09152344 -25.828125 109.5546875 C-40.31848023 112.52573156 -58.48483754 109.40606498 -72 104 C-72 95.75 -72 87.5 -72 79 C-69.586875 80.093125 -67.17375 81.18625 -64.6875 82.3125 C-52.14881823 87.82247734 -39.53356614 91.81054315 -25.8125 87.75 C-23.3531338 86.76716778 -21.94917405 85.95533477 -19.9375 84.1875 C-18.63549391 81.14948579 -18.46512016 79.27613904 -19 76 C-22.52986571 71.82531889 -26.43364935 69.47296942 -31.3125 67.1875 C-32.00601563 66.85057129 -32.69953125 66.51364258 -33.4140625 66.16650391 C-35.60517388 65.10203831 -37.802035 64.05023046 -40 63 C-66.19443834 50.42267493 -66.19443834 50.42267493 -71.140625 38.17578125 C-73.29890687 30.1999487 -73.1724249 21.33457 -69.2578125 13.95703125 C-62.86069527 4.00375258 -54.83668453 -0.66837814 -43.3125 -3.26953125 C-28.52660217 -6.08474974 -14.41228773 -3.49388793 0 0 Z " fill="#FAFCFC" transform="translate(183,203)"/>
</svg>
