<?xml version="1.0" encoding="UTF-8"?>
<!-- Generator: visioncortex VTracer 0.6.12 -->
<svg version="1.1" xmlns="http://www.w3.org/2000/svg" width="512" height="512">
<path d="M0 0 C0.90814453 -0.02738754 1.81628906 -0.05477509 2.75195312 -0.08299255 C3.25423431 -0.09533432 3.25423431 -0.09533432 5.79608154 -0.15779114 C6.32216003 -0.17232079 6.32216003 -0.17232079 8.98443604 -0.24584961 C18.73034397 -0.50059133 28.47802246 -0.65290627 38.22642899 -0.7733717 C44.77606983 -0.85594155 51.32112094 -0.97254413 57.86834717 -1.17146301 C64.19830769 -1.36287301 70.52405006 -1.46467707 76.85671234 -1.50535011 C79.26366136 -1.53594628 81.67043472 -1.59780738 84.07572174 -1.6923275 C102.38988737 -2.37985338 102.38988737 -2.37985338 108.05082703 1.98276901 C112.02546491 6.19691046 114.89068044 10.91212454 117.57689667 16.01836205 C119.37751699 19.3147487 121.55256917 22.22737203 123.79119873 25.24137878 C124.59827726 26.36857688 125.40323358 27.49730006 126.20526123 28.62809753 C129.17336743 32.78367791 132.1714337 36.91749467 135.16619873 41.05387878 C149.99659521 61.5494735 149.99659521 61.5494735 155.79119873 70.24137878 C156.22432373 69.10700378 156.65744873 67.97262878 157.10369873 66.80387878 C157.34733154 66.16579285 157.59096436 65.52770691 157.84197998 64.87028503 C159.23225286 61.01985849 160.49664694 57.12503414 161.79119873 53.24137878 C172.02119873 53.24137878 182.25119873 53.24137878 192.79119873 53.24137878 C193.12119873 50.60137878 193.45119873 47.96137878 193.79119873 45.24137878 C194.09812203 43.66287947 194.43200358 42.08908281 194.80682373 40.52531433 C194.90527588 40.1100222 194.90527588 40.1100222 195.40350342 38.00839233 C195.50872314 37.57439369 195.50872314 37.57439369 196.04119873 35.37809753 C196.25937256 34.46429825 196.47754639 33.55049896 196.70233154 32.60900879 C197.16093483 30.69163168 197.62157795 28.77474142 198.08416748 26.85832214 C198.79302846 23.92129767 199.49577494 20.98286214 200.19744873 18.04411316 C200.64501311 16.17619017 201.09291776 14.30834868 201.54119873 12.44059753 C201.75163818 11.5624791 201.96207764 10.68436066 202.17889404 9.77963257 C202.27734619 9.37222084 202.27734619 9.37222084 202.77557373 7.31047058 C202.94798584 6.59513657 203.12039795 5.87980255 203.29803467 5.14279175 C203.72682894 3.48955898 204.25110216 1.86166851 204.79119873 0.24137878 C242.41119873 0.24137878 280.03119873 0.24137878 318.79119873 0.24137878 C325.88115124 14.96666477 332.91065357 29.63270762 339.75238037 44.46037292 C343.97286473 53.573348 348.33688149 62.61320018 352.73944092 71.63945007 C353.90770123 74.03644393 355.07248431 76.43510012 356.23651123 78.83415222 C359.57041296 85.69660031 362.92541169 92.54121094 366.42010498 99.32341003 C366.94523682 100.36199158 367.47036865 101.40057312 368.01141357 102.47062683 C368.94734969 104.31773802 369.90283296 106.1551623 370.88348389 107.97892761 C376.02589422 118.23827062 372.38225195 129.14041164 370.16522217 139.90055847 C369.89283253 141.24425476 369.62096434 142.58805685 369.34956932 143.93195438 C368.61161731 147.57853395 367.86637791 151.22358967 367.11982203 154.86841607 C366.3221273 158.76950629 365.53130789 162.6719905 364.73965454 166.5743103 C363.20938155 174.11210547 361.67293178 181.64862814 360.13426983 189.18471485 C358.36371367 197.85778727 356.5993593 206.5321175 354.83541036 215.2065357 C351.83048405 229.98285765 348.8206464 244.75817373 345.80780029 259.53288269 C342.48509146 275.82750231 339.17314901 292.12428533 335.86686707 308.42224503 C334.16790342 316.79519834 332.4664054 325.16763685 330.76495361 333.54008484 C329.86683034 337.95974187 328.96969108 342.379597 328.07330322 346.79960632 C327.03830329 351.90217994 326.00052975 357.00418128 324.96045303 362.10572243 C324.58677969 363.94087542 324.21408058 365.7762271 323.84243393 367.61179161 C323.34441268 370.07081271 322.84294495 372.52910491 322.34051514 374.98722839 C322.26844534 375.34518934 322.26844534 375.34518934 321.90372849 377.15668869 C320.90540005 382.01297615 320.90540005 382.01297615 319.79119873 384.24137878 C305.17044162 384.64010166 290.55041162 384.93904092 275.92530632 385.12218571 C269.1328146 385.20952318 262.34371675 385.32835455 255.55340576 385.52384949 C248.99181312 385.71266801 242.43240965 385.81039535 235.86822891 385.85429192 C233.37284198 385.88554302 230.87763321 385.9465795 228.38375473 386.03878975 C209.38077386 386.71303644 209.38077386 386.71303644 203.38758087 382.58633041 C199.19654774 378.64992749 196.04040628 374.18103386 193.06869888 369.28306389 C191.27287477 366.41299978 189.17942178 363.9363582 186.97869873 361.36637878 C184.8496787 358.76206092 182.72205927 356.15661528 180.59588623 353.54997253 C179.85596436 352.6437616 179.11604248 351.73755066 178.35369873 350.80387878 C177.62408936 349.90926941 176.89447998 349.01466003 176.14276123 348.09294128 C174.44333915 346.03218029 172.73229713 343.98689037 171.00213623 341.95231628 C170.53992676 341.40631775 170.07771729 340.86031921 169.60150146 340.29777527 C168.29213807 338.7536905 166.97735016 337.21421052 165.66229248 335.67497253 C163.79119873 333.24137878 163.79119873 333.24137878 163.79119873 331.24137878 C162.94936035 331.2780365 162.10752197 331.31469421 161.24017334 331.35246277 C158.0887717 331.47242732 154.93854028 331.55982825 151.7855835 331.62590027 C150.42646793 331.66090657 149.06761226 331.70853216 147.70941162 331.76945496 C136.43538317 332.26215029 136.43538317 332.26215029 132.40106201 329.75749207 C130.65208256 328.00851261 129.23140941 326.24673886 127.79119873 324.24137878 C126.80122227 323.23145472 125.80248889 322.2299597 124.79119873 321.24137878 C124.6054982 322.00115021 124.41979767 322.76092163 124.22846985 323.54371643 C122.47995132 330.69572899 120.72914133 337.84717478 118.97573948 344.99799156 C118.07433124 348.67451403 117.17381791 352.35125092 116.27532959 356.02848816 C115.40858141 359.5756813 114.53950893 363.12229747 113.66880608 366.66852188 C113.33664645 368.02312968 113.00533193 369.37794499 112.67486763 370.73296738 C112.21269317 372.62742801 111.74726324 374.52109354 111.28167725 376.41471863 C111.01742447 377.49393585 110.75317169 378.57315308 110.48091125 379.68507385 C109.79119873 382.24137878 109.79119873 382.24137878 108.79119873 384.24137878 C5.99145215 394.33690648 5.99145215 394.33690648 -19.68603516 373.84786987 C-25.88262891 368.59554323 -31.42687161 362.9058133 -36.70880127 356.74137878 C-36.98899109 356.41469711 -36.98899109 356.41469711 -38.40692139 354.76148987 C-44.82216634 347.1908412 -50.62825552 339.30467829 -56.20088196 331.10212708 C-60.96478428 324.31483969 -66.70541561 318.67022881 -72.74395752 313.03044128 C-74.14467656 311.69099847 -75.54371871 310.34980021 -76.94122314 309.00700378 C-79.112997 306.92178524 -81.29145582 304.84769713 -83.49957275 302.8009491 C-85.65115637 300.8009592 -87.76183627 298.76459292 -89.86895752 296.71794128 C-90.53540787 296.11656342 -91.20185822 295.51518555 -91.88850403 294.89558411 C-94.39454124 292.4068657 -96.1532224 290.64458652 -96.29702759 287.01391602 C-95.81487193 284.31950575 -95.07283981 281.83890615 -94.20880127 279.24137878 C-93.91340958 278.252547 -93.61801788 277.26371521 -93.31367493 276.24491882 C-92.2744653 272.82960775 -91.16983579 269.44052098 -90.05255127 266.04997253 C-89.63374553 264.76455355 -89.2155072 263.47894958 -88.79779053 262.19317627 C-87.90623207 259.45190216 -87.01146734 256.71170552 -86.11407471 253.97233582 C-83.9508851 247.36765752 -81.80546442 240.7571986 -79.65924072 234.14699173 C-79.17001655 232.64040481 -78.68059482 231.13388202 -78.190979 229.62742233 C-73.44546486 215.02515365 -68.80901451 200.3901047 -64.20880127 185.74137878 C-57.59147727 164.68701499 -50.84625783 143.67672789 -44.0414505 122.68246078 C-37.47271571 102.41518217 -30.98147288 82.12587441 -24.58380127 61.80387878 C-14.77057151 30.64198698 -14.77057151 30.64198698 -10.36120605 16.96034241 C-9.89071573 15.50000681 -9.42124615 14.0393419 -8.95288086 12.57832336 C-8.33171756 10.64207353 -7.70596914 8.70729632 -7.07989502 6.77262878 C-6.90937622 6.24443542 -6.90937622 6.24443542 -6.04644775 3.57145691 C-4.70813352 -0.15132684 -3.7792627 0.10697472 0 0 Z " fill="#263238" transform="translate(117.20880126953125,63.75862121582031)"/>
<path d="M0 0 C36.63 0 73.26 0 111 0 C107.83609299 14.23758153 104.3248753 28.33574529 100.11328125 42.30078125 C99.04287749 45.85752639 98.02040318 49.42858886 97 53 C158.38 53 219.76 53 283 53 C280.75267931 67.6075845 280.75267931 67.6075845 279.265625 73.72265625 C279.10729187 74.38236923 278.94895874 75.04208221 278.78582764 75.7217865 C278.45064528 77.11752496 278.11332625 78.51275195 277.77392578 79.9074707 C276.8627468 83.65536299 275.97000969 87.40763289 275.078125 91.16015625 C274.8987439 91.9142276 274.71936279 92.66829895 274.5345459 93.44522095 C272.91829054 100.27503894 271.43980407 107.13089302 270 114 C267.66720395 125.10324282 265.10938436 136.14145475 262.48150635 147.17745972 C259.8880272 158.0802228 257.45887064 169.00682642 255.15942383 179.97607422 C253.27125064 188.91909593 251.16974605 197.80055117 248.91552734 206.65844727 C248.22614315 209.43078676 247.5912712 212.20517686 247 215 C246.81244141 215.87366211 246.62488281 216.74732422 246.43164062 217.64746094 C245.69192801 222.16314843 245.61806976 225.10865509 248.0703125 229.0625 C249.06186164 230.3952705 250.08188178 231.70719249 251.125 233 C252.24227665 234.47909933 253.35946107 235.95826833 254.4765625 237.4375 C255.05954102 238.18902344 255.64251953 238.94054687 256.24316406 239.71484375 C259.08536942 243.41176457 261.78410741 247.20991416 264.5 251 C265.59201374 252.50942879 266.68446127 254.01854384 267.77734375 255.52734375 C272.39818172 261.92596129 276.93708678 268.38193543 281.4765625 274.83837891 C283.08351778 277.11850423 284.69725939 279.39370619 286.3125 281.66796875 C286.85640381 282.43488037 287.40030762 283.20179199 287.96069336 283.99194336 C288.99922346 285.45595264 290.03902244 286.91906295 291.08032227 288.38110352 C291.31521362 288.71267456 291.31521362 288.71267456 292.50390625 290.390625 C292.91455322 290.96844727 293.3252002 291.54626953 293.74829102 292.14160156 C295.25412945 294.37730318 296.61946581 296.68528611 298 299 C286.97774148 299.30217825 275.95647896 299.53267331 264.93091106 299.67355824 C259.81011116 299.74120513 254.69215884 299.83282306 249.57299805 299.98071289 C244.62548535 300.12273738 239.68069704 300.19984568 234.73130226 300.23340416 C232.85039188 300.2572923 230.96961887 300.30394808 229.08987999 300.37449074 C213.60973392 300.93193351 213.60973392 300.93193351 208.4282074 296.15066528 C205.55029726 293.00452619 203.27416446 289.59942658 201 286 C200.02215005 284.74082625 199.03021684 283.4921529 198.01171875 282.265625 C197.24472656 281.27046875 196.47773438 280.2753125 195.6875 279.25 C190.8990795 273.08450008 185.95835666 267.05383282 180.98339844 261.03833008 C177.32735134 256.61632601 173.70984426 252.16834202 170.140625 247.67578125 C166.61615767 243.27019708 163.04586639 238.90170454 159.47827148 234.53100586 C158.42561908 233.23890552 157.37953227 231.94141766 156.34130859 230.63769531 C155 229 155 229 153.05078125 227.0234375 C150.39499657 221.90932424 153.65968962 213.81585423 155 208.4375 C156.72271097 201.37581413 158.39870515 194.30532295 160.015625 187.21875 C164.1502193 169.11179789 168.40232034 151.04793468 172.99316406 133.05053711 C173.17237396 132.34461426 173.35158386 131.63869141 173.53622437 130.91137695 C174.01379233 129.03202656 174.49477379 127.15354446 174.97607422 125.27514648 C176.42893964 119.20906962 177.69303375 113.09917582 179 107 C167.78 107 156.56 107 145 107 C144.67 108.98 144.34 110.96 144 113 C143.33623909 116.03700325 142.57061844 119.04776694 141.8125 122.0625 C141.5969043 122.92649414 141.38130859 123.79048828 141.15917969 124.68066406 C139.27684368 132.1216481 137.18329309 139.4954764 134.96801758 146.84399414 C133.47254522 151.90769837 132.06659243 156.70035253 132 162 C134.06026626 165.10306496 136.44766168 167.38587108 139.09375 169.99609375 C141.26319188 173.41474294 141.30363282 175.2602023 140.63085938 179.20043945 C139.05945575 186.17384709 137.27034891 193.08412763 135.43847656 199.99267578 C129.63254504 221.98685047 129.63254504 221.98685047 131.89990234 226.98291016 C133.20626891 228.795324 134.59375023 230.31117044 136.1875 231.875 C137.18124814 232.93465342 138.17474175 233.9945456 139.16796875 235.0546875 C139.6479834 235.54936523 140.12799805 236.04404297 140.62255859 236.55371094 C146 242.1999291 146 242.1999291 146 245 C143.33203125 245.36328125 143.33203125 245.36328125 140 245 C137.91320824 243.08380728 136.37784519 241.40844126 134.6875 239.1875 C134.2145752 238.59727051 133.74165039 238.00704102 133.25439453 237.39892578 C132.28552408 236.18791909 131.3238981 234.97108064 130.36962891 233.74853516 C128.4156878 231.2540385 126.39334056 228.81751021 124.375 226.375 C122.91591086 224.58394879 121.45755894 222.79229671 120 221 C114.78568971 214.61271632 109.55465056 208.23944014 104.3125 201.875 C103.71679199 201.15175537 103.12108398 200.42851074 102.50732422 199.68334961 C98.90184115 195.30677672 95.29481752 190.93148201 91.68457031 186.55883789 C90.52460886 185.15038273 89.36767713 183.73942663 88.21386719 182.32592773 C85.26416289 178.71576072 82.27519516 175.15633126 79.1953125 171.65625 C78.8904895 171.30212036 78.8904895 171.30212036 77.34790039 169.51000977 C76.19062746 168.16663633 75.01615526 166.83781595 73.82202148 165.52709961 C70.89795455 162.08951135 69.997186 160.71264429 70.015625 156.04296875 C70.30531915 154.68653199 70.63420117 153.33792175 71 152 C71.15718506 151.35184326 71.31437012 150.70368652 71.47631836 150.03588867 C72.00265978 147.96748159 72.58758505 145.92322756 73.1875 143.875 C73.63478867 142.30748386 74.08136885 140.73976543 74.52734375 139.171875 C74.76437012 138.34365234 75.00139648 137.51542969 75.24560547 136.66210938 C76.61601775 131.82619496 77.93064999 126.97504449 79.25 122.125 C79.5080542 121.17995605 79.7661084 120.23491211 80.03198242 119.26123047 C81.05369382 115.51370865 82.0578399 111.7686404 83 108 C71.78 107.67 60.56 107.34 49 107 C48.34 110.3 47.68 113.6 47 117 C45.02 124.26 43.04 131.52 41 139 C23.84 139 6.68 139 -11 139 C-9.87735242 130.01881937 -9.87735242 130.01881937 -8.80859375 126.7109375 C-8.69741211 126.35386719 -8.69741211 126.35386719 -8.13476562 124.546875 C-7.66728291 123.09073837 -7.19851833 121.63501269 -6.72851562 120.1796875 C-6.50744141 119.468125 -6.28636719 118.7565625 -6.05859375 118.0234375 C-5.85548584 117.39356934 -5.65237793 116.76370117 -5.44311523 116.11474609 C-5 114 -5 114 -5 108 C-9.62 107.835 -9.62 107.835 -33 107 C-31.8762089 99.13346228 -31.8762089 99.13346228 -30.73046875 95.87109375 C-30.48361328 95.15373047 -30.23675781 94.43636719 -29.98242188 93.69726562 C-29.72009766 92.95154297 -29.45777344 92.20582031 -29.1875 91.4375 C-27.31825268 85.98959866 -25.53588958 80.55382858 -24 75 C-22.28106895 68.81184821 -20.27160224 62.75185611 -18.2109375 56.671875 C-16.68590384 52.14298717 -15.27946357 47.60606885 -14 43 C-12.28394827 36.82221378 -10.28084318 30.77119348 -8.21972656 24.70263672 C-6.2257729 18.79062761 -4.48325459 12.84576045 -2.859375 6.8203125 C-2 4 -2 4 0 0 Z " fill="#8AC249" transform="translate(116,128)"/>
<path d="M0 0 C6.6 0 13.2 0 20 0 C19.3663602 4.43547857 18.7591095 8.31222247 17.6171875 12.5625 C17.47877441 13.07905151 17.47877441 13.07905151 16.77832031 15.69311523 C16.48022461 16.78438721 16.18212891 17.87565918 15.875 19 C15.5665918 20.13832275 15.25818359 21.27664551 14.94042969 22.44946289 C12.58128134 31.07278349 10.05584817 39.63808845 7.39794922 48.17382812 C5.9839003 52.71832365 4.60340516 57.27097597 3.296875 61.84765625 C3.04776367 62.71527588 2.79865234 63.58289551 2.54199219 64.47680664 C1.97757739 67.10438633 1.76044075 69.32255634 2 72 C4.63790734 74.63790734 5.86849082 74.27101936 9.55126953 74.31884766 C10.71232208 74.33871735 11.87337463 74.35858704 13.0696106 74.37905884 C14.32796722 74.39061005 15.58632385 74.40216125 16.8828125 74.4140625 C18.16735321 74.43342865 19.45189392 74.4527948 20.77536011 74.4727478 C24.19147535 74.52413941 27.60763007 74.56372714 31.02392578 74.60089111 C34.50953999 74.64088698 37.99498903 74.69199938 41.48046875 74.7421875 C48.3201919 74.83902975 55.16002096 74.9234078 62 75 C60.90982759 79.43403547 59.79637806 83.83292198 58.45703125 88.19921875 C58.32264648 88.6487793 58.32264648 88.6487793 57.64257812 90.92382812 C57.08498992 92.78026884 56.51976412 94.6344312 55.94726562 96.48632812 C55.68236328 97.38158203 55.41746094 98.27683594 55.14453125 99.19921875 C54.90065674 100.00190186 54.65678223 100.80458496 54.40551758 101.6315918 C53.92334149 104.44772075 54.14885872 106.27596326 55 109 C56.30004883 110.83007812 56.30004883 110.83007812 57.95703125 112.53125 C58.26290161 112.85065552 58.26290161 112.85065552 59.81079102 114.46704102 C60.47135498 115.13791748 61.13191895 115.80879395 61.8125 116.5 C63.19320016 117.9357251 64.57340266 119.37192895 65.953125 120.80859375 C66.64083984 121.51870605 67.32855469 122.22881836 68.03710938 122.96044922 C70.75740476 125.78698499 73.41334293 128.66946664 76.0625 131.5625 C82.67076026 138.74340944 89.33597897 145.87087826 96 153 C100.09735439 157.38332024 104.1930311 161.76817885 108.28320312 166.15820312 C109.44781135 167.40760649 110.61320198 168.65628093 111.77929688 169.90429688 C113.48031094 171.72560365 115.17805279 173.54990454 116.875 175.375 C117.39336426 175.92881348 117.91172852 176.48262695 118.44580078 177.05322266 C122 180.88579955 122 180.88579955 122 182 C111.63844111 182.44377854 101.27920178 182.77953661 90.91001415 182.98443127 C86.0923975 183.0828765 81.28135799 183.21586574 76.4675293 183.43334961 C41.08918991 184.99012024 41.08918991 184.99012024 30.66731262 175.50886536 C27.72143072 172.29341644 25.10213802 168.98773668 22.64407349 165.38699341 C17.67677809 158.17508867 11.23170956 152.10448725 5.03125 145.96875 C4.6116803 145.55107361 4.6116803 145.55107361 2.48840332 143.43737793 C-0.171969 140.78912914 -2.83556013 138.14415594 -5.5 135.5 C-9.01337273 132.01337399 -12.52331971 128.52335074 -16.03125 125.03125 C-16.82623901 124.24455933 -17.62122803 123.45786865 -18.44030762 122.64733887 C-32.31101263 108.83710479 -32.31101263 108.83710479 -33 104 C-32.36328125 101.6953125 -32.36328125 101.6953125 -31.3125 99.125 C-29.69008321 94.93329518 -28.31796076 90.77142075 -27.125 86.4375 C-25.58276937 80.89397023 -23.84858719 75.44855833 -22 70 C-20.2022552 64.69637455 -18.49942547 59.39793171 -17 54 C-15.28169004 47.81408415 -13.27314194 41.75622301 -11.21313477 35.6784668 C-9.29808732 29.9914847 -7.61826548 24.26268126 -6.01171875 18.48046875 C-4.20193762 12.25454215 -2.08491907 6.13892837 0 0 Z " fill="#8C6D62" transform="translate(79,245)"/>
<path d="M0 0 C11.89980386 -0.41861389 23.79783566 -0.73763507 35.70352459 -0.93261909 C41.23347637 -1.0262517 46.75836427 -1.153 52.28540039 -1.35791016 C57.62865371 -1.55474749 62.96706859 -1.66134911 68.3136692 -1.70779037 C70.34398434 -1.7408392 72.37405829 -1.80539508 74.40228844 -1.90314102 C89.85506562 -2.61764894 89.85506562 -2.61764894 95.12713814 1.77049828 C99.03246999 6.08134378 102.01958277 10.85374148 104.83061314 15.92805767 C106.26395449 18.46767968 107.9245581 20.78051313 109.69140625 23.09765625 C116.35530787 32.29679827 122.94324254 41.54611398 129.4765625 50.83837891 C131.08351778 53.11850423 132.69725939 55.39370619 134.3125 57.66796875 C134.85640381 58.43488037 135.40030762 59.20179199 135.96069336 59.99194336 C136.99922346 61.45595264 138.03902244 62.91906295 139.08032227 64.38110352 C139.31521362 64.71267456 139.31521362 64.71267456 140.50390625 66.390625 C140.91455322 66.96844727 141.3252002 67.54626953 141.74829102 68.14160156 C143.25412945 70.37730318 144.61946581 72.68528611 146 75 C134.97774148 75.30217825 123.95647896 75.53267331 112.93091106 75.67355824 C107.81011116 75.74120513 102.69215884 75.83282306 97.57299805 75.98071289 C92.62548535 76.12273738 87.68069704 76.19984568 82.73130226 76.23340416 C80.85039188 76.2572923 78.96961887 76.30394808 77.08987999 76.37449074 C61.60973392 76.93193351 61.60973392 76.93193351 56.4282074 72.15066528 C53.55029726 69.00452619 51.27416446 65.59942658 49 62 C48.02215005 60.74082625 47.03021684 59.4921529 46.01171875 58.265625 C45.24472656 57.27046875 44.47773438 56.2753125 43.6875 55.25 C38.8990795 49.08450008 33.95835666 43.05383282 28.98339844 37.03833008 C25.32669164 32.61552809 21.70673188 28.16827063 18.140625 23.671875 C16.35289343 21.44047282 14.54869866 19.22535177 12.734375 17.015625 C12.15051025 16.302854 11.56664551 15.59008301 10.96508789 14.85571289 C9.80546589 13.44126391 8.64330825 12.02888884 7.47827148 10.61889648 C6.94274658 9.96477783 6.40722168 9.31065918 5.85546875 8.63671875 C5.61646851 8.34647827 5.61646851 8.34647827 4.40698242 6.87768555 C2.75982499 4.67947493 1.39966542 2.3617246 0 0 Z " fill="#8C6D62" transform="translate(268,352)"/>
<path d="M0 0 C28.71 0 57.42 0 87 0 C84.75285171 13.48288973 84.75285171 13.48288973 83.484375 18.56640625 C83.2056958 19.69780029 82.9270166 20.82919434 82.63989258 21.99487305 C82.34622803 23.17218994 82.05256348 24.34950684 81.75 25.5625 C81.12171657 28.12193523 80.49479302 30.68163773 79.87109375 33.2421875 C79.71384323 33.88727768 79.55659271 34.53236786 79.39457703 35.19700623 C76.75175485 46.09051966 74.40086107 57.0513011 72 68 C70.68 73.94 69.36 79.88 68 86 C54.8 86 41.6 86 28 86 C30.24185949 73.6697728 30.24185949 73.6697728 31.69140625 67.71484375 C31.99626953 66.44189453 32.30113281 65.16894531 32.61523438 63.85742188 C33.08875141 61.89346646 33.56431705 59.93006125 34.04370117 57.9675293 C38.2901223 40.53268321 38.2901223 40.53268321 38 35 C35.61556332 32.61556332 35.07540218 32.73816495 31.82568359 32.68115234 C30.96494232 32.66128265 30.10420105 32.64141296 29.21737671 32.62094116 C28.28712677 32.60938995 27.35687683 32.59783875 26.3984375 32.5859375 C25.44683746 32.56657135 24.49523743 32.5472052 23.51480103 32.5272522 C20.46829253 32.46735868 17.42174646 32.42103205 14.375 32.375 C12.3124833 32.33682921 10.2499827 32.29777802 8.1875 32.2578125 C3.12513034 32.16164914 -1.93731395 32.07765437 -7 32 C-5.64567802 21.16542413 -2.64822051 10.59288206 0 0 Z " fill="#89C149" transform="translate(334,85)"/>
<path d="M0 0 C6.6 0 13.2 0 20 0 C19.3663602 4.43547857 18.7591095 8.31222247 17.6171875 12.5625 C17.47877441 13.07905151 17.47877441 13.07905151 16.77832031 15.69311523 C16.48022461 16.78438721 16.18212891 17.87565918 15.875 19 C15.5665918 20.13832275 15.25818359 21.27664551 14.94042969 22.44946289 C12.58128134 31.07278349 10.05584817 39.63808845 7.39794922 48.17382812 C5.9839003 52.71832365 4.60340516 57.27097597 3.296875 61.84765625 C3.04776367 62.71527588 2.79865234 63.58289551 2.54199219 64.47680664 C1.97757739 67.10438633 1.76044075 69.32255634 2 72 C4.63790734 74.63790734 5.86849082 74.27101936 9.55126953 74.31884766 C10.71232208 74.33871735 11.87337463 74.35858704 13.0696106 74.37905884 C14.32796722 74.39061005 15.58632385 74.40216125 16.8828125 74.4140625 C18.16735321 74.43342865 19.45189392 74.4527948 20.77536011 74.4727478 C24.19147535 74.52413941 27.60763007 74.56372714 31.02392578 74.60089111 C34.50953999 74.64088698 37.99498903 74.69199938 41.48046875 74.7421875 C48.3201919 74.83902975 55.16002096 74.9234078 62 75 C59.31258075 85.749677 56.10254376 96.36270711 53 107 C24.62 107 -3.76 107 -33 107 C-30.75291602 96.88812208 -30.75291602 96.88812208 -29.4140625 93.01953125 C-29.12523193 92.17302002 -28.83640137 91.32650879 -28.53881836 90.4543457 C-28.38803833 90.01844116 -28.38803833 90.01844116 -27.625 87.8125 C-25.22449286 80.75396128 -23.0134836 73.70543637 -21.02734375 66.51953125 C-19.56794968 61.51985802 -17.88224867 56.60308385 -16.21069336 51.67114258 C-14.68573784 47.14250139 -13.27939424 42.60581926 -12 38 C-10.27731679 31.8055183 -8.28140404 25.73010112 -6.22412109 19.64111328 C-4.02687609 13.12810233 -1.9893648 6.58020665 0 0 Z " fill="#8AC149" transform="translate(79,245)"/>
<path d="M0 0 C22.44 0 44.88 0 68 0 C65.36755289 14.4784591 61.56911223 28.72355109 58 43 C34.9 43 11.8 43 -12 43 C-11.27221616 37.17772932 -10.58863977 33.25245113 -8.6875 27.9375 C-6.41643542 21.44237097 -4.57983373 14.91168241 -2.89453125 8.2421875 C-2 5 -2 5 0 0 Z " fill="#89C149" transform="translate(293,128)"/>
<path d="M0 0 C27.06 0 54.12 0 82 0 C80.69700602 5.86347292 79.34081985 11.44634968 77.5 17.125 C77.07206819 18.46066595 76.64497769 19.79660176 76.21875 21.1328125 C76.03248047 21.70918457 75.84621094 22.28555664 75.65429688 22.87939453 C74.72077489 25.90498109 73.86985739 28.95549914 73 32 C45.94 32 18.88 32 -9 32 C-7.76903333 25.22968333 -6.61344283 19.06779845 -4.5 12.625 C-4.39365234 12.28919922 -4.39365234 12.28919922 -3.85546875 10.58984375 C-2.70145332 6.98620046 -1.40760497 3.51901243 0 0 Z " fill="#89C149" transform="translate(129,85)"/>
<path d="M0 0 C7.64898242 -0.30269632 15.29733733 -0.53292003 22.95096397 -0.67355824 C26.50642342 -0.74110842 30.05775657 -0.83248799 33.61083984 -0.98071289 C58.30041152 -1.98362258 58.30041152 -1.98362258 64.18066406 2.63525391 C67.6948441 6.32437989 69.45950215 10.30464511 70.46240234 15.3059082 C70.35677597 17.74033065 69.75364289 19.67924423 69 22 C68.55681888 23.82078634 68.11422042 25.6417272 67.67944336 27.46453857 C66.66237249 31.65661196 65.54404828 35.82322835 64.43847656 39.99267578 C58.63254504 61.98685047 58.63254504 61.98685047 60.89990234 66.98291016 C62.20626891 68.795324 63.59375023 70.31117044 65.1875 71.875 C66.18124814 72.93465342 67.17474175 73.9945456 68.16796875 75.0546875 C68.6479834 75.54936523 69.12799805 76.04404297 69.62255859 76.55371094 C75 82.1999291 75 82.1999291 75 85 C72.33203125 85.36328125 72.33203125 85.36328125 69 85 C66.91320824 83.08380728 65.37784519 81.40844126 63.6875 79.1875 C63.2145752 78.59727051 62.74165039 78.00704102 62.25439453 77.39892578 C61.28552408 76.18791909 60.3238981 74.97108064 59.36962891 73.74853516 C57.4156878 71.2540385 55.39334056 68.81751021 53.375 66.375 C51.91591086 64.58394879 50.45755894 62.79229671 49 61 C43.78568928 54.61271579 38.55457518 48.23950276 33.3125 41.875 C32.71751709 41.15248047 32.12253418 40.42996094 31.50952148 39.68554688 C28.47932539 36.00668866 25.44680234 32.32978631 22.41015625 28.65625 C16.60982305 21.63525561 10.8327241 14.59659793 5.125 7.5 C4.60663574 6.85853027 4.08827148 6.21706055 3.55419922 5.55615234 C0 1.1179819 0 1.1179819 0 0 Z " fill="#8B6D62" transform="translate(187,288)"/>
<path d="M0 0 C17.16 0 34.32 0 52 0 C49.74853919 11.25730405 49.74853919 11.25730405 48.52734375 15.28125 C48.26759766 16.14234375 48.00785156 17.0034375 47.74023438 17.890625 C47.47533203 18.75171875 47.21042969 19.6128125 46.9375 20.5 C46.66873047 21.39203125 46.39996094 22.2840625 46.12304688 23.203125 C44.14840734 29.70318533 44.14840734 29.70318533 43 32 C26.17 32 9.34 32 -8 32 C-6.6362445 21.08995601 -3.07858553 10.5551504 0 0 Z " fill="#89C049" transform="translate(101,277)"/>
</svg>
