<?xml version="1.0" encoding="UTF-8"?>
<!-- Generator: visioncortex VTracer 0.6.12 -->
<svg version="1.1" xmlns="http://www.w3.org/2000/svg" width="512" height="512">
<path d="M0 0 C32.01 0 64.02 0 97 0 C97 32.01 97 64.02 97 97 C86.44 97 75.88 97 65 97 C65 107.56 65 118.12 65 129 C54.44 129 43.88 129 33 129 C33 139.56 33 150.12 33 161 C22.44 161 11.88 161 1 161 C1 171.56 1 182.12 1 193 C-9.56 193 -20.12 193 -31 193 C-31 203.56 -31 214.12 -31 225 C-41.56 225 -52.12 225 -63 225 C-63 235.56 -63 246.12 -63 257 C-73.56 257 -84.12 257 -95 257 C-95 267.23 -95 277.46 -95 288 C-84.44 288 -73.88 288 -63 288 C-63 298.56 -63 309.12 -63 320 C-52.44 320 -41.88 320 -31 320 C-31 341.45 -31 362.9 -31 385 C-52.45 385 -73.9 385 -96 385 C-96 374.44 -96 363.88 -96 353 C-117.12 353 -138.24 353 -160 353 C-160 342.44 -160 331.88 -160 321 C-170.23 321 -180.46 321 -191 321 C-191 331.56 -191 342.12 -191 353 C-201.56 353 -212.12 353 -223 353 C-223 374.12 -223 395.24 -223 417 C-255.01 417 -287.02 417 -320 417 C-320 384.99 -320 352.98 -320 320 C-298.88 320 -277.76 320 -256 320 C-256 309.44 -256 298.88 -256 288 C-245.44 288 -234.88 288 -224 288 C-224 277.77 -224 267.54 -224 257 C-234.56 257 -245.12 257 -256 257 C-256 235.88 -256 214.76 -256 193 C-266.56 193 -277.12 193 -288 193 C-288 171.55 -288 150.1 -288 128 C-266.55 128 -245.1 128 -223 128 C-223 138.56 -223 149.12 -223 160 C-212.44 160 -201.88 160 -191 160 C-191 170.56 -191 181.12 -191 192 C-180.77 192 -170.54 192 -160 192 C-160 181.44 -160 170.88 -160 160 C-149.44 160 -138.88 160 -128 160 C-128 149.44 -128 138.88 -128 128 C-117.44 128 -106.88 128 -96 128 C-96 117.44 -96 106.88 -96 96 C-85.44 96 -74.88 96 -64 96 C-64 85.44 -64 74.88 -64 64 C-53.44 64 -42.88 64 -32 64 C-32 53.44 -32 42.88 -32 32 C-21.44 32 -10.88 32 0 32 C0 21.44 0 10.88 0 0 Z " fill="#004D40" transform="translate(373,42)"/>
<path d="M0 0 C32.01 0 64.02 0 97 0 C97 32.01 97 64.02 97 97 C86.44 97 75.88 97 65 97 C65 107.56 65 118.12 65 129 C54.44 129 43.88 129 33 129 C33 139.56 33 150.12 33 161 C22.44 161 11.88 161 1 161 C1 171.56 1 182.12 1 193 C-9.56 193 -20.12 193 -31 193 C-31 203.56 -31 214.12 -31 225 C-41.56 225 -52.12 225 -63 225 C-63 235.56 -63 246.12 -63 257 C-95.01 257 -127.02 257 -160 257 C-160 224.99 -160 192.98 -160 160 C-149.44 160 -138.88 160 -128 160 C-128 149.44 -128 138.88 -128 128 C-117.44 128 -106.88 128 -96 128 C-96 117.44 -96 106.88 -96 96 C-85.44 96 -74.88 96 -64 96 C-64 85.44 -64 74.88 -64 64 C-53.44 64 -42.88 64 -32 64 C-32 53.44 -32 42.88 -32 32 C-21.44 32 -10.88 32 0 32 C0 21.44 0 10.88 0 0 Z " fill="#27C6DA" transform="translate(373,42)"/>
<path d="M0 0 C32.01 0 64.02 0 97 0 C97 32.01 97 64.02 97 97 C86.44 97 75.88 97 65 97 C65 107.56 65 118.12 65 129 C54.44 129 43.88 129 33 129 C33 139.56 33 150.12 33 161 C22.44 161 11.88 161 1 161 C1 171.56 1 182.12 1 193 C-9.56 193 -20.12 193 -31 193 C-31 203.56 -31 214.12 -31 225 C-41.56 225 -52.12 225 -63 225 C-63 235.56 -63 246.12 -63 257 C-73.89 257 -84.78 257 -96 257 C-96 246.44 -96 235.88 -96 225 C-85.44 225 -74.88 225 -64 225 C-64 214.44 -64 203.88 -64 193 C-53.44 193 -42.88 193 -32 193 C-32 182.44 -32 171.88 -32 161 C-21.44 161 -10.88 161 0 161 C0 150.44 0 139.88 0 129 C10.56 129 21.12 129 32 129 C32 118.44 32 107.88 32 97 C42.56 97 53.12 97 64 97 C64 86.11 64 75.22 64 64 C53.77 64 43.54 64 33 64 C33 53.77 33 43.54 33 33 C22.11 33 11.22 33 0 33 C0 43.56 0 54.12 0 65 C-10.56 65 -21.12 65 -32 65 C-32 75.56 -32 86.12 -32 97 C-42.56 97 -53.12 97 -64 97 C-64 107.56 -64 118.12 -64 129 C-74.56 129 -85.12 129 -96 129 C-96 139.56 -96 150.12 -96 161 C-106.56 161 -117.12 161 -128 161 C-128 171.56 -128 182.12 -128 193 C-138.56 193 -149.12 193 -160 193 C-160 182.11 -160 171.22 -160 160 C-149.44 160 -138.88 160 -128 160 C-128 149.44 -128 138.88 -128 128 C-117.44 128 -106.88 128 -96 128 C-96 117.44 -96 106.88 -96 96 C-85.44 96 -74.88 96 -64 96 C-64 85.44 -64 74.88 -64 64 C-53.44 64 -42.88 64 -32 64 C-32 53.44 -32 42.88 -32 32 C-21.44 32 -10.88 32 0 32 C0 21.44 0 10.88 0 0 Z " fill="#00BCD4" transform="translate(373,42)"/>
<path d="M0 0 C21.12 0 42.24 0 64 0 C64 10.89 64 21.78 64 33 C74.89 33 85.78 33 97 33 C97 54.12 97 75.24 97 97 C64.99 97 32.98 97 0 97 C0 64.99 0 32.98 0 0 Z " fill="#004D40" transform="translate(53,362)"/>
<path d="M0 0 C10.56 0 21.12 0 32 0 C32 21.45 32 42.9 32 65 C10.55 65 -10.9 65 -33 65 C-33 54.44 -33 43.88 -33 33 C-22.44 32.67 -11.88 32.34 -1 32 C-0.67 21.44 -0.34 10.88 0 0 Z " fill="#004D3F" transform="translate(310,362)"/>
<path d="M0 0 C21.45 0 42.9 0 65 0 C65 10.56 65 21.12 65 32 C59.72 32.165 59.72 32.165 33 33 C32.67 43.56 32.34 54.12 32 65 C21.44 65 10.88 65 0 65 C0 43.55 0 22.1 0 0 Z " fill="#004D3F" transform="translate(85,170)"/>
<path d="M0 0 C10.56 0 21.12 0 32 0 C32 10.56 32 21.12 32 32 C21.77 32 11.54 32 1 32 C1 42.56 1 53.12 1 64 C-9.89 64 -20.78 64 -32 64 C-32 53.11 -32 42.22 -32 31 C-21.44 31 -10.88 31 0 31 C0 20.77 0 10.54 0 0 Z " fill="#B36548" transform="translate(149,331)"/>
<path d="M0 0 C21.12 0 42.24 0 64 0 C64 10.56 64 21.12 64 32 C42.88 32 21.76 32 0 32 C0 21.44 0 10.88 0 0 Z " fill="#004C40" transform="translate(213,363)"/>
<path d="M0 0 C10.56 0 21.12 0 32 0 C32 10.56 32 21.12 32 32 C21.77 32 11.54 32 1 32 C1 42.56 1 53.12 1 64 C-9.56 64 -20.12 64 -31 64 C-31 53.44 -31 42.88 -31 32 C-20.77 32 -10.54 32 0 32 C0 21.44 0 10.88 0 0 Z " fill="#37474E" transform="translate(181,331)"/>
<path d="M0 0 C10.56 0 21.12 0 32 0 C32 21.12 32 42.24 32 64 C21.44 64 10.88 64 0 64 C0 42.88 0 21.76 0 0 Z " fill="#004C40" transform="translate(117,235)"/>
<path d="M0 0 C21.12 0 42.24 0 64 0 C64 10.23 64 20.46 64 31 C42.88 31 21.76 31 0 31 C0 20.77 0 10.54 0 0 Z " fill="#004D3F" transform="translate(214,299)"/>
<path d="M0 0 C10.23 0 20.46 0 31 0 C31 21.12 31 42.24 31 64 C20.77 64 10.54 64 0 64 C0 42.88 0 21.76 0 0 Z " fill="#004D3F" transform="translate(182,234)"/>
<path d="M0 0 C20.79 0 41.58 0 63 0 C63 10.23 63 20.46 63 31 C42.21 31 21.42 31 0 31 C0 20.77 0 10.54 0 0 Z " fill="#26A69A" transform="translate(214,331)"/>
<path d="M0 0 C10.23 0 20.46 0 31 0 C31 20.79 31 41.58 31 63 C20.77 63 10.54 63 0 63 C0 42.21 0 21.42 0 0 Z " fill="#26A69A" transform="translate(150,235)"/>
<path d="M0 0 C21.12 0 42.24 0 64 0 C64 0.33 64 0.66 64 1 C53.44 1 42.88 1 32 1 C32 11.23 32 21.46 32 32 C21.44 32 10.88 32 0 32 C0 21.44 0 10.88 0 0 Z " fill="#37474E" transform="translate(117,330)"/>
<path d="M0 0 C10.56 0 21.12 0 32 0 C32 10.56 32 21.12 32 32 C21.44 32 10.88 32 0 32 C0 21.44 0 10.88 0 0 Z " fill="#004D3F" transform="translate(278,330)"/>
<path d="M0 0 C10.56 0 21.12 0 32 0 C32 10.56 32 21.12 32 32 C21.44 32 10.88 32 0 32 C0 21.44 0 10.88 0 0 Z " fill="#4BCFE0" transform="translate(245,267)"/>
<path d="M0 0 C10.56 0 21.12 0 32 0 C32 10.56 32 21.12 32 32 C21.44 32 10.88 32 0 32 C0 21.44 0 10.88 0 0 Z " fill="#01BBD3" transform="translate(213,267)"/>
<path d="M0 0 C10.56 0 21.12 0 32 0 C32 10.56 32 21.12 32 32 C21.44 32 10.88 32 0 32 C0 21.44 0 10.88 0 0 Z " fill="#4BCFE0" transform="translate(213,235)"/>
<path d="M0 0 C10.56 0 21.12 0 32 0 C32 10.56 32 21.12 32 32 C21.44 32 10.88 32 0 32 C0 21.44 0 10.88 0 0 Z " fill="#004D3F" transform="translate(150,202)"/>
<path d="M0 0 C10.56 0 21.12 0 32 0 C32 10.56 32 21.12 32 32 C26.905625 32.020625 21.81125 32.04125 16.5625 32.0625 C14.95318604 32.071604 13.34387207 32.08070801 11.68579102 32.09008789 C10.42951904 32.09258545 9.17324707 32.09508301 7.87890625 32.09765625 C7.23215942 32.10027466 7.23215942 32.10027466 3.95922852 32.11352539 C1 32 1 32 0 31 C-0.08790975 28.70848583 -0.10694038 26.41427476 -0.09765625 24.12109375 C-0.09515869 22.86482178 -0.09266113 21.6085498 -0.09008789 20.31420898 C-0.08098389 18.70489502 -0.07187988 17.09558105 -0.0625 15.4375 C-0.041875 10.343125 -0.02125 5.24875 0 0 Z " fill="#24A397" transform="translate(85,395)"/>
<path d="M0 0 C10.23 0 20.46 0 31 0 C31 10.56 31 21.12 31 32 C20.77 32 10.54 32 0 32 C0 21.44 0 10.88 0 0 Z " fill="#004D40" transform="translate(182,331)"/>
<path d="M0 0 C10.23 0 20.46 0 31 0 C31 10.23 31 20.46 31 31 C20.77 31 10.54 31 0 31 C0 20.77 0 10.54 0 0 Z " fill="#26A69A" transform="translate(278,363)"/>
<path d="M0 0 C10.23 0 20.46 0 31 0 C31 10.23 31 20.46 31 31 C20.77 31 10.54 31 0 31 C0 20.77 0 10.54 0 0 Z " fill="#26A69A" transform="translate(182,299)"/>
<path d="M0 0 C10.23 0 20.46 0 31 0 C31 10.23 31 20.46 31 31 C20.77 31 10.54 31 0 31 C0 20.77 0 10.54 0 0 Z " fill="#4DD0E1" transform="translate(278,235)"/>
<path d="M0 0 C10.23 0 20.46 0 31 0 C31 10.23 31 20.46 31 31 C20.77 31 10.54 31 0 31 C0 20.77 0 10.54 0 0 Z " fill="#00BCD4" transform="translate(246,235)"/>
<path d="M0 0 C10.23 0 20.46 0 31 0 C31 10.23 31 20.46 31 31 C20.77 31 10.54 31 0 31 C0 20.77 0 10.54 0 0 Z " fill="#4DD0E1" transform="translate(310,203)"/>
<path d="M0 0 C10.23 0 20.46 0 31 0 C31 10.23 31 20.46 31 31 C20.77 31 10.54 31 0 31 C0 20.77 0 10.54 0 0 Z " fill="#00BCD4" transform="translate(278,203)"/>
<path d="M0 0 C10.23 0 20.46 0 31 0 C31 10.23 31 20.46 31 31 C20.77 31 10.54 31 0 31 C0 20.77 0 10.54 0 0 Z " fill="#4DD0E1" transform="translate(246,203)"/>
<path d="M0 0 C10.23 0 20.46 0 31 0 C31 10.23 31 20.46 31 31 C20.77 31 10.54 31 0 31 C0 20.77 0 10.54 0 0 Z " fill="#26A69A" transform="translate(118,203)"/>
<path d="M0 0 C10.23 0 20.46 0 31 0 C31 10.23 31 20.46 31 31 C20.77 31 10.54 31 0 31 C0 20.77 0 10.54 0 0 Z " fill="#4DD0E1" transform="translate(342,171)"/>
<path d="M0 0 C10.23 0 20.46 0 31 0 C31 10.23 31 20.46 31 31 C20.77 31 10.54 31 0 31 C0 20.77 0 10.54 0 0 Z " fill="#00BCD4" transform="translate(310,171)"/>
<path d="M0 0 C10.23 0 20.46 0 31 0 C31 10.23 31 20.46 31 31 C20.77 31 10.54 31 0 31 C0 20.77 0 10.54 0 0 Z " fill="#4DD0E1" transform="translate(278,171)"/>
<path d="M0 0 C10.23 0 20.46 0 31 0 C31 10.23 31 20.46 31 31 C20.77 31 10.54 31 0 31 C0 20.77 0 10.54 0 0 Z " fill="#4DD0E1" transform="translate(374,139)"/>
<path d="M0 0 C10.23 0 20.46 0 31 0 C31 10.23 31 20.46 31 31 C20.77 31 10.54 31 0 31 C0 20.77 0 10.54 0 0 Z " fill="#00BCD4" transform="translate(342,139)"/>
<path d="M0 0 C10.23 0 20.46 0 31 0 C31 10.23 31 20.46 31 31 C20.77 31 10.54 31 0 31 C0 20.77 0 10.54 0 0 Z " fill="#4DD0E1" transform="translate(310,139)"/>
<path d="M0 0 C10.23 0 20.46 0 31 0 C31 10.23 31 20.46 31 31 C20.77 31 10.54 31 0 31 C0 20.77 0 10.54 0 0 Z " fill="#4DD0E1" transform="translate(406,107)"/>
<path d="M0 0 C10.23 0 20.46 0 31 0 C31 10.23 31 20.46 31 31 C20.77 31 10.54 31 0 31 C0 20.77 0 10.54 0 0 Z " fill="#00BCD4" transform="translate(374,107)"/>
<path d="M0 0 C10.23 0 20.46 0 31 0 C31 10.23 31 20.46 31 31 C20.77 31 10.54 31 0 31 C0 20.77 0 10.54 0 0 Z " fill="#4DD0E1" transform="translate(342,107)"/>
<path d="M0 0 C10.23 0 20.46 0 31 0 C31 10.23 31 20.46 31 31 C20.77 31 10.54 31 0 31 C0 20.77 0 10.54 0 0 Z " fill="#4DD0E1" transform="translate(374,75)"/>
<path d="M0 0 C1.3488873 0.00025096 2.69778106 0.00580724 4.04663086 0.01586914 C4.69506958 0.01711792 4.69506958 0.01711792 7.9765625 0.0234375 C8.807323 0.0279895 8.807323 0.0279895 13.01147461 0.05102539 C18.27084961 0.07165039 23.53022461 0.09227539 28.94897461 0.11352539 C28.94897461 10.67352539 28.94897461 21.23352539 28.94897461 32.11352539 C39.50897461 32.11352539 50.06897461 32.11352539 60.94897461 32.11352539 C60.94897461 53.23352539 60.94897461 74.35352539 60.94897461 96.11352539 C71.17897461 96.11352539 81.40897461 96.11352539 91.94897461 96.11352539 C99.49512889 103.65967967 92.94897461 117.44165166 92.94897461 128.11352539 C114.06897461 128.11352539 135.18897461 128.11352539 156.94897461 128.11352539 C156.94897461 138.67352539 156.94897461 149.23352539 156.94897461 160.11352539 C167.50897461 160.11352539 178.06897461 160.11352539 188.94897461 160.11352539 C188.95928711 162.74321289 188.95928711 162.74321289 189.01147461 176.05102539 C189.02057861 177.71254639 189.02968262 179.37406738 189.0390625 181.0859375 C189.04031128 181.73437622 189.04031128 181.73437622 189.04663086 185.01586914 C189.05174683 185.70169067 189.05686279 186.38751221 189.06213379 187.09411621 C189.06244515 188.7676777 189.01120298 190.44112119 188.94897461 192.11352539 C187.94897461 193.11352539 187.94897461 193.11352539 184.89794922 193.22705078 C183.54906192 193.22679983 182.20016816 193.22124355 180.85131836 193.21118164 C180.20287964 193.20993286 180.20287964 193.20993286 176.92138672 193.20361328 C176.09062622 193.19906128 176.09062622 193.19906128 171.88647461 193.17602539 C166.62709961 193.15540039 161.36772461 193.13477539 155.94897461 193.11352539 C155.94897461 182.55352539 155.94897461 171.99352539 155.94897461 161.11352539 C134.82897461 161.11352539 113.70897461 161.11352539 91.94897461 161.11352539 C91.94897461 150.55352539 91.94897461 139.99352539 91.94897461 129.11352539 C81.38897461 129.11352539 70.82897461 129.11352539 59.94897461 129.11352539 C59.94897461 118.55352539 59.94897461 107.99352539 59.94897461 97.11352539 C49.38897461 97.11352539 38.82897461 97.11352539 27.94897461 97.11352539 C27.94897461 75.99352539 27.94897461 54.87352539 27.94897461 33.11352539 C17.38897461 33.11352539 6.82897461 33.11352539 -4.05102539 33.11352539 C-4.07165039 27.85415039 -4.09227539 22.59477539 -4.11352539 17.17602539 C-4.12262939 15.51450439 -4.1317334 13.8529834 -4.14111328 12.14111328 C-4.14361084 10.84423584 -4.1461084 9.5473584 -4.14868164 8.21118164 C-4.15123962 7.86827087 -4.15123962 7.86827087 -4.16418457 6.13293457 C-4.16449593 4.45937308 -4.11325376 2.78592959 -4.05102539 1.11352539 C-3.05102539 0.11352539 -3.05102539 0.11352539 0 0 Z M-3.05102539 1.11352539 C-3.05102539 11.34352539 -3.05102539 21.57352539 -3.05102539 32.11352539 C7.17897461 32.11352539 17.40897461 32.11352539 27.94897461 32.11352539 C27.94897461 21.88352539 27.94897461 11.65352539 27.94897461 1.11352539 C17.71897461 1.11352539 7.48897461 1.11352539 -3.05102539 1.11352539 Z M28.94897461 33.11352539 C28.94897461 53.90352539 28.94897461 74.69352539 28.94897461 96.11352539 C39.17897461 96.11352539 49.40897461 96.11352539 59.94897461 96.11352539 C59.94897461 75.32352539 59.94897461 54.53352539 59.94897461 33.11352539 C49.71897461 33.11352539 39.48897461 33.11352539 28.94897461 33.11352539 Z M60.94897461 97.11352539 C60.94897461 107.34352539 60.94897461 117.57352539 60.94897461 128.11352539 C71.17897461 128.11352539 81.40897461 128.11352539 91.94897461 128.11352539 C91.94897461 117.88352539 91.94897461 107.65352539 91.94897461 97.11352539 C81.71897461 97.11352539 71.48897461 97.11352539 60.94897461 97.11352539 Z M92.94897461 129.11352539 C92.94897461 139.34352539 92.94897461 149.57352539 92.94897461 160.11352539 C113.73897461 160.11352539 134.52897461 160.11352539 155.94897461 160.11352539 C155.94897461 149.88352539 155.94897461 139.65352539 155.94897461 129.11352539 C135.15897461 129.11352539 114.36897461 129.11352539 92.94897461 129.11352539 Z M156.94897461 161.11352539 C156.94897461 171.34352539 156.94897461 181.57352539 156.94897461 192.11352539 C167.17897461 192.11352539 177.40897461 192.11352539 187.94897461 192.11352539 C187.94897461 181.88352539 187.94897461 171.65352539 187.94897461 161.11352539 C177.71897461 161.11352539 167.48897461 161.11352539 156.94897461 161.11352539 Z " fill="#0C6C5F" transform="translate(121.051025390625,201.886474609375)"/>
</svg>
