<?xml version="1.0" encoding="UTF-8"?>
<!-- Generator: visioncortex VTracer 0.6.12 -->
<svg version="1.1" xmlns="http://www.w3.org/2000/svg" width="512" height="512">
<path d="M0 0 C3.83595276 2.69962923 7.25522111 5.81436146 10.6875 9 C11.20691162 9.48001465 11.72632324 9.9600293 12.26147461 10.45458984 C14.34014773 12.37678941 16.41731481 14.29828951 18.4609375 16.2578125 C22.62176244 19.80973623 26.46398419 20.14751458 31.703125 19.94140625 C38.73980797 19.02264906 45.60258079 17.31876098 52.48828125 15.62890625 C62.97540948 13.08838976 73.54215216 11.60934005 83.5625 16.4375 C87.23741358 18.79825819 89.94911009 21.32408248 91.5625 25.4375 C93.70374552 41.46303227 85.85665014 52.92748359 77.5703125 65.7265625 C64.79935534 85.54522575 57.65227551 106.67052711 58.5625 130.4375 C59.02922119 130.14093506 59.49594238 129.84437012 59.97680664 129.53881836 C85.47242421 113.42434056 113.07013001 101.06529434 144.02880859 107.46362305 C150.54699942 109.08191524 156.69507896 111.57394017 162.8125 114.3125 C163.52841309 114.62767578 164.24432617 114.94285156 164.98193359 115.26757812 C169.64279799 117.50121206 172.0802181 119.73620852 174.5625 124.4375 C175.2260917 128.41905017 174.74451769 130.08694742 172.875 133.6875 C170.40007095 136.63065887 169.29031164 137.65726035 165.5625 138.4375 C160.54382454 138.00083336 156.79267852 136.82510272 152.3125 134.5625 C137.76776965 127.71016951 121.05804376 125.34992353 105.49902344 130.73876953 C104.8599707 130.96935059 104.22091797 131.19993164 103.5625 131.4375 C104.10962646 131.54707031 104.65675293 131.65664062 105.22045898 131.76953125 C128.12320079 136.47586892 146.70723626 144.62386639 162.5625 162.4375 C164.18351789 165.67953579 164.12157107 168.93355455 163.5625 172.4375 C161.67356625 175.68410489 160.27990788 177.80978213 156.66015625 179.1328125 C151.8296128 180.00435009 148.70270928 179.19763952 144.5625 176.4375 C142.85256566 174.8152546 141.18902316 173.14336575 139.5625 171.4375 C126.08004345 157.95504345 107.06546801 153.51640391 88.5625 153.4375 C86.55430999 153.71729277 84.54904005 154.0315816 82.5625 154.4375 C83.531875 154.89898437 84.50125 155.36046875 85.5 155.8359375 C137.36763021 180.90703496 181.02667957 225.36067117 200.48535156 280.03027344 C212.71730553 316.11936422 214.40896498 360.68657957 197.71313477 395.75561523 C196.08012355 399.03057821 194.33826419 402.23827754 192.5625 405.4375 C192.04171875 406.41203125 191.5209375 407.3865625 190.984375 408.390625 C183.18617379 421.86024527 171.00830732 431.9635758 157.5625 439.4375 C156.96276367 439.77974609 156.36302734 440.12199219 155.74511719 440.47460938 C86.54500258 479.48429852 -25.36234958 471.38980678 -101.4375 460.4375 C-102.43040039 460.29586426 -103.42330078 460.15422852 -104.44628906 460.00830078 C-136.555947 455.27706658 -169.09740119 446.01335739 -192.4375 422.4375 C-193.23800781 421.65890625 -194.03851563 420.8803125 -194.86328125 420.078125 C-217.19663522 397.08904215 -222.34345357 362.1263362 -222.4375 331.4375 C-221.52655577 294.80409191 -208.22888658 257.87426987 -186.4375 228.4375 C-185.50385934 227.14586724 -184.57026957 225.85419769 -183.63671875 224.5625 C-178.32461996 217.28697434 -172.83016617 210.38341389 -166.66015625 203.8125 C-164.71859523 201.73786186 -162.88505747 199.61578555 -161.0625 197.4375 C-142.66854596 176.37900122 -115.21248838 157.63476567 -88.4375 149.4375 C-87.4475 149.4375 -86.4575 149.4375 -85.4375 149.4375 C-88.13459353 116.46908041 -100.19851619 94.13382653 -123.8125 71.1875 C-130.21985589 64.86163671 -134.50647163 58.94262152 -134.8125 49.75 C-134.73700871 41.93665154 -132.00309919 38.06140826 -126.6875 32.625 C-113.50957971 23.75524596 -94.15040615 25.15461143 -78.91650391 24.95458984 C-70.9986558 24.77445386 -63.95976124 24.38192951 -57.69921875 19.1484375 C-55.64746397 16.68916665 -53.59795037 14.2294486 -51.59521484 11.72998047 C-37.63529824 -5.57423558 -20.0409958 -12.48040352 0 0 Z M-35.3125 26.3125 C-44.6121382 38.15974024 -54.82648359 44.28684751 -69.90234375 46.10546875 C-77.49637329 46.74749792 -85.13593261 46.90043137 -92.75195312 47.09667969 C-93.92822266 47.12793945 -95.10449219 47.15919922 -96.31640625 47.19140625 C-97.3741626 47.21533447 -98.43191895 47.2392627 -99.52172852 47.26391602 C-102.25344104 47.42654246 -104.77367765 47.82782776 -107.4375 48.4375 C-103.95389317 58.7059327 -92.66418055 68.94642338 -83.125 73.875 C-78.2564011 76.1510955 -73.82463744 76.96738237 -68.4375 76.4375 C-61.87935599 73.97969466 -57.58261456 69.70157102 -52.828125 64.72265625 C-45.66780013 57.87822806 -37.55614028 53.57139383 -27.625 53.0625 C-16.69166304 53.37677141 -9.919688 58.97968395 -2.4375 66.4375 C-2.05207031 66.82164063 -2.05207031 66.82164063 -0.1015625 68.765625 C1.2645092 70.13662837 2.62245857 71.51581787 3.96875 72.90625 C6.28942574 75.13591885 7.42475519 75.42372552 10.6875 75.75 C18.96708771 75.08229131 24.13506088 70.30757495 30.14428711 65.06567383 C34.69812798 61.10561491 39.42732052 57.4384149 44.25 53.8125 C61.3212014 40.9200972 61.3212014 40.9200972 63.5625 36.4375 C57.75525123 36.83375933 52.23942788 37.70451161 46.5625 39 C34.52677675 41.46074504 20.58578153 42.82482201 9.5625 36.4375 C2.86111327 31.6914754 -3.09843414 26.02187818 -9.05078125 20.3828125 C-12.73927787 17.37647647 -16.17897504 15.64344045 -20.875 14.875 C-27.75139078 15.96074591 -31.20542526 21.04243182 -35.3125 26.3125 Z M-43.375 85 C-52.71836443 93.51347907 -62.29868945 95.58505124 -74.4375 97.4375 C-71.75377431 105.62992579 -71.75377431 105.62992579 -70.23046875 109.51953125 C-65.26370879 122.40909863 -63.38956586 135.69719149 -62.4375 149.4375 C-42.49605613 156.41371469 -42.49605613 156.41371469 -33.4375 157.4375 C-32.36113281 157.57027344 -31.28476563 157.70304687 -30.17578125 157.83984375 C-7.85036507 159.98791082 15.48362408 155.47693796 35.5625 145.4375 C35.54678955 144.68355957 35.5310791 143.92961914 35.51489258 143.15283203 C35.17358218 124.23242681 35.5558047 106.91301602 41.890625 88.94140625 C42.5625 86.4375 42.5625 86.4375 41.5625 83.4375 C41.02882813 83.89640625 40.49515625 84.3553125 39.9453125 84.828125 C28.805061 94.00244977 17.75989218 96.43711231 3.5625 95.4375 C-6.67794249 93.26486558 -13.83119571 85.82554341 -20.1484375 77.8828125 C-22.16238425 75.62475099 -23.85284062 74.50434511 -26.86328125 74.16015625 C-33.45533359 74.87037737 -38.7491508 80.65053801 -43.375 85 Z M39.125 166.0625 C5.47862677 181.57520119 -32.70552971 181.14360344 -67.4375 169.4375 C-68.19546875 169.0559375 -68.9534375 168.674375 -69.734375 168.28125 C-73.47060319 166.43027457 -77.4906195 168.1289659 -81.21875 169.34375 C-114.40701228 181.50182628 -142.67308074 205.06274066 -163.4375 233.4375 C-163.82164062 233.96085937 -163.82164062 233.96085937 -165.765625 236.609375 C-180.38053647 257.1520128 -191.97120454 279.70336184 -197.4375 304.4375 C-197.59831055 305.13020996 -197.75912109 305.82291992 -197.92480469 306.53662109 C-204.3746936 335.13556151 -202.1144548 369.6552777 -187.38671875 395.46875 C-184.21992121 400.29192861 -180.53801912 404.39443123 -176.4375 408.4375 C-175.83550781 409.04980469 -175.23351562 409.66210938 -174.61328125 410.29296875 C-139.17714479 443.88427381 -74.45013821 443.58497286 -28.796875 443.60546875 C-27.05600968 443.6087004 -25.31514461 443.61206571 -23.57427979 443.61555481 C-19.94729995 443.62148675 -16.32034371 443.62340112 -12.69335938 443.62280273 C-9.04421995 443.6227219 -5.3952072 443.62960688 -1.74609375 443.64331055 C25.80238074 443.74506485 53.21222967 443.33658791 80.5625 439.625 C81.83955811 439.45468262 83.11661621 439.28436523 84.43237305 439.10888672 C115.10387343 434.83361705 148.54028793 427.00322887 169.5625 402.4375 C187.76806195 377.73519518 190.9058036 343.69497111 186.74023438 313.99951172 C186.14651545 310.44434187 185.40720529 306.9410316 184.5625 303.4375 C184.39621094 302.74043945 184.22992188 302.04337891 184.05859375 301.32519531 C173.94770724 260.48844814 145.59117016 222.78934014 112.5625 197.4375 C111.93907715 196.95410156 111.3156543 196.47070312 110.67333984 195.97265625 C59.11609415 156.31894151 59.11609415 156.31894151 39.125 166.0625 Z " fill="#000000" transform="translate(262.4375,16.5625)"/>
<path d="M0 0 C6.6 0 13.2 0 20 0 C20.33 6.93 20.66 13.86 21 21 C22.794375 21.53625 24.58875 22.0725 26.4375 22.625 C38.82455488 26.75888742 48.19639261 35.08288093 54.38671875 46.57421875 C57.38895677 52.89424533 59.32548625 59.2138127 61 66 C54.4 66 47.8 66 41 66 C40.319375 64.185 39.63875 62.37 38.9375 60.5 C35.4550235 52.20466272 31.18527007 46.45685382 22.89453125 42.69140625 C14.36216012 39.5775306 3.28105938 39.66735012 -5.14453125 43.09765625 C-11.54026551 46.20800281 -14.78981555 49.77147478 -18 56 C-20.08985698 62.26957095 -20.18082397 70.29634014 -17.5625 76.4375 C-10.61558365 87.74698498 6.08048807 90.37898257 17.94140625 93.65234375 C52.50968091 103.23226354 52.50968091 103.23226354 61.51171875 117.375 C67.89547868 129.08160846 68.61213155 142.27636808 65 155 C60.4050282 167.58534312 52.93123543 176.38182747 41 182.375 C40.33581055 182.70870605 39.67162109 183.04241211 38.98730469 183.38623047 C32.72451278 186.37913717 27.02471616 188 20 188 C20 193.94 20 199.88 20 206 C13.4 206 6.8 206 0 206 C0 200.06 0 194.12 0 188 C-1.36125 187.814375 -2.7225 187.62875 -4.125 187.4375 C-17.5303627 184.70326172 -29.19706255 176.80515879 -37.3125 165.875 C-43.05163518 156.54890534 -45.55484654 145.83206762 -46 135 C-39.4 135 -32.8 135 -26 135 C-25.62875 137.124375 -25.2575 139.24875 -24.875 141.4375 C-22.93813877 150.40679663 -19.1917771 156.96873114 -11.98828125 162.71875 C-1.43301021 169.52057495 10.06294996 170.08407258 22.0625 167.8125 C29.90946288 165.98605174 35.42606044 163.79386859 39.9375 156.9375 C44.10908613 149.79631019 44.41643844 140.42683642 42.3515625 132.515625 C38.55319906 124.13974665 31.63801082 120.58815609 23.45996094 117.26000977 C16.2446227 114.63240882 8.75799505 112.95308579 1.30859375 111.12695312 C-13.64437911 107.32339631 -29.30972003 102.39170884 -37.78125 88.5078125 C-43.89722 75.92302807 -43.16604184 62.05247787 -39 49 C-33.78878173 36.34700413 -24.09373698 28.64286085 -12 23 C-8.3256521 21.72233877 -4.8117154 20.82415468 -1 20 C-0.67 13.4 -0.34 6.8 0 0 Z " fill="#000000" transform="translate(240,225)"/>
</svg>
