<?xml version="1.0" encoding="UTF-8"?>
<!-- Generator: visioncortex VTracer 0.6.12 -->
<svg version="1.1" xmlns="http://www.w3.org/2000/svg" width="512" height="512">
<path d="M0 0 C0.99402832 0.20931152 1.98805664 0.41862305 3.01220703 0.63427734 C36.60966462 7.85453705 68.245688 20.47071269 96 41 C96.29543701 41.21696533 96.29543701 41.21696533 97.79052734 42.31494141 C105.0530552 47.69556598 111.82611247 53.52647112 118.4375 59.6875 C119.08783203 60.29303711 119.73816406 60.89857422 120.40820312 61.52246094 C145.27094484 85.09479314 163.51216634 116.59727296 172.25 149.625 C172.49637207 150.55449463 172.74274414 151.48398926 172.99658203 152.44165039 C176.10114197 164.67859416 177.39144396 176.56636979 177.375 189.1875 C177.37478851 189.86431824 177.37457703 190.54113647 177.37435913 191.23846436 C177.32432063 207.33663161 174.54537464 221.22012178 168 236 C167.57074219 236.99257813 167.14148438 237.98515625 166.69921875 239.0078125 C154.38608304 265.57643772 129.46949219 284.58064464 102.55078125 294.72265625 C89.07321096 299.54860349 75.32336011 302.36779652 61 303 C60.54818359 303.020625 60.54818359 303.020625 58.26171875 303.125 C32.76569788 303.68922729 1.62232075 297.86376518 -17.4765625 279.8125 C-20.93103193 275.70256714 -22.10937695 271.2295285 -22.375 265.9375 C-21.6253499 258.066174 -18.02883202 252.95311122 -12.5 247.5625 C-4.93486838 239.80824009 -2.88023809 231.24183494 -2.5625 220.625 C-2.86889817 208.04990845 -6.70337044 197.02357481 -15.87890625 188.19140625 C-27.45741656 178.81164335 -41.64302305 177.29294385 -55.97265625 178.52734375 C-66.13876505 179.60181053 -75.7778955 183.17920576 -82.8125 190.8125 C-93.56716174 204.15026756 -94.43032206 220.79213416 -92.77294922 237.25537109 C-90.10384218 257.80325859 -80.48698574 272.92752919 -67 288 C-66.37738281 288.70769531 -65.75476563 289.41539062 -65.11328125 290.14453125 C-39.42582071 317.5637307 0.39069073 334.26366855 37.52075195 336.12646484 C66.52223029 337.00521272 93.22575413 330.98236738 119.296875 318.41015625 C125.8062921 315.42805019 130.97645023 313.8005839 138 316 C141.918247 317.87040847 144.36870676 320.14469949 146.9375 323.625 C148.8186312 329.60035794 149.22668513 334.89670183 146.88671875 340.81640625 C141.83141638 350.03637459 134.79924867 358.03485452 128 366 C127.236875 366.89589844 126.47375 367.79179687 125.6875 368.71484375 C123.5081665 371.19548662 121.27316866 373.60492639 119 376 C118.48276367 376.54978516 117.96552734 377.09957031 117.43261719 377.66601562 C108.05282332 387.57252508 98.09333661 396.07238774 87 404 C86.3925293 404.44150391 85.78505859 404.88300781 85.15917969 405.33789062 C51.79843208 429.42868008 8.20116958 444.83991857 -33.1171875 445.23828125 C-33.96363327 445.24812042 -34.81007904 445.25795959 -35.68217468 445.26809692 C-64.40262083 445.5328529 -90.48675819 442.82793924 -118 434 C-118.37374756 433.88027832 -118.37374756 433.88027832 -120.26513672 433.27441406 C-148.97231091 423.82196818 -175.44758425 407.83612288 -197.51953125 387.29296875 C-199.63509748 385.33731934 -201.79243291 383.47434119 -204 381.625 C-244.9746332 345.72025042 -267.84751266 288.95081169 -271.60717773 235.59106445 C-274.74014933 181.4950883 -258.93303658 126.53748514 -225 84 C-224.236875 83.03320312 -223.47375 82.06640625 -222.6875 81.0703125 C-218.85965864 76.2984427 -214.94835835 71.78706262 -210.54296875 67.54296875 C-209 66 -209 66 -206.5625 63 C-203.34729598 59.23585871 -199.77041568 56.19318592 -196 53 C-195.54238281 52.59265625 -195.54238281 52.59265625 -193.2265625 50.53125 C-163.54523943 24.32719666 -126.4905665 7.94150215 -88 0 C-87.15824219 -0.18079102 -86.31648437 -0.36158203 -85.44921875 -0.54785156 C-58.86839427 -6.01845496 -26.50165612 -5.72776095 0 0 Z " fill="#96DFBA" transform="translate(303,35)"/>
<path d="M0 0 C2.046875 -0.125 2.046875 -0.125 5.546875 0.25 C5.87300781 0.57742187 5.87300781 0.57742187 7.5234375 2.234375 C12.21397254 5.36139836 16.90520659 4.84160514 22.421875 4.875 C24.68241235 4.92731371 26.94284048 4.98458755 29.203125 5.046875 C29.74904297 5.06137695 29.74904297 5.06137695 32.51171875 5.13476562 C63.28444417 6.30309947 94.49393785 20.06354374 115.859375 42.2578125 C118.76915885 45.69297399 121.20227536 49.41338241 123.546875 53.25 C122.76828125 53.105625 121.9896875 52.96125 121.1875 52.8125 C100.62971189 49.40199137 79.66577271 49.72217957 61.546875 61.25 C57.80805997 64.17337614 54.34687845 67.30698257 51.12109375 70.7890625 C49.06895294 72.69353065 46.82190408 73.99816632 44.421875 75.4375 C29.37641196 84.94718163 19.53988617 98.56771208 11.546875 114.25 C11.20914063 114.91064453 10.87140625 115.57128906 10.5234375 116.25195312 C4.27015493 128.74676397 0.55309998 141.63730522 -2.453125 155.25 C-2.5871875 155.848125 -2.5871875 155.848125 -3.265625 158.875 C-7.72171626 183.63106257 -5.04539264 211.40541333 3.046875 235.0625 C3.19519775 235.50178833 3.19519775 235.50178833 3.94580078 237.72485352 C4.23696777 238.54397217 4.52813477 239.36309082 4.828125 240.20703125 C5.08658203 240.93897705 5.34503906 241.67092285 5.61132812 242.42504883 C6.546875 244.25 6.546875 244.25 9.546875 246.25 C12.9572726 246.46314985 15.29219299 246.334894 18.546875 245.25 C20.23209517 237.73132541 18.64200657 233.03368675 15.890625 225.93359375 C7.8107769 203.78447528 8.12137227 176.00437135 13.546875 153.25 C13.8253125 152.00605469 14.10375 150.76210938 14.390625 149.48046875 C17.52466812 136.57955848 22.39703016 124.42041222 29.171875 113 C29.53176514 112.39220703 29.89165527 111.78441406 30.26245117 111.15820312 C32.64802751 107.29961342 35.25777722 104.3198246 38.546875 101.25 C38.55098389 102.02375977 38.55509277 102.79751953 38.55932617 103.59472656 C38.90459306 140.88355025 48.54665873 168.54710201 75.546875 195.25 C79.08803228 198.42588031 82.77123154 201.35902614 86.546875 204.25 C87.48144531 204.98863281 88.41601562 205.72726562 89.37890625 206.48828125 C124.39397869 233.62847796 168.56072308 246.59672335 212.6875 241.6328125 C233.43211428 238.86785083 253.80972614 233.1363569 272.6340332 223.95629883 C274.58268109 223.00698949 276.56215963 222.12139068 278.546875 221.25 C279.206875 221.58 279.866875 221.91 280.546875 222.25 C273.76132069 232.22451885 266.86406997 241.49351656 258.546875 250.25 C257.43648138 251.55723613 256.33187682 252.86942184 255.234375 254.1875 C242.38904083 268.85507926 226.29410813 280.6770677 209.37939453 290.21630859 C208.17306625 290.89677674 206.97076361 291.58443956 205.77294922 292.27978516 C194.86420771 298.60364945 183.39723482 303.00894308 171.546875 307.25 C170.85561523 307.50410645 170.16435547 307.75821289 169.45214844 308.02001953 C155.76337067 313.04762321 141.15796402 316.62039884 126.546875 317.25 C126.04607422 317.30478516 126.04607422 317.30478516 123.51171875 317.58203125 C100.52459898 319.16827694 73.83386779 302.19811748 56.8203125 287.78759766 C50.5318006 282.30806192 44.63851603 276.54707453 39.23046875 270.1875 C34.19680755 264.39470196 34.19680755 264.39470196 31.4765625 263.7890625 C25.76909722 264.02777778 25.76909722 264.02777778 23.546875 266.25 C22.88631567 270.43354245 22.71590369 272.85147768 24.90234375 276.53125 C26.70370799 278.85353856 28.59133288 281.05646087 30.546875 283.25 C31.04832031 283.87003906 31.54976562 284.49007813 32.06640625 285.12890625 C38.04096596 292.4860087 45.61145558 298.21736781 53.109375 303.9375 C53.46741211 304.2149707 53.46741211 304.2149707 55.27929688 305.61914062 C59.54351497 308.88229569 63.82154299 311.69794815 68.546875 314.25 C65.30521378 315.33055374 64.27823844 315.18157113 61.0390625 314.46484375 C60.14348633 314.26721436 59.24791016 314.06958496 58.32519531 313.8659668 C57.36709961 313.64207275 56.40900391 313.41817871 55.421875 313.1875 C54.4328418 312.95780518 53.44380859 312.72811035 52.42480469 312.49145508 C25.00347916 305.91484966 -1.04774781 293.32210731 -23.453125 276.25 C-24.33226562 275.58355469 -25.21140625 274.91710937 -26.1171875 274.23046875 C-55.93511504 250.99141729 -78.26083401 221.21192625 -92.453125 186.25 C-92.71577148 185.62480469 -92.97841797 184.99960937 -93.24902344 184.35546875 C-107.72561209 149.78344244 -110.37557122 108.82560356 -103.453125 72.25 C-103.30931396 71.38205811 -103.16550293 70.51411621 -103.01733398 69.61987305 C-101.65765102 61.88227377 -98.81394746 57.97346633 -93.453125 52.25 C-93.18371094 51.96012207 -93.18371094 51.96012207 -91.8203125 50.49316406 C-83.72037862 41.85353195 -75.58457103 34.46395356 -65.453125 28.25 C-64.37933594 27.57710937 -63.30554688 26.90421875 -62.19921875 26.2109375 C-50.5880381 19.24153822 -38.09098641 13.68032299 -25.015625 10.125 C-19.69923567 8.63454792 -19.69923567 8.63454792 -17.453125 5.125 C-15.453125 2.25 -15.453125 2.25 -12.625 1.421875 C-8.42403374 0.7504877 -4.2276544 0.43084376 0 0 Z " fill="#ABE2FE" transform="translate(154.453125,145.75)"/>
<path d="M0 0 C0.99402832 0.20931152 1.98805664 0.41862305 3.01220703 0.63427734 C36.60966462 7.85453705 68.245688 20.47071269 96 41 C96.29543701 41.21696533 96.29543701 41.21696533 97.79052734 42.31494141 C105.0530552 47.69556598 111.82611247 53.52647112 118.4375 59.6875 C119.08783203 60.29303711 119.73816406 60.89857422 120.40820312 61.52246094 C145.27094484 85.09479314 163.51216634 116.59727296 172.25 149.625 C172.49637207 150.55449463 172.74274414 151.48398926 172.99658203 152.44165039 C176.10114197 164.67859416 177.39144396 176.56636979 177.375 189.1875 C177.37478851 189.86431824 177.37457703 190.54113647 177.37435913 191.23846436 C177.32432063 207.33663161 174.54537464 221.22012178 168 236 C167.57074219 236.99257813 167.14148438 237.98515625 166.69921875 239.0078125 C154.38608304 265.57643772 129.46949219 284.58064464 102.55078125 294.72265625 C89.07321096 299.54860349 75.32336011 302.36779652 61 303 C60.54818359 303.020625 60.54818359 303.020625 58.26171875 303.125 C32.76569788 303.68922729 1.62232075 297.86376518 -17.4765625 279.8125 C-20.93103193 275.70256714 -22.10937695 271.2295285 -22.375 265.9375 C-21.6253499 258.066174 -18.02883202 252.95311122 -12.5 247.5625 C-4.93486838 239.80824009 -2.88023809 231.24183494 -2.5625 220.625 C-2.86889817 208.04990845 -6.70337044 197.02357481 -15.87890625 188.19140625 C-27.45741656 178.81164335 -41.64302305 177.29294385 -55.97265625 178.52734375 C-66.13876505 179.60181053 -75.7778955 183.17920576 -82.8125 190.8125 C-93.56716174 204.15026756 -94.43032206 220.79213416 -92.77294922 237.25537109 C-90.10384218 257.80325859 -80.48698574 272.92752919 -67 288 C-66.37738281 288.70769531 -65.75476563 289.41539062 -65.11328125 290.14453125 C-39.42582071 317.5637307 0.39069073 334.26366855 37.52075195 336.12646484 C66.52223029 337.00521272 93.22575413 330.98236738 119.296875 318.41015625 C125.8062921 315.42805019 130.97645023 313.8005839 138 316 C141.918247 317.87040847 144.36870676 320.14469949 146.9375 323.625 C148.8186312 329.60035794 149.22668513 334.89670183 146.88671875 340.81640625 C141.83141638 350.03637459 134.79924867 358.03485452 128 366 C127.236875 366.89589844 126.47375 367.79179687 125.6875 368.71484375 C123.5081665 371.19548662 121.27316866 373.60492639 119 376 C118.48276367 376.54978516 117.96552734 377.09957031 117.43261719 377.66601562 C108.05282332 387.57252508 98.09333661 396.07238774 87 404 C86.3925293 404.44150391 85.78505859 404.88300781 85.15917969 405.33789062 C51.79843208 429.42868008 8.20116958 444.83991857 -33.1171875 445.23828125 C-33.96363327 445.24812042 -34.81007904 445.25795959 -35.68217468 445.26809692 C-64.40262083 445.5328529 -90.48675819 442.82793924 -118 434 C-118.37374756 433.88027832 -118.37374756 433.88027832 -120.26513672 433.27441406 C-148.97231091 423.82196818 -175.44758425 407.83612288 -197.51953125 387.29296875 C-199.63509748 385.33731934 -201.79243291 383.47434119 -204 381.625 C-244.9746332 345.72025042 -267.84751266 288.95081169 -271.60717773 235.59106445 C-274.74014933 181.4950883 -258.93303658 126.53748514 -225 84 C-224.236875 83.03320312 -223.47375 82.06640625 -222.6875 81.0703125 C-218.85965864 76.2984427 -214.94835835 71.78706262 -210.54296875 67.54296875 C-209 66 -209 66 -206.5625 63 C-203.34729598 59.23585871 -199.77041568 56.19318592 -196 53 C-195.54238281 52.59265625 -195.54238281 52.59265625 -193.2265625 50.53125 C-163.54523943 24.32719666 -126.4905665 7.94150215 -88 0 C-87.15824219 -0.18079102 -86.31648437 -0.36158203 -85.44921875 -0.54785156 C-58.86839427 -6.01845496 -26.50165612 -5.72776095 0 0 Z M-136 33 C-136.80099121 33.37995117 -137.60198242 33.75990234 -138.42724609 34.15136719 C-157.48610813 43.32167318 -174.56613889 55.57984999 -190 70 C-190.56799316 70.52948242 -191.13598633 71.05896484 -191.72119141 71.60449219 C-199.48512348 78.92140325 -206.3450867 86.71077909 -212.70898438 95.26904297 C-213.95065637 96.93384146 -215.21564829 98.57843871 -216.484375 100.22265625 C-224.51772363 110.84236682 -232.77778235 123.33334704 -237 136 C-233.77183229 134.52595082 -231.17593937 132.66961652 -228.375 130.5 C-213.78464995 119.80040996 -189.90550467 104.90672435 -171.21875 106.27734375 C-168 107 -168 107 -166 109 C-165.36160714 114.74553571 -165.36160714 114.74553571 -166 117 C-169.87435071 120.05002077 -174.47642015 121.20793454 -179.125 122.625 C-193.7804333 127.32306663 -207.6182921 133.80639653 -220 143 C-220.79921875 143.5775 -221.5984375 144.155 -222.421875 144.75 C-227.95047252 148.94161642 -232.88948428 153.68959131 -237.8125 158.5625 C-238.12981079 158.87513794 -238.12981079 158.87513794 -239.7355957 160.45727539 C-248.0761909 168.855217 -251.10032365 175.19826069 -253 187 C-253.20625 188.19882813 -253.4125 189.39765625 -253.625 190.6328125 C-257.57225696 217.77020412 -255.2752745 245.44376587 -249 272 C-248.88785156 272.48984375 -248.88785156 272.48984375 -248.3203125 274.96875 C-239.68301893 309.51792429 -220.79008181 340.04634432 -196.36523438 365.57177734 C-195.14565415 366.84762576 -193.9390991 368.13589562 -192.734375 369.42578125 C-186.40338758 376.02642184 -179.28969354 381.51456942 -172 387 C-171.71825928 387.21479004 -171.71825928 387.21479004 -170.29248047 388.30175781 C-146.83343871 406.10677987 -119.6050457 417.8570101 -91 424.4375 C-90.23993652 424.61385986 -89.47987305 424.79021973 -88.69677734 424.97192383 C-85.31128896 425.70424578 -83.34533792 426.11511264 -80 425 C-80.32162109 424.80535156 -80.32162109 424.80535156 -81.94921875 423.8203125 C-96.03106332 415.10202357 -109.49904159 404.89819953 -120 392 C-120.50917969 391.41347656 -121.01835937 390.82695312 -121.54296875 390.22265625 C-124.10029372 387.06360776 -125.31878875 384.80529636 -125.4375 380.6875 C-125 377 -125 377 -123 375 C-117.46510152 374.36484772 -117.46510152 374.36484772 -115 375 C-112.5625 377.16796875 -112.5625 377.16796875 -110 380 C-109.16082031 380.92296875 -108.32164062 381.8459375 -107.45703125 382.796875 C-106.58433594 383.77140625 -105.71164063 384.7459375 -104.8125 385.75 C-87.0203477 405.24718371 -59.07256269 424.96978753 -32.22265625 428.49609375 C-28.7514316 428.56247262 -25.45067385 428.3741215 -22 428 C-20.78957031 427.87882812 -19.57914063 427.75765625 -18.33203125 427.6328125 C-14.53183165 427.183877 -10.76720915 426.66484741 -7 426 C-5.90703613 425.80825195 -4.81407227 425.61650391 -3.68798828 425.41894531 C5.23351813 423.75273469 13.67540033 421.39786023 22.25 418.375 C22.87452057 418.1565744 23.49904114 417.9381488 24.14248657 417.71310425 C47.11385552 409.65095832 68.20854391 398.57331263 87 383 C87.58797363 382.51354004 88.17594727 382.02708008 88.78173828 381.52587891 C105.7117059 367.43323602 120.15166145 351.63945942 132 333 C131.34 332.67 130.68 332.34 130 332 C127.1462562 333.25293822 124.36205062 334.57224192 121.5625 335.9375 C80.76557976 354.94664342 32.35330032 359.58622564 -10.38964844 344.13623047 C-31.81518331 335.96195139 -52.13082379 324.81741642 -68.8828125 308.99609375 C-70.83918016 307.15162166 -72.86073386 305.45561717 -74.9375 303.75 C-87.70323716 292.55424261 -98.65828115 277.11789471 -104 261 C-104.22171875 260.33919434 -104.4434375 259.67838867 -104.671875 258.99755859 C-109.67495461 243.5331785 -109.91436893 228.12550526 -110 212 C-113.8163017 215.56188159 -116.70893856 219.24669523 -119.375 223.75 C-119.76075195 224.40121826 -120.14650391 225.05243652 -120.54394531 225.72338867 C-137.51621109 255.20061245 -143.84047865 293.90494222 -135.1875 327 C-135.10097168 327.33539795 -135.10097168 327.33539795 -134.66308594 329.03271484 C-133.28962808 334.23576917 -131.61315181 339.30776938 -129.734375 344.3515625 C-128.5762621 348.52816116 -128.63301477 351.89904432 -130 356 C-131.41154099 356.27748242 -132.82979799 356.52093516 -134.25 356.75 C-134.64445312 356.81960938 -134.64445312 356.81960938 -136.640625 357.171875 C-139 357 -139 357 -141.10546875 355.53515625 C-143.64561843 352.13606935 -144.7996847 348.71016072 -146.0625 344.6875 C-146.31926514 343.88932861 -146.57603027 343.09115723 -146.84057617 342.26879883 C-154.86259707 316.63858219 -155.90299725 287.21488543 -150 261 C-149.83371094 260.25492188 -149.66742188 259.50984375 -149.49609375 258.7421875 C-146.73997325 246.86024578 -142.34062189 235.94223096 -137 225 C-136.4946875 223.95972656 -135.989375 222.91945313 -135.46875 221.84765625 C-131.75165441 214.65094617 -127.00939939 208.34402039 -122 202 C-121.76023437 201.67644531 -121.76023437 201.67644531 -120.546875 200.0390625 C-117.38870872 195.9867166 -113.53934423 192.89108288 -109.5 189.75 C-108.95375977 189.32509277 -108.40751953 188.90018555 -107.84472656 188.46240234 C-105.2230458 186.48236417 -102.67960776 184.84057037 -99.734375 183.375 C-96.80025035 181.89955446 -95.51458821 180.2351425 -93.53125 177.6796875 C-84.31326912 167.56812684 -69.96006826 162.72764879 -56.63916016 161.84326172 C-45.929179 161.42609862 -35.54712669 162.04424141 -25 164 C-40.19765781 138.89082622 -68.32007753 125.91642544 -95.55078125 118.28515625 C-103.34264561 116.38908979 -111.37450042 115.97841502 -119.3671875 115.859375 C-120.43710938 115.84003906 -121.50703125 115.82070312 -122.609375 115.80078125 C-124.80970532 115.76656559 -127.01034267 115.74867056 -129.2109375 115.74609375 C-137.21009489 115.56164716 -137.21009489 115.56164716 -141.2578125 112.68359375 C-143 110 -143 110 -143 106.3125 C-142 103 -142 103 -139 101 C-134.28768534 100.5443615 -129.54456802 100.66309049 -124.8125 100.6875 C-124.13149231 100.68865814 -123.45048462 100.68981628 -122.74884033 100.69100952 C-112.47928403 100.72573573 -102.95295585 101.41247218 -93 104 C-92.02675781 104.20496094 -91.05351562 104.40992188 -90.05078125 104.62109375 C-57.65984891 111.73560958 -28.47281983 130.00649197 -10.3125 157.9375 C-5.12727195 166.08984931 -0.94885081 174.66847901 2.8671875 183.53515625 C4.03345604 186.07279573 5.31980671 188.53320709 6.62109375 191.00366211 C14.89584138 206.90293731 16.58363274 222.99895293 11.19458008 240.09619141 C8.09731303 249.13279893 3.79772994 255.84690355 -3.4609375 262.11328125 C-5.42859186 264.52540576 -5.30269457 265.96783545 -5 269 C4.61812717 274.92115954 14.20620572 279.62128755 25 283 C26.08667969 283.34160156 27.17335938 283.68320312 28.29296875 284.03515625 C47.12479809 288.78174864 69.53499176 287.97046622 88 282 C88.7734375 281.75862305 89.546875 281.51724609 90.34375 281.26855469 C116.38487895 272.97420472 137.76289257 257.28696749 151 233 C152.86434967 229.06361404 154.48693764 225.08295835 156 221 C156.29648437 220.24332031 156.59296875 219.48664063 156.8984375 218.70703125 C168.20665143 187.97332112 158.31253675 152.49321429 145.19140625 124.03515625 C136.83071736 106.41043968 125.2992315 91.20984767 112 77 C111.12859375 76.06285156 110.2571875 75.12570313 109.359375 74.16015625 C84.51145303 48.04408567 51.275158 30.97787933 17 21 C16.12698242 20.74492676 15.25396484 20.48985352 14.35449219 20.22705078 C-35.17787135 6.17928548 -89.69076781 10.82942076 -136 33 Z " fill="#8D6C9F" transform="translate(303,35)"/>
<path d="M0 0 C0.33 0 0.66 0 1 0 C1.00410889 0.77375977 1.00821777 1.54751953 1.01245117 2.34472656 C1.35771806 39.63355025 10.99978373 67.29710201 38 94 C41.54115728 97.17588031 45.22435654 100.10902614 49 103 C49.46728516 103.36931641 49.46728516 103.36931641 51.83203125 105.23828125 C86.84710369 132.37847796 131.01384808 145.34672335 175.140625 140.3828125 C195.88523928 137.61785083 216.26285114 131.8863569 235.0871582 122.70629883 C237.03580609 121.75698949 239.01528463 120.87139068 241 120 C241.66 120.33 242.32 120.66 243 121 C236.21444569 130.97451885 229.31719497 140.24351656 221 149 C219.88960638 150.30723613 218.78500182 151.61942184 217.6875 152.9375 C204.84216583 167.60507926 188.74723313 179.4270677 171.83251953 188.96630859 C170.62619125 189.64677674 169.42388861 190.33443956 168.22607422 191.02978516 C157.31733271 197.35364945 145.85035982 201.75894308 134 206 C133.30874023 206.25410645 132.61748047 206.50821289 131.90527344 206.77001953 C118.21649567 211.79762321 103.61108902 215.37039884 89 216 C87.99839844 216.10957031 86.99679687 216.21914063 85.96484375 216.33203125 C62.97772398 217.91827694 36.28699279 200.94811748 19.2734375 186.53759766 C12.9849256 181.05806192 7.09164103 175.29707453 1.68359375 168.9375 C-3.37087815 163.12075275 -3.37087815 163.12075275 -6.03515625 162.609375 C-6.70417969 162.65578125 -7.37320313 162.7021875 -8.0625 162.75 C-10.37185092 162.89662546 -12.68599899 163 -15 163 C-16.20216334 160.58967749 -17.38674978 158.17316521 -18.5625 155.75 C-18.73362305 155.40904297 -18.73362305 155.40904297 -19.59960938 153.68359375 C-21.38030356 149.97831091 -22.3058334 147.92128522 -21 144 C-20.34 144 -19.68 144 -19 144 C-17.31477983 136.48132541 -18.90486843 131.78368675 -21.65625 124.68359375 C-29.7360981 102.53447528 -29.42550273 74.75437135 -24 52 C-23.7215625 50.75605469 -23.443125 49.51210938 -23.15625 48.23046875 C-18.97015236 30.99890301 -11.68564286 13.5441438 0 0 Z " fill="#7BBDEA" transform="translate(192,247)"/>
<path d="M0 0 C23.61649819 8.29768855 44.59574726 23.46722509 62.56787109 40.63525391 C63.94699053 41.94948467 65.34235213 43.24660661 66.73828125 44.54296875 C79.00471088 56.27684716 88.87156834 70.14124246 97 85 C97.17184814 85.3108252 97.17184814 85.3108252 98.04150391 86.88378906 C105.86955227 101.21745622 111.83981906 116.95429256 115 133 C115.20367187 134.02222656 115.40734375 135.04445312 115.6171875 136.09765625 C120.12719338 162.50899204 116.21793205 189.59495426 101 212 C92.00128632 224.37963457 81.33032582 233.5530707 68 241 C67.06800781 241.53367187 66.13601563 242.06734375 65.17578125 242.6171875 C59.14248308 245.86523924 52.94386682 248.16546066 46.4375 250.25 C45.67034668 250.49637207 44.90319336 250.74274414 44.11279297 250.99658203 C33.229995 254.33360442 22.80914152 255.39017664 11.4375 255.375 C10.7793631 255.37478851 10.1212262 255.37457703 9.44314575 255.37435913 C-1.56222052 255.33915877 -11.51918499 254.31946893 -22 251 C-23.14855469 250.63777344 -24.29710937 250.27554688 -25.48046875 249.90234375 C-33.88228373 246.94113058 -41.40633775 242.58807479 -49 238 C-49.21233926 235.24430826 -49.33651236 233.542095 -47.85546875 231.15625 C-40.04074219 223.39642785 -30.75978201 219.8683767 -19.875 219.8125 C-18.63492187 219.79832031 -17.39484375 219.78414062 -16.1171875 219.76953125 C-13.03956763 219.84712147 -10.22598073 220.32842313 -7.22265625 220.99609375 C-1.64120823 222.19067275 3.74620355 222.29568265 9.4375 222.25 C9.91735352 222.25386719 9.91735352 222.25386719 12.34570312 222.2734375 C27.63451086 222.23225553 43.04076775 218.25316959 56 210 C54.80957905 207.4582904 53.77525973 205.7488197 51.875 203.625 C50 201 50 201 49.4375 198 C50.21405544 193.85837101 51.57215214 192.40678679 55 190 C58.8167381 189.71727866 60.96214988 190.13617323 63.93359375 192.609375 C65.16073185 193.84416677 66.35819394 195.10937905 67.51953125 196.40625 C69 198 69 198 71 199 C71.13341797 198.72220703 71.13341797 198.72220703 71.80859375 197.31640625 C73.57633549 193.87945263 75.63626348 190.63052515 77.66015625 187.33984375 C79 185 79 185 80 182 C79.32453125 181.76925781 78.6490625 181.53851563 77.953125 181.30078125 C68.33686536 177.78501002 68.33686536 177.78501002 66 173 C66 169.25736453 66.01757213 166.9891415 68.71484375 164.2734375 C71.63347681 162.64698557 73.27437293 162.83842491 76.5625 163.25 C77.03751953 163.30414063 77.03751953 163.30414063 79.44140625 163.578125 C82 164 82 164 85 165 C84.67 158.4 84.34 151.8 84 145 C82.68 145.33 81.36 145.66 80 146 C76.93327844 146.37794104 74.05848339 146.48734076 71 146 C68.375 143.9375 68.375 143.9375 67 141 C67.05939002 137.55537906 67.14545346 135.12620794 69.265625 132.33203125 C71.4559146 130.64984938 72.95318782 130.51063856 75.6875 130.3125 C76.49574219 130.24675781 77.30398438 130.18101562 78.13671875 130.11328125 C78.75160156 130.07589844 79.36648438 130.03851563 80 130 C79.37768356 127.9366887 78.75203215 125.8743831 78.125 123.8125 C77.77695312 122.66394531 77.42890625 121.51539063 77.0703125 120.33203125 C76.15781129 117.49128843 75.15019636 114.75114535 74 112 C71.71194554 112.50845655 69.8061897 113.09428609 67.6875 114.125 C64.06824539 115.30336197 61.6613732 114.9492449 58 114 C55.44921042 111.77834456 55.06667329 110.39170557 54.5 107.0625 C55.17541943 102.92555599 56.80174309 101.62967791 60 99 C61.63377642 97.94712186 63.29181597 96.9272999 65 96 C63.55797524 91.84848662 61.4989562 88.70021555 58.875 85.1875 C58.15054688 84.21167969 57.42609375 83.23585938 56.6796875 82.23046875 C56.12539063 81.49441406 55.57109375 80.75835937 55 80 C54.50371094 80.42152344 54.00742187 80.84304687 53.49609375 81.27734375 C49.15739861 84.77629144 45.82874224 87.32992881 40 87 C36.38987642 84.54204352 35.22760814 82.92794088 34.1875 78.6875 C35.38784476 73.23978149 38.86893172 70.55013681 43 67 C36.42387739 60.20467331 29.4368419 53.97382751 21.8125 48.375 C10.94801021 40.2891521 2.34674202 30.66966585 0.19921875 16.69921875 C-0.21146847 11.13480962 -0.14457305 5.57409411 0 0 Z " fill="#72C9AE" transform="translate(347,66)"/>
<path d="M0 0 C3.0766616 2.12999649 3.85763576 3.25654231 4.5625 6.9375 C3.81579125 11.00291432 2.2258564 12.65940981 -1 15 C-13.65512686 23.51542969 -13.65512686 23.51542969 -21 23 C-24.48304057 20.60540961 -25.7607855 19.14822958 -26.625 15 C-25.7093231 10.6047509 -22.97741944 8.43343417 -19.39013672 5.83300781 C-17.6639159 4.70606561 -15.9087838 3.65812424 -14.125 2.625 C-13.53847656 2.25761719 -12.95195312 1.89023438 -12.34765625 1.51171875 C-7.86681148 -1.09800403 -4.97583137 -1.29092824 0 0 Z " fill="#8C6E9F" transform="translate(428,158)"/>
<path d="M0 0 C3.79011464 1.48631947 5.18277237 2.72167937 7.1875 6.25 C7.6875 8.75 7.6875 8.75 7.1875 11.25 C4.43635012 15.11182292 1.31446745 17.98090636 -2.375 20.9375 C-3.32503906 21.70449219 -4.27507812 22.47148437 -5.25390625 23.26171875 C-10.40490625 27.26455692 -10.40490625 27.26455692 -14.3125 27.125 C-17.8125 26.25 -17.8125 26.25 -19.75 24.625 C-21.35000708 21.04851358 -21.52737696 19.14932888 -20.8125 15.25 C-18.50787343 12.15277699 -15.74199734 9.7463989 -12.8125 7.25 C-12.05710937 6.55777344 -11.30171875 5.86554688 -10.5234375 5.15234375 C-6.88646467 2.00904936 -4.889616 0.32063056 0 0 Z " fill="#8C6E9F" transform="translate(402.8125,125.75)"/>
<path d="M0 0 C9.37943516 2.9481477 9.37943516 2.9481477 11.71875 6.13671875 C12.46875 12.88671875 12.46875 12.88671875 10.21875 16.63671875 C6.56563184 18.82858965 3.79226316 18.84093265 -0.28125 18.13671875 C-2.90052943 17.46468491 -5.45497056 16.75583847 -8.03125 15.94921875 C-8.68134033 15.75336182 -9.33143066 15.55750488 -10.0012207 15.35571289 C-14.43867247 13.85974291 -16.85017033 12.14554458 -19.28125 8.13671875 C-19.28125 4.51171875 -19.28125 4.51171875 -18.28125 1.13671875 C-13.11273378 -3.92796567 -6.38859949 -1.6808101 0 0 Z " fill="#8C6E9F" transform="translate(432.28125,230.86328125)"/>
<path d="M0 0 C5.05990094 1.39709778 7.57448186 3.9527902 11.15234375 7.66796875 C11.78011719 8.27253906 12.40789062 8.87710937 13.0546875 9.5 C16.96242157 13.45837425 18.79143643 16.23678474 18.77734375 22.04296875 C16.8440241 25.74849807 15.42413661 26.79420227 11.52734375 28.29296875 C4.91799373 27.85234542 1.77904845 23.21918104 -2.5078125 18.55859375 C-8.11231065 12.03483929 -8.11231065 12.03483929 -8.5703125 7.91796875 C-8.22265625 5.04296875 -8.22265625 5.04296875 -6.16015625 2.10546875 C-3.22265625 0.04296875 -3.22265625 0.04296875 0 0 Z " fill="#8C6E9F" transform="translate(405.22265625,255.95703125)"/>
<path d="M0 0 C1.80796709 3.12285225 1.95622986 4.81496708 1.375 8.375 C-0.77052821 11.87141635 -2.05655214 13.18110568 -5.98046875 14.51953125 C-20.9184515 17.1233998 -20.9184515 17.1233998 -26.625 16.375 C-29.25 14.3125 -29.25 14.3125 -30.625 11.375 C-30.56692551 8.00667978 -30.47189232 5.55892089 -28.4765625 2.76953125 C-22.16752586 -1.98221154 -6.98212652 -4.3222688 0 0 Z " fill="#8C6E9F" transform="translate(444.625,195.625)"/>
</svg>
