<?xml version="1.0" encoding="UTF-8"?>
<!-- Generator: visioncortex VTracer 0.6.12 -->
<svg version="1.1" xmlns="http://www.w3.org/2000/svg" width="512" height="512">
<path d="M0 0 C0 13.86 0 27.72 0 42 C2.28917358 41.99214478 2.28917358 41.99214478 13.8737793 41.95239258 C28.98115049 41.90273847 44.08852484 41.86941501 59.19595623 41.84456348 C68.35781194 41.82909191 77.51959037 41.80799683 86.68139648 41.77368164 C94.66644763 41.74378819 102.6514428 41.72442711 110.63654834 41.71773452 C114.86495918 41.71382216 119.0932099 41.70462157 123.32156944 41.68280983 C127.30158666 41.66244551 131.28137781 41.65616606 135.26144218 41.66067696 C136.72194395 41.65985173 138.18245329 41.65388563 139.64291 41.64238358 C141.63795753 41.62744217 143.63312639 41.63283764 145.6282196 41.63923645 C146.18636526 41.63785376 146.18636526 41.63785376 149.01092052 41.63085651 C153.62069906 42.20015209 157.0856668 44.41370861 160 48 C160.37834883 50.21350658 160.37834883 50.21350658 160.38311005 52.85297966 C160.38763837 53.35603345 160.38763837 53.35603345 160.41055441 55.9017905 C160.40789045 56.45601249 160.40789045 56.45601249 160.39440918 59.26071167 C160.40050028 60.4358102 160.40659139 61.61090872 160.41286707 62.82161629 C160.4266669 66.08893944 160.42693902 69.35594491 160.4214921 72.62328267 C160.41882777 76.14486122 160.43334247 79.66637479 160.44558716 83.18792725 C160.46666921 90.08941186 160.47118041 96.99081251 160.46939927 103.89232551 C160.46809296 109.5010131 160.47188909 115.10967444 160.47932434 120.71835709 C160.48142348 122.33237302 160.48352108 123.94638896 160.48561716 125.5604049 C160.48613892 125.96204584 160.48613892 125.96204584 160.48877937 127.99459244 C160.50769316 143.19621238 160.50662814 158.39778408 160.49981004 173.59941091 C160.49423454 187.51188302 160.51505822 201.42417098 160.54817051 215.33660005 C160.58188928 229.61444174 160.59707806 243.89219518 160.59245348 258.17007744 C160.59020684 266.18899291 160.59548012 274.20773821 160.62034607 282.22661972 C160.64133595 289.05380825 160.64497449 295.88073332 160.62604648 302.70793258 C160.61687382 306.19220779 160.61579127 309.67599149 160.63640213 313.16022873 C160.65447508 316.93571334 160.64193208 320.70987774 160.62145996 324.48532104 C160.63397781 325.58930359 160.64649566 326.69328613 160.65939283 327.83072269 C160.57301274 335.23061055 160.57301274 335.23061055 157.64865875 339.15716743 C153.60785251 341.96860146 150.67898767 342.12422011 145.86872864 342.12025452 C144.58565323 342.12162918 143.30257782 342.12300385 141.98062134 342.12442017 C140.55584694 342.12088101 139.13107277 342.1172462 137.70629883 342.11352539 C136.20833844 342.11324337 134.71037791 342.11340155 133.2124176 342.1139679 C129.14246505 342.11425527 125.07254186 342.10836815 121.00259614 342.10139394 C116.75048613 342.09515051 112.49837548 342.09455582 108.2462616 342.09336853 C100.19276404 342.09025814 92.13928002 342.08204868 84.08578843 342.07201904 C74.91781776 342.06084885 65.74984645 342.05534516 56.58187068 342.05032361 C37.72123787 342.03986583 18.86062364 342.02152397 0 342 C0 355.86 0 369.72 0 384 C-6.84561429 383.37767143 -13.31788119 382.71814375 -20.00686646 381.41261292 C-20.84295972 381.25391108 -21.67905298 381.09520924 -22.5404824 380.93169826 C-25.30548189 380.40554064 -28.06897298 379.87186661 -30.83251953 379.33813477 C-32.82927953 378.95654774 -34.82612855 378.57542628 -36.82305908 378.19473267 C-42.22046422 377.16437989 -47.61658702 376.12745218 -53.01248407 375.08923459 C-58.67167259 374.00145256 -64.33198102 372.9195287 -69.99215698 371.8368988 C-79.49333486 370.01873877 -88.99375184 368.19664821 -98.49365234 366.37182617 C-110.67347757 364.03223596 -122.85446607 361.69876312 -135.03586006 359.3673563 C-145.52893992 357.35906712 -156.02156013 355.34838047 -166.51406622 353.33709598 C-169.8775722 352.69241066 -173.24112553 352.04797276 -176.60467911 351.40353584 C-181.89583734 350.38958588 -187.18670854 349.37415042 -192.47736359 348.35757828 C-194.41502444 347.98546291 -196.35276992 347.61378795 -198.29060745 347.24259377 C-200.94301224 346.73442816 -203.59509423 346.22460969 -206.24710083 345.71437073 C-207.00713539 345.56913155 -207.76716995 345.42389237 -208.55023587 345.274252 C-213.72759215 344.27559341 -218.84760709 343.1449762 -224 342 C-224 243 -224 144 -224 42 C-209.16319566 38.9089991 -194.34074783 35.85910806 -179.4543457 33.03588867 C-177.53772887 32.67078935 -175.62114463 32.30551889 -173.70458984 31.94009399 C-168.58845907 30.96522714 -163.47182349 29.99303724 -158.3550303 29.02165389 C-155.15064706 28.4131962 -151.94637846 27.80413835 -148.74214745 27.19487953 C-137.54555455 25.06596122 -126.3485408 22.9392727 -115.15112305 20.81469727 C-104.7332679 18.83797115 -94.3163828 16.85618956 -83.89991885 14.87214679 C-74.9191568 13.16179767 -65.9377318 11.45496132 -56.95578068 9.75086766 C-51.60620643 8.73586045 -46.25691306 7.71942617 -40.90828896 6.69942284 C-35.89787891 5.74403914 -30.88666022 4.79301991 -25.87477875 3.84538651 C-24.03662616 3.49706072 -22.1987699 3.14716701 -20.36123466 2.79559898 C-17.85584589 2.31650448 -15.34945453 1.84305282 -12.84272766 1.37101746 C-12.11492782 1.23046297 -11.38712799 1.08990848 -10.63727361 0.94509476 C-6.96248323 0.25961861 -3.77865586 0 0 0 Z " fill="#2E7D32" transform="translate(288,64)"/>
<path d="M0 0 C12.4884375 -0.0309375 12.4884375 -0.0309375 75.6875 -0.1875 C83.57744873 -0.21481201 91.46739746 -0.24212402 99.59643555 -0.27026367 C109.22229004 -0.28381348 109.22229004 -0.28381348 113.72688293 -0.28633118 C116.87672753 -0.28912902 120.02642084 -0.3003828 123.17622375 -0.31672668 C127.19358457 -0.33729623 131.21072521 -0.34347495 135.2281338 -0.33921683 C136.70276643 -0.34010729 138.17740671 -0.34606095 139.65199411 -0.35764539 C141.64401365 -0.37256826 143.6361545 -0.36717911 145.6282196 -0.36076355 C146.18636526 -0.36214624 146.18636526 -0.36214624 149.01092052 -0.36914349 C153.62069906 0.20015209 157.0856668 2.41370861 160 6 C160.37834883 8.21350658 160.37834883 8.21350658 160.38311005 10.85297966 C160.39216669 11.85908724 160.40122333 12.86519481 160.41055441 13.9017905 C160.40522648 15.01023449 160.39989856 16.11867847 160.39440918 17.26071167 C160.40050028 18.4358102 160.40659139 19.61090872 160.41286707 20.82161629 C160.4266669 24.08893944 160.42693902 27.35594491 160.4214921 30.62328267 C160.41882777 34.14486122 160.43334247 37.66637479 160.44558716 41.18792725 C160.46666921 48.08941186 160.47118041 54.99081251 160.46939927 61.89232551 C160.46809296 67.5010131 160.47188909 73.10967444 160.47932434 78.71835709 C160.48142348 80.33237302 160.48352108 81.94638896 160.48561716 83.5604049 C160.48666069 84.36368679 160.48770422 85.16696868 160.48877937 85.99459244 C160.50769316 101.19621238 160.50662814 116.39778408 160.49981004 131.59941091 C160.49423454 145.51188302 160.51505822 159.42417098 160.54817051 173.33660005 C160.58188928 187.61444174 160.59707806 201.89219518 160.59245348 216.17007744 C160.59020684 224.18899291 160.59548012 232.20773821 160.62034607 240.22661972 C160.64133595 247.05380825 160.64497449 253.88073332 160.62604648 260.70793258 C160.61687382 264.19220779 160.61579127 267.67599149 160.63640213 271.16022873 C160.65447508 274.93571334 160.64193208 278.70987774 160.62145996 282.48532104 C160.63397781 283.58930359 160.64649566 284.69328613 160.65939283 285.83072269 C160.57301274 293.23061055 160.57301274 293.23061055 157.64865875 297.15716743 C153.60785251 299.96860146 150.67898767 300.12422011 145.86872864 300.12025452 C144.58832356 300.12163201 143.30791849 300.12300951 141.98871326 300.12442875 C140.56124157 300.12088191 139.13377009 300.11724401 137.70629883 300.11352539 C136.18406267 300.11321911 134.66182636 300.11335245 133.13959026 300.11389065 C129.05817416 300.11411667 124.9767873 300.10831516 120.89537811 300.10128021 C117.06741746 300.09559095 113.23946398 300.0953174 109.41149902 300.09460449 C98.2118288 300.08935436 87.01216403 300.07539324 75.8125 300.0625 C50.794375 300.041875 25.77625 300.02125 0 300 C0 201 0 102 0 0 Z " fill="#4CAF50" transform="translate(288,106)"/>
<path d="M0 0 C13.53 0 27.06 0 41 0 C48.83846945 16.18264661 56.5584863 32.3884399 63.96948242 48.77124023 C64.93971709 50.86962268 65.95405318 52.93847922 67 55 C67.28262695 54.2874707 67.56525391 53.57494141 67.85644531 52.84082031 C71.07395258 44.90635994 74.77259227 37.32810064 78.75 29.75 C79.03488281 29.20021484 79.03488281 29.20021484 80.4765625 26.41796875 C85.13111682 17.49156792 90.05822973 8.78536937 95 0 C107.21 0 119.42 0 132 0 C130.59769716 4.20690852 129.73216312 6.77526988 127.48828125 10.30078125 C126.98554688 11.1 126.4828125 11.89921875 125.96484375 12.72265625 C125.41957031 13.57730469 124.87429687 14.43195313 124.3125 15.3125 C123.12987382 17.19298216 121.94895481 19.07453878 120.76953125 20.95703125 C120.15158691 21.94268066 119.53364258 22.92833008 118.89697266 23.94384766 C115.05707639 30.13018246 111.34738828 36.39529123 107.62426758 42.65234375 C104.52261972 47.84963411 101.38022942 53.01051145 98.125 58.11328125 C97.51462891 59.07492188 96.90425781 60.0365625 96.27539062 61.02734375 C95.11812836 62.84280689 93.95061408 64.65178786 92.77148438 66.453125 C92.25908203 67.25878906 91.74667969 68.06445312 91.21875 68.89453125 C90.99155273 69.24439087 90.99155273 69.24439087 89.84179688 71.01489258 C88.77234952 73.53684051 89.00120455 74.47485271 90 77 C90.81422709 78.53121229 91.68708311 80.03186081 92.59765625 81.5078125 C93.14365479 82.39871582 93.68965332 83.28961914 94.25219727 84.20751953 C94.84959717 85.17028809 95.44699707 86.13305664 96.0625 87.125 C96.68374756 88.13546387 97.30499512 89.14592773 97.94506836 90.18701172 C99.27491035 92.34872922 100.60709957 94.50900419 101.94140625 96.66796875 C103.97697143 99.96272606 106.00523372 103.26186376 108.03125 106.5625 C113.2890056 115.12369416 118.55007453 123.68253358 123.8671875 132.20703125 C124.47038818 133.17560059 125.07358887 134.14416992 125.69506836 135.14208984 C126.82854365 136.96054187 127.96463663 138.77736574 129.10375977 140.59228516 C129.60447998 141.39585449 130.1052002 142.19942383 130.62109375 143.02734375 C131.0586499 143.72593506 131.49620605 144.42452637 131.94702148 145.14428711 C133 147 133 147 134 150 C120.8 150 107.6 150 94 150 C87.49793453 138.19995526 81.06557458 126.36697603 74.82254028 114.42782593 C74.1521733 113.14832167 73.47891706 111.87032679 72.80270386 110.59390259 C71.84582139 108.78557167 70.90013629 106.97179619 69.95703125 105.15625 C69.41022705 104.11275391 68.86342285 103.06925781 68.30004883 101.99414062 C66.98135728 98.95706398 66.39480858 96.27590205 66 93 C65.34 93 64.68 93 64 93 C63.846521 93.5971582 63.69304199 94.19431641 63.53491211 94.80957031 C61.65592612 101.61800707 58.90886944 107.54856532 55.5625 113.75 C55.04260498 114.7299292 54.52270996 115.7098584 53.98706055 116.71948242 C48.74759337 126.56263922 43.403002 136.35054563 38.0246582 146.1184082 C37.32674349 147.39999711 36.65261858 148.69476283 36 150 C22.8 150 9.6 150 -4 150 C-2.54074079 146.35185198 -1.30640217 143.68731521 0.765625 140.47265625 C1.04204834 140.04126343 1.04204834 140.04126343 2.44091797 137.8581543 C3.03791504 136.93558838 3.63491211 136.01302246 4.25 135.0625 C5.52876703 133.07039029 6.8074095 131.07820062 8.0859375 129.0859375 C8.73916992 128.07112305 9.39240234 127.05630859 10.06542969 126.01074219 C11.87684525 123.19166385 13.67928803 120.36717213 15.4765625 117.5390625 C16.03827148 116.65532959 16.59998047 115.77159668 17.17871094 114.86108398 C18.31163263 113.07544416 19.44248601 111.28849043 20.57128906 109.50024414 C23.44516569 104.95992384 26.35320923 100.44988423 29.3520813 95.99079895 C30.87559817 93.72177621 32.38383141 91.44278362 33.89117432 89.16299438 C34.97908698 87.53136492 36.08873097 85.91429223 37.19873047 84.29760742 C37.85502441 83.30220947 38.51131836 82.30681152 39.1875 81.28125 C39.77917969 80.40533203 40.37085938 79.52941406 40.98046875 78.62695312 C42 76 42 76 41.33496094 72.95458984 C40.15392141 70.34066513 38.9338772 67.89911511 37.453125 65.4453125 C36.94523437 64.59582031 36.43734375 63.74632812 35.9140625 62.87109375 C35.36492187 61.96488281 34.81578125 61.05867188 34.25 60.125 C33.06697744 58.14887487 31.88471179 56.17229646 30.703125 54.1953125 C30.09146484 53.17469727 29.47980469 52.15408203 28.84960938 51.10253906 C25.86164974 46.09052863 22.93149921 41.0451735 20 36 C16.43729866 29.87075066 12.86029049 23.75154176 9.2265625 17.6640625 C8.62199219 16.64957031 8.01742187 15.63507813 7.39453125 14.58984375 C6.23682002 12.65010242 5.07550209 10.71250803 3.91015625 8.77734375 C3.39582031 7.91496094 2.88148437 7.05257812 2.3515625 6.1640625 C1.89604004 5.40561035 1.44051758 4.6471582 0.97119141 3.86572266 C0 2 0 2 0 0 Z " fill="#FCFDFC" transform="translate(110,181)"/>
<path d="M0 0 C24.75 0 49.5 0 75 0 C75 10.56 75 21.12 75 32 C50.25 32 25.5 32 0 32 C0 21.44 0 10.88 0 0 Z " fill="#FEFEFE" transform="translate(341,320)"/>
<path d="M0 0 C24.75 0 49.5 0 75 0 C75 10.56 75 21.12 75 32 C50.25 32 25.5 32 0 32 C0 21.44 0 10.88 0 0 Z " fill="#FCFDFC" transform="translate(341,267)"/>
<path d="M0 0 C24.75 0 49.5 0 75 0 C75 10.56 75 21.12 75 32 C50.25 32 25.5 32 0 32 C0 21.44 0 10.88 0 0 Z " fill="#FCFDFC" transform="translate(341,213)"/>
<path d="M0 0 C24.75 0 49.5 0 75 0 C75 10.56 75 21.12 75 32 C50.25 32 25.5 32 0 32 C0 21.44 0 10.88 0 0 Z " fill="#FEFEFE" transform="translate(341,160)"/>
<path d="M0 0 C10.56 0 21.12 0 32 0 C32 10.56 32 21.12 32 32 C21.44 32 10.88 32 0 32 C0 21.44 0 10.88 0 0 Z " fill="#FFFFFF" transform="translate(288,320)"/>
<path d="M0 0 C10.56 0 21.12 0 32 0 C32 10.56 32 21.12 32 32 C21.44 32 10.88 32 0 32 C0 21.44 0 10.88 0 0 Z " fill="#FDFEFD" transform="translate(288,267)"/>
<path d="M0 0 C10.56 0 21.12 0 32 0 C32 10.56 32 21.12 32 32 C21.44 32 10.88 32 0 32 C0 21.44 0 10.88 0 0 Z " fill="#FDFEFD" transform="translate(288,213)"/>
<path d="M0 0 C10.56 0 21.12 0 32 0 C32 10.56 32 21.12 32 32 C21.44 32 10.88 32 0 32 C0 21.44 0 10.88 0 0 Z " fill="#FFFFFF" transform="translate(288,160)"/>
</svg>
