<?xml version="1.0" encoding="UTF-8"?>
<!-- Generator: visioncortex VTracer 0.6.12 -->
<svg version="1.1" xmlns="http://www.w3.org/2000/svg" width="512" height="512">
<path d="M0 0 C0 30.03 0 60.06 0 91 C10.27898437 90.94199219 20.55796875 90.88398438 31.1484375 90.82421875 C37.66537088 90.79866723 44.18226788 90.77439003 50.69921875 90.75585938 C61.04032828 90.72621836 71.38123376 90.69141751 81.72216797 90.62280273 C89.25423677 90.57284948 96.78613965 90.54068104 104.31836951 90.52955753 C108.3039509 90.52305881 112.28905776 90.50786645 116.27448654 90.47134972 C120.03220472 90.43720105 123.78925671 90.42698451 127.54711533 90.43446159 C129.57062059 90.43244805 131.59405467 90.40565225 133.61737061 90.37789917 C141.41050009 90.42161171 147.56298259 91.36274281 154 96 C158.93860052 101.20694703 160.12261703 105.88734606 160.16062927 112.90591431 C160.16317318 113.25928995 160.16317318 113.25928995 160.17604691 115.04758489 C160.19177476 117.42185803 160.20029738 119.79610072 160.20874023 122.17041016 C160.21827854 123.87051588 160.22816969 125.57061966 160.23838806 127.27072144 C160.26977964 132.86014501 160.29004244 138.44958348 160.30859375 144.0390625 C160.31189107 144.99029102 160.31518839 145.94151954 160.31858563 146.92157316 C160.3493697 155.89451284 160.37607478 164.86745589 160.39300442 173.84043312 C160.41490402 185.31274324 160.45685898 196.78458493 160.52644199 208.25670779 C160.57371857 216.32562933 160.59794297 224.39442466 160.6052013 232.46348035 C160.61015255 237.28122476 160.62518286 242.09844125 160.6649456 246.9160347 C160.70188947 251.45194485 160.71019642 255.98702729 160.69693947 260.52305984 C160.69699329 262.18347489 160.70723834 263.84392734 160.7286911 265.5042038 C160.91351521 280.62230904 160.91351521 280.62230904 155.59927464 287.38289452 C151.83864837 291.18544926 147.8670905 293.86604612 142.36633778 294.12304783 C141.29982329 294.12212604 140.23330881 294.12120424 139.13447571 294.12025452 C137.91029938 294.12162918 136.68612305 294.12300385 135.42485046 294.12442017 C134.06619238 294.12088104 132.70753455 294.11724623 131.34887695 294.11352539 C129.91988121 294.11324335 128.49088531 294.11340158 127.06188965 294.1139679 C123.17994704 294.11425523 119.29803523 294.10836884 115.41609979 294.10139394 C111.36018037 294.09514975 107.30426027 294.09455576 103.24833679 294.09336853 C95.56670657 294.09025837 87.88509056 294.0820492 80.20346659 294.07201904 C69.82410624 294.05876006 59.44474201 294.05335545 49.06537533 294.04751682 C32.71023958 294.03810912 16.3551338 294.01818809 0 294 C0 324.03 0 354.06 0 385 C-16.33510254 382.0830174 -32.658326 379.16272387 -48.95556641 376.05175781 C-50.86773288 375.68798777 -52.7799245 375.32434989 -54.69213867 374.96083069 C-59.77752398 373.99362413 -64.862523 373.02440241 -69.94741106 372.05458546 C-74.21333588 371.24112258 -78.47943748 370.42858881 -82.74553049 369.61600852 C-92.79337641 367.70209344 -102.840882 365.78639926 -112.88818359 363.86962891 C-123.2446449 361.89391982 -133.60176212 359.9216758 -143.95918143 357.95099568 C-152.89259363 356.2511115 -161.82556851 354.54894283 -170.7581991 352.84495616 C-176.07732542 351.83031624 -181.39662238 350.81659292 -186.71635818 349.80515289 C-191.69278359 348.85890014 -196.66866038 347.90981545 -201.64411926 346.95849419 C-203.47174362 346.60955224 -205.29956448 346.26163775 -207.12759018 345.91480446 C-209.61323238 345.44303768 -212.09815188 344.96763708 -214.58291626 344.49127197 C-215.31283519 344.35363033 -216.04275413 344.21598868 -216.79479182 344.07417607 C-221.77172046 343.11413977 -221.77172046 343.11413977 -224 342 C-224 243 -224 144 -224 42 C-5.25 -0 -5.25 -0 0 0 Z " fill="#0277BD" transform="translate(288,58)"/>
<path d="M0 0 C23.55375 -0.103125 47.1075 -0.20625 71.375 -0.3125 C75.08838623 -0.33526001 75.08838623 -0.33526001 93.88037109 -0.45043945 C102.97583008 -0.47302246 102.97583008 -0.47302246 107.23892212 -0.47721863 C110.20534101 -0.48186176 113.17130883 -0.50053712 116.13760376 -0.52787781 C119.93048674 -0.56237 123.72272109 -0.57242027 127.51574636 -0.56536138 C129.55224278 -0.56752724 131.58866875 -0.5942439 133.6249752 -0.62214375 C141.41517155 -0.57826777 147.56557793 0.36461251 154 5 C158.93860052 10.20694703 160.12261703 14.88734606 160.16062927 21.90591431 C160.16571709 22.6126656 160.17080491 23.31941689 160.17604691 24.04758489 C160.19177476 26.42185803 160.20029738 28.79610072 160.20874023 31.17041016 C160.21827854 32.87051588 160.22816969 34.57061966 160.23838806 36.27072144 C160.26977964 41.86014501 160.29004244 47.44958348 160.30859375 53.0390625 C160.31189107 53.99029102 160.31518839 54.94151954 160.31858563 55.92157316 C160.3493697 64.89451284 160.37607478 73.86745589 160.39300442 82.84043312 C160.41490402 94.31274324 160.45685898 105.78458493 160.52644199 117.25670779 C160.57371857 125.32562933 160.59794297 133.39442466 160.6052013 141.46348035 C160.61015255 146.28122476 160.62518286 151.09844125 160.6649456 155.9160347 C160.70188947 160.45194485 160.71019642 164.98702729 160.69693947 169.52305984 C160.69699329 171.18347489 160.70723834 172.84392734 160.7286911 174.5042038 C160.91351521 189.62230904 160.91351521 189.62230904 155.59927464 196.38289452 C151.83864837 200.18544926 147.8670905 202.86604612 142.36633778 203.12304783 C141.29982329 203.12212604 140.23330881 203.12120424 139.13447571 203.12025452 C137.91284635 203.12163201 136.69121698 203.12300951 135.43256855 203.12442875 C134.07133779 203.12088194 132.71010726 203.11724405 131.34887695 203.11352539 C129.89672695 203.1132191 128.4445768 203.11335247 126.99242687 203.11389065 C123.09955033 203.11411664 119.20670445 203.10831587 115.31383514 203.10128021 C111.6624695 203.09559021 108.01111137 203.09531736 104.35974121 203.09460449 C93.6773234 203.08935473 82.99491132 203.07539361 72.3125 203.0625 C48.449375 203.041875 24.58625 203.02125 0 203 C0 136.01 0 69.02 0 0 Z " fill="#03A9F4" transform="translate(288,149)"/>
<path d="M0 0 C0.95519531 -0.01160156 1.91039062 -0.02320313 2.89453125 -0.03515625 C18.22422135 0.02707524 33.15501137 6.11305789 44.1875 16.80078125 C62.2497171 36.90720198 65.71587569 61.22466622 64.5 87.375 C64.06041911 92.20720439 62.9559619 96.74888709 61.5 101.375 C61.30132324 102.0134082 61.10264648 102.65181641 60.89794922 103.30957031 C55.18503524 121.20575478 45.2888093 135.01401551 28.91796875 144.6484375 C14.48203509 151.94064627 -3.34448976 153.94470015 -19 149.6875 C-36.19777782 144.00113798 -48.97723543 133.5964147 -57.86328125 117.78125 C-68.41890553 95.81345913 -69.60936463 69.56529484 -62.5 46.375 C-58.8966372 36.29099338 -53.94848749 27.14073788 -46.5 19.375 C-46.13132813 18.98634766 -46.13132813 18.98634766 -44.265625 17.01953125 C-32.16604301 5.21650764 -16.72086474 -0.20308743 0 0 Z " fill="#FCFDFE" transform="translate(179.5,174.625)"/>
<path d="M0 0 C18.60248898 -0.11698176 37.20490296 -0.20506069 55.80768394 -0.25906086 C64.44597063 -0.28480444 73.08402831 -0.31988097 81.72216797 -0.37719727 C89.25423677 -0.42715052 96.78613965 -0.45931896 104.31836951 -0.47044247 C108.3039509 -0.47694119 112.28905776 -0.49213355 116.27448654 -0.52865028 C120.03220472 -0.56279895 123.78925671 -0.57301549 127.54711533 -0.56553841 C129.57062059 -0.56755195 131.59405467 -0.59434775 133.61737061 -0.62210083 C141.41050009 -0.57838829 147.56298259 0.36274281 154 5 C159.17269098 10.45375716 160.33210979 15.95514836 160.6875 23.25 C160.72713867 23.61931641 160.72713867 23.61931641 160.92773438 25.48828125 C161.02221903 27.98003947 160.89168419 29.66215036 160 32 C157.02608509 34.945755 153.61602333 36.92547116 150 39 C149.14897705 39.51771973 148.2979541 40.03543945 147.42114258 40.56884766 C144.8196039 42.14131327 142.19505089 43.66759592 139.5625 45.1875 C132.48422384 49.32111783 125.47298161 53.52884748 118.5625 57.9375 C111.6335923 62.35618852 104.65199134 66.67642713 97.625 70.9375 C90.29227048 75.38469282 82.976416 79.85634802 75.6875 84.375 C74.8536377 84.88869141 74.01977539 85.40238281 73.16064453 85.93164062 C68.70538626 88.68032555 64.27284017 91.45874037 59.87104797 94.29248047 C57.50320796 95.81313279 55.12631137 97.31926754 52.74819946 98.8237915 C51.59010677 99.5615664 50.43618441 100.30593196 49.28671265 101.05706787 C47.68104528 102.10545748 46.0595355 103.12946093 44.4375 104.15234375 C43.50808594 104.75038818 42.57867187 105.34843262 41.62109375 105.96459961 C39 107 39 107 36.57617188 106.41601562 C33.47466303 104.7112439 30.38654207 102.99866492 27.34375 101.19140625 C26.7189978 100.8240184 26.09424561 100.45663055 25.45056152 100.07810974 C23.4651025 98.90949331 21.48253947 97.73606113 19.5 96.5625 C18.16815435 95.77767974 16.83612481 94.99317146 15.50390625 94.20898438 C11.99949505 92.14452591 8.49784982 90.07556076 5 88 C4.1217305 87.63439972 3.243461 87.26879944 2.33857727 86.89212036 C0 85 0 85 -0.60127258 81.41230774 C-0.61578228 79.89379622 -0.60243623 78.37487129 -0.56762695 76.85668945 C-0.56835709 76.02719788 -0.56908722 75.1977063 -0.56983948 74.34307861 C-0.56635377 71.59914937 -0.52744769 68.85691417 -0.48828125 66.11328125 C-0.47895659 64.21185738 -0.47183884 62.3104215 -0.46684265 60.40898132 C-0.44774554 55.40272901 -0.39862133 50.39720125 -0.34332275 45.39123535 C-0.29218877 40.28370974 -0.26934112 35.17606713 -0.24414062 30.06835938 C-0.19050526 20.04525445 -0.1051596 10.02268746 0 0 Z " fill="#03A9F4" transform="translate(288,149)"/>
<path d="M0 0 C8.52320081 5.23497939 12.90020739 14.30076044 15.45703125 23.67578125 C16.96063741 30.112081 17.18347864 36.08844095 17.1875 42.6875 C17.19974609 43.72583984 17.21199219 44.76417969 17.22460938 45.83398438 C17.25120048 59.97158723 14.5605597 72.41552522 4.4609375 82.79296875 C-3.34956677 89.79762734 -10.8778465 90.91046887 -21.05859375 90.421875 C-25.89795259 89.90388614 -29.15166176 88.93206723 -33 86 C-34.03125 85.278125 -35.0625 84.55625 -36.125 83.8125 C-45.05586161 75.77957828 -49.32774249 63.33093429 -50.17700195 51.54321289 C-50.60515978 33.5827597 -49.86786596 18.27761272 -37.34375 4.12890625 C-26.69064453 -5.9463185 -12.6832635 -6.33173841 0 0 Z " fill="#0377BD" transform="translate(195,207)"/>
<path d="M0 0 C2.26098633 1.34521484 2.26098633 1.34521484 3.26098633 4.34521484 C3.59229781 7.12246934 3.81275692 9.80919018 3.94848633 12.59521484 C3.988125 12.96453125 3.988125 12.96453125 4.1887207 14.83349609 C4.28320536 17.32525431 4.15267052 19.0073652 3.26098633 21.34521484 C0.28707142 24.29096984 -3.12299034 26.270686 -6.73901367 28.34521484 C-7.59003662 28.86293457 -8.44105957 29.3806543 -9.31787109 29.9140625 C-11.91940977 31.48652812 -14.54396278 33.01281077 -17.17651367 34.53271484 C-24.25478983 38.66633267 -31.26603206 42.87406233 -38.17651367 47.28271484 C-45.10542137 51.70140336 -52.08702233 56.02164197 -59.11401367 60.28271484 C-66.44674319 64.72990766 -73.76259767 69.20156287 -81.05151367 73.72021484 C-81.88537598 74.23390625 -82.71923828 74.74759766 -83.57836914 75.27685547 C-88.03362741 78.02554039 -92.4661735 80.80395521 -96.8679657 83.63769531 C-99.23580571 85.15834763 -101.6127023 86.66448239 -103.99081421 88.16900635 C-105.1489069 88.90678124 -106.30282927 89.65114681 -107.45230103 90.40228271 C-109.05796839 91.45067232 -110.67947817 92.47467577 -112.30151367 93.49755859 C-113.23092773 94.09560303 -114.1603418 94.69364746 -115.11791992 95.30981445 C-117.73901367 96.34521484 -117.73901367 96.34521484 -120.1628418 95.76123047 C-123.26435064 94.05645874 -126.3524716 92.34387976 -129.39526367 90.53662109 C-130.02001587 90.16923325 -130.64476807 89.8018454 -131.28845215 89.42332458 C-133.27391117 88.25470816 -135.25647421 87.08127597 -137.23901367 85.90771484 C-138.57085932 85.12289458 -139.90288886 84.3383863 -141.23510742 83.55419922 C-144.73951863 81.48974075 -148.24116385 79.42077561 -151.73901367 77.34521484 C-152.69122803 76.88324707 -153.64344238 76.4212793 -154.62451172 75.9453125 C-156.73901367 74.34521484 -156.73901367 74.34521484 -157.30664062 71.80151367 C-157.29354858 71.30663452 -157.29354858 71.30663452 -157.22729492 68.80224609 C-157.21118164 67.72910156 -157.19506836 66.65595703 -157.1784668 65.55029297 C-157.13657227 64.43074219 -157.09467773 63.31119141 -157.05151367 62.15771484 C-157.02895508 61.0265625 -157.00639648 59.89541016 -156.9831543 58.72998047 C-156.92416178 55.93373508 -156.84189607 53.14013388 -156.73901367 50.34521484 C-150.89737193 53.69024621 -145.11221374 57.09649095 -139.40698242 60.66943359 C-138.47394287 61.25313721 -137.54090332 61.83684082 -136.57958984 62.43823242 C-134.70053218 63.61702416 -132.82433526 64.80038962 -130.95117188 65.98852539 C-130.07678467 66.53677979 -129.20239746 67.08503418 -128.30151367 67.64990234 C-127.51905273 68.14474121 -126.7365918 68.63958008 -125.93041992 69.14941406 C-123.76425317 70.33144222 -122.192545 71.09300827 -119.73901367 71.34521484 C-117.78222656 70.56347656 -117.78222656 70.56347656 -115.71166992 69.27490234 C-114.93098145 68.79762695 -114.15029297 68.32035156 -113.34594727 67.82861328 C-112.50628418 67.2978418 -111.66662109 66.76707031 -110.80151367 66.22021484 C-109.91544434 65.67397461 -109.029375 65.12773437 -108.11645508 64.56494141 C-105.31697822 62.83604131 -102.52805886 61.09087975 -99.73901367 59.34521484 C-98.04849251 58.2995118 -96.35711048 57.25519893 -94.66479492 56.21240234 C-91.21828322 54.08696416 -87.77594048 51.95500642 -84.33666992 49.81787109 C-78.25202456 46.03921421 -72.1525086 42.28489949 -66.05151367 38.53271484 C-64.96161133 37.86216064 -63.87170898 37.19160645 -62.7487793 36.50073242 C-57.21692634 33.09773333 -51.6837525 29.69689761 -46.14916992 26.29833984 C-45.06748535 25.63342529 -43.98580078 24.96851074 -42.87133789 24.28344727 C-40.71417722 22.95846363 -38.55566459 21.63567834 -36.39575195 20.31518555 C-31.44110598 17.27821158 -26.50913249 14.21604002 -21.6418457 11.04109192 C-19.97391534 9.95323621 -18.30108023 8.87291252 -16.62817383 7.79272461 C-14.53845309 6.43999933 -12.45814603 5.07258688 -10.38891602 3.6887207 C-9.45644043 3.08809814 -8.52396484 2.48747559 -7.56323242 1.86865234 C-6.74943115 1.33159668 -5.93562988 0.79454102 -5.09716797 0.24121094 C-2.73901367 -0.65478516 -2.73901367 -0.65478516 0 0 Z " fill="#B0E4FB" transform="translate(444.739013671875,159.65478515625)"/>
</svg>
