<?xml version="1.0" encoding="UTF-8"?>
<!-- Generator: visioncortex VTracer 0.6.12 -->
<svg version="1.1" xmlns="http://www.w3.org/2000/svg" width="512" height="512">
<path d="M0 0 C0 13.86 0 27.72 0 42 C2.28917358 41.99214478 2.28917358 41.99214478 13.8737793 41.95239258 C28.98115049 41.90273847 44.08852484 41.86941501 59.19595623 41.84456348 C68.35781194 41.82909191 77.51959037 41.80799683 86.68139648 41.77368164 C94.66644763 41.74378819 102.6514428 41.72442711 110.63654834 41.71773452 C114.86495918 41.71382216 119.0932099 41.70462157 123.32156944 41.68280983 C127.30158666 41.66244551 131.28137781 41.65616606 135.26144218 41.66067696 C136.72194395 41.65985173 138.18245329 41.65388563 139.64291 41.64238358 C141.63795753 41.62744217 143.63312639 41.63283764 145.6282196 41.63923645 C146.18636526 41.63785376 146.18636526 41.63785376 149.01092052 41.63085651 C153.62069906 42.20015209 157.0856668 44.41370861 160 48 C160.37834883 50.21350658 160.37834883 50.21350658 160.38311005 52.85297966 C160.38763837 53.35603345 160.38763837 53.35603345 160.41055441 55.9017905 C160.40789045 56.45601249 160.40789045 56.45601249 160.39440918 59.26071167 C160.40050028 60.4358102 160.40659139 61.61090872 160.41286707 62.82161629 C160.4266669 66.08893944 160.42693902 69.35594491 160.4214921 72.62328267 C160.41882777 76.14486122 160.43334247 79.66637479 160.44558716 83.18792725 C160.46666921 90.08941186 160.47118041 96.99081251 160.46939927 103.89232551 C160.46809296 109.5010131 160.47188909 115.10967444 160.47932434 120.71835709 C160.48142348 122.33237302 160.48352108 123.94638896 160.48561716 125.5604049 C160.48613892 125.96204584 160.48613892 125.96204584 160.48877937 127.99459244 C160.50769316 143.19621238 160.50662814 158.39778408 160.49981004 173.59941091 C160.49423454 187.51188302 160.51505822 201.42417098 160.54817051 215.33660005 C160.58188928 229.61444174 160.59707806 243.89219518 160.59245348 258.17007744 C160.59020684 266.18899291 160.59548012 274.20773821 160.62034607 282.22661972 C160.64133595 289.05380825 160.64497449 295.88073332 160.62604648 302.70793258 C160.61687382 306.19220779 160.61579127 309.67599149 160.63640213 313.16022873 C160.65447508 316.93571334 160.64193208 320.70987774 160.62145996 324.48532104 C160.63397781 325.58930359 160.64649566 326.69328613 160.65939283 327.83072269 C160.57301274 335.23061055 160.57301274 335.23061055 157.64865875 339.15716743 C153.60785251 341.96860146 150.67898767 342.12422011 145.86872864 342.12025452 C144.58565323 342.12162918 143.30257782 342.12300385 141.98062134 342.12442017 C140.55584694 342.12088101 139.13107277 342.1172462 137.70629883 342.11352539 C136.20833844 342.11324337 134.71037791 342.11340155 133.2124176 342.1139679 C129.14246505 342.11425527 125.07254186 342.10836815 121.00259614 342.10139394 C116.75048613 342.09515051 112.49837548 342.09455582 108.2462616 342.09336853 C100.19276404 342.09025814 92.13928002 342.08204868 84.08578843 342.07201904 C74.91781776 342.06084885 65.74984645 342.05534516 56.58187068 342.05032361 C37.72123787 342.03986583 18.86062364 342.02152397 0 342 C0 355.86 0 369.72 0 384 C-6.84561429 383.37767143 -13.31788119 382.71814375 -20.00686646 381.41261292 C-20.84295972 381.25391108 -21.67905298 381.09520924 -22.5404824 380.93169826 C-25.30548189 380.40554064 -28.06897298 379.87186661 -30.83251953 379.33813477 C-32.82927953 378.95654774 -34.82612855 378.57542628 -36.82305908 378.19473267 C-42.22046422 377.16437989 -47.61658702 376.12745218 -53.01248407 375.08923459 C-58.67167259 374.00145256 -64.33198102 372.9195287 -69.99215698 371.8368988 C-79.49333486 370.01873877 -88.99375184 368.19664821 -98.49365234 366.37182617 C-110.67347757 364.03223596 -122.85446607 361.69876312 -135.03586006 359.3673563 C-145.52893992 357.35906712 -156.02156013 355.34838047 -166.51406622 353.33709598 C-169.8775722 352.69241066 -173.24112553 352.04797276 -176.60467911 351.40353584 C-181.89583734 350.38958588 -187.18670854 349.37415042 -192.47736359 348.35757828 C-194.41502444 347.98546291 -196.35276992 347.61378795 -198.29060745 347.24259377 C-200.94301224 346.73442816 -203.59509423 346.22460969 -206.24710083 345.71437073 C-207.00713539 345.56913155 -207.76716995 345.42389237 -208.55023587 345.274252 C-213.72759215 344.27559341 -218.84760709 343.1449762 -224 342 C-224 243 -224 144 -224 42 C-209.16319566 38.9089991 -194.34074783 35.85910806 -179.4543457 33.03588867 C-177.53772887 32.67078935 -175.62114463 32.30551889 -173.70458984 31.94009399 C-168.58845907 30.96522714 -163.47182349 29.99303724 -158.3550303 29.02165389 C-155.15064706 28.4131962 -151.94637846 27.80413835 -148.74214745 27.19487953 C-137.54555455 25.06596122 -126.3485408 22.9392727 -115.15112305 20.81469727 C-104.7332679 18.83797115 -94.3163828 16.85618956 -83.89991885 14.87214679 C-74.9191568 13.16179767 -65.9377318 11.45496132 -56.95578068 9.75086766 C-51.60620643 8.73586045 -46.25691306 7.71942617 -40.90828896 6.69942284 C-35.89787891 5.74403914 -30.88666022 4.79301991 -25.87477875 3.84538651 C-24.03662616 3.49706072 -22.1987699 3.14716701 -20.36123466 2.79559898 C-17.85584589 2.31650448 -15.34945453 1.84305282 -12.84272766 1.37101746 C-12.11492782 1.23046297 -11.38712799 1.08990848 -10.63727361 0.94509476 C-6.96248323 0.25961861 -3.77865586 0 0 0 Z " fill="#E64A19" transform="translate(288,64)"/>
<path d="M0 0 C12.4884375 -0.0309375 12.4884375 -0.0309375 75.6875 -0.1875 C83.57744873 -0.21481201 91.46739746 -0.24212402 99.59643555 -0.27026367 C109.22229004 -0.28381348 109.22229004 -0.28381348 113.72688293 -0.28633118 C116.87672753 -0.28912902 120.02642084 -0.3003828 123.17622375 -0.31672668 C127.19358457 -0.33729623 131.21072521 -0.34347495 135.2281338 -0.33921683 C136.70276643 -0.34010729 138.17740671 -0.34606095 139.65199411 -0.35764539 C141.64401365 -0.37256826 143.6361545 -0.36717911 145.6282196 -0.36076355 C146.18636526 -0.36214624 146.18636526 -0.36214624 149.01092052 -0.36914349 C153.62069906 0.20015209 157.0856668 2.41370861 160 6 C160.37834883 8.21350658 160.37834883 8.21350658 160.38311005 10.85297966 C160.39216669 11.85908724 160.40122333 12.86519481 160.41055441 13.9017905 C160.40522648 15.01023449 160.39989856 16.11867847 160.39440918 17.26071167 C160.40050028 18.4358102 160.40659139 19.61090872 160.41286707 20.82161629 C160.4266669 24.08893944 160.42693902 27.35594491 160.4214921 30.62328267 C160.41882777 34.14486122 160.43334247 37.66637479 160.44558716 41.18792725 C160.46666921 48.08941186 160.47118041 54.99081251 160.46939927 61.89232551 C160.46809296 67.5010131 160.47188909 73.10967444 160.47932434 78.71835709 C160.48142348 80.33237302 160.48352108 81.94638896 160.48561716 83.5604049 C160.48666069 84.36368679 160.48770422 85.16696868 160.48877937 85.99459244 C160.50769316 101.19621238 160.50662814 116.39778408 160.49981004 131.59941091 C160.49423454 145.51188302 160.51505822 159.42417098 160.54817051 173.33660005 C160.58188928 187.61444174 160.59707806 201.89219518 160.59245348 216.17007744 C160.59020684 224.18899291 160.59548012 232.20773821 160.62034607 240.22661972 C160.64133595 247.05380825 160.64497449 253.88073332 160.62604648 260.70793258 C160.61687382 264.19220779 160.61579127 267.67599149 160.63640213 271.16022873 C160.65447508 274.93571334 160.64193208 278.70987774 160.62145996 282.48532104 C160.63397781 283.58930359 160.64649566 284.69328613 160.65939283 285.83072269 C160.57301274 293.23061055 160.57301274 293.23061055 157.64865875 297.15716743 C153.60785251 299.96860146 150.67898767 300.12422011 145.86872864 300.12025452 C144.58832356 300.12163201 143.30791849 300.12300951 141.98871326 300.12442875 C140.56124157 300.12088191 139.13377009 300.11724401 137.70629883 300.11352539 C136.18406267 300.11321911 134.66182636 300.11335245 133.13959026 300.11389065 C129.05817416 300.11411667 124.9767873 300.10831516 120.89537811 300.10128021 C117.06741746 300.09559095 113.23946398 300.0953174 109.41149902 300.09460449 C98.2118288 300.08935436 87.01216403 300.07539324 75.8125 300.0625 C50.794375 300.041875 25.77625 300.02125 0 300 C0 201 0 102 0 0 Z " fill="#FE8A65" transform="translate(288,106)"/>
<path d="M0 0 C80.88682155 0 80.88682155 0 95.80859375 14.5625 C105.03936442 24.82988128 107.66548563 37.23066645 107.28515625 50.83984375 C106.07921846 64.20427758 100.92030355 75.87807704 91 85 C73.10590626 99.07177941 54.44909247 98 32 98 C32 115.16 32 132.32 32 150 C21.44 150 10.88 150 0 150 C0 100.5 0 51 0 0 Z " fill="#FEFDFD" transform="translate(128,181)"/>
<path d="M0 0 C0 21.12 0 42.24 0 64 C21.12 64 42.24 64 64 64 C64 70.58385707 63.79859191 75.26111859 61.9375 81.3125 C61.71416992 82.04670166 61.49083984 82.78090332 61.26074219 83.53735352 C55.91883289 100.17903627 44.69288096 112.96898921 29.375 121.125 C13.05389154 128.86784796 -3.54062895 130.68961582 -20.82421875 125.265625 C-24.64967452 123.74108912 -28.31670566 121.84164717 -32 120 C-32 83.04 -32 46.08 -32 8 C-19.58986917 2.35903144 -13.28411784 0 0 0 Z " fill="#FBE8E6" transform="translate(320,160)"/>
<path d="M0 0 C18.27733073 0 33.87020315 6.01203737 47 19 C59.10086577 32.65176787 64 45.95537979 64 64 C42.88 64 21.76 64 0 64 C0 42.88 0 21.76 0 0 Z " fill="#FBE7E4" transform="translate(341,139)"/>
<path d="M0 0 C38.61 0 77.22 0 117 0 C117 7.26 117 14.52 117 22 C78.39 22 39.78 22 0 22 C0 14.74 0 7.48 0 0 Z " fill="#FBE6E3" transform="translate(288,309)"/>
<path d="M0 0 C38.61 0 77.22 0 117 0 C117 6.93 117 13.86 117 21 C78.39 21 39.78 21 0 21 C0 14.07 0 7.14 0 0 Z " fill="#FBE9E7" transform="translate(288,352)"/>
<path d="M0 0 C27.35545024 0 27.35545024 0 33.9140625 5.6484375 C39.51599469 11.72825964 40.45947563 17.52550115 40.3125 25.63671875 C39.70534405 32.17123462 37.74340164 37.04905055 33.375 41.9375 C22.45606922 48.61017992 13.67895098 47 0 47 C0 31.49 0 15.98 0 0 Z " fill="#E64C1B" transform="translate(160,207)"/>
</svg>
