<?xml version="1.0" encoding="UTF-8"?>
<!-- Generator: visioncortex VTracer 0.6.12 -->
<svg version="1.1" xmlns="http://www.w3.org/2000/svg" width="512" height="512">
<path d="M0 0 C0 13.86 0 27.72 0 42 C2.28917358 41.99214478 2.28917358 41.99214478 13.8737793 41.95239258 C28.98115049 41.90273847 44.08852484 41.86941501 59.19595623 41.84456348 C68.35781194 41.82909191 77.51959037 41.80799683 86.68139648 41.77368164 C94.66644763 41.74378819 102.6514428 41.72442711 110.63654834 41.71773452 C114.86495918 41.71382216 119.0932099 41.70462157 123.32156944 41.68280983 C127.30158666 41.66244551 131.28137781 41.65616606 135.26144218 41.66067696 C136.72194395 41.65985173 138.18245329 41.65388563 139.64291 41.64238358 C141.63795753 41.62744217 143.63312639 41.63283764 145.6282196 41.63923645 C146.18636526 41.63785376 146.18636526 41.63785376 149.01092052 41.63085651 C153.62069906 42.20015209 157.0856668 44.41370861 160 48 C160.37834883 50.21350658 160.37834883 50.21350658 160.38311005 52.85297966 C160.38763837 53.35603345 160.38763837 53.35603345 160.41055441 55.9017905 C160.40789045 56.45601249 160.40789045 56.45601249 160.39440918 59.26071167 C160.40050028 60.4358102 160.40659139 61.61090872 160.41286707 62.82161629 C160.4266669 66.08893944 160.42693902 69.35594491 160.4214921 72.62328267 C160.41882777 76.14486122 160.43334247 79.66637479 160.44558716 83.18792725 C160.46666921 90.08941186 160.47118041 96.99081251 160.46939927 103.89232551 C160.46809296 109.5010131 160.47188909 115.10967444 160.47932434 120.71835709 C160.48142348 122.33237302 160.48352108 123.94638896 160.48561716 125.5604049 C160.48613892 125.96204584 160.48613892 125.96204584 160.48877937 127.99459244 C160.50769316 143.19621238 160.50662814 158.39778408 160.49981004 173.59941091 C160.49423454 187.51188302 160.51505822 201.42417098 160.54817051 215.33660005 C160.58188928 229.61444174 160.59707806 243.89219518 160.59245348 258.17007744 C160.59020684 266.18899291 160.59548012 274.20773821 160.62034607 282.22661972 C160.64133595 289.05380825 160.64497449 295.88073332 160.62604648 302.70793258 C160.61687382 306.19220779 160.61579127 309.67599149 160.63640213 313.16022873 C160.65447508 316.93571334 160.64193208 320.70987774 160.62145996 324.48532104 C160.63397781 325.58930359 160.64649566 326.69328613 160.65939283 327.83072269 C160.57301274 335.23061055 160.57301274 335.23061055 157.64865875 339.15716743 C153.60785251 341.96860146 150.67898767 342.12422011 145.86872864 342.12025452 C144.58565323 342.12162918 143.30257782 342.12300385 141.98062134 342.12442017 C140.55584694 342.12088101 139.13107277 342.1172462 137.70629883 342.11352539 C136.20833844 342.11324337 134.71037791 342.11340155 133.2124176 342.1139679 C129.14246505 342.11425527 125.07254186 342.10836815 121.00259614 342.10139394 C116.75048613 342.09515051 112.49837548 342.09455582 108.2462616 342.09336853 C100.19276404 342.09025814 92.13928002 342.08204868 84.08578843 342.07201904 C74.91781776 342.06084885 65.74984645 342.05534516 56.58187068 342.05032361 C37.72123787 342.03986583 18.86062364 342.02152397 0 342 C0 355.86 0 369.72 0 384 C-6.84561429 383.37767143 -13.31788119 382.71814375 -20.00686646 381.41261292 C-20.84295972 381.25391108 -21.67905298 381.09520924 -22.5404824 380.93169826 C-25.30548189 380.40554064 -28.06897298 379.87186661 -30.83251953 379.33813477 C-32.82927953 378.95654774 -34.82612855 378.57542628 -36.82305908 378.19473267 C-42.22046422 377.16437989 -47.61658702 376.12745218 -53.01248407 375.08923459 C-58.67167259 374.00145256 -64.33198102 372.9195287 -69.99215698 371.8368988 C-79.49333486 370.01873877 -88.99375184 368.19664821 -98.49365234 366.37182617 C-110.67347757 364.03223596 -122.85446607 361.69876312 -135.03586006 359.3673563 C-145.52893992 357.35906712 -156.02156013 355.34838047 -166.51406622 353.33709598 C-169.8775722 352.69241066 -173.24112553 352.04797276 -176.60467911 351.40353584 C-181.89583734 350.38958588 -187.18670854 349.37415042 -192.47736359 348.35757828 C-194.41502444 347.98546291 -196.35276992 347.61378795 -198.29060745 347.24259377 C-200.94301224 346.73442816 -203.59509423 346.22460969 -206.24710083 345.71437073 C-207.00713539 345.56913155 -207.76716995 345.42389237 -208.55023587 345.274252 C-213.72759215 344.27559341 -218.84760709 343.1449762 -224 342 C-224 243 -224 144 -224 42 C-209.16319566 38.9089991 -194.34074783 35.85910806 -179.4543457 33.03588867 C-177.53772887 32.67078935 -175.62114463 32.30551889 -173.70458984 31.94009399 C-168.58845907 30.96522714 -163.47182349 29.99303724 -158.3550303 29.02165389 C-155.15064706 28.4131962 -151.94637846 27.80413835 -148.74214745 27.19487953 C-137.54555455 25.06596122 -126.3485408 22.9392727 -115.15112305 20.81469727 C-104.7332679 18.83797115 -94.3163828 16.85618956 -83.89991885 14.87214679 C-74.9191568 13.16179767 -65.9377318 11.45496132 -56.95578068 9.75086766 C-51.60620643 8.73586045 -46.25691306 7.71942617 -40.90828896 6.69942284 C-35.89787891 5.74403914 -30.88666022 4.79301991 -25.87477875 3.84538651 C-24.03662616 3.49706072 -22.1987699 3.14716701 -20.36123466 2.79559898 C-17.85584589 2.31650448 -15.34945453 1.84305282 -12.84272766 1.37101746 C-12.11492782 1.23046297 -11.38712799 1.08990848 -10.63727361 0.94509476 C-6.96248323 0.25961861 -3.77865586 0 0 0 Z " fill="#0D47A1" transform="translate(288,64)"/>
<path d="M0 0 C12.4884375 -0.0309375 12.4884375 -0.0309375 75.6875 -0.1875 C83.57744873 -0.21481201 91.46739746 -0.24212402 99.59643555 -0.27026367 C109.22229004 -0.28381348 109.22229004 -0.28381348 113.72688293 -0.28633118 C116.87672753 -0.28912902 120.02642084 -0.3003828 123.17622375 -0.31672668 C127.19358457 -0.33729623 131.21072521 -0.34347495 135.2281338 -0.33921683 C136.70276643 -0.34010729 138.17740671 -0.34606095 139.65199411 -0.35764539 C141.64401365 -0.37256826 143.6361545 -0.36717911 145.6282196 -0.36076355 C146.18636526 -0.36214624 146.18636526 -0.36214624 149.01092052 -0.36914349 C153.62069906 0.20015209 157.0856668 2.41370861 160 6 C160.37834883 8.21350658 160.37834883 8.21350658 160.38311005 10.85297966 C160.39216669 11.85908724 160.40122333 12.86519481 160.41055441 13.9017905 C160.40522648 15.01023449 160.39989856 16.11867847 160.39440918 17.26071167 C160.40050028 18.4358102 160.40659139 19.61090872 160.41286707 20.82161629 C160.4266669 24.08893944 160.42693902 27.35594491 160.4214921 30.62328267 C160.41882777 34.14486122 160.43334247 37.66637479 160.44558716 41.18792725 C160.46666921 48.08941186 160.47118041 54.99081251 160.46939927 61.89232551 C160.46809296 67.5010131 160.47188909 73.10967444 160.47932434 78.71835709 C160.48142348 80.33237302 160.48352108 81.94638896 160.48561716 83.5604049 C160.48666069 84.36368679 160.48770422 85.16696868 160.48877937 85.99459244 C160.50769316 101.19621238 160.50662814 116.39778408 160.49981004 131.59941091 C160.49423454 145.51188302 160.51505822 159.42417098 160.54817051 173.33660005 C160.58188928 187.61444174 160.59707806 201.89219518 160.59245348 216.17007744 C160.59020684 224.18899291 160.59548012 232.20773821 160.62034607 240.22661972 C160.64133595 247.05380825 160.64497449 253.88073332 160.62604648 260.70793258 C160.61687382 264.19220779 160.61579127 267.67599149 160.63640213 271.16022873 C160.65447508 274.93571334 160.64193208 278.70987774 160.62145996 282.48532104 C160.63397781 283.58930359 160.64649566 284.69328613 160.65939283 285.83072269 C160.57301274 293.23061055 160.57301274 293.23061055 157.64865875 297.15716743 C153.60785251 299.96860146 150.67898767 300.12422011 145.86872864 300.12025452 C144.58832356 300.12163201 143.30791849 300.12300951 141.98871326 300.12442875 C140.56124157 300.12088191 139.13377009 300.11724401 137.70629883 300.11352539 C136.18406267 300.11321911 134.66182636 300.11335245 133.13959026 300.11389065 C129.05817416 300.11411667 124.9767873 300.10831516 120.89537811 300.10128021 C117.06741746 300.09559095 113.23946398 300.0953174 109.41149902 300.09460449 C98.2118288 300.08935436 87.01216403 300.07539324 75.8125 300.0625 C50.794375 300.041875 25.77625 300.02125 0 300 C0 201 0 102 0 0 Z " fill="#2296F3" transform="translate(288,106)"/>
<path d="M0 0 C9.57 0 19.14 0 29 0 C29.52207031 3.29355469 30.04414062 6.58710938 30.58203125 9.98046875 C33.24316472 26.6637231 36.02331434 43.32729727 38.80102539 59.99145508 C39.54908024 64.4796808 40.29486714 68.96828041 41.04014874 73.45696735 C41.61982014 76.94608361 42.20095527 80.43495488 42.78251076 83.92375755 C43.05853179 85.58105997 43.33402979 87.23844959 43.60898399 88.89592934 C43.98998369 91.19170225 44.37302724 93.48712513 44.7565918 95.7824707 C44.97324997 97.08384476 45.18990814 98.38521881 45.41313171 99.72602844 C45.85520537 102.19223185 46.34168779 104.58537981 47 107 C47.18062988 106.11666992 47.36125977 105.23333984 47.54736328 104.32324219 C50.85048996 88.18528783 54.17243099 72.05289494 57.64990234 55.95141602 C59.15092172 48.99191829 60.62641202 42.02771393 62.08203125 35.05859375 C62.17175957 34.62963303 62.17175957 34.62963303 62.62583923 32.45883179 C64.07573334 25.52699426 64.07573334 25.52699426 64.77365112 22.16491699 C65.26874099 19.78004547 65.76693348 17.39583934 66.265625 15.01171875 C66.41123367 14.30558945 66.55684235 13.59946014 66.7068634 12.87193298 C67.62589479 8.49488135 68.76568946 4.32008689 70 0 C79.24 0 88.48 0 98 0 C99.52924047 4.58772142 100.60574406 8.66746218 101.48046875 13.37890625 C101.61400757 14.09118378 101.74754639 14.8034613 101.88513184 15.537323 C102.32315281 17.87834025 102.75531239 20.22039945 103.1875 22.5625 C103.49476284 24.21044914 103.80246884 25.85831571 104.1105957 27.50610352 C104.7524672 30.94028681 105.39241416 34.37482112 106.03125 37.80957031 C107.26763032 44.44657168 108.52909086 51.07876731 109.78979492 57.71118164 C111.07704165 64.483628 112.35315017 71.25816892 113.62896729 78.03277588 C113.97724031 79.87932758 114.32718483 81.72556381 114.67724609 83.57177734 C115.24835876 86.58857471 115.81296747 89.60650001 116.375 92.625 C116.53057373 93.44025146 116.68614746 94.25550293 116.84643555 95.09545898 C117.62431596 99.31931849 118.17220384 103.50657405 118.54541016 107.78662109 C118.63166656 108.76617767 118.71792297 109.74573425 118.80679321 110.75497437 C118.87055145 111.49583282 118.93430969 112.23669128 119 113 C119.04585739 112.63594055 119.04585739 112.63594055 119.27792358 110.7935791 C121.83305684 90.68135102 124.90813552 70.69103094 128.25726318 50.69744873 C129.2411697 44.81801535 130.21660432 38.93717073 131.19199753 33.05632019 C131.52590684 31.04788033 131.86234323 29.03986111 132.19888306 27.03186035 C133.43534518 19.61008223 134.559096 12.18971476 135.55136108 4.73156738 C136 2 136 2 137 0 C145.58 0 154.16 0 163 0 C161.87634961 11.23650386 161.87634961 11.23650386 161.01953125 14.953125 C160.82818604 15.80334229 160.63684082 16.65355957 160.43969727 17.52954102 C160.33620972 17.97841675 160.33620972 17.97841675 159.8125 20.25 C157.7799512 29.33260228 155.87560089 38.43355478 154.0625 47.5625 C153.81226074 48.8203833 153.56202148 50.0782666 153.30419922 51.37426758 C152.53456569 55.24920296 151.76692927 59.12452854 151 63 C147.84293699 78.95337166 144.63764858 94.88688507 141.14306641 110.77001953 C139.4133839 118.64303841 137.80101949 126.54002652 136.1875 134.4375 C135.87317105 135.97072859 135.55871789 137.50393172 135.24414062 139.03710938 C134.49467995 142.69111765 133.74683646 146.34545434 133 150 C128.8882744 150.02465746 124.77657722 150.04283959 120.66479492 150.05493164 C119.26504772 150.0599708 117.8653058 150.06680216 116.46557617 150.07543945 C114.45754223 150.0875232 112.44947043 150.09269807 110.44140625 150.09765625 C109.23170166 150.10289307 108.02199707 150.10812988 106.77563477 150.11352539 C104 150 104 150 103 149 C102.4709728 146.54151212 101.99374612 144.09094202 101.546875 141.6171875 C101.25701478 140.05305692 100.9671378 138.48892944 100.67724609 136.92480469 C100.52600281 136.10057007 100.37475952 135.27633545 100.21893311 134.42712402 C98.08912966 122.83587046 95.93873229 111.25446182 93.375 99.75 C89.74952723 83.44576497 86.28385339 67.10932602 83.89990234 50.57128906 C83.09801543 45.09801543 83.09801543 45.09801543 82 44 C81.85304688 45.03511719 81.70609375 46.07023437 81.5546875 47.13671875 C79.53280819 60.85952033 76.71649873 74.38755936 73.85009766 87.95507812 C72.50399896 94.34296019 71.19676015 100.73888394 69.88467407 107.13381958 C66.95072642 121.42832972 63.9834241 135.71572703 61 150 C50.77 150 40.54 150 30 150 C29.34773438 146.71546875 28.69546875 143.4309375 28.0234375 140.046875 C27.36849174 136.75641248 26.71284067 133.4660912 26.05712891 130.17578125 C25.61238702 127.94220281 25.16834286 125.7084853 24.72509766 123.47460938 C22.2827557 111.16832142 19.77943347 98.87960459 17.125 86.6171875 C13.77877332 71.14010372 10.66245211 55.61888285 7.56591797 40.09033203 C6.76839296 36.09105215 5.9672779 32.09250031 5.16524696 28.09412193 C4.54107054 24.98043256 3.91870966 21.86638252 3.29691696 18.75221634 C3.00163549 17.27447859 2.70578658 15.79685411 2.40935135 14.31934738 C2.0010243 12.28276223 1.5951452 10.24570461 1.18994141 8.20849609 C0.95933014 7.05384857 0.72871887 5.89920105 0.49111938 4.70956421 C0 2 0 2 0 0 Z " fill="#FBFCFD" transform="translate(93,181)"/>
<path d="M0 0 C42.24 0 84.48 0 128 0 C128 7.26 128 14.52 128 22 C85.76 22 43.52 22 0 22 C0 14.74 0 7.48 0 0 Z " fill="#F8FBFE" transform="translate(288,245)"/>
<path d="M0 0 C42.24 0 84.48 0 128 0 C128 6.93 128 13.86 128 21 C85.76 21 43.52 21 0 21 C0 14.07 0 7.14 0 0 Z " fill="#FFFFFF" transform="translate(288,331)"/>
<path d="M0 0 C42.24 0 84.48 0 128 0 C128 6.93 128 13.86 128 21 C85.76 21 43.52 21 0 21 C0 14.07 0 7.14 0 0 Z " fill="#FEFEFF" transform="translate(288,288)"/>
<path d="M0 0 C42.24 0 84.48 0 128 0 C128 6.93 128 13.86 128 21 C85.76 21 43.52 21 0 21 C0 14.07 0 7.14 0 0 Z " fill="#FFFFFF" transform="translate(288,203)"/>
<path d="M0 0 C42.24 0 84.48 0 128 0 C128 6.93 128 13.86 128 21 C85.76 21 43.52 21 0 21 C0 14.07 0 7.14 0 0 Z " fill="#FEFEFF" transform="translate(288,160)"/>
<path d="M0 0 C0.33 0 0.66 0 1 0 C1.33 3.96 1.66 7.92 2 12 C1.01 12.33 0.02 12.66 -1 13 C-0.67 8.71 -0.34 4.42 0 0 Z " fill="#5079BB" transform="translate(175,218)"/>
</svg>
