<?xml version="1.0" encoding="UTF-8"?>
<!-- Generator: visioncortex VTracer 0.6.12 -->
<svg version="1.1" xmlns="http://www.w3.org/2000/svg" width="512" height="512">
<path d="M0 0 C7.53715211 4.57612807 13.66949644 10.44426746 19.8515625 16.67919922 C20.30568764 17.13317833 20.30568764 17.13317833 22.60383606 19.43058777 C25.07265606 21.89883834 27.53529828 24.37316777 29.9968071 26.84870672 C32.57832147 29.44279751 35.16557199 32.03115489 37.75219727 34.62014771 C42.63982277 39.51396779 47.52233136 44.41285961 52.40298367 49.31363308 C57.96377249 54.89684414 63.53030054 60.47431823 69.09729767 66.05133796 C80.53997475 77.51487119 91.97548909 88.98552185 103.40625 100.4609375 C106.70437196 99.0214706 108.86019286 97.24499598 111.3818512 94.69219971 C112.16238358 93.90719086 112.94291595 93.12218201 113.74710083 92.31338501 C114.17075424 91.88220871 114.17075424 91.88220871 116.31469727 89.70019531 C117.69593347 88.30707809 119.07717288 86.91396404 120.45853221 85.52096891 C121.94130032 84.02391968 123.42161806 82.52448338 124.90136909 81.02445221 C127.99376006 77.8906073 131.09545142 74.76608046 134.19895935 71.64324951 C143.02268551 62.76202642 151.8364841 53.87103545 160.63500977 44.96484375 C165.49558523 40.04495155 170.36526336 35.13425463 175.24486011 30.23322558 C178.32462459 27.13891561 181.39303607 24.03391933 184.45326722 20.92029619 C186.82261144 18.51638135 189.20859607 16.12919035 191.59204102 13.73925781 C192.00860962 13.31212997 192.00860962 13.31212997 194.11669922 11.15060425 C203.706207 1.60882407 212.76197123 -2.86299179 226.19775391 -2.84936523 C236.36788776 -2.63916256 242.86451371 1.02317462 250.203125 8.015625 C258.19066902 16.88123237 259.11738984 26.04289288 258.58105469 37.52099609 C257.44989701 50.07431855 246.57781786 59.58884728 238.16625977 67.92797852 C237.26790909 68.82662125 236.36955841 69.72526398 235.44398499 70.65113831 C233.00678347 73.08890812 230.56351383 75.52050918 228.11901593 77.95095944 C225.55561799 80.50176184 222.99797176 83.05831885 220.43968201 85.61424255 C215.60610498 90.44163054 210.76745761 95.26390233 205.92691797 100.08430761 C200.4113884 105.57739751 194.90161103 111.07624193 189.39228356 116.57555115 C178.06994523 127.87704591 166.74048884 139.17137699 155.40625 150.4609375 C156.84754634 153.76268876 158.63087607 155.92726497 161.18171692 158.45672607 C161.96817093 159.24159393 162.75462494 160.02646179 163.56491089 160.83511353 C163.99687271 161.2611235 163.99687271 161.2611235 166.18286133 163.41699219 C167.57839352 164.80557535 168.97392447 166.19415976 170.36940897 167.58279085 C171.86885781 169.07298787 173.37074038 170.56069289 174.87330055 172.04775238 C178.01021226 175.15279585 181.13890427 178.26603352 184.26628113 181.38067627 C192.0379483 189.11828326 199.81881614 196.84662063 207.60467529 204.56994629 C213.65148565 210.5682099 219.69501971 216.56968583 225.72805041 222.5818131 C228.83132907 225.67361648 231.94140192 228.7583618 235.05686724 231.83788252 C237.45778172 234.21495865 239.84880309 236.60191294 242.24145508 238.98730469 C243.09930603 239.83122772 243.95715698 240.67515076 244.84100342 241.54464722 C253.73335063 250.45079499 258.58969178 258.49576688 259.42578125 271.2421875 C259.36571861 281.14051022 255.95375173 289.11464056 249.40625 296.4609375 C241.66659232 303.78265367 232.9607632 306.4609375 222.40625 306.4609375 C205.93596909 304.90392424 196.20765439 293.42601556 185.10107422 282.26928711 C184.23154617 281.39990509 183.36201813 280.53052307 182.46614075 279.63479614 C180.11581531 277.28389945 177.76770906 274.93082924 175.4206214 272.57670283 C172.95477066 270.10453801 170.48602725 267.63526505 168.01760864 265.16566467 C163.35872578 260.50369198 158.70239459 255.83917955 154.04700863 251.17371517 C148.74053658 245.85600843 143.43117453 240.54119107 138.12158561 235.22659671 C127.21328859 224.30788858 116.30856857 213.38561531 105.40625 202.4609375 C102.10812804 203.9004044 99.95230714 205.67687902 97.4306488 208.22967529 C96.65011642 209.01468414 95.86958405 209.79969299 95.06539917 210.60848999 C94.21809235 211.47084259 93.37078552 212.33319519 92.49780273 213.22167969 C91.11656653 214.61479691 89.73532712 216.00791096 88.35396779 217.40090609 C86.87119968 218.89795532 85.39088194 220.39739162 83.91113091 221.89742279 C80.81873994 225.0312677 77.71704858 228.15579454 74.61354065 231.27862549 C65.78981449 240.15984858 56.9760159 249.05083955 48.17749023 257.95703125 C43.31691477 262.87692345 38.44723664 267.78762037 33.56763989 272.68864942 C30.48787541 275.78295939 27.41946393 278.88795567 24.35923278 282.00157881 C21.98988856 284.40549365 19.60390393 286.79268465 17.22045898 289.18261719 C16.38732178 290.03687286 15.55418457 290.89112854 14.69580078 291.77127075 C5.95527614 300.46829323 -3.78630733 306.36355864 -16.34765625 306.48828125 C-26.76276013 305.92334516 -36.04982158 301.58085849 -43.09765625 293.80078125 C-49.12064767 285.90796563 -51.27513788 276.66874372 -50.34375 266.81640625 C-47.75308715 251.75817842 -36.81875831 242.52559867 -26.40209961 232.15576172 C-25.53271759 231.28623367 -24.66333557 230.41670563 -23.76760864 229.52082825 C-21.41671195 227.17050281 -19.06364174 224.82239656 -16.70951533 222.4753089 C-14.23735051 220.00945816 -11.76807755 217.54071475 -9.29847717 215.07229614 C-4.63650448 210.41341328 0.02800795 205.75708209 4.69347233 201.10169613 C10.01117907 195.79522408 15.32599643 190.48586203 20.64059079 185.17627311 C31.55929892 174.26797609 42.48157219 163.36325607 53.40625 152.4609375 C51.97183604 149.18091052 50.213 147.0276799 47.67547607 144.51657104 C46.89888138 143.74300766 46.12228668 142.96944427 45.32215881 142.17243958 C44.46915695 141.33291245 43.61615509 140.49338531 42.73730469 139.62841797 C41.35917157 138.25969992 39.98104066 136.89097965 38.60299253 135.52217603 C37.12213421 134.05308385 35.63886561 132.58646347 34.15496063 131.12044907 C31.05514698 128.05730285 27.964108 124.98540411 24.87457275 121.91189575 C16.08806203 113.1736179 7.28997967 104.44704745 -1.51708984 95.72949219 C-6.38234405 90.91353375 -11.24022631 86.09025743 -16.09049487 81.25920594 C-19.15318239 78.20952132 -22.22461657 75.16903144 -25.30306959 72.13526607 C-27.67927504 69.78828539 -30.04215604 67.4280237 -32.40722656 65.06982422 C-32.82967903 64.65613335 -32.82967903 64.65613335 -34.96754456 62.56260681 C-43.00385608 54.49969026 -49.70559485 45.52122842 -49.97485352 33.75244141 C-49.93919772 21.82628996 -47.42156884 14.41663747 -39.109375 5.6640625 C-28.5442642 -3.58861217 -12.81025243 -5.59253557 0 0 Z " fill="#000000" transform="translate(151.59375,104.5390625)"/>
</svg>
