<?xml version="1.0" encoding="UTF-8"?>
<!-- Generator: visioncortex VTracer 0.6.12 -->
<svg version="1.1" xmlns="http://www.w3.org/2000/svg" width="512" height="512">
<path d="M0 0 C4.95462516 4.13687149 7.06042116 8.77362064 9.5625 14.5625 C9.77314087 15.0376001 9.77314087 15.0376001 10.83911133 17.44189453 C12.24182135 20.62130246 13.62348843 23.80916581 15 27 C15.50047852 28.15838379 16.00095703 29.31676758 16.51660156 30.51025391 C19.09656386 36.49313945 21.66139167 42.48231809 24.21484375 48.4765625 C27.42417629 56.00753447 30.69686143 63.50978436 34 71 C39.97586887 59.57438425 44.99174564 47.73955302 50.11108398 35.9140625 C52.70601033 29.9270224 55.32452903 23.95153567 58 18 C58.32349426 17.28034058 58.64698853 16.56068115 58.98028564 15.81921387 C59.86488012 13.87757898 60.77217451 11.94887267 61.69140625 10.0234375 C61.94055786 9.49580811 61.94055786 9.49580811 63.20141602 6.82568359 C66.21280877 2.09460449 70.47044094 -1.61761023 76 -3 C84.28216618 -3.82969822 92.36959844 -2.81541345 99.0625 2.375 C102.55250907 7.10339939 102.14154146 12.2222313 102.11352539 17.91137695 C102.11367142 18.69239273 102.11381744 19.47340851 102.1139679 20.27809143 C102.1132737 22.84818339 102.10550446 25.41820202 102.09765625 27.98828125 C102.09579032 29.77475444 102.09436724 31.56122814 102.09336853 33.34770203 C102.08955716 38.04124371 102.07973867 42.73475427 102.06866455 47.42828369 C102.05842075 52.22106505 102.05386455 57.01385146 102.04882812 61.80664062 C102.03811514 71.20444293 102.02052953 80.602214 102 90 C94.74 90 87.48 90 80 90 C79.67 67.56 79.34 45.12 79 22 C76.03 28.55875 73.06 35.1175 70 41.875 C69.54044922 42.88941162 69.54044922 42.88941162 67.21484375 48.02294922 C66.83344238 48.8656839 66.45204102 49.70841858 66.05908203 50.57669067 C65.27049491 52.31897641 64.48102783 54.060864 63.69091797 55.80245972 C61.67149643 60.26261639 59.67429901 64.72996215 57.73046875 69.22363281 C57.37412354 70.04276154 57.01777832 70.86189026 56.65063477 71.70584106 C55.98960501 73.22976169 55.33466419 74.75634517 54.68725586 76.28610229 C52.42612862 81.48695615 50.10025999 85.67061106 45.1796875 88.78515625 C41.6292276 90.14165874 38.91868348 90.43327541 35.125 90.4375 C34.54878906 90.44716797 34.54878906 90.44716797 31.6328125 90.49609375 C27.13762107 89.88223428 23.75224026 88.55461188 20 86 C18.32493543 83.62217846 17.26634183 81.80690355 16.1484375 79.19921875 C15.82853851 78.50970627 15.50863953 77.82019379 15.17904663 77.10978699 C14.09351698 74.75074651 13.0471959 72.37628467 12 70 C11.17784139 68.18492292 10.35387494 66.37066389 9.52832031 64.55712891 C6.85609299 58.65880471 4.23884601 52.73686746 1.625 46.8125 C0.71517 44.759621 -0.1949844 42.70688574 -1.10546875 40.65429688 C-1.97424998 38.69283749 -2.84275014 36.73125357 -3.7109375 34.76953125 C-4.11299408 33.86121048 -4.51505066 32.95288971 -4.92929077 32.01704407 C-5.11651199 31.59258751 -5.11651199 31.59258751 -6.06396484 29.44458008 C-6.39069183 28.70452225 -6.71741882 27.96446442 -7.05404663 27.20198059 C-8.07782352 24.81884322 -9.03671089 22.40822278 -10 20 C-10.33 43.1 -10.66 66.2 -11 90 C-17.93 90 -24.86 90 -32 90 C-32.11302793 79.15140566 -32.20473174 68.30320331 -32.25906086 57.45415306 C-32.28513811 52.41631544 -32.32050212 47.37890206 -32.37719727 42.34130859 C-32.4315836 37.47834742 -32.46143463 32.6157939 -32.47438622 27.75255203 C-32.4836142 25.89858204 -32.50163466 24.04463398 -32.52865028 22.19083786 C-32.56502939 19.59076746 -32.56994177 16.99237442 -32.56762695 14.39208984 C-32.58560333 13.62819946 -32.60357971 12.86430908 -32.62210083 12.07727051 C-32.58417686 8.13201116 -32.05636725 5.58875703 -29.60978699 2.5531311 C-22.06406338 -4.82878233 -8.87086451 -5.04421708 0 0 Z " fill="#00786A" transform="translate(32,284)"/>
<path d="M0 0 C1.1871611 -0.00428513 2.3743222 -0.00857025 3.59745789 -0.01298523 C6.10297001 -0.01871424 8.60849877 -0.01923936 11.11401367 -0.01489258 C14.92591075 -0.01173804 18.73702716 -0.03519231 22.54882812 -0.06054688 C24.99088444 -0.0628207 27.43294284 -0.06352298 29.875 -0.0625 C31.00448563 -0.07170975 32.13397125 -0.08091949 33.29768372 -0.09040833 C42.74902597 -0.03578701 50.88780341 1.12544274 58.1640625 7.5078125 C61.82001857 11.95896325 63.01262294 16.07402206 63.02490234 21.76171875 C63.03435883 23.02322754 63.04381531 24.28473633 63.05355835 25.58447266 C63.04818813 26.94824541 63.04203505 28.31201527 63.03515625 29.67578125 C63.03717963 31.08772939 63.04009328 32.49967651 63.04385376 33.91162109 C63.04826471 36.86370848 63.04188608 39.81552263 63.02783203 42.76757812 C63.01074049 46.54033155 63.02058833 50.3124446 63.03854942 54.08517456 C63.04942077 56.99866509 63.04592567 59.91200528 63.03816605 62.82550049 C63.03617328 64.21608558 63.03859071 65.60668459 63.04560471 66.99725342 C63.05327361 68.94478066 63.03950104 70.89235613 63.02490234 72.83984375 C63.02251556 73.94537598 63.02012878 75.0509082 63.01766968 76.18994141 C62.43153593 80.97630126 60.49649129 85.28008969 56.63671875 88.30078125 C55.97671875 88.30078125 55.31671875 88.30078125 54.63671875 88.30078125 C58.47604635 93.00395756 62.43697319 97.02533833 67.09765625 100.91796875 C67.60554688 101.37429688 68.1134375 101.830625 68.63671875 102.30078125 C68.63671875 102.63078125 68.63671875 102.96078125 68.63671875 103.30078125 C64.67968464 103.56533724 60.72495107 103.72300954 56.76171875 103.86328125 C56.20742188 103.90098633 56.20742188 103.90098633 53.40234375 104.09179688 C44.79004119 104.31976959 44.79004119 104.31976959 41.35620117 101.28588867 C40.64052979 100.47095947 39.9248584 99.65603027 39.1875 98.81640625 C34.27177087 93.77196969 30.15361094 93.45183972 23.421875 93.34375 C19.51131193 93.31986024 15.60844936 93.39151654 11.69921875 93.48828125 C7.79416224 93.5499619 3.8899071 93.58521991 -0.015625 93.59375 C-0.47795029 93.59488045 -0.47795029 93.59488045 -2.81759644 93.6006012 C-11.06408423 93.50842008 -18.10986093 91.90737701 -24.86328125 86.98828125 C-31.38945246 79.9726472 -30.81759611 72.4762931 -30.796875 63.3359375 C-30.80144391 61.97504925 -30.80675159 60.6141633 -30.8127594 59.25328064 C-30.82166189 56.40972483 -30.81930049 53.56645031 -30.80932617 50.72290039 C-30.79784079 47.09707798 -30.81805442 43.47223017 -30.84724331 39.84653568 C-30.86567894 37.03846677 -30.86529836 34.23062827 -30.85960579 31.42251396 C-30.85937994 29.44180526 -30.876208 27.46111796 -30.89341736 25.48048401 C-30.83801542 18.28670723 -30.36150809 13.3615961 -26.36328125 7.30078125 C-18.62850554 0.10371163 -10.10501478 -0.00811036 0 0 Z M-7.23828125 16.23828125 C-9.20899361 19.85125392 -9.49211437 23.17532026 -9.52441406 27.24951172 C-9.53402161 28.23088104 -9.54362915 29.21225037 -9.55352783 30.22335815 C-9.55777771 31.27757965 -9.56202759 32.33180115 -9.56640625 33.41796875 C-9.57210632 34.50788116 -9.5778064 35.59779358 -9.5836792 36.72073364 C-9.59312058 39.02556388 -9.59965975 41.33040756 -9.60351562 43.63525391 C-9.61322535 47.15551336 -9.64425923 50.67518992 -9.67578125 54.1953125 C-9.68231122 56.43619446 -9.68756172 58.67708058 -9.69140625 60.91796875 C-9.70375305 61.96814178 -9.71609985 63.01831482 -9.7288208 64.10031128 C-9.71216136 69.58300175 -9.52129847 73.59909582 -6.36328125 78.30078125 C-1.92374877 82.47753766 1.81158943 82.73313982 7.62890625 82.65234375 C8.58023438 82.61882812 9.5315625 82.5853125 10.51171875 82.55078125 C11.48625 82.53273438 12.46078125 82.5146875 13.46484375 82.49609375 C15.85649682 82.44919859 18.24608472 82.38359032 20.63671875 82.30078125 C19.89421875 81.55828125 19.15171875 80.81578125 18.38671875 80.05078125 C16.13671875 77.80078125 13.88671875 75.55078125 11.63671875 73.30078125 C15.57407998 73.21381948 19.51119503 73.1604029 23.44921875 73.11328125 C24.56876953 73.08814453 25.68832031 73.06300781 26.84179688 73.03710938 C27.91494141 73.02744141 28.98808594 73.01777344 30.09375 73.0078125 C31.0835083 72.99210205 32.0732666 72.9763916 33.09301758 72.96020508 C36.05413422 73.35666901 36.73742059 74.09974239 38.63671875 76.30078125 C39.29671875 76.30078125 39.95671875 76.30078125 40.63671875 76.30078125 C41.88628671 73.80164534 41.77714179 72.0843795 41.79785156 69.2878418 C41.80745911 68.24303146 41.81706665 67.19822113 41.82696533 66.12174988 C41.83121521 64.98844742 41.83546509 63.85514496 41.83984375 62.6875 C41.84269379 62.10664894 41.84269379 62.10664894 41.8571167 59.16719055 C41.86657671 56.70497552 41.87310464 54.24274777 41.87695312 51.78051758 C41.88665185 48.01426052 41.91766383 44.2485506 41.94921875 40.48242188 C41.9557493 38.09245116 41.96099957 35.70247654 41.96484375 33.3125 C41.97719055 32.18527023 41.98953735 31.05804047 42.0022583 29.89665222 C41.9992572 28.84238541 41.9962561 27.78811859 41.99316406 26.7019043 C41.99680969 25.77750046 42.00045532 24.85309662 42.00421143 23.90068054 C41.38642673 19.53004107 39.36255965 16.95403806 36.13671875 14.05078125 C30.71795173 10.25764434 24.78150929 11.07921501 18.40478516 11.06054688 C16.4077557 11.05088305 14.41086823 11.01969609 12.4140625 10.98828125 C-2.10070983 10.92945745 -2.10070983 10.92945745 -7.23828125 16.23828125 Z " fill="#F47E16" transform="translate(357.36328125,280.69921875)"/>
<path d="M0 0 C8.80714641 4.42322077 8.80714641 4.42322077 12.26293945 7.45849609 C15.50466529 9.79720597 18.45789566 9.98903485 22.3215332 10.25927734 C46.05149456 12.73820601 68.31000924 29.7109869 83.15112305 47.97216797 C92.38524817 59.79738923 99.40074243 72.05967103 105.19946289 85.88623047 C108.03009161 92.62490648 111.01241773 99.2753173 114.1340332 105.88427734 C114.55080322 106.77880615 114.96757324 107.67333496 115.39697266 108.5949707 C115.79231201 109.42520752 116.18765137 110.25544434 116.5949707 111.11083984 C116.76794678 111.47604736 116.76794678 111.47604736 117.64331055 113.32421875 C120.38334246 118.07640539 124.28227528 119.47042213 129.1965332 121.44677734 C136.68486999 124.60193285 143.19673261 128.43533452 149.7590332 133.25927734 C150.31252441 133.65550293 150.86601562 134.05172852 151.4362793 134.45996094 C165.28693954 144.39436157 165.28693954 144.39436157 168.7590332 151.25927734 C168.7590332 152.24927734 168.7590332 153.23927734 168.7590332 154.25927734 C159.81535745 156.60761679 150.83529816 158.51098041 141.7590332 160.25927734 C141.7590332 160.91927734 141.7590332 161.57927734 141.7590332 162.25927734 C143.7355957 163.84521484 143.7355957 163.84521484 146.3840332 165.63427734 C147.30442383 166.26333984 148.22481445 166.89240234 149.1730957 167.54052734 C151.01700016 168.76608318 152.88153149 169.96083877 154.7590332 171.13427734 C173.25270409 184.23396089 173.25270409 184.23396089 175.44262695 192.99365234 C175.54704102 193.74130859 175.65145508 194.48896484 175.7590332 195.25927734 C172.53688493 193.79132825 169.97878003 191.93862959 167.1965332 189.75927734 C161.36513061 185.43680911 155.15414218 182.16214268 148.66113281 178.93701172 C141.60136316 175.37743935 134.60603058 171.50403801 130.3215332 164.63427734 C129.84844727 163.89951172 129.37536133 163.16474609 128.88793945 162.40771484 C127.80334506 160.34360787 127.20757934 158.53809796 126.7590332 156.25927734 C135.08003588 149.53125942 146.50021611 149.34116252 156.7590332 148.25927734 C145.58652804 139.84071634 134.99626277 132.48104425 121.58276367 128.33691406 C115.85851061 126.52677235 112.13410076 124.52204674 108.9074707 119.21240234 C108.30298755 117.98450367 107.7127362 116.74953453 107.1340332 115.50927734 C106.80338867 114.82607422 106.47274414 114.14287109 106.13208008 113.43896484 C103.08476573 107.08807206 100.18502119 100.66666781 97.2590332 94.25927734 C84.05337662 65.35496745 84.05337662 65.35496745 74.7590332 54.25927734 C73.92629883 53.26283203 73.09356445 52.26638672 72.2355957 51.23974609 C60.65270467 37.81529586 42.05909315 21.3442212 23.64575195 19.77490234 C22.24612973 19.68452448 20.84638519 19.59602375 19.4465332 19.50927734 C12.50778873 18.89224893 8.02822581 17.23563488 2.3137207 13.07568359 C-3.84205476 8.69887077 -10.69015106 5.76266506 -18.2409668 5.25927734 C-17.70320936 11.98124532 -15.26333534 15.61918145 -11.2331543 20.88037109 C-4.11435521 30.35021268 0.11198849 40.78906517 4.66040039 51.66943359 C10.29273316 64.94671938 10.29273316 64.94671938 14.6965332 69.44677734 C16.87965708 72.42376445 17.08366457 72.8641398 16.8215332 76.32177734 C16.18337037 80.09444584 14.96850817 83.53339858 13.6965332 87.13427734 C9.53782793 100.14356051 10.71541889 113.70546361 15.7590332 126.25927734 C16.05036133 127.17966797 16.34168945 128.10005859 16.6418457 129.04833984 C17.7590332 131.25927734 17.7590332 131.25927734 19.8840332 132.07177734 C20.5027832 132.13365234 21.1215332 132.19552734 21.7590332 132.25927734 C21.7280957 131.64052734 21.7280957 131.64052734 21.5715332 128.50927734 C21.61396217 119.52848028 23.71018613 111.69686265 29.2590332 104.58740234 C30.7590332 103.25927734 30.7590332 103.25927734 33.7590332 103.25927734 C33.94208008 103.75685547 33.94208008 103.75685547 34.8684082 106.27490234 C38.15441567 114.87356654 42.01301972 122.86512451 46.7590332 130.75927734 C47.2446875 131.57041992 47.7303418 132.3815625 48.23071289 133.21728516 C52.9674037 140.92663602 58.26884144 147.95451963 64.7590332 154.25927734 C65.4190332 155.24927734 66.0790332 156.23927734 66.7590332 157.25927734 C62.58618919 156.75478843 60.77023607 155.71359963 57.9465332 152.63427734 C55.32100384 149.86096959 52.68486788 147.27625948 49.7590332 144.82177734 C42.53808431 138.56551317 36.9809894 131.84527481 32.7590332 123.25927734 C32.67975586 123.74138672 32.67975586 123.74138672 32.27856445 126.18115234 C32.04524414 127.44443359 31.81192383 128.70771484 31.5715332 130.00927734 C31.35110352 131.26224609 31.13067383 132.51521484 30.90356445 133.80615234 C29.57711533 137.80813535 28.29753576 139.06389542 24.7590332 141.25927734 C21.45602695 142.06667887 19.69551948 141.81969433 16.7746582 140.07177734 C8.52893772 133.62399591 5.42009204 124.28488096 3.7590332 114.25927734 C3.45674901 111.08629429 3.37928789 107.94559965 3.3840332 104.75927734 C3.38302612 104.3303418 3.38302612 104.3303418 3.37792969 102.15966797 C3.48340895 95.38402962 4.5745516 89.14849078 6.42358398 82.64013672 C8.16258573 76.48744814 8.16258573 76.48744814 6.7590332 73.25927734 C5.9506756 71.81598142 5.0898512 70.40158769 4.1965332 69.00927734 C-1.35364815 59.9502073 -6.19744002 50.46887328 -9.7409668 40.44677734 C-12.17068874 33.82026295 -15.9833405 28.81991987 -20.2409668 23.25927734 C-24.44942477 17.44039465 -27.19415668 12.80856707 -26.69799805 5.45849609 C-26.01107876 2.15306395 -24.77678474 0.45241718 -22.2409668 -1.74072266 C-14.47170776 -5.44406946 -7.4662824 -3.57367794 0 0 Z " fill="#00776A" transform="translate(333.240966796875,120.74072265625)"/>
<path d="M0 0 C6.93 0 13.86 0 21 0 C21.03738281 3.20203125 21.07476562 6.4040625 21.11328125 9.703125 C21.15949227 12.80426873 21.21072754 15.90529156 21.26245117 19.00634766 C21.2957054 21.16154636 21.32373577 23.31683226 21.34643555 25.47216797 C21.379972 28.57036497 21.43228803 31.66776255 21.48828125 34.765625 C21.49467117 35.72929993 21.5010611 36.69297485 21.50764465 37.68585205 C21.51754173 38.13616791 21.51754173 38.13616791 21.56762695 40.41503906 C21.57873001 41.20557678 21.58983307 41.9961145 21.60127258 42.81060791 C22.10497012 45.5763856 23.09095599 46.9582083 25 49 C28.53977248 50.17992416 31.82270494 50.22922727 35.51171875 50.31640625 C36.15741821 50.33505737 36.80311768 50.3537085 37.46838379 50.3729248 C39.87462001 50.44109373 42.28107583 50.50132457 44.6875 50.5625 C50.070625 50.706875 55.45375 50.85125 61 51 C61 34.17 61 17.34 61 0 C68.26 0 75.52 0 83 0 C83.06786404 8.7624653 83.12286684 17.52475511 83.15543652 26.28742409 C83.17107087 30.35659195 83.19226809 34.42557017 83.22631836 38.49462891 C83.25899183 42.42389151 83.27686979 46.35297207 83.28463173 50.28236008 C83.29016095 51.77903482 83.30095824 53.27569997 83.31719017 54.77229691 C83.33907143 56.87396777 83.34196258 58.97489312 83.34057617 61.07666016 C83.34390709 61.67400467 83.34390709 61.67400467 83.36076355 64.69692993 C82.79969897 69.83391124 80.95292796 73.02438328 77.375 76.6875 C68.12708329 83.82422977 55.66466422 83.14386832 44.62890625 83.09765625 C43.35144028 83.0962413 42.0739743 83.09482635 40.75779724 83.09336853 C37.38275254 83.08873516 34.00777703 83.07977023 30.63275146 83.06866455 C27.18030389 83.05838426 23.72784913 83.05385681 20.27539062 83.04882812 C13.51690569 83.03782466 6.7584623 83.02057322 0 83 C0 79.37 0 75.74 0 72 C1.50828369 71.98018066 3.01656738 71.96036133 4.57055664 71.93994141 C10.18221341 71.86370015 15.79361715 71.77501104 21.4050293 71.68261719 C23.83075962 71.64440396 26.25654513 71.60953789 28.68237305 71.578125 C32.17516767 71.53230847 35.66758489 71.47434059 39.16015625 71.4140625 C40.23959 71.40251129 41.31902374 71.39096008 42.4311676 71.37905884 C55.88284503 71.11715497 55.88284503 71.11715497 60 67 C60.625 64.375 60.625 64.375 61 62 C59.84064941 62.01571045 58.68129883 62.0314209 57.48681641 62.04760742 C53.14444046 62.10231743 48.80209436 62.13649808 44.45947266 62.16479492 C42.58767557 62.17978865 40.71591306 62.2001905 38.84423828 62.22631836 C13.22086832 62.57479619 13.22086832 62.57479619 2.36254883 52.56982422 C-1.23943733 48.13659759 -0.62363189 43.15439345 -0.48828125 37.6953125 C-0.48120651 36.61619598 -0.47413177 35.53707947 -0.46684265 34.42526245 C-0.43893662 30.99112552 -0.37620169 27.55864106 -0.3125 24.125 C-0.28741239 21.79169027 -0.26460004 19.4583549 -0.24414062 17.125 C-0.18912174 11.41603355 -0.10287215 5.70829659 0 0 Z " fill="#00786A" transform="translate(143,312)"/>
<path d="M0 0 C0.62763496 0.00070747 0.62763496 0.00070747 3.80384827 0.00428772 C7.11970976 0.00892049 10.43550077 0.01788486 13.75134277 0.0289917 C17.14346716 0.03927333 20.53559886 0.04379972 23.92773438 0.04882812 C30.56773011 0.05983054 37.20768355 0.07708142 43.84765625 0.09765625 C43.84765625 3.72765625 43.84765625 7.35765625 43.84765625 11.09765625 C43.05798462 11.10494751 43.05798462 11.10494751 39.06176758 11.1418457 C33.20037226 11.19983178 27.33936098 11.27706553 21.47827148 11.36010742 C18.94187657 11.39335513 16.40540769 11.4213875 13.86889648 11.4440918 C10.22217297 11.47763965 6.57612714 11.52995777 2.9296875 11.5859375 C2.36293556 11.58913246 2.36293556 11.58913246 -0.50517273 11.6053009 C-1.56589493 11.62509506 -2.62661713 11.64488922 -3.71948242 11.6652832 C-4.64991867 11.67638626 -5.58035492 11.68748932 -6.53898621 11.69892883 C-9.69038523 12.17974677 -11.57516982 13.24656909 -14.15234375 15.09765625 C-17.74059138 20.170696 -17.71164067 25.11959736 -17.15234375 31.09765625 C-16.63439132 33.84236142 -15.94753597 36.4138825 -15.15234375 39.09765625 C-11.37146584 40.29310745 -7.60188171 40.28450094 -3.67578125 40.34375 C-2.18489059 40.3767169 -0.69400532 40.40992802 0.796875 40.44335938 C3.12674915 40.49048427 5.45660615 40.53488361 7.78662109 40.57446289 C33.420333 41.0305496 33.420333 41.0305496 40.84765625 48.09765625 C44.65966375 53.60096823 44.29591247 59.15924848 44.22265625 65.59765625 C44.23425781 66.61730469 44.24585938 67.63695312 44.2578125 68.6875 C44.22990571 75.84093937 43.45578593 80.48952657 38.22265625 85.72265625 C31.25275146 91.11086195 23.46874518 93.22949012 14.7722168 93.21118164 C13.57134933 93.21110611 12.37048187 93.21103058 11.13322449 93.21095276 C9.84660416 93.20579147 8.55998383 93.20063019 7.234375 93.1953125 C5.89630689 93.19344581 4.5582381 93.19202309 3.22016907 93.19102478 C-0.28970245 93.18721939 -3.79953214 93.17740613 -7.30938721 93.1663208 C-10.89570551 93.15606402 -14.48203061 93.15151804 -18.06835938 93.14648438 C-25.09637301 93.13578197 -32.12435206 93.11820131 -39.15234375 93.09765625 C-39.15234375 89.46765625 -39.15234375 85.83765625 -39.15234375 82.09765625 C-37.51241455 82.09354736 -35.87248535 82.08943848 -34.18286133 82.08520508 C-28.09774353 82.06343167 -22.01327398 82.00915888 -15.9284668 81.94506836 C-13.29506646 81.92187303 -10.66157315 81.90748909 -8.02807617 81.90209961 C-4.24208532 81.89282197 -0.45756 81.85185248 3.328125 81.8046875 C4.50537643 81.80862015 5.68262787 81.8125528 6.89555359 81.81660461 C15.02371485 81.67155781 15.02371485 81.67155781 19.09301758 78.8371582 C20.86303735 76.07364187 21.47189253 74.78667524 21.44140625 71.55859375 C21.44011719 71.14480469 21.44011719 71.14480469 21.43359375 69.05078125 C21.40523438 68.2 21.376875 67.34921875 21.34765625 66.47265625 C21.35023438 65.61414063 21.3528125 64.755625 21.35546875 63.87109375 C21.2577745 57.61866164 21.2577745 57.61866164 19.50585938 55.39306641 C16.39638163 52.96390137 13.57773891 52.99489138 9.796875 53.0703125 C9.29579224 53.07724121 9.29579224 53.07724121 6.76000977 53.11230469 C6.22790894 53.1202002 6.22790894 53.1202002 3.53515625 53.16015625 C-24.82092931 53.3371579 -24.82092931 53.3371579 -35.08984375 44.59765625 C-39.72789271 38.97577873 -39.48785627 34.28289846 -39.46484375 27.22265625 C-39.48095703 26.24167969 -39.49707031 25.26070313 -39.51367188 24.25 C-39.51799637 17.84109776 -38.90422889 13.36997562 -34.64453125 8.3046875 C-24.65431435 -0.31006476 -12.56101596 -0.05354939 0 0 Z " fill="#F47E16" transform="translate(274.15234375,280.90234375)"/>
<path d="M0 0 C6.93 0 13.86 0 21 0 C21.00410889 2.24578857 21.00821777 4.49157715 21.01245117 6.80541992 C21.02965666 14.22956392 21.07417147 21.65336381 21.13209057 29.07729626 C21.16636634 33.57804705 21.19147142 38.07845821 21.19555664 42.5793457 C21.1998384 46.92388668 21.22829018 51.26766142 21.27343178 55.61196327 C21.28641084 57.26848193 21.29071298 58.92509227 21.28615379 60.5816555 C21.28125029 62.90447865 21.30732391 65.22506007 21.34057617 67.54760742 C21.33626335 67.88927193 21.33626335 67.88927193 21.31443787 69.61830139 C21.40491106 73.39367999 21.94472689 74.93182136 24.35371399 77.90327454 C27.99357892 80.78724001 30.60908298 81.12896751 35.11401367 81.20532227 C35.63443993 81.21529488 35.63443993 81.21529488 38.26811218 81.26576233 C39.39006485 81.28247482 40.51201752 81.29918732 41.66796875 81.31640625 C42.2429435 81.3267968 42.2429435 81.3267968 45.15266418 81.37937927 C48.83088125 81.44483342 52.50917048 81.50374074 56.1875 81.5625 C58.67904396 81.60568913 61.17058059 81.64930355 63.66210938 81.69335938 C69.77466538 81.80051065 75.88729406 81.90178997 82 82 C82 85.63 82 89.26 82 93 C74.20203169 93.04535528 66.40413672 93.08197588 58.60607243 93.10362434 C54.98432031 93.11401947 51.36266387 93.12809965 47.7409668 93.15087891 C44.23963429 93.17276092 40.73839326 93.18460067 37.2369976 93.18975449 C35.26466222 93.1951966 33.29236315 93.21078449 31.32008362 93.22659302 C14.72620482 93.22864671 14.72620482 93.22864671 7.6875 88.8125 C7.07261719 88.44769531 6.45773437 88.08289063 5.82421875 87.70703125 C1.95288266 84.08438913 0.16510263 80.31834379 -0.48101807 75.15907288 C-0.49244919 73.75718952 -0.48235109 72.35501445 -0.45410156 70.95336914 C-0.45468567 70.18181488 -0.45526978 69.41026062 -0.45587158 68.61532593 C-0.45310503 66.08813038 -0.42208282 63.56214339 -0.390625 61.03515625 C-0.38315748 59.27396794 -0.37746696 57.51277127 -0.37347412 55.75157166 C-0.35825796 51.13346099 -0.31901124 46.5158597 -0.2746582 41.89794922 C-0.23361842 37.17878102 -0.21544457 32.45952989 -0.1953125 27.74023438 C-0.15251255 18.49323066 -0.08219603 9.24673753 0 0 Z " fill="#F47E16" transform="translate(430,281)"/>
<path d="M0 0 C2.875 2.625 2.875 2.625 5 6 C4.8782081 9.16658935 4.40640125 11.1871975 3 14 C2.01 14 1.02 14 0 14 C-0.79275148 12.5839401 -1.58415312 11.16712447 -2.375 9.75 C-2.59542969 9.35554687 -2.59542969 9.35554687 -3.7109375 7.359375 C-4.85747823 5.26085803 -5.94649552 3.1463923 -7 1 C-4.32590305 -0.33704848 -2.97186266 -0.4837916 0 0 Z " fill="#007467" transform="translate(354,151)"/>
</svg>
