<?xml version="1.0" encoding="UTF-8"?>
<!-- Generator: visioncortex VTracer 0.6.12 -->
<svg version="1.1" xmlns="http://www.w3.org/2000/svg" width="512" height="512">
<path d="M0 0 C7.26 0 14.52 0 22 0 C22 43.23 22 86.46 22 131 C13.75 131.99 5.5 132.98 -3 134 C-7.49984977 125.00030045 -7.49984977 125.00030045 -8.91943359 121.38256836 C-9.2401181 120.57069565 -9.56080261 119.75882294 -9.89120483 118.92234802 C-10.22359161 118.07012161 -10.55597839 117.2178952 -10.8984375 116.33984375 C-11.25588043 115.4323085 -11.61332336 114.52477325 -11.9815979 113.58973694 C-13.11618047 110.70699942 -14.24574415 107.82232776 -15.375 104.9375 C-16.49824903 102.07812189 -17.6225366 99.21915385 -18.74697876 96.36024475 C-19.44256123 94.59062547 -20.13728859 92.82066967 -20.8309021 91.05027771 C-23.84973457 83.35118105 -26.9283832 75.679042 -30 68 C-30 90.77 -30 113.54 -30 137 C-48 140 -48 140 -53 140 C-53 94.13 -53 48.26 -53 1 C-45.74 1 -38.48 1 -31 1 C-26.18749014 11.17945635 -21.87799642 21.49101333 -17.6875 31.9375 C-12.16990834 45.6437948 -6.59451889 59.32450938 -1 73 C-0.67 48.91 -0.34 24.82 0 0 Z " fill="#F44235" transform="translate(53,192)"/>
<path d="M0 0 C8.25 0 16.5 0 25 0 C25.85464844 2.29839844 26.70929688 4.59679687 27.58984375 6.96484375 C28.41657869 9.18245642 29.2442535 11.39971612 30.07202148 13.61694336 C30.64820245 15.1618235 31.22340076 16.7070705 31.79760742 18.25268555 C32.62162267 20.47020372 33.44912643 22.68639215 34.27734375 24.90234375 C34.53466782 25.5971434 34.79199188 26.29194305 35.05711365 27.00779724 C36.88612829 31.88612829 36.88612829 31.88612829 38 33 C38.38857178 32.03586182 38.77714355 31.07172363 39.17749023 30.07836914 C40.61551488 26.51222465 42.05687679 22.94743715 43.49926758 19.38305664 C44.12388226 17.83817959 44.74758296 16.29293268 45.37036133 14.74731445 C46.26405448 12.52978945 47.16099224 10.31360161 48.05859375 8.09765625 C48.3377916 7.4028566 48.61698944 6.70805695 48.90464783 5.99220276 C50.88612829 1.11387171 50.88612829 1.11387171 52 0 C53.78071246 -0.08726223 55.5648314 -0.10699041 57.34765625 -0.09765625 C58.42724609 -0.09443359 59.50683594 -0.09121094 60.61914062 -0.08789062 C61.18729492 -0.08370117 61.18729492 -0.08370117 64.0625 -0.0625 C64.63258789 -0.06024414 64.63258789 -0.06024414 67.51757812 -0.04882812 C70.34510351 -0.03699747 73.1725264 -0.0205141 76 0 C75.29775692 5.11438813 73.20977423 9.61815783 71.2109375 14.33203125 C70.82942535 15.24143967 70.44791321 16.15084808 70.05484009 17.08781433 C68.83256531 19.99788945 67.60374274 22.90515092 66.375 25.8125 C65.57121426 27.72574332 64.76782497 29.63915326 63.96484375 31.55273438 C63.17210279 33.43759582 62.37913602 35.32236231 61.5859375 37.20703125 C61.39216522 37.66835953 61.39216522 37.66835953 60.41156006 40.00296021 C58.6028115 44.28910259 56.76420412 48.55338936 54.81738281 52.77880859 C54.48404938 53.50944016 54.15071594 54.24007172 53.80728149 54.99284363 C53.19129169 56.33435287 52.56428845 57.6708863 51.92391968 59.00093079 C49.37346459 64.57150176 50.47651235 67.59834028 52.43945312 73.07397461 C53.04917963 74.68502901 53.66339397 76.29438957 54.28125 77.90234375 C54.61108887 78.76898148 54.94092773 79.6356192 55.28076172 80.52851868 C56.34983309 83.33306115 57.4248925 86.1352666 58.5 88.9375 C59.23127582 90.85443267 59.96239548 92.77142492 60.69335938 94.68847656 C64.81280847 105.46393209 68.97228035 116.215758 73.61132812 126.78100586 C75.43450496 131.04399564 76.42267539 134.25999746 76 139 C74.24951008 138.88205919 72.4996282 138.75510056 70.75 138.625 C69.77546875 138.55539062 68.8009375 138.48578125 67.796875 138.4140625 C66.54390625 138.27742187 65.2909375 138.14078125 64 138 C63.06559082 138.03633545 62.13118164 138.0726709 61.16845703 138.11010742 C57.53801684 138.00450186 55.25450473 137.65341048 52 136 C48.426797 130.74282014 46.46278814 125.03198752 44.375 119.0625 C43.77670466 117.45727393 43.17388023 115.85372821 42.56640625 114.25195312 C41.71216272 111.9973609 40.86541638 109.7425609 40.05331421 107.47242737 C38.93462276 104.34897232 37.85159 101.777385 36 99 C35.61666504 99.8878418 35.23333008 100.77568359 34.83837891 101.69042969 C33.41195669 104.993336 31.98403411 108.29559188 30.55566406 111.59765625 C29.93839417 113.02521432 29.32152793 114.45294699 28.70507812 115.88085938 C27.81747534 117.93666196 26.92840913 119.99182631 26.0390625 122.046875 C25.76502594 122.68244324 25.49098938 123.31801147 25.20864868 123.97283936 C23.88287942 127.03254378 22.49249963 130.01500073 21 133 C13.41 132.01 5.82 131.02 -2 130 C-1.22857387 125.37144319 -0.59743284 122.64472463 1.265625 118.5625 C1.73782471 117.51666748 2.21002441 116.47083496 2.6965332 115.39331055 C3.20917725 114.27351807 3.72182129 113.15372559 4.25 112 C5.05385073 110.21104655 5.85767155 108.42207923 6.66011047 106.63249207 C8.40722819 102.73909857 10.16274409 98.84947321 11.92266846 94.96185303 C13.77425701 90.87106654 15.61146663 86.77437933 17.42980957 82.66870117 C18.01528496 81.35459999 18.60646486 80.04302462 19.20349121 78.73413086 C20.04163843 76.89550054 20.85913404 75.04749891 21.67578125 73.19921875 C22.14927002 72.14565186 22.62275879 71.09208496 23.1105957 70.0065918 C24.9274143 63.86491709 22.20173761 58.5086499 19.90234375 52.83984375 C19.59201202 52.06067093 19.2816803 51.28149811 18.96194458 50.47871399 C18.30012724 48.8187258 17.63566897 47.15978846 16.96878052 45.50183105 C15.58839595 42.06943516 14.22133545 38.63179004 12.85368347 35.19430542 C12.1772539 33.49444387 11.50018459 31.79483674 10.82246399 30.0954895 C8.19166449 23.49696615 5.59896817 16.88546848 3.0625 10.25 C2.73950928 9.41331787 2.41651855 8.57663574 2.08374023 7.71459961 C0 2.24204906 0 2.24204906 0 0 Z " fill="#F44235" transform="translate(436,193)"/>
<path d="M0 0 C20.13 0 40.26 0 61 0 C61 7.26 61 14.52 61 22 C47.74801717 23.16500948 35.33912169 23.02608628 22 22 C22 32.23 22 42.46 22 53 C32.56 53 43.12 53 54 53 C54 60.26 54 67.52 54 75 C43.44 75 32.88 75 22 75 C22 84.57 22 94.14 22 104 C23.155 103.67 23.155 103.67 29 102 C30.62285553 101.73843973 32.25416822 101.52237463 33.890625 101.3671875 C34.76589844 101.28339844 35.64117187 101.19960938 36.54296875 101.11328125 C37.43628906 101.03464844 38.32960937 100.95601563 39.25 100.875 C40.12785156 100.78863281 41.00570312 100.70226562 41.91015625 100.61328125 C48.34915606 100.01934715 54.47783972 100 61 100 C61 107.26 61 114.52 61 122 C51.13491712 123.61388976 41.27274774 124.81931172 31.33325195 125.85986328 C28.80546097 126.12574038 26.27873965 126.40054069 23.75195312 126.67578125 C22.11203642 126.84949967 20.47206419 127.02269487 18.83203125 127.1953125 C18.0932222 127.27653351 17.35441315 127.35775452 16.59321594 127.44143677 C10.97467581 128.01753364 5.72795244 128 0 128 C0 85.76 0 43.52 0 0 Z " fill="#F34235" transform="translate(96,192)"/>
<path d="M0 0 C20.13 0 40.26 0 61 0 C61 7.26 61 14.52 61 22 C48.13 22 35.26 22 22 22 C22 32.23 22 42.46 22 53 C31.57 53 41.14 53 51 53 C51 60.26 51 67.52 51 75 C41.43 75 31.86 75 22 75 C22 89.19 22 103.38 22 118 C14.74 118 7.48 118 0 118 C0 79.06 0 40.12 0 0 Z " fill="#F34236" transform="translate(245,192)"/>
<path d="M0 0 C21.45 0 42.9 0 65 0 C65 7.26 65 14.52 65 22 C58.07 22 51.14 22 44 22 C44 54.01 44 86.02 44 119 C38 120 38 120 22 120 C22 87.66 22 55.32 22 22 C14.74 22 7.48 22 0 22 C0 14.74 0 7.48 0 0 Z " fill="#F34235" transform="translate(170,192)"/>
<path d="M0 0 C7.26 0 14.52 0 22 0 C22 33.33 22 66.66 22 101 C27.61 101 33.22 101 39 101 C42.56504819 101.26815675 46.02890561 101.55927838 49.5625 102 C52.346875 102.33 55.13125 102.66 58 103 C58 109.93 58 116.86 58 124 C38.64752963 122.98144893 19.32217393 121.48632107 0 120 C0 80.4 0 40.8 0 0 Z " fill="#F34235" transform="translate(320,192)"/>
<path d="M0 0 C7.26 0 14.52 0 22 0 C22 41.91 22 83.82 22 127 C11.75384615 127 11.75384615 127 7.0625 126.5625 C6.60423828 126.52189453 6.60423828 126.52189453 4.28515625 126.31640625 C2 126 2 126 0 125 C0 83.75 0 42.5 0 0 Z " fill="#F34235" transform="translate(394,192)"/>
</svg>
