<?xml version="1.0" encoding="UTF-8"?>
<!-- Generator: visioncortex VTracer 0.6.12 -->
<svg version="1.1" xmlns="http://www.w3.org/2000/svg" width="512" height="512">
<path d="M0 0 C168.96 0 337.92 0 512 0 C512 122.1 512 244.2 512 370 C343.04 370 174.08 370 0 370 C0 247.9 0 125.8 0 0 Z M21 22 C21 47 21 47 28.125 54.375 C30.51171875 56.12792969 30.51171875 56.12792969 32.5625 57.296875 C36.70508205 59.77885304 40.3889051 62.57627375 44.125 65.625 C45.27247802 66.52762209 46.42221404 67.42738121 47.57421875 68.32421875 C56.55448919 75.33789446 65.50220866 82.38912576 74.39208984 89.51708984 C80.89203106 94.72411346 87.44320018 99.86488913 94 105 C101.8300581 111.13229282 109.63269448 117.29555658 117.39208984 123.51708984 C123.89203106 128.72411346 130.44320018 133.86488913 137 139 C144.8300581 145.13229282 152.63269448 151.29555658 160.39208984 157.51708984 C166.89203106 162.72411346 173.44320018 167.86488913 180 173 C187.8300581 179.13229282 195.63269448 185.29555658 203.39208984 191.51708984 C209.89203106 196.72411346 216.44320018 201.86488913 223 207 C225.3131866 208.8116261 227.62554437 210.62430334 229.9375 212.4375 C230.50597656 212.88222656 231.07445312 213.32695312 231.66015625 213.78515625 C234.8115358 216.25668763 237.93712047 218.75568645 241.0390625 221.2890625 C241.71074463 221.83506104 242.38242676 222.38105957 243.07446289 222.94360352 C244.36699897 223.99614026 245.65549396 225.05366594 246.93920898 226.11694336 C253.54567603 231.48622397 253.54567603 231.48622397 257 232 C259.45487568 230.5358532 261.31111338 229.16803225 263.4375 227.3125 C264.68709127 226.27554892 265.93710284 225.23910416 267.1875 224.203125 C267.82171875 223.66751953 268.4559375 223.13191406 269.109375 222.58007812 C271.99563284 220.16790602 274.96709783 217.86953064 277.9375 215.5625 C282.81581381 211.73829076 287.66400476 207.87753218 292.5 204 C300.19985311 197.8262081 307.95956573 191.73070714 315.72949219 185.64550781 C322.34563308 180.46230437 328.94277781 175.25762306 335.5 170 C343.19985311 163.8262081 350.95956573 157.73070714 358.72949219 151.64550781 C365.34563308 146.46230437 371.94277781 141.25762306 378.5 136 C386.19985311 129.8262081 393.95956573 123.73070714 401.72949219 117.64550781 C408.34563308 112.46230437 414.94277781 107.25762306 421.5 102 C429.75896492 95.37790865 438.08287533 88.84010678 446.42578125 82.32421875 C452.69073388 77.42461334 458.90253091 72.46864427 465.0625 67.4375 C471.03888189 62.55639128 477.09074916 57.79484692 483.23046875 53.12109375 C485.84801913 51.11639719 488.42545549 49.05963561 491 47 C491 38.75 491 30.5 491 22 C335.9 22 180.8 22 21 22 Z M21 75 C21 165.09 21 255.18 21 348 C176.1 348 331.2 348 491 348 C491 257.91 491 167.82 491 75 C486.66573045 77.88951303 482.56048952 80.82885691 478.5 84.0625 C477.25918061 85.04435429 476.0182933 86.02612274 474.77734375 87.0078125 C474.46337646 87.2567627 474.46337646 87.2567627 472.87451172 88.51660156 C470.51696349 90.38225187 468.15026705 92.23604884 465.78320312 94.08959961 C460.3298632 98.36143414 454.90454006 102.66660491 449.5 107 C441.80014689 113.1737919 434.04043427 119.26929286 426.27050781 125.35449219 C419.65436692 130.53769563 413.05722219 135.74237694 406.5 141 C398.80014689 147.1737919 391.04043427 153.26929286 383.27050781 159.35449219 C376.65436692 164.53769563 370.05722219 169.74237694 363.5 175 C355.80014689 181.1737919 348.04043427 187.26929286 340.27050781 193.35449219 C333.65436692 198.53769563 327.05722219 203.74237694 320.5 209 C312.80014689 215.1737919 305.04043427 221.26929286 297.27050781 227.35449219 C295.5340252 228.71488381 293.79813705 230.07602976 292.0625 231.4375 C291.49039795 231.88585205 290.9182959 232.3342041 290.32885742 232.79614258 C286.59124834 235.73138023 282.88357733 238.70139768 279.1875 241.6887207 C276.69732526 243.69535723 274.19478358 245.68585252 271.68505859 247.66796875 C270.15616392 248.87655312 268.63430971 250.09403065 267.11328125 251.3125 C259.25637335 257.28038104 259.25637335 257.28038104 254.09765625 256.7265625 C249.04687766 254.97713081 245.07637523 251.3495703 241 248 C239.73228108 246.97462925 238.46402299 245.94992486 237.1953125 244.92578125 C234.44959481 242.70297815 231.71332562 240.46905464 228.98046875 238.23046875 C224.48486875 234.56224014 219.88639567 231.04295374 215.2734375 227.5234375 C211.01558497 224.25951529 206.84101283 220.89232107 202.65820312 217.53320312 C198.43623778 214.14434913 194.19696363 210.77909941 189.9375 207.4375 C189.36322266 206.98697266 188.78894531 206.53644531 188.19726562 206.07226562 C186.46525277 204.71432079 184.73273081 203.35702859 183 202 C175.1699419 195.86770718 167.36730552 189.70444342 159.60791016 183.48291016 C153.10796894 178.27588654 146.55679982 173.13511087 140 168 C132.1699419 161.86770718 124.36730552 155.70444342 116.60791016 149.48291016 C110.10796894 144.27588654 103.55679982 139.13511087 97 134 C89.1699419 127.86770718 81.36730552 121.70444342 73.60791016 115.48291016 C67.10796894 110.27588654 60.55679982 105.13511087 54 100 C51.68681342 98.18837392 49.37433198 96.37585437 47.0625 94.5625 C46.49474854 94.11777344 45.92699707 93.67304688 45.34204102 93.21484375 C42.1846127 90.73613158 39.04630739 88.23598845 35.92578125 85.7109375 C35.58768433 85.43793823 35.58768433 85.43793823 33.87670898 84.05639648 C32.57281032 83.0018591 31.2714059 81.94422781 29.97290039 80.88305664 C29.67702026 80.64389526 29.67702026 80.64389526 28.1796875 79.43359375 C27.66132324 79.01134521 27.14295898 78.58909668 26.60888672 78.15405273 C25 77 25 77 21 75 Z " fill="#000000" transform="translate(0,71)"/>
</svg>
