<?xml version="1.0" encoding="UTF-8"?>
<!-- Generator: visioncortex VTracer 0.6.12 -->
<svg version="1.1" xmlns="http://www.w3.org/2000/svg" width="512" height="512">
<path d="M0 0 C2.87644183 1.43822091 4.78571205 2.4835121 7.1796875 4.43359375 C7.47548706 4.67267456 7.47548706 4.67267456 8.97241211 5.88256836 C9.60026611 6.3956958 10.22812012 6.90882324 10.875 7.4375 C12.22739738 8.53182763 13.58027245 9.62556516 14.93359375 10.71875 C15.61534668 11.27046875 16.29709961 11.8221875 16.99951172 12.390625 C19.95594561 14.76904973 22.94604464 17.10339855 25.9375 19.4375 C31.02949385 23.41876334 36.0569351 27.47322013 41.0625 31.5625 C45.82179182 35.44975648 50.61374089 39.27339695 55.5 43 C61.08673958 47.26083847 66.54244247 51.66458615 71.98388672 56.10888672 C78.58671505 61.49536289 85.28308592 66.75696878 92 72 C99.3301223 77.72168404 106.61594588 83.48579206 113.8125 89.375 C119.2729954 93.84159669 124.81213709 98.18067817 130.4375 102.4375 C137.03815846 107.43529277 143.45995264 112.61457422 149.82910156 117.90332031 C156.45360036 123.39867805 163.20878968 128.71315932 170 134 C172.29368987 135.78909124 174.58528702 137.58082192 176.875 139.375 C177.16238037 139.60014282 177.16238037 139.60014282 178.61669922 140.73950195 C183.0589287 144.23211103 187.43945123 147.79637151 191.8125 151.375 C197.2729954 155.84159669 202.81213709 160.18067817 208.4375 164.4375 C215.03115049 169.42998656 221.4452658 174.60469243 227.80932617 179.88574219 C232.41597138 183.70517928 237.0531436 187.47942248 241.75 191.1875 C242.03016968 191.41026611 242.03016968 191.41026611 243.44799805 192.53759766 C251.36939151 198.75714342 251.36939151 198.75714342 255.9375 199.4375 C262.03587435 198.56630366 266.77998922 193.69622712 271.5 189.9375 C272.73953605 188.95697148 273.97912076 187.97650446 275.21875 186.99609375 C275.84652344 186.49835449 276.47429687 186.00061523 277.12109375 185.48779297 C280.0738107 183.14971383 283.03717655 180.82524856 286 178.5 C287.16672321 177.5834053 288.33338975 176.66673846 289.5 175.75 C301.16666667 166.58333333 312.83333333 157.41666667 324.5 148.25 C325.07717773 147.7964917 325.65435547 147.3429834 326.24902344 146.87573242 C327.41890016 145.95656687 328.58882223 145.03745905 329.75878906 144.1184082 C332.62671157 141.86543906 335.4939099 139.61156277 338.359375 137.35546875 C345.65890138 131.61047113 352.983049 125.89796383 360.31835938 120.19873047 C366.66783028 115.26341069 372.99591836 110.30149252 379.31445312 105.32666016 C382.20808827 103.04913794 385.10419323 100.77475993 388 98.5 C389.16667796 97.5833477 390.33334464 96.66668105 391.5 95.75 C412.5 79.25 433.5 62.75 454.5 46.25 C455.07717773 45.7964917 455.65435547 45.3429834 456.24902344 44.87573242 C457.41890016 43.95656687 458.58882223 43.03745905 459.75878906 42.1184082 C462.62671157 39.86543906 465.4939099 37.61156277 468.359375 35.35546875 C475.64909805 29.61818672 482.96126242 23.91054173 490.28979492 18.22290039 C493.94535037 15.38397392 497.59363585 12.53685897 501.22265625 9.6640625 C501.54782227 9.40689453 501.54782227 9.40689453 503.19335938 8.10546875 C504.41377998 7.13882421 505.63260565 6.17016162 506.84960938 5.19921875 C510.88996011 2 510.88996011 2 512 2 C512 104.96 512 207.92 512 314 C343.04 314 174.08 314 0 314 C0 210.38 0 106.76 0 0 Z " fill="#000000" transform="translate(0,127)"/>
<path d="M0 0 C168.96 0 337.92 0 512 0 C512 34 512 34 505.5625 41.3125 C503.46790318 42.5212241 501.3696726 43.72924244 499.20703125 44.81152344 C495.32832904 46.90018742 492.00306185 49.70618898 488.5625 52.4375 C487.13307235 53.52809192 485.70207861 54.61663422 484.26953125 55.703125 C479.3421655 59.48148341 474.53816151 63.40483416 469.73413086 67.33789062 C464.17740664 71.87937147 458.51437889 76.25937111 452.80908203 80.61328125 C449.21286164 83.36989823 445.63858852 86.1548491 442.0625 88.9375 C441.29341309 89.53594727 440.52432617 90.13439453 439.73193359 90.75097656 C433.36845432 95.70648721 427.02251493 100.68399423 420.68554688 105.67333984 C417.79191173 107.95086206 414.89580677 110.22524007 412 112.5 C410.83332204 113.4166523 409.66665536 114.33331895 408.5 115.25 C406.16666667 117.08333333 403.83333333 118.91666667 401.5 120.75 C400.92282227 121.2035083 400.34564453 121.6570166 399.75097656 122.12426758 C398.58109984 123.04343313 397.41117777 123.96254095 396.24121094 124.8815918 C393.37328843 127.13456094 390.5060901 129.38843723 387.640625 131.64453125 C380.34109862 137.38952887 373.016951 143.10203617 365.68164062 148.80126953 C359.33216972 153.73658931 353.00408164 158.69850748 346.68554688 163.67333984 C343.79191173 165.95086206 340.89580677 168.22524007 338 170.5 C336.83332204 171.4166523 335.66665536 172.33331895 334.5 173.25 C332.16666667 175.08333333 329.83333333 176.91666667 327.5 178.75 C326.92282227 179.2035083 326.34564453 179.6570166 325.75097656 180.12426758 C324.58109984 181.04343313 323.41117777 181.96254095 322.24121094 182.8815918 C319.37328843 185.13456094 316.5060901 187.38843723 313.640625 189.64453125 C306.34109862 195.38952887 299.016951 201.10203617 291.68164062 206.80126953 C285.35276198 211.72058335 279.04509257 216.66627598 272.74707031 221.625 C269.54139309 224.14797011 266.33298433 226.66746457 263.125 229.1875 C261.94009337 230.11847585 260.75519648 231.04946409 259.5703125 231.98046875 C258.72210938 232.64691406 257.87390625 233.31335938 257 234 C253.08027693 232.30782687 249.92760508 229.71210457 246.625 227.0625 C245.36469481 226.0610576 244.10427503 225.05975941 242.84375 224.05859375 C242.20308594 223.54796387 241.56242188 223.03733398 240.90234375 222.51123047 C239.1184168 221.09407084 237.32717429 219.68706625 235.53125 218.28515625 C228.58258462 212.86059206 221.7185451 207.34241944 214.89111328 201.76611328 C209.77752544 197.60182094 204.57285408 193.58016832 199.328125 189.58203125 C195.57295545 186.69352598 191.91414272 183.69004287 188.25 180.6875 C182.76944421 176.1984943 177.21234571 171.83626783 171.5625 167.5625 C164.93268538 162.54447915 158.48955159 157.33696967 152.09619141 152.02197266 C146.92177272 147.72973422 141.6452357 143.61592764 136.29296875 139.546875 C132.54575451 136.67473144 128.90116586 133.6801283 125.25 130.6875 C119.7695049 126.19842475 114.21234991 121.83625428 108.5625 117.5625 C102.02440371 112.61408487 95.67572524 107.47713212 89.37524414 102.23071289 C84.50708105 98.19469531 79.54522342 94.31175328 74.5 90.5 C67.88857077 85.50481656 61.46740433 80.31863859 55.09594727 75.02172852 C49.92156799 70.72962496 44.64514404 66.61585795 39.29296875 62.546875 C35.54575955 59.6747353 31.90105957 56.68025172 28.25 53.6875 C21.77689296 48.3820504 15.18280241 43.2574898 8.49511719 38.2253418 C7.8199707 37.71527588 7.14482422 37.20520996 6.44921875 36.6796875 C5.85455811 36.23351074 5.25989746 35.78733398 4.6472168 35.32763672 C3 34 3 34 0 31 C0 20.77 0 10.54 0 0 Z " fill="#000000" transform="translate(0,71)"/>
</svg>
