<?xml version="1.0" encoding="UTF-8"?>
<!-- Generator: visioncortex VTracer 0.6.12 -->
<svg version="1.1" xmlns="http://www.w3.org/2000/svg" width="512" height="512">
<path d="M0 0 C0.51546387 0.45375 1.03092773 0.9075 1.56201172 1.375 C43.85705744 38.67623669 68.27589558 92.00912458 72 148 C75.08657662 205.5334208 54.86385777 260.04471159 17 303 C16.27941406 303.84304688 15.55882812 304.68609375 14.81640625 305.5546875 C11.16789664 309.77927758 7.39095027 313.58810446 3.125 317.1875 C0.73082593 319.22958965 -1.56502817 321.36327606 -3.875 323.5 C-8.62280251 327.7980883 -13.66419898 331.46928911 -19 335 C-23.15236186 331.11139978 -26.34268895 326.92751512 -29.5625 322.25 C-30.6261693 320.72386578 -31.68997521 319.19782676 -32.75390625 317.671875 C-33.02340088 317.28354492 -33.02340088 317.28354492 -34.38720703 315.31835938 C-36.90539698 311.69850897 -39.45337218 308.09987054 -42 304.5 C-43.00015995 303.08344626 -44.00015955 301.66677928 -45 300.25 C-45.495 299.54875 -45.99 298.8475 -46.5 298.125 C-51 291.75 -51 291.75 -52.49975586 289.62524414 C-53.50044188 288.20767346 -54.50125583 286.79019308 -55.50219727 285.37280273 C-57.99275451 281.84569428 -60.48111592 278.31707783 -62.96484375 274.78515625 C-68.07232086 267.52764888 -73.22045023 260.30420414 -78.4375 253.125 C-83.46223393 246.20521499 -88.31896514 239.18491863 -93.12255859 232.11035156 C-97.3722521 225.8706512 -101.75531493 219.73797918 -106.19311523 213.63110352 C-109.85399749 208.59263011 -113.47591801 203.52913412 -117.0625 198.4375 C-117.30846924 198.08836548 -117.30846924 198.08836548 -118.55322266 196.3215332 C-120.52988898 193.51373163 -122.5046567 190.70459723 -124.47949219 187.89550781 C-125.96459128 185.78386724 -127.45067909 183.67292857 -128.9375 181.5625 C-129.18411377 181.21239868 -129.18411377 181.21239868 -130.43212891 179.44067383 C-134.05856866 174.3044918 -137.74141699 169.21119538 -141.4375 164.125 C-146.46223393 157.20521499 -151.31896514 150.18491863 -156.12255859 143.11035156 C-160.3722521 136.8706512 -164.75531493 130.73797918 -169.19311523 124.63110352 C-172.85399826 119.59262904 -176.47585585 114.52909136 -180.0625 109.4375 C-180.5479126 108.74865723 -181.0333252 108.05981445 -181.53344727 107.35009766 C-183.56590687 104.46355283 -185.59604915 101.57539017 -187.62451172 98.68603516 C-188.71967695 97.12627398 -189.81545398 95.56694219 -190.91186523 94.00805664 C-191.94015174 92.54600869 -192.96709569 91.08301518 -193.99243164 89.61889648 C-202.15255584 78.02055729 -202.15255584 78.02055729 -209 76 C-213.73895206 75.71929552 -217.6258382 76.31223139 -221.4375 79.25 C-225.6288381 83.74802138 -226.24970051 87.46420201 -226.26742554 93.51449585 C-226.27595551 94.83227524 -226.28448547 96.15005463 -226.29327393 97.50776672 C-226.29257495 98.96139538 -226.29165192 100.41502395 -226.29052734 101.86865234 C-226.29651398 103.40481391 -226.30331984 104.94097246 -226.31088257 106.47712708 C-226.32853553 110.64453959 -226.33323763 114.81186995 -226.33451414 118.97931623 C-226.33593663 121.58435004 -226.34020808 124.18936301 -226.34550858 126.79439163 C-226.36400612 135.88637873 -226.37217948 144.97830721 -226.37060547 154.0703125 C-226.36940396 162.53925107 -226.39050881 171.00793482 -226.4220928 179.47680891 C-226.44826117 186.75340419 -226.45897254 194.02991628 -226.45769465 201.30655825 C-226.4571852 205.65011534 -226.46285872 209.9934459 -226.48405075 214.33695602 C-226.50344284 218.42300839 -226.5035512 222.50861836 -226.48901749 226.59468651 C-226.48692951 228.09143534 -226.49162968 229.58821194 -226.5037384 231.08491325 C-226.61038997 245.18448511 -226.61038997 245.18448511 -222 251 C-218.52354929 253.74456635 -215.40987076 254.73540775 -211 255 C-207.375 254.1875 -207.375 254.1875 -204 253 C-203.6184375 252.8659375 -203.6184375 252.8659375 -201.6875 252.1875 C-199.31125232 250.51532571 -198.86414681 248.7253861 -198 246 C-197.67 245.01 -197.34 244.02 -197 243 C-196.90045962 241.59150167 -196.8539387 240.17888093 -196.84178162 238.766922 C-196.83688721 238.33573814 -196.83688721 238.33573814 -196.81211853 236.15368652 C-196.80636307 235.21069702 -196.8006076 234.26770752 -196.79467773 233.29614258 C-196.78477814 232.3008403 -196.77487854 231.30553802 -196.76467896 230.28007507 C-196.73305055 226.98491813 -196.70830114 223.68974676 -196.68359375 220.39453125 C-196.66302539 218.11194989 -196.64202895 215.82937235 -196.62062073 213.54679871 C-196.56538793 207.53479096 -196.51598393 201.52274877 -196.46777344 195.51068115 C-196.41756727 189.37753224 -196.36187658 183.24443344 -196.30664062 177.11132812 C-196.19904425 165.07426154 -196.09760252 153.03715148 -196 141 C-195.34 141 -194.68 141 -194 141 C-192.31068876 143.25856913 -190.73902514 145.52368303 -189.1875 147.875 C-188.1907771 149.35679914 -187.19200043 150.83721846 -186.19140625 152.31640625 C-185.66820801 153.09000488 -185.14500977 153.86360352 -184.60595703 154.66064453 C-182.01790496 158.43059207 -179.32096154 162.11934622 -176.625 165.8125 C-172.14235574 171.9715641 -167.77781744 178.19703529 -163.5 184.5 C-158.71767493 191.54358397 -153.81162565 198.4818515 -148.80688477 205.36889648 C-143.62959197 212.4944062 -138.55031348 219.68653082 -133.48388672 226.89111328 C-130.99351226 230.43041149 -128.49648152 233.96500813 -126 237.5 C-123.00845651 241.73599447 -120.01821172 245.97286609 -117.03515625 250.21484375 C-111.92768011 257.47234973 -106.77964151 264.69586324 -101.5625 271.875 C-97.05907629 278.07537574 -92.67891669 284.34713637 -88.375 290.6875 C-84.11544476 296.96224018 -79.75499849 303.13500158 -75.23608398 309.22509766 C-70.75827073 315.2789913 -66.45045391 321.44821733 -62.15209961 327.63037109 C-59.43148205 331.54029042 -56.69882703 335.43643636 -53.88671875 339.28125 C-53.41693604 339.92570068 -52.94715332 340.57015137 -52.46313477 341.23413086 C-51.59592587 342.41904737 -50.72304606 343.59984251 -49.84350586 344.77563477 C-47 348.66875282 -47 348.66875282 -47 352 C-102.47765596 376.20503632 -161.53724737 382.24662391 -219 360 C-242.99663402 350.51249705 -264.75344848 337.15678667 -284 320 C-284.25773193 319.773125 -284.25773193 319.773125 -285.56201172 318.625 C-327.85705744 281.32376331 -352.27589558 227.99087542 -356 172 C-358.5087678 125.23686691 -346.07580975 75.95228037 -318 38 C-317.24460937 36.97390625 -316.48921875 35.9478125 -315.7109375 34.890625 C-304.28130518 19.61359836 -291.92344777 5.93032689 -277 -6 C-276.61585938 -6.32355469 -276.61585938 -6.32355469 -274.671875 -7.9609375 C-243.97286268 -33.54344776 -205.34775042 -48.07171389 -166 -53 C-165.01 -53.13148437 -164.02 -53.26296875 -163 -53.3984375 C-103.99467978 -59.74493997 -44.04133457 -39.25938529 0 0 Z M-86.12477112 71.50210571 C-88.65230419 76.21675339 -88.6127857 80.06901749 -88.62866211 85.34130859 C-88.64691544 86.36986969 -88.66516876 87.39843079 -88.68397522 88.4581604 C-88.73720683 91.85505226 -88.75968236 95.25118503 -88.77734375 98.6484375 C-88.79783228 101.02291997 -88.81846955 103.39740116 -88.83924866 105.7718811 C-88.87673682 110.75340257 -88.896134 115.7346608 -88.90600586 120.71630859 C-88.92229909 127.06297708 -89.00785889 133.40664288 -89.11069393 139.75241661 C-89.17811753 144.66168445 -89.19535327 149.57024727 -89.19940376 154.47993851 C-89.20958681 156.81696252 -89.23781527 159.15398709 -89.28529167 161.49055099 C-89.56335256 176.29376217 -88.26595928 186.14069916 -78.31137466 197.48322868 C-76.47701396 199.60489977 -74.89034685 201.88086066 -73.29296875 204.18359375 C-72.25983689 205.60303814 -71.22478067 207.02108457 -70.1875 208.4375 C-66.37463881 213.64888277 -62.69592968 218.90633706 -59.19262695 224.33227539 C-58.79906006 224.88262451 -58.40549316 225.43297363 -58 226 C-57.67 226 -57.34 226 -57 226 C-56.92986063 206.97177122 -56.87698768 187.94356875 -56.84456348 168.91523743 C-56.82910695 160.07967808 -56.80804067 151.24419914 -56.77368164 142.40869141 C-56.74374209 134.70597783 -56.72441617 127.00332251 -56.71773452 119.30055237 C-56.71382996 115.22350858 -56.70467912 111.14663141 -56.68280983 107.06964111 C-56.66237261 103.22832353 -56.65618073 99.38724043 -56.66067696 95.54587364 C-56.65985498 94.1398459 -56.65393243 92.73380991 -56.64238358 91.32782936 C-56.51264149 74.71076551 -56.51264149 74.71076551 -61.45203876 69.4549408 C-66.21679444 65.33522649 -69.33874403 64.64326181 -75.4609375 64.72265625 C-80.41051634 65.26330255 -83.01459399 67.83959736 -86.12477112 71.50210571 Z " fill="#202020" transform="translate(398,96)"/>
</svg>
