<?xml version="1.0" encoding="UTF-8"?>
<!-- Generator: visioncortex VTracer 0.6.12 -->
<svg version="1.1" xmlns="http://www.w3.org/2000/svg" width="512" height="512">
<path d="M0 0 C0 1.32 0 2.64 0 4 C-18.13462067 12.0626372 -36.30984905 20.02048971 -54.5625 27.8125 C-68.72320076 33.85792662 -82.84747325 39.97912252 -96.9375 46.1875 C-109.32789065 51.64616988 -121.73502021 57.05941167 -134.1875 62.375 C-147.62792198 68.11257526 -161.03874913 73.9157727 -174.4375 79.75 C-194.22758972 88.36596913 -214.03641155 96.93766844 -233.85585022 105.48588562 C-240.09545864 108.17733708 -246.33333162 110.8727784 -252.5703125 113.5703125 C-279.02765212 125.01145996 -305.51075938 136.39199456 -332.01438904 147.72550964 C-338.26926042 150.40087852 -344.52098843 153.08333599 -350.76881409 155.77511597 C-441.92750543 195.03732559 -441.92750543 195.03732559 -479.70703125 180.48046875 C-493.64445598 174.21441422 -504.30150375 164.15776408 -509.88500977 149.70996094 C-511.86118005 143.71160624 -512.51219259 138.16992528 -512.4375 131.875 C-512.42992676 130.96339111 -512.42235352 130.05178223 -512.41455078 129.11254883 C-512.2110076 120.62836397 -510.65845475 113.02700478 -508 105 C-507.59910156 103.74445313 -507.19820313 102.48890625 -506.78515625 101.1953125 C-495.99815348 69.29032038 -474.18181802 41.01253899 -452.91015625 15.33984375 C-451.67860596 13.8312576 -450.49383634 12.28263136 -449.37109375 10.69140625 C-449.14486328 10.41232422 -449.14486328 10.41232422 -448 9 C-447.34 9 -446.68 9 -446 9 C-447.40519717 13.40295113 -449.07750009 17.61874374 -450.875 21.875 C-457.86645946 39.26566528 -462.67228288 60.53070204 -455.203125 78.625 C-452.16564272 84.62106892 -449.04707112 89.45763599 -444 94 C-443.29875 94.66 -442.5975 95.32 -441.875 96 C-426.92670267 106.39881554 -408.54323491 107.45890877 -391.15834332 104.39876556 C-382.12596401 102.73860396 -373.30990654 100.3254615 -364.45703125 97.90625 C-362.5897 97.40187076 -360.72219224 96.89814468 -358.85452271 96.39501953 C-353.8727508 95.0510417 -348.89347486 93.69803228 -343.91465378 92.34317017 C-338.66207273 90.91551056 -333.40719737 89.49634365 -328.15258789 88.07617188 C-318.66597006 85.51087964 -309.18130723 82.93844939 -299.69767475 80.36214447 C-291.35633282 78.09623436 -283.01351576 75.83580427 -274.67023659 73.57703972 C-259.15742229 69.37676812 -243.64874539 65.16133119 -228.14096737 60.94250965 C-211.50167757 56.41593431 -194.86141315 51.89294128 -178.22111893 47.37005997 C-176.2437066 46.83259275 -174.26629723 46.29511465 -172.28889084 45.75762558 C-138.04872662 36.45072655 -103.80203831 27.16827557 -69.54416466 17.92676735 C-60.64859302 15.52706282 -51.75466522 13.12142065 -42.86282349 10.70793152 C-37.90982797 9.36362724 -32.95592032 8.02269487 -28.00195312 6.68197632 C-25.73580542 6.06792637 -23.47000823 5.45258115 -21.20458984 4.83584595 C-18.15943494 4.0069659 -15.11309208 3.18260677 -12.06640625 2.359375 C-11.17977798 2.11674423 -10.29314972 1.87411346 -9.37965393 1.62413025 C-8.57446823 1.4075325 -7.76928253 1.19093475 -6.93969727 0.96777344 C-6.24578384 0.77938904 -5.55187042 0.59100464 -4.83692932 0.39691162 C-3 0 -3 0 0 0 Z " fill="#000000" transform="translate(512,163)"/>
</svg>
