<?xml version="1.0" encoding="UTF-8"?>
<!-- Generator: visioncortex VTracer 0.6.12 -->
<svg version="1.1" xmlns="http://www.w3.org/2000/svg" width="512" height="512">
<path d="M0 0 C7.88130313 1.12590045 7.88130313 1.12590045 12.390625 3.6171875 C13.34710938 4.14183594 14.30359375 4.66648438 15.2890625 5.20703125 C16.26617187 5.75746094 17.24328125 6.30789062 18.25 6.875 C19.24257813 7.41769531 20.23515625 7.96039063 21.2578125 8.51953125 C29.95271031 13.33824833 29.95271031 13.33824833 32 16 C32.38311005 18.77866268 32.38311005 18.77866268 32.39440918 22.21824646 C32.40575897 23.52078369 32.41710876 24.82332092 32.42880249 26.16532898 C32.42615906 27.61209168 32.42318781 29.05885381 32.41992188 30.50561523 C32.42725986 32.0266482 32.43584529 33.5476756 32.44558716 35.06869507 C32.46784045 39.2030008 32.47073196 43.33710746 32.46883965 47.47146487 C32.46872012 50.92089206 32.47727684 54.37027679 32.48561716 57.81969219 C32.50486491 65.95640226 32.50773005 74.09300973 32.50097656 82.22973633 C32.4943341 90.62832583 32.517205 99.02647632 32.55429029 107.42497677 C32.58496095 114.63185998 32.59635022 121.83860178 32.59245348 129.04554898 C32.59038326 133.35163624 32.59590689 137.65738194 32.62034607 141.96340752 C32.64256754 146.01258426 32.64077451 150.06104602 32.62041855 154.11022568 C32.61700027 155.59694407 32.62213284 157.08371016 32.63640213 158.570364 C32.65452596 160.59842443 32.6388745 162.62670325 32.62145996 164.6547699 C32.62217247 165.79020957 32.62288498 166.92564924 32.62361908 168.09549618 C31.7979484 171.94105469 30.23716012 172.90040802 27 175 C25.16269618 176.11339072 23.29852678 177.18328249 21.4140625 178.21484375 C20.32899414 178.81288818 19.24392578 179.41093262 18.12597656 180.02709961 C17.54831543 180.34231567 17.54831543 180.34231567 14.625 181.9375 C12.1941249 183.26867579 9.76470585 184.60248469 7.3359375 185.9375 C6.72306885 186.27389999 6.1102002 186.61029999 5.47875977 186.95689392 C1.40049246 189.20371338 -2.63271306 191.51749801 -6.6484375 193.875 C-7.6792041 194.47578369 -8.7099707 195.07656738 -9.77197266 195.69555664 C-11.71356663 196.831257 -13.64853888 197.97837786 -15.57568359 199.13842773 C-16.45305176 199.64833252 -17.33041992 200.1582373 -18.234375 200.68359375 C-18.61190918 200.90817261 -18.61190918 200.90817261 -20.52246094 202.04467773 C-24.98857649 203.76678161 -28.6572369 203.54700402 -33.06005859 201.75341797 C-34.07922363 201.17221191 -35.09838867 200.59100586 -36.1484375 199.9921875 C-36.71508621 199.67474075 -37.28173492 199.35729401 -37.86555481 199.03022766 C-39.71034573 197.99244163 -41.5424645 196.93425168 -43.375 195.875 C-44.65459519 195.14880634 -45.93496065 194.42396838 -47.21606445 193.70043945 C-49.84499368 192.21367644 -52.46941693 190.71934949 -55.09130859 189.22021484 C-58.83830821 187.08367485 -62.61188653 184.99838585 -66.39453125 182.92578125 C-66.9676001 182.61036377 -66.9676001 182.61036377 -69.86767578 181.01416016 C-72.04500935 179.81613032 -74.22430994 178.62166699 -76.40576172 177.43115234 C-77.37916504 176.89055176 -78.35256836 176.34995117 -79.35546875 175.79296875 C-80.20778076 175.3239917 -81.06009277 174.85501465 -81.93823242 174.37182617 C-84 173 -84 173 -86 170 C-86.28088379 167.28115845 -86.28088379 167.28115845 -86.32226562 163.95556641 C-86.34148071 162.71062408 -86.3606958 161.46568176 -86.38049316 160.18301392 C-86.39018901 158.82253757 -86.3987467 157.4620527 -86.40625 156.1015625 C-86.41775808 154.70535272 -86.42927348 153.30914301 -86.4407959 151.91293335 C-86.46179705 148.98588593 -86.47349462 146.05894807 -86.48046875 143.13183594 C-86.49143752 139.38650713 -86.53949187 135.64263302 -86.59641266 131.89776039 C-86.63371777 129.01347667 -86.64407913 126.12954165 -86.6471405 123.24503708 C-86.65318291 121.86470965 -86.66920518 120.48438761 -86.69551086 119.10429764 C-86.88522712 108.38632639 -86.88522712 108.38632639 -84.7966156 105.11541748 C-83.27319336 103.79443359 -83.27319336 103.79443359 -80 102 C-79.16863525 101.48695313 -78.33727051 100.97390625 -77.48071289 100.4453125 C-76.6530542 100.00960937 -75.82539551 99.57390625 -74.97265625 99.125 C-74.02616211 98.62073486 -73.07966797 98.11646973 -72.10449219 97.59692383 C-71.10063477 97.06993896 -70.09677734 96.5429541 -69.0625 96 C-66.92217257 94.85995681 -64.7828773 93.71797405 -62.64453125 92.57421875 C-61.55092285 91.98946777 -60.45731445 91.4047168 -59.33056641 90.80224609 C-52.93777251 87.34295827 -46.6277595 83.73735405 -40.31274414 80.13867188 C-39.41031982 79.62498047 -38.50789551 79.11128906 -37.578125 78.58203125 C-37.18318848 78.35632446 -37.18318848 78.35632446 -35.18457031 77.21411133 C-34.46366211 76.81345459 -33.74275391 76.41279785 -33 76 C-32.38995117 75.59612061 -31.77990234 75.19224121 -31.15136719 74.77612305 C-29 74 -29 74 -22 75 C-14.74 78.96 -7.48 82.92 0 87 C0 58.29 0 29.58 0 0 Z M-33.25390625 112.7734375 C-34.27291016 113.3509375 -35.29191406 113.9284375 -36.34179688 114.5234375 C-37.40462891 115.13445312 -38.46746094 115.74546875 -39.5625 116.375 C-40.62919922 116.97828125 -41.69589844 117.5815625 -42.79492188 118.203125 C-50.72062546 122.72062546 -50.72062546 122.72062546 -53 125 C-53.22705078 127.79736328 -53.22705078 127.79736328 -53.1953125 131.3203125 C-53.18886719 132.57714844 -53.18242187 133.83398438 -53.17578125 135.12890625 C-53.15902344 136.44761719 -53.14226562 137.76632812 -53.125 139.125 C-53.11496983 140.46483721 -53.10584404 141.80468152 -53.09765625 143.14453125 C-53.07402075 146.42986573 -53.04107234 149.71484465 -53 153 C-49.58434853 154.96010801 -46.16730459 156.91777574 -42.75 158.875 C-41.78191406 159.43058594 -40.81382812 159.98617187 -39.81640625 160.55859375 C-38.88183594 161.09355469 -37.94726562 161.62851562 -36.984375 162.1796875 C-36.12553711 162.67194824 -35.26669922 163.16420898 -34.38183594 163.67138672 C-33.59583008 164.1098291 -32.80982422 164.54827148 -32 165 C-31.34032227 165.40879395 -30.68064453 165.81758789 -30.00097656 166.23876953 C-27.26506721 167.2795901 -25.77766957 166.85692654 -23 166 C-20.53637695 164.81665039 -20.53637695 164.81665039 -17.98828125 163.34765625 C-17.06595703 162.81849609 -16.14363281 162.28933594 -15.19335938 161.74414062 C-14.24267578 161.18919922 -13.29199219 160.63425781 -12.3125 160.0625 C-11.35021484 159.51142578 -10.38792969 158.96035156 -9.39648438 158.39257812 C-2.28590895 154.28590895 -2.28590895 154.28590895 0 152 C0.48671964 147.72750137 0.37040423 143.42204427 0.375 139.125 C0.38724609 138.52623047 0.38724609 138.52623047 0.44921875 135.49609375 C0.45308594 134.34496094 0.45695312 133.19382812 0.4609375 132.0078125 C0.46504639 131.48002197 0.46504639 131.48002197 0.48583984 128.80908203 C-0.12937927 125.25194078 -1.20479811 124.22644741 -4 122 C-5.59093763 120.93970771 -7.22057304 119.93581245 -8.87890625 118.984375 C-9.79994141 118.45585937 -10.72097656 117.92734375 -11.66992188 117.3828125 C-12.14719727 117.11339844 -12.14719727 117.11339844 -14.5625 115.75 C-15.04170898 115.47285156 -15.04170898 115.47285156 -17.46679688 114.0703125 C-17.92666992 113.80863281 -17.92666992 113.80863281 -20.25390625 112.484375 C-21.09252197 112.00709961 -21.9311377 111.52982422 -22.79516602 111.03808594 C-27.09429066 109.01396037 -29.39227843 110.57696409 -33.25390625 112.7734375 Z " fill="#36464E" transform="translate(352,128)"/>
<path d="M0 0 C4.2609819 1.85475306 8.27059643 4.08779397 12.3125 6.375 C14.05896114 7.34069028 15.80542261 8.30637995 17.55197144 9.27191162 C19.28850626 10.23537708 21.02049658 11.20701859 22.75244141 12.17871094 C25.61224549 13.78254032 28.48031144 15.36923508 31.35546875 16.9453125 C35.58679943 19.26811649 39.80022236 21.62065399 44 24 C45.0725 24.60714844 46.145 25.21429688 47.25 25.83984375 C53.74034003 29.61051005 53.74034003 29.61051005 56 33 C56.27415466 35.68087769 56.27415466 35.68087769 56.30639648 38.95263672 C56.32238388 40.17755829 56.33837128 41.40247986 56.35484314 42.66452026 C56.36121993 44.00290511 56.36661265 45.34129496 56.37109375 46.6796875 C56.38006191 48.05347797 56.38918379 49.42726744 56.39845276 50.80105591 C56.41494025 53.68103406 56.42264233 56.560896 56.42553711 59.44091797 C56.43091954 63.12554459 56.46859223 66.80907411 56.51428127 70.49339104 C56.54407336 73.33134923 56.55126111 76.16904397 56.55226326 79.00714493 C56.55646176 80.36511381 56.56888158 81.72308374 56.58978081 83.08089828 C56.7436568 93.94323729 56.7436568 93.94323729 53.75073242 98.19628906 C52.84299072 98.79151367 51.93524902 99.38673828 51 100 C50.25733887 100.50257324 49.51467773 101.00514648 48.74951172 101.52294922 C47.98396973 101.94592285 47.21842773 102.36889648 46.4296875 102.8046875 C45.54595459 103.2987207 44.66222168 103.79275391 43.75170898 104.30175781 C42.80239502 104.82092773 41.85308105 105.34009766 40.875 105.875 C39.88250244 106.42510742 38.89000488 106.97521484 37.86743164 107.54199219 C35.72294016 108.7304055 33.57679705 109.91584227 31.42919922 111.09863281 C28.45502893 112.74770288 25.49348577 114.41574756 22.53796387 116.09780884 C20.10222688 117.48366058 17.66235312 118.86213072 15.22198486 120.23980713 C14.03985552 120.9090079 12.85928645 121.58097298 11.68035889 122.25579834 C10.01961077 123.20509228 8.35171193 124.14184244 6.68359375 125.078125 C5.73025146 125.61856445 4.77690918 126.15900391 3.79467773 126.71582031 C0.00553187 128.4569671 -3.34946871 129.5206554 -7.40234375 128.2421875 C-8.23894531 127.79101562 -9.07554687 127.33984375 -9.9375 126.875 C-10.9790625 126.318125 -12.020625 125.76125 -13.09375 125.1875 C-14.39711356 124.46062417 -15.69904412 123.73117633 -17 123 C-17.81210938 122.54753906 -18.62421875 122.09507812 -19.4609375 121.62890625 C-25.30801861 118.36640447 -31.13130279 115.06332939 -36.94580078 111.74316406 C-40.00181194 109.99896585 -43.06109639 108.26063118 -46.12109375 106.5234375 C-48.03920006 105.4325335 -49.95717418 104.34139703 -51.875 103.25 C-52.77855225 102.73679199 -53.68210449 102.22358398 -54.61303711 101.69482422 C-55.02622192 101.45900635 -55.02622192 101.45900635 -57.1171875 100.265625 C-57.84534668 99.85086914 -58.57350586 99.43611328 -59.32373047 99.00878906 C-61 98 -61 98 -62 97 C-62.11511557 94.99682204 -62.15968265 92.98956243 -62.17700195 90.9831543 C-62.18983719 89.69479172 -62.20267242 88.40642914 -62.21589661 87.07902527 C-62.22406391 85.66076032 -62.23150766 84.24249104 -62.23828125 82.82421875 C-62.24235678 82.11301188 -62.2464323 81.401805 -62.25063133 80.6690464 C-62.27151121 76.90379753 -62.28580378 73.13858531 -62.29516602 69.37329102 C-62.30622645 65.48245444 -62.34061571 61.59219044 -62.38033772 57.70155621 C-62.40647969 54.71182692 -62.41485571 51.72223442 -62.41844749 48.73240089 C-62.42332088 47.29825797 -62.4349564 45.86412145 -62.45348549 44.43008995 C-62.47781754 42.42187628 -62.47449798 40.41338526 -62.4699707 38.4050293 C-62.47583694 37.26220993 -62.48170319 36.11939056 -62.48774719 34.94194031 C-61.89380597 31.35947045 -60.79100765 30.23867178 -58 28 C-56.16674805 26.83422852 -56.16674805 26.83422852 -54.26171875 25.87890625 C-53.5351709 25.50725342 -52.80862305 25.13560059 -52.06005859 24.75268555 C-51.66858643 24.55630493 -51.66858643 24.55630493 -49.6875 23.5625 C-40.05857821 18.6196283 -30.64610392 13.33645718 -21.2421875 7.98046875 C-20.35885742 7.48208496 -19.47552734 6.98370117 -18.56542969 6.47021484 C-16.88433644 5.50680187 -15.21737336 4.51820235 -13.56738281 3.50244141 C-8.86003976 0.67106911 -5.61628764 -1.07709626 0 0 Z " fill="#4BAE4F" transform="translate(190,203)"/>
<path d="M0 0 C1.03189453 0.58233398 2.06378906 1.16466797 3.12695312 1.76464844 C3.69907028 2.08345978 4.27118744 2.40227112 4.86064148 2.73074341 C6.71595629 3.76800298 8.56201536 4.82061902 10.40820312 5.87402344 C11.69324482 6.59711889 12.97881411 7.31927749 14.26489258 8.04052734 C16.87819378 9.50851439 19.48770296 10.98292476 22.09423828 12.46289062 C25.6729846 14.49387814 29.26361775 16.502609 32.85742188 18.50683594 C34.93715773 19.6703467 37.01660196 20.83437893 39.09570312 21.99902344 C40.0625 22.53946289 41.02929688 23.07990234 42.02539062 23.63671875 C42.90839844 24.13526367 43.79140625 24.63380859 44.70117188 25.14746094 C45.46969482 25.57978027 46.23821777 26.01209961 47.0300293 26.45751953 C48.90820312 27.62402344 48.90820312 27.62402344 50.90820312 29.62402344 C51.42293259 34.062591 51.32503188 38.53403484 51.34570312 42.99902344 C51.37857422 44.24425781 51.41144531 45.48949219 51.4453125 46.77246094 C51.45240234 47.96871094 51.45949219 49.16496094 51.46679688 50.39746094 C51.47352417 50.94619873 51.47352417 50.94619873 51.50756836 53.72314453 C50.90820312 56.62402344 50.90820312 56.62402344 48.69360352 58.80883789 C47.77442139 59.40784912 46.85523926 60.00686035 45.90820312 60.62402344 C45.080625 61.17292236 44.25304687 61.72182129 43.40039062 62.28735352 C40.57864932 64.01909195 37.74699629 65.73287597 34.90820312 67.43652344 C33.92335938 68.04689453 32.93851562 68.65726562 31.92382812 69.28613281 C31.446875 69.57198242 31.446875 69.57198242 29.03320312 71.01855469 C28.16953125 71.54296143 27.30585938 72.06736816 26.41601562 72.60766602 C23.41761402 73.82284766 21.93430922 73.68731224 18.90820312 72.62402344 C17.61765774 70.04293267 18.05566125 68.70244809 18.43554688 65.85449219 C18.97169396 59.55055887 19.40227638 53.56258382 16.90820312 47.62402344 C10.89663138 41.42882458 1.34908295 36.46644519 -7.09179688 34.62402344 C-9.64648438 35.34863281 -9.64648438 35.34863281 -12.09179688 36.62402344 C-12.87973633 37.02693604 -13.66767578 37.42984863 -14.47949219 37.8449707 C-15.28483398 38.28897217 -16.09017578 38.73297363 -16.91992188 39.19042969 C-17.80164063 39.67576172 -18.68335938 40.16109375 -19.59179688 40.66113281 C-20.49929688 41.16451172 -21.40679687 41.66789062 -22.34179688 42.18652344 C-23.26476562 42.69376953 -24.18773437 43.20101562 -25.13867188 43.72363281 C-31.95594404 47.4881706 -31.95594404 47.4881706 -33.09179688 48.62402344 C-33.179468 50.6966442 -33.19875561 52.77222638 -33.18945312 54.84667969 C-33.18623047 56.10673828 -33.18300781 57.36679687 -33.1796875 58.66503906 C-33.17133091 60.00553453 -33.16286595 61.34602932 -33.15429688 62.68652344 C-33.14928348 64.03092286 -33.14472029 65.37532403 -33.140625 66.71972656 C-33.12879175 70.02120284 -33.11230658 73.32259147 -33.09179688 76.62402344 C-32.36404053 77.01033936 -31.63628418 77.39665527 -30.88647461 77.79467773 C-17.88869171 84.70309675 -4.9135262 91.64256392 7.90820312 98.87402344 C8.86154541 99.40987061 9.8148877 99.94571777 10.79711914 100.49780273 C11.67940186 100.99836182 12.56168457 101.4989209 13.47070312 102.01464844 C14.23511719 102.4480957 14.99953125 102.88154297 15.78710938 103.328125 C17.93646367 104.64128944 19.9193926 106.08055314 21.90820312 107.62402344 C21.74023438 109.91796875 21.74023438 109.91796875 20.90820312 112.62402344 C18.60742188 114.36914062 18.60742188 114.36914062 15.59570312 115.92089844 C14.520625 116.48679687 13.44554687 117.05269531 12.33789062 117.63574219 C11.20609375 118.209375 10.07429688 118.78300781 8.90820312 119.37402344 C6.67855524 120.5345577 4.44936299 121.69596793 2.22070312 122.85839844 C1.72376953 123.11218262 1.72376953 123.11218262 -0.79101562 124.39648438 C-3.09179688 125.62402344 -3.09179688 125.62402344 -4.09179688 126.62402344 C-9.4437407 127.04583127 -12.60585084 126.25909179 -17.24023438 123.61621094 C-17.80688309 123.29876419 -18.3735318 122.98131744 -18.95735168 122.6542511 C-20.80214261 121.61646507 -22.63426138 120.55827512 -24.46679688 119.49902344 C-25.74639206 118.77282978 -27.02675752 118.04799182 -28.30786133 117.32446289 C-30.93679056 115.83769987 -33.5612138 114.34337293 -36.18310547 112.84423828 C-39.93010509 110.70769828 -43.70368341 108.62240928 -47.48632812 106.54980469 C-48.63246582 105.91896973 -49.77860352 105.28813477 -50.95947266 104.63818359 C-53.13680623 103.44015375 -55.31610682 102.24569043 -57.49755859 101.05517578 C-57.98426025 100.78487549 -57.98426025 100.78487549 -60.44726562 99.41699219 C-61.29957764 98.94801514 -62.15188965 98.47903809 -63.0300293 97.99584961 C-65.09179688 96.62402344 -65.09179688 96.62402344 -67.09179688 93.62402344 C-67.35922241 90.94314575 -67.35922241 90.94314575 -67.38232422 87.67138672 C-67.39508392 86.44646515 -67.40784363 85.22154358 -67.42098999 83.95950317 C-67.42404766 82.6211157 -67.42627541 81.28272611 -67.42773438 79.94433594 C-67.43416235 78.57054505 -67.44089071 77.19675554 -67.44790649 75.82296753 C-67.45988112 72.94298124 -67.46358719 70.0631149 -67.46240234 67.18310547 C-67.46219924 63.49862945 -67.48949012 59.81492554 -67.52394676 56.1306324 C-67.54622265 53.29267875 -67.55023968 50.45491063 -67.54918289 47.61687851 C-67.55153826 46.25893368 -67.56035836 44.90098369 -67.57584763 43.54312515 C-67.59551554 41.64066808 -67.58714496 39.7379842 -67.57763672 37.83544922 C-67.58048676 36.75417755 -67.58333679 35.67290588 -67.58627319 34.55886841 C-66.97136858 30.90925033 -65.62920788 29.26931127 -63.09179688 26.62402344 C-60.6159668 24.97753906 -60.6159668 24.97753906 -57.82226562 23.53027344 C-56.77893066 22.98081055 -55.7355957 22.43134766 -54.66064453 21.86523438 C-54.10272217 21.57793457 -54.10272217 21.57793457 -51.27929688 20.12402344 C-48.93568315 18.8917904 -46.59321582 17.6575728 -44.25195312 16.42089844 C-43.65791687 16.10848206 -43.06388062 15.79606567 -42.45184326 15.47418213 C-35.31426768 11.71006468 -28.31172033 7.71025396 -21.3034668 3.71191406 C-20.41119385 3.20337891 -19.5189209 2.69484375 -18.59960938 2.17089844 C-18.2110376 1.94837402 -18.2110376 1.94837402 -16.24462891 0.82226562 C-15.53419434 0.4268457 -14.82375977 0.03142578 -14.09179688 -0.37597656 C-13.48319824 -0.77913086 -12.87459961 -1.18228516 -12.24755859 -1.59765625 C-7.93936736 -3.15309381 -4.04143995 -1.79860673 0 0 Z " fill="#36474E" transform="translate(461.091796875,204.3759765625)"/>
<path d="M0 0 C4.11186942 1.88854208 8.04947643 4.04686828 12 6.25 C13.13469727 6.87318115 14.26939453 7.4963623 15.43847656 8.13842773 C18.38527945 9.75861454 21.32383363 11.39320238 24.26049805 13.03167725 C27.03857107 14.57813789 29.82493455 16.10957287 32.609375 17.64453125 C34.65702159 18.78246685 36.70393108 19.92173011 38.75 21.0625 C39.22244141 21.32401855 39.22244141 21.32401855 41.61328125 22.64746094 C42.49886719 23.14665039 43.38445312 23.64583984 44.296875 24.16015625 C45.06354492 24.58949463 45.83021484 25.01883301 46.62011719 25.46118164 C52.99761887 29.58483707 52.99761887 29.58483707 55 32 C55.5826588 35.02708624 55.7757823 37.24658435 55.69702148 40.26269531 C55.69950394 41.08111908 55.70198639 41.89954285 55.70454407 42.74276733 C55.70545995 45.43883786 55.66371432 48.13242008 55.62109375 50.828125 C55.6124376 52.70187415 55.6062928 54.57563644 55.60255432 56.44940186 C55.5853402 61.37482213 55.53122793 66.29919742 55.47027588 71.22424316 C55.42660058 75.25619692 55.40911455 79.28806506 55.39300442 83.3202095 C55.373443 88.11457577 55.34285643 92.90884335 55.30859375 97.703125 C55.30216795 98.62300453 55.29574215 99.54288406 55.28912163 100.49063873 C55.26823756 103.07882376 55.23994648 105.66680405 55.20874023 108.25488281 C55.20290924 109.02889435 55.19707825 109.80290588 55.19107056 110.60037231 C55.11533775 115.88466225 55.11533775 115.88466225 54 117 C48.95723676 116.61414111 45.43600601 115.47069265 41.1015625 112.91015625 C40.04582031 112.29076172 38.99007812 111.67136719 37.90234375 111.03320312 C36.82082031 110.38287109 35.73929687 109.73253906 34.625 109.0625 C33.52027344 108.41603516 32.41554688 107.76957031 31.27734375 107.10351562 C23.14295953 102.28591907 23.14295953 102.28591907 22 100 C21.92177701 98.42253927 21.90602283 96.84177304 21.92163086 95.26245117 C21.92750717 94.27770309 21.93338348 93.29295502 21.93943787 92.27836609 C21.94362984 91.74452553 21.94362984 91.74452553 21.96484375 89.04296875 C21.96113073 86.79361522 21.95520188 84.54426446 21.94726562 82.29492188 C21.93670111 78.73910391 21.9375238 75.18529056 21.97583008 71.62963867 C22.00891042 68.20380052 21.99137962 64.78129787 21.96484375 61.35546875 C21.98739731 60.29386032 22.00995087 59.23225189 22.03318787 58.13847351 C21.91577328 50.92768381 21.91577328 50.92768381 19.29766846 48.27552795 C17.24856063 46.98261018 15.21874875 45.96704628 13 45 C12.24702637 44.52957275 11.49405273 44.05914551 10.71826172 43.57446289 C8.78288156 42.38222011 6.83063402 41.2211849 4.875 40.0625 C4.19824219 39.63904297 3.52148438 39.21558594 2.82421875 38.77929688 C-2.13478207 35.87775384 -2.13478207 35.87775384 -5.84765625 36.40234375 C-10.37873126 38.69876219 -14.87025086 41.03526822 -19.3125 43.5 C-20.23095703 43.99886719 -21.14941406 44.49773437 -22.09570312 45.01171875 C-22.96775391 45.49253906 -23.83980469 45.97335938 -24.73828125 46.46875 C-25.13551392 46.68756836 -25.13551392 46.68756836 -27.14575195 47.79492188 C-29 49 -29 49 -30 51 C-30.07317626 52.57232921 -30.08359212 54.14778991 -30.0625 55.72167969 C-30.053396 56.70320007 -30.04429199 57.68472046 -30.03491211 58.69598389 C-30.02339111 59.76052795 -30.01187012 60.82507202 -30 61.921875 C-29.99884146 64.16666675 -30.00022384 66.41146098 -30.00390625 68.65625 C-30.00832554 72.20346467 -30.0000283 75.7480433 -29.94873047 79.29492188 C-29.90344727 82.71356469 -29.9153959 86.12808713 -29.9375 89.546875 C-29.90978516 90.60332214 -29.88207031 91.65976929 -29.85351562 92.74822998 C-29.97028098 99.95221429 -29.97028098 99.95221429 -32.91156006 102.94509888 C-35.21505641 104.50106622 -37.51073485 105.7674732 -40 107 C-41.55197967 107.91588379 -43.09958264 108.83926811 -44.640625 109.7734375 C-46.17485208 110.64456644 -47.7113141 111.51177113 -49.25 112.375 C-50.02601562 112.82488281 -50.80203125 113.27476562 -51.6015625 113.73828125 C-51.97925781 113.95033203 -51.97925781 113.95033203 -53.890625 115.0234375 C-54.56125977 115.40419434 -55.23189453 115.78495117 -55.92285156 116.17724609 C-58.39579081 117.15677187 -60.36147012 117.05724413 -63 117 C-63.20864697 105.8909815 -63.36850247 94.78242988 -63.46630955 83.6718502 C-63.51325639 78.5124625 -63.57691451 73.35441631 -63.67895508 68.19580078 C-63.7768399 63.21603884 -63.83057649 58.23756583 -63.85389519 53.25691605 C-63.870509 51.35814746 -63.90295487 49.45944852 -63.95157051 47.56122971 C-64.31640858 32.72411354 -64.31640858 32.72411354 -61.16816711 28.60083008 C-58.82887512 27.00181684 -56.64953706 25.98583873 -54 25 C-52.87859619 24.34290039 -51.75719238 23.68580078 -50.60180664 23.00878906 C-49.54856201 22.43354492 -48.49531738 21.85830078 -47.41015625 21.265625 C-46.82742447 20.94554977 -46.24469269 20.62547455 -45.64430237 20.29570007 C-43.78601667 19.2761637 -41.92462043 18.26251333 -40.0625 17.25 C-37.47717866 15.84109831 -34.89264532 14.43076034 -32.30859375 13.01953125 C-31.99265259 12.84724251 -31.99265259 12.84724251 -30.39379883 11.97535706 C-26.67603266 9.94105901 -22.99828763 7.8526698 -19.34765625 5.69921875 C-18.53482178 5.22516602 -17.7219873 4.75111328 -16.88452148 4.26269531 C-15.42842663 3.40870473 -13.98050719 2.5405402 -12.54321289 1.65527344 C-7.85764853 -1.06663117 -5.18523174 -1.5620108 0 0 Z " fill="#36464E" transform="translate(63,203)"/>
<path d="M0 0 C4.21901162 1.29281595 7.90758283 2.89848818 11.75390625 5.0546875 C12.84646729 5.6640918 13.93902832 6.27349609 15.06469727 6.90136719 C16.23080986 7.55892861 17.39674047 8.21681285 18.5625 8.875 C19.7627879 9.54877265 20.96322896 10.22227254 22.16381836 10.89550781 C24.59806568 12.26199976 27.03021974 13.6321231 29.4609375 15.00488281 C32.75906236 16.86664779 36.06650287 18.7114118 39.375 20.5546875 C41.27121951 21.619104 43.16707525 22.6841689 45.0625 23.75 C45.94172119 24.23839355 46.82094238 24.72678711 47.72680664 25.22998047 C48.52981201 25.68518066 49.33281738 26.14038086 50.16015625 26.609375 C50.50888794 26.80515137 50.50888794 26.80515137 52.27368164 27.79589844 C54 29 54 29 56 32 C56.24050903 34.63859558 56.24050903 34.63859558 56.22705078 37.84838867 C56.22689972 39.0494072 56.22674866 40.25042572 56.22659302 41.48783875 C56.21627045 42.78478165 56.20594788 44.08172455 56.1953125 45.41796875 C56.19158155 46.75889373 56.18873497 48.09982144 56.18673706 49.44075012 C56.17910699 52.96714833 56.15946403 56.49338134 56.1373291 60.01971436 C56.1168571 63.61923996 56.10773245 67.21879231 56.09765625 70.81835938 C56.07621745 77.87897376 56.04208913 84.93947609 56 92 C53.50364392 89.58593335 51.79615698 87.22144537 50.0234375 84.22265625 C49.44432617 83.2493335 48.86521484 82.27601074 48.26855469 81.27319336 C47.95611816 80.74342896 47.95611816 80.74342896 46.375 78.0625 C45.01379388 75.77297254 43.65181006 73.48392142 42.2890625 71.1953125 C41.93666504 70.60247971 41.58426758 70.00964691 41.22119141 69.39884949 C37.78559858 63.62424058 34.29192864 57.88550496 30.79330444 52.14889526 C23.9805981 40.97360176 17.24900085 29.75123159 10.5625 18.5 C10.14536743 17.79906219 9.72823486 17.09812439 9.29846191 16.37594604 C8.11533005 14.3869999 6.93423991 12.39685772 5.75390625 10.40625 C5.40262161 9.81586441 5.05133698 9.22547882 4.68940735 8.61720276 C3.01768711 5.79160338 1.41738609 2.9622691 0 0 Z " fill="#2E7D32" transform="translate(190,204)"/>
<path d="M0 0 C3.05500183 3.74932608 5.65958697 7.57579791 8.08984375 11.75 C8.47036392 12.39578003 8.85088409 13.04156006 9.24293518 13.70690918 C10.05578942 15.08679833 10.86702143 16.46764418 11.67675781 17.84936523 C13.81598958 21.49856985 15.96823746 25.14007132 18.12109375 28.78125 C18.54663544 29.50131226 18.97217712 30.22137451 19.41061401 30.96325684 C22.70160259 36.52129985 26.07133507 42.02575105 29.5 47.5 C34.76590198 55.94235402 39.93533073 64.44152664 45.04858398 72.97705078 C45.92968898 74.44539694 46.81362361 75.912049 47.70043945 77.37695312 C48.94095546 79.42770236 50.1709585 81.48439714 51.3984375 83.54296875 C51.7778952 84.16588303 52.15735291 84.7887973 52.54830933 85.43058777 C53.4278577 86.91860909 54.22319913 88.45585195 55 90 C54.67 90.66 54.34 91.32 54 92 C53.45512939 91.68998047 52.91025879 91.37996094 52.34887695 91.06054688 C49.67114658 89.53848605 46.99205506 88.01884638 44.3125 86.5 C43.30550049 85.92918701 42.29850098 85.35837402 41.26098633 84.77026367 C35.22272458 81.35741269 29.16691068 77.9805287 23.0859375 74.64453125 C22.42774521 74.28314056 21.76955292 73.92174988 21.09141541 73.54940796 C17.83801514 71.76384878 14.58233475 69.98262681 11.32348633 68.20703125 C10.12575034 67.55089709 8.92807483 66.8946525 7.73046875 66.23828125 C6.67239014 65.66118408 5.61431152 65.08408691 4.52416992 64.48950195 C2 63 2 63 0 61 C-0.24050903 58.44369507 -0.24050903 58.44369507 -0.22705078 55.17333984 C-0.22689972 53.95222504 -0.22674866 52.73111023 -0.22659302 51.47299194 C-0.21637903 50.13563882 -0.20594702 48.79828735 -0.1953125 47.4609375 C-0.1915828 46.09616299 -0.18873563 44.73138581 -0.18673706 43.36660767 C-0.17909714 39.77279277 -0.15944572 36.17913927 -0.1373291 32.58538818 C-0.11687832 28.91892683 -0.107737 25.25243943 -0.09765625 21.5859375 C-0.07620003 14.39055138 -0.04205992 7.1952983 0 0 Z " fill="#2E7D32" transform="translate(128,239)"/>
<path d="M0 0 C0.33 0 0.66 0 1 0 C1 19.8 1 39.6 1 60 C-1.82905652 57.17094348 -3.50804838 54.72159342 -5.5390625 51.30859375 C-5.87035156 50.75397461 -5.87035156 50.75397461 -7.546875 47.94726562 C-8.23961679 46.77736356 -8.93232474 45.60744146 -9.625 44.4375 C-10.32512983 43.26343862 -11.02564665 42.08960792 -11.7265625 40.91601562 C-16.80255034 32.39489932 -16.80255034 32.39489932 -18 30 C-17.34 30 -16.68 30 -16 30 C-15.76023438 29.32839844 -15.52046875 28.65679687 -15.2734375 27.96484375 C-13.69373661 24.28695118 -11.70684681 20.9744156 -9.625 17.5625 C-9.23828125 16.91990234 -8.8515625 16.27730469 -8.453125 15.61523438 C-6.62044172 12.58638701 -4.74962868 9.602714 -2.7578125 6.67578125 C-1.2095074 4.31891682 -0.4229144 2.74894359 0 0 Z " fill="#388D3C" transform="translate(245,236)"/>
<path d="M0 0 C2.82222581 3.52778226 5.14922962 6.70103798 7.453125 10.51953125 C8.071875 11.54111328 8.690625 12.56269531 9.328125 13.61523438 C9.96234375 14.67033203 10.5965625 15.72542969 11.25 16.8125 C11.8996875 17.88693359 12.549375 18.96136719 13.21875 20.06835938 C14.81568144 22.71034154 16.40931129 25.35425617 18 28 C13.98702559 34.98852061 9.87398437 41.90262772 5.625 48.75 C5.40465088 49.10771484 5.40465088 49.10771484 4.28955078 50.91796875 C3.22125288 52.62991509 2.11441182 54.31770783 1 56 C0.67 56 0.34 56 0 56 C0 37.52 0 19.04 0 0 Z " fill="#388E3C" transform="translate(128,239)"/>
<path d="M0 0 C2.90123084 2.97199257 3.15007364 3.97584684 3.5 8 C3.32232567 11.4880276 3.04636906 13.0798817 0.7109375 15.7109375 C-4.96886895 19.75708724 -4.96886895 19.75708724 -9 19.39453125 C-12.52561191 18.28147749 -15.28169623 16.54323367 -18.4375 14.625 C-19.64044615 4.14934397 -19.64044615 4.14934397 -16.90234375 0.6796875 C-10.93440124 -3.34493655 -6.51878034 -2.60751214 0 0 Z " fill="#378E3B" transform="translate(461.4375,258.375)"/>
</svg>
