<?xml version="1.0" encoding="UTF-8"?>
<!-- Generator: visioncortex VTracer 0.6.12 -->
<svg version="1.1" xmlns="http://www.w3.org/2000/svg" width="512" height="512">
<path d="M0 0 C0.90588867 0.52561523 1.81177734 1.05123047 2.74511719 1.59277344 C7.72423382 4.48370778 12.69610837 7.38680573 17.6640625 10.296875 C24.05281992 14.03634589 30.46116076 17.74125034 36.875 21.4375 C37.95458984 22.05971436 39.03417969 22.68192871 40.14648438 23.32299805 C42.3368252 24.58511517 44.52725502 25.84707785 46.71777344 27.10888672 C52.14659942 30.23680148 57.57319281 33.36858448 63 36.5 C65.16665583 37.75001879 67.3333225 39.00001878 69.5 40.25 C73.83333333 42.75 78.16666667 45.25 82.5 47.75 C83.57266113 48.36883057 84.64532227 48.98766113 85.75048828 49.62524414 C87.91557071 50.87435518 90.08060982 52.12354129 92.24560547 53.37280273 C98.78090374 57.14369637 105.3178593 60.91169681 111.85595703 64.67773438 C115.09308356 66.54409859 118.32793753 68.4143526 121.5625 70.28515625 C125.92827286 72.80945144 130.30449499 75.31435156 134.6875 77.80859375 C136.83343506 79.03888508 138.97927214 80.26934734 141.125 81.5 C142.10227051 82.05115479 143.07954102 82.60230957 144.08642578 83.17016602 C155.19696349 89.57128688 164.29661933 97.07793989 168.35249424 109.53205431 C169.35238219 113.34309247 169.4213725 116.97636583 169.39440918 120.89802551 C169.40050028 121.74662744 169.40659139 122.59522936 169.41286707 123.4695465 C169.42939932 126.28818677 169.42473532 129.10637044 169.41992188 131.92504883 C169.42726791 133.95614589 169.4358557 135.98723878 169.44558716 138.01832581 C169.46775624 143.51846032 169.47073611 149.01844481 169.46883965 154.51861787 C169.46871972 159.11829439 169.47729277 163.71793938 169.48561716 168.3176071 C169.50483493 179.17408055 169.50774107 190.0304771 169.50097656 200.88696289 C169.49433789 212.06772108 169.51719711 223.2481492 169.55429029 234.42884046 C169.58503032 244.04528505 169.59634262 253.66162369 169.59245348 263.27811641 C169.59039033 269.01403706 169.59579822 274.74970082 169.62034607 280.48557472 C169.64268144 285.88250984 169.64067872 291.27890999 169.62041855 296.67584801 C169.61702046 298.64942723 169.62204543 300.62304295 169.63640213 302.59657288 C169.73584254 317.28695418 168.24274408 328.71060377 157.56591797 339.74853516 C153.1336864 343.63759696 148.23480472 346.39928001 143.0625 349.1875 C141.33237003 350.15251273 139.60225616 351.11755581 137.87313843 352.0843811 C136.09314562 353.07673344 134.30891765 354.06110687 132.52392578 355.04443359 C126.96906721 358.11435938 121.48937418 361.31500328 116 364.5 C113.8336725 365.75058771 111.66700492 367.00058648 109.5 368.25 C108.4275 368.86875 107.355 369.4875 106.25 370.125 C44.5 405.75 44.5 405.75 41.24780273 407.6262207 C39.08840605 408.8720577 36.92906331 410.11798818 34.76977539 411.36401367 C29.24232403 414.55348953 23.71384879 417.74116885 18.18359375 420.92578125 C17.62353638 421.24853027 17.62353638 421.24853027 14.78930664 422.88183594 C12.5770952 424.1560852 10.36405798 425.42890206 8.15014648 426.70019531 C3.39381176 429.43682639 -1.34535252 432.18988535 -6.0234375 435.05859375 C-17.41115687 442.0288428 -28.37334679 447.41227385 -42.12866211 444.55834961 C-49.66058647 442.60075948 -55.85078059 438.86292889 -62.4375 434.8125 C-63.60778293 434.10390962 -64.77877778 433.39649384 -65.95043945 432.69018555 C-68.392185 431.21712782 -70.83078623 429.73904856 -73.26757812 428.2578125 C-76.9909297 425.99949017 -80.73433134 423.77615191 -84.484375 421.5625 C-85.09181046 421.20387375 -85.69924591 420.8452475 -86.3250885 420.47575378 C-87.52751547 419.76617985 -88.73003376 419.05676066 -89.93264771 418.34750366 C-93.70945435 416.1199608 -97.48492963 413.89058442 -101.24755859 411.63916016 C-102.99056247 410.60114986 -104.74257882 409.57800459 -106.50634766 408.57568359 C-107.23257324 408.1523877 -107.95879883 407.7290918 -108.70703125 407.29296875 C-109.32682861 406.94129639 -109.94662598 406.58962402 -110.58520508 406.22729492 C-112.40913331 404.64508833 -112.62894734 403.34178881 -113 401 C-108.09112742 397.80826269 -102.83552066 395.8245863 -97.4140625 393.69335938 C-93.85370054 392.26603569 -90.5450161 390.78864721 -87.2734375 388.77734375 C-83.96335437 386.98010291 -82.64406106 386.30145794 -79 387 C-76.1796875 388.40625 -76.1796875 388.40625 -72.875 390.5 C-71.56469695 391.31394234 -70.25341023 392.12630226 -68.94140625 392.9375 C-68.18617676 393.40800781 -67.43094727 393.87851562 -66.65283203 394.36328125 C-61.68375748 397.42905299 -56.66867281 400.41795682 -51.65118408 403.40356445 C-49.82887456 404.4902356 -48.01080781 405.5837679 -46.19287109 406.67773438 C-45.62802002 407.01450195 -45.62802002 407.01450195 -42.76953125 408.71875 C-42.26216431 409.02264648 -42.26216431 409.02264648 -39.69458008 410.56054688 C-35.59577567 412.75014104 -35.59577567 412.75014104 -33 413 C-31.09082031 412.32592773 -31.09082031 412.32592773 -29.078125 411.18359375 C-28.31290527 410.7565918 -27.54768555 410.32958984 -26.75927734 409.88964844 C-25.93121582 409.41043945 -25.1031543 408.93123047 -24.25 408.4375 C-23.37166504 407.9415332 -22.49333008 407.44556641 -21.58837891 406.93457031 C-18.71631774 405.30533933 -15.85684798 403.65574924 -13 402 C-12.5270752 401.72647705 -12.5270752 401.72647705 -10.13378906 400.34228516 C-5.16911422 397.46547102 -0.21472107 394.57149078 4.734375 391.66796875 C11.09771035 387.93674029 17.48349555 384.24521942 23.875 380.5625 C24.95475098 379.94020508 26.03450195 379.31791016 27.14697266 378.67675781 C29.33714534 377.41471274 31.52741243 376.15283148 33.71777344 374.89111328 C39.14659942 371.76319852 44.57319281 368.63141552 50 365.5 C52.16665583 364.24998121 54.3333225 362.99998122 56.5 361.75 C57.5725 361.13125 58.645 360.5125 59.75 359.875 C69.5 354.25 69.5 354.25 72.75097656 352.37451172 C74.91447476 351.12628966 77.07788643 349.87791761 79.24121094 348.62939453 C84.70565017 345.47594744 90.17163645 342.32523904 95.640625 339.1796875 C96.19427734 338.8609668 96.19427734 338.8609668 98.99609375 337.24804688 C101.04498654 336.0686422 103.09439311 334.89012919 105.14453125 333.71289062 C107.12812606 332.57054075 109.08615873 331.3828081 111.01805115 330.15504456 C114.05609901 328.3538816 117.02065159 327.33832138 120.39686584 326.32078552 C127.22347259 323.88716844 132.73542771 321.02042379 137 315 C141.69501779 302.5346735 139.91927596 287.0134486 139.658777 273.96337104 C139.56912639 268.47391612 139.59485535 262.98483805 139.60456848 257.49482727 C139.60342035 248.28284044 139.51603188 239.07484232 139.3737793 229.86401367 C139.21024581 219.22492658 139.17010931 208.59096719 139.1987049 197.95077771 C139.22455663 187.69476596 139.17639061 177.44049927 139.09005165 167.18485451 C139.05388791 162.82875479 139.04114426 158.47352407 139.0469265 154.11728477 C139.04944264 148.98766767 138.98629477 143.86285539 138.87285423 138.73453331 C138.84135989 136.85627054 138.83169016 134.97749225 138.84575272 133.0990181 C138.91503547 121.55034263 138.91503547 121.55034263 137 117 C133.06256862 113.04651098 129.14247027 111.18467733 124 109 C121.97079106 107.8474376 119.953842 106.67266651 117.95703125 105.46484375 C115.90995526 104.28714651 113.86174178 103.11142462 111.8125 101.9375 C110.10957218 100.95848887 108.4066462 99.97947453 106.7038269 99.00027466 C104.95604539 97.99552701 103.20779404 96.99160086 101.45947266 95.98779297 C95.96860763 92.8327737 90.48452655 89.66602037 85 86.5 C82.83336859 85.24993888 80.66670186 83.999939 78.5 82.75 C13.5 45.25 13.5 45.25 10.24511719 43.37109375 C8.09598426 42.13193074 5.9456082 40.89492106 3.79394531 39.66015625 C-1.29101476 36.73858186 -6.36040345 33.79655101 -11.38757324 30.7767334 C-13.76362942 29.35122749 -16.14686624 27.93798164 -18.53076172 26.52563477 C-20.21124983 25.52311693 -21.88117355 24.50295724 -23.55078125 23.48242188 C-24.06060547 23.18110352 -24.06060547 23.18110352 -26.640625 21.65625 C-27.53297852 21.11806641 -28.42533203 20.57988281 -29.34472656 20.02539062 C-32.72416088 18.72034979 -34.53494799 19.03185718 -38 20 C-40.47167969 21.16064453 -40.47167969 21.16064453 -42.921875 22.6328125 C-43.85112793 23.18380615 -44.78038086 23.7347998 -45.73779297 24.30249023 C-46.73182129 24.90391846 -47.72584961 25.50534668 -48.75 26.125 C-50.91360121 27.41093269 -53.07768002 28.6960621 -55.2421875 29.98046875 C-56.35819336 30.6461084 -57.47419922 31.31174805 -58.62402344 31.99755859 C-64.01253101 35.19372139 -69.44352595 38.31510214 -74.875 41.4375 C-77.05998436 42.69646096 -79.24487972 43.95557638 -81.4296875 45.21484375 C-82.51475586 45.83987793 -83.59982422 46.46491211 -84.71777344 47.10888672 C-90.14659942 50.23680148 -95.57319281 53.36858448 -101 56.5 C-103.16665583 57.75001879 -105.3333225 59.00001878 -107.5 60.25 C-108.5725 60.86875 -109.645 61.4875 -110.75 62.125 C-146.5 82.75 -146.5 82.75 -149.75341797 84.62695312 C-151.90871311 85.8704051 -154.06398673 87.11389436 -156.21923828 88.35742188 C-161.22337674 91.24462875 -166.2277052 94.1315043 -171.23284912 97.01696777 C-172.98341241 98.02619104 -174.73390411 99.03553836 -176.484375 100.04492188 C-178.66392165 101.3016766 -180.84359832 102.55820586 -183.0234375 103.81445312 C-185.01507324 104.96298018 -187.00566697 106.1133164 -188.99511719 107.265625 C-191.12116506 108.49274915 -193.25257771 109.71060044 -195.38769531 110.921875 C-196.47920898 111.54578125 -197.57072266 112.1696875 -198.6953125 112.8125 C-199.68805176 113.37582031 -200.68079102 113.93914062 -201.70361328 114.51953125 C-204 116 -204 116 -205 118 C-205.0956388 120.59471753 -205.13014033 123.16246122 -205.12025452 125.75735474 C-205.12068173 126.16248084 -205.12068173 126.16248084 -205.12284368 128.21266448 C-205.12449807 130.94274243 -205.11897777 133.67275969 -205.11352539 136.40283203 C-205.11324348 138.35384113 -205.11340132 140.30485034 -205.1139679 142.25585938 C-205.11425574 147.56549819 -205.10836117 152.87511458 -205.10139394 158.18474817 C-205.09515816 163.72878564 -205.09455642 169.27282358 -205.09336853 174.81686401 C-205.09025588 185.32117829 -205.08204337 195.8254822 -205.07201904 206.3297919 C-205.06085586 218.28607858 -205.05534694 230.24236574 -205.05032361 242.19865632 C-205.03986071 266.79910997 -205.02226254 291.3995544 -205 316 C-204.23382858 316.29829712 -203.46765717 316.59659424 -202.67826843 316.90393066 C-199.6239338 318.1539034 -196.87752558 319.69314842 -194.01953125 321.34375 C-193.45360764 321.66930374 -192.88768402 321.99485748 -192.30461121 322.33027649 C-191.09693514 323.02524578 -189.89002939 323.72155516 -188.68383789 324.4190979 C-186.79504324 325.51008319 -184.90297643 326.59516518 -183.00976562 327.6784668 C-177.51787523 330.8218358 -172.03347709 333.9759592 -166.57421875 337.17578125 C-155.88761812 343.38275681 -146.11298466 348.8340423 -133.40625 345.78515625 C-127.24142322 343.77358128 -124.26260921 340.44042859 -120.98046875 335.09765625 C-118.7256437 330.27358832 -118.85059468 325.23907159 -118.84851074 320.00923157 C-118.84427833 319.21007786 -118.84004592 318.41092416 -118.83568525 317.58755368 C-118.82268131 314.91294076 -118.81663971 312.23835763 -118.81054688 309.5637207 C-118.80260293 307.64506855 -118.79421485 305.7264182 -118.78541565 303.80776978 C-118.76737018 299.67827691 -118.75235068 295.54878798 -118.73963928 291.41927528 C-118.71941841 284.89474063 -118.69176773 278.37025053 -118.66296387 271.8457489 C-118.59777537 256.82237608 -118.54229435 241.79897032 -118.48697662 226.77555847 C-118.43616415 212.99910399 -118.38332282 199.22266576 -118.32245111 185.44625157 C-118.29405216 178.9547024 -118.27047483 172.46315864 -118.25052643 165.97157824 C-118.23717229 161.94204682 -118.21975872 157.9125405 -118.20121574 153.88302994 C-118.19343787 152.00846807 -118.1873779 150.1338982 -118.18312263 148.25932503 C-118.17710622 145.70944608 -118.1650731 143.15966567 -118.15148926 140.6098175 C-118.15119327 139.86031887 -118.15089728 139.11082023 -118.15059233 138.33860952 C-118.11409341 133.22818682 -118.11409341 133.22818682 -117 131 C-112.28032168 129.42677389 -107.50510529 129.815523 -102.5625 129.8125 C-101.51255859 129.80025391 -100.46261719 129.78800781 -99.38085938 129.77539062 C-98.87522461 129.77442383 -98.87522461 129.77442383 -96.31640625 129.76953125 C-95.39287354 129.76542236 -94.46934082 129.76131348 -93.51782227 129.75708008 C-90.83123255 130.01628271 -89.22977601 130.48820746 -87 132 C-85.80570403 135.58288792 -85.86161508 138.83407846 -85.87301636 142.56234741 C-85.87145637 143.33978038 -85.86989638 144.11721336 -85.86828911 144.9182049 C-85.86429014 147.53191481 -85.86746465 150.14556697 -85.87060547 152.75927734 C-85.86925083 154.63022903 -85.86747054 156.50118044 -85.86529541 158.37213135 C-85.8607254 163.46357991 -85.86250971 168.55500827 -85.8656745 173.6464572 C-85.86820405 178.97887445 -85.86585854 184.31128996 -85.86428833 189.64370728 C-85.8624668 198.61029368 -85.86487086 207.57687187 -85.86962891 216.54345703 C-85.87505492 226.88779373 -85.87332092 237.23211068 -85.8678025 247.57644689 C-85.86325106 256.4658107 -85.86263124 265.35516858 -85.86524117 274.24453318 C-85.86679492 279.54955469 -85.86702285 284.85456695 -85.86370468 290.15958786 C-85.86079703 295.15820224 -85.86285443 300.15679145 -85.86859894 305.15540314 C-85.86991182 306.98180983 -85.86955771 308.80821867 -85.86733627 310.63462448 C-85.82384017 350.05918335 -85.82384017 350.05918335 -99.375 365.75 C-99.808125 366.12125 -99.808125 366.12125 -102 368 C-102.56203125 368.49113281 -103.1240625 368.98226563 -103.703125 369.48828125 C-116.66370341 380.10436478 -133.07215048 379.9816033 -149 379 C-153.93135987 378.39010665 -158.40847162 376.87737726 -163 375 C-163.30421875 374.87641113 -163.30421875 374.87641113 -164.84375 374.25097656 C-177.54859427 368.9679642 -189.25379881 361.757534 -201.04931641 354.73535156 C-203.8515812 353.08728784 -206.6735507 351.48370205 -209.51171875 349.8984375 C-210.36717285 349.41737549 -211.22262695 348.93631348 -212.10400391 348.44067383 C-213.68082726 347.55674455 -215.26218725 346.68083204 -216.84912109 345.81518555 C-224.25483575 341.63069665 -229.72453801 336.60754728 -233.375 328.8125 C-233.85710937 327.80832031 -234.33921875 326.80414063 -234.8359375 325.76953125 C-236.96103125 320.71351961 -237.14844741 316.17802262 -237.14717102 310.73448181 C-237.15084771 309.89353 -237.1545244 309.05257818 -237.1583125 308.18614298 C-237.1693399 305.3635911 -237.17319161 302.54107605 -237.17700195 299.71850586 C-237.1832674 297.69637943 -237.18991428 295.67425415 -237.19691467 293.65213013 C-237.21795079 287.00637615 -237.22831782 280.36062196 -237.23828125 273.71484375 C-237.24232921 271.42560883 -237.24644615 269.13637403 -237.25063133 266.84713936 C-237.26968336 256.08992451 -237.28391341 245.33271651 -237.2922433 234.57548803 C-237.30201099 222.16687633 -237.32831836 209.75844324 -237.36874419 197.34989446 C-237.39893143 187.75396606 -237.41371473 178.15808878 -237.41702431 168.56211382 C-237.41937214 162.83343714 -237.42829784 157.10495126 -237.45348549 151.37632561 C-237.47681617 145.98282756 -237.48097924 140.58964526 -237.47072411 135.19610977 C-237.47022983 133.22210831 -237.4765183 131.24809105 -237.49028015 129.2741375 C-237.57421075 116.51621146 -237.23703697 105.19107314 -228.80371094 94.81713867 C-222.24442362 88.20902071 -213.46800859 83.8591025 -205.375 79.4375 C-196.92095768 74.76175513 -188.51870872 70.01639235 -180.1875 65.125 C-171.49168527 60.02380996 -162.75993648 54.98991483 -154 50 C-145.30581933 45.04650609 -136.63496896 40.05630535 -128 35 C-118.77602609 29.59879603 -109.50845126 24.27757081 -100.22106934 18.98654175 C-91.86872653 14.22706361 -83.54686317 9.41823122 -75.25 4.5625 C-72.37611234 2.88543777 -69.50170333 1.20927461 -66.62695312 -0.46630859 C-64.93141648 -1.45621205 -63.23729782 -2.44855019 -61.54492188 -3.44384766 C-59.3685823 -4.72196424 -57.18551552 -5.98765836 -55 -7.25 C-54.39575195 -7.60892334 -53.79150391 -7.96784668 -53.16894531 -8.33764648 C-34.11486826 -19.23758876 -16.90060153 -9.84141308 0 0 Z " fill="#20A265" transform="translate(290,40)"/>
<path d="M0 0 C9.81982263 10.64600963 14.71040637 24.43311649 15.53125 38.75390625 C15.3125 41.9375 15.3125 41.9375 13.3125 44.9375 C8.70384878 45.61470126 4.02743591 45.40027249 -0.625 45.375 C-1.92630859 45.39498047 -3.22761719 45.41496094 -4.56835938 45.43554688 C-5.81294922 45.43490234 -7.05753906 45.43425781 -8.33984375 45.43359375 C-9.48445068 45.43544678 -10.62905762 45.4372998 -11.80834961 45.43920898 C-14.6875 44.9375 -14.6875 44.9375 -16.52661133 43.07519531 C-17.91255984 40.52306804 -18.66205285 38.04819374 -19.4375 35.25 C-22.01075066 27.31742279 -25.73488517 21.24816168 -33.125 17.0625 C-52.16006308 8.87628984 -78.78719532 8.82404573 -98.1171875 15.81640625 C-104.14631985 18.45553195 -107.55458931 22.15671921 -110.0625 28.3125 C-111.00536359 33.78110881 -111.06933716 37.91080549 -107.8125 42.6875 C-98.85157946 49.13936279 -87.52241977 50.22795528 -76.875 51.875 C-75.28333825 52.13016284 -73.69186892 52.38652859 -72.10058594 52.64404297 C-68.07131362 53.29429403 -64.04044611 53.93393362 -60.00897217 54.57037354 C2.29059869 64.42266534 2.29059869 64.42266534 15.3125 81.8125 C23.49699372 94.69622456 23.53889923 110.39254348 20.3125 124.9375 C18.28854737 131.92933635 15.06076376 137.45702734 10.3125 142.9375 C9.76078125 143.59492188 9.2090625 144.25234375 8.640625 144.9296875 C-6.35386371 161.39799348 -30.48274429 166.03464135 -51.75927734 167.08984375 C-79.32629247 167.94212432 -111.3036486 166.4386436 -133.25 147.5 C-134.76151369 146.01131118 -136.24318805 144.49147267 -137.6875 142.9375 C-138.01492187 142.58880859 -138.01492187 142.58880859 -139.671875 140.82421875 C-147.55446083 131.61102548 -150.79726161 120.18194965 -150.9375 108.25 C-150.958125 107.57388672 -150.97875 106.89777344 -151 106.20117188 C-151.015625 104.23828125 -151.015625 104.23828125 -150.6875 100.9375 C-145.81623683 97.68999122 -140.41159973 98.60964566 -134.6875 98.625 C-133.48609375 98.60888672 -132.2846875 98.59277344 -131.046875 98.57617188 C-129.89703125 98.57552734 -128.7471875 98.57488281 -127.5625 98.57421875 C-126.50804687 98.57123779 -125.45359375 98.56825684 -124.3671875 98.56518555 C-121.6875 98.9375 -121.6875 98.9375 -119.88012695 100.25439453 C-117.96425722 102.95818285 -117.58040421 105.91363929 -116.875 109.125 C-114.88835364 117.25625412 -112.04420478 122.82220654 -105.125 127.6875 C-95.15741367 133.36135684 -83.70188555 135.07477713 -72.40234375 135.140625 C-71.62419815 135.14632507 -70.84605255 135.15202515 -70.04432678 135.15789795 C-68.40301856 135.16729673 -66.7616919 135.17386141 -65.12036133 135.17773438 C-62.65606116 135.18737844 -60.19261855 135.21842475 -57.72851562 135.25 C-44.4612505 135.33937054 -31.10449205 134.50405552 -19.6875 126.9375 C-14.82890266 122.07890266 -13.14745111 116.72177892 -12.6875 109.9375 C-13.11097555 105.7497973 -13.87515033 102.82369964 -16.75 99.6875 C-23.38699341 95.73354648 -29.72952719 93.54924961 -37.2734375 91.96875 C-38.10456055 91.79452515 -38.93568359 91.62030029 -39.79199219 91.4407959 C-49.02736413 89.57268086 -58.32981135 88.48348728 -67.6875 87.4375 C-120.71297217 81.5103986 -120.71297217 81.5103986 -136.08984375 65.04296875 C-144.23331132 54.31111296 -146.72240126 42.1448113 -145.6875 28.9375 C-143.49990397 13.56917833 -136.63732266 2.71297331 -124.453125 -6.80859375 C-113.67900973 -13.96037716 -99.42877033 -17.74268714 -86.6875 -19.0625 C-85.62402344 -19.18367187 -84.56054688 -19.30484375 -83.46484375 -19.4296875 C-55.39789103 -21.97840303 -21.94762763 -19.66864146 0 0 Z " fill="#20A365" transform="translate(369.6875,185.0625)"/>
</svg>
