<?xml version="1.0" encoding="UTF-8"?>
<!-- Generator: visioncortex VTracer 0.6.12 -->
<svg version="1.1" xmlns="http://www.w3.org/2000/svg" width="512" height="512">
<path d="M0 0 C3.83137296 2.9713695 7.73991306 5.83615148 11.65039062 8.70214844 C12.04589111 8.99255005 12.04589111 8.99255005 14.04736328 10.4621582 C15.6539418 11.64143441 17.26087617 12.82022597 18.86816406 13.99853516 C22.84204184 16.91405562 26.80839686 19.83977213 30.77539062 22.76464844 C35.55881535 26.29044526 40.34311025 29.81503777 45.13085938 33.33496094 C52.80068818 38.97556292 60.46183884 44.62744357 68.08789062 50.32714844 C68.72750732 50.80361816 69.36712402 51.28008789 70.02612305 51.77099609 C71.78578062 53.08985956 73.53388605 54.42192685 75.27539062 55.76464844 C75.82396729 56.18399658 76.37254395 56.60334473 76.93774414 57.03540039 C80.23641973 59.65099372 82.49784547 62.18224489 84.58789062 65.82714844 C85.07902344 66.66375 85.57015625 67.50035156 86.07617188 68.36230469 C87.96546016 72.14703528 88.40069155 75.39430697 88.4096117 79.6017704 C88.41406955 80.57891837 88.41852739 81.55606633 88.42312032 82.56282485 C88.42302814 83.09832133 88.42302814 83.09832133 88.42256165 85.80825806 C88.42623833 86.94801476 88.42991502 88.08777146 88.43370312 89.26206625 C88.44474969 93.09577655 88.44858547 96.92945975 88.45239258 100.76318359 C88.4581244 103.5061364 88.4652904 106.24908513 88.4723053 108.99203491 C88.49205743 117.23371655 88.50213441 125.47539939 88.51103309 133.71709877 C88.51541811 137.59997803 88.52078437 141.48285592 88.52602196 145.3657341 C88.54303312 158.27630391 88.55752673 171.18687287 88.5647707 184.09745216 C88.56668054 187.44696682 88.56860088 190.79648147 88.57055664 194.14599609 C88.57104038 194.97848312 88.57152412 195.81097015 88.57202252 196.66868405 C88.58032075 210.1508908 88.60565466 223.63300876 88.63813732 237.11517675 C88.67122733 250.96252541 88.68922122 264.80982898 88.69241494 278.65721738 C88.69457826 286.42978444 88.70330074 294.20222204 88.72887611 301.97475052 C88.75060969 308.59495311 88.75862053 315.21499478 88.74890933 321.83522899 C88.74437213 325.21079023 88.74840913 328.58575112 88.76567078 331.96131134 C88.78336786 335.62753225 88.77629297 339.29291533 88.76313782 342.95913696 C88.76862244 343.48794128 88.76862244 343.48794128 88.79637796 346.1640116 C88.71212822 355.91155998 86.0440875 363.87944197 79.24414062 371.01074219 C69.61250642 379.5913052 57.26154644 379.89156301 44.93099976 380.65054321 C44.39319439 380.68610783 44.39319439 380.68610783 41.67157328 380.86608636 C38.10285123 381.10058839 34.53363744 381.32643966 30.96435547 381.55224609 C28.39080565 381.71952009 25.81728961 381.88731447 23.24380493 382.05558777 C16.99927658 382.46287095 10.7543449 382.86360594 4.50924055 383.26194932 C-0.57341319 383.5862725 -5.65590498 383.91303204 -10.73829269 384.24149704 C-11.46416517 384.2884072 -12.19003765 384.33531736 -12.93790626 384.38364904 C-14.41299307 384.4789891 -15.88807949 384.57433506 -17.36316554 384.66968684 C-31.17230742 385.56205338 -44.98191694 386.44700136 -58.79170232 387.32934563 C-70.60580714 388.08434834 -82.41949972 388.84553971 -94.23291016 389.61132812 C-107.98643837 390.50287835 -121.74020215 391.3906463 -135.49436033 392.27242887 C-136.96558432 392.36675873 -138.43680803 392.46109288 -139.90803146 392.55543137 C-140.6316839 392.60183127 -141.35533634 392.64823116 -142.10091764 392.69603712 C-147.16625814 393.02107356 -152.23142456 393.34873843 -157.29652786 393.67744827 C-164.13674385 394.12127136 -170.97733666 394.558849 -177.8182106 394.99241066 C-180.31670235 395.15166868 -182.81507251 395.31284871 -185.31330109 395.47618294 C-196.20765919 396.18740884 -207.09048122 396.89270629 -218.01132202 396.95004272 C-218.72407716 396.95634598 -219.43683231 396.96264924 -220.17118609 396.96914351 C-230.14865656 396.91732015 -236.22811544 393.05520651 -243.29492188 386.30761719 C-246.52518231 382.92674975 -249.47498323 379.38234212 -252.37695312 375.71777344 C-254.92844041 372.50824866 -257.56430792 369.38381281 -260.22460938 366.26464844 C-264.2756965 361.49636989 -268.26815095 356.68549902 -272.22070312 351.83496094 C-279.59147254 342.79685679 -286.98515474 333.77723134 -294.53710938 324.88964844 C-299.33755578 319.23811471 -304.07568853 313.54168314 -308.72460938 307.76464844 C-309.29050781 307.08015625 -309.85640625 306.39566406 -310.43945312 305.69042969 C-318.88918723 295.09063601 -322.03484584 283.73568852 -321.97857666 270.43379211 C-321.98169664 269.2994894 -321.98481662 268.16518669 -321.98803115 266.99651116 C-321.99600204 263.19952539 -321.98969097 259.40269983 -321.98339844 255.60571289 C-321.98500854 252.88213775 -321.98959744 250.15856939 -321.99401855 247.43499756 C-322.0029035 240.80845696 -322.0009948 234.18196172 -321.99519327 227.55541936 C-321.9906744 222.1708911 -321.99006485 216.78637554 -321.99224091 211.40184593 C-321.99254737 210.63517419 -321.99285384 209.86850245 -321.99316959 209.07859823 C-321.99380904 207.52110289 -321.99445747 205.96360755 -321.99511477 204.40611222 C-322.00081514 189.80873237 -321.99426419 175.21137767 -321.98351404 160.61400195 C-321.97457343 148.08567298 -321.97613534 135.55738105 -321.98535156 123.02905273 C-321.99605014 108.47884183 -322.00027149 93.92865293 -321.99412704 79.37843865 C-321.99348993 77.82762699 -321.99286119 76.27681532 -321.99224091 74.72600365 C-321.99193235 73.96297287 -321.9916238 73.19994208 -321.9913059 72.41378916 C-321.98957812 67.03348156 -321.99249574 61.6531879 -321.99720001 56.27288246 C-322.00280402 49.7195803 -322.00130231 43.16632606 -321.99063852 36.6130294 C-321.98537612 33.26872466 -321.98440823 29.92456622 -321.98993683 26.58025169 C-321.9953739 22.95827176 -321.98858041 19.33651915 -321.97857666 15.71455383 C-321.9830381 14.65318736 -321.98749955 13.59182088 -321.99209619 12.49829179 C-321.98688069 11.52974391 -321.9816652 10.56119604 -321.97629166 9.56329823 C-321.97596695 8.72715136 -321.97564225 7.8910045 -321.9753077 7.02951986 C-321.69422438 4.49014275 -321.0939236 2.91471966 -319.72460938 0.76464844 C-315.27555689 -2.0771655 -311.43042011 -2.72084871 -306.21629333 -3.09396362 C-305.47989233 -3.1501688 -304.74349132 -3.20637398 -303.98477513 -3.26428235 C-301.52564934 -3.44887013 -299.06563824 -3.61526903 -296.60522461 -3.78173828 C-294.83446375 -3.91090378 -293.06378452 -4.04119263 -291.29318237 -4.17251587 C-286.46958202 -4.52706105 -281.64498557 -4.86581957 -276.82006717 -5.20188284 C-271.69871952 -5.5613481 -266.57843948 -5.93543757 -261.45802307 -6.30789185 C-251.681332 -7.01682632 -241.90376087 -7.71276945 -232.12580782 -8.40405571 C-221.27802946 -9.17154513 -210.43124768 -9.95264326 -199.5845592 -10.73536253 C-185.8847767 -11.72386802 -172.18481272 -12.70970496 -158.48397827 -13.68353271 C-157.4594357 -13.75636246 -156.43489313 -13.82919221 -155.37930381 -13.90422893 C-153.327009 -14.0501045 -151.27471407 -14.19597845 -149.22241902 -14.34185076 C-134.18615008 -15.41069998 -119.15097198 -16.49176117 -104.11818254 -17.608567 C-101.6447455 -17.79218733 -99.17126172 -17.97516338 -96.69775867 -18.15789223 C-95.90617916 -18.21638481 -95.11459964 -18.2748774 -94.29903287 -18.33514249 C-92.73873659 -18.45043753 -91.178439 -18.56571489 -89.61814004 -18.68097365 C-85.23847627 -19.00496407 -80.85917574 -19.33339057 -76.48011541 -19.66543198 C-73.21693448 -19.91158982 -69.95327544 -20.15126502 -66.68969727 -20.39208984 C-65.56872461 -20.47881077 -64.44775196 -20.56553169 -63.29281044 -20.65488052 C-36.48501847 -22.60591293 -20.73637911 -16.27995587 0 0 Z M-83.20874023 2.2175293 C-85.36951627 2.37418319 -87.53034046 2.53017404 -89.69120789 2.68556213 C-95.48822164 3.10434892 -101.28451002 3.53246964 -107.08069301 3.96258235 C-113.1713023 4.41305384 -119.26251459 4.85522797 -125.35365295 5.29847717 C-135.56061125 6.04242405 -145.76713659 6.79208367 -155.97338867 7.5456543 C-167.76741344 8.41642607 -179.56195035 9.27995369 -191.35681623 10.1392526 C-203.94822372 11.05659005 -216.53931476 11.97820842 -229.13027883 12.90161061 C-232.74981495 13.16683551 -236.36940134 13.43136579 -239.98899651 13.69578362 C-245.66680283 14.11083713 -251.34438528 14.52883318 -257.02180672 14.94911766 C-259.10426992 15.10285463 -261.18680289 15.25564998 -263.26940918 15.40743637 C-266.11058593 15.61468672 -268.9514869 15.82538014 -271.79234314 16.03697205 C-272.6165502 16.09631438 -273.44075726 16.15565671 -274.2899403 16.21679729 C-278.48541992 16.5332381 -282.58180547 16.99347981 -286.72460938 17.76464844 C-282.30171621 23.04806356 -277.65523996 28.00792469 -272.79882812 32.89355469 C-272.0518013 33.64628159 -271.30477448 34.39900848 -270.53511047 35.17454529 C-268.96238325 36.75666737 -267.38823732 38.33738031 -265.81274414 39.91674805 C-263.42257977 42.31663545 -261.04330944 44.7269905 -258.6640625 47.13769531 C-257.12631314 48.68197469 -255.5879225 50.22561581 -254.04882812 51.76855469 C-253.34851974 52.48120987 -252.64821136 53.19386505 -251.92668152 53.92811584 C-244.05137727 61.76869812 -235.61782884 68.17316998 -224.13253433 68.93704456 C-221.43360776 68.88873801 -218.76189807 68.74038399 -216.06970215 68.54431152 C-215.07442804 68.48625257 -214.07915393 68.42819362 -213.05372 68.3683753 C-209.94277171 68.18329234 -206.83397761 67.97442649 -203.72460938 67.76464844 C-201.81772268 67.64921877 -199.91072575 67.53559392 -198.00361633 67.42390442 C-192.0684227 67.07100142 -186.13587344 66.68160268 -180.203125 66.29003906 C-177.95497458 66.14352639 -175.70681027 65.99722658 -173.45863342 65.85112 C-167.43270342 65.45883721 -161.40698255 65.06342866 -155.3813076 64.66724968 C-150.33318246 64.33565947 -145.28495149 64.0056965 -140.23671961 63.67573595 C-127.6590969 62.85363751 -115.08167093 62.02857431 -102.50434047 61.2020207 C-92.27926085 60.53012779 -82.05400283 59.86100661 -71.82861328 59.19384766 C-59.90439045 58.41584691 -47.98028896 57.63602348 -36.05635786 56.85356092 C-29.76150698 56.44049139 -23.46661016 56.0281592 -17.17158508 55.61775208 C-11.26807731 55.23275917 -5.3647479 54.8451376 0.53845406 54.45548439 C2.70274863 54.31305849 4.86710377 54.17154956 7.03152275 54.03102684 C9.98607006 53.83905638 12.94037969 53.64376265 15.89465332 53.44763184 C16.32212758 53.4202472 16.32212758 53.4202472 18.4854064 53.28166437 C23.1260464 52.96960046 27.68001798 52.48590433 32.27539062 51.76464844 C28.54692499 47.68819268 24.16219684 44.61898359 19.71289062 41.38964844 C17.99277183 40.13192717 16.27272164 38.87411207 14.55273438 37.61621094 C13.67472168 36.97586914 12.79670898 36.33552734 11.89208984 35.67578125 C8.62583218 33.29023684 5.36942176 30.89154584 2.11474609 28.49023438 C0.55348876 27.33859935 -1.00868869 26.18821068 -2.57177734 25.0390625 C-6.6827799 22.01599131 -10.78059051 18.97691577 -14.86132812 15.91308594 C-15.70695312 15.28144531 -16.55257813 14.64980469 -17.42382812 13.99902344 C-19.03052933 12.79841154 -20.63366927 11.59301215 -22.23242188 10.38183594 C-30.88100105 3.93720049 -38.19369759 0.57583833 -49.0068512 0.61134338 C-49.94164985 0.61356826 -50.87644851 0.61579314 -51.8395744 0.61808544 C-62.32930999 0.69968886 -72.75239406 1.43189465 -83.20874023 2.2175293 Z M-300.72460938 34.76464844 C-300.81594075 65.40675456 -300.88668981 96.04882942 -300.92887069 126.69103922 C-300.93387327 130.3120114 -300.93905059 133.9329833 -300.94433594 137.55395508 C-300.94538518 138.27479844 -300.94643442 138.9956418 -300.94751546 139.7383289 C-300.96490117 151.39655346 -300.99642869 163.05469879 -301.03322056 174.71287642 C-301.07068113 186.68314595 -301.09285602 198.6533741 -301.10096335 210.62369984 C-301.10595017 217.34394284 -301.11790289 224.06402092 -301.1475296 230.78420448 C-301.17473847 237.11330785 -301.18304315 243.44215832 -301.1770401 249.77131462 C-301.17813787 252.09040324 -301.18605881 254.40950058 -301.20143127 256.72853851 C-301.22144434 259.90419699 -301.21650688 263.07891082 -301.20562744 266.2545929 C-301.21727881 267.16416113 -301.22893017 268.07372936 -301.24093461 269.01086026 C-301.15191085 278.67852522 -298.18001851 287.19952051 -291.53710938 294.26464844 C-290.55313493 295.36801178 -289.57007485 296.47219118 -288.58789062 297.57714844 C-288.10271973 298.11339844 -287.61754883 298.64964844 -287.11767578 299.20214844 C-285.07479743 301.49349464 -283.1517441 303.87569584 -281.22460938 306.26464844 C-277.936374 310.30448047 -274.59737805 314.29555374 -271.22460938 318.26464844 C-265.75833645 324.69785532 -260.40565831 331.22057846 -255.09179688 337.78027344 C-253.99101769 339.12636913 -252.86209822 340.44942696 -251.72460938 341.76464844 C-251.39460938 341.76464844 -251.06460938 341.76464844 -250.72460938 341.76464844 C-249.59829393 309.73420094 -248.73545188 277.7095456 -248.22240823 245.66382385 C-248.16114895 241.85145247 -248.09772473 238.03911998 -248.03295898 234.22680664 C-248.02653238 233.84744394 -248.02653238 233.84744394 -247.99400986 231.92763876 C-247.80883556 221.2619014 -247.506767 210.60504221 -247.11162622 199.94510131 C-246.43275876 181.62724929 -245.97391227 163.31857205 -245.93945312 144.98730469 C-245.93762935 144.28185723 -245.93580557 143.57640977 -245.93392652 142.84958512 C-245.82889706 80.27390377 -245.82889706 80.27390377 -268.42347717 57.23008728 C-291.81841925 34.76464844 -291.81841925 34.76464844 -300.72460938 34.76464844 Z M41.52313232 72.40330505 C40.4509383 72.47201988 39.37874428 72.5407347 38.27405953 72.61153179 C34.68679659 72.84198795 31.09975049 73.07566003 27.51269531 73.30932617 C24.93842265 73.47537853 22.36413745 73.64123672 19.7898407 73.80691528 C13.52580545 74.21043437 7.26192858 74.61636323 0.99810329 75.02312713 C-6.30367233 75.49721268 -13.60559668 75.96898784 -20.90752646 76.44069207 C-33.94319302 77.2828826 -46.97871481 78.12729351 -60.01416016 78.97290039 C-72.64718267 79.79240125 -85.28031686 80.61015284 -97.91357422 81.42602539 C-111.68201028 82.31521213 -125.45038773 83.20529651 -139.21866107 84.0969997 C-140.68899456 84.19222554 -142.15932806 84.28745133 -143.62966156 84.38267708 C-144.35300981 84.42952624 -145.07635807 84.4763754 -145.82162596 84.52464424 C-150.90405601 84.85376619 -155.98652492 85.18228384 -161.06900787 85.51058769 C-167.92106282 85.95322976 -174.7730137 86.39745462 -181.62489891 86.84271622 C-184.13584154 87.00566225 -186.64681561 87.16812472 -189.15782356 87.33006096 C-192.59344259 87.55171009 -196.02894148 87.7751397 -199.4644165 87.99900818 C-199.95766816 88.03062482 -199.95766816 88.03062482 -202.45382047 88.19062418 C-207.21747605 88.50290006 -211.9787514 88.84376124 -216.73696518 89.2304697 C-217.62076725 89.30114645 -218.50456932 89.37182319 -219.41515326 89.44464165 C-222.4646301 89.86718845 -224.40421513 90.74365991 -226.72460938 92.76464844 C-228.55278149 95.76007349 -228.97639335 98.00217809 -228.98467159 101.48800468 C-228.99173718 102.43975228 -228.99880278 103.39149988 -229.00608248 104.37208831 C-229.00366739 105.41468217 -229.00125231 106.45727602 -228.99876404 107.53146362 C-229.00400072 108.64137417 -229.0092374 109.75128472 -229.01463276 110.89482892 C-229.02967773 114.62735042 -229.03033891 118.35973537 -229.03100586 122.09228516 C-229.03862427 124.76291481 -229.04700205 127.43353287 -229.05622864 130.10415649 C-229.07907802 137.36855302 -229.08699898 144.63292034 -229.09205508 151.89734793 C-229.09531178 156.43291376 -229.10183403 160.9684711 -229.10905647 165.50403214 C-229.12862129 178.06118179 -229.14502653 190.61832355 -229.14793301 203.17548943 C-229.14812058 203.97902983 -229.14830815 204.78257023 -229.1485014 205.61046035 C-229.14886765 207.2394321 -229.14923135 208.86840384 -229.14959251 210.49737559 C-229.14977532 211.30600044 -229.14995813 212.11462528 -229.15014648 212.94775391 C-229.15032703 213.75736526 -229.15050758 214.5669766 -229.1506936 215.40112163 C-229.15423634 228.52393627 -229.18126541 241.64658692 -229.21864437 254.76934467 C-229.25671169 268.24151692 -229.27609036 281.71360776 -229.27639252 295.185835 C-229.2769774 302.75038472 -229.28548915 310.31473874 -229.31439018 317.87923813 C-229.33888294 324.31952851 -229.34620131 330.75955183 -229.33114266 337.19987617 C-229.32396515 340.48585478 -229.32757909 343.77119514 -229.34755325 347.05713654 C-229.36789231 350.61984393 -229.35753169 354.18117742 -229.33934021 357.74386597 C-229.34594019 358.26293217 -229.34594019 358.26293217 -229.37934011 360.88972175 C-229.32855737 365.2331642 -229.24864007 368.76206037 -226.6861887 372.39094734 C-220.47767161 377.36706387 -212.33591639 375.76241816 -204.81413269 375.24624634 C-204.27556669 375.21231614 -204.27556669 375.21231614 -201.55009633 375.04060876 C-197.95176244 374.81206872 -194.35422642 374.57277369 -190.7565918 374.33349609 C-188.17234871 374.16713661 -185.58806302 374.00143771 -183.0037384 373.83634949 C-176.71883015 373.43365829 -170.43446708 373.0229954 -164.15024825 372.60969998 C-156.82401454 372.12822082 -149.49725004 371.65507032 -142.17044703 371.18234687 C-129.09069432 370.33819795 -116.01140285 369.48710664 -102.93237305 368.63183594 C-90.2578427 367.80302763 -77.58306413 366.97817545 -64.90795898 366.15820312 C-64.12771337 366.10772688 -63.34746777 366.05725063 -62.54357835 366.00524481 C-59.40675238 365.80232517 -56.26992563 365.59941758 -53.1330976 365.39652977 C-39.5730533 364.51937868 -26.01321663 363.63902501 -12.45341185 362.75818008 C-10.26420141 362.61599162 -8.07498647 362.47387262 -5.88577056 362.33176851 C2.43879901 361.79132937 10.7632601 361.24926683 19.0875721 360.70487404 C21.60657908 360.54033056 24.12561679 360.37625682 26.64468765 360.21269417 C30.09120166 359.98880553 33.5375951 359.76314261 36.98396301 359.53701782 C37.97367515 359.47310242 38.96338729 359.40918702 39.9830907 359.34333479 C44.75593602 359.02827144 49.52627016 358.68447047 54.29360485 358.29450035 C55.17785017 358.22315923 56.06209549 358.15181811 56.97313613 358.07831514 C61.08510397 357.51808716 63.28175898 355.96434723 65.87658119 352.83139038 C67.96893778 348.24411954 67.68865553 343.93272817 67.65634155 338.94677734 C67.66102152 337.84347391 67.6657015 336.74017048 67.67052329 335.60343361 C67.6825079 331.89923782 67.67300221 328.19540961 67.66357422 324.49121094 C67.66763838 321.8385103 67.67287067 319.18583515 67.67950439 316.53314209 C67.69284758 310.0717434 67.68996141 303.61044922 67.68126647 297.14904642 C67.67449263 291.89795988 67.67357191 286.64690264 67.67683792 281.39581299 C67.67729762 280.64858652 67.67775732 279.90136005 67.67823095 279.13149035 C67.67919012 277.61353667 67.68016276 276.09558299 67.68114872 274.57762933 C67.68970433 260.34217708 67.67986582 246.10678278 67.66374762 231.87134004 C67.65034428 219.65540861 67.65267232 207.4395627 67.66650391 195.22363281 C67.68255671 181.03928659 67.68888034 166.85499117 67.67966712 152.67063713 C67.67871146 151.15825272 67.67776835 149.64586831 67.67683792 148.13348389 C67.67660651 147.76141825 67.67660651 147.76141825 67.67543542 145.87854064 C67.67284463 140.63347189 67.67721844 135.38843534 67.68427658 130.14337158 C67.69268846 123.75178855 67.69041808 117.36031606 67.67443435 110.96874571 C67.66654732 107.70733978 67.66508081 104.44615639 67.67338181 101.18474579 C67.68154942 97.65048505 67.67133297 94.11674676 67.65634155 90.58251953 C67.66303372 89.5499383 67.66972588 88.51735706 67.67662084 87.45348549 C67.60478078 78.75370934 67.60478078 78.75370934 64.27539062 74.76464844 C58.03778737 69.73991248 49.05469212 71.90799356 41.52313232 72.40330505 Z " fill="#000000" transform="translate(372.724609375,73.2353515625)"/>
<path d="M0 0 C-0.19006479 9.86609071 -0.19006479 9.86609071 -3.1875 14.0625 C-7.51040495 17.04050119 -10.76095559 18 -16 18 C-16 77.07 -16 136.14 -16 197 C-29.66943935 202.85833115 -41.6215694 207.56739493 -56.25 203.3515625 C-67.89699427 198.39249072 -74.05915908 184.8832327 -80.35400391 174.65625 C-83.12814215 170.17944429 -85.97477548 165.74915555 -88.8125 161.3125 C-95.64534811 150.5943254 -102.38432829 139.81856391 -109.10888672 129.03222656 C-112.85120581 123.0317614 -116.60164407 117.03636772 -120.35058594 111.04003906 C-123.61534999 105.81744701 -126.87777171 100.59341177 -130.13671875 95.3671875 C-130.81476563 94.28050781 -131.4928125 93.19382812 -132.19140625 92.07421875 C-133.48772423 89.99655843 -134.78333796 87.91845848 -136.078125 85.83984375 C-136.66464844 84.90011719 -137.25117188 83.96039063 -137.85546875 82.9921875 C-138.36746826 82.17089355 -138.87946777 81.34959961 -139.40698242 80.50341797 C-141.22835269 77.64114506 -143.11810277 74.82284585 -145 72 C-145.33 109.29 -145.66 146.58 -146 185 C-142.7 185.33 -139.4 185.66 -136 186 C-133.61456681 186.470745 -131.23676793 186.98462061 -128.875 187.5625 C-127.75867188 187.83191406 -126.64234375 188.10132813 -125.4921875 188.37890625 C-125.08097656 188.48138672 -125.08097656 188.48138672 -123 189 C-123.90362211 195.43166328 -125.66750647 198.22527666 -130.875 202.1875 C-140.58622713 207.31518156 -154.36565689 206.51385836 -165.1875 207.125 C-165.90324188 207.16735779 -166.61898376 207.20971558 -167.35641479 207.25335693 C-178.57652326 207.91462433 -189.76033887 208.26377301 -201 208 C-200.56179454 201.5364694 -200.40028353 200.50035442 -196 195 C-190.39 193.35 -184.78 191.7 -179 190 C-178.67 137.86 -178.34 85.72 -178 32 C-185.59 32 -193.18 32 -201 32 C-201 20.43243243 -201 20.43243243 -196.6875 15.1875 C-191.01372379 10.56931006 -185.34023673 10.53776107 -178.28515625 10.1484375 C-177.23782822 10.08467926 -176.19050018 10.02092102 -175.11143494 9.95523071 C-172.89345576 9.82194778 -170.67522701 9.69276381 -168.45678711 9.56738281 C-165.10531288 9.37742657 -161.75485166 9.17422369 -158.40429688 8.96875 C-153.17711579 8.65429717 -147.94928184 8.37473037 -142.71844482 8.12854004 C-141.01621287 8.04805102 -139.31420371 7.96251483 -137.61260986 7.86950684 C-135.64260138 7.76632523 -133.67085648 7.69780873 -131.69921875 7.6328125 C-131.18725952 7.6129126 -131.18725952 7.6129126 -128.59643555 7.51220703 C-125.06992627 8.17473317 -123.91937966 9.71533502 -121.75 12.5 C-120.45903479 14.64251097 -119.21224465 16.81198552 -118 19 C-116.86822191 20.83793457 -115.71055579 22.65802756 -114.55249023 24.47949219 C-113.27186798 26.50166002 -112.01370568 28.53661302 -110.7578125 30.57421875 C-107.80230447 35.34396721 -104.75198767 40.04974777 -101.6875 44.75 C-101.14150146 45.58756836 -100.59550293 46.42513672 -100.03295898 47.28808594 C-98.91638985 48.99975589 -97.79944413 50.71118025 -96.68212891 52.42236328 C-93.90765232 56.67387617 -91.14140523 60.93073252 -88.375 65.1875 C-88.10441772 65.60370605 -88.10441772 65.60370605 -86.73510742 67.70996094 C-83.31687514 72.96909724 -79.90578279 78.23279465 -76.5 83.5 C-72.48279164 89.71068498 -68.46341911 95.91995722 -64.4375 102.125 C-64.19064453 102.50624023 -64.19064453 102.50624023 -62.94140625 104.43554688 C-58.0275949 112.00358015 -53.00667446 119.4899883 -48 127 C-47.67 92.35 -47.34 57.7 -47 22 C-53.6 21.67 -60.2 21.34 -67 21 C-67.99 20.67 -68.98 20.34 -70 20 C-70.34115242 16.4178996 -70.10938709 14.24363488 -68.625 10.9375 C-63.13248734 4.79111679 -55.99582345 2.50432676 -47.93199158 1.97612 C-46.98377029 1.93630508 -46.03554901 1.89649017 -45.05859375 1.85546875 C-44.05087418 1.79595535 -43.0431546 1.73644196 -42.00489807 1.67512512 C-38.81651011 1.49201539 -35.62750372 1.33954307 -32.4375 1.1875 C-30.29481145 1.06771433 -28.1522306 0.94598566 -26.00976562 0.82226562 C-17.33055543 0.33752999 -8.69451499 -0.06826845 0 0 Z " fill="#000000" transform="translate(395,194)"/>
</svg>
