<?xml version="1.0" encoding="UTF-8"?>
<!-- Generator: visioncortex VTracer 0.6.12 -->
<svg version="1.1" xmlns="http://www.w3.org/2000/svg" width="512" height="512">
<path d="M0 0 C15.71352135 13.42471712 26.7588591 32.87011601 28.39160156 53.65429688 C29.49460351 75.81145545 25.89095605 97.07182725 11.203125 114.54296875 C8.59567518 117.37519872 5.97380015 120.18604585 3.2890625 122.9453125 C2.81952148 123.43290039 2.34998047 123.92048828 1.86621094 124.42285156 C-0.38457861 126.66755378 -2.35494772 128.50300333 -5.1862793 130.00292969 C-7.80653938 131.39853401 -9.7764032 132.60985019 -11.8359375 134.7578125 C-13.07738066 139.06071121 -13.00648037 143.18044108 -12.8984375 147.6328125 C-12.90552734 148.798125 -12.91261719 149.9634375 -12.91992188 151.1640625 C-12.93167215 154.03112922 -12.90242185 156.89166885 -12.8359375 159.7578125 C-12.16046875 159.48066406 -11.485 159.20351562 -10.7890625 158.91796875 C-9.89703125 158.55574219 -9.005 158.19351563 -8.0859375 157.8203125 C-7.64507812 157.64048828 -7.64507812 157.64048828 -5.4140625 156.73046875 C4.1258182 153.13133194 14.84616498 153.75793454 24.1640625 157.7578125 C31.61466627 161.30680239 37.34029025 166.02070042 42.1640625 172.7578125 C42.1640625 173.4178125 42.1640625 174.0778125 42.1640625 174.7578125 C42.81890625 174.28730469 43.47375 173.81679687 44.1484375 173.33203125 C53.98439604 166.62190699 64.11510331 163.24545163 75.96875 165.2265625 C87.32744663 167.65437552 97.28673296 173.23137504 103.703125 183.1328125 C107.1640625 189.16528457 107.1640625 189.16528457 107.1640625 191.7578125 C107.91171875 191.40847656 108.659375 191.05914062 109.4296875 190.69921875 C109.92210937 190.47169922 109.92210937 190.47169922 112.4140625 189.3203125 C113.38859375 188.86785156 114.363125 188.41539062 115.3671875 187.94921875 C125.25792859 183.73598407 137.68832069 184.67735588 147.5546875 188.50390625 C157.66049289 193.36013908 166.1328721 202.26830965 170.1640625 212.7578125 C172.56227127 220.37013385 172.45372868 227.99961114 172.4387207 235.91210938 C172.44307584 237.32426216 172.44826164 238.73641259 172.45420837 240.14855957 C172.46753105 243.96312292 172.46818404 247.77758675 172.46564507 251.59216881 C172.46456966 254.79212874 172.46947381 257.99206902 172.4742505 261.19202471 C172.48532484 268.75498476 172.48579635 276.31789515 172.47973633 283.88085938 C172.47371315 291.64073658 172.48597004 299.4004317 172.5073064 307.16027784 C172.52502727 313.85537339 172.53090693 320.55041157 172.52766865 327.24552965 C172.52587049 331.22936486 172.52834206 335.21307052 172.54238319 339.19688416 C172.65277019 373.47385167 168.3398927 401.53430609 143.9765625 427.3203125 C126.72170137 444.04425483 103.77029381 452.88722396 79.85839844 452.91894531 C78.95155304 452.92391022 78.04470764 452.92887512 77.11038208 452.93399048 C74.12305932 452.94853908 71.13578982 452.95540519 68.1484375 452.9609375 C67.11944588 452.96376488 66.09045425 452.96659225 65.03028107 452.96950531 C59.57487229 452.9844755 54.11948977 452.99371616 48.6640625 452.99804688 C43.08007029 453.0034998 37.49632584 453.02746644 31.91241074 453.05601883 C27.5761449 453.07482822 23.23993627 453.07986063 18.90363312 453.08138275 C16.84833689 453.08437341 14.79304077 453.09227736 12.73778534 453.10556793 C-14.03697866 453.26622189 -38.09436626 448.52015864 -61.7734375 435.5703125 C-62.07733398 435.40740723 -62.07733398 435.40740723 -63.61523438 434.58300781 C-75.86901409 427.67668045 -85.99033458 418.05600546 -95.85888672 408.18652344 C-97.10008775 406.95596834 -98.3418814 405.72601074 -99.58421326 404.49659729 C-102.91961282 401.19164978 -106.24544867 397.87724626 -109.56853247 394.55992031 C-111.6520988 392.48073784 -113.7376577 390.40357491 -115.82388687 388.32706451 C-123.12126282 381.06330837 -130.41041267 373.79140638 -137.69238281 366.51220703 C-144.4511179 359.75651 -151.22836589 353.01978215 -158.01431072 346.29142737 C-163.86834976 340.48530549 -169.70868854 334.66563351 -175.53884709 328.83553338 C-179.00882607 325.36608967 -182.48397687 321.90226712 -185.9732933 318.45226288 C-189.25424531 315.20741596 -192.51767742 311.94588168 -195.76901436 308.67136955 C-196.95649608 307.48105096 -198.14984401 306.29654747 -199.34977913 305.11878395 C-210.07447872 294.57989022 -217.8758919 283.70120621 -218.0859375 268.0703125 C-217.9672632 256.68944703 -214.58102599 246.9284631 -206.7265625 238.4921875 C-198.02219352 230.38811983 -188.53917169 226.35563679 -176.5859375 226.3828125 C-175.84303467 226.38442383 -175.10013184 226.38603516 -174.3347168 226.38769531 C-155.95340732 226.7940882 -144.33226573 240.1917875 -132.1484375 252.3203125 C-131.79213257 252.67428101 -131.79213257 252.67428101 -129.98901367 254.46557617 C-129.29525635 255.16142822 -128.60149902 255.85728027 -127.88671875 256.57421875 C-127.58076782 256.88073364 -127.58076782 256.88073364 -126.0324707 258.43188477 C-124.24859717 260.32084365 -122.56673844 262.24030754 -120.88224792 264.21568298 C-116.14156497 269.6463347 -111.01615719 274.68616706 -105.8984375 279.7578125 C-104.9183844 280.73283636 -103.9385651 281.7080953 -102.95898438 282.68359375 C-100.58691437 285.04397868 -98.2125289 287.40198155 -95.8359375 289.7578125 C-95.55533676 269.70414457 -95.34387168 249.65087613 -95.21419144 229.59565067 C-95.15237138 220.28306939 -95.0681284 210.97170935 -94.93066406 201.65991211 C-94.81087438 193.54150533 -94.73359744 185.42398301 -94.70687556 177.304717 C-94.69125888 173.00694749 -94.65469892 168.71170764 -94.56717682 164.41475105 C-94.48536067 160.36489993 -94.4606634 156.31860446 -94.47864532 152.26800537 C-94.47535921 150.78642331 -94.45168413 149.30471545 -94.4054718 147.82385063 C-94.07400895 136.64860821 -94.07400895 136.64860821 -98.48435211 131.91569328 C-101.41764577 129.55895602 -104.59584694 127.66603697 -107.8359375 125.7578125 C-119.65796597 116.36317877 -128.03795508 102.94478796 -132.8359375 88.7578125 C-133.15433594 87.84773438 -133.47273438 86.93765625 -133.80078125 86 C-139.88781967 64.96184878 -136.44635559 41.57095724 -126.1015625 22.5859375 C-115.13537919 3.51514935 -98.34425707 -10.00397636 -77.30859375 -16.3125 C-76.16261719 -16.61929687 -75.01664063 -16.92609375 -73.8359375 -17.2421875 C-73.38154297 -17.36464844 -73.38154297 -17.36464844 -71.08203125 -17.984375 C-45.62555126 -23.65864382 -20.04711098 -15.8499197 0 0 Z M-100.8359375 23.7578125 C-110.9525924 35.55435474 -115.45230339 50.81451821 -115.14453125 66.203125 C-113.76530831 82.09037661 -107.55723554 96.69405069 -95.8359375 107.7578125 C-95.5059375 107.7578125 -95.1759375 107.7578125 -94.8359375 107.7578125 C-94.83451248 107.10794373 -94.83308746 106.45807495 -94.83161926 105.78851318 C-94.81180609 98.97382356 -94.75728508 92.16001572 -94.68334961 85.34570312 C-94.66027089 82.80865829 -94.6457979 80.27151902 -94.64038086 77.734375 C-94.63101755 74.06972079 -94.58986223 70.40653138 -94.54296875 66.7421875 C-94.5469014 65.62293884 -94.55083405 64.50369019 -94.55488586 63.3505249 C-94.34327618 51.71367408 -90.23541717 40.99910988 -81.8359375 32.7578125 C-71.11849639 24.31227135 -60.3905661 21.4218635 -46.8359375 22.7578125 C-35.93808313 25.07901614 -26.15452823 30.39897232 -19.8359375 39.7578125 C-16.13231341 46.2517008 -13.75352596 51.65383229 -13.63061523 59.16894531 C-13.62064262 59.70935455 -13.62064262 59.70935455 -13.57017517 62.44415283 C-13.55346268 63.60469177 -13.53675018 64.76523071 -13.51953125 65.9609375 C-13.49875015 67.15386414 -13.47796906 68.34679077 -13.45655823 69.5758667 C-13.39117511 73.38645673 -13.33222974 77.19711564 -13.2734375 81.0078125 C-13.23024161 83.59115296 -13.18662698 86.17448645 -13.14257812 88.7578125 C-13.03550516 95.09107302 -12.93371778 101.42440206 -12.8359375 107.7578125 C-11.885979 106.98381104 -10.93602051 106.20980957 -9.95727539 105.41235352 C-9.42292374 104.97697769 -8.88857208 104.54160187 -8.33802795 104.09303284 C1.19568487 95.6184385 6.58936591 79.77849641 7.3828125 67.32421875 C7.81948295 49.54809236 2.75672129 33.78117192 -9.57617188 20.81982422 C-21.70120972 8.68241389 -36.79769182 2.39343811 -53.85546875 1.62109375 C-72.65869308 2.48362698 -88.18005185 9.97953943 -100.8359375 23.7578125 Z M-69.29296875 49.8671875 C-74.21008608 55.89221228 -74.26437358 62.07093009 -74.20774841 69.51248169 C-74.21157298 70.58482555 -74.21539754 71.65716942 -74.219338 72.76200855 C-74.22861185 76.34944735 -74.21663835 79.9364991 -74.20483398 83.52392578 C-74.2073022 86.0980953 -74.21114083 88.67226381 -74.21624756 91.24642944 C-74.22539112 96.78645656 -74.22408537 102.32640078 -74.21606255 107.86642838 C-74.20482013 115.88175834 -74.21388118 123.89697047 -74.22862435 131.9122902 C-74.25238035 144.92476045 -74.26575956 157.93721614 -74.26977539 170.94970703 C-74.27002026 171.72797804 -74.27026513 172.50624905 -74.27051742 173.30810402 C-74.27306448 181.9951572 -74.27362943 190.68220925 -74.27258301 199.3692627 C-74.27224996 202.52172851 -74.27196457 205.67419433 -74.27172852 208.82666016 C-74.27166573 209.60458692 -74.27160294 210.38251368 -74.27153825 211.18401398 C-74.27093364 224.15118379 -74.28580381 237.11828634 -74.31256157 250.08542812 C-74.32837387 258.08192701 -74.33061731 266.07820889 -74.31542755 274.07471012 C-74.30485584 280.19759296 -74.31463776 286.32028567 -74.33198547 292.44314957 C-74.33572271 294.95664407 -74.33257211 297.47015942 -74.32211494 299.98363495 C-74.30881272 303.40844691 -74.31989596 306.83233644 -74.33714294 310.2571106 C-74.32733617 311.2572 -74.31752939 312.25728941 -74.30742544 313.28768456 C-74.35299082 317.64737992 -74.42234401 320.08429149 -76.74430943 323.86552238 C-79.95112074 326.76671568 -82.63427206 326.87593161 -86.8359375 326.7578125 C-90.69962549 326.09815845 -92.3284195 324.3063441 -94.7421875 321.4140625 C-99.30340342 316.12243445 -104.2320857 311.21150464 -109.1784668 306.28491211 C-110.77052716 304.69821304 -112.3571674 303.10623508 -113.94335938 301.51367188 C-114.97884625 300.47884594 -116.01464336 299.44433033 -117.05078125 298.41015625 C-117.96980225 297.49226318 -118.88882324 296.57437012 -119.83569336 295.62866211 C-122.0473661 293.46765382 -124.34390283 291.43576164 -126.68774414 289.41918945 C-131.01534105 285.66438483 -135.0028068 281.63176182 -138.9921875 277.5234375 C-140.52413693 275.96425139 -142.05670762 274.40567549 -143.58984375 272.84765625 C-145.9721532 270.42204103 -148.35038099 267.99293088 -150.71826172 265.55322266 C-153.0272058 263.17750473 -155.35190128 260.81817744 -157.6796875 258.4609375 C-158.02928528 258.09686798 -158.02928528 258.09686798 -159.79846191 256.25445557 C-164.70924023 251.31742032 -169.17217676 248.15797918 -176.33984375 247.54296875 C-183.03763355 248.44532753 -188.01579304 250.48693046 -192.6484375 255.6328125 C-196.61208758 261.29516975 -197.05346398 265.48308204 -196.515625 272.1953125 C-194.63737984 279.27651265 -188.64647721 284.19605953 -183.59765625 289.15625 C-182.79866409 289.95004059 -181.99967194 290.74383118 -181.1764679 291.56167603 C-178.63018696 294.09021203 -176.07731538 296.61195163 -173.5234375 299.1328125 C-170.98112317 301.6473644 -168.44033844 304.16341378 -165.90254211 306.68252563 C-164.32706657 308.24590154 -162.74892689 309.80659905 -161.16764832 311.36410522 C-160.44031998 312.08490265 -159.71299164 312.80570007 -158.96362305 313.54833984 C-158.33393112 314.16977875 -157.7042392 314.79121765 -157.0554657 315.43148804 C-155.15643618 317.42189249 -153.35451804 319.45173446 -151.5565033 321.5322876 C-147.9210799 325.71170062 -144.09173488 329.65666283 -140.17919922 333.57568359 C-139.44803391 334.31181381 -138.71686859 335.04794403 -137.96354675 335.80638123 C-135.56699011 338.21742636 -133.16666211 340.62466716 -130.765625 343.03125 C-129.93876316 343.86093922 -129.11190132 344.69062843 -128.25998306 345.54545975 C-123.88404141 349.93633995 -119.50527016 354.32437434 -115.12402344 358.70996094 C-110.62893206 363.21052881 -106.14319171 367.72029575 -101.65962029 372.23233604 C-98.18314896 375.72754611 -94.69987576 379.21591851 -91.21478653 382.70253372 C-89.55950929 384.3608127 -87.90670292 386.0215623 -86.25655746 387.68494797 C-57.57076851 416.58441764 -28.38256439 431.69773959 12.96953869 431.91528988 C15.42761825 431.92260497 17.88566024 431.92470166 20.34375 431.92578125 C22.08668036 431.92900382 23.82961046 431.9323686 25.57254028 431.93586731 C29.20836005 431.94181938 32.84415618 431.9437112 36.47998047 431.94311523 C41.10133534 431.94301366 45.72253642 431.95667871 50.3438549 431.97388744 C53.93873774 431.98509208 57.53358432 431.98703189 61.12848282 431.98650551 C62.83064429 431.98767241 64.5328071 431.99202012 66.23495102 431.99983788 C90.64441028 432.10149193 111.61536254 427.84694263 130.1640625 410.7578125 C141.80170785 398.12620456 150.24229703 382.03641824 150.31123352 364.55375671 C150.31838882 363.30473572 150.32554413 362.05571472 150.33291626 360.7688446 C150.33575613 359.39236475 150.3384679 358.01588463 150.34106445 356.6394043 C150.34733383 355.18368367 150.35398105 353.72796463 150.36097717 352.27224731 C150.38195945 347.50051984 150.3923725 342.72879225 150.40234375 337.95703125 C150.40639316 336.31129248 150.41051014 334.66555388 150.41469383 333.01981544 C150.43373085 325.28842627 150.44796631 317.55704656 150.4563058 309.82563847 C150.46607999 300.91250677 150.49241038 291.99962328 150.53280669 283.08657902 C150.56299309 276.18874361 150.57777697 269.29097927 150.58108681 262.3930791 C150.58343394 258.27694688 150.59235057 254.1610803 150.61754799 250.04501915 C150.64087889 246.17155764 150.64504205 242.29853577 150.63478661 238.42502213 C150.63429239 237.00770032 150.64057914 235.59035649 150.65434265 234.17310143 C150.72674304 226.272603 150.53483263 220.4692164 146.1640625 213.7578125 C141.80141866 209.36180236 136.54945904 206.88101495 130.359375 206.58984375 C123.71646475 207.09810913 118.79005312 210.13182188 114.1640625 214.7578125 C110.14471255 221.54912794 109.92341467 227.747675 109.91015625 235.47070312 C109.77181812 239.60992573 109.4731156 241.34734301 106.90234375 244.76171875 C103.34514645 247.35476843 101.49279753 247.36795098 97.25390625 247.12109375 C94.51117103 246.64431922 93.01471443 245.83979592 91.1640625 243.7578125 C89.90251578 239.97317235 90.0091347 236.41224674 89.98828125 232.46875 C89.96506711 230.78774811 89.94094914 229.10675851 89.91601562 227.42578125 C89.88104637 224.78621383 89.85163554 222.14709405 89.83813477 219.50732422 C89.71023152 198.57448294 89.71023152 198.57448294 83.12890625 191.6015625 C82.45988281 191.158125 81.79085938 190.7146875 81.1015625 190.2578125 C80.42996094 189.79375 79.75835937 189.3296875 79.06640625 188.8515625 C74.3234012 186.12457808 69.47525967 186.21327668 64.1640625 186.7578125 C57.47493198 188.60349526 53.63149896 192.91476213 50.1640625 198.7578125 C49.27421 201.42736999 49.03212844 203.03579033 48.98828125 205.77734375 C48.96443359 206.55271484 48.94058594 207.32808594 48.91601562 208.12695312 C48.87336288 209.74388006 48.84194166 211.3611459 48.82226562 212.97851562 C48.63326451 218.2925236 47.85247069 221.64381875 44.1640625 225.7578125 C40.14561969 227.43276272 36.26365604 227.15553782 32.2265625 225.6953125 C28.95905109 222.62583208 28.28127833 219.08210869 27.89282227 214.69335938 C27.88665894 214.16258789 27.88665894 214.16258789 27.85546875 211.4765625 C27.83033203 210.30480469 27.80519531 209.13304687 27.77929688 207.92578125 C27.74414139 205.48052178 27.71289115 203.03520304 27.68554688 200.58984375 C27.67233398 200.00396484 27.67233398 200.00396484 27.60546875 197.0390625 C27.59874146 196.50829102 27.59874146 196.50829102 27.56469727 193.82226562 C26.7671343 187.72171087 23.74342127 183.69819098 19.1640625 179.7578125 C13.81869304 176.06696216 8.4385603 175.99023524 2.1640625 176.7578125 C-4.08938131 178.36676031 -7.23623447 181.9784267 -10.70703125 187.24609375 C-14.17398646 194.95976918 -13.10679337 204.58960649 -13.17773438 212.86132812 C-13.1915918 213.40305664 -13.1915918 213.40305664 -13.26171875 216.14453125 C-13.26901001 216.63546265 -13.26901001 216.63546265 -13.3059082 219.11987305 C-13.97577327 222.45377081 -15.24069057 223.63145089 -17.8359375 225.7578125 C-20.93642678 227.30805714 -23.41487968 227.04773265 -26.8359375 226.7578125 C-29.58922771 224.96218845 -31.36221211 223.70526328 -32.8359375 220.7578125 C-32.93364654 218.64734556 -32.96499288 216.53371636 -32.96723938 214.42098999 C-32.96829724 214.09219009 -32.96829724 214.09219009 -32.97365063 212.42826331 C-32.97966446 210.21436604 -32.97864949 208.00052556 -32.9777832 205.78662109 C-32.98081388 204.20326643 -32.98433509 202.61991263 -32.98831177 201.03656006 C-32.99620979 197.62075071 -33.00134915 194.20495184 -33.00460243 190.78913498 C-33.01050767 185.38475085 -33.02704463 179.98043276 -33.04594421 174.57608032 C-33.05228199 172.72627072 -33.05860761 170.87646107 -33.06492138 169.02665138 C-33.06650428 168.56337586 -33.06650428 168.56337586 -33.07451475 166.21892095 C-33.11659179 153.63440315 -33.14955289 141.04991545 -33.16186523 128.46533203 C-33.17025142 119.98097944 -33.19276532 111.49678967 -33.2312209 103.01251853 C-33.25096768 98.52303395 -33.26339085 94.0337927 -33.25838661 89.54426193 C-33.25373245 85.31703054 -33.26758728 81.09025964 -33.29539871 76.86312103 C-33.30229839 75.31521491 -33.30245023 73.76726105 -33.29519844 72.21935654 C-33.2567604 63.08940273 -33.4501799 56.0534359 -39.51171875 48.734375 C-49.5324365 40.45951022 -59.68367171 41.92411061 -69.29296875 49.8671875 Z " fill="#000000" transform="translate(268.8359375,39.2421875)"/>
</svg>
