<?xml version="1.0" encoding="UTF-8"?>
<!-- Generator: visioncortex VTracer 0.6.12 -->
<svg version="1.1" xmlns="http://www.w3.org/2000/svg" width="512" height="512">
<path d="M0 0 C0.96747508 0.19359069 1.93495016 0.38718138 2.93174267 0.58663845 C7.90941867 1.67564199 12.85400268 2.87307461 17.79450989 4.11914062 C18.35861069 4.25991028 18.35861069 4.25991028 21.21330261 4.97229004 C24.905947 5.89470499 28.59730943 6.82214034 32.28865051 7.74975586 C34.86642233 8.39496397 37.44425694 9.03991608 40.02217102 9.68455505 C45.40553769 11.03131563 50.78823761 12.38071294 56.17048645 13.73193359 C63.07776806 15.46600097 69.98614627 17.19565779 76.89487457 18.92395115 C82.20870873 20.2532973 87.52214988 21.58421099 92.83547974 22.91557121 C95.38399767 23.55412665 97.93257134 24.19245965 100.48120117 24.83056831 C104.03126081 25.71979608 107.5809168 26.61061622 111.13044739 27.50195312 C111.65875656 27.63417015 111.65875656 27.63417015 114.33232117 28.30326843 C115.29659027 28.54576324 116.26085937 28.78825806 117.25434875 29.0381012 C117.67353451 29.14326947 117.67353451 29.14326947 119.79486847 29.67548466 C121.52957711 30.13567176 123.24228852 30.67831228 124.94490051 31.24584961 C124.94490051 151.36584961 124.94490051 271.48584961 124.94490051 395.24584961 C101.51490051 401.18584961 78.08490051 407.12584961 53.94490051 413.24584961 C18.31990051 422.34307183 18.31990051 422.34307183 2.63996887 426.35986328 C-5.26611321 428.05871145 -11.50983584 425.12962256 -18.85978699 422.36303711 C-19.94148163 421.96122223 -21.02317627 421.55940735 -22.13764954 421.14541626 C-24.49407535 420.26984189 -26.84966375 419.39201127 -29.20451355 418.51220703 C-35.64740245 416.10604557 -42.09720558 413.71858773 -48.54728699 411.33178711 C-49.22050743 411.08249702 -49.89372787 410.83320694 -50.58734894 410.57636261 C-65.37089594 405.10404661 -80.20437145 399.77418311 -95.04689407 394.46434784 C-118.20869497 386.17748991 -141.32727231 377.78562443 -164.38517761 369.21264648 C-189.203098 360.0130999 -214.13329842 351.18008018 -239.05509949 342.24584961 C-239.05509949 257.10584961 -239.05509949 171.96584961 -239.05509949 84.24584961 C-217.93509949 76.65584961 -196.81509949 69.06584961 -175.05509949 61.24584961 C-146.55509949 50.74584961 -146.55509949 50.74584961 -132.55509949 45.57006836 C-122.38436708 41.81727178 -112.19510095 38.11819576 -101.99259949 34.45288086 C-101.65405284 34.33123975 -101.65405284 34.33123975 -99.94080162 33.715662 C-93.12357005 31.26702866 -86.30424168 28.82434689 -79.4811697 26.39203358 C-76.15754618 25.2069913 -72.83460913 24.02003596 -69.51213074 22.83178711 C-68.86197306 22.59928442 -68.21181538 22.36678173 -67.54195595 22.12723351 C-58.15434531 18.7654415 -48.81831765 15.28408748 -39.50431824 11.72241211 C-37.23362786 10.86095123 -34.96279814 9.99985752 -32.69181824 9.13916016 C-28.51203977 7.55462897 -24.34713256 5.93741242 -20.18791199 4.29980469 C-18.3251525 3.59164361 -16.46190029 2.88477668 -14.59806824 2.17944336 C-13.78641708 1.84848663 -12.97476593 1.51752991 -12.13851929 1.17654419 C-7.7762549 -0.43762522 -4.58930295 -0.91879228 0 0 Z M-10.4364624 65.37130737 C-11.60425735 65.62084167 -12.77205231 65.87037598 -13.97523499 66.12747192 C-15.28123926 66.40763276 -16.58723885 66.68781539 -17.89323425 66.96801758 C-19.25967638 67.26041959 -20.62613698 67.55273528 -21.99261475 67.8449707 C-25.71632449 68.64162154 -29.43975085 69.43958948 -33.16311383 70.23785925 C-36.27146644 70.90415502 -39.37995284 71.56982536 -42.48843902 72.23549759 C-49.82767313 73.80718525 -57.16667711 75.37994416 -64.50553894 76.95336914 C-72.06850599 78.574823 -79.63184376 80.19453873 -87.19537121 81.81337631 C-93.68994329 83.20348498 -100.18428648 84.59465923 -106.67844814 85.98668396 C-110.55630234 86.81789311 -114.4342396 87.64870947 -118.3123951 88.47851181 C-121.96597017 89.26031188 -125.61925603 90.04344972 -129.27232933 90.82759094 C-131.2434461 91.25035994 -133.21485013 91.67178894 -135.18626404 92.09317017 C-136.37379776 92.34834412 -137.56133148 92.60351807 -138.78485107 92.86642456 C-139.80858605 93.08581129 -140.83232103 93.30519802 -141.88707829 93.53123283 C-145.62424874 94.37423373 -149.33841614 95.31667877 -153.05509949 96.24584961 C-153.05509949 166.86584961 -153.05509949 237.48584961 -153.05509949 310.24584961 C-156.35509949 311.23584961 -159.65509949 312.22584961 -163.05509949 313.24584961 C-165.57362216 314.11952186 -168.08397049 315.01721465 -170.58439636 315.94140625 C-171.26539398 316.19222458 -171.9463916 316.44304291 -172.64802551 316.70146179 C-174.85783857 317.51642455 -177.06593074 318.33592617 -179.27384949 319.15600586 C-180.82414158 319.7299656 -182.37447597 320.30381109 -183.92485046 320.87754822 C-187.15299717 322.07309249 -190.38021427 323.27110689 -193.6068573 324.47070312 C-197.74515679 326.00882399 -201.88636287 327.53895133 -206.02835846 329.06708622 C-209.22099618 330.24628324 -212.41175367 331.43050118 -215.60198975 332.61617851 C-217.12919206 333.18289849 -218.65705321 333.7478463 -220.18557739 334.31099129 C-222.31269038 335.09532931 -224.43710006 335.88658759 -226.56095886 336.6796875 C-227.76989807 337.12808487 -228.97883728 337.57648224 -230.22441101 338.03846741 C-233.05509949 339.24584961 -233.05509949 339.24584961 -235.05509949 341.24584961 C-212.31113103 344.90104524 -189.49026779 347.98924113 -166.66741776 351.10351086 C-163.42115299 351.5466117 -160.17497429 351.99033788 -156.92882347 352.43427277 C-145.58067968 353.98619354 -134.2322254 355.53582025 -122.88346863 357.08325195 C-112.33289548 358.52191296 -101.78304142 359.96576631 -91.23349649 361.41194606 C-82.13105742 362.65951548 -73.02813055 363.90348093 -63.92481536 365.14464116 C-58.50600961 365.88351267 -53.08741203 366.62383548 -47.6693058 367.36782074 C-42.59299925 368.06474929 -37.51610073 368.75719152 -32.43871117 369.44618416 C-30.57890177 369.69933171 -28.71930896 369.95407644 -26.85995483 370.21054649 C-24.32012884 370.56062298 -21.77957991 370.90489377 -19.23876953 371.2477417 C-18.50648677 371.35006882 -17.77420401 371.45239595 -17.01973087 371.5578239 C-12.59213944 372.14754367 -8.5820561 372.24584961 -4.05509949 372.24584961 C-4.05509949 270.60584961 -4.05509949 168.96584961 -4.05509949 64.24584961 C-6.1903133 64.24584961 -8.36459845 64.9276887 -10.4364624 65.37130737 Z " fill="#E64918" transform="translate(313.0550994873047,42.754150390625)"/>
</svg>
