<?xml version="1.0" encoding="UTF-8"?>
<!-- Generator: visioncortex VTracer 0.6.12 -->
<svg version="1.1" xmlns="http://www.w3.org/2000/svg" width="512" height="512">
<path d="M0 0 C40.73258691 37.09857902 66.02515215 90.53183589 68.75683594 145.60009766 C71.35658136 205.24748248 50.85149524 260.57794808 10.75683594 304.60009766 C-27.93161451 345.99314124 -82.40228689 369.90666696 -138.90722656 371.81884766 C-198.08328558 373.11538802 -253.02557579 351.0823785 -295.70410156 310.33056641 C-335.85961751 271.24795203 -358.30392739 216.78829495 -359.52661133 160.9831543 C-360.09627253 102.0016777 -337.31308052 47.55856006 -296.32836914 5.44873047 C-227.86859712 -63.56894457 -117.13368472 -75.618845 0 0 Z " fill="#4CAF50" transform="translate(401.2431640625,98.39990234375)"/>
<path d="M0 0 C4.21676405 1.92860465 7.08321791 4.82970138 10.296875 8.1015625 C10.89050842 8.69802582 11.48414185 9.29448914 12.09576416 9.9090271 C13.98526627 11.8096981 15.86768392 13.71721474 17.75 15.625 C19.03209065 16.91712468 20.31463761 18.20879676 21.59765625 19.5 C24.73708432 22.66144479 27.87017801 25.8290461 31 29 C26.83281928 33.97001416 22.49575712 38.6455365 17.90054321 43.2197113 C17.20937987 43.91172907 16.51821652 44.60374684 15.80610883 45.31673485 C13.50542881 47.61905298 11.20120963 49.91779495 8.89697266 52.21655273 C7.2407214 53.87252173 5.58469069 55.52871132 3.92886353 57.18510437 C-0.55600523 61.67025959 -5.04394672 66.15232866 -9.53245115 70.63384509 C-13.75083354 74.84660341 -17.9669036 79.06167357 -22.18298872 83.27673078 C-30.53002924 91.62158641 -38.87929728 99.96420962 -47.22998047 108.30541992 C-55.33857859 116.40482937 -63.44611856 124.50529563 -71.55224609 132.60717773 C-72.05248501 133.10715393 -72.55272393 133.60713012 -73.0681216 134.12225711 C-75.57783899 136.6306694 -78.08753568 139.1391024 -80.59722209 141.6475457 C-101.39493993 162.43490842 -122.19631666 183.21860746 -143 204 C-146.13817119 202.50077846 -148.28145154 200.96626352 -150.74591064 198.49459839 C-151.1104686 198.1314151 -151.1104686 198.1314151 -152.95535278 196.29348755 C-153.74513519 195.49651459 -154.5349176 194.69954163 -155.34863281 193.87841797 C-156.18802399 193.03931885 -157.02741516 192.20021973 -157.89224243 191.33569336 C-160.18895972 189.03782233 -162.48118096 186.73557743 -164.7714777 184.43131018 C-167.16753468 182.02274213 -169.56926488 179.61984484 -171.97039795 177.21633911 C-176.51461297 172.66591044 -181.0537061 168.11040801 -185.59097934 163.55305874 C-190.75751666 158.36415889 -195.92974101 153.18094375 -201.10244989 147.99819732 C-211.74130483 137.33844297 -222.37300007 126.67157395 -233 116 C-231.07139535 111.78323595 -228.17029862 108.91678209 -224.8984375 105.703125 C-224.30197418 105.10949158 -223.70551086 104.51585815 -223.0909729 103.90423584 C-221.1903019 102.01473373 -219.28278526 100.13231608 -217.375 98.25 C-216.08287532 96.96790935 -214.79120324 95.68536239 -213.5 94.40234375 C-210.33855521 91.26291568 -207.1709539 88.12982199 -204 85 C-197.22284035 90.5583674 -191.11649647 96.75631661 -184.94140625 102.9609375 C-183.78577771 104.11843426 -182.62992586 105.27570811 -181.47386169 106.43276978 C-178.45172262 109.45870218 -175.43260047 112.48762697 -172.41412354 115.51721191 C-169.32544553 118.61617295 -166.23388665 121.71225713 -163.14257812 124.80859375 C-157.09224902 130.86960394 -151.04510807 136.93378247 -145 143 C-140.92377216 141.37883169 -138.19301965 138.46636839 -135.16607666 135.40658569 C-134.87647737 135.11784083 -134.87647737 135.11784083 -133.41092944 133.65661681 C-131.47001375 131.71899717 -129.53633595 129.77431237 -127.60253906 127.82958984 C-126.21323372 126.43972042 -124.82348795 125.05029113 -123.43333435 123.66127014 C-119.65853867 119.88704906 -115.8899479 116.10668643 -112.12242222 112.32521009 C-108.18485637 108.37515493 -104.24163873 104.43075017 -100.29901123 100.48574829 C-92.83298665 93.01350365 -85.37207562 85.53617467 -77.91297793 78.05701602 C-69.4212205 69.54291595 -60.9237939 61.03448366 -52.42588091 52.52652812 C-34.94426158 35.02399489 -17.46979139 17.51433848 0 0 Z " fill="#CBFE8F" transform="translate(368,156)"/>
</svg>
