<?xml version="1.0" encoding="UTF-8"?>
<!-- Generator: visioncortex VTracer 0.6.12 -->
<svg version="1.1" xmlns="http://www.w3.org/2000/svg" width="512" height="512">
<path d="M0 0 C5.45229359 -0.67668344 10.48870406 -1.15789879 15.71484375 0.8203125 C20.39689141 4.48404247 24.10392081 9.05192145 27.98242188 13.52978516 C33.22041099 19.23362358 36.88951017 22.01133035 44.69555664 22.73779297 C48.75424815 22.8464706 52.80143432 22.85508635 56.86083984 22.78320312 C81.7739139 23.10713702 108.99108999 36.16145891 127.71484375 51.8203125 C128.56046875 52.50351563 129.40609375 53.18671875 130.27734375 53.890625 C156.48594244 76.08603202 168.68976653 109.82439921 173.71484375 142.8203125 C173.77414062 143.19905518 173.77414062 143.19905518 174.07421875 145.11572266 C177.02211474 165.09736886 175.89631642 185.68103403 175.71484375 205.8203125 C176.33181122 205.88194077 176.94877869 205.94356903 177.58444214 206.00706482 C178.39430573 206.09166458 179.20416931 206.17626434 180.03857422 206.26342773 C180.84116669 206.345681 181.64375916 206.42793427 182.47067261 206.51268005 C189.69041481 207.50236703 195.75361974 211.83390415 200.13146973 217.50476074 C205.50616071 225.36479568 206.31344225 233.16001951 206.24609375 242.4765625 C206.24992065 243.65947876 206.25374756 244.84239502 206.25769043 246.06115723 C206.26039835 248.54875546 206.25311622 251.03638272 206.23632812 253.52392578 C206.21490454 257.30957129 206.23617034 261.09331906 206.26171875 264.87890625 C206.25907528 267.30729581 206.2539499 269.73568421 206.24609375 272.1640625 C206.25419067 273.28413696 206.2622876 274.40421143 206.27062988 275.55822754 C206.15848147 285.05859565 204.02635814 293.21341326 197.41796875 300.2890625 C191.01266392 306.04796042 184.34894006 308.9518569 175.71484375 308.8203125 C175.73804688 309.573125 175.76125 310.3259375 175.78515625 311.1015625 C176.24224663 338.00459606 168.66168714 359.1540346 150.08984375 378.8828125 C135.44673379 393.10180799 115.92100428 401.18164175 95.50262451 400.94287109 C94.39187561 400.92305176 93.28112671 400.90323242 92.13671875 400.8828125 C89.73568485 400.87388596 87.33464063 400.86744883 84.93359375 400.86328125 C81.18443527 400.84899029 77.43799209 400.819802 73.68945312 400.74853516 C70.04555051 400.68526635 66.40605892 400.68499162 62.76171875 400.6953125 C61.64287292 400.65929932 60.5240271 400.62328613 59.37127686 400.58618164 C56.1904703 400.62504723 53.71582483 400.75579618 50.71484375 401.8203125 C48.6081899 404.18278289 47.33267547 406.4146041 46.01885986 409.2878418 C43.00064386 415.14938257 37.37933604 418.38442676 31.32421875 420.48828125 C24.67536047 422.36295472 18.07659123 422.2587819 11.21484375 422.1953125 C9.96058594 422.20691406 8.70632813 422.21851563 7.4140625 422.23046875 C-3.69117872 422.19558318 -13.04435217 420.77363232 -21.3203125 412.87890625 C-28.03961173 405.86693337 -30.34920086 400.03606846 -30.72265625 390.3828125 C-30.43492505 380.09642222 -26.68113224 372.85710202 -19.28515625 365.8203125 C-10.91679968 358.61963359 0.86706035 358.34632747 11.40234375 358.5078125 C12.46517578 358.50458984 13.52800781 358.50136719 14.62304688 358.49804688 C26.26802324 358.57706892 34.49715804 360.47021085 43.40234375 368.1328125 C45.71484375 370.8203125 45.71484375 370.8203125 46.66020203 372.800354 C47.80510919 375.15941326 48.88968536 376.92890535 50.71484375 378.8203125 C54.25713519 379.98309268 57.6591535 379.84898637 61.359375 379.7421875 C62.40195969 379.74035461 63.44454437 379.73852173 64.51872253 379.7366333 C66.72873093 379.72455546 68.93870612 379.6930436 71.14819336 379.64355469 C74.4783247 379.57137497 77.80394024 379.56151052 81.13476562 379.5625 C102.01637342 379.42425073 120.76242338 376.38091779 136.43359375 361.3203125 C149.51536525 346.98412456 152.4589545 331.45246041 153.71484375 312.8203125 C152.06484375 313.1503125 150.41484375 313.4803125 148.71484375 313.8203125 C148.33199219 315.03332031 147.94914062 316.24632812 147.5546875 317.49609375 C145.45095087 323.79990046 142.86621775 329.89086121 140.27734375 336.0078125 C139.79974609 337.15701172 139.32214844 338.30621094 138.83007812 339.49023438 C133.09566824 353.07504352 126.74849075 360.57827035 112.9921875 366.59765625 C108.63053639 368.22482764 104.32402532 369.21685306 99.71484375 369.8203125 C100.28239266 366.42168299 101.10403164 363.71430885 102.7265625 360.6796875 C103.14784424 359.87289551 103.56912598 359.06610352 104.00317383 358.23486328 C104.4648999 357.35556152 104.92662598 356.47625977 105.40234375 355.5703125 C110.37545133 345.86762366 114.7848179 335.98200956 119.02734375 325.9453125 C119.31717133 325.26287476 119.6069989 324.58043701 119.90560913 323.87731934 C120.75949292 321.86287411 121.60637024 319.8455752 122.453125 317.828125 C122.73216171 317.17606079 123.01119843 316.52399658 123.2986908 315.85217285 C124.75804319 312.38175481 126.00813833 308.9442863 127.04443359 305.32324219 C127.2703569 304.58911102 127.49628021 303.85497986 127.72904968 303.09860229 C128.15222283 301.69974566 128.53468196 300.28765043 128.86726379 298.86453247 C129.46557617 296.94873047 129.46557617 296.94873047 131.71484375 293.8203125 C135.67484375 293.1603125 139.63484375 292.5003125 143.71484375 291.8203125 C143.71484375 281.2603125 143.71484375 270.7003125 143.71484375 259.8203125 C136.21484375 263.8203125 136.21484375 263.8203125 133.90429688 265.0859375 C128.34911687 267.95165984 123.5821194 268.9700431 117.40234375 267.1328125 C115.02564238 265.28426699 114.04517145 263.53510176 112.71484375 260.8203125 C112.41781006 258.16644701 112.27712135 255.7442322 112.2824707 253.0925293 C112.27227905 252.33102066 112.2620874 251.56951202 112.25158691 250.78492737 C112.22150651 248.27972001 112.21219876 245.77489533 112.203125 243.26953125 C112.1862746 241.52788528 112.16812387 239.78625144 112.14872742 238.04463196 C112.10126034 233.46951082 112.07142973 228.89443889 112.04528809 224.31915283 C112.01546594 219.6469145 111.96894128 214.97484565 111.92382812 210.30273438 C111.83783249 201.1420158 111.77047057 191.9812623 111.71484375 182.8203125 C110.50683105 182.29429443 109.29881836 181.76827637 108.05419922 181.22631836 C106.43838258 180.51697837 104.8226652 179.80741223 103.20703125 179.09765625 C102.41449951 178.75327515 101.62196777 178.40889404 100.80541992 178.05407715 C78.77063997 168.34546058 61.4298269 152.79601462 44.71484375 135.8203125 C43.04934544 134.15247829 41.38298079 132.4855075 39.71484375 130.8203125 C39.23917969 131.28179687 38.76351562 131.74328125 38.2734375 132.21875 C1.5462348 166.44336246 -61.6367996 184.8203125 -111.28515625 184.8203125 C-111.28182533 185.29082787 -111.28182533 185.29082787 -111.26496887 187.67192078 C-111.20412993 196.54416092 -111.15917026 205.4163587 -111.12971973 214.28876019 C-111.11406986 218.850066 -111.09284399 223.41120328 -111.05883789 227.97241211 C-111.02622022 232.37498949 -111.00829813 236.77740487 -111.00052452 241.18009377 C-110.99498533 242.85901248 -110.9841686 244.53792241 -110.96796608 246.21677208 C-110.94615948 248.57008335 -110.94319063 250.92272685 -110.94458008 253.27612305 C-110.93379425 253.9688028 -110.92300842 254.66148254 -110.91189575 255.37515259 C-110.93948038 259.69846186 -111.68635171 262.35806835 -114.28515625 265.8203125 C-117.78643534 268.54352957 -122.04387069 268.27912118 -126.28515625 267.8203125 C-129.17106269 266.93172598 -131.80495205 265.66506871 -134.50390625 264.3203125 C-135.2472522 263.96517578 -135.99059814 263.61003906 -136.75646973 263.24414062 C-139.10663684 262.11726848 -141.4457345 260.9692992 -143.78515625 259.8203125 C-145.38603311 259.04805624 -146.98759014 258.27720827 -148.58984375 257.5078125 C-152.49633439 255.62817132 -156.39305101 253.72955134 -160.28515625 251.8203125 C-162.05836966 262.03302226 -163.03813319 272.71670064 -157.28515625 281.8203125 C-154.41953822 285.67684517 -151.25093151 289.25242972 -146.33691406 290.19335938 C-144.88666364 290.35368857 -143.43621581 290.51224026 -141.9855957 290.66918945 C-138.09261595 291.14420942 -134.62700731 291.66487578 -131.28515625 293.8203125 C-127.37207056 299.26357745 -126.05643069 306.29044164 -124.26464844 312.65136719 C-122.61259687 317.9962399 -120.3343693 323.03997941 -118.03515625 328.1328125 C-117.80352783 328.65121704 -117.80352783 328.65121704 -116.63134766 331.2746582 C-115.19714119 334.46339528 -113.74537776 337.64340959 -112.28515625 340.8203125 C-111.79466797 341.88781738 -111.30417969 342.95532227 -110.79882812 344.05517578 C-92.53178592 383.53651766 -67.44946003 430.02155351 -24.47265625 446.6328125 C-4.86366247 453.16914376 14.27545918 451.42539464 32.83984375 442.6328125 C43.39200978 437.0970565 56.83337068 428.66883478 63.26367188 418.33007812 C66.06538224 414.06555458 67.96497286 411.24074428 73.07519531 410.01293945 C76.99901505 409.83659658 80.7953962 409.94578842 84.71484375 410.1953125 C86.07535631 410.24555778 87.43604826 410.29117049 88.796875 410.33203125 C92.10748612 410.44942881 95.40882356 410.61336786 98.71484375 410.8203125 C79.92889924 439.76180304 53.64915237 462.87884349 19.80859375 471.56640625 C-5.93215437 476.80855299 -31.19219625 470.24757803 -53.28515625 456.8203125 C-78.99849478 439.78403382 -96.83102568 415.00743245 -112.28515625 388.8203125 C-112.74744629 388.04300781 -113.20973633 387.26570313 -113.68603516 386.46484375 C-146.28515625 331.14512311 -146.28515625 331.14512311 -146.28515625 313.8203125 C-147.54328125 313.6346875 -148.80140625 313.4490625 -150.09765625 313.2578125 C-160.13147425 310.98957107 -169.0326374 303.80375465 -175.28515625 295.8203125 C-184.61600277 280.58409275 -186.35265436 265.50918001 -182.28125 248.07421875 C-180.84469009 243.38145638 -178.82403497 238.35919122 -175.28515625 234.8203125 C-175.17164606 232.71271044 -175.12827722 230.60131308 -175.11157227 228.49072266 C-175.10488525 227.82859268 -175.09819824 227.16646271 -175.09130859 226.48426819 C-175.07721511 225.03833512 -175.06533491 223.59237924 -175.05536079 222.1464119 C-175.03891797 219.83909464 -175.01566378 217.53193816 -174.99046326 215.22470093 C-174.91988589 208.66095101 -174.86042733 202.09712489 -174.80834961 195.53320312 C-174.46308628 153.21210945 -174.46308628 153.21210945 -170.09765625 132.8828125 C-169.88407471 131.88048584 -169.67049316 130.87815918 -169.45043945 129.84545898 C-160.42293002 89.37367175 -137.17666867 52.75223129 -102.28515625 29.8203125 C-73.90577723 11.98745265 -41.20841487 3.10890429 -7.91455078 1.04003906 C-5.24583621 0.8170267 -2.64401949 0.4208947 0 0 Z M-62.28515625 34.8203125 C-63.47882813 35.27019531 -64.6725 35.72007813 -65.90234375 36.18359375 C-99.80895374 49.83081206 -126.51763467 75.9267626 -141.29296875 109.234375 C-150.273034 130.56262294 -153.64225956 153.04257187 -153.48046875 176.03515625 C-153.47672612 177.62797363 -153.47388508 179.22079336 -153.47189331 180.81361389 C-153.46435508 184.95139222 -153.44479438 189.08902408 -153.42248535 193.22674561 C-153.40181208 197.47080506 -153.39284627 201.7148888 -153.3828125 205.95898438 C-153.36153637 214.24616003 -153.32752337 222.53321791 -153.28515625 230.8203125 C-150.14079887 232.32342104 -146.99443278 233.82227592 -143.84765625 235.3203125 C-143.39874023 235.53494141 -143.39874023 235.53494141 -141.12695312 236.62109375 C-140.27294922 237.02714844 -139.41894531 237.43320312 -138.5390625 237.8515625 C-138.14368286 238.04008789 -138.14368286 238.04008789 -136.14282227 238.99414062 C-134.28515625 239.8203125 -134.28515625 239.8203125 -133.28515625 239.8203125 C-133.27929001 239.00678314 -133.27342377 238.19325378 -133.26737976 237.35507202 C-133.20939009 229.67490841 -133.1372778 221.99506689 -133.04944134 214.31519127 C-133.00478181 210.36721222 -132.96551621 206.41933532 -132.9387207 202.47119141 C-132.91264326 198.65844424 -132.87221014 194.84609105 -132.82196999 191.03358841 C-132.80533115 189.58165018 -132.79379831 188.12964384 -132.78754234 186.67762375 C-132.7778682 184.63801879 -132.74977259 182.59941493 -132.7175293 180.56005859 C-132.70642624 179.40089935 -132.69532318 178.24174011 -132.68388367 177.04745483 C-132.22981863 173.37243166 -131.2174239 170.96663751 -129.28515625 167.8203125 C-125.65049237 165.39720325 -122.48949475 165.18276924 -118.26171875 164.7421875 C-116.59824444 164.55279736 -114.93483555 164.36283185 -113.27148438 164.17236328 C-112.39693604 164.07473694 -111.5223877 163.9771106 -110.62133789 163.87652588 C-63.65719876 158.57217905 0.32534171 147.95571822 32.4375 108.578125 C34.86853088 105.63420082 36.01771444 104.6125545 39.71484375 103.8203125 C43.72299652 103.89188666 45.95389987 104.23497106 49.15234375 106.6953125 C51.44562718 109.28642495 53.39291425 112.1321112 55.40234375 114.9453125 C63.45387561 126.13049457 72.64777283 134.76938731 83.71484375 142.8203125 C84.29331055 143.24699219 84.87177734 143.67367187 85.46777344 144.11328125 C98.31523257 153.49098865 112.69208128 160.3353155 127.5925293 165.81494141 C129.88065596 166.89886015 131.1562594 167.83092174 132.71484375 169.8203125 C133.86759717 173.27758012 133.87100268 176.61717083 133.92016602 180.24121094 C133.94011124 181.54225769 133.96005646 182.84330444 133.98060608 184.18377686 C133.99758793 185.5990792 134.01446682 187.01438278 134.03125 188.4296875 C134.0518313 189.88129249 134.07282808 191.33289164 134.09422302 192.78448486 C134.14932226 196.59844222 134.1987849 200.41245257 134.24707031 204.22650146 C134.29737424 208.12110084 134.35301382 212.01562359 134.40820312 215.91015625 C134.51563603 223.54681005 134.61711376 231.18352771 134.71484375 238.8203125 C138.11797113 237.76156176 140.72837606 236.81129096 143.71484375 234.8203125 C144.09960938 232.65307617 144.09960938 232.65307617 144.12109375 229.98828125 C144.13205078 229.50649414 144.13205078 229.50649414 144.1875 227.06835938 C144.19652344 226.05837891 144.20554687 225.04839844 144.21484375 224.0078125 C144.32918651 211.35660279 144.32918651 211.35660279 147.71484375 207.8203125 C149.6986364 207.10686231 151.6983229 206.43520118 153.71484375 205.8203125 C153.79228234 199.22655967 153.84401024 192.63292806 153.87963867 186.03881836 C153.89452505 183.80570089 153.91484074 181.57261157 153.94116211 179.33959961 C154.25765572 151.75500983 150.88037122 125.80748578 138.71484375 100.8203125 C138.48474609 100.33433594 138.48474609 100.33433594 137.3203125 97.875 C124.84191347 73.20588838 102.76395652 57.72950982 77.328125 48.60546875 C70.49693361 46.46314246 63.59249974 45.1920092 56.52734375 44.1328125 C55.62999512 43.99512451 54.73264648 43.85743652 53.80810547 43.71557617 C49.39881733 43.10152969 45.29116683 42.75067499 40.84765625 43.1171875 C34.41030796 43.54953679 29.3902588 43.77153353 23.9765625 39.82324219 C18.3653694 34.83486824 13.33402145 29.35783479 8.47631836 23.64038086 C7.89503174 23.0397583 7.31374512 22.43913574 6.71484375 21.8203125 C-16.68272553 21.8203125 -40.47815578 26.45859871 -62.28515625 34.8203125 Z M164.71484375 226.8203125 C164.69171583 234.62606445 164.67392637 242.43180845 164.66303158 250.23758602 C164.65780373 253.8617721 164.65070788 257.4859348 164.6394043 261.11010742 C164.62857191 264.60491225 164.62256617 268.09969454 164.61996651 271.59451485 C164.61720824 273.58270639 164.60939687 275.57088881 164.60154724 277.55906677 C164.60147171 278.76023636 164.60139618 279.96140594 164.60131836 281.19897461 C164.59909775 282.26264755 164.59687714 283.3263205 164.59458923 284.42222595 C164.71484375 286.8203125 164.71484375 286.8203125 165.71484375 287.8203125 C171.04064929 288.37376078 175.42560705 288.45362175 180.27734375 286.0703125 C183.10325419 283.46177978 184.51000901 281.51412857 184.97554016 277.66456604 C184.98014755 276.88910934 184.98475494 276.11365265 184.98950195 275.31469727 C184.99903397 274.43020401 185.00856598 273.54571075 185.01838684 272.63441467 C185.01747543 271.68642502 185.01656403 270.73843536 185.015625 269.76171875 C185.01991013 268.78041489 185.02419525 267.79911102 185.02861023 266.78807068 C185.03434861 264.71443452 185.03485742 262.64077823 185.03051758 260.56713867 C185.02735881 257.3979247 185.05081909 254.22964539 185.07617188 251.06054688 C185.07844506 249.04427201 185.07914828 247.02799464 185.078125 245.01171875 C185.08733475 244.06575333 185.09654449 243.1197879 185.10603333 242.14515686 C185.04633082 233.63713966 185.04633082 233.63713966 181.71484375 229.8203125 C177.82603705 226.98536265 175.17842281 226.47535934 170.40234375 226.6328125 C169.33371094 226.65988281 168.26507813 226.68695313 167.1640625 226.71484375 C166.35582031 226.74964844 165.54757812 226.78445312 164.71484375 226.8203125 Z M-8.28515625 385.8203125 C-9.67182099 389.65403267 -9.50120773 391.25857864 -8.03515625 395.0703125 C-6.28515625 397.8203125 -6.28515625 397.8203125 -3.28515625 399.8203125 C1.32501386 400.29333392 5.95806271 400.19067608 10.58984375 400.1953125 C11.22986328 400.20755859 11.22986328 400.20755859 14.46875 400.26953125 C15.08556641 400.27146484 15.08556641 400.27146484 18.20703125 400.28125 C18.77091553 400.28535889 18.77091553 400.28535889 21.62451172 400.30615234 C25.37634769 399.71631559 27.0193353 398.44133578 29.71484375 395.8203125 C31.26508839 392.71982322 31.0047639 390.24137032 30.71484375 386.8203125 C28.9192197 384.06702229 27.66229453 382.29403789 24.71484375 380.8203125 C20.30463481 380.49445531 15.88559041 380.49570443 11.46484375 380.4453125 C10.23636719 380.40792969 9.00789063 380.37054688 7.7421875 380.33203125 C-3.63965863 380.221049 -3.63965863 380.221049 -8.28515625 385.8203125 Z " fill="#000000" transform="translate(255.28515625,19.1796875)"/>
</svg>
