<?xml version="1.0" encoding="UTF-8"?>
<!-- Generator: visioncortex VTracer 0.6.12 -->
<svg version="1.1" xmlns="http://www.w3.org/2000/svg" width="512" height="512">
<path d="M0 0 C0.69731416 -0.00350607 1.39462831 -0.00701215 2.1130732 -0.01062447 C4.44318004 -0.01990775 6.77303525 -0.01502318 9.10315228 -0.01015663 C10.79323695 -0.01389444 12.48331989 -0.01849648 14.1734001 -0.02388728 C18.81294364 -0.03611647 23.45241506 -0.0358569 28.09197104 -0.03349853 C33.09755064 -0.03309034 38.10310713 -0.04412962 43.10867596 -0.05361366 C52.91359694 -0.07022394 62.71849388 -0.07572321 72.52342776 -0.07683842 C80.49324021 -0.07778883 88.46304472 -0.08189878 96.43285465 -0.08823967 C119.02923165 -0.10585176 141.62558966 -0.11507853 164.22197358 -0.11357872 C164.83101514 -0.11353877 164.83101514 -0.11353877 167.91313457 -0.11333656 C168.5229198 -0.11329568 168.5229198 -0.11329568 171.60880258 -0.1130888 C191.37627254 -0.1122758 211.14366633 -0.13141722 230.91111425 -0.1596133 C251.20867232 -0.18833707 271.50619324 -0.20215389 291.80377215 -0.20042574 C303.19914892 -0.19976169 314.59444581 -0.20526071 325.98980427 -0.22678185 C335.69146144 -0.24498689 345.39300253 -0.24934646 355.09466938 -0.235763 C360.04376438 -0.22923012 364.99263662 -0.22912783 369.94171047 -0.2464695 C374.47501022 -0.26219083 379.00791041 -0.25934614 383.54120036 -0.24190123 C385.17844128 -0.23882929 386.81571196 -0.24247106 388.45291779 -0.25362138 C400.09037784 -0.32761064 410.12570933 0.66349192 418.93535137 9.09711266 C426.35538525 17.86480226 427.50587428 26.11272224 426.76347637 37.25726891 C426.02702515 43.00266674 424.98308695 48.66883271 423.89628887 54.35663414 C423.58619983 56.03012551 423.27722251 57.70382318 422.9692564 59.37770653 C422.13227464 63.90950422 421.27991475 68.43828625 420.42479229 72.96669078 C419.51280898 77.81159117 418.61555342 82.6592198 417.71660137 87.50655174 C415.99609861 96.77184687 414.26298945 106.03473614 412.5251379 115.29679114 C410.42510434 126.49200394 408.340084 137.68999987 406.25566387 148.88812828 C405.50693294 152.90952493 404.75805603 156.93089437 404.00908184 160.95224571 C403.91645974 161.44956021 403.91645974 161.44956021 403.44773579 163.96627295 C402.13875617 170.99292754 400.82695538 178.01905204 399.51396465 185.04495811 C393.68752892 216.22838724 387.93095242 247.42436941 382.21275616 278.62782145 C381.56824831 282.14438284 380.92322847 285.66085024 380.27818584 289.17731357 C379.84147298 291.55969385 379.40570475 293.94224548 378.97001934 296.32481384 C378.24152796 300.30362823 377.50510823 304.2808817 376.76347637 308.25726891 C376.66840801 308.76891059 376.66840801 308.76891059 376.1873045 311.35812759 C376.01779278 312.24240999 375.84828106 313.12669239 375.67363262 314.03777122 C375.53449444 314.76813308 375.39535625 315.49849493 375.25200176 316.25098896 C373.40206424 323.84832703 368.81536112 329.45198718 362.76347637 334.25726891 C355.96423906 338.18949448 349.63409374 339.38077155 341.81990051 339.38869667 C341.47492984 339.38972299 341.47492984 339.38972299 339.72916916 339.39491677 C337.41216186 339.40058115 335.09521411 339.39913022 332.7782011 339.3977108 C331.10221831 339.40029476 329.42623613 339.403308 327.75025481 339.4067142 C323.14041406 339.41478384 318.53058889 339.41657375 313.92074192 339.41731167 C308.95058104 339.41916228 303.98042824 339.42670965 299.01027203 339.43344688 C288.14040972 339.44703042 277.27055111 339.45305494 266.40068173 339.45745754 C259.61391989 339.4602199 252.82715948 339.46445723 246.0403986 339.46896172 C227.2510366 339.48115434 208.46167574 339.49145371 189.67230988 339.49483681 C188.46968332 339.49505637 187.26705677 339.49527594 186.02798698 339.49550216 C184.82247825 339.49572044 183.61696951 339.49593871 182.3749302 339.49616361 C179.93209859 339.49660707 177.48926697 339.49705364 175.04643536 339.49750328 C173.83470576 339.49772471 172.62297616 339.49794614 171.37452748 339.49817428 C151.73950975 339.50212242 132.10452913 339.51957697 112.46952573 339.5428628 C92.31215647 339.56657524 72.15480583 339.57903861 51.9974224 339.58020473 C40.67915812 339.58112154 29.36094219 339.58687549 18.04269123 339.60502434 C8.40504942 339.62042383 -1.23252909 339.62554665 -10.87018087 339.61728624 C-15.78682412 339.61337924 -20.70333989 339.61431185 -25.61996746 339.62834358 C-30.12367834 339.64107926 -34.62716591 339.63988786 -39.13087646 339.62775287 C-40.75741043 339.62579531 -42.38396019 339.62887706 -44.01047196 339.63759723 C-56.44868881 339.70004311 -67.56025666 338.82344789 -77.23652363 330.25726891 C-84.75123379 321.1334131 -85.99332369 312.77695768 -85.23652363 301.25726891 C-84.65855907 296.39379962 -83.77775698 291.61946267 -82.83173847 286.81537437 C-82.57026303 285.43448213 -82.31000664 284.0533586 -82.05084896 282.6720295 C-81.34651095 278.93650437 -80.62540866 275.20439592 -79.90124989 271.47267008 C-79.1267451 267.46485213 -78.36850206 263.45395574 -77.6083498 259.44339561 C-76.30394823 252.57289357 -74.98992474 245.70429295 -73.66883564 238.83698082 C-71.60187049 228.09235352 -69.5517783 217.34454657 -67.50459003 206.59613609 C-66.81520809 202.97758644 -66.12570508 199.35905986 -65.43613911 195.74054527 C-65.26526401 194.84380624 -65.09438892 193.9470672 -64.9183358 193.02315426 C-63.70531602 186.65874346 -62.48942854 180.29488427 -61.27250385 173.9312191 C-57.08582531 152.03171502 -52.95039805 130.12341611 -48.87846041 108.20229197 C-48.23504265 104.73993996 -47.59031033 101.27783286 -46.94566059 97.81571007 C-43.01787338 76.71625938 -43.01787338 76.71625938 -41.2298708 67.0194149 C-40.15519723 61.19190261 -39.07192776 55.36605331 -37.98215961 49.5413456 C-37.59153368 47.44434113 -37.20419159 45.34672162 -36.82053852 43.24843025 C-31.51241617 14.23227408 -31.51241617 14.23227408 -22.23652363 6.25726891 C-15.47973404 1.80151199 -8.05065641 0.0091661 0 0 Z " fill="#000000" transform="translate(85.23652362823486,142.74273109436035)"/>
<path d="M0 0 C1.0990567 -0.00350464 2.1981134 -0.00700928 3.33047485 -0.01062012 C6.92855322 -0.01935362 10.52643169 -0.0136188 14.12451172 -0.00683594 C16.64313799 -0.0081848 19.16176402 -0.01012718 21.6803894 -0.01263428 C26.94384772 -0.01557402 32.20725491 -0.01151774 37.47070312 -0.00195312 C43.53459691 0.00893958 49.59835626 0.00539324 55.66224682 -0.00560594 C61.52647303 -0.01581235 67.39064859 -0.01468568 73.254879 -0.00884247 C75.73708999 -0.0075124 78.21930443 -0.00913108 80.70151138 -0.01380157 C84.17349487 -0.0189026 87.64522295 -0.01110671 91.1171875 0 C92.13353271 -0.00404846 93.14987793 -0.00809692 94.19702148 -0.01226807 C104.12405674 0.04631271 112.17328877 1.08708647 119.42919922 8.25878906 C125.61085801 15.46881992 130.66467696 23.53530094 135.71166992 31.55883789 C135.93189819 31.90700562 135.93189819 31.90700562 137.04638672 33.66894531 C137.4342334 34.28906494 137.82208008 34.90918457 138.22167969 35.5480957 C141.41742153 40.07550433 141.41742153 40.07550433 144.50871187 40.63549525 C145.31627237 40.6363097 146.12383288 40.63712416 146.95586491 40.63796329 C147.88922108 40.64618644 148.82257725 40.65440958 149.78421694 40.66288191 C150.81143136 40.6566701 151.83864578 40.65045828 152.89698792 40.64405823 C153.98688756 40.64929392 155.07678721 40.65452962 156.19971412 40.65992397 C159.87080252 40.67395047 163.54154267 40.66656726 167.21264648 40.65942383 C169.83722752 40.66516294 172.46180591 40.6722443 175.08638 40.68057251 C180.74868486 40.696568 186.41091813 40.70182141 192.07324409 40.70004463 C200.27093571 40.69766234 208.46851291 40.71364439 216.66617464 40.73449718 C229.98015951 40.76804888 243.29413415 40.78969213 256.6081543 40.80249023 C257.40531945 40.80325972 258.2024846 40.80402921 259.02380627 40.80482202 C262.25326965 40.80792393 265.48273305 40.81100675 268.71219647 40.81406206 C277.58734901 40.82258088 286.46249798 40.83348454 295.33764648 40.84545898 C295.73468279 40.84599299 295.73468279 40.84599299 297.74392713 40.8486954 C310.99913179 40.86680819 324.25431225 40.8928152 337.50949329 40.92359012 C345.68223097 40.94211735 353.85491419 40.95305823 362.02767318 40.95411205 C367.63387615 40.95521827 373.24004187 40.96319553 378.84622908 40.97649569 C382.07781854 40.98389098 385.30931039 40.98692402 388.54090881 40.98337746 C392.05153147 40.97996723 395.56192493 40.98878143 399.07252502 41.00050354 C400.08412439 40.99652245 401.09572376 40.99254135 402.13797766 40.98843962 C413.79046298 41.05720024 423.92420085 42.86383766 432.50732422 51.30175781 C438.9520641 58.95150158 440.6265497 66.23421132 440.49560547 76.09472656 C440.49320862 76.44031616 440.49320862 76.44031616 440.4810791 78.18920898 C440.46866408 79.87911189 440.4496116 81.56896383 440.42919922 83.25878906 C439.58888688 83.25976587 438.74857454 83.26074268 437.88279819 83.26174909 C388.04627854 83.32005862 338.20980236 83.39388378 288.37333637 83.48777534 C282.38544711 83.49904311 276.39755762 83.51018162 270.40966797 83.52124023 C269.21761903 83.52344392 268.02557009 83.5256476 266.79739845 83.52791806 C247.51209932 83.56326186 228.22680023 83.58814246 208.94148076 83.60913608 C189.14356037 83.63092137 169.34568191 83.6639977 149.5477972 83.70749062 C137.33775193 83.73396031 125.12775887 83.75169016 112.91768634 83.7581351 C104.53752555 83.76340332 96.15743037 83.77966833 87.77730477 83.80445472 C82.94705509 83.81842063 78.11692273 83.82765895 73.28665161 83.82379723 C68.85456803 83.82036148 64.42273409 83.83089713 59.99070156 83.85202458 C58.3968963 83.85724894 56.80306481 83.85757384 55.20926011 83.85218469 C36.44722842 83.79526253 18.8144225 86.11792394 4.68310547 99.72753906 C-6.82147331 112.64775925 -8.91691536 130.1415792 -11.96240234 146.56713867 C-12.27777026 148.24429877 -12.59364224 149.92136416 -12.90997314 151.5983429 C-13.75777225 156.10050048 -14.59861531 160.60393099 -15.43810749 165.10764384 C-16.32015907 169.83291699 -17.20875222 174.55695985 -18.09661865 179.28114319 C-19.77269105 188.20461476 -21.44297365 197.12915957 -23.11111999 206.05411583 C-25.01232586 216.22440791 -26.92007271 226.39346958 -28.8283391 236.56243885 C-32.7497143 257.45987217 -36.66297305 278.35881841 -40.57080078 299.25878906 C-40.90080078 299.25878906 -41.23080078 299.25878906 -41.57080078 299.25878906 C-41.6623845 264.37863255 -41.73285381 229.49850351 -41.7750621 194.6182527 C-41.78006484 190.49900095 -41.78524214 186.37974944 -41.79052734 182.26049805 C-41.79157659 181.44043978 -41.79262583 180.62038151 -41.79370686 179.77547299 C-41.81110539 166.50250415 -41.84264003 153.22960471 -41.87941197 139.95667703 C-41.91683677 126.33433841 -41.93903989 112.7120361 -41.94715476 99.08964819 C-41.95263935 90.68594361 -41.96995306 82.28243521 -42.00246665 73.87879103 C-42.02363356 68.11370858 -42.02999591 62.34872734 -42.02480629 56.58360887 C-42.0222478 53.25882075 -42.02832659 49.93465073 -42.04762268 46.60987663 C-42.06754544 43.00002638 -42.06273051 39.39101311 -42.05181885 35.78114319 C-42.06347021 34.73734798 -42.07512158 33.69355277 -42.08712602 32.61812741 C-42.00900137 23.04550907 -39.02504015 16.0120267 -32.47705078 9.04785156 C-23.22533265 0.3648866 -12.18604247 -0.04873544 0 0 Z " fill="#000000" transform="translate(41.57080078125,39.7412109375)"/>
</svg>
