<?xml version="1.0" encoding="UTF-8"?>
<!-- Generator: visioncortex VTracer 0.6.12 -->
<svg version="1.1" xmlns="http://www.w3.org/2000/svg" width="512" height="512">
<path d="M0 0 C35.14067602 0.8785169 68.82663175 2.65652049 103 10 C103.50998535 10.10940918 103.50998535 10.10940918 106.09082031 10.66308594 C134.63408465 16.91231032 163.50233083 25.15111179 189.91015625 37.8828125 C195.2693146 39.82051071 199.77371994 37.86178954 204.8671875 35.77734375 C205.98641602 35.32544678 207.10564453 34.8735498 208.25878906 34.40795898 C209.45213867 33.92270752 210.64548828 33.43745605 211.875 32.9375 C247.00195125 18.92365337 283.48079432 9.0126874 321 4 C322.13743652 3.84450684 323.27487305 3.68901367 324.44677734 3.52880859 C346.34508947 0.63493654 367.78926731 0.55526832 390 0 C390 118.8 390 237.6 390 360 C379.11 360.33 368.22 360.66 357 361 C306.6219183 364.99826045 251.05916536 374.17037885 205.5859375 397.77197266 C197.28883208 402.07814149 197.28883208 402.07814149 193.49536133 401.84814453 C191.16851061 401.09861923 189.15153769 400.1566594 187 399 C185.60051136 398.38023115 184.19808794 397.76705159 182.79296875 397.16015625 C182.06102295 396.82556396 181.32907715 396.49097168 180.57495117 396.14624023 C123.71543487 370.33589226 61.84440847 361.87407298 0 360 C0 241.2 0 122.4 0 0 Z M21 23 C21 127.28 21 231.56 21 339 C24.47993614 339.86998403 27.34486701 340.2139759 30.8984375 340.39453125 C84.01252043 343.35333207 134.38122076 354.91585414 184 374 C184 270.05 184 166.1 184 59 C172.45213986 54.1377431 161.16957555 49.40190339 149.3125 45.5 C148.62088776 45.27076843 147.92927551 45.04153687 147.21670532 44.80535889 C114.63713705 34.05925967 81.13065719 27.4177799 47 24 C46.04609375 23.90138672 45.0921875 23.80277344 44.109375 23.70117188 C36.30593038 22.96314768 28.93149846 23 21 23 Z M341 24.1875 C340.35482422 24.25404785 340.35482422 24.25404785 337.08984375 24.59082031 C292.96589467 29.30024984 245.95286792 39.02356604 206 59 C206 162.95 206 266.9 206 374 C215.9 370.37 225.8 366.74 236 363 C277.22558134 349.84707643 319.1469542 342.22365289 362.36328125 340.21777344 C365 340 365 340 369 339 C369 234.72 369 130.44 369 23 C359.48824515 23 350.40691088 23.21288733 341 24.1875 Z " fill="#000000" transform="translate(61,40)"/>
<path d="M0 0 C6.93 0 13.86 0 21 0 C21 108.24 21 216.48 21 328 C25.95 328 30.9 328 36 328 C81.84587123 329.82614581 127.44980781 335.98406443 172 347 C172.54873779 347.13446533 172.54873779 347.13446533 175.32568359 347.81494141 C217.61955785 358.30977892 217.61955785 358.30977892 233 366 C239.20109896 366.797569 244.45603696 364.18220421 250.125 362 C306.39790287 341.12596474 367.34578563 331.77182038 427.0625 328.375 C427.75126221 328.33479736 428.44002441 328.29459473 429.1496582 328.25317383 C436.449339 327.88436414 443.66150927 328 451 328 C451 219.76 451 111.52 451 0 C457.93 0 464.86 0 472 0 C472 115.17 472 230.34 472 349 C458.8 349.33 445.6 349.66 432 350 C376.58914271 353.51814967 321.74293632 361.51381355 268.9375 379.125 C268.19395264 379.37285248 267.45040527 379.62070496 266.68432617 379.87606812 C264.52530836 380.60029523 262.36938802 381.33289029 260.21484375 382.0703125 C259.87003464 382.18755928 259.87003464 382.18755928 258.12509155 382.78089905 C254.65207623 383.98651103 251.27560359 385.28983837 247.92626953 386.80761719 C237.05089398 391.70118493 237.05089398 391.70118493 232.26171875 390.1328125 C230.827711 389.44937903 229.40732171 388.73682097 228 388 C226.24353097 387.33058003 224.47846053 386.68345206 222.70703125 386.0546875 C222.23551636 385.87969727 222.23551636 385.87969727 219.84936523 384.99414062 C171.4011421 367.14008042 120.40334443 356.55443358 69 352 C67.90510254 351.90235352 66.81020508 351.80470703 65.68212891 351.70410156 C43.78644275 349.82597339 22.00685275 349.55017132 0 349 C0 233.83 0 118.66 0 0 Z " fill="#000000" transform="translate(20,92)"/>
</svg>
