<?xml version="1.0" encoding="UTF-8"?>
<!-- Generator: visioncortex VTracer 0.6.12 -->
<svg version="1.1" xmlns="http://www.w3.org/2000/svg" width="512" height="512">
<path d="M0 0 C2.44090185 -0.0054291 4.88180043 -0.01255616 7.32269287 -0.02124023 C13.23131069 -0.03750448 19.13974131 -0.03523727 25.04835367 -0.02358967 C29.85575936 -0.01450992 34.66310819 -0.01335083 39.47052002 -0.01768494 C40.15799714 -0.01829787 40.84547426 -0.0189108 41.55378401 -0.01954231 C42.95092505 -0.02082137 44.34806607 -0.02211823 45.74520707 -0.02343267 C58.807871 -0.03480481 71.87042214 -0.02177789 84.93306756 -0.00023121 C96.11103374 0.01763673 107.28883369 0.01453167 118.46679688 -0.00390625 C131.48670112 -0.02537277 144.50650684 -0.03370648 157.52642632 -0.0214572 C158.91806919 -0.02018317 160.30971208 -0.01892568 161.70135498 -0.01768494 C162.04360102 -0.01737639 162.04360102 -0.01737639 163.77557337 -0.01581493 C168.57023485 -0.01237931 173.36483317 -0.01815149 178.15948486 -0.02760315 C184.62753263 -0.04007482 191.09534188 -0.0310377 197.56336212 -0.00802612 C199.92752822 -0.0027677 202.29172087 -0.00420321 204.65587616 -0.01307678 C220.49825742 -0.06702633 234.68623017 0.7226337 248.9609375 8.33007812 C249.62593262 8.67337158 250.29092773 9.01666504 250.97607422 9.37036133 C256.31917693 12.20493144 261.0274815 15.54010181 265.5859375 19.51757812 C266.55402344 20.28972656 267.52210938 21.061875 268.51953125 21.85742188 C277.90902509 29.69523715 284.56731823 41.07712639 288.5859375 52.51757812 C288.91928856 53.45537109 289.25263962 54.39316406 289.59609222 55.359375 C293.35574769 67.46983213 293.15076434 79.34333036 293.10351562 91.93164062 C293.10894473 94.37254248 293.11607178 96.81344105 293.12475586 99.2543335 C293.14102011 105.16295131 293.1387529 111.07138194 293.1271053 116.9799943 C293.11802555 121.78739998 293.11686645 126.59474882 293.12120056 131.40216064 C293.12181349 132.08963776 293.12242643 132.77711488 293.12305793 133.48542464 C293.12433699 134.88256567 293.12563385 136.27970669 293.1269483 137.6768477 C293.13832043 150.73951162 293.12529352 163.80206277 293.10374683 176.86470819 C293.08587889 188.04267437 293.08898395 199.22047431 293.10742188 210.3984375 C293.12888839 223.41834175 293.13722211 236.43814746 293.12497282 249.45806694 C293.12369879 250.84970981 293.1224413 252.2413527 293.12120056 253.63299561 C293.12089201 253.97524164 293.12089201 253.97524164 293.11933056 255.707214 C293.11589494 260.50187548 293.12166712 265.2964738 293.13111877 270.09112549 C293.14359045 276.55917326 293.13455333 283.02698251 293.11154175 289.49500275 C293.10628332 291.85916884 293.10771883 294.22336149 293.11659241 296.58751678 C293.17054364 312.43039315 292.38032689 326.61723721 284.7734375 340.89257812 C284.43086914 341.55684814 284.08830078 342.22111816 283.73535156 342.90551758 C280.90214382 348.25009634 277.54573185 352.94495846 273.5859375 357.51757812 C272.98910156 358.31035156 272.39226562 359.103125 271.77734375 359.91992188 C263.73970352 369.44760593 252.28514505 376.46065406 240.5859375 380.51757812 C239.6492775 380.84979622 238.71261749 381.18201431 237.74757385 381.52429962 C225.63581927 385.28739241 213.76229005 385.08241287 201.171875 385.03515625 C198.73097315 385.04058535 196.29007457 385.04771241 193.84918213 385.05639648 C187.94056431 385.07266073 182.03213369 385.07039352 176.12352133 385.05874592 C171.31611564 385.04966617 166.50876681 385.04850708 161.70135498 385.05284119 C161.01387786 385.05345412 160.32640074 385.05406705 159.61809099 385.05469856 C158.22094995 385.05597762 156.82380893 385.05727448 155.42666793 385.05858892 C142.364004 385.06996106 129.30145286 385.05693414 116.23880744 385.03538746 C105.06084126 385.01751952 93.88304131 385.02062458 82.70507812 385.0390625 C69.68517388 385.06052902 56.66536816 385.06886273 43.64544868 385.05661345 C42.25380581 385.05533942 40.86216292 385.05408193 39.47052002 385.05284119 C39.12827398 385.05253264 39.12827398 385.05253264 37.39630163 385.05097118 C32.60164015 385.04753556 27.80704183 385.05330774 23.01239014 385.0627594 C16.54434237 385.07523107 10.07653312 385.06619395 3.60851288 385.04318237 C1.24434678 385.03792395 -1.11984587 385.03935946 -3.48400116 385.04823303 C-19.32638242 385.10218258 -33.51435517 384.31252255 -47.7890625 376.70507812 C-48.45405762 376.36178467 -49.11905273 376.01849121 -49.80419922 375.66479492 C-55.14730193 372.83022481 -59.8556065 369.49505444 -64.4140625 365.51757812 C-65.38214844 364.74542969 -66.35023437 363.97328125 -67.34765625 363.17773438 C-76.73715009 355.3399191 -83.39544323 343.95802986 -87.4140625 332.51757812 C-87.74741356 331.57978516 -88.08076462 330.64199219 -88.42421722 329.67578125 C-92.18387269 317.56532412 -91.97888934 305.69182589 -91.93164062 293.10351562 C-91.93706973 290.66261377 -91.94419678 288.2217152 -91.95288086 285.78082275 C-91.96914511 279.87220494 -91.9668779 273.96377431 -91.9552303 268.05516195 C-91.94615055 263.24775627 -91.94499145 258.44040743 -91.94932556 253.63299561 C-91.94993849 252.94551849 -91.95055143 252.25804137 -91.95118293 251.54973161 C-91.95246199 250.15259058 -91.95375885 248.75544956 -91.9550733 247.35830855 C-91.96644543 234.29564463 -91.95341852 221.23309348 -91.93187183 208.17044806 C-91.91400389 196.99248188 -91.91710895 185.81468194 -91.93554688 174.63671875 C-91.95701339 161.6168145 -91.96534711 148.59700879 -91.95309782 135.57708931 C-91.95182379 134.18544644 -91.9505663 132.79380355 -91.94932556 131.40216064 C-91.94870846 130.71766858 -91.94809136 130.03317651 -91.94745556 129.32794225 C-91.94401994 124.53328077 -91.94979212 119.73868245 -91.95924377 114.94403076 C-91.97171545 108.47598299 -91.96267833 102.00817374 -91.93966675 95.5401535 C-91.93440832 93.17598741 -91.93584383 90.81179476 -91.94471741 88.44763947 C-91.99866695 72.6052582 -91.20900693 58.41728546 -83.6015625 44.14257812 C-83.25826904 43.47758301 -82.91497559 42.81258789 -82.5612793 42.12744141 C-79.72670918 36.78433869 -76.39153882 32.07603413 -72.4140625 27.51757812 C-71.64191406 26.54949219 -70.86976562 25.58140625 -70.07421875 24.58398438 C-62.23640348 15.19449053 -50.85451424 8.53619739 -39.4140625 4.51757812 C-38.47626953 4.18422707 -37.53847656 3.85087601 -36.57226562 3.5074234 C-24.4618085 -0.25223206 -12.58831027 -0.04724872 0 0 Z " fill="#2962FF" transform="translate(155.4140625,63.482421875)"/>
<path d="M0 0 C0.99902344 0.39058594 1.99804688 0.78117188 3.02734375 1.18359375 C12.30024974 5.31138166 20.37926958 11.55844563 24.625 21 C27.23866008 28.96544025 26.74947902 35.99529654 23.3125 43.62109375 C17.20830063 54.68495511 6.65567032 60.54585059 -5.078125 64.2734375 C-22.2578951 68.54541242 -39.78103436 66.76477387 -55.0625 57.6875 C-62.58324162 52.45911656 -68.49618148 45.97201638 -71 37 C-72.09087192 29.14076366 -70.83131903 21.8630212 -66.11328125 15.42578125 C-50.13291798 -3.23192037 -22.98885239 -9.0105338 0 0 Z " fill="#FBFCFF" transform="translate(313,230)"/>
<path d="M0 0 C7.88878184 5.90498523 14.7244382 12.77855255 16.7109375 22.75 C18.11686936 33.69346963 16.54276667 42.30918303 10.2734375 51.54296875 C4.80556666 58.25967429 -2.07537706 62.76884426 -10.5 64.875 C-11.655 64.91625 -12.81 64.9575 -14 65 C-14.40412109 65.03609375 -14.40412109 65.03609375 -16.44921875 65.21875 C-25.90512406 65.75831664 -34.07750911 62.68503025 -41.4375 56.75 C-48.2551907 50.24413715 -52.13930467 41.43200453 -52.48217773 32.03662109 C-52.57100482 21.26299084 -50.1514594 13.20658654 -42.6875 5.0625 C-31.42872989 -5.14778154 -13.30160236 -8.2691628 0 0 Z " fill="#FBFCFF" transform="translate(149,231)"/>
<path d="M0 0 C5.27872377 1.56712112 8.89202635 4.9999493 13 8.5 C14.52074134 9.77510198 16.04288998 11.04852735 17.56640625 12.3203125 C18.31680176 12.94711914 19.06719727 13.57392578 19.84033203 14.21972656 C23.73619907 17.43119643 27.75150423 20.47775423 31.77734375 23.5234375 C36.25400627 26.92720578 40.6175355 30.47647037 45 34 C45.0093457 33.17798096 45.01869141 32.35596191 45.02832031 31.5090332 C45.08207871 27.77625038 45.16571831 24.04471319 45.25 20.3125 C45.26417969 19.01892578 45.27835937 17.72535156 45.29296875 16.39257812 C45.32519531 15.14541016 45.35742188 13.89824219 45.390625 12.61328125 C45.41157227 11.46641846 45.43251953 10.31955566 45.45410156 9.13793945 C46.11181932 5.35723894 47.29058478 3.67993863 50 1 C53.4375 -0.0625 53.4375 -0.0625 57 0 C59.80189446 1.76641172 61.51524911 3.03049822 63 6 C63.09110781 7.87919548 63.11752837 9.76166792 63.11352539 11.64306641 C63.11348763 12.23360306 63.11348763 12.23360306 63.11329651 15.22207642 C63.10813522 16.50230682 63.10297394 17.78253723 63.09765625 19.1015625 C63.0962413 20.40829926 63.09482635 21.71503601 63.09336853 23.06137085 C63.08954894 26.53676258 63.07972342 30.01211257 63.06866455 33.48748779 C63.05843843 37.03331945 63.05386833 40.57915785 63.04882812 44.125 C63.03810066 51.08335049 63.02103092 58.04167324 63 65 C58.24023438 66.12661743 58.24023438 66.12661743 56.078125 64.98706055 C55.47484375 64.45894775 54.8715625 63.93083496 54.25 63.38671875 C53.56583008 62.8030957 52.88166016 62.21947266 52.17675781 61.61816406 C51.45842773 60.98104492 50.74009766 60.34392578 50 59.6875 C48.47537765 58.38245464 46.94932354 57.07908015 45.421875 55.77734375 C44.67099609 55.1313623 43.92011719 54.48538086 43.14648438 53.81982422 C40.25220687 51.36600887 37.27349802 49.0414389 34.25 46.75 C33.23035156 45.97398437 32.21070313 45.19796875 31.16015625 44.3984375 C30.11730469 43.60695313 29.07445312 42.81546875 28 42 C25.55986376 40.1284201 23.12366752 38.25174141 20.6875 36.375 C19.58730895 35.52855567 18.48705533 34.68219264 17.38671875 33.8359375 C16.99291016 33.53300781 16.99291016 33.53300781 15 32 C15.02094727 32.85231201 15.04189453 33.70462402 15.06347656 34.58276367 C15.13185244 37.76029433 15.18189738 40.93744871 15.21972656 44.11547852 C15.2397799 45.48800023 15.26703028 46.86043717 15.30175781 48.23266602 C15.35054552 50.21072044 15.37088876 52.18941119 15.390625 54.16796875 C15.41157227 55.35672607 15.43251953 56.5454834 15.45410156 57.77026367 C14.9110014 61.63299057 13.72300736 63.26180153 11 66 C9 66.62890625 9 66.62890625 7 66.5625 C6.34 66.56378906 5.68 66.56507813 5 66.56640625 C2.08242299 65.74013932 0.90212119 64.33919528 -1 62 C-1.48774719 59.20991516 -1.48774719 59.20991516 -1.4699707 55.9621582 C-1.47289627 54.74442215 -1.47582184 53.5266861 -1.47883606 52.27204895 C-1.46132797 50.96153061 -1.44381989 49.65101227 -1.42578125 48.30078125 C-1.42085628 46.94126361 -1.41755809 45.58173919 -1.41581726 44.22221375 C-1.40818721 41.37830831 -1.38765314 38.53490799 -1.35668945 35.69116211 C-1.31700202 32.03910252 -1.29906195 28.38737053 -1.28938007 24.73511982 C-1.27942875 21.25696229 -1.25953084 17.77888539 -1.23828125 14.30078125 C-1.23089432 12.98419022 -1.22350739 11.66759918 -1.21589661 10.31111145 C-1.20947899 9.70697166 -1.20947899 9.70697166 -1.17700195 6.6496582 C-1.16715775 5.58028519 -1.15731354 4.51091217 -1.14717102 3.40913391 C-1 1 -1 1 0 0 Z " fill="#FAFBFF" transform="translate(352,228)"/>
<path d="M0 0 C0.59575584 0.0028299 0.59575584 0.0028299 3.61064148 0.01715088 C7.41141144 0.03951815 11.21123432 0.08971815 15.01171875 0.140625 C17.59048117 0.16068941 20.16925838 0.17894028 22.74804688 0.1953125 C29.0654266 0.23938429 35.38225501 0.3063013 41.69921875 0.390625 C42.81393433 4.15750122 42.81393433 4.15750122 41.78149414 6.25561523 C41.29156982 6.89700439 40.80164551 7.53839355 40.296875 8.19921875 C39.74370605 8.9363208 39.19053711 9.67342285 38.62060547 10.43286133 C38.31388916 10.82807983 38.31388916 10.82807983 36.76171875 12.828125 C36.13797363 13.65272217 35.51422852 14.47731934 34.87158203 15.3269043 C32.82654607 18.02451979 30.76361724 20.70780596 28.69921875 23.390625 C26.52579957 26.23740861 24.35529898 29.08639768 22.18530273 31.93579102 C20.80418839 33.74623754 19.41971537 35.55412802 18.03149414 37.35913086 C14.76447757 41.61602746 11.60102841 45.87588053 8.69921875 50.390625 C9.51600098 50.36444092 10.3327832 50.33825684 11.17431641 50.3112793 C14.89075329 50.20706287 18.60688236 50.14221701 22.32421875 50.078125 C23.60941406 50.03623047 24.89460938 49.99433594 26.21875 49.95117188 C36.88525416 49.81300472 36.88525416 49.81300472 40.55859375 52.72265625 C42.69921875 55.390625 42.69921875 55.390625 43.32421875 58.390625 C42.54976618 62.10799736 41.37183019 63.70809421 38.69921875 66.390625 C35.90240479 66.99189758 35.90240479 66.99189758 32.64550781 66.95825195 C32.03502594 66.95806313 32.03502594 66.95806313 28.94561768 66.95710754 C27.63196228 66.93130112 26.31830688 66.90549469 24.96484375 66.87890625 C23.60293883 66.86957612 22.24101708 66.86246094 20.87908936 66.85746765 C17.30134424 66.83841274 13.72462048 66.78932766 10.14727783 66.73394775 C6.4941591 66.68272111 2.84087468 66.65994649 -0.8125 66.63476562 C-7.97572513 66.58120513 -15.13810987 66.49591346 -22.30078125 66.390625 C-21.50584352 61.38810046 -19.31173808 58.30835672 -16.23828125 54.390625 C-15.97752808 54.05067505 -15.97752808 54.05067505 -14.65795898 52.33032227 C-13.50825403 50.83224215 -12.35482137 49.33701761 -11.19824219 47.84423828 C-8.44109926 44.27896725 -5.71133801 40.69302201 -2.98071289 37.10742188 C-1.59661853 35.29068831 -0.21047271 33.47551535 1.17797852 31.66210938 C4.77181412 26.96189126 8.29248352 22.2283203 11.69921875 17.390625 C10.96807861 17.38651611 10.23693848 17.38240723 9.48364258 17.37817383 C6.15885568 17.34520291 2.83589259 17.27455353 -0.48828125 17.203125 C-1.06352539 17.20022461 -1.06352539 17.20022461 -3.97460938 17.18554688 C-13.50949629 16.93681069 -13.50949629 16.93681069 -16.59375 14.0625 C-18.30078125 11.390625 -18.30078125 11.390625 -18.42578125 7.828125 C-15.46758615 -1.21080448 -8.11559526 -0.14501545 0 0 Z " fill="#FBFCFF" transform="translate(194.30078125,227.609375)"/>
<path d="M0 0 C3.90471021 2.97743209 5.80080783 5.77750324 6.60546875 10.60546875 C5.80067706 15.4342189 3.37301668 18.37413648 -0.08203125 21.73046875 C-11.14447143 29.10542887 -23.64957098 31.28012572 -36.73828125 29.140625 C-44.12609423 27.1650864 -50.91732483 23.43744559 -56.45703125 18.16796875 C-58.33841016 14.81420634 -58.89453125 12.45981797 -58.89453125 8.60546875 C-54.56971966 -0.04415443 -46.93068684 -4.0336137 -38.125 -6.98828125 C-24.84331718 -9.40736183 -11.3462793 -7.30563293 0 0 Z " fill="#2B63FF" transform="translate(316.89453125,250.39453125)"/>
<path d="M0 0 C5.56038176 2.62854411 8.90924555 6.9136482 12.3125 11.9375 C14.24929735 17.74789205 12.82100726 22.61504872 10.2734375 27.91796875 C7.60214659 32.28544744 3.67185498 34.98899475 -1 37 C-7.41764977 38.03743962 -12.69912643 36.70219741 -18 33 C-22.42539647 28.45814573 -24.28540037 23.87927397 -24.375 17.5625 C-24.26745838 12.55509339 -23.44235222 9.80470508 -20 6 C-13.52026941 -0.06648246 -8.78245874 -0.81724059 0 0 Z " fill="#2C64FF" transform="translate(137,243)"/>
</svg>
