<?xml version="1.0" encoding="UTF-8"?>
<!-- Generator: visioncortex VTracer 0.6.12 -->
<svg version="1.1" xmlns="http://www.w3.org/2000/svg" width="512" height="512">
<path d="M0 0 C36.75375 -2.18625 73.5075 -4.3725 111.375 -6.625 C122.73083496 -7.59002441 134.08666992 -8.55504883 145.78662109 -9.54931641 C202.6414115 -12.43716647 246.89983567 -2.60663516 289.33271027 35.68436432 C330.44930487 73.48253219 349.23360848 113.16960133 351.87231445 168.94287109 C353.39019447 207.23433891 350.81074958 245.37018537 348.625 283.625 C346.43875 337.86875 344.2525 392.1125 342 448 C229.14 448 116.28 448 0 448 C0 300.16 0 152.32 0 0 Z " fill="#FE5722" transform="translate(85,32)"/>
<path d="M0 0 C6.27342034 4.05554446 8.81168806 10.3364767 10.93359375 17.25 C11.43825072 20.73229963 11.45881933 24.11182963 11.37109375 27.625 C11.35860596 28.56964111 11.34611816 29.51428223 11.33325195 30.48754883 C11.02609948 43.07031705 9.45253804 55.87739391 5.484375 67.86328125 C4.27856938 73.08843892 4.37039379 76.78532842 7.171875 81.37890625 C8.17829915 82.86930398 9.204151 84.34671344 10.24609375 85.8125 C10.79007812 86.59971436 11.3340625 87.38692871 11.89453125 88.19799805 C16.53201447 94.84017058 21.34199367 101.32438846 26.53613281 107.54150391 C28.01671942 109.35162708 29.42108886 111.20945622 30.83203125 113.07421875 C37.85064052 121.96700391 37.85064052 121.96700391 43.125 122.68359375 C46.53690638 122.1621592 49.64715666 121.29802145 52.93359375 120.25 C61.17185885 118.46485776 69.28200656 118.04398737 77.68359375 118 C78.65409668 117.99081543 79.62459961 117.98163086 80.62451172 117.97216797 C90.11022277 118.01271213 100.49931087 119.08080409 107.6953125 125.92578125 C113.18973504 132.13860286 114.45837996 136.63379357 114.30859375 144.984375 C113.66357604 150.60140423 111.35814865 153.95491162 107.32421875 157.7734375 C97.27562675 165.74777886 82.03522778 164.13762923 70.01171875 162.8203125 C59.45401715 160.88553008 49.26180952 156.71790946 41.62109375 149.0625 C39.62988281 147.4375 39.62988281 147.4375 36.93359375 146.25 C34.18894988 146.55821497 31.89593676 146.99354796 29.26171875 147.71484375 C28.51752182 147.90512146 27.77332489 148.09539917 27.00657654 148.29144287 C18.55967663 150.50686733 10.26351681 153.19760671 1.99609375 156 C1.2128775 156.26455994 0.42966125 156.52911987 -0.37728882 156.80169678 C-34.73564419 168.44742349 -34.73564419 168.44742349 -41.06640625 180.25 C-42.643805 182.76110563 -44.29106331 185.22389975 -45.94140625 187.6875 C-46.36655518 188.32953369 -46.7917041 188.97156738 -47.22973633 189.63305664 C-51.14208878 195.49155746 -55.42885402 200.94492131 -60.06640625 206.25 C-60.60265625 206.90484375 -61.13890625 207.5596875 -61.69140625 208.234375 C-67.18908182 214.4467484 -77.88145236 220.68773146 -86.30078125 221.453125 C-93.58014471 221.58876531 -98.28861289 220.22650681 -104.31640625 215.9375 C-108.96979343 211.38987162 -110.25937014 207.79851852 -110.56640625 201.375 C-110.37938017 195.30787381 -108.98607429 191.8136135 -105.06640625 187.25 C-104.504375 186.56808594 -103.94234375 185.88617188 -103.36328125 185.18359375 C-94.66173618 175.60846837 -83.01633512 168.36612835 -71.28125 163.14453125 C-56.79510804 156.61713167 -48.11117488 151.50397822 -42.2734375 136.38671875 C-41.92104004 135.39849121 -41.56864258 134.41026367 -41.20556641 133.39208984 C-39.97855912 130.00769554 -38.60936957 126.70828827 -37.203125 123.39453125 C-34.38327361 116.72031029 -31.70689356 109.9968173 -29.06640625 103.25 C-28.72673828 102.39486816 -28.38707031 101.53973633 -28.03710938 100.65869141 C-26.27531346 96.22161027 -24.62242651 91.76465034 -23.06640625 87.25 C-22.7209375 86.3734375 -22.37546875 85.496875 -22.01953125 84.59375 C-20.01482289 78.293238 -22.15720893 74.01988368 -25.04052734 68.42089844 C-29.15842872 60.40088091 -31.62873092 51.9038517 -34.06640625 43.25 C-34.33582031 42.30382812 -34.60523438 41.35765625 -34.8828125 40.3828125 C-37.73930976 28.51736235 -37.53401285 15.8364508 -31.06640625 5.25 C-23.41492483 -4.1251668 -10.3051933 -5.29036661 0 0 Z " fill="#FFFDFC" transform="translate(259.06640625,194.75)"/>
<path d="M0 0 C7.8752999 6.75025706 7.8752999 6.75025706 11.37242126 10.24543762 C12.16456024 11.03475677 12.95669922 11.82407593 13.77284241 12.63731384 C14.19506828 13.06055183 14.19506828 13.06055183 16.33178711 15.20239258 C17.23989136 16.10874451 18.14799561 17.01509644 19.08361816 17.94891357 C21.55446293 20.41523209 24.02217377 22.88466344 26.48916316 25.35483766 C29.07546561 27.94368408 31.66422076 30.53007609 34.25257874 33.11686707 C38.59083876 37.45331328 42.92699774 41.791852 47.26196289 46.1315918 C52.27882217 51.15391279 57.29930153 56.17259345 62.32163614 61.18943864 C66.63780515 65.50107854 70.95203364 69.81465285 75.26462752 74.12986869 C77.838962 76.70576442 80.41397283 79.28097426 82.99073601 81.85444069 C85.85467656 84.71497183 88.71453625 87.57954847 91.57397461 90.44458008 C92.43259598 91.30117722 93.29121735 92.15777435 94.17585754 93.04032898 C94.94825775 93.81554901 95.72065796 94.59076904 96.51646423 95.38948059 C97.19318648 96.06657987 97.86990873 96.74367914 98.56713772 97.44129658 C100 99 100 99 100 100 C67 100 34 100 0 100 C0 67 0 34 0 0 Z " fill="#FBE8E6" transform="translate(310,49)"/>
<path d="M0 0 C0.66 0 1.32 0 2 0 C3.41015625 1.80078125 3.41015625 1.80078125 5.0625 4.3125 C9.74876938 11.20004415 14.79339864 17.8792091 20.7734375 23.69921875 C23 26 23 26 23 28 C21.82566406 28.29132813 20.65132813 28.58265625 19.44140625 28.8828125 C10.20925325 31.2185887 1.19222368 33.81097469 -7.74194336 37.11962891 C-12.82931637 39 -12.82931637 39 -15 39 C-13.01466948 32.7154601 -10.67806617 26.67163911 -8.0625 20.625 C-5.1549923 13.82151185 -2.39277858 7.00517412 0 0 Z " fill="#FF5B27" transform="translate(253,297)"/>
<path d="M0 0 C0.99 0.33 1.98 0.66 3 1 C3 7.93 3 14.86 3 22 C2.34 21.67 1.68 21.34 1 21 C-0.11203475 16.39799456 -0.12178779 11.83153806 -0.0625 7.125 C-0.05798828 6.43664062 -0.05347656 5.74828125 -0.04882812 5.0390625 C-0.03716336 3.35933665 -0.01923271 1.67965625 0 0 Z " fill="#FF6332" transform="translate(246,214)"/>
<path d="M0 0 C2.93774463 -0.05390357 5.87450232 -0.0936255 8.8125 -0.125 C9.22918945 -0.13337891 9.22918945 -0.13337891 11.33789062 -0.17578125 C12.14033203 -0.18222656 12.94277344 -0.18867188 13.76953125 -0.1953125 C14.50792236 -0.20578613 15.24631348 -0.21625977 16.00708008 -0.22705078 C18 0 18 0 21 2 C17.51541293 3.16152902 14.73309492 3.13270324 11.0625 3.125 C9.83660156 3.12757813 8.61070312 3.13015625 7.34765625 3.1328125 C4.67237569 3.02667535 2.53072572 2.79917654 0 2 C0 1.34 0 0.68 0 0 Z " fill="#FF7347" transform="translate(330,334)"/>
</svg>
