<?xml version="1.0" encoding="UTF-8"?>
<!-- Generator: visioncortex VTracer 0.6.12 -->
<svg version="1.1" xmlns="http://www.w3.org/2000/svg" width="512" height="512">
<path d="M0 0 C2.48414713 1.95813761 4.88615993 3.98446795 7.27734375 6.0546875 C8.025 6.65796875 8.77265625 7.26125 9.54296875 7.8828125 C28.62261323 23.76027889 40.43579969 48.67163618 43.0612793 73.1328125 C43.49500972 78.99822013 43.5025783 84.87473553 43.51757812 90.75341797 C43.52720586 93.02219434 43.55827429 95.29003182 43.58984375 97.55859375 C43.79494179 125.88826529 34.77034669 150.65635333 16.27734375 172.0546875 C15.62121094 172.81394531 14.96507812 173.57320312 14.2890625 174.35546875 C-4.20220351 194.11380224 -31.13965429 204.07054607 -57.72265625 205.0546875 C-85.23895599 205.53891627 -111.3833282 195.2013991 -131.43774414 176.43359375 C-151.58683525 156.71799994 -162.71427617 130.44851717 -163.0859375 102.23046875 C-163.09377742 100.01566863 -163.08397962 97.80231575 -163.05883789 95.58764648 C-163.03504647 93.35689433 -163.03833976 91.12733349 -163.04492188 88.89648438 C-162.99524823 62.33788465 -155.79843739 38.62791779 -138.72265625 18.0546875 C-138.02527344 17.19359375 -137.32789063 16.3325 -136.609375 15.4453125 C-103.56049933 -23.46414989 -41.14836007 -29.40011954 0 0 Z " fill="#000000" transform="translate(315.72265625,68.9453125)"/>
<path d="M0 0 C0.26554687 0.22623047 0.26554687 0.22623047 1.609375 1.37109375 C22.37870341 17.29945088 48.85471636 23.3089422 74.62109375 20.37890625 C90.58450489 18.15803953 109.64548728 12.39019117 121.3671875 0.828125 C123.36067223 -1.12652561 124.7211895 -2.24919714 127.359375 -3.19140625 C132.96840301 -2.77140657 138.07176801 -0.98511216 143.359375 0.80859375 C145.14051134 1.38186368 146.92176659 1.95476426 148.703125 2.52734375 C181.0369491 13.1635805 213.97142809 27.45788035 238.359375 51.80859375 C238.71451172 52.15792969 238.71451172 52.15792969 240.51171875 53.92578125 C246.72651755 60.46905779 249.53042704 67.27844162 249.859375 76.30859375 C249.48740532 86.51976146 245.74334179 93.84346542 238.359375 100.80859375 C232.66182434 105.67628377 227.14313523 108.05500921 219.52652359 108.06586266 C218.37819054 108.07231155 217.22985749 108.07876044 216.04672647 108.08540475 C215.42076007 108.08385615 215.42076007 108.08385615 212.25299072 108.07601929 C210.90200222 108.07975759 209.55101587 108.08435983 208.20003295 108.08974993 C204.49315409 108.10197329 200.78636552 108.10172025 197.07947111 108.09936118 C193.07933381 108.09895284 189.07922539 108.10999382 185.07910156 108.11947632 C177.24390479 108.13608392 169.40873812 108.14158577 161.57352522 108.14270107 C155.20361197 108.14365171 148.83370864 108.14776281 142.46379852 108.15410233 C124.39918969 108.1717145 106.33460462 108.1809413 88.26998714 108.17944138 C87.78312969 108.17940142 87.78312969 108.17940142 85.31933594 108.17919922 C84.34443041 108.17911746 83.36952487 108.1790357 82.36507675 108.17895146 C66.56798221 108.17813868 50.77098304 108.1972742 34.97391608 108.22547595 C18.748953 108.25421275 2.52403641 108.26801579 -13.70095277 108.2662884 C-22.80816059 108.26562475 -31.91526843 108.27110614 -41.02245331 108.2926445 C-48.77714056 108.31086682 -56.53168252 108.31519506 -64.28638193 108.30162565 C-68.24108458 108.29510113 -72.19550859 108.29495992 -76.15018463 108.31233215 C-79.77500048 108.32809122 -83.39931742 108.32517088 -87.02412131 108.30776389 C-88.9470968 108.30325576 -90.87008793 108.31832917 -92.79300284 108.33424318 C-102.97325323 108.2534383 -111.32431291 106.12490584 -118.640625 98.80859375 C-125.34748903 90.99030654 -127.25942632 83.47438761 -126.9765625 73.26953125 C-125.9834679 63.03834731 -120.77228593 56.85207341 -113.640625 49.80859375 C-112.83753906 48.99519531 -112.03445312 48.18179688 -111.20703125 47.34375 C-86.27376039 23.32128355 -50.52948315 10.32860535 -18.203125 -0.00390625 C-17.11330322 -0.36009033 -16.02348145 -0.71627441 -14.90063477 -1.08325195 C-13.88799561 -1.39351318 -12.87535645 -1.70377441 -11.83203125 -2.0234375 C-11.38960083 -2.16124634 -11.38960083 -2.16124634 -9.15063477 -2.85864258 C-5.47187811 -3.34635246 -2.9520904 -2.14377993 0 0 Z " fill="#000000" transform="translate(194.640625,336.19140625)"/>
</svg>
