<?xml version="1.0" encoding="UTF-8"?>
<!-- Generator: visioncortex VTracer 0.6.12 -->
<svg version="1.1" xmlns="http://www.w3.org/2000/svg" width="512" height="512">
<path d="M0 0 C0.76732452 -0.00979385 1.53464905 -0.01958771 2.32522583 -0.02967834 C33.20492989 -0.34239455 61.73795197 3.54364789 89.75 17.23828125 C90.51199707 17.60969238 91.27399414 17.98110352 92.05908203 18.36376953 C122.01750514 33.14600582 156.0906687 58.79871911 168.125 91.17578125 C170.12595261 97.08294134 171.00681761 102.36035834 171.125 108.61328125 C171.16238281 109.35578125 171.19976562 110.09828125 171.23828125 110.86328125 C171.30347505 114.96324718 170.98369444 117.47544552 168.3515625 120.71484375 C164.87827244 124.0838308 163.43683361 124.36347278 158.74174881 124.37529564 C158.20864833 124.37783291 158.20864833 124.37783291 155.51083684 124.39067304 C154.33012506 124.3911708 153.14941329 124.39166856 151.93292236 124.3921814 C151.30940112 124.39437252 151.30940112 124.39437252 148.15400577 124.40546095 C144.68122748 124.41744468 141.2084631 124.42307906 137.73566818 124.42764211 C133.99457637 124.43359138 130.25350123 124.44520289 126.51242065 124.45593262 C117.47199761 124.48047188 108.43156904 124.49508588 99.39112294 124.50799268 C96.83863897 124.51170346 94.28615556 124.51567679 91.73367214 124.51974535 C75.89054467 124.54498038 60.04741636 124.56703828 44.20427322 124.5794735 C40.53331753 124.5824033 36.86236187 124.58536495 33.19140625 124.58837891 C32.278983 124.58912496 31.36655974 124.58987101 30.4264873 124.59063967 C15.64166305 124.60329665 0.85695897 124.63652339 -13.92780909 124.67818074 C-29.09944869 124.72057849 -44.27102673 124.74416602 -59.44272542 124.74939406 C-67.96416489 124.75281061 -76.48541656 124.76459436 -85.00679779 124.7974968 C-92.26324879 124.82546884 -99.51947351 124.83650923 -106.77597424 124.82530133 C-110.47909957 124.82010731 -114.18175083 124.82304877 -117.88480759 124.84776688 C-121.8985316 124.87433531 -125.91120789 124.86222458 -129.92498779 124.84628296 C-130.51088224 124.853224 -130.51088224 124.853224 -133.47586322 124.88834989 C-142.25749496 124.80211903 -142.25749496 124.80211903 -145.95781326 121.82528114 C-150.63263448 116.54920054 -149.73109598 110.07020741 -149.43359375 103.34814453 C-148.97024851 98.02337117 -147.22600097 93.16519757 -145.25 88.23828125 C-144.92257813 87.40167969 -144.59515625 86.56507813 -144.2578125 85.703125 C-138.55849312 72.91085706 -127.78780899 62.27332199 -118.25 52.23828125 C-117.67121094 51.60664063 -117.09242188 50.975 -116.49609375 50.32421875 C-110.73750154 44.23367762 -103.95202964 39.23360468 -97.25 34.23828125 C-96.68845215 33.81643555 -96.1269043 33.39458984 -95.54833984 32.95996094 C-68.83001712 13.19012943 -33.38226084 0.35443894 0 0 Z " fill="#000000" transform="translate(245.25,363.76171875)"/>
<path d="M0 0 C1.05703125 0.37382812 2.1140625 0.74765625 3.203125 1.1328125 C15.07447583 5.72915603 24.90845086 12.12732148 34 21 C34.886875 21.845625 35.77375 22.69125 36.6875 23.5625 C37.450625 24.366875 38.21375 25.17125 39 26 C39.51820313 26.52335937 40.03640625 27.04671875 40.5703125 27.5859375 C48.30292677 35.80400738 53.39352923 45.78570225 57.375 56.25 C57.61355713 56.87455078 57.85211426 57.49910156 58.09790039 58.14257812 C64.75505557 76.60072578 64.61715122 99.57577503 58 118 C57.62617188 119.05703125 57.25234375 120.1140625 56.8671875 121.203125 C52.27084397 133.07447583 45.87267852 142.90845086 37 152 C36.154375 152.886875 35.30875 153.77375 34.4375 154.6875 C33.633125 155.450625 32.82875 156.21375 32 157 C31.47664062 157.51820313 30.95328125 158.03640625 30.4140625 158.5703125 C22.19599262 166.30292677 12.21429775 171.39352923 1.75 175.375 C1.12544922 175.61355713 0.50089844 175.85211426 -0.14257812 176.09790039 C-18.60072578 182.75505557 -41.57577503 182.61715122 -60 176 C-61.05703125 175.62617188 -62.1140625 175.25234375 -63.203125 174.8671875 C-75.07447583 170.27084397 -84.90845086 163.87267852 -94 155 C-94.886875 154.154375 -95.77375 153.30875 -96.6875 152.4375 C-97.0690625 152.0353125 -97.0690625 152.0353125 -99 150 C-99.51820313 149.47664062 -100.03640625 148.95328125 -100.5703125 148.4140625 C-108.30292677 140.19599262 -113.39352923 130.21429775 -117.375 119.75 C-117.61355713 119.12544922 -117.85211426 118.50089844 -118.09790039 117.85742188 C-124.75505557 99.39927422 -124.61715122 76.42422497 -118 58 C-117.62617188 56.94296875 -117.25234375 55.8859375 -116.8671875 54.796875 C-107.88086008 31.58715519 -91.0361995 14.07783256 -68.6875 3.3125 C-47.63568621 -5.86548501 -21.76900466 -7.81844534 0 0 Z " fill="#000000" transform="translate(286,152)"/>
</svg>
