<?xml version="1.0" encoding="UTF-8"?>
<!-- Generator: visioncortex VTracer 0.6.12 -->
<svg version="1.1" xmlns="http://www.w3.org/2000/svg" width="512" height="512">
<path d="M0 0 C6.76940353 4.88273762 11.43121526 10.90536324 15.87109375 17.87890625 C16.47832779 18.80863754 17.08556183 19.73836884 17.7111969 20.6962738 C19.63247747 23.64377403 21.53536022 26.60262037 23.4375 29.5625 C24.70774758 31.51968346 25.97922337 33.47607037 27.25195312 35.43164062 C29.72114076 39.22791829 32.18452715 43.02785874 34.64379883 46.83056641 C38.63069619 52.98509933 42.69698105 59.0846114 46.77938843 65.17599487 C50.39366354 70.57694018 53.9819601 75.99511104 57.56176758 81.41894531 C58.48932393 82.82204919 59.41906078 84.22371373 60.35083008 85.62402344 C61.72755214 87.69375842 63.09688912 89.76821311 64.46484375 91.84375 C64.67109123 92.15213806 64.67109123 92.15213806 65.71482849 93.71276855 C69.973127 100.20802658 72.42963799 105.79364134 72.4375 113.75 C72.45683594 115.04421875 72.47617188 116.3384375 72.49609375 117.671875 C71.89930388 126.68318972 67.193399 135.06006376 63 142.875 C62.53376221 143.76050537 62.06752441 144.64601074 61.5871582 145.55834961 C59.01347839 150.40174473 56.33812075 155.16760046 53.54296875 159.88671875 C52.98287109 160.83756348 52.42277344 161.7884082 51.84570312 162.76806641 C50.75653714 164.60354842 49.65274776 166.43044644 48.53320312 168.24755859 C48.04142578 169.07465332 47.54964844 169.90174805 47.04296875 170.75390625 C46.59977295 171.47908447 46.15657715 172.2042627 45.69995117 172.95141602 C45 175 45 175 45.74755859 177.09179688 C54.09595245 189.81129909 64.62645813 201.40175542 74.84765625 212.62890625 C76.24352106 214.16663754 77.62719097 215.7155623 78.99609375 217.27734375 C85.74893945 224.94929132 93.01229779 232.09889538 100.27075195 239.28710938 C103.23739961 242.22569472 106.18709697 245.18084961 109.12841797 248.14477539 C111.68766231 250.72362787 114.25004092 253.29934209 116.8125 255.875 C117.2446582 256.31134766 117.2446582 256.31134766 119.43164062 258.51953125 C123.92111381 263.02594584 128.46185789 267.39219571 133.29077148 271.53369141 C135.45111928 273.38700506 137.53421055 275.31887084 139.625 277.25 C144.74923946 281.87758241 150.12538415 286.12025114 155.59375 290.328125 C157.77134965 292.01125851 159.83164569 293.72880778 161.90625 295.546875 C162.7621875 296.29453125 163.618125 297.0421875 164.5 297.8125 C165.2321875 298.47894531 165.964375 299.14539063 166.71875 299.83203125 C169 301 169 301 171.81787109 300.24755859 C174.7840659 299.0846573 177.43319932 297.78727619 180.1953125 296.20703125 C181.15252197 295.66240234 182.10973145 295.11777344 183.09594727 294.55664062 C183.59574097 294.26885742 183.59574097 294.26885742 186.125 292.8125 C187.1574585 292.22533203 188.18991699 291.63816406 189.25366211 291.03320312 C193.42527445 288.65525571 197.59184585 286.27520393 201.68359375 283.76171875 C212.74743716 276.99130711 224.56347902 272.0189316 237.77441406 273.44995117 C246.62311196 275.63688803 254.58511509 281.46583512 262 286.5625 C264.07566193 287.9678621 266.15260194 289.37133745 268.23046875 290.7734375 C268.51894432 290.96850639 268.51894432 290.96850639 269.97880554 291.95567322 C275.51644217 295.69278802 281.09373636 299.36871182 286.67578125 303.0390625 C287.62653534 303.6643132 288.57728943 304.2895639 289.55685425 304.9337616 C293.41380334 307.46937207 297.27132414 310.00410712 301.13012695 312.53689575 C306.54962177 316.0950661 311.96131671 319.66455271 317.36187744 323.25140381 C319.13238003 324.42492551 320.90549357 325.59451681 322.68109131 326.76031494 C325.2676809 328.46051871 327.84373882 330.17568906 330.41796875 331.89453125 C331.18192459 332.3923259 331.94588043 332.89012054 332.73298645 333.40299988 C340.40491375 338.57166946 346.32723558 344.31528759 348.5625 353.5078125 C350.4155893 364.06380331 347.83335381 374.33392328 341.75 383.1875 C340.52144403 384.8081483 339.27106185 386.41246969 338 388 C337.36835938 388.80953125 336.73671875 389.6190625 336.0859375 390.453125 C334.08309257 392.99059388 332.04367441 395.4953464 330 398 C329.33484375 398.84046875 328.6696875 399.6809375 327.984375 400.546875 C292.04462421 445.53811858 292.04462421 445.53811858 270 449 C205.61682326 449.34689212 145.21783593 405.83140248 98 366 C96.84770007 365.03249989 95.69535858 364.06504928 94.54296875 363.09765625 C91.8981994 360.87224695 89.26394836 358.6348217 86.63427734 356.39160156 C84.87041143 354.88965419 83.10128258 353.39403598 81.33203125 351.8984375 C70.51791554 342.72905422 70.51791554 342.72905422 65.67674255 337.67579651 C64.00093724 336.00093671 62.25893294 334.47456377 60.45336914 332.94116211 C55.28024336 328.44116594 50.46218664 323.60563838 45.62109375 318.75390625 C44.64053119 317.77401947 43.65982041 316.79428099 42.67897034 315.81468201 C40.63599787 313.7731736 38.59481831 311.72989434 36.55493164 309.68530273 C33.96080134 307.08547596 31.36220566 304.49016627 28.7622366 301.89618015 C26.73992175 299.87750604 24.7200281 297.85642267 22.70082283 295.8346386 C21.28483754 294.41767676 19.86686485 293.00270183 18.44883728 291.58778381 C13.95413799 287.07688479 9.58193882 282.51991537 5.44187927 277.67999268 C3.24044397 275.11501011 0.92884623 272.66084843 -1.375 270.1875 C-5.6687538 265.53961458 -9.7353184 260.75583652 -13.703125 255.82421875 C-15.72540221 253.3376432 -17.79175688 250.89695918 -19.88232422 248.46777344 C-40.94145021 223.94265063 -59.17967467 197.1530837 -75 169 C-75.39429199 168.3100293 -75.78858398 167.62005859 -76.19482422 166.90917969 C-87.04152035 147.86154871 -94.74640926 127.25203718 -100 106 C-100.12697266 105.49210937 -100.12697266 105.49210937 -100.76953125 102.921875 C-101.33407997 100.27377597 -101.70917692 97.6928063 -102 95 C-102.07621582 94.30165039 -102.15243164 93.60330078 -102.23095703 92.88378906 C-104.00135277 75.48026245 -100.49762135 65.64582002 -89.55859375 51.94140625 C-80.67829875 41.07563928 -70.80355646 30.9642034 -60 22 C-59.20722656 21.3296875 -58.41445312 20.659375 -57.59765625 19.96875 C-21.83867245 -9.85665793 -21.83867245 -9.85665793 0 0 Z " fill="#000000" transform="translate(133,33)"/>
</svg>
