<?xml version="1.0" encoding="UTF-8"?>
<!-- Generator: visioncortex VTracer 0.6.12 -->
<svg version="1.1" xmlns="http://www.w3.org/2000/svg" width="512" height="512">
<path d="M0 0 C5.58221239 4.87485602 9.61207551 10.47908957 13.60546875 16.67578125 C14.21078934 17.59981247 14.81610992 18.52384369 15.43977356 19.47587585 C17.36364147 22.41631065 19.27586777 25.36409951 21.1875 28.3125 C22.45037704 30.24856557 23.71404298 32.18411679 24.97851562 34.11914062 C26.85274339 36.98777344 28.72627205 39.85683838 30.59651184 42.72807312 C35.44257521 50.16561294 40.35312341 57.55819428 45.28686523 64.93774414 C49.20102263 70.79265079 53.07526332 76.67322251 56.9375 82.5625 C57.65228516 83.64595703 58.36707031 84.72941406 59.10351562 85.84570312 C70.55362401 103.31214968 70.55362401 103.31214968 71 109.8125 C71.0825 110.70582031 71.165 111.59914063 71.25 112.51953125 C70.52368537 122.63119276 66.83951842 131.12628917 62.0625 139.9375 C61.78088013 140.4730249 61.78088013 140.4730249 60.35571289 143.18310547 C57.49785684 148.567887 54.52558691 153.84758972 51.3359375 159.04296875 C50.76480225 159.98599854 50.19366699 160.92902832 49.60522461 161.90063477 C48.51609884 163.67981124 47.40059615 165.44318004 46.25610352 167.18725586 C44.8611322 169.46476475 43.73324535 171.43171712 43 174 C44.18153817 177.14409309 44.94421679 178.54919832 47 181 C47.38607422 181.53109375 47.38607422 181.53109375 49.33984375 184.21875 C50.1996569 185.31727991 51.06583201 186.41085284 51.9375 187.5 C52.41276123 188.09820557 52.88802246 188.69641113 53.37768555 189.31274414 C68.71150109 208.45203216 85.78938332 225.96023508 103.13378906 243.26416016 C105.89505284 246.02001355 108.6508636 248.78124028 111.40625 251.54296875 C113.18457492 253.32063359 114.96320963 255.09798859 116.7421875 256.875 C117.55380341 257.68864014 118.36541931 258.50228027 119.20162964 259.34057617 C123.45371641 263.57536973 127.77977548 267.65874654 132.33361816 271.56829834 C134.47853153 273.4111389 136.54782212 275.33144297 138.625 277.25 C147.83534503 285.55348029 157.72597702 293.06385085 168 300 C176.41734455 295.98230949 184.54921001 291.60215122 192.625 286.9375 C223.21024588 269.34976281 223.21024588 269.34976281 238 273 C245.31196351 275.66461798 251.64524773 280.01948601 258.0546875 284.34375 C259.66081879 285.42091858 261.26736314 286.49747146 262.87426758 287.57348633 C263.71253082 288.1349234 264.55079407 288.69636047 265.41445923 289.27481079 C269.76378552 292.17687711 274.1337474 295.0474079 278.50390625 297.91796875 C288.84164042 304.71148317 299.16822432 311.52170809 309.48852539 318.3416748 C311.77286347 319.85002188 314.05890481 321.35573826 316.34570312 322.86035156 C319.84418677 325.16360884 323.32965346 327.48566668 326.8125 329.8125 C327.29400513 330.1281189 327.29400513 330.1281189 329.73071289 331.7253418 C337.29819867 336.82234968 344.07217988 342.50408156 346.5625 351.59375 C348.72705911 363.49882513 345.60279123 373.51123295 338.9375 383.4375 C332.02338961 393.10277473 324.03311088 401.95517952 316.046875 410.734375 C314.16477879 412.81761127 312.32837688 414.93218933 310.5 417.0625 C300.13579779 428.86683053 285.13240152 444.94040661 269 448 C208.54457768 451.00290883 147.97456194 408.14986055 103.73974609 371.43994141 C101.29988899 369.4205368 98.83580436 367.43129039 96.375 365.4375 C86.64995205 357.46208586 77.14526282 349.25360772 67.921875 340.703125 C65.98431102 338.91061929 64.03643878 337.12918799 62.078125 335.359375 C55.84606237 329.72084214 49.85305579 323.9019083 43.94555664 317.92407227 C40.38205235 314.33266971 36.72577085 310.94898281 32.85644531 307.68652344 C30.99305921 305.99369451 29.40204114 304.22600507 27.77734375 302.3046875 C24.04884657 297.99122155 20.06855619 293.9906145 16 290 C11.34482173 285.43400139 6.86834895 280.8038916 2.61230469 275.86181641 C0.34500242 273.24363847 -2.01432148 270.72186207 -4.375 268.1875 C-8.67195948 263.53614451 -12.74190142 258.74925159 -16.7109375 253.8125 C-18.69344722 251.37665188 -20.72408103 248.99326952 -22.78076172 246.62011719 C-30.00584549 238.24815307 -36.59019328 229.41388726 -43.14648438 220.51367188 C-44.88643653 218.15401074 -46.63781991 215.80324323 -48.390625 213.453125 C-75.51144469 176.81138254 -110.48525655 122.06816925 -105 74 C-100.83904904 53.73022461 -77.96745895 34.74814607 -63 22 C-62.06671875 21.17757812 -61.1334375 20.35515625 -60.171875 19.5078125 C-54.22889867 14.31214536 -48.11468787 9.49867097 -41.625 5 C-40.97144531 4.54334961 -40.31789063 4.08669922 -39.64453125 3.61621094 C-28.03706592 -4.27379223 -12.65403193 -8.05256577 0 0 Z M-40.80078125 32.23828125 C-43.50236128 34.593854 -46.29391242 36.80096919 -49.125 39 C-54.63908252 43.49747438 -59.6911616 48.43772172 -64.75 53.4375 C-65.55453613 54.22447266 -66.35907227 55.01144531 -67.18798828 55.82226562 C-83.22788906 71.87876742 -83.22788906 71.87876742 -83.375 82 C-82.33008994 132.64740539 -46.22236311 181.92382545 -16 220 C-15.41879395 220.73283203 -14.83758789 221.46566406 -14.23876953 222.22070312 C-4.12246944 234.92044357 6.37628408 247.28002142 17.41015625 259.19140625 C19.84483906 261.83173346 22.23873058 264.50346386 24.625 267.1875 C28.24896894 271.23210819 32.0407898 275.06249131 35.90625 278.875 C37.73883495 280.73493696 39.4410858 282.63179544 41.125 284.625 C48.71713628 293.46174878 57.21203197 301.82099878 66.11328125 309.33203125 C68.51501098 311.45529956 70.74704563 313.7197784 73 316 C76.5117655 319.54918157 80.09008901 322.91968457 83.8828125 326.1640625 C86.40599455 328.3520617 88.85554519 330.61293113 91.3125 332.875 C95.81940103 336.98459846 100.44588625 340.89258408 105.19140625 344.72265625 C108.11560719 347.09373991 110.99566367 349.51219831 113.875 351.9375 C151.91024636 383.63353863 210.73328223 428.99747329 263.41796875 426.4921875 C273.79072022 424.51493079 281.71594346 415.08427315 289 408 C289.90234375 407.13761719 290.8046875 406.27523438 291.734375 405.38671875 C296.74910263 400.50436747 301.28098848 395.3946102 305.640625 389.921875 C307.32883899 387.83117291 309.03273406 385.78969393 310.796875 383.765625 C324.21320941 368.36311144 324.21320941 368.36311144 325.6875 360.1875 C324.19288249 353.25790973 316.78766704 349.60936283 311.23046875 345.90625 C310.36924911 345.32610641 309.50802948 344.74596283 308.62071228 344.14823914 C305.81348592 342.25969515 303.0007306 340.37958578 300.1875 338.5 C298.24379472 337.19599235 296.30027398 335.89170959 294.35693359 334.5871582 C282.64724746 326.73565791 270.90662578 318.93064437 259.125 311.1875 C258.49089203 310.77032715 257.85678406 310.3531543 257.20346069 309.92333984 C254.25852197 307.9881895 251.3071249 306.06558363 248.33691406 304.16943359 C246.04823996 302.68149402 243.83491194 301.17676355 241.62402344 299.58447266 C232.59635159 293.25337704 232.59635159 293.25337704 226.38671875 294.140625 C220.45992486 295.85021529 215.14480928 298.69867435 209.8125 301.75 C209.30315918 302.0334729 209.30315918 302.0334729 206.72558594 303.46801758 C196.15342332 309.38593689 185.69691592 315.51383028 175.27636719 321.6940918 C169.49442368 325.01108191 169.49442368 325.01108191 166.734375 324.94921875 C162.75130569 323.56652469 159.64652687 321.27601347 156.25 318.8125 C155.5070166 318.28003662 154.7640332 317.74757324 153.99853516 317.19897461 C145.69262117 311.16936028 137.81512503 304.64670101 130 298 C129.35820801 297.45730469 128.71641602 296.91460937 128.05517578 296.35546875 C112.40572711 283.09718809 97.70146194 268.87231236 83.22387695 254.35424805 C80.91147277 252.03641162 78.59367102 249.72406696 76.27539062 247.41210938 C74.77572043 245.91177936 73.27635994 244.4111397 71.77734375 242.91015625 C71.09808334 242.23292007 70.41882294 241.5556839 69.71897888 240.85792542 C65.82540508 236.94542773 62.10905395 232.92855359 58.50730896 228.74542236 C56.43298563 226.34341294 54.27842865 224.01856838 52.125 221.6875 C23.72791629 190.47205911 23.72791629 190.47205911 18 177 C18.45345508 173.12509413 19.74567918 170.2887924 21.66796875 166.921875 C22.22516602 165.93783691 22.78236328 164.95379883 23.35644531 163.93994141 C23.96069336 162.88726074 24.56494141 161.83458008 25.1875 160.75 C25.80592773 159.65478027 26.42435547 158.55956055 27.06152344 157.43115234 C30.32484855 151.65650006 33.63118808 145.90957325 36.97265625 140.1796875 C37.60598877 139.08043945 38.23932129 137.98119141 38.8918457 136.84863281 C40.09921638 134.7540168 41.31972816 132.66690137 42.55541992 130.58886719 C49.89375573 117.80520236 49.89375573 117.80520236 49 111 C46.8740946 105.9305465 43.60106794 101.47467734 40.42810059 97.01794434 C38.68241233 94.55124012 37.02943085 92.03128341 35.37754822 89.50126648 C33.31993982 86.35811489 31.21884242 83.24407673 29.125 80.125 C27.21405615 77.27266254 25.3043172 74.41951906 23.39453125 71.56640625 C22.89324203 70.81808029 22.39195282 70.06975433 21.87547302 69.29875183 C18.36183077 64.04924481 14.86854869 58.78657795 11.38476562 53.51721191 C8.82655143 49.64810655 6.26403837 45.78185665 3.70135498 41.91571045 C2.44470498 40.01747743 1.19001614 38.11794461 -0.06268311 36.21710205 C-1.82168562 33.54876135 -3.58778277 30.8852495 -5.35546875 28.22265625 C-5.88263992 27.41900131 -6.4098111 26.61534637 -6.95295715 25.78733826 C-7.44309799 25.05193314 -7.93323883 24.31652802 -8.43823242 23.55883789 C-8.86263107 22.91668839 -9.28702972 22.27453888 -9.72428894 21.6129303 C-11.86013252 18.91250155 -13.70598289 18.04800279 -17.0625 17.5 C-26.58323211 18.70898185 -33.81000465 26.14070265 -40.80078125 32.23828125 Z " fill="#000000" transform="translate(135,34)"/>
</svg>
