<?xml version="1.0" encoding="UTF-8"?>
<!-- Generator: visioncortex VTracer 0.6.12 -->
<svg version="1.1" xmlns="http://www.w3.org/2000/svg" width="512" height="512">
<path d="M0 0 C20.06233487 17.06241464 47.82631002 43.28778773 51.93359375 70.1796875 C52.39657518 78.0644015 49.58041689 85.54215408 44.55004883 91.52368164 C40.59818581 95.96674846 36.19321252 99.06084866 31.203125 102.2421875 C30.30918533 102.82606232 29.41524567 103.40993713 28.49421692 104.01150513 C25.60736472 105.89378352 22.71014799 107.75939388 19.8125 109.625 C17.81095218 110.92582956 15.81022392 112.227921 13.81030273 113.53125 C9.86112495 116.10416357 5.90885401 118.67221675 1.95458984 121.23730469 C-4.86902041 125.67213637 -11.62419635 130.20552947 -18.375 134.75 C-26.23940041 140.0149136 -34.15592991 145.18073365 -42.1875 150.1875 C-43.02788818 150.71408203 -43.86827637 151.24066406 -44.73413086 151.78320312 C-51.62442753 156.02687232 -57.29569256 159.17857255 -65.625 159.1875 C-66.81480469 159.20683594 -68.00460937 159.22617188 -69.23046875 159.24609375 C-79.22339199 158.52673227 -88.16369948 153.60318496 -96.625 148.625 C-97.61097168 148.05894043 -98.59694336 147.49288086 -99.61279297 146.90966797 C-104.28968979 144.21498191 -108.92754761 141.46482148 -113.52734375 138.640625 C-114.29860596 138.17156738 -115.06986816 137.70250977 -115.86450195 137.21923828 C-117.29220383 136.34609305 -118.71192272 135.45970822 -120.12182617 134.55810547 C-122.79513919 132.9193268 -124.82586691 131.76305315 -128 131.6953125 C-131.34460355 133.14249673 -134.01878709 135.20659441 -136.8125 137.5 C-137.41827881 137.98734619 -138.02405762 138.47469238 -138.64819336 138.97680664 C-150.31941621 148.4404865 -161.47573989 158.4798712 -172.4375 168.75 C-173.11635254 169.38373535 -173.79520508 170.0174707 -174.49462891 170.67041016 C-196.39045791 191.11534026 -196.39045791 191.11534026 -204.39453125 200.48828125 C-207.13370004 203.52074536 -210.03246926 206.37727009 -212.9375 209.25 C-217.04528917 213.31669392 -221.03946135 217.4051309 -224.78125 221.81640625 C-226.69735577 224.05336935 -228.69262856 226.20803578 -230.6875 228.375 C-235.83405078 234.07579471 -240.53693018 240.09008017 -245.21435547 246.17578125 C-246.29027771 247.56052109 -247.39494514 248.92282504 -248.50390625 250.28125 C-249.05949219 250.9721875 -249.61507812 251.663125 -250.1875 252.375 C-250.65671875 252.94476563 -251.1259375 253.51453125 -251.609375 254.1015625 C-252.76722643 256.40634224 -252.24260969 257.30901533 -251.4375 259.75 C-250.46364542 261.6742449 -249.43555021 263.57136241 -248.375 265.44921875 C-247.74682373 266.56844727 -247.11864746 267.68767578 -246.47143555 268.84082031 C-246.30520187 269.13466614 -246.30520187 269.13466614 -245.46395874 270.6217041 C-243.74225135 273.66738835 -242.03842745 276.72306384 -240.33203125 279.77734375 C-240.16347878 280.07858658 -240.16347878 280.07858658 -239.3105011 281.60305786 C-236.54446517 286.54882352 -233.80456122 291.50684679 -231.125 296.5 C-230.77115234 297.14670654 -230.41730469 297.79341309 -230.05273438 298.4597168 C-226.60623597 304.93050035 -225.13919201 310.80858239 -225.0625 318.125 C-225.03414062 319.34960938 -225.00578125 320.57421875 -224.9765625 321.8359375 C-225.87506745 329.46561514 -229.78912567 335.71606739 -234 342 C-234.47066895 342.71502686 -234.94133789 343.43005371 -235.42626953 344.16674805 C-236.49827726 345.79496714 -237.57298818 347.4214086 -238.64990234 349.04638672 C-240.56462898 351.94227346 -242.46521323 354.84707481 -244.36328125 357.75390625 C-246.62961497 361.22472502 -248.89762434 364.69432453 -251.17529297 368.15771484 C-255.77288642 375.14936966 -260.3509216 382.15281824 -264.89855957 389.17710876 C-267.48739892 393.17128711 -270.08631887 397.15885276 -272.68658447 401.14559937 C-273.97011888 403.11842881 -275.24943985 405.09400648 -276.52435303 407.07241821 C-278.33193971 409.87599968 -280.15455311 412.66926973 -281.98046875 415.4609375 C-282.51323929 416.29524796 -283.04600983 417.12955841 -283.59492493 417.989151 C-289.32854043 426.6866642 -295.76065268 432.58473537 -305.875 435.4375 C-316.57769698 436.74270695 -326.22186813 434.39891855 -335.0625 428.0625 C-336.87061853 426.64574912 -338.66245741 425.20797788 -340.4375 423.75 C-341.30761719 423.05777344 -342.17773438 422.36554688 -343.07421875 421.65234375 C-345.8919228 419.3858402 -348.66562534 417.07228105 -351.4375 414.75 C-352.47116943 413.90472196 -353.50502976 413.05967731 -354.5390625 412.21484375 C-396.87447626 377.21992069 -396.87447626 377.21992069 -400.4375 356.75 C-400.59287272 327.91282323 -391.00954573 300.3745196 -378.4375 274.75 C-378.02661133 273.90904785 -377.61572266 273.0680957 -377.19238281 272.20166016 C-365.05727609 247.6301549 -349.60086569 224.87763054 -332.69384766 203.35351562 C-331.38593073 201.68418053 -330.08887625 200.00679598 -328.79296875 198.328125 C-320.12661572 187.14337123 -310.94618069 176.4413723 -301.4375 165.96484375 C-299.64146471 163.97587498 -297.87796697 161.96436806 -296.125 159.9375 C-288.17694462 150.84098708 -279.89318474 142.12587766 -271.30297852 133.63696289 C-268.34608759 130.70314371 -265.49178286 127.75677884 -262.8125 124.5625 C-259.61753277 120.79387282 -256.00761331 117.54082364 -252.34033203 114.24633789 C-248.15130081 110.46221612 -244.1552369 106.51457269 -240.1875 102.5 C-236.07230417 98.34493146 -231.94720301 94.29272835 -227.48046875 90.51171875 C-225.33208736 88.65909924 -223.25105191 86.74119781 -221.17236328 84.81103516 C-215.99320066 80.00449768 -210.70254856 75.41293082 -205.1953125 70.98046875 C-202.3664335 68.6925227 -199.59002458 66.34992202 -196.8125 64 C-189.21328993 57.66406068 -181.35895623 51.67592195 -173.4375 45.75 C-172.72319824 45.2147168 -172.00889648 44.67943359 -171.27294922 44.12792969 C-128.20052712 12.01175564 -49.93730331 -41.66808397 0 0 Z " fill="#000000" transform="translate(430.4375,46.25)"/>
</svg>
