<?xml version="1.0" encoding="UTF-8"?>
<!-- Generator: visioncortex VTracer 0.6.12 -->
<svg version="1.1" xmlns="http://www.w3.org/2000/svg" width="512" height="512">
<path d="M0 0 C1.21883377 -0.00623996 2.43766754 -0.01247993 3.69343567 -0.01890898 C7.03695896 -0.03199398 10.3795684 -0.02743469 13.72303391 -0.0149641 C17.34411327 -0.00584578 20.96511761 -0.01991665 24.58618164 -0.03088379 C31.66414479 -0.04860186 38.74193757 -0.04485915 45.81990719 -0.03323323 C51.57607856 -0.0241726 57.33220244 -0.02298623 63.08837891 -0.02732849 C63.90992179 -0.02794142 64.73146467 -0.02855436 65.57790279 -0.02918586 C67.24723436 -0.03046486 68.91656591 -0.03176171 70.58589745 -0.03307623 C86.21226148 -0.04446236 101.8385314 -0.03139928 117.46487999 -0.00987476 C130.85163375 0.00799444 144.23824874 0.00488978 157.625 -0.0135498 C173.19825014 -0.03499136 188.77141795 -0.04336391 204.34468079 -0.03110075 C206.00761921 -0.02982665 207.67055765 -0.02856917 209.33349609 -0.02732849 C210.15153686 -0.02671139 210.96957762 -0.02609429 211.81240749 -0.02545848 C217.55676194 -0.02201543 223.30106385 -0.02781132 229.04541016 -0.0372467 C236.05290288 -0.04850467 243.06021654 -0.04534731 250.06768894 -0.02412373 C253.63800972 -0.01366404 257.20803275 -0.00940363 260.77835083 -0.02272034 C264.65969124 -0.03697737 268.5405519 -0.01987089 272.421875 0 C273.5346431 -0.00892289 274.64741119 -0.01784577 275.79389954 -0.02703905 C290.38500917 0.11710059 302.82208578 5.29294486 313.4609375 15.25793457 C324.49370717 27.03677268 328.84682586 40.33995312 328.71887207 56.29699707 C328.72199205 56.90641396 328.72199205 56.90641396 328.73778105 59.99043274 C328.75086605 63.33395603 328.74630676 66.67656547 328.73383617 70.02003098 C328.72471785 73.64111034 328.73878872 77.26211468 328.74975586 80.88317871 C328.76747393 87.96114186 328.76373122 95.03893464 328.7521053 102.11690426 C328.74304467 107.87307563 328.7418583 113.62919951 328.74620056 119.38537598 C328.74681349 120.20691886 328.74742643 121.02846174 328.74805793 121.87489986 C328.74933693 123.54423143 328.75063378 125.21356298 328.7519483 126.88289452 C328.76333443 142.50925855 328.75027135 158.13552847 328.72874683 173.76187706 C328.71087763 187.14863082 328.71398229 200.53524581 328.73242188 213.92199707 C328.75386343 229.49524721 328.76223598 245.06841502 328.74997282 260.64167786 C328.74869872 262.30461628 328.74744124 263.96755472 328.74620056 265.63049316 C328.74589201 266.03951355 328.74589201 266.03951355 328.74433056 268.10940456 C328.7408875 273.85375901 328.74668339 279.59806092 328.75611877 285.34240723 C328.76737674 292.34989995 328.76421938 299.35721361 328.7429958 306.36468601 C328.73253611 309.93500679 328.7282757 313.50502982 328.74159241 317.0753479 C328.75584944 320.95668831 328.73874296 324.83754897 328.71887207 328.71887207 C328.72779496 329.83164017 328.73671784 330.94440826 328.74591112 332.09089661 C328.60135834 346.72382798 323.41399522 359.22040573 313.3359375 369.82043457 C304.27649489 378.32344309 292.77251802 384.61688067 280.1010828 384.64215565 C279.06308381 384.64661349 278.02508482 384.65107134 276.95563132 384.65566427 C275.81664765 384.6554799 274.67766398 384.65529554 273.50416565 384.65510559 C272.2930217 384.65878228 271.08187775 384.66245897 269.83403248 384.66624707 C266.4704852 384.67536681 263.10698669 384.67998206 259.74343169 384.68263638 C256.11608157 384.68654291 252.48874554 384.69612117 248.86140442 384.70484924 C240.09912344 384.72460628 231.33684131 384.73467998 222.57454363 384.74357703 C218.44549208 384.74796215 214.31644182 384.75332847 210.18739128 384.7585659 C196.45587842 384.77557924 182.72436636 384.79007174 168.99284458 384.79731464 C165.4298814 384.79922446 161.86691823 384.80114481 158.30395508 384.80310059 C157.41842392 384.80358433 156.53289276 384.80406807 155.62052732 384.80456647 C141.28676825 384.81286051 126.95309281 384.83818636 112.61937023 384.87068126 C97.89398756 384.90379103 83.16864731 384.92176704 68.44322723 384.92495888 C60.17928282 384.92712061 51.91546026 384.93581952 43.6515522 384.96142006 C36.6109292 384.98318085 29.57045765 384.99115123 22.52980483 384.98145328 C18.9413009 384.97692374 15.35310909 384.97871531 11.76464844 384.99821472 C7.86315881 385.01923068 3.96209358 385.00881208 0.06056213 384.99568176 C-1.05834504 385.00665101 -2.17725222 385.01762025 -3.33006567 385.0289219 C-17.9832353 384.91046596 -30.48730496 379.72452033 -41.1015625 369.63293457 C-49.60457102 360.57349196 -55.8980086 349.06951509 -55.92328358 336.39807987 C-55.92774142 335.36008088 -55.93219926 334.32208189 -55.93679219 333.25262839 C-55.93660783 332.11364472 -55.93642347 330.97466105 -55.93623352 329.80116272 C-55.93991021 328.59001877 -55.9435869 327.37887483 -55.947375 326.13102955 C-55.95649474 322.76748227 -55.96110999 319.40398376 -55.96376431 316.04042876 C-55.96767084 312.41307864 -55.97724909 308.78574261 -55.98597717 305.15840149 C-56.00573421 296.39612051 -56.01580791 287.63383838 -56.02470496 278.8715407 C-56.02909008 274.74248915 -56.0344564 270.61343889 -56.03969383 266.48438835 C-56.05670717 252.75287549 -56.07119967 239.02136343 -56.07844257 225.28984165 C-56.08035239 221.72687847 -56.08227273 218.1639153 -56.08422852 214.60095215 C-56.08471226 213.71542099 -56.085196 212.82988983 -56.0856944 211.91752439 C-56.09398844 197.58376532 -56.11931429 183.25008988 -56.15180919 168.9163673 C-56.18491896 154.19098463 -56.20289497 139.46564438 -56.20608681 124.7402243 C-56.20824854 116.47627989 -56.21694745 108.21245733 -56.24254799 99.94854927 C-56.26430878 92.90792627 -56.27227916 85.86745472 -56.26258121 78.8268019 C-56.25805167 75.23829797 -56.25984324 71.65010616 -56.27934265 68.06164551 C-56.30035861 64.16015588 -56.28994001 60.25909065 -56.27680969 56.3575592 C-56.28229432 55.79810562 -56.28229432 55.79810562 -56.31004983 52.9669314 C-56.19193115 38.3554808 -51.01751568 25.9111602 -41.0390625 15.25793457 C-29.26022439 4.2251649 -15.95704395 -0.12795379 0 0 Z " fill="#4527A0" transform="translate(119.7890625,63.4920654296875)"/>
<path d="M0 0 C8.90310633 6.53388053 16.00481719 16.16984897 22.85546875 24.69921875 C24.99874956 27.31097623 27.2238033 29.81615302 29.5 32.3125 C33.41891252 36.61241791 37.09170869 41.07169547 40.75 45.59375 C43.63477328 49.07951771 46.67459884 52.4073149 49.72265625 55.75 C52.98727981 59.42340147 56.07021984 63.23566537 59.15234375 67.0625 C61 69.3125 61 69.3125 63 71.3125 C65.79394531 71.56787109 65.79394531 71.56787109 69.328125 71.5859375 C70.60300781 71.6065625 71.87789062 71.6271875 73.19140625 71.6484375 C75.21670725 71.67095716 77.24166977 71.6874758 79.26708984 71.69335938 C81.22509338 71.70294568 83.1829196 71.73795039 85.140625 71.7734375 C85.72602051 71.77754639 85.72602051 71.77754639 88.68847656 71.79833984 C93.50587085 72.54630743 96.64403251 74.79096174 99.85546875 78.39453125 C101.61779085 82.88755039 101.39349847 87.22109035 101.3125 92 C101.31572266 92.96228516 101.31894531 93.92457031 101.32226562 94.91601562 C101.26723281 102.04526719 101.26723281 102.04526719 99 104.3125 C96.49079154 104.48745606 94.09375059 104.54419569 91.5859375 104.5078125 C90.85629791 104.5049826 90.12665833 104.50215271 89.37490845 104.49923706 C87.04143972 104.48803002 84.70835297 104.4629251 82.375 104.4375 C80.79427637 104.42747085 79.21354673 104.41834489 77.6328125 104.41015625 C73.75506086 104.38808905 69.87759522 104.35355615 66 104.3125 C66.00368717 105.06125774 66.00737434 105.81001549 66.01117325 106.58146286 C66.09947249 124.7920533 66.16568434 143.00260107 66.20724869 161.21335983 C66.22788266 170.01992221 66.25601911 178.82634178 66.30175781 187.6328125 C66.34160013 195.30765415 66.36742674 202.98239238 66.37635398 210.65733457 C66.38157319 214.72201159 66.39385724 218.78639275 66.42292023 222.85097504 C66.45004839 226.67591319 66.4584504 230.5004333 66.45243073 234.32545853 C66.45353214 235.72995144 66.46150192 237.13445817 66.4768219 238.53886795 C66.4967047 240.45539512 66.48955865 242.37214605 66.48101807 244.28875732 C66.48470524 245.36172436 66.48839241 246.43469139 66.49219131 247.54017258 C65.87306566 251.02747311 64.80248083 252.20200031 62 254.3125 C59.20961592 254.715358 56.90195049 254.87364386 54.125 254.8125 C53.43019531 254.82796875 52.73539062 254.8434375 52.01953125 254.859375 C46.87090951 254.82059066 43.96567189 253.51441286 40 250.3125 C35.12792482 244.91371399 34.85778839 240.74882151 34.90234375 233.70703125 C34.9037587 232.86782639 34.90517365 232.02862152 34.90663147 231.16398621 C34.91222785 228.48428784 34.92477965 225.8046731 34.9375 223.125 C34.94251547 221.30794392 34.94707829 219.49088652 34.95117188 217.67382812 C34.96219609 213.22001987 34.97945822 208.76627411 35 204.3125 C34.32453125 204.58964844 33.6490625 204.86679687 32.953125 205.15234375 C32.06109375 205.51457031 31.1690625 205.87679687 30.25 206.25 C29.36828125 206.60964844 28.4865625 206.96929687 27.578125 207.33984375 C16.48060821 211.52663418 0.57623598 211.26753025 -10.5 207.1875 C-23.18637965 201.17197164 -32.43171843 191.47467782 -37.35249329 178.24591064 C-42.48637196 162.91650098 -41.35454225 146.09118299 -41.1875 130.1875 C-41.17241595 127.66797681 -41.15873417 125.14844482 -41.14648438 122.62890625 C-41.11379716 116.52324187 -41.06389689 110.41791347 -41 104.3125 C-41.36295166 104.32559204 -41.36295166 104.32559204 -43.19970703 104.3918457 C-46.50791541 104.4961681 -49.8157772 104.56093872 -53.125 104.625 C-54.26710937 104.66689453 -55.40921875 104.70878906 -56.5859375 104.75195312 C-66.0910285 104.89010852 -66.0910285 104.89010852 -69.6887207 101.99682617 C-74.66326125 96.21938101 -75.47102041 90.81096125 -75.3125 83.5 C-75.31572266 82.73751953 -75.31894531 81.97503906 -75.32226562 81.18945312 C-75.26771066 75.58021066 -75.26771066 75.58021066 -73 73.3125 C-69.95819641 73.09446883 -67.00483428 73.00103762 -63.96044922 72.99365234 C-63.02381439 72.98360672 -62.08717957 72.9735611 -61.12216187 72.96321106 C-58.01634351 72.93224113 -54.91061187 72.91530565 -51.8046875 72.8984375 C-49.65519456 72.87973695 -47.50570905 72.86016439 -45.35623169 72.8397522 C-39.69110481 72.78830735 -34.0259541 72.74874786 -28.36071777 72.71160889 C-22.58286585 72.67164651 -16.80511413 72.62051884 -11.02734375 72.5703125 C0.31503391 72.47340702 11.65746798 72.3890492 23 72.3125 C20.01669981 69.30418504 17.02990259 66.29939606 14.04003906 63.29760742 C13.02673848 62.27932708 12.01434288 61.26014526 11.00292969 60.23999023 C5.73901335 54.93177361 0.45217021 49.71952673 -5.23208618 44.8555603 C-8.05136837 42.39485074 -10.669453 39.74808953 -13.29296875 37.08203125 C-13.56992836 36.80317833 -13.56992836 36.80317833 -14.97151184 35.39201355 C-16.71267905 33.63880386 -18.45050742 31.88234512 -20.1875 30.125 C-22.4905358 27.79522543 -24.79697088 25.46889233 -27.10546875 23.14453125 C-27.62328415 22.61841751 -28.14109955 22.09230377 -28.67460632 21.55024719 C-30.96396158 19.24559427 -33.23733667 17.13044112 -35.81762695 15.15112305 C-38 13.3125 -38 13.3125 -38.8125 10.0625 C-38.874375 9.155 -38.93625 8.2475 -39 7.3125 C-30.43312803 -0.43958795 -10.43600964 -5.48368735 0 0 Z " fill="#FDFDFE" transform="translate(243,129.6875)"/>
<path d="M0 0 C14.19 0 28.38 0 43 0 C43 22.77 43 45.54 43 69 C33.78362104 73.60818948 21.52467026 74.92236102 11.32421875 72.31640625 C5.72062995 69.77315785 3.06574566 65.82821479 0.91064453 60.10913086 C-0.60875215 54.54647809 -0.24496961 48.78518533 -0.1953125 43.06640625 C-0.1924826 41.83333237 -0.18965271 40.60025848 -0.18673706 39.32981873 C-0.1755786 35.40727875 -0.15048151 31.4849705 -0.125 27.5625 C-0.11383396 24.89648772 -0.10583976 22.23047761 -0.09765625 19.56445312 C-0.07735857 13.04280852 -0.03820043 6.52166243 0 0 Z " fill="#4729A1" transform="translate(235,234)"/>
</svg>
