<?xml version="1.0" encoding="UTF-8"?>
<!-- Generator: visioncortex VTracer 0.6.12 -->
<svg version="1.1" xmlns="http://www.w3.org/2000/svg" width="512" height="512">
<path d="M0 0 C40.73258691 37.09857902 66.02515215 90.53183589 68.75683594 145.60009766 C71.35658136 205.24748248 50.85149524 260.57794808 10.75683594 304.60009766 C-27.93161451 345.99314124 -82.40228689 369.90666696 -138.90722656 371.81884766 C-198.08328558 373.11538802 -253.02557579 351.0823785 -295.70410156 310.33056641 C-335.85961751 271.24795203 -358.30392739 216.78829495 -359.52661133 160.9831543 C-360.09627253 102.0016777 -337.31308052 47.55856006 -296.32836914 5.44873047 C-227.86859712 -63.56894457 -117.13368472 -75.618845 0 0 Z " fill="#E60023" transform="translate(401.2431640625,98.39990234375)"/>
<path d="M0 0 C0.7108374 0.00054382 1.4216748 0.00108765 2.15405273 0.00164795 C40.14252767 0.13412645 73.22793347 12.86266314 101.0625 39 C118.27003917 56.73754551 128.11735928 78.48616635 133.0625 102.375 C133.23974609 103.14207275 133.41699219 103.90914551 133.59960938 104.69946289 C134.56680682 110.28992534 134.25919809 116.02743892 134.25 121.6875 C134.24939575 122.36484192 134.2487915 123.04218384 134.24816895 123.74005127 C134.15224677 163.20734854 121.24259468 200.64948778 92.97119141 228.90283203 C79.06767094 242.23079744 61.68189212 250.23041495 43.0625 254.375 C42.09570312 254.60058594 41.12890625 254.82617188 40.1328125 255.05859375 C21.80897235 258.90925581 4.20892802 255.59866708 -11.75 246.0625 C-16.58974155 242.8640621 -20.68057839 239.21036144 -23.9375 234.375 C-23.9375 233.715 -23.9375 233.055 -23.9375 232.375 C-24.5975 232.375 -25.2575 232.375 -25.9375 232.375 C-25.98068359 232.69791016 -25.98068359 232.69791016 -26.19921875 234.33203125 C-27.53326548 243.27871159 -29.81055675 251.86383734 -32.19140625 260.57324219 C-32.98779179 263.56385752 -33.73102059 266.56471391 -34.46875 269.5703125 C-40.64192513 294.30207197 -50.76650922 317.11851383 -64.9375 338.375 C-66.31456825 338.11488711 -67.68908555 337.84126234 -69.0625 337.5625 C-69.44535156 337.48708984 -69.44535156 337.48708984 -71.3828125 337.10546875 C-74.64737318 336.17202403 -77.11262395 335.30321595 -79.9375 333.375 C-80.78948074 330.61419219 -81.13976504 328.63746224 -81.3125 325.8125 C-81.37791992 325.03672607 -81.44333984 324.26095215 -81.51074219 323.46166992 C-82.0299507 316.38298984 -82.1349384 309.28280114 -82.1875 302.1875 C-82.19700684 301.14456787 -82.20651367 300.10163574 -82.21630859 299.02709961 C-82.15646105 284.80665916 -79.43170064 271.20577403 -76.1875 257.4375 C-75.82789665 255.88811156 -75.46868989 254.33863102 -75.10986328 252.7890625 C-72.87559498 243.18076767 -70.52729168 233.60413512 -68.09130859 224.04492188 C-65.62274363 214.29181858 -63.47695171 204.471259 -61.32421875 194.64453125 C-59.86942558 188.01736262 -58.306442 181.4197748 -56.69921875 174.828125 C-55.30510108 168.50812488 -54.60394208 164.68938392 -57.1015625 158.6171875 C-62.59451511 143.88375386 -62.40502518 122.72041412 -55.9375 108.375 C-55.51339844 107.4159375 -55.08929688 106.456875 -54.65234375 105.46875 C-49.7796478 95.58762841 -42.25031443 87.59045699 -31.9375 83.375 C-23.31337112 81.22246216 -15.00970339 81.30173681 -7.1953125 85.76171875 C-1.09674329 90.11934692 3.74397206 95.87587233 5.0625 103.375 C7.14633632 126.01067203 -1.62834932 148.10782526 -8.13606262 169.42604065 C-8.74052176 171.40784958 -9.34009022 173.39105593 -9.9375 175.375 C-10.31060303 176.6137085 -10.68370605 177.85241699 -11.06811523 179.12866211 C-13.23079175 187.20423346 -13.44497119 197.31190657 -9.9375 205 C-5.23508509 212.76691003 1.53175769 217.52746432 10.0625 220.375 C13.3150835 220.92055152 16.45691772 220.99645461 19.75 220.9375 C20.61995605 220.92726807 21.48991211 220.91703613 22.38623047 220.90649414 C38.48805265 220.38262841 50.70998379 212.54641964 61.6796875 201.1640625 C79.5131726 180.29011436 85.15187424 151.82374097 85.3125 125.1875 C85.32192627 123.99914551 85.33135254 122.81079102 85.34106445 121.58642578 C85.25449236 98.14009053 76.40970715 78.26681698 60.4375 61.3125 C41.50100261 42.89011567 15.36424055 37.87050627 -10.12890625 38.1640625 C-30.90729169 38.70759527 -51.06948075 47.15165062 -66.9375 60.375 C-67.59234375 60.87257812 -68.2471875 61.37015625 -68.921875 61.8828125 C-84.65298184 74.40477354 -95.20029065 96.74600321 -97.9375 116.375 C-99.82144293 137.79318426 -97.09878266 160.88501766 -83.0390625 178.1171875 C-79.66867304 185.02529072 -82.97055749 193.37893472 -84.875 200.3125 C-85.15279297 201.36501953 -85.43058594 202.41753906 -85.71679688 203.50195312 C-87.78533537 211.22283537 -87.78533537 211.22283537 -88.9375 212.375 C-96.16030837 213.01473446 -100.36903539 209.58548755 -105.9375 205.375 C-124.4019904 189.85931627 -133.97552564 165.68304796 -137.9375 142.375 C-139.60706523 116.78204432 -136.32221649 93.52356246 -124.9375 70.375 C-124.62973633 69.74303711 -124.32197266 69.11107422 -124.00488281 68.45996094 C-116.67560453 53.76178665 -105.69009394 40.66502408 -92.9375 30.375 C-91.95136719 29.56933594 -90.96523437 28.76367188 -89.94921875 27.93359375 C-76.02913334 17.06498186 -59.08487914 9.37530601 -41.9375 5.375 C-40.12409664 4.83636534 -38.31156327 4.29479129 -36.5 3.75 C-24.5536855 0.56755644 -12.30800738 -0.03586756 0 0 Z " fill="#FEFDFD" transform="translate(257.9375,121.625)"/>
</svg>
