<?xml version="1.0" encoding="UTF-8"?>
<!-- Generator: visioncortex VTracer 0.6.12 -->
<svg version="1.1" xmlns="http://www.w3.org/2000/svg" width="512" height="512">
<path d="M0 0 C0.94617188 0.66386719 1.89234375 1.32773437 2.8671875 2.01171875 C32.03475085 23.11085224 51.38799405 52.1213759 60 87 C60.17789062 87.70318359 60.35578125 88.40636719 60.5390625 89.13085938 C79.39707021 167.33172466 30.44332963 259.6918544 -8 325 C-8.97164422 326.66287772 -9.94328616 328.32575677 -10.91485596 329.98867798 C-28.20679849 359.55364174 -46.51903124 388.84536543 -66.85693359 416.43603516 C-67.90514607 417.87021908 -68.91739808 419.33050634 -69.92578125 420.79296875 C-72.17475264 423.79676732 -73.76252026 425.59091579 -77.36328125 426.78125 C-80.29311874 427.10135364 -82.17928025 426.8617549 -85 426 C-90.77781218 420.97301651 -95.18974172 414.22372298 -99.5 407.9375 C-100.09039062 407.08462402 -100.68078125 406.23174805 -101.2890625 405.35302734 C-116.89751831 382.71178667 -132.10216637 359.73760337 -146 336 C-146.53705566 335.08831055 -147.07411133 334.17662109 -147.62744141 333.23730469 C-156.93580827 317.41080637 -165.69719554 301.3753854 -174 285 C-174.19634033 284.61489258 -174.19634033 284.61489258 -175.18994141 282.66601562 C-177.17441781 278.77066167 -179.12980375 274.86260847 -181.05078125 270.93554688 C-181.69999069 269.61174739 -182.35386196 268.29022669 -183.01171875 266.97070312 C-209.01901286 214.71441143 -234.90911013 145.93419982 -220 87 C-219.80664062 86.21689453 -219.61328125 85.43378906 -219.4140625 84.62695312 C-209.88810767 47.19935898 -186.21804514 15.6047591 -153.140625 -4.35546875 C-107.02279463 -31.49955808 -44.21196359 -31.80766659 0 0 Z M-173.0625 38.1875 C-196.2550096 64.28816128 -204.8463828 97.7814711 -203 132 C-197.74320643 204.17139509 -159.76847669 274.19639203 -123 335 C-122.4328125 335.93972656 -121.865625 336.87945312 -121.28125 337.84765625 C-108.78816329 358.4792682 -95.53548549 378.74162805 -81 398 C-77.52507672 396.84169224 -77.0585975 396.0577395 -75.03125 393.125 C-74.46607666 392.31385742 -73.90090332 391.50271484 -73.31860352 390.66699219 C-72.71846436 389.78688477 -72.1183252 388.90677734 -71.5 388 C-70.87343506 387.0915332 -70.24687012 386.18306641 -69.60131836 385.24707031 C-63.89766129 376.93737565 -58.3881244 368.51671276 -53 360 C-52.44231934 359.12424316 -51.88463867 358.24848633 -51.31005859 357.34619141 C-37.49072149 335.62472996 -24.59253687 313.39026629 -12.44287109 290.69335938 C-11.48116743 288.8981792 -10.51534381 287.10520004 -9.54541016 285.31445312 C21.38988771 228.13008537 57.38171656 151.41015024 38.74609375 85.3828125 C29.16282149 53.77818934 7.98033997 26.81608629 -21.08154297 10.85693359 C-73.3289879 -16.36513818 -132.87059025 -4.10999516 -173.0625 38.1875 Z " fill="#000000" transform="translate(336,24)"/>
<path d="M0 0 C2.88142326 2.4793642 3.91527747 3.62299236 4.6875 7.3125 C4.61198751 11.54119937 4.13774885 13.69852429 1.625 17.125 C-4.34935536 21.57398803 -12.67588983 21.9460657 -19.87036133 23.21459961 C-53.93208977 29.2379217 -92.90237455 36.85543231 -120.3125 59.3125 C-121.17617187 59.97121094 -122.03984375 60.62992187 -122.9296875 61.30859375 C-127.30265371 64.98618664 -130.27368932 69.66133005 -131.375 75.3125 C-131.73130642 81.01340266 -129.15857829 85.05473758 -125.6484375 89.34765625 C-84.54523485 133.2418171 7.11446029 137.09738875 62.86431885 139.22579956 C72.53129026 139.52267412 82.20439791 139.50913942 91.875 139.5 C92.46851761 139.49969788 92.46851761 139.49969788 95.47207642 139.49816895 C114.62112546 139.4718006 133.61057606 139.08083955 152.6875 137.3125 C153.03002808 137.28091797 153.03002808 137.28091797 154.76342773 137.12109375 C200.83058337 132.82647488 250.82168382 126.13493672 291.6875 103.3125 C292.62335938 102.81234375 293.55921875 102.3121875 294.5234375 101.796875 C302.90203425 97.10486082 313.2605995 89.97893402 316.27734375 80.44921875 C317.25633198 75.64751455 316.30416788 72.51681367 313.98828125 68.26953125 C294.67792784 39.21701756 246.49051111 31.28982269 214.66680908 24.70379639 C208.49051741 23.48278415 202.26033043 22.49970722 196.01879883 21.6784668 C190.53224977 20.90036352 186.98445834 19.88301881 182.6875 16.3125 C180.77446537 13.2350095 180.68496602 11.45440292 180.75 7.8125 C181.86473038 3.65083993 183.40723673 2.03271832 186.6875 -0.6875 C194.65997816 -4.67373908 210.1022475 0.66731286 218.75 2.375 C219.53108124 2.52767334 220.31216248 2.68034668 221.11691284 2.83764648 C254.55960908 9.42074402 291.41005984 18.85789449 318.6875 40.3125 C319.52539062 40.96863281 320.36328125 41.62476563 321.2265625 42.30078125 C330.7673194 50.2620483 337.76090746 60.40001712 339.06640625 72.95703125 C339.47003843 85.80815915 336.2368696 94.80941586 327.6875 104.3125 C327.04039062 105.05242187 326.39328125 105.79234375 325.7265625 106.5546875 C290.4799574 144.42185804 221.42578572 152.65773078 172.61572266 157.890625 C170.03309183 158.16798896 167.45190979 158.45925895 164.87255859 158.765625 C116.35666106 164.41394427 64.1614586 164.26530502 15.6875 158.3125 C14.871745 158.21539734 14.05598999 158.11829468 13.21551514 158.01824951 C-27.88109128 153.12138052 -69.48775792 145.74994966 -107.3125 128.3125 C-107.95074707 128.02552246 -108.58899414 127.73854492 -109.24658203 127.44287109 C-126.61748261 119.58449745 -144.69491336 107.51846991 -152.125 89.25 C-155.20240629 79.00966529 -154.29686916 67.73365973 -149.3125 58.3125 C-130.41697972 27.30337303 -87.53546481 15.03970233 -54.48046875 6.94921875 C-7.81598996 -3.98173074 -7.81598996 -3.98173074 0 0 Z " fill="#000000" transform="translate(163.3125,350.6875)"/>
<path d="M0 0 C16.00862719 12.56224551 26.1025366 30.28750388 28.55078125 50.5234375 C29.76794602 71.1216105 24.70456414 90.53588772 10.81640625 106.171875 C10.06875 106.94789063 9.32109375 107.72390625 8.55078125 108.5234375 C7.865 109.23757812 7.17921875 109.95171875 6.47265625 110.6875 C-9.35183226 125.86728713 -28.36194826 129.98149543 -49.546875 129.7265625 C-67.76628226 129.26034581 -83.69921953 120.16927006 -96.46484375 107.52734375 C-100.94584893 102.68590989 -104.32778459 97.31668096 -107.44921875 91.5234375 C-107.90425781 90.68039063 -108.35929688 89.83734375 -108.828125 88.96875 C-116.97711643 72.57346574 -117.50833888 53.91543279 -112.44921875 36.5234375 C-105.93242284 17.23563128 -93.58127722 2.86341241 -75.69921875 -6.7265625 C-51.17608426 -18.20414207 -22.0193722 -16.3286919 0 0 Z M-81.7578125 23.328125 C-91.25995132 35.66115507 -95.81607755 48.84252957 -94.44921875 64.5234375 C-92.30705242 78.69743803 -85.13683635 90.7142237 -73.84765625 99.5625 C-61.61131284 107.84936081 -47.98252679 111.15851258 -33.38671875 108.4609375 C-19.32917855 104.9816573 -7.4642003 97.45714341 0.23828125 84.984375 C7.54098738 71.29180101 9.88313492 57.56320043 5.58203125 42.4296875 C0.73617487 28.77318317 -8.49216969 18.04520986 -21.44921875 11.5234375 C-41.72450477 2.49731942 -66.49057528 6.92044355 -81.7578125 23.328125 Z " fill="#000000" transform="translate(299.44921875,95.4765625)"/>
</svg>
