<?xml version="1.0" encoding="UTF-8"?>
<!-- Generator: visioncortex VTracer 0.6.12 -->
<svg version="1.1" xmlns="http://www.w3.org/2000/svg" width="512" height="512">
<path d="M0 0 C6.79791065 3.39895533 13.32115151 6.85224921 19.8125 10.75 C21.74574169 11.90163288 23.6793553 13.05264157 25.61328125 14.203125 C26.64018066 14.81478516 27.66708008 15.42644531 28.72509766 16.05664062 C34.01544241 19.19598342 39.32534935 22.3017835 44.63485718 25.40856934 C54.64173295 31.26431987 64.63589883 37.14098047 74.61328125 43.046875 C82.22994124 47.55219072 89.8638089 52.02791089 97.5 56.5 C106.88323036 61.99523209 116.25578092 67.5079062 125.61328125 73.046875 C133.22994124 77.55219072 140.8638089 82.02791089 148.5 86.5 C157.88323036 91.99523209 167.25578092 97.5079062 176.61328125 103.046875 C184.22994124 107.55219072 191.8638089 112.02791089 199.5 116.5 C208.88323036 121.99523209 218.25578092 127.5079062 227.61328125 133.046875 C235.22994124 137.55219072 242.8638089 142.02791089 250.5 146.5 C259.88323036 151.99523209 269.25578092 157.5079062 278.61328125 163.046875 C286.84904222 167.91839393 295.10501689 172.75521745 303.36212158 177.59042358 C312.60079845 183.00079574 321.82740416 188.43101986 331.03710938 193.890625 C335.66928331 196.63426926 340.31744318 199.34318542 345 202 C345 202.66 345 203.32 345 204 C344.10023438 204.49886719 343.20046875 204.99773437 342.2734375 205.51171875 C333.45490985 210.42454752 324.73403101 215.48720074 316.05224609 220.63745117 C308.21710466 225.28520228 300.36173738 229.89745699 292.5 234.5 C283.99008175 239.48330163 275.48637962 244.47667215 267 249.5 C257.88724072 254.89409966 248.7535281 260.25201516 239.61572266 265.60351562 C231.73428787 270.21963816 223.86000241 274.84744252 216 279.5 C206.88724072 284.89409966 197.7535281 290.25201516 188.61572266 295.60351562 C180.73428787 300.21963816 172.86000241 304.84744252 165 309.5 C155.88724072 314.89409966 146.7535281 320.25201516 137.61572266 325.60351562 C129.73428787 330.21963816 121.86000241 334.84744252 114 339.5 C104.88724072 344.89409966 95.7535281 350.25201516 86.61572266 355.60351562 C78.73428787 360.21963816 70.86000241 364.84744252 63 369.5 C53.28377494 375.25130811 43.54416312 380.96231922 33.79980469 386.66577148 C27.95677776 390.08686793 22.11940322 393.51672078 16.296875 396.97265625 C15.27142578 397.58109375 14.24597656 398.18953125 13.18945312 398.81640625 C11.27033501 399.95640066 9.35231461 401.09824562 7.43554688 402.2421875 C6.59572266 402.74105469 5.75589844 403.23992187 4.890625 403.75390625 C4.15875977 404.19033447 3.42689453 404.6267627 2.67285156 405.07641602 C1 406 1 406 0 406 C0 272.02 0 138.04 0 0 Z " fill="#000000" transform="translate(102,53)"/>
</svg>
