<?xml version="1.0" encoding="UTF-8"?>
<!-- Generator: visioncortex VTracer 0.6.12 -->
<svg version="1.1" xmlns="http://www.w3.org/2000/svg" width="512" height="512">
<path d="M0 0 C8.05650721 5.83302672 12.90220038 13.51771731 14.81279659 23.23837471 C15.24395511 26.33163222 15.37307674 29.25212943 15.37025452 32.37350464 C15.37094185 32.96241234 15.37094185 32.96241234 15.37442017 35.94264221 C15.37082489 37.22082321 15.36722961 38.49900421 15.36352539 39.81591797 C15.36324308 41.18624367 15.36340212 42.55656953 15.3639679 43.92689514 C15.36425415 47.6351126 15.35838523 51.34329755 15.35139394 55.05150747 C15.34513175 58.93123808 15.34455433 62.81096947 15.34336853 66.69070435 C15.34026366 74.03224172 15.33206165 81.37376415 15.32201904 88.71529496 C15.31083169 97.07561154 15.30534085 105.43592885 15.30032361 113.79625106 C15.28987833 130.989176 15.27229524 148.18208642 15.25 165.375 C15.60265364 165.37361731 15.60265364 165.37361731 17.38729477 165.36662006 C34.59094156 165.30021422 51.79455557 165.25064862 68.99830246 165.21956348 C77.31808846 165.20412935 85.63778864 165.18310631 93.95751953 165.14868164 C101.21346607 165.11867305 108.46935042 165.09939993 115.72535729 165.09273452 C119.5633186 165.08884156 123.40110204 165.07976564 127.23900604 165.05780983 C130.86037186 165.03726302 134.4814886 165.03120241 138.10290718 165.03567696 C140.04724959 165.03447375 141.99156563 165.01842772 143.93583679 165.0017395 C156.31722255 165.04479011 166.83061181 166.963033 176.25 175.375 C183.57634364 183.25895119 186.61957716 192.00299949 186.4609375 202.6953125 C185.73353714 211.93599113 181.84111445 219.99643715 175.140625 226.38671875 C167.05401931 233.03725481 158.70103187 235.50470256 148.25149536 235.49525452 C147.07367996 235.49662918 145.89586456 235.49800385 144.68235779 235.49942017 C143.40417679 235.49582489 142.12599579 235.49222961 140.80908203 235.48852539 C139.43875633 235.48824308 138.06843047 235.48840212 136.69810486 235.4889679 C132.9898874 235.48925415 129.28170245 235.48338523 125.57349253 235.47639394 C121.69376192 235.47013175 117.81403053 235.46955433 113.93429565 235.46836853 C106.59275828 235.46526366 99.25123585 235.45706165 91.90970504 235.44701904 C83.54938846 235.43583169 75.18907115 235.43034085 66.82874894 235.42532361 C49.635824 235.41487833 32.44291358 235.39729524 15.25 235.375 C15.25276538 236.08030727 15.25553076 236.78561455 15.25837994 237.51229477 C15.32478578 254.71594156 15.37435138 271.91955557 15.40543652 289.12330246 C15.42087065 297.44308846 15.44189369 305.76278864 15.47631836 314.08251953 C15.50632695 321.33846607 15.52560007 328.59435042 15.53226548 335.85035729 C15.53615844 339.6883186 15.54523436 343.52610204 15.56719017 347.36400604 C15.58773698 350.98537186 15.59379759 354.6064886 15.58932304 358.22790718 C15.59052625 360.17224959 15.60657228 362.11656563 15.6232605 364.06083679 C15.58020989 376.44222255 13.661967 386.95561181 5.25 396.375 C-2.45833001 403.53814361 -11.05473753 406.74008138 -21.62109375 406.51953125 C-31.17029752 405.87123668 -39.61348365 402.16758853 -46.125 395 C-54.29007592 384.48227508 -55.05051237 373.54172835 -54.97705078 360.59350586 C-54.97648562 359.22273771 -54.97680527 357.85196897 -54.97793579 356.48120117 C-54.97850623 352.78551702 -54.96680239 349.08996447 -54.95278788 345.39431071 C-54.94022861 341.52261074 -54.93910594 337.65090727 -54.93673706 333.77919006 C-54.93053749 326.45898047 -54.91414743 319.13883108 -54.89403808 311.81864792 C-54.8716315 303.4800332 -54.86067371 295.14141549 -54.85064721 286.80277812 C-54.82977974 269.66015067 -54.79463359 252.51758172 -54.75 235.375 C-55.10265364 235.37638269 -55.10265364 235.37638269 -56.88729477 235.38337994 C-74.09094156 235.44978578 -91.29455557 235.49935138 -108.49830246 235.53043652 C-116.81808846 235.54587065 -125.13778864 235.56689369 -133.45751953 235.60131836 C-140.71346607 235.63132695 -147.96935042 235.65060007 -155.22535729 235.65726548 C-159.0633186 235.66115844 -162.90110204 235.67023436 -166.73900604 235.69219017 C-170.36037186 235.71273698 -173.9814886 235.71879759 -177.60290718 235.71432304 C-179.54724959 235.71552625 -181.49156563 235.73157228 -183.43583679 235.7482605 C-195.81722255 235.70520989 -206.33061181 233.786967 -215.75 225.375 C-223.07634364 217.49104881 -226.11957716 208.74700051 -225.9609375 198.0546875 C-225.23353714 188.81400887 -221.34111445 180.75356285 -214.640625 174.36328125 C-206.55401931 167.71274519 -198.20103187 165.24529744 -187.75149536 165.25474548 C-186.57367996 165.25337082 -185.39586456 165.25199615 -184.18235779 165.25057983 C-183.54326729 165.25237747 -183.54326729 165.25237747 -180.30908203 165.26147461 C-178.93875633 165.26175692 -177.56843047 165.26159788 -176.19810486 165.2610321 C-172.4898874 165.26074585 -168.78170245 165.26661477 -165.07349253 165.27360606 C-161.19376192 165.27986825 -157.31403053 165.28044567 -153.43429565 165.28163147 C-146.09275828 165.28473634 -138.75123585 165.29293835 -131.40970504 165.30298096 C-123.04938846 165.31416831 -114.68907115 165.31965915 -106.32874894 165.32467639 C-89.135824 165.33512167 -71.94291358 165.35270476 -54.75 165.375 C-54.75368717 164.66546079 -54.75737434 163.95592157 -54.76117325 163.22488117 C-54.84974138 145.91241321 -54.91581477 128.60000325 -54.95724869 111.28735828 C-54.97782149 102.91487778 -55.00584025 94.54254906 -55.05175781 86.17016602 C-55.09178823 78.86769762 -55.11747115 71.56533923 -55.12635398 64.26276416 C-55.1315415 60.40067744 -55.14362186 56.53890525 -55.17292023 52.67691994 C-55.20034653 49.03169841 -55.20839104 45.38691686 -55.20243073 41.74160194 C-55.20403249 39.78669199 -55.22541139 37.83182845 -55.24768066 35.87704468 C-55.19606894 24.65248805 -53.23435211 14.01443489 -45.7265625 5.30859375 C-33.06385875 -7.07883384 -15.20767482 -9.31082132 0 0 Z " fill="#000000" transform="translate(275.75,55.625)"/>
</svg>
