<?xml version="1.0" encoding="UTF-8"?>
<!-- Generator: visioncortex VTracer 0.6.12 -->
<svg version="1.1" xmlns="http://www.w3.org/2000/svg" width="512" height="512">
<path d="M0 0 C14.52 0 29.04 0 44 0 C44 63.36 44 126.72 44 192 C107.36 192 170.72 192 236 192 C236 206.52 236 221.04 236 236 C172.64 236 109.28 236 44 236 C44 299.36 44 362.72 44 428 C29.48 428 14.96 428 0 428 C0 364.64 0 301.28 0 236 C-63.36 236 -126.72 236 -192 236 C-192 221.48 -192 206.96 -192 192 C-128.64 192 -65.28 192 0 192 C0 128.64 0 65.28 0 0 Z " fill="#000000" transform="translate(234,42)"/>
</svg>
