<?xml version="1.0" encoding="UTF-8"?>
<!-- Generator: visioncortex VTracer 0.6.12 -->
<svg version="1.1" xmlns="http://www.w3.org/2000/svg" width="512" height="512">
<path d="M0 0 C7.7340528 3.15776813 12.27061947 1.69873728 20.08569336 -1.03613281 C30.62054458 -4.63765961 40.72378673 -6.91497991 51.92163086 -6.37988281 C73.19554372 -5.4601796 92.57564837 -9.20375935 113.2159729 -14.11326599 C150.48501893 -22.92758788 191.01897768 -15.04454471 223.39819336 4.71386719 C244.28449216 18.53337316 263.47712417 35.71354025 268.98413086 61.02246094 C281.33830761 124.87148345 246.58443475 199.23563003 215.77319336 253.40136719 C216.41232666 253.28019531 217.05145996 253.15902344 217.70996094 253.03417969 C220.66672097 252.47967055 223.62608727 251.94047082 226.58569336 251.40136719 C227.08810547 251.30597656 227.08810547 251.30597656 229.63061523 250.82324219 C240.60796333 248.84661359 252.19072823 247.56901894 262.03491211 253.84277344 C268.08133547 258.65979464 271.17333683 263.84817051 272.18334961 271.51464844 C272.63149083 281.29331969 269.75657143 287.93615625 263.71069336 295.46386719 C246.56919472 313.74568012 218.43419766 324.26710735 193.77319336 325.40136719 C190.79395677 325.47624795 187.815798 325.51059617 184.83569336 325.52636719 C184.07667725 325.53112061 183.31766113 325.53587402 182.53564453 325.54077148 C177.01840196 325.52397149 177.01840196 325.52397149 174.77319336 324.40136719 C174.77652428 324.68205551 174.77652428 324.68205551 174.79338074 326.10250854 C174.86069079 332.0417497 174.90538216 337.98087951 174.93798828 343.92041016 C174.95290727 346.12553318 174.97324972 348.33062743 174.99951172 350.53564453 C175.19700152 367.56623568 174.88026539 384.27631395 168.52319336 400.33886719 C168.21873291 401.13043213 167.91427246 401.92199707 167.60058594 402.73754883 C165.04333792 409.16127685 161.96983613 414.88481258 157.77319336 420.40136719 C157.01006836 421.40683594 156.24694336 422.41230469 155.46069336 423.44824219 C143.35348437 438.88619257 126.64484583 449.67558339 107.17944336 453.01855469 C91.96865582 454.72802393 79.16732143 451.77174891 66.62475586 442.87792969 C47.61415929 427.47408662 39.11202634 401.48708533 36.04208374 378.08355713 C35.15067113 369.19168849 35.47445382 360.19931776 35.58569336 351.27636719 C35.60078627 349.14226218 35.61446642 347.0081467 35.62670898 344.87402344 C35.65930615 339.71620594 35.71082698 334.55890707 35.77319336 329.40136719 C34.76361572 329.74707764 33.75403809 330.09278809 32.71386719 330.44897461 C31.3652184 330.90595478 30.0165005 331.36273105 28.66772461 331.81933594 C28.00518677 332.04681519 27.34264893 332.27429443 26.66003418 332.50866699 C5.14652861 339.76345147 -21.2171548 337.78058317 -42.22680664 329.40136719 C-43.06469727 328.84449219 -43.90258789 328.28761719 -44.76586914 327.71386719 C-47.22680664 326.40136719 -47.22680664 326.40136719 -49.73071289 326.53027344 C-52.49979277 327.49663465 -54.70197487 328.74788189 -57.16430664 330.33886719 C-66.92075524 336.63185385 -78.31207562 336.96373135 -89.53149414 334.74902344 C-96.08705132 332.58550386 -101.05686761 328.88198101 -106.22680664 324.40136719 C-107.20520508 323.62148438 -108.18360352 322.84160156 -109.19165039 322.03808594 C-153.93774879 284.68512733 -164.29966445 200.49666176 -173.8225708 146.65924072 C-174.19046495 144.60435501 -174.57376349 142.55224224 -174.95874023 140.50048828 C-179.63457254 115.55225548 -181.41308223 87.25946087 -175.22680664 62.40136719 C-175.03876465 61.60988281 -174.85072266 60.81839844 -174.65698242 60.00292969 C-170.49281266 42.98846993 -163.3186668 26.32080713 -151.22680664 13.40136719 C-150.44563477 12.55316406 -149.66446289 11.70496094 -148.85961914 10.83105469 C-131.35176252 -7.44038446 -107.39847353 -16.71757345 -82.2902832 -17.5625 C-53.93386947 -18.05903919 -26.00699176 -10.98165177 0 0 Z " fill="#FCFDFE" transform="translate(199.226806640625,48.5986328125)"/>
<path d="M0 0 C3.65103969 3.09264538 7.1432782 6.30541159 10.57861328 9.63427734 C11.88441336 10.88893994 13.22022281 12.11217254 14.55859375 13.33203125 C28.29115815 26.22965573 40.55949505 44.54922903 45 63 C43.79085937 63.20753906 42.58171875 63.41507812 41.3359375 63.62890625 C28.46079784 65.99335084 13.8755621 69.28673006 5.3046875 80.1484375 C-4.3676269 95.21187796 -6.02807689 109.30456228 -2.54003906 126.80688477 C1.42523754 144.52484919 9.85632584 160.9074522 18 177 C18.49161621 177.97469238 18.98323242 178.94938477 19.48974609 179.95361328 C26.16330801 193.04397578 33.79310827 204.84813384 42.90527344 216.37792969 C44 218 44 218 44 220 C43.54302734 220.36544922 43.54302734 220.36544922 41.23046875 222.21484375 C33.14210655 228.71166331 29.67585068 241.1422198 28 251 C27.05799611 260.13387525 26.83991959 269.28444574 26.77020454 278.46043396 C26.75336996 280.59938971 26.73013455 282.73819798 26.70530701 284.8770752 C26.63564278 290.94710565 26.57461254 297.01718976 26.52319336 303.08740234 C26.49103161 306.83193651 26.44969191 310.57628369 26.40299797 314.32066345 C26.38722609 315.72692968 26.37479399 317.1332383 26.36609077 318.53956604 C26.22381253 341.18134385 21.98148241 361.13702476 5.6875 377.8125 C-4.29695579 387.33571734 -15.7754723 392.83115979 -29.75 393.5625 C-38.85089339 393.13547861 -45.75404524 388.25584219 -51.8359375 381.765625 C-67.1860763 362.14848011 -70.51419419 336.59083569 -70.31899452 312.43650818 C-70.30010695 309.87738694 -70.30343888 307.31905745 -70.3120575 304.7598877 C-70.33351892 297.50189927 -70.32283427 290.2442449 -70.28491211 282.98632812 C-70.26299564 278.50205009 -70.2704465 274.0185672 -70.2953701 269.53431702 C-70.29892839 267.84724039 -70.29149404 266.1600984 -70.27211952 264.47312927 C-70.13405686 252.23877726 -71.54611962 242.40336368 -80.4375 233.125 C-86.10600628 228.61016232 -93.24549771 226.40101449 -100 224 C-99.44684546 217.8314888 -97.49575269 212.69320537 -95.125 207 C-94.94904297 206.56816406 -94.94904297 206.56816406 -94.05859375 204.3828125 C-92.54473237 200.67976123 -91.00102615 196.99709989 -89.37109375 193.34375 C-87.9030999 189.76368523 -86.8793829 186.25227845 -85.9375 182.5 C-85.61652344 181.2521875 -85.29554688 180.004375 -84.96484375 178.71875 C-82.26347175 166.41033707 -81.62695158 154.22935704 -81.6875 141.6875 C-81.68899048 140.91997406 -81.69048096 140.15244812 -81.6920166 139.36166382 C-81.73174031 127.97059534 -82.34675318 117.10475284 -85 106 C-85.28436398 104.60088972 -85.56554785 103.20112979 -85.84375 101.80078125 C-88.10620167 91.01630323 -91.95855641 80.11881294 -101.0703125 73.234375 C-115.72218047 63.86192504 -131.72577808 61.86809512 -148.5625 65.375 C-153.07633848 66.46347991 -157.56412759 67.62699187 -162 69 C-161.58530425 61.43723192 -159.99053862 54.72091677 -157.5625 47.5625 C-157.38650269 47.04155762 -157.38650269 47.04155762 -156.49584961 44.40527344 C-146.92873775 17.10639184 -130.85290852 -4.7016063 -104.46875 -17.4921875 C-71.44169264 -31.84854352 -27.96401213 -20.81811243 0 0 Z " fill="#0277BD" transform="translate(326,87)"/>
<path d="M0 0 C-1.1412529 3.4237587 -2.64812113 4.42580564 -5.39550781 6.62109375 C-23.61169825 22.27615212 -34.4489196 50.6089098 -40.5625 73.125 C-40.66159668 73.48561523 -40.66159668 73.48561523 -41.16308594 75.31054688 C-44.79460797 89.20036834 -46.44493743 102.56243266 -46.2578125 116.875 C-46.24963932 118.42097266 -46.24298972 119.96695403 -46.23776245 121.51293945 C-46.22088738 125.52733329 -46.18677695 129.54137102 -46.14770508 133.55560303 C-46.08780224 140.00465855 -46.05438005 146.45389563 -46.02193832 152.90313721 C-46.00815189 155.13261561 -45.98655349 157.36190754 -45.96365356 159.59130859 C-45.90663043 166.47992851 -46.04993788 173.170444 -47 180 C-48.11744746 194.4901794 -44.94372207 209.23751643 -38 222 C-37.49726563 222.97195313 -36.99453125 223.94390625 -36.4765625 224.9453125 C-31.29786429 234.45174912 -24.59239638 242.39516862 -16 249 C-16.57559906 252.33127958 -17.51082139 253.80956288 -20 256.0625 C-23.04986908 258.97543619 -25.72981103 262.02689686 -28.375 265.3125 C-32.06832801 269.89775417 -35.90265095 274.30368072 -39.875 278.6484375 C-41.84588417 280.8294527 -43.73594651 283.06081571 -45.625 285.3125 C-50.68570213 291.11122119 -56.42381154 295.3718957 -64.1875 296.4375 C-73.95100078 295.31709827 -80.91395726 289.3656171 -87 282 C-100.08661514 264.49723029 -107.85858316 243.45807905 -115 223 C-115.30502441 222.12891602 -115.61004883 221.25783203 -115.92431641 220.36035156 C-129.59159901 180.75188132 -143.10098975 133.94936363 -143.16796875 91.87109375 C-143.17129715 91.11893082 -143.17462555 90.36676788 -143.17805481 89.59181213 C-143.18308489 88.00774744 -143.18546436 86.42367228 -143.18530273 84.83959961 C-143.18747233 82.46774884 -143.2056234 80.09637715 -143.22460938 77.72460938 C-143.27369449 64.92591687 -142.6905948 52.18264028 -138.375 40 C-138.24492554 39.62609131 -138.24492554 39.62609131 -137.58666992 37.73388672 C-131.1189121 19.83805022 -121.28150215 6.29318009 -105 -4 C-104.28199219 -4.46921875 -103.56398437 -4.9384375 -102.82421875 -5.421875 C-71.30226206 -23.56239714 -31.46874876 -11.71974003 0 0 Z " fill="#0277BD" transform="translate(186,67)"/>
<path d="M0 0 C23.69891509 19.90836281 23.69891509 19.90836281 26.90625 35.44140625 C26.99152954 35.82071289 26.99152954 35.82071289 27.4230957 37.74023438 C30.18921848 53.20480358 28.04943403 70.17842074 24.90625 85.44140625 C24.72932617 86.34455566 24.55240234 87.24770508 24.37011719 88.17822266 C21.7351301 101.58297995 18.31013622 114.51613529 13.90625 127.44140625 C13.37742282 129.03509609 12.84877932 130.62884688 12.3203125 132.22265625 C2.08360833 162.67044558 -11.63426401 191.87726569 -28.09375 219.44140625 C-32.17998873 218.07932667 -33.0832055 216.17527461 -35.09375 212.44140625 C-34.69951883 208.60083162 -33.30233055 205.43488091 -31.71875 201.94140625 C-24.90994343 185.69894884 -24.89353166 170.02434858 -27.59375 152.87890625 C-29.87401449 138.25119559 -29.21829225 124.82944885 -27.59375 110.12890625 C-23.89234839 76.10625376 -30.22335389 50.5094104 -51.75195312 23.109375 C-60.33943828 12.43439346 -69.13794032 2.37722687 -80.09375 -5.93359375 C-80.82198975 -6.48942139 -81.55022949 -7.04524902 -82.30053711 -7.61791992 C-89.24390976 -12.82863995 -96.53715639 -17.30182268 -104.09375 -21.55859375 C-74.2098621 -37.94653227 -24.22901478 -19.13692788 0 0 Z " fill="#0378BD" transform="translate(420.09375,78.55859375)"/>
<path d="M0 0 C2.68233119 2.44442007 4.89911437 5.04585365 7 8 C6.34 8.33 5.68 8.66 5 9 C4.175 8.690625 3.35 8.38125 2.5 8.0625 C-3.44616333 6.2574147 -8.85498395 6.11240715 -14.625 8.5 C-15.40875 8.995 -16.1925 9.49 -17 10 C-16.51999489 15.04005364 -15.23942325 18.09607967 -12 22 C-8.49822742 24.84472356 -5.35967438 26.7824521 -0.875 27.5 C2.51375525 26.91065126 5.00358574 25.66467459 8 24 C8.99 23.67 9.98 23.34 11 23 C11.31298952 25.02075757 11.62536704 27.04160994 11.9375 29.0625 C12.11152344 30.18785156 12.28554687 31.31320313 12.46484375 32.47265625 C12.64144531 33.63667969 12.81804687 34.80070312 13 36 C13.18046875 37.03769531 13.3609375 38.07539063 13.546875 39.14453125 C16.76740961 66.54683867 11.06997816 89.72565422 0.875 114.78515625 C-1.69223445 121.10950453 -3.94229754 127.49327249 -6 134 C-18.32634849 133.19610771 -28.55037582 125.11709753 -36.51953125 116.171875 C-46.10810045 104.02317373 -50.3850014 91.2698458 -50.1875 75.9375 C-50.18685547 74.98294922 -50.18621094 74.02839844 -50.18554688 73.04492188 C-50.16149766 69.17299893 -50.06982289 65.46656844 -49.49609375 61.6328125 C-48.73710658 56.07487497 -48.85679308 50.53992044 -48.875 44.9375 C-48.87113281 43.70628418 -48.86726562 42.47506836 -48.86328125 41.20654297 C-48.86941652 35.2683689 -48.99057461 29.39763366 -49.5078125 23.48046875 C-49.58789551 22.48732666 -49.66797852 21.49418457 -49.75048828 20.47094727 C-49.91274805 18.62020153 -50.10985129 16.77206888 -50.34716797 14.92944336 C-50.5641685 12.39457202 -50.64294247 10.46394367 -50 8 C-38.91050198 -4.69672028 -14.3213854 -8.05716273 0 0 Z " fill="#0378BD" transform="translate(210,175)"/>
<path d="M0 0 C3.89879577 1.86603548 6.51754385 3.2598684 8.375 7.3125 C9.19700543 11.51714648 9.40572907 15.13295026 8.375 19.3125 C5.79794454 22.23013548 2.88631036 23.71233763 -0.625 25.3125 C-1.73875 25.89 -2.8525 26.4675 -4 27.0625 C-18.64159424 32.1113256 -35.59085831 31.85166112 -50.625 28.5625 C-51.3476001 28.40571777 -52.0702002 28.24893555 -52.81469727 28.08740234 C-58.37183481 26.71375749 -62.58512403 24.35237597 -66.625 20.3125 C-66.546875 17.875 -66.546875 17.875 -65.625 15.3125 C-58.61325928 9.57060208 -49.02899359 8.06494667 -40.41479492 6.21801758 C-35.04312771 5.02693176 -30.5609278 3.55018832 -25.6875 1 C-17.33904654 -3.18504079 -8.75155366 -3.12280109 0 0 Z " fill="#0578BD" transform="translate(226.625,332.6875)"/>
<path d="M0 0 C4.3594957 1.0931228 8.47459212 1.27803754 12.953125 1.22265625 C13.72930176 1.21806396 14.50547852 1.21347168 15.30517578 1.20874023 C23.04843244 1.08891734 30.8920578 0.44492445 38.390625 -1.5859375 C40.78234521 -2.13082537 43.00210454 -2.15966023 45.453125 -2.15234375 C46.32195312 -2.15492188 47.19078125 -2.1575 48.0859375 -2.16015625 C50.328125 -2.02734375 50.328125 -2.02734375 52.328125 -1.02734375 C52.69954442 2.2225762 52.56173354 3.63114282 50.6875 6.37109375 C36.74342486 21.74651435 14.26565722 28.80127387 -5.89257812 30.11767578 C-17.53863569 30.54044362 -17.53863569 30.54044362 -22.671875 28.97265625 C-22.11553606 16.56054268 -20.97990833 7.76482268 -11.671875 -1.02734375 C-7.94185905 -2.89235172 -3.85032954 -1.07727305 0 0 Z " fill="#0478BD" transform="translate(396.671875,322.02734375)"/>
<path d="M0 0 C0.20160644 5.54417716 -0.21054632 10.69468147 -1 16.1875 C-2.10911362 24.52907966 -2.22524157 32.8429648 -2.25 41.25 C-2.25902344 42.50449951 -2.26804687 43.75899902 -2.27734375 45.05151367 C-2.25486677 52.1753103 -1.65145473 58.89310979 -0.45410156 65.91015625 C0.2554485 70.73814848 0.29145704 75.50379775 0.25 80.375 C0.25773437 81.30699219 0.26546875 82.23898438 0.2734375 83.19921875 C0.2583737 88.52427238 -0.25193688 92.9639134 -2 98 C-15.52334532 80.61425472 -30.44048397 51.46468226 -30 29 C-29.01 29.33 -28.02 29.66 -27 30 C-19.92166963 30.73404908 -14.48451499 30.55903556 -8.5234375 26.484375 C-5.91247798 23.94036316 -5.09334064 21.56004386 -4.5 18 C-5 15 -5 15 -7.5390625 12.828125 C-11.49424449 10.73893181 -14.5292578 10.53102849 -18.875 10.75 C-19.21917969 10.75902344 -19.21917969 10.75902344 -20.9609375 10.8046875 C-22.6412381 10.85136252 -24.32081163 10.92309061 -26 11 C-20.16543135 3.25896046 -13.93519743 1.67656063 -4.5390625 0.296875 C-2 0 -2 0 0 0 Z " fill="#0679BE" transform="translate(373,171)"/>
</svg>
