<?xml version="1.0" encoding="UTF-8"?>
<!-- Generator: visioncortex VTracer 0.6.12 -->
<svg version="1.1" xmlns="http://www.w3.org/2000/svg" width="512" height="512">
<path d="M0 0 C1.45114691 -0.00302415 2.90229222 -0.00691496 4.35343474 -0.01159257 C8.32331491 -0.02184741 12.29310451 -0.01969717 16.26299202 -0.01541197 C20.55145683 -0.01294016 24.83990008 -0.02196459 29.12835693 -0.02944946 C37.5232926 -0.04218607 45.91819626 -0.04399143 54.31313995 -0.0416492 C61.13872257 -0.03986463 67.96429548 -0.04161866 74.78987694 -0.04587364 C75.27599847 -0.04617124 75.27599847 -0.04617124 77.73606807 -0.04767724 C79.71132949 -0.04888903 81.68659091 -0.05010316 83.66185232 -0.05131962 C102.1781092 -0.06219128 120.69434786 -0.06003451 139.21060576 -0.05393478 C156.13778258 -0.04876661 173.06490183 -0.06001908 189.99206726 -0.07903299 C207.38556644 -0.09842048 224.77903841 -0.10666575 242.17254847 -0.10290974 C251.93256473 -0.100999 261.69253201 -0.10347288 271.45253944 -0.11762428 C279.76190109 -0.12955069 288.07118361 -0.13092888 296.38054637 -0.11883412 C300.61697943 -0.11295413 304.85326782 -0.11182154 309.08969116 -0.12383652 C312.97409009 -0.13472473 316.85822409 -0.13155731 320.74261077 -0.11757483 C322.14160376 -0.11493595 323.54061771 -0.11726883 324.93959007 -0.1253107 C339.67614917 -0.2040869 351.82703177 2.15900595 362.92424011 12.36616516 C373.41526322 23.46621771 375.94748276 35.36328226 375.89587402 50.1958313 C375.89969957 51.37111741 375.90352512 52.54640353 375.90746659 53.75730437 C375.91596255 56.99750352 375.9155772 60.23755664 375.911286 63.47775948 C375.90880992 66.98094301 375.91784388 70.48410036 375.92532349 73.98727417 C375.93804845 80.84214969 375.9398669 87.69698599 375.93752322 94.55187134 C375.93573731 100.12650108 375.93749557 105.70111897 375.94174767 111.2757473 C375.94234285 112.07036725 375.94293804 112.86498721 375.94355127 113.68368655 C375.94476307 115.29817997 375.94597721 116.91267339 375.94719364 118.52716681 C375.95806086 133.65557707 375.95591067 148.78396503 375.9498088 163.91237655 C375.94464132 177.73562583 375.95589207 191.5588046 375.97490702 205.38203994 C375.99430523 219.59342543 376.00253788 233.8047776 375.99878377 248.0161764 C375.99687461 255.98767364 375.99933133 263.9591109 376.01349831 271.93059731 C376.02543844 278.71749622 376.02678764 285.50429822 376.01470814 292.29119853 C376.00883763 295.7499408 376.0076689 299.20850606 376.01971054 302.66723633 C376.03019674 306.42652374 376.02206153 310.18533981 376.00939941 313.9446106 C376.0167737 315.02411053 376.02414798 316.10361046 376.03174573 317.21582252 C375.93778729 330.53485896 372.64754365 341.63686247 363.52970886 351.54975891 C351.70932414 362.72159155 338.96525248 364.56789142 323.2636261 364.52139282 C321.8117665 364.52441697 320.35990849 364.52830776 318.90805328 364.53298539 C314.93624251 364.54324023 310.96452226 364.54109001 306.99270415 364.5368048 C302.70221347 364.534333 298.41174433 364.54335735 294.1212616 364.55084229 C285.72265093 364.56357863 277.32407225 364.56538431 268.92545356 364.56304202 C262.09747868 364.56125754 255.26951349 364.56301129 248.44153976 364.56726646 C247.46900797 364.56786165 246.49647617 364.56845684 245.49447372 364.56907007 C243.51864657 364.57028184 241.54281942 364.57149598 239.56699227 364.57271244 C221.04599676 364.58358384 202.52501947 364.58142736 184.00402294 364.5753276 C167.06970405 364.57015858 150.13544269 364.58141419 133.20113517 364.60042582 C115.80199075 364.61980917 98.40287354 364.62805936 81.00371826 364.62430257 C71.23982149 364.62239131 61.47597368 364.6248708 51.71208572 364.63901711 C43.40013364 364.65093818 35.08826066 364.65232761 26.77630748 364.64022694 C22.53797307 364.63434343 18.29978331 364.6332242 14.06145859 364.64522934 C10.1764951 364.65610544 6.29179673 364.65296442 2.40684555 364.63896766 C1.00652448 364.63632547 -0.39381749 364.63867215 -1.79411803 364.64670352 C-17.38977864 364.72989539 -29.56871274 361.53606541 -41.03279114 350.74116516 C-50.79416156 340.35846797 -52.8315517 327.77530939 -52.74577332 313.96479797 C-52.75045329 312.78694859 -52.75513326 311.6090992 -52.75995505 310.3955574 C-52.7697744 307.16206594 -52.76634436 303.92891874 -52.75699639 300.69543648 C-52.75016175 297.19434507 -52.76070883 293.69329745 -52.76893616 290.19221497 C-52.78222895 283.34775514 -52.77941572 276.50339438 -52.77069823 269.65893078 C-52.76390447 264.09295023 -52.76301226 258.52699731 -52.76626968 252.96101379 C-52.76672938 252.16680031 -52.76718908 251.37258683 -52.76766271 250.55430627 C-52.76862195 248.94053744 -52.76959459 247.32676863 -52.77058049 245.71299982 C-52.77912133 230.60459159 -52.76932079 215.49623809 -52.75317939 200.38783884 C-52.73977739 187.44308689 -52.74210585 174.49841566 -52.75593567 161.55366516 C-52.7720146 146.49683174 -52.77829748 131.44004622 -52.76909888 116.38320541 C-52.7681433 114.77559663 -52.76720018 113.16798783 -52.76626968 111.56037903 C-52.76580686 110.76954367 -52.76534403 109.97870831 -52.76486718 109.16390824 C-52.76228422 103.60896031 -52.76663326 98.05404293 -52.77370834 92.49909973 C-52.7821493 85.72324605 -52.77978892 78.94749655 -52.76386611 72.1716547 C-52.75601813 68.71897211 -52.7528319 65.26646278 -52.76281357 61.81378174 C-52.77104836 58.06121496 -52.76068334 54.30913112 -52.74577332 50.55659485 C-52.75246548 49.47914127 -52.75915765 48.4016877 -52.7660526 47.29158401 C-52.66391778 33.97895519 -49.37287519 22.87984102 -40.25935364 12.97163391 C-28.44114125 1.80185441 -15.69900011 -0.04651451 0 0 Z " fill="#FEC007" transform="translate(94.36482238769531,73.73930358886719)"/>
<path d="M0 0 C2.18415763 -0.00734804 4.36831139 -0.0159364 6.55245972 -0.02566528 C12.46175256 -0.04781393 18.37090568 -0.05081524 24.28023434 -0.04891777 C29.2251881 -0.04879775 34.1701126 -0.05737497 39.11505818 -0.06569529 C51.4550484 -0.08600261 63.79496067 -0.08708842 76.13496199 -0.07988816 C87.48315879 -0.07397125 98.83106187 -0.09932858 110.17920184 -0.13436842 C120.51929317 -0.165129 130.85928599 -0.17641849 141.19942212 -0.1725316 C147.36408837 -0.17047048 153.52851549 -0.17584485 159.69313812 -0.20042419 C165.49473901 -0.22279344 171.29584266 -0.22072885 177.09744644 -0.20049667 C179.21650967 -0.19710448 181.33560704 -0.20209765 183.45462418 -0.21648026 C200.35881807 -0.32322322 214.87490387 1.10607968 227.50488281 13.45117188 C235.04565206 21.38294398 239.53238847 29.74745939 239.57392883 40.74255371 C239.57750648 41.3929361 239.57750648 41.3929361 239.59561157 44.68426514 C239.59845172 46.12414527 239.60116346 47.56402566 239.60375977 49.00390625 C239.61002719 50.52195388 239.61667423 52.03999999 239.62367249 53.55804443 C239.64469026 58.54324277 239.6550759 63.52844131 239.66503906 68.51367188 C239.66908812 70.23330196 239.67320508 71.95293188 239.67738914 73.67256165 C239.69643944 81.75636038 239.71066822 89.84015002 239.71900111 97.92396688 C239.72875936 107.23551775 239.7550425 116.54683001 239.79550201 125.85829687 C239.82574227 133.06699997 239.84047765 140.27563501 239.84378213 147.48440027 C239.84612449 151.78399406 239.85497764 156.08333291 239.8802433 160.38285828 C239.90366659 164.43442147 239.90770062 168.48556447 239.89748192 172.53717804 C239.89698981 174.01570795 239.9032131 175.49425955 239.91703796 176.97272491 C240.02956607 189.73167771 238.18064237 200.6980597 229.42675781 210.41992188 C228.89050781 211.03609375 228.35425781 211.65226563 227.80175781 212.28710938 C222.06053891 218.48018347 215.84242878 222.28495334 207.42675781 223.41992188 C207.2224809 219.71240821 207.09881193 216.00634716 206.98925781 212.29492188 C206.95993164 211.7715625 206.95993164 211.7715625 206.81152344 209.12304688 C206.63987468 201.37433162 206.63987468 201.37433162 208.91064453 198.62011719 C210.76660156 197.17773437 210.76660156 197.17773437 212.61791992 196.09619141 C216.27497339 192.70716061 217.2682568 188.15278013 217.7078371 183.34694099 C217.82408227 179.58058677 217.84427517 175.82023161 217.83081055 172.05273438 C217.83652065 170.60641962 217.84348739 169.16010938 217.85160828 167.71380615 C217.86948238 163.80471096 217.86838244 159.89584094 217.86266589 155.98671722 C217.85956625 152.7163616 217.86567495 149.44604875 217.87170464 146.17569923 C217.88572883 138.45824215 217.88420564 130.74089583 217.87280273 123.0234375 C217.86131819 115.07532556 217.87540749 107.12755092 217.90219921 99.17948341 C217.92438316 92.34101303 217.93098769 85.50264832 217.9251228 78.66414452 C217.9217591 74.58609304 217.92412929 70.50825785 217.94137383 66.43023682 C217.95688453 62.59526854 217.95284229 58.76079879 217.93406868 54.92584991 C217.93039442 53.52305443 217.93345728 52.12022165 217.94395447 50.71746063 C218.00132504 42.41352934 218.0496451 35.24256774 211.97949886 28.91012573 C208.13603957 25.53087235 204.59451019 23.17599584 199.43018055 23.15706635 C199.0353499 23.1532252 199.0353499 23.1532252 197.03726751 23.13378668 C196.17570363 23.13551964 195.31413976 23.13725261 194.4264679 23.13903809 C193.50651745 23.13309584 192.58656701 23.1271536 191.63873929 23.12103128 C188.54891779 23.10365579 185.45925127 23.10064071 182.36938477 23.09765625 C180.15682138 23.08839993 177.94426118 23.07835061 175.73170471 23.06756592 C169.71500146 23.04131195 163.69834286 23.02842668 157.68159127 23.0195446 C153.92257539 23.01368363 150.16357173 23.00547407 146.404562 22.99653625 C135.99115399 22.97231787 125.57775459 22.95155445 115.16431904 22.94478607 C114.49804344 22.94434694 113.83176784 22.94390781 113.14530207 22.94345537 C112.47745536 22.94301881 111.80960865 22.94258226 111.12152416 22.94213247 C109.76827196 22.94124555 108.41501977 22.94035242 107.06176758 22.93945312 C106.39051144 22.93901027 105.7192553 22.93856741 105.02765807 22.93811113 C94.1571709 22.93021944 83.28695223 22.89532413 72.41656873 22.84873408 C61.24849045 22.80125572 50.08050993 22.77689552 38.91232079 22.77405024 C32.64483834 22.7719543 26.37773451 22.76014323 20.11034584 22.72441101 C14.2127892 22.69144201 8.31589562 22.68714156 2.41827965 22.70468903 C0.25637409 22.70622946 -1.90556716 22.69754812 -4.06738281 22.67777252 C-7.0250528 22.65230837 -9.98037869 22.66409449 -12.93803406 22.68493652 C-13.36323919 22.67688012 -13.36323919 22.67688012 -15.51503485 22.63610983 C-22.11992806 22.74455686 -26.6301423 25.0604538 -31.57324219 29.41992188 C-33.29668072 31.70762894 -34.36075596 33.79286838 -35.57324219 36.41992188 C-35.90324219 37.07992187 -36.23324219 37.73992187 -36.57324219 38.41992188 C-36.67769988 40.34839974 -36.71714609 42.28051304 -36.72714233 44.21179199 C-36.7357428 45.44538452 -36.74434326 46.67897705 -36.75320435 47.94995117 C-36.75763983 49.32470661 -36.76193816 50.6994625 -36.76611328 52.07421875 C-36.77401375 53.51640013 -36.78228267 54.95857953 -36.79089355 56.40075684 C-36.81713356 61.14670927 -36.83242931 65.89267057 -36.84667969 70.63867188 C-36.85203972 72.27352402 -36.85741723 73.90837612 -36.86281204 75.54322815 C-36.88444916 82.34763576 -36.90318273 89.15204098 -36.91443443 95.9564743 C-36.93065043 105.69869027 -36.96376111 115.44050588 -37.02083528 125.18257093 C-37.05961244 132.036214 -37.07907665 138.88975038 -37.084355 145.74350023 C-37.08799962 149.83410055 -37.09992428 153.92427407 -37.13245773 158.01475525 C-37.16267353 161.86937241 -37.16880276 165.72330765 -37.15707397 169.57801819 C-37.15685432 170.98644562 -37.16506943 172.39490591 -37.18272781 173.80322266 C-37.28368687 182.32488792 -36.70451839 189.3454598 -31.57324219 196.41992188 C-31.11240234 196.731875 -31.11240234 196.731875 -28.78027344 198.31054688 C-25.98510307 200.98203714 -26.20624954 202.05261645 -26.08496094 205.84179688 C-26.1181359 207.95172473 -26.17767797 210.06136871 -26.26074219 212.16992188 C-26.28330078 213.24886719 -26.30585938 214.3278125 -26.32910156 215.43945312 C-26.38798568 218.10101537 -26.47017218 220.75976416 -26.57324219 223.41992188 C-37.01974076 221.54998065 -45.03233432 215.32215013 -51.43652344 206.99804688 C-58.15978892 196.52109719 -59.01732524 185.75796178 -58.94555664 173.56030273 C-58.9479901 172.09708905 -58.95171477 170.63387704 -58.95661926 169.17066956 C-58.96595532 165.22853607 -58.95666519 161.28665406 -58.94328713 157.34454036 C-58.93189426 153.20125635 -58.93608611 149.05798331 -58.93803406 144.91468811 C-58.93891447 137.96058083 -58.92788887 131.0065715 -58.90942383 124.05249023 C-58.88825178 116.03343776 -58.88474965 108.01452855 -58.89098579 99.99545377 C-58.8966967 92.25284064 -58.891014 84.51027751 -58.87981224 76.76767159 C-58.87518994 73.4852359 -58.87428206 70.20283103 -58.87639809 66.92039299 C-58.87829325 63.05019902 -58.87008356 59.18014914 -58.85433769 55.30998802 C-58.8501256 53.8967473 -58.84922335 52.48349187 -58.85202789 51.07024765 C-58.87672062 36.39176073 -57.26361679 24.20296168 -46.82324219 13.10742188 C-32.9395791 0.25120254 -17.9362023 -0.02855467 0 0 Z " fill="#242320" transform="translate(165.5732421875,137.580078125)"/>
<path d="M0 0 C4.98669007 2.49334503 8.49675474 5.99350949 11 11 C11.10095432 13.20352804 11.13513584 15.41019479 11.14044189 17.61602783 C11.14341302 18.30362364 11.14638414 18.99121944 11.1494453 19.69965148 C11.15815068 22.01494909 11.1596421 24.33019511 11.16113281 26.64550781 C11.16575975 28.3010723 11.17078424 29.95663571 11.17617798 31.61219788 C11.18931745 36.11853653 11.19575014 40.62486027 11.20018864 45.1312151 C11.20311735 47.94577295 11.20722181 50.76032671 11.21169281 53.57488251 C11.22537287 62.37842422 11.23503659 71.1819566 11.2388947 79.9855082 C11.24337448 90.15229787 11.26091651 100.31895303 11.2898953 110.4857018 C11.31150794 118.34055077 11.32159879 126.19536189 11.32293582 134.05024028 C11.32398431 138.74309247 11.32990114 143.4358183 11.34775543 148.12863922 C11.36422851 152.54452561 11.36639534 156.96019057 11.35761642 161.37609673 C11.35684559 162.99581686 11.36119485 164.61554885 11.37107468 166.23523903 C11.38378538 168.44910203 11.37792273 170.66217981 11.36749268 172.8760376 C11.36895924 174.11417332 11.3704258 175.35230904 11.3719368 176.62796402 C10.88810161 181.01448792 9.49225671 184.40142474 6.46484375 187.64453125 C0.772356 191.99761012 -2.87222635 192.789538 -10 192 C-14.42484878 189.78757561 -17.19476657 187.05200384 -20 183 C-21.14721225 179.55836325 -21.13461154 176.89537465 -21.14717102 173.26371765 C-21.14900936 172.91949254 -21.14900936 172.91949254 -21.1583125 171.17750484 C-21.16934579 168.86531797 -21.17319255 166.55317605 -21.17700195 164.2409668 C-21.18326681 162.58525449 -21.18991363 160.92954359 -21.19691467 159.27383423 C-21.2179525 153.83230569 -21.22831588 148.39077688 -21.23828125 142.94921875 C-21.24232872 141.07622577 -21.24644564 139.20323293 -21.25063133 137.33024025 C-21.26968133 128.53204389 -21.28391352 119.73385592 -21.2922433 110.9356429 C-21.30201948 100.77731367 -21.32834973 90.61920211 -21.36874419 80.4609496 C-21.39889198 72.61032763 -21.41371085 64.75976812 -21.41702431 56.90908939 C-21.41937608 52.21955987 -21.42835314 47.53026297 -21.45348549 42.84079552 C-21.47674825 38.42895342 -21.48100676 34.0174974 -21.47072411 29.60560989 C-21.47022822 27.98749445 -21.47656436 26.36936011 -21.49028015 24.75130272 C-21.50797828 22.53948372 -21.50090478 20.32905345 -21.48774719 18.11723328 C-21.49013555 16.88039638 -21.4925239 15.64355947 -21.49498463 14.36924267 C-20.73072637 9.16711842 -18.25359473 6.10435726 -14.375 2.6875 C-9.71860985 -0.62098774 -5.60468123 -0.62082623 0 0 Z " fill="#212120" transform="translate(341,192)"/>
<path d="M0 0 C4.14713021 2.16802252 7.17112703 4.9916075 8.92578125 9.31640625 C9.51438947 13.42819898 9.47216579 17.50443477 9.44335938 21.65234375 C9.45036865 22.89203918 9.45737793 24.13173462 9.46459961 25.40899658 C9.47916031 28.79771116 9.47578774 32.18544525 9.46308327 35.57410431 C9.45292858 39.12672709 9.46235577 42.6793091 9.46862793 46.23193359 C9.4758972 52.19701627 9.46633573 58.16190059 9.44726562 64.12695312 C9.42549805 71.01514011 9.43254995 77.90285346 9.45457125 84.79102898 C9.47274596 90.71395345 9.47527352 96.63673567 9.46481657 102.55967903 C9.45859293 106.0933114 9.45771458 109.62672143 9.47096252 113.16033936 C9.48470406 117.10056855 9.46563738 121.04027079 9.44335938 124.98046875 C9.4514563 126.14636536 9.45955322 127.31226196 9.46789551 128.51348877 C9.40247888 134.7573889 9.15963692 138.59360838 4.92578125 143.31640625 C0.53016877 147.28317849 -2.86869622 148.75593149 -8.8828125 148.65625 C-12.91154617 148.03147312 -16.15041613 146.11121758 -19.07421875 143.31640625 C-23.6394385 137.07015015 -23.64600896 131.74192767 -23.59179688 124.15820312 C-23.59880615 122.94922867 -23.60581543 121.74025421 -23.61303711 120.49464417 C-23.62758048 117.19475158 -23.62423651 113.89586816 -23.61152077 110.5960331 C-23.60135204 107.13330412 -23.61079714 103.67061652 -23.61706543 100.20788574 C-23.62433064 94.39420891 -23.61478394 88.58073572 -23.59570312 82.76708984 C-23.57393631 76.05782929 -23.5809885 69.34905505 -23.60300875 62.63980627 C-23.62119509 56.86631294 -23.62370537 51.0929655 -23.61325407 45.31945276 C-23.60703679 41.87690422 -23.6061344 38.43458381 -23.61940002 34.99205017 C-23.63316285 31.15271284 -23.61405603 27.31391469 -23.59179688 23.47460938 C-23.5998938 22.3419313 -23.60799072 21.20925323 -23.61633301 20.04225159 C-23.5469305 13.57365868 -22.94911551 9.56703226 -19.07421875 4.31640625 C-13.38171041 -0.83395844 -7.52766248 -2.48086805 0 0 Z " fill="#232220" transform="translate(236.07421875,235.68359375)"/>
<path d="M0 0 C4.12593192 2.87855716 7.06537651 6.00862953 8.6875 10.875 C8.8098899 13.79387175 8.87608402 16.68997959 8.89624023 19.60986328 C8.90113213 20.05639503 8.90113213 20.05639503 8.92588806 22.31611633 C8.95583466 25.27583326 8.9772283 28.23550492 8.99609375 31.1953125 C9.00266558 32.20735622 9.0092374 33.21939995 9.01600838 34.26211166 C9.04860255 39.621667 9.07305045 44.98120247 9.0925293 50.34082031 C9.1103243 54.76982685 9.14511596 59.19819454 9.19506836 63.62695312 C9.25536994 68.97972256 9.28601917 74.33190081 9.29570198 79.68499374 C9.30424263 81.7207006 9.32302626 83.75639226 9.3524456 85.79190445 C9.61544048 105.02796332 9.61544048 105.02796332 4.25282288 111.44723511 C-0.17131794 115.48258975 -4.29488107 116.44256322 -10.13671875 116.2265625 C-14.84181773 115.46631311 -17.58194198 112.70428207 -20.625 109.25 C-23.74586896 104.85766591 -23.47351007 101.17060965 -23.48950195 95.93066406 C-23.49607315 95.00366699 -23.50264435 94.07666992 -23.50941467 93.12158203 C-23.52917356 90.04459559 -23.54081645 86.96765802 -23.55078125 83.890625 C-23.55485678 82.84082207 -23.5589323 81.79101913 -23.56313133 80.70940399 C-23.58400379 75.15229996 -23.59830004 69.59522071 -23.60766602 64.03808594 C-23.61872884 58.29678272 -23.65312417 52.55586724 -23.69283772 46.81470108 C-23.71898018 42.4017464 -23.72735579 37.98888438 -23.73094749 33.57585907 C-23.7358201 31.45956556 -23.74745318 29.34327638 -23.76598549 27.22705841 C-23.79032456 24.26336446 -23.78942122 21.30067729 -23.7824707 18.33691406 C-23.79528076 17.46395691 -23.80809082 16.59099976 -23.82128906 15.69158936 C-23.7748918 10.25850027 -22.91552595 7.1909357 -19.3125 2.875 C-13.52969019 -2.35706602 -7.13951783 -2.4247419 0 0 Z " fill="#232220" transform="translate(290.3125,268.125)"/>
<path d="M0 0 C5.00230198 2.45567552 8.49851535 5.9970307 11 11 C11.10662227 12.93889426 11.14884372 14.88145738 11.16113281 16.82324219 C11.17074036 18.0450116 11.1803479 19.26678101 11.19024658 20.52557373 C11.19509547 21.86600559 11.19937408 23.20643962 11.203125 24.546875 C11.20887795 25.9196981 11.21463566 27.29252118 11.22039795 28.66534424 C11.23090994 31.54708226 11.23675073 34.42879238 11.24023438 37.31054688 C11.24570768 40.99367646 11.26970941 44.67643421 11.29820633 48.35944748 C11.31688438 51.19741877 11.32204112 54.03530161 11.32357025 56.87332916 C11.32805074 58.8884764 11.34667612 60.90357621 11.36553955 62.91864014 C11.36253845 64.15301819 11.35953735 65.38739624 11.35644531 66.65917969 C11.35826813 67.20021332 11.35826813 67.20021332 11.36749268 69.93817139 C10.86162102 74.15292836 9.37304132 77.52913385 6.46484375 80.64453125 C0.772356 84.99761012 -2.87222635 85.789538 -10 85 C-14.42484878 82.78757561 -17.19476657 80.05200384 -20 76 C-21.06969474 72.79091578 -21.14614548 70.43801531 -21.17700195 67.06323242 C-21.18983719 65.84153854 -21.20267242 64.61984467 -21.21589661 63.36112976 C-21.22406461 62.02591356 -21.23150823 60.69069276 -21.23828125 59.35546875 C-21.24031901 59.01857938 -21.24031901 59.01857938 -21.25063133 57.31371498 C-21.27147173 53.74715102 -21.28578198 50.1806253 -21.29516602 46.61401367 C-21.30622447 42.93864903 -21.34062261 39.26389082 -21.38033772 35.58874035 C-21.40653794 32.7550599 -21.41486082 29.92152322 -21.41844749 27.08773232 C-21.4256593 25.07697033 -21.45208288 23.06630677 -21.47883606 21.05570984 C-21.45209785 9.80361948 -21.45209785 9.80361948 -17 5 C-16.154375 4.05125 -15.30875 3.1025 -14.4375 2.125 C-10.18816103 -1.21608331 -5.11463654 -0.82322019 0 0 Z " fill="#222120" transform="translate(181,299)"/>
</svg>
