<?xml version="1.0" encoding="UTF-8"?>
<!-- Generator: visioncortex VTracer 0.6.12 -->
<svg version="1.1" xmlns="http://www.w3.org/2000/svg" width="512" height="512">
<path d="M0 0 C1.1257695 -0.00708481 2.251539 -0.01416962 3.41142273 -0.02146912 C4.02680405 -0.02023041 4.02680405 -0.02023041 7.14100647 -0.01396179 C8.44053757 -0.01907272 9.74006866 -0.02418365 11.07897949 -0.02944946 C14.64097684 -0.04283644 18.20286806 -0.04341849 21.76488566 -0.04088616 C24.73956168 -0.03981625 27.71421624 -0.04470032 30.68888766 -0.04949158 C37.70712328 -0.06058571 44.72530538 -0.06102471 51.74354553 -0.05497742 C58.98153575 -0.04893664 66.21933162 -0.06125139 73.45728868 -0.08254749 C79.67396913 -0.10016551 85.89058774 -0.10616454 92.10729223 -0.10290974 C95.81919073 -0.10109707 99.53095059 -0.1037314 103.24282646 -0.11762428 C107.38219184 -0.13253757 111.5211618 -0.12323079 115.66053772 -0.11161804 C116.88927612 -0.11926178 118.11801453 -0.12690552 119.38398743 -0.13478088 C120.51257675 -0.12776657 121.64116608 -0.12075226 122.80395508 -0.11352539 C123.78231292 -0.11369313 124.76067076 -0.11386087 125.7686758 -0.1140337 C129.62049206 0.42119137 132.00009513 2.19841513 135.08737844 4.43645316 C137.20456647 7.23907374 136.84424544 9.63753659 136.84857941 13.11269951 C136.85353892 13.81702651 136.85849844 14.52135352 136.86360824 15.24702376 C136.87664014 17.62512352 136.86815601 20.00266875 136.85987854 22.38078308 C136.86476387 24.09572981 136.87095201 25.81067325 136.87833643 27.52561104 C136.89480466 32.25228372 136.89240409 36.97879036 136.88696146 41.70548177 C136.88429969 46.79761783 136.89880698 51.88970878 136.91105652 56.98182678 C136.93214915 66.96342957 136.93664917 76.94497432 136.93486863 86.92659675 C136.93356289 95.03718848 136.93735551 103.14776206 136.9447937 111.25835037 C136.94689281 113.5913401 136.94899042 115.92432984 136.95108652 118.25731957 C136.95160829 118.83785193 136.95160829 118.83785193 136.95424873 121.77569748 C136.97316666 143.75300897 136.97209618 165.7302871 136.9652794 187.70760335 C136.95970315 207.82791748 136.98053012 227.94810431 137.01363987 248.06838869 C137.04734553 268.71045532 137.06254908 289.35246091 137.05792284 309.99455559 C137.05567494 321.59049677 137.06096805 333.18632028 137.08581543 344.78223801 C137.10678827 354.65433769 137.11046059 364.52625521 137.09151584 374.39836226 C137.08233305 379.43798768 137.08129249 384.4772731 137.10187149 389.51687241 C137.12048999 394.12724957 137.11618124 398.7370061 137.09332567 403.34735896 C137.0891167 405.01827671 137.09341649 406.6892412 137.10692161 408.36010967 C137.12399755 410.62650075 137.11045585 412.89070408 137.08908844 415.15701103 C137.08936082 416.41719547 137.08963321 417.67737991 137.08991385 418.97575176 C136.2937765 423.16390168 134.75212307 424.63174496 131.46546936 427.26069641 C128.46808235 428.25982541 126.49327325 428.38788077 123.36261177 428.39212418 C122.30076986 428.39596532 121.23892796 428.39980647 120.14490902 428.40376401 C119.55955944 428.40333077 119.55955944 428.40333077 116.59733582 428.40113831 C115.97711813 428.40262387 115.97711813 428.40262387 112.83844078 428.41014171 C109.38877818 428.4173305 105.93916538 428.42000168 102.48949885 428.42073917 C98.77162412 428.42258843 95.05376021 428.43013507 91.33589172 428.43687439 C83.20376309 428.45046288 75.07163938 428.45648308 66.93950129 428.46088505 C61.86373318 428.46364629 56.78796698 428.4678834 51.71220016 428.47238922 C37.66416862 428.48458199 23.61613861 428.49488166 9.56810188 428.49826431 C9.11845656 428.4983741 9.11845656 428.4983741 6.84297871 428.49892966 C5.94151612 428.49914794 5.04005352 428.49936622 4.11127388 428.49959111 C2.28451482 428.50003458 0.45775576 428.50048114 -1.3690033 428.50093079 C-1.82207271 428.5010415 -1.82207271 428.5010415 -4.11487855 428.50160179 C-18.80328101 428.50555127 -33.49163391 428.52300984 -48.18001722 428.54629031 C-63.25337373 428.56998853 -78.32670535 428.58246545 -93.4000808 428.58363223 C-101.86608652 428.58454979 -110.33202764 428.59032256 -118.79801559 428.60845184 C-126.00576078 428.62383214 -133.21342141 428.62898554 -140.42117988 428.62071374 C-144.09976792 428.61680001 -147.77818557 428.61777188 -151.45675278 428.63177109 C-155.44205257 428.64679918 -159.42711096 428.63866499 -163.41242981 428.62818909 C-164.57866753 428.63624549 -165.74490524 428.6443019 -166.94648349 428.65260243 C-168.01354089 428.64601259 -169.08059829 428.63942275 -170.17999077 428.63263321 C-171.09994579 428.6332303 -172.01990082 428.63382739 -172.96773326 428.63444257 C-176.07413964 428.18212504 -177.95814474 427.01553019 -180.53453064 425.26069641 C-181.12465974 424.86873518 -181.71478884 424.47677395 -182.32280064 424.0729351 C-184.32884111 421.07274187 -183.94930468 417.75335905 -183.92221069 414.26487732 C-183.92759623 413.4409643 -183.93298177 412.61705127 -183.9385305 411.76817119 C-183.95287896 408.99746283 -183.94568946 406.22722761 -183.93858337 403.45649719 C-183.9442834 401.47404087 -183.95124622 399.49158784 -183.9593811 397.50914001 C-183.9773696 392.11654487 -183.9761333 386.72411194 -183.97043872 381.33149576 C-183.96735467 376.8333604 -183.97343066 372.33525655 -183.97947747 367.83712566 C-183.99354016 357.22649904 -183.99194728 346.6159529 -183.98057556 336.00532532 C-183.9690959 325.05180788 -183.98316359 314.09853533 -184.00997204 303.14505017 C-184.03211183 293.74794414 -184.03877019 284.35091508 -184.03289562 274.95378482 C-184.02952033 269.33820605 -184.03197893 263.72278422 -184.04914665 258.10722733 C-184.06458596 252.82617437 -184.06069365 247.5454847 -184.04184151 242.26444626 C-184.03814709 240.32502564 -184.04128882 238.38557829 -184.05172729 236.44618225 C-184.06488086 233.80052737 -184.05344011 231.15608505 -184.03573608 228.51048279 C-184.04534109 227.7411218 -184.0549461 226.97176081 -184.06484216 226.17908585 C-183.99698926 221.25826355 -183.05959294 218.70698589 -179.53453064 215.26069641 C-176.50688734 213.74687476 -173.37551511 214.13085389 -170.05552673 214.14717102 C-169.67011467 214.14709801 -169.67011467 214.14709801 -167.71969604 214.14672852 C-165.16575835 214.14742652 -162.61189313 214.15521366 -160.05796814 214.16304016 C-158.28962748 214.16490474 -156.52128631 214.16632846 -154.75294495 214.16732788 C-150.09388305 214.17114991 -145.43485222 214.18097753 -140.77580261 214.19203186 C-136.0235079 214.20225272 -131.27120817 214.20682695 -126.51890564 214.21186829 C-117.19076697 214.22260007 -107.86265139 214.23967274 -98.53453064 214.26069641 C-98.5456337 213.02121246 -98.55673676 211.78172852 -98.56817627 210.50468445 C-98.66954785 198.82201544 -98.74449421 187.1394357 -98.7935915 175.45642662 C-98.81968161 169.45007874 -98.85507003 163.44408599 -98.91172791 157.4379425 C-98.96606698 151.64131303 -98.99595558 145.84502508 -99.00891685 140.04816055 C-99.0181532 137.83694202 -99.03618974 135.62574212 -99.06318092 133.41466904 C-99.09949537 130.3165477 -99.10447484 127.21983629 -99.10215759 124.12153625 C-99.12013397 123.20803406 -99.13811035 122.29453186 -99.15663147 121.35334778 C-99.12153521 117.01483333 -98.90518293 114.15305475 -96.12405396 110.70689392 C-92.13730517 106.94080505 -89.39485108 107.12104644 -84.14732361 107.14717102 C-83.38625305 107.14702499 -82.6251825 107.14687897 -81.84104919 107.14672852 C-79.31957675 107.14742648 -76.79817772 107.15521347 -74.27671814 107.16304016 C-72.53079773 107.16490475 -70.7848768 107.16632846 -69.03895569 107.16732788 C-64.43907736 107.17114982 -59.8392305 107.18097736 -55.23936462 107.19203186 C-50.54739304 107.20225292 -45.85541639 107.20682699 -41.16343689 107.21186829 C-31.95378763 107.2225999 -22.74416175 107.23967247 -13.53453064 107.26069641 C-13.54341309 106.03374054 -13.55229553 104.80678467 -13.56144714 103.54264832 C-13.64254682 91.97767895 -13.70250285 80.4127673 -13.74177933 68.84757805 C-13.76265063 62.90183024 -13.79096052 56.95631206 -13.83628845 51.01069641 C-13.87976161 45.27243417 -13.90367118 39.53439276 -13.91403961 33.79597855 C-13.92142827 31.60710804 -13.93585656 29.41824957 -13.95745087 27.22947311 C-13.98650374 24.16262987 -13.99048576 21.09669818 -13.9886322 18.02973938 C-14.00301331 17.12558792 -14.01739441 16.22143646 -14.0322113 15.28988647 C-13.99640945 9.81249861 -13.30747933 6.53093133 -9.53453064 2.26069641 C-6.32009025 0.21533182 -3.77300182 0.00791987 0 0 Z " fill="#FEC928" transform="translate(279.53453063964844,41.73930358886719)"/>
<path d="M0 0 C1.1257695 -0.00708481 2.251539 -0.01416962 3.41142273 -0.02146912 C4.02680405 -0.02023041 4.02680405 -0.02023041 7.14100647 -0.01396179 C8.44053757 -0.01907272 9.74006866 -0.02418365 11.07897949 -0.02944946 C14.64097684 -0.04283644 18.20286806 -0.04341849 21.76488566 -0.04088616 C24.73956168 -0.03981625 27.71421624 -0.04470032 30.68888766 -0.04949158 C37.70712328 -0.06058571 44.72530538 -0.06102471 51.74354553 -0.05497742 C58.98153575 -0.04893664 66.21933162 -0.06125139 73.45728868 -0.08254749 C79.67396913 -0.10016551 85.89058774 -0.10616454 92.10729223 -0.10290974 C95.81919073 -0.10109707 99.53095059 -0.1037314 103.24282646 -0.11762428 C107.38219184 -0.13253757 111.5211618 -0.12323079 115.66053772 -0.11161804 C116.88927612 -0.11926178 118.11801453 -0.12690552 119.38398743 -0.13478088 C120.51257675 -0.12776657 121.64116608 -0.12075226 122.80395508 -0.11352539 C123.78231292 -0.11369313 124.76067076 -0.11386087 125.7686758 -0.1140337 C129.62049206 0.42119137 132.00009513 2.19841513 135.08737844 4.43645316 C137.20456647 7.23907374 136.84424544 9.63753659 136.84857941 13.11269951 C136.85353892 13.81702651 136.85849844 14.52135352 136.86360824 15.24702376 C136.87664014 17.62512352 136.86815601 20.00266875 136.85987854 22.38078308 C136.86476387 24.09572981 136.87095201 25.81067325 136.87833643 27.52561104 C136.89480466 32.25228372 136.89240409 36.97879036 136.88696146 41.70548177 C136.88429969 46.79761783 136.89880698 51.88970878 136.91105652 56.98182678 C136.93214915 66.96342957 136.93664917 76.94497432 136.93486863 86.92659675 C136.93356289 95.03718848 136.93735551 103.14776206 136.9447937 111.25835037 C136.94689281 113.5913401 136.94899042 115.92432984 136.95108652 118.25731957 C136.95213005 119.41838428 136.95317358 120.57944899 136.95424873 121.77569748 C136.97316666 143.75300897 136.97209618 165.7302871 136.9652794 187.70760335 C136.95970315 207.82791748 136.98053012 227.94810431 137.01363987 248.06838869 C137.04734553 268.71045532 137.06254908 289.35246091 137.05792284 309.99455559 C137.05567494 321.59049677 137.06096805 333.18632028 137.08581543 344.78223801 C137.10678827 354.65433769 137.11046059 364.52625521 137.09151584 374.39836226 C137.08233305 379.43798768 137.08129249 384.4772731 137.10187149 389.51687241 C137.12048999 394.12724957 137.11618124 398.7370061 137.09332567 403.34735896 C137.0891167 405.01827671 137.09341649 406.6892412 137.10692161 408.36010967 C137.12399755 410.62650075 137.11045585 412.89070408 137.08908844 415.15701103 C137.08936082 416.41719547 137.08963321 417.67737991 137.08991385 418.97575176 C136.2937765 423.16390168 134.75212307 424.63174496 131.46546936 427.26069641 C127.68754817 428.52000347 124.16496489 428.39205188 120.23036194 428.3742218 C119.81073936 428.37429482 119.81073936 428.37429482 117.68719482 428.37466431 C114.91143719 428.37396729 112.13574654 428.3661847 109.36000061 428.35835266 C107.43614743 428.35648773 105.51229377 428.35506418 103.58843994 428.35406494 C98.52332754 428.35024565 93.45824378 428.34042035 88.3931427 428.32936096 C83.22519824 428.31913423 78.05724915 428.31456461 72.88929749 428.30952454 C62.74800885 428.29879758 52.60674149 428.28172818 42.46546936 428.26069641 C43.22859436 427.70382141 43.99171936 427.14694641 44.77796936 426.57319641 C48.13094483 423.68807798 50.18930326 421.14982118 50.84036618 416.69620037 C50.84033868 416.23676493 50.84033868 416.23676493 50.84019947 413.91174316 C50.84380274 413.37883116 50.84380274 413.37883116 50.86203748 410.68197346 C50.8546632 409.51709998 50.84728891 408.35222651 50.83969116 407.15205383 C50.84167837 406.53098173 50.84167837 406.53098173 50.85173482 403.38798046 C50.85969693 399.94267266 50.85419252 396.49786202 50.84298432 393.05259466 C50.83414453 389.33611264 50.84258518 385.61966465 50.84884644 381.90318298 C50.85833777 374.62362437 50.85173166 367.34416484 50.83958349 360.06461358 C50.82596634 351.58926015 50.8276011 343.11393035 50.82971682 334.63856876 C50.8329072 319.51747377 50.82123622 304.39642587 50.801651 289.27534485 C50.78264665 274.59889796 50.7755634 259.92250628 50.78114319 245.24604797 C50.78719961 229.26862508 50.78702641 213.29122646 50.77565736 197.31380558 C50.77445005 195.61044375 50.77324407 193.90708192 50.77203941 192.20372009 C50.77143587 191.36560907 50.77083234 190.52749805 50.77021051 189.66398972 C50.76632951 183.754684 50.76672569 177.84538731 50.76862526 171.93608093 C50.77074636 164.73570688 50.76552958 157.5353812 50.75101171 150.33502078 C50.74376308 146.66051161 50.73969468 142.98607292 50.74425507 139.31155777 C50.74907543 135.33077072 50.73842573 131.35011211 50.72616577 127.36933899 C50.7299451 126.20446551 50.73372442 125.03959204 50.73761827 123.83941936 C50.73178607 122.77359536 50.72595388 121.70777136 50.71994495 120.60964966 C50.71907818 119.69077878 50.7182114 118.7719079 50.71731836 117.82519245 C50.43562873 114.95683907 49.75470697 112.83398663 48.46546936 110.26069641 C44.90981661 108.22934019 41.70847823 107.99563666 37.66542053 107.94184875 C36.52461533 107.92197906 35.38381012 107.90210938 34.20843506 107.88163757 C32.98743607 107.87008636 31.76643707 107.85853516 30.50843811 107.84663391 C29.25033829 107.82726776 27.99223846 107.80790161 26.6960144 107.78794861 C23.36372617 107.73836564 20.03154605 107.69706543 16.69911194 107.6598053 C13.29365697 107.61968017 9.88836746 107.56862681 6.48304749 107.51850891 C-0.18937195 107.42252153 -6.86186379 107.33745471 -13.53453064 107.26069641 C-13.62722639 94.45638608 -13.69829377 81.65215563 -13.74177933 68.84757805 C-13.76265063 62.90183024 -13.79096052 56.95631206 -13.83628845 51.01069641 C-13.87976161 45.27243417 -13.90367118 39.53439276 -13.91403961 33.79597855 C-13.92142827 31.60710804 -13.93585656 29.41824957 -13.95745087 27.22947311 C-13.98650374 24.16262987 -13.99048576 21.09669818 -13.9886322 18.02973938 C-14.00301331 17.12558792 -14.01739441 16.22143646 -14.0322113 15.28988647 C-13.99640945 9.81249861 -13.30747933 6.53093133 -9.53453064 2.26069641 C-6.32009025 0.21533182 -3.77300182 0.00791987 0 0 Z " fill="#EDA503" transform="translate(279.53453063964844,41.73930358886719)"/>
<path d="M0 0 C1.12998917 -0.00571014 2.25997833 -0.01142029 3.42420959 -0.01730347 C4.66994247 -0.01842133 5.91567535 -0.01953918 7.19915771 -0.02069092 C7.85285088 -0.02317337 7.85285088 -0.02317337 11.16093445 -0.03573608 C14.75407898 -0.04886993 18.34720481 -0.05530725 21.94036961 -0.05974674 C24.18539494 -0.06267661 26.43041516 -0.06678132 28.67543793 -0.07125092 C35.69990492 -0.08493005 42.72436023 -0.09459398 49.74883962 -0.09845281 C57.85658568 -0.10293111 65.96416295 -0.12046654 74.07185769 -0.1494534 C80.33861011 -0.17108012 86.60531507 -0.18115766 92.87210441 -0.18249393 C96.61481698 -0.18354149 100.35737098 -0.18943848 104.10004425 -0.20731354 C108.27771718 -0.22687712 112.45503779 -0.22250131 116.63275146 -0.21600342 C117.87038742 -0.2252182 119.10802338 -0.23443298 120.38316345 -0.243927 C131.05241144 -0.19186329 131.05241144 -0.19186329 135.67474365 3.14044189 C138.16601961 6.87735583 137.95957052 9.77251326 137.94216919 14.09829712 C137.9467003 14.91812659 137.95123142 15.73795606 137.95589983 16.58262885 C137.96859574 19.33942404 137.96692013 22.09602298 137.965271 24.85284424 C137.97125301 26.82544714 137.97805779 28.79804769 137.98562622 30.77064514 C138.00332673 36.13634704 138.0079833 41.50198519 138.00925779 46.86771345 C138.01115456 51.34347575 138.01850954 55.81922312 138.02560198 60.29497969 C138.04189894 70.85284976 138.04676974 81.4106857 138.04534912 91.96856689 C138.04414734 102.86754304 138.06525354 113.76632127 138.09683645 124.66524732 C138.12296866 134.01563653 138.1337177 143.36596098 138.1324383 152.71638644 C138.13192777 158.30403063 138.13766131 163.89149901 138.1587944 169.4791069 C138.17812531 174.73387992 138.17833652 179.98830849 138.16376114 185.24309349 C138.16166554 187.17284458 138.16641844 189.10261694 138.17848206 191.03233147 C138.19387451 193.66483514 138.18466659 196.29614225 138.16921997 198.92861938 C138.1795071 199.69408943 138.18979422 200.45955947 138.20039308 201.24822557 C138.15391672 204.82717407 137.78770419 206.95724455 135.89383888 210.0286808 C132.05692016 213.68001381 129.43942602 214.39001056 124.17817688 214.40113831 C123.06082153 214.40822311 121.94346619 214.41530792 120.79225159 214.42260742 C119.57083969 214.42013 118.3494278 214.41765259 117.09100342 214.4151001 C115.80122589 214.42021103 114.51144836 214.42532196 113.18258667 214.43058777 C109.64744775 214.44397427 106.11241577 214.44455685 102.57725644 214.44202447 C99.62494832 214.44095453 96.67266181 214.44583871 93.72035831 214.45062989 C86.75486028 214.46172385 79.78941617 214.46216311 72.82391357 214.45611572 C65.64045435 214.45007497 58.45719096 214.46238967 51.27376515 214.48368579 C45.10379334 214.50130416 38.93388386 214.50730279 32.76388782 214.50404805 C29.0799346 214.50223543 25.39612106 214.50486915 21.71219063 214.51876259 C17.60395731 214.5336766 13.49612236 214.5243688 9.38787842 214.51275635 C8.77818459 214.51657822 8.77818459 214.51657822 5.69276428 214.53591919 C4.57258911 214.52890488 3.45241394 214.52189056 2.29829407 214.5146637 C1.32731057 214.51483144 0.35632708 214.51499918 -0.64408016 214.515172 C-3.86277189 214.06531693 -5.69052713 213.01733808 -8.32525635 211.14044189 C-8.91538545 210.74848066 -9.50551455 210.35651943 -10.11352634 209.95268059 C-12.11956681 206.95248735 -11.74003039 203.63310453 -11.7129364 200.1446228 C-11.71832194 199.32070978 -11.72370748 198.49679676 -11.72925621 197.64791667 C-11.74360466 194.87720832 -11.73641517 192.10697309 -11.72930908 189.33624268 C-11.7350091 187.35378636 -11.74197193 185.37133332 -11.75010681 183.3888855 C-11.7680953 177.99629035 -11.766859 172.60385742 -11.76116443 167.21124125 C-11.75808038 162.71310588 -11.76415637 158.21500203 -11.77020317 153.71687114 C-11.78426586 143.10624452 -11.78267299 132.49569838 -11.77130127 121.8850708 C-11.7598216 110.93155336 -11.7738893 99.97828081 -11.80069774 89.02479565 C-11.82283754 79.62768963 -11.8294959 70.23066057 -11.82362133 60.83353031 C-11.82024604 55.21795153 -11.82270464 49.60252971 -11.83987236 43.98697281 C-11.85531166 38.70591986 -11.85141936 33.42523018 -11.83256721 28.14419174 C-11.8288728 26.20477113 -11.83201453 24.26532378 -11.842453 22.32592773 C-11.85560657 19.68027285 -11.84416582 17.03583053 -11.82646179 14.39022827 C-11.8360668 13.62086728 -11.84567181 12.85150629 -11.85556787 12.05883133 C-11.78771496 7.13800904 -10.85031865 4.58673138 -7.32525635 1.14044189 C-4.74506836 -0.1496521 -2.89026089 0.00872051 0 0 Z " fill="#FFDF81" transform="translate(107.32525634765625,255.85955810546875)"/>
</svg>
