<?xml version="1.0" encoding="UTF-8"?>
<!-- Generator: visioncortex VTracer 0.6.12 -->
<svg version="1.1" xmlns="http://www.w3.org/2000/svg" width="512" height="512">
<path d="M0 0 C6.5977638 -0.10236919 13.19531891 -0.17186711 19.79370117 -0.21972656 C22.03303684 -0.23970193 24.27232129 -0.26689182 26.51147461 -0.30175781 C44.08309792 -0.56829147 58.28097542 -0.36644469 72 12 C84.19193442 24.38545719 89.10225967 40.519679 93 57 C93.21317871 57.89380371 93.42635742 58.78760742 93.64599609 59.70849609 C99.5505331 85.69126838 99.1319229 114.12534926 93 140 C92.69590478 141.41130558 92.39247732 142.82275527 92.08984375 144.234375 C88.36871575 160.02097862 81.02212705 173.65526384 67.75 183.375 C53.58924245 192.01630884 37.77525436 193.3130227 21.59277344 193.22705078 C20.0836335 193.22648529 18.57449301 193.22680592 17.06535339 193.22793579 C13.00622673 193.22850491 8.94722051 193.21682276 4.8881216 193.20278788 C0.63206546 193.1902063 -3.62399405 193.1891042 -7.88006592 193.18673706 C-15.92265882 193.18054397 -23.96519674 193.16416282 -32.00776553 193.14403808 C-41.17110235 193.12161115 -50.33444192 193.11066863 -59.4977994 193.10064721 C-78.33189819 193.07979445 -97.16594264 193.0442538 -116 193 C-116 199.6 -116 206.2 -116 213 C-84.32 213 -52.64 213 -20 213 C-19.938125 221.8275 -19.87625 230.655 -19.8125 239.75 C-19.79884399 241.13106934 -19.79884399 241.13106934 -19.72973633 248.12011719 C-19.72096237 250.3456987 -19.7133206 252.57128508 -19.70703125 254.796875 C-19.6993573 255.35995361 -19.6993573 255.35995361 -19.66052246 258.20947266 C-19.65664779 270.12796239 -21.79342855 281.48595284 -29.5390625 290.86328125 C-41.49369478 302.73891816 -60.15067761 305.34197088 -76 308 C-76.77537109 308.13277344 -77.55074219 308.26554687 -78.34960938 308.40234375 C-100.10142947 311.94472616 -123.43588845 311.40496458 -145 307 C-145.35602295 306.92773193 -145.35602295 306.92773193 -147.15771484 306.56201172 C-162.34464218 303.33143566 -175.21149798 296.66837128 -183.875 283.4375 C-184.93825474 281.63757916 -185.98287738 279.8263864 -187 278 C-187.598125 276.9275 -188.19625 275.855 -188.8125 274.75 C-192.87012941 261.93643344 -192.29741863 248.11784139 -192.265625 234.83203125 C-192.26697613 232.81955417 -192.26892038 230.80707742 -192.27142334 228.79460144 C-192.27435149 224.60335137 -192.27015063 220.41218725 -192.26074219 216.22094727 C-192.24932685 210.87867071 -192.2559351 205.53659474 -192.26788712 200.19432545 C-192.27514952 196.04793311 -192.27279813 191.90158754 -192.26763153 187.75519371 C-192.26630828 185.78623111 -192.26789567 183.8172641 -192.27259064 181.84830666 C-192.30609903 163.85910702 -191.82054468 147.08964358 -178.9375 133.125 C-163.62138551 119.23183534 -145.73220729 116.39621943 -125.79170799 116.48357964 C-122.84245963 116.49642257 -119.89411834 116.48473062 -116.94490051 116.46754456 C-111.74934327 116.44107774 -106.5540158 116.43524031 -101.35839844 116.43664551 C-93.0285335 116.43889024 -84.69895098 116.4245016 -76.36919594 116.38105965 C-73.48272486 116.37131242 -70.59671166 116.37988606 -67.71025085 116.38975525 C-49.56848827 116.36763901 -33.65605347 112.23331472 -20.203125 99.46630859 C-9.28759787 88.51021701 -1.00820906 74.31941098 -0.79467773 58.57910156 C-0.77473251 57.27805481 -0.75478729 55.97700806 -0.73423767 54.63653564 C-0.71725582 53.2212333 -0.70037693 51.80592972 -0.68359375 50.390625 C-0.66301245 48.93902001 -0.64201567 47.48742086 -0.62062073 46.03582764 C-0.56552149 42.22187028 -0.51605885 38.40785993 -0.46777344 34.59381104 C-0.41746951 30.69921166 -0.36182993 26.80468891 -0.30664062 22.91015625 C-0.19920772 15.27350245 -0.09772999 7.63678479 0 0 Z M-67.75 238.75 C-71.52644278 242.52644278 -72.84794906 245.63154151 -73.4375 250.9375 C-73.17930752 256.8085724 -70.58927508 260.52424457 -66.375 264.4375 C-61.80102057 266.55508307 -57.95993123 266.67408461 -53 266 C-48.63750745 264.25500298 -45.3216841 261.09185704 -43 257 C-41.47687429 252.24573478 -41.53487765 248.26242943 -43.5625 243.6875 C-46.28972032 238.98281065 -49.73528313 236.67459652 -54.9375 235.125 C-59.8907298 234.92282736 -63.5831262 236.09835303 -67.75 238.75 Z " fill="#FEC910" transform="translate(357,149)"/>
<path d="M0 0 C0.35384766 0.29197266 0.35384766 0.29197266 2.14453125 1.76953125 C10.91114579 9.73156166 16.28982524 20.69853324 17.19025803 32.49189186 C17.27194096 35.21416168 17.29312763 37.93007142 17.29052734 40.65356445 C17.29724457 41.67923523 17.30396179 42.70490601 17.31088257 43.76165771 C17.32977207 47.12891578 17.33378211 50.4959736 17.3359375 53.86328125 C17.34237136 56.22063781 17.34910016 58.57799359 17.35610962 60.93534851 C17.36805954 65.8686203 17.37179276 70.80182219 17.37060547 75.73510742 C17.37040234 82.0327678 17.39770936 88.32997664 17.43214989 94.6275301 C17.45446914 99.49452239 17.45844147 104.36140684 17.45738602 109.22844505 C17.45973421 111.54910018 17.46851325 113.86975863 17.48405075 116.19036293 C17.59766138 134.90974523 16.22486157 147.58462281 3.1953125 161.99609375 C-11.18790719 175.85460371 -30.07019509 177.44481135 -48.93570137 177.38012505 C-51.88524244 177.37087794 -54.83416605 177.38139031 -57.78367615 177.39674377 C-66.15875506 177.4364781 -74.53377787 177.43804882 -82.90893555 177.43579102 C-88.06049135 177.43573961 -93.21170955 177.45504861 -98.36317253 177.48512459 C-101.24630012 177.49583336 -104.12875141 177.48389349 -107.01185608 177.47129822 C-125.93940246 177.50819899 -142.00720505 182.57325663 -156 196 C-169.55420045 211.28685714 -174.40858157 228.29415896 -174.51171875 248.39453125 C-174.52069435 249.05121544 -174.52069435 249.05121544 -174.56611633 252.37443542 C-174.6130315 255.81836094 -174.64321466 259.26222378 -174.66955566 262.70635986 C-174.69966157 266.23991284 -174.7460861 269.77325056 -174.79101562 273.30664062 C-174.87638024 280.20430315 -174.94401746 287.10203793 -175 294 C-181.45534531 294.10240038 -187.9104771 294.17187969 -194.36645508 294.21972656 C-196.5572899 294.23969742 -198.74807243 294.26688378 -200.9387207 294.30175781 C-219.20159955 294.58496779 -233.6797354 293.72015241 -247.6875 280.75 C-260.59077021 267.16133668 -265.51369701 247.25443034 -268.6875 229.375 C-268.89955078 228.23804688 -269.11160156 227.10109375 -269.33007812 225.9296875 C-274.82919557 195.67586789 -274.89941212 153.19309584 -257.375 126.52734375 C-255.67318761 124.25192941 -253.8905444 122.12019839 -252 120 C-251.47792969 119.38511719 -250.95585937 118.77023438 -250.41796875 118.13671875 C-240.35790633 107.09757483 -225.58244179 102.16023426 -211 101 C-206.04635824 100.85953566 -201.09382281 100.873363 -196.13867188 100.88647461 C-194.63997398 100.88675704 -193.14127594 100.88659766 -191.64257812 100.8860321 C-187.59358196 100.88574631 -183.54461569 100.8916078 -179.49562645 100.89860606 C-175.25689217 100.90487588 -171.01815714 100.90544626 -166.77941895 100.90663147 C-158.7615038 100.90973411 -150.74360235 100.91793307 -142.72569323 100.92798096 C-133.59388164 100.93917529 -124.46206939 100.94466091 -115.33025265 100.94967639 C-96.55349379 100.9601166 -77.7767485 100.9778978 -59 101 C-59 94.4 -59 87.8 -59 81 C-60.43629761 81.00261841 -60.43629761 81.00261841 -67.70483398 81.01586914 C-77.17241009 81.03240357 -86.63998681 81.04347063 -96.10757351 81.05181217 C-101.85045062 81.05704141 -107.59331301 81.0641398 -113.33618164 81.07543945 C-118.87339995 81.08626687 -124.41060404 81.09227652 -129.94783211 81.09487724 C-132.06544277 81.09673176 -134.18305262 81.10035286 -136.30065727 81.10573006 C-139.25571274 81.11293856 -142.21070871 81.11399102 -145.16577148 81.11352539 C-145.60813393 81.11532303 -145.60813393 81.11532303 -147.84675598 81.12442017 C-153.88594784 81.11405216 -153.88594784 81.11405216 -155 80 C-155.10151884 77.07280974 -155.13965182 74.16978895 -155.1328125 71.2421875 C-155.13376923 70.34694366 -155.13472595 69.45169983 -155.13571167 68.52932739 C-155.13639453 66.62095063 -155.13453295 64.71257157 -155.13037109 62.80419922 C-155.12511152 59.93581624 -155.13026627 57.06759624 -155.13671875 54.19921875 C-155.15387187 14.80771986 -155.15387187 14.80771986 -144.25 3.125 C-113.99498142 -25.17808189 -30.79423529 -25.63499168 0 0 Z M-126 30 C-130.1579864 33.62592179 -131.85483265 37.25799179 -132.3125 42.75 C-132.23674411 47.32902268 -130.86722087 50.46077424 -128 54 C-124.42335705 57.32116845 -121.70519113 58.26747833 -116.9375 58.4375 C-111.07444498 58.16541212 -108.46585491 56.39922514 -104.25 52.375 C-101.29267568 48.61283425 -100.72059634 44.70752826 -101 40 C-102.69479718 34.81591452 -105.55494219 32.07734771 -110 29 C-115.93959536 26.31037191 -120.39372503 26.97639103 -126 30 Z " fill="#188ED4" transform="translate(320,69)"/>
</svg>
