<?xml version="1.0" encoding="UTF-8"?>
<!-- Generator: visioncortex VTracer 0.6.12 -->
<svg version="1.1" xmlns="http://www.w3.org/2000/svg" width="512" height="512">
<path d="M0 0 C21.12 0 42.24 0 64 0 C64 60.06 64 120.12 64 182 C42.88 182 21.76 182 0 182 C0 121.94 0 61.88 0 0 Z " fill="#9EA8DA" transform="translate(224,309)"/>
<path d="M0 0 C56.43 0 112.86 0 171 0 C171 21.45 171 42.9 171 65 C114.57 65 58.14 65 0 65 C0 43.55 0 22.1 0 0 Z " fill="#D71A5F" transform="translate(341,181)"/>
<path d="M0 0 C56.43 0 112.86 0 171 0 C171 21.45 171 42.9 171 65 C114.57 65 58.14 65 0 65 C0 43.55 0 22.1 0 0 Z " fill="#90CAF8" transform="translate(0,181)"/>
<path d="M0 0 C14.19 0 28.38 0 43 0 C43 42.24 43 84.48 43 128 C40.69 126.02 38.38 124.04 36 122 C34.66100101 121.08477913 33.2988329 120.20084876 31.90063477 119.37890625 C18.54431121 111.10591566 3.29475649 99.726105 -0.55872345 83.67233276 C-5.43438245 56.65367349 -1.95442836 27.09658083 0 0 Z " fill="#1976D2" transform="translate(224,309)"/>
<path d="M0 0 C56.43 0 112.86 0 171 0 C171 7.26 171 14.52 171 22 C114.57 22 58.14 22 0 22 C0 14.74 0 7.48 0 0 Z " fill="#FEAB90" transform="translate(341,224)"/>
<path d="M0 0 C2.31 1.98 4.62 3.96 7 6 C8.35477439 7.05809719 9.71923226 8.10410565 11.09936523 9.12890625 C41.57137295 32.31998045 41.57137295 32.31998045 44.67431641 48.97851562 C46.54569654 64.63239702 44.86851653 80.42902895 43 96 C28.81 96 14.62 96 0 96 C0 64.32 0 32.64 0 0 Z " fill="#6739B8" transform="translate(224,395)"/>
<path d="M0 0 C9.10414795 -0.03182486 18.20830499 -0.05138409 27.3125 -0.0625 C28.00844269 -0.06335602 28.70438538 -0.06421204 29.42141724 -0.06509399 C54.78422721 -0.09251957 80.13989925 0.13970675 105.5 0.5 C105.92102556 0.50597891 105.92102556 0.50597891 108.05167007 0.53623581 C118.3678978 0.68340845 128.68398408 0.83865133 139 1 C139 7.93 139 14.86 139 22 C123.97909028 22.48926272 108.95940644 22.86243242 93.93218708 23.08805561 C86.9517635 23.19568154 79.97642269 23.34192085 72.99926758 23.58422852 C66.24900162 23.81854178 59.50397939 23.93838587 52.74989891 23.9924221 C50.19024367 24.03085637 47.63083584 24.10591855 45.07345009 24.22033119 C32.57165392 24.75674529 22.6416684 24.59604375 13.08101696 15.82637161 C8.34618494 11.23709736 3.92184688 6.30293792 0 1 C0 0.67 0 0.34 0 0 Z " fill="#482BF3" transform="translate(32,202)"/>
<path d="M0 0 C13.605397 -0.45430536 27.2056541 -0.82010282 40.81695938 -1.03624344 C47.13949477 -1.14005555 53.45651726 -1.28047133 59.77587891 -1.50878906 C105.8541262 -3.13208627 105.8541262 -3.13208627 116.45048141 5.83011246 C120.77606363 9.93718258 124.32900962 14.67066198 127 20 C127 20.33 127 20.66 127 21 C115.16622378 21.13247559 103.33242742 21.26297421 91.49860382 21.39115143 C85.99987239 21.45076835 80.50114919 21.51099167 75.00244141 21.57275391 C50.00065008 21.85312678 25.00351247 22.08356168 0 22 C0 14.74 0 7.48 0 0 Z " fill="#FEAA91" transform="translate(341,181)"/>
<path d="M0 0 C38.61 0 77.22 0 117 0 C117 7.26 117 14.52 117 22 C74.76 22 32.52 22 -11 22 C-11 21.67 -11 21.34 -11 21 C-6.05 20.835 -6.05 20.835 19 20 C9.5 10.5625 9.5 10.5625 6.49414062 7.58422852 C5.72263672 6.81522217 4.95113281 6.04621582 4.15625 5.25390625 C3.36025391 4.46314697 2.56425781 3.6723877 1.74414062 2.85766602 C0 1 0 1 0 0 Z " fill="#9CA8DB" transform="translate(54,224)"/>
<path d="M0 0 C25.76735156 -4.73749513 25.76735156 -4.73749513 35.75891113 1.80712891 C42.94309961 7.3976909 49.32221645 13.83183633 55.5625 20.4375 C56.0245219 20.9257362 56.48654381 21.4139724 56.96256638 21.91700363 C74 39.99145831 74 39.99145831 74 42 C49.31747938 43.0473567 24.7073531 43.07893723 0 43 C0 28.81 0 14.62 0 0 Z " fill="#9576CC" transform="translate(0,203)"/>
<path d="M0 0 C12.30153446 -0.45467971 24.59735902 -0.82029467 36.9054451 -1.03624344 C42.62295553 -1.13997515 48.33435056 -1.2802089 54.04833984 -1.50878906 C95.66794316 -3.13206528 95.66794316 -3.13206528 106.11608505 5.83011246 C110.46706715 9.97913424 114.13504581 14.71708797 117 20 C117 20.33 117 20.66 117 21 C78.39 21 39.78 21 0 21 C0 14.07 0 7.14 0 0 Z " fill="#FE1743" transform="translate(341,203)"/>
<path d="M0 0 C6.93 0 13.86 0 21 0 C21 34.98 21 69.96 21 106 C18.69 104.02 16.38 102.04 14 100 C12.77034935 99.01653998 11.53844918 98.03586726 10.30197144 97.06100464 C4.14458898 91.88080029 -0.59538117 87.29564213 -1.48341179 79.01538277 C-1.67048611 74.60219703 -1.54702481 70.23157954 -1.3671875 65.8203125 C-1.3410138 63.91225518 -1.32111461 62.00410255 -1.30715942 60.09591675 C-1.25417741 55.11866779 -1.11712182 50.14731252 -0.96130371 45.17236328 C-0.81702621 40.07795946 -0.75392507 34.98258486 -0.68359375 29.88671875 C-0.53428647 19.92149731 -0.28847356 9.96216488 0 0 Z " fill="#9EA8DA" transform="translate(224,309)"/>
<path d="M0 0 C9.43301576 -0.45587065 18.85848364 -0.82088664 28.30011368 -1.03624344 C32.68688894 -1.13972855 37.0656159 -1.27937398 41.44775391 -1.50878906 C72.58308281 -3.09754181 72.58308281 -3.09754181 81.88476562 4.50585938 C86.90284929 9.13771827 91.34312048 14.2208325 95 20 C95 20.33 95 20.66 95 21 C85.16674726 21.17152626 75.33341427 21.3380244 65.5 21.5 C65.13956289 21.50593863 65.13956289 21.50593863 63.31553268 21.53599167 C42.2091759 21.88227248 21.10970989 22.15509175 0 22 C0 14.74 0 7.48 0 0 Z " fill="#8595D6" transform="translate(0,181)"/>
<path d="M0 0 C51.74207306 -3.53950195 51.74207306 -3.53950195 62.0390625 4.41796875 C66.92905495 8.93067228 71.00652811 14.03918378 74 20 C74 20.33 74 20.66 74 21 C49.32742228 22.0469348 24.69132137 22.10437853 0 22 C0 14.74 0 7.48 0 0 Z " fill="#FEE0B1" transform="translate(341,224)"/>
<path d="M0 0 C21.12 0 42.24 0 64 0 C64 7.26 64 14.52 64 22 C18.13 22 -27.74 22 -75 22 C-75 21.67 -75 21.34 -75 21 C-43.98 20.67 -12.96 20.34 19 20 C15.865 16.865 15.865 16.865 0 1 C0 0.67 0 0.34 0 0 Z " fill="#EF6191" transform="translate(448,181)"/>
<path d="M0 0 C0.41966034 0.36958832 0.83932068 0.73917664 1.271698 1.1199646 C4.32814943 3.78005979 7.37342678 6.28686718 10.71533203 8.58056641 C16.00012869 12.54572339 20.19710031 16.53905932 21.7322998 23.15661621 C22.67705867 31.53001897 22.35024132 39.91426449 21.96130371 48.3114624 C21.81637486 51.77673782 21.75379411 55.24348602 21.68359375 58.7109375 C21.53479546 65.47752084 21.29687898 72.2383336 21 79 C20.58033966 78.63041168 20.16067932 78.26082336 19.728302 77.8800354 C16.67185057 75.21994021 13.62657322 72.71313282 10.28466797 70.41943359 C4.99987131 66.45427661 0.80289969 62.46094068 -0.7322998 55.84338379 C-1.67705867 47.46998103 -1.35024132 39.08573551 -0.96130371 30.6885376 C-0.81637486 27.22326218 -0.75379411 23.75651398 -0.68359375 20.2890625 C-0.53479546 13.52247916 -0.29687898 6.7616664 0 0 Z " fill="#9475CD" transform="translate(224,395)"/>
<path d="M0 0 C40.77900837 -3.29453389 40.77900837 -3.29453389 50.30859375 4.41796875 C55.23726499 9.03450759 59.55529107 14.17862417 63 20 C63 20.33 63 20.66 63 21 C41.9878195 21.82503967 21.02764804 22.12508185 0 22 C0 14.74 0 7.48 0 0 Z " fill="#FECB80" transform="translate(341,181)"/>
<path d="M0 0 C17.49 0 34.98 0 53 0 C53 7.26 53 14.52 53 22 C31.88 22 10.76 22 -11 22 C-11 21.67 -11 21.34 -11 21 C-6.05 20.835 -6.05 20.835 19 20 C9.5 10.5625 9.5 10.5625 6.49414062 7.58422852 C5.72263672 6.81522217 4.95113281 6.04621582 4.15625 5.25390625 C3.36025391 4.46314697 2.56425781 3.6723877 1.74414062 2.85766602 C0 1 0 1 0 0 Z " fill="#F48EAF" transform="translate(459,224)"/>
<path d="M0 0 C17.49 0 34.98 0 53 0 C53 7.26 53 14.52 53 22 C24.5559385 25.35366664 24.5559385 25.35366664 15.77275085 18.70576477 C9.78235039 13.58008994 4.49507807 7.46206117 0 1 C0 0.67 0 0.34 0 0 Z " fill="#64B5F5" transform="translate(118,224)"/>
<path d="M0 0 C2.31 1.98 4.62 3.96 7 6 C8.23621094 6.82113281 9.47242188 7.64226562 10.74609375 8.48828125 C16.55664259 12.70925296 20.43750785 16.55250952 21.63232422 23.87548828 C22.40091706 33.57022166 21.70802553 43.32365109 21 53 C14.07 53 7.14 53 0 53 C0 35.51 0 18.02 0 0 Z " fill="#9475CC" transform="translate(267,438)"/>
<path d="M0 0 C6.93 0 13.86 0 21 0 C21 17.49 21 34.98 21 53 C18.69 51.02 16.38 49.04 14 47 C12.76378906 46.17886719 11.52757812 45.35773438 10.25390625 44.51171875 C4.44335741 40.29074704 0.56249215 36.44749048 -0.63232422 29.12451172 C-1.40091706 19.42977834 -0.70802553 9.67634891 0 0 Z " fill="#A6D4F3" transform="translate(267,309)"/>
<path d="M0 0 C29.98540377 -3.23583494 29.98540377 -3.23583494 39.64453125 4.41796875 C44.62037548 9.14304555 49.16374345 14.30092864 53 20 C53 20.33 53 20.66 53 21 C35.51 21 18.02 21 0 21 C0 14.07 0 7.14 0 0 Z " fill="#FF9800" transform="translate(341,203)"/>
<path d="M0 0 C29.98540377 -3.23583494 29.98540377 -3.23583494 39.64453125 4.41796875 C44.62037548 9.14304555 49.16374345 14.30092864 53 20 C53 20.33 53 20.66 53 21 C35.51 21 18.02 21 0 21 C0 14.07 0 7.14 0 0 Z " fill="#673AB7" transform="translate(0,203)"/>
<path d="M0 0 C27.04174904 -3.27564981 27.04174904 -3.27564981 34.94677734 1.94677734 C37.48880072 4.48880072 39.72827783 7.10210326 41.9375 9.9375 C46.66282823 15.99979112 50.47740005 20.28075602 58.26417542 21.35011292 C67.15917127 22.13072144 76.11455279 21.73912074 85 21 C85 21.33 85 21.66 85 22 C77.01977871 22.49279414 69.04616408 22.86257156 61.0543642 23.08805561 C57.34000753 23.19646185 53.63623218 23.34243324 49.92797852 23.58422852 C23.6742013 25.25226637 23.6742013 25.25226637 14.23193359 17.26708984 C8.88096983 12.42859269 4.10573697 6.92909596 0 1 C0 0.67 0 0.34 0 0 Z " fill="#62B2F5" transform="translate(75,181)"/>
<path d="M0 0 C0.99128906 0.86882812 1.98257813 1.73765625 3.00390625 2.6328125 C5.56479759 4.84850937 8.17244766 6.83011544 10.96484375 8.7421875 C16.88492577 13.20098806 21.33668701 17.2674349 22.6796875 24.82470703 C23.49317879 34.18553303 22.82339761 43.66224883 22 53 C21.00871094 52.13117188 20.01742188 51.26234375 18.99609375 50.3671875 C16.43520241 48.15149063 13.82755234 46.16988456 11.03515625 44.2578125 C5.11507423 39.79901194 0.66331299 35.7325651 -0.6796875 28.17529297 C-1.49317879 18.81446697 -0.82339761 9.33775117 0 0 Z " fill="#6003EA" transform="translate(245,384)"/>
<path d="M0 0 C26.30624017 -3.18655537 26.30624017 -3.18655537 35.47851562 1.94677734 C41.88951407 7.05800342 47.38322669 13.22335756 52 20 C52 20.33 52 20.66 52 21 C30.98867618 21.82500603 10.02694768 22.13644321 -11 22 C-11 21.67 -11 21.34 -11 21 C-6.05 20.835 -6.05 20.835 19 20 C9.5 10.5625 9.5 10.5625 6.49414062 7.58422852 C5.72263672 6.81522217 4.95113281 6.04621582 4.15625 5.25390625 C3.36025391 4.46314697 2.56425781 3.6723877 1.74414062 2.85766602 C0 1 0 1 0 0 Z " fill="#FECB81" transform="translate(395,224)"/>
<path d="M0 0 C26.30624017 -3.18655537 26.30624017 -3.18655537 35.47851562 1.94677734 C41.88951407 7.05800342 47.38322669 13.22335756 52 20 C52 20.33 52 20.66 52 21 C30.98867618 21.82500603 10.02694768 22.13644321 -11 22 C-11 21.67 -11 21.34 -11 21 C-6.05 20.835 -6.05 20.835 19 20 C9.5 10.5625 9.5 10.5625 6.49414062 7.58422852 C5.72263672 6.81522217 4.95113281 6.04621582 4.15625 5.25390625 C3.36025391 4.46314697 2.56425781 3.6723877 1.74414062 2.85766602 C0 1 0 1 0 0 Z " fill="#8695D5" transform="translate(54,224)"/>
<path d="M0 0 C7.87700572 6.75171919 7.87700572 6.75171919 10.54858398 9.41918945 C11.14867783 10.01613113 11.74877167 10.61307281 12.36705017 11.22810364 C12.67709236 11.53915794 12.67709236 11.53915794 14.24609375 13.11328125 C14.90207047 13.76830124 15.55804718 14.42332123 16.23390198 15.09819031 C17.60564902 16.46926195 18.9761546 17.84157673 20.34545898 19.21508789 C22.45247257 21.32751101 24.56484026 23.43447608 26.67773438 25.54101562 C28.01334205 26.87728318 29.34863999 28.21386041 30.68359375 29.55078125 C31.00072075 29.86689613 31.00072075 29.86689613 32.60557556 31.46662903 C37 35.88501756 37 35.88501756 37 37 C24.79 37 12.58 37 0 37 C0 24.79 0 12.58 0 0 Z " fill="#EA407B" transform="translate(224,454)"/>
<path d="M0 0 C4.8541568 4.05418292 9.463369 8.28100578 13.9375 12.75 C14.52595703 13.32621094 15.11441406 13.90242188 15.72070312 14.49609375 C17.18760223 15.95788171 18.59911788 17.47482909 20 19 C20 19.66 20 20.32 20 21 C20.66 21 21.32 21 22 21 C22 31.56 22 42.12 22 53 C19.69 51.02 17.38 49.04 15 47 C13.69215128 46.06634745 12.37342231 45.14731759 11.03515625 44.2578125 C5.11507423 39.79901194 0.66331299 35.7325651 -0.6796875 28.17529297 C-1.49317879 18.81446697 -0.82339761 9.33775117 0 0 Z " fill="#3452FC" transform="translate(245,352)"/>
<path d="M0 0 C18.36567649 -2.35457391 18.36567649 -2.35457391 25.00488281 1.94677734 C31.30149046 7.2954063 36.98861282 13.42924029 42 20 C42 20.33 42 20.66 42 21 C35.07 21.165 35.07 21.165 0 22 C0 14.74 0 7.48 0 0 Z " fill="#FFF8C3" transform="translate(341,224)"/>
<path d="M0 0 C0.20951294 0.1853833 0.20951294 0.1853833 1.26977539 1.12353516 C4.32839783 3.79258613 7.36190937 6.27799867 10.74609375 8.5234375 C16.46179072 12.72380314 20.42143083 16.5437752 21.63232422 23.77734375 C22.3972588 33.15675029 21.7658027 42.64037627 21 52 C20.79048706 51.8146167 20.79048706 51.8146167 19.73022461 50.87646484 C16.67160217 48.20741387 13.63809063 45.72200133 10.25390625 43.4765625 C4.53820928 39.27619686 0.57856917 35.4562248 -0.63232422 28.22265625 C-1.3972588 18.84324971 -0.7658027 9.35962373 0 0 Z " fill="#8595D6" transform="translate(267,406)"/>
<path d="M0 0 C0.20951294 0.1853833 0.20951294 0.1853833 1.26977539 1.12353516 C4.32839783 3.79258613 7.36190937 6.27799867 10.74609375 8.5234375 C16.46179072 12.72380314 20.42143083 16.5437752 21.63232422 23.77734375 C22.3972588 33.15675029 21.7658027 42.64037627 21 52 C20.79048706 51.8146167 20.79048706 51.8146167 19.73022461 50.87646484 C16.67160217 48.20741387 13.63809063 45.72200133 10.25390625 43.4765625 C4.53820928 39.27619686 0.57856917 35.4562248 -0.63232422 28.22265625 C-1.3972588 18.84324971 -0.7658027 9.35962373 0 0 Z " fill="#8595D6" transform="translate(224,363)"/>
<path d="M0 0 C0.20951294 0.1853833 0.20951294 0.1853833 1.26977539 1.12353516 C4.32839783 3.79258613 7.36190937 6.27799867 10.74609375 8.5234375 C16.46179072 12.72380314 20.42143083 16.5437752 21.63232422 23.77734375 C22.3972588 33.15675029 21.7658027 42.64037627 21 52 C20.79048706 51.8146167 20.79048706 51.8146167 19.73022461 50.87646484 C16.67160217 48.20741387 13.63809063 45.72200133 10.25390625 43.4765625 C4.53820928 39.27619686 0.57856917 35.4562248 -0.63232422 28.22265625 C-1.3972588 18.84324971 -0.7658027 9.35962373 0 0 Z " fill="#64B5F5" transform="translate(267,342)"/>
<path d="M0 0 C6.93 0 13.86 0 21 0 C21 13.86 21 27.72 21 42 C18.69 40.02 16.38 38.04 14 36 C12.75738265 35.03379536 11.51020638 34.07334553 10.25390625 33.125 C0.7559555 25.3425492 0.7559555 25.3425492 -0.63232422 19.20410156 C-1.22249006 12.62796796 -0.57666448 6.67283183 0 0 Z " fill="#64B5F5" transform="translate(224,309)"/>
<path d="M0 0 C18.36567649 -2.35457391 18.36567649 -2.35457391 25.00488281 1.94677734 C31.30149046 7.2954063 36.98861282 13.42924029 42 20 C42 20.33 42 20.66 42 21 C28.14 21 14.28 21 0 21 C0 14.07 0 7.14 0 0 Z " fill="#A05DB2" transform="translate(0,224)"/>
<path d="M0 0 C26.30624017 -3.18655537 26.30624017 -3.18655537 35.47851562 1.94677734 C41.88951407 7.05800342 47.38322669 13.22335756 52 20 C52 20.33 52 20.66 52 21 C25.69375983 24.18655537 25.69375983 24.18655537 16.52148438 19.05322266 C10.11048593 13.94199658 4.61677331 7.77664244 0 1 C0 0.67 0 0.34 0 0 Z " fill="#F40056" transform="translate(438,203)"/>
<path d="M0 0 C26.30624017 -3.18655537 26.30624017 -3.18655537 35.47851562 1.94677734 C41.88951407 7.05800342 47.38322669 13.22335756 52 20 C52 20.33 52 20.66 52 21 C25.69375983 24.18655537 25.69375983 24.18655537 16.52148438 19.05322266 C10.11048593 13.94199658 4.61677331 7.77664244 0 1 C0 0.67 0 0.34 0 0 Z " fill="#FF5822" transform="translate(374,203)"/>
<path d="M0 0 C13.86 0 27.72 0 42 0 C42 6.93 42 13.86 42 21 C23.63432351 23.35457391 23.63432351 23.35457391 16.99511719 19.05322266 C10.69850954 13.7045937 5.01138718 7.57075971 0 1 C0 0.67 0 0.34 0 0 Z " fill="#1876D2" transform="translate(129,203)"/>
<path d="M0 0 C26.30624017 -3.18655537 26.30624017 -3.18655537 35.47851562 1.94677734 C41.88951407 7.05800342 47.38322669 13.22335756 52 20 C52 20.33 52 20.66 52 21 C25.69375983 24.18655537 25.69375983 24.18655537 16.52148438 19.05322266 C10.11048593 13.94199658 4.61677331 7.77664244 0 1 C0 0.67 0 0.34 0 0 Z " fill="#2F4FFD" transform="translate(97,203)"/>
<path d="M0 0 C26.30624017 -3.18655537 26.30624017 -3.18655537 35.47851562 1.94677734 C41.88951407 7.05800342 47.38322669 13.22335756 52 20 C52 20.33 52 20.66 52 21 C25.69375983 24.18655537 25.69375983 24.18655537 16.52148438 19.05322266 C10.11048593 13.94199658 4.61677331 7.77664244 0 1 C0 0.67 0 0.34 0 0 Z " fill="#6100E9" transform="translate(33,203)"/>
<path d="M0 0 C26.30624017 -3.18655537 26.30624017 -3.18655537 35.47851562 1.94677734 C41.88951407 7.05800342 47.38322669 13.22335756 52 20 C52 20.33 52 20.66 52 21 C25.69375983 24.18655537 25.69375983 24.18655537 16.52148438 19.05322266 C10.11048593 13.94199658 4.61677331 7.77664244 0 1 C0 0.67 0 0.34 0 0 Z " fill="#9DA8DA" transform="translate(43,181)"/>
<path d="M0 0 C26.30624017 -3.18655537 26.30624017 -3.18655537 35.47851562 1.94677734 C41.88951407 7.05800342 47.38322669 13.22335756 52 20 C52 20.33 52 20.66 52 21 C25.69375983 24.18655537 25.69375983 24.18655537 16.52148438 19.05322266 C10.11048593 13.94199658 4.61677331 7.77664244 0 1 C0 0.67 0 0.34 0 0 Z " fill="#F48EB0" transform="translate(416,181)"/>
<path d="M0 0 C10.56 0 21.12 0 32 0 C32 7.26 32 14.52 32 22 C-13.87 22 -59.74 22 -107 22 C-107 21.67 -107 21.34 -107 21 C-65.42 20.67 -23.84 20.34 19 20 C15.865 16.865 15.865 16.865 0 1 C0 0.67 0 0.34 0 0 Z " fill="#EB3E75" transform="translate(480,181)"/>
<path d="M0 0 C0.99128906 0.8559375 1.98257813 1.711875 3.00390625 2.59375 C4.96837153 4.28846633 6.93770608 5.95142822 8.98388672 7.546875 C21.0332473 16.95589012 21.0332473 16.95589012 22.6796875 23.84326172 C23.29279345 30.2653394 22.85277727 36.61772743 22 43 C17.72632959 43.68082131 15.33748997 42.88207484 11.9140625 40.44921875 C6.21643714 35.72206804 0.87426601 31.07309914 -0.73144531 23.59228516 C-1.39375212 15.69821876 -0.89692461 7.85843943 0 0 Z " fill="#8F26A9" transform="translate(245,448)"/>
<path d="M0 0 C0.20951294 0.18357056 0.20951294 0.18357056 1.26977539 1.11254883 C4.34758408 3.78344491 7.43014052 6.32893595 10.74609375 8.69921875 C15.99034876 12.77469868 20.33106807 16.5231036 21.63232422 23.28662109 C22.22175683 31.21358369 21.77791754 39.09943529 21 47 C20.58097412 46.63285889 20.16194824 46.26571777 19.73022461 45.88745117 C16.65241592 43.21655509 13.56985948 40.67106405 10.25390625 38.30078125 C5.00965124 34.22530132 0.66893193 30.4768964 -0.63232422 23.71337891 C-1.22175683 15.78641631 -0.77791754 7.90056471 0 0 Z " fill="#A15CB1" transform="translate(224,427)"/>
<path d="M0 0 C7.26 0 14.52 0 22 0 C22 21.12 22 42.24 22 64 C21.34 63.67 20.68 63.34 20 63 C20.08902588 62.11965088 20.17805176 61.23930176 20.26977539 60.33227539 C22.634795 33.39429698 22.634795 33.39429698 16.28515625 25.125 C11.84712932 20.4155984 6.82532321 15.9126616 1 13 C1 22.9 1 32.8 1 43 C0.67 43 0.34 43 0 43 C0 28.81 0 14.62 0 0 Z " fill="#0F9BE4" transform="translate(245,309)"/>
<path d="M0 0 C11 0 11 0 14.17651367 1.91186523 C14.99869385 2.78528564 15.82087402 3.65870605 16.66796875 4.55859375 C17.57998047 5.50154297 18.49199219 6.44449219 19.43164062 7.41601562 C20.35066893 8.42280433 21.26928405 9.42997035 22.1875 10.4375 C23.14652604 11.44320502 24.10809933 12.44648749 25.07226562 13.44726562 C32 20.73307385 32 20.73307385 32 22 C21.44 22 10.88 22 0 22 C0 14.74 0 7.48 0 0 Z " fill="#9474CC" transform="translate(0,181)"/>
<path d="M0 0 C10.56 0 21.12 0 32 0 C32 7.26 32 14.52 32 22 C21 22 21 22 17.82348633 20.08813477 C17.00130615 19.21471436 16.17912598 18.34129395 15.33203125 17.44140625 C14.42001953 16.49845703 13.50800781 15.55550781 12.56835938 14.58398438 C11.64933107 13.57719567 10.73071595 12.57002965 9.8125 11.5625 C8.85347396 10.55679498 7.89190067 9.55351251 6.92773438 8.55273438 C0 1.26692615 0 1.26692615 0 0 Z " fill="#A4D3F3" transform="translate(139,181)"/>
<path d="M0 0 C9.22496153 -1.18574687 9.22496153 -1.18574687 13.78271484 1.85888672 C16.5613752 4.44419587 19.13676537 7.12730396 21.6875 9.9375 C22.59177734 10.88302734 23.49605469 11.82855469 24.42773438 12.80273438 C31 19.73267432 31 19.73267432 31 21 C20.77 21 10.54 21 0 21 C0 14.07 0 7.14 0 0 Z " fill="#FFDFB1" transform="translate(341,181)"/>
<path d="M0 0 C6.93 0 13.86 0 21 0 C21 7.26 21 14.52 21 22 C10.44 22 -0.12 22 -11 22 C-11 21.67 -11 21.34 -11 21 C-1.1 21 8.8 21 19 21 C14.61353688 15.98689929 10.30867462 11.18957363 5.5625 6.5625 C3.68377211 4.72855704 1.83266853 2.88081745 0 1 C0 0.67 0 0.34 0 0 Z " fill="#8EC8F8" transform="translate(150,224)"/>
<path d="M0 0 C6.93 0 13.86 0 21 0 C21 7.26 21 14.52 21 22 C10.44 22 -0.12 22 -11 22 C-11 21.67 -11 21.34 -11 21 C-6.05 20.835 -6.05 20.835 19 20 C9.5 10.5625 9.5 10.5625 6.49414062 7.58422852 C5.72263672 6.81522217 4.95113281 6.04621582 4.15625 5.25390625 C3.36025391 4.46314697 2.56425781 3.6723877 1.74414062 2.85766602 C0 1 0 1 0 0 Z " fill="#F06393" transform="translate(491,224)"/>
<path d="M0 0 C3.66984084 1.83492042 5.50176564 3.25545685 8.328125 6.09765625 C9.12734375 6.89880859 9.9265625 7.69996094 10.75 8.52539062 C11.575 9.36263672 12.4 10.19988281 13.25 11.0625 C14.09046875 11.90361328 14.9309375 12.74472656 15.796875 13.61132812 C22 19.85976816 22 19.85976816 22 21 C14.74 21 7.48 21 0 21 C0 14.07 0 7.14 0 0 Z " fill="#FEC00E" transform="translate(341,203)"/>
<path d="M0 0 C7.26 0 14.52 0 22 0 C22 3.63 22 7.26 22 11 C14.74 11 7.48 11 0 11 C0 7.37 0 3.74 0 0 Z " fill="#63B4F6" transform="translate(245,277)"/>
<path d="M0 0 C7.26 0 14.52 0 22 0 C22 3.63 22 7.26 22 11 C14.74 11 7.48 11 0 11 C0 7.37 0 3.74 0 0 Z " fill="#4CB5AB" transform="translate(245,245)"/>
<path d="M0 0 C3.63 0 7.26 0 11 0 C11 7.26 11 14.52 11 22 C7.37 22 3.74 22 0 22 C0 14.74 0 7.48 0 0 Z " fill="#ADD580" transform="translate(309,202)"/>
<path d="M0 0 C3.63 0 7.26 0 11 0 C11 7.26 11 14.52 11 22 C7.37 22 3.74 22 0 22 C0 14.74 0 7.48 0 0 Z " fill="#65BA69" transform="translate(277,202)"/>
<path d="M0 0 C3.63 0 7.26 0 11 0 C11 7.26 11 14.52 11 22 C7.37 22 3.74 22 0 22 C0 14.74 0 7.48 0 0 Z " fill="#4DB5AB" transform="translate(224,202)"/>
<path d="M0 0 C3.63 0 7.26 0 11 0 C11 7.26 11 14.52 11 22 C7.37 22 3.74 22 0 22 C0 14.74 0 7.48 0 0 Z " fill="#63B4F5" transform="translate(192,202)"/>
<path d="M0 0 C6.93 0 13.86 0 21 0 C21 6.93 21 13.86 21 21 C13.11134235 14.23829344 13.11134235 14.23829344 10.25390625 11.38671875 C9.64482422 10.77892578 9.03574219 10.17113281 8.40820312 9.54492188 C7.79912109 8.93197266 7.19003906 8.31902344 6.5625 7.6875 C5.92634766 7.05521484 5.29019531 6.42292969 4.63476562 5.77148438 C4.03470703 5.17013672 3.43464844 4.56878906 2.81640625 3.94921875 C2.27443604 3.40612061 1.73246582 2.86302246 1.17407227 2.3034668 C0 1 0 1 0 0 Z " fill="#C7E5C9" transform="translate(267,309)"/>
<path d="M0 0 C7.88865765 6.76170656 7.88865765 6.76170656 10.74609375 9.61328125 C11.35517578 10.22107422 11.96425781 10.82886719 12.59179688 11.45507812 C13.20087891 12.06802734 13.80996094 12.68097656 14.4375 13.3125 C15.07365234 13.94478516 15.70980469 14.57707031 16.36523438 15.22851562 C16.66526367 15.52918945 16.66526367 15.52918945 18.18359375 17.05078125 C18.72556396 17.59387939 19.26753418 18.13697754 19.82592773 18.6965332 C21 20 21 20 21 21 C14.07 21 7.14 21 0 21 C0 14.07 0 7.14 0 0 Z " fill="#8E24AA" transform="translate(0,203)"/>
<path d="M0 0 C4.85450942 4.16100808 9.43770611 8.25537235 13.9375 12.75 C14.52595703 13.32621094 15.11441406 13.90242188 15.72070312 14.49609375 C17.18760223 15.95788171 18.59911788 17.47482909 20 19 C20 19.66 20 20.32 20 21 C13.4 21 6.8 21 0 21 C0 14.07 0 7.14 0 0 Z " fill="#A05EB3" transform="translate(267,470)"/>
<path d="M0 0 C5.64426769 4.68354127 11.0058046 9.6207646 16 15 C16 15.33 16 15.66 16 16 C10.72 16 5.44 16 0 16 C0 10.72 0 5.44 0 0 Z " fill="#C41B5E" transform="translate(245,475)"/>
<path d="M0 0 C3.3 0 6.6 0 10 0 C10 3.3 10 6.6 10 10 C6.06910841 6.7366183 3.08825885 4.11767846 0 0 Z " fill="#A7D4F2" transform="translate(235,309)"/>
<path d="M0 0 C3.3 0 6.6 0 10 0 C10 3.3 10 6.6 10 10 C6.06910841 6.7366183 3.08825885 4.11767846 0 0 Z " fill="#C2185B" transform="translate(502,203)"/>
<path d="M0 0 C3.3 0 6.6 0 10 0 C10 3.3 10 6.6 10 10 C6.06910841 6.7366183 3.08825885 4.11767846 0 0 Z " fill="#0A9DE5" transform="translate(161,203)"/>
</svg>
