<?xml version="1.0" encoding="UTF-8"?>
<!-- Generator: visioncortex VTracer 0.6.12 -->
<svg version="1.1" xmlns="http://www.w3.org/2000/svg" width="512" height="512">
<path d="M0 0 C2.12890625 1.37890625 2.12890625 1.37890625 4.15625 1.3359375 C6.6656471 0.11850722 8.26062228 -1.41353171 10.25390625 -3.37109375 C34.44739362 -25.6573573 67.46796268 -44.92772178 101.12890625 -44.62109375 C116.16216207 -43.54492456 128.64728132 -37.94719004 138.94140625 -26.74609375 C158.49335786 -2.53891557 159.23957103 31.49316781 156.15136719 61.09179688 C155.12138502 70.25787894 153.88836757 79.3218589 152.12890625 88.37890625 C152.71663818 88.61327393 153.30437012 88.8476416 153.90991211 89.08911133 C156.65048135 90.18346284 159.38989242 91.28066749 162.12890625 92.37890625 C163.0533252 92.74935059 163.97774414 93.11979492 164.93017578 93.50146484 C194.82799314 105.54629439 229.22530302 121.19595657 244.06640625 151.94140625 C250.32001149 167.24278078 250.90009519 181.32537629 244.79296875 196.75390625 C235.44682513 217.17864939 218.06369304 230.31725056 199.12890625 241.37890625 C198.54334961 241.72663086 197.95779297 242.07435547 197.35449219 242.43261719 C183.56765067 250.54019754 168.29865572 256.41486977 153.12890625 261.37890625 C153.28037109 262.25587158 153.43183594 263.13283691 153.58789062 264.03637695 C156.44857232 281.01892388 158.64223397 297.75664675 158.62890625 315.00390625 C158.632854 315.7064151 158.63680176 316.40892395 158.64086914 317.13272095 C158.70603931 341.26658103 153.02577947 364.31376901 136.21875 382.37890625 C124.43993611 393.65134122 109.88255921 395.89682045 94.21875 395.65625 C62.39264774 394.4467498 28.93276798 372.61130623 7.12890625 350.6796875 C5.12890625 349.37890625 5.12890625 349.37890625 2.671875 349.40625 C-0.50274913 350.62050716 -2.15242473 352.22661189 -4.55859375 354.62890625 C-28.3342859 377.2460196 -61.10733609 395.9985877 -94.53613281 395.80102539 C-108.94151008 395.38033982 -121.1720781 389.61495447 -131.64453125 379.80859375 C-150.35857389 359.38730511 -153.04074349 330.06235342 -152.05273438 303.5703125 C-151.24869693 289.4434611 -149.21801669 275.32655387 -146.87109375 261.37890625 C-147.49862549 261.15340088 -148.12615723 260.92789551 -148.77270508 260.69555664 C-172.97797507 251.94514981 -196.15813674 242.32027001 -215.87109375 225.37890625 C-216.61488281 224.77949219 -217.35867187 224.18007813 -218.125 223.5625 C-231.93124348 212.06129891 -241.4399861 196.45454715 -243.15625 178.375 C-243.68947833 160.59299455 -235.78974095 145.43102883 -224.03125 132.62890625 C-214.85231008 123.02062429 -204.26698311 116.03635668 -192.87109375 109.37890625 C-192.28553711 109.03118164 -191.69998047 108.68345703 -191.09667969 108.32519531 C-177.30983817 100.21761496 -162.04084322 94.34294273 -146.87109375 89.37890625 C-147.06445312 88.095 -147.2578125 86.81109375 -147.45703125 85.48828125 C-158.82570195 8.87586948 -158.82570195 8.87586948 -137.70703125 -21.234375 C-137.10117188 -22.02199219 -136.4953125 -22.80960938 -135.87109375 -23.62109375 C-135.26523438 -24.41902344 -134.659375 -25.21695313 -134.03515625 -26.0390625 C-125.54931923 -36.37792924 -113.84991539 -42.3787343 -100.68359375 -44.43359375 C-62.46596417 -47.19797925 -27.32281495 -24.51597682 0 0 Z M-117.12109375 -11.43359375 C-131.58907282 6.80167073 -131.01378162 34.48447082 -128.87109375 56.37890625 C-128.3060185 61.18370201 -127.64783747 65.96913165 -126.93359375 70.75390625 C-126.7639209 71.89609619 -126.59424805 73.03828613 -126.41943359 74.21508789 C-126.25008301 75.26688232 -126.08073242 76.31867676 -125.90625 77.40234375 C-125.75551025 78.33997559 -125.60477051 79.27760742 -125.44946289 80.24365234 C-125.25860107 80.94828613 -125.06773926 81.65291992 -124.87109375 82.37890625 C-122.09232102 83.76829262 -120.68671099 83.03140337 -117.68359375 82.3046875 C-116.60480957 82.05106445 -115.52602539 81.79744141 -114.41455078 81.53613281 C-113.82988037 81.39675293 -113.82988037 81.39675293 -110.87109375 80.69140625 C-99.26408779 78.01107042 -87.66560187 75.93997587 -75.87890625 74.23828125 C-74.9053418 74.09438965 -73.93177734 73.95049805 -72.92871094 73.80224609 C-70.75176507 73.50083886 -68.56906625 73.23980698 -66.38378906 73.00634766 C-57.58154067 71.95564546 -57.58154067 71.95564546 -54.08984375 69.12109375 C-53.80625 68.64800781 -53.80625 68.64800781 -52.37109375 66.25390625 C-51.66984375 65.18140625 -50.96859375 64.10890625 -50.24609375 63.00390625 C-50.06046875 62.71257812 -50.06046875 62.71257812 -49.12109375 61.23828125 C-46.76538742 57.73416808 -44.05115047 54.51227077 -41.37109375 51.25390625 C-40.81341309 50.56989746 -40.25573242 49.88588867 -39.68115234 49.18115234 C-35.86589011 44.52278778 -31.93499702 39.99181366 -27.86328125 35.5546875 C-25.91111902 33.42262013 -24.01165015 31.25312277 -22.12109375 29.06640625 C-19.48493472 26.03697408 -16.75366163 23.17412359 -13.87109375 20.37890625 C-21.32860807 3.33848602 -50.73474456 -10.6904286 -67.26318359 -17.34155273 C-84.86689119 -24.05062869 -103.14838461 -26.29969862 -117.12109375 -11.43359375 Z M63.12890625 -12.62109375 C62.52111328 -12.31075195 61.91332031 -12.00041016 61.28710938 -11.68066406 C46.02512047 -3.83274794 32.54676848 6.57125838 20.12890625 18.37890625 C21.70305807 22.25581732 24.19050119 24.57556302 27.19140625 27.44140625 C31.77407841 31.90543804 35.90075526 36.56775572 39.890625 41.578125 C42.98201598 45.44641005 46.20600075 49.19865893 49.4296875 52.95703125 C51.31982429 55.25330157 52.89440502 57.57458187 54.38745117 60.14526367 C60.91518369 71.01408772 60.91518369 71.01408772 67.22167969 73.05810547 C71.95234833 74.14950061 76.73740185 74.54395685 81.56640625 74.94140625 C84.1665676 75.23152025 86.76324484 75.54526511 89.36061096 75.85931396 C91.0988069 76.06730895 92.8379654 76.26741513 94.57798767 76.45953369 C102.70307165 77.36858685 110.59928511 78.94732544 118.56640625 80.75390625 C119.74968506 81.0176001 120.93296387 81.28129395 122.15209961 81.55297852 C124.81362039 82.15117048 127.47243629 82.75874199 130.12890625 83.37890625 C135.41780285 68.8919286 135.43944156 53.1789049 135.50390625 37.94140625 C135.5115802 37.17681091 135.51925415 36.41221558 135.52716064 35.62445068 C135.68314377 16.15994725 132.22281384 -1.71543683 118.56640625 -16.37109375 C112.26882259 -21.24717559 102.77302229 -23.38683804 94.91015625 -23.00390625 C83.5327566 -21.43791585 73.29876856 -17.94475407 63.12890625 -12.62109375 Z M2.12890625 35.37890625 C-2.80016756 40.17314218 -7.40802644 45.15049599 -11.87109375 50.37890625 C-12.30534668 50.88292969 -12.73959961 51.38695312 -13.18701172 51.90625 C-14.64803869 53.60221849 -16.10386202 55.30253619 -17.55859375 57.00390625 C-18.02233398 57.54225098 -18.48607422 58.0805957 -18.96386719 58.63525391 C-19.41149414 59.1616748 -19.85912109 59.6880957 -20.3203125 60.23046875 C-20.71565186 60.69275879 -21.11099121 61.15504883 -21.51831055 61.63134766 C-23.4397435 64.11350198 -25.12991867 66.76714362 -26.87109375 69.37890625 C-7.07109375 69.37890625 12.72890625 69.37890625 33.12890625 69.37890625 C28.62326827 62.62044928 28.62326827 62.62044928 26.53515625 60.1875 C26.06779053 59.6411792 25.6004248 59.0948584 25.11889648 58.53198242 C24.62719971 57.96584229 24.13550293 57.39970215 23.62890625 56.81640625 C23.11207275 56.21868408 22.59523926 55.62096191 22.06274414 55.00512695 C18.27722437 50.65049357 14.4474262 46.33612711 10.56640625 42.06640625 C10.06625 41.50945068 9.56609375 40.95249512 9.05078125 40.37866211 C6.76494799 37.89281844 5.38785991 36.46522414 2.12890625 35.37890625 Z M-36.87109375 91.37890625 C-38.1240625 91.48589844 -39.37703125 91.59289062 -40.66796875 91.703125 C-44.19776981 92.44782693 -45.02758062 92.87521537 -47.05859375 95.75390625 C-47.34669922 96.16125 -47.34669922 96.16125 -48.8046875 98.22265625 C-49.48660156 99.26421875 -50.16851562 100.30578125 -50.87109375 101.37890625 C-51.3005127 102.03246094 -51.72993164 102.68601563 -52.17236328 103.359375 C-64.25644924 121.85703458 -75.08907138 141.10715244 -85.41308594 160.63330078 C-86.38761352 162.46845437 -87.38329598 164.29252447 -88.39941406 166.10498047 C-88.86702148 166.96752441 -89.33462891 167.83006836 -89.81640625 168.71875 C-90.026604 169.09640503 -90.026604 169.09640503 -91.09033203 171.00756836 C-92.45671167 175.1575513 -91.29672177 178.37563421 -89.63452148 182.29370117 C-89.11317627 183.30537354 -88.59183105 184.3170459 -88.0546875 185.359375 C-87.46365234 186.50970215 -86.87261719 187.6600293 -86.26367188 188.84521484 C-85.61292078 190.08610624 -84.96120206 191.32649059 -84.30859375 192.56640625 C-83.97674072 193.2021759 -83.6448877 193.83794556 -83.30297852 194.49298096 C-76.60801407 207.30290845 -69.44387154 219.7952485 -61.875 232.11132812 C-60.5176297 234.32466196 -59.17158655 236.54497536 -57.8359375 238.77148438 C-55.87530148 242.03354449 -53.8793132 245.27097722 -51.87109375 248.50390625 C-51.57783203 248.99624756 -51.57783203 248.99624756 -50.09375 251.48779297 C-46.02052962 257.89895872 -46.02052962 257.89895872 -42.9375 259.1862793 C-40.86553489 259.47026574 -38.95834558 259.4707534 -36.87109375 259.37890625 C-35.63359375 259.48332031 -34.39609375 259.58773437 -33.12109375 259.6953125 C-21.02545574 260.45410628 -8.92304274 260.48693884 3.19140625 260.50390625 C4.03227783 260.50649445 4.87314941 260.50908264 5.73950195 260.51174927 C14.96366566 260.53408027 24.16177295 260.40629918 33.375 259.93359375 C33.75608162 259.91422256 33.75608162 259.91422256 35.68458557 259.81619263 C49.2244605 259.04789711 49.2244605 259.04789711 52.01953125 256.98046875 C52.468125 256.32820312 52.91671875 255.6759375 53.37890625 255.00390625 C53.94609375 254.18921875 54.51328125 253.37453125 55.09765625 252.53515625 C55.76796875 251.49359375 56.43828125 250.45203125 57.12890625 249.37890625 C57.556875 248.72535156 57.98484375 248.07179688 58.42578125 247.3984375 C70.51339161 228.90173704 81.34633609 209.65169612 91.67089844 190.12451172 C92.64542602 188.28935813 93.64110848 186.46528803 94.65722656 184.65283203 C98.1056449 178.29191427 98.1056449 178.29191427 98.20703125 174.3125 C96.69632484 170.20184595 94.87933936 166.3352645 92.87890625 162.44140625 C92.43635498 161.5709668 91.99380371 160.70052734 91.5378418 159.80371094 C82.19503352 141.62503093 71.73853836 124.14327568 60.73535156 106.92773438 C59.34320369 104.71891618 58.00082759 102.49218955 56.68359375 100.23828125 C56.02617187 99.1503125 55.36875 98.06234375 54.69140625 96.94140625 C54.43423828 96.49861328 54.43423828 96.49861328 53.1328125 94.2578125 C50.16406759 91.47425246 47.0100812 91.55643005 43.12890625 91.37890625 C41.89140625 91.27449219 40.65390625 91.17007813 39.37890625 91.0625 C14.23946465 89.48524176 -11.76492983 89.20393376 -36.87109375 91.37890625 Z M81.12890625 96.37890625 C84.20060809 102.18488814 87.39321361 107.87279972 90.87890625 113.44140625 C95.49796802 120.86204868 99.70433191 128.49660627 103.90771484 136.15820312 C105.96847209 139.90563374 108.04903571 143.64205937 110.12890625 147.37890625 C111.7281188 144.98008743 112.66686444 143.23310591 113.64453125 140.59765625 C113.92353271 139.84669678 114.20253418 139.0957373 114.48999023 138.32202148 C114.78333252 137.51579346 115.0766748 136.70956543 115.37890625 135.87890625 C115.68320557 135.0475415 115.98750488 134.21617676 116.30102539 133.35961914 C118.521913 127.22006031 120.59342031 121.03982242 122.56640625 114.81640625 C122.82518555 114.00171875 123.08396484 113.18703125 123.35058594 112.34765625 C125.12890625 106.63946759 125.12890625 106.63946759 125.12890625 104.37890625 C91.54812702 96.12575383 91.54812702 96.12575383 81.12890625 96.37890625 Z M-87.9921875 97.62109375 C-88.65517349 97.74952667 -89.31815948 97.87795959 -90.00123596 98.01028442 C-91.39595851 98.28169444 -92.79015565 98.55581718 -94.18383789 98.83251953 C-96.29775121 99.25175593 -98.41330389 99.66171713 -100.52929688 100.0703125 C-106.72699696 101.2817998 -112.81674123 102.5789505 -118.87109375 104.37890625 C-116.87043254 113.06419916 -114.27948018 121.41747285 -111.30859375 129.81640625 C-110.90962891 130.96044922 -110.51066406 132.10449219 -110.09960938 133.28320312 C-108.44119491 138.02034362 -106.76382127 142.72955288 -104.87109375 147.37890625 C-102.50310685 145.21422921 -101.08647257 143.16813335 -99.6640625 140.30078125 C-99.24890381 139.4802124 -98.83374512 138.65964355 -98.40600586 137.81420898 C-97.96135986 136.92805908 -97.51671387 136.04190918 -97.05859375 135.12890625 C-91.33663419 123.93590711 -84.87235344 113.26374123 -78.20874023 102.61108398 C-76.98738474 100.57296512 -75.8998909 98.51945324 -74.87109375 96.37890625 C-79.42268118 96.24059714 -83.52681347 96.74961468 -87.9921875 97.62109375 Z M146.12890625 110.37890625 C145.9494043 111.00418213 145.76990234 111.62945801 145.58496094 112.27368164 C140.97925479 128.14845523 135.58565653 143.51978847 129.49882507 158.8764801 C128.78905481 160.67122352 128.08785949 162.46935075 127.38696289 164.26757812 C126.64161411 166.11091692 125.85392653 167.93948447 124.97827148 169.72460938 C123.71170247 172.39858751 122.95259718 174.56089993 123.58618164 177.50048828 C124.52695479 179.9627653 125.6320347 182.27417801 126.81640625 184.62890625 C127.67582039 186.47553281 128.52696525 188.32602373 129.37109375 190.1796875 C129.82323242 191.17049316 130.27537109 192.16129883 130.74121094 193.18212891 C133.24885501 198.95888674 135.3398648 204.88236179 137.44140625 210.81640625 C137.8489917 211.95174805 138.25657715 213.08708984 138.67651367 214.25683594 C141.49093877 222.21824842 143.89330199 230.23958526 146.12890625 238.37890625 C149.79067039 239.71736262 151.8290665 239.02859215 155.390625 237.60546875 C156.41889404 237.19748047 157.44716309 236.78949219 158.5065918 236.36914062 C159.05271118 236.14387695 159.05271118 236.14387695 161.81640625 235.00390625 C162.93893799 234.54564453 164.06146973 234.08738281 165.21801758 233.61523438 C187.36361805 224.42158447 213.52009712 211.35193898 224.12890625 188.37890625 C227.27238864 180.36739212 227.5314248 171.1979378 224.56640625 163.06640625 C222.14713973 157.89912271 218.90516229 153.62901682 215.12890625 149.37890625 C214.41992188 148.57582031 213.7109375 147.77273437 212.98046875 146.9453125 C206.2055505 139.73148759 198.56048751 134.44402445 190.12890625 129.37890625 C189.49662109 128.99879395 188.86433594 128.61868164 188.21289062 128.22705078 C157.890403 110.37890625 157.890403 110.37890625 146.12890625 110.37890625 Z M-149.1328125 113.25 C-150.16108154 113.65476563 -151.18935059 114.05953125 -152.2487793 114.4765625 C-153.34101807 114.91871094 -154.43325684 115.36085937 -155.55859375 115.81640625 C-156.68112549 116.27015625 -157.80365723 116.72390625 -158.96020508 117.19140625 C-181.12369334 126.30364421 -207.27140269 139.42561841 -217.87109375 162.37890625 C-221.01457614 170.39042038 -221.2736123 179.5598747 -218.30859375 187.69140625 C-215.89651048 192.8529271 -212.63776802 197.13201853 -208.87109375 201.37890625 C-208.22398437 202.10851562 -207.576875 202.838125 -206.91015625 203.58984375 C-191.66945565 219.73705443 -171.30353748 228.90028002 -150.86914062 236.60498047 C-149.23819118 237.23671431 -147.63529657 237.94047707 -146.04296875 238.6640625 C-143.34964545 239.55053402 -142.43219814 239.62077526 -139.87109375 238.37890625 C-138.77100969 235.99749748 -137.98354203 233.85055375 -137.2421875 231.35546875 C-137.01075546 230.63074371 -136.77932343 229.90601868 -136.5408783 229.15933228 C-135.78204023 226.77857523 -135.04492374 224.39171157 -134.30859375 222.00390625 C-133.27138386 218.69478708 -132.22005265 215.39050887 -131.15625 212.08984375 C-131.02287231 211.67593384 -131.02287231 211.67593384 -130.34790039 209.58129883 C-128.64833813 204.4236383 -126.71312264 199.46879431 -124.4296875 194.54296875 C-115.73574875 175.74845188 -115.73574875 175.74845188 -117.86303711 168.85546875 C-118.98717283 166.23326581 -120.30837648 163.78949648 -121.765625 161.33837891 C-123.78098607 157.766098 -125.18844185 153.94072626 -126.68359375 150.12890625 C-127.01141846 149.32300049 -127.33924316 148.51709473 -127.67700195 147.68676758 C-132.43091919 135.83647234 -136.08890491 123.56537225 -139.87109375 111.37890625 C-143.74911099 111.37890625 -145.60780624 111.86158611 -149.1328125 113.25 Z M-104.87109375 203.37890625 C-106.22590959 207.12710103 -107.57658819 210.87676085 -108.92382812 214.62768555 C-109.60210248 216.51360174 -110.28342948 218.39841917 -110.96484375 220.28320312 C-118.87109375 242.31606158 -118.87109375 242.31606158 -118.87109375 246.37890625 C-103.9736983 250.16532759 -89.06184753 253.04049409 -73.87109375 255.37890625 C-75.44129201 251.30986555 -77.39192254 247.70261868 -79.68359375 244.00390625 C-83.80397815 237.24903594 -87.73594132 230.39647288 -91.62109375 223.50390625 C-91.89232056 223.02284424 -91.89232056 223.02284424 -93.26489258 220.58837891 C-96.48669606 214.86281626 -99.68732427 209.12569909 -102.87109375 203.37890625 C-103.53109375 203.37890625 -104.19109375 203.37890625 -104.87109375 203.37890625 Z M110.12890625 203.37890625 C106.02353808 209.09864327 102.86765268 215.49193413 99.56640625 221.69140625 C94.98493763 230.22052061 90.08516447 238.46067849 84.78686523 246.5637207 C84.30677002 247.30195068 83.8266748 248.04018066 83.33203125 248.80078125 C82.90567383 249.4462793 82.47931641 250.09177734 82.04003906 250.75683594 C81.12890625 252.37890625 81.12890625 252.37890625 81.12890625 254.37890625 C90.35701891 253.88003123 99.16692412 252.32221779 108.19140625 250.37890625 C109.50833242 250.10223972 110.82538937 249.82619493 112.14257812 249.55078125 C121.62196672 247.54788609 121.62196672 247.54788609 125.12890625 246.37890625 C123.12824504 237.69361334 120.53729268 229.34033965 117.56640625 220.94140625 C117.16744141 219.79736328 116.76847656 218.65332031 116.35742188 217.47460938 C114.69900741 212.73746888 113.02163377 208.02825962 111.12890625 203.37890625 C110.79890625 203.37890625 110.46890625 203.37890625 110.12890625 203.37890625 Z M-123.87109375 267.37890625 C-133.32086167 292.61919546 -133.06899194 328.60773439 -122.59375 353.40234375 C-118.73231977 361.21077607 -113.17190125 367.65057015 -105.12109375 371.31640625 C-87.23873174 377.16256306 -69.97579307 370.22624839 -54.0078125 362.1640625 C-39.19767253 354.34905668 -26.21647636 343.5911378 -13.87109375 332.37890625 C-15.26822987 329.1844493 -16.89642273 327.18955813 -19.43359375 324.81640625 C-23.45155322 320.89961842 -26.95947385 316.71684797 -30.46875 312.34375 C-33.38411305 308.74576536 -36.38551682 305.22291389 -39.44755554 301.7490387 C-42.09935269 298.6812618 -44.41450933 295.60392024 -46.52490234 292.13818359 C-51.23290947 284.67886769 -55.36237087 278.90980819 -64.27044678 276.81794739 C-68.91534802 276.03186404 -73.55614997 275.55062576 -78.24609375 275.12890625 C-80.21550996 274.89550982 -82.18396314 274.65384349 -84.15136719 274.40405273 C-87.98938862 273.91964052 -91.82898141 273.46415187 -95.67285156 273.02880859 C-102.25539517 272.24836384 -108.66709078 270.95611036 -115.12109375 269.44140625 C-116.04712402 269.2290332 -116.9731543 269.01666016 -117.92724609 268.79785156 C-119.9113794 268.33697486 -121.89186276 267.86040079 -123.87109375 267.37890625 Z M124.3984375 268.3828125 C123.89260132 268.50382324 123.89260132 268.50382324 121.33276367 269.11621094 C120.21361572 269.38852539 119.09446777 269.66083984 117.94140625 269.94140625 C109.34215352 272.03031275 100.95667637 273.6052745 92.15234375 274.484375 C62.78557375 277.5591964 62.78557375 277.5591964 55.89453125 285.66894531 C53.78282931 288.75479546 51.93956875 291.89128103 50.26123047 295.23193359 C48.62967072 298.32549471 46.59619835 300.72736768 44.31640625 303.37890625 C43.62160156 304.22066406 42.92679687 305.06242187 42.2109375 305.9296875 C39.29733056 309.35713882 36.29489376 312.69811455 33.265625 316.0234375 C31.25258934 318.24256091 29.27891848 320.49011282 27.31640625 322.75390625 C25.01303365 325.4001064 22.66183306 327.94729651 20.12890625 330.37890625 C27.58642057 347.41932648 56.99255706 361.4482411 73.52099609 368.09936523 C85.54837121 372.6832049 98.57999375 375.83931903 111.12890625 371.37890625 C122.56935415 365.45032977 128.21186934 356.49313361 132.0703125 344.4375 C134.96909225 334.14473131 135.40587209 324.26053598 135.44140625 313.62890625 C135.44304779 313.23100388 135.44304779 313.23100388 135.45135498 311.21737671 C135.47015855 297.09500531 135.31821065 281.97779453 131.12890625 268.37890625 C128.43964685 267.03427655 127.29803423 267.65690921 124.3984375 268.3828125 Z M-26.87109375 281.37890625 C-17.82867787 293.43546075 -8.22941787 304.46067272 2.12890625 315.37890625 C4.97099684 314.09586173 6.93633654 312.79772304 9.046875 310.5078125 C9.57474609 309.93877197 10.10261719 309.36973145 10.64648438 308.78344727 C11.19755859 308.17557373 11.74863281 307.5677002 12.31640625 306.94140625 C12.88939453 306.31613037 13.46238281 305.69085449 14.05273438 305.04663086 C20.91775161 297.49837912 27.19254072 289.68981799 33.12890625 281.37890625 C13.32890625 281.37890625 -6.47109375 281.37890625 -26.87109375 281.37890625 Z " fill="#7FDEEA" transform="translate(252.87109375,80.62109375)"/>
<path d="M0 0 C9.01643625 7.03880521 15.1108423 16.14007339 17.25 27.4375 C18.57745953 41.22372037 16.25002545 52.78115963 7.57421875 63.89453125 C-0.86877257 73.13215705 -11.15283274 78.33023854 -23.68408203 78.90625 C-36.67374665 79.10273748 -47.12290409 75.23645862 -56.75 66.4375 C-65.54895862 56.81040409 -69.41523748 46.36124665 -69.21875 33.37158203 C-68.64273854 20.84033274 -63.44465705 10.55627257 -54.20703125 2.11328125 C-38.00161747 -10.53769834 -17.12245062 -11.43845467 0 0 Z " fill="#80DEEA" transform="translate(281.75,220.5625)"/>
</svg>
