<?xml version="1.0" encoding="UTF-8"?>
<!-- Generator: visioncortex VTracer 0.6.12 -->
<svg version="1.1" xmlns="http://www.w3.org/2000/svg" width="512" height="512">
<path d="M0 0 C0.78458588 0.00215515 1.56917175 0.0043103 2.37753296 0.00653076 C58.35998581 0.25217682 109.386689 23.33706639 148.81542969 62.75244141 C179.86863296 94.42497028 204.375 142.26099353 204.375 187.3125 C221.535 187.3125 238.695 187.3125 256.375 187.3125 C255.51675281 190.74548874 254.92196346 192.3085207 253.05957031 195.12329102 C252.57158463 195.86668228 252.08359894 196.61007355 251.58082581 197.37599182 C251.04368454 198.18132858 250.50654327 198.98666534 249.953125 199.81640625 C249.3891954 200.67125107 248.82526581 201.52609589 248.24424744 202.40684509 C246.37697778 205.23345787 244.50120745 208.05431341 242.625 210.875 C241.32304023 212.84095822 240.02136763 214.80710665 238.7199707 216.7734375 C228.20587959 232.63883046 217.58539384 248.43291033 206.92089844 264.19750977 C206.34423431 265.05006851 205.76757019 265.90262726 205.1734314 266.78102112 C204.06503698 268.41793835 202.95524703 270.0539117 201.84390259 271.68882751 C199.48451067 275.16426463 197.14510713 278.64635319 194.88525391 282.1875 C194.17675293 283.2909375 193.46825195 284.394375 192.73828125 285.53125 C192.44393188 286.00014648 192.44393188 286.00014648 190.9543457 288.37304688 C190.69375366 288.69305664 190.69375366 288.69305664 189.375 290.3125 C188.385 290.3125 187.395 290.3125 186.375 290.3125 C185.10842896 288.93144226 185.10842896 288.93144226 183.83251953 286.95581055 C183.34467987 286.21210709 182.85684021 285.46840363 182.35421753 284.7021637 C181.82740387 283.87619186 181.30059021 283.05022003 180.7578125 282.19921875 C180.19675812 281.33880478 179.63570374 280.47839081 179.05764771 279.59190369 C177.83720259 277.71817938 176.62145224 275.8413909 175.40979004 273.9619751 C172.16616725 268.9313017 168.88933436 263.92230297 165.6171875 258.91015625 C165.27941284 258.3917215 165.27941284 258.3917215 163.57006836 255.76812744 C155.78219032 243.83219757 147.79362482 232.03329577 139.79449463 220.2383728 C128.31034428 203.30253755 128.31034428 203.30253755 123.046875 195.2109375 C122.68899902 194.66139404 122.68899902 194.66139404 120.87792969 191.88037109 C119.375 189.3125 119.375 189.3125 119.375 187.3125 C135.875 187.3125 152.375 187.3125 169.375 187.3125 C163.67125444 155.94189944 154.63828008 126.54188693 134.375 101.3125 C133.9330127 100.75916992 133.49102539 100.20583984 133.03564453 99.63574219 C106.78328454 67.07424207 71.23516745 46.59994083 30.375 38.3125 C29.26769531 38.08433594 28.16039062 37.85617188 27.01953125 37.62109375 C-14.72329334 30.62317591 -60.75930741 41.00071081 -95.48071289 65.22558594 C-100.68800461 68.97638803 -105.76954138 72.90030003 -110.7578125 76.9375 C-115.88930741 80.71634144 -120.37783662 81.06291002 -126.625 80.3125 C-131.29406873 78.91018584 -134.01876942 77.07417432 -137.0625 73.25 C-138.94822214 69.70484238 -139.79270466 66.97074999 -139.875 63 C-139.88789063 62.63068359 -139.88789063 62.63068359 -139.953125 60.76171875 C-138.82140949 52.31427082 -131.88764515 47.29059123 -125.625 42.3125 C-115.56104344 34.67274757 -104.8168081 28.15146807 -93.625 22.3125 C-92.97515137 21.9712207 -92.32530273 21.62994141 -91.65576172 21.27832031 C-63.23824689 6.57354042 -31.85202879 -0.15872752 0 0 Z " fill="#000000" transform="translate(255.625,50.6875)"/>
<path d="M0 0 C4.06429926 3.63304504 6.77570641 7.96646988 9.71484375 12.50390625 C10.27457382 13.35879639 10.83430389 14.21368652 11.41099548 15.09448242 C12.62301442 16.94608144 13.83300734 18.79900788 15.04119873 20.65310669 C18.27830427 25.61962406 21.53128063 30.57570904 24.78515625 35.53125 C25.45720093 36.55513321 26.12924561 37.57901642 26.82165527 38.63392639 C35.27638877 51.49360117 43.90669285 64.23458983 52.54272461 76.97290039 C69 101.26031093 69 101.26031093 69 104 C52.5 104 36 104 19 104 C24.70374556 135.37060056 33.73671992 164.77061307 54 190 C54.4419873 190.55333008 54.88397461 191.10666016 55.33935547 191.67675781 C82.40300058 225.24451643 121.09859591 247.95754872 164 254 C164.64138916 254.0928125 165.28277832 254.185625 165.94360352 254.28125 C210.61049594 260.06671542 256.40729285 247.38253372 292 220 C294.39153632 218.14106157 296.77829843 216.28059894 299.1328125 214.375 C304.26430741 210.59615856 308.75283662 210.24958998 315 211 C319.66906873 212.40231416 322.39376942 214.23832568 325.4375 218.0625 C328.54567598 223.90587084 328.7083957 229.05743323 327.1875 235.375 C319.66655517 250.62388814 296.46348889 261.45413707 282 269 C281.35015137 269.3412793 280.70030273 269.68255859 280.03076172 270.03417969 C251.61324689 284.73895958 220.22702879 291.47122752 188.375 291.3125 C187.59041412 291.31034485 186.80582825 291.3081897 185.99746704 291.30596924 C129.37142427 291.05749916 78.95462535 267.46091238 39 228 C8.13009984 196.79559628 -16 148.47292874 -16 104 C-33.16 104 -50.32 104 -68 104 C-67.14175281 100.56701126 -66.54696346 99.0039793 -64.68457031 96.18920898 C-64.19658463 95.44581772 -63.70859894 94.70242645 -63.20582581 93.93650818 C-62.66868454 93.13117142 -62.13154327 92.32583466 -61.578125 91.49609375 C-61.0141954 90.64124893 -60.45026581 89.78640411 -59.86924744 88.90565491 C-58.00197778 86.07904213 -56.12620745 83.25818659 -54.25 80.4375 C-52.94804023 78.47154178 -51.64636763 76.50539335 -50.3449707 74.5390625 C-38.16458303 56.15928674 -25.83827772 37.87740973 -13.47329712 19.62147522 C-9.74528968 14.11397845 -6.05006219 8.58611125 -2.3840332 3.03710938 C-1 1 -1 1 0 0 Z " fill="#000000" transform="translate(68,170)"/>
</svg>
