<?xml version="1.0" encoding="UTF-8"?>
<!-- Generator: visioncortex VTracer 0.6.12 -->
<svg version="1.1" xmlns="http://www.w3.org/2000/svg" width="512" height="512">
<path d="M0 0 C5.97887536 4.96724056 10.15564318 11.60925057 14.3515625 18.06640625 C14.93831253 18.96043655 15.52506256 19.85446686 16.1295929 20.77558899 C18.0257239 23.66652645 19.91520186 26.56174712 21.8046875 29.45703125 C23.76979777 32.45686434 25.73658286 35.45559454 27.70350647 38.45423889 C29.00495289 40.43852578 30.30584869 42.42317392 31.60618591 44.40818787 C36.73012712 52.22680384 41.91061641 60.00581171 47.1171875 67.76953125 C52.17081852 75.32680662 57.17579446 82.91053084 62.0546875 90.58203125 C62.54203369 91.34394775 63.02937988 92.10586426 63.53149414 92.89086914 C67.44628118 99.10687262 69.41534551 103.85985433 69.4296875 111.33203125 C69.45804688 112.64429688 69.48640625 113.9565625 69.515625 115.30859375 C68.92346778 125.2215333 63.45586491 134.19200305 58.79660034 142.70654297 C57.78714058 144.55160298 56.78837188 146.40214815 55.79125977 148.25390625 C53.01877137 153.38559599 50.22158562 158.49587588 47.22265625 163.5 C46.83561523 164.14799561 46.44857422 164.79599121 46.04980469 165.46362305 C45.07785943 167.06580704 44.08109018 168.65286258 43.08203125 170.23828125 C42.0546875 172.70703125 42.0546875 172.70703125 42.59375 174.6796875 C43.07585937 175.34871094 43.55796875 176.01773438 44.0546875 176.70703125 C44.71339844 177.62355469 45.37210938 178.54007813 46.05078125 179.484375 C54.19450702 190.02561364 62.67764743 200.23129875 71.65722656 210.07421875 C73.18182924 211.74848711 74.69964505 213.4289801 76.20825195 215.11767578 C84.52936843 224.34980155 93.3102865 233.11436817 102.10766602 241.89038086 C104.7506741 244.52800055 107.38825731 247.17096115 110.02539062 249.81445312 C111.72624175 251.51464385 113.42740284 253.21452456 115.12890625 254.9140625 C115.90618576 255.69336624 116.68346527 256.47266998 117.48429871 257.27558899 C121.6564992 261.43012943 125.91025971 265.42620918 130.37663269 269.26365662 C132.52464776 271.11126639 134.59849154 273.03476298 136.6796875 274.95703125 C141.80392696 279.58461366 147.18007165 283.82728239 152.6484375 288.03515625 C154.82603715 289.71828976 156.88633319 291.43583903 158.9609375 293.25390625 C159.816875 294.0015625 160.6728125 294.74921875 161.5546875 295.51953125 C162.286875 296.18597656 163.0190625 296.85242188 163.7734375 297.5390625 C166.0546875 298.70703125 166.0546875 298.70703125 168.87255859 297.95458984 C171.8387534 296.79168855 174.48788682 295.49430744 177.25 293.9140625 C178.20720947 293.36943359 179.16441895 292.82480469 180.15063477 292.26367188 C180.65042847 291.97588867 180.65042847 291.97588867 183.1796875 290.51953125 C184.212146 289.93236328 185.24460449 289.34519531 186.30834961 288.74023438 C190.47996195 286.36228696 194.64653335 283.98223518 198.73828125 281.46875 C209.79477428 274.70283636 221.62926695 269.70839393 234.83496094 271.16088867 C244.25392431 273.4783349 252.66975605 279.87266982 260.5546875 285.26953125 C262.90249787 286.85910528 265.25411296 288.44302053 267.60546875 290.02734375 C268.24571487 290.45967819 268.885961 290.89201263 269.54560852 291.33744812 C275.34839003 295.24929561 281.1882056 299.10378548 287.03515625 302.94921875 C287.51588089 303.26540916 287.51588089 303.26540916 289.94863892 304.86552429 C293.82576234 307.41464615 297.70356511 309.96272886 301.58251953 312.50906372 C310.79441065 318.55774451 320.00061279 324.61492178 329.11328125 330.8125 C329.75786789 331.24642563 330.40245453 331.68035126 331.0665741 332.12742615 C338.56051751 337.26306008 343.68841686 342.55881339 345.6796875 351.51953125 C347.08308258 363.44838939 344.26937411 373.69318576 336.9609375 383.32421875 C336.331875 384.11054688 335.7028125 384.896875 335.0546875 385.70703125 C334.44625 386.49335938 333.8378125 387.2796875 333.2109375 388.08984375 C324.33845329 399.39862485 314.89310259 410.23290319 305.0546875 420.70703125 C304.40242188 421.4134375 303.75015625 422.11984375 303.078125 422.84765625 C293.850544 432.50716657 280.66866729 444.5690958 267.0546875 446.70703125 C202.67151076 447.05392337 142.27252343 403.53843373 95.0546875 363.70703125 C93.90238757 362.73953114 92.75004608 361.77208053 91.59765625 360.8046875 C88.93769135 358.5667248 86.28949282 356.31531539 83.64501953 354.05908203 C82.01499985 352.67329005 80.37720553 351.29711925 78.73828125 349.921875 C65.83646547 339.04746101 53.58139753 327.45953554 41.78320312 315.39892578 C39.15051749 312.72312138 36.48833812 310.20061565 33.59375 307.80859375 C30.3302028 305.063327 27.62797679 302.01880618 24.8671875 298.77734375 C21.77438685 295.24461888 18.40509764 291.99325729 15.0546875 288.70703125 C10.38926085 284.13098059 5.90123681 279.49064651 1.63574219 274.53759766 C-0.46339111 272.10719287 -2.64128586 269.75330925 -4.8203125 267.39453125 C-8.91411459 262.90555068 -12.80000917 258.29459649 -16.61328125 253.56640625 C-18.64994444 251.06919108 -20.72816803 248.61512566 -22.82983398 246.17260742 C-43.35267097 222.26660296 -61.45744376 196.12797495 -76.9453125 168.70703125 C-77.1508374 168.34528809 -77.1508374 168.34528809 -78.19091797 166.51464844 C-92.75282397 140.64324184 -111.46765485 101.666303 -105.38671875 70.87890625 C-100.44414903 57.25938081 -90.88659513 46.90567201 -80.9453125 36.70703125 C-80.05199219 35.78535156 -79.15867187 34.86367187 -78.23828125 33.9140625 C-73.33510836 28.93557205 -68.29963307 24.19550444 -62.9453125 19.70703125 C-62.14867187 19.03285156 -61.35203125 18.35867187 -60.53125 17.6640625 C-22.75300242 -13.81781048 -22.75300242 -13.81781048 0 0 Z " fill="#000000" transform="translate(135.9453125,35.29296875)"/>
<path d="M0 0 C54.94408008 -1.34009951 105.48448782 21.37988463 145.015625 58.82421875 C179.08059954 92.17554158 203.57307654 141.3337709 205.07446289 189.38305664 C205.09728526 191.77748351 205.08791265 194.16808822 205.0625 196.5625 C205.041875 199.346875 205.02125 202.13125 205 205 C198.07 205 191.14 205 184 205 C183.85304688 203.19660156 183.70609375 201.39320313 183.5546875 199.53515625 C180.94355611 169.92751317 174.37711155 142.18759789 160 116 C159.65211426 115.36610352 159.30422852 114.73220703 158.94580078 114.07910156 C150.82731621 99.50670043 140.45593185 87.05316052 129 75 C128.42121094 74.36835937 127.84242188 73.73671875 127.24609375 73.0859375 C108.26379308 53.00941899 82.64812083 40.08315158 57 31 C55.85917969 30.5875 54.71835937 30.175 53.54296875 29.75 C36.32482157 23.97300697 17.99006723 22.40182342 0 21 C0 14.07 0 7.14 0 0 Z " fill="#000000" transform="translate(256,51)"/>
<path d="M0 0 C41.94541004 1.36407838 79.55936264 16.64861647 109 47 C112.20336192 50.53023559 115.14642873 54.18288519 118 58 C118.72574219 58.96035156 119.45148438 59.92070312 120.19921875 60.91015625 C139.31385951 87.29703381 147.73214018 116.79636067 149 149 C141.74 149 134.48 149 127 149 C126.84144531 147.40414062 126.68289063 145.80828125 126.51953125 144.1640625 C122.71288007 108.05003964 109.79011748 76.72704253 81.99609375 52.40234375 C57.94291397 33.11589581 30.54639919 23.95810251 0 22 C0 14.74 0 7.48 0 0 Z " fill="#000000" transform="translate(256,107)"/>
<path d="M0 0 C22.04009161 0.84769583 41.73055552 6.72211283 59 21 C59.84949219 21.68707031 60.69898438 22.37414062 61.57421875 23.08203125 C80.43997359 39.11647832 90.93072327 62.60106542 93 87 C93 88.98 93 90.96 93 93 C85.74 93 78.48 93 71 93 C70.608125 90.133125 70.21625 87.26625 69.8125 84.3125 C67.04185611 66.03873771 59.04848848 49.98756282 44.625 38.03125 C30.91737228 28.01413744 16.75761099 23.6757611 0 22 C0 14.74 0 7.48 0 0 Z " fill="#000000" transform="translate(256,163)"/>
</svg>
