<?xml version="1.0" encoding="UTF-8"?>
<!-- Generator: visioncortex VTracer 0.6.12 -->
<svg version="1.1" xmlns="http://www.w3.org/2000/svg" width="512" height="512">
<path d="M0 0 C1.80364806 0.48164323 3.60768565 0.96182973 5.41207886 1.44067383 C10.26134478 2.7317058 15.10514215 4.04223806 19.94819641 5.35634995 C25.06480162 6.74082803 30.18641136 8.10653478 35.30761719 9.47387695 C43.70255222 11.71736679 52.09485274 13.97044751 60.48535156 16.23046875 C71.45275823 19.18375599 82.42738836 22.10914768 93.40625 25.01953125 C95.05034391 25.45547456 96.69443774 25.89141816 98.33853149 26.32736206 C100.76980849 26.97198757 103.20109603 27.61657316 105.63241768 28.2610302 C114.50922906 30.61432399 123.38353723 32.97700794 132.2578125 35.33984375 C146.9822806 39.25985389 161.70799434 43.17515522 176.43461609 47.08706665 C184.65851818 49.27171967 192.88207139 51.45766736 201.10473633 53.64697266 C204.34974884 54.51082973 207.59478801 55.37458659 210.83984375 56.23828125 C211.64205667 56.45181622 212.4442696 56.66535118 213.27079201 56.8853569 C224.37723957 59.84104028 235.48833344 62.77864371 246.60293579 65.70350647 C252.7304746 67.31624612 258.85644292 68.9349129 264.98199654 70.55517483 C269.94670067 71.86788496 274.91329027 73.17311193 279.88145733 74.47265053 C282.93748146 75.27401185 285.99152614 76.0827182 289.04506874 76.89347839 C290.45247985 77.26557656 291.86069163 77.63466219 293.26976585 78.00041199 C305.30275433 81.12649141 316.26377702 84.61672397 323.4140625 95.42578125 C329.74016952 106.49646854 328.29201016 118.34064273 325.16488647 130.25112915 C324.80030593 131.57374594 324.43543809 132.89628357 324.0703125 134.21875 C323.68687195 135.65484649 323.30488828 137.09133261 322.92422485 138.52816772 C321.88656601 142.42894023 320.82922095 146.32413118 319.76847076 150.21867752 C318.6315557 154.40743688 317.51375961 158.60129488 316.39404297 162.79467773 C314.47334271 169.97920806 312.54221094 177.16086248 310.60449219 184.34082031 C307.61456426 195.42298006 304.65539233 206.5132254 301.703125 217.60546875 C300.96001959 220.39680145 300.21687718 223.1881243 299.47373199 225.97944641 C298.97593624 227.84922029 298.47816915 229.71900179 297.9804306 231.58879089 C296.2160118 238.21587278 294.44827068 244.84206255 292.67871094 251.46777344 C292.42663628 252.41163406 292.17456161 253.35549469 291.91484833 254.32795715 C291.66281898 255.27164658 291.41078964 256.215336 291.15112305 257.18762207 C285.54719641 278.1710398 279.96847373 299.16102721 274.40925598 320.15633202 C272.82407065 326.1428494 271.237209 332.12892037 269.64941406 338.11474609 C268.75579807 341.48403322 267.86225392 344.8533394 266.96875 348.22265625 C266.74902023 349.05118229 266.52929047 349.87970833 266.30290222 350.73334122 C263.54274233 361.14259017 260.7922474 371.55432788 258.05297089 381.96909237 C256.19732878 389.02336379 254.33586746 396.07608322 252.47031403 403.12773991 C251.16078401 408.07925494 249.85864643 413.03263129 248.5622654 417.98760414 C247.7660292 421.02331349 246.96243153 424.0570375 246.15673447 427.09024811 C245.78773297 428.48534943 245.42172967 429.881248 245.05905533 431.27800751 C241.94296406 443.26808624 238.43134435 454.17813059 227.6640625 461.30078125 C215.59158378 468.19934052 202.9237091 465.74681058 190.16864014 462.33958435 C188.46651095 461.87382629 186.76446677 461.40775748 185.0625 460.94140625 C183.24917545 460.45737592 181.43546412 459.97479262 179.62139893 459.49354553 C174.7508125 458.19726378 169.88571252 456.88141268 165.02136993 455.56192398 C159.86688925 454.16759917 154.70738816 452.7921034 149.54833984 451.41479492 C141.16188152 449.17364416 132.77812193 446.92268495 124.39648438 444.66357422 C114.18320847 441.911113 103.96468256 439.17893842 93.7421875 436.4609375 C90.80662671 435.6801467 87.87108747 434.89927491 84.93554688 434.1184082 C84.21692474 433.9272792 83.49830261 433.73615019 82.75790405 433.53922939 C75.33525527 431.56461407 67.91473755 429.58203802 60.49423218 427.59938622 C35.34746848 420.88088247 10.19328512 414.19025434 -14.96063995 407.49862289 C-19.57198201 406.27182795 -24.18327009 405.0448302 -28.79454994 403.81780148 C-31.02765818 403.22364234 -33.26079078 402.62957477 -35.49394798 402.03559971 C-40.96494057 400.58042343 -46.4356528 399.12421291 -51.9057312 397.66560364 C-61.87636092 395.00857931 -71.84988907 392.36444158 -81.83590126 389.76573658 C-86.37494403 388.58407805 -90.91236737 387.39626599 -95.44973373 386.20818901 C-97.5931435 385.64897062 -99.73738733 385.09293788 -101.88251114 384.54033089 C-104.84291636 383.77758672 -107.80031105 383.00404506 -110.75732422 382.22827148 C-111.18856787 382.11876002 -111.18856787 382.11876002 -113.37092209 381.56456566 C-123.52724229 378.87317584 -132.28363968 374.51105311 -138.2109375 365.55078125 C-144.53709364 354.480008 -143.08884768 342.63576918 -139.96170044 330.72520447 C-139.59714104 329.40266375 -139.23229355 328.08020241 -138.8671875 326.7578125 C-138.48393007 325.32240265 -138.10212941 323.8866032 -137.72164917 322.45045471 C-136.89932633 319.35917136 -136.06687605 316.27086711 -135.22625732 313.18450928 C-133.86234617 308.17685985 -132.5210611 303.16330228 -131.18212891 298.14892578 C-129.25850524 290.95340746 -127.32449147 283.7607539 -125.38378906 276.56982422 C-122.44710601 265.68528004 -119.54011889 254.79293909 -116.640625 243.8984375 C-115.91334843 241.16645628 -115.18603295 238.43448542 -114.45871353 235.7025156 C-113.96994388 233.86658749 -113.4812024 232.03065187 -112.99248886 230.19470882 C-111.25302781 223.66119511 -109.51022002 217.12858013 -107.765625 210.59643555 C-100.95858258 185.1085122 -94.17836276 159.61357972 -87.41762543 134.11333466 C-85.47873309 126.80043873 -83.53813061 119.48799829 -81.59667969 112.17578125 C-80.52788954 108.14976752 -79.45921312 104.12372361 -78.390625 100.09765625 C-78.13151337 99.12144821 -77.87240173 98.14524017 -77.60543823 97.13945007 C-74.56661298 85.68856983 -71.53879871 74.23490676 -68.53118896 62.77578735 C-67.21211605 57.75034507 -65.88772945 52.72630925 -64.5615654 47.70273399 C-63.71905944 44.50962578 -62.88079191 41.31549968 -62.04858398 38.11968994 C-61.16517816 34.72742774 -60.27135575 31.33807793 -59.375 27.94921875 C-59.25165787 27.46941559 -59.25165787 27.46941559 -58.62747192 25.0413208 C-55.87039176 14.71464913 -51.59298059 5.71670724 -42.4609375 -0.32421875 C-28.73206058 -8.16929128 -14.2419134 -3.90487778 0 0 Z M68.6015625 189.48828125 C64.38950516 204.60162277 60.23706529 219.72985248 56.20822144 234.89312744 C55.80372303 236.41511909 55.39838819 237.93688869 54.99221802 239.45843506 C54.42188505 241.59660641 53.85493259 243.73564382 53.2890625 245.875 C52.96292969 247.10436279 52.63679687 248.33372559 52.30078125 249.6003418 C51.6015625 252.48828125 51.6015625 252.48828125 51.6015625 254.48828125 C66.71490402 258.70033859 81.84313373 262.85277846 97.00640869 266.88162231 C98.52840034 267.28612072 100.05016994 267.69145556 101.57171631 268.09762573 C103.70988766 268.6679587 105.84892507 269.23491116 107.98828125 269.80078125 C109.21764404 270.12691406 110.44700684 270.45304687 111.71362305 270.7890625 C114.6015625 271.48828125 114.6015625 271.48828125 116.6015625 271.48828125 C120.8538945 257.17030261 124.68561412 242.74630265 128.4765625 228.30078125 C128.60279495 227.82138092 128.60279495 227.82138092 129.24160767 225.39532471 C129.96597321 222.64188295 130.68674975 219.88752912 131.40625 217.1328125 C131.62785294 216.29094894 131.84945587 215.44908539 132.07777405 214.58171082 C133.6015625 208.71863449 133.6015625 208.71863449 133.6015625 206.48828125 C118.48822098 202.27622391 103.35999127 198.12378404 88.19671631 194.09494019 C86.67472466 193.69044178 85.15295506 193.28510694 83.63140869 192.87893677 C81.49323734 192.3086038 79.35419993 191.74165134 77.21484375 191.17578125 C76.60016235 191.01271484 76.60016235 191.01271484 73.48950195 190.1875 C70.6015625 189.48828125 70.6015625 189.48828125 68.6015625 189.48828125 Z " fill="#EC7799" transform="translate(163.3984375,25.51171875)"/>
<path d="M0 0 C1.80364806 0.48164323 3.60768565 0.96182973 5.41207886 1.44067383 C10.26134478 2.7317058 15.10514215 4.04223806 19.94819641 5.35634995 C25.06480162 6.74082803 30.18641136 8.10653478 35.30761719 9.47387695 C43.70255222 11.71736679 52.09485274 13.97044751 60.48535156 16.23046875 C71.45275823 19.18375599 82.42738836 22.10914768 93.40625 25.01953125 C95.05034391 25.45547456 96.69443774 25.89141816 98.33853149 26.32736206 C100.76980849 26.97198757 103.20109603 27.61657316 105.63241768 28.2610302 C114.50922906 30.61432399 123.38353723 32.97700794 132.2578125 35.33984375 C146.9822806 39.25985389 161.70799434 43.17515522 176.43461609 47.08706665 C184.65851818 49.27171967 192.88207139 51.45766736 201.10473633 53.64697266 C204.34974884 54.51082973 207.59478801 55.37458659 210.83984375 56.23828125 C211.64205667 56.45181622 212.4442696 56.66535118 213.27079201 56.8853569 C224.37723957 59.84104028 235.48833344 62.77864371 246.60293579 65.70350647 C252.7304746 67.31624612 258.85644292 68.9349129 264.98199654 70.55517483 C269.94670067 71.86788496 274.91329027 73.17311193 279.88145733 74.47265053 C282.93748146 75.27401185 285.99152614 76.0827182 289.04506874 76.89347839 C290.45247985 77.26557656 291.86069163 77.63466219 293.26976585 78.00041199 C305.30275433 81.12649141 316.26377702 84.61672397 323.4140625 95.42578125 C329.74016952 106.49646854 328.29201016 118.34064273 325.16488647 130.25112915 C324.80030593 131.57374594 324.43543809 132.89628357 324.0703125 134.21875 C323.68687195 135.65484649 323.30488828 137.09133261 322.92422485 138.52816772 C321.88656601 142.42894023 320.82922095 146.32413118 319.76847076 150.21867752 C318.6315557 154.40743688 317.51375961 158.60129488 316.39404297 162.79467773 C314.47334271 169.97920806 312.54221094 177.16086248 310.60449219 184.34082031 C307.61456426 195.42298006 304.65539233 206.5132254 301.703125 217.60546875 C300.96001959 220.39680145 300.21687718 223.1881243 299.47373199 225.97944641 C298.97593624 227.84922029 298.47816915 229.71900179 297.9804306 231.58879089 C296.2160118 238.21587278 294.44827068 244.84206255 292.67871094 251.46777344 C292.42663628 252.41163406 292.17456161 253.35549469 291.91484833 254.32795715 C291.66281898 255.27164658 291.41078964 256.215336 291.15112305 257.18762207 C285.54719641 278.1710398 279.96847373 299.16102721 274.40925598 320.15633202 C272.82407065 326.1428494 271.237209 332.12892037 269.64941406 338.11474609 C268.75579807 341.48403322 267.86225392 344.8533394 266.96875 348.22265625 C266.74902023 349.05118229 266.52929047 349.87970833 266.30290222 350.73334122 C263.54274233 361.14259017 260.7922474 371.55432788 258.05297089 381.96909237 C256.19732878 389.02336379 254.33586746 396.07608322 252.47031403 403.12773991 C251.16078401 408.07925494 249.85864643 413.03263129 248.5622654 417.98760414 C247.7660292 421.02331349 246.96243153 424.0570375 246.15673447 427.09024811 C245.78773297 428.48534943 245.42172967 429.881248 245.05905533 431.27800751 C241.94296406 443.26808624 238.43134435 454.17813059 227.6640625 461.30078125 C215.59158378 468.19934052 202.9237091 465.74681058 190.16864014 462.33958435 C188.46651095 461.87382629 186.76446677 461.40775748 185.0625 460.94140625 C183.24917545 460.45737592 181.43546412 459.97479262 179.62139893 459.49354553 C174.7508125 458.19726378 169.88571252 456.88141268 165.02136993 455.56192398 C159.86688925 454.16759917 154.70738816 452.7921034 149.54833984 451.41479492 C141.16188152 449.17364416 132.77812193 446.92268495 124.39648438 444.66357422 C114.18320847 441.911113 103.96468256 439.17893842 93.7421875 436.4609375 C90.80662671 435.6801467 87.87108747 434.89927491 84.93554688 434.1184082 C84.21692474 433.9272792 83.49830261 433.73615019 82.75790405 433.53922939 C75.33525527 431.56461407 67.91473755 429.58203802 60.49423218 427.59938622 C35.34746848 420.88088247 10.19328512 414.19025434 -14.96063995 407.49862289 C-19.57198201 406.27182795 -24.18327009 405.0448302 -28.79454994 403.81780148 C-31.02765818 403.22364234 -33.26079078 402.62957477 -35.49394798 402.03559971 C-40.96494057 400.58042343 -46.4356528 399.12421291 -51.9057312 397.66560364 C-61.87636092 395.00857931 -71.84988907 392.36444158 -81.83590126 389.76573658 C-86.37494403 388.58407805 -90.91236737 387.39626599 -95.44973373 386.20818901 C-97.5931435 385.64897062 -99.73738733 385.09293788 -101.88251114 384.54033089 C-104.84291636 383.77758672 -107.80031105 383.00404506 -110.75732422 382.22827148 C-111.18856787 382.11876002 -111.18856787 382.11876002 -113.37092209 381.56456566 C-123.52724229 378.87317584 -132.28363968 374.51105311 -138.2109375 365.55078125 C-144.53709364 354.480008 -143.08884768 342.63576918 -139.96170044 330.72520447 C-139.59714104 329.40266375 -139.23229355 328.08020241 -138.8671875 326.7578125 C-138.48393007 325.32240265 -138.10212941 323.8866032 -137.72164917 322.45045471 C-136.89932633 319.35917136 -136.06687605 316.27086711 -135.22625732 313.18450928 C-133.86234617 308.17685985 -132.5210611 303.16330228 -131.18212891 298.14892578 C-129.25850524 290.95340746 -127.32449147 283.7607539 -125.38378906 276.56982422 C-122.44710601 265.68528004 -119.54011889 254.79293909 -116.640625 243.8984375 C-115.91334843 241.16645628 -115.18603295 238.43448542 -114.45871353 235.7025156 C-113.96994388 233.86658749 -113.4812024 232.03065187 -112.99248886 230.19470882 C-111.25302781 223.66119511 -109.51022002 217.12858013 -107.765625 210.59643555 C-100.95858258 185.1085122 -94.17836276 159.61357972 -87.41762543 134.11333466 C-85.47873309 126.80043873 -83.53813061 119.48799829 -81.59667969 112.17578125 C-80.52788954 108.14976752 -79.45921312 104.12372361 -78.390625 100.09765625 C-78.13151337 99.12144821 -77.87240173 98.14524017 -77.60543823 97.13945007 C-74.56661298 85.68856983 -71.53879871 74.23490676 -68.53118896 62.77578735 C-67.21211605 57.75034507 -65.88772945 52.72630925 -64.5615654 47.70273399 C-63.71905944 44.50962578 -62.88079191 41.31549968 -62.04858398 38.11968994 C-61.16517816 34.72742774 -60.27135575 31.33807793 -59.375 27.94921875 C-59.25165787 27.46941559 -59.25165787 27.46941559 -58.62747192 25.0413208 C-55.87039176 14.71464913 -51.59298059 5.71670724 -42.4609375 -0.32421875 C-28.73206058 -8.16929128 -14.2419134 -3.90487778 0 0 Z M-37.4296875 17.5390625 C-40.82290235 21.60411295 -41.8618785 25.50026436 -42.8984375 30.61328125 C-43.30384663 32.40833361 -43.71281338 34.20258553 -44.125 35.99609375 C-44.33157227 36.91036133 -44.53814453 37.82462891 -44.75097656 38.76660156 C-45.77067902 43.05304313 -47.0229311 47.26454856 -48.2734375 51.48828125 C-50.69538754 59.77216607 -52.83724228 68.10778381 -54.8984375 76.48828125 C-57.14807211 85.63461939 -59.54816231 94.70582945 -62.19482422 103.74462891 C-64.99520731 113.38789868 -67.34600096 123.1407815 -69.75195312 132.88818359 C-71.77205404 141.01283416 -74.00521921 149.07872275 -76.24609375 157.14453125 C-76.94296179 159.65487757 -77.63956827 162.16529651 -78.3359375 164.67578125 C-78.6875293 165.94317139 -79.03912109 167.21056152 -79.40136719 168.51635742 C-81.59083156 176.44831958 -83.6597172 184.39765279 -85.60961914 192.39135742 C-87.02401913 198.13444632 -88.61462232 203.81139911 -90.2734375 209.48828125 C-92.6922149 217.77318093 -94.83720046 226.10761378 -96.8984375 234.48828125 C-99.14807211 243.63461939 -101.54816231 252.70582945 -104.19482422 261.74462891 C-106.99352484 271.382105 -109.34307197 281.12905616 -111.74755859 290.87060547 C-114.542094 302.10954346 -117.71331615 313.24900337 -120.84936523 324.39624023 C-121.70176571 327.42616925 -122.55098344 330.45696526 -123.3984375 333.48828125 C-123.68380371 334.50575439 -123.96916992 335.52322754 -124.26318359 336.5715332 C-124.53340332 337.54566162 -124.80362305 338.51979004 -125.08203125 339.5234375 C-125.3236499 340.39105713 -125.56526855 341.25867676 -125.81420898 342.15258789 C-127.1434469 347.46676221 -126.94787911 350.97894769 -124.2109375 355.67578125 C-119.92877071 362.35052376 -114.79325414 364.24530683 -107.3984375 365.86328125 C-105.58518217 366.28714623 -103.77270083 366.71433356 -101.9609375 367.14453125 C-101.03410156 367.36367188 -100.10726562 367.5828125 -99.15234375 367.80859375 C-94.86350184 368.86711643 -90.6349592 370.11429311 -86.3984375 371.36328125 C-74.49049807 374.84068066 -62.44913912 377.76171815 -50.40869141 380.73925781 C-42.49558052 382.70822977 -34.63443146 384.85231485 -26.7890625 387.07421875 C-15.27544579 390.33139007 -3.75171398 393.4415415 7.86987305 396.29077148 C14.24171457 397.86481929 20.55310627 399.58112909 26.8515625 401.42578125 C35.05252673 403.82654484 43.30402027 405.94740758 51.6015625 407.98828125 C60.74789787 410.23792513 69.81911063 412.63800604 78.85791016 415.28466797 C88.49538625 418.08336859 98.24233741 420.43291572 107.98388672 422.83740234 C115.81781758 424.78529077 123.59903608 426.91956731 131.3671875 429.11328125 C143.67737815 432.58896572 156.00273751 435.89134064 168.42333984 438.94726562 C175.97888399 440.82387242 183.48758743 442.85163507 190.94921875 445.0703125 C191.88386963 445.34560791 192.81852051 445.62090332 193.78149414 445.90454102 C195.61781132 446.44743974 197.45179562 446.9983134 199.28295898 447.55834961 C204.86189985 449.20482916 210.22797021 450.78714302 215.89453125 448.60546875 C216.51972656 448.19554687 217.14492188 447.785625 217.7890625 447.36328125 C218.42199219 446.96882813 219.05492187 446.574375 219.70703125 446.16796875 C225.50781485 441.02500597 226.99500284 434.62287449 228.9140625 427.36328125 C229.21038574 426.27595703 229.50670898 425.18863281 229.81201172 424.06835938 C232.38445373 414.53798382 234.75741557 404.95757236 237.11645508 395.37255859 C238.80442701 388.54754914 240.62748719 381.80166381 242.68579102 375.08056641 C245.47280087 365.82383388 247.66066767 356.40130318 249.98046875 347.01953125 C251.5835793 340.53758739 253.26313772 334.08268811 255.01660156 327.63964844 C256.34396985 322.75785822 257.65938512 317.87282874 258.9765625 312.98828125 C259.27876709 311.86897217 259.58097168 310.74966309 259.89233398 309.59643555 C261.85798714 302.30000228 263.77507966 294.99238728 265.6640625 287.67578125 C267.51357294 280.51632695 269.46820074 273.39921998 271.5390625 266.30078125 C274.31225767 256.78758766 276.69914413 247.19270857 279.06616211 237.5715332 C280.61092572 231.33055155 282.21783722 225.13542132 284.1015625 218.98828125 C287.12868876 209.10456214 289.49999587 199.05109431 291.98046875 189.01953125 C293.58470036 182.53305454 295.26601466 176.07392827 297.02099609 169.62646484 C297.73569002 166.99429939 298.44407812 164.36046496 299.15234375 161.7265625 C299.29510742 161.19615356 299.29510742 161.19615356 300.01757812 158.51196289 C300.61563635 156.28634588 301.21198858 154.06026974 301.80664062 151.83374023 C303.37106577 145.99027589 304.97309417 140.16148879 306.64453125 134.34765625 C306.97219482 133.18790283 307.2998584 132.02814941 307.63745117 130.83325195 C308.26375941 128.61968291 308.90256008 126.40959679 309.5559082 124.20385742 C311.4114965 117.58022547 312.96828577 110.90432788 309.55297852 104.53173828 C303.06537822 95.86259829 290.82818256 94.3546833 280.9140625 91.98828125 C278.40736294 91.37577354 275.90085029 90.76250039 273.39453125 90.1484375 C272.20907715 89.85984863 271.02362305 89.57125977 269.80224609 89.27392578 C262.08499648 87.37963827 254.42769918 85.2646331 246.765625 83.16015625 C244.96099257 82.66516377 243.15630301 82.17037952 241.3515625 81.67578125 C240.4330249 81.42376953 239.5144873 81.17175781 238.56811523 80.91210938 C230.99335163 78.84421374 223.39438752 76.8778341 215.7890625 74.92578125 C208.54155094 73.06464084 201.32186029 71.17032671 194.1640625 68.98828125 C184.25674228 65.97284545 174.18311624 63.59431413 164.1328125 61.109375 C157.65086864 59.50626445 151.19596936 57.82670603 144.75292969 56.07324219 C139.8711394 54.74587388 134.98610305 53.43048456 130.1015625 52.11328125 C128.98515381 51.81180176 127.86874512 51.51032227 126.71850586 51.19970703 C119.33626767 49.21064969 111.94204143 47.27348641 104.5390625 45.36328125 C97.20005783 43.46894201 89.92464723 41.43412086 82.66967773 39.24169922 C77.14156642 37.59344271 71.56613551 36.27402839 65.94213867 34.99853516 C61.2498564 33.91861196 56.64291799 32.64988424 52.0390625 31.23828125 C43.63953535 28.67266692 35.12624005 26.58772856 26.6015625 24.48828125 C9.29151516 20.22372022 9.29151516 20.22372022 1.1015625 17.73828125 C-4.27103261 16.10938551 -9.64908639 14.57233504 -15.0859375 13.17578125 C-16.34792969 12.84964844 -17.60992187 12.52351563 -18.91015625 12.1875 C-26.64322887 10.63742161 -31.98493339 11.59988959 -37.4296875 17.5390625 Z " fill="#8D6C9E" transform="translate(163.3984375,25.51171875)"/>
<path d="M0 0 C-0.11859375 0.89203125 -0.2371875 1.7840625 -0.359375 2.703125 C-0.48828125 3.87359375 -0.6171875 5.0440625 -0.75 6.25 C-0.88921875 7.41015625 -1.0284375 8.5703125 -1.171875 9.765625 C-1 13 -1 13 0.6875 15.4375 C3.45392321 17.30670487 4.51289618 17.32125361 7.75 16.75 C8.45125 16.62625 8.45125 16.62625 12 16 C12.99 12.7 13.98 9.4 15 6 C20.625 4.875 20.625 4.875 24.42578125 5.99609375 C25.22177734 6.22490234 26.01777344 6.45371094 26.83789062 6.68945312 C27.65451172 6.93630859 28.47113281 7.18316406 29.3125 7.4375 C30.14845703 7.68048828 30.98441406 7.92347656 31.84570312 8.17382812 C33.90008187 8.77253279 35.95046267 9.38492597 38 10 C37.94070312 10.44601562 37.94070312 10.44601562 37.640625 12.703125 C37.51171875 13.87359375 37.3828125 15.0440625 37.25 16.25 C37.11078125 17.41015625 36.9715625 18.5703125 36.828125 19.765625 C37 23 37 23 38.796875 25.390625 C41 27 41 27 44 27.5 C47 27 47 27 49.25 25.5 C51.63562297 22.09196718 52.18574134 19.07129331 53 15 C60.90709331 15.645477 68.39133967 17.86997139 76 20 C75.89300781 20.89203125 75.78601563 21.7840625 75.67578125 22.703125 C75.55589844 23.87359375 75.43601562 25.0440625 75.3125 26.25 C75.18488281 27.41015625 75.05726563 28.5703125 74.92578125 29.765625 C75 33 75 33 76.234375 35.3828125 C78 37 78 37 81.9375 37.625 C85.48889519 37.442543 85.83110269 37.18667598 88.375 34.375 C89.86525194 31.27986136 91.05698044 28.30056845 92 25 C99.40774509 26.39304941 106.70170537 28.11899623 114 30 C113.96519531 30.97582031 113.93039063 31.95164062 113.89453125 32.95703125 C113.88099609 33.59318359 113.88099609 33.59318359 113.8125 36.8125 C113.77769531 38.07707031 113.74289063 39.34164062 113.70703125 40.64453125 C114 44 114 44 115.29296875 45.92578125 C118.17766429 47.74109309 120.70347311 47.35319931 124 47 C126.80404941 44.86131825 127.67685505 42.63319056 128.6875 39.3125 C128.93886719 38.50425781 129.19023437 37.69601562 129.44921875 36.86328125 C129.63097656 36.24839844 129.81273437 35.63351562 130 35 C137.88416983 36.35258896 145.39353334 38.54399352 153 41 C152.84144531 41.74121094 152.68289062 42.48242188 152.51953125 43.24609375 C151.62639772 47.98037298 150.94611766 52.27163297 153.5625 56.5625 C156 58 156 58 159.5625 58 C163 57 163 57 164.8125 55.375 C166 53 166 53 167 49.3125 C167.33 48.219375 167.66 47.12625 168 46 C171.42530237 44.85823254 172.31673674 45.16891784 175.66796875 46.21484375 C176.56064453 46.48876953 177.45332031 46.76269531 178.37304688 47.04492188 C179.30181641 47.33947266 180.23058594 47.63402344 181.1875 47.9375 C182.12787109 48.22818359 183.06824219 48.51886719 184.03710938 48.81835938 C186.36060971 49.53781887 188.68128518 50.26529186 191 51 C190.94070313 51.44601562 190.94070313 51.44601562 190.640625 53.703125 C190.51171875 54.87359375 190.3828125 56.0440625 190.25 57.25 C190.11078125 58.41015625 189.9715625 59.5703125 189.828125 60.765625 C190 64 190 64 191.6875 66.4375 C194.45392321 68.30670487 195.51289618 68.32125361 198.75 67.75 C200.1525 67.5025 201.555 67.255 203 67 C203.99 63.04 204.98 59.08 206 55 C213.34467941 56.61831919 220.67349113 58.30142762 228 60 C229.0533047 63.27358006 228.87220386 65.63150706 228.3125 69 C227.79132534 73.64942657 227.79132534 73.64942657 229.5625 76.625 C232.70370589 78.3969623 234.44452512 78.59257915 238 78 C241.34635797 75.76909469 242.288384 73.51632931 243.25 69.75 C243.37375 69.13125 243.37375 69.13125 244 66 C252.02770189 66.55363461 259.33854067 68.65687944 267 71 C266.90460938 71.81984375 266.80921875 72.6396875 266.7109375 73.484375 C266.60007812 74.56203125 266.48921875 75.6396875 266.375 76.75 C266.25898438 77.81734375 266.14296875 78.8846875 266.0234375 79.984375 C265.99952021 83.06173237 266.2767674 84.49134846 268 87 C270.80915474 88.40457737 272.88810534 88.24895157 276 88 C278.81327324 86.79431147 279.74853414 85.60869847 280.91015625 82.796875 C281.67148277 80.54476493 282.36603604 78.29091523 283 76 C292.78705558 77.06381039 302.06323552 79.30537537 308.75 87 C312.81768617 92.42358155 313.83689087 96.28395079 313 103 C311.2259797 109.79369139 308.8526672 114.09822187 303 118 C302.360625 118.433125 301.72125 118.86625 301.0625 119.3125 C294.73827734 121.42057422 288.63764807 119.25419667 282.5625 117.375 C274.75087688 115.04648211 266.91911116 112.93131889 259 111 C251.534173 109.17028628 244.12658843 107.22401196 236.75 105.0625 C228.54907482 102.66161281 220.29753582 100.5408721 212 98.5 C202.84918506 96.24925432 193.77321068 93.84895243 184.73046875 91.19921875 C178.19199957 89.29932353 171.61255362 87.62156988 165 86 C157.53440698 84.1692427 150.1266346 82.22402549 142.75 80.0625 C134.54907482 77.66161281 126.29753582 75.5408721 118 73.5 C108.85366463 71.25035612 99.78245187 68.85027521 90.74365234 66.20361328 C81.10617625 63.40491266 71.35922509 61.05536553 61.61767578 58.65087891 C53.87747154 56.72629539 46.18743544 54.62498166 38.515625 52.4453125 C27.2169324 49.24058252 15.90475258 46.1821343 4.5 43.375 C-5.75676874 40.84956621 -15.9206256 38.16610937 -26 35 C-27.07121094 34.67128906 -28.14242187 34.34257812 -29.24609375 34.00390625 C-34.04476455 32.25460356 -37.10948763 29.3654523 -39.875 25.125 C-42.12954863 18.86236491 -41.0462126 12.86402043 -39.24609375 6.59375 C-31.85692763 -8.78683403 -12.63606783 -3.7292216 0 0 Z " fill="#F182A4" transform="translate(78,355)"/>
<path d="M0 0 C1.15032715 0.30518555 2.3006543 0.61037109 3.48583984 0.92480469 C7.43178112 1.97823426 11.37274652 3.04871891 15.3125 4.125 C16.06456726 4.33008179 16.81663452 4.53516357 17.5914917 4.74645996 C23.20957627 6.27939218 28.82449322 7.82358399 34.4375 9.375 C35.21290131 9.58896423 35.98830261 9.80292847 36.78720093 10.02337646 C60.99675633 16.71677456 60.99675633 16.71677456 65.3125 23.125 C65.745625 23.764375 66.17875 24.40375 66.625 25.0625 C69.01380328 32.22890985 66.07217385 39.7863893 64.1875 46.75 C63.87055176 47.94625 63.55360352 49.1425 63.22705078 50.375 C61.06140441 58.49644447 58.79988813 66.58911631 56.44946289 74.65893555 C54.49865059 81.37242969 52.7147492 88.1223026 51.04833984 94.91210938 C49.31594468 101.74502629 47.4013152 107.06578987 41.3125 111.125 C36.16480553 113.83431288 31.33172743 113.62592799 25.75390625 112.2421875 C24.45848112 111.83587521 23.16562169 111.42132126 21.875 111 C14.70109259 108.77258491 7.48141404 106.85687134 0.1875 105.0625 C-1.87372056 104.5534771 -3.93491896 104.04436445 -5.99609375 103.53515625 C-6.97175293 103.2942627 -7.94741211 103.05336914 -8.95263672 102.80517578 C-14.8875986 101.32911759 -20.7943668 99.76044797 -26.6875 98.125 C-27.87085938 97.80917969 -29.05421875 97.49335938 -30.2734375 97.16796875 C-36.50876986 95.4094649 -41.3381895 94.04658819 -45.6875 89.125 C-48.98613009 83.18746583 -49.47181508 78.28756082 -47.83984375 71.70703125 C-47.43894531 70.46308594 -47.03804687 69.21914063 -46.625 67.9375 C-44.17246833 60.07075368 -42.14809395 52.12733723 -40.1875 44.125 C-37.90292993 34.8509171 -35.55250465 25.6251943 -32.7265625 16.5 C-32.09546548 14.45012096 -31.49740626 12.38915327 -30.9609375 10.3125 C-29.39477633 4.57619886 -26.72890951 1.33316969 -21.6875 -1.875 C-14.21222017 -4.36675994 -7.34667449 -1.99029079 0 0 Z M-14.6875 14.125 C-18.89955734 29.23834152 -23.05199721 44.36657123 -27.08084106 59.52984619 C-27.48533947 61.05183784 -27.89067431 62.57360744 -28.29684448 64.09515381 C-28.86717745 66.23332516 -29.43412991 68.37236257 -30 70.51171875 C-30.32613281 71.74108154 -30.65226562 72.97044434 -30.98828125 74.23706055 C-31.6875 77.125 -31.6875 77.125 -31.6875 79.125 C-16.57415848 83.33705734 -1.44592877 87.48949721 13.71734619 91.51834106 C15.23933784 91.92283947 16.76110744 92.32817431 18.28265381 92.73434448 C20.42082516 93.30467745 22.55986257 93.87162991 24.69921875 94.4375 C25.92858154 94.76363281 27.15794434 95.08976562 28.42456055 95.42578125 C31.3125 96.125 31.3125 96.125 33.3125 96.125 C37.564832 81.80702136 41.39655162 67.3830214 45.1875 52.9375 C45.31373245 52.45809967 45.31373245 52.45809967 45.95254517 50.03204346 C46.67691071 47.2786017 47.39768725 44.52424787 48.1171875 41.76953125 C48.33879044 40.92766769 48.56039337 40.08580414 48.78871155 39.21842957 C50.3125 33.35535324 50.3125 33.35535324 50.3125 31.125 C35.19915848 26.91294266 20.07092877 22.76050279 4.90765381 18.73165894 C3.38566216 18.32716053 1.86389256 17.92182569 0.34234619 17.51565552 C-1.79582516 16.94532255 -3.93486257 16.37837009 -6.07421875 15.8125 C-6.68890015 15.64943359 -6.68890015 15.64943359 -9.79956055 14.82421875 C-12.6875 14.125 -12.6875 14.125 -14.6875 14.125 Z " fill="#8E6C9E" transform="translate(246.6875,200.875)"/>
<path d="M0 0 C2.5 2 2.5 2 4 5 C4 12.41713912 2.0706261 20.25365384 -1 27 C-3.51652012 29.38198917 -5.11296351 30.80041679 -8.5 31.5625 C-12.31400276 30.70434938 -13.71611593 29.13218386 -16 26 C-16.44658419 20.09376686 -15.55843155 15.28729244 -13.75 9.6875 C-13.54503906 8.98560547 -13.34007812 8.28371094 -13.12890625 7.56054688 C-12.17308984 4.52220927 -11.3005954 2.30480374 -9.046875 0.01953125 C-5.72935956 -1.63289533 -3.48492238 -0.99569211 0 0 Z " fill="#8F6C9F" transform="translate(245,383)"/>
<path d="M0 0 C3.94880606 0.64470303 5.4948911 1.40376574 8.0625 4.5 C9.26791804 12.93792628 6.8770402 22.25492903 2.171875 29.3515625 C0.0625 31.5 0.0625 31.5 -1.9375 32.1640625 C-5.67501919 32.09106408 -7.4387961 31.8770688 -10.5 29.5625 C-13.79402643 22.54479151 -10.22845395 14.45725902 -8.16796875 7.41796875 C-6.38447444 3.1885394 -4.6140013 0.78536192 0 0 Z " fill="#8F6C9F" transform="translate(163.9375,361.5)"/>
<path d="M0 0 C1.94140625 0.34375 1.94140625 0.34375 4.44140625 1.90625 C6.73636114 5.63555169 6.35503065 9.21235332 5.53125 13.45727539 C4.97596694 15.69014248 4.34935199 17.88905462 3.69140625 20.09375 C3.48644531 20.84785156 3.28148437 21.60195313 3.0703125 22.37890625 C2.09770125 25.69757374 1.43235595 27.85376483 -1.046875 30.328125 C-3.98354023 31.81071327 -5.81370275 31.87352812 -9.05859375 31.34375 C-11.99609375 29.46875 -11.99609375 29.46875 -14.05859375 26.34375 C-14.87025832 18.81486137 -12.18601291 7.5195153 -7.671875 1.4921875 C-5.26902241 -0.21831774 -2.86951256 -0.12682928 0 0 Z " fill="#8F6C9F" transform="translate(319.05859375,402.65625)"/>
<path d="M0 0 C2.9375 1.9375 2.9375 1.9375 5 5 C5.31347293 8.13472927 4.67837392 10.94273374 4 14 C3.90460938 14.50724609 3.90460938 14.50724609 3.421875 17.07421875 C1.19079886 27.61994493 1.19079886 27.61994493 -4 31 C-8.01762368 31.83700493 -9.47748934 31.33351744 -12.9375 29.125 C-15.50548125 25.23411931 -15.36361565 23.38907458 -14.6484375 18.90234375 C-11.38916384 4.31414899 -11.38916384 4.31414899 -8.046875 1.15234375 C-5.1066966 -0.50290936 -3.32155342 -0.54229444 0 0 Z " fill="#8E6C9E" transform="translate(129,352)"/>
<path d="M0 0 C1.91015625 0.36328125 1.91015625 0.36328125 4.47265625 1.67578125 C7.34939916 7.05403974 5.53814943 12.98709085 4.04296875 18.64453125 C1.1594431 27.85393101 1.1594431 27.85393101 -2.08984375 30.36328125 C-5.46484375 31.36328125 -5.46484375 31.36328125 -9.08984375 31.36328125 C-12.02734375 29.36328125 -12.02734375 29.36328125 -14.08984375 26.36328125 C-14.47585648 21.16792962 -13.65881888 16.69295971 -12.33984375 11.67578125 C-12.18257813 11.02544922 -12.0253125 10.37511719 -11.86328125 9.70507812 C-10.022233 2.75866144 -7.18288588 -0.46990842 0 0 Z " fill="#8F6C9F" transform="translate(281.08984375,392.63671875)"/>
<path d="M0 0 C3.5625 0.5625 3.5625 0.5625 6.5625 2.5625 C8.76300279 5.86325419 8.91888285 7.39879752 8.15234375 11.24609375 C7.95769531 12.01050781 7.76304688 12.77492188 7.5625 13.5625 C7.33691406 14.48160156 7.11132812 15.40070313 6.87890625 16.34765625 C3.68351644 28.6490792 3.68351644 28.6490792 0.875 30.9375 C-2.54152609 31.86088543 -5.03129183 31.42953481 -8.4375 30.5625 C-10.56851136 28.41215974 -11.39040452 27.19419367 -11.6171875 24.15234375 C-9.01209815 1.47470697 -9.01209815 1.47470697 0 0 Z " fill="#8E6C9E" transform="translate(87.4375,341.4375)"/>
<path d="M0 0 C2.4375 1.5 2.4375 1.5 4 4 C5.13837601 11.54174106 2.81251302 20.00498194 0 27 C-2.78424157 29.74877352 -4.1930803 30.86825801 -8.0625 31.5 C-11.74049726 30.87395791 -12.84918889 30.02706748 -15 27 C-16.5381602 21.59215256 -15.4144389 17.57340454 -13.8125 12.375 C-13.60302734 11.62476563 -13.39355469 10.87453125 -13.17773438 10.1015625 C-10.98656512 2.76732237 -8.33713114 -1.19101873 0 0 Z " fill="#8F6C9F" transform="translate(359,413)"/>
<path d="M0 0 C3.36203559 0.93389877 4.33140557 1.27536957 6.375 3.9375 C8.00457503 11.54218349 5.41874655 20.00452176 2.375 26.9375 C-0.21998707 30.1126671 -0.98182282 30.84561755 -5.125 31.4375 C-8.625 30.9375 -8.625 30.9375 -11.0625 29.5 C-14.076756 24.55662015 -13.00255619 19.77682456 -11.89453125 14.37890625 C-8.19272145 -0.14125382 -8.19272145 -0.14125382 0 0 Z " fill="#8E6C9F" transform="translate(203.625,372.0625)"/>
</svg>
