<?xml version="1.0" encoding="UTF-8"?>
<!-- Generator: visioncortex VTracer 0.6.12 -->
<svg version="1.1" xmlns="http://www.w3.org/2000/svg" width="512" height="512">
<path d="M0 0 C0.75425986 0.19608416 1.50851973 0.39216831 2.28563595 0.59419441 C4.79712554 1.24932336 7.30521181 1.9166243 9.81347656 2.58398438 C11.61429436 3.05642833 13.41530975 3.52811963 15.21650696 3.99911499 C20.1062585 5.280049 24.99314575 6.571615 29.87959671 7.86507416 C35.07134272 9.23736844 40.26568114 10.5997818 45.4597168 11.96337891 C55.19859912 14.52179123 64.93514372 17.08897803 74.67062092 19.66031456 C81.73536023 21.5262273 88.80069936 23.38984307 95.86669922 25.25097656 C96.79983004 25.49676201 97.73296085 25.74254745 98.69436836 25.99578094 C100.55915633 26.48695112 102.42394628 26.97811379 104.28873825 27.4692688 C116.364049 30.64994084 128.43866285 33.83324018 140.51171875 37.02246094 C163.61609222 43.12542963 186.72624404 49.20589852 209.84154224 55.26735973 C210.89164824 55.54272721 211.94175425 55.81809469 213.02368164 56.10180664 C213.54864023 56.23946394 213.54864023 56.23946394 216.20524883 56.93609333 C233.58648182 61.49436668 250.96480633 66.06370542 268.34240723 70.63580322 C272.23702912 71.66043587 276.13180986 72.68446135 280.0267334 73.70794678 C290.05462041 76.34323642 300.08127659 78.98303901 310.10411453 81.63747597 C314.21627465 82.72648769 318.32902695 83.81309472 322.44360352 84.89294434 C326.20485098 85.8801879 329.96409079 86.87471928 333.72183609 87.8752079 C335.079787 88.23542367 336.43844083 88.59300193 337.79784775 88.94768333 C339.64139529 89.42913164 341.48215678 89.9212108 343.32275391 90.41381836 C343.83408371 90.5489257 343.83408371 90.5489257 346.42172241 91.23265076 C350.02215542 92.45560064 353.19919447 93.83785825 355.51660156 96.92773438 C357.27303541 102.67606332 355.90417749 108.33033606 354.38183594 113.97363281 C354.18575178 114.72789268 353.98966763 115.48215254 353.78764153 116.25926876 C353.13251258 118.77075835 352.46521164 121.27884462 351.79785156 123.78710938 C351.32540761 125.58792717 350.8537163 127.38894256 350.38272095 129.19013977 C349.10178694 134.07989131 347.81022093 138.96677857 346.51676178 143.85322952 C345.1444675 149.04497553 343.78205413 154.23931395 342.41845703 159.43334961 C339.86004471 169.17223193 337.29285791 178.90877653 334.72152138 188.64425373 C332.85560863 195.70899304 330.99199286 202.77433218 329.13085938 209.84033203 C328.88507393 210.77346285 328.63928848 211.70659367 328.38605499 212.66800117 C327.89488482 214.53278915 327.40372215 216.3975791 326.91256714 218.26237106 C323.73189509 230.33768181 320.54859576 242.41229566 317.359375 254.48535156 C311.25640631 277.58972503 305.17593742 300.69987686 299.1144762 323.81517506 C298.83910872 324.86528106 298.56374125 325.91538706 298.2800293 326.99731445 C298.00471469 328.04723163 297.72940008 329.0971488 297.44574261 330.17888165 C292.88746926 347.56011463 288.31813051 364.93843914 283.74603271 382.31604004 C282.72140006 386.21066193 281.69737458 390.10544268 280.67388916 394.00036621 C278.03859951 404.02825323 275.39879693 414.05490941 272.74435997 424.07774734 C271.65534825 428.18990746 270.56874122 432.30265976 269.4888916 436.41723633 C268.50164804 440.17848379 267.50711666 443.9377236 266.50662804 447.6954689 C266.14641226 449.05341981 265.788834 450.41207364 265.4341526 451.77148056 C264.9527043 453.6150281 264.46062513 455.45578959 263.96801758 457.29638672 C263.69780289 458.31904633 263.4275882 459.34170593 263.14918518 460.39535522 C261.9262353 463.99578823 260.54397768 467.17282728 257.45410156 469.49023438 C251.93933215 471.17530281 246.57852336 469.97889721 241.14257812 468.5390625 C240.80445115 468.45077116 240.80445115 468.45077116 239.09332371 468.00396347 C236.84155971 467.41377783 234.59324765 466.81139679 232.34472656 466.20898438 C230.72364222 465.78145625 229.10235454 465.35469853 227.48088074 464.9286499 C223.06478328 463.76603603 218.65155441 462.59285158 214.23871994 461.41792297 C209.52321935 460.1644802 204.80506269 458.92111559 200.0871582 457.67675781 C192.12692172 455.57597915 184.16817617 453.46963888 176.21044922 451.359375 C164.76701935 448.32503674 153.32015009 445.30385077 141.87207031 442.28710938 C139.1033412 441.55742726 136.33461663 440.82772794 133.56589317 440.09802437 C131.71562785 439.61038283 129.86535853 439.12275644 128.01508522 438.63514519 C121.43803322 436.90170347 114.86148345 435.16636502 108.28515625 433.43017578 C83.06990336 426.77367091 57.84818655 420.14211256 32.62274647 413.52432346 C19.22879448 410.0102031 5.83636993 406.49026855 -7.55592346 402.96983337 C-17.75304024 400.28955103 -27.95091047 397.61219388 -38.15039062 394.94091797 C-47.04781657 392.61063527 -55.94380198 390.27494706 -64.83802414 387.9324646 C-69.42937484 386.7234346 -74.02138552 385.51707234 -78.61523438 384.31756592 C-82.84384415 383.21337562 -87.07048241 382.10194944 -91.29567337 380.98475075 C-92.83246199 380.57978637 -94.36996114 380.17750717 -95.90821457 379.77814293 C-98.00085912 379.23442783 -100.09072235 378.68107602 -102.18017578 378.12524414 C-103.34495453 377.81949966 -104.50973328 377.51375519 -105.70980835 377.19874573 C-109.44342026 375.9635063 -112.70727669 374.62923003 -115.10839844 371.42773438 C-117.02123219 365.16755117 -115.24793096 359.10162539 -113.60644531 353.00488281 C-113.48890176 352.55462234 -113.48890176 352.55462234 -112.89406013 350.27603149 C-112.1090675 347.27751868 -111.31187871 344.28238967 -110.51464844 341.28710938 C-109.95233235 339.14930387 -109.39077556 337.01129851 -108.82992554 334.87310791 C-107.31212083 329.09528831 -105.78375836 323.32030866 -104.25350189 317.54577637 C-102.64306884 311.4611968 -101.04251468 305.37401961 -99.44091797 299.28710938 C-96.4987637 288.11110196 -93.54839385 276.93728356 -90.59418297 265.7644577 C-87.80750447 255.22446378 -85.02768699 244.68267091 -82.25026703 234.14023399 C-79.0887264 222.13983294 -75.9257184 210.13982204 -72.75683594 198.14135742 C-66.08998046 172.89694968 -59.45229287 147.6449916 -52.82764339 122.38947678 C-49.29971253 108.94089444 -45.76601593 95.4938271 -42.23048401 82.04724121 C-42.10386084 81.56565741 -42.10386084 81.56565741 -41.46307087 79.12855148 C-40.96150946 77.22097874 -40.45993731 75.31340881 -39.958354 73.40584183 C-38.3525819 67.29801963 -36.74955347 61.18948267 -35.14794922 55.08056641 C-33.40728398 48.44178386 -31.66133976 41.80442196 -29.90721321 35.16918278 C-29.05774878 31.95559714 -28.21156633 28.74124945 -27.37060547 25.52542114 C-26.47924993 22.11849992 -25.57840542 18.7142372 -24.67480469 15.31054688 C-24.42295914 14.33863907 -24.17111359 13.36673126 -23.91163635 12.3653717 C-21.11109159 1.91412924 -21.11109159 1.91412924 -17.04589844 -1.13476562 C-11.29756949 -2.89119947 -5.64329676 -1.52234156 0 0 Z M85.20410156 173.17773438 C83.07450642 178.63560729 81.31903925 184.05099675 79.84399414 189.7175293 C79.62897751 190.52996597 79.41396088 191.34240265 79.19242859 192.17945862 C78.49016879 194.83792162 77.79410459 197.49795693 77.09863281 200.15820312 C76.60986678 202.01814222 76.12090594 203.87803014 75.63175964 205.73786926 C74.61109561 209.6229222 73.59366753 213.50880521 72.57836914 217.39526367 C71.27739186 222.37369182 69.96698409 227.34958273 68.65399647 232.32485485 C67.6434329 236.15929639 66.63854139 239.99520719 65.63529015 243.83156776 C65.15436696 245.66726938 64.67152332 247.502469 64.18671608 249.33714867 C63.51061254 251.89864623 62.84234055 254.46206453 62.17602539 257.02612305 C62.07552383 257.4035817 62.07552383 257.4035817 61.56692505 259.31375122 C60.61496326 263.01099886 59.96735267 266.35402135 60.20410156 270.17773438 C71.98075177 273.31421041 83.75914724 276.44403562 95.53982067 279.56536865 C101.00992641 281.01491724 106.47940316 282.46675475 111.94750977 283.92382812 C117.22396844 285.32974338 122.50199023 286.72963943 127.78115273 288.12536621 C129.79555482 288.65907468 131.809383 289.19495413 133.8226223 289.73303223 C136.64124862 290.48597005 139.46181168 291.23118208 142.28295898 291.97460938 C143.11589981 292.1990271 143.94884064 292.42344482 144.80702209 292.65466309 C148.69330293 293.67049747 152.14763292 294.46529023 156.20410156 294.17773438 C159.3405776 282.40108417 162.47040281 270.6226887 165.59173584 258.84201527 C167.04128443 253.37190953 168.49312193 247.90243278 169.95019531 242.43432617 C171.35611056 237.1578675 172.75600662 231.87984571 174.1517334 226.60068321 C174.68544187 224.58628112 175.22132132 222.57245294 175.75939941 220.55921364 C176.51233724 217.74058732 177.25754927 214.92002425 178.00097656 212.09887695 C178.22539429 211.26593613 178.44981201 210.4329953 178.68103027 209.57481384 C179.69686466 205.68853301 180.49165742 202.23420301 180.20410156 198.17773438 C171.80454064 195.95085764 163.40476256 193.72480245 155.00473309 191.49969387 C151.10095595 190.46558554 147.19724421 189.43123191 143.29370117 188.39624023 C123.94503666 183.2663221 104.58795928 178.17338902 85.20410156 173.17773438 Z " fill="#000000" transform="translate(135.7958984375,21.822265625)"/>
</svg>
