<?xml version="1.0" encoding="UTF-8"?>
<!-- Generator: visioncortex VTracer 0.6.12 -->
<svg version="1.1" xmlns="http://www.w3.org/2000/svg" width="512" height="512">
<path d="M0 0 C168.96 0 337.92 0 512 0 C509.59178431 4.01369281 507.81901541 6.4113176 504.578125 9.58203125 C504.14757812 10.00709961 504.14757812 10.00709961 501.96875 12.15820312 C501.0715625 13.03412109 500.174375 13.91003906 499.25 14.8125 C493.86927419 20.08702727 488.59967017 25.35208828 483.69824219 31.0769043 C480.00480116 35.25937051 475.94238966 39.09482087 471.9609375 43 C468.68299366 46.23997537 465.50864439 49.50697069 462.5 53 C458.24967188 57.93462131 453.60741662 62.44253389 448.9609375 67 C445.68299366 70.23997537 442.50864439 73.50697069 439.5 77 C435.24967188 81.93462131 430.60741662 86.44253389 425.9609375 91 C422.68299366 94.23997537 419.50864439 97.50697069 416.5 101 C412.24967188 105.93462131 407.60741662 110.44253389 402.9609375 115 C399.68299366 118.23997537 396.50864439 121.50697069 393.5 125 C389.24967188 129.93462131 384.60741662 134.44253389 379.9609375 139 C376.68299366 142.23997537 373.50864439 145.50697069 370.5 149 C366.24967188 153.93462131 361.60741662 158.44253389 356.9609375 163 C353.68299366 166.23997537 350.50864439 169.50697069 347.5 173 C343.24967188 177.93462131 338.60741662 182.44253389 333.9609375 187 C330.68299366 190.23997537 327.50864439 193.50697069 324.5 197 C320.24967188 201.93462131 315.60741662 206.44253389 310.9609375 211 C307.68299366 214.23997537 304.50864439 217.50697069 301.5 221 C297.24967188 225.93462131 292.60741662 230.44253389 287.9609375 235 C284.10333403 238.8129208 280.42896513 242.69860502 276.93359375 246.84765625 C276.29550781 247.55792969 275.65742188 248.26820313 275 249 C274.78008918 249.28245458 274.78008918 249.28245458 273.66720718 250.71184593 C270.40799114 254.52225556 268.03626657 256.44615867 262.95320988 256.8613348 C260.96364514 256.89060088 258.97328636 256.88145684 256.98390198 256.84178162 C256.43371547 256.8447721 256.43371547 256.8447721 253.64943832 256.85990578 C249.96673064 256.87142505 246.28626131 256.83295515 242.60375977 256.79467773 C239.96231566 256.79270297 237.32100812 256.79350377 234.67958069 256.79777527 C228.9952794 256.80144073 223.31154178 256.77953223 217.62738228 256.7401104 C209.40920625 256.68315138 201.19130199 256.6649833 192.97294997 256.65619446 C179.63846915 256.64088484 166.30428857 256.59432989 152.9699707 256.52807617 C140.01913936 256.4637949 127.06839006 256.41434009 114.11743164 256.38452148 C113.71402423 256.38358349 113.71402423 256.38358349 111.67253822 256.37883669 C105.36244774 256.36428021 99.05235546 256.35058192 92.74226248 256.33715475 C61.82789939 256.27115279 30.91428812 256.13031784 0 256 C0 171.52 0 87.04 0 0 Z " fill="#1976D2" transform="translate(0,128)"/>
<path d="M0 0 C-2.713425 8.44176667 -5.85734053 16.71110853 -9 25 C-9.9178125 24.79503906 -10.835625 24.59007812 -11.78125 24.37890625 C-12.39484375 24.24419922 -12.39484375 24.24419922 -15.5 23.5625 C-16.10328125 23.42908203 -16.10328125 23.42908203 -19.15625 22.75390625 C-27.03349377 21.20887775 -34.61382181 20.79118858 -42.625 20.75 C-43.1303125 20.7396875 -43.1303125 20.7396875 -45.6875 20.6875 C-51.2202021 20.65845694 -55.24464553 20.82976369 -60 24 C-62 26 -62 26 -62.4375 29.3125 C-62 33 -62 33 -60 35.6875 C-53.61557879 40.60882468 -46.71807032 42.84347835 -39 44.875 C-19.54257592 50.24445459 -2.80969269 55.67736235 8 74 C8.36536865 73.07405029 8.7307373 72.14810059 9.10717773 71.1940918 C19.39404456 45.12514522 29.69401758 19.06139496 40 -7 C52.54 -7 65.08 -7 78 -7 C80.93472019 0.04332846 83.86135592 7.07970194 86.6887207 14.16503906 C86.8575292 14.58703016 86.8575292 14.58703016 87.71180248 16.72256088 C88.78393535 19.4032606 89.85489017 22.08442901 90.92578125 24.765625 C91.59574648 26.44127496 92.26579029 28.11689351 92.93591309 29.79248047 C95.39572362 35.94460793 97.85402389 42.09733916 100.3125 48.25 C105.819375 62.0275 111.32625 75.805 117 90 C117.33 57.99 117.66 25.98 118 -7 C126.971875 -7.0825 135.94375 -7.165 145.1875 -7.25 C147.9927417 -7.28641602 150.7979834 -7.32283203 153.68823242 -7.36035156 C155.95230345 -7.37205178 158.21638301 -7.38224043 160.48046875 -7.390625 C161.05178528 -7.40085693 161.05178528 -7.40085693 163.94299316 -7.45263672 C177.79497334 -7.45853432 189.79388923 -3.26537497 200.21484375 5.9609375 C210.40351475 16.48206033 214.3416353 28.84430804 214.3828125 43.15209961 C214.16600332 55.71009371 209.31217914 65.65627345 201 75 C189.62503471 85.67894469 176.74743405 89.54884067 161.375 89.1875 C159.498125 89.1565625 159.498125 89.1565625 150 89 C150 99.56 150 110.12 150 121 C130.53 121 111.06 121 91 121 C86 105 86 105 86 102 C85.13117188 102.27714844 84.26234375 102.55429687 83.3671875 102.83984375 C82.21476563 103.20207031 81.06234375 103.56429687 79.875 103.9375 C78.73804688 104.29714844 77.60109375 104.65679687 76.4296875 105.02734375 C62.69478 108.922551 49.26077274 107.82209918 36 103 C35.34 103 34.68 103 34 103 C32.02 108.94 30.04 114.88 28 121 C15.79 121 3.58 121 -9 121 C-8.16687441 116.00124645 -7.34505694 113.28227788 -5 109 C-5.65484375 109.38671875 -6.3096875 109.7734375 -6.984375 110.171875 C-13.77666787 114.04770314 -20.48181064 116.86028246 -28 119 C-28.58136719 119.17982422 -28.58136719 119.17982422 -31.5234375 120.08984375 C-37.41225736 121.52879134 -43.40997465 121.33998972 -49.4375 121.3125 C-50.05874756 121.31040527 -50.05874756 121.31040527 -53.20263672 121.29980469 C-68.39651726 121.1140556 -81.34463835 118.83923058 -95 112 C-93.64909235 105.50121609 -91.92169754 99.24896681 -89.875 92.9375 C-89.59785156 92.07189453 -89.32070312 91.20628906 -89.03515625 90.31445312 C-88.36031038 88.2084686 -87.68188659 86.10371313 -87 84 C-82.15315144 85.59416995 -77.3687933 87.32250669 -72.5859375 89.09765625 C-66.45181077 91.23811437 -60.77433332 91.21887738 -54.3125 91.25 C-53.26126953 91.270625 -52.21003906 91.29125 -51.12695312 91.3125 C-44.65705855 91.34470856 -38.88964028 90.86716094 -33 88 C-31 86 -31 86 -30.5 83.1875 C-31.09049625 79.42308638 -32.34513377 78.45177764 -35.27001953 76.1574707 C-37.93057463 74.37738437 -40.64153516 73.45506176 -43.6875 72.5 C-44.00537476 72.39812378 -44.00537476 72.39812378 -45.61401367 71.88256836 C-50.14435662 70.46523918 -54.72328449 69.30738037 -59.33203125 68.17651367 C-71.92131227 65.06017098 -83.06562388 60.39609552 -90.3125 48.921875 C-95.05527009 39.78506791 -96.70253553 30.35046775 -94.34765625 20.18359375 C-90.37109066 9.27790529 -83.19554208 2.27701756 -73 -3 C-52.02115307 -11.92996301 -20.67969616 -9.15483178 0 0 Z " fill="#FDFDFE" transform="translate(127,199)"/>
<path d="M0 0 C3.17625 -0.061875 6.3525 -0.12375 9.625 -0.1875 C10.1197583 -0.20115601 10.1197583 -0.20115601 12.62353516 -0.27026367 C18.62931488 -0.32671582 23.06376757 0.25905144 27.64453125 4.53515625 C31.83364552 10.01322875 32.62152402 13.18625519 32 20 C30.17465409 25.27322153 27.39280797 27.79691086 23 31 C20.11734851 31.96088383 18.32337729 32.11670941 15.33203125 32.09765625 C14.52741455 32.09515869 13.72279785 32.09266113 12.89379883 32.09008789 C12.38538452 32.08553589 12.38538452 32.08553589 9.8125 32.0625 C8.1934375 32.0521875 8.1934375 32.0521875 0 32 C0 21.44 0 10.88 0 0 Z " fill="#1D78D2" transform="translate(277,224)"/>
<path d="M0 0 C2.54742117 1.27371059 2.58276935 2.06806876 3.51220703 4.70605469 C3.65227676 5.09836273 3.65227676 5.09836273 4.3611145 7.0836792 C4.65702484 7.93778381 4.95293518 8.79188843 5.2578125 9.671875 C5.56572723 10.54644348 5.87364197 11.42101196 6.19088745 12.32208252 C6.84166932 14.17699158 7.48870926 16.03321701 8.13232422 17.890625 C9.11737146 20.7280262 10.11834123 23.55943982 11.12109375 26.390625 C11.75097272 28.19236857 12.37990975 29.99444177 13.0078125 31.796875 C13.3077713 32.64288269 13.6077301 33.48889038 13.91677856 34.36053467 C15.28537795 38.34498043 16.41570823 41.72135289 16 46 C10.72949451 49.23417383 6.49047083 49.45884796 0.5 49.375 C-0.32886719 49.38660156 -1.15773437 49.39820313 -2.01171875 49.41015625 C-7.10008446 49.38588742 -10.55141236 48.72981514 -15 46 C-14.40300595 40.2290575 -12.84119536 35.21576096 -10.83984375 29.78515625 C-10.53051407 28.92941513 -10.22118439 28.07367401 -9.90248108 27.19200134 C-8.92046406 24.47982807 -7.92914476 21.77116598 -6.9375 19.0625 C-6.26695915 17.21571942 -5.5970308 15.36871632 -4.92773438 13.52148438 C-3.29223235 9.01171731 -1.64838335 4.50507387 0 0 Z " fill="#1E79D3" transform="translate(186,229)"/>
</svg>
