<?xml version="1.0" encoding="UTF-8"?>
<!-- Generator: visioncortex VTracer 0.6.12 -->
<svg version="1.1" xmlns="http://www.w3.org/2000/svg" width="512" height="512">
<path d="M0 0 C1.2513146 -0.00226556 2.5026292 -0.00453111 3.79186243 -0.00686532 C7.25335154 -0.01296582 10.71481644 -0.01285181 14.1763097 -0.01167095 C17.91389977 -0.01146651 21.65148214 -0.01698971 25.3890686 -0.02172852 C32.70608648 -0.03002515 40.02309629 -0.03278288 47.34011848 -0.03334089 C53.28669796 -0.03381636 59.23327479 -0.03587262 65.17985344 -0.03904152 C82.04138746 -0.04784406 98.90291512 -0.05246132 115.76445145 -0.05171105 C116.21869469 -0.05169107 116.21869469 -0.05169107 118.5174408 -0.05158997 C118.97223867 -0.05156953 118.97223867 -0.05156953 121.27379154 -0.05146609 C136.02591746 -0.05105934 150.77801788 -0.06063699 165.53013641 -0.07472833 C180.67933506 -0.08908483 195.82852126 -0.09599897 210.97772688 -0.09513456 C219.4822535 -0.09480242 227.98675338 -0.09755708 236.49127388 -0.10831261 C243.72925781 -0.11740786 250.96720285 -0.11960076 258.20519001 -0.11280318 C261.89807012 -0.10953353 265.59087557 -0.10949739 269.28374863 -0.11815643 C273.2859836 -0.12744449 277.28804497 -0.12125736 281.2902832 -0.11352539 C282.45866149 -0.11866895 283.62703979 -0.12381252 284.83082348 -0.12911195 C292.10651395 -0.09794482 297.88605392 0.11474753 303.45535278 5.26847839 C303.79546985 5.5809552 303.79546985 5.5809552 305.51666832 7.16227722 C308.91105064 10.40289032 312.27751765 13.6654261 315.60240173 16.97746277 C316.35952957 17.72801941 317.11665741 18.47857605 317.89672852 19.25187683 C320.37400463 21.70961418 322.84739961 24.17120268 325.31993103 26.63371277 C325.74466044 27.05640442 325.74466044 27.05640442 327.89404869 29.19548035 C332.38084817 33.66151277 336.86443061 38.13074727 341.3455658 42.60246277 C345.9684376 47.21422508 350.60287535 51.81418351 355.2399416 56.41166687 C358.81278569 59.95838283 362.37673105 63.51394006 365.9383297 67.07194519 C367.64338861 68.77213684 369.3518215 70.46895194 371.06369972 72.16227722 C373.45460611 74.52885096 375.83258499 76.90772504 378.20787048 79.28996277 C378.9138739 79.98315613 379.61987732 80.67634949 380.34727478 81.39054871 C380.99614151 82.04635925 381.64500824 82.7021698 382.3135376 83.37785339 C382.87558049 83.93750793 383.43762339 84.49716248 384.01669788 85.07377625 C389.1728879 91.86083735 389.00795333 98.31693567 388.95587158 106.55638123 C388.95984599 107.80825155 388.96382039 109.06012187 388.96791524 110.34992766 C388.97847629 113.81324874 388.97038991 117.27631075 388.95916474 120.73962045 C388.95030779 124.47935861 388.9587707 128.21906342 388.96502686 131.95880127 C388.9745093 139.28154165 388.96791922 146.6041834 388.95576391 153.92691645 C388.94212832 162.46020616 388.94378325 170.99347249 388.94589724 179.52677032 C388.94908653 194.75856432 388.93742446 209.99031155 388.91783142 225.22209167 C388.89884097 239.98935878 388.89174047 254.75657104 388.89732361 269.52384949 C388.90338843 285.61267984 388.90319043 301.70148608 388.89183778 317.79031444 C388.89063053 319.50779517 388.88942454 321.22527591 388.88821983 322.94275665 C388.88791806 323.36524121 388.88791806 323.36524121 388.88639093 325.50326909 C388.88251884 331.44534573 388.88290271 337.38741337 388.88480568 343.32949066 C388.88693312 350.57831954 388.88166243 357.8271005 388.86719213 365.0759159 C388.85997317 368.7714348 388.85584958 372.46688409 388.86043549 376.16240883 C388.86529476 380.17604397 388.85455044 384.18949021 388.84234619 388.20310974 C388.84612552 389.36081477 388.84990484 390.51851981 388.85379869 391.71130681 C388.78661696 404.23244064 387.49353665 413.79340316 378.69102478 423.14152527 C370.61628737 430.7394081 361.8863405 432.25545441 350.97261429 432.26234722 C350.32460928 432.26395944 350.32460928 432.26395944 347.04531121 432.27211827 C345.61929327 432.27064734 344.19327543 432.26907964 342.76725769 432.26742554 C341.24287922 432.2692948 339.71850122 432.27159597 338.19412398 432.27429086 C334.01258838 432.28040098 329.8310728 432.28027619 325.64953375 432.27909648 C321.13679033 432.27889228 316.6240533 432.28441315 312.11131287 432.28915405 C303.27260829 432.29745691 294.43391039 432.30020873 285.59520224 432.30076643 C278.40963063 432.30124178 271.22406121 432.30329745 264.0384903 432.30646706 C243.660683 432.31527274 223.28288097 432.31988658 202.90507177 432.31913658 C201.80673118 432.31909663 200.7083906 432.31905667 199.57676697 432.3190155 C198.47708343 432.31897462 197.37739989 432.31893374 196.2443926 432.31889162 C178.42404633 432.31848521 160.60372118 432.32805387 142.78338102 432.34215387 C124.48029393 432.35652142 106.17721715 432.36342384 87.87412429 432.36256009 C77.60047879 432.36222825 67.32685544 432.36496985 57.05321503 432.37573814 C48.30571678 432.38484813 39.55825074 432.3870143 30.8107498 432.38022872 C26.34967887 432.37696601 21.88866971 432.37689786 17.42760468 432.38558197 C13.33906959 432.39345887 9.25064511 432.3920034 5.16211268 432.38329784 C3.68770747 432.38176547 2.21329396 432.38356904 0.73889855 432.38915791 C-13.06844486 432.43800515 -24.02459681 432.03755839 -34.42616272 422.24308777 C-42.02404556 414.16835036 -43.54009187 405.43840349 -43.54698467 394.52467728 C-43.55020912 393.22866726 -43.55343356 391.93265725 -43.55675572 390.5973742 C-43.55528479 389.17135626 -43.55371709 387.74533842 -43.55206299 386.31932068 C-43.55393226 384.7949422 -43.55623342 383.27056421 -43.55892831 381.74618697 C-43.56503843 377.56465137 -43.56491364 373.38313578 -43.56373394 369.20159674 C-43.56352973 364.68885332 -43.5690506 360.17611629 -43.5737915 355.66337585 C-43.58209437 346.82467128 -43.58484618 337.98597337 -43.58540388 329.14726523 C-43.58587923 321.96169361 -43.5879349 314.7761242 -43.59110451 307.59055328 C-43.59991019 287.21274599 -43.60452403 266.83494396 -43.60377403 246.45713475 C-43.60373408 245.35879417 -43.60369412 244.26045359 -43.60365295 243.12882996 C-43.60361207 242.02914642 -43.60357119 240.92946288 -43.60352907 239.79645559 C-43.60312266 221.97610931 -43.61269132 204.15578417 -43.62679132 186.335444 C-43.64115887 168.03235692 -43.64806129 149.72928014 -43.64719754 131.42618728 C-43.6468657 121.15254178 -43.64960731 110.87891843 -43.6603756 100.60527802 C-43.66948558 91.85777977 -43.67165175 83.11031372 -43.66486617 74.36281279 C-43.66160346 69.90174186 -43.66153531 65.4407327 -43.67021942 60.97966766 C-43.67809632 56.89113258 -43.67664085 52.8027081 -43.66793529 48.71417567 C-43.66640292 47.23977046 -43.66820649 45.76535695 -43.67379536 44.29096153 C-43.7226426 30.48361813 -43.32219584 19.52746618 -33.52772522 9.12590027 C-23.78689895 -0.03968036 -12.7427856 -0.01692196 0 0 Z M-19.41835022 25.13371277 C-21.65640167 28.53586343 -21.6697524 31.439368 -21.67282581 35.45283413 C-21.67865801 36.76050477 -21.6844902 38.06817542 -21.69049913 39.41547245 C-21.68686578 40.87017261 -21.6830414 42.32487231 -21.67904663 43.77957153 C-21.68206607 45.32213751 -21.68595451 46.86470199 -21.6906392 48.40726382 C-21.70095463 52.65278764 -21.69872839 56.89822734 -21.6944586 61.14375818 C-21.6919978 65.71984106 -21.70099747 70.29590335 -21.70849609 74.87197876 C-21.721263 83.83943132 -21.72303432 92.80685398 -21.72069583 101.7743141 C-21.71891478 109.06107936 -21.72065772 116.34783552 -21.72492027 123.63459969 C-21.72551546 124.67059922 -21.72611065 125.70659874 -21.72672388 126.7739922 C-21.72793559 128.87843541 -21.72914973 130.98287862 -21.73036625 133.08732183 C-21.7412494 152.83468188 -21.73907559 172.58202487 -21.73298141 192.32938588 C-21.72781118 210.40618324 -21.7390691 228.48292672 -21.75807963 246.55971342 C-21.77743795 265.10902286 -21.78571758 283.65830679 -21.78195637 302.2076264 C-21.78004133 312.62645176 -21.7825614 323.04523125 -21.79667091 333.46404839 C-21.80856014 342.33331016 -21.81001729 351.20249784 -21.79788075 360.07176059 C-21.79197481 364.59892669 -21.79093976 369.1259571 -21.80288315 373.65311432 C-21.8136838 377.79516691 -21.81070847 381.93696958 -21.79662146 386.0790102 C-21.79395841 387.57964247 -21.79639116 389.08029397 -21.80435733 390.58090746 C-21.81441741 392.61683368 -21.80427791 394.65282999 -21.79308033 396.68875027 C-21.79313535 397.8208066 -21.79319036 398.95286294 -21.79324704 400.11922401 C-21.37108616 403.51375595 -20.42435074 405.38979686 -18.41835022 408.13371277 C-15.35969619 410.2744083 -12.77534336 410.37826988 -9.09901428 410.36076355 C-8.03821655 410.36061249 -6.97741882 410.36046143 -5.88447571 410.36030579 C-4.74581055 410.34998322 -3.60714539 410.33966064 -2.43397522 410.32902527 C-1.26324463 410.32619537 -0.09251404 410.32336548 1.11369324 410.32044983 C4.85311603 410.30925433 8.59229937 410.28415053 12.33164978 410.25871277 C14.86680257 410.24868217 17.40195912 410.23955646 19.93711853 410.23136902 C26.15204399 410.20931703 32.36682978 410.17584552 38.58164978 410.13371277 C38.58495993 409.33802667 38.58827007 408.54234056 38.59168053 407.72254276 C38.67297992 388.34176586 38.76509508 368.96106782 38.86917686 349.58039951 C38.91925098 340.20796902 38.96569444 330.83554704 39.00352478 321.46305847 C39.03651555 313.29187528 39.07638575 305.12075922 39.12443984 296.94965023 C39.14963449 292.62505234 39.17143638 288.30049857 39.18499374 283.97584724 C39.19787815 279.90058855 39.22000057 275.82548173 39.24903297 271.75030708 C39.2580591 270.25926359 39.2637873 268.76819568 39.26586342 267.27712631 C39.2883003 253.60359876 40.43345656 243.44436493 50.33164978 233.32121277 C61.22291703 225.99055212 71.88511038 226.56197914 84.56993103 226.61613464 C86.70294166 226.61070905 88.83594854 226.60358393 90.96894836 226.59489441 C96.74166486 226.57671038 102.51409434 226.58370837 108.28681564 226.59641075 C114.33863324 226.60656387 120.39042688 226.59713865 126.44224548 226.59086609 C136.60366714 226.58359643 146.76497237 226.59315956 156.92637634 226.61222839 C168.66099408 226.63399572 180.39533379 226.62694388 192.1299448 226.60492277 C202.21941533 226.58674941 212.30880234 226.58421995 222.39828396 226.59467745 C228.41799919 226.60090169 234.43758389 226.60177734 240.45729065 226.58853149 C246.11765634 226.57694553 251.77766484 226.58504919 257.4379921 226.60810852 C259.51076795 226.6133809 261.58357406 226.61190714 263.65633774 226.60305786 C276.93401258 226.55161345 287.76068618 226.66335218 297.89414978 236.28605652 C306.41553869 245.61618836 305.88396038 257.59881028 305.90049744 269.47575378 C305.90980938 271.01401285 305.91997992 272.55226692 305.93093872 274.09051514 C305.95811012 278.24273178 305.97334975 282.39491473 305.98636675 286.54719663 C306.00205389 290.89540524 306.02882617 295.24354563 306.05439758 299.59170532 C306.10108687 307.81496743 306.1378785 316.03824251 306.17107046 324.26156896 C306.20936164 333.62802627 306.25875338 342.9944149 306.30905461 352.36081421 C306.41222788 371.61839672 306.50153555 390.87602121 306.58164978 410.13371277 C314.03804486 410.2097955 321.49433978 410.26232654 328.95103455 410.29850769 C331.48753093 410.3135914 334.02400126 410.33406108 336.56040955 410.36003113 C340.206878 410.39643158 343.85300151 410.41344359 347.49961853 410.42668152 C348.63312241 410.44216537 349.76662628 410.45764923 350.93447876 410.47360229 C351.99520096 410.47382889 353.05592316 410.47405548 354.14878845 410.47428894 C355.0792247 410.48095078 356.00966095 410.48761261 356.96829224 410.49447632 C360.18152854 410.05090191 362.00154652 409.08530571 364.58164978 407.13371277 C366.47123988 404.09615058 366.87413383 401.6349661 367.02327728 398.08937263 C367.04685279 397.57749887 367.04685279 397.57749887 367.16615915 394.9871074 C367.20808185 393.86365886 367.25000455 392.74021033 367.29319763 391.5827179 C367.34429609 390.38728989 367.39539454 389.19186188 367.44804144 387.96020877 C367.58651885 384.63852674 367.71582729 381.31674929 367.83991432 377.9945147 C367.92014566 375.86815999 368.00379143 373.74196456 368.08840179 371.61577988 C369.16367516 344.48228514 369.82447661 317.33974659 370.32365766 290.19000603 C370.40584483 285.72474075 370.49089575 281.25953425 370.57774353 276.7943573 C370.58635889 276.35009572 370.58635889 276.35009572 370.62995785 274.10186289 C370.89583837 260.75038894 371.37542704 247.41798713 371.97227478 234.07756042 C372.88115119 213.49720532 373.45682969 192.93055644 373.48789978 172.32902527 C373.48982425 171.49969203 373.49174871 170.67035879 373.4937315 169.81589425 C373.54259354 128.6611036 371.7209033 94.39349574 341.26756287 63.44447327 C305.79662865 29.13371277 305.79662865 29.13371277 295.58164978 29.13371277 C295.5809165 29.44651924 295.5809165 29.44651924 295.57720566 31.02950954 C295.54009101 46.27949805 295.48101492 61.52923166 295.39774704 76.77902889 C295.35800354 84.15385217 295.32558736 91.52856946 295.31065369 98.90348816 C295.29761271 105.33440147 295.27058615 111.76508113 295.22703671 118.19586283 C295.20447635 121.59832519 295.1887358 125.00049996 295.18976593 128.40304375 C295.18739589 132.20937351 295.16030998 136.01479564 295.12754822 139.82096863 C295.13257858 140.93875198 295.13760895 142.05653534 295.14279175 143.20819092 C295.01215867 153.04184061 292.22835019 160.21682783 285.49180603 167.41105652 C275.00506164 176.86842722 259.77275981 175.42382942 246.62876892 175.39250183 C244.71413032 175.39521529 242.79949277 175.39877821 240.88485718 175.40312195 C235.7071637 175.41220662 230.52955032 175.40871774 225.35185552 175.40236378 C219.91977941 175.39728271 214.48770993 175.40200114 209.05563354 175.40513611 C199.93416621 175.40876993 190.81273132 175.4039923 181.69126892 175.39445496 C171.16438669 175.38357481 160.63758197 175.38709516 150.11070162 175.39810777 C141.05392072 175.40720118 131.99716308 175.40845578 122.94037908 175.40323043 C117.5393827 175.4001216 112.13842267 175.39967135 106.73742867 175.40630341 C101.65744358 175.41210604 96.57755782 175.40802679 91.49758339 175.39651489 C89.63969334 175.39388373 87.78179485 175.39460682 85.92390823 175.39904022 C60.91930011 175.45317921 60.91930011 175.45317921 52.23789978 169.25480652 C50.58164978 168.13371277 50.58164978 168.13371277 47.58164978 167.13371277 C46.55430603 165.37590027 46.55430603 165.37590027 45.58164978 163.13371277 C45.16786072 162.35254089 44.75407166 161.57136902 44.32774353 160.76652527 C44.11182556 160.35273621 44.11182556 160.35273621 43.01914978 158.25871277 C42.58473572 157.43629089 42.15032166 156.61386902 41.70274353 155.76652527 C38.89665687 149.1766214 39.41161835 142.0126831 39.37632751 134.97795105 C39.36642792 133.75787857 39.35652832 132.53780609 39.34632874 131.28076172 C39.32021952 127.94858398 39.29832533 124.61642919 39.27832675 121.28421259 C39.25639309 117.79683569 39.22904066 114.30950133 39.20227051 110.82215881 C39.15244307 104.22438725 39.10746752 97.62659194 39.06424814 91.02877414 C39.0147905 83.51484422 38.95990411 76.00095699 38.90456855 68.48706841 C38.79090133 53.03598936 38.68402933 37.58487098 38.58164978 22.13371277 C31.1252547 22.05763004 23.66895978 22.005099 16.21226501 21.96891785 C13.67576863 21.95383414 11.1392983 21.93336446 8.60289001 21.90739441 C4.95642156 21.87099396 1.31029805 21.85398195 -2.33631897 21.84074402 C-3.46982285 21.82526016 -4.60332672 21.80977631 -5.7711792 21.79382324 C-6.8319014 21.79359665 -7.8926236 21.79337006 -8.98548889 21.7931366 C-9.45070702 21.78980568 -9.45070702 21.78980568 -11.80499268 21.77294922 C-15.01822898 22.21652363 -16.83824696 23.18211983 -19.41835022 25.13371277 Z M60.58164978 22.13371277 C60.51977478 42.65558777 60.45789978 63.17746277 60.39414978 84.32121277 C60.36683777 90.80157166 60.33952576 97.28193054 60.31138611 103.95866394 C60.2978363 111.87065125 60.2978363 111.87065125 60.2953186 115.57434082 C60.29071092 118.16179587 60.28127905 120.74881228 60.2649231 123.33618164 C60.2404812 127.25464728 60.23993055 131.17293117 60.24107361 135.09147644 C60.23027928 136.2445312 60.21948496 137.39758596 60.20836353 138.58558178 C60.21249602 139.64203553 60.21662851 140.69848928 60.22088623 141.78695679 C60.21812085 142.70414081 60.21535547 143.62132483 60.21250629 144.5663023 C60.76320053 148.39640685 62.17999242 151.05643377 65.26706123 153.4290781 C68.69488035 154.4726157 72.06588809 154.41910963 75.61506653 154.40786743 C76.4309613 154.41310411 77.24685608 154.41834079 78.08747494 154.42373616 C80.82500321 154.43875373 83.56234485 154.43944169 86.2999115 154.44010925 C88.26118791 154.44772951 90.22246133 154.45615677 92.18373108 154.46533203 C97.51431133 154.48729599 102.84483422 154.49607839 108.17545462 154.50115848 C111.50495302 154.50479954 114.83443633 154.51103826 118.16392899 154.51815987 C129.77697155 154.5426601 141.38996941 154.55570769 153.0030365 154.55924988 C163.83218562 154.5628865 174.66105155 154.59278957 185.49011409 154.63465446 C194.78448901 154.66932815 204.07876994 154.68479781 213.37320912 154.68549591 C218.92570645 154.68628966 224.47791534 154.69507371 230.03034592 154.72349358 C235.25235786 154.74962429 240.47384117 154.75190724 245.69588852 154.73583794 C247.61232656 154.73401952 249.52879466 154.74074945 251.44516754 154.75665665 C254.06216185 154.77705499 256.67729569 154.76660312 259.29426575 154.7484436 C259.67325781 154.75504359 259.67325781 154.75504359 261.59118736 154.78844351 C267.35181057 154.69717005 269.69244417 153.08717578 273.58164978 149.13371277 C274.83298459 146.63104315 274.70471096 144.948775 274.7019043 142.14772034 C274.70328179 141.09539907 274.70465929 140.04307781 274.70607853 138.95886803 C274.70248042 137.79501894 274.69888231 136.63116985 274.69517517 135.43205261 C274.69529571 134.19278833 274.69541624 132.95352406 274.69554043 131.67670631 C274.69491604 128.3183009 274.68996219 124.95995685 274.68292999 121.6015625 C274.67724366 118.45253089 274.67696734 115.30350086 274.67625427 112.15446472 C274.67100269 102.93920935 274.65704159 93.72396062 274.64414978 84.50871277 C274.63383728 74.21683777 274.63383728 74.21683777 274.58164978 22.13371277 C203.96164978 22.13371277 133.34164978 22.13371277 60.58164978 22.13371277 Z M61.7916975 251.92100143 C60.15639303 254.91134362 60.21267978 257.13415232 60.22088623 260.53709412 C60.21675374 261.85246281 60.21262125 263.1678315 60.20836353 264.52305984 C60.21900347 265.98475078 60.22991716 267.44643975 60.24107361 268.90812683 C60.24199268 270.47053378 60.24159203 272.03294197 60.23997784 273.59534836 C60.2393004 277.78039212 60.25669093 281.96517868 60.27780914 286.15016174 C60.29489083 290.07681593 60.29569832 294.00340748 60.2978363 297.93009949 C60.31357986 309.41467133 60.35546331 320.89919529 60.39414978 332.38371277 C60.45602478 358.04121277 60.51789978 383.69871277 60.58164978 410.13371277 C134.50164978 410.13371277 208.42164978 410.13371277 284.58164978 410.13371277 C284.63321228 397.32558777 284.63321228 397.32558777 284.89414978 332.50871277 C284.9396698 324.41903992 284.98518982 316.32936707 285.03208923 307.99455261 C285.05467224 298.11930847 285.05467224 298.11930847 285.05886841 293.49690247 C285.06352857 290.26699161 285.08227228 287.03749127 285.10952759 283.80769348 C285.14384249 279.68668618 285.15410249 275.56627514 285.14701116 271.44513822 C285.14849379 269.93345657 285.15839859 268.42175393 285.17772543 266.91019511 C285.33270621 254.19764393 285.33270621 254.19764393 282.2336731 250.25862122 C277.80353798 246.70901761 273.78561794 246.98737137 268.35804749 246.99327087 C267.50963315 246.99029975 266.66121881 246.98732863 265.78709495 246.98426747 C262.93360984 246.97557004 260.08016664 246.97407135 257.22666931 246.97257996 C255.18510345 246.96795257 253.14353846 246.96292802 251.10197449 246.95753479 C245.54827485 246.94440226 239.99458731 246.93796432 234.44087458 246.93352413 C230.97319913 246.93059515 227.50552701 246.9264907 224.03785324 246.92201996 C213.19414762 246.90834359 202.35044957 246.89867727 191.50673592 246.89481807 C178.97809612 246.890335 166.44956529 246.87277613 153.92095864 246.84381747 C144.24361544 246.8222235 134.56630296 246.81211503 124.88893592 246.81077695 C119.10570012 246.8097274 113.32256673 246.80378764 107.53935623 246.78595734 C102.10078562 246.76951588 96.66239485 246.76730205 91.22380829 246.77609634 C89.22633 246.77686879 87.2288422 246.77249679 85.23138809 246.76263809 C82.50711593 246.74997926 79.78348659 246.75576227 77.05921936 246.76622009 C76.26651268 246.75816369 75.473806 246.75010728 74.65707791 246.74180675 C68.95225117 246.7931189 65.80002628 247.91863742 61.7916975 251.92100143 Z " fill="#000000" transform="translate(83.41835021972656,39.86628723144531)"/>
<path d="M0 0 C0.35606071 -0.00095673 0.35606071 -0.00095673 2.15794373 -0.00579834 C3.65469723 -0.00715215 5.15146279 -0.00351218 6.64819336 0.00488281 C8.93044515 0.0156102 11.21191277 0.00495246 13.49414062 -0.0078125 C14.95442881 -0.00649107 16.41471651 -0.00392902 17.875 0 C19.19314697 0.00225586 20.51129395 0.00451172 21.86938477 0.00683594 C26.5517854 0.35288242 29.1235185 1.02796847 32.48034668 4.35810852 C34.83736838 7.98264379 34.94242812 10.89789284 34.90454102 15.08178711 C34.9088488 15.46747612 34.9088488 15.46747612 34.9306488 17.41929626 C34.95329063 19.96086498 34.94657336 22.50132939 34.9375 25.04296875 C34.94273665 26.81507189 34.94901328 28.58717223 34.95628357 30.35926819 C34.96668464 34.07061899 34.96213101 37.78158631 34.94750977 41.49291992 C34.93032794 46.2423229 34.9538107 50.99051539 34.98899937 55.73978329 C35.01099133 59.39876784 35.00952749 63.05746359 35.00123405 66.71649361 C35.00041541 68.46714162 35.00726232 70.21781102 35.02200508 71.96839714 C35.03948384 74.4197042 35.02488326 76.86884719 35.00219727 79.32006836 C35.01388947 80.03870056 35.02558167 80.75733276 35.03762817 81.4977417 C34.93179496 87.13612936 33.22101698 89.44413577 29.37109375 93.265625 C24.19467959 95.67541738 17.02776992 94.49125541 11.35473633 94.50585938 C9.07661187 94.51554837 6.79939675 94.54658657 4.52148438 94.578125 C3.05859906 94.58465775 1.59570735 94.58990715 0.1328125 94.59375 C-0.540345 94.6060968 -1.2135025 94.6184436 -1.90705872 94.63116455 C-6.77668205 94.60858545 -10.3826642 93.64173361 -14.62890625 91.265625 C-17.79561454 87.22907157 -18.06474601 83.58969856 -18.03295898 78.63305664 C-18.03982224 77.88118576 -18.04668549 77.12931488 -18.05375671 76.35466003 C-18.07200401 73.87817304 -18.06819028 71.40232082 -18.0625 68.92578125 C-18.06706289 67.19851984 -18.07236878 65.47126025 -18.0783844 63.7440033 C-18.08731148 60.12686785 -18.08489711 56.50995324 -18.07495117 52.89282227 C-18.06346334 48.26464832 -18.08367183 43.63723756 -18.11286831 39.00916386 C-18.13124246 35.4428577 -18.13093543 31.87673401 -18.12523079 28.31039238 C-18.12507772 26.60440437 -18.13111058 24.89840388 -18.14352226 23.19246101 C-18.15845355 20.80368749 -18.14774087 18.41631842 -18.13061523 16.02758789 C-18.13544922 15.67762253 -18.13544922 15.67762253 -18.15991211 13.90658569 C-18.08552153 8.93422493 -16.77113595 6.07945324 -13.62890625 2.265625 C-9.14018313 0.06690544 -4.94608256 0.00845742 0 0 Z M4.37109375 22.265625 C4.37109375 38.765625 4.37109375 55.265625 4.37109375 72.265625 C7.34109375 72.265625 10.31109375 72.265625 13.37109375 72.265625 C13.37109375 55.765625 13.37109375 39.265625 13.37109375 22.265625 C10.40109375 22.265625 7.43109375 22.265625 4.37109375 22.265625 Z " fill="#000000" transform="translate(303.62890625,80.734375)"/>
<path d="M0 0 C7.26 0 14.52 0 22 0 C22 7.26 22 14.52 22 22 C14.74 22 7.48 22 0 22 C0 14.74 0 7.48 0 0 Z " fill="#000000" transform="translate(409,409)"/>
<path d="M0 0 C7.26 0 14.52 0 22 0 C22 7.26 22 14.52 22 22 C14.74 22 7.48 22 0 22 C0 14.74 0 7.48 0 0 Z " fill="#000000" transform="translate(81,409)"/>
</svg>
