<?xml version="1.0" encoding="UTF-8"?>
<!-- Generator: visioncortex VTracer 0.6.12 -->
<svg version="1.1" xmlns="http://www.w3.org/2000/svg" width="512" height="512">
<path d="M0 0 C29.34950553 26.68281168 47.9987681 63.36189057 50.875 103.08984375 C52.39071155 138.37750338 44.42742679 172.76324541 24 202 C23.319375 202.97839844 22.63875 203.95679688 21.9375 204.96484375 C10.45285789 220.65922799 -3.57956145 233.63260171 -20 244 C-20.60408691 244.38478516 -21.20817383 244.76957031 -21.83056641 245.16601562 C-55.43840265 266.26577789 -97.3950848 271.6581418 -135.87402344 263.38183594 C-147.76399804 260.50664672 -159.03123533 256.3914267 -170 251 C-171.11632812 250.45601563 -172.23265625 249.91203125 -173.3828125 249.3515625 C-186.66598654 242.53393341 -197.93842595 233.68214543 -208.61914062 223.32958984 C-209.79570007 222.19671454 -210.99699623 221.08962223 -212.203125 219.98828125 C-238.98589349 194.89304492 -252.82954915 156.02717712 -254.21875 120.046875 C-255.21099303 80.29350036 -242.25064048 41.29380002 -215 12 C-214.43651855 11.39269043 -213.87303711 10.78538086 -213.29248047 10.15966797 C-157.13710144 -49.65901385 -61.76548742 -54.25769604 0 0 Z M-198.3125 30.5625 C-221.77805072 57.98725887 -231.15298311 91.30949136 -229 127 C-226.33310969 159.39576274 -209.25869405 190.83320935 -184.65234375 211.86328125 C-183.77707031 212.56839844 -182.90179688 213.27351562 -182 214 C-181.01128906 214.79792969 -180.02257812 215.59585938 -179.00390625 216.41796875 C-152.05800739 237.26451731 -117.28186484 245.39047152 -83.76342773 241.27758789 C-59.79990198 237.77373659 -37.43513074 227.62080406 -19 212 C-18.59136719 211.66677734 -18.59136719 211.66677734 -16.5234375 209.98046875 C-10.55384719 204.94426799 -5.75567853 199.1738898 -1 193 C-0.319375 192.13503906 0.36125 191.27007812 1.0625 190.37890625 C10.42515126 178.07214004 16.44737813 164.70328248 21 150 C21.31839844 148.97390625 21.63679687 147.9478125 21.96484375 146.890625 C30.70057215 115.42461824 25.38795954 80.47720477 9.8671875 51.9921875 C-7.35653193 21.67055374 -35.44923885 0.16515807 -68.80908203 -9.39794922 C-116.44563383 -22.48818064 -165.5336955 -5.17331757 -198.3125 30.5625 Z " fill="#000000" transform="translate(311,95)"/>
<path d="M0 0 C5.27765273 0.00687194 7.63982942 1.393266 11.5 4.9375 C13.02413077 6.4967837 14.54522602 8.05904344 16.0625 9.625 C17.97265625 11.54296875 17.97265625 11.54296875 20.0625 12.625 C22.80078125 11.8359375 22.80078125 11.8359375 26.0625 10.625 C36.62245735 9.71955999 47.63697408 9.49173967 56.31632996 16.42555237 C63.09422622 22.65604758 69.69962571 29.04797862 76.23828125 35.52734375 C76.79656301 36.08030184 77.35484478 36.63325993 77.93004417 37.20297432 C80.87618233 40.12264582 83.81881201 43.04580631 86.7590332 45.97143555 C89.17174731 48.37076156 91.59154865 50.76258127 94.01782227 53.14819336 C96.97783501 56.05865087 99.92515832 58.98141587 102.86403465 61.91320992 C103.97483067 63.01734624 105.08983423 64.11726822 106.20931435 65.2125988 C115.07791697 73.90043889 122.05585296 82.2698298 122.30419922 95.20898438 C122.35303594 107.58478289 119.94910086 115.13802881 111.5390625 124.28125 C103.80703384 131.67382374 94.31908582 134.34536389 83.86352539 134.1484375 C69.83859915 133.41890491 60.89479329 124.80027205 51.5625 115.1875 C43.56941203 106.99786068 43.56941203 106.99786068 39.4765625 103.5078125 C33.3837308 98.26087443 27.68850574 92.58752692 21.97119141 86.9387207 C20.61803845 85.60717271 19.25865765 84.28192344 17.89306641 82.96313477 C8.05429146 73.45689479 -1.22551978 64.33127935 -2.10546875 49.86328125 C-2.14005733 44.68191123 -1.95384656 40.39074412 -0.375 35.4375 C0.203125 33.00390625 0.203125 33.00390625 0.0625 30.625 C-1.92605917 27.91052874 -4.13850327 25.86309881 -6.66015625 23.640625 C-9.46750244 21.15590693 -10.88381926 19.23761969 -11.9375 15.625 C-12.20697457 10.58582563 -11.71289414 7.55547296 -8.4375 3.625 C-7.6125 2.965 -6.7875 2.305 -5.9375 1.625 C-4.25355308 -0.05894692 -2.31528077 0.17535086 0 0 Z M26.0625 38.625 C23.45552861 41.65245064 23.08445257 43.30119963 22.8125 47.3125 C24.52279313 56.94949419 37.62352028 66.34165392 44.41040039 73.10327148 C46.1295867 74.81707233 47.84332583 76.53619082 49.55664062 78.25585938 C54.67679599 83.37851161 59.81224687 88.38572031 65.32983398 93.08422852 C67.12628628 94.68172189 68.76639954 96.35997877 70.40625 98.1171875 C70.93089844 98.67664063 71.45554687 99.23609375 71.99609375 99.8125 C73.05210664 100.95014979 74.09622461 102.09894283 75.12890625 103.2578125 C77.99549506 106.27230884 80.07803473 107.97104762 84.26171875 108.609375 C88.91334072 108.6284978 90.60690279 107.67878358 94.0625 104.625 C96.79093837 101.45649092 97.07533936 100.0556286 96.94935608 95.83018494 C96.2916619 91.32521734 94.1337331 88.70116592 90.93530273 85.59204102 C90.4018071 85.04627914 89.86831146 84.50051727 89.31864929 83.93821716 C87.56158724 82.15050684 85.78034872 80.38944569 83.99609375 78.62890625 C82.76012922 77.38822216 81.52520505 76.14650088 80.29127502 74.90379333 C77.70565077 72.3078687 75.10784142 69.72497594 72.50073242 67.15063477 C69.16677594 63.85656082 65.86523993 60.53205066 62.57221889 57.19711399 C60.02914952 54.62869921 57.46957898 52.07725282 54.9047718 49.53056145 C53.68087496 48.3113203 52.46211833 47.08689594 51.24874687 45.85717964 C49.54739944 44.13796768 47.82505782 42.44292261 46.09545898 40.75219727 C45.84880493 40.4984584 45.84880493 40.4984584 44.60058594 39.21438599 C38.70299209 33.55893984 32.27839955 33.13187947 26.0625 38.625 Z " fill="#000000" transform="translate(332.9375,321.375)"/>
<path d="M0 0 C0.76530029 -0.03448242 1.53060059 -0.06896484 2.3190918 -0.10449219 C6.39850368 -0.13483898 8.91804885 0.20598853 12.140625 2.8203125 C15.17957997 5.943165 16.65186068 7.93765597 16.71484375 12.35546875 C16.36635042 17.11821099 15.30689331 20.11157101 11.6875 23.4375 C6.86282829 25.43092723 2.26001024 25.88212475 -2.875 26.3125 C-23.75754904 28.39015463 -42.50733142 37.60547545 -56.22265625 53.7265625 C-66.74807032 67.38009028 -72.44199144 81.56425963 -74.20043945 98.61157227 C-74.79806674 103.86551404 -75.83749241 107.23907076 -79.3125 111.4375 C-83.56902862 114.27518574 -87.31532166 114.07477624 -92.3125 113.4375 C-96.44992838 111.36878581 -98.58347924 109.68572747 -100.3125 105.4375 C-103.46362054 84.68921282 -92.7396681 60.02371284 -81.1875 43.375 C-79.00068533 40.60932262 -76.71548459 38.01750696 -74.3125 35.4375 C-73.84360352 34.9223584 -73.37470703 34.4072168 -72.89160156 33.87646484 C-53.86212458 13.11647556 -28.35175826 0.72000837 0 0 Z " fill="#000000" transform="translate(205.3125,104.5625)"/>
<path d="M0 0 C3.12578143 1.6720747 5.39281175 3.7856235 7 7 C7.51512617 11.09157355 7.94367269 15.23589546 5.953125 18.95703125 C3.55501226 21.85592636 1.60351712 23.79811835 -2.171875 24.2734375 C-9.98876369 24.58137554 -9.98876369 24.58137554 -13.5625 21.625 C-17.3057723 17.59378368 -17.39037018 14.90519941 -17.359375 9.55078125 C-16.78039966 5.44131496 -15.00085071 3.78650423 -12 1 C-8.27533151 -0.86233425 -4.05504687 -0.57130829 0 0 Z " fill="#000000" transform="translate(145,256)"/>
</svg>
