<?xml version="1.0" encoding="UTF-8"?>
<!-- Generator: visioncortex VTracer 0.6.12 -->
<svg version="1.1" xmlns="http://www.w3.org/2000/svg" width="512" height="512">
<path d="M0 0 C0.36722168 0.17466797 0.36722168 0.17466797 2.22558594 1.05859375 C42.74174049 20.66144743 73.78090171 56.86609767 89 99 C104.52747392 144.89307776 101.2996235 192.89670779 80.34594727 236.46191406 C76.56013472 244.10632768 72.17370832 251.15766795 67 257.9375 C65 261 65 261 65.08038235 262.87424088 C66.39588651 265.91511876 68.36901091 267.73704914 70.71388245 270.074646 C71.20884671 270.57217353 71.70381097 271.06970107 72.21377414 271.58230519 C73.87578242 273.24925878 75.54829361 274.90525693 77.22094727 276.56152344 C78.41384209 277.75357215 79.60607692 278.94628164 80.79769897 280.13960266 C84.03672016 283.37948585 87.28491891 286.61002542 90.53481412 289.83899593 C93.92878147 293.2142308 97.31427543 296.5979427 100.70066833 299.98077393 C107.11555882 306.38633388 113.53805948 312.78420705 119.96331304 319.17937016 C127.2774438 326.45998833 134.58307484 333.74910984 141.88799584 341.03896666 C156.91587608 356.03547503 171.95442597 371.02124476 187 386 C185.40538831 389.36397854 183.66161218 391.58171059 181.00927734 394.21777344 C180.18857758 395.03832214 179.36787781 395.85887085 178.52230835 396.70428467 C178.07905716 397.14237457 178.07905716 397.14237457 175.8359375 399.359375 C174.92872955 400.26375305 174.02152161 401.1681311 173.08682251 402.09991455 C170.68115581 404.49796458 168.26954264 406.88994618 165.85662842 409.28070068 C163.39297656 411.72385171 160.93501423 414.17271206 158.4765625 416.62109375 C153.65626427 421.41933788 148.83030157 426.21182732 144 431 C140.18922313 429.42536172 137.79811673 427.0319723 134.91430664 424.12117004 C134.41551782 423.62056224 133.91672899 423.11995444 133.40282536 422.6041767 C131.73381307 420.9267554 130.07207352 419.2423101 128.41015625 417.55786133 C127.21456893 416.35352409 126.01850182 415.14966299 124.82199097 413.94624329 C122.24709496 411.35485996 119.67519397 408.76055266 117.10543823 406.16407204 C113.04456133 402.06186598 108.97448691 397.9688711 104.90258789 393.87760925 C93.32544103 382.24285002 81.75838158 370.59812577 70.20605469 358.9387207 C63.82514052 352.49882116 57.43538 346.06783719 51.03569317 339.64659137 C46.98231825 335.57853964 42.94029395 331.49963095 38.90614319 327.4125191 C36.39876779 324.87749022 33.88106398 322.35292436 31.36023331 319.83128166 C30.19000122 318.65646418 29.02409336 317.47732172 27.86278915 316.29367828 C26.28167107 314.68337704 24.68603548 313.08904178 23.08569336 311.49787903 C22.19490585 310.59988492 21.30411835 309.70189081 20.38633728 308.77668476 C18 307 18 307 15.79771423 307.16234875 C13.89286934 308.04991791 12.05204845 308.96100302 10.2265625 310.00390625 C-26.07357263 330.23158411 -72.01689005 339.15153249 -113 329 C-113.8465918 328.79068848 -114.69318359 328.58137695 -115.56542969 328.36572266 C-146.10826292 320.58407402 -173.88573271 306.67795315 -196.48681641 284.47363281 C-197.97266948 283.02661617 -199.48720248 281.61703993 -201.01171875 280.2109375 C-233.3074011 249.8998472 -248.88058364 205.44761729 -250.90234375 162.109375 C-252.43754832 113.22846152 -232.49446404 69.15096908 -199.84765625 33.66015625 C-148.8197966 -19.03732661 -65.30024586 -31.1796539 0 0 Z M-141 42 C-141.44859375 42.24041016 -141.44859375 42.24041016 -143.71875 43.45703125 C-173.50759159 60.2374339 -194.92550832 89.64572449 -204.25390625 122.22265625 C-213.39841771 156.68170364 -208.87971105 193.45797038 -191.1484375 224.453125 C-172.2995954 256.10528197 -143.04468805 277.5725995 -107.546875 286.95703125 C-97.10413847 289.4582925 -87.04754174 290.36108724 -76.3125 290.3125 C-75.98254532 290.31125626 -75.98254532 290.31125626 -74.31277466 290.30496216 C-63.89357433 290.24434605 -54.06743308 289.8046827 -44 287 C-43.18805176 286.77425293 -42.37610352 286.54850586 -41.53955078 286.31591797 C-6.66393218 276.27096264 22.77436206 254.16630454 40.51269531 222.23730469 C57.41515523 190.50609309 61.59776925 154.44202638 51.53515625 119.796875 C45.30574923 99.70201364 35.22548226 82.43530358 21 67 C20.12601563 66.04351562 19.25203125 65.08703125 18.3515625 64.1015625 C-3.15305439 41.58793133 -35.71246985 26.08198952 -67 25 C-67.64324219 24.97421875 -67.64324219 24.97421875 -70.8984375 24.84375 C-95.71465232 24.17334098 -119.32434972 29.96610857 -141 42 Z " fill="#000000" transform="translate(291,47)"/>
</svg>
