<?xml version="1.0" encoding="UTF-8"?>
<!-- Generator: visioncortex VTracer 0.6.12 -->
<svg version="1.1" xmlns="http://www.w3.org/2000/svg" width="512" height="512">
<path d="M0 0 C34.00297192 29.68655692 55.55963813 72.53432806 58.84765625 117.60546875 C61.55619403 162.81938219 49.00884065 204.68827484 21.375 240.6875 C20.715 241.3475 20.055 242.0075 19.375 242.6875 C19.56392852 246.79973364 22.22279335 248.86441039 25.0390625 251.609375 C25.50935883 252.07305481 25.97965515 252.53673462 26.46420288 253.01446533 C27.9691856 254.49609836 29.48391332 255.9672384 31 257.4375 C32.49298788 258.89506763 33.98369091 260.35486183 35.4715271 261.81768799 C36.83557595 263.15729483 38.20593175 264.49047087 39.57666016 265.82324219 C41.6340402 267.87656318 43.53519333 270.01866611 45.42076111 272.23028564 C49.87132307 277.33360478 54.64549152 282.09027309 59.44116211 286.8671875 C60.43747095 287.86321365 61.43355841 288.85946127 62.42944336 289.85591125 C65.11059417 292.53734682 67.79479819 295.21570642 70.4795959 297.89348984 C73.29342435 300.7010309 76.10438651 303.51143888 78.91566467 306.3215332 C84.22936125 311.63213226 89.54559984 316.9401789 94.86277539 322.24729443 C100.92043381 328.29374248 106.9752241 334.34305919 113.02978504 340.39260864 C125.47502006 352.82741505 137.92382005 365.25864641 150.375 377.6875 C149.43429331 378.79457468 148.49219608 379.90046786 147.54953003 381.00587463 C147.02505217 381.62184793 146.5005743 382.23782122 145.96020317 382.87246037 C143.66474252 385.50073675 141.23296485 387.94109675 138.7578125 390.40234375 C138.50680283 390.65264595 138.50680283 390.65264595 137.23654175 391.91932678 C135.66006329 393.49028598 134.08011427 395.05769877 132.5 396.625 C131.41903726 397.70093727 130.33830617 398.77710731 129.2578125 399.85351562 C126.63287359 402.46753292 124.00481372 405.07838596 121.375 407.6875 C115.2866727 402.65006768 109.72540999 397.16683575 104.15698242 391.56713867 C103.14465344 390.55288721 102.13209411 389.53886564 101.11932373 388.52505493 C98.95171877 386.35430619 96.78567278 384.18201829 94.62084007 382.00850487 C91.19899599 378.57307738 87.77328603 375.14152221 84.34700012 371.71052551 C77.0825247 364.43498363 69.82230685 357.1551999 62.5625 349.875 C54.70673883 341.99720983 46.85024173 334.1201618 38.98887902 326.24796087 C35.58097518 322.83506858 32.17552546 319.41975172 28.77192056 316.00257242 C26.66034251 313.88355548 24.54671307 311.76659403 22.43251038 309.65019608 C21.45041256 308.6662206 20.46918235 307.68137832 19.48887062 306.6956234 C18.15443844 305.35401313 16.81665463 304.015739 15.47868347 302.67765808 C14.73006137 301.92681537 13.98143927 301.17597265 13.21013165 300.40237713 C11.375 298.6875 11.375 298.6875 9.375 297.6875 C9.375 297.0275 9.375 296.3675 9.375 295.6875 C9.09188965 295.56737549 9.09188965 295.56737549 7.65917969 294.95947266 C4.90459413 293.42554889 3.04250329 291.58023982 0.828125 289.3359375 C-0.01621094 288.48515625 -0.86054688 287.634375 -1.73046875 286.7578125 C-2.60316406 285.86835938 -3.47585938 284.97890625 -4.375 284.0625 C-5.26316406 283.1653125 -6.15132813 282.268125 -7.06640625 281.34375 C-9.25716969 279.12942996 -11.44312763 276.91057565 -13.625 274.6875 C-18.81969305 277.54869355 -23.96110172 280.47482624 -29.0625 283.5 C-68.41212152 306.16044027 -116.61937192 312.15591505 -160.50415039 300.73730469 C-206.39659481 288.1274255 -244.68528522 258.32610893 -268.30664062 217.06542969 C-290.95041349 176.22277271 -296.43049732 128.34751209 -284 83.3125 C-276.74916204 58.35462047 -264.4818031 34.97099266 -246.703125 15.91796875 C-244.79473109 13.86967378 -242.98875274 11.76714403 -241.1875 9.625 C-182.21441556 -57.54252214 -72.83611308 -58.58094942 0 0 Z M-190.625 -2.3125 C-191.28306641 -1.94286133 -191.94113281 -1.57322266 -192.61914062 -1.19238281 C-203.36266578 4.93713564 -212.56629115 12.29918588 -221.625 20.6875 C-222.44355469 21.42355469 -223.26210937 22.15960938 -224.10546875 22.91796875 C-250.19032354 47.48239484 -267.10747129 85.72242372 -268.75097656 121.42407227 C-269.93129076 165.91370005 -256.04371058 205.6406639 -225.79907227 238.44335938 C-221.12405493 243.36667299 -216.00080495 247.56153206 -210.625 251.6875 C-209.72523438 252.41453125 -208.82546875 253.1415625 -207.8984375 253.890625 C-176.81799259 278.37824826 -136.48229639 288.26512807 -97.45336914 283.91625977 C-67.11383607 280.03577751 -38.59204602 268.04390338 -15.625 247.6875 C-15.10309082 247.23117187 -14.58118164 246.77484375 -14.04345703 246.3046875 C15.26251728 220.58351556 34.29655226 183.72932997 37.375 144.6875 C38.04370486 129.16040518 37.82619723 113.87661317 34.375 98.6875 C34.19759277 97.88248047 34.02018555 97.07746094 33.83740234 96.24804688 C29.06046769 75.38998105 19.82147036 55.36736705 6.375 38.6875 C5.64925781 37.74390625 4.92351562 36.8003125 4.17578125 35.828125 C-20.38616405 4.60755539 -56.05819149 -14.6201958 -95.06640625 -20.86328125 C-128.14235253 -24.79014178 -161.61673148 -18.73088548 -190.625 -2.3125 Z " fill="#000000" transform="translate(330.625,73.3125)"/>
</svg>
