<?xml version="1.0" encoding="UTF-8"?>
<!-- Generator: visioncortex VTracer 0.6.12 -->
<svg version="1.1" xmlns="http://www.w3.org/2000/svg" width="512" height="512">
<path d="M0 0 C168.96 0 337.92 0 512 0 C512 122.1 512 244.2 512 370 C343.04 370 174.08 370 0 370 C0 247.9 0 125.8 0 0 Z M21 22 C21 47 21 47 25.3125 52.5 C27.17388354 53.72087937 29.07156939 54.88804203 31 56 C32.79511843 57.40705606 34.56579239 58.84577935 36.3125 60.3125 C37.22644531 61.05113281 38.14039062 61.78976563 39.08203125 62.55078125 C42.90086336 65.75614636 46.52304935 69.14857002 50.16113281 72.55566406 C54.37393141 76.47878593 58.76395352 80.11896414 63.25390625 83.72265625 C66.79678299 86.66077451 70.15441772 89.78231178 73.52197266 92.91650391 C76.73316873 95.88730066 80.02636841 98.69968321 83.4375 101.4375 C88.21621628 105.28110057 92.69157687 109.36960164 97.16381836 113.55834961 C100.51099327 116.67553945 103.93005023 119.63573798 107.5 122.5 C112.26108478 126.31994011 116.71273025 130.38938819 121.1640625 134.55859375 C124.51116869 137.67568554 127.93014141 140.63581113 131.5 143.5 C136.26108478 147.31994011 140.71273025 151.38938819 145.1640625 155.55859375 C148.51116869 158.67568554 151.93014141 161.63581113 155.5 164.5 C159.6666621 167.84301959 163.60419812 171.35115137 167.5 175 C172.26088994 179.45874444 177.1646782 183.6379783 182.25390625 187.72265625 C185.26319147 190.21826547 188.13937022 192.83766805 191 195.5 C195.61078333 199.79034279 200.37804454 203.80679869 205.2890625 207.75390625 C208.09779082 210.08102265 210.76650171 212.51650732 213.4375 215 C225.81926635 226.30891444 240.15780871 236.83948961 257.78515625 236.24609375 C273.50582862 234.49935238 284.76967764 226.94732717 296.15283203 216.65722656 C298.67607317 214.39344638 301.24597765 212.1859887 303.81616211 209.97583008 C308.68103019 205.79146621 313.50339545 201.56850888 318.25 197.25 C321.54292966 194.26136747 324.91316769 191.41616395 328.375 188.625 C332.92940923 184.94298465 337.23747565 181.07099643 341.52124023 177.08422852 C344.73263407 174.1131325 348.02609763 171.30053412 351.4375 168.5625 C355.62237307 165.19653735 359.58314398 161.66823983 363.5 158 C368.26091334 153.54127805 373.16467563 149.36202376 378.25390625 145.27734375 C381.26318958 142.7817361 384.13940286 140.16236519 387 137.5 C390.70861688 134.04838064 394.48505895 130.73477852 398.4375 127.5625 C402.62237307 124.19653735 406.58314398 120.66823983 410.5 117 C415.26091334 112.54127805 420.16467563 108.36202376 425.25390625 104.27734375 C428.26318958 101.7817361 431.13940286 99.16236519 434 96.5 C437.70861688 93.04838064 441.48505895 89.73477852 445.4375 86.5625 C449.62237307 83.19653735 453.58314398 79.66823983 457.5 76 C462.25212558 71.54950801 467.14528173 67.37623664 472.2265625 63.30078125 C475.92123528 60.23576397 479.43824953 56.99704609 482.94165039 53.71655273 C485.5468126 51.28580959 488.13615145 49.14788641 491 47 C491 38.75 491 30.5 491 22 C335.9 22 180.8 22 21 22 Z M21 76 C21 148.6 21 221.2 21 296 C33.15507353 286.88369485 45.21121779 277.73871182 56.89746094 268.02807617 C62.12029008 263.69690528 67.43910176 259.52529965 72.8359375 255.4140625 C81.36599517 248.90594443 89.75202535 242.22308048 98.0625 235.4375 C103.89938425 230.6726538 109.80848021 226.02554467 115.796875 221.453125 C126.12923287 213.56088117 136.26589364 205.41344152 146.40673828 197.27783203 C148.60284978 195.5165008 150.80131487 193.75811684 153 192 C151.5045292 188.40278644 149.47293692 186.36902779 146.5625 183.8125 C145.66402344 183.02230469 144.76554687 182.23210937 143.83984375 181.41796875 C141.13226301 179.11261459 138.39034457 176.86055432 135.625 174.625 C131.07059077 170.94298465 126.76252435 167.07099643 122.47875977 163.08422852 C119.26736593 160.1131325 115.97390237 157.30053412 112.5625 154.5625 C107.78458662 150.71954521 103.31005016 146.63168671 98.83837891 142.44384766 C94.62570895 138.52093146 90.23586445 134.88088976 85.74609375 131.27734375 C82.73680948 128.78173531 79.86061346 126.16234857 77 123.5 C73.26672745 120.02580757 69.47628889 116.6993129 65.5 113.5 C60.98141824 109.8643595 56.72016671 106.03163598 52.47827148 102.08374023 C48.4226987 98.33173024 44.18675852 94.86521681 39.87890625 91.41015625 C35.88040895 88.06270329 32.09142232 84.50355512 28.32641602 80.89672852 C25.89156998 78.59461685 24.22112451 77.07370817 21 76 Z M470.84106445 92.5534668 C466.62768669 96.4775139 462.23686563 100.11830668 457.74609375 103.72265625 C454.73680948 106.21826469 451.86061346 108.83765143 449 111.5 C444.41242561 115.76920779 439.66556996 119.75758739 434.78125 123.6875 C431.22814914 126.64176364 427.8597632 129.76913424 424.47827148 132.91625977 C421.2670095 135.88715628 417.97372185 138.69961077 414.5625 141.4375 C410.37762693 144.80346265 406.41685602 148.33176017 402.5 152 C397.73908666 156.45872195 392.83532437 160.63797624 387.74609375 164.72265625 C384.21081914 167.65447005 380.85958594 170.76844219 377.5 173.89672852 C373.24178395 177.83738504 368.81144091 181.50304867 364.27734375 185.125 C362.39823047 186.67212586 360.67705831 188.24046341 359 190 C360.54399745 194.26578783 363.75237576 196.43349887 367.25 199.0625 C368.52747816 200.04409593 369.80481816 201.02587169 371.08203125 202.0078125 C371.73510254 202.50571289 372.38817383 203.00361328 373.06103516 203.51660156 C376.04116461 205.79653944 378.9894582 208.11631649 381.9375 210.4375 C382.51145508 210.88810791 383.08541016 211.33871582 383.67675781 211.80297852 C388.60651935 215.67704765 393.50051572 219.59499416 398.39208984 223.51708984 C404.89203106 228.72411346 411.44320018 233.86488913 418 239 C425.8300581 245.13229282 433.63269448 251.29555658 441.39208984 257.51708984 C447.89203106 262.72411346 454.44320018 267.86488913 461 273 C463.31318657 274.81162607 465.62572372 276.6240746 467.9375 278.4375 C468.50307617 278.88077637 469.06865234 279.32405273 469.65136719 279.78076172 C472.84327709 282.28766219 476.01863068 284.81365506 479.1796875 287.359375 C479.8694165 287.91439697 480.55914551 288.46941895 481.26977539 289.04125977 C482.61188888 290.12287459 483.95227778 291.20663352 485.29077148 292.29272461 C489.89020821 296 489.89020821 296 491 296 C491 223.4 491 150.8 491 76 C485.3658785 76 475.11794162 88.54849705 470.84106445 92.5534668 Z M164.3125 210.3125 C163.73234131 210.76181885 163.15218262 211.2111377 162.55444336 211.67407227 C156.60129214 216.29205664 150.67924787 220.94979803 144.76171875 225.61328125 C143.02010212 226.98417682 141.27612115 228.35199991 139.53125 229.71875 C133.49559305 234.44811287 127.48233799 239.20332281 121.5 244 C114.94437 249.25634643 108.34861504 254.4594206 101.73388672 259.64111328 C98.82033183 261.92453295 95.91031584 264.21245445 93 266.5 C89.51343843 269.24048208 86.02621854 271.98009622 82.53515625 274.71484375 C77.18304902 278.91000342 71.84357675 283.1182858 66.54492188 287.38085938 C59.91997497 292.71007534 53.21116129 297.91054257 46.43774414 303.04956055 C40.5539245 307.5327599 34.80058681 312.16394106 29.08813477 316.86303711 C28.46350342 317.37616455 27.83887207 317.88929199 27.1953125 318.41796875 C26.92211182 318.64367554 26.92211182 318.64367554 25.53955078 319.78588867 C24.08371818 320.93397867 22.54267582 321.97154945 21 323 C21 331.25 21 339.5 21 348 C176.1 348 331.2 348 491 348 C491 323 491 323 484.9375 316.6875 C482.87280273 315.2565918 482.87280273 315.2565918 481.05859375 314.32421875 C476.8120891 311.97229281 473.22351412 309.09641652 469.5 306 C468.24310849 304.98811784 466.98399564 303.97898856 465.72265625 302.97265625 C465.10406738 302.47781738 464.48547852 301.98297852 463.84814453 301.47314453 C458.5911977 297.28286485 453.29262587 293.14504352 448 289 C440.1699419 282.86770718 432.36730552 276.70444342 424.60791016 270.48291016 C418.6810536 265.73497767 412.71206408 261.04193285 406.73388672 256.35888672 C403.23472646 253.61651471 399.74017645 250.8682673 396.24536133 248.12036133 C393.35679895 245.84965605 390.46611439 243.58178015 387.5703125 241.3203125 C381.30613054 236.42266704 375.0960599 231.46749332 368.9375 226.4375 C362.96111811 221.55639128 356.90925084 216.79484692 350.76953125 212.12109375 C348.15044114 210.11521797 345.56817115 208.07049996 343 206 C334.10363619 209.96311335 326.83747731 218.01421004 319.75390625 224.5234375 C316.15676642 227.75831218 312.4403886 230.820143 308.66796875 233.84765625 C306.96117255 235.22458847 305.27388396 236.62628994 303.61328125 238.05859375 C287.9288393 251.35796354 269.73076227 257.64543351 249.19189453 256.21435547 C233.10544321 254.64118725 217.87219168 247.52850809 206.3125 236.2421875 C203.8617482 233.86595181 201.29225087 231.75425425 198.625 229.625 C194.58802424 226.36239477 190.73409501 222.97138012 186.9375 219.4375 C171.28252522 204.88129843 171.28252522 204.88129843 164.3125 210.3125 Z " fill="#000000" transform="translate(0,71)"/>
</svg>
