<?xml version="1.0" encoding="UTF-8"?>
<!-- Generator: visioncortex VTracer 0.6.12 -->
<svg version="1.1" xmlns="http://www.w3.org/2000/svg" width="512" height="512">
<path d="M0 0 C43.94781031 23.30886757 91.25574526 39.97408855 139.88037109 50.41772461 C146.2199751 51.7824751 146.2199751 51.7824751 147.3125 52.875 C153.16501368 131.22983018 132.34848657 216.71346566 99.3125 286.875 C99.07418457 287.38256836 99.07418457 287.38256836 97.86816406 289.95117188 C79.28795668 329.15196631 54.66822794 366.35165361 24.9453125 398.03125 C22.95976471 400.17587729 21.04606981 402.34195108 19.14453125 404.55859375 C14.62183032 409.74928167 9.75156915 414.58172645 4.875 419.4375 C3.97201172 420.34435547 3.06902344 421.25121094 2.13867188 422.18554688 C-2.97486365 427.29167684 -8.184218 432.19305789 -13.6875 436.875 C-14.65171875 437.720625 -15.6159375 438.56625 -16.609375 439.4375 C-30.20759281 451.15751093 -44.63181288 462.14210164 -59.85449219 471.67382812 C-61.82231299 472.96334309 -63.68736533 474.35552135 -65.5703125 475.765625 C-74.61928959 482.18787432 -74.61928959 482.18787432 -79.74169922 481.66552734 C-85.25245759 480.08897918 -89.91350525 476.95543555 -94.6875 473.875 C-96.22750993 472.9546662 -97.77053652 472.03936308 -99.31640625 471.12890625 C-114.9877641 461.72900473 -129.76835433 450.69813397 -143.6875 438.875 C-144.82799911 437.92042249 -145.96863271 436.96600564 -147.109375 436.01171875 C-153.53077133 430.60659626 -159.65190125 425.06389871 -165.515625 419.046875 C-167.40120074 417.16129926 -169.31823348 415.44273705 -171.375 413.75 C-174.59603488 411.07209044 -177.23834717 408.05539111 -179.9453125 404.8671875 C-181.57823643 402.99994265 -183.27679139 401.28237604 -185.0625 399.5625 C-189.18194541 395.4977375 -192.74500918 391.02929617 -196.35839844 386.51611328 C-197.7855985 384.7538725 -199.23811212 383.01484579 -200.6953125 381.27734375 C-209.05756132 371.25081342 -216.48727922 360.75894811 -223.6875 349.875 C-224.16429199 349.16230957 -224.64108398 348.44961914 -225.13232422 347.71533203 C-248.27486794 313.10277014 -265.85398143 275.44267541 -278.6875 235.875 C-278.98462891 234.96685547 -279.28175781 234.05871094 -279.58789062 233.12304688 C-298.49543774 174.83507484 -305.14244633 113.92179794 -304.6875 52.875 C-300.25954368 51.3299277 -295.80439032 50.11096954 -291.24609375 49.02734375 C-289.77499952 48.67117938 -288.3040585 48.31438175 -286.83325195 47.95703125 C-286.44953934 47.86397705 -286.44953934 47.86397705 -284.50772095 47.39306641 C-267.34099217 43.21027444 -250.45774641 38.4642574 -233.6875 32.875 C-232.6469043 32.53033691 -231.60630859 32.18567383 -230.53417969 31.83056641 C-198.64385189 21.14472253 -168.40252626 6.3748664 -138.75 -9.375 C-85.10744968 -37.84506425 -51.75425185 -27.56736755 0 0 Z M-148.24949646 19.86738586 C-156.13403073 24.12600718 -164.13594183 28.01931058 -172.3125 31.6875 C-172.97258057 31.98458862 -173.63266113 32.28167725 -174.31274414 32.58776855 C-209.29956702 48.28409733 -245.59330461 59.45764182 -282.6875 68.875 C-280.81982963 162.46489097 -260.04916224 256.42744714 -178.6875 373.875 C-177.92566406 374.82246094 -177.16382813 375.76992188 -176.37890625 376.74609375 C-169.31853697 385.39474068 -161.49483839 393.2841169 -153.625 401.1875 C-153.07055206 401.74712433 -152.51610413 402.30674866 -151.94485474 402.8833313 C-144.84869747 410.03161131 -137.58722971 416.61333032 -129.6875 422.875 C-128.64787621 423.74969848 -127.61274534 424.62982304 -126.5859375 425.51953125 C-113.95822084 436.36842095 -100.1885905 445.71488814 -85.6875 453.875 C-84.66011719 454.49246094 -83.63273438 455.10992187 -82.57421875 455.74609375 C-79.6875 456.875 -79.6875 456.875 -77.2578125 456.328125 C-58.66626961 445.8174047 -41.60172756 433.08787099 -25.6875 418.875 C-24.82125 418.10800781 -23.955 417.34101563 -23.0625 416.55078125 C-20.58839757 414.34232764 -18.13700404 412.11068822 -15.6875 409.875 C-14.6603643 408.9528932 -13.63300842 408.03103162 -12.60546875 407.109375 C-5.33435876 400.54437759 1.42750109 393.66213772 7.96630859 386.36962891 C9.19073332 385.01019326 10.43235531 383.66629666 11.67578125 382.32421875 C17.47535946 376.03018272 22.74525409 369.384547 27.96582031 362.61132812 C29.2108024 361.00612279 30.47565465 359.41638163 31.7421875 357.828125 C94.13373426 278.86701992 121.96633656 177.24398771 125.3125 68.875 C124.47630127 68.66520508 123.64010254 68.45541016 122.77856445 68.23925781 C70.93273872 55.12760764 22.25189432 36.69541541 -25.10498047 11.8659668 C-74.59116322 -14.06396733 -100.41746313 -5.98512593 -148.24949646 19.86738586 Z " fill="#000000" transform="translate(334.6875,29.125)"/>
<path d="M0 0 C4.11849168 1.47960627 7.58893531 3.48538881 11.25 5.875 C11.77851563 6.21402344 11.77851563 6.21402344 14.453125 7.9296875 C17 10 17 10 17.80664062 11.86889648 C18.06629821 14.7307034 17.24088993 15.80438068 15.640625 18.16796875 C15.10783936 18.96936279 14.57505371 19.77075684 14.02612305 20.59643555 C13.44000244 21.45148682 12.85388184 22.30653809 12.25 23.1875 C11.03227633 25.01023247 9.81483239 26.83315185 8.59765625 28.65625 C7.9855127 29.56375 7.37336914 30.47125 6.74267578 31.40625 C4.34692878 34.97201298 2.01308976 38.57575489 -0.3125 42.1875 C-0.7461084 42.85765137 -1.1797168 43.52780273 -1.62646484 44.21826172 C-6.43271402 51.64952828 -11.19039579 59.11192106 -15.95629883 66.5690918 C-20.62564426 73.86897669 -25.33299625 81.1428413 -30.06591797 88.40161133 C-34.41359957 95.077979 -38.71104278 101.78578804 -43 108.5 C-48.31078149 116.81384199 -53.65383636 125.10489999 -59.04443359 133.3671875 C-62.13818464 138.11586964 -65.20811136 142.87916656 -68.2578125 147.65625 C-68.6207843 148.224646 -68.9837561 148.79304199 -69.35772705 149.37866211 C-71.1439015 152.1766941 -72.92777108 154.97614796 -74.70898438 157.77734375 C-75.35416016 158.78925781 -75.99933594 159.80117188 -76.6640625 160.84375 C-77.23592285 161.74287109 -77.8077832 162.64199219 -78.39697266 163.56835938 C-79.85568205 165.78108335 -81.38383851 167.90051763 -83 170 C-86.42768661 169.41236963 -88.12590397 168.2684111 -90.609375 165.8671875 C-91.28226562 165.22523438 -91.95515625 164.58328125 -92.6484375 163.921875 C-93.34195313 163.24640625 -94.03546875 162.5709375 -94.75 161.875 C-96.11849123 160.55854266 -97.48828177 159.24343463 -98.859375 157.9296875 C-99.200896 157.60218506 -99.200896 157.60218506 -100.92919922 155.94482422 C-103.59590026 153.44035116 -106.34625027 151.04267997 -109.11132812 148.64794922 C-111.9195904 146.19761696 -114.64752055 143.66446583 -117.375 141.125 C-122.03833223 136.8013584 -126.73696176 132.52181547 -131.47265625 128.27734375 C-134.33082261 125.70190173 -137.16704794 123.10308337 -140 120.5 C-148.25807302 112.91541111 -156.60967206 105.43780278 -165 98 C-160.84542161 92.08287321 -156.22741666 86.98860067 -151 82 C-148.07356763 83.32856194 -145.9299237 84.79564177 -143.609375 87.01171875 C-142.98651611 87.60106201 -142.36365723 88.19040527 -141.72192383 88.79760742 C-141.07118896 89.42127197 -140.4204541 90.04493652 -139.75 90.6875 C-138.39537666 91.96964379 -137.03991757 93.25090521 -135.68359375 94.53125 C-135.04019043 95.1396875 -134.39678711 95.748125 -133.73388672 96.375 C-131.22096335 98.73011377 -128.62947836 100.98443584 -126.01953125 103.23046875 C-123.30513807 105.6088442 -120.65427613 108.05508905 -118 110.5 C-114.09492509 114.09590553 -110.15416091 117.63938303 -106.13671875 121.109375 C-104.40710091 122.6397864 -102.70876734 124.19133536 -101.01953125 125.765625 C-100.75495117 126.01151367 -100.75495117 126.01151367 -99.41601562 127.25585938 C-98.37341913 128.22734088 -97.33415818 129.20241878 -96.29882812 130.18164062 C-93.38400284 132.89464046 -90.49194304 135.08485757 -87 137 C-86.78601563 136.35546875 -86.57203125 135.7109375 -86.3515625 135.046875 C-84.47085616 130.80713238 -81.93632971 127.10724511 -79.375 123.25 C-78.1970078 121.45762825 -77.01996915 119.66462954 -75.84375 117.87109375 C-75.21984375 116.92089355 -74.5959375 115.97069336 -73.953125 114.99169922 C-70.55661543 109.78909569 -67.21771459 104.54976433 -63.875 99.3125 C-59.01217422 91.70122022 -54.13415923 84.1007016 -49.21777344 76.52392578 C-45.15963307 70.26249455 -41.142602 63.97499509 -37.125 57.6875 C-31.72753315 49.24119376 -26.29362537 40.82036269 -20.81762695 32.42480469 C-14.90529605 23.34538442 -9.10422893 14.19522662 -3.3059082 5.04272461 C-2.22329639 3.34928414 -1.11490447 1.67235671 0 0 Z " fill="#000000" transform="translate(334,149)"/>
</svg>
