<?xml version="1.0" encoding="UTF-8"?>
<!-- Generator: visioncortex VTracer 0.6.12 -->
<svg version="1.1" xmlns="http://www.w3.org/2000/svg" width="512" height="512">
<path d="M0 0 C3.28504931 3.22766853 6.45662153 6.3797133 9.1953125 10.08984375 C15.49909469 17.34219506 30.80018769 20.91550943 40.09741211 21.68530273 C43.8384463 21.40480494 45.69585516 20.37159891 48.8515625 18.37109375 C49.90778809 17.71077148 50.96401367 17.05044922 52.05224609 16.37011719 C53.17951004 15.64671504 54.30662254 14.92307685 55.43359375 14.19921875 C56.60420607 13.46133514 57.77560157 12.7246926 58.94775391 11.98925781 C62.39034265 9.82445941 65.8184791 7.63764645 69.24609375 5.44921875 C70.98897077 4.34408543 72.73239518 3.23981454 74.4765625 2.13671875 C75.25708984 1.64276611 76.03761719 1.14881348 76.84179688 0.63989258 C79.86660975 -1.27199911 82.89392739 -3.17987771 85.92333984 -5.08447266 C87.53128253 -6.09953507 89.13554519 -7.12044168 90.73681641 -8.14599609 C108.49509449 -19.48921053 125.81601461 -27.61676859 147.50390625 -23.2734375 C152.50202963 -21.95626823 157.21858302 -20.30630883 161.16796875 -16.88671875 C164.82883335 -13.77924066 167.49246358 -12.29959867 172.32421875 -12.68359375 C174.65805102 -12.96446907 176.97671753 -13.30734656 179.30053711 -13.66113281 C191.9452356 -15.5367435 204.37107186 -13.04900522 214.74609375 -5.42578125 C216.7090279 -3.87313252 218.47399612 -2.32287888 220.24609375 -0.55078125 C222.42578125 -0.7578125 222.42578125 -0.7578125 225.12109375 -1.36328125 C238.38553036 -4.01270527 250.29546897 -4.97019077 262.0234375 2.76171875 C269.40477991 8.36583109 273.23490417 15.59812529 274.59375 24.8046875 C275.03773355 35.71124 270.37384083 44.47166576 263.24609375 52.44921875 C255.55979729 60.18141497 246.82191828 66.0201293 237.74609375 71.94921875 C236.2764049 72.918018 234.80717295 73.88751069 233.33837891 74.85766602 C229.66574246 77.28041721 225.98668449 79.69318498 222.30480957 82.10186768 C220.38401014 83.35895773 218.46459233 84.61811728 216.54589844 85.87841797 C210.13318409 90.09051428 203.7107826 94.28751643 197.28076172 98.47314453 C194.22727303 100.46147417 191.17583802 102.45291852 188.125 104.4453125 C169.60300061 116.5398341 151.02291463 128.53858972 132.37988281 140.44580078 C129.40347838 142.34860343 126.42994921 144.25581887 123.45703125 146.1640625 C112.20604586 153.37297245 100.86113237 160.38967503 89.35693359 167.1875 C87.50947421 168.29178754 85.68254247 169.43027053 83.859375 170.57421875 C66.58213355 181.27734296 47.58705049 183.87541266 27.82421875 179.40234375 C7.23089692 173.91678641 -12.06520376 162.3958702 -30.84790039 152.60913086 C-41.01605722 147.31751908 -51.2369513 142.13373705 -61.48336792 136.99536133 C-63.27766928 136.09514725 -65.07123849 135.19347226 -66.86404419 134.2902832 C-69.3864715 133.02009823 -71.91156408 131.75537784 -74.4375 130.4921875 C-75.1894162 130.11265427 -75.9413324 129.73312103 -76.71603394 129.34208679 C-82.94736656 126.23980709 -88.65569552 123.53332059 -95.75390625 124.44921875 C-104.72034827 127.7480556 -112.66233531 133.49625315 -120.54760742 138.77807617 C-133.49890958 147.41099847 -133.49890958 147.41099847 -139.44140625 147.51171875 C-143.51477466 146.20516662 -145.21313145 144.8867376 -147.75390625 141.44921875 C-148.8978917 137.51676877 -149.09442412 135.35726641 -147.65234375 131.51171875 C-145.42591891 127.92011984 -142.89527023 126.05826203 -139.37890625 123.88671875 C-138.73550293 123.47542725 -138.09209961 123.06413574 -137.42919922 122.64038086 C-136.00141303 121.73223114 -134.56901648 120.83130131 -133.1328125 119.93652344 C-130.54480153 118.31848538 -127.97776079 116.6697406 -125.41015625 115.01953125 C-123.56731318 113.84883156 -121.72356971 112.67954796 -119.87890625 111.51171875 C-119.44553955 111.2338855 -119.44553955 111.2338855 -117.25244141 109.82788086 C-106.92242269 103.38075596 -96.76096313 100.23519156 -84.56640625 102.19921875 C-73.59779545 104.88919518 -63.76048877 110.34746031 -53.75390625 115.44921875 C-52.10027439 116.29039206 -50.44662758 117.13153596 -48.79296875 117.97265625 C-39.15378377 122.8795298 -29.52476772 127.8062468 -19.8984375 132.73828125 C-18.94113235 133.22865875 -17.98382721 133.71903625 -16.99751282 134.22427368 C-12.67072675 136.44097903 -8.34468305 138.65909142 -4.02099609 140.88183594 C-0.59263986 142.6433241 2.84078906 144.39447601 6.27877808 146.13708496 C8.03864998 147.03228194 9.79303239 147.93824633 11.54711914 148.84472656 C26.11613233 156.20411703 41.85055983 162.37986641 58.19140625 157.5625 C86.94748906 147.08234194 113.15060116 126.05843855 138.62109375 109.4609375 C142.98992048 106.6141126 147.36671136 103.77977016 151.74609375 100.94921875 C160.38222086 95.36500942 169.0065053 89.76271137 177.62597656 84.15283203 C180.20343993 82.47695248 182.78318025 80.80462766 185.36328125 79.1328125 C190.70902954 75.66456892 196.04318005 72.17889886 201.36975098 68.68127441 C202.70245794 67.80618422 204.03540983 66.93146699 205.36853027 66.05700684 C210.15153952 62.91855136 214.92807229 59.77051384 219.69848633 56.61294556 C221.29598265 55.55707744 222.89507152 54.50361432 224.49584961 53.45272827 C249.90846282 36.75978297 249.90846282 36.75978297 252.24609375 27.44921875 C251.66934091 24.20498402 250.87275738 23.00073642 248.421875 20.84375 C244.5038211 18.33253772 240.73971701 18.83697702 236.24609375 19.44921875 C222.42945121 22.95582868 211.03428135 29.71251645 199.30718994 37.67932129 C196.36215725 39.67906512 193.40578168 41.66188969 190.44921875 43.64453125 C190.14836868 43.84641052 190.14836868 43.84641052 188.62588501 44.86804199 C182.59848135 48.90205048 176.49256535 52.80969309 170.37109375 56.69921875 C162.7326557 61.5573847 155.14188014 66.4731974 147.62109375 71.51171875 C145.924482 72.64583757 144.22786741 73.77995214 142.53125 74.9140625 C139.77452121 76.75726966 137.01872191 78.60180555 134.26513672 80.44970703 C131.20233833 82.50045873 128.1313152 84.53837355 125.05859375 86.57421875 C124.12644043 87.20207275 123.19428711 87.82992676 122.23388672 88.47680664 C107.8195982 97.98319434 94.37473798 99.76699943 77.453125 99.75 C75.81857701 99.7539002 74.18403 99.75823752 72.54948425 99.76298523 C69.12776406 99.77041819 65.70614704 99.77018106 62.28442383 99.76489258 C58.82367869 99.76028848 55.36328714 99.76707677 51.90258789 99.78540039 C32.82853611 99.88544132 14.07964819 99.90150395 -4.75390625 96.44921875 C-5.11267349 96.38539505 -5.11267349 96.38539505 -6.92825317 96.06240845 C-11.2062645 95.28940317 -15.44934302 94.39793877 -19.69140625 93.44921875 C-20.27374023 93.32546875 -20.27374023 93.32546875 -23.22070312 92.69921875 C-38.82145429 89.29348342 -38.82145429 89.29348342 -42.72265625 85.5703125 C-44.64179215 81.6229989 -44.47862624 77.71471357 -43.75390625 73.44921875 C-41.28428013 69.78219814 -39.82347984 68.68132185 -35.50927734 67.74511719 C-31.53951597 67.43232621 -28.59649824 67.86713396 -24.73046875 68.77734375 C-24.06719574 68.92701599 -23.40392273 69.07668823 -22.72055054 69.230896 C-19.92752915 69.86147439 -17.14115613 70.51922776 -14.35449219 71.17724609 C8.98816372 76.63668937 32.16877908 77.930795 56.06237793 77.77178955 C58.83715384 77.75821594 61.61177025 77.76356407 64.38656425 77.76891804 C67.7538515 77.77308392 71.12100887 77.7610883 74.48828125 77.75 C75.70925507 77.75091141 76.93022888 77.75182281 78.1882019 77.75276184 C88.63989388 77.66686013 98.88371123 77.42532396 107.24609375 70.44921875 C109.10104431 66.73931763 108.69318503 62.49858838 108.24609375 58.44921875 C105.68828892 53.64054568 102.280684 52.21574164 97.24609375 50.44921875 C93.10527074 49.43284307 89.00492467 49.21549091 84.76171875 49.0546875 C83.26623367 48.98891202 81.77079218 48.92213998 80.27539062 48.85449219 C79.49542725 48.81964722 78.71546387 48.78480225 77.91186523 48.74890137 C10.17519173 45.60337317 10.17519173 45.60337317 -10.625 23.45703125 C-11.14191406 22.83570313 -11.65882813 22.214375 -12.19140625 21.57421875 C-23.85974435 8.02060332 -36.85707179 0.76542566 -54.75390625 -1.55078125 C-70.13843298 -2.54635979 -86.16155172 -2.98614556 -100.75390625 2.44921875 C-101.64400391 2.76697266 -102.53410156 3.08472656 -103.45117188 3.41210938 C-122.28276387 10.2032293 -140.43844441 18.58652235 -158.62355042 26.92106628 C-172.16800562 33.12539956 -172.16800562 33.12539956 -178.7265625 36.0078125 C-179.79140869 36.47888428 -180.85625488 36.94995605 -181.95336914 37.43530273 C-186.2528194 38.99189038 -188.44334504 39.01669555 -192.75390625 37.44921875 C-195.61200071 35.00792973 -197.32953876 33.19886505 -198.23046875 29.484375 C-198.57630298 24.74280574 -197.4009877 22.60144394 -194.25323486 18.92263794 C-191.84973666 16.56067383 -189.16570808 15.39118426 -186.1015625 14.0390625 C-185.45774124 13.74988449 -184.81391998 13.46070648 -184.15058899 13.1627655 C-182.0456515 12.22201965 -179.93159773 11.30414762 -177.81640625 10.38671875 C-176.33426306 9.73086291 -174.85266202 9.07378063 -173.37158203 8.41552734 C-169.57509121 6.73314877 -165.77029113 5.07051981 -161.96282959 3.41314697 C-159.19054124 2.20337797 -156.42386467 0.98113244 -153.65733337 -0.24172974 C-145.71902258 -3.74852905 -137.75096542 -7.17969568 -129.75390625 -10.55078125 C-128.68366211 -11.00243652 -127.61341797 -11.4540918 -126.51074219 -11.91943359 C-85.52401378 -29.05196333 -34.87281722 -32.30063779 0 0 Z M100.24609375 11.44921875 C98.51200789 12.52130115 96.77762473 13.5929028 95.04296875 14.6640625 C93.31810371 15.73682476 91.59412607 16.81101531 89.87109375 17.88671875 C89.05624512 18.39460938 88.24139648 18.9025 87.40185547 19.42578125 C86.64146973 19.90660156 85.88108398 20.38742187 85.09765625 20.8828125 C84.42557129 21.30618896 83.75348633 21.72956543 83.06103516 22.16577148 C81.24654252 23.4489014 79.76565331 24.83273498 78.24609375 26.44921875 C89.01459604 29.47724897 99.67781618 31.77756758 110.02734375 26.5078125 C115.6325473 23.18874658 120.93731028 19.46549825 126.19726562 15.62744141 C130.77084888 12.35986375 135.56660918 9.485819 140.37109375 6.57421875 C143.06221583 4.93012228 145.655507 3.25326591 148.24609375 1.44921875 C148.24609375 0.78921875 148.24609375 0.12921875 148.24609375 -0.55078125 C131.18312267 -8.13432395 114.33191284 2.60893054 100.24609375 11.44921875 Z M158.80859375 19.44921875 C156.72435943 20.77667164 154.63971518 22.10348109 152.5546875 23.4296875 C151.5116748 24.09661621 150.46866211 24.76354492 149.39404297 25.45068359 C143.52932051 29.17401367 137.59780802 32.79004846 131.67016602 36.41210938 C130.85217529 36.91548828 130.03418457 37.41886719 129.19140625 37.9375 C128.47484863 38.37618408 127.75829102 38.81486816 127.02001953 39.2668457 C125.24609375 40.44921875 125.24609375 40.44921875 123.24609375 42.44921875 C123.84421875 43.27421875 124.44234375 44.09921875 125.05859375 44.94921875 C127.49410276 48.57214674 128.82684121 52.33338638 130.24609375 56.44921875 C130.85453125 56.05992187 131.46296875 55.670625 132.08984375 55.26953125 C136.3844885 52.52853739 140.68169017 49.79412514 145.01171875 47.109375 C153.36485803 41.92924616 161.59821752 36.60838583 169.75292969 31.12207031 C174.76158136 27.76138864 179.78395112 24.42119165 184.80355835 21.0769043 C187.82516281 19.06358038 190.84615639 17.04934034 193.8671875 15.03515625 C195.66015625 13.83984375 197.453125 12.64453125 199.24609375 11.44921875 C198.24609375 9.44921875 198.24609375 9.44921875 195.80859375 8.32421875 C181.61033573 4.83692731 170.44863205 11.91392824 158.80859375 19.44921875 Z " fill="#000000" transform="translate(217.75390625,310.55078125)"/>
<path d="M0 0 C0.8037355 -0.00428513 1.60747101 -0.00857025 2.43556213 -0.01298523 C4.13256897 -0.01871867 5.82960037 -0.01923605 7.52661133 -0.01489258 C10.11647669 -0.01173391 12.70519776 -0.03519844 15.29492188 -0.06054688 C16.94661315 -0.06282018 18.59830748 -0.06352322 20.25 -0.0625 C21.02097519 -0.07170975 21.79195038 -0.08091949 22.58628845 -0.09040833 C27.14902266 -0.05134149 30.09973112 0.42849669 33.69140625 3.30078125 C36.88400656 6.55570704 37.37206461 9.71449569 38.078125 14.1484375 C38.13149269 14.47499077 38.13149269 14.47499077 38.40156555 16.12754822 C38.73803551 18.2045748 39.05836604 20.28374355 39.37890625 22.36328125 C39.60512655 23.7651346 39.83233 25.16682967 40.06054688 26.56835938 C41.69140625 36.72340986 41.69140625 36.72340986 41.69140625 40.30078125 C43.27438651 40.78111305 44.85780603 41.25999737 46.44140625 41.73828125 C47.323125 42.00511719 48.20484375 42.27195313 49.11328125 42.546875 C49.9640625 42.79566406 50.81484375 43.04445312 51.69140625 43.30078125 C52.32038818 43.53434326 52.94937012 43.76790527 53.59741211 44.00854492 C56.50829591 44.41478579 57.45422053 43.47524061 59.7734375 41.73046875 C60.54107422 41.16328125 61.30871094 40.59609375 62.09960938 40.01171875 C62.89302734 39.40585937 63.68644531 38.8 64.50390625 38.17578125 C66.07289301 37.00647867 67.64190311 35.83720741 69.2109375 34.66796875 C71.36826438 33.05151994 73.52134169 31.43258076 75.65209961 29.78125 C79.97678163 26.51477842 82.72363256 25.32738793 88.07373047 25.73876953 C91.05359996 26.37854379 92.21289429 27.217767 94.421875 29.27734375 C94.76464478 29.59413086 94.76464478 29.59413086 96.49926758 31.19726562 C97.22267334 31.89142578 97.9460791 32.58558594 98.69140625 33.30078125 C99.07018921 33.66075195 99.07018921 33.66075195 100.98706055 35.48242188 C103.36964136 37.77476278 105.72081362 40.09564557 108.06640625 42.42578125 C108.87207031 43.21082031 109.67773438 43.99585938 110.5078125 44.8046875 C111.27738281 45.56910156 112.04695312 46.33351562 112.83984375 47.12109375 C113.53255371 47.80445801 114.22526367 48.48782227 114.93896484 49.19189453 C117.695774 52.50943667 118.68615899 55.21984613 118.70703125 59.51953125 C117.30590617 64.7360277 114.577565 68.45682395 111.44140625 72.80078125 C110.86777344 73.61675781 110.29414063 74.43273437 109.703125 75.2734375 C105.23208385 81.61844579 105.23208385 81.61844579 103.11474609 84.29052734 C99.66024784 88.71976847 99.66024784 88.71976847 99.82421875 91.77734375 C99.98792969 92.13183594 99.98792969 92.13183594 100.81640625 93.92578125 C101.13480469 94.67988281 101.45320312 95.43398437 101.78125 96.2109375 C101.93142578 96.55576172 101.93142578 96.55576172 102.69140625 98.30078125 C103.06369984 99.95917999 103.42076315 101.622794 103.69140625 103.30078125 C104.31273437 103.36394531 104.31273437 103.36394531 107.45703125 103.68359375 C113.15257292 104.31915733 118.79175286 105.22080758 124.44140625 106.17578125 C124.94865234 106.25634766 124.94865234 106.25634766 127.515625 106.6640625 C138.69241158 108.55868204 138.69241158 108.55868204 142.48828125 113.765625 C144.2124195 118.83168057 144.05141048 123.55147262 143.94140625 128.86328125 C143.93447754 129.3984436 143.93447754 129.3984436 143.89941406 132.10668945 C143.85010117 135.1722298 143.77534361 138.23601849 143.69140625 141.30078125 C143.6759375 142.06165039 143.66046875 142.82251953 143.64453125 143.60644531 C143.38336934 154.65685874 143.38336934 154.65685874 138.69140625 159.30078125 C136.23046875 160.3046875 136.23046875 160.3046875 133.31640625 160.86328125 C132.18460937 161.10433594 131.0528125 161.34539062 129.88671875 161.59375 C126.64286247 162.18977431 123.399869 162.56272563 120.12109375 162.9140625 C105.56303499 164.65752101 105.56303499 164.65752101 100.74609375 168.88671875 C98.67193495 172.79385509 98.18897467 174.88851842 98.69140625 179.30078125 C101.18540573 184.67064919 105.22242733 189.04499384 109.1015625 193.45410156 C113.24754977 198.26986441 117.88535064 203.96780443 118.56640625 210.48828125 C116.55885985 219.23544772 107.06098449 226.08471375 100.87890625 232.23828125 C100.02103516 233.10001953 99.16316406 233.96175781 98.27929688 234.84960938 C97.46009766 235.66751953 96.64089844 236.48542969 95.796875 237.328125 C95.05590576 238.06796631 94.31493652 238.80780762 93.55151367 239.57006836 C90.25429887 242.63791923 87.5114916 242.73514058 83.14746094 242.68017578 C78.73888504 241.99916913 75.7523161 239.43838173 72.31640625 236.73828125 C70.83004878 235.64238546 69.34306965 234.54733232 67.85546875 233.453125 C65.89107933 231.97428005 63.93349388 230.48870855 61.99121094 228.98095703 C59.02468172 226.69485054 56.23402591 224.5668136 52.69140625 223.30078125 C49.88383034 223.81864205 47.9864195 224.68052488 45.56640625 226.1796875 C43.69140625 227.30078125 43.69140625 227.30078125 40.69140625 227.30078125 C40.55565186 228.24397217 40.41989746 229.18716309 40.2800293 230.15893555 C39.77115822 233.67365145 39.2477243 237.18607211 38.7199707 240.69799805 C38.49401433 242.21531855 38.27195764 243.73322531 38.05395508 245.25170898 C37.73904232 247.44031677 37.40994342 249.6263994 37.078125 251.8125 C36.98423996 252.48665451 36.89035492 253.16080902 36.79362488 253.85539246 C36.0002963 258.94121459 34.52201794 262.32295349 31.03686523 266.08837891 C27.51790439 267.90738167 24.03405952 267.72878485 20.1640625 267.69921875 C19.33813095 267.70208893 18.5121994 267.70495911 17.66123962 267.70791626 C15.91713779 267.70995464 14.17301298 267.70444055 12.42895508 267.69189453 C9.76656644 267.67585751 7.10570048 267.6917397 4.44335938 267.7109375 C2.74609041 267.70895463 1.0488224 267.70511004 -0.6484375 267.69921875 C-1.44128647 267.70529144 -2.23413544 267.71136414 -3.05101013 267.71762085 C-7.58286197 267.66028926 -10.73550088 267.38085152 -14.30859375 264.30078125 C-17.02066199 260.0416589 -17.78361701 256.30869503 -18.2734375 251.328125 C-18.43412733 250.00292236 -18.59762474 248.67805767 -18.76367188 247.35351562 C-19.01360846 245.29184602 -19.24644978 243.23430974 -19.43188477 241.16577148 C-19.85305495 236.63940224 -20.44644109 232.49895834 -22.30859375 228.30078125 C-26.01925827 225.38299952 -29.6250103 223.88247235 -34.30859375 223.30078125 C-38.26027057 224.46817745 -41.1002651 226.44922622 -44.37109375 228.92578125 C-45.32886719 229.62960938 -46.28664063 230.3334375 -47.2734375 231.05859375 C-49.31358836 232.56573222 -51.34737454 234.08152095 -53.375 235.60546875 C-63.31325805 242.73867568 -63.31325805 242.73867568 -69.09790039 241.96582031 C-71.68476448 241.18761846 -72.96323233 240.16772806 -74.953125 238.3515625 C-75.64583496 237.72000244 -76.33854492 237.08844238 -77.05224609 236.43774414 C-81.17542608 232.53272419 -85.22902122 228.56475179 -89.24609375 224.55078125 C-89.67696289 224.12603516 -89.67696289 224.12603516 -91.85742188 221.9765625 C-92.67533203 221.16058594 -93.49324219 220.34460938 -94.3359375 219.50390625 C-95.07577881 218.76817383 -95.81562012 218.03244141 -96.57788086 217.27441406 C-98.95028359 214.56902492 -99.28533669 212.55332909 -99.61328125 208.9921875 C-99.24876713 204.57595877 -98.06502501 202.76658442 -95.43359375 199.23828125 C-95.03809326 198.69099365 -94.64259277 198.14370605 -94.23510742 197.57983398 C-92.02052918 194.52662959 -89.72207101 191.54141777 -87.4140625 188.55859375 C-86.94790527 187.94121338 -86.48174805 187.32383301 -86.00146484 186.68774414 C-85.09738555 185.49280524 -84.17496935 184.31147103 -83.23291016 183.14624023 C-81.984375 181.4921875 -81.984375 181.4921875 -80.30859375 178.30078125 C-80.96875 175.05859375 -80.96875 175.05859375 -82.30859375 172.30078125 C-84.30859375 167.52300347 -84.30859375 167.52300347 -84.30859375 164.30078125 C-84.91960937 164.24148437 -84.91960937 164.24148437 -88.01171875 163.94140625 C-94.08144085 163.26171145 -100.06006757 162.18831095 -106.05859375 161.05078125 C-107.16847656 160.85871094 -108.27835938 160.66664063 -109.421875 160.46875 C-115.56694294 159.29297888 -119.58775831 158.50995087 -123.30859375 153.30078125 C-124.21213494 150.59015769 -124.43700827 149.01439104 -124.44140625 146.23046875 C-124.44253418 145.82735474 -124.44253418 145.82735474 -124.44824219 143.78735352 C-124.4434082 142.92553467 -124.43857422 142.06371582 -124.43359375 141.17578125 C-124.42875977 140.29011475 -124.42392578 139.40444824 -124.41894531 138.49194336 C-124.39456172 135.76122537 -124.35504807 133.03120806 -124.30859375 130.30078125 C-124.29602539 129.46853027 -124.28345703 128.6362793 -124.27050781 127.77880859 C-124.22458813 125.47204726 -124.14807081 123.16872157 -124.05859375 120.86328125 C-124.05158447 120.5180542 -124.05158447 120.5180542 -124.01611328 118.77099609 C-123.78196758 114.07992767 -122.74121607 111.51517844 -119.30859375 108.30078125 C-116.92578125 107.26171875 -116.92578125 107.26171875 -114.18359375 106.67578125 C-113.13816406 106.45019531 -112.09273437 106.22460938 -111.015625 105.9921875 C-89.95903428 102.06487817 -89.95903428 102.06487817 -84.30859375 102.30078125 C-83.82349582 100.92786257 -83.34583862 99.55231422 -82.87109375 98.17578125 C-82.60425781 97.41007812 -82.33742187 96.644375 -82.0625 95.85546875 C-79.82948916 88.2886859 -79.82948916 88.2886859 -81.63208008 84.57177734 C-81.96348999 84.11843018 -81.96348999 84.11843018 -83.640625 81.82421875 C-84.35669922 80.82390625 -85.07277344 79.82359375 -85.81054688 78.79296875 C-86.19178711 78.27863281 -86.19178711 78.27863281 -88.12109375 75.67578125 C-89.60870547 73.62249401 -91.09446173 71.56786087 -92.578125 69.51171875 C-93.24432861 68.60728027 -93.91053223 67.7028418 -94.59692383 66.77099609 C-97.5768956 62.47041781 -98.94758829 59.62573572 -98.30859375 54.30078125 C-95.72766815 49.96531475 -92.74288231 46.48809569 -89.17578125 42.9375 C-88.6978714 42.46004837 -88.21996155 41.98259674 -87.72756958 41.49067688 C-86.72651467 40.49261926 -85.72305455 39.49696864 -84.71728516 38.50366211 C-83.17544672 36.98023149 -81.64191217 35.44879737 -80.109375 33.91601562 C-71.30696304 25.1578292 -71.30696304 25.1578292 -66.24609375 24.86328125 C-60.23655704 24.98669986 -56.95953608 27.7476172 -52.30859375 31.30078125 C-50.16875213 32.90248762 -48.0206179 34.49073677 -45.859375 36.06347656 C-44.34061072 37.16902866 -42.83242913 38.28928578 -41.3359375 39.42480469 C-36.00610811 43.31499552 -36.00610811 43.31499552 -32.625 43.24609375 C-31.86058594 42.93414062 -31.09617187 42.6221875 -30.30859375 42.30078125 C-29.42558594 42.05199219 -28.54257813 41.80320313 -27.6328125 41.546875 C-26.76269531 41.28003906 -25.89257812 41.01320312 -24.99609375 40.73828125 C-24.11308594 40.46886719 -23.23007813 40.19945312 -22.3203125 39.921875 C-21.65644531 39.71691406 -20.99257812 39.51195312 -20.30859375 39.30078125 C-20.2828125 38.75035156 -20.25703125 38.19992188 -20.23046875 37.6328125 C-19.76514729 30.8116229 -18.66690997 24.14249545 -17.43359375 17.42578125 C-17.35286621 16.96804321 -17.35286621 16.96804321 -16.94433594 14.65161133 C-14.95564786 4.15114521 -14.95564786 4.15114521 -10.72680664 1.19506836 C-7.19578966 -0.11074842 -3.71619808 -0.0043816 0 0 Z M4.69140625 21.30078125 C3.29548748 25.25649635 2.26655848 29.08494024 1.54296875 33.21484375 C1.341875 34.30539063 1.14078125 35.3959375 0.93359375 36.51953125 C0.52101001 38.7965757 0.11740677 41.07526507 -0.27734375 43.35546875 C-0.48101562 44.4434375 -0.6846875 45.53140625 -0.89453125 46.65234375 C-1.07032715 47.64057129 -1.24612305 48.62879883 -1.42724609 49.64697266 C-2.47778804 52.81023886 -3.74219366 54.20715463 -6.30859375 56.30078125 C-9.62890625 57.609375 -9.62890625 57.609375 -13.43359375 58.73828125 C-18.94092235 60.4213347 -23.82014924 62.37054817 -28.76953125 65.3828125 C-33.3333742 67.03281726 -37.92550992 67.38322476 -42.42041016 65.34155273 C-44.51263165 64.02551054 -46.47086396 62.61521299 -48.43359375 61.11328125 C-49.09746094 60.63052734 -49.76132813 60.14777344 -50.4453125 59.65039062 C-51.76198216 58.6905874 -53.07240292 57.72214463 -54.37597656 56.74462891 C-57.31814974 54.54654753 -60.31466157 52.42763956 -63.30859375 50.30078125 C-66.51903257 51.68266578 -68.3579574 53.22500028 -70.55859375 55.92578125 C-71.079375 56.55742188 -71.60015625 57.1890625 -72.13671875 57.83984375 C-72.5234375 58.32195312 -72.91015625 58.8040625 -73.30859375 59.30078125 C-72.96602539 59.78434082 -72.62345703 60.26790039 -72.27050781 60.76611328 C-70.69901993 62.98540221 -69.12879871 65.20558447 -67.55859375 67.42578125 C-67.01976562 68.18632813 -66.4809375 68.946875 -65.92578125 69.73046875 C-64.86739072 71.22770413 -63.81239188 72.7273435 -62.76098633 74.22949219 C-61.86658351 75.50501975 -60.96440387 76.77518529 -60.04956055 78.03613281 C-57.23758647 82.00909461 -56.5390897 84.61619337 -56.71875 89.40234375 C-57.58005479 93.63471562 -59.47602712 97.18454445 -61.52978516 100.9621582 C-64.1535315 105.79700835 -65.83596144 110.58513948 -67.2890625 115.875 C-68.54600729 118.86566175 -69.54086186 119.6254926 -72.30859375 121.30078125 C-75.51660156 122.1003418 -75.51660156 122.1003418 -79.26171875 122.6875 C-79.59182953 122.74086769 -79.59182953 122.74086769 -81.26239014 123.01094055 C-83.35958318 123.34747171 -85.45885259 123.66807554 -87.55859375 123.98828125 C-88.98584368 124.21444597 -90.41292959 124.44164834 -91.83984375 124.66992188 C-95.32749284 125.22754019 -98.81750606 125.76352749 -102.30859375 126.30078125 C-102.30859375 130.59078125 -102.30859375 134.88078125 -102.30859375 139.30078125 C-100.59671875 139.62691406 -98.88484375 139.95304687 -97.12109375 140.2890625 C-94.8501899 140.73010581 -92.57936045 141.17153232 -90.30859375 141.61328125 C-89.18324219 141.82662109 -88.05789062 142.03996094 -86.8984375 142.25976562 C-74.66776104 144.65583382 -74.66776104 144.65583382 -69.30859375 147.30078125 C-67.828125 149.578125 -67.828125 149.578125 -67.12109375 152.23828125 C-66.82976562 153.21023437 -66.5384375 154.1821875 -66.23828125 155.18359375 C-65.93148437 156.21226562 -65.6246875 157.2409375 -65.30859375 158.30078125 C-64.48224462 160.41602714 -63.62804347 162.52060766 -62.74609375 164.61328125 C-62.53726563 165.1134375 -62.53726563 165.1134375 -61.48046875 167.64453125 C-60.30859375 170.30078125 -60.30859375 170.30078125 -58.49609375 173.61328125 C-56.90434908 177.21565077 -56.87009671 179.36228054 -57.30859375 183.30078125 C-58.88680938 186.35767878 -60.9048662 189.01453705 -62.99609375 191.73828125 C-64.06460362 193.17291479 -65.13102444 194.60910671 -66.1953125 196.046875 C-66.71528809 196.74409668 -67.23526367 197.44131836 -67.77099609 198.15966797 C-70.12539267 201.43817828 -72.2129682 204.85213587 -74.30859375 208.30078125 C-71.66859375 210.94078125 -69.02859375 213.58078125 -66.30859375 216.30078125 C-62.7530249 214.87855371 -60.4783706 213.90523065 -57.49609375 211.8046875 C-56.81289062 211.32837891 -56.1296875 210.85207031 -55.42578125 210.36132812 C-54.72710937 209.86697266 -54.0284375 209.37261719 -53.30859375 208.86328125 C-51.24852547 207.41705251 -49.18648485 205.97470749 -47.11328125 204.54736328 C-45.64534887 203.53339375 -44.19322844 202.49656205 -42.74609375 201.453125 C-39.35895755 199.85183465 -37.02435259 199.90166644 -33.30859375 200.30078125 C-30.7774072 201.29427895 -28.51230149 202.30269979 -26.12109375 203.55078125 C-20.42870642 206.38416064 -14.82554126 208.60461612 -8.69921875 210.37890625 C-6.09939558 211.38145244 -5.06374417 212.1691174 -3.30859375 214.30078125 C-2.63256836 216.39453125 -2.63256836 216.39453125 -2.2109375 218.80078125 C-2.05012695 219.68354736 -1.88931641 220.56631348 -1.72363281 221.47583008 C-1.56604492 222.40806396 -1.40845703 223.34029785 -1.24609375 224.30078125 C-1.0769043 225.24526123 -0.90771484 226.18974121 -0.73339844 227.1628418 C-0.3998369 229.03004728 -0.07109113 230.89812053 0.25244141 232.76708984 C0.79291798 235.88670379 1.36606884 238.99993061 1.94140625 242.11328125 C2.06515625 242.80421875 2.06515625 242.80421875 2.69140625 246.30078125 C6.98140625 246.30078125 11.27140625 246.30078125 15.69140625 246.30078125 C16.01753906 244.34914063 16.34367187 242.3975 16.6796875 240.38671875 C17.0067201 238.48018828 17.3338226 236.57366911 17.6628418 234.66748047 C17.99864156 232.70652525 18.32459594 230.74389227 18.65039062 228.78125 C18.86630859 227.53730469 19.08222656 226.29335937 19.3046875 225.01171875 C19.49844971 223.87009277 19.69221191 222.7284668 19.8918457 221.55224609 C20.73879717 218.10806301 21.90333146 215.35919731 23.69140625 212.30078125 C25.96875 211.015625 25.96875 211.015625 28.62890625 210.23828125 C32.84326689 208.8968402 36.92274524 207.44809434 41.00390625 205.73828125 C42.00550781 205.32191406 43.00710938 204.90554687 44.0390625 204.4765625 C46.69140625 203.30078125 46.69140625 203.30078125 49.94140625 201.42578125 C53.74125618 199.87129719 56.83313414 200.17690768 60.69140625 201.30078125 C64.00560809 203.13448768 66.94909045 205.3617237 69.94140625 207.67578125 C70.33585937 207.97097656 70.33585937 207.97097656 72.33203125 209.46484375 C74.46285425 211.062961 76.57787513 212.67992081 78.69140625 214.30078125 C80.02356068 215.30235119 81.35655232 216.30281192 82.69140625 217.30078125 C85.90184507 215.91889672 87.7407699 214.37656222 89.94140625 211.67578125 C90.4621875 211.04414063 90.98296875 210.4125 91.51953125 209.76171875 C91.71289062 209.52066406 91.71289062 209.52066406 92.69140625 208.30078125 C92.28301514 207.72634277 91.87462402 207.1519043 91.45385742 206.56005859 C89.59123752 203.934989 87.73503252 201.30544586 85.87890625 198.67578125 C85.23630859 197.77214844 84.59371094 196.86851562 83.93164062 195.9375 C74.84537842 183.03783242 74.84537842 183.03783242 75.9140625 176.7578125 C77.15033171 172.85020781 79.05584193 169.28383935 80.96362305 165.6706543 C83.38420273 161.06666095 85.15988263 156.47578744 86.671875 151.5078125 C87.95596216 148.72808358 89.08166641 147.90379893 91.69140625 146.30078125 C94.79174805 145.51708984 94.79174805 145.51708984 98.390625 144.94921875 C99.68162109 144.7378125 100.97261719 144.52640625 102.30273438 144.30859375 C103.66136094 144.09702987 105.02008635 143.88609984 106.37890625 143.67578125 C109.0504178 143.25162159 111.72054829 142.81992098 114.390625 142.38671875 C115.57487061 142.20157715 116.75911621 142.01643555 117.97924805 141.82568359 C120.69140625 141.30078125 120.69140625 141.30078125 121.69140625 140.30078125 C121.76384678 138.28113926 121.77517813 136.25911001 121.75390625 134.23828125 C121.74488281 133.13355469 121.73585938 132.02882813 121.7265625 130.890625 C121.71496094 130.03597656 121.70335937 129.18132812 121.69140625 128.30078125 C117.23320426 127.10313409 112.83516212 126.12120104 108.2734375 125.40625 C107.32919922 125.25478516 106.38496094 125.10332031 105.41210938 124.94726562 C103.46363292 124.63974919 101.51300309 124.34559646 99.56054688 124.06445312 C95.18761613 123.34212529 92.30439477 122.7448609 88.671875 120.11328125 C86.36986837 116.84415941 85.304797 113.95050295 84.19140625 110.11328125 C82.52946439 104.59563428 80.58668037 99.7165777 77.609375 94.7421875 C76.27552645 91.19471794 76.00340066 87.99385892 76.69140625 84.30078125 C78.06563795 81.3904552 79.8761156 78.92160428 81.81640625 76.36328125 C82.82590773 74.96903005 83.83502472 73.57450038 84.84375 72.1796875 C85.33343262 71.51598145 85.82311523 70.85227539 86.32763672 70.16845703 C88.08588581 67.76054339 89.74075228 65.29156475 91.37890625 62.80078125 C91.76046875 62.22328125 91.76046875 62.22328125 93.69140625 59.30078125 C91.05140625 56.66078125 88.41140625 54.02078125 85.69140625 51.30078125 C81.88637775 52.82279265 79.37233916 54.03539959 76.1171875 56.3046875 C75.28509766 56.88025391 74.45300781 57.45582031 73.59570312 58.04882812 C73.16805664 58.34821289 73.16805664 58.34821289 71.00390625 59.86328125 C69.2923651 61.05308866 67.58015811 62.24193901 65.8671875 63.4296875 C65.11348877 63.9563501 64.35979004 64.4830127 63.58325195 65.02563477 C59.79398886 67.57968317 57.28560106 67.6513423 52.69140625 67.30078125 C49.80910703 66.30033717 47.14907864 64.94926294 44.44140625 63.55078125 C38.6548894 60.66192848 33.05386322 58.20560686 26.79296875 56.48046875 C23.5152754 54.64057397 22.98511733 52.84344356 21.69140625 49.30078125 C20.80320372 45.0750011 20.17420324 40.82480968 19.56640625 36.55078125 C19.23324072 34.28474697 18.89743872 32.01909823 18.55859375 29.75390625 C18.48697021 29.25455566 18.48697021 29.25455566 18.12451172 26.72753906 C17.69140625 24.30078125 17.69140625 24.30078125 16.69140625 22.30078125 C13.96875 21.88671875 13.96875 21.88671875 10.62890625 21.67578125 C10.07654297 21.63839844 10.07654297 21.63839844 7.28125 21.44921875 C6.42660156 21.40023437 5.57195312 21.35125 4.69140625 21.30078125 Z " fill="#000000" transform="translate(246.30859375,19.69921875)"/>
<path d="M0 0 C14.2089607 -0.62077984 27.57850579 4.20661118 38.5 13.140625 C47.36953146 21.60990684 54.56096207 34.04886721 54.90234375 46.55078125 C55.26241574 63.22762909 51.91010555 76.85723372 40.4140625 89.55078125 C29.32130985 100.04927929 15.30350449 104.81567087 0.1953125 104.515625 C-11.03432673 103.53427378 -20.36407245 99.95813763 -29.3359375 93.20703125 C-30.17769531 92.58183594 -31.01945312 91.95664063 -31.88671875 91.3125 C-41.04783568 83.43715387 -47.3251285 71.18519415 -48.54296875 59.16333008 C-49.33360456 42.00612117 -45.72227434 27.97519504 -33.8984375 14.95703125 C-24.6301887 6.18403238 -12.61048393 1.11765159 0 0 Z M-18.3359375 30.20703125 C-23.84356002 37.21159733 -28.0680402 44.94534081 -27.61328125 54.11328125 C-26.355874 63.60582052 -22.60700312 71.01352589 -15.04296875 77.03125 C-7.71743193 81.84118117 -0.01412517 84.02018621 8.7265625 82.70703125 C18.41423512 80.26204721 25.5603228 74.74161819 30.6640625 66.20703125 C34.62254678 58.14868825 34.82144857 50.06995157 32.1015625 41.58203125 C28.4717515 32.59634528 22.51872354 27.02059136 13.6640625 23.20703125 C2.90926706 19.73343272 -10.35235614 22.00168374 -18.3359375 30.20703125 Z " fill="#000000" transform="translate(252.3359375,101.79296875)"/>
</svg>
