<?xml version="1.0" encoding="UTF-8"?>
<!-- Generator: visioncortex VTracer 0.6.12 -->
<svg version="1.1" xmlns="http://www.w3.org/2000/svg" width="512" height="512">
<path d="M0 0 C1.24156357 -0.01268417 2.48312714 -0.02536835 3.76231384 -0.03843689 C5.10920377 -0.03638523 6.45609255 -0.03339701 7.80297852 -0.02954102 C9.19393671 -0.03410584 10.58489265 -0.03941231 11.97584534 -0.04542542 C14.8868223 -0.05434504 17.79752475 -0.05194694 20.70849609 -0.04199219 C24.428728 -0.03050623 28.14801016 -0.05071263 31.86811733 -0.07990932 C34.73958805 -0.09830529 37.6108326 -0.09797218 40.48234749 -0.0922718 C41.85340774 -0.09211899 43.22448371 -0.09813048 44.59548759 -0.11056328 C50.17799957 -0.15405735 55.16608548 -0.16912624 60.44384766 1.74755859 C63.98061501 5.83156216 64.72836673 10.18074379 65.74438477 15.40405273 C65.94043304 16.38269287 66.13648132 17.36133301 66.33847046 18.36962891 C66.93234758 21.49013435 67.47581942 24.61588637 68.00610352 27.74780273 C68.20162308 28.87931763 68.39714264 30.01083252 68.59858704 31.17663574 C69.00689192 33.54595247 69.41263842 35.91571141 69.81591797 38.28588867 C70.4350604 41.92270626 71.06271803 45.55797916 71.69165039 49.19311523 C72.08863035 51.50292595 72.48513202 53.81281893 72.88110352 56.12280273 C73.06855637 57.2102478 73.25600922 58.29769287 73.44914246 59.41809082 C73.61964615 60.42343872 73.79014984 61.42878662 73.96582031 62.46459961 C74.11665573 63.34853394 74.26749115 64.23246826 74.42289734 65.14318848 C74.74438477 67.40405273 74.74438477 67.40405273 74.74438477 70.40405273 C75.35282227 70.5394043 75.96125977 70.67475586 76.58813477 70.81420898 C84.10255891 72.65966315 90.92533598 75.50898164 97.94750977 78.68530273 C98.58406494 78.9630957 99.22062012 79.24088867 99.87646484 79.52709961 C101.74438477 80.40405273 101.74438477 80.40405273 103.49316406 81.48413086 C105.20922852 82.46655273 105.20922852 82.46655273 108.74438477 83.40405273 C111.9405948 82.12974153 114.40517434 80.06416379 117.05688477 77.90405273 C118.65405518 76.67685768 120.25172563 75.45031316 121.84985352 74.22436523 C122.66115723 73.58789062 123.47246094 72.95141602 124.30834961 72.2956543 C128.09126993 69.3581852 131.97675274 66.56856791 135.86938477 63.77905273 C137.35899706 62.71008267 138.84858056 61.64107249 140.33813477 60.57202148 C141.06645508 60.05043457 141.79477539 59.52884766 142.54516602 58.99145508 C144.76032399 57.39254776 146.95552337 55.76861415 149.15063477 54.14233398 C150.55626566 53.12455132 151.96249019 52.10758787 153.36938477 51.09155273 C153.99603027 50.6170166 154.62267578 50.14248047 155.26831055 49.65356445 C158.90782832 47.06418806 162.06183292 45.445127 166.61976624 45.83903503 C169.22428179 46.53167579 170.44809253 47.58703997 172.43066406 49.40283203 C173.1281073 50.03883835 173.82555054 50.67484467 174.54412842 51.3301239 C180.96766616 57.38485482 187.25778075 63.57022586 193.52832031 69.78295898 C195.30371776 71.53663154 197.08535938 73.28400406 198.87304688 75.02514648 C201.46844723 77.55376655 204.04372367 80.10141436 206.61547852 82.65405273 C207.01595146 83.04061035 207.01595146 83.04061035 209.04258728 84.99682617 C212.42131253 88.38830745 214.49400261 90.54496105 215.85205078 95.20458984 C215.75184074 98.18248676 215.59297379 99.79311872 214.15063477 102.34545898 C213.96243164 102.6806958 213.96243164 102.6806958 213.01000977 104.37719727 C210.87699714 107.79314457 208.61053676 111.08339746 206.24438477 114.34155273 C205.1752422 115.83494772 204.10623574 117.32844015 203.03735352 118.82202148 C202.49256348 119.57918457 201.94777344 120.33634766 201.38647461 121.11645508 C199.78458779 123.34804585 198.19355673 125.58685306 196.60766602 127.82983398 C196.10001709 128.54631104 195.59236816 129.26278809 195.06933594 130.00097656 C194.06356751 131.4327557 193.06754018 132.87142882 192.08154297 134.31689453 C189.79058577 137.65391578 187.51688552 140.73451902 184.67407227 143.62280273 C181.78314273 146.70919909 179.8888767 149.23291613 178.74438477 153.40405273 C179.95992739 159.97891214 183.32489988 165.80695566 186.42553711 171.65454102 C188.69883981 176.39388479 190.21441469 181.38429634 191.74438477 186.40405273 C192.652771 186.55962646 193.56115723 186.7152002 194.49707031 186.87548828 C195.13793579 186.98526001 195.13793579 186.98526001 198.38110352 187.54077148 C199.0800322 187.66032196 199.77896088 187.77987244 200.49906921 187.90304565 C204.39941309 188.57053088 208.29916762 189.24120757 212.19799805 189.91748047 C219.22052619 191.13294876 226.24143949 192.34309426 233.28627014 193.42320251 C235.30301168 193.73279938 237.3183614 194.05024486 239.33349609 194.37011719 C241.80866867 194.76006022 244.28638438 195.13427133 246.76660156 195.49072266 C255.90540936 196.95845656 255.90540936 196.95845656 258.97094727 199.93139648 C261.67804309 203.70582744 261.87984854 205.69171708 261.92138672 210.3190918 C261.93422195 211.56088196 261.94705719 212.80267212 261.96028137 214.08209229 C261.96844994 215.44461671 261.97589345 216.80714565 261.98266602 218.16967773 C261.98674154 218.85540611 261.99081707 219.54113449 261.9950161 220.24764252 C262.01587959 223.87904052 262.03017852 227.51040073 262.03955078 231.1418457 C262.05059973 234.88561591 262.08498028 238.62878919 262.12472248 242.37234879 C262.15092356 245.2566434 262.15924578 248.14079675 262.16283226 251.02519989 C262.1676914 252.40466074 262.17928638 253.78411556 262.19787025 255.16345978 C262.26879238 260.77770024 262.32475824 265.79784136 260.40527344 271.11010742 C256.31503607 274.63629059 251.9673224 275.39189331 246.74438477 276.40405273 C245.76574463 276.59783508 244.78710449 276.79161743 243.77880859 276.99127197 C240.65821328 277.57582973 237.53242905 278.10952296 234.40063477 278.63061523 C233.26911987 278.82376312 232.13760498 279.01691101 230.97180176 279.21591187 C227.39684462 279.82542136 223.82072015 280.42768784 220.24438477 281.02905273 C216.6396835 281.63865012 213.03526182 282.24981303 209.43127441 282.86361694 C207.19808897 283.24361227 204.96445847 283.62100329 202.73034668 283.99551392 C202.22767273 284.080728 202.22767273 284.080728 199.68383789 284.51196289 C198.79990356 284.6605777 197.91596924 284.8091925 197.00524902 284.96231079 C194.74438477 285.40405273 194.74438477 285.40405273 191.74438477 286.40405273 C190.68949829 288.92911144 189.81113539 291.36399174 188.99438477 293.96655273 C187.48865406 298.7547663 186.01631625 303.18455261 183.34204102 307.45874023 C178.81315402 314.91923941 178.81315402 314.91923941 178.74438477 319.40405273 C180.89342383 325.50103783 185.58777117 330.31826958 189.78393555 335.10424805 C192.91501792 338.7773235 195.65310618 342.71212319 198.43188477 346.65405273 C199.5017668 348.13967697 200.57335598 349.62407344 201.64672852 351.10717773 C204.60038286 355.202961 207.55193595 359.30020996 210.49438477 363.40405273 C210.91292725 363.98574219 211.33146973 364.56743164 211.76269531 365.16674805 C214.74862381 369.34009658 216.23087273 371.92619914 216.14746094 377.20942688 C214.80454187 384.52120842 206.52988352 390.92555673 201.49438477 395.95483398 C200.71804688 396.735457 199.94170898 397.51608002 199.1418457 398.32035828 C197.51059545 399.95731701 195.87676511 401.59170835 194.24047852 403.22363281 C191.74289089 405.71804471 189.2589708 408.22553972 186.77563477 410.73413086 C185.18269551 412.32934191 183.5889722 413.92377047 181.99438477 415.51733398 C181.25671875 416.26420975 180.51905273 417.01108551 179.7590332 417.78059387 C176.03152477 421.47497782 172.76140249 424.54881554 167.74438477 426.40405273 C162.64018712 426.25194088 159.49753977 425.01515811 155.36938477 422.09155273 C154.33040039 421.36581055 153.29141602 420.64006836 152.22094727 419.89233398 C151.06200075 419.06303594 149.90315114 418.23360247 148.74438477 417.40405273 C147.46138292 416.50049752 146.17749236 415.59820321 144.89282227 414.69702148 C142.06434674 412.70948973 139.24048053 410.71564787 136.42016602 408.71655273 C131.26341671 405.062146 126.10131015 401.41550852 120.93188477 397.77905273 C120.07788086 397.17496582 119.22387695 396.57087891 118.34399414 395.94848633 C117.54155273 395.38468262 116.73911133 394.82087891 115.91235352 394.23999023 C115.20361084 393.74031738 114.49486816 393.24064453 113.76464844 392.72583008 C109.84727966 390.16285309 109.84727966 390.16285309 107.74438477 389.40405273 C105.73657227 389.93969727 105.73657227 389.93969727 103.61938477 391.03686523 C102.8355542 391.42946533 102.05172363 391.82206543 101.24414062 392.2265625 C100.41922119 392.65638428 99.59430176 393.08620605 98.74438477 393.52905273 C80.95196936 402.40405273 80.95196936 402.40405273 74.74438477 402.40405273 C74.6198291 403.64590332 74.49527344 404.88775391 74.36694336 406.16723633 C73.72989329 411.88257706 72.76946027 417.52908307 71.78344727 423.19311523 C71.59221283 424.29577728 71.40097839 425.39843933 71.20394897 426.53451538 C70.80039747 428.85263326 70.39522933 431.17047023 69.98852539 433.48803711 C69.37030675 437.02377969 68.76429576 440.56148497 68.15844727 444.09936523 C67.76336636 446.35991353 67.36755771 448.62033479 66.97094727 450.88061523 C66.79270416 451.93181549 66.61446106 452.98301575 66.43081665 454.06607056 C63.9980989 467.71377102 63.9980989 467.71377102 59.53077698 471.06425476 C56.28090699 472.62690958 54.08490248 472.79027972 50.48876953 472.80810547 C49.24720596 472.82078964 48.0056424 472.83347382 46.72645569 472.84654236 C45.37956576 472.84449069 44.03267698 472.84150248 42.68579102 472.83764648 C41.29483282 472.84221131 39.90387688 472.84751778 38.51292419 472.85353088 C35.60194723 472.8624505 32.69124478 472.86005241 29.78027344 472.85009766 C26.06004153 472.83861169 22.34075937 472.8588181 18.6206522 472.88801479 C15.74918148 472.90641076 12.87793693 472.90607765 10.00642204 472.90037727 C8.63536179 472.90022446 7.26428582 472.90623595 5.89328194 472.91866875 C0.33368244 472.9619843 -4.67414336 472.95166594 -9.95507812 471.12304688 C-13.63115078 466.77831365 -14.26769613 461.91162306 -15.25561523 456.40405273 C-15.43885345 455.43887726 -15.62209167 454.47370178 -15.81088257 453.47927856 C-16.34309588 450.55418372 -16.82761082 447.62475881 -17.29858398 444.68920898 C-17.38524574 444.15982475 -17.38524574 444.15982475 -17.82380676 441.4808197 C-18.18496192 439.26707215 -18.54363829 437.05291886 -18.89990234 434.83837891 C-19.44584499 431.44960861 -20.00155203 428.06253897 -20.55834961 424.67553711 C-20.90983855 422.51352154 -21.26077004 420.35141525 -21.61108398 418.18920898 C-21.77666306 417.18084488 -21.94224213 416.17248077 -22.11283875 415.13356018 C-22.26332169 414.19165329 -22.41380463 413.2497464 -22.56884766 412.27929688 C-22.70191818 411.45611465 -22.83498871 410.63293243 -22.97209167 409.7848053 C-23.26771124 407.30248236 -23.30444633 404.90152131 -23.25561523 402.40405273 C-23.89692383 402.28030273 -23.89692383 402.28030273 -27.14233398 401.65405273 C-32.39611559 400.48540266 -37.15009889 398.55690367 -42.06811523 396.40405273 C-42.48416016 396.22616211 -42.48416016 396.22616211 -44.58959961 395.32592773 C-50.67869007 392.70864426 -50.67869007 392.70864426 -53.37768555 391.28369141 C-56.14256257 389.98859886 -57.37373151 390.39932139 -60.25561523 391.40405273 C-62.89723942 392.97109172 -65.34727971 394.77017917 -67.81811523 396.59155273 C-69.33330343 397.6846064 -70.84894796 398.77702772 -72.36499023 399.86889648 C-73.15969727 400.44494629 -73.9544043 401.02099609 -74.77319336 401.61450195 C-81.4664295 406.43958269 -88.25057017 411.13832704 -95.0246582 415.84887695 C-97.01462815 417.23606327 -98.99693202 418.63349785 -100.97827148 420.03295898 C-101.4984082 420.39325195 -101.4984082 420.39325195 -104.13061523 422.21655273 C-104.99428711 422.82112305 -105.85795898 423.42569336 -106.74780273 424.04858398 C-109.75627182 425.67465684 -111.82742581 426.27946941 -115.25561523 426.40405273 C-121.06943891 424.43858516 -124.60089519 421.6297244 -128.84545898 417.27514648 C-129.14015327 416.97999397 -129.14015327 416.97999397 -130.63148499 415.48634338 C-131.86554249 414.24627914 -133.09477181 413.00139298 -134.31933594 411.75195312 C-136.20130794 409.83319991 -138.09906822 407.93120382 -139.99975586 406.03100586 C-141.19927624 404.82166359 -142.39787779 403.61140911 -143.59545898 402.40014648 C-144.16409164 401.82928818 -144.7327243 401.25842987 -145.31858826 400.67027283 C-149.25561523 396.63626022 -149.25561523 396.63626022 -149.25561523 394.40405273 C-149.89499023 394.13592773 -150.53436523 393.86780273 -151.19311523 393.59155273 C-153.25561523 392.40405273 -153.25561523 392.40405273 -154.25561523 389.40405273 C-155.57992673 388.71963965 -156.91454281 388.05501125 -158.25561523 387.40405273 C-161.86755214 383.87495842 -164.01251128 380.54477129 -165.06811523 375.59155273 C-164.22596466 366.32789644 -155.47114386 357.9206078 -150.02783203 350.75 C-144.70319824 343.73029842 -139.61575894 336.54762926 -134.60375977 329.30200195 C-133.68674586 328.01100845 -132.7381358 326.74201084 -131.76293945 325.49438477 C-130.34545898 323.65795898 -130.34545898 323.65795898 -128.25561523 320.40405273 C-128.65502107 317.3107316 -129.9663821 314.57709533 -131.21655273 311.73608398 C-131.60584961 310.84211914 -131.99514648 309.9481543 -132.39624023 309.02709961 C-133.21070273 307.17265099 -134.02579353 305.31847818 -134.84155273 303.46459961 C-137.28244836 297.85616016 -139.44023142 292.246141 -141.25561523 286.40405273 C-152.55698768 284.0620437 -163.86330152 281.78721366 -175.23999023 279.84155273 C-175.99829132 279.71120636 -176.75659241 279.58085999 -177.53787231 279.44656372 C-181.29529834 278.80200945 -185.05408165 278.16786489 -188.81567383 277.5480957 C-190.2149782 277.31028927 -191.61423187 277.07218426 -193.01342773 276.83374023 C-194.24206543 276.62990723 -195.47070312 276.42607422 -196.73657227 276.21606445 C-205.98652504 274.08165742 -205.98652504 274.08165742 -208.93254089 270.18733215 C-210.47522622 266.94206906 -210.64190201 264.73250854 -210.65966797 261.1484375 C-210.67235214 259.90687393 -210.68503632 258.66531036 -210.69810486 257.38612366 C-210.69605319 256.03923373 -210.69306498 254.69234495 -210.68920898 253.34545898 C-210.69377381 251.95450079 -210.69908028 250.56354485 -210.70509338 249.17259216 C-210.714013 246.2616152 -210.71161491 243.35091275 -210.70166016 240.43994141 C-210.69017419 236.7197095 -210.7103806 233.00042734 -210.73957729 229.28032017 C-210.75797326 226.40884945 -210.75764015 223.5376049 -210.75193977 220.66609001 C-210.75178696 219.29502976 -210.75779845 217.92395379 -210.77023125 216.55294991 C-210.86385993 204.53560439 -210.86385993 204.53560439 -208.59960938 200.64208984 C-204.68494094 196.90437861 -199.81168022 196.20317571 -194.58911133 195.36669922 C-193.50133392 195.1898912 -192.41355652 195.01308319 -191.29281616 194.83091736 C-190.7130452 194.73921516 -190.7130452 194.73921516 -187.77905273 194.27514648 C-186.57624664 194.08058365 -185.37344055 193.88602081 -184.13418579 193.68556213 C-180.30040314 193.06618413 -176.46558377 192.45354138 -172.63061523 191.84155273 C-168.78869945 191.22485702 -164.9470195 190.60674346 -161.10562134 189.98683167 C-158.71759711 189.60183798 -156.3292395 189.21890537 -153.94052124 188.83824158 C-152.85904816 188.66458572 -151.77757507 188.49092987 -150.66333008 188.31201172 C-149.71324066 188.16038071 -148.76315125 188.00874969 -147.78427124 187.8525238 C-143.33851591 187.06404461 -143.33851591 187.06404461 -141.25561523 186.40405273 C-140.25415039 184.75268555 -140.25415039 184.75268555 -139.54467773 182.60717773 C-139.27196045 181.81907715 -138.99924316 181.03097656 -138.71826172 180.21899414 C-138.44183838 179.37256348 -138.16541504 178.52613281 -137.88061523 177.65405273 C-135.4186485 170.46459681 -132.68507583 163.79440468 -129.12670898 157.06811523 C-128.25561523 154.40405273 -128.25561523 154.40405273 -128.80639648 151.99389648 C-130.68475522 148.63715298 -132.79247716 145.48217219 -135.00561523 142.34155273 C-135.24429321 141.99850098 -135.24429321 141.99850098 -136.45214844 140.26245117 C-138.04771218 137.97235392 -139.65096504 135.68779126 -141.25561523 133.40405273 C-142.44194242 131.71273715 -143.62813716 130.02132866 -144.81420898 128.32983398 C-145.41305908 127.47615234 -146.01190918 126.6224707 -146.62890625 125.74291992 C-148.98512915 122.38060158 -151.335192 119.01400219 -153.68432617 115.64672852 C-155.07548014 113.66115667 -156.47974736 111.68579026 -157.88842773 109.71264648 C-158.60772461 108.68268555 -159.32702148 107.65272461 -160.06811523 106.59155273 C-160.67268555 105.73948242 -161.27725586 104.88741211 -161.90014648 104.00952148 C-163.65319882 100.63982146 -164.2020777 98.21345405 -164.25561523 94.40405273 C-161.24451463 87.84471708 -156.56182431 83.2898332 -151.47436523 78.25952148 C-150.62386597 77.40852371 -149.7733667 76.55752594 -148.89709473 75.68074036 C-147.10532152 73.89129944 -145.30987437 72.10553056 -143.51098633 70.32324219 C-140.75611281 67.59204603 -138.01488692 64.84768602 -135.27514648 62.10131836 C-133.52984481 60.3615911 -131.78377717 58.62263184 -130.03686523 56.88452148 C-129.2169812 56.06372604 -128.39709717 55.2429306 -127.55236816 54.39726257 C-126.78477173 53.63919815 -126.01717529 52.88113373 -125.22631836 52.10009766 C-124.55443481 51.4328215 -123.88255127 50.76554535 -123.19030762 50.07804871 C-119.46778306 46.85712781 -116.3407723 45.90310998 -111.35229492 46.04711914 C-107.55350783 46.69381531 -104.90013706 48.80507157 -101.88061523 51.09155273 C-101.19926514 51.58341064 -100.51791504 52.07526855 -99.81591797 52.58203125 C-98.36299387 53.63373911 -96.9160854 54.69380026 -95.47485352 55.76147461 C-93.26748606 57.3952665 -91.04435106 59.00464528 -88.81420898 60.60717773 C-82.68776306 65.01387276 -76.56669289 69.42446769 -70.51342773 73.93139648 C-68.99022448 75.04760162 -67.46679518 76.16349839 -65.94311523 77.27905273 C-65.24387939 77.80942139 -64.54464355 78.33979004 -63.82421875 78.88623047 C-59.00382451 82.38483709 -59.00382451 82.38483709 -55.82202148 82.46655273 C-52.01420016 80.89010312 -48.24512319 79.26214695 -44.50561523 77.52905273 C-29.10726359 70.40405273 -29.10726359 70.40405273 -23.25561523 70.40405273 C-23.20336792 69.91880127 -23.20336792 69.91880127 -22.93896484 67.46313477 C-21.70089456 56.30095151 -20.07629842 45.21951987 -18.27880859 34.13452148 C-17.8132974 31.24919086 -17.36154539 28.36189664 -16.90991211 25.47436523 C-16.6106178 23.6148555 -16.31051732 21.7554753 -16.00952148 19.89624023 C-15.87816299 19.04512665 -15.7468045 18.19401306 -15.61146545 17.31710815 C-13.59848286 5.16812594 -13.59848286 5.16812594 -9.04016113 1.73591614 C-5.79265779 0.18261768 -3.59029424 0.01779681 0 0 Z M6.74438477 21.40405273 C5.53258797 25.64534153 4.49019188 29.30935891 3.83056641 33.56982422 C3.75540047 34.04715752 3.75540047 34.04715752 3.37501526 36.4627533 C3.21975876 37.47334305 3.06450226 38.4839328 2.90454102 39.52514648 C2.56036345 41.69901 2.21595532 43.87283703 1.87133789 46.04663086 C1.33726489 49.44726396 0.80584423 52.84826886 0.27880859 56.25 C-0.23442257 59.55125377 -0.75807054 62.85072901 -1.28295898 66.15014648 C-1.35957512 66.65442924 -1.35957512 66.65442924 -1.74729919 69.20640564 C-2.66601324 74.9396503 -3.77425016 80.13110477 -6.25561523 85.40405273 C-8.81808788 86.96142781 -11.35924212 87.67803368 -14.25561523 88.40405273 C-15.64337001 88.83805217 -17.02881807 89.27949608 -18.41186523 89.72827148 C-19.11666016 89.94829834 -19.82145508 90.1683252 -20.54760742 90.39501953 C-31.34295065 93.80049435 -41.43318794 98.30137686 -51.14624023 104.14233398 C-55.3348355 105.84197754 -58.79976007 106.22970489 -63.25561523 105.40405273 C-66.2122414 104.0488432 -68.64113406 102.21766437 -71.19311523 100.21655273 C-71.91402344 99.6798999 -72.63493164 99.14324707 -73.37768555 98.59033203 C-74.90341039 97.45426244 -76.42302059 96.30994009 -77.93676758 95.15795898 C-81.74491508 92.27759137 -85.62895528 89.50358593 -89.50561523 86.71655273 C-90.25109619 86.17659668 -90.99657715 85.63664062 -91.76464844 85.08032227 C-98.19513568 80.4232987 -104.70156694 75.88535431 -111.25561523 71.40405273 C-115.26078919 73.00778422 -117.93272503 75.82519259 -120.89624023 78.84936523 C-121.42328552 79.37924042 -121.95033081 79.9091156 -122.49334717 80.45504761 C-124.16887199 82.14173099 -125.83729246 83.83524837 -127.50561523 85.52905273 C-128.64317374 86.67664662 -129.7811896 87.82378735 -130.91967773 88.97045898 C-133.70364988 91.77643411 -136.48127283 94.58855737 -139.25561523 97.40405273 C-135.21939484 103.8320528 -131.11408225 110.17176828 -126.69311523 116.34155273 C-125.66408937 117.78919934 -124.63546193 119.23712921 -123.60717773 120.68530273 C-123.06996094 121.44069336 -122.53274414 122.19608398 -121.97924805 122.97436523 C-118.82626803 127.4189059 -115.69657299 131.87973302 -112.56811523 136.34155273 C-111.95572998 137.21223389 -111.34334473 138.08291504 -110.71240234 138.97998047 C-110.14529541 139.78894775 -109.57818848 140.59791504 -108.99389648 141.43139648 C-108.48898682 142.15061279 -107.98407715 142.8698291 -107.46386719 143.61083984 C-104.66412182 147.76604892 -104.62880797 151.50066216 -105.25561523 156.40405273 C-106.44288365 159.54748053 -108.09871663 162.33670652 -109.81811523 165.21655273 C-114.49508471 173.52350811 -117.82235237 181.87129123 -120.78295898 190.91577148 C-121.02900879 191.6652002 -121.27505859 192.41462891 -121.52856445 193.18676758 C-122.0163607 194.6743987 -122.49707694 196.16436866 -122.97094727 197.65649414 C-124.39377639 201.85417496 -125.44585492 204.13291107 -129.25561523 206.40405273 C-131.96977234 207.13772583 -131.96977234 207.13772583 -135.10986328 207.64672852 C-136.28755783 207.84348175 -137.46525238 208.04023499 -138.67863464 208.24295044 C-139.94540543 208.44306732 -141.21217621 208.6431842 -142.51733398 208.84936523 C-144.50540551 209.17829921 -146.49347644 209.50723678 -148.48151112 209.83639336 C-151.2606195 210.29362278 -154.04136436 210.74044116 -156.82214355 211.18737793 C-161.7021551 211.97351619 -166.57981887 212.77403078 -171.45698547 213.5776062 C-174.05366182 214.00435973 -176.65113794 214.42627863 -179.24943542 214.8430481 C-179.83355446 214.93827255 -179.83355446 214.93827255 -182.78955078 215.42016602 C-183.82339401 215.58654572 -184.85723724 215.75292542 -185.92240906 215.92434692 C-188.25561523 216.40405273 -188.25561523 216.40405273 -189.25561523 217.40405273 C-189.34423516 220.21568653 -189.37083879 223.00263529 -189.35327148 225.81420898 C-189.35185654 226.65624374 -189.35044159 227.4982785 -189.34898376 228.36582947 C-189.34336787 231.06610608 -189.33081272 233.76630101 -189.31811523 236.46655273 C-189.31310228 238.29272342 -189.30853902 240.11889539 -189.30444336 241.94506836 C-189.29339328 246.43142816 -189.27611803 250.91772658 -189.25561523 255.40405273 C-188.56958725 255.52267166 -187.88355927 255.64129059 -187.17674255 255.76350403 C-180.68758025 256.88710647 -174.19992931 258.01902634 -167.71382046 259.1601305 C-164.37980858 259.74638703 -161.04531218 260.32949952 -157.70947266 260.90527344 C-153.867924 261.56997798 -150.02845359 262.24571425 -146.18920898 262.92358398 C-145.00040634 263.12683792 -143.8116037 263.33009186 -142.58677673 263.539505 C-128.0904871 266.12641831 -128.0904871 266.12641831 -124.45874023 270.63452148 C-123.02774399 273.9286005 -121.98079273 277.26822731 -121.00561523 280.71655273 C-117.5364146 292.34113459 -112.87067998 303.43949978 -106.32202148 313.68139648 C-104.756652 317.67796252 -104.51099257 321.17382957 -105.25561523 325.40405273 C-106.60673845 328.36255281 -108.44208844 330.78967975 -110.44311523 333.34155273 C-110.97976807 334.06246094 -111.5164209 334.78336914 -112.06933594 335.52612305 C-113.20540553 337.05184789 -114.34972788 338.57145809 -115.50170898 340.08520508 C-118.3820766 343.89335258 -121.15608204 347.77739278 -123.94311523 351.65405273 C-124.48307129 352.39953369 -125.02302734 353.14501465 -125.5793457 353.91308594 C-130.23636927 360.34357318 -134.77431366 366.85000444 -139.25561523 373.40405273 C-137.65188375 377.40922669 -134.83447538 380.08116253 -131.81030273 383.04467773 C-131.28042755 383.57172302 -130.75055237 384.09876831 -130.20462036 384.64178467 C-128.51793698 386.31730949 -126.8244196 387.98572996 -125.13061523 389.65405273 C-123.98302135 390.79161124 -122.83588062 391.9296271 -121.68920898 393.06811523 C-118.88323386 395.85208738 -116.0711106 398.62971033 -113.25561523 401.40405273 C-106.82761517 397.36783234 -100.48789969 393.26251975 -94.31811523 388.84155273 C-92.87046863 387.81252687 -91.42253875 386.78389943 -89.97436523 385.75561523 C-89.21897461 385.21839844 -88.46358398 384.68118164 -87.68530273 384.12768555 C-83.24076206 380.97470553 -78.77993495 377.84501049 -74.31811523 374.71655273 C-73.44743408 374.10416748 -72.57675293 373.49178223 -71.6796875 372.86083984 C-70.87072021 372.29373291 -70.06175293 371.72662598 -69.22827148 371.14233398 C-68.50905518 370.63742432 -67.78983887 370.13251465 -67.04882812 369.61230469 C-62.90692102 366.82152208 -59.10568387 366.48969553 -54.25561523 367.40405273 C-51.20543297 368.82795299 -48.32477842 370.39305899 -45.40380859 372.05712891 C-40.44936964 374.8504527 -35.4394761 377.11572411 -30.13061523 379.15405273 C-29.75255737 379.29935425 -29.75255737 379.29935425 -27.83935547 380.03466797 C-22.25891439 382.12755987 -16.64095986 383.83718341 -10.85717773 385.28686523 C-7.49496063 386.73070021 -6.31715571 388.39763477 -4.25561523 391.40405273 C-3.40168762 394.23846436 -3.40168762 394.23846436 -2.89941406 397.37182617 C-2.70273636 398.54944519 -2.50605865 399.72706421 -2.30342102 400.94036865 C-2.10846542 402.20197815 -1.91350983 403.46358765 -1.71264648 404.76342773 C-1.38587585 406.74932558 -1.05910205 408.73522292 -0.73213482 410.72108841 C-0.27987589 413.49233111 0.15810065 416.26576243 0.59637451 419.03924561 C1.36929761 423.911178 2.1648515 428.77946662 2.96028137 433.64776611 C3.38214253 436.23877764 3.79851567 438.83068948 4.20903015 441.42352295 C4.30264076 442.00602814 4.30264076 442.00602814 4.77636719 444.95385742 C4.93973068 445.98468445 5.10309418 447.01551147 5.27140808 448.07757568 C5.74438477 450.40405273 5.74438477 450.40405273 6.74438477 451.40405273 C9.55601856 451.49267266 12.34296732 451.51927629 15.15454102 451.50170898 C15.5755584 451.50100151 15.5755584 451.50100151 17.7061615 451.49742126 C20.40643811 451.49180537 23.10663304 451.47925022 25.80688477 451.46655273 C27.63305545 451.46153978 29.45922742 451.45697652 31.28540039 451.45288086 C35.77176019 451.44183078 40.25805861 451.42455553 44.74438477 451.40405273 C44.86300369 450.72024536 44.98162262 450.03643799 45.10383606 449.33190918 C46.22829364 442.85792436 47.3602552 436.38530072 48.50046253 429.91407013 C49.08626114 426.58785989 49.66924304 423.26120901 50.24560547 419.93334961 C50.91111041 416.09935343 51.58656256 412.26722111 52.26391602 408.43530273 C52.46716995 407.25166138 52.67042389 406.06802002 52.87983704 404.84851074 C55.74256503 388.80771916 55.74256503 388.80771916 59.70532227 386.02905273 C60.10364258 385.92592773 60.10364258 385.92592773 62.11938477 385.40405273 C63.09391602 385.10885742 64.06844727 384.81366211 65.07250977 384.50952148 C66.28422852 384.1447168 67.49594727 383.77991211 68.74438477 383.40405273 C72.13987149 382.22863637 75.50591491 380.98035606 78.86938477 379.71655273 C79.77446777 379.38018799 80.67955078 379.04382324 81.61206055 378.69726562 C88.42488926 376.09300105 94.77819511 372.96199203 100.9753418 369.11035156 C105.28581765 366.59030476 108.52883018 365.84155926 113.49438477 366.68945312 C117.63173753 368.00347564 120.74839051 370.4870566 124.11938477 373.15405273 C125.68915969 374.34268412 127.26083927 375.52880351 128.83422852 376.71264648 C129.23633545 377.01807373 129.23633545 377.01807373 131.27124023 378.5637207 C135.32043816 381.5768356 139.49945369 384.39283868 143.68188477 387.21655273 C150.46604906 391.8217407 157.16430854 396.50965896 163.74438477 401.40405273 C169.92573346 396.29956451 175.54261354 390.72110331 181.18188477 385.02905273 C181.64304687 384.56563477 181.64304687 384.56563477 183.97680664 382.22045898 C186.23497101 379.95059428 188.49075418 377.67841736 190.74438477 375.40405273 C189.53434666 372.13888731 188.22512538 369.41384719 186.16235352 366.61108398 C185.64882324 365.90733643 185.13529297 365.20358887 184.60620117 364.47851562 C184.05367676 363.73206787 183.50115234 362.98562012 182.93188477 362.21655273 C181.75606925 360.60720277 180.58028903 358.99782701 179.40454102 357.38842773 C178.80013184 356.56536133 178.19572266 355.74229492 177.57299805 354.89428711 C173.05772406 348.74531586 168.57134561 342.57663637 164.14672852 336.36206055 C163.26715307 335.13396252 162.38021424 333.91106957 161.48266602 332.69604492 C160.42266822 331.26070662 159.39453434 329.80198408 158.36938477 328.34155273 C157.82540039 327.58745117 157.28141602 326.83334961 156.72094727 326.05639648 C155.00353023 321.39189181 155.7031148 316.85732612 157.62963867 312.31835938 C158.77702705 310.1629342 159.99679635 308.06550773 161.24438477 305.96655273 C166.30975105 297.00630321 169.63321106 287.75720465 172.69946289 277.94921875 C173.04170898 276.88243896 173.38395508 275.81565918 173.73657227 274.71655273 C174.02902832 273.76393555 174.32148438 272.81131836 174.62280273 271.82983398 C175.9514124 268.95628901 177.09176313 268.08916304 179.74438477 266.40405273 C182.04957581 265.71507263 182.04957581 265.71507263 184.61376953 265.26904297 C185.5790004 265.09553818 186.54423126 264.92203339 187.53871155 264.74327087 C188.57724777 264.56816483 189.615784 264.39305878 190.68579102 264.21264648 C191.76384506 264.02187027 192.84189911 263.83109406 193.95262146 263.63453674 C197.40231326 263.02647306 200.85444002 262.4337648 204.30688477 261.84155273 C206.60458981 261.43957982 208.90211825 261.03659599 211.19946289 260.63256836 C216.31481007 259.73430408 221.43174477 258.84579709 226.55030823 257.96604919 C231.2853855 257.13291429 236.01412174 256.26410056 240.74438477 255.40405273 C240.74438477 242.86405273 240.74438477 230.32405273 240.74438477 217.40405273 C236.32658359 216.14182383 232.52013553 215.10246976 228.07202148 214.43017578 C227.00756805 214.26627853 225.94311462 214.10238129 224.84640503 213.93351746 C223.71703522 213.76266129 222.58766541 213.59180511 221.42407227 213.41577148 C219.00855388 213.03588882 216.59319369 212.65499905 214.17797852 212.27319336 C210.38946998 211.67787037 206.60044057 211.08869472 202.80834961 210.51660156 C199.13540989 209.95992981 195.4673035 209.37756586 191.79907227 208.79077148 C191.23236313 208.70837975 191.23236313 208.70837975 188.36447144 208.29142761 C183.63594544 207.51676589 180.49841532 206.96492277 176.60888672 204.07177734 C174.77579853 201.44899947 173.73320875 199.39713344 172.85766602 196.33374023 C172.56384033 195.36380127 172.27001465 194.3938623 171.96728516 193.39453125 C171.66685303 192.36642334 171.3664209 191.33831543 171.05688477 190.27905273 C168.24071634 181.16263223 164.85409447 172.94458479 159.98193359 164.73364258 C157.12176537 159.77631954 155.24754244 155.22781627 155.74438477 149.40405273 C156.97276341 146.65667903 158.01296564 144.7684421 159.74438477 142.40405273 C160.15140625 141.80544434 160.55842773 141.20683594 160.9777832 140.59008789 C162.3314045 138.61191536 163.72117472 136.66343632 165.11938477 134.71655273 C166.18095056 133.22462693 167.24213165 131.73242733 168.30297852 130.23999023 C168.58133545 129.84924316 168.58133545 129.84924316 169.98999023 127.87182617 C173.06988131 123.53957749 176.1276121 119.19188457 179.18188477 114.84155273 C179.47119873 114.43151001 179.47119873 114.43151001 180.93530273 112.35644531 C181.21253174 111.96146851 181.21253174 111.96146851 182.61547852 109.96264648 C182.85745972 109.61874878 182.85745972 109.61874878 184.08203125 107.87841797 C186.38958415 104.44369207 188.55130689 100.91297733 190.74438477 97.40405273 C182.16438477 88.82405273 173.58438477 80.24405273 164.74438477 71.40405273 C161.10407222 72.86017775 158.94144547 73.78548829 155.95141602 75.98608398 C155.59954224 76.24284912 155.59954224 76.24284912 153.81884766 77.54223633 C153.0723999 78.09476074 152.32595215 78.64728516 151.55688477 79.21655273 C149.9475348 80.39236825 148.33815905 81.56814847 146.72875977 82.74389648 C146.31722656 83.04610107 146.31722656 83.04610107 144.23461914 84.57543945 C138.08666039 89.08996995 131.91986202 93.57713772 125.70678711 98.00170898 C124.47325305 98.88319936 123.24376522 99.77040813 122.02026367 100.66577148 C120.56859519 101.72481628 119.09481653 102.75337327 117.61938477 103.77905273 C116.85368164 104.32303711 116.08797852 104.86702148 115.29907227 105.42749023 C110.98052806 107.07830989 106.96469479 106.35232185 102.81567383 104.58032227 C100.81836016 103.53452514 98.87590812 102.42072506 96.93188477 101.27905273 C85.56008888 94.93017083 73.25503126 90.17529325 60.55688477 87.20483398 C58.06031676 86.10182441 57.21937003 84.68513909 55.74438477 82.40405273 C55.05540466 80.09886169 55.05540466 80.09886169 54.609375 77.53466797 C54.43587021 76.5694371 54.26236542 75.60420624 54.08360291 74.60972595 C53.90849686 73.57118973 53.73339081 72.5326535 53.55297852 71.46264648 C53.3622023 70.38459244 53.17142609 69.30653839 52.97486877 68.19581604 C52.36680509 64.74612424 51.77409683 61.29399748 51.18188477 57.84155273 C50.77991185 55.54384769 50.37692802 53.24631925 49.97290039 50.94897461 C49.07463611 45.83362743 48.18612912 40.71669273 47.30638123 35.59812927 C46.47324632 30.863052 45.60443259 26.13431576 44.74438477 21.40405273 C32.20438477 21.40405273 19.66438477 21.40405273 6.74438477 21.40405273 Z " fill="#000000" transform="translate(230.255615234375,19.595947265625)"/>
<path d="M0 0 C12.93526363 9.99630986 22.3419888 22.70965745 28.0625 38.0625 C28.2584375 38.57425781 28.2584375 38.57425781 29.25 41.1640625 C35.78342966 61.2634329 33.43428665 83.53958632 24.3125 102.3125 C13.47315424 123.40739836 -3.06183917 137.45927688 -25.33203125 145.25 C-47.33381477 151.77576071 -70.20570961 149.06194984 -90.2421875 138.19921875 C-108.00383251 128.14158463 -120.81457856 113.17916416 -127.9375 94.0625 C-128.329375 93.03898437 -128.72125 92.01546875 -129.125 90.9609375 C-134.54001424 74.30224787 -133.99349531 54.4431262 -127.9375 38.0625 C-127.64875 37.17175781 -127.36 36.28101563 -127.0625 35.36328125 C-123.07396013 24.02087099 -115.26669219 14.53963521 -106.9375 6.0625 C-106.32519531 5.43730469 -105.71289062 4.81210938 -105.08203125 4.16796875 C-76.06163851 -23.24361757 -31.3698159 -21.91949479 0 0 Z M-96.38671875 25.85546875 C-107.23466799 39.71574109 -112.60940549 55.36660148 -110.9375 73.0625 C-108.62397041 88.02551759 -102.6249698 99.33824029 -91.9375 110.0625 C-91.32261719 110.70058594 -90.70773438 111.33867187 -90.07421875 111.99609375 C-79.38833201 122.27010477 -64.68731713 126.97226031 -50.125 127.5 C-32.53180187 127.0493947 -18.35741886 120.43981193 -5.9375 108.0625 C-5.29941406 107.44761719 -4.66132813 106.83273437 -4.00390625 106.19921875 C6.27010477 95.51333201 10.97226031 80.81231713 11.5 66.25 C11.0493947 48.65680187 4.43981193 34.48241886 -7.9375 22.0625 C-8.55238281 21.42441406 -9.16726563 20.78632813 -9.80078125 20.12890625 C-20.48666799 9.85489523 -35.18768287 5.15273969 -49.75 4.625 C-67.66108604 5.08374719 -84.47533735 12.27231453 -96.38671875 25.85546875 Z " fill="#000000" transform="translate(305.9375,189.9375)"/>
</svg>
