<?xml version="1.0" encoding="UTF-8"?>
<!-- Generator: visioncortex VTracer 0.6.12 -->
<svg version="1.1" xmlns="http://www.w3.org/2000/svg" width="512" height="512">
<path d="M0 0 C1.59655598 1.48504185 3.15696906 3.00949797 4.6875 4.5625 C9.74123353 9.44332197 13.78121401 9.95421967 20.61328125 10.58203125 C31.00454055 11.86445887 38.70720934 19.04337725 45 27 C50.15694771 34.37067211 54.03107962 42.52295103 57 51 C57.70125 50.79503906 58.4025 50.59007812 59.125 50.37890625 C74.17705648 46.10461304 74.17705648 46.10461304 78.65625 48.3046875 C81.73049149 50.46917048 83.83736636 53.16601061 86.16796875 56.09765625 C94.69211978 66.46274029 101.61576654 73.7513924 115.46922302 75.26835632 C122.1926584 75.82100453 128.94080208 75.88835211 135.68212891 75.7331543 C139.35781035 76.02877754 140.38885825 76.50168835 143 79 C143.76231474 81.19428188 143.76231474 81.19428188 144.13788509 83.79830647 C144.2891757 84.78687393 144.44046632 85.7754414 144.59634149 86.79396546 C144.6701936 87.33554211 144.6701936 87.33554211 145.04393005 90.07624817 C145.21345204 91.21603776 145.38297403 92.35582735 145.55763304 93.53015602 C146.11773915 97.32236359 146.65330189 101.1176334 147.18920898 104.91333008 C147.57835231 107.59220068 147.97290541 110.27026543 148.36759853 112.94832325 C149.18805795 118.53015386 149.99779524 124.11344195 150.80051804 129.69784927 C151.91617058 137.45263959 153.06458121 145.20232615 154.22512817 152.95053101 C154.59030226 155.39024824 154.95545049 157.82996935 155.32057285 160.26969433 C155.50130222 161.47731029 155.6820316 162.68492625 155.86823761 163.92913663 C157.48356044 174.74618848 159.07806707 185.56634815 160.67694178 196.38584086 C161.07736316 199.09519185 161.47795608 201.80451746 161.87855165 204.5138427 C163.65756283 216.5457957 165.4358443 228.57785629 167.21178532 240.61026287 C167.63687148 243.49025745 168.06196085 246.37025156 168.48706055 249.25024414 C168.59262378 249.96542537 168.69818701 250.68060661 168.80694913 251.41746 C170.5386844 263.14887039 172.27539865 274.87953839 174.01401968 286.60993006 C175.81760339 298.77917357 177.61684883 310.94905224 179.41181368 323.11957008 C180.4126084 329.90458785 181.41526016 336.68931927 182.42283821 343.47333336 C183.36307386 349.80401432 184.29743607 356.13554437 185.22778702 362.4676857 C185.56924546 364.78514446 185.91267715 367.10231347 186.25823402 369.41916466 C186.72946798 372.58069995 187.19356356 375.74320463 187.65589905 378.90605164 C187.79372506 379.81913186 187.93155107 380.73221209 188.07355362 381.67296141 C188.82029977 386.84283538 189.13025457 391.77605482 189 397 C188.69234726 397.06607673 188.69234726 397.06607673 187.13543797 397.40046501 C172.13587569 400.62204877 157.13638942 403.8439861 142.13698673 407.06631279 C134.88327232 408.62462184 127.62953262 410.18281298 120.37573242 411.74072266 C114.05036499 413.09923174 107.72504597 414.45796601 101.39978403 415.81696618 C98.05331676 416.5359559 94.70682601 417.25483591 91.36027718 417.97344589 C87.61650465 418.7774117 83.87281783 419.58177547 80.12915039 420.38623047 C79.03006851 420.62215912 77.93098663 420.85808777 76.79859924 421.10116577 C76.28335693 421.21192444 76.28335693 421.21192444 73.67591858 421.77243042 C72.70185122 421.9782864 71.72778385 422.18414238 70.7241993 422.39623642 C69.00860278 422.77646363 67.2992438 423.18736803 65.60165215 423.64126968 C53.88414637 426.70650156 41.37608023 422.69253757 29.73779297 420.4934082 C27.78833173 420.1282543 25.83880077 419.76347248 23.88920593 419.39903259 C18.60817922 418.41075765 13.32814061 417.41729362 8.04826498 416.42288995 C2.48645096 415.37631651 -3.07626612 414.33456489 -8.6388855 413.2922821 C-19.20106601 411.31246644 -29.7624352 409.32835717 -40.32351768 407.34269351 C-52.21766241 405.10659934 -64.11268542 402.87519572 -76.00779557 400.64424384 C-90.56566945 397.91382203 -105.12338314 395.18254921 -119.68045044 392.4478302 C-120.19492589 392.35119144 -120.19492589 392.35119144 -122.79848349 391.86214072 C-127.76848294 390.92848505 -132.73836976 389.99423741 -137.70802498 389.05875111 C-146.47138206 387.40972875 -155.23598619 385.76847373 -164.00531006 384.15145874 C-166.26097496 383.73409718 -168.5165874 383.31645338 -170.77218032 382.89870298 C-172.82718477 382.51944209 -174.88292873 382.14439843 -176.93873787 381.76952839 C-178.1340859 381.54810767 -179.32943394 381.32668695 -180.56100464 381.09855652 C-181.59610609 380.90883868 -182.63120754 380.71912085 -183.6976757 380.52365398 C-186 380 -186 380 -187 379 C-186.91054191 365.77055086 -184.79904896 352.55295369 -183.08837891 339.46289062 C-182.78725966 337.12876769 -182.48657714 334.79458838 -182.18629456 332.46035767 C-181.37517948 326.16691006 -180.55729748 319.87436027 -179.7375989 313.58202553 C-179.13899935 308.98359095 -178.54268118 304.38486267 -177.94661569 299.78609905 C-176.15947497 285.99823225 -174.36556487 272.21125795 -172.5678883 258.42476124 C-171.08424959 247.04467486 -169.61055108 235.66332628 -168.14135523 224.28136712 C-166.62874347 212.56389982 -165.10895545 200.84738297 -163.58161676 189.13182592 C-162.72581778 182.56626642 -161.87310094 176.00033353 -161.02769852 169.4334259 C-160.23349331 163.26638615 -159.43004197 157.10062073 -158.61947441 150.93571091 C-158.32388116 148.67546501 -158.03156703 146.41478745 -157.74279594 144.15365982 C-157.34774429 141.06445436 -156.94081656 137.97703541 -156.53091431 134.88977051 C-156.47531493 134.44385598 -156.47531493 134.44385598 -156.19394839 132.18725824 C-154.39223183 118.9120892 -154.39223183 118.9120892 -150.0589447 115.4485321 C-149.34074051 115.19698868 -148.62253632 114.94544525 -147.88256836 114.6862793 C-147.0843869 114.39208099 -146.28620544 114.09788269 -145.46383667 113.79476929 C-145.05730362 113.66363235 -145.05730362 113.66363235 -143 113 C-142.62807022 112.87043411 -142.62807022 112.87043411 -140.74588013 112.2147522 C-138.46796638 111.44196618 -136.17860379 110.72468297 -133.87890625 110.01953125 C-133.46592033 109.89037071 -133.46592033 109.89037071 -131.3759613 109.23674011 C-128.7730243 108.42357948 -126.16791594 107.61767861 -123.5625 106.8125 C-120.93251807 105.99530386 -118.30302417 105.17657965 -115.67405701 104.35612488 C-114.04653225 103.84866061 -112.41834825 103.34330481 -110.78944397 102.84028625 C-105.22093943 101.11046971 -105.22093943 101.11046971 -103 100 C-102.31738281 98.30444336 -102.31738281 98.30444336 -101.703125 96.08984375 C-101.46996582 95.27290039 -101.23680664 94.45595703 -100.99658203 93.61425781 C-100.873396 93.17259277 -100.873396 93.17259277 -100.25 90.9375 C-95.86538946 75.85315094 -90.41666528 61.85755119 -83 48 C-82.43410156 46.93910156 -81.86820312 45.87820312 -81.28515625 44.78515625 C-69.71051295 24.05973613 -53.03637442 6.45939743 -30 -1 C-20.32156745 -3.52943904 -9.10455972 -5.06333028 0 0 Z M-53.3125 32.9375 C-67.92764469 51.27999703 -77.82496876 72.42816249 -84 95 C-81.92167457 94.537426 -79.84368681 94.07329994 -77.76708984 93.60302734 C-75.88520395 93.19291104 -73.99690028 92.81142199 -72.10400391 92.45556641 C-64.73935603 91.01214778 -57.18148895 89.44562493 -51 85 C-47.04910923 79.04913938 -46.47471487 71.75476996 -45.49414062 64.82470703 C-44.78209442 60.75436383 -43.40926241 57.17742831 -41.6875 53.4375 C-41.54163452 53.12059204 -41.54163452 53.12059204 -40.8034668 51.5168457 C-33.38829545 36.07777993 -23.53253567 22.98527322 -8 15 C-10.60599988 12.39400012 -11.8053743 12.6722318 -15.4375 12.625 C-30.46205043 12.91220765 -43.83654497 21.76240821 -53.3125 32.9375 Z M19 26 C19.12117187 26.5878125 19.24234375 27.175625 19.3671875 27.78125 C21.47817887 39.08317304 22.12920299 50.54994569 23 62 C29.27 60.02 35.54 58.04 42 56 C39.2123851 44.84954039 34.24950681 33.2099953 24 27 C21.2578125 26.32421875 21.2578125 26.32421875 19 26 Z M-12.63671875 38.4921875 C-23.64483095 50.12403653 -28.87746302 63.11505972 -34 78 C-29.86981352 79.37672883 -26.89925489 77.99311097 -22.90234375 76.7265625 C-22.11227432 76.48336273 -21.3222049 76.24016296 -20.50819397 75.98959351 C-17.98201899 75.20955148 -15.45987917 74.41721959 -12.9375 73.625 C-11.23395974 73.09819526 -9.53018618 72.57214433 -7.82617188 72.046875 C4.60958159 68.19520921 4.60958159 68.19520921 7 67 C7.30130458 58.08361639 7.20139004 49.49198023 5.625 40.6875 C5.49891357 39.97730713 5.37282715 39.26711426 5.24291992 38.53540039 C4.57475223 35.08035237 3.79859546 32.04197232 2 29 C-3.37898545 29 -8.95292655 35.01032169 -12.63671875 38.4921875 Z " fill="#7CB342" transform="translate(255,45)"/>
<path d="M0 0 C4.73617992 2.03954797 7.27101113 4.13949078 10.38671875 8.21875 C19.15533712 18.81279626 26.30257791 26.76777177 40.53926086 28.34155273 C47.24484418 28.89074182 53.97582169 28.93747619 60.69799805 28.74902344 C64.3703251 29.02814745 65.39155102 29.50420481 68 32 C68.76231474 34.19428188 68.76231474 34.19428188 69.13788509 36.79830647 C69.2891757 37.78687393 69.44046632 38.7754414 69.59634149 39.79396546 C69.74404572 40.87711875 69.89174994 41.96027205 70.04393005 43.07624817 C70.21345204 44.21603776 70.38297403 45.35582735 70.55763304 46.53015602 C71.11773915 50.32236359 71.65330189 54.1176334 72.18920898 57.91333008 C72.57835231 60.59220068 72.97290541 63.27026543 73.36759853 65.94832325 C74.18805795 71.53015386 74.99779524 77.11344195 75.80051804 82.69784927 C76.91617058 90.45263959 78.06458121 98.20232615 79.22512817 105.95053101 C79.59030226 108.39024824 79.95545049 110.82996935 80.32057285 113.26969433 C80.50130222 114.47731029 80.6820316 115.68492625 80.86823761 116.92913663 C82.48356044 127.74618848 84.07806707 138.56634815 85.67694178 149.38584086 C86.07736316 152.09519185 86.47795608 154.80451746 86.87855165 157.5138427 C88.65756283 169.5457957 90.4358443 181.57785629 92.21178532 193.61026287 C92.63687148 196.49025745 93.06196085 199.37025156 93.48706055 202.25024414 C93.59262378 202.96542537 93.69818701 203.68060661 93.80694913 204.41746 C95.5386844 216.14887039 97.27539865 227.87953839 99.01401968 239.60993006 C100.81760339 251.77917357 102.61684883 263.94905224 104.41181368 276.11957008 C105.4126084 282.90458785 106.41526016 289.68931927 107.42283821 296.47333336 C108.36307386 302.80401432 109.29743607 309.13554437 110.22778702 315.4676857 C110.56924546 317.78514446 110.91267715 320.10231347 111.25823402 322.41916466 C111.72946798 325.58069995 112.19356356 328.74320463 112.65589905 331.90605164 C112.79372506 332.81913186 112.93155107 333.73221209 113.07355362 334.67296141 C113.82029977 339.84283538 114.13025457 344.77605482 114 350 C98.41399662 353.35757482 82.82755945 356.71312803 67.24061108 360.06631279 C60.00240639 361.62349996 52.7643421 363.18133409 45.52661133 364.74072266 C39.2140109 366.10078764 32.90114379 367.45960683 26.58796102 368.81696618 C23.24902562 369.53489506 19.91022181 370.25342297 16.57173729 370.97344589 C12.83357442 371.77934033 9.09494415 372.5830322 5.35620117 373.38623047 C4.26430984 373.62215912 3.17241852 373.85808777 2.04743958 374.10116577 C-4.61425377 375.52938109 -11.28919827 376.82378719 -18 378 C-17.59775506 360.92257667 -17.06984022 343.86588032 -16.0625 326.8125 C-15.23102337 312.7338846 -14.57658446 298.65383167 -14 284.5625 C-13.39813344 269.9114884 -12.74198265 255.26639274 -11.9375 240.625 C-11.91739868 240.25883072 -11.91739868 240.25883072 -11.81567383 238.40579224 C-11.47769061 232.28089167 -11.13474657 226.15647615 -10.75219727 220.03417969 C-10.0504461 208.78216222 -9.60234448 197.5256062 -9.18405151 186.25982666 C-8.52346705 168.54395647 -7.79980901 150.83223711 -6.9375 133.125 C-6.897388 132.2887207 -6.857276 131.45244141 -6.81594849 130.59082031 C-6.46126303 123.22988618 -6.0949076 115.87708374 -5.49609375 108.53125 C-4.89105926 101.03116061 -4.57120972 93.52266834 -4.24090576 86.00650024 C-4.03576999 81.34914053 -3.8229954 76.69213357 -3.609375 72.03515625 C-3.58624741 71.53094902 -3.58624741 71.53094902 -3.46920776 68.97935486 C-2.81842427 54.92141764 -2.09406195 40.86707625 -1.375 26.8125 C-1.30600749 25.4628704 -1.2370174 24.11324069 -1.16802979 22.76361084 C-0.77995657 15.17567512 -0.3907009 7.58780087 0 0 Z " fill="#558B2F" transform="translate(330,92)"/>
<path d="M0 0 C0.47731567 0.00173218 0.47731567 0.00173218 2.89282227 0.01049805 C13.65458237 0.17425413 23.46416816 1.86767766 33.3125 6.3125 C32.00708379 12.61650359 30.34309522 18.63062472 28.2734375 24.72265625 C27.98771881 25.57556747 27.70200012 26.4284787 27.40762329 27.30723572 C26.50517809 29.99794513 25.59645712 32.68648432 24.6875 35.375 C24.06989414 37.21275008 23.45270274 39.0506395 22.8359375 40.88867188 C21.33290774 45.3649051 19.82425069 49.83920494 18.3125 54.3125 C17.38453613 53.96678955 16.45657227 53.6210791 15.50048828 53.26489258 C14.88294678 53.03878296 14.88294678 53.03878296 11.7578125 51.89453125 C10.54109863 51.4456958 9.32438477 50.99686035 8.07080078 50.53442383 C-3.57318092 46.7486548 -18.03517172 44.80470706 -29.48828125 49.96875 C-33.99484879 52.7223188 -37.02313924 56.31941773 -38.6875 61.3125 C-39.06466739 67.06430277 -38.64467866 70.22615271 -35.6875 75.3125 C-35.3575 76.3025 -35.0275 77.2925 -34.6875 78.3125 C-33.37281488 79.01522701 -32.03504668 79.67505183 -30.6875 80.3125 C-29.01298052 81.6096236 -27.37019408 82.94812604 -25.75 84.3125 C-22.18948576 87.28117344 -18.60674529 90.14492569 -14.88134766 92.90722656 C0.37903573 104.29884469 12.51632766 117.01330099 16.3125 136.3125 C16.74475816 140.36512982 16.8372737 144.36381446 16.8125 148.4375 C16.80750488 149.52627441 16.80250977 150.61504883 16.79736328 151.73681641 C16.41346792 169.68458624 10.15627075 185.62974671 -2.55859375 198.5078125 C-15.29747198 210.50932682 -32.02166552 213.89974837 -49.01953125 213.58203125 C-68.30021473 212.76337851 -86.15768921 204.80015645 -100.6875 192.3125 C-101.49574219 191.75046875 -102.30398437 191.1884375 -103.13671875 190.609375 C-104.6875 188.3125 -104.6875 188.3125 -104.6105957 186.45288086 C-104.10525069 184.0157656 -103.43285336 181.68740929 -102.6875 179.3125 C-102.42195312 178.42385254 -102.15640625 177.53520508 -101.8828125 176.61962891 C-101.01460821 173.77755419 -100.10701184 170.9508638 -99.1875 168.125 C-98.87941406 167.16658203 -98.57132813 166.20816406 -98.25390625 165.22070312 C-96.75803148 160.57578727 -95.24231444 155.93807297 -93.6875 151.3125 C-93.34847656 151.53035156 -93.34847656 151.53035156 -91.6328125 152.6328125 C-88.65762439 154.53660323 -85.67399151 156.42649456 -82.6875 158.3125 C-81.82769531 158.86035156 -80.96789062 159.40820312 -80.08203125 159.97265625 C-69.48661935 166.55899337 -60.32612357 169.91579968 -47.6875 168.3125 C-43.18155881 166.10653157 -39.89448096 163.22937065 -37.9375 158.5 C-37.00423599 150.33393994 -38.08418971 145.22822084 -42.6875 138.3125 C-48.7083967 131.16564821 -56.17850972 125.48939837 -63.59375 119.8671875 C-73.37875974 112.08365702 -81.21662874 99.82961439 -82.6875 87.3125 C-84.11576432 63.8754105 -79.77727631 43.84897617 -64.08203125 25.80078125 C-51.88567573 13.12691752 -37.71808892 5.91478164 -20.6875 2.3125 C-19.92928955 2.13662354 -19.1710791 1.96074707 -18.38989258 1.77954102 C-12.21170224 0.41369514 -6.31966906 -0.03764049 0 0 Z " fill="#FEFEFD" transform="translate(230.6875,191.6875)"/>
</svg>
