<?xml version="1.0" encoding="UTF-8"?>
<!-- Generator: visioncortex VTracer 0.6.12 -->
<svg version="1.1" xmlns="http://www.w3.org/2000/svg" width="512" height="512">
<path d="M0 0 C22.73023836 18.11437084 35.51448011 43.10056738 39.2890625 71.82421875 C39.30785445 74.15747641 39.31047951 76.49098371 39.2890625 78.82421875 C40.45337799 78.81311569 41.61769348 78.80201263 42.81729126 78.79057312 C53.79357973 78.68918418 64.7697731 78.61424694 75.74642372 78.56515789 C81.38957878 78.53907209 87.0323556 78.50369183 92.67529297 78.44702148 C98.12179656 78.3926666 103.5679365 78.36279056 109.0146904 78.34983253 C111.0919403 78.34059899 113.16917046 78.32256783 115.24626541 78.29556847 C118.1576146 78.25923243 121.06746419 78.25427537 123.97900391 78.2565918 C124.83640167 78.23861542 125.69379944 78.22063904 126.57717896 78.20211792 C130.75220499 78.23802516 133.47335718 78.53474431 136.80844116 81.17219543 C141.91541943 86.63204746 140.47385377 93.77550387 140.2890625 100.82421875 C139.98550331 109.76456923 139.54767146 118.69956239 139.12744141 127.63500977 C139.00199704 130.34498327 138.8775078 133.0550005 138.75294495 135.76501465 C138.45035901 142.3342472 138.14418126 148.90330743 137.83651973 155.47230405 C137.58629794 160.81506581 137.33708772 166.1578738 137.08857346 171.50071526 C136.38236304 186.68078646 135.67333928 201.86072262 134.96080382 217.04049826 C134.94165107 217.44853163 134.94165107 217.44853163 134.84472656 219.51342773 C134.80637319 220.33050097 134.76801982 221.1475742 134.72850423 221.98940723 C134.10674101 235.23909216 133.49179264 248.48908355 132.87989779 261.73922754 C132.25007388 275.37584058 131.61504354 289.01220273 130.97466791 302.64832443 C130.61583863 310.29152459 130.25913413 317.93480994 129.90806961 325.57837105 C129.60928675 332.08280771 129.30565314 338.58699594 128.99585797 345.09091777 C128.83819596 348.40379634 128.68346962 351.71674006 128.53335381 355.02997398 C128.36971747 358.63336258 128.1974437 362.23624228 128.02310181 365.83912659 C127.97834516 366.86950265 127.93358852 367.89987871 127.88747561 368.96147829 C127.09786064 384.7029005 124.70768614 398.07739318 113.484375 409.85546875 C103.52160457 418.79005291 92.36745411 421.28486811 79.30960083 421.2118988 C78.1416274 421.21728434 76.97365396 421.22266988 75.77028739 421.22821862 C72.55508699 421.23998478 69.34022267 421.23845785 66.12501979 421.2310518 C62.6470636 421.22629932 59.16916164 421.23884829 55.69122314 421.24906921 C48.88793808 421.26622217 42.08474551 421.26710451 35.28144445 421.26185631 C29.74878625 421.25780672 24.21615529 421.25926752 18.68349838 421.26460457 C17.89456464 421.26535299 17.1056309 421.26610141 16.29279008 421.26687251 C14.68981219 421.26840407 13.0868343 421.26994242 11.48385642 421.27148748 C-3.53202228 421.28519992 -18.54784882 421.27978375 -33.56372632 421.26830227 C-47.28347136 421.25837189 -61.00308149 421.2713094 -74.72280572 421.29523646 C-88.83026908 421.31965325 -102.93766968 421.32922896 -117.04515374 421.32258373 C-124.95740757 421.31909715 -132.86955771 421.32128638 -140.7817955 421.33883476 C-147.51746144 421.35358909 -154.25295064 421.35415021 -160.98861323 421.33676385 C-164.42108168 421.32827777 -167.85323486 421.32604497 -171.28568649 421.34141541 C-175.0165888 421.35464839 -178.74664219 421.34305566 -182.47750854 421.32542419 C-183.54854446 421.3350292 -184.61958038 421.34463421 -185.72307193 421.35453027 C-198.06789626 421.2350446 -208.8007087 417.23370633 -217.8671875 408.82421875 C-229.48333225 396.68794811 -230.74601795 381.93037906 -231.44497681 365.83912659 C-231.49977184 364.70675298 -231.55456687 363.57437938 -231.61102235 362.40769142 C-231.79103025 358.65301384 -231.96121013 354.89795903 -232.13134766 351.14282227 C-232.25836553 348.43452604 -232.38746698 345.72633002 -232.51646423 343.01812744 C-232.82808081 336.44948734 -233.13234898 329.88052694 -233.43406416 323.3114254 C-233.78637251 315.64682745 -234.14603714 307.98257983 -234.50596313 300.31833648 C-235.14833784 286.63427983 -235.7840602 272.9499223 -236.41601562 259.26538086 C-237.0279503 246.01449668 -237.64462775 232.76384455 -238.26660156 219.51342773 C-238.30490706 218.69736101 -238.34321255 217.88129428 -238.38267882 217.04049826 C-238.42092136 216.2257834 -238.45916391 215.41106854 -238.49856532 214.57166535 C-239.20846637 199.44731887 -239.91404962 184.32277366 -240.61754984 169.19812818 C-240.86558774 163.8674946 -241.11486226 158.53691966 -241.36452103 153.20636177 C-241.66910104 146.70120938 -241.97115705 140.19594498 -242.27017118 133.6905343 C-242.42250285 130.37731937 -242.57616221 127.06418139 -242.73197365 123.75112724 C-243.09091277 116.10991786 -243.42578157 108.46855193 -243.7109375 100.82421875 C-243.7427082 100.0286402 -243.7744789 99.23306165 -243.80721235 98.41337466 C-243.88018783 96.42985515 -243.92701568 94.44541752 -243.97103882 92.46104431 C-243.99536169 91.46160262 -244.01968456 90.46216093 -244.04474449 89.43243313 C-243.54288109 85.51110325 -241.70252115 82.92072779 -239.09112549 80.03300476 C-235.36002612 78.13815413 -231.75289256 78.43218324 -227.62792969 78.48364258 C-226.71050995 78.4832045 -225.79309021 78.48276642 -224.84786987 78.48231506 C-221.81763373 78.4844039 -218.78795191 78.50773967 -215.7578125 78.53125 C-213.65602928 78.53684561 -211.55424215 78.54111587 -209.45245361 78.54411316 C-203.92200915 78.55556464 -198.39180123 78.58503462 -192.8614502 78.6182251 C-187.21756185 78.64891932 -181.57363526 78.66261712 -175.9296875 78.67773438 C-164.85666693 78.70990387 -153.78382189 78.76110405 -142.7109375 78.82421875 C-142.64890137 77.86992477 -142.58686523 76.9156308 -142.52294922 75.93241882 C-142.48049072 75.30463783 -142.48049072 75.30463783 -142.265625 72.12768555 C-142.18296387 70.88464157 -142.10030273 69.6415976 -142.01513672 68.36088562 C-141.63813616 63.97781919 -140.86994102 59.87223696 -139.7109375 55.63671875 C-139.49727539 54.84773193 -139.28361328 54.05874512 -139.06347656 53.24584961 C-134.9573817 39.00828954 -128.306686 26.11136446 -118.7109375 14.82421875 C-118.00324219 13.95539062 -117.29554688 13.0865625 -116.56640625 12.19140625 C-87.18279033 -22.43361143 -35.8229378 -26.65753733 0 0 Z M-103.5234375 31.51171875 C-113.8586154 46.21654907 -118.92435263 60.95837006 -120.7109375 78.82421875 C-75.1709375 78.82421875 -29.6309375 78.82421875 17.2890625 78.82421875 C13.69330729 53.65393229 5.89923886 32.91296357 -14.84375 16.82421875 C-44.39696608 -3.79055868 -81.60900264 3.83627266 -103.5234375 31.51171875 Z " fill="#F4511E" transform="translate(307.7109375,38.17578125)"/>
<path d="M0 0 C-1.48635116 4.21654356 -3.61249159 7.62478605 -6.125 11.3125 C-6.84945312 12.38113281 -7.57390625 13.44976562 -8.3203125 14.55078125 C-8.87460937 15.35902344 -9.42890625 16.16726562 -10 17 C-10.53890869 16.74307373 -11.07781738 16.48614746 -11.63305664 16.22143555 C-14.10887397 15.04205778 -16.58567795 13.86476619 -19.0625 12.6875 C-19.91005859 12.28337891 -20.75761719 11.87925781 -21.63085938 11.46289062 C-39.30503206 3.0693646 -59.59950244 -2.33485635 -79 4 C-89.60629733 8.17608127 -96.77619576 13.40030587 -103 23.125 C-105.45132188 29.96627087 -105.45130586 39.75879287 -102.5625 46.4375 C-98.01744846 53.66897376 -91.32745095 58.09297073 -83.796875 61.8125 C-83.44963379 61.98487183 -83.44963379 61.98487183 -81.69238281 62.85717773 C-73.66522519 66.7606606 -65.35619581 69.88334555 -57 73 C-33.31805905 81.83277849 -7.36473924 91.63876936 3.84765625 116.14453125 C8.79254047 128.39778672 8.79254047 143.60221328 3.84765625 155.85546875 C-2.78307235 170.34755978 -14.42982583 180.710929 -29.0390625 186.90625 C-53.67780589 196.00763278 -78.50260015 194.79600065 -102.5 184.25 C-112.86530759 179.46680542 -122.32167775 173.41814671 -131 166 C-127.99935973 160.36901124 -124.81213639 155.11915459 -121 150 C-117.42489911 151.28979121 -114.7002677 152.82395184 -111.6875 155.125 C-93.01376724 168.41581426 -70.74084716 174.68969043 -47.875 171.57421875 C-36.39417683 168.78943575 -24.50158515 163.06559551 -17.734375 153.14453125 C-13.11622492 145.51807918 -12.87308751 136.68532005 -14 128 C-16.51201425 119.75948092 -20.95901115 113.84749663 -28 109 C-28.75925781 108.46375 -29.51851563 107.9275 -30.30078125 107.375 C-40.97483825 100.54360352 -53.24413367 96.55529256 -65 92 C-69.46284604 90.26128695 -73.91995202 88.50858041 -78.375 86.75 C-79.37748779 86.36223389 -80.37997559 85.97446777 -81.4128418 85.57495117 C-91.92561184 81.42796939 -101.39220063 76.36408692 -110 69 C-110.61617187 68.50242187 -111.23234375 68.00484375 -111.8671875 67.4921875 C-120.55790015 59.80573498 -124.47912134 48.74486801 -125.23828125 37.45703125 C-125.53654292 22.81081357 -121.44001861 11.37313131 -111.6640625 0.37109375 C-80.38947498 -30.38694653 -33.64374688 -20.94378945 0 0 Z " fill="#F9F7F6" transform="translate(317,201)"/>
</svg>
