<?xml version="1.0" encoding="UTF-8"?>
<!-- Generator: visioncortex VTracer 0.6.12 -->
<svg version="1.1" xmlns="http://www.w3.org/2000/svg" width="512" height="512">
<path d="M0 0 C142.56 0 285.12 0 432 0 C432.33 22.11 432.66 44.22 433 67 C436.0170816 87.92280504 436.0170816 87.92280504 438.28515625 98.38867188 C442.98532848 122.13353104 447.26044238 154.60933643 433 176 C432.74519098 178.00766295 432.74519098 178.00766295 432.73828697 180.35157299 C432.73082073 181.24609236 432.72335449 182.14061172 432.715662 183.06223774 C432.71759748 184.04541068 432.71953297 185.02858362 432.7215271 186.04154968 C432.71574142 187.08289566 432.70995575 188.12424164 432.70399475 189.19714355 C432.68689813 192.71438604 432.68412069 196.23149847 432.68115234 199.7487793 C432.67174734 202.30228656 432.66146904 204.85579074 432.6503849 207.40929127 C432.62582628 213.5686473 432.61020951 219.72796906 432.59880099 225.88736166 C432.58516774 233.01010701 432.55883115 240.13278232 432.5324707 247.25549316 C432.46914814 266.06612876 432.42313862 284.87681942 432.375 303.6875 C432.25125 345.700625 432.1275 387.71375 432 431 C289.44 431 146.88 431 0 431 C-0.1875 304.125 -0.1875 304.125 -0.20776367 264.05908203 C-0.24865723 247.91772461 -0.24865723 247.91772461 -0.27412415 240.36203003 C-0.29020228 235.08323768 -0.29271921 229.80464502 -0.28596497 224.52584839 C-0.27739854 217.79012778 -0.29456793 211.05493106 -0.32801688 204.31926703 C-0.33623457 201.84871184 -0.33609954 199.37811122 -0.32660902 196.90756059 C-0.31497841 193.56560866 -0.33410856 190.22516611 -0.36076355 186.8833313 C-0.35009007 185.92054701 -0.3394166 184.95776272 -0.32841969 183.96580315 C-0.41981997 177.78721896 -1.7961729 173.49755381 -4.82038575 168.10433662 C-8.49202088 161.55443586 -9.62719329 153.42224258 -10 146 C-10.05285156 144.97777344 -10.10570313 143.95554688 -10.16015625 142.90234375 C-10.56300988 126.52546806 -8.93316062 109.67266842 -5.5 93.6640625 C1.16859803 61.44319222 -0.53149499 35.07866923 0 0 Z M22 21 C22 30.9 22 40.8 22 51 C150.04 51 278.08 51 410 51 C410 41.1 410 31.2 410 21 C281.96 21 153.92 21 22 21 Z M20 73 C19.01925558 78.95872654 18.03994802 84.91765396 17.06420898 90.87719727 C16.73235565 92.90142188 16.39968649 94.92551294 16.06616211 96.94946289 C15.58489072 99.87090253 15.10662637 102.79282156 14.62890625 105.71484375 C14.48095108 106.60896469 14.33299591 107.50308563 14.18055725 108.42430115 C12.6297805 117.94811192 11.79881391 127.22205015 11.75 136.875 C11.729375 137.88691406 11.70875 138.89882812 11.6875 139.94140625 C11.63491002 150.2096002 13.47858189 159.81436243 20 168 C24.82354112 172.69986058 29.56946126 174.09258014 36.1875 174.375 C46.19139103 174.15752411 54.94272228 170.05727772 62 163 C62.09519368 160.2001028 62.12553944 157.42493826 62.11352539 154.62475586 C62.11367142 153.74678848 62.11381744 152.86882111 62.1139679 151.96424866 C62.11326844 149.04775565 62.10547455 146.13132567 62.09765625 143.21484375 C62.09579218 141.19845108 62.09436823 139.18205796 62.09336853 137.16566467 C62.08954244 131.84734862 62.07971139 126.5290597 62.06866455 121.21075439 C62.05665825 114.83564566 62.05204862 108.46052787 62.04621124 102.08541107 C62.03649968 92.39025516 62.01734375 82.69515881 62 73 C48.14 73 34.28 73 20 73 Z M83 73 C82.5588031 95.14006275 82.5588031 95.14006275 82.46289062 104.6015625 C82.39720972 111.05017043 82.31965008 117.49705522 82.17016602 123.94433594 C82.05035349 129.14461571 81.98481651 134.34304772 81.95635033 139.54460144 C81.93607495 141.52553908 81.8964767 143.50637905 81.83696938 145.48652649 C81.39014109 160.97569995 81.39014109 160.97569995 85.36386108 165.97241211 C88.17808367 168.07379863 90.78734406 169.59762622 94 171 C94.81507523 171.37636597 95.63015045 171.75273193 96.46992493 172.14050293 C104.94670274 175.72941734 113.66808133 174.55154842 122.1015625 171.55859375 C123.05804688 171.04425781 124.01453125 170.52992188 125 170 C125.73289749 169.6807959 126.46579498 169.3615918 127.22090149 169.03271484 C130.27273606 167.31105693 131.95540338 165.87535912 134 163 C135.72171151 156.45231502 135.04323215 149.33034639 134.87890625 142.62890625 C134.86210808 140.62111773 134.84930261 138.61329217 134.84031677 136.60545349 C134.80604727 131.33551136 134.71772488 126.06782242 134.61798096 120.79876709 C134.50946714 114.46903295 134.46835728 108.13854283 134.41590118 101.80814362 C134.32879284 92.20386482 134.15631232 82.60452378 134 73 C117.17 73 100.34 73 83 73 Z M155 73 C154.71923833 95.22028037 154.71923833 95.22028037 154.65820312 104.69921875 C154.6163726 111.16496029 154.56691411 117.6300073 154.47192383 124.09521484 C154.39581002 129.30833919 154.35399817 134.52071877 154.3358593 139.73435593 C154.32293486 141.72235209 154.29769536 143.71030792 154.2598896 145.6979866 C154.20898871 148.48525981 154.20207938 151.26946496 154.20532227 154.05712891 C154.18015533 154.87712372 154.1549884 155.69711853 154.12905884 156.54196167 C154.17224236 159.9773902 154.28165178 162.13457831 156.52349663 164.83541489 C159.64031042 167.56073181 162.83714264 169.74332384 166.6875 171.3125 C167.41324219 171.61800781 168.13898438 171.92351562 168.88671875 172.23828125 C177.5587979 175.36407688 186.59056652 174.71165549 195 171 C198.68910979 168.68659503 201.92434324 166.07565676 205 163 C205.18820955 160.1380255 205.25171793 157.3735521 205.22705078 154.51123047 C205.22734283 153.63311707 205.22763489 152.75500366 205.22793579 151.85028076 C205.22653912 148.93915019 205.21096213 146.02827353 205.1953125 143.1171875 C205.19158357 141.10222514 205.18873603 139.08726096 205.18673706 137.07229614 C205.17909118 131.76217668 205.1594345 126.45216618 205.1373291 121.14208984 C205.1132995 114.77448274 205.10409424 108.40683927 205.09242249 102.03919983 C205.07301066 92.35939071 205.0346947 82.67982079 205 73 C188.5 73 172 73 155 73 Z M227 73 C226.71923833 95.22028037 226.71923833 95.22028037 226.65820312 104.69921875 C226.6163726 111.16496029 226.56691411 117.6300073 226.47192383 124.09521484 C226.39581002 129.30833919 226.35399817 134.52071877 226.3358593 139.73435593 C226.32293486 141.72235209 226.29769536 143.71030792 226.2598896 145.6979866 C226.20898871 148.48525981 226.20207938 151.26946496 226.20532227 154.05712891 C226.18015533 154.87712372 226.1549884 155.69711853 226.12905884 156.54196167 C226.1723133 159.98303395 226.27854161 162.13589429 228.53242302 164.83541489 C236.25995372 171.56730128 244.12641324 174.36234899 254.31640625 174.2109375 C263.64500021 173.47768557 270.47228329 169.52771671 277 163 C277.18820955 160.1380255 277.25171793 157.3735521 277.22705078 154.51123047 C277.22734283 153.63311707 277.22763489 152.75500366 277.22793579 151.85028076 C277.22653912 148.93915019 277.21096213 146.02827353 277.1953125 143.1171875 C277.19158357 141.10222514 277.18873603 139.08726096 277.18673706 137.07229614 C277.17909118 131.76217668 277.1594345 126.45216618 277.1373291 121.14208984 C277.1132995 114.77448274 277.10409424 108.40683927 277.09242249 102.03919983 C277.07301066 92.35939071 277.0346947 82.67982079 277 73 C260.5 73 244 73 227 73 Z M298 73 C297.71923833 95.22028037 297.71923833 95.22028037 297.65820312 104.69921875 C297.6163726 111.16496029 297.56691411 117.6300073 297.47192383 124.09521484 C297.39581002 129.30833919 297.35399817 134.52071877 297.3358593 139.73435593 C297.32293486 141.72235209 297.29769536 143.71030792 297.2598896 145.6979866 C297.20898871 148.48525981 297.20207938 151.26946496 297.20532227 154.05712891 C297.18015533 154.87712372 297.1549884 155.69711853 297.12905884 156.54196167 C297.17224236 159.9773902 297.28165178 162.13457831 299.52349663 164.83541489 C302.64031042 167.56073181 305.83714264 169.74332384 309.6875 171.3125 C310.41324219 171.61800781 311.13898438 171.92351562 311.88671875 172.23828125 C320.54615879 175.35952119 328.92741062 174.68068858 337.41015625 171.28515625 C341.70822369 169.15232942 345.60107228 166.39892772 349 163 C349.09519368 160.2001028 349.12553944 157.42493826 349.11352539 154.62475586 C349.11367142 153.74678848 349.11381744 152.86882111 349.1139679 151.96424866 C349.11326844 149.04775565 349.10547455 146.13132567 349.09765625 143.21484375 C349.09579218 141.19845108 349.09436823 139.18205796 349.09336853 137.16566467 C349.08954244 131.84734862 349.07971139 126.5290597 349.06866455 121.21075439 C349.05665825 114.83564566 349.05204862 108.46052787 349.04621124 102.08541107 C349.03649968 92.39025516 349.01734375 82.69515881 349 73 C332.17 73 315.34 73 298 73 Z M370 73 C369.71923833 95.22028037 369.71923833 95.22028037 369.65820312 104.69921875 C369.6163726 111.16496029 369.56691411 117.6300073 369.47192383 124.09521484 C369.39581002 129.30833919 369.35399817 134.52071877 369.3358593 139.73435593 C369.32293486 141.72235209 369.29769536 143.71030792 369.2598896 145.6979866 C369.20898871 148.48525981 369.20207938 151.26946496 369.20532227 154.05712891 C369.18015533 154.87712372 369.1549884 155.69711853 369.12905884 156.54196167 C369.17224236 159.9773902 369.28165178 162.13457831 371.52349663 164.83541489 C374.64031042 167.56073181 377.83714264 169.74332384 381.6875 171.3125 C382.41324219 171.61800781 383.13898438 171.92351562 383.88671875 172.23828125 C391.06320646 174.82500048 399.96449934 175.47659288 407.0859375 172.35546875 C414.95525068 166.78271023 418.1927728 158.08460569 420 149 C420.42896896 145.48545898 420.52332804 142.03870763 420.5 138.5 C420.49718018 137.50025146 420.49436035 136.50050293 420.49145508 135.47045898 C420.06977482 114.56671847 415.61367807 93.47750904 412 73 C398.14 73 384.28 73 370 73 Z M72 181 C71.57332031 181.36351562 71.14664063 181.72703125 70.70703125 182.1015625 C62.77292808 188.48156299 52.80939187 194.1178726 42.41015625 194.1328125 C41.97670898 194.13345703 41.97670898 194.13345703 39.78320312 194.13671875 C38.88537109 194.13285156 37.98753906 194.12898437 37.0625 194.125 C36.16853516 194.12886719 35.27457031 194.13273438 34.35351562 194.13671875 C33.48533203 194.13542969 32.61714844 194.13414062 31.72265625 194.1328125 C31.32953247 194.13224854 31.32953247 194.13224854 29.34008789 194.12939453 C27 194 27 194 22 193 C22 264.61 22 336.22 22 410 C102.85 410 183.7 410 267 410 C267 348.95 267 287.9 267 225 C304.29 225 341.58 225 380 225 C380 286.05 380 347.1 380 410 C389.9 410 399.8 410 410 410 C410 338.39 410 266.78 410 193 C408.35 193.33 406.7 193.66 405 194 C389.23263695 195.31561034 377.33041996 192.66361782 364 184 C362.33663589 182.99451623 360.67081237 181.9930578 359 181 C358.56429687 181.30164063 358.56429687 181.30164063 356.359375 182.828125 C341.85218829 192.66722871 328.02898887 196.64609277 310.5 193.33984375 C304.16042571 191.43301867 298.82639011 188.30131945 293.375 184.5859375 C291.2978228 183.19887509 289.25863971 182.0561232 287 181 C286.70867187 181.22365234 286.70867187 181.22365234 285.234375 182.35546875 C271.52047739 192.4683901 258.67111642 195.2559469 242 194 C234.13863441 192.55643065 227.95721193 189.05583404 221.47265625 184.48828125 C218.81340633 182.88769007 217.10431676 182.11751357 214 182 C211.67578125 183.29296875 211.67578125 183.29296875 209.3125 185.1875 C197.30602913 194.17889298 184.54369397 195.12195916 170 194 C165.99393581 193.16426779 162.62112928 191.88371877 159 190 C158.59652344 189.79568359 158.59652344 189.79568359 156.5546875 188.76171875 C152.19165546 186.43620827 148.0627615 183.81268104 144 181 C143.41734375 181.44730469 142.8346875 181.89460937 142.234375 182.35546875 C128.53872103 192.45493685 115.65810822 195.28408438 99 194 C90.7425449 192.41724574 83.97792663 188.53504764 77 184 C75.33663589 182.99451623 73.67081237 181.9930578 72 181 Z M288 247 C288 300.79 288 354.58 288 410 C311.43 410 334.86 410 359 410 C359 356.21 359 302.42 359 247 C335.57 247 312.14 247 288 247 Z " fill="#000000" transform="translate(40,61)"/>
<path d="M0 0 C61.05 0 122.1 0 185 0 C185 51.15 185 102.3 185 155 C123.95 155 62.9 155 0 155 C0 103.85 0 52.7 0 0 Z M21 22 C21 58.63 21 95.26 21 133 C68.19 133 115.38 133 164 133 C164 96.37 164 59.74 164 22 C116.81 22 69.62 22 21 22 Z " fill="#000000" transform="translate(92,286)"/>
</svg>
