<?xml version="1.0" encoding="UTF-8"?>
<!-- Generator: visioncortex VTracer 0.6.12 -->
<svg version="1.1" xmlns="http://www.w3.org/2000/svg" width="512" height="512">
<path d="M0 0 C0.38909042 -0.00255547 0.38909042 -0.00255547 2.35812378 -0.01548767 C4.92046907 -0.02933853 7.48254367 -0.028429 10.04492188 -0.02612305 C11.8412689 -0.03001507 13.63761502 -0.03435078 15.43395996 -0.03910828 C19.19981871 -0.04656278 22.96558374 -0.04628671 26.73144531 -0.04101562 C31.52121126 -0.03525018 36.31058683 -0.05208454 41.10028839 -0.0753603 C44.8135802 -0.09021325 48.52678079 -0.09095328 52.24009705 -0.08785057 C54.00366483 -0.08835893 55.76723838 -0.09350389 57.53077698 -0.10366249 C74.37278748 -0.18870953 92.28145308 1.0808873 105.29882812 13.27075195 C117.57262365 27.61347884 121.90865962 44.79567815 126.31445312 62.6887207 C126.79993209 64.63609021 127.28604254 66.58330238 127.77275085 68.53036499 C128.78367642 72.58174452 129.7891641 76.63441874 130.7902832 80.68823242 C132.07447841 85.88771188 133.36913955 91.08451364 134.66740131 96.2804966 C135.66802076 100.28766577 136.66485685 104.29576775 137.66036034 108.30421066 C138.13684153 110.22219644 138.61411329 112.139986 139.09218788 114.05757523 C139.75623063 116.72492423 140.4155725 119.39338948 141.07348633 122.06225586 C141.27134735 122.85391144 141.46920837 123.64556702 141.67306519 124.46121216 C142.41130989 127.473289 143.01367188 130.16069481 143.01367188 133.2746582 C143.6842719 133.2727596 144.35487193 133.270861 145.04579318 133.26890486 C184.77757432 133.15705145 224.50933518 133.07124415 264.24124185 133.01933156 C269.01027478 133.01307791 273.77930739 133.00660631 278.54833984 133 C279.49778148 132.99868845 280.44722311 132.9973769 281.42543571 132.9960256 C296.80529831 132.97426001 312.18506762 132.93483214 327.56487484 132.88889422 C343.34213113 132.84216166 359.1193385 132.81436958 374.89666116 132.80421573 C384.63473015 132.79734992 394.37253544 132.77565325 404.11052327 132.73507587 C410.78526398 132.70867701 417.45986807 132.70065072 424.13465722 132.70715132 C427.98763848 132.71035869 431.84015846 132.70538996 435.69305801 132.67863083 C439.86888673 132.64984038 444.04372987 132.65970146 448.21963501 132.67338562 C449.43947952 132.65882141 450.65932403 132.64425721 451.91613352 132.62925166 C461.04881271 132.71045268 461.04881271 132.71045268 464.75079918 135.68723774 C468.27564618 139.71762852 468.28527357 141.94041465 468.01367188 147.2746582 C467.16943359 150.36181641 467.16943359 150.36181641 465.94335938 153.57543945 C465.71528091 154.18299576 465.48720245 154.79055206 465.25221252 155.41651917 C464.47524627 157.47770045 463.681856 159.53216849 462.88867188 161.5871582 C462.31348632 163.10319974 461.73939002 164.61965489 461.16625977 166.13647461 C459.8652866 169.57292909 458.55687134 173.00643929 457.24365234 176.43823242 C454.7997824 182.827502 452.37705886 189.22472147 449.95507812 195.62231445 C446.45421601 204.86644227 442.9483922 214.10866414 439.43788719 223.34913254 C434.25654133 236.98839072 429.09465882 250.63492806 423.94607544 264.28659058 C422.71058922 267.56219034 421.47439195 270.83752098 420.23803711 274.11279297 C416.59537587 283.76475395 412.95744165 293.41841818 409.33686829 303.07868958 C407.76933434 307.25978832 406.19865328 311.43970116 404.62759399 315.61947632 C403.89501055 317.57120578 403.16398807 319.52352198 402.43466187 321.47647095 C401.43365036 324.1567761 400.42735248 326.83504167 399.41992188 329.51293945 C399.1322847 330.28750488 398.84464752 331.06207031 398.54829407 331.86010742 C393.09515207 346.29502949 393.09515207 346.29502949 388.01367188 349.2746582 C385.35595959 349.55697371 382.93681734 349.66714075 380.28155518 349.63542175 C379.49817898 349.63798503 378.71480278 349.6405483 377.9076879 349.64318925 C375.28037221 349.64813422 372.65363002 349.63162268 370.02636719 349.61523438 C368.14402785 349.61438826 366.26168752 349.61486295 364.37934875 349.61656189 C359.26602586 349.61742386 354.15291339 349.59976539 349.03963947 349.57884002 C343.69715245 349.56010687 338.35466079 349.55832543 333.012146 349.55476379 C322.89389074 349.54543344 312.77573254 349.52080624 302.65752006 349.49071532 C291.13891767 349.45720214 279.62031069 349.44069306 268.1016717 349.42562902 C244.40561791 349.39425757 220.70965033 349.34147781 197.01367188 349.2746582 C198.19335344 354.02385024 199.38405183 358.77010595 200.58422852 363.51416016 C200.98947475 365.12215542 201.39190783 366.73086277 201.79125977 368.34033203 C209.28514565 398.51333052 209.28514565 398.51333052 216.76367188 404.4621582 C227.45789433 410.4262438 240.13924585 409.42115657 252.01074219 409.41650391 C253.61970108 409.41954016 255.22865911 409.4230629 256.83761597 409.42703247 C260.28659407 409.43488244 263.73556201 409.44005139 267.18454742 409.44332314 C272.63907498 409.44926056 278.09353825 409.4658237 283.54803467 409.48466492 C285.41891857 409.4910009 287.28980252 409.49732654 289.16068649 409.50364208 C290.0970889 409.50680789 291.03349132 409.5099737 291.99826956 409.51323545 C304.6863354 409.55525884 317.37436907 409.58832104 330.0625 409.60058594 C338.63770008 409.60895992 347.21273855 409.63141723 355.78785777 409.6699416 C360.32129629 409.68970771 364.85449322 409.70210459 369.3879776 409.69710732 C373.64648149 409.69246922 377.90452593 409.70621985 382.16293716 409.73411942 C383.72500984 409.74104262 385.2871299 409.7411456 386.8492012 409.73391914 C388.98231136 409.72504713 391.11390062 409.74069393 393.24688721 409.7624054 C393.84343424 409.76359957 393.84343424 409.76359957 396.86232376 409.76964283 C400.64818793 410.37634178 402.31872197 411.59547352 405.01367188 414.2746582 C405.72851562 416.53637695 405.72851562 416.53637695 405.95117188 418.9621582 C406.56006172 422.94023851 407.4961668 425.35339823 409.88867188 428.5871582 C416.45461716 437.69579798 418.27736164 448.33743323 416.54101562 459.2434082 C415.03968636 466.36348471 412.43896619 471.54780674 408.01367188 477.2746582 C407.41554688 478.1615332 406.81742187 479.0484082 406.20117188 479.9621582 C402.89484715 483.45741577 399.15937993 485.86513043 395.01367188 488.2746582 C394.30726563 488.69360352 393.60085938 489.11254883 392.87304688 489.54418945 C383.35219788 494.25467943 369.86609305 493.96291179 359.88867188 490.7121582 C348.52830861 485.68264753 340.56245266 476.73701308 335.74023438 465.4152832 C334.19735939 460.86960852 333.80463936 456.49889095 333.70117188 451.7121582 C333.66378906 450.59711914 333.62640625 449.48208008 333.58789062 448.33325195 C334.01367188 444.2746582 334.01367188 444.2746582 338.01367188 432.2746582 C328.27867187 432.1096582 328.27867187 432.1096582 279.01367188 431.2746582 C279.67367187 432.9246582 279.67367187 432.9246582 283.01367188 441.2746582 C285.76764113 452.7495301 283.35146173 464.38910982 277.24804688 474.38793945 C276.84070313 475.01055664 276.43335938 475.63317383 276.01367188 476.2746582 C275.45679688 477.1409082 274.89992188 478.0071582 274.32617188 478.8996582 C266.05451046 487.39487803 256.21012365 492.27740813 244.38061523 492.74536133 C230.63646226 492.91547978 221.318975 489.12591286 211.29882812 479.65356445 C202.71298399 470.54339396 200.52701175 459.44768396 200.72851562 447.3996582 C201.1041541 439.16958919 204.73351809 432.15347679 209.01367188 425.2746582 C208.44519531 424.9343457 207.87671875 424.5940332 207.29101562 424.2434082 C192.03221866 414.6652652 186.93378721 400.57342497 182.55664062 383.80200195 C182.21442956 382.50380617 181.87220488 381.20561397 181.52996826 379.90742493 C176.34702527 360.1443674 171.51602265 340.28925233 166.6247406 320.4526062 C165.15134359 314.48001017 163.67468493 308.50822067 162.19824219 302.53637695 C160.34507764 295.0400562 158.49216506 287.54367365 156.64056396 280.04696655 C152.37668155 262.78374169 148.10458158 245.52256946 143.82617188 228.26293945 C143.23424066 225.87468009 142.64231154 223.4864202 142.05038452 221.09815979 C139.41435292 210.46328345 136.77731729 199.82865758 134.13787651 189.19462681 C132.69224045 183.36988742 131.2472884 177.54497853 129.80273438 171.7199707 C129.51973103 170.5788426 129.23672768 169.4377145 128.94514847 168.26200676 C124.98771282 152.29947564 121.06395092 136.32897994 117.16429138 120.35224152 C115.57897651 113.86179182 113.98825511 107.37266455 112.39755249 100.88353348 C110.91868121 94.84726914 109.44936027 88.80878944 107.98762321 82.76835442 C107.09143714 79.07480476 106.18617771 75.383522 105.27849197 71.69278336 C104.86696024 70.01139194 104.45915104 68.32908362 104.05564499 66.64574814 C96.10707843 33.51425089 96.10707843 33.51425089 85.01367188 26.4621582 C71.88147631 20.14737438 55.39335474 21.84140397 41.20117188 21.6496582 C38.85154913 21.61140815 36.50193936 21.57235253 34.15234375 21.5324707 C28.43956959 21.43723851 22.72671511 21.35197664 17.01367188 21.2746582 C17.02466919 21.8262561 17.02466919 21.8262561 17.08032227 24.61767578 C16.98051424 30.09395548 14.57169853 33.25828314 11.01367188 37.2746582 C5.19567348 41.75476245 -0.81665975 43.07757059 -7.98632812 42.2746582 C-15.22865952 40.22383621 -19.14009446 36.83670649 -23.08789062 30.5090332 C-25.33297501 24.92560595 -25.11300421 17.31947705 -23.04101562 11.7199707 C-17.60550153 2.66078054 -10.27040095 -0.03518289 0 0 Z M149.01367188 155.2746582 C150.19760548 161.78629301 151.36926477 168.14188007 152.97460938 174.53491211 C153.16056671 175.28732681 153.34652405 176.03974152 153.53811646 176.81495667 C154.1517676 179.2945173 154.77022625 181.77285195 155.38867188 184.2512207 C155.83624929 186.0559428 156.28350623 187.86074441 156.73046875 189.6656189 C157.91738925 194.45513011 159.10829371 199.24364158 160.3001709 204.03192139 C170.6003244 245.43078472 180.80042094 286.85425164 191.01367188 328.2746582 C252.06367188 328.2746582 313.11367188 328.2746582 376.01367188 328.2746582 C381.76248829 314.47749881 381.76248829 314.47749881 384.29882812 307.77856445 C384.5920697 307.00858627 384.88531128 306.23860809 385.18743896 305.44529724 C386.1522986 302.90998696 387.11430122 300.37360383 388.07617188 297.8371582 C388.77424006 296.00053446 389.47240358 294.16394694 390.1706543 292.32739258 C396.59155382 275.42790239 402.96713065 258.51126532 409.34423828 241.59521484 C415.35768516 225.64657405 421.39545596 209.70729625 427.45117188 193.7746582 C427.65071976 193.24952637 427.65071976 193.24952637 428.66055298 190.59204102 C429.43128259 188.56404758 430.20221588 186.53613154 430.97337341 184.50830078 C431.69277275 182.61640748 432.41167438 180.72432484 433.13002014 178.83203125 C434.61940921 174.91332145 436.11572679 170.99837922 437.65478516 167.09887695 C437.88480225 166.51428711 437.88480225 166.51428711 439.04882812 163.5559082 C439.43562744 162.58717773 439.82242676 161.61844727 440.22094727 160.62036133 C441.01367188 158.2746582 441.01367188 158.2746582 441.01367188 155.2746582 C344.65367187 155.2746582 248.29367187 155.2746582 149.01367188 155.2746582 Z M225.20507812 440.49731445 C221.81575931 445.55351138 221.7133945 450.01419837 222.47851562 455.88012695 C223.86000737 462.0615462 228.13496596 465.69030284 233.01367188 469.2746582 C237.17251637 471.572967 241.34876593 471.85221799 246.01367188 471.2746582 C252.27461067 469.15230607 256.98956021 466.44789595 260.32617188 460.6496582 C262.80435531 455.20776967 263.09417114 449.7528946 261.31835938 444.03637695 C258.6902062 438.17272428 255.02500975 434.64939941 249.13867188 431.9621582 C239.00845855 429.73351127 231.58597272 432.27343668 225.20507812 440.49731445 Z M358.20507812 440.4230957 C355.10859166 445.23534023 354.60650451 449.86937883 355.54882812 455.36450195 C357.12888825 461.85735407 360.75625535 465.49589007 366.01367188 469.2746582 C370.40066068 471.81449382 375.06848274 471.93511752 380.01367188 471.2746582 C386.86210603 469.1184428 390.74780979 465.15899321 394.32617188 459.0246582 C395.97869437 452.41456821 395.82646891 446.09683299 392.41992188 440.09887695 C389.02374886 435.69328585 384.53661074 432.27487548 379.01367188 431.2746582 C370.04175824 430.52699873 363.79337726 433.26641834 358.20507812 440.4230957 Z " fill="#000000" transform="translate(23.986328125,19.725341796875)"/>
</svg>
