<?xml version="1.0" encoding="UTF-8"?>
<!-- Generator: visioncortex VTracer 0.6.12 -->
<svg version="1.1" xmlns="http://www.w3.org/2000/svg" width="512" height="512">
<path d="M0 0 C7.9023306 6.99966882 14.68443057 14.59694138 21.22265625 22.875 C22.00382812 23.82761719 22.785 24.78023438 23.58984375 25.76171875 C55.07234345 65.03940607 67.45331494 114.14329285 62.76171875 163.84765625 C62.17901044 168.58544854 61.29457983 173.22518236 60.22265625 177.875 C60.02397949 178.74833984 59.82530273 179.62167969 59.62060547 180.52148438 C48.30587068 228.69598065 18.53895022 270.4792429 -21.77734375 298.875 C-22.40705078 299.32278809 -23.03675781 299.77057617 -23.68554688 300.23193359 C-52.83507163 320.80671644 -86.33298754 334.21806156 -121.27734375 341.0625 C-122.05843506 341.2174292 -122.83952637 341.3723584 -123.64428711 341.53198242 C-139.20842639 344.4232074 -154.66951627 345.24805831 -170.46484375 345.1875 C-171.38056152 345.18667419 -172.2962793 345.18584839 -173.23974609 345.18499756 C-190.07938178 345.15011692 -206.09649617 343.68403183 -222.60644531 340.31030273 C-227.80717717 339.26746593 -227.80717717 339.26746593 -230.77734375 339.875 C-232.2245899 341.4568737 -233.65575355 343.0589472 -234.96875 344.75390625 C-238.65759942 349.08013785 -243.31815914 352.38315174 -247.77734375 355.875 C-248.64875 356.596875 -249.52015625 357.31875 -250.41796875 358.0625 C-265.44559506 370.08460105 -283.29173617 377.89853577 -301.77734375 382.875 C-302.4719873 383.06562012 -303.16663086 383.25624023 -303.88232422 383.45263672 C-320.25677819 387.67817232 -338.01192165 386.14766533 -354.77734375 385.875 C-351.11019588 380.04799173 -347.42534874 374.27500693 -343.40234375 368.6875 C-331.83881455 352.18099206 -313.24647586 322.93949388 -316.77734375 301.875 C-319.015625 299.63671875 -319.015625 299.63671875 -322.08984375 297.5625 C-323.19555637 296.78996841 -324.2996884 296.01517033 -325.40234375 295.23828125 C-325.68400391 295.04339111 -325.68400391 295.04339111 -327.109375 294.05712891 C-333.66633802 289.41005412 -339.73014795 284.13340464 -345.30078125 278.3515625 C-346.77734375 276.875 -346.77734375 276.875 -349.27734375 274.9375 C-352.89478385 271.95311191 -355.74968977 268.44432465 -358.77734375 264.875 C-359.61652344 263.92367188 -360.45570313 262.97234375 -361.3203125 261.9921875 C-382.51251116 237.80935304 -396.21844247 209.01791851 -403.77734375 177.875 C-403.95668457 177.15183594 -404.13602539 176.42867187 -404.32080078 175.68359375 C-414.51873075 132.33985961 -403.66417545 82.38397418 -380.77734375 44.875 C-361.00962904 14.21334924 -334.64956286 -12.33307909 -302.62255859 -30.10107422 C-301.37314663 -30.79438379 -300.12877125 -31.49683482 -298.88916016 -32.20751953 C-209.18827692 -83.58474673 -88.55987179 -72.98297193 0 0 Z M-318.77734375 5.875 C-319.29216309 6.30248535 -319.80698242 6.7299707 -320.33740234 7.17041016 C-355.95393323 36.82576343 -381.98392816 77.48229147 -386.61181641 124.42675781 C-389.72209382 170.42950399 -376.42643539 214.09460409 -346.02734375 249.08203125 C-343.80867609 251.57385247 -341.52512798 253.99889237 -339.20458984 256.39648438 C-337.72092629 257.93344409 -336.25962098 259.49001765 -334.796875 261.046875 C-325.7430998 270.53327322 -315.51849062 279.61232488 -304.02734375 286.046875 C-296.2860351 290.46526343 -296.2860351 290.46526343 -294.90625 294.2890625 C-294.75029705 297.64441392 -295.18652855 300.56295949 -295.77734375 303.875 C-296.02000402 305.50123161 -296.26215325 307.12753952 -296.50390625 308.75390625 C-299.17766096 325.42718219 -304.76496031 339.51998542 -312.61376953 354.40258789 C-313.03770996 355.21590576 -313.46165039 356.02922363 -313.8984375 356.8671875 C-314.28443115 357.59276855 -314.6704248 358.31834961 -315.06811523 359.06591797 C-315.30216064 359.66291504 -315.53620605 360.25991211 -315.77734375 360.875 C-315.44734375 361.535 -315.11734375 362.195 -314.77734375 362.875 C-286.22437807 355.89145731 -261.41609975 342.95828305 -240.77734375 321.875 C-240.56464844 321.47796875 -240.56464844 321.47796875 -239.48828125 319.46875 C-237.77734375 317.875 -237.77734375 317.875 -235.92797852 317.78540039 C-233.50670937 318.02071757 -231.16507147 318.40984605 -228.77734375 318.875 C-228.01309082 319.02050293 -227.24883789 319.16600586 -226.46142578 319.31591797 C-223.30859448 319.94701849 -220.16798956 320.62838982 -217.02929688 321.32617188 C-202.39809197 324.41198333 -187.63065926 325.26082722 -172.71484375 325.1875 C-172.31512863 325.18642242 -172.31512863 325.18642242 -170.29232788 325.18096924 C-117.26374014 324.95331378 -63.65107084 308.47384067 -22.77734375 273.875 C-21.93300781 273.16085937 -21.08867187 272.44671875 -20.21875 271.7109375 C10.98145294 244.35312409 33.33916249 210.00895309 41.22265625 168.875 C41.44824219 167.73804688 41.67382812 166.60109375 41.90625 165.4296875 C48.91364488 122.99870332 36.99702157 79.64997786 12.47265625 44.8125 C-20.78575833 -1.1815019 -72.92830089 -31.13856009 -128.60009766 -40.60498047 C-194.60902112 -50.98627214 -266.55980754 -37.86507783 -318.77734375 5.875 Z " fill="#000000" transform="translate(427.77734375,105.125)"/>
</svg>
