<?xml version="1.0" encoding="UTF-8"?>
<!-- Generator: visioncortex VTracer 0.6.12 -->
<svg version="1.1" xmlns="http://www.w3.org/2000/svg" width="512" height="512">
<path d="M0 0 C17.81486889 15.96489355 32.38129007 34.38488041 44.52734375 54.96484375 C44.91374023 55.60744141 45.30013672 56.25003906 45.69824219 56.91210938 C77.69055608 110.27732702 84.18579238 176.3843167 69.27050781 236.16992188 C53.79651568 294.36514591 15.10088149 347.27608387 -37.17480469 377.65966797 C-75.00537477 399.14736746 -114.96986899 411.17907626 -158.66015625 411.21484375 C-159.0334053 411.21518112 -159.0334053 411.21518112 -160.92227173 411.21688843 C-189.67422373 411.17588811 -217.52581341 406.01308781 -244.47265625 395.96484375 C-245.2605957 395.67270996 -246.04853516 395.38057617 -246.86035156 395.07958984 C-272.63099486 385.33624224 -295.94997479 370.22263469 -316.47265625 351.96484375 C-316.7243457 351.74401123 -316.7243457 351.74401123 -317.99804688 350.62646484 C-336.27853596 334.55770374 -351.1132218 315.90635402 -363.47265625 294.96484375 C-363.85905273 294.32224609 -364.24544922 293.67964844 -364.64355469 293.01757812 C-395.86344953 240.94080466 -403.4616529 175.63641292 -388.94458008 117.07617188 C-379.27673554 79.89621948 -361.97977238 46.77559239 -336.47265625 17.96484375 C-335.67859375 17.05992188 -334.88453125 16.155 -334.06640625 15.22265625 C-326.13061212 6.28129916 -317.85462016 -1.61599795 -308.47265625 -9.03515625 C-307.47234375 -9.84082031 -306.47203125 -10.64648438 -305.44140625 -11.4765625 C-297.20338871 -18.0357973 -288.51495975 -23.65272943 -279.47265625 -29.03515625 C-278.82425781 -29.42590332 -278.17585938 -29.81665039 -277.5078125 -30.21923828 C-201.87445135 -75.54979654 -99.89501904 -71.09727059 0 0 Z M-311.47265625 22.96484375 C-312.20484375 23.65449219 -312.93703125 24.34414062 -313.69140625 25.0546875 C-349.96678693 60.25044376 -372.83823817 113.90174913 -373.80859375 164.265625 C-373.84945918 167.60312832 -373.85585314 170.93962491 -373.84765625 174.27734375 C-373.84678009 175.15335236 -373.84590393 176.02936096 -373.84500122 176.93191528 C-373.65566177 234.58479408 -350.59019065 285.38782365 -311.47265625 326.96484375 C-310.8178125 327.67382812 -310.16296875 328.3828125 -309.48828125 329.11328125 C-303.90902407 334.95481121 -297.56750138 339.8119091 -291.15087891 344.68798828 C-289.70245291 345.79000573 -288.26428474 346.90548154 -286.828125 348.0234375 C-250.47230263 375.56225728 -205.53380748 389.45127402 -160.16015625 389.33984375 C-159.28414764 389.33896759 -158.40813904 389.33809143 -157.50558472 389.33718872 C-99.85270592 389.14784927 -49.04967635 366.08237815 -7.47265625 326.96484375 C-7.11816406 326.63742187 -7.11816406 326.63742187 -5.32421875 324.98046875 C1.02249708 318.91870751 6.23608121 311.93841534 11.52734375 304.96484375 C12.24148438 304.03414063 12.955625 303.1034375 13.69140625 302.14453125 C47.42979753 257.11520424 60.50265276 199.67086615 53.44482422 144.17919922 C46.31071283 97.33210971 24.74442204 57.15047675 -7.47265625 22.96484375 C-7.81748047 22.59875 -7.81748047 22.59875 -9.5625 20.74609375 C-44.75825626 -15.52928693 -98.40956163 -38.40073817 -148.7734375 -39.37109375 C-152.11094082 -39.41195918 -155.44743741 -39.41835314 -158.78515625 -39.41015625 C-159.66116486 -39.40928009 -160.53717346 -39.40840393 -161.43972778 -39.40750122 C-219.05752888 -39.21827697 -269.94047345 -16.17573863 -311.47265625 22.96484375 Z " fill="#000000" transform="translate(415.47265625,81.03515625)"/>
<path d="M0 0 C0.3520752 0.18788086 0.3520752 0.18788086 2.13378906 1.13867188 C9.74073163 5.42709968 16.05151146 11.33544505 18.875 19.75 C21.42297029 29.36165031 21.55243399 38.25787314 16.54296875 47.1015625 C11.2718762 54.52837891 4.72453702 59.4705738 -4.125 61.75 C-16.9361478 63.32357771 -26.09395046 58.89641355 -37.0625 53 C-106.21444776 15.8579073 -196.13602763 14.81609024 -271.625 29.5 C-282.36809039 31.49231492 -294.60895537 33.22698846 -304.125 26.75 C-311.04468077 21.61924927 -315.75160117 16.16752043 -318.125 7.75 C-319.16197102 -3.1020223 -317.95233117 -11.39643468 -312 -20.5 C-295.01025793 -36.75105763 -263.62457783 -36.53353984 -241.5625 -38.9375 C-240.47090576 -39.05681885 -239.37931152 -39.1761377 -238.25463867 -39.29907227 C-158.17368927 -47.5969634 -71.66357968 -38.75163899 0 0 Z M-277.6875 -12.1875 C-278.12147095 -12.11249268 -278.12147095 -12.11249268 -280.31762695 -11.73291016 C-292.09832881 -9.53000509 -292.09832881 -9.53000509 -296.125 -5 C-297.47228024 -1.29497933 -297.15693594 0.9662349 -296.125 4.75 C-294.23388889 7.0681362 -292.78671969 8.41914015 -290.125 9.75 C-282.10046858 9.60454592 -274.09938793 7.99618733 -266.20050049 6.70834351 C-185.75347428 -6.21215153 -90.41748151 -5.00917113 -18.61425781 38.14599609 C-15.26983534 40.05943306 -13.22978217 40.75259522 -9.33984375 40.65625 C-4.94884398 39.4184469 -3.51050147 37.58125994 -1.125 33.75 C-0.5 30.75 -0.5 30.75 -1.125 27.75 C-5.119465 21.78306158 -10.17736452 19.12332816 -16.5 15.9375 C-17.51731201 15.41833008 -18.53462402 14.89916016 -19.58276367 14.36425781 C-98.04278616 -24.89897617 -192.70213749 -27.0753409 -277.6875 -12.1875 Z " fill="#000000" transform="translate(410.125,184.25)"/>
<path d="M0 0 C1.06050568 0.00182281 2.12101135 0.00364563 3.21365356 0.00552368 C56.11976965 0.15778791 123.05955958 9.1705113 164.875 45.3125 C169.93030431 51.64795889 172.40905404 58.73714566 172.1875 66.8515625 C171.18641079 74.73514006 168.00501509 82.13903672 161.875 87.3125 C154.01505091 92.56157905 147.30489459 94.17321521 137.875 93.3125 C130.78393755 91.58922045 124.57921522 87.47534963 118.31054688 83.87768555 C60.37949605 51.0067713 -16.79538713 49.9767114 -80.33642578 65.86547852 C-88.3331516 67.86411419 -96.03405458 66.20342902 -103.125 62.3125 C-109.48705505 58.23235164 -113.93973411 52.18190443 -115.73828125 44.79296875 C-117.19106743 35.47459277 -115.30531441 27.61302401 -110.4375 19.5 C-104.18169948 13.58235086 -97.76382814 10.36636344 -89.375 8.6875 C-88.43962402 8.48858154 -87.50424805 8.28966309 -86.54052734 8.0847168 C-58.06363151 2.27769078 -29.02442648 -0.1047316 0 0 Z M-82.75 29.375 C-83.10489502 29.45000732 -83.10489502 29.45000732 -84.90087891 29.82958984 C-88.56944393 30.68635359 -91.45387484 31.58808556 -94.125 34.3125 C-94.86184211 40.20723684 -94.86184211 40.20723684 -92.875 43.1875 C-90.18823901 44.9147035 -88.04068616 45.42627125 -84.85546875 45.03051758 C-84.43587891 44.93589233 -84.43587891 44.93589233 -82.3125 44.45703125 C-81.34030518 44.24844482 -80.36811035 44.0398584 -79.36645508 43.82495117 C-78.83161499 43.70945923 -78.83161499 43.70945923 -76.125 43.125 C-49.71693129 37.86632245 -23.84809116 35.93624167 3.0625 35.875 C4.20979584 35.8688266 5.35709167 35.8626532 6.53915405 35.85629272 C50.31822519 35.70461547 96.88096432 43.85449481 134.13330078 68.16381836 C138.53373336 70.93601462 141.51632276 71.91384782 146.875 71.3125 C148.8125 70.1875 148.8125 70.1875 149.875 68.3125 C150.375 65.4375 150.375 65.4375 149.875 62.3125 C145.4382697 56.58705202 138.89222881 53.80456701 132.5625 50.5625 C131.96708405 50.25602539 131.37166809 49.94955078 130.75820923 49.63378906 C66.23765629 16.56761051 -12.83152455 14.35590895 -82.75 29.375 Z " fill="#000000" transform="translate(228.125,224.6875)"/>
<path d="M0 0 C1.04828979 -0.0061734 2.09657959 -0.0123468 3.17663574 -0.01870728 C22.52232029 -0.09195484 41.64178388 1.43463589 60.4375 6.25 C61.47825684 6.51079346 62.51901367 6.77158691 63.59130859 7.0402832 C86.6213744 12.93346884 120.96248823 22.3533769 134.625 43.4375 C138.35156793 49.97249593 138.68484425 57.38557574 137.15625 64.671875 C134.86789639 71.70038966 130.46588486 76.66834153 124.125 80.375 C116.87361418 83.64139001 109.07471506 83.99433415 101.5546875 81.36328125 C97.37965009 79.33142971 93.46811776 76.95033509 89.50390625 74.5390625 C62.36981194 58.36727013 31.53722744 52.99195294 0.3125 53.0625 C-0.12278519 53.06260574 -0.12278519 53.06260574 -2.32559204 53.06314087 C-22.55549129 53.11189764 -41.92573299 55.57098177 -61.49487305 60.86206055 C-71.11999773 63.40369971 -78.43498966 62.96249645 -87.375 58.4375 C-92.8872786 55.00763776 -96.34222885 49.53581346 -98.375 43.4375 C-99.2003751 34.37016495 -98.83607144 26.94993838 -93.375 19.4375 C-84.20150631 8.68076375 -67.45526632 6.99276194 -54.375 4.4375 C-53.87363525 4.33655029 -53.87363525 4.33655029 -51.33642578 3.82568359 C-34.25007396 0.52641813 -17.35324119 0.04324966 0 0 Z M-77.375 34.4375 C-76.81944444 38.99305556 -76.81944444 38.99305556 -75.375 40.4375 C-68.02593542 40.29869391 -60.82943069 38.58250209 -53.6875 37 C-44.60037893 35.05166788 -35.63031114 33.37062633 -26.375 32.4375 C-25.32699219 32.32664062 -24.27898437 32.21578125 -23.19921875 32.1015625 C22.30813141 28.06857578 69.2017463 35.60306339 108.28051758 60.10229492 C110.625 61.4375 110.625 61.4375 112.8125 61.4375 C115.41673895 60.00067851 115.77496208 58.20012325 116.625 55.4375 C98.57086609 35.3055246 62.14558052 27.34271508 36.625 23.4375 C36.24118164 23.37820313 36.24118164 23.37820313 34.29882812 23.078125 C7.20258194 19.13001628 -56.79768791 13.86018791 -77.375 34.4375 Z " fill="#000000" transform="translate(231.375,296.5625)"/>
</svg>
