<?xml version="1.0" encoding="UTF-8"?>
<!-- Generator: visioncortex VTracer 0.6.12 -->
<svg version="1.1" xmlns="http://www.w3.org/2000/svg" width="512" height="512">
<path d="M0 0 C1.51380678 1.39850102 3.01903025 2.80562653 4.52148438 4.21630859 C6.77497364 6.31393693 9.06582352 8.3203372 11.41992188 10.30224609 C50.43813124 44.35304482 73.72227289 99.41450263 80.23242188 149.73974609 C80.32668457 150.43535645 80.42094727 151.1309668 80.51806641 151.84765625 C87.62224476 211.66763387 70.38889883 274.42329704 33.46679688 321.95068359 C32.72945313 322.87107422 31.99210937 323.79146484 31.23242188 324.73974609 C30.47445313 325.70138672 29.71648437 326.66302734 28.93554688 327.65380859 C15.63509922 343.96957512 0.49299864 358.68110323 -16.76757812 370.73974609 C-17.40501953 371.18995117 -18.04246094 371.64015625 -18.69921875 372.10400391 C-68.79252767 407.26218107 -131.98038762 422.49353867 -192.56787109 412.26708984 C-250.09106508 401.96955139 -305.20290064 371.99523452 -340.76757812 324.73974609 C-341.24227539 324.11970703 -341.71697266 323.49966797 -342.20605469 322.86083984 C-380.41390244 272.74127353 -397.45907149 209.40803379 -389.24414062 146.82958984 C-383.10838986 105.2248939 -367.13938253 65.65839704 -340.76757812 32.73974609 C-340.00960937 31.77810547 -339.25164062 30.81646484 -338.47070312 29.82568359 C-325.99968392 14.52738363 -311.79973465 0.28289879 -295.76757812 -11.26025391 C-294.90261719 -11.89705078 -294.03765625 -12.53384766 -293.14648438 -13.18994141 C-273.98406011 -26.98688687 -253.03880557 -37.54499522 -230.76757812 -45.26025391 C-230.42339844 -45.38247314 -230.42339844 -45.38247314 -228.68164062 -46.00097656 C-216.35643164 -50.34140533 -203.60606337 -52.93863905 -190.76757812 -55.26025391 C-190.02411133 -55.39592773 -189.28064453 -55.53160156 -188.51464844 -55.67138672 C-123.05126628 -66.90362484 -48.95099481 -44.58797136 0 0 Z M-286.76757812 85.80224609 C-287.52506348 85.94001465 -288.28254883 86.0777832 -289.06298828 86.21972656 C-296.68728412 87.79685843 -301.30201116 91.66161328 -305.76757812 97.73974609 C-308.27766142 102.16227381 -308.4301411 106.77880584 -307.76757812 111.73974609 C-305.90483996 117.65605653 -302.80489296 121.24446641 -297.76757812 124.73974609 C-288.3363781 129.15720847 -277.63704433 126.23451977 -267.83007812 124.42724609 C-257.56294057 122.62726686 -247.32693391 121.08547037 -236.95507812 119.98974609 C-236.41725708 119.9321814 -236.41725708 119.9321814 -233.69555664 119.64086914 C-218.28735312 118.08440176 -202.93298585 117.53047008 -187.45507812 117.55224609 C-186.5846286 117.55318268 -185.71417908 117.55411926 -184.81735229 117.55508423 C-128.07630606 117.6863948 -71.76496869 127.4984382 -21.63867188 155.20849609 C-16.99848584 157.68326198 -12.96423393 158.27568113 -7.76757812 157.73974609 C-1.50663933 155.61739396 3.20831021 152.91298384 6.54492188 147.11474609 C9.02791364 141.66229888 9.23896 136.28779298 7.60742188 130.53662109 C1.47404632 116.18890328 -21.62654281 108.87409122 -34.86987305 103.45019531 C-114.19891769 71.96928121 -203.57647952 70.04259107 -286.76757812 85.80224609 Z M-283.38867188 174.01708984 C-286.46169403 177.85619118 -287.89199953 181.34280432 -287.63476562 186.29833984 C-286.59995688 192.62948788 -284.64557731 196.43734675 -279.58007812 200.48974609 C-271.43351601 204.11044037 -263.63104922 202.25264054 -255.26757812 200.48974609 C-246.00204524 198.65370124 -236.77599253 197.08438201 -227.39257812 195.98974609 C-226.41482422 195.87469727 -225.43707031 195.75964844 -224.4296875 195.64111328 C-221.54423569 195.31647543 -218.65751779 195.0215012 -215.76757812 194.73974609 C-214.83228271 194.6440332 -213.8969873 194.54832031 -212.93334961 194.44970703 C-202.16916381 193.47392673 -191.37978551 193.4961578 -180.58007812 193.48974609 C-180.06871307 193.48940872 -180.06871307 193.48940872 -177.480896 193.48770142 C-161.71072576 193.50420612 -146.33856375 194.02151218 -130.76757812 196.73974609 C-129.77822266 196.90603516 -128.78886719 197.07232422 -127.76953125 197.24365234 C-101.51219698 201.78527967 -75.15120938 210.35819001 -52.60913086 224.8215332 C-46.64908299 228.62517313 -41.91944534 230.30275335 -34.94335938 229.27099609 C-30.10939876 228.09071127 -27.05177274 225.55413575 -24.45507812 221.42724609 C-21.9785269 216.53657771 -21.12687141 212.05850767 -22.70507812 206.73974609 C-26.83892891 197.5171766 -36.91000192 193.13430545 -45.45507812 188.80224609 C-46.04850006 188.49882294 -46.641922 188.19539978 -47.25332642 187.88278198 C-58.13496788 182.33245484 -69.15395553 177.5510013 -80.76757812 173.73974609 C-81.23164063 173.58731445 -81.23164063 173.58731445 -83.58007812 172.81591797 C-104.37480853 166.12191537 -125.96853481 161.49622887 -147.76757812 159.73974609 C-148.81083252 159.6543457 -149.85408691 159.56894531 -150.92895508 159.48095703 C-161.15025447 158.7182041 -171.33344589 158.49703634 -181.58007812 158.48974609 C-182.44485779 158.48907135 -183.30963745 158.48839661 -184.20062256 158.48770142 C-267.65818827 158.58984448 -267.65818827 158.58984448 -283.38867188 174.01708984 Z M-263.76757812 245.73974609 C-266.76044439 250.28064664 -267.72559573 254.41742608 -266.76757812 259.73974609 C-264.51961354 264.06915936 -261.93397226 267.18309515 -257.76757812 269.73974609 C-250.6377862 271.34839529 -245.1002948 269.87951626 -238.14257812 267.98974609 C-186.64957017 254.90898272 -126.40150682 258.53760852 -79.93579102 286.14819336 C-78.26758853 287.16365058 -76.62196248 288.21594379 -74.97851562 289.27099609 C-70.42306394 291.35475502 -66.50618915 291.48843112 -61.59570312 290.14599609 C-57.53509431 287.81416133 -55.2261126 285.28052755 -53.36523438 280.95458984 C-52.3205541 277.08312763 -52.36487698 273.50182935 -53.76757812 269.73974609 C-57.23057558 264.85307191 -60.91907902 261.94722778 -66.08007812 258.98974609 C-66.81154053 258.56781982 -67.54300293 258.14589355 -68.29663086 257.71118164 C-102.35100822 238.68959569 -141.67343694 230.51682017 -180.39257812 230.48974609 C-181.26028839 230.48907135 -182.12799866 230.48839661 -183.02200317 230.48770142 C-249.46426855 230.56956927 -249.46426855 230.56956927 -263.76757812 245.73974609 Z " fill="#000000" transform="translate(410.767578125,77.26025390625)"/>
</svg>
