<?xml version="1.0" encoding="UTF-8"?>
<!-- Generator: visioncortex VTracer 0.6.12 -->
<svg version="1.1" xmlns="http://www.w3.org/2000/svg" width="512" height="512">
<path d="M0 0 C0.61875 -0.01289063 1.2375 -0.02578125 1.875 -0.0390625 C6.82955575 1.50923617 9.97710845 5.15571509 12.3425293 9.59130859 C13.10125119 11.14486504 13.84438804 12.70610101 14.57421875 14.2734375 C14.97975479 15.11383072 15.38529083 15.95422394 15.80311584 16.82008362 C17.11177434 19.54032741 18.39974757 22.26980613 19.6875 25 C20.59082533 26.88807229 21.49545399 28.77552154 22.40136719 30.66235352 C24.57758442 35.20204731 26.73854169 39.74879384 28.89471436 44.29803467 C30.31539222 47.28899737 31.75129987 50.2722502 33.19140625 53.25390625 C37.07517669 61.30249532 40.88949785 69.38332875 44.6875 77.47265625 C45.0159491 78.17208847 45.34439819 78.87152069 45.68280029 79.59214783 C48.47201161 85.53211775 48.47201161 85.53211775 49.76672363 88.29342651 C53.58180333 96.42815875 57.42849881 104.54549262 61.359375 112.625 C61.70989929 113.34586792 62.06042358 114.06673584 62.42156982 114.80944824 C64.10130966 118.2608232 65.78666927 121.70932066 67.47949219 125.15429688 C68.08015229 126.38407836 68.68074226 127.61389411 69.28125 128.84375 C69.80783203 129.91560547 70.33441406 130.98746094 70.87695312 132.09179688 C72 134.625 72 134.625 72 136.625 C73.04875809 136.72731934 74.09751617 136.82963867 75.17805481 136.93505859 C89.76805768 138.39585072 104.29110177 140.31217111 118.82421875 142.25 C120.79823013 142.51217251 122.77224172 142.77434354 124.74627334 143.0363636 C130.9189859 143.85577693 137.09131964 144.67800018 143.26342773 145.50195312 C149.60294874 146.34819337 155.94316712 147.18905912 162.28373021 148.02745247 C167.76828579 148.75288057 173.2523602 149.48187078 178.73607379 150.2136364 C181.99423964 150.64836655 185.25262431 151.08131212 188.51138878 151.51153564 C192.13408629 151.99029909 195.75595926 152.47488899 199.37768555 152.9609375 C200.44116211 153.10021667 201.50463867 153.23949585 202.6003418 153.38299561 C217.07728399 155.34318933 217.07728399 155.34318933 222 158.625 C224.45730824 162.31096236 224.84280517 164.69740304 224.609375 169.07421875 C223.49304254 173.74707194 220.41183687 176.42033349 217 179.625 C216.35160156 180.29402344 215.70320313 180.96304688 215.03515625 181.65234375 C211.92071261 184.86546284 208.71658118 187.90901899 205.3125 190.8125 C201.51664272 194.06930063 198.01377824 197.5711273 194.5 201.125 C190.51224541 205.15799929 186.4850508 209.01902474 182.15625 212.6875 C179.15385317 215.38530585 176.33739183 218.25543819 173.5 221.125 C169.51223169 225.1579811 165.48505095 229.01902462 161.15625 232.6875 C158.15385317 235.38530585 155.33739183 238.25543819 152.5 241.125 C148.51354369 245.15665423 144.48825506 249.01711514 140.16015625 252.68359375 C136.53298925 255.9434527 133.13261662 259.43777298 129.73999023 262.93969727 C126.83817631 265.91004112 124.08104334 268.32342696 120.5625 270.5625 C118 273.625 118 273.625 118.10504723 276.53231335 C118.29930101 277.67956544 118.4935548 278.82681753 118.69369507 280.00883484 C118.90057323 281.26581869 119.1074514 282.52280254 119.3205986 283.81787682 C119.43269983 284.44605214 119.43269983 284.44605214 120 287.625 C120.09271997 288.16136739 120.09271997 288.16136739 120.56193924 290.87571144 C121.13312929 294.10340022 121.73203745 297.32487921 122.33837891 300.54614258 C122.56300308 301.75292664 122.78762726 302.95971069 123.01905823 304.20306396 C123.50182436 306.79548373 123.98558038 309.38769559 124.47096634 311.97962379 C125.23973652 316.0864621 126.00285919 320.19433797 126.76498413 324.30241394 C128.93076842 335.97268395 131.10167203 347.64198886 133.28320312 359.30932617 C134.4926396 365.77793765 135.69627584 372.24760096 136.8935827 378.71846884 C137.64818055 382.79494788 138.40975659 386.87003834 139.17665505 390.94422019 C139.76443608 394.07854863 140.34159815 397.21483498 140.92041016 400.35083008 C141.13233505 401.46532028 141.34425995 402.57981049 141.56260681 403.72807312 C144.3839323 419.17751111 144.3839323 419.17751111 141.95916176 423.4657259 C139.04663302 427.08798795 137.17818469 428.47874259 132.6015625 429.046875 C126.48414116 428.9533112 121.60851895 425.76107515 116.375 422.875 C115.27470459 422.28517334 114.17440918 421.69534668 113.04077148 421.08764648 C109.68459689 419.28325932 106.34144167 417.4564973 103 415.625 C101.12935478 414.60985013 99.25828804 413.59547646 97.38671875 412.58203125 C93.80339124 410.63697387 90.2260841 408.68136215 86.65234375 406.71875 C80.49482843 403.34096264 74.31107333 400.01262303 68.125 396.6875 C58.76917033 391.65685377 49.42271235 386.60941695 40.08569336 381.54394531 C34.67108708 378.60809338 29.25111859 375.68257474 23.82421875 372.76953125 C23.5253627 372.60901779 23.5253627 372.60901779 22.01296997 371.79672241 C19.10530892 370.23507174 16.19690021 368.6748699 13.28710938 367.1171875 C12.24748047 366.55902344 11.20785156 366.00085938 10.13671875 365.42578125 C9.21592529 364.93247314 8.29513184 364.43916504 7.34643555 363.9309082 C5 362.625 5 362.625 2 360.625 C-1.83383761 360.97785087 -4.80303496 362.36816924 -8.18359375 364.14453125 C-9.18189209 364.66587646 -10.18019043 365.18722168 -11.20874023 365.72436523 C-12.27423096 366.28969971 -13.33972168 366.85503418 -14.4375 367.4375 C-14.99441528 367.73015747 -14.99441528 367.73015747 -17.81274414 369.21118164 C-26.70189361 373.89788926 -35.53122277 378.69140846 -44.33984375 383.52734375 C-50.5406987 386.92901184 -56.76965865 390.27772933 -63 393.625 C-71.01413218 397.93279447 -79.01684745 402.26005827 -87 406.625 C-95.35983277 411.19491786 -103.73726994 415.7315541 -112.125 420.25 C-113.24648437 420.85457031 -114.36796875 421.45914062 -115.5234375 422.08203125 C-116.57015625 422.64535156 -117.616875 423.20867187 -118.6953125 423.7890625 C-119.62359863 424.28873535 -120.55188477 424.7884082 -121.50830078 425.30322266 C-122.33056152 425.73940918 -123.15282227 426.1755957 -124 426.625 C-124.6894873 427.00446777 -125.37897461 427.38393555 -126.08935547 427.77490234 C-129.33878101 429.22066004 -132.56674587 429.29056366 -136 428.625 C-139.02089981 426.8774257 -141.41608883 424.79282234 -143 421.625 C-143.46186563 414.29005201 -142.04689583 407.3923732 -140.68920898 400.20410156 C-140.44064854 398.85979246 -140.19274151 397.51536241 -139.94543457 396.17082214 C-139.41416678 393.28964287 -138.87855166 390.40931902 -138.33953667 387.52957916 C-137.48745069 382.97584319 -136.64656768 378.42008216 -135.80738831 373.86395264 C-133.72250328 362.55441506 -131.62222605 351.24774224 -129.52038574 339.94134521 C-127.88443676 331.13990496 -126.25240993 322.33777346 -124.63173538 313.53350616 C-123.79746706 309.00388125 -122.9552502 304.47582913 -122.10698116 299.94880629 C-121.5816966 297.13619302 -121.06335659 294.32233293 -120.54692841 291.50808144 C-120.19100015 289.58033482 -119.82667149 287.65414516 -119.46211243 285.72801208 C-119.35762283 285.15467384 -119.35762283 285.15467384 -118.82884216 282.25323486 C-118.64356177 281.25702747 -118.45828138 280.26082008 -118.26738644 279.23442459 C-118.00367247 276.66083962 -118.11779846 275.03814328 -119 272.625 C-120.42358398 270.95263672 -120.42358398 270.95263672 -122.24609375 269.3046875 C-122.91382813 268.69173828 -123.5815625 268.07878906 -124.26953125 267.44726562 C-124.98496094 266.80466797 -125.70039063 266.16207031 -126.4375 265.5 C-127.90619098 264.15500196 -129.37364025 262.80864675 -130.83984375 261.4609375 C-131.19747803 261.13335449 -131.19747803 261.13335449 -133.00732422 259.47558594 C-135.57648151 257.08962511 -138.04199455 254.62531853 -140.5 252.125 C-143.18878136 249.40054658 -145.89764476 246.79284266 -148.8125 244.3125 C-152.57134888 241.1026108 -156.02742407 237.63709878 -159.5 234.125 C-162.91069793 230.67561558 -166.29621535 227.26380055 -170 224.125 C-174.32418706 220.4604347 -178.24082291 216.40979134 -182.22265625 212.3828125 C-185.06641577 209.51925883 -187.91875084 206.7362281 -191 204.125 C-195.31945824 200.46444217 -199.23216531 196.4187454 -203.20947266 192.39599609 C-206.75247544 188.82818092 -210.38490226 185.4443295 -214.21484375 182.18359375 C-223.7200304 173.88475464 -223.7200304 173.88475464 -224.2734375 169.41796875 C-224.44728631 164.95807825 -224.52936468 162.41904702 -222 158.625 C-215.07533328 154.00855552 -205.83514788 153.80537258 -197.76269531 152.74560547 C-196.43792141 152.56835812 -195.11320048 152.39071453 -193.78852844 152.21270752 C-190.21295199 151.73343143 -186.63664197 151.25985718 -183.06014729 150.78748846 C-179.31002429 150.29133978 -175.56054446 149.79037448 -171.81097412 149.29006958 C-165.52039475 148.45145738 -159.22934753 147.61643152 -152.93798828 146.78369141 C-145.66644383 145.8211797 -138.39558888 144.85359309 -131.12509656 143.8831681 C-124.12125466 142.94840058 -117.11701936 142.01661611 -110.11257172 141.08639908 C-107.13488069 140.69093337 -104.15731653 140.29453131 -101.17984772 139.89739609 C-97.02688244 139.34368728 -92.87334416 138.79439946 -88.71972656 138.24560547 C-87.48432632 138.08043427 -86.24892609 137.91526306 -84.97608948 137.74508667 C-83.8462413 137.59652222 -82.71639313 137.44795776 -81.55230713 137.29489136 C-80.57084843 137.1647508 -79.58938972 137.03461025 -78.57818985 136.90052605 C-76 136.625 -76 136.625 -72 136.625 C-71.73823975 135.77929443 -71.47647949 134.93358887 -71.20678711 134.06225586 C-69.93806313 130.44858705 -68.38216224 127.05685513 -66.69140625 123.62890625 C-66.36917587 122.96785889 -66.0469455 122.30681152 -65.71495056 121.62573242 C-65.02544474 120.21219545 -64.33428265 118.79946538 -63.64160156 117.38748169 C-62.17557912 114.39867819 -60.71810545 111.40573224 -59.25997925 108.41307068 C-58.52743568 106.909902 -57.79446521 105.40694129 -57.06106567 103.90419006 C-54.18429786 98.00962837 -51.32907059 92.10512352 -48.5 86.1875 C-48.07485107 85.29844971 -47.64970215 84.40939941 -47.21166992 83.4934082 C-44.24663882 77.27626692 -41.31556229 71.04351998 -38.39224243 64.80670166 C-35.33008121 58.27480675 -32.25381109 51.7496359 -29.171875 45.22705078 C-27.6824556 42.07412509 -26.19887813 38.918528 -24.71875 35.76123047 C-22.82054254 31.71508703 -20.90658401 27.67671801 -18.98223877 23.64294434 C-18.25074287 22.10333923 -17.52436077 20.56129284 -16.80340576 19.01672363 C-15.7967332 16.86238432 -14.77178002 14.71767882 -13.7421875 12.57421875 C-13.45210815 11.94241196 -13.16202881 11.31060516 -12.86315918 10.65965271 C-10.39784644 5.60805638 -6.21430209 -0.12946463 0 0 Z " fill="#FFBB16" transform="translate(256,30.375)"/>
<path d="M0 0 C0 0.99 0 1.98 0 3 C0.27560438 5.73908357 0.57365737 8.47500313 0.87890625 11.2109375 C1.09756924 16.24723988 0.17989322 19.22657321 -3 23.125 C-4.95906621 25.54557699 -6.00006361 27.00019084 -7 30 C-3.89448334 30 -2.64738916 29.4606285 0 28 C0.36609931 31.76083835 0.25258182 33.59025616 -1.7578125 36.8515625 C-8.92586424 45.24977494 -8.92586424 45.24977494 -12.375 47.375 C-15.44837371 49.27756468 -16.2401677 50.88091104 -18 54 C-18.50660156 54.81339844 -19.01320312 55.62679687 -19.53515625 56.46484375 C-23.77777778 63.33333333 -23.77777778 63.33333333 -25.0625 67.1875 C-26.35643724 71.06931171 -28.52836509 73.7478488 -31 77 C-26.76248146 75.48660052 -25.19812764 72.81008791 -23 69 C-22.731875 68.05125 -22.46375 67.1025 -22.1875 66.125 C-19.72257338 59.638351 -13.89960744 54.76350724 -9 50 C-8.484375 49.4225 -7.96875 48.845 -7.4375 48.25 C-5.69524203 46.73499307 -4.25120518 46.38813882 -2 46 C-2 46.99 -2 47.98 -2 49 C-2.99 49.33 -3.98 49.66 -5 50 C-6.39712274 51.95597184 -7.73779907 53.95436401 -9 56 C-7.68 55.67 -6.36 55.34 -5 55 C-6.5830577 59.2742558 -9.50568404 61.26531794 -13 64 C-12.01 64 -11.02 64 -10 64 C-10 67.23830467 -10.29194726 68.31591712 -12 71 C-13.65893182 72.34294481 -15.32476605 73.67744688 -17 75 C-17 75.66 -17 76.32 -17 77 C-16.34 76.67 -15.68 76.34 -15 76 C-15.75 81.75 -15.75 81.75 -18 84 C-19.5971286 87.54145906 -21.00194671 91.00574279 -22.25 94.6875 C-24.03102414 98.05872426 -24.40268782 98.47932289 -27.5625 100.0625 C-31.68698086 102.38720739 -31.76334708 103.62415119 -33 108 C-34.32467746 108.6837045 -35.65863633 109.34964186 -37 110 C-38.75 113.125 -38.75 113.125 -40 116 C-35.82117329 113.43571997 -32.87494471 110.98069267 -30 107 C-29.34 107.33 -28.68 107.66 -28 108 C-28.78345715 109.17219543 -29.57702836 110.33763668 -30.375 111.5 C-30.59542969 111.82484375 -30.59542969 111.82484375 -31.7109375 113.46875 C-31.92363281 113.72140625 -31.92363281 113.72140625 -33 115 C-33.66 115 -34.32 115 -35 115 C-34.95875 116.2375 -34.9175 117.475 -34.875 118.75 C-34.88073533 121.99046026 -34.97345887 124.33349851 -37 127 C-40 128 -40 128 -42 128 C-45 131.46153846 -45 131.46153846 -45 134 C-43.68 133.34 -42.36 132.68 -41 132 C-42.45124634 135.82601307 -44.35774704 137.22329124 -48 139 C-48.99 139 -49.98 139 -51 139 C-52.34187818 139.6492959 -53.67479497 140.31731862 -55 141 C-55.680625 141.165 -56.36125 141.33 -57.0625 141.5 C-59 142 -59 142 -62 144 C-62.66 142.68 -63.32 141.36 -64 140 C-64.556875 140.495 -65.11375 140.99 -65.6875 141.5 C-68.43919682 143.28488442 -69.79597511 143 -73 143 C-75.3125 144.5 -75.3125 144.5 -77 146 C-77.66 144.68 -78.32 143.36 -79 142 C-79.2784375 142.2475 -79.2784375 142.2475 -80.6875 143.5 C-83.43919682 145.28488442 -84.79597511 145 -88 145 C-90.3125 146.5 -90.3125 146.5 -92 148 C-92.66 146.68 -93.32 145.36 -94 144 C-97.04386724 143.91773332 -99.07175348 144.02391783 -102 145 C-103.80924876 145.19887925 -105.62258498 145.36209601 -107.4375 145.5 C-110.75292799 145.75260404 -113.78826549 146.16071958 -117 147 C-117.6496875 147.0721875 -117.6496875 147.0721875 -120.9375 147.4375 C-124.2479595 147.81900277 -126.92688751 148.68295179 -130 150 C-130.99 150 -131.98 150 -133 150 C-135.1875 152 -135.1875 152 -137 154 C-137.33 153.34 -137.33 153.34 -139 150 C-142.63 151.32 -146.26 152.64 -150 154 C-150.33 153.34 -150.66 152.68 -151 152 C-150.01 151.67 -149.02 151.34 -148 151 C-147.67 150.34 -147.34 149.68 -147 149 C-147.721875 149.350625 -148.44375 149.70125 -149.1875 150.0625 C-152.40408459 151.13469486 -153.81296905 151.06234365 -157 150 C-159.3125 148.4375 -159.3125 148.4375 -161 147 C-161.33 147.66 -161.66 148.32 -162 149 C-165.96 148.67 -169.92 148.34 -174 148 C-174 147.34 -174 146.68 -174 146 C-174.639375 145.938125 -174.639375 145.938125 -177.875 145.625 C-181.75 145.25 -181.75 145.25 -184 143 C-186.32854865 142.63473747 -188.66298962 142.30649316 -191 142 C-195.35418849 140.98402269 -198.0048059 140.30193085 -201 137 C-183.46769427 134.64990482 -165.93499044 132.30280378 -148.40180588 129.95927429 C-140.26100607 128.87108336 -132.12033995 127.78191007 -123.97998047 126.69042969 C-116.88551629 125.73918817 -109.79080908 124.78978414 -102.69580293 123.84259319 C-98.93847616 123.34092053 -95.18127822 122.83832357 -91.42436981 122.33352661 C-87.88875518 121.85849332 -84.35282094 121.38591632 -80.8166256 120.91522598 C-78.89916656 120.65934793 -76.98205605 120.40086231 -75.06495667 120.14230347 C-73.92354721 119.99084869 -72.78213776 119.83939392 -71.60614014 119.68334961 C-71.11021551 119.61698051 -71.11021551 119.61698051 -68.60053635 119.28111267 C-66 119 -66 119 -62 119 C-61.73823975 118.15429443 -61.47647949 117.30858887 -61.20678711 116.43725586 C-59.93806313 112.82358705 -58.38216224 109.43185513 -56.69140625 106.00390625 C-56.36917587 105.34285889 -56.0469455 104.68181152 -55.71495056 104.00073242 C-55.02544474 102.58719545 -54.33428265 101.17446538 -53.64160156 99.76248169 C-52.17557912 96.77367819 -50.71810545 93.78073224 -49.25997925 90.78807068 C-48.52743568 89.284902 -47.79446521 87.78194129 -47.06106567 86.27919006 C-39.88799015 71.58139765 -32.89534492 56.79854352 -25.93426514 41.9994812 C-24.88607708 39.77352355 -23.83522313 37.54884268 -22.78369141 35.32446289 C-19.85933644 29.13161134 -16.95017529 22.93913096 -14.1875 16.671875 C-13.7867627 15.77758789 -13.38602539 14.88330078 -12.97314453 13.96191406 C-12.26891227 12.38310611 -11.5808356 10.79693365 -10.91357422 9.20214844 C-9.33031525 5.68659197 -8.49150167 4.21187541 -4.8828125 2.65625 C-3.93148437 2.4396875 -2.98015625 2.223125 -2 2 C-1.34 1.34 -0.68 0.68 0 0 Z " fill="#FFD730" transform="translate(246,48)"/>
<path d="M0 0 C0.66 0 1.32 0 2 0 C2 0.66 2 1.32 2 2 C2.53163002 2.05202072 2.53163002 2.05202072 5.22200012 2.3152771 C19.38023928 3.73528465 33.47196678 5.58824212 47.57421875 7.4765625 C50.08052107 7.81023376 52.58685403 8.14367489 55.09321594 8.47689819 C60.96126474 9.2576163 66.82900578 10.04061299 72.69659501 10.82477701 C79.39070676 11.71926601 86.08521793 12.61074804 92.77975976 13.50201154 C106.52027827 15.33139282 120.26030566 17.16443979 134 19 C133.67 20.32 133.34 21.64 133 23 C131.33388095 23.042721 129.66617115 23.04063832 128 23 C127.67 22.67 127.34 22.34 127 22 C124.67013877 21.79031249 122.33555964 21.63184611 120 21.5 C113.11111111 21.11111111 113.11111111 21.11111111 112 20 C109.67013877 19.79031249 107.33555964 19.63184611 105 19.5 C98.11111111 19.11111111 98.11111111 19.11111111 97 18 C95.14948461 17.81346805 93.29390519 17.67634713 91.4375 17.5625 C86.39108099 17.18869118 81.85412486 16.40022833 77 15 C77 15.66 77 16.32 77 17 C77.763125 16.95875 78.52625 16.9175 79.3125 16.875 C82 17 82 17 85 19 C87.8125 19.125 87.8125 19.125 91 19 C96.66666667 18.77777778 96.66666667 18.77777778 100 21 C102.8125 21.125 102.8125 21.125 106 21 C111.66666667 20.77777778 111.66666667 20.77777778 115 23 C117.91796875 23.1953125 117.91796875 23.1953125 121.1875 23.125 C122.27417969 23.10695312 123.36085938 23.08890625 124.48046875 23.0703125 C124.89619141 23.05871094 124.89619141 23.05871094 127 23 C127 23.99 127 24.98 127 26 C126.46375 26.12375 125.9275 26.2475 125.375 26.375 C123 27 123 27 119.9375 28.0625 C117 29 117 29 114 29 C113.195625 29.495 112.39125 29.99 111.5625 30.5 C109 32 109 32 105 32 C102.65523449 32.6252708 100.31939207 33.2863409 98 34 C97.34 33.34 96.68 32.68 96 32 C92.04407344 32.31396243 88.75516546 32.74827818 85 34 C84.505 33.319375 84.01 32.63875 83.5 31.9375 C80.68696881 29.75740083 80.28029358 29.76888128 76.9375 30.1875 C74.49829307 30.6135419 72.36335211 31.21221596 70 32 C69.4225 31.319375 68.845 30.63875 68.25 29.9375 C67.5075 29.298125 66.765 28.65875 66 28 C64.125 28.375 64.125 28.375 62 29 C58.45067528 28.03872456 55.23462951 26.74172358 52 25 C51.7525 25.804375 51.505 26.60875 51.25 27.4375 C50 30 50 30 47.875 30.8125 C47.25625 30.874375 46.6375 30.93625 46 31 C46 30.34 46 29.68 46 29 C45.34 29 44.68 29 44 29 C44 28.34 44 27.68 44 27 C43.38125 27.20625 42.7625 27.4125 42.125 27.625 C41.42375 27.74875 40.7225 27.8725 40 28 C39.34 27.34 38.68 26.68 38 26 C37.21625 26.495 36.4325 26.99 35.625 27.5 C33 29 33 29 31 29 C31 28.34 31 27.68 31 27 C30.34 27 29.68 27 29 27 C29 26.34 29 25.68 29 25 C28.38125 25.20625 27.7625 25.4125 27.125 25.625 C26.42375 25.74875 25.7225 25.8725 25 26 C24.34 25.34 23.68 24.68 23 24 C22.21625 24.495 21.4325 24.99 20.625 25.5 C18 27 18 27 16 27 C16 26.34 16 25.68 16 25 C15.34 25 14.68 25 14 25 C14 24.34 14 23.68 14 23 C13.38125 23.20625 12.7625 23.4125 12.125 23.625 C11.42375 23.74875 10.7225 23.8725 10 24 C9.34 23.34 8.68 22.68 8 22 C7.21625 22.495 6.4325 22.99 5.625 23.5 C3 25 3 25 1 25 C1 24.34 1 23.68 1 23 C0.34 23 -0.32 23 -1 23 C-1 22.34 -1 21.68 -1 21 C-1.309375 21.103125 -1.309375 21.103125 -2.875 21.625 C-3.57625 21.74875 -4.2775 21.8725 -5 22 C-5.66 21.34 -6.32 20.68 -7 20 C-7.66 19.67 -8.32 19.34 -9 19 C-8.67 18.34 -8.34 17.68 -8 17 C-7.01 17 -6.02 17 -5 17 C-5 16.34 -5 15.68 -5 15 C-5.66 14.67 -6.32 14.34 -7 14 C-6.195625 13.87625 -5.39125 13.7525 -4.5625 13.625 C-3.716875 13.41875 -2.87125 13.2125 -2 13 C-1.67 12.34 -1.34 11.68 -1 11 C-1.99 10.67 -2.98 10.34 -4 10 C-3 8.5 -3 8.5 -1 7 C3.22892509 6.73149682 6.94434914 6.69639794 11 8 C11.7425 8.185625 12.485 8.37125 13.25 8.5625 C13.8275 8.706875 14.405 8.85125 15 9 C15 8.34 15 7.68 15 7 C13.01432292 6.8046875 11.02864583 6.609375 9.04296875 6.4140625 C7 6 7 6 4 4 C1.8125 4.375 1.8125 4.375 0 5 C0 3.35 0 1.7 0 0 Z " fill="#FFCC26" transform="translate(326,165)"/>
<path d="M0 0 C0.33 0.99 0.66 1.98 1 3 C0.01 3.33 -0.98 3.66 -2 4 C-3.39712274 5.95597184 -4.73779907 7.95436401 -6 10 C-4.68 9.67 -3.36 9.34 -2 9 C-3.5830577 13.2742558 -6.50568404 15.26531794 -10 18 C-9.01 18 -8.02 18 -7 18 C-7 21.23830467 -7.29194726 22.31591712 -9 25 C-10.65893182 26.34294481 -12.32476605 27.67744688 -14 29 C-14 29.66 -14 30.32 -14 31 C-13.67 30.835 -13.67 30.835 -12 30 C-12.75 35.75 -12.75 35.75 -15 38 C-16.5971286 41.54145906 -18.00194671 45.00574279 -19.25 48.6875 C-21.03102414 52.05872426 -21.40268782 52.47932289 -24.5625 54.0625 C-28.68698086 56.38720739 -28.76334708 57.62415119 -30 62 C-31.32467746 62.6837045 -32.65863633 63.34964186 -34 64 C-35.75 67.125 -35.75 67.125 -37 70 C-32.82117329 67.43571997 -29.87494471 64.98069267 -27 61 C-26.34 61.33 -25.68 61.66 -25 62 C-25.78345715 63.17219543 -26.57702836 64.33763668 -27.375 65.5 C-27.59542969 65.82484375 -27.59542969 65.82484375 -28.7109375 67.46875 C-28.92363281 67.72140625 -28.92363281 67.72140625 -30 69 C-30.66 69 -31.32 69 -32 69 C-31.95875 70.2375 -31.9175 71.475 -31.875 72.75 C-31.88073533 75.99046026 -31.97345887 78.33349851 -34 81 C-37 82 -37 82 -39 82 C-42 85.46153846 -42 85.46153846 -42 88 C-40.68 87.34 -39.36 86.68 -38 86 C-39.45124634 89.82601307 -41.35774704 91.22329124 -45 93 C-45.99 93 -46.98 93 -48 93 C-49.34187818 93.6492959 -50.67479497 94.31731862 -52 95 C-52.680625 95.165 -53.36125 95.33 -54.0625 95.5 C-56 96 -56 96 -59 98 C-59.66 96.68 -60.32 95.36 -61 94 C-61.556875 94.495 -62.11375 94.99 -62.6875 95.5 C-65.43919682 97.28488442 -66.79597511 97 -70 97 C-72.3125 98.5 -72.3125 98.5 -74 100 C-74.66 98.68 -75.32 97.36 -76 96 C-76.556875 96.495 -77.11375 96.99 -77.6875 97.5 C-80.43919682 99.28488442 -81.79597511 99 -85 99 C-87.3125 100.5 -87.3125 100.5 -89 102 C-89.66 100.68 -90.32 99.36 -91 98 C-94.04386724 97.91773332 -96.07175348 98.02391783 -99 99 C-100.80924876 99.19887925 -102.62258498 99.36209601 -104.4375 99.5 C-107.75292799 99.75260404 -110.78826549 100.16071958 -114 101 C-114.6496875 101.0721875 -114.6496875 101.0721875 -117.9375 101.4375 C-121.2479595 101.81900277 -123.92688751 102.68295179 -127 104 C-127.99 104 -128.98 104 -130 104 C-132.1875 106 -132.1875 106 -134 108 C-134.66 106.68 -135.32 105.36 -136 104 C-139.63 105.32 -143.26 106.64 -147 108 C-147.165 107.67 -147.165 107.67 -148 106 C-147.505 105.835 -147.505 105.835 -145 105 C-144.67 104.34 -144.34 103.68 -144 103 C-144.721875 103.350625 -145.44375 103.70125 -146.1875 104.0625 C-149.40408459 105.13469486 -150.81296905 105.06234365 -154 104 C-156.3125 102.4375 -156.3125 102.4375 -158 101 C-158.165 101.33 -158.165 101.33 -159 103 C-162.96 102.67 -166.92 102.34 -171 102 C-170.67 100.68 -170.34 99.36 -170 98 C-169.5978125 98.0103125 -169.5978125 98.0103125 -167.5625 98.0625 C-165 98 -165 98 -164 97 C-162.33388095 96.957279 -160.66617115 96.95936168 -159 97 C-154.84064214 97 -150.70458933 96.13047951 -146.625 95.375 C-146.191875 95.313125 -146.191875 95.313125 -144 95 C-143.835 95.165 -143.835 95.165 -143 96 C-141.07504232 95.79628515 -139.15848172 95.51101093 -137.25 95.1875 C-136.72664063 95.10177734 -136.72664063 95.10177734 -134.078125 94.66796875 C-131 94 -131 94 -128.27734375 92.89453125 C-125.45596372 91.78630479 -123.90177141 92.37258997 -121 93 C-120.34 92.34 -119.68 91.68 -119 91 C-116.66708189 90.95598268 -114.33299825 90.96045766 -112 91 C-110.32656552 90.70250054 -108.65694085 90.37872934 -107 90 C-106.34 90 -105.68 90 -105 90 C-104.67 89.67 -104.34 89.34 -104 89 C-102.88625 89.04125 -101.7725 89.0825 -100.625 89.125 C-97 89 -97 89 -95.5625 87.5625 C-92.9719358 84.9719358 -89.49401162 85.19296317 -86 85 C-85.5771875 85.0103125 -85.5771875 85.0103125 -83.4375 85.0625 C-81 85 -81 85 -77.6875 84 C-73.63583402 82.90124312 -70.18275615 83 -66 83 C-63.66237777 82.34853151 -61.32809543 81.68473395 -59 81 C-58.505 81.165 -58.505 81.165 -56 82 C-50.48733668 78.87119109 -48.03029436 73.32300974 -45 68 C-44.67 67.505 -44.67 67.505 -43 65 C-42.67 64.319375 -42.34 63.63875 -42 62.9375 C-41 61 -41 61 -39 59 C-38.50013492 57.6816745 -38.045541 56.34573121 -37.625 55 C-36.26404734 51.15202726 -36.26404734 51.15202726 -33.9375 49.8125 C-33.298125 49.544375 -32.65875 49.27625 -32 49 C-30.9375 46.8125 -30.9375 46.8125 -30 44 C-29.46375 42.845 -28.9275 41.69 -28.375 40.5 C-27 37 -27 37 -27.0625 34.375 C-26.9716181 30.92148798 -25.26051106 29.51885518 -23 27 C-21.05130237 24.67655282 -20.05504783 23.20184204 -19.25 20.25 C-16.72988373 13.6976977 -10.96130037 8.82348647 -6 4 C-5.46375 3.4225 -4.9275 2.845 -4.375 2.25 C-3 1 -3 1 0 0 Z " fill="#FFCA24" transform="translate(243,94)"/>
<path d="M0 0 C0.33 0.165 0.33 0.165 2 1 C2.3125 3.1875 2.3125 3.1875 2 6 C-0.5 8.8125 -0.5 8.8125 -3 11 C-2.835 11.33 -2.835 11.33 -2 13 C-1.01 13 -0.02 13 1 13 C-0.39833141 17.06787318 -2.45397616 20.45200597 -4.78125 24.03515625 C-5.98579668 25.9771017 -6.99160474 27.95081123 -8 30 C-8.67939915 31.19215322 -9.3666736 32.37985968 -10.0625 33.5625 C-12 37 -12 37 -13 40 C-13.495 40.165 -13.495 40.165 -16 41 C-16.33 41.99 -16.66 42.98 -17 44 C-15.68 43.01 -14.36 42.02 -13 41 C-13 42.32 -13 43.64 -13 45 C-12.34 45 -11.68 45 -11 45 C-11.98571685 48.45000896 -13.01726648 51.02511489 -15.0625 54 C-17 57 -17 57 -17.5 60 C-18.13099198 63.7859519 -19.79472359 65.88666859 -22 69 C-22.45375 70.03125 -22.9075 71.0625 -23.375 72.125 C-25.35203258 75.62282687 -27.55991421 77.01239488 -31 79 C-31.66 78.67 -32.32 78.34 -33 78 C-33.350625 78.495 -33.70125 78.99 -34.0625 79.5 C-36.95781461 81.74153389 -39.43675791 81.19088797 -43 81 C-43.99 81 -44.98 81 -46 81 C-46.66 80.67 -47.32 80.34 -48 80 C-48.350625 80.495 -48.70125 80.99 -49.0625 81.5 C-51.95781461 83.74153389 -54.43675791 83.19088797 -58 83 C-58.99 83 -59.98 83 -61 83 C-61.33 82.835 -61.33 82.835 -63 82 C-63.350625 82.495 -63.70125 82.99 -64.0625 83.5 C-66.95781461 85.74153389 -69.43675791 85.19088797 -73 85 C-73.99 85 -74.98 85 -76 85 C-76.33 84.835 -76.33 84.835 -78 84 C-78.99 84.99 -79.98 85.98 -81 87 C-82.65 86.34 -84.3 85.68 -86 85 C-86.66 85.99 -87.32 86.98 -88 88 C-89.65 87.34 -91.3 86.68 -93 86 C-93.33 86.66 -93.66 87.32 -94 88 C-95.32 87.67 -96.64 87.34 -98 87 C-98 86.01 -98 85.02 -98 84 C-98.31904297 83.97550781 -98.31904297 83.97550781 -99.93359375 83.8515625 C-100.75988281 83.77679688 -101.58617187 83.70203125 -102.4375 83.625 C-103.26121094 83.55539063 -104.08492187 83.48578125 -104.93359375 83.4140625 C-105.61550781 83.27742188 -106.29742187 83.14078125 -107 83 C-107.33 82.34 -107.66 81.68 -108 81 C-108.33 81.33 -108.33 81.33 -110 83 C-110.28875 82.8453125 -110.28875 82.8453125 -111.75 82.0625 C-113.84294184 81.07416636 -115.74535275 80.4831387 -118 80 C-114.49757278 77.92685816 -111.23339544 77.45300242 -107.22265625 76.9296875 C-106.57429306 76.84373322 -105.92592987 76.75777893 -105.25791931 76.66921997 C-103.89089604 76.48944992 -102.52341149 76.31315734 -101.15551758 76.14013672 C-99.07194893 75.87619696 -96.99008117 75.60114665 -94.90820312 75.32421875 C-83.85228031 73.88200097 -83.85228031 73.88200097 -79 74 C-79.99 74.33 -80.98 74.66 -82 75 C-81.67 75.33 -81.34 75.66 -81 76 C-79.67621598 75.76479464 -78.36482844 75.45916512 -77.0625 75.125 C-72.82361479 74.12087616 -68.67822985 73.59611744 -64.34375 73.21484375 C-61.21063552 72.92764159 -58.11179191 72.46100621 -55 72 C-53.64619222 71.83044286 -52.29200765 71.66387238 -50.9375 71.5 C-48.5144768 71.19231451 -46.09550887 70.84640717 -43.6875 70.4375 C-41 70 -41 70 -38 70 C-33.7921488 65.97416781 -31.63804609 61.63855061 -30.5546875 56.01171875 C-29.51749485 52.25006935 -27.17576103 49.19434979 -25 46 C-19.43214433 37.09143093 -15.24967626 27.8145982 -12.94140625 17.55078125 C-11.83268518 14.54665321 -10.34423561 13.1373913 -8 11 C-6.9935725 9.33720673 -5.99414593 7.67016516 -5 6 C-3.38842441 3.94669737 -1.70329003 1.97949923 0 0 Z M-93 78 C-94.35827971 79.64639965 -95.69254251 81.31295807 -97 83 C-95.35 82.34 -93.7 81.68 -92 81 C-92 80.01 -92 79.02 -92 78 C-92.33 78 -92.66 78 -93 78 Z M-1 16 C-0.67 16.165 -0.67 16.165 1 17 C0.67 17.165 0.67 17.165 -1 18 C-1 17.34 -1 16.68 -1 16 Z " fill="#FFAB08" transform="translate(248,129)"/>
<path d="M0 0 C0.7425 0.185625 1.485 0.37125 2.25 0.5625 C2.8275 0.706875 3.405 0.85125 4 1 C4.33 0.34 4.66 -0.32 5 -1 C8.13176859 -1.26843731 9.58014576 -1.29989588 12.1875 0.5625 C15.97706621 2.4993894 18.54150333 1.70590541 22.65625 1.125 C25.82918067 0.95577703 27.31831407 2.39098844 30 4 C32.34375 3.875 32.34375 3.875 35 3.5 C39.61015018 2.84915527 41.02522595 3.61513557 45 6 C47.34375 5.875 47.34375 5.875 50 5.5 C54.61015018 4.84915527 56.02522595 5.61513557 60 8 C62.34375 7.875 62.34375 7.875 65 7.5 C69.68055556 6.84722222 69.68055556 6.84722222 72.875 8.375 C73.225625 8.643125 73.225625 8.643125 75 10 C77.3125 10.6875 77.3125 10.6875 79 11 C79 11.66 79 12.32 79 13 C78.38253906 13.10957031 77.76507813 13.21914062 77.12890625 13.33203125 C71.22287499 14.4377266 65.64802441 15.95361435 60 18 C60 18.33 60 18.66 60 19 C59.28972656 19.04898438 58.57945312 19.09796875 57.84765625 19.1484375 C56.92855469 19.22320312 56.00945312 19.29796875 55.0625 19.375 C54.60423828 19.40980469 54.60423828 19.40980469 52.28515625 19.5859375 C51.53105469 19.72257812 50.77695312 19.85921875 50 20 C49.67 20.66 49.34 21.32 49 22 C44.07872966 22.16682272 40.49656104 22.24828052 36 20 C36.66 19.01 37.32 18.02 38 17 C36.02 17.66 34.04 18.32 32 19 C32 18.34 32 17.68 32 17 C31.34 17.33 31.34 17.33 28 19 C27.34 18.01 26.68 17.02 26 16 C23.04965818 14.99067254 21.6020668 14.75591887 18.6875 15.9375 C18.130625 16.288125 17.57375 16.63875 17 17 C17 16.34 17 15.68 17 15 C16.34 15.33 16.34 15.33 13 17 C12.34 16.01 11.68 15.02 11 14 C8.04965818 12.99067254 6.6020668 12.75591887 3.6875 13.9375 C3.130625 14.288125 2.57375 14.63875 2 15 C2 14.34 2 13.68 2 13 C1.34 13.33 1.34 13.33 -2 15 C-2.66 14.01 -3.32 13.02 -4 12 C-6.95034182 10.99067254 -8.3979332 10.75591887 -11.3125 11.9375 C-11.869375 12.288125 -12.42625 12.63875 -13 13 C-15.0625 11.25 -15.0625 11.25 -17 9 C-16.75 6.75 -16.75 6.75 -16 5 C-16 5.99 -16 6.98 -16 8 C-11.23982869 5.49464668 -11.23982869 5.49464668 -10 2.9375 C-9 1 -9 1 -6.625 -0.3125 C-3.80504241 -1.05106032 -2.69378417 -0.9558589 0 0 Z " fill="#FFB410" transform="translate(312,195)"/>
<path d="M0 0 C0.66 0 1.32 0 2 0 C2 0.66 2 1.32 2 2 C2.53163002 2.05202072 2.53163002 2.05202072 5.22200012 2.3152771 C19.38023928 3.73528465 33.47196678 5.58824212 47.57421875 7.4765625 C50.08052107 7.81023376 52.58685403 8.14367489 55.09321594 8.47689819 C60.96126474 9.2576163 66.82900578 10.04061299 72.69659501 10.82477701 C79.39070676 11.71926601 86.08521793 12.61074804 92.77975976 13.50201154 C106.52027827 15.33139282 120.26030566 17.16443979 134 19 C133.67 20.32 133.34 21.64 133 23 C131.33388095 23.042721 129.66617115 23.04063832 128 23 C127.67 22.67 127.34 22.34 127 22 C124.67013877 21.79031249 122.33555964 21.63184611 120 21.5 C113.11111111 21.11111111 113.11111111 21.11111111 112 20 C109.67013877 19.79031249 107.33555964 19.63184611 105 19.5 C98.11111111 19.11111111 98.11111111 19.11111111 97 18 C95.14948461 17.81346805 93.29390519 17.67634713 91.4375 17.5625 C86.39108099 17.18869118 81.85412486 16.40022833 77 15 C77 15.66 77 16.32 77 17 C77.763125 16.95875 78.52625 16.9175 79.3125 16.875 C82 17 82 17 85 19 C87.8125 19.125 87.8125 19.125 91 19 C96.66666667 18.77777778 96.66666667 18.77777778 100 21 C102.8125 21.125 102.8125 21.125 106 21 C111.66666667 20.77777778 111.66666667 20.77777778 115 23 C117.91796875 23.1953125 117.91796875 23.1953125 121.1875 23.125 C122.27417969 23.10695312 123.36085938 23.08890625 124.48046875 23.0703125 C124.89619141 23.05871094 124.89619141 23.05871094 127 23 C127 23.99 127 24.98 127 26 C121.72459834 27.59099415 116.3175334 26.94808185 111.25 24.875 C108.41982961 23.77437818 106.91906766 24.34320978 104 25 C101.20715027 24.65089378 99.06973107 24.03137898 96.5 22.875 C93.51115658 21.8289048 92.04171921 22.31561318 89 23 C87.3247643 22.71281674 85.65919896 22.36871088 84 22 C81.46964145 21.72800706 78.93782158 21.50002775 76.40234375 21.28125 C74 21 74 21 72.03515625 20.5 C69.52421885 19.88310943 67.07695308 19.69822716 64.5 19.5 C61.20100098 19.24623084 58.20058339 18.80014585 55 18 C53.16933973 17.80616538 51.33547112 17.64119009 49.5 17.5 C44.43431926 17.11033225 44.43431926 17.11033225 42.1394043 16.52734375 C39.80267732 15.95136175 37.49814525 15.60381829 35.11328125 15.28125 C34.17419922 15.15363281 33.23511719 15.02601563 32.26757812 14.89453125 C31.29240234 14.76433594 30.31722656 14.63414062 29.3125 14.5 C28.35666016 14.36980469 27.40082031 14.23960937 26.41601562 14.10546875 C19.70059201 13.19909256 12.98129894 12.30237713 6.22265625 11.7890625 C5.50980469 11.73492187 4.79695313 11.68078125 4.0625 11.625 C3.33160156 11.57601562 2.60070312 11.52703125 1.84765625 11.4765625 C0 11 0 11 -2 8 C-1 7 -1 7 2.8125 6.875 C5.70700813 6.91111686 8.22820085 7.10906456 11 8 C11.7425 8.185625 12.485 8.37125 13.25 8.5625 C13.8275 8.706875 14.405 8.85125 15 9 C15 8.34 15 7.68 15 7 C13.01432292 6.8046875 11.02864583 6.609375 9.04296875 6.4140625 C7 6 7 6 4 4 C1.8125 4.375 1.8125 4.375 0 5 C0 3.35 0 1.7 0 0 Z " fill="#FFD931" transform="translate(326,165)"/>
<path d="M0 0 C2.98950995 0.57827566 5.86191208 0.92070552 8.89453125 1.14453125 C13.79321211 1.54326109 18.57115042 2.32567579 23.41015625 3.171875 C26.96254658 3.74652638 30.51194979 4.10226295 34.09375 4.43359375 C38.59394099 4.85769552 42.9156515 5.50654402 47.26953125 6.70703125 C51.38655585 7.79213851 55.08385378 7.7141735 59.33203125 7.64453125 C62.33203125 8.14453125 62.33203125 8.14453125 64.33203125 8.64453125 C63.33203125 11.64453125 63.33203125 11.64453125 61.44140625 12.59375 C53.57528506 15.05516872 53.57528506 15.05516872 49.33203125 14.64453125 C49.00203125 15.30453125 48.67203125 15.96453125 48.33203125 16.64453125 C43.41076091 16.81135397 39.82859229 16.89281177 35.33203125 14.64453125 C35.99203125 13.65453125 36.65203125 12.66453125 37.33203125 11.64453125 C35.35203125 12.30453125 33.37203125 12.96453125 31.33203125 13.64453125 C31.33203125 12.98453125 31.33203125 12.32453125 31.33203125 11.64453125 C30.67203125 11.97453125 30.67203125 11.97453125 27.33203125 13.64453125 C26.67203125 12.65453125 26.01203125 11.66453125 25.33203125 10.64453125 C22.38168943 9.63520379 20.93409805 9.40045012 18.01953125 10.58203125 C17.46265625 10.93265625 16.90578125 11.28328125 16.33203125 11.64453125 C16.33203125 10.98453125 16.33203125 10.32453125 16.33203125 9.64453125 C15.67203125 9.97453125 15.67203125 9.97453125 12.33203125 11.64453125 C11.67203125 10.65453125 11.01203125 9.66453125 10.33203125 8.64453125 C7.38168943 7.63520379 5.93409805 7.40045012 3.01953125 8.58203125 C2.46265625 8.93265625 1.90578125 9.28328125 1.33203125 9.64453125 C1.33203125 8.98453125 1.33203125 8.32453125 1.33203125 7.64453125 C0.67203125 7.97453125 0.67203125 7.97453125 -2.66796875 9.64453125 C-3.32796875 8.65453125 -3.98796875 7.66453125 -4.66796875 6.64453125 C-7.61831057 5.63520379 -9.06590195 5.40045012 -11.98046875 6.58203125 C-12.53734375 6.93265625 -13.09421875 7.28328125 -13.66796875 7.64453125 C-15.73046875 5.89453125 -15.73046875 5.89453125 -17.66796875 3.64453125 C-17.41796875 1.39453125 -17.41796875 1.39453125 -16.66796875 -0.35546875 C-16.66796875 0.63453125 -16.66796875 1.62453125 -16.66796875 2.64453125 C-16.22453125 2.29390625 -16.22453125 2.29390625 -13.98046875 0.51953125 C-9.23790683 -2.21103471 -5.16179922 -1.00876305 0 0 Z " fill="#FFAB08" transform="translate(312.66796875,200.35546875)"/>
<path d="M0 0 C0.66 0.33 1.32 0.66 2 1 C2.625 3.5625 2.625 3.5625 3 6 C3.3815625 5.7628125 3.3815625 5.7628125 5.3125 4.5625 C8 3 8 3 11 2 C11.6875 5.3125 11.6875 5.3125 12 9 C11.03505628 10.03386828 10.02815186 11.02896769 9 12 C8.04969568 13.69984012 7.15596017 15.432191 6.3125 17.1875 C5.87550781 18.08855469 5.43851563 18.98960937 4.98828125 19.91796875 C4.66214844 20.60503906 4.33601562 21.29210937 4 22 C3.01 21.01 2.02 20.02 1 19 C0.34 19.33 -0.32 19.66 -1 20 C-1.33 17.03 -1.66 14.06 -2 11 C-2.66 12.65 -3.32 14.3 -4 16 C-5.32 15.67 -6.64 15.34 -8 15 C-7.71905418 13.1858073 -7.42493567 11.37364999 -7.125 9.5625 C-6.96257812 8.55316406 -6.80015625 7.54382813 -6.6328125 6.50390625 C-6.42398438 5.67761719 -6.21515625 4.85132813 -6 4 C-5.34 3.67 -4.68 3.34 -4 3 C-3.34 3.33 -2.68 3.66 -2 4 C-1.34 2.68 -0.68 1.36 0 0 Z " fill="#FFD22B" transform="translate(142,316)"/>
<path d="M0 0 C2 3 2 3 2 7 C3.98 5.35 5.96 3.7 8 2 C6.91737157 8.76642767 1.95453437 14.61743933 -2 20 C-2.66 19.34 -3.32 18.68 -4 18 C-5.65 19.32 -7.3 20.64 -9 22 C-9.625 18.625 -9.625 18.625 -10 15 C-9.34 14.34 -8.68 13.68 -8 13 C-7.71125 12.071875 -7.4225 11.14375 -7.125 10.1875 C-5.91486489 6.75878387 -4.48161331 4.63671414 -2 2 C-1.34 2 -0.68 2 0 2 C0 1.34 0 0.68 0 0 Z " fill="#FFAD0A" transform="translate(183,318)"/>
<path d="M0 0 C1.59494188 3.18988376 0.74137105 5.57828747 0 9 C-2.63588822 13.6860235 -6.11507833 18.24827564 -10 22 C-10.66 22 -11.32 22 -12 22 C-12 23.65 -12 25.3 -12 27 C-12.66 27.33 -12.66 27.33 -16 29 C-15.68926976 26.77058595 -15.37634375 24.54147788 -15.0625 22.3125 C-14.88847656 21.07113281 -14.71445313 19.82976562 -14.53515625 18.55078125 C-14.35855469 17.37902344 -14.18195313 16.20726562 -14 15 C-13.85949219 14.04996094 -13.71898438 13.09992188 -13.57421875 12.12109375 C-13.38472656 11.42113281 -13.19523437 10.72117187 -13 10 C-9.83461241 8.24145134 -6.55060608 7.60867533 -3 7 C-2.690625 6.030625 -2.38125 5.06125 -2.0625 4.0625 C-1 1 -1 1 0 0 Z " fill="#FFD931" transform="translate(130,412)"/>
<path d="M0 0 C0.33 0.99 0.66 1.98 1 3 C2.32 3 3.64 3 5 3 C4.93967927 4.4386494 4.85079867 5.87611902 4.75 7.3125 C4.72679687 7.71275391 4.72679687 7.71275391 4.609375 9.73828125 C3.81099181 12.70151115 2.43381306 13.22004717 0 15 C-1.265625 17.48046875 -1.265625 17.48046875 -2.25 20.1875 C-2.58515625 21.08855469 -2.9203125 21.98960937 -3.265625 22.91796875 C-3.50796875 23.60503906 -3.7503125 24.29210937 -4 25 C-4.66 25 -5.32 25 -6 25 C-6.31451716 20.38708167 -5.8619665 18.54883846 -3 15 C-2.3125 12.25 -2.3125 12.25 -2 10 C-3.32 9.34 -4.64 8.68 -6 8 C-3.375 2.25 -3.375 2.25 0 0 Z " fill="#FFCA24" transform="translate(151,337)"/>
<path d="M0 0 C0.66 0.33 1.32 0.66 2 1 C1.855625 1.70125 1.71125 2.4025 1.5625 3.125 C0.98521625 6.07556141 0.48304859 9.03270151 0 12 C-0.99 12 -1.98 12 -3 12 C-3.33 13.32 -3.66 14.64 -4 16 C-5.32 15.67 -6.64 15.34 -8 15 C-7.71905418 13.1858073 -7.42493567 11.37364999 -7.125 9.5625 C-6.96257812 8.55316406 -6.80015625 7.54382813 -6.6328125 6.50390625 C-6.42398438 5.67761719 -6.21515625 4.85132813 -6 4 C-5.34 3.67 -4.68 3.34 -4 3 C-3.34 3.33 -2.68 3.66 -2 4 C-1.34 2.68 -0.68 1.36 0 0 Z " fill="#FFDB33" transform="translate(142,316)"/>
<path d="M0 0 C1.47006623 4.41019868 0.43537323 7.69388031 -1 12 C-1.103125 12.845625 -1.20625 13.69125 -1.3125 14.5625 C-1.539375 15.366875 -1.76625 16.17125 -2 17 C-2.66 17.33 -2.66 17.33 -6 19 C-5.01 13.06 -4.02 7.12 -3 1 C-2.01 0.67 -1.02 0.34 0 0 Z " fill="#FFDC34" transform="translate(131,361)"/>
<path d="M0 0 C1.18650221 3.55950662 0.48921886 4.90670634 -1.0390625 8.22265625 C-2.86671253 11.60306585 -5.2996902 14.2996902 -8 17 C-7.25 10.25 -7.25 10.25 -5 8 C-5 6.68 -5 5.36 -5 4 C-4.34 4 -3.68 4 -3 4 C-2.67 3.01 -2.34 2.02 -2 1 C-1.34 1.33 -0.68 1.66 0 2 C0 1.34 0 0.68 0 0 Z M-7 5 C-5 6 -5 6 -5 6 Z " fill="#FFD42D" transform="translate(138,373)"/>
<path d="M0 0 C0.33 0 0.66 0 1 0 C2.0070238 5.03511899 1.97387813 8.23947038 0 13 C-0.66 12.67 -1.32 12.34 -2 12 C-1.85904936 10.3745692 -1.71207913 8.74965949 -1.5625 7.125 C-1.48128906 6.22007812 -1.40007812 5.31515625 -1.31640625 4.3828125 C-1 2 -1 2 0 0 Z " fill="#FFDE32" transform="translate(380,345)"/>
<path d="M0 0 C0.66 0.165 0.66 0.165 4 1 C3.60196439 3.88575819 3.20990931 4.82189513 0.9375 6.75 C0.298125 7.1625 -0.34125 7.575 -1 8 C-0.67 5.36 -0.34 2.72 0 0 Z " fill="#FFDF32" transform="translate(132,340)"/>
<path d="M0 0 C0.66 0 1.32 0 2 0 C1.74438677 2.3431213 1.40729228 4.67843403 1 7 C0.67 7.165 0.67 7.165 -1 8 C-1.625 5.6875 -1.625 5.6875 -2 3 C-1.34 2.01 -0.68 1.02 0 0 Z " fill="#FFB20E" transform="translate(180,304)"/>
<path d="M0 0 C-0.75 2.4375 -0.75 2.4375 -2 5 C-4.125 5.8125 -4.125 5.8125 -6 6 C-5.6875 4.125 -5.6875 4.125 -5 2 C-2 0 -2 0 0 0 Z " fill="#FFAB08" transform="translate(191,299)"/>
<path d="M0 0 C0.66 0.66 1.32 1.32 2 2 C1.01 4.31 0.02 6.62 -1 9 C-1.66 8.67 -2.32 8.34 -3 8 C-2.45276317 4.62537285 -1.9451 2.91765 0 0 Z " fill="#FFC41F" transform="translate(355,330)"/>
<path d="M0 0 C0.66 0.99 1.32 1.98 2 3 C1.125 5.6875 1.125 5.6875 0 8 C-0.99 8 -1.98 8 -3 8 C-2.01 5.36 -1.02 2.72 0 0 Z " fill="#FFAB08" transform="translate(191,279)"/>
<path d="M0 0 C0.66 0.33 1.32 0.66 2 1 C1.67 3.64 1.34 6.28 1 9 C-1.14809171 5.77786243 -1.29386153 4.72224599 -1 1 C-0.67 0.67 -0.34 0.34 0 0 Z " fill="#FFC41F" transform="translate(298,154)"/>
<path d="M0 0 C0.99 0 1.98 0 3 0 C3 0.99 3 1.98 3 3 C2.01 3.33 1.02 3.66 0 4 C-0.66 3.34 -1.32 2.68 -2 2 C-1.34 1.34 -0.68 0.68 0 0 Z " fill="#FFC41F" transform="translate(165,292)"/>
<path d="M0 0 C0.33 0.99 0.66 1.98 1 3 C0.34 3.33 0.34 3.33 -3 5 C-1.125 1.125 -1.125 1.125 0 0 Z " fill="#FFCB24" transform="translate(157,309)"/>
<path d="M0 0 C0.66 0.66 1.32 1.32 2 2 C1.505 2.33 1.505 2.33 -1 4 C-0.67 2.68 -0.34 1.36 0 0 Z " fill="#FFD52E" transform="translate(139,348)"/>
<path d="M0 0 C0.66 0.66 1.32 1.32 2 2 C1.34 2.66 0.68 3.32 0 4 C0 2.68 0 1.36 0 0 Z " fill="#FFAB08" transform="translate(180,340)"/>
</svg>
