<?xml version="1.0" encoding="UTF-8"?>
<!-- Generator: visioncortex VTracer 0.6.12 -->
<svg version="1.1" xmlns="http://www.w3.org/2000/svg" width="512" height="512">
<path d="M0 0 C6.00102038 3.24975385 7.54660147 9.22174092 9.875 15.25 C10.34421875 16.43255371 10.8134375 17.61510742 11.296875 18.83349609 C15.99662113 30.72846456 20.43305444 42.72792506 24.89477539 54.71362305 C29.92241091 68.20723512 35.09139728 81.64267283 40.3125 95.0625 C41.90916115 99.16915153 43.50545571 103.27594548 45.1015625 107.3828125 C45.49983749 108.40754166 45.89811249 109.43227081 46.30845642 110.48805237 C50.5514573 121.41036267 54.77226479 132.34115428 58.97372437 143.2795105 C59.77930693 145.37546729 60.5861198 147.47095165 61.39419556 149.56594849 C62.5095049 152.45810566 63.62057398 155.35185516 64.73046875 158.24609375 C65.06384247 159.10818451 65.39721619 159.97027527 65.74069214 160.85848999 C68 166.77136634 68 166.77136634 68 169 C68.90426853 168.99166421 69.80853706 168.98332842 70.74020767 168.97474003 C79.97964006 168.92694468 89.16218576 169.21396465 98.38964844 169.71850586 C99.86166159 169.79603289 101.33369285 169.87321652 102.80574036 169.9500885 C106.7540099 170.15728135 110.70200285 170.36935289 114.6499548 170.58250117 C118.80728893 170.80620931 122.96484696 171.0256827 127.12237549 171.2457428 C134.09556494 171.61546323 141.06858531 171.98824484 148.04150391 172.36303711 C156.07743064 172.79494157 164.11357394 173.22260939 172.14985442 173.64787763 C179.92032591 174.05912441 187.69066855 174.47275438 195.46094513 174.8876667 C198.75088345 175.06333687 202.04085813 175.23830148 205.33086395 175.41270256 C209.20854846 175.61840916 213.08611306 175.82625178 216.96359825 176.03568077 C218.37800292 176.11176124 219.79244443 176.18716061 221.20692635 176.26179123 C246.06771146 177.57510353 246.06771146 177.57510353 250 181 C252.57073939 184.42765252 252.43037452 187.83971296 252 192 C249.37798733 196.59470617 246.19404581 199.88709276 242.125 203.1875 C241.55620117 203.65889404 240.98740234 204.13028809 240.40136719 204.6159668 C235.8337761 208.37916684 231.17942887 212.03200045 226.50976562 215.66723633 C221.81819063 219.3278724 217.21138752 223.08364185 212.625 226.875 C211.91206787 227.4642627 211.19913574 228.05352539 210.46459961 228.66064453 C209.75053955 229.25087402 209.03647949 229.84110352 208.30078125 230.44921875 C199.22488568 237.95061967 190.09994911 245.38676658 180.8125 252.625 C175.72655254 256.58884733 170.78366972 260.68989353 165.88500977 264.88208008 C161.52046797 268.60046176 157.03761304 272.14505256 152.51171875 275.6640625 C147.77263978 279.36158565 143.12825827 283.16497898 138.5 287 C131.93632323 292.43838976 125.28898685 297.75300603 118.5625 302.98828125 C116 305 116 305 115 306 C115.49113385 313.93906358 117.85719233 321.53429243 119.91796875 329.1796875 C120.32805041 330.71616094 120.73768068 332.25275492 121.14689636 333.78945923 C122.02712135 337.09085954 122.91071024 340.3913349 123.79681396 343.69116211 C125.20081484 348.92058823 126.59510679 354.15257672 127.98876953 359.38476562 C132.78805571 377.38687463 137.6378311 395.37471346 142.54014778 413.34903336 C144.07902175 418.99667861 145.61130399 424.64611695 147.14358807 430.29555321 C148.61980527 435.73418311 150.10858039 441.16918104 151.60649204 446.6018734 C152.53731608 449.988394 153.45703293 453.3778593 154.37383461 456.76819992 C154.80133155 458.33975097 155.23351943 459.91003475 155.67076683 461.47890091 C156.26874804 463.62663933 156.8498812 465.77828354 157.42724609 467.93164062 C157.75695404 469.13453735 158.08666199 470.33743408 158.42636108 471.57678223 C159.06577113 475.39249237 158.87197715 478.23869677 158 482 C154.85094198 485.71427356 152.77823205 487.7647123 147.9296875 488.40625 C142.56694299 487.85185096 139.47508467 485.54053753 135.125 482.5 C133.35123634 481.30323977 131.57644728 480.10799831 129.80078125 478.9140625 C128.86314941 478.27758789 127.92551758 477.64111328 126.95947266 476.98535156 C121.80165903 473.52525089 116.5529467 470.20802269 111.3125 466.875 C109.17276506 465.50845743 107.03343362 464.14128283 104.89453125 462.7734375 C103.88213379 462.12600586 102.86973633 461.47857422 101.82666016 460.81152344 C98.04304746 458.38671724 94.26984552 455.94613632 90.5 453.5 C83.51880871 448.97049024 76.51150835 444.48241678 69.5 440 C58.98876508 433.27950891 48.50469829 426.51873599 38.0390625 419.72753906 C29.13397126 413.9506691 20.21210798 408.20018517 11.27514648 402.4727478 C9.58344502 401.38842504 7.89230485 400.30322675 6.20117188 399.21801758 C5.16669922 398.55568115 4.13222656 397.89334473 3.06640625 397.2109375 C2.13771729 396.61587402 1.20902832 396.02081055 0.25219727 395.40771484 C-2 394 -2 394 -4 393 C-5.64135742 393.73754883 -5.64135742 393.73754883 -7.60546875 394.95703125 C-8.3334668 395.40473877 -9.06146484 395.85244629 -9.81152344 396.3137207 C-10.5955957 396.80831787 -11.37966797 397.30291504 -12.1875 397.8125 C-13.0012207 398.3180542 -13.81494141 398.8236084 -14.65332031 399.34448242 C-20.18390776 402.80082942 -25.63223808 406.36901505 -31.03637695 410.01904297 C-36.58662995 413.75802289 -42.22330116 417.35414413 -47.875 420.9375 C-54.37176307 425.05676648 -60.86073525 429.18555266 -67.3125 433.375 C-74.3556228 437.94710762 -81.42497676 442.47742867 -88.5 447 C-96.16491277 451.90002238 -103.82019413 456.81366954 -111.45117188 461.76635742 C-119.00515562 466.66310124 -126.59512038 471.50374782 -134.18554688 476.34375 C-135.19681641 476.98957031 -136.20808594 477.63539063 -137.25 478.30078125 C-137.73706421 478.61160645 -137.73706421 478.61160645 -140.2019043 480.18457031 C-143.54642861 482.35452781 -146.8298845 484.60642635 -150.09301758 486.89672852 C-153.22777579 488.71032119 -155.50184175 488.66002986 -159 488 C-162.3125 486.5625 -162.3125 486.5625 -165 484 C-167.34733841 478.01325642 -167.08891102 472.9403211 -165.34130859 466.89086914 C-165.1392556 466.12916318 -164.93720261 465.36745722 -164.72902679 464.58266926 C-164.0549091 462.06113517 -163.351866 459.5486564 -162.6484375 457.03515625 C-162.15983376 455.23116826 -161.67307156 453.42668063 -161.1880188 451.62173462 C-159.87847071 446.76852232 -158.54401498 441.92247902 -157.20510864 437.07729721 C-155.81718332 432.03661557 -154.45360591 426.98936219 -153.08789062 421.94262695 C-150.57021372 412.65201528 -148.03368013 403.36668376 -145.48849869 394.08357334 C-141.46076871 379.39050877 -137.46621759 364.68843001 -133.48142815 349.98366833 C-132.17245411 345.15605889 -130.85543918 340.33073885 -129.53138542 335.50724411 C-128.71674106 332.53587461 -127.90702455 329.56317723 -127.09841537 326.59016037 C-126.72561666 325.22399733 -126.3506323 323.85842848 -125.97327042 322.49351883 C-125.46144115 320.6413871 -124.95803997 318.78693243 -124.45507812 316.93237305 C-124.17216919 315.90033249 -123.88926025 314.86829193 -123.59777832 313.80497742 C-123.01176215 311.05519197 -122.70897697 308.79624379 -123 306 C-124.84030611 304.03741442 -126.52397046 302.50936661 -128.625 300.875 C-128.91842285 300.63704712 -128.91842285 300.63704712 -130.40332031 299.43286133 C-132.25594793 297.9381165 -134.12517025 296.46676702 -136 295 C-137.12767191 294.11076299 -138.25527806 293.22144257 -139.3828125 292.33203125 C-141.0804895 290.99655173 -142.78022038 289.66398203 -144.48486328 288.33740234 C-149.96865176 284.06254338 -155.320233 279.63480693 -160.67382812 275.19873047 C-165.14759518 271.50067325 -169.66789721 267.87521363 -174.25 264.3125 C-179.31733567 260.37123892 -184.23831234 256.29136571 -189.11523438 252.11767578 C-193.47973614 248.39942563 -197.96247739 244.85487713 -202.48828125 241.3359375 C-207.96933186 237.0595134 -213.3211285 232.63406491 -218.67382812 228.19873047 C-223.70362095 224.04105721 -228.80470252 219.98971242 -233.95727539 215.98583984 C-238.60480734 212.35577509 -243.09749609 208.56207623 -247.57226562 204.72216797 C-250.38207568 202.32365657 -253.21554805 200.04492997 -256.25 197.9375 C-259 196 -259 196 -260 194 C-260.93793682 184.31311155 -260.93793682 184.31311155 -258.125 180.375 C-253.84577155 177.60608748 -249.89659711 177.63735079 -244.9128418 177.3581543 C-243.96513979 177.30168795 -243.01743778 177.2452216 -242.04101753 177.18704414 C-238.86482926 176.99913852 -235.6883021 176.81781425 -232.51171875 176.63671875 C-230.26070252 176.5054268 -228.00970078 176.37388605 -225.75871277 176.24211121 C-218.50626819 175.81987248 -211.25323597 175.4083958 -204 175 C-202.80693489 174.93281013 -201.61386978 174.86562027 -200.38465118 174.79639435 C-184.65774417 173.9126423 -168.9295057 173.05458191 -153.20043945 172.21020508 C-146.95018684 171.87448671 -140.70023168 171.53350999 -134.45032215 171.19147205 C-129.5405671 170.9236599 -124.63062171 170.65947357 -119.72061729 170.39627647 C-117.41354945 170.27201552 -115.10655099 170.14645817 -112.79963112 170.01947975 C-100.85517429 169.36334129 -88.96499905 168.79107623 -77 169 C-76.83621857 168.40664856 -76.67243713 167.81329712 -76.50369263 167.20196533 C-74.33812165 159.46921197 -71.41763319 152.03261035 -68.50921631 144.55810547 C-67.52893784 142.03874367 -66.5532603 139.51763917 -65.57861328 136.99609375 C-64.14683599 133.29271508 -62.71335849 129.59000082 -61.27880859 125.88769531 C-57.71234534 116.67854678 -54.16778188 107.46096521 -50.62280273 98.24353027 C-49.36983266 94.98656805 -48.11564572 91.73007629 -46.86132812 88.47363281 C-42.53382474 77.23234147 -38.22739566 65.98336264 -33.95697784 54.72026825 C-33.23461028 52.81560744 -32.51156977 50.91120359 -31.78826904 49.00689697 C-31.55194008 48.38466373 -31.31561111 47.7624305 -31.07212067 47.12134171 C-30.83707573 46.50250988 -30.60203079 45.88367805 -30.35986328 45.24609375 C-28.53092225 40.43051789 -26.70872877 35.61246081 -24.89013672 30.79296875 C-24.05332616 28.58844058 -23.2162623 26.38400853 -22.37890625 24.1796875 C-22.00887985 23.19338348 -21.63885345 22.20707947 -21.25761414 21.19088745 C-15.03599807 4.87091714 -15.03599807 4.87091714 -10.6875 0.875 C-7.10179767 -0.29243797 -3.70704658 -0.89165704 0 0 Z " fill="#000000" transform="translate(260,10)"/>
</svg>
