<?xml version="1.0" encoding="UTF-8"?>
<!-- Generator: visioncortex VTracer 0.6.12 -->
<svg version="1.1" xmlns="http://www.w3.org/2000/svg" width="512" height="512">
<path d="M0 0 C0.59312988 0.41942871 1.18625977 0.83885742 1.79736328 1.27099609 C12.69839717 9.00373558 22.47068176 17.64229982 32 27 C32.61625244 27.60231445 33.23250488 28.20462891 33.86743164 28.82519531 C39.00963859 33.89940727 43.51046371 39.34215558 48 45 C48.40927734 45.50660156 48.40927734 45.50660156 50.48046875 48.0703125 C56.77602348 55.95627164 62.0774032 64.19923565 67 73 C67.4345752 73.76812012 67.86915039 74.53624023 68.31689453 75.32763672 C83.4658026 102.32659651 92.40647653 131.28324858 96 162 C96.13148438 163.10730469 96.26296875 164.21460938 96.3984375 165.35546875 C101.95592666 223.40870013 83.7622221 282.46909738 47.4375 327.875 C42.16732478 334.10426961 36.61266002 340.07976943 31 346 C30.64421875 346.37705078 30.64421875 346.37705078 28.84375 348.28515625 C23.61793063 353.67160531 17.89535287 358.36623678 12 363 C11.07316406 363.7321875 10.14632813 364.464375 9.19140625 365.21875 C-38.18973639 401.73501733 -98.85198919 418.0333944 -158.18115234 410.40673828 C-195.7562801 404.98493308 -231.39906726 391.69103107 -262 369 C-262.60682617 368.55011719 -263.21365234 368.10023438 -263.83886719 367.63671875 C-272.73998661 360.96928553 -280.97302779 353.68851942 -289 346 C-289.75023437 345.29101562 -290.50046875 344.58203125 -291.2734375 343.8515625 C-296.6702713 338.62537957 -301.33935119 332.8822212 -306 327 C-306.39123047 326.52304687 -306.39123047 326.52304687 -308.37109375 324.109375 C-329.47777049 297.76824242 -352 256.67689458 -352 222 C-347.3070807 222.61367201 -343.48751601 224.60106639 -339.3515625 226.76953125 C-338.59822128 227.15807785 -337.84488007 227.54662445 -337.06871033 227.94694519 C-334.58449205 229.22978868 -332.10482064 230.52117916 -329.625 231.8125 C-327.89348652 232.70833731 -326.16162905 233.60351004 -324.42944336 234.49804688 C-320.80464603 236.37062716 -317.18137461 238.24611462 -313.55908203 240.12353516 C-305.42334334 244.3371483 -297.26887697 248.51423056 -289.11468506 252.69198608 C-286.60735685 253.97701053 -284.100698 255.26333133 -281.59423828 256.55004883 C-280.04329969 257.34587646 -278.49235595 258.14169404 -276.94140625 258.9375 C-276.59738518 259.11418968 -276.59738518 259.11418968 -274.85643005 260.00834656 C-270.25254327 262.36931323 -265.63077431 264.69219581 -261 267 C-261.03109863 267.60312012 -261.06219727 268.20624023 -261.09423828 268.82763672 C-261.90223591 287.64848201 -255.23849837 304.08305928 -243.09375 318.21875 C-231.94669648 330.09675785 -216.24830195 337.32088623 -200.0546875 338.21875 C-181.96892152 338.76661697 -165.01125246 333.99711314 -151.4375 321.625 C-138.56407365 309.28353341 -131.02880329 293.15902756 -130.40625 275.3125 C-129.90215488 272.44303548 -129.18031975 271.89205206 -127 270 C-125.27897894 268.84762143 -123.52723775 267.74064234 -121.7578125 266.6640625 C-121.22969971 266.34115234 -121.22969971 266.34115234 -118.55712891 264.70703125 C-117.99745422 264.36752441 -117.43777954 264.02801758 -116.86114502 263.67822266 C-115.10607897 262.61352167 -113.35416138 261.54381035 -111.60302734 260.47265625 C-109.21815046 259.01425802 -106.83221391 257.55762139 -104.4453125 256.10253906 C-72.06620327 236.35461769 -72.06620327 236.35461769 -65.65625 231.06640625 C-59.13500651 225.83854272 -53.21143708 224.83251165 -45.171875 223.65625 C-24.87790553 220.649736 -6.43654978 207.92791146 6 192 C19.83316045 172.13828319 25.99447998 149.33519678 22.38671875 125.28515625 C18.46240888 103.81769336 6.60188164 83.43787342 -11.25390625 70.58984375 C-25.26365226 60.99306866 -40.96883108 55.01868674 -58 54 C-58.67933594 53.95875 -59.35867188 53.9175 -60.05859375 53.875 C-84.01840624 53.17159266 -105.30953244 63.08820892 -122.9296875 78.7109375 C-137.22758519 92.24628065 -145.60090476 111.85506939 -147.6875 131.1875 C-148.63984058 137.24566655 -151.39438143 140.7042217 -155.203125 145.3984375 C-158.64742025 149.70752342 -161.55751377 154.33998785 -164.5 159 C-165.08160889 159.91974609 -165.66321777 160.83949219 -166.26245117 161.78710938 C-172.72524546 172.07232054 -179.00768538 182.46826517 -185.28515625 192.8671875 C-185.93500488 193.92607178 -186.58485352 194.98495605 -187.25439453 196.07592773 C-188.32159325 197.86359754 -189.34527605 199.67936563 -190.28857422 201.53540039 C-192.92558068 206.55470885 -192.92558068 206.55470885 -195.95336914 207.80957031 C-198.31406784 208.28733383 -200.59782592 208.51904326 -203 208.6875 C-204.7095874 208.8839068 -206.41798062 209.09099425 -208.125 209.30859375 C-208.95773438 209.41413574 -209.79046875 209.51967773 -210.6484375 209.62841797 C-220.56266103 211.19501351 -228.84410949 216.47360425 -237 222 C-237.66 222.33 -238.32 222.66 -239 223 C-241.67944336 221.89526367 -241.67944336 221.89526367 -245.08984375 220.16796875 C-245.70121689 219.8608194 -246.31259003 219.55367004 -246.94248962 219.23721313 C-248.94489116 218.22846851 -250.94117695 217.20821415 -252.9375 216.1875 C-254.31955406 215.48799136 -255.70187963 214.78901892 -257.08447266 214.09057617 C-265.12427558 210.01974271 -273.12367951 205.87523911 -281.07788086 201.6394043 C-288.34960385 197.7783195 -295.72185511 194.12557246 -303.09472656 190.46240234 C-310.07703568 186.98464524 -316.99776798 183.40853214 -323.87841797 179.73413086 C-328.22645492 177.42310029 -332.60525158 175.19757499 -337.03125 173.0390625 C-337.53809326 172.79095825 -337.53809326 172.79095825 -340.10302734 171.53540039 C-342.08349594 170.57012595 -344.06808846 169.61325695 -346.05712891 168.66577148 C-346.94835449 168.23079346 -347.83958008 167.79581543 -348.7578125 167.34765625 C-349.5533252 166.96617432 -350.34883789 166.58469238 -351.16845703 166.19165039 C-353 165 -353 165 -354 162 C-350.14139476 106.32074263 -319.73319718 51.9386846 -278.19140625 15.5390625 C-275.49676303 13.3098221 -272.75858135 11.14944313 -270 9 C-269.05253906 8.22398438 -268.10507812 7.44796875 -267.12890625 6.6484375 C-234.78375034 -19.31009527 -194.04140779 -34.53784947 -153 -39 C-152.50564453 -39.05542969 -152.50564453 -39.05542969 -150.00390625 -39.3359375 C-97.97620596 -44.24045957 -42.5664251 -30.72089198 0 0 Z " fill="#000000" transform="translate(385,70)"/>
<path d="M0 0 C14.18937995 10.28462733 24.59227431 25.75862826 28 43 C30.42645605 61.38998272 27.68279043 79.34209102 16.71875 94.78125 C10.68224962 102.57382322 4.45654011 108.87083881 -4 114 C-4.37833984 114.23074219 -4.37833984 114.23074219 -6.29296875 115.3984375 C-21.57378026 123.84511723 -39.6296139 125.25101854 -56.421875 121.16796875 C-75.2717587 115.01500453 -89.90187264 103.23506374 -99.19921875 85.671875 C-106.65951002 70.82112357 -107.59061776 52.36762623 -103.4375 36.3125 C-97.24832889 18.5831036 -86.20682249 5.26104142 -70 -4 C-47.01173384 -14.78070413 -21.52971425 -13.74815731 0 0 Z M-75 28 C-82.55226732 37.85570885 -85.0213089 49.77306241 -84 62 C-81.36466241 74.80021117 -75.45024517 86.0483323 -64.6484375 93.65625 C-53.11420359 100.94102931 -41.77280477 103.25003387 -28.30078125 100.84375 C-15.96634026 97.69080414 -6.17810659 90.06023059 0.9375 79.625 C7.17342165 69.02099173 8.65515552 57.65015804 6.34375 45.5703125 C4.26800669 37.96521849 1.01212714 32.05096545 -4 26 C-4.50015625 25.36449219 -5.0003125 24.72898437 -5.515625 24.07421875 C-13.70721537 14.74490749 -26.35587442 10.81548355 -38.3125 9.6875 C-53.4061117 10.96661964 -65.17542096 16.39273524 -75 28 Z " fill="#000000" transform="translate(361,154)"/>
<path d="M0 0 C9.37177496 9.83433037 12.60952888 22.25126168 12.3828125 35.5 C11.34362459 47.6714884 6.00270843 59.20236798 -2.953125 67.56640625 C-14.00056772 76.47422567 -25.89856909 79.80410479 -40.0078125 78.98046875 C-53.48115762 77.25221244 -64.02879746 70.23598231 -72.7421875 60.0390625 C-77.44188433 53.63572556 -80.9296875 45.16876967 -80.9296875 37.16015625 C-76.72743174 38.46967644 -72.89440539 40.06471952 -68.97265625 42.05859375 C-67.85955078 42.620625 -66.74644531 43.18265625 -65.59960938 43.76171875 C-65.02500977 44.05433594 -65.02500977 44.05433594 -62.1171875 45.53515625 C-36.39712231 58.59191456 -36.39712231 58.59191456 -26.21875 55.27734375 C-19.52979509 52.24421405 -15.09045526 48.17301066 -11.6171875 41.72265625 C-9.55679549 34.04301331 -9.20739432 27.12276284 -13.12109375 19.98828125 C-19.38343264 10.9104494 -30.12218057 6.87377843 -39.6796875 1.97265625 C-40.91031568 1.33819977 -42.14078557 0.70343616 -43.37109375 0.06835938 C-52.53550486 -4.65530346 -52.53550486 -4.65530346 -56.9296875 -6.83984375 C-55.9296875 -9.83984375 -55.9296875 -9.83984375 -53.77734375 -10.97265625 C-33.97229154 -18.02803249 -15.38619702 -14.66983562 0 0 Z " fill="#000000" transform="translate(223.9296875,310.83984375)"/>
</svg>
