<?xml version="1.0" encoding="UTF-8"?>
<!-- Generator: visioncortex VTracer 0.6.12 -->
<svg version="1.1" xmlns="http://www.w3.org/2000/svg" width="512" height="512">
<path d="M0 0 C40.73258691 37.09857902 66.02515215 90.53183589 68.75683594 145.60009766 C71.13121963 200.07688474 54.43193792 255.5110011 17.75683594 296.60009766 C17.32806152 297.08236816 16.89928711 297.56463867 16.45751953 298.06152344 C13.27693169 301.62572244 10.03273398 305.12334163 6.75683594 308.60009766 C6.02851563 309.38255859 5.30019531 310.16501953 4.54980469 310.97119141 C-1.80512424 317.58550519 -8.94646622 323.08050221 -16.24316406 328.60009766 C-17.17257812 329.31294922 -18.10199219 330.02580078 -19.05957031 330.76025391 C-63.17923533 363.83356465 -120.12969356 377.1559182 -174.52148438 369.99804688 C-228.93012216 362.04271143 -281.27058993 333.79024782 -314.53613281 289.33056641 C-315.44248665 288.08999666 -316.34471087 286.84640117 -317.24316406 285.60009766 C-317.48139893 285.27050049 -317.48139893 285.27050049 -318.68701172 283.60253906 C-340.42706996 253.13780506 -353.59845104 218.68378252 -358.24316406 181.60009766 C-358.37464844 180.61009766 -358.50613281 179.62009766 -358.64160156 178.60009766 C-363.74484292 131.15374559 -351.77019733 78.84715601 -324.24316406 39.60009766 C-323.87578125 39.060625 -323.87578125 39.060625 -322.01660156 36.33056641 C-302.03069931 7.33949413 -275.53633966 -16.21982509 -244.24316406 -32.39990234 C-243.52999023 -32.77211914 -242.81681641 -33.14433594 -242.08203125 -33.52783203 C-162.443833 -74.58963711 -66.03899397 -58.90210988 0 0 Z " fill="#0B64AC" transform="translate(401.2431640625,98.39990234375)"/>
<path d="M0 0 C3.05424472 2.67723638 5.92190034 5.50659346 8.77734375 8.39453125 C9.59074219 9.19761719 10.40414063 10.00070313 11.2421875 10.828125 C26.71821251 26.93906385 34.40095257 48.92445512 34.27734375 71.01953125 C34.27089844 72.23866211 34.26445312 73.45779297 34.2578125 74.71386719 C33.80462061 97.33172057 25.3420287 116.34201455 10.77734375 133.39453125 C10.49697266 133.72582031 10.49697266 133.72582031 9.078125 135.40234375 C0.3435162 144.86300315 -11.36913022 151.70928468 -23.22265625 156.39453125 C-24.17398437 156.77222656 -25.1253125 157.14992188 -26.10546875 157.5390625 C-30.34575747 159.08151085 -34.26178547 160.30034898 -38.76953125 160.7421875 C-52.58460085 162.14826672 -63.22601258 169.08422688 -74.80209351 176.2074585 C-78.88707213 178.68747402 -83.02022192 180.78485277 -87.359375 182.7890625 C-103.04043326 190.26808661 -103.04043326 190.26808661 -105.171875 195.90478516 C-105.99874455 201.62226061 -105.22986989 207.13531458 -104.45507812 212.82080078 C-103.26950047 225.9493298 -112.40783269 241.86182048 -120.28515625 251.95703125 C-121.57705146 253.45422764 -122.88811698 254.93521798 -124.22265625 256.39453125 C-124.49851562 256.71035156 -124.49851562 256.71035156 -125.89453125 258.30859375 C-130.62000064 263.41660114 -136.24288053 266.90632874 -142.22265625 270.39453125 C-142.856875 270.77480469 -143.49109375 271.15507812 -144.14453125 271.546875 C-146.13155738 272.6414978 -148.12389508 273.53013209 -150.22265625 274.39453125 C-151.30417969 274.84054687 -152.38570312 275.2865625 -153.5 275.74609375 C-170.98490302 282.34093559 -192.26677418 281.47600785 -209.28125 273.8671875 C-228.3340648 264.32812883 -243.31882364 248.8635667 -250.09765625 228.51953125 C-251.49713855 224.15425865 -252.57035949 219.93285123 -253.22265625 215.39453125 C-269.63620982 209.8081639 -269.63620982 209.8081639 -277.60668945 207.49169922 C-278.98268784 207.0915456 -280.3562481 206.6829167 -281.72729492 206.26611328 C-285.57546423 205.10607247 -289.39973189 204.12986627 -293.3359375 203.3125 C-305.82481869 200.48247239 -305.82481869 200.48247239 -309.390625 195.15625 C-310.68414827 191.76488321 -311.3240292 188.30866964 -311.85742188 184.72753906 C-312.23430567 182.32011824 -312.74670579 179.97802368 -313.30078125 177.60546875 C-316.83309471 162.12223818 -318.68444698 146.28156429 -318.22265625 130.39453125 C-310.56565649 131.70758541 -303.33934916 133.82916994 -295.97265625 136.26953125 C-293.74530786 136.99507617 -291.51744685 137.71904936 -289.2890625 138.44140625 C-288.23348145 138.78365234 -287.17790039 139.12589844 -286.09033203 139.47851562 C-281.6706534 140.89028425 -277.22000666 142.15523416 -272.75 143.3984375 C-268.14180978 144.69975368 -263.55776448 146.07690398 -258.97265625 147.45703125 C-258.15627686 147.70275879 -257.33989746 147.94848633 -256.4987793 148.20166016 C-255.70125244 148.44190918 -254.90372559 148.6821582 -254.08203125 148.9296875 C-253.28732422 149.16703613 -252.49261719 149.40438477 -251.67382812 149.64892578 C-249.9774081 150.16494837 -248.28621877 150.69836791 -246.59960938 151.24560547 C-237.59849509 154.11525765 -237.59849509 154.11525765 -233.22265625 153.39453125 C-230.94140625 151.70703125 -230.94140625 151.70703125 -228.72265625 149.39453125 C-216.50704782 137.67789624 -199.35229982 130.20703125 -182.34765625 130.20703125 C-180.97202033 130.25347555 -179.59642008 130.30906668 -178.22265625 130.39453125 C-177.95420898 129.67571777 -177.68576172 128.9569043 -177.40917969 128.21630859 C-176.21675104 125.38048754 -174.82896921 122.87736886 -173.23828125 120.24609375 C-172.63902832 119.25246826 -172.03977539 118.25884277 -171.42236328 117.23510742 C-170.77895996 116.17396729 -170.13555664 115.11282715 -169.47265625 114.01953125 C-169.14257568 113.46608032 -169.14257568 113.46608032 -167.47216797 110.6652832 C-164.15808937 105.13013387 -160.77777408 99.67547974 -157.15234375 94.3359375 C-149.12010672 82.31994554 -145.87188332 74.07332313 -146.24951172 59.66992188 C-146.01429266 39.74045252 -132.98158999 20.28030121 -119.78515625 6.58203125 C-88.21250281 -23.85679762 -34.55397385 -28.87068497 0 0 Z " fill="#FDFEFE" transform="translate(360.22265625,125.60546875)"/>
<path d="M0 0 C12.91776355 9.68375485 22.04761076 23.3263868 24.71875 39.37890625 C26.5624205 56.56089108 21.92581709 72.06636383 11.828125 85.99609375 C1.86871294 97.59774928 -12.4844222 105.91999595 -27.91259766 107.15283203 C-46.28639617 108.21641962 -60.46236817 103.01204035 -74.75 91.25 C-86.87334471 80.01425731 -92.79262828 64.06467419 -93.4375 47.875 C-93.17414217 30.51094013 -85.20347947 16.03659428 -73 4 C-52.34988943 -14.39590746 -22.66802229 -14.65580309 0 0 Z " fill="#0E5B9C" transform="translate(338,149)"/>
<path d="M0 0 C6.95473294 5.61931844 11.59024355 12.90048133 13.9296875 21.53515625 C15.0972381 34.39178901 13.53475005 45.26392009 5.05859375 55.4609375 C-3.99996814 64.28680239 -13.12324162 67.00503544 -25.33056641 67.04370117 C-33.04576231 66.87348212 -38.69535411 64.97637726 -45.0703125 60.53515625 C-45.67875 60.14070313 -46.2871875 59.74625 -46.9140625 59.33984375 C-53.70233964 54.38717216 -58.63943636 45.74199959 -60.0703125 37.53515625 C-61.09942425 25.2620457 -59.73946505 15.27741979 -51.8359375 5.41796875 C-37.77412871 -9.57714593 -16.8442129 -11.91807517 0 0 Z " fill="#FDFDFE" transform="translate(327.0703125,167.46484375)"/>
<path d="M0 0 C9.89949749 7.77978732 17.29816573 20.83768322 19.5546875 33.171875 C21.42009371 49.04060452 17.36722387 63.37321888 7.91015625 76.21875 C-1.24823573 87.23901288 -13.92895383 94.31197378 -28.24121094 95.81640625 C-43.83734221 96.94400725 -57.03379883 92.57919491 -69.41015625 82.82421875 C-75.23679437 77.43002642 -79.54425005 70.62751645 -83.16015625 63.59765625 C-83.16015625 62.60765625 -83.16015625 61.61765625 -83.16015625 60.59765625 C-76.94259399 61.87035393 -70.94365793 63.51278054 -64.91015625 65.47265625 C-64.49519897 65.60389893 -64.49519897 65.60389893 -62.39526367 66.26806641 C-58.77286797 67.41552683 -55.17724593 68.59150321 -51.6015625 69.87890625 C-40.82403712 73.64633085 -28.78869223 74.87793653 -18.203125 69.7890625 C-10.2210594 65.13412941 -5.63130454 58.4526043 -3.16015625 49.59765625 C-1.94680932 39.30754097 -3.14051173 31.13834847 -9.16015625 22.59765625 C-14.16480871 16.69473284 -19.94174042 14.00379486 -27.16015625 11.59765625 C-28.29710937 11.19804687 -29.4340625 10.7984375 -30.60546875 10.38671875 C-38.26990822 7.74656737 -45.97008512 5.5392345 -53.81640625 3.51171875 C-57.72425641 2.4434513 -61.41237553 1.12736267 -65.16015625 -0.40234375 C-46.46777388 -17.8055963 -19.54974197 -12.69142381 0 0 Z " fill="#0B67B1" transform="translate(215.16015625,288.40234375)"/>
<path d="M0 0 C12.91776355 9.68375485 22.04761076 23.3263868 24.71875 39.37890625 C26.5624205 56.56089108 21.92581709 72.06636383 11.828125 85.99609375 C1.86871294 97.59774928 -12.4844222 105.91999595 -27.91259766 107.15283203 C-46.28639617 108.21641962 -60.46236817 103.01204035 -74.75 91.25 C-86.87334471 80.01425731 -92.79262828 64.06467419 -93.4375 47.875 C-93.17414217 30.51094013 -85.20347947 16.03659428 -73 4 C-52.34988943 -14.39590746 -22.66802229 -14.65580309 0 0 Z M-68 7 C-69.84745431 8.9103258 -71.37589272 10.87963772 -73 13 C-73.39767578 13.37833984 -73.39767578 13.37833984 -75.41015625 15.29296875 C-78.12205018 18.12757282 -79.83413041 20.80148311 -81.6875 24.25 C-82.26886719 25.30703125 -82.85023438 26.3640625 -83.44921875 27.453125 C-88.43181979 38.84909917 -89.06510956 53.69264759 -85.375 65.5625 C-83.1796797 71.0854637 -80.39845418 76.12970921 -77 81 C-76.76087891 81.34353516 -76.76087891 81.34353516 -75.55078125 83.08203125 C-67.2138535 93.72893898 -54.16454661 100.11237651 -41 102 C-24.18874313 103.06999432 -10.82565936 99.37488733 2.3125 88.6875 C12.7129637 78.97752352 18.44784566 66.32103883 19.203125 52.203125 C19.38768863 36.63825894 15.85735242 23.00208893 4.9375 11.1875 C-15.14025675 -7.41697426 -46.13518905 -10.83708262 -68 7 Z " fill="#145892" transform="translate(338,149)"/>
</svg>
