<?xml version="1.0" encoding="UTF-8"?>
<!-- Generator: visioncortex VTracer 0.6.12 -->
<svg version="1.1" xmlns="http://www.w3.org/2000/svg" width="512" height="512">
<path d="M0 0 C1.25941406 0.17660156 2.51882813 0.35320312 3.81640625 0.53515625 C24.01424765 3.6794178 41.44544809 11.69973098 57 25 C57.5878125 25.4434375 58.175625 25.886875 58.78125 26.34375 C77.48560092 40.81315354 88.25865179 66.19130534 91.5625 88.859375 C94.73223654 115.85025911 87.62069926 143.15928871 71.125 164.8125 C53.67301972 186.86778516 29.93433504 200.76848448 1.96875 204.61328125 C-26.71285352 207.4080438 -54.57183346 199.90444827 -77.0078125 181.5546875 C-98.3161125 163.36196139 -111.27190007 138.99747 -114 111 C-115.695344 82.85324505 -107.61819428 58.13139395 -90 36 C-89.76861328 35.69707031 -89.76861328 35.69707031 -88.59765625 34.1640625 C-72.08283081 13.14519375 -44.47305321 2.65376348 -18.7578125 -0.5625 C-12.38312436 -1.23058959 -6.33584737 -0.93622487 0 0 Z M-65 41 C-65.82886719 41.73734375 -66.65773438 42.4746875 -67.51171875 43.234375 C-77.48836304 52.58461436 -84.62707164 64.05270231 -89 77 C-89.31839844 77.92167969 -89.63679688 78.84335938 -89.96484375 79.79296875 C-95.97519014 100.75993748 -92.40095491 123.48668865 -82.1328125 142.375 C-79.26724305 147.38390109 -75.90429816 151.7558833 -72 156 C-71.26265625 156.82886719 -70.5253125 157.65773438 -69.765625 158.51171875 C-60.41538564 168.48836304 -48.94729769 175.62707164 -36 180 C-35.07832031 180.31839844 -34.15664062 180.63679687 -33.20703125 180.96484375 C-12.24006252 186.97519014 10.48668865 183.40095491 29.375 173.1328125 C34.38390109 170.26724305 38.7558833 166.90429816 43 163 C43.82886719 162.26265625 44.65773438 161.5253125 45.51171875 160.765625 C55.48836304 151.41538564 62.62707164 139.94729769 67 127 C67.31839844 126.07832031 67.63679687 125.15664063 67.96484375 124.20703125 C73.97519014 103.24006252 70.40095491 80.51331135 60.1328125 61.625 C57.26724305 56.61609891 53.90429816 52.2441167 50 48 C49.26265625 47.17113281 48.5253125 46.34226562 47.765625 45.48828125 C38.41538564 35.51163696 26.94729769 28.37292836 14 24 C13.07832031 23.68160156 12.15664063 23.36320312 11.20703125 23.03515625 C-15.19520581 15.46674748 -44.90074925 22.51005894 -65 41 Z " fill="#000000" transform="translate(267,154)"/>
<path d="M0 0 C0.65404312 -0.0049649 1.30808624 -0.00992981 1.98194885 -0.01504517 C4.14447078 -0.02964268 6.30691933 -0.03646515 8.46948242 -0.04199219 C9.97539776 -0.04774616 11.48131308 -0.05350386 12.98722839 -0.05926514 C16.14546042 -0.06976863 19.30366703 -0.07561538 22.46191406 -0.07910156 C26.50035809 -0.08458127 30.5384641 -0.10860056 34.57680225 -0.13707352 C37.68842028 -0.15573824 40.79995755 -0.16090755 43.91162682 -0.16243744 C45.39991794 -0.16545647 46.88820789 -0.17345964 48.37644386 -0.18662262 C50.46346024 -0.20376217 52.5496597 -0.2017841 54.63671875 -0.1953125 C55.22953896 -0.19713531 55.22953896 -0.19713531 58.22956848 -0.20635986 C61.95807882 0.21101729 64.33618669 1.18492473 67.51245117 3.16113281 C69.97966003 7.09324694 70.87144411 9.90328897 69.94995117 14.41113281 C69.12184639 17.05391166 68.57644761 18.09713637 66.57495117 20.09863281 C62.59993841 22.14636666 59.4251187 22.29684726 55.0090332 22.32226562 C54.6812085 22.32474808 54.6812085 22.32474808 53.0222168 22.33731079 C50.85488838 22.35190634 48.68763315 22.35872988 46.52026367 22.36425781 C45.0119527 22.37001123 43.50364175 22.37576894 41.99533081 22.38153076 C38.83290263 22.3920332 35.67049981 22.39788087 32.50805664 22.40136719 C28.46054668 22.40685162 24.41337317 22.43088145 20.3659687 22.45933914 C17.250102 22.47798429 14.13431606 22.4831721 11.01839828 22.48470306 C9.52648961 22.48772569 8.03458223 22.4957411 6.54272842 22.50888824 C4.45311288 22.52598939 2.36431579 22.52405922 0.2746582 22.51757812 C-0.31927231 22.51940094 -0.31927231 22.51940094 -3.32492065 22.52862549 C-7.61960049 22.0295901 -10.17970615 20.37877945 -13.30004883 17.47363281 C-15.05821564 14.04983427 -15.26320689 10.86863603 -14.48754883 7.16113281 C-10.9509458 0.86028833 -6.83363837 0.03943373 0 0 Z " fill="#000000" transform="translate(53.487548828125,244.8388671875)"/>
<path d="M0 0 C0.65404312 -0.0049649 1.30808624 -0.00992981 1.98194885 -0.01504517 C4.14447078 -0.02964268 6.30691933 -0.03646515 8.46948242 -0.04199219 C9.97539776 -0.04774616 11.48131308 -0.05350386 12.98722839 -0.05926514 C16.14546042 -0.06976863 19.30366703 -0.07561538 22.46191406 -0.07910156 C26.50035809 -0.08458127 30.5384641 -0.10860056 34.57680225 -0.13707352 C37.68842028 -0.15573824 40.79995755 -0.16090755 43.91162682 -0.16243744 C45.39991794 -0.16545647 46.88820789 -0.17345964 48.37644386 -0.18662262 C50.46346024 -0.20376217 52.5496597 -0.2017841 54.63671875 -0.1953125 C55.22953896 -0.19713531 55.22953896 -0.19713531 58.22956848 -0.20635986 C61.94762668 0.20984726 64.33381772 1.21287475 67.51245117 3.16113281 C69.91660586 6.57348141 70.51245117 8.54302972 70.51245117 12.72363281 C69.32061064 16.82058463 67.80165934 18.49844048 64.51245117 21.16113281 C61.14948154 22.28212269 58.57010304 22.30864008 55.02490234 22.33813477 C54.69788078 22.34142036 54.69788078 22.34142036 53.04295349 22.35804749 C50.88044107 22.37774296 48.71799797 22.38943463 46.55541992 22.39941406 C46.18543286 22.40145183 46.18543286 22.40145183 44.31307411 22.41176414 C40.39638169 22.43260891 36.47972414 22.44691748 32.56298828 22.45629883 C28.52444345 22.46736 24.48645009 22.5017604 20.44810009 22.54147053 C17.33648171 22.56765569 14.22499439 22.5759923 11.11327553 22.57958031 C9.62496529 22.58444141 8.13666072 22.59604194 6.64845848 22.6146183 C4.56125944 22.63905221 2.47548283 22.63803817 0.38818359 22.63110352 C-0.20463661 22.63403664 -0.20463661 22.63403664 -3.20466614 22.64888 C-7.18463889 22.05756417 -9.35155785 20.6325298 -12.48754883 18.16113281 C-15.0374963 14.53069913 -14.61939898 11.5202387 -14.03442383 7.28613281 C-13.26679363 4.30334117 -11.97831746 2.91932243 -9.48754883 1.16113281 C-6.12059436 0.03881466 -3.54941237 0.020482 0 0 Z " fill="#000000" transform="translate(401.487548828125,244.8388671875)"/>
<path d="M0 0 C6.52087365 4.64217669 12.07941829 10.93322307 17.71484375 16.58203125 C18.61119034 17.47742111 19.50753693 18.37281097 20.43104553 19.29533386 C22.31049602 21.17410776 24.18892187 23.05383991 26.06567383 24.93530273 C28.47204276 27.34741773 30.88294124 29.75494807 33.29515743 32.16121387 C35.60414433 34.46573023 37.90933144 36.7740396 40.21484375 39.08203125 C41.08141098 39.94657425 41.94797821 40.81111725 42.84080505 41.70185852 C43.63575882 42.49996445 44.43071259 43.29807037 45.24975586 44.12036133 C45.9517662 44.82316727 46.65377655 45.52597321 47.37705994 46.25007629 C50.43699826 49.54943326 50.32785717 52.40513897 50.29296875 56.73828125 C49.86344199 60.0542278 48.39075646 61.74987627 46 64 C42.40847623 65.79576189 38.90447558 65.68453317 35 65 C33.11422729 63.75431824 33.11422729 63.75431824 31.30029297 62.06323242 C30.61014099 61.424935 29.91998901 60.78663757 29.20892334 60.1289978 C28.47997864 59.42642853 27.75103394 58.72385925 27 58 C26.24962463 57.27801422 25.49924927 56.55602844 24.72613525 55.81216431 C22.23984982 53.38811778 19.777281 50.94203027 17.3203125 48.48828125 C16.42633759 47.59763474 15.53236267 46.70698822 14.61129761 45.78935242 C12.73596242 43.91905134 10.86177512 42.04767516 8.98925781 40.17456055 C6.59364637 37.77884671 4.19117873 35.3901347 1.78697395 33.0030489 C-0.51890397 30.71095591 -2.81759995 28.41168249 -5.1171875 26.11328125 C-5.97859344 25.25906082 -6.83999939 24.40484039 -7.72750854 23.5247345 C-8.52238678 22.72677963 -9.31726501 21.92882477 -10.13623047 21.10668945 C-10.8360202 20.40832474 -11.53580994 19.70996002 -12.25680542 18.99043274 C-14.77516995 16.11488731 -15.8807922 13.9139265 -16.375 10.125 C-15.82364822 5.53040185 -13.81553017 2.49132835 -10.25 -0.4375 C-6.61333737 -1.34666566 -3.50770552 -1.19273959 0 0 Z " fill="#000000" transform="translate(116,101)"/>
<path d="M0 0 C3.34768735 1.73822228 5.43753452 3.09516422 7.4375 6.3125 C8.22125727 10.05711806 8.06896653 12.29005734 7 16 C2.24555263 22.47739316 -3.90971085 28.05596178 -9.58203125 33.71484375 C-10.47742111 34.61119034 -11.37281097 35.50753693 -12.29533386 36.43104553 C-14.17410776 38.31049602 -16.05383991 40.18892187 -17.93530273 42.06567383 C-20.34741773 44.47204276 -22.75494807 46.88294124 -25.16121387 49.29515743 C-27.46573023 51.60414433 -29.7740396 53.90933144 -32.08203125 56.21484375 C-32.94657425 57.08141098 -33.81111725 57.94797821 -34.70185852 58.84080505 C-35.49996445 59.63575882 -36.29807037 60.43071259 -37.12036133 61.24975586 C-37.82316727 61.9517662 -38.52597321 62.65377655 -39.25007629 63.37705994 C-42.54943326 66.43699826 -45.40513897 66.32785717 -49.73828125 66.29296875 C-53.0542278 65.86344199 -54.74987627 64.39075646 -57 62 C-58.79576189 58.40847623 -58.68453317 54.90447558 -58 51 C-56.75431824 49.11422729 -56.75431824 49.11422729 -55.06323242 47.30029297 C-54.424935 46.61014099 -53.78663757 45.91998901 -53.1289978 45.20892334 C-52.42642853 44.47997864 -51.72385925 43.75103394 -51 43 C-50.27801422 42.24962463 -49.55602844 41.49924927 -48.81216431 40.72613525 C-46.38811778 38.23984982 -43.94203027 35.777281 -41.48828125 33.3203125 C-40.59763474 32.42633759 -39.70698822 31.53236267 -38.78935242 30.61129761 C-36.91905134 28.73596242 -35.04767516 26.86177512 -33.17456055 24.98925781 C-30.77884671 22.59364637 -28.3901347 20.19117873 -26.0030489 17.78697395 C-23.71095591 15.48109603 -21.41168249 13.18240005 -19.11328125 10.8828125 C-18.25906082 10.02140656 -17.40484039 9.16000061 -16.5247345 8.27249146 C-15.72677963 7.47761322 -14.92882477 6.68273499 -14.10668945 5.86376953 C-13.40832474 5.1639798 -12.70996002 4.46419006 -11.99043274 3.74319458 C-8.15352246 0.38287947 -5.10661323 -0.61279359 0 0 Z " fill="#000000" transform="translate(404,100)"/>
<path d="M0 0 C1.83570862 1.29203796 1.83570862 1.29203796 3.66625977 2.96362305 C4.36091339 3.59738861 5.05556702 4.23115417 5.77127075 4.88412476 C9.81442463 8.72254936 13.77750413 12.63534144 17.71484375 16.58203125 C18.61119034 17.47742111 19.50753693 18.37281097 20.43104553 19.29533386 C22.31049602 21.17410776 24.18892187 23.05383991 26.06567383 24.93530273 C28.47204276 27.34741773 30.88294124 29.75494807 33.29515743 32.16121387 C35.60414433 34.46573023 37.90933144 36.7740396 40.21484375 39.08203125 C41.08141098 39.94657425 41.94797821 40.81111725 42.84080505 41.70185852 C43.63575882 42.49996445 44.43071259 43.29807037 45.24975586 44.12036133 C45.9517662 44.82316727 46.65377655 45.52597321 47.37705994 46.25007629 C50.43699826 49.54943326 50.32785717 52.40513897 50.29296875 56.73828125 C49.86344199 60.0542278 48.39075646 61.74987627 46 64 C42.4085517 65.79572415 38.90438499 65.68472933 35 65 C33.11422729 63.75308228 33.11422729 63.75308228 31.30029297 62.06103516 C30.61014099 61.42272766 29.91998901 60.78442017 29.20892334 60.12677002 C28.47997864 59.42493591 27.75103394 58.72310181 27 58 C26.24962463 57.28028015 25.49924927 56.5605603 24.72613525 55.81903076 C22.23986438 53.40445765 19.77713266 50.96796322 17.3203125 48.5234375 C16.42633759 47.63516266 15.53236267 46.74688782 14.61129761 45.83169556 C12.73589745 43.96568727 10.86190481 42.09826341 8.98925781 40.22949219 C6.59533478 37.8410943 4.19223647 35.46215057 1.78697395 33.08518028 C-0.52097007 30.80034429 -2.81834852 28.50492853 -5.1171875 26.2109375 C-5.97859344 25.36187836 -6.83999939 24.51281921 -7.72750854 23.63803101 C-8.52238678 22.84015167 -9.31726501 22.04227234 -10.13623047 21.22021484 C-10.8360202 20.52407074 -11.53580994 19.82792664 -12.25680542 19.11068726 C-15.11728503 15.64717382 -16.01747773 12.97875293 -15.9375 8.5 C-14.82276962 4.33833993 -13.28026327 2.72021832 -10 0 C-6.65008091 -1.67495954 -3.44978405 -1.07935994 0 0 Z " fill="#000000" transform="translate(362,347)"/>
<path d="M0 0 C3.17921096 2.41896486 4.6866752 4.09919119 6 7.875 C6 15.93864265 1.09630046 20.3652616 -4.30201721 25.78085327 C-5.29611091 26.75783909 -6.29049752 27.73452694 -7.28515625 28.7109375 C-8.3082112 29.72906277 -9.33045114 30.74800759 -10.35191345 31.76773071 C-12.48522546 33.89343303 -14.62480049 36.0125326 -16.76977539 38.12646484 C-19.52125786 40.83819811 -22.26170182 43.5607504 -24.99820805 46.28758812 C-27.61116782 48.89059059 -30.22906159 51.48860553 -32.84765625 54.0859375 C-33.34713335 54.58201885 -33.84661045 55.0781002 -34.36122322 55.58921432 C-35.77074061 56.98717968 -37.18422501 58.38114185 -38.59790039 59.77490234 C-39.40159561 60.56875336 -40.20529083 61.36260437 -41.03334045 62.18051147 C-44.47602842 65.36557279 -47.20607379 65.32945995 -51.73828125 65.29296875 C-55.0542278 64.86344199 -56.74987627 63.39075646 -59 61 C-60.79572415 57.4085517 -60.68472933 53.90438499 -60 50 C-58.75308228 48.11422729 -58.75308228 48.11422729 -57.06103516 46.30029297 C-56.42272766 45.61014099 -55.78442017 44.91998901 -55.12677002 44.20892334 C-54.77585297 43.84445099 -54.77585297 43.84445099 -53 42 C-52.28028015 41.24962463 -51.5605603 40.49924927 -50.81903076 39.72613525 C-48.40445765 37.23986438 -45.96796322 34.77713266 -43.5234375 32.3203125 C-42.63516266 31.42633759 -41.74688782 30.53236267 -40.83169556 29.61129761 C-38.96568727 27.73589745 -37.09826341 25.86190481 -35.22949219 23.98925781 C-32.8410943 21.59533478 -30.46215057 19.19223647 -28.08518028 16.78697395 C-25.80034429 14.47902993 -23.50492853 12.18165148 -21.2109375 9.8828125 C-20.36187836 9.02140656 -19.51281921 8.16000061 -18.63803101 7.27249146 C-17.84015167 6.47761322 -17.04227234 5.68273499 -16.22021484 4.86376953 C-15.87214279 4.51387466 -15.87214279 4.51387466 -14.11068726 2.74319458 C-9.50884486 -1.05741903 -5.73322732 -1.53568589 0 0 Z " fill="#000000" transform="translate(160,347)"/>
<path d="M0 0 C3.04600855 2.96985833 4.92132351 5.46295341 5.14044189 9.74371338 C5.1472699 10.91142273 5.1540979 12.07913208 5.16113281 13.28222656 C5.16609772 13.92637009 5.17106262 14.57051361 5.17617798 15.23417664 C5.19080671 17.36967024 5.19760396 19.50508947 5.203125 21.640625 C5.2088774 23.12554934 5.21463513 24.61047365 5.22039795 26.09539795 C5.23091101 29.21252794 5.23675116 32.32963212 5.24023438 35.44677734 C5.24570922 39.43256526 5.26971397 43.41800986 5.29820633 47.40369034 C5.31687511 50.47327656 5.32204063 53.54278094 5.32357025 56.61241913 C5.32658952 58.08117289 5.33459351 59.54992546 5.34775543 61.01862335 C5.36489977 63.07940859 5.36291553 65.13936678 5.35644531 67.20019531 C5.36009094 68.37108704 5.36373657 69.54197876 5.36749268 70.74835205 C4.94858743 74.45490863 3.95195802 76.83507067 2 80 C-2.22994616 82.8199641 -6.03220448 82.79231188 -11 82 C-14.34625024 79.47323961 -15.67977847 77.96066458 -17 74 C-17.10945059 71.87007674 -17.15898863 69.73690555 -17.17700195 67.60424805 C-17.18357315 66.9599585 -17.19014435 66.31566895 -17.19691467 65.65185547 C-17.21660845 63.52180864 -17.22830146 61.39183219 -17.23828125 59.26171875 C-17.24235678 58.53277719 -17.2464323 57.80383564 -17.25063133 57.05280495 C-17.27147543 53.19446727 -17.28578425 49.33616497 -17.29516602 45.4777832 C-17.30622677 41.49976872 -17.34062682 37.52231416 -17.38033772 33.54449749 C-17.4065252 30.47920211 -17.4148597 27.41403975 -17.41844749 24.34864235 C-17.42330804 22.88266023 -17.43490699 21.41668384 -17.45348549 19.95081139 C-17.47792439 17.89473884 -17.47690453 15.84010989 -17.4699707 13.78393555 C-17.47583694 12.61606003 -17.48170319 11.44818451 -17.48774719 10.24491882 C-16.89320284 6.28949235 -15.45362544 4.11987798 -13 1 C-8.91550734 -1.86076569 -4.63224851 -1.34539571 0 0 Z " fill="#000000" transform="translate(262,41)"/>
<path d="M0 0 C3.11905047 2.57660691 4.7181368 4.1544104 6 8 C6.10433306 10.0994138 6.14862785 12.20198759 6.16113281 14.30395508 C6.17074036 15.60573196 6.1803479 16.90750885 6.19024658 18.24873352 C6.19509497 19.67233098 6.1993737 21.09593048 6.203125 22.51953125 C6.20887922 23.98060609 6.21463692 25.44168092 6.22039795 26.90275574 C6.23090075 29.96683096 6.23674794 33.03088001 6.24023438 36.0949707 C6.24571365 40.01235101 6.26973226 43.92938279 6.29820633 47.84665394 C6.31687441 50.86562597 6.32204054 53.8845148 6.32357025 56.90353966 C6.32658857 58.34717397 6.33458936 59.79080711 6.34775543 61.23438454 C6.36489916 63.25880628 6.36107888 65.28337229 6.35644531 67.30786133 C6.36009094 68.45797195 6.36373657 69.60808258 6.36749268 70.79304504 C5.94630888 74.46853998 4.92076874 76.85285521 3 80 C-0.41234859 82.40415469 -2.38189691 83 -6.5625 83 C-10.65945182 81.80815947 -12.33730767 80.28920817 -15 77 C-16.10527403 73.6841779 -16.14035161 71.18917253 -16.16113281 67.69604492 C-16.17074036 66.39426804 -16.1803479 65.09249115 -16.19024658 63.75126648 C-16.19509497 62.32766902 -16.1993737 60.90406952 -16.203125 59.48046875 C-16.20887922 58.01939391 -16.21463692 56.55831908 -16.22039795 55.09724426 C-16.23090075 52.03316904 -16.23674794 48.96911999 -16.24023438 45.9050293 C-16.24571365 41.98764899 -16.26973226 38.07061721 -16.29820633 34.15334606 C-16.31687441 31.13437403 -16.32204054 28.1154852 -16.32357025 25.09646034 C-16.32658857 23.65282603 -16.33458936 22.20919289 -16.34775543 20.76561546 C-16.36489916 18.74119372 -16.36107888 16.71662771 -16.35644531 14.69213867 C-16.36009094 13.54202805 -16.36373657 12.39191742 -16.36749268 11.20695496 C-15.94630888 7.53146002 -14.92076874 5.14714479 -13 2 C-8.47609191 -1.18729888 -5.29441691 -1.54019401 0 0 Z " fill="#000000" transform="translate(261,389)"/>
</svg>
