<?xml version="1.0" encoding="UTF-8"?>
<!-- Generator: visioncortex VTracer 0.6.12 -->
<svg version="1.1" xmlns="http://www.w3.org/2000/svg" width="512" height="512">
<path d="M0 0 C0.96164062 0.75796875 1.92328125 1.5159375 2.9140625 2.296875 C18.21236246 14.76789421 32.45684731 28.96784348 44 45 C44.63679688 45.86496094 45.27359375 46.72992188 45.9296875 47.62109375 C81.74457321 97.36399056 96.96449412 160.29339416 88.03125 220.9296875 C81.40247172 261.47834514 65.77888721 299.82145897 40 332 C39.24203125 332.96164062 38.4840625 333.92328125 37.703125 334.9140625 C25.23210579 350.21236246 11.03215652 364.45684731 -5 376 C-5.86496094 376.63679688 -6.72992188 377.27359375 -7.62109375 377.9296875 C-58.37859546 414.47508873 -122.06353166 429.10973971 -183.78808594 419.54785156 C-225.7232292 412.39503448 -265.70447956 394.9285161 -298 367 C-298.37898438 366.67644531 -298.37898438 366.67644531 -300.296875 365.0390625 C-313.44427469 353.52405807 -325.69316954 341.13004791 -336 327 C-336.64066406 326.13117188 -337.28132813 325.26234375 -337.94140625 324.3671875 C-351.07234526 306.09550056 -361.3478963 286.12655187 -369 265 C-369.27827637 264.23252441 -369.55655273 263.46504883 -369.84326172 262.67431641 C-390.44895676 204.61276533 -385.42015472 138.61366762 -359.25 83.25 C-349.15626714 62.47641557 -336.02969261 44.43169827 -321 27 C-320.34902344 26.22398438 -319.69804687 25.44796875 -319.02734375 24.6484375 C-315.67731073 20.69555116 -312.1542567 17.23239539 -308.1953125 13.890625 C-306.65584101 12.56481682 -305.15302875 11.19580508 -303.6796875 9.796875 C-281.46325975 -11.26457027 -253.63497016 -26.60966197 -225 -37 C-224.2378418 -37.27827637 -223.47568359 -37.55655273 -222.69042969 -37.84326172 C-208.80171578 -42.81380145 -194.52870605 -45.59893763 -180 -48 C-179.20835449 -48.13422363 -178.41670898 -48.26844727 -177.60107422 -48.40673828 C-115.7440671 -58.45938561 -48.50873376 -38.86133853 0 0 Z M-67.27734375 96.5390625 C-67.6669075 96.67175789 -67.6669075 96.67175789 -69.63833618 97.34327698 C-77.70972154 100.15122669 -85.55440487 103.45557346 -93.38973999 106.8583374 C-96.8621643 108.36615164 -100.34166445 109.85732693 -103.82078552 111.34960938 C-105.61372501 112.1187048 -107.40633841 112.88856085 -109.19862366 113.65917969 C-117.66752204 117.29767296 -126.17311135 120.84459983 -134.6875 124.375 C-164.42353051 136.72297041 -194.06462664 149.29949308 -223.68798828 161.91503906 C-231.56375101 165.26855337 -239.44371979 168.61115664 -247.3359375 171.92578125 C-249.56185202 172.8626894 -251.78760904 173.7999706 -254.01330566 174.73739624 C-255.38587736 175.31432623 -256.75913279 175.88963316 -258.13317871 176.46304321 C-265.02556666 179.33949738 -271.87536432 182.30834283 -278.6171875 185.5234375 C-279.72433105 186.04599121 -280.83147461 186.56854492 -281.97216797 187.10693359 C-285.6465737 189.40425193 -287.51318789 191.45800253 -290 195 C-290.1875 198.625 -290.1875 198.625 -289 202 C-283.50763388 206.72821083 -276.56148183 208.33015262 -269.75 210.4375 C-268.49960937 210.82929443 -267.24921875 211.22108887 -265.9609375 211.62475586 C-262.31075666 212.76143911 -258.65585446 213.88172646 -255 215 C-254.05189453 215.29680664 -253.10378906 215.59361328 -252.12695312 215.89941406 C-238.15644998 220.26185087 -225.82288139 222.33677468 -212 216 C-204.82027782 212.03275439 -198.09281757 207.29003851 -191.3125 202.6875 C-189.35970958 201.37885799 -187.4060032 200.07158184 -185.45141602 198.765625 C-180.54609019 195.48236997 -175.65381199 192.18027596 -170.76599121 188.87103271 C-167.36461609 186.57019962 -163.95721697 184.27841143 -160.54922485 181.98739624 C-147.25801917 173.05120885 -134.01060808 164.04938728 -120.81225586 154.9765625 C-119.53016918 154.09549489 -118.24507939 153.21877583 -116.95654297 152.34716797 C-115.51623598 151.35545173 -114.09607367 150.33432078 -112.68798828 149.29736328 C-111.90536621 148.73645996 -111.12274414 148.17555664 -110.31640625 147.59765625 C-109.6107251 147.07824463 -108.90504395 146.55883301 -108.17797852 146.02368164 C-105.39650066 144.71634652 -103.89049066 145.14155434 -101 146 C-100.5390625 148.50024414 -100.5390625 148.50024414 -101 152 C-103.11780759 155.00017784 -105.73513597 157.45544722 -108.375 159.99609375 C-109.13288818 160.74786392 -109.89077637 161.49963409 -110.67163086 162.27418518 C-113.10071823 164.67633635 -115.55007148 167.05662761 -118 169.4375 C-119.61980641 171.03577591 -121.23831145 172.63537186 -122.85546875 174.23632812 C-134.69290191 185.90798214 -134.69290191 185.90798214 -140.01806641 190.51147461 C-144.23099826 194.15705267 -148.19794555 198.01893784 -152.1484375 201.9453125 C-152.8870401 202.67821503 -153.6256427 203.41111755 -154.3866272 204.16622925 C-155.93246894 205.70269642 -157.47691775 207.24056621 -159.02001953 208.77978516 C-161.38258942 211.13255795 -163.7556165 213.47445353 -166.12890625 215.81640625 C-167.63607266 217.31704978 -169.1426058 218.81832965 -170.6484375 220.3203125 C-171.00258224 220.66828384 -171.00258224 220.66828384 -172.79476929 222.42922974 C-178.95553793 228.61823748 -178.95553793 228.61823748 -180 233 C-179.80918374 238.24744725 -178.65127735 242.2082889 -175 246 C-168.59170067 251.37131999 -161.41443455 255.65128386 -154.30957031 260.02001953 C-149.41145138 263.05484753 -144.68340307 266.26968425 -140 269.625 C-132.96638584 274.66099464 -125.82494958 279.51734246 -118.625 284.3125 C-117.63886719 284.97008301 -116.65273438 285.62766602 -115.63671875 286.30517578 C-89.99640612 303.33705459 -89.99640612 303.33705459 -79 303 C-73.67613104 300.87045241 -70.82508012 296.74911865 -68.42651367 291.66430664 C-67.92982704 290.39774578 -67.44855845 289.12506223 -66.98046875 287.84765625 C-66.72307419 287.14810318 -66.46567963 286.44855011 -66.20048523 285.72779846 C-63.29515821 277.474105 -61.7770734 269.04225792 -60.3125 260.4375 C-59.98416157 258.5703312 -59.65545188 256.70322766 -59.32641602 254.83618164 C-52.37491993 214.92554423 -46.39576279 174.8100408 -40.8125 134.6875 C-40.66384491 133.63223114 -40.51518982 132.57696228 -40.36203003 131.48971558 C-39.94846246 128.53971695 -39.54464629 125.58856849 -39.14453125 122.63671875 C-39.02637054 121.79832458 -38.90820984 120.95993042 -38.78646851 120.09613037 C-36.56026944 103.27686044 -36.56026944 103.27686044 -41 97 C-49.07868474 91.1855833 -58.53125707 93.50891505 -67.27734375 96.5390625 Z " fill="#000000" transform="translate(402,70)"/>
</svg>
