<?xml version="1.0" encoding="UTF-8"?>
<!-- Generator: visioncortex VTracer 0.6.12 -->
<svg version="1.1" xmlns="http://www.w3.org/2000/svg" width="512" height="512">
<path d="M0 0 C40.73258691 37.09857902 66.02515215 90.53183589 68.75683594 145.60009766 C71.35658136 205.24748248 50.85149524 260.57794808 10.75683594 304.60009766 C-27.93161451 345.99314124 -82.40228689 369.90666696 -138.90722656 371.81884766 C-198.08328558 373.11538802 -253.02557579 351.0823785 -295.70410156 310.33056641 C-335.85961751 271.24795203 -358.30392739 216.78829495 -359.52661133 160.9831543 C-360.09627253 102.0016777 -337.31308052 47.55856006 -296.32836914 5.44873047 C-227.86859712 -63.56894457 -117.13368472 -75.618845 0 0 Z " fill="#1EA1E4" transform="translate(401.2431640625,98.39990234375)"/>
<path d="M0 0 C3.53710408 3.10574992 4.45398771 4.89035912 4.83128357 9.61781311 C4.80013664 18.9671966 4.01852284 27.87929969 2.47265625 37.12109375 C2.24950926 38.51200967 2.02750193 39.90310883 1.80653381 41.29437256 C1.21570413 44.99542162 0.61001289 48.69388795 0.00125885 52.39202499 C-0.63525902 56.27528481 -1.25777791 60.16078631 -1.88134766 64.04614258 C-2.77321735 69.59668375 -3.66916034 75.14653618 -4.57033157 80.69557476 C-6.07828629 89.98477469 -7.54886619 99.27928454 -8.99609375 108.578125 C-9.09535912 109.21450142 -9.09535912 109.21450142 -9.59770203 112.43495178 C-11.1043441 122.09437223 -11.1043441 122.09437223 -11.84103394 126.84786987 C-13.74402896 139.10557936 -15.7488263 151.34194451 -17.9453125 163.55078125 C-18.13431122 164.6301445 -18.32330994 165.70950775 -18.51803589 166.82157898 C-23.30305839 192.88773041 -23.30305839 192.88773041 -32.25 199.25 C-38.83955733 201.3173121 -42.85758787 200.78543152 -49 197.875 C-53.56818579 195.39119885 -57.91498557 192.67920475 -62.22265625 189.765625 C-63.5508784 188.87364176 -64.87925409 187.98188712 -66.20776367 187.09033203 C-66.89889252 186.62564514 -67.59002136 186.16095825 -68.30209351 185.68218994 C-71.91898562 183.25638646 -75.55029362 180.85235079 -79.1796875 178.4453125 C-81.4587671 176.9309086 -83.73746653 175.415934 -86.01611328 173.90087891 C-87.54290345 172.88637342 -89.07024466 171.87269672 -90.59814453 170.85986328 C-99.0058415 165.28533159 -107.37204646 159.65785979 -115.6328125 153.8671875 C-116.31495819 153.39201691 -116.99710388 152.91684631 -117.69992065 152.42727661 C-130.23797896 143.57499968 -130.23797896 143.57499968 -132.4375 138.25 C-132.94977187 134.92023282 -133.13843976 132.45931184 -131.40576172 129.4699707 C-127.05653719 123.75738822 -122.17267319 118.72134199 -117.0625 113.6875 C-116.25039062 112.87603516 -115.43828125 112.06457031 -114.6015625 111.22851562 C-110.3005257 106.95849592 -105.91031189 102.86747509 -101.31787109 98.91430664 C-98.21483221 96.16782312 -95.33511169 93.20988186 -92.4375 90.25 C-85.20560323 82.93428827 -85.20560323 82.93428827 -81.5 79.8125 C-76.70413284 75.76404071 -72.36978535 71.23110824 -67.97875977 66.75415039 C-64.40033752 63.12681818 -60.76992721 59.76725766 -56.75 56.63061523 C-55.4375 55.25 -55.4375 55.25 -55 51.875 C-55.0721875 51.441875 -55.0721875 51.441875 -55.4375 49.25 C-60.97970767 48.3177491 -64.47701403 51.5600781 -68.78515625 54.57421875 C-69.61347458 55.13947266 -70.44179291 55.70472656 -71.29521179 56.28710938 C-73.09364659 57.51597519 -74.88854404 58.75003018 -76.68029785 59.98861694 C-81.49646964 63.3173925 -86.33821544 66.60868173 -91.17578125 69.90625 C-92.17833954 70.59128098 -93.18089783 71.27631195 -94.21383667 71.98210144 C-105.12258417 79.42592496 -116.14771153 86.69004605 -127.1875 93.9375 C-129.88835663 95.71183259 -132.58909144 97.48635031 -135.28971863 99.2610321 C-136.97833117 100.37039955 -138.6672957 101.47923144 -140.35664368 102.58747864 C-144.20793632 105.11611246 -148.05131105 107.65511492 -151.87548828 110.22460938 C-152.56354553 110.68656204 -153.25160278 111.14851471 -153.96051025 111.62446594 C-155.22587167 112.47573065 -156.48964341 113.32936572 -157.75140381 114.18595886 C-168.17481246 121.20088916 -179.3168829 121.63016904 -191.53515625 119.78125 C-194.55699106 119.06722996 -197.47828724 118.1918872 -200.4375 117.25 C-201.95013687 116.79559488 -203.46319228 116.34258172 -204.9765625 115.890625 C-232.07452758 107.68556691 -232.07452758 107.68556691 -237.4375 101.25 C-237.8125 97.8125 -237.8125 97.8125 -236.4375 94.25 C-232.47875268 89.58693568 -226.51747032 87.22424206 -221.0859375 84.6875 C-220.35168549 84.34356705 -219.61743347 83.99963409 -218.8609314 83.64527893 C-208.69654245 78.92779158 -198.37206508 74.57543561 -188.0625 70.1875 C-185.87324336 69.25306918 -183.68411747 68.31833197 -181.49511719 67.38330078 C-177.14149761 65.52394242 -172.78727759 63.66600132 -168.43261719 61.80908203 C-163.29811953 59.61867521 -158.16720553 57.42008187 -153.0390625 55.21484375 C-61.02127455 15.65078815 -61.02127455 15.65078815 -28.875 3.3125 C-28.09705078 3.01255127 -27.31910156 2.71260254 -26.51757812 2.40356445 C-8.5383834 -4.34681337 -8.5383834 -4.34681337 0 0 Z " fill="#FDFEFE" transform="translate(344.4375,167.75)"/>
<path d="M0 0 C4.12343406 3.27607135 6.75133089 6.94937665 7.69921875 12.14453125 C7.81868645 14.35051625 7.87447272 16.5603476 7.88671875 18.76953125 C7.90089844 19.91679687 7.91507813 21.0640625 7.9296875 22.24609375 C7.7541368 25.21557848 7.42915624 27.65616257 6.80041504 30.52210999 C5.47565433 36.97226766 4.67812697 43.47244169 3.84960938 50.00170898 C1.92421459 64.85383867 -0.33429658 79.64231624 -2.70703125 94.4296875 C-3.11778776 97.00124492 -3.52847134 99.57281399 -3.93908691 102.14439392 C-4.78967092 107.46632957 -5.64420811 112.78762081 -6.50048828 118.10864258 C-7.48342728 124.21753176 -8.4562676 130.3279747 -9.42475557 136.43916994 C-10.37018024 142.40137241 -11.32599214 148.36186262 -12.28556824 154.32180595 C-12.68725613 156.82533863 -13.08593358 159.32935643 -13.48139954 161.83387947 C-19.46740369 199.68256383 -19.46740369 199.68256383 -29.11328125 208.87109375 C-34.28055353 212.60069753 -39.10630284 213.04458516 -45.30078125 212.14453125 C-52.55171012 209.94046315 -58.68427056 206.25781277 -64.90234375 202.015625 C-65.78248138 201.42588394 -66.66261902 200.83614288 -67.56942749 200.22853088 C-70.36081335 198.35501342 -73.14330073 196.46874193 -75.92578125 194.58203125 C-77.76766795 193.34356597 -79.61011212 192.10592936 -81.453125 190.86914062 C-95.38861637 181.50369469 -109.32820187 172.12212111 -122.92578125 162.26953125 C-123.66183594 161.74101562 -124.39789063 161.2125 -125.15625 160.66796875 C-140.67105601 149.45512147 -140.67105601 149.45512147 -142.8203125 141.1328125 C-143.24692623 136.08289651 -141.33049845 133.36163109 -138.32250977 129.50830078 C-134.59561775 125.15088398 -130.5375824 121.12534575 -126.4609375 117.09887695 C-124.93040459 115.58659944 -123.40802593 114.06647427 -121.88671875 112.54492188 C-117.06456632 107.74046947 -112.18120455 103.05219371 -107.01220703 98.61791992 C-104.57198135 96.51709796 -102.23670421 94.32369942 -99.92578125 92.08203125 C-99.09304687 91.28667969 -98.2603125 90.49132812 -97.40234375 89.671875 C-95.10435622 86.90831007 -94.2122751 84.59518655 -93.30078125 81.14453125 C-98.63811843 82.90434741 -103.30796371 84.94822108 -107.77734375 88.38671875 C-116.07202175 94.54564134 -124.74884589 100.13650736 -133.38012695 105.80859375 C-136.36187718 107.76860831 -139.34029347 109.73361192 -142.31835938 111.69921875 C-144.24068929 112.96514162 -146.16320895 114.23077643 -148.0859375 115.49609375 C-148.96226334 116.0743692 -149.83858917 116.65264465 -150.74147034 117.2484436 C-164.53515278 126.3009306 -174.59706976 132.4643205 -191.45703125 128.9921875 C-199.57945951 127.20478751 -207.41998514 124.7137621 -215.29833984 122.06591797 C-217.68948008 121.26494247 -220.08646194 120.48355712 -222.484375 119.703125 C-241.00776778 113.58405146 -241.00776778 113.58405146 -245.30078125 107.14453125 C-246.1044026 102.90725503 -246.2143237 100.64497161 -243.95703125 96.9375 C-236.87703134 88.91630962 -226.9145266 85.26470783 -217.30078125 81.14453125 C-215.70831016 80.45317837 -214.11586191 79.76177288 -212.5234375 79.0703125 C-209.12024061 77.60101535 -205.71008729 76.14898691 -202.296875 74.703125 C-195.91016531 71.99010011 -189.55760682 69.2004265 -183.20440674 66.41018677 C-166.12281649 58.91061985 -148.98637038 51.54297485 -131.82733154 44.22259521 C-129.17258954 43.08983261 -126.51816241 41.95633436 -123.86376953 40.82275391 C-111.01520033 35.33679581 -98.15942625 29.86798945 -85.29681396 24.41503906 C-82.30765556 23.14744639 -79.31909313 21.87845609 -76.33056641 20.609375 C-71.50741499 18.56228912 -66.68120209 16.52257449 -61.8527832 14.48794556 C-60.06707124 13.73447648 -58.28219687 12.97901825 -56.49829102 12.22128296 C-47.28727687 8.31107417 -38.03277993 4.56823998 -28.6171875 1.17578125 C-27.81400589 0.87911057 -27.01082428 0.58243988 -26.18330383 0.27677917 C-17.91890734 -2.62858125 -7.94967522 -4.46875234 0 0 Z M-52.17578125 15.33203125 C-54.0655882 16.13418871 -55.95581648 16.9353542 -57.84643555 17.7355957 C-61.75093178 19.38904384 -65.65362146 21.04665411 -69.55517578 22.70703125 C-74.94968054 24.9995684 -80.35500201 27.2653355 -85.765625 29.51953125 C-86.19098038 29.69677483 -86.19098038 29.69677483 -88.34353638 30.59373474 C-90.06658484 31.31167669 -91.78963783 32.02960778 -93.51269531 32.74752808 C-131.63748497 48.64642793 -169.64548815 64.84323746 -207.5057373 81.36254883 C-209.21403843 82.10674312 -210.92387416 82.8474118 -212.63378906 83.58789062 C-215.44352375 84.80607211 -218.24812837 86.03516338 -221.05078125 87.26953125 C-221.78893066 87.58776855 -222.52708008 87.90600586 -223.28759766 88.23388672 C-229.59883029 91.04768823 -236.40628842 94.302792 -240.30078125 100.14453125 C-240.80078125 102.51953125 -240.80078125 102.51953125 -240.30078125 105.14453125 C-234.31963334 111.12567916 -227.21779865 113.65601118 -219.30078125 116.14453125 C-218.07488281 116.53898437 -216.84898437 116.9334375 -215.5859375 117.33984375 C-212.13952225 118.44361401 -208.68348659 119.51205336 -205.21972656 120.56005859 C-203.54211981 121.07102432 -201.87013983 121.60039054 -200.19921875 122.1328125 C-190.06335894 125.07863401 -176.78542823 126.56940437 -167.06640625 121.67602539 C-154.61505803 114.78095941 -142.87433092 106.57886258 -131.11114502 98.59164429 C-128.3571525 96.72296425 -125.59976576 94.85939691 -122.84130859 92.99731445 C-114.98656726 87.69496844 -107.13350193 82.39023574 -99.29296875 77.06689453 C-94.43783101 73.77107291 -89.57521492 70.48656419 -84.7074585 67.20941162 C-82.85975073 65.96237611 -81.01487139 64.71113903 -79.1729126 63.45562744 C-76.61058503 61.70973435 -74.0390349 59.97833466 -71.46484375 58.25 C-70.70844604 57.72958633 -69.95204834 57.20917267 -69.17272949 56.67298889 C-62.78924933 52.42472416 -62.78924933 52.42472416 -58.30078125 53.14453125 C-57.84765625 55.69921875 -57.84765625 55.69921875 -58.30078125 59.14453125 C-60.39101947 61.87683816 -62.95367263 64.02774262 -65.55078125 66.26953125 C-67.02636822 67.59323882 -68.50031088 68.91878152 -69.97265625 70.24609375 C-70.70677734 70.90125977 -71.44089844 71.55642578 -72.19726562 72.23144531 C-75.17022817 74.93526779 -77.99099808 77.7730452 -80.80078125 80.64453125 C-83.83291603 83.7195125 -86.88005857 86.72442468 -90.17578125 89.51953125 C-94.7216791 93.38069135 -98.85763981 97.648864 -103.02685547 101.90771484 C-105.996446 104.92136206 -109.01547154 107.80880415 -112.21875 110.57421875 C-116.53004682 114.29813127 -120.58419039 118.24424501 -124.61328125 122.26953125 C-125.31517578 122.95917969 -126.01707031 123.64882813 -126.74023438 124.359375 C-134.97292549 132.56852172 -134.97292549 132.56852172 -135.73828125 138.58203125 C-135.1037055 143.74929096 -132.69791467 146.85241113 -128.91015625 150.35546875 C-118.70525704 158.07884875 -108.03907122 165.09236327 -97.35351562 172.12939453 C-93.60613538 174.60307308 -89.87397633 177.09899183 -86.14306641 179.59741211 C-81.86938726 182.45713055 -77.58580351 185.3018478 -73.30078125 188.14453125 C-72.39682617 188.74523437 -71.49287109 189.3459375 -70.56152344 189.96484375 C-67.85384019 191.760415 -65.14071052 193.54743984 -62.42578125 195.33203125 C-61.61141602 195.87303467 -60.79705078 196.41403809 -59.95800781 196.97143555 C-53.14569216 201.42733904 -46.71740805 205.52512418 -38.30078125 204.14453125 C-31.65885906 201.85421325 -29.67685968 197.96977029 -26.66015625 191.80078125 C-22.43623327 180.43988495 -20.80344521 168.29948774 -18.80078125 156.39453125 C-18.63492523 155.41742188 -18.46906921 154.4403125 -18.29818726 153.43359375 C-14.3336649 130.03028064 -10.7868346 106.5612337 -7.24609375 83.09082031 C-6.9120712 80.87852257 -6.57798079 78.66623511 -6.24381828 76.45395851 C-6.02478648 75.00300887 -5.80602051 73.55201908 -5.58752632 72.10098839 C-4.3958841 64.19252731 -3.17407099 56.29055071 -1.87670898 48.39868164 C-1.81871706 48.04487018 -1.81871706 48.04487018 -1.52524281 46.25436974 C-0.97634462 42.91023625 -0.42164774 39.56733957 0.14237976 36.22570801 C3.81428872 14.02755905 3.81428872 14.02755905 -0.0859375 6.8671875 C-3.25793852 2.96791993 -5.04683118 2.29330499 -9.98828125 1.70703125 C-24.43876197 2.09896818 -39.1348858 9.73930067 -52.17578125 15.33203125 Z " fill="#1F91CC" transform="translate(347.30078125,163.85546875)"/>
<path d="M0 0 C5.37164334 5.2487991 8.05291243 11.01799739 8.19921875 18.5234375 C8.12998509 27.04263902 6.70470275 35.40786582 5.4375 43.8125 C5.14078033 45.81616101 4.84406845 47.81982317 4.54736328 49.82348633 C0.99080417 73.63692569 -2.83561082 97.4102775 -6.625 121.1875 C-6.70660181 121.69984255 -6.70660181 121.69984255 -7.11955643 124.29260635 C-9.12004989 136.84994809 -11.13560645 149.4047127 -13.17980957 161.95501709 C-13.70475432 165.17835716 -14.22575798 168.40227962 -14.74206543 171.62701416 C-15.38587804 175.64538528 -16.0468865 179.66070507 -16.7109375 183.67578125 C-16.88758942 184.79115768 -17.06424133 185.90653412 -17.24624634 187.05570984 C-19.23587663 198.8616957 -22.79038655 210.76183184 -32.0625 218.9375 C-37.97446788 223.08845617 -42.88547142 223.7614502 -50 223 C-57.05040951 220.89081037 -63.19235665 217.31362468 -69.3125 213.3125 C-69.76544434 213.02024536 -69.76544434 213.02024536 -72.05761719 211.54125977 C-81.69196879 205.28018203 -91.22075801 198.85691285 -100.75 192.4375 C-101.5200235 191.91950836 -102.290047 191.40151672 -103.08340454 190.86782837 C-111.7094695 185.05768319 -120.26590976 179.15915844 -128.71484375 173.09375 C-129.44576233 172.57159409 -130.17668091 172.04943817 -130.92974854 171.51145935 C-151.8792497 156.36225091 -151.8792497 156.36225091 -155 147 C-155.51345512 142.58091902 -155.50333963 139.05044792 -153.5625 135 C-150.64574168 131.58525855 -147.53278 128.45211696 -144.32421875 125.3125 C-135.51634535 116.54903604 -135.51634535 116.54903604 -134 112 C-139.37845104 114.10009106 -143.80811196 116.72084608 -148.5 120.0625 C-149.91122495 121.04330464 -151.32268903 122.02376528 -152.734375 123.00390625 C-155.48797068 124.93029778 -158.22389688 126.87915204 -160.953125 128.83984375 C-170.90560668 135.88470187 -179.97336851 140.23802265 -192.5390625 138.6875 C-200.54354619 137.09744455 -208.24913985 134.52022567 -216 132 C-217.90857439 131.38962476 -219.81715168 130.77925855 -221.72579956 130.16911316 C-224.43772364 129.2988353 -227.14613168 128.41800927 -229.85357666 127.53390503 C-231.19076362 127.09803433 -232.52876828 126.66466352 -233.86761475 126.23391724 C-235.76634836 125.62102134 -237.66060136 124.99429865 -239.5546875 124.3671875 C-240.65280762 124.00737793 -241.75092773 123.64756836 -242.88232422 123.27685547 C-248.50407698 120.97444615 -252.54021178 117.99747187 -256 113 C-257.37652345 108.87042966 -257.85643201 105.30304862 -257 101 C-252.52585171 93.81615627 -245.73239622 89.04143392 -238.078125 85.7421875 C-237.39797333 85.44179062 -236.71782166 85.14139374 -236.01705933 84.83189392 C-233.76444543 83.83910052 -231.50731339 82.85705566 -229.25 81.875 C-227.64928431 81.1721339 -226.04886713 80.46858761 -224.44873047 79.7644043 C-221.05519858 78.27251665 -217.65972629 76.78517208 -214.26269531 75.30126953 C-209.02231446 73.01153823 -203.78803052 70.70810587 -198.5546875 68.40234375 C-188.37635372 63.9198777 -178.19013533 59.45556529 -168 55 C-167.34030212 54.71141113 -166.68060425 54.42282227 -166.00091553 54.12548828 C-132.74704175 39.58135435 -99.3400604 25.3680412 -65.85333252 11.36907959 C-64.40337709 10.76290934 -62.95377289 10.155898 -61.50457764 9.5479126 C-54.15462871 6.46703649 -46.77579501 3.49044309 -39.31640625 0.68359375 C-38.6526297 0.43363144 -37.98885315 0.18366913 -37.30496216 -0.0738678 C-25.47115355 -4.47710335 -11.31265288 -7.3235619 0 0 Z M-45 8 C-45.62070374 8.25499268 -46.24140747 8.50998535 -46.88092041 8.77270508 C-56.28162277 12.64025872 -65.64154529 16.60233764 -74.99162292 20.5904541 C-81.37507323 23.3123111 -87.76715245 26.01306401 -94.1640625 28.703125 C-114.1107817 37.09415184 -134.02123682 45.56127212 -153.87142944 54.1782074 C-154.60608429 54.49709427 -155.34073914 54.81598114 -156.09765625 55.14453125 C-156.82771881 55.46144424 -157.55778137 55.77835724 -158.30996704 56.10487366 C-165.96031686 59.42239444 -173.629575 62.69539979 -181.29824829 65.97027588 C-192.74123708 70.85839619 -204.16600764 75.77231227 -215.48046875 80.953125 C-218.7549194 82.45026494 -222.05109441 83.88522014 -225.36328125 85.296875 C-226.26377197 85.68633301 -227.1642627 86.07579102 -228.09204102 86.47705078 C-229.79189879 87.21120447 -231.49645979 87.9346217 -233.20678711 88.64404297 C-239.06507963 91.19761064 -243.43015044 94.55615255 -248 99 C-248.55913086 99.48549316 -249.11826172 99.97098633 -249.69433594 100.47119141 C-251.65251138 102.76402884 -251.53688459 105.09900493 -251.3984375 108.01171875 C-250.68095365 111.59210382 -248.88288052 112.86666841 -246 115 C-238.2503791 119.57338328 -229.84762942 122.2564542 -221.32348633 124.96704102 C-219.06666997 125.68617125 -216.81550422 126.42125042 -214.56445312 127.15820312 C-200.47935263 131.71751569 -186.26151155 136.13661097 -172 130 C-169.56731928 128.59253175 -167.19314474 127.15926945 -164.82421875 125.65234375 C-164.47807022 125.43397102 -164.47807022 125.43397102 -162.72634888 124.32887268 C-154.15340292 118.88215317 -145.76706273 113.15709037 -137.375 107.4375 C-119.36979787 95.1807916 -119.36979787 95.1807916 -111.2265625 89.84765625 C-110.16260254 89.14777588 -109.09864258 88.44789551 -108.00244141 87.72680664 C-105.04731064 86.02720997 -102.26527462 84.94990362 -99 84 C-101.17264438 90.26755404 -104.43188796 93.9552279 -109.1875 98.5 C-109.50493164 98.81259766 -109.50493164 98.81259766 -111.11132812 100.39453125 C-114.27067367 103.48040364 -117.49636392 106.45540256 -120.84375 109.3359375 C-125.88839636 113.70718538 -130.59261686 118.40860017 -135.3125 123.125 C-136.20517578 124.00542969 -137.09785156 124.88585937 -138.01757812 125.79296875 C-138.87416016 126.64761719 -139.73074219 127.50226563 -140.61328125 128.3828125 C-141.38454346 129.14996582 -142.15580566 129.91711914 -142.95043945 130.70751953 C-146.19026558 134.33133935 -147.86323917 136.95719866 -148.5 141.8125 C-148.13429073 148.34650563 -145.03216472 152.18174735 -140.25390625 156.45703125 C-136.610846 159.4510823 -132.81738035 162.23379541 -129 165 C-128.34805664 165.47550293 -127.69611328 165.95100586 -127.02441406 166.44091797 C-114.61538436 175.43370874 -101.8036097 183.86403325 -89.0625 192.375 C-88.21938263 192.93889435 -87.37626526 193.5027887 -86.50759888 194.08377075 C-78.61828513 199.35593656 -70.72505375 204.62563583 -62.68359375 209.6640625 C-61.7186499 210.26943848 -60.75370605 210.87481445 -59.75952148 211.49853516 C-53.65341869 214.82088605 -47.86449773 215.98823264 -41 215 C-34.82513513 212.85079792 -31.38901841 208.60189636 -28.3984375 202.94212341 C-22.75720949 191.07374245 -21.27202435 177.90234945 -19.25 165.05859375 C-18.90731732 162.92452776 -18.5638775 160.79058324 -18.21972656 158.65675354 C-17.50154367 154.19204914 -16.78933468 149.72645044 -16.08203125 145.26000977 C-15.18903943 139.62113344 -14.28611382 133.98391164 -13.37930012 128.34724331 C-9.85662608 106.44579147 -6.39926453 84.54261704 -3.35931396 62.56832886 C-2.56511039 56.89146637 -1.69275474 51.22658643 -0.8125 45.5625 C-0.64814453 44.49064453 -0.48378906 43.41878906 -0.31445312 42.31445312 C0.87934626 34.58617292 0.87934626 34.58617292 1.53930664 31.37988281 C3.11831913 23.22290679 3.01044514 14.35248276 -1 7 C-5.58688697 2.13178397 -9.28510511 0.76518692 -15.875 0.5 C-26.48547264 0.47144524 -35.2968071 4.00583171 -45 8 Z " fill="#1C98D9" transform="translate(353,161)"/>
</svg>
