<?xml version="1.0" encoding="UTF-8"?>
<!-- Generator: visioncortex VTracer 0.6.12 -->
<svg version="1.1" xmlns="http://www.w3.org/2000/svg" width="512" height="512">
<path d="M0 0 C40.73258691 37.09857902 66.02515215 90.53183589 68.75683594 145.60009766 C71.35658136 205.24748248 50.85149524 260.57794808 10.75683594 304.60009766 C-27.93161451 345.99314124 -82.40228689 369.90666696 -138.90722656 371.81884766 C-198.08328558 373.11538802 -253.02557579 351.0823785 -295.70410156 310.33056641 C-335.85961751 271.24795203 -358.30392739 216.78829495 -359.52661133 160.9831543 C-360.09627253 102.0016777 -337.31308052 47.55856006 -296.32836914 5.44873047 C-227.86859712 -63.56894457 -117.13368472 -75.618845 0 0 Z " fill="#29B6F6" transform="translate(401.2431640625,98.39990234375)"/>
<path d="M0 0 C1.76066447 2.88748973 1.68281011 3.49339353 1.25585938 6.70825195 C1.14967285 7.51106598 1.04348633 8.31388 0.93408203 9.14102173 C0.38622049 12.71125575 -0.25853725 16.25170506 -0.96875 19.79296875 C-1.04447739 20.1785067 -1.04447739 20.1785067 -1.42770386 22.12956238 C-1.92756369 24.67039306 -2.43256174 27.21017413 -2.9375 29.75 C-3.29676748 31.57170229 -3.65564532 33.39348147 -4.01416016 35.21533203 C-4.76985086 39.05354714 -5.52735842 42.89139726 -6.28613281 46.72900391 C-7.40347968 52.38438031 -8.51193193 58.0414682 -9.6171875 63.69921875 C-9.79691101 64.61920151 -9.97663452 65.53918427 -10.1618042 66.48704529 C-10.52740967 68.35875972 -10.89298979 70.2304791 -11.25854492 72.10220337 C-15.05985122 91.55834949 -18.87731284 111.01134057 -22.69335938 130.46459961 C-24.77527199 141.07865255 -26.85498961 151.69312801 -28.9296875 162.30859375 C-29.13160706 163.34154572 -29.33352661 164.37449768 -29.54156494 165.43875122 C-30.66746083 171.19866773 -31.79286122 176.95868003 -32.91656494 182.71902466 C-33.25485195 184.44685563 -33.59509829 186.1743043 -33.93743896 187.90133667 C-34.81033629 192.30856253 -35.65054766 196.7185438 -36.44238281 201.14111328 C-36.61061554 202.05083389 -36.77884827 202.9605545 -36.95217896 203.89784241 C-37.27126498 205.62455808 -37.57921375 207.3533849 -37.87374878 209.0844574 C-38.78035181 213.90288927 -39.87923432 216.96856031 -43.4375 220.5625 C-47.21290746 223.02373142 -50.88188478 223.34418414 -55.3203125 223.25 C-61.82744036 221.81484398 -66.56195472 216.86003821 -71.4375 212.5625 C-72.61906446 211.55360812 -73.80268161 210.54711559 -74.98828125 209.54296875 C-77.36933385 207.52050449 -79.7378704 205.48472926 -82.09765625 203.4375 C-85.88013086 200.16547061 -89.75408418 197.01149907 -93.63671875 193.859375 C-97.44094275 190.73959298 -101.19093296 187.55759171 -104.93579102 184.36694336 C-106.43225402 183.09395216 -107.93475751 181.82807225 -109.4375 180.5625 C-110.30632812 179.77488281 -111.17515625 178.98726562 -112.0703125 178.17578125 C-114.4375 176.5625 -114.4375 176.5625 -116.36795044 176.76049805 C-118.84277077 177.71955251 -120.07812118 178.87258208 -121.91748047 180.78125 C-122.57851776 181.45865234 -123.23955505 182.13605469 -123.92062378 182.83398438 C-124.62486481 183.56939453 -125.32910583 184.30480469 -126.0546875 185.0625 C-127.56354147 186.60442174 -129.07266441 188.14608031 -130.58203125 189.6875 C-132.95202478 192.12582564 -135.31781821 194.56801469 -137.67822266 197.015625 C-139.95953024 199.3754343 -142.25604946 201.71958668 -144.5546875 204.0625 C-145.25488007 204.79791016 -145.95507263 205.53332031 -146.67648315 206.29101562 C-150.4051597 210.07590508 -152.82469705 212.49254491 -158.4375 212.5625 C-162.94468375 207.89362356 -164.51348546 202.44823768 -166.5625 196.4375 C-167.19320418 194.62814387 -167.82396097 192.81880589 -168.45565796 191.00979614 C-168.93409899 189.63728707 -169.4111069 188.2642778 -169.88687134 186.89083862 C-172.25374277 180.06043329 -174.67246043 173.24877442 -177.09375 166.4375 C-178.33476164 162.94169905 -179.57538293 159.44575983 -180.81585693 155.94976807 C-181.64812748 153.60494513 -182.48101501 151.26034109 -183.31451416 148.91595459 C-184.49665256 145.58829518 -185.67462629 142.2591898 -186.8515625 138.9296875 C-187.21358765 137.91318115 -187.57561279 136.8966748 -187.9486084 135.84936523 C-188.11282288 135.38365112 -188.11282288 135.38365112 -188.94384766 133.02685547 C-189.23345367 132.20974091 -189.52305969 131.39262634 -189.82144165 130.55075073 C-190.4375 128.5625 -190.4375 128.5625 -190.4375 126.5625 C-191.61183594 126.33175781 -192.78617188 126.10101563 -193.99609375 125.86328125 C-202.7680801 124.10080174 -211.37447431 122.13338061 -219.92480469 119.49169922 C-223.83803288 118.29360437 -227.75188719 117.21952959 -231.734375 116.2734375 C-232.63099854 116.06001709 -233.52762207 115.84659668 -234.45141602 115.62670898 C-236.1864805 115.21999631 -237.92388084 114.82307697 -239.66381836 114.43774414 C-245.91067666 112.96919779 -250.73676513 111.11360231 -254.4375 105.5625 C-254.98133914 101.36716953 -255.0043367 99.34875735 -252.5 95.875 C-246.37331736 91.24872944 -238.74960679 88.82907976 -231.6484375 86.0078125 C-230.81218842 85.67386978 -229.97593933 85.33992706 -229.11434937 84.99586487 C-226.34771039 83.89145432 -223.58010815 82.78947934 -220.8125 81.6875 C-218.83749265 80.89967705 -216.86255955 80.11166796 -214.88769531 79.32348633 C-211.7413386 78.06779971 -208.59492002 76.81227002 -205.44824219 75.55738831 C-197.42884541 72.35902546 -189.41292149 69.15205784 -181.3984375 65.94140625 C-139.9813964 49.3514718 -139.9813964 49.3514718 -120.45678711 41.68457031 C-107.67103141 36.66296761 -94.90082021 31.60220065 -82.13153076 26.53890991 C-79.55522823 25.51738192 -76.97876941 24.49624972 -74.40216064 23.47549438 C-50.29748029 13.92601187 -50.29748029 13.92601187 -39.421875 9.51953125 C-39.06743065 9.37624138 -39.06743065 9.37624138 -37.27372742 8.65110779 C-34.21996003 7.41631373 -31.16879693 6.17630815 -28.12231445 4.92358398 C-6.5100432 -3.83925625 -6.5100432 -3.83925625 0 0 Z " fill="#FEFEFE" transform="translate(361.4375,150.4375)"/>
<path d="M0 0 C1.875 1.125 1.875 1.125 3 3 C3.14560796 6.2033751 2.66107973 8.17126892 0.64453125 10.69921875 C-2.33222362 13.73046799 -5.55188407 16.48954463 -8.76171875 19.26953125 C-12.84685316 22.8383009 -16.80871797 26.52379476 -20.75 30.25 C-26.44106904 35.60874384 -32.16903448 40.92029879 -37.94140625 46.19140625 C-41.48462865 49.43556339 -44.99163806 52.71824097 -48.5 56 C-53.98804508 61.1324992 -59.50595254 66.22974298 -65.05078125 71.30078125 C-68.14389807 74.13170009 -71.23052311 76.96946499 -74.3125 79.8125 C-74.84327148 80.30202148 -75.37404297 80.79154297 -75.92089844 81.29589844 C-78.92759957 84.07310777 -81.92354179 86.86135149 -84.91015625 89.66015625 C-85.2402771 89.96932983 -85.2402771 89.96932983 -86.91088867 91.53393555 C-88.17925519 92.72284194 -89.44643202 93.91301939 -90.7121582 95.10473633 C-94.71207642 98.85448821 -98.80795928 102.46641173 -103 106 C-99.8122632 109.26743022 -96.56039258 112.27017302 -93 115.125 C-88.6286054 118.66487932 -84.29672552 122.24479919 -80 125.875 C-79.44828125 126.33922363 -78.8965625 126.80344727 -78.328125 127.28173828 C-75.78338223 129.43516386 -73.33620164 131.62343017 -71 134 C-71.20391357 134.16636963 -71.20391357 134.16636963 -72.23583984 135.00830078 C-77.06434168 139.08493772 -81.50430123 143.47497407 -85.9140625 147.9921875 C-86.53617615 148.62690979 -87.15828979 149.26163208 -87.79925537 149.91558838 C-90.40578615 152.57632347 -93.01071328 155.23819856 -95.59667969 157.91894531 C-97.50355215 159.89239188 -99.42594467 161.84955081 -101.3515625 163.8046875 C-101.92983795 164.41190643 -102.5081134 165.01912537 -103.10391235 165.64474487 C-106.57771307 169.14113921 -108.85208051 170.77533168 -114 171 C-118.50697234 166.33134255 -120.07658055 160.88573263 -122.125 154.875 C-122.75456029 153.06455963 -123.38418691 151.25414202 -124.01499939 149.44413757 C-124.49291932 148.07114807 -124.96947243 146.69768223 -125.44483948 145.32380676 C-127.40853873 139.65823199 -129.422431 134.01151198 -131.44940186 128.36828613 C-133.11593777 123.7281273 -134.77485127 119.08525827 -136.43328857 114.44219971 C-137.27024969 112.1034414 -138.10997795 109.76567154 -138.95245361 107.42889404 C-140.14752373 104.11056055 -141.33088877 100.78826661 -142.51171875 97.46484375 C-142.87890518 96.45349869 -143.24609161 95.44215363 -143.62440491 94.40016174 C-143.95290939 93.46880905 -144.28141388 92.53745636 -144.61987305 91.57788086 C-144.91169968 90.76298691 -145.20352631 89.94809296 -145.50419617 89.10850525 C-146 87 -146 87 -145 84 C-142.64599609 82.33349609 -142.64599609 82.33349609 -139.5234375 80.5234375 C-138.96113434 80.19389069 -138.39883118 79.86434387 -137.81948853 79.52481079 C-136.00944693 78.46639531 -134.19256284 77.42043665 -132.375 76.375 C-131.20523861 75.69485342 -130.03596263 75.01387125 -128.8671875 74.33203125 C-127.08733021 73.29398595 -125.30707395 72.25668945 -123.5249176 71.22259521 C-118.54366417 68.33005904 -113.60155584 65.37540216 -108.66651917 62.40487671 C-104.29412184 59.77378894 -99.91119212 57.1613012 -95.51953125 54.5625 C-94.89743774 54.19424103 -94.27534424 53.82598206 -93.63439941 53.44656372 C-92.35499304 52.68920809 -91.07557393 51.93187399 -89.79614258 51.17456055 C-77.69292394 44.00796549 -65.63845819 36.76817671 -53.62963867 29.44458008 C-42.96854105 22.95054103 -32.23218473 16.58485253 -21.48046875 10.2421875 C-20.82565521 9.85509109 -20.17084167 9.46799469 -19.4961853 9.06916809 C-17.72298223 8.02099238 -15.94868898 6.97466154 -14.17431641 5.9284668 C-11.99710143 4.60576098 -9.85801007 3.2188239 -7.75537109 1.78051758 C-4.77382358 -0.14615494 -3.46573271 -0.65567916 0 0 Z " fill="#CFD8DC" transform="translate(317,192)"/>
<path d="M0 0 C4.10222571 2.285742 7.59251119 5.05967871 11.125 8.125 C12.27142908 9.10889653 13.41857714 10.09195588 14.56640625 11.07421875 C14.85265869 11.31938232 14.85265869 11.31938232 16.30126953 12.56005859 C19.703748 15.44419455 23.18497719 18.231523 26.66015625 21.02734375 C28.90063804 22.91623073 30.9620442 24.89615186 33 27 C32.59217285 27.33273926 32.1843457 27.66547852 31.76416016 28.00830078 C26.93565832 32.08493772 22.49569877 36.47497407 18.0859375 40.9921875 C17.46382385 41.62690979 16.84171021 42.26163208 16.20074463 42.91558838 C13.59421385 45.57632347 10.98928672 48.23819856 8.40332031 50.91894531 C6.49644785 52.89239188 4.57405533 54.84955081 2.6484375 56.8046875 C2.07016205 57.41190643 1.4918866 58.01912537 0.89608765 58.64474487 C-2.57771307 62.14113921 -4.85208051 63.77533168 -10 64 C-10.26810626 56.89762131 -9.2360627 50.21806705 -8.06640625 43.22265625 C-7.86901352 42.01556503 -7.67162079 40.80847382 -7.46824646 39.56480408 C-7.05179206 37.02699304 -6.63222302 34.48969138 -6.2097168 31.95288086 C-5.56084348 28.05254277 -4.92325554 24.15047881 -4.28710938 20.24804688 C-3.88087179 17.78114065 -3.4739935 15.31433984 -3.06640625 12.84765625 C-2.87470352 11.67485611 -2.68300079 10.50205597 -2.48548889 9.29371643 C-2.39543327 8.75609428 -2.39543327 8.75609428 -1.93969727 6.03540039 C-1.78203384 5.08468155 -1.62437042 4.13396271 -1.46192932 3.1544342 C-1 1 -1 1 0 0 Z " fill="#AEBEC6" transform="translate(213,299)"/>
</svg>
