<?xml version="1.0" encoding="UTF-8"?>
<!-- Generator: visioncortex VTracer 0.6.12 -->
<svg version="1.1" xmlns="http://www.w3.org/2000/svg" width="512" height="512">
<path d="M0 0 C1.13445059 -0.00382555 2.26890118 -0.00765109 3.43772906 -0.01159257 C7.22364502 -0.02187776 11.00940805 -0.01793888 14.79533386 -0.01396179 C17.51607702 -0.01721872 20.23681179 -0.02343042 22.95755005 -0.02944946 C29.57179125 -0.04217212 36.1859918 -0.04399317 42.80024318 -0.0416492 C48.17941157 -0.03986302 53.55856768 -0.04162212 58.9377346 -0.04587364 C59.70460094 -0.04646883 60.47146729 -0.04706402 61.261572 -0.04767724 C62.81969542 -0.04888905 64.37781884 -0.05010319 65.93594225 -0.05131962 C80.53500154 -0.06218596 95.13403771 -0.06003707 109.73309829 -0.05393478 C123.07135911 -0.04876744 136.40954686 -0.06001784 149.74779323 -0.07903299 C163.46197351 -0.09843333 177.17611925 -0.10666348 190.89031333 -0.10290974 C198.58235465 -0.1010009 206.27433381 -0.10345422 213.96636391 -0.11762428 C220.51537826 -0.12956715 227.06429218 -0.1309106 233.61330799 -0.11883412 C236.9505785 -0.11296541 240.28751594 -0.11343251 243.62479782 -0.12383652 C247.25271911 -0.13432836 250.88015251 -0.12618308 254.50805664 -0.11352539 C255.54864709 -0.12089968 256.58923754 -0.12827396 257.66136104 -0.13587171 C275.08246766 -0.00863687 290.02900169 7.14755053 302.44450378 19.26069641 C314.42562308 32.7560172 319.76941518 47.02167536 319.7052002 64.81619263 C319.70902574 65.95064322 319.71285129 67.08509381 319.71679276 68.25392169 C319.72707795 72.03983765 319.72313907 75.82560067 319.71916199 79.61152649 C319.72241891 82.33226965 319.72863061 85.05300441 319.73464966 87.77374268 C319.74737231 94.38798387 319.74919336 101.00218443 319.7468494 107.6164358 C319.74506321 112.9956042 319.74682231 118.3747603 319.75107384 123.75392723 C319.75166903 124.52079357 319.75226422 125.28765991 319.75287744 126.07776463 C319.75408925 127.63588805 319.75530338 129.19401147 319.75651982 130.75213488 C319.76738615 145.35119417 319.76523726 159.95023033 319.75913497 174.54929092 C319.75396763 187.88755174 319.76521803 201.22573949 319.78423319 214.56398586 C319.80363353 228.27816613 319.81186368 241.99231188 319.80810994 255.70650595 C319.8062011 263.39854728 319.80865441 271.09052644 319.82282448 278.78255653 C319.83476734 285.33157089 319.83611079 291.88048481 319.82403431 298.42950062 C319.81816561 301.76677113 319.81863271 305.10370856 319.82903671 308.44099045 C319.83952856 312.06891174 319.83138328 315.69634514 319.81872559 319.32424927 C319.82609987 320.36483972 319.83347416 321.40543017 319.8410719 322.47755367 C319.71383707 339.89866029 312.55764967 354.84519431 300.44450378 367.26069641 C286.949183 379.24181571 272.68352484 384.58560781 254.88900757 384.52139282 C253.75455698 384.52521837 252.62010639 384.52904392 251.45127851 384.53298539 C247.66536255 384.54327058 243.87959952 384.5393317 240.09367371 384.53535461 C237.37293054 384.53861154 234.65219578 384.54482324 231.93145752 384.55084229 C225.31721632 384.56356494 218.70301577 384.56538599 212.08876439 384.56304202 C206.709596 384.56125584 201.33043989 384.56301494 195.95127296 384.56726646 C195.18440662 384.56786165 194.41754028 384.56845684 193.62743557 384.56907007 C192.06931215 384.57028188 190.51118873 384.57149601 188.95306531 384.57271244 C174.35400603 384.58357878 159.75496986 384.58142989 145.15590928 384.5753276 C131.81764845 384.57016026 118.4794607 384.58141066 105.14121433 384.60042582 C91.42703406 384.61982616 77.71288832 384.6280563 63.99869424 384.62430257 C56.30665291 384.62239372 48.61467376 384.62484704 40.92264366 384.63901711 C34.37362931 384.65095997 27.82471539 384.65230342 21.27569958 384.64022694 C17.93842907 384.63435823 14.60149163 384.63482533 11.26420975 384.64522934 C7.63628846 384.65572118 4.00885505 384.64757591 0.38095093 384.63491821 C-0.65963952 384.6422925 -1.70022997 384.64966678 -2.77235347 384.65726453 C-20.19346009 384.53002969 -35.13999412 377.37384229 -47.55549622 365.26069641 C-59.53661551 351.76537562 -64.88040762 337.49971746 -64.81619263 319.7052002 C-64.82001817 318.57074961 -64.82384372 317.43629902 -64.82778519 316.26747113 C-64.83807038 312.48155518 -64.8341315 308.69579215 -64.83015442 304.90986633 C-64.83341135 302.18912317 -64.83962305 299.46838841 -64.84564209 296.74765015 C-64.85836474 290.13340895 -64.86018579 283.51920839 -64.85784183 276.90495702 C-64.85605564 271.52578862 -64.85781474 266.14663252 -64.86206627 260.76746559 C-64.86236386 260.38403242 -64.86236386 260.38403242 -64.86386987 258.4436282 C-64.86508168 256.88550478 -64.86629582 255.32738136 -64.86751225 253.76925794 C-64.87837859 239.17019865 -64.87622969 224.57116249 -64.8701274 209.9721019 C-64.86496006 196.63384108 -64.87621047 183.29565333 -64.89522562 169.95740696 C-64.91462596 156.24322669 -64.92285611 142.52908095 -64.91910237 128.81488687 C-64.91719353 121.12284554 -64.91964685 113.43086638 -64.93381691 105.73883629 C-64.94575977 99.18982194 -64.94710322 92.64090801 -64.93502674 86.09189221 C-64.92915804 82.7546217 -64.92962514 79.41768426 -64.94002914 76.08040237 C-64.95052099 72.45248109 -64.94237571 68.82504768 -64.92971802 65.19714355 C-64.9370923 64.1565531 -64.94446659 63.11596265 -64.95206434 62.04383916 C-64.8248295 44.62273254 -57.6686421 29.67619851 -45.55549622 17.26069641 C-32.06017543 5.27957712 -17.79451727 -0.06421499 0 0 Z M127.44450378 86.26069641 C127.43515808 90.91421204 127.42581238 95.56772766 127.41618347 100.36225891 C127.38242455 115.73314345 127.32708248 131.10389421 127.26060104 146.47467041 C127.22081864 155.7944619 127.18842209 165.11416905 127.17350769 174.43403625 C127.16048703 182.5587477 127.13351181 190.68327351 127.08989072 198.8078804 C127.06728518 203.10847097 127.05159256 207.40883266 127.05261993 211.70948792 C127.05336709 215.76107459 127.03539445 219.81215546 127.00333595 223.86361122 C126.99484803 225.34700525 126.99307952 226.83045609 126.9987011 228.31386375 C127.05215677 244.59358984 127.05215677 244.59358984 120.62809753 251.10054016 C120.0518866 251.46276672 119.47567566 251.82499329 118.88200378 252.19819641 C118.59260925 252.38833313 118.59260925 252.38833313 117.12809753 253.35054016 C111.68745386 256.2917698 105.44188151 255.66742363 99.44450378 255.26069641 C93.48112421 253.23740691 89.77007812 249.5461694 86.63200378 244.13569641 C84.55704662 238.6621025 84.46174685 232.54210516 86.13591003 226.95210266 C88.27875498 222.20915298 91.03467357 219.1189197 95.44450378 216.26069641 C98.74450378 215.27069641 102.04450378 214.28069641 105.44450378 213.26069641 C105.44450378 199.40069641 105.44450378 185.54069641 105.44450378 171.26069641 C90.62559698 172.49560531 79.3930165 175.35712725 67.44450378 184.26069641 C66.72778503 184.79436829 66.01106628 185.32804016 65.27262878 185.87788391 C51.30245509 197.19480757 44.0761576 214.10321529 42.05778503 231.61616516 C41.45939512 248.22664389 47.62940025 265.4006934 58.75700378 277.69819641 C70.8035293 290.36259809 86.53638175 298.09126694 104.09367371 298.61470032 C121.42411236 298.76948459 136.75027854 293.53807372 149.38444519 281.44795227 C163.78630631 267.10229115 169.73561406 251.16211022 169.7925272 231.07878208 C169.78417879 228.29943021 169.76111101 225.52042546 169.73747253 222.74116516 C169.73186535 220.78676685 169.72760057 218.83236427 169.72460938 216.87796021 C169.7132489 211.77671819 169.68385917 206.67573944 169.65049744 201.57460022 C169.6196051 196.35216328 169.6060634 191.12968309 169.59098816 185.90718079 C169.55897964 175.69157142 169.50789194 165.47615595 169.44450378 155.26069641 C169.91029846 155.53276917 169.91029846 155.53276917 172.26750183 156.90962219 C173.51778792 157.63362643 174.76820168 158.35741024 176.01872253 159.08100891 C176.62937561 159.43848206 177.24002869 159.7959552 177.8691864 160.16426086 C188.71476346 166.4200843 199.89121067 170.26069641 212.44450378 170.26069641 C212.44450378 156.40069641 212.44450378 142.54069641 212.44450378 128.26069641 C209.14450378 127.27069641 205.84450378 126.28069641 202.44450378 125.26069641 C187.76273543 118.36497881 176.88679135 107.74575973 171.17106628 92.48725891 C170.50290915 90.43968059 169.96688583 88.35022458 169.44450378 86.26069641 C155.58450378 86.26069641 141.72450378 86.26069641 127.44450378 86.26069641 Z " fill="#000000" transform="translate(128.5554962158203,63.73930358886719)"/>
</svg>
