<?xml version="1.0" encoding="UTF-8"?>
<!-- Generator: visioncortex VTracer 0.6.12 -->
<svg version="1.1" xmlns="http://www.w3.org/2000/svg" width="512" height="512">
<path d="M0 0 C1.04558248 -0.00445784 2.09116496 -0.00891569 3.16843176 -0.01350862 C4.31587945 -0.01332426 5.46332713 -0.01313989 6.64554596 -0.01294994 C7.86556258 -0.01662663 9.0855792 -0.02030332 10.34256601 -0.02409142 C13.73084695 -0.0332114 17.11907948 -0.03782646 20.50736809 -0.04048073 C24.16128414 -0.04438712 27.81518621 -0.05396534 31.46909332 -0.0626936 C40.29514414 -0.08245021 49.12119608 -0.09252393 57.94726348 -0.10142139 C62.10583175 -0.10580625 66.26439874 -0.11117261 70.422966 -0.11641026 C84.25141638 -0.13342295 98.07986596 -0.14791591 111.9083252 -0.155159 C115.49639131 -0.15706883 119.08445741 -0.15898917 122.6725235 -0.16094494 C123.11841085 -0.16118681 123.11841085 -0.16118681 125.37487108 -0.16241082 C139.81276982 -0.17070656 154.2505856 -0.19603559 168.68844813 -0.22852562 C183.51891712 -0.26162637 198.34934399 -0.27961055 213.1798501 -0.28280324 C221.50356599 -0.28496572 229.82716093 -0.29367571 238.15084076 -0.31926441 C245.24163105 -0.34101279 252.33227102 -0.34900161 259.42309088 -0.33929763 C263.03779848 -0.33476463 266.65219622 -0.33658011 270.26686096 -0.35605907 C274.19497415 -0.37704326 278.12266476 -0.36666759 282.0508194 -0.35352612 C283.18042131 -0.36449536 284.31002322 -0.37546461 285.4738555 -0.38676625 C299.81004209 -0.27141353 312.4500563 5.43995002 322.977211 15.09515858 C330.83317926 23.62076238 336.96707068 35.5269421 336.99033833 47.27810383 C336.99479617 48.32368631 336.99925401 49.36926879 337.00384694 50.44653559 C337.00375476 51.02025943 337.00375476 51.02025943 337.00328827 53.92364979 C337.00696496 55.14366641 337.01064165 56.36368302 337.01442975 57.62066984 C337.02354972 61.00895078 337.02816478 64.39718331 337.03081906 67.78547192 C337.03472545 71.43938797 337.04430366 75.09329004 337.05303192 78.74719715 C337.07278853 87.57324796 337.08286225 96.39929991 337.09175971 105.22536731 C337.09614458 109.38393557 337.10151093 113.54250257 337.10674858 117.70106983 C337.12376127 131.52952021 337.13825423 145.35796979 337.14549732 159.18642902 C337.14740716 162.77449514 337.1493275 166.36256124 337.15128326 169.95062733 C337.151767 170.84240203 337.15225074 171.73417673 337.15274914 172.6529749 C337.16104489 187.09087365 337.18637391 201.52868942 337.21886394 215.96655196 C337.2519647 230.79702095 337.26994887 245.62744782 337.27314156 260.45795393 C337.27530404 268.78166982 337.28401404 277.10526476 337.30960274 285.42894459 C337.33135112 292.51973488 337.33933994 299.61037485 337.32963596 306.7011947 C337.32510296 310.31590231 337.32691844 313.93030004 337.3463974 317.54496479 C337.36738159 321.47307798 337.35700592 325.40076859 337.34386444 329.32892323 C337.34934906 329.89372418 337.34934906 329.89372418 337.37710458 332.75195932 C337.26175185 347.08814592 331.5503883 359.72816013 321.89517975 370.25531483 C313.36957594 378.11128308 301.46339623 384.24517451 289.7122345 384.26844215 C288.66665202 384.2729 287.62106954 384.27735784 286.54380274 384.28195077 C285.39635505 384.28176641 284.24890737 384.28158205 283.06668854 384.2813921 C281.84667192 384.28506879 280.6266553 384.28874547 279.36966848 384.29253358 C275.98138754 384.30165355 272.59315501 384.30626861 269.20486641 384.30892289 C265.55095036 384.31282928 261.89704829 384.32240749 258.24314117 384.33113575 C249.41709036 384.35089236 240.59103841 384.36096608 231.76497102 384.36986354 C227.60640275 384.3742484 223.44783576 384.37961476 219.28926849 384.38485241 C205.46081812 384.4018651 191.63236853 384.41635806 177.8039093 384.42360115 C174.21584319 384.42551098 170.62777709 384.42743132 167.039711 384.42938709 C166.1479363 384.42987083 165.2561616 384.43035457 164.33736342 384.43085297 C149.89946467 384.43914872 135.4616489 384.46447774 121.02378637 384.49696777 C106.19331738 384.53006853 91.36289051 384.5480527 76.5323844 384.55124539 C68.20866851 384.55340787 59.88507356 384.56211787 51.56139374 384.58770657 C44.47060345 384.60945495 37.37996348 384.61744377 30.28914362 384.60773978 C26.67443602 384.60320679 23.06003828 384.60502227 19.44537354 384.62450123 C15.51726035 384.64548542 11.58956973 384.63510974 7.6614151 384.62196827 C7.09661414 384.62745289 7.09661414 384.62745289 4.238379 384.65520841 C-10.09780759 384.53985568 -22.7378218 378.82849213 -33.2649765 369.17328358 C-41.12094476 360.64767977 -47.25483619 348.74150005 -47.27810383 336.99033833 C-47.28256167 335.94475585 -47.28701952 334.89917336 -47.29161245 333.82190657 C-47.29142808 332.67445888 -47.29124372 331.52701119 -47.29105377 330.34479237 C-47.29473046 329.12477575 -47.29840715 327.90475913 -47.30219525 326.64777231 C-47.31131522 323.25949137 -47.31593029 319.87125884 -47.31858456 316.48297024 C-47.32249095 312.82905419 -47.33206916 309.17515212 -47.34079742 305.521245 C-47.36055403 296.69519419 -47.37062775 287.86914224 -47.37952521 279.04307485 C-47.38391008 274.88450658 -47.38927643 270.72593958 -47.39451408 266.56737232 C-47.41152678 252.73892195 -47.42601974 238.91047236 -47.43326283 225.08201313 C-47.43517266 221.49394702 -47.437093 217.90588091 -47.43904877 214.31781483 C-47.43953251 213.42604013 -47.44001625 212.53426543 -47.44051465 211.61546725 C-47.44881039 197.1775685 -47.47413942 182.73975273 -47.50662944 168.30189019 C-47.5397302 153.47142121 -47.55771437 138.64099434 -47.56090707 123.81048822 C-47.56306954 115.48677234 -47.57177954 107.16317739 -47.59736824 98.83949757 C-47.61911662 91.74870728 -47.62710544 84.65806731 -47.61740146 77.56724745 C-47.61286846 73.95253985 -47.61468394 70.33814211 -47.6341629 66.72347736 C-47.65514709 62.79536418 -47.64477142 58.86767356 -47.63162994 54.93951893 C-47.64259919 53.80991702 -47.65356844 52.6803151 -47.66487008 51.51648283 C-47.54951735 37.18029624 -41.8381538 24.54028203 -32.18294525 14.01312733 C-23.65734145 6.15715907 -11.75116173 0.02326764 0 0 Z " fill="#212121" transform="translate(111.14388275146484,63.86577892303467)"/>
<path d="M0 0 C14.19 0 28.38 0 43 0 C43.33 2.475 43.33 2.475 45 15 C50.27086146 31.41496854 59.59493437 44.14696736 74.8984375 52.49609375 C84.37210113 57.08974677 92.18958066 58.16842928 103 59 C103 73.19 103 87.38 103 102 C80.37358628 102 61.85292115 96.5686141 43 84 C43.00888245 85.15241684 43.01776489 86.30483368 43.0269165 87.49217224 C43.10845627 98.42091646 43.16818146 109.34959792 43.20724869 120.27857876 C43.2280096 125.89556623 43.25611414 131.51230563 43.30175781 137.12915039 C43.3456294 142.56272335 43.36922323 147.99605963 43.37950897 153.42979622 C43.38682693 155.48956076 43.40111403 157.54931425 43.42292023 159.60897636 C43.68655368 185.57293412 37.97175898 208.04232446 19.65625 227.43359375 C1.70122352 244.78131787 -19.41162263 249.68772367 -43.64453125 249.3125 C-55.73584888 248.88555926 -65.73536379 245.36161585 -76 239 C-76.90234375 238.48695313 -77.8046875 237.97390625 -78.734375 237.4453125 C-96.60990001 226.89168333 -107.95976082 209.6191387 -113.59545898 189.91845703 C-115.05639322 184.07601009 -115.27049384 178.50176512 -115.1875 172.5 C-115.18685547 171.61441406 -115.18621094 170.72882813 -115.18554688 169.81640625 C-115.04037238 147.84666628 -106.64522924 129.32155431 -91.58984375 113.4609375 C-71.77367413 94.70807454 -51.62386048 92 -25 92 C-25 106.52 -25 121.04 -25 136 C-26.65 135.67 -28.3 135.34 -30 135 C-40.66348252 134.06809107 -50.57413995 136.07207063 -59 143 C-66.64153593 150.4172247 -71.03774534 156.80415797 -71.46826172 167.5456543 C-71.57194006 175.35901361 -71.09196428 182.14181687 -67 189 C-66.78794922 189.35707031 -66.78794922 189.35707031 -65.71484375 191.1640625 C-60.60719017 198.76151936 -53.32310908 203.26650505 -44.5234375 205.52734375 C-34.69659194 207.36797581 -25.07182903 205.49809852 -16.3828125 200.4921875 C-8.31154947 194.64935399 -3.13684748 186.75468661 -1 177 C-0.54605747 171.24374362 -0.56158496 165.5015605 -0.56762695 159.73022461 C-0.55860019 157.98506989 -0.54827073 156.23992149 -0.53674316 154.49478149 C-0.50925443 149.77850577 -0.49989971 145.06235063 -0.49388909 140.3460052 C-0.48448423 135.40921584 -0.45827914 130.4725158 -0.43388367 125.53578186 C-0.39027304 116.19690879 -0.36169269 106.85805311 -0.33856028 97.51910931 C-0.31147945 86.88301754 -0.26756972 76.24701585 -0.22227156 65.6109885 C-0.12950311 43.74069481 -0.06000795 21.87040981 0 0 Z " fill="#FEFEFE" transform="translate(256,126)"/>
<path d="M0 0 C1.98 0.165 1.98 0.165 12 1 C12 15.19 12 29.38 12 44 C-2.04114683 44 -2.04114683 44 -8.8125 42.375 C-9.19390137 42.28589355 -9.19390137 42.28589355 -11.12402344 41.83496094 C-21.60309828 39.25985356 -31.14342971 35.2314436 -40.453125 29.796875 C-41.08814941 29.42997559 -41.72317383 29.06307617 -42.37744141 28.68505859 C-43.92010376 27.79316153 -45.46031795 26.89703215 -47 26 C-46.99111755 27.0956427 -46.98223511 28.1912854 -46.9730835 29.32012939 C-46.89138759 39.73287066 -46.8317454 50.14554546 -46.79275131 60.55853653 C-46.77202899 65.90976752 -46.74399817 71.26073627 -46.69824219 76.61181641 C-46.65422888 81.792534 -46.63074806 86.97300214 -46.62049103 92.15389252 C-46.61319779 94.1134915 -46.598962 96.07307951 -46.57707977 98.03256989 C-46.32510774 121.56912018 -49.67944939 143.28744556 -65 162 C-65.67804688 162.85335937 -66.35609375 163.70671875 -67.0546875 164.5859375 C-79.58084877 179.49803425 -98.62266948 189.24648136 -118 191 C-141.21260172 192.3947178 -161.19948824 187.16019933 -179.05859375 171.8828125 C-181 170 -181 170 -182 168 C-181.731875 168.13470703 -181.731875 168.13470703 -180.375 168.81640625 C-179.59125 169.20699219 -178.8075 169.59757813 -178 170 C-177.071875 170.46277344 -176.14375 170.92554688 -175.1875 171.40234375 C-174.135625 171.90894531 -173.08375 172.41554688 -172 172.9375 C-170.96875 173.44152344 -169.9375 173.94554687 -168.875 174.46484375 C-159.511533 178.45410426 -150.15402587 179.50499152 -140.0625 179.375 C-139.49063965 179.36992432 -139.49063965 179.36992432 -136.59667969 179.34423828 C-128.66488324 179.19819179 -121.51489845 178.71314453 -114 176 C-112.84757812 175.58621094 -111.69515625 175.17242187 -110.5078125 174.74609375 C-102.4224136 171.55540408 -95.72509417 167.47391386 -89 162 C-88.22011719 161.39542969 -87.44023437 160.79085937 -86.63671875 160.16796875 C-72.50942049 148.57821629 -66.07423291 132.29551812 -62 115 C-61.82279922 114.2968013 -61.64559845 113.5936026 -61.46302795 112.86909485 C-60.80857282 108.81384538 -60.82180277 104.81353096 -60.79467773 100.71166992 C-60.78477814 99.78435059 -60.77487854 98.85703125 -60.76467896 97.90161133 C-60.73315838 94.84458954 -60.70834388 91.78755223 -60.68359375 88.73046875 C-60.66301607 86.6076874 -60.64201938 84.48491007 -60.62062073 82.36213684 C-60.56548415 76.78088646 -60.51603779 71.19959961 -60.46777344 65.61828613 C-60.41749694 59.92062137 -60.36184299 54.22300942 -60.30664062 48.52539062 C-60.19916197 37.35030556 -60.09769419 26.17517459 -60 15 C-56.43939876 16.38033122 -53.13119832 17.96657798 -49.78735352 19.81762695 C-33.5886396 28.77417361 -18.50382979 31.57662848 0 33 C0 22.11 0 11.22 0 0 Z " fill="#E9427A" transform="translate(359,195)"/>
<path d="M0 0 C14.19 0 28.38 0 43 0 C43.165 1.815 43.165 1.815 44 11 C33.77 11 23.54 11 13 11 C13.00333092 12.08510361 13.00333092 12.08510361 13.02018738 17.5763855 C13.08152977 38.02869665 13.12615521 58.48099566 13.15543652 78.93337822 C13.17089112 89.4481355 13.19195376 99.96282518 13.22631836 110.47753906 C13.25626377 119.64447581 13.27558522 128.81136359 13.28226548 137.9783479 C13.28616903 142.83009793 13.29531359 147.68170789 13.31719017 152.53341293 C13.33763657 157.10521737 13.34381738 161.67682476 13.33932304 166.24867058 C13.34014461 167.92154068 13.34606151 169.59441775 13.35761642 171.26724815 C13.45046238 185.40905056 11.89651119 196.48326475 1.9609375 207.19921875 C-6.33909413 215.13264121 -14.31581395 217.64900523 -25.59936523 217.54125977 C-36.38827699 217.07103216 -44.5136843 212.64044573 -52 205 C-49 204 -49 204 -45.9375 204.9375 C-36.67599153 207.74108816 -27.74261633 205.70301293 -19 202 C-10.30058737 196.98809959 -4.74258581 189.47403087 -1.65105247 179.97204781 C-0.20239729 173.35895187 -0.56057075 166.47033882 -0.56762695 159.73022461 C-0.55860019 157.98506989 -0.54827073 156.23992149 -0.53674316 154.49478149 C-0.50925443 149.77850577 -0.49989971 145.06235063 -0.49388909 140.3460052 C-0.48448423 135.40921584 -0.45827914 130.4725158 -0.43388367 125.53578186 C-0.39027304 116.19690879 -0.36169269 106.85805311 -0.33856028 97.51910931 C-0.31147945 86.88301754 -0.26756972 76.24701585 -0.22227156 65.6109885 C-0.12950311 43.74069481 -0.06000795 21.87040981 0 0 Z " fill="#81D1F5" transform="translate(256,126)"/>
<path d="M0 0 C0 14.52 0 29.04 0 44 C-0.66 43.67 -1.32 43.34 -2 43 C-1.67 32.44 -1.34 21.88 -1 11 C-23.03561606 13.27954649 -40.42497042 20.01318892 -56 36 C-56.59167969 36.58265625 -57.18335938 37.1653125 -57.79296875 37.765625 C-72.19203212 53.05256627 -76.54777332 73.80783412 -76.26953125 94.0546875 C-75.73420784 110.6945433 -69.10537701 126.7048171 -58.34765625 139.3984375 C-57 141 -57 141 -56 143 C-71.60516663 135.85338608 -81.15701301 118.56294529 -86.95703125 103.30078125 C-89.39316837 95.5909091 -90.29927903 88.58338873 -90.1875 80.5 C-90.18685547 79.61441406 -90.18621094 78.72882813 -90.18554688 77.81640625 C-90.04037238 55.84666628 -81.64522924 37.32155431 -66.58984375 21.4609375 C-46.77367413 2.70807454 -26.62386048 0 0 0 Z " fill="#82D0F4" transform="translate(231,218)"/>
<path d="M0 0 C3.96 0 7.92 0 12 0 C12 14.52 12 29.04 12 44 C5.73 44 -0.54 44 -7 44 C-16.13560094 46.36088564 -23.20380985 51.59465196 -28.66796875 59.375 C-33.89378702 68.44738832 -35.88174071 77.84583486 -33.171875 88.1484375 C-31.70150448 92.24133455 -29.98338105 96.13151354 -28 100 C-34.37589956 97.81397729 -38.14986526 94.30111506 -41.6875 88.625 C-41.97818359 88.16738281 -41.97818359 88.16738281 -43.44921875 85.8515625 C-48.37432962 76.7953133 -48.84299232 65.32784057 -45.97265625 55.47265625 C-41.16646527 45.12802913 -33.95913833 38.22977177 -23.48046875 33.875 C-19.20341957 32.36624564 -15.62148487 31.84124518 -11.0625 31.8125 C-10.04285156 31.79832031 -9.02320313 31.78414063 -7.97265625 31.76953125 C-5 32 -5 32 0 34 C0 22.78 0 11.56 0 0 Z " fill="#E9427A" transform="translate(231,228)"/>
<path d="M0 0 C3.96 0.33 7.92 0.66 12 1 C12 15.19 12 29.38 12 44 C-2.04114683 44 -2.04114683 44 -8.8125 42.375 C-9.57530273 42.19678711 -10.33810547 42.01857422 -11.12402344 41.83496094 C-24.31012978 38.59463293 -35.03459754 32.83737283 -47 26 C-47 56.03 -47 86.06 -47 117 C-47.33 117 -47.66 117 -48 117 C-48 86.64 -48 56.28 -48 25 C-42.0294316 24.00490527 -41.18497404 23.96315459 -36.125 26.25 C-24.3379734 31.08294941 -12.72989429 32.02077736 0 33 C0 22.11 0 11.22 0 0 Z " fill="#DE3F75" transform="translate(359,195)"/>
<path d="M0 0 C3.96 0 7.92 0 12 0 C12.08636719 1.00417969 12.17273438 2.00835937 12.26171875 3.04296875 C13.47137188 15.3929656 16.25068977 26.03660113 24 36 C24 36.66 24 37.32 24 38 C13.85127093 33.69731302 6.95362339 22.84871424 2.75 13.1015625 C0.91266189 8.34234641 0 5.20053225 0 0 Z " fill="#E24278" transform="translate(300,136)"/>
<path d="M0 0 C0.65625 0.21875 0.65625 0.21875 3.9375 1.3125 C4.76636719 1.58449219 5.59523438 1.85648438 6.44921875 2.13671875 C8.02539677 2.67015725 9.59319932 3.23014837 11.14453125 3.83203125 C18.16501944 6.47611122 22.80199309 6.36938408 31 7 C31 21.19 31 35.38 31 50 C30.67 50 30.34 50 30 50 C30 39.11 30 28.22 30 17 C26.7 16.01 23.4 15.02 20 14 C12.40659533 11.01537011 6.01804239 6.48025988 0 1 C0 0.67 0 0.34 0 0 Z " fill="#8BC6E3" transform="translate(328,178)"/>
<path d="M0 0 C2.97 0.99 5.94 1.98 9 3 C8.01 3.99 7.02 4.98 6 6 C3.97945196 4.35830472 1.97956942 2.69088222 0 1 C0 0.67 0 0.34 0 0 Z " fill="#85C4E1" transform="translate(328,178)"/>
<path d="M0 0 C0.495 0.33 0.495 0.33 3 2 C3 2.66 3 3.32 3 4 C2.01 3.67 1.02 3.34 0 3 C0 2.01 0 1.02 0 0 Z " fill="#D14E7A" transform="translate(321,170)"/>
</svg>
