<?xml version="1.0" encoding="UTF-8"?>
<!-- Generator: visioncortex VTracer 0.6.12 -->
<svg version="1.1" xmlns="http://www.w3.org/2000/svg" width="512" height="512">
<path d="M0 0 C40.73258691 37.09857902 66.02515215 90.53183589 68.75683594 145.60009766 C71.35658136 205.24748248 50.85149524 260.57794808 10.75683594 304.60009766 C-27.93161451 345.99314124 -82.40228689 369.90666696 -138.90722656 371.81884766 C-198.08328558 373.11538802 -253.02557579 351.0823785 -295.70410156 310.33056641 C-335.85961751 271.24795203 -358.30392739 216.78829495 -359.52661133 160.9831543 C-360.09627253 102.0016777 -337.31308052 47.55856006 -296.32836914 5.44873047 C-227.86859712 -63.56894457 -117.13368472 -75.618845 0 0 Z " fill="#4DD0E1" transform="translate(401.2431640625,98.39990234375)"/>
<path d="M0 0 C5.965214 4.46761808 10.29935167 9.77086363 12.5625 16.9375 C13.34175075 23.72811365 11.8391125 28.96321866 8.5625 34.9375 C2.82828726 42.0898043 -3.86299732 48.52004995 -10.32836914 55.00537109 C-11.28239736 55.9656863 -12.23624418 56.92618175 -13.18992615 57.88684082 C-16.28068799 60.99834639 -19.37651291 64.10478838 -22.47265625 67.2109375 C-23.54637579 68.28871306 -24.6200647 69.36651912 -25.69372368 70.44435501 C-30.73258149 75.50218381 -35.77379209 80.5576528 -40.81795126 85.61019456 C-46.61627544 91.41831932 -52.40619188 97.23466256 -58.18924624 103.05799043 C-62.68097971 107.57991805 -67.18039502 112.09410954 -71.68559545 116.60261977 C-74.36786114 119.28722811 -77.04676525 121.9749939 -79.71754646 124.67103195 C-82.22625791 127.20309331 -84.74440723 129.72537894 -87.26993752 132.24066162 C-88.62764985 133.59764648 -89.97547433 134.96450236 -91.32290649 136.33169556 C-96.94708694 141.90839931 -101.92021265 146.26386943 -110 147.46875 C-111.134375 147.4584375 -112.26875 147.448125 -113.4375 147.4375 C-114.0046875 147.44265625 -114.0046875 147.44265625 -116.875 147.46875 C-124.81663561 146.28447101 -130.1192851 141.84623879 -135.61621094 136.27636719 C-136.28395035 135.61563705 -136.95168976 134.95490692 -137.6396637 134.27415466 C-139.82718449 132.10412762 -141.99987577 129.91992933 -144.171875 127.734375 C-145.69727216 126.2116752 -147.22326244 124.68956936 -148.74981689 123.16802979 C-151.94017839 119.98355173 -155.12322839 116.79198703 -158.30126953 113.59521484 C-162.3651695 109.50852684 -166.44676459 105.44006092 -170.53402328 101.37675095 C-173.68634536 98.23891764 -176.82903557 95.09157637 -179.96894073 91.94132233 C-181.46983947 90.43776485 -182.97368879 88.93714653 -184.48058319 87.43959808 C-186.58903667 85.34136023 -188.68415015 83.23062301 -190.77636719 81.11621094 C-191.39461868 80.50605637 -192.01287018 79.89590179 -192.64985657 79.26725769 C-198.34524563 73.46005241 -202.46599024 66.67790687 -202.8125 58.375 C-202.72339238 51.59291995 -200.25088137 46.10418973 -195.7578125 41.046875 C-189.55972391 35.37218056 -183.56714793 34.51253556 -175.33203125 34.6953125 C-163.58882939 35.6778746 -155.04626892 47.1863294 -147.25 55.02734375 C-146.29758388 55.98162993 -145.34494305 56.93569188 -144.39208984 57.88954163 C-141.91083075 60.3745797 -139.43259209 62.86260796 -136.95501709 65.35131836 C-134.41587515 67.90077496 -131.87382354 70.44732688 -129.33203125 72.99414062 C-124.36437118 77.97245631 -119.39990314 82.95394371 -114.4375 87.9375 C-111.31440058 86.55114696 -109.20298009 84.9475389 -106.80116272 82.5282135 C-106.09610092 81.82301071 -105.39103912 81.11780792 -104.66461182 80.39123535 C-103.90138611 79.617677 -103.1381604 78.84411865 -102.35180664 78.04711914 C-101.53995407 77.23234604 -100.7281015 76.41757294 -99.89164734 75.57810974 C-98.12919199 73.80804263 -96.36905104 72.03566877 -94.61094856 70.26127815 C-91.8289418 67.45377025 -89.04075729 64.65253489 -86.25083923 61.85289001 C-79.82472931 55.40270727 -73.40866863 48.94255835 -66.99269867 42.48229218 C-60.64649713 36.09249026 -54.29637665 29.70664731 -47.9394207 23.32754326 C-45.19167141 20.56682021 -42.45001283 17.80014383 -39.70851135 15.03321838 C-38.02350024 13.3409419 -36.33820752 11.64894575 -34.65258789 9.95727539 C-33.89138641 9.18574127 -33.13018494 8.41420715 -32.34591675 7.61929321 C-23.89965948 -0.82864633 -11.71352549 -6.91030034 0 0 Z " fill="#FDFEFE" transform="translate(353.4375,180.0625)"/>
</svg>
