<?xml version="1.0" encoding="UTF-8"?>
<!-- Generator: visioncortex VTracer 0.6.12 -->
<svg version="1.1" xmlns="http://www.w3.org/2000/svg" width="512" height="512">
<path d="M0 0 C2.58297781 2.18991597 4.48415844 3.96831688 6 7 C6.09183315 8.41915655 6.12193551 9.84255526 6.12025452 11.26467896 C6.12094185 11.71200378 6.12094185 11.71200378 6.12442017 13.97573853 C6.12082489 14.95972626 6.11722961 15.94371399 6.11352539 16.95751953 C6.11367142 17.99169006 6.11381744 19.0258606 6.1139679 20.09136963 C6.11326924 23.52187166 6.10547901 26.95231991 6.09765625 30.3828125 C6.0957919 32.75649994 6.09436808 35.13018777 6.09336853 37.50387573 C6.08954466 43.76089535 6.07971547 50.01789187 6.06866455 56.27490234 C6.05844764 62.6559213 6.05387031 69.03694398 6.04882812 75.41796875 C6.0380931 87.94532237 6.02120961 100.47265996 6 113 C-7.99499376 113.11685348 -21.98991176 113.20466524 -35.98529339 113.25906086 C-42.48377578 113.28516666 -48.9819307 113.32058392 -55.48022461 113.37719727 C-61.75016821 113.43148006 -68.01979662 113.46141313 -74.28995705 113.47438622 C-76.68341854 113.48363265 -79.07686256 113.50168863 -81.47019005 113.52865028 C-84.81994428 113.56488937 -88.16839218 113.56994727 -91.51831055 113.56762695 C-92.51021393 113.58560333 -93.50211731 113.60357971 -94.52407837 113.62210083 C-99.21373996 113.58689606 -101.29353969 113.55063798 -105.09260559 110.58952332 C-108.10931912 106.49396238 -108.51323403 104.13234027 -108 99 C-106.22719439 96.02327416 -104.14391985 93.57195993 -101 92 C-98.81525817 91.87913832 -96.62687 91.8225238 -94.43896484 91.79467773 C-93.76567642 91.78477814 -93.092388 91.77487854 -92.3986969 91.76467896 C-90.16947974 91.73304885 -87.94024126 91.70830066 -85.7109375 91.68359375 C-84.16679322 91.66302552 -82.62265459 91.64202908 -81.07852173 91.62062073 C-77.01135833 91.56538651 -72.94414401 91.51598322 -68.87689209 91.46777344 C-64.72777771 91.41756825 -60.57873741 91.36187707 -56.4296875 91.30664062 C-48.28652095 91.19904254 -40.14329248 91.09760126 -32 91 C-33.91530573 89.2317314 -35.83227699 87.46532909 -37.75024414 85.69995117 C-38.289105 85.20210869 -38.82796585 84.7042662 -39.38315582 84.19133759 C-43.23483288 80.64973956 -47.16920788 77.34545807 -51.4375 74.3125 C-52.06962402 73.85810547 -52.70174805 73.40371094 -53.35302734 72.93554688 C-100.88615197 39.14162824 -158.23826259 25.7966492 -215.72851562 35.28271484 C-259.47059389 42.93288518 -298.15574973 63.20268398 -330 94 C-330.79664063 94.74507813 -331.59328125 95.49015625 -332.4140625 96.2578125 C-339.02309323 102.58660165 -344.51203796 109.70694236 -350 117 C-350.42958008 117.56348145 -350.85916016 118.12696289 -351.30175781 118.70751953 C-384.12394299 161.95245404 -398.45664775 219.381944 -391.21484375 273.0703125 C-384.43504972 319.79302375 -365.07460941 361.38851525 -332.36523438 395.57177734 C-331.14565415 396.84762576 -329.9390991 398.13589562 -328.734375 399.42578125 C-322.92411895 405.48351117 -316.48245173 410.6014389 -309.79541016 415.64453125 C-308.64457401 416.51337029 -307.4979877 417.38788469 -306.35693359 418.26953125 C-264.50012797 450.5557725 -207.35174587 465.09331301 -155.05371094 458.63623047 C-107.14044458 452.17340633 -64.46570171 432.89199491 -29.42822266 399.36523438 C-28.15237424 398.14565415 -26.86410438 396.9390991 -25.57421875 395.734375 C-18.97357816 389.40338758 -13.48543058 382.28969354 -8 375 C-7.78520996 374.71825928 -7.78520996 374.71825928 -6.69824219 373.29248047 C26.12394299 330.04754596 40.45664775 272.618056 33.21484375 218.9296875 C29.57366591 193.83855739 22.44026302 170.09860389 12 147 C18.15228059 143.14679713 24.28071806 139.75912543 31 137 C60.36208459 191.50727405 64.22180266 257.04533831 47.13720703 315.97607422 C29.26798927 374.54246012 -12.05827859 424.68821858 -65.8203125 453.7890625 C-67.21227114 454.52843856 -68.60551039 455.26540859 -70 456 C-70.68416992 456.36448242 -71.36833984 456.72896484 -72.07324219 457.10449219 C-94.39079143 468.82715482 -119.13822016 476.21299094 -144 480 C-144.41773682 480.06421143 -144.41773682 480.06421143 -146.53173828 480.38916016 C-206.26735301 489.04386422 -269.69368645 473.14113546 -318.3125 437.5 C-347.77535073 414.65208683 -371.57389502 388.08032484 -389 355 C-389.36448242 354.31583008 -389.72896484 353.63166016 -390.10449219 352.92675781 C-401.84629877 330.5727624 -409.1320866 305.88105398 -413 281 C-413.12842285 280.20754883 -413.2568457 279.41509766 -413.38916016 278.59863281 C-422.41925695 220.47764619 -406.52106472 157.33620978 -372.62890625 109.6171875 C-370.47391284 106.69655519 -368.26127302 103.8388808 -366 101 C-365.3296875 100.13761719 -364.659375 99.27523437 -363.96875 98.38671875 C-343.12592997 72.13876443 -317.57866885 51.58149719 -288 36 C-287.31583008 35.63551758 -286.63166016 35.27103516 -285.92675781 34.89550781 C-263.57575063 23.15527084 -238.87950977 15.86145633 -214 12 C-213.20223145 11.87157715 -212.40446289 11.7431543 -211.58251953 11.61083984 C-152.38503511 2.49077922 -88.99192374 18.93987947 -40.84765625 54.11328125 C-34.07253678 59.15426304 -27.64065714 64.5323098 -21.33203125 70.14550781 C-20.52096924 70.86700012 -19.70990723 71.58849243 -18.87426758 72.33184814 C-18.25575928 72.88233826 -17.63725098 73.43282837 -17 74 C-16.99413376 73.18647064 -16.98826752 72.37294128 -16.98222351 71.53475952 C-16.92423384 63.85459591 -16.85212155 56.17475439 -16.76428509 48.49487877 C-16.71962556 44.54689972 -16.68035996 40.59902282 -16.65356445 36.65087891 C-16.62748701 32.83813174 -16.58705389 29.02577855 -16.53681374 25.21327591 C-16.5201749 23.76133768 -16.50864206 22.30933134 -16.50238609 20.85731125 C-16.49271195 18.81770629 -16.46461634 16.77910243 -16.43237305 14.73974609 C-16.42126999 13.58058685 -16.41016693 12.42142761 -16.39872742 11.22714233 C-15.94540421 7.55812324 -14.91730662 5.14706717 -13 2 C-8.47609191 -1.18729888 -5.29441691 -1.54019401 0 0 Z " fill="#000000" transform="translate(435,10)"/>
<path d="M0 0 C7.26 0 14.52 0 22 0 C22 48.51 22 97.02 22 147 C22.66 147.33 22.66 147.33 26 149 C27.44921875 150.5859375 27.44921875 150.5859375 28.6875 152.375 C29.10386719 152.96023437 29.52023437 153.54546875 29.94921875 154.1484375 C32.52907465 158.69435459 32.68931554 163.91332668 32 169 C29.65311091 176.0932881 26.4475454 180.29863135 20 184 C17 185 17 185 14.6461792 184.7900238 C9.28213936 184.48055552 5.47219988 185.33608825 1.29943848 188.72512817 C-3.02151803 192.6022373 -7.02654149 196.78889601 -11.046875 200.97265625 C-12.55187817 202.4981978 -14.05934506 204.02131235 -15.56915283 205.542099 C-19.5197309 209.5345027 -23.43614805 213.55882401 -27.34619141 217.59088135 C-31.34857509 221.70616998 -35.38262318 225.7901598 -39.4140625 229.87695312 C-47.30721804 237.88777332 -55.16461312 245.93269539 -63 254 C-65.79570164 252.65272739 -67.83967803 251.40293767 -70.015625 249.1796875 C-70.54414063 248.64472656 -71.07265625 248.10976563 -71.6171875 247.55859375 C-72.15601563 247.00300781 -72.69484375 246.44742188 -73.25 245.875 C-73.80429688 245.31167969 -74.35859375 244.74835938 -74.9296875 244.16796875 C-76.29104485 242.78313972 -77.64614859 241.39216796 -79 240 C-77.35407861 235.65818142 -74.02312949 232.84586589 -70.74609375 229.70947266 C-69.41801727 228.42073902 -68.08997527 227.13196985 -66.76196289 225.84317017 C-66.05733917 225.16300465 -65.35271545 224.48283913 -64.6267395 223.78206253 C-60.88663242 220.1636613 -57.17655788 216.5146044 -53.4609375 212.87109375 C-48.73637127 208.2421823 -44.0036463 203.62261575 -39.23925781 199.03466797 C-35.38505501 195.32164326 -31.56141516 191.57941294 -27.75588989 187.81653976 C-26.30584127 186.39353845 -24.84506064 184.98138275 -23.3732605 183.58089066 C-10.43616824 171.25349218 -10.43616824 171.25349218 -9.2734375 162.32177734 C-9.2633667 161.77067795 -9.2633667 161.77067795 -9.21240234 158.98178101 C-8.88035641 154.32039993 -6.45063858 151.04674704 -3 148 C-2.01 147.67 -1.02 147.34 0 147 C0 98.49 0 49.98 0 0 Z " fill="#000000" transform="translate(245,102)"/>
</svg>
