<?xml version="1.0" encoding="UTF-8"?>
<!-- Generator: visioncortex VTracer 0.6.12 -->
<svg version="1.1" xmlns="http://www.w3.org/2000/svg" width="512" height="512">
<path d="M0 0 C1.38688893 -0.0166036 2.77369076 -0.04395227 4.16015625 -0.08203125 C6.17461221 -0.13692756 8.18995275 -0.15555933 10.20507812 -0.17333984 C11.40390625 -0.19315918 12.60273437 -0.21297852 13.83789062 -0.23339844 C18.17855058 0.54778961 19.37702557 1.88309056 22.08007812 5.35009766 C23.86513068 8.33738173 25.39554892 11.42074646 26.90820312 14.55322266 C27.34267761 15.43161804 27.7771521 16.31001343 28.22479248 17.21502686 C29.60278802 20.00546007 30.96686006 22.8024199 32.33007812 25.60009766 C33.71037301 28.41060073 35.09347308 31.21969845 36.47821045 34.02801514 C37.33725155 35.77257449 38.19317232 37.51867437 39.04571533 39.26641846 C39.23781586 39.6587265 39.23781586 39.6587265 40.20996094 41.64404297 C40.54795715 42.33733704 40.88595337 43.0306311 41.23419189 43.74493408 C42.08007812 45.35009766 42.08007812 45.35009766 43.08007812 46.35009766 C43.33206467 45.8328009 43.58405121 45.31550415 43.84367371 44.78253174 C46.47367117 39.38958123 49.12066351 34.00522209 51.77758789 28.62548828 C52.76633112 26.61786809 53.7507515 24.6081128 54.73071289 22.59619141 C56.14177781 19.70111244 57.56831853 16.81412125 58.99804688 13.92822266 C59.43158981 13.03016907 59.86513275 12.13211548 60.31181335 11.20684814 C60.73187149 10.36627869 61.15192963 9.52570923 61.5847168 8.65966797 C61.94667648 7.92242493 62.30863617 7.18518188 62.68156433 6.42559814 C64.50972608 3.71246753 66.36438468 2.18584635 69.08007812 0.35009766 C72.08807659 -0.15326691 72.08807659 -0.15326691 75.49845886 -0.15783691 C76.79507446 -0.16911621 78.09169006 -0.18039551 79.42759705 -0.1920166 C80.85757671 -0.18423979 82.28755415 -0.17604714 83.7175293 -0.16748047 C85.22912266 -0.17290299 86.74071073 -0.18002639 88.25228882 -0.1887207 C92.35390494 -0.20694951 96.45511835 -0.19988645 100.55674148 -0.18720436 C104.85622336 -0.17706506 109.15567115 -0.18647348 113.45515442 -0.19274902 C120.68053357 -0.20002665 127.9057492 -0.19043885 135.13110352 -0.17138672 C143.46708912 -0.14965886 151.80268274 -0.15663899 160.1386587 -0.17869234 C167.30661868 -0.19689236 174.47446116 -0.19938101 181.6424368 -0.18893766 C185.91843503 -0.18272264 190.19424962 -0.1818111 194.47023582 -0.19508362 C198.4964234 -0.2067072 202.52211051 -0.19849885 206.54824448 -0.17550659 C208.01952982 -0.17025222 209.49085785 -0.1716767 210.96212578 -0.18055725 C222.50217434 -0.24374631 231.67464593 1.19233515 240.32226562 9.27978516 C247.60537863 17.85767381 248.93553063 27.45495956 248.08007812 38.35009766 C247.18591684 41.67890462 245.8655785 44.41341941 244.08007812 47.35009766 C243.72945313 47.97400391 243.37882812 48.59791016 243.01757812 49.24072266 C238.96440218 55.71454535 232.58341723 59.91987903 225.26560783 61.93394089 C220.70797582 62.80178057 216.07616598 62.60797745 211.45336914 62.57714844 C210.87739738 62.57729446 210.87739738 62.57729446 207.96263123 62.57803345 C204.1696713 62.5766444 200.37690983 62.56110291 196.58398438 62.54541016 C193.94840095 62.54167852 191.31281614 62.53883226 188.67723083 62.53683472 C182.45838614 62.53063257 176.23961223 62.514239 170.02079862 62.49413574 C162.93734696 62.47173721 155.85389181 62.46077339 148.77041352 62.45074487 C134.20693197 62.42987157 119.64350604 62.39472035 105.08007812 62.35009766 C105.08121729 62.90665269 105.08235645 63.46320773 105.08353013 64.03662807 C105.15071222 97.04663363 105.20216197 130.05662201 105.23327411 163.06668066 C105.23702609 167.03314204 105.24090907 170.99960328 105.24487305 174.96606445 C105.24565998 175.75569195 105.24644691 176.54531945 105.24725769 177.35887506 C105.26029993 190.13255495 105.28394725 202.90619421 105.31153651 215.67985002 C105.33962362 228.79369451 105.35626137 241.90751776 105.36234361 255.02139109 C105.3664532 263.10874693 105.37941764 271.19598789 105.40382753 279.28330835 C105.42160904 285.49207078 105.42343541 291.70074622 105.41940117 297.90953064 C105.42022509 300.45114536 105.42617368 302.99276451 105.43769455 305.53435326 C105.45268262 309.01201803 105.44900834 312.48919647 105.44084167 315.96687317 C105.4495802 316.96593321 105.45831872 317.96499325 105.46732205 318.99432784 C105.39260264 330.8155612 102.39693297 340.62011517 94.22851562 349.32275391 C85.83671229 357.19633831 76.60071295 359.7427515 65.27929688 359.63134766 C58.48861233 359.0343644 52.54707826 356.68639366 47.20507812 352.47509766 C44.08007813 350.35009766 44.08007813 350.35009766 41.64257812 350.72509766 C40.179129 351.65313856 38.72013087 352.58850428 37.27539062 353.54541016 C28.91876161 358.97559321 20.99431113 360.37527686 11.08007812 359.35009766 C1.49785603 356.93273603 -6.77190294 352.17484903 -12.91992188 344.35009766 C-16.44738545 337.94806865 -19.04820529 331.85770928 -19.04017639 324.50323486 C-19.04155106 323.53010849 -19.04292572 322.55698212 -19.04434204 321.55436707 C-19.0425444 321.02389015 -19.0425444 321.02389015 -19.03344727 318.33935547 C-19.03359329 317.21711075 -19.03373932 316.09486603 -19.03388977 314.93861389 C-19.03319274 311.2267972 -19.02541009 307.51503059 -19.01757812 303.80322266 C-19.0157132 301.23061144 -19.01428965 298.65799988 -19.01329041 296.08538818 C-19.00986153 290.00459031 -19.00197887 283.92381314 -18.99194092 277.84302306 C-18.98075972 270.9192435 -18.97526427 263.99546307 -18.97024548 257.07167673 C-18.95979573 242.83114071 -18.94220879 228.59061982 -18.91992188 214.35009766 C-20.01771973 214.67768066 -21.11551758 215.00526367 -22.24658203 215.34277344 C-29.69633213 217.38568643 -37.00819877 215.99345921 -43.85742188 212.56884766 C-52.08322071 207.70814834 -56.92906057 200.87638782 -59.49313927 191.64832115 C-60.45546179 186.46621628 -60.20486516 181.14632722 -60.19458008 175.89428711 C-60.19893273 174.53342918 -60.20411772 173.17257369 -60.21006775 171.8117218 C-60.22341399 168.12960203 -60.22404099 164.44758518 -60.22150445 160.76544595 C-60.22043111 157.68192515 -60.2253277 154.59842487 -60.23010987 151.51490849 C-60.24119134 144.2321726 -60.24165105 136.94948828 -60.2355957 129.66674805 C-60.22956541 122.1794685 -60.24184594 114.69237733 -60.26316577 107.20512992 C-60.28084623 100.75643485 -60.28677276 94.30779936 -60.28352803 87.85908097 C-60.28172423 84.01677876 -60.28425968 80.17461074 -60.29824257 76.3323307 C-60.3109206 72.7133017 -60.30878389 69.09456337 -60.29583168 65.47553825 C-60.29237994 63.53367208 -60.30357184 61.59179661 -60.31539917 59.64996338 C-60.21643295 42.93959125 -55.07815288 27.6548336 -43.29101562 15.52978516 C-30.63631497 3.89663364 -16.82270323 0.14749763 0 0 Z M-30.73242188 34.10009766 C-39.16224781 44.34888835 -39.07008149 56.3848238 -39.06518555 69.02075195 C-39.06854416 70.2720993 -39.07190277 71.52344666 -39.07536316 72.81271362 C-39.0832023 76.22364254 -39.08653862 79.63451057 -39.08717895 83.04544425 C-39.08789217 85.17893275 -39.0900315 87.31241495 -39.09267616 89.44590187 C-39.10190622 96.8951724 -39.10601351 104.34442511 -39.10522461 111.79370117 C-39.10462267 118.72953558 -39.11520318 125.66529251 -39.13096827 132.6011073 C-39.1440448 138.56733079 -39.14940854 144.53352893 -39.1487692 150.49976665 C-39.14851448 154.05843739 -39.15135188 157.61703901 -39.16194725 161.17569542 C-39.17342988 165.13970352 -39.16888075 169.10360492 -39.1628418 173.06762695 C-39.1684613 174.24332748 -39.17408081 175.41902802 -39.17987061 176.63035583 C-39.17567612 177.71109375 -39.17148163 178.79183167 -39.16716003 179.90531921 C-39.1677048 180.84161006 -39.16824957 181.77790091 -39.16881084 182.7425642 C-38.76866301 186.93479046 -37.62118128 189.60876628 -34.73242188 192.66259766 C-31.09743945 194.84358711 -29.09482364 195.02106401 -24.91992188 194.35009766 C-22.28976026 192.17735546 -20.44655293 190.40335978 -18.91992188 187.35009766 C-18.8246314 185.90426493 -18.79091017 184.45414039 -18.78862 183.00517273 C-18.78461182 182.09250641 -18.78060364 181.17984009 -18.776474 180.23951721 C-18.77700272 179.23533249 -18.77753143 178.23114777 -18.77807617 177.1965332 C-18.77460175 176.14113342 -18.77112732 175.08573364 -18.76754761 173.99835205 C-18.76018201 171.70060951 -18.75484093 169.40285981 -18.75125694 167.10510826 C-18.74410751 163.46998148 -18.72845248 159.83499094 -18.70991516 156.1999054 C-18.65737267 145.86237452 -18.60945473 135.5249174 -18.59399414 125.18725586 C-18.58392453 118.86949389 -18.55462455 112.55207295 -18.51267433 106.23444557 C-18.50034388 103.82431427 -18.49524678 101.41413483 -18.49747276 99.00397301 C-18.49982007 95.6328925 -18.477701 92.26279375 -18.44995117 88.8918457 C-18.45655258 87.89373367 -18.46315399 86.89562164 -18.46995544 85.86726379 C-18.41090144 81.50427961 -18.34082724 79.03311002 -16.01179504 75.2537384 C-13.26637023 72.75535436 -12.37051022 72.38410432 -8.60742188 72.10009766 C-4.72337111 72.36342313 -2.97460783 73.01416134 0.08007812 75.35009766 C1.22259703 77.63513547 1.20685048 78.89509951 1.21036339 81.43413067 C1.21398774 82.29419458 1.21761208 83.15425849 1.22134626 84.04038495 C1.22027801 84.99084866 1.21920975 85.94131236 1.21810913 86.920578 C1.22093041 87.92598532 1.22375169 88.93139265 1.22665846 89.96726686 C1.23503464 93.35814977 1.2363453 96.74900015 1.23779297 100.13989258 C1.242459 102.56229749 1.24760222 104.98470153 1.25318909 107.40710449 C1.26448756 112.63506599 1.27296409 117.8630244 1.27930832 123.09099388 C1.28962749 131.35571295 1.31018998 139.6203917 1.33242798 147.88508606 C1.33990813 150.71198927 1.34732183 153.53889265 1.35471535 156.36579609 C1.35564063 156.7190631 1.35564063 156.7190631 1.36032312 158.50680828 C1.38125909 166.55328167 1.40008228 174.59975953 1.41796875 182.64624023 C1.41960693 183.38195491 1.42124511 184.11766958 1.42293294 184.87567864 C1.44920447 196.79185746 1.46785464 208.70803938 1.48456065 220.62423488 C1.50198712 232.85675266 1.53083974 245.08920969 1.56945002 257.32167894 C1.5928401 264.86712789 1.6068437 272.41247777 1.60877766 279.95796327 C1.61113819 285.74329365 1.62901697 291.52849533 1.65264702 297.31377411 C1.65984877 299.68612231 1.66193676 302.05849236 1.65854454 304.43084908 C1.65465386 307.66901324 1.66909222 310.90659996 1.68807983 314.1446991 C1.68255014 315.0840092 1.67702044 316.0233193 1.67132318 316.99109334 C1.74135317 323.90788724 2.93288357 328.58941894 7.26757812 334.16259766 C11.92095917 337.78189403 15.88371702 338.61517572 21.70507812 337.91259766 C26.53339096 335.67726764 29.70224873 332.10575645 32.08007812 327.35009766 C32.17783695 325.82830408 32.21346724 324.30231278 32.21810913 322.77738953 C32.22356247 321.81423828 32.22901581 320.85108704 32.2346344 319.85874939 C32.23567673 318.79846024 32.23671906 317.73817108 32.23779297 316.64575195 C32.24287369 315.53183075 32.24795441 314.41790955 32.25318909 313.27023315 C32.26391032 310.84480775 32.27252358 308.41937234 32.27930832 305.99393272 C32.29106814 302.15718233 32.31051349 298.32054598 32.33242798 294.48384094 C32.39414244 283.57284348 32.44834785 272.6618571 32.48144531 261.75073242 C32.50176024 255.0828856 32.53765105 248.41527301 32.58220291 241.74753761 C32.59638514 239.20343263 32.60509033 236.65929109 32.60825729 234.11514854 C32.61315453 230.55742087 32.63628329 227.00024326 32.66357422 223.44262695 C32.66207115 222.91551872 32.66207115 222.91551872 32.65446472 220.24803162 C32.75671893 211.29180733 32.75671893 211.29180733 36.08007812 207.35009766 C39.73690328 204.8120958 42.77504288 205.21750659 47.02148438 205.80322266 C49.08007812 206.35009766 49.08007812 206.35009766 51.08007812 208.22509766 C52.68827774 211.64252184 53.20577638 214.30366913 53.21138 218.03633118 C53.21538818 218.99941193 53.21939636 219.96249268 53.223526 220.95475769 C53.22299728 222.00988052 53.22246857 223.06500336 53.22192383 224.15209961 C53.22539825 225.26456055 53.22887268 226.37702148 53.23245239 227.52319336 C53.23981197 229.9425996 53.24515627 232.36201261 53.24874306 234.78142738 C53.25590004 238.61013413 53.27156077 242.43871208 53.29008484 246.26737976 C53.34259233 257.15455806 53.39097422 268.04165414 53.40600586 278.92895508 C53.41528995 285.58501015 53.44539027 292.24077719 53.48732567 298.89671898 C53.49964872 301.43441512 53.50475456 303.97215689 53.50252724 306.50988197 C53.50017784 310.06024376 53.52231511 313.60967584 53.55004883 317.15991211 C53.54344742 318.20896225 53.53684601 319.25801239 53.53004456 320.33885193 C53.60682529 326.32198155 54.0881219 329.79466193 58.08007812 334.35009766 C61.60286407 337.03853956 64.66036596 338.08491493 69.08007812 338.35009766 C74.88580775 337.52070771 77.41338061 335.42678543 80.91601562 331.00634766 C82.9635577 328.09306631 83.20604334 326.29755837 83.21036339 322.77633953 C83.21217556 322.29169824 83.21217556 322.29169824 83.22134626 319.83911961 C83.22081213 319.30289594 83.22081213 319.30289594 83.21810913 316.58927917 C83.21951977 316.02257489 83.21951977 316.02257489 83.22665846 313.15470773 C83.23503713 309.33075214 83.2363455 305.50682537 83.23779297 301.68286133 C83.24189084 298.95179527 83.24753507 296.22073303 83.25318909 293.4896698 C83.26472585 287.59544725 83.27296436 281.70122758 83.27930832 275.8069973 C83.2896233 266.4926756 83.31018398 257.17838972 83.33242798 247.86408997 C83.33990807 244.67903054 83.34732175 241.49397095 83.35471535 238.30891132 C83.35656591 237.51288006 83.35841648 236.7168488 83.36032312 235.89669537 C83.38125927 226.8309547 83.40008317 217.76521006 83.41796875 208.69946289 C83.41960693 207.87051454 83.42124511 207.04156619 83.42293294 206.18749819 C83.44921892 192.75356705 83.46786126 179.31963316 83.48456065 165.88568719 C83.50197368 152.10054606 83.53081087 138.31545897 83.56945002 124.530361 C83.5928662 116.02370227 83.60684604 107.51713166 83.60877766 99.01044045 C83.61088503 93.18137669 83.62379739 87.3524006 83.64525698 81.52337619 C83.65729985 78.1586818 83.66280102 74.79430919 83.65854454 71.42957306 C83.65466806 67.78347898 83.66904612 64.13790285 83.68807983 60.49186707 C83.68255014 59.42611189 83.67702044 58.36035671 83.67132318 57.26230592 C83.72992908 50.78434307 84.36773509 47.06244069 89.08007812 42.35009766 C91.32405472 42.09676456 91.32405472 42.09676456 94.17755127 42.09181213 C95.25705551 42.08498413 96.33655975 42.07815613 97.44877625 42.07112122 C98.63840469 42.07367416 99.82803314 42.07622711 101.05371094 42.07885742 C102.30257584 42.07363068 103.55144073 42.06840393 104.83815002 42.0630188 C107.55832642 42.05275343 110.27825019 42.04605822 112.99842072 42.04513741 C117.30173343 42.043199 121.6048846 42.02515715 125.90814209 42.00437927 C136.60043914 41.95515235 147.29278029 41.92432999 157.98516846 41.90307617 C166.2874012 41.88654512 174.58949611 41.86369614 182.89163661 41.82005543 C187.16682103 41.7982981 191.44174355 41.79021951 195.7169795 41.79244816 C199.00766522 41.79038571 202.29823771 41.7690189 205.58886719 41.75073242 C206.17963295 41.75302101 206.17963295 41.75302101 209.16926575 41.76460266 C219.2630387 41.67532466 219.2630387 41.67532466 224.08007812 38.35009766 C226.66436434 35.34899109 227.07151784 33.8294738 227.14257812 29.85009766 C226.07992247 26.34958492 225.08592445 24.62386996 222.2082634 22.37833595 C217.39153475 20.05112087 211.77698765 20.70945525 206.54736328 20.7824707 C205.16718599 20.78388225 203.78700495 20.78308711 202.40682983 20.78025818 C198.67143576 20.77882673 194.93684853 20.80817132 191.20164156 20.84312797 C187.29392394 20.87443734 183.38618673 20.87732579 179.47836304 20.883255 C172.08353097 20.89878008 164.68906959 20.93979015 157.29440057 20.99000245 C148.87367604 21.04593776 140.45293358 21.0733929 132.03206944 21.09847963 C114.71452478 21.15070744 97.39734068 21.23862339 80.08007812 21.35009766 C79.73008759 22.07006424 79.38009705 22.79003082 79.01950073 23.53181458 C75.71365017 30.32404853 72.39045156 37.10737368 69.04755974 43.88144398 C67.32965327 47.36417254 65.61858506 50.84992072 63.92285156 54.34350586 C62.28529167 57.71660556 60.63015924 61.08053537 58.96261978 64.43890953 C58.33038344 65.71997751 57.70448012 67.00419162 57.08514023 68.29154396 C56.2148333 70.09773417 55.31955316 71.89182597 54.42333984 73.68530273 C53.92148163 74.70900467 53.41962341 75.7327066 52.90255737 76.78742981 C50.6533149 79.9501881 48.68266798 80.98666162 45.08007812 82.35009766 C41.25915797 82.28421972 39.01046462 82.136462 36.0581665 79.64117432 C33.89099852 77.13110043 32.52749703 74.72579763 31.05566406 71.75537109 C30.49538513 70.63451111 29.9351062 69.51365112 29.35784912 68.35882568 C28.75987746 67.1424597 28.16208289 65.92600665 27.56445312 64.70947266 C26.94310396 63.45930721 26.32104329 62.20949516 25.69830322 60.96002197 C24.06698214 57.68216085 22.44533107 54.39960829 20.82568359 51.1159668 C19.16892759 47.76142184 17.50302079 44.41142892 15.83789062 41.06103516 C12.5763407 34.49513032 9.32499858 27.92423958 6.08007812 21.35009766 C3.8575085 21.31953001 1.63481607 21.29781522 -0.58789062 21.27978516 C-1.20676147 21.27325928 -1.20676147 21.27325928 -4.33862305 21.24023438 C-14.95648354 21.56595782 -23.5118157 26.49541668 -30.73242188 34.10009766 Z " fill="#000000" transform="translate(79.919921875,132.64990234375)"/>
<path d="M0 0 C7.26 0 14.52 0 22 0 C22 6.6 22 13.2 22 20 C24.03906021 19.99333817 26.07812042 19.98667633 28.17897034 19.97981262 C47.38134223 19.91851127 66.58370123 19.87386386 85.78614902 19.84456348 C95.65866015 19.82909875 105.53109944 19.80801672 115.40356445 19.77368164 C124.00903542 19.74376727 132.61445437 19.72442213 141.21997589 19.71773452 C145.77596886 19.71382572 150.33181301 19.70464764 154.88775826 19.68280983 C159.17803065 19.66241251 163.46809322 19.65617276 167.7584095 19.66067696 C169.33094931 19.65985321 170.9034963 19.65390685 172.47599411 19.64238358 C174.62829941 19.62738818 176.7798195 19.63107139 178.93214417 19.63923645 C179.53361409 19.63785376 179.53361409 19.63785376 182.57741642 19.63085651 C186.6134847 20.06616752 189.44537135 21.03971409 193 23 C195.53973453 26.46084383 196.37517715 28.91170815 196.37752342 33.17716217 C196.38534666 34.20466882 196.39316991 35.23217547 196.40123022 36.29081869 C196.39453805 37.41289174 196.38784589 38.53496478 196.38095093 39.69104004 C196.3856309 40.88826518 196.39031087 42.08549031 196.39513266 43.318995 C196.40502999 46.63888624 196.40146588 49.95826852 196.39217401 53.27812886 C196.38538986 56.85964668 196.39586158 60.44111983 196.40411377 64.02262878 C196.4174601 71.03748459 196.41456938 78.05224415 196.40587585 85.06710374 C196.39910324 90.76775107 196.39818074 96.46837141 196.4014473 102.16902161 C196.401907 102.98008139 196.40236669 103.79114116 196.40284032 104.62677851 C196.40379949 106.2743832 196.40477213 107.92198787 196.4057581 109.56959254 C196.41431463 125.02255085 196.40447374 140.47545579 196.388357 155.92840534 C196.37495357 169.19041545 196.37728159 182.45234678 196.39111328 195.71435547 C196.40716446 211.11166796 196.41349063 226.50893365 196.40427649 241.90625334 C196.40332083 243.54782835 196.40237772 245.18940337 196.4014473 246.83097839 C196.40098447 247.6386842 196.40052164 248.44639001 196.40004479 249.27857175 C196.39745351 254.9729828 196.40182887 260.66736418 196.40888596 266.36177063 C196.41729602 273.30048756 196.41503126 280.23910267 196.39904372 287.17780793 C196.3911543 290.71868503 196.38808071 294.25939229 196.39799118 297.80026817 C196.40856626 301.63659501 196.39594715 305.47264317 196.38095093 309.30895996 C196.38764309 310.43103301 196.39433526 311.55310605 196.40123022 312.70918131 C196.39340697 313.73668796 196.38558373 314.76419461 196.37752342 315.82283783 C196.37727989 316.26556557 196.37727989 316.26556557 196.37604749 318.50603628 C195.90912445 321.60269067 194.82257219 323.47118288 193 326 C188.6838969 328.79393536 185.33104276 329.37282238 180.24221802 329.36076355 C179.58780664 329.36332682 178.93339527 329.3658901 178.25915325 329.36853105 C176.08022792 329.37344756 173.90200534 329.35701241 171.72314453 329.34057617 C170.15577714 329.33972943 168.58840857 329.34020596 167.02104187 329.34190369 C162.77556005 329.34276324 158.53033331 329.32514396 154.28491068 329.30418181 C149.84464726 329.28540839 145.40437779 329.28366405 140.96408081 329.28010559 C132.56001529 329.27078708 124.15606705 329.24617592 115.75205314 329.21605712 C106.18258421 329.18250708 96.61310963 329.16602558 87.04359651 329.15097082 C67.36233225 329.1196262 47.68117352 329.06686946 28 329 C28.28345528 329.56506697 28.56691055 330.13013393 28.85895538 330.71232414 C35.74832345 344.4469366 42.63328779 358.18374601 49.51332855 371.92303276 C52.84053792 378.56712863 56.16924621 385.2104656 59.50146484 391.85205078 C62.40502718 397.6392725 65.30579649 403.4278839 68.20318747 409.21819794 C69.7381438 412.28549799 71.27451196 415.35207256 72.81422424 418.41698837 C74.53088134 421.83425643 76.24130241 425.25462316 77.95117188 428.67529297 C78.46546249 429.69668365 78.97975311 430.71807434 79.5096283 431.77041626 C79.97240677 432.69872253 80.43518524 433.62702881 80.9119873 434.58346558 C81.31757622 435.39279982 81.72316513 436.20213406 82.14104462 437.03599358 C83 439 83 439 83 441 C76.07 441 69.14 441 62 441 C55.71263543 429.13508389 49.54604454 417.22801143 43.56542778 405.20602036 C42.26837004 402.59883476 40.96860131 399.99301512 39.66822815 397.38748169 C36.92234565 391.88446948 34.17970104 386.37984742 31.4375 380.875 C28.22459496 374.42553389 25.01034304 367.97674573 21.79277229 361.52960587 C20.51201984 358.96162026 19.23367648 356.3924449 17.95542908 353.82321167 C17.17930568 352.26733683 16.40307192 350.71151704 15.62670898 349.15576172 C15.27198517 348.44114777 14.91726135 347.72653381 14.55178833 346.99026489 C12.11384305 342.11384305 12.11384305 342.11384305 11 341 C-5.5 374 -22 407 -39 441 C-46.26 441 -53.52 441 -61 441 C-59.69629215 437.08887644 -58.55177594 433.85449133 -56.74740601 430.25430298 C-56.29870651 429.35415466 -55.85000702 428.45400635 -55.38771057 427.52658081 C-54.89931198 426.55697418 -54.41091339 425.58736755 -53.90771484 424.58837891 C-53.6490992 424.07100159 -53.6490992 424.07100159 -52.34034729 421.45275879 C-50.63433077 418.0421161 -48.92266881 414.63434013 -47.2109375 411.2265625 C-46.02517389 408.85876645 -44.83976403 406.49079321 -43.6546936 404.12265015 C-40.8565653 398.53259873 -38.05436625 392.94459841 -35.25068438 387.35733068 C-31.74420271 380.36895441 -28.24318794 373.37784212 -24.7421875 366.38671875 C-18.50002589 353.92184982 -12.24963227 341.46113119 -6 329 C-34.38 329 -62.76 329 -92 329 C-92 321.74 -92 314.48 -92 307 C-3.89 307 84.22 307 175 307 C175 219.55 175 132.1 175 42 C83.59 42 -7.82 42 -102 42 C-102 34.74 -102 27.48 -102 20 C-68.34 20 -34.68 20 0 20 C0 13.4 0 6.8 0 0 Z " fill="#000000" transform="translate(296,20)"/>
<path d="M0 0 C11.13033995 9.39858011 17.53480519 21.4579056 19.2109375 35.93359375 C19.93480022 49.8136615 16.28525706 63.18432231 7.26953125 73.90625 C-2.26963877 84.21626204 -13.81773106 91.6003873 -28.1796875 92.33203125 C-44.39154333 92.64063472 -57.1975791 88.78739344 -69.6640625 77.99609375 C-75.48166438 71.30536107 -80.10667421 64.51601163 -82.6640625 55.99609375 C-82.77556641 55.63322266 -82.77556641 55.63322266 -83.33984375 53.796875 C-86.64544787 41.2715587 -84.86728658 27.8031468 -79.0390625 16.30859375 C-71.14997368 2.94584084 -60.22367046 -5.07210922 -45.6640625 -10.00390625 C-29.14380811 -13.48300618 -13.43189438 -10.10346308 0 0 Z M-54.4140625 19.43359375 C-61.09018611 27.03695675 -63.15870152 33.68090226 -62.9765625 43.67578125 C-62.21437891 51.77398194 -58.69518811 58.56114837 -52.6640625 63.99609375 C-45.39989075 69.55888108 -37.79270206 71.92240415 -28.6640625 70.99609375 C-20.22655716 69.53447865 -13.46664042 65.71685511 -8.0625 59.0078125 C-3.11824112 51.56251038 -1.70351908 43.8233662 -2.6640625 34.99609375 C-4.84468584 26.14302413 -9.97375188 19.38219363 -17.3515625 14.12109375 C-30.317406 6.72278847 -43.81810594 10.04172317 -54.4140625 19.43359375 Z " fill="#000000" transform="translate(155.6640625,31.00390625)"/>
</svg>
