<?xml version="1.0" encoding="UTF-8"?>
<!-- Generator: visioncortex VTracer 0.6.12 -->
<svg version="1.1" xmlns="http://www.w3.org/2000/svg" width="512" height="512">
<path d="M0 0 C0.55933654 -0.00304555 0.55933654 -0.00304555 3.38991845 -0.01845789 C7.12838661 -0.03507126 10.86651356 -0.03031428 14.60501099 -0.0255127 C17.28945073 -0.03285396 19.97386514 -0.04134793 22.65829468 -0.05117798 C29.18712076 -0.0721957 35.71585797 -0.07677495 42.24471389 -0.07499009 C47.55337291 -0.07368067 52.86200429 -0.07749577 58.17065811 -0.08491516 C59.70183535 -0.08701443 61.23301259 -0.08911203 62.76418984 -0.09120798 C63.14528549 -0.09172974 63.14528549 -0.09172974 65.07386042 -0.09437019 C79.47733586 -0.11325764 93.88076032 -0.11222689 108.284243 -0.10540086 C121.44937318 -0.0998259 134.61430872 -0.12065142 147.77939342 -0.15376133 C161.31048021 -0.18752655 174.84147384 -0.20266318 188.37260354 -0.1980443 C195.96403908 -0.19580255 203.55529472 -0.20099968 211.14669418 -0.22593689 C217.60947515 -0.24698664 224.07197756 -0.25050578 230.53477012 -0.2316373 C233.82936328 -0.22250191 237.12333187 -0.22399769 240.4179039 -0.24199295 C243.99652225 -0.26018857 247.57376651 -0.24743145 251.15234375 -0.22705078 C251.66811098 -0.23330971 251.66811098 -0.23330971 254.27820575 -0.26498365 C262.7251989 -0.16211919 269.18308483 2.33347814 275.57815552 7.89440918 C276.27940552 8.71940918 276.98065552 9.54440918 277.70315552 10.39440918 C278.40440552 11.11628418 279.10565552 11.83815918 279.82815552 12.58190918 C284.79506847 20.0322786 285.13955452 28.42596949 285.08410645 37.12831116 C285.08878642 38.26981642 285.09346639 39.41132169 285.09828818 40.58741802 C285.11020092 44.39112181 285.10079522 48.19446284 285.09133911 51.99816895 C285.09375694 54.73378233 285.10064119 57.46938058 285.10726929 60.20498657 C285.12057445 66.85085955 285.11774342 73.49663061 285.10903136 80.1425075 C285.10224309 85.54551841 285.10134303 90.94850086 285.10460281 96.35151482 C285.10506251 97.1218872 285.10552221 97.89225958 285.10599584 98.68597658 C285.10695506 100.25119266 285.1079277 101.81640874 285.10891362 103.38162481 C285.11745793 118.04117762 285.10764814 132.70067406 285.09151252 147.36021762 C285.07810753 159.92787674 285.08044076 172.49545273 285.0942688 185.06311035 C285.11033696 199.67346134 285.11663686 214.283763 285.10743201 228.89412159 C285.1064764 230.45312082 285.10553329 232.01212006 285.10460281 233.57111931 C285.10413999 234.33808979 285.10367716 235.10506027 285.10320031 235.89527227 C285.10061433 241.28980321 285.1049729 246.68430274 285.11204147 252.07882881 C285.1204703 258.65572591 285.11814724 265.23251565 285.10219924 271.80940051 C285.09433536 275.16250281 285.09281765 278.51527884 285.1011467 281.86840248 C285.10935399 285.50827646 285.09904958 289.14764875 285.08410645 292.78749084 C285.09079861 293.84002865 285.09749078 294.89256645 285.10438573 295.97699934 C285.03189549 305.0912309 283.23285621 313.65511316 276.70315552 320.39440918 C268.73064572 326.79010096 261.82311987 328.69994219 251.7505188 328.62145996 C250.76453201 328.62175201 249.77854523 328.62204407 248.76268005 328.62234497 C245.51618532 328.62095593 242.26992247 328.6054146 239.02346802 328.58972168 C236.76759975 328.58599004 234.51172985 328.58314378 232.25585938 328.58114624 C226.32766215 328.57352168 220.39956342 328.55388321 214.47140503 328.53173828 C208.41846041 328.51125454 202.36549983 328.50213911 196.31253052 328.49206543 C184.44269565 328.47063628 172.57293379 328.43651447 160.70315552 328.39440918 C160.57727051 329.0688356 160.4513855 329.74326202 160.32168579 330.43812561 C160.15044189 331.32934616 159.979198 332.22056671 159.80276489 333.13879395 C159.63562988 334.01947037 159.46849487 334.90014679 159.29629517 335.80751038 C158.42924085 339.58905118 156.96747294 342.8925793 155.20315552 346.33190918 C154.85494751 347.01503174 154.5067395 347.6981543 154.14797974 348.40197754 C146.44994902 362.83027685 134.0446357 372.15633347 118.70315552 377.39440918 C102.44377461 382.25510831 84.5540939 380.59222913 69.55862427 372.74987793 C66.81811649 371.08907773 64.26069437 369.32304503 61.70315552 367.39440918 C60.99932739 366.88394043 60.29549927 366.37347168 59.57034302 365.84753418 C48.05529004 356.72580593 40.96712263 342.7018373 38.70315552 328.39440918 C38.12179337 328.40329163 37.54043121 328.41217407 36.94145203 328.42132568 C30.85764457 328.51023411 24.77402349 328.57032285 18.68972778 328.61413574 C16.42304988 328.63417625 14.1564232 328.66141629 11.8899231 328.69616699 C8.62050696 328.74501786 5.35177795 328.7674543 2.08206177 328.78503418 C1.58031685 328.79535675 1.58031685 328.79535675 -0.95881653 328.84759521 C-10.1523308 328.85048758 -18.54156334 325.81031017 -25.29684448 319.39440918 C-29.84773618 313.63763604 -33.53977792 307.88208844 -33.5569067 300.37176991 C-33.56397229 299.37869731 -33.57103788 298.38562471 -33.57831758 297.362459 C-33.5759025 296.27881509 -33.57348741 295.19517118 -33.57099915 294.07868958 C-33.57623582 292.92174424 -33.5814725 291.7647989 -33.58686787 290.57279462 C-33.59927383 287.36531176 -33.60271143 284.15796473 -33.60227096 280.95046246 C-33.60392042 277.48950204 -33.61698943 274.02858142 -33.62846375 270.56764221 C-33.65130378 263.00139302 -33.65923341 255.4351719 -33.66429019 247.86889291 C-33.66754863 243.14249711 -33.67407204 238.41610944 -33.68129158 233.68971825 C-33.70085689 220.59810429 -33.71726128 207.50649788 -33.72016811 194.41486835 C-33.7202619 193.99606317 -33.7202619 193.99606317 -33.72073651 191.87665511 C-33.72110275 190.17868213 -33.72146645 188.48070914 -33.72182762 186.78273616 C-33.72201043 185.93988367 -33.72219324 185.09703117 -33.72238159 184.2286377 C-33.72256214 183.38475371 -33.72274269 182.54086973 -33.72292871 181.6714135 C-33.7264693 168.00171281 -33.75348477 154.33216976 -33.79087948 140.66252372 C-33.82898399 126.62077461 -33.84832575 112.57910367 -33.84862763 98.53730172 C-33.84921175 90.6562975 -33.85767418 82.77548128 -33.88662529 74.89452553 C-33.91116801 68.18282117 -33.91840276 61.47137339 -33.90337776 54.75963626 C-33.89622028 51.33749958 -33.89701489 47.91586923 -33.91978836 44.49378967 C-33.94022187 40.77710142 -33.92971044 37.06171882 -33.91157532 33.345047 C-33.92477529 32.27255669 -33.93797525 31.20006639 -33.95157522 30.09507638 C-33.85801685 21.68206696 -31.51624538 15.27271798 -26.12106323 8.77331543 C-25.41594604 8.17390137 -24.71082886 7.5744873 -23.98434448 6.95690918 C-23.28696167 6.33944824 -22.58957886 5.7219873 -21.87106323 5.08581543 C-14.76553912 0.41708714 -8.27178976 -0.04254021 0 0 Z M69.67190552 290.53112793 C60.88750147 301.19524556 58.73848326 311.84823672 59.70315552 325.39440918 C62.14372566 336.5094629 68.54010393 345.75551897 77.70315552 352.39440918 C87.07422985 358.22854106 97.49963062 359.83852081 108.34378052 357.92956543 C120.04853437 354.81933996 128.58613729 348.08946712 135.23831177 338.08581543 C140.95054426 327.94368835 141.73285418 316.87812492 138.87112427 305.71862793 C135.26965019 295.46827864 128.37332138 286.80171683 118.63674927 281.82800293 C101.30890474 274.36533614 83.15702 276.34582481 69.67190552 290.53112793 Z " fill="#000000" transform="translate(33.296844482421875,132.6055908203125)"/>
<path d="M0 0 C9.84952935 -0.06978673 19.698999 -0.12295602 29.54872608 -0.15543652 C34.1233124 -0.17103259 38.69772844 -0.19215895 43.2722168 -0.22631836 C47.69427328 -0.25912947 52.11616689 -0.27689847 56.5383358 -0.28463173 C58.21787768 -0.29013647 59.89741156 -0.30088492 61.57688332 -0.31719017 C79.51601401 -0.48428451 93.01747666 2.92877853 106.41796875 15.4609375 C107.27003906 16.29882812 108.12210937 17.13671875 109 18 C109.61117676 18.58273682 110.22235352 19.16547363 110.85205078 19.76586914 C115.63731333 24.40527441 119.64338328 29.2624028 123.5 34.6875 C124.71711686 36.36967243 125.93593216 38.050617 127.15625 39.73046875 C127.47013672 40.16319092 127.47013672 40.16319092 129.05859375 42.35302734 C132.30856148 46.78413274 135.65685599 51.1390436 139 55.5 C140.34687409 57.26783317 141.69323024 59.03606107 143.0390625 60.8046875 C144.98819532 63.36572411 146.94081398 65.92343659 148.90917969 68.46972656 C155.43894269 76.92181896 161.56387038 85.38707678 166.625 94.8125 C167.01478027 95.52809082 167.40456055 96.24368164 167.80615234 96.98095703 C175.71826915 112.43207627 175.60887063 127.4175354 175.56640625 144.390625 C175.57164934 146.94741033 175.57792832 149.50419373 175.58518982 152.06097412 C175.59555295 157.39654714 175.59142353 162.73184258 175.57641602 168.06738281 C175.55945929 174.21049259 175.57540155 180.35289353 175.6076389 186.49592614 C175.63765924 192.44508256 175.63949992 198.39402043 175.6301403 204.34325409 C175.62932303 206.85814081 175.63614339 209.37304256 175.65091133 211.88788605 C175.66841181 215.40527056 175.65376908 218.92115139 175.63110352 222.43847656 C175.63694962 222.9518457 175.63694962 222.9518457 175.66653442 225.54980469 C175.54986037 234.48946094 172.40544095 242.59455905 166 249 C159.08660161 254.28437923 153.16098362 257.27670627 144.2890625 257.1953125 C143.04511719 257.18886719 141.80117188 257.18242187 140.51953125 257.17578125 C139.23433594 257.15902344 137.94914063 257.14226562 136.625 257.125 C135.31660156 257.11597656 134.00820313 257.10695313 132.66015625 257.09765625 C129.4399163 257.07415085 126.22005293 257.04129087 123 257 C122.87753906 258.20011719 122.75507813 259.40023438 122.62890625 260.63671875 C120.94736365 273.93406519 112.22255915 286.58261498 102 295 C95.44341075 299.76566904 88.6957914 303.4468365 81 306 C79.97261719 306.35578125 78.94523437 306.7115625 77.88671875 307.078125 C61.40334916 310.98774834 43.60922277 308.40422224 29.125 299.75 C14.29723015 289.44180565 3.63648532 276.04152855 0 258 C-0.27765241 254.4527605 -0.26157681 250.92014095 -0.24050903 247.36354065 C-0.24221788 246.30400317 -0.24392673 245.24446568 -0.24568737 244.152821 C-0.24897677 240.60905431 -0.23798744 237.06547772 -0.22705078 233.52172852 C-0.22648655 230.97885645 -0.22680346 228.43598406 -0.22793579 225.89311218 C-0.22839096 220.42183077 -0.22272488 214.95061037 -0.21146011 209.47934151 C-0.19518394 201.5688856 -0.18999494 193.65845274 -0.18748413 185.7479819 C-0.18311035 172.91278538 -0.16980985 160.07761433 -0.15087891 147.24243164 C-0.1325119 134.77661262 -0.11835941 122.31080053 -0.10986328 109.8449707 C-0.10933783 109.07616491 -0.10881239 108.30735911 -0.10827102 107.51525617 C-0.10566088 103.65826027 -0.10313348 99.80126433 -0.10064721 95.94426835 C-0.07992458 63.96282706 -0.04470768 31.98141707 0 0 Z M39.125 57.3125 C34.95480937 62.58656461 31.89674203 66.70225066 31.83886719 73.54394531 C31.82925964 74.46210022 31.8196521 75.38025513 31.80975342 76.32623291 C31.80550354 77.3168573 31.80125366 78.30748169 31.796875 79.328125 C31.79117493 80.35049255 31.78547485 81.37286011 31.77960205 82.4262085 C31.77015203 84.5915829 31.76361806 86.75697168 31.75976562 88.92236328 C31.75007853 92.22323984 31.71906234 95.52348883 31.6875 98.82421875 C31.68096788 100.92968381 31.67571823 103.03515332 31.671875 105.140625 C31.6595282 106.12315247 31.6471814 107.10567993 31.63446045 108.11798096 C31.65810419 115.45087309 32.87948795 121.04238275 37.8125 126.75 C38.27269531 127.30171875 38.73289062 127.8534375 39.20703125 128.421875 C44.8637797 133.40079956 50.35539729 133.41933069 57.50341797 133.34057617 C58.02567207 133.34079521 58.02567207 133.34079521 60.66859436 133.34190369 C64.10998433 133.33981904 67.55088296 133.31650262 70.9921875 133.29296875 C73.38257582 133.28737166 75.7729676 133.2831021 78.1633606 133.28010559 C84.44671168 133.26866579 90.72985386 133.23920574 97.01312256 133.20599365 C103.42799046 133.17527431 109.8428922 133.16159625 116.2578125 133.14648438 C128.83863066 133.11433548 141.4193042 133.06372817 154 133 C154.0161034 131.40270255 154.02758023 129.80535801 154.03710938 128.20800781 C154.0439978 127.31849426 154.05088623 126.42898071 154.0579834 125.51251221 C153.6377929 107.30499457 138.61350213 91.25501293 128.09130859 77.71777344 C124.72291965 73.34036208 121.45244311 68.89232773 118.1875 64.4375 C117.60726074 63.64641846 117.02702148 62.85533691 116.42919922 62.0402832 C115.40923591 60.6491336 114.38998583 59.25746044 113.37182617 57.86499023 C112.91912354 57.24954346 112.4664209 56.63409668 112 56 C111.58837616 55.31188232 111.17675232 54.62376465 110.75265503 53.91479492 C109 52 109 52 106.54258728 51.49879456 C106.05469978 51.49871147 106.05469978 51.49871147 103.58569336 51.49829102 C102.47701401 51.48891006 101.36833466 51.47952911 100.22605896 51.46986389 C99.62608345 51.47548088 99.62608345 51.47548088 96.58984375 51.50390625 C95.35263077 51.50245102 94.11541779 51.50099579 92.8407135 51.49949646 C89.54479449 51.50158448 86.24963561 51.52263876 82.95385742 51.55047607 C79.63392568 51.57027346 76.31409187 51.55189533 72.99414062 51.54101562 C70.44270193 51.54725896 67.89126743 51.55565452 65.33984375 51.56640625 C64.74695305 51.56493843 64.74695305 51.56493843 61.74656677 51.55751038 C53.62996174 51.64855873 45.65108621 52.06325675 39.125 57.3125 Z M36 216 C35.566875 216.3815625 35.566875 216.3815625 33.375 218.3125 C25.02602854 227.76002033 21.2879352 237.0178315 21.66015625 249.703125 C22.81970058 260.95203782 27.94837824 270.51890151 36.3203125 278.1015625 C45.66397305 285.16188478 56.33400417 288.44900835 68 287 C80.92392214 284.32815547 89.0419694 278.3631243 97 268 C102.53345862 259.45424438 104.27802271 249.31372662 102.53515625 239.33984375 C99.89808522 228.24542064 94.0481573 218.56864089 84.390625 212.30859375 C68.58514193 203.248821 50.04712162 203.16267833 36 216 Z " fill="#000000" transform="translate(337,204)"/>
</svg>
