<?xml version="1.0" encoding="UTF-8"?>
<!-- Generator: visioncortex VTracer 0.6.12 -->
<svg version="1.1" xmlns="http://www.w3.org/2000/svg" width="512" height="512">
<path d="M0 0 C0.55933654 -0.00304555 0.55933654 -0.00304555 3.38991845 -0.01845789 C7.12838661 -0.03507126 10.86651356 -0.03031428 14.60501099 -0.0255127 C17.28945073 -0.03285396 19.97386514 -0.04134793 22.65829468 -0.05117798 C29.18712076 -0.0721957 35.71585797 -0.07677495 42.24471389 -0.07499009 C47.55337291 -0.07368067 52.86200429 -0.07749577 58.17065811 -0.08491516 C59.70183535 -0.08701443 61.23301259 -0.08911203 62.76418984 -0.09120798 C63.14528549 -0.09172974 63.14528549 -0.09172974 65.07386042 -0.09437019 C79.47733586 -0.11325764 93.88076032 -0.11222689 108.284243 -0.10540086 C121.44937318 -0.0998259 134.61430872 -0.12065142 147.77939342 -0.15376133 C161.31048021 -0.18752655 174.84147384 -0.20266318 188.37260354 -0.1980443 C195.96403908 -0.19580255 203.55529472 -0.20099968 211.14669418 -0.22593689 C217.60947515 -0.24698664 224.07197756 -0.25050578 230.53477012 -0.2316373 C233.82936328 -0.22250191 237.12333187 -0.22399769 240.4179039 -0.24199295 C243.99652225 -0.26018857 247.57376651 -0.24743145 251.15234375 -0.22705078 C251.66811098 -0.23330971 251.66811098 -0.23330971 254.27820575 -0.26498365 C262.7251989 -0.16211919 269.18308483 2.33347814 275.57815552 7.89440918 C276.27940552 8.71940918 276.98065552 9.54440918 277.70315552 10.39440918 C278.40440552 11.11628418 279.10565552 11.83815918 279.82815552 12.58190918 C284.67165268 19.84715493 285.15923676 28.15016116 285.21487427 36.65222168 C285.22384987 37.166754 285.22384987 37.166754 285.26927185 39.77059937 C285.32295389 43.02016237 285.35713474 46.26958212 285.39065552 49.51940918 C285.42386578 51.73817894 285.45835881 53.95692989 285.49417114 56.17565918 C285.57865548 61.58178052 285.64718127 66.98792143 285.70315552 72.39440918 C286.34997787 72.23273254 286.99680023 72.07105591 287.66322327 71.90447998 C291.56224647 71.25026215 295.4009559 71.23875096 299.34207153 71.23327637 C300.2013475 71.22831146 301.06062347 71.22334656 301.94593811 71.2182312 C304.78298757 71.20365271 307.61998103 71.19681316 310.45706177 71.19128418 C312.43899028 71.1855272 314.42091878 71.17976954 316.40284729 71.17401123 C320.55967466 71.16351211 324.71648277 71.15766297 328.87332153 71.1541748 C334.17333139 71.14870618 339.47308226 71.12470846 344.77301121 71.09620285 C348.86966163 71.07747931 352.96625102 71.07236562 357.0629406 71.07083893 C359.01517076 71.06783147 360.96740034 71.05986821 362.91958809 71.04665375 C382.53406488 70.92340823 397.44716857 73.80217589 412.23049927 87.78894043 C416.54653578 92.33680197 420.32379258 97.25163553 424.08840942 102.25427246 C425.86737738 104.61206398 427.6649159 106.95494956 429.46487427 109.29675293 C436.69188148 118.71547077 443.8261175 128.19709031 450.82424927 137.78723145 C453.31888689 141.19831789 455.82279754 144.58470087 458.48049927 147.87097168 C463.1057593 153.59228559 467.06472207 159.36963627 470.57815552 165.83190918 C470.75689209 166.15361084 470.75689209 166.15361084 471.66140747 167.78161621 C479.62609318 183.06403323 479.29651269 198.22528566 479.23440552 215.03894043 C479.23710445 217.62054083 479.2409902 220.20214024 479.2460022 222.78373718 C479.251873 228.17059046 479.24379784 233.55715421 479.22463989 238.94396973 C479.20282353 245.1495006 479.20997357 251.35450659 479.23194551 257.56002504 C479.25235223 263.56687592 479.25010891 269.5734722 479.23841858 275.58035851 C479.2357588 278.12118288 479.23899455 280.66202077 479.24833679 283.20282936 C479.2585351 286.75378231 479.24295617 290.30373549 479.22073364 293.85461426 C479.22883057 294.89429855 479.23692749 295.93398285 479.24526978 297.00517273 C479.13520942 306.53453241 476.17279718 313.61590062 469.70315552 320.60144043 C463.23151096 326.40316866 456.73298497 328.5309084 448.18753052 328.49206543 C446.93713989 328.48884277 445.68674927 328.48562012 444.39846802 328.4822998 C443.09651489 328.4739209 441.79456177 328.46554199 440.45315552 328.45690918 C439.79444458 328.45465332 439.79444458 328.45465332 436.46096802 328.4432373 C433.20831811 328.43145234 429.95575967 328.41499929 426.70315552 328.39440918 C426.58069458 329.59452637 426.45823364 330.79464355 426.33206177 332.03112793 C424.64844649 345.34486477 415.91834415 357.95311558 405.70315552 366.39440918 C389.76600595 378.25103253 372.03519172 381.79242994 352.53274536 379.09411621 C348.72455478 378.30472366 345.2386646 376.99060948 341.70315552 375.39440918 C340.75569458 374.97030762 339.80823364 374.54620605 338.83206177 374.10925293 C331.79295758 370.6043453 326.25427123 365.91604995 320.70315552 360.39440918 C320.15014771 359.87620605 319.59713989 359.35800293 319.02737427 358.82409668 C315.23994212 354.9243687 312.89915874 350.25932045 310.45315552 345.45690918 C310.11139282 344.78844971 309.76963013 344.11999023 309.41751099 343.43127441 C307.164162 338.82858176 305.79952733 334.40080086 304.70315552 329.39440918 C303.58038208 329.36862793 302.45760864 329.34284668 301.30081177 329.31628418 C292.99922286 329.03542426 286.03350948 328.68575535 278.70315552 324.39440918 C276.01565552 322.89440918 276.01565552 322.89440918 273.70315552 322.39440918 C270.76565552 324.14440918 270.76565552 324.14440918 267.70315552 326.39440918 C262.38267114 328.72695938 257.44855998 328.66585713 251.7505188 328.62145996 C250.76453201 328.62175201 249.77854523 328.62204407 248.76268005 328.62234497 C245.51618532 328.62095593 242.26992247 328.6054146 239.02346802 328.58972168 C236.76759975 328.58599004 234.51172985 328.58314378 232.25585938 328.58114624 C226.32766215 328.57352168 220.39956342 328.55388321 214.47140503 328.53173828 C208.41846041 328.51125454 202.36549983 328.50213911 196.31253052 328.49206543 C184.44269565 328.47063628 172.57293379 328.43651447 160.70315552 328.39440918 C160.57727051 329.0688356 160.4513855 329.74326202 160.32168579 330.43812561 C160.15044189 331.32934616 159.979198 332.22056671 159.80276489 333.13879395 C159.63562988 334.01947037 159.46849487 334.90014679 159.29629517 335.80751038 C158.42932095 339.58870183 156.96839221 342.89331172 155.20315552 346.33190918 C155.02760132 346.67419556 155.02760132 346.67419556 154.13919067 348.40637207 C146.39189683 362.86177132 133.55655868 372.59574187 118.10549927 377.73815918 C104.54632206 381.44212954 88.61889169 380.98754849 75.70315552 375.39440918 C74.83948364 375.04378418 73.97581177 374.69315918 73.08596802 374.33190918 C58.27339505 367.68701663 47.63152089 355.39773317 41.67581177 340.47644043 C40.85686325 337.88145898 40.22112164 335.35606145 39.6423645 332.70178223 C39.4655162 331.89428024 39.28866791 331.08677826 39.10646057 330.25480652 C38.9733699 329.6408754 38.84027924 329.02694427 38.70315552 328.39440918 C38.10926529 328.40329163 37.51537506 328.41217407 36.90348816 328.42132568 C30.68991781 328.51021764 24.47652982 328.57031621 18.26248169 328.61413574 C15.94730281 328.63417918 13.6321741 328.66142143 11.31716919 328.69616699 C7.97825701 328.7450046 4.64001753 328.76745143 1.30081177 328.78503418 C0.27544815 328.80567932 -0.74991547 328.82632446 -1.80635071 328.84759521 C-11.591874 328.85061095 -18.45213471 325.82802028 -25.57418823 319.18737793 C-32.90647904 311.55580994 -33.59351226 304.03287376 -33.57099915 293.95843506 C-33.57623582 292.8006353 -33.5814725 291.64283554 -33.58686787 290.44995093 C-33.59925983 287.24472731 -33.60271181 284.03963981 -33.60227096 280.83439684 C-33.60392215 277.37413571 -33.61699426 273.91391425 -33.62846375 270.45367432 C-33.65128913 262.89161642 -33.65923163 255.32958664 -33.66429019 247.76749897 C-33.66754993 243.04327541 -33.67407406 238.31905997 -33.68129158 233.594841 C-33.70085392 220.50747567 -33.7172604 207.42011787 -33.72016811 194.33273697 C-33.72035568 193.49566172 -33.72054325 192.65858647 -33.72073651 191.79614531 C-33.72110275 190.09929133 -33.72146645 188.40243734 -33.72182762 186.70558336 C-33.72201043 185.86329627 -33.72219324 185.02100918 -33.72238159 184.15319824 C-33.72256214 183.30987976 -33.72274269 182.46656128 -33.72292871 181.59768769 C-33.72646997 167.9345171 -33.75349096 154.27150415 -33.79087948 140.60838822 C-33.82898359 126.5711275 -33.84832574 112.53394496 -33.84862763 98.49663138 C-33.8492117 90.61899548 -33.85767177 82.74154767 -33.88662529 74.86396027 C-33.91116732 68.15593989 -33.91840313 61.44817623 -33.90337776 54.74012306 C-33.89622036 51.32000459 -33.89701464 47.90039273 -33.91978836 44.48033142 C-33.94022189 40.76588595 -33.92971048 37.05274691 -33.91157532 33.33831787 C-33.92477529 32.26650969 -33.93797525 31.1947015 -33.95157522 30.09041429 C-33.85798473 21.67967498 -31.51470354 15.27086058 -26.12106323 8.77331543 C-25.41594604 8.17390137 -24.71082886 7.5744873 -23.98434448 6.95690918 C-23.28696167 6.33944824 -22.58957886 5.7219873 -21.87106323 5.08581543 C-14.76553912 0.41708714 -8.27178976 -0.04254021 0 0 Z M-11.29684448 25.39440918 C-12.48568919 27.7720986 -12.42633714 29.21797628 -12.43385887 31.87166977 C-12.43893341 32.81943527 -12.44400796 33.76720077 -12.44923627 34.74368644 C-12.44973403 35.79210597 -12.45023179 36.84052551 -12.45074463 37.92071533 C-12.45512688 39.02891703 -12.45950914 40.13711873 -12.46402419 41.27890229 C-12.4774514 45.01760156 -12.48359983 48.75627723 -12.48971558 52.49499512 C-12.4976134 55.16532573 -12.50587678 57.83565327 -12.51449585 60.50598145 C-12.53903195 68.53786648 -12.55364875 76.56975773 -12.56655592 84.60166872 C-12.57026696 86.86960508 -12.57424027 89.13754082 -12.57830858 91.40547657 C-12.60354415 105.48397399 -12.62560094 119.56247235 -12.63803673 133.6409874 C-12.64096651 136.90287021 -12.64392816 140.164753 -12.64694214 143.42663574 C-12.64768819 144.23737809 -12.64843424 145.04812045 -12.6492029 145.88343075 C-12.66185865 159.01929815 -12.6950839 172.15503026 -12.73674397 185.2908344 C-12.77914937 198.77197554 -12.80273014 212.2530474 -12.80795729 225.73425508 C-12.811373 233.30555184 -12.82314679 240.87663717 -12.85606003 248.44786835 C-12.88404265 254.89551532 -12.89506787 261.34290754 -12.88386457 267.79061052 C-12.87867311 271.08063397 -12.88431399 274.37001125 -12.90633011 277.65998077 C-12.92890525 281.22715876 -12.92077913 284.79298504 -12.90484619 288.36016846 C-12.91872828 289.39966511 -12.93261037 290.43916175 -12.94691312 291.5101583 C-12.89643444 296.08533498 -12.83738071 299.35433709 -9.88654137 302.99899864 C-6.24929868 306.36336515 -3.93054584 307.65123871 1.01272583 307.62145996 C1.43301056 307.62138443 1.43301056 307.62138443 3.55990601 307.6210022 C4.45795959 307.61067963 5.35601318 307.60035706 6.28128052 307.58972168 C7.20785461 307.58689178 8.13442871 307.58406189 9.08908081 307.58114624 C12.04390461 307.56996529 14.99842357 307.54486445 17.95315552 307.51940918 C19.95835947 307.50937669 21.96356818 307.50025131 23.96878052 307.49206543 C28.88035603 307.47003276 33.79170411 307.43551713 38.70315552 307.39440918 C39.09422485 306.23973145 39.48529419 305.08505371 39.88821411 303.89538574 C40.41733075 302.35848376 40.94680966 300.82170647 41.47659302 299.28503418 C41.73239136 298.52658203 41.9881897 297.76812988 42.2517395 296.98669434 C47.35996779 282.25783702 57.25401855 270.35237496 71.32302856 263.43688965 C86.91734869 256.07187079 104.79517417 254.48714698 121.28933716 260.12756348 C127.32001353 262.41194599 132.57652394 265.5159281 137.70315552 269.39440918 C138.43018677 269.93968262 139.15721802 270.48495605 139.90628052 271.04675293 C149.8901963 279.14439455 155.66789544 290.44041662 159.27444458 302.5838623 C159.54258972 303.48463501 159.81073486 304.38540771 160.08700562 305.31347656 C160.29033508 306.00018433 160.49366455 306.68689209 160.70315552 307.39440918 C173.13361144 307.46390413 185.56402118 307.517218 197.99463177 307.5498457 C203.76660204 307.56550495 209.53843945 307.58674821 215.31033325 307.62072754 C220.88000101 307.65331135 226.44954093 307.67126024 232.01929665 307.67904091 C234.14478378 307.68458614 236.27026389 307.69541454 238.39569664 307.71159935 C241.37162806 307.73336034 244.34703045 307.73637663 247.32302856 307.73498535 C248.20272308 307.74577118 249.0824176 307.75655701 249.98876953 307.76766968 C254.7098386 307.74376974 257.88280435 307.49461169 261.70315552 304.39440918 C262.90051486 301.9996905 262.83165193 300.52325341 262.83737659 297.84909248 C262.83960552 297.36762624 262.83960552 297.36762624 262.85088521 294.93111527 C262.85070085 293.8657677 262.85051649 292.80042013 262.85032654 291.70278931 C262.85216488 291.13981579 262.85216488 291.13981579 262.86146802 288.29082859 C262.87254128 284.49218036 262.87635483 280.69355944 262.88015747 276.89489746 C262.885885 274.18191288 262.89305265 271.46893243 262.90007019 268.75595093 C262.91984426 260.59652201 262.92990139 252.43709183 262.93879798 244.27764493 C262.94317879 240.43782076 262.94854608 236.59799797 262.95378685 232.7581749 C262.97079905 219.99865314 262.98529454 207.23913226 262.99253559 194.47960091 C262.99444557 191.16751225 262.99636589 187.85542359 262.99832153 184.54333496 C262.99880527 183.72010553 262.99928901 182.8968761 262.99978741 182.04870032 C263.0080927 168.70457626 263.03343802 155.36054169 263.06590221 142.01645674 C263.09894043 128.32514205 263.11698136 114.63387289 263.12017983 100.94251812 C263.1223478 93.25171349 263.13113822 85.56103944 263.15664101 77.87027359 C263.17830377 71.3223142 263.18642032 64.77451708 263.17667422 58.22652592 C263.17211663 54.88412421 263.17626236 51.54233024 263.19343567 48.19992828 C263.21100102 44.57966406 263.20412363 40.96025952 263.19090271 37.33999634 C263.20187196 36.27911021 263.2128412 35.21822409 263.22414285 34.1251899 C263.16120894 27.02460726 263.16120894 27.02460726 260.79767132 23.77280998 C257.71301166 21.74279553 256.02220688 21.26841423 252.36365795 21.2601881 C251.90514213 21.25795918 251.90514213 21.25795918 249.5847742 21.24667948 C248.57069108 21.24686385 247.55660796 21.24704821 246.51179504 21.24723816 C245.43963975 21.24356147 244.36748446 21.23988478 243.26283962 21.23609668 C239.6461791 21.22502471 236.02954727 21.22121008 232.41287231 21.21740723 C229.82958891 21.2111453 227.2463064 21.20449875 224.6630249 21.19749451 C216.89365741 21.17772082 209.1242886 21.16766297 201.35490224 21.15876672 C197.69800924 21.1543855 194.04111769 21.14901828 190.38422585 21.14377785 C178.23119628 21.12676504 166.07816763 21.11227007 153.92512798 21.10502911 C150.77048936 21.10311915 147.61585075 21.10119883 144.46121216 21.09924316 C143.67712303 21.09875942 142.8930339 21.09827568 142.08518449 21.09777728 C129.37868667 21.089474 116.67228291 21.06413233 103.96582618 21.03166249 C90.92652372 20.99861316 77.8872691 20.9805823 64.84792453 20.97738487 C57.52429137 20.97521784 50.20079538 20.96644118 42.87720299 20.94092369 C35.98995827 20.91698226 29.10296449 20.91337763 22.2156868 20.92368507 C19.68444943 20.92418247 17.15320022 20.91780255 14.62199974 20.90412903 C11.1728553 20.88653567 7.72461067 20.89345501 4.27546692 20.90666199 C3.26807596 20.89569274 2.26068501 20.8847235 1.22276706 20.87342185 C-4.19944324 20.92372964 -7.44351168 21.15045018 -11.29684448 25.39440918 Z M285.70315552 99.39440918 C284.1609307 102.47885881 284.55516382 105.72610589 284.5559845 109.11138916 C284.55230781 109.91740798 284.54863112 110.7234268 284.54484302 111.55387044 C284.53378045 114.26992876 284.52995799 116.98594886 284.52615356 119.70202637 C284.51989085 121.64330162 284.51324423 123.58457567 284.50624084 125.52584839 C284.48881318 130.81108405 284.47827427 136.09631066 284.47003531 141.38156796 C284.4648889 144.68190354 284.458813 147.98223629 284.45252419 151.28256989 C284.43346717 161.60355548 284.41923713 171.92453389 284.41091222 182.2455337 C284.40113696 194.16860432 284.37481197 206.09148943 284.33441132 218.01449466 C284.30427404 227.22389598 284.28944561 236.43324407 284.2861312 245.64269376 C284.28377798 251.14600167 284.27478221 256.64911152 284.24967003 262.15236664 C284.22642614 267.32996257 284.22214129 272.50722951 284.23243141 277.68486404 C284.23292778 279.58517423 284.22657769 281.48550041 284.21287537 283.38576126 C284.19521077 285.98073478 284.20223547 288.57452071 284.21540833 291.16949463 C284.20443908 291.9210611 284.19346983 292.67262758 284.18216819 293.44696879 C284.24478808 298.55838959 285.50079627 301.44637467 288.70315552 305.39440918 C291.96885252 307.79565697 294.98405488 307.60569398 298.95315552 307.51940918 C300.03081177 307.5013623 301.10846802 307.48331543 302.21878052 307.46472168 C303.03862427 307.44151855 303.85846802 307.41831543 304.70315552 307.39440918 C305.03315552 306.23940918 305.36315552 305.08440918 305.70315552 303.89440918 C311.32084031 287.27761256 320.55801391 272.57337788 336.32815552 263.96081543 C339.08337731 262.64190954 341.85142379 261.48784003 344.70315552 260.39440918 C345.49721802 260.07343262 346.29128052 259.75245605 347.10940552 259.42175293 C361.9677582 254.36709181 379.91130664 256.25796816 393.87112427 262.90222168 C409.06419183 271.18234722 419.12573018 283.0590286 424.70315552 299.39440918 C425.4203327 302.05165033 426.06667342 304.71600034 426.70315552 307.39440918 C430.2445417 307.5112273 433.78542792 307.58186418 437.32815552 307.64440918 C437.82766724 307.66116699 437.82766724 307.66116699 440.35549927 307.74597168 C446.33165734 307.82512609 450.06409968 307.57980341 454.70315552 303.39440918 C457.73624957 300.35839687 458.05163806 297.85848315 458.07641602 293.62944031 C458.06563019 292.86771011 458.05484436 292.10597992 458.04373169 291.32116699 C458.04416977 290.51103653 458.04460785 289.70090607 458.0450592 288.8662262 C458.04297206 286.19308223 458.01964475 283.52056835 457.99612427 280.84753418 C457.99052804 278.99237409 457.98625807 277.13720957 457.98326111 275.28204346 C457.97181441 270.40260548 457.94234869 265.523436 457.90914917 260.644104 C457.87844455 255.66377393 457.86475493 250.68340041 457.84963989 245.70300293 C457.81747886 235.93335381 457.76628457 226.16390383 457.70315552 216.39440918 C456.40991364 216.38854294 455.11667175 216.3826767 453.78424072 216.37663269 C441.57283397 216.31932041 429.36160383 216.24651419 417.15037727 216.15869427 C410.87306131 216.11404321 404.59580946 216.07477529 398.31838989 216.04797363 C392.2558058 216.02188843 386.19346913 215.98144866 380.13103867 215.93122292 C377.82273317 215.91458954 375.51438492 215.90305336 373.20602798 215.89679527 C369.96278438 215.88711595 366.72016879 215.85901009 363.4770813 215.82678223 C362.53120651 215.82821732 361.58533173 215.8296524 360.61079407 215.83113098 C350.53511903 215.69033108 341.36736189 213.15004807 333.70315552 206.39440918 C326.33058812 197.72730104 325.38967399 189.48460369 325.36721802 178.46862793 C325.36056122 177.32585892 325.35390442 176.1830899 325.3470459 175.00569153 C325.33694777 172.59434614 325.332228 170.18297296 325.33255005 167.77160645 C325.32818229 164.10438423 325.29184503 160.43837151 325.25393677 156.7713623 C325.24806679 154.42045493 325.24409861 152.06954188 325.24221802 149.71862793 C325.22784698 148.63288986 325.21347595 147.54715179 325.19866943 146.42851257 C325.25736539 136.52940625 327.7765498 128.46012734 334.64065552 121.15222168 C341.17948003 115.57935988 348.58067435 113.33323489 357.04421997 113.18908691 C358.08492142 113.16914169 359.12562286 113.14919647 360.19786072 113.12864685 C360.75367577 113.1202906 360.75367577 113.1202906 363.56643677 113.07800293 C364.71355637 113.05722183 365.86067596 113.03644073 367.04255676 113.01502991 C370.7001965 112.94974299 374.3579069 112.89074632 378.01565552 112.83190918 C380.49808465 112.78870414 382.98050668 112.74508921 385.46292114 112.7010498 C391.54292497 112.59408296 397.6229988 112.49227804 403.70315552 112.39440918 C402.92202474 111.27338204 402.13710493 110.15499453 401.35061646 109.03771973 C401.13227142 108.72617699 401.13227142 108.72617699 400.02731323 107.14958191 C398.2546459 104.79990911 396.25592699 103.03181795 393.95315552 101.20690918 C393.56385864 100.89044434 393.56385864 100.89044434 391.59378052 99.28894043 C390.63987427 98.66374512 389.68596802 98.0385498 388.70315552 97.39440918 C388.18844696 97.05158401 387.6737384 96.70875885 387.14343262 96.35554504 C378.84642201 91.78613324 369.22312756 92.77734865 360.03909302 92.79284668 C358.11816033 92.78506263 356.19723105 92.77639121 354.27630615 92.76687622 C350.26352743 92.75200472 346.25110086 92.75249749 342.23831177 92.76306152 C337.10562932 92.77467554 331.97438459 92.74070795 326.84193993 92.69437218 C322.88010287 92.664867 318.91861157 92.66315746 314.95668411 92.66939163 C313.0645016 92.66836773 311.17229911 92.65793939 309.28022385 92.63776779 C306.63298326 92.61299463 303.98853737 92.62663638 301.34133911 92.64978027 C300.95423515 92.64213654 300.95423515 92.64213654 298.99525452 92.60345459 C292.99644904 92.71894937 289.67392755 94.95497201 285.70315552 99.39440918 Z M347.70315552 138.39440918 C345.01203342 142.87978196 345.39709809 147.8162207 345.40237427 152.89440918 C345.39808914 153.80770996 345.39380402 154.72101074 345.38938904 155.6619873 C345.38365906 157.58841118 345.38313564 159.51485669 345.38748169 161.44128418 C345.39064473 164.38436807 345.36715534 167.32644921 345.34182739 170.26940918 C345.33955453 172.14440792 345.33885084 174.01940935 345.33987427 175.89440918 C345.33066452 176.77161621 345.32145477 177.64882324 345.31196594 178.5526123 C345.35848945 184.70981211 346.38359872 187.94064964 350.69433594 192.50079346 C355.00577276 195.21421789 358.63792728 194.92529001 363.63406372 194.84851074 C364.62965805 194.84909485 365.62525238 194.84967896 366.65101624 194.85028076 C369.93568003 194.84749819 373.21943186 194.81639705 376.50393677 194.78503418 C378.78365076 194.77757243 381.06337117 194.77187919 383.34309387 194.7678833 C389.33884436 194.75262192 395.33420632 194.7133352 401.32980347 194.66906738 C407.4496434 194.6281259 413.56954619 194.60987465 419.68948364 194.58972168 C431.69421149 194.54684189 443.69865118 194.47858401 455.70315552 194.39440918 C455.55229996 193.12224045 455.4014444 191.85007172 455.24601746 190.53935242 C455.1611612 189.82375751 455.07630495 189.10816259 454.9888773 188.37088299 C454.43112692 184.51265763 452.79774604 181.20293881 451.14065552 177.70690918 C450.75715942 176.8960083 450.37366333 176.08510742 449.97854614 175.24963379 C445.19823348 165.68992074 438.64775918 157.38019128 431.8480072 149.17926025 C429.70315552 146.39440918 429.70315552 146.39440918 427.88534546 143.31773376 C424.96612174 138.61729149 422.73056549 135.03967399 417.30923462 133.31422424 C413.1965551 132.93926821 409.24459222 132.93393731 405.12503052 133.08190918 C403.62532598 133.0941647 402.12557566 133.10165005 400.62582397 133.10461426 C397.49745637 133.12293595 394.37326244 133.18023991 391.24612427 133.26940918 C387.24541619 133.3829392 383.24796632 133.4262987 379.24580002 133.44413757 C375.41346141 133.46478282 371.58193386 133.52289882 367.75003052 133.58190918 C367.02403404 133.58943207 366.29803757 133.59695496 365.5500412 133.60470581 C363.48896621 133.63231758 361.43040835 133.68688337 359.37014771 133.74987793 C358.78526581 133.76353394 358.78526581 133.76353394 355.82540894 133.8326416 C352.09093797 134.50456166 350.40486599 135.77969458 347.70315552 138.39440918 Z M67.27346802 293.10925293 C60.2577509 303.31869202 58.35516979 314.26253762 59.70315552 326.39440918 C62.44846466 336.80765076 68.70252808 346.34844691 77.70315552 352.39440918 C88.2976472 358.03464216 98.96175404 360.45627846 110.82815552 357.26940918 C121.81515761 353.49538278 130.40481397 347.01254456 136.01565552 336.83190918 C141.3241823 325.37291184 141.76319316 314.33149167 137.70315552 302.39440918 C132.64522957 291.25783127 124.79750508 284.30605191 113.70315552 279.39440918 C96.81114302 273.53963205 78.5308426 279.52186361 67.27346802 293.10925293 Z M334.60549927 291.71472168 C327.18231708 301.5177351 324.47320416 312.21789077 325.70315552 324.39440918 C327.32832513 334.26151038 332.81994229 343.95206811 340.75393677 350.12097168 C351.46674734 357.11972167 362.36822193 360.29157813 375.08596802 357.70690918 C382.0509739 355.76769641 387.37650799 353.27422976 392.70315552 348.39440918 C393.31803833 347.86976074 393.93292114 347.3451123 394.56643677 346.80456543 C402.3268612 339.74208067 405.8880879 330.50142097 406.92190552 320.21862793 C407.43001471 308.29923321 402.4870682 297.53260815 394.70315552 288.70690918 C386.36771914 280.83870578 375.08392222 276.95799999 363.79690552 277.12487793 C352.21906605 278.13355334 342.38492259 283.10954952 334.60549927 291.71472168 Z " fill="#000000" transform="translate(33.296844482421875,132.6055908203125)"/>
</svg>
