<?xml version="1.0" encoding="UTF-8"?>
<!-- Generator: visioncortex VTracer 0.6.12 -->
<svg version="1.1" xmlns="http://www.w3.org/2000/svg" width="512" height="512">
<path d="M0 0 C7.62593457 6.30685399 13.31140848 13.92569471 15.16796875 23.79296875 C16.12834965 38.79695238 14.14572835 49.1334547 4.16796875 60.79296875 C0.19782831 65.0450426 -3.90339679 69.15889638 -8.01855469 73.27001953 C-9.24349897 74.50095906 -10.46803604 75.73230393 -11.69219971 76.96401978 C-14.99749828 80.28688032 -18.30915739 83.60332857 -21.62260723 86.91805887 C-23.69711996 88.99399889 -25.77019967 91.07135901 -27.84278107 93.14922714 C-35.08643091 100.41134209 -42.33519021 107.66831098 -49.58886719 114.92041016 C-56.32981909 121.66016038 -63.05953171 128.41098986 -69.78407645 135.16710675 C-75.57674579 140.98599319 -81.3771673 146.79707534 -87.1835978 152.60222995 C-90.64316425 156.06128854 -94.09961235 159.52332295 -97.54827118 162.99325943 C-100.79308839 166.25755171 -104.04752025 169.51195211 -107.30931854 172.75927353 C-108.49826561 173.94614316 -109.6838699 175.13637335 -110.86567688 176.33035278 C-125.6703907 191.27751921 -139.80024733 198.72074131 -161.02163243 198.89662099 C-165.2308045 198.91013587 -169.43976394 198.89978783 -173.64892578 198.88720703 C-175.54872595 198.88532542 -177.44852672 198.88398187 -179.34832764 198.88313293 C-183.42316357 198.88085855 -187.497987 198.87614979 -191.57281876 198.8699379 C-198.01958512 198.8615005 -204.46629237 198.86698786 -210.91305542 198.87594604 C-212.00323727 198.87741705 -213.09341912 198.87888806 -214.21663678 198.88040364 C-216.4448103 198.88347392 -218.67298376 198.88659394 -220.90115714 198.88976264 C-235.89820253 198.91092036 -250.89505202 198.92458578 -265.89208984 198.89257812 C-276.026059 198.8710507 -286.15968663 198.87418573 -296.29363334 198.90598667 C-301.65059488 198.92182899 -307.00690277 198.92509057 -312.36383438 198.89822769 C-317.39901351 198.87319492 -322.43309627 198.88074556 -327.46822357 198.91310692 C-329.31286266 198.91919261 -331.15758634 198.91337513 -333.00214005 198.89461327 C-348.66927107 198.74628445 -348.66927107 198.74628445 -353.76246643 203.11412048 C-354.82398269 204.30737941 -355.84923205 205.53408457 -356.83203125 206.79296875 C-358.04617256 208.0463724 -359.26895601 209.29150707 -360.50317383 210.52514648 C-361.74578395 211.84088846 -362.98686513 213.15807576 -364.2265625 214.4765625 C-365.60717081 215.91360314 -366.98938098 217.34910626 -368.37304688 218.78320312 C-370.5203531 221.01074108 -372.65771931 223.24458702 -374.76977539 225.50561523 C-376.833933 227.70965909 -378.93201428 229.87608676 -381.0390625 232.0390625 C-381.34810768 232.37806328 -381.34810768 232.37806328 -382.9120636 234.09361267 C-386.4167552 237.6214698 -389.1766023 239.31888849 -394.1940918 239.77758789 C-398.96359814 239.37800097 -401.18548748 238.05656111 -404.62776184 234.77998352 C-405.49429791 233.96281955 -406.36083399 233.14565557 -407.25362873 232.30372906 C-407.67906515 231.88945361 -407.67906515 231.88945361 -409.83203125 229.79296875 C-410.5754008 229.07498265 -411.31877035 228.35699656 -412.08466625 227.6172533 C-414.31993336 225.43371385 -416.5316902 223.22861481 -418.73828125 221.01611328 C-419.15193184 220.60333885 -419.15193184 220.60333885 -421.24525452 218.51445007 C-423.94334516 215.82071445 -426.63781655 213.12339308 -429.33203125 210.42578125 C-431.21852284 208.53996408 -433.10516163 206.65429509 -434.99194336 204.76876831 C-438.92725207 200.83526846 -442.86047052 196.8996878 -446.79248047 192.96289062 C-451.33504932 188.41485505 -455.881245 183.87046867 -460.42928886 179.32790864 C-464.34895359 175.41278015 -468.26666869 171.49570877 -472.18275642 167.57700241 C-474.51566221 165.24254007 -476.84942891 162.90895144 -479.18457031 160.57672501 C-481.77911614 157.98471019 -484.37044957 155.38952649 -486.9609375 152.79345703 C-487.73284927 152.02356949 -488.50476105 151.25368195 -489.30006409 150.46046448 C-490.00356491 149.75414383 -490.70706573 149.04782318 -491.43188477 148.32009888 C-492.04387222 147.70773439 -492.65585968 147.09536991 -493.28639221 146.46444893 C-497.10027841 142.34004794 -497.56165472 139.20067632 -497.43744278 133.76031876 C-496.26671386 128.02213522 -492.14783374 124.63572428 -488.05810547 120.69091797 C-487.1129845 119.74070624 -486.17025543 118.78811039 -485.22973633 117.83334351 C-482.67909479 115.25828007 -480.09562362 112.71871939 -477.50402212 110.18496847 C-474.78293831 107.51434423 -472.09136693 104.81426518 -469.39578247 102.11795044 C-464.8592794 97.58887691 -460.3022126 93.08138357 -455.73095703 88.58740234 C-450.47464274 83.41967039 -445.24626917 78.22502078 -440.03351581 73.01337421 C-434.45304571 67.43448942 -428.8536289 61.87492602 -423.2480073 56.32132578 C-421.65001905 54.73585239 -420.05538834 53.14706819 -418.46145248 51.55752182 C-397.06662258 30.24804589 -397.06662258 30.24804589 -384.83203125 23.79296875 C-383.72286346 23.20659637 -382.61369568 22.620224 -381.47091675 22.01608276 C-365.80697946 14.03510219 -349.15412861 12.6443724 -331.84814453 12.63183594 C-330.34744141 12.62719924 -328.84673945 12.62217345 -327.34603882 12.61679077 C-323.29224387 12.60375082 -319.23846542 12.59723891 -315.18465281 12.59278011 C-312.64657658 12.58983706 -310.10850475 12.58573011 -307.57043076 12.58127594 C-299.61319125 12.56762608 -291.65596191 12.55794594 -283.69871151 12.55407405 C-274.54232481 12.54959276 -265.38608733 12.53203099 -256.22974598 12.50307345 C-249.13050986 12.48140751 -242.03131559 12.47136723 -234.93204677 12.47003293 C-230.70135478 12.46898886 -226.47080355 12.46316564 -222.24014664 12.44521332 C-218.25915596 12.42864621 -214.27841064 12.42661865 -210.29739761 12.43535233 C-208.8442519 12.43611797 -207.39109251 12.43184299 -205.93798065 12.42189407 C-192.32386195 12.33421671 -180.22846497 14.18216625 -169.828125 23.609375 C-160.78126228 33.28150685 -158.22852804 43.51412316 -158.5 56.390625 C-158.99634522 65.90288706 -163.3973953 73.69318275 -170.03097534 80.38768005 C-178.95922069 88.05443442 -189.98949075 91.03274108 -201.32421875 93.1015625 C-202.64977344 93.35880789 -203.97497386 93.61788468 -205.29983521 93.87867737 C-208.73229591 94.54938536 -212.16888414 95.19567227 -215.60705566 95.83636475 C-219.13679888 96.49879432 -222.66189919 97.18506976 -226.1875 97.86914062 C-233.06473242 99.19999017 -239.94662656 100.5050046 -246.83203125 101.79296875 C-246.83203125 102.45296875 -246.83203125 103.11296875 -246.83203125 103.79296875 C-233.33641116 106.89057658 -219.8213647 108.86092971 -206.01953125 109.98046875 C-204.98663719 110.06433083 -203.95374313 110.1481929 -202.88954926 110.23459625 C-175.85288514 112.15737025 -154.22464574 107.37656605 -133.53290337 89.81425685 C-120.92370144 78.86711838 -109.30365298 66.90066378 -97.95703125 54.66796875 C-97.41322547 54.08235656 -96.8694197 53.49674438 -96.30913496 52.89338636 C-86.4837253 42.29522496 -76.79184471 31.57752493 -67.43138123 20.56535339 C-66.99455172 20.05239855 -66.55772222 19.53944371 -66.10765547 19.01094478 C-64.07943276 16.62602835 -62.06330017 14.23253566 -60.06524944 11.82225323 C-54.32036154 4.99539394 -48.39627674 -0.41767446 -40.14453125 -4.01953125 C-39.25378906 -4.41785156 -38.36304688 -4.81617188 -37.4453125 -5.2265625 C-24.86869238 -9.94514494 -10.78706809 -7.73232314 0 0 Z M-41.25922775 23.23756218 C-45.2875028 27.23859861 -48.82240117 31.5681539 -52.36962891 35.99438477 C-54.02651825 38.01855025 -55.68592304 40.04021694 -57.35110474 42.05752563 C-57.78423155 42.5825853 -58.21735836 43.10764497 -58.66361022 43.64861554 C-67.92869532 54.83996316 -77.6261866 65.66039267 -87.45703125 76.35546875 C-87.72677073 76.64914376 -87.72677073 76.64914376 -89.09181595 78.13531733 C-116.34571642 107.71006694 -140.75253251 131.25478452 -182.66958618 133.2339325 C-190.24601152 133.42232484 -197.76780042 133.15492576 -205.33203125 132.73046875 C-206.56196053 132.66784473 -207.7918898 132.60522072 -209.05908966 132.54069901 C-217.29971719 132.08973617 -225.48289243 131.37570823 -233.67578125 130.3828125 C-234.72851101 130.25603497 -235.78124077 130.12925743 -236.86587143 129.99863815 C-250.55877113 128.19313493 -258.71831857 125.36646331 -267.83203125 114.79296875 C-269.73950745 112.86440383 -271.69201799 110.98901134 -273.64453125 109.10546875 C-277.89370874 104.81355528 -281.93413728 100.40357019 -285.83203125 95.79296875 C-286.89778028 94.54761435 -287.96423884 93.30286694 -289.03125 92.05859375 C-289.2953064 91.75066895 -289.2953064 91.75066895 -290.6315918 90.19238281 C-290.82966431 89.96147949 -290.82966431 89.96147949 -291.83203125 88.79296875 C-291.07140381 88.64899658 -290.31077637 88.50502441 -289.52709961 88.35668945 C-279.41051784 86.43319181 -269.30488932 84.45567813 -259.20257568 82.4586792 C-256.82552338 81.98919168 -254.44826585 81.52074267 -252.07086182 81.05303955 C-244.38113392 79.54003433 -236.69440701 78.01307972 -229.01227856 76.4619112 C-225.44733345 75.74236183 -221.88147996 75.028408 -218.31271362 74.32803345 C-214.24764176 73.52986865 -210.1883236 72.70535123 -206.12890625 71.87890625 C-204.90621536 71.64252945 -203.68352448 71.40615265 -202.42378235 71.16261292 C-193.43679348 69.29942345 -186.06718302 66.75039945 -180.83203125 58.79296875 C-179.18722509 53.85855026 -179.24182695 49.52886376 -180.89453125 44.66796875 C-183.69411694 40.51374482 -187.31979442 37.04908716 -191.83203125 34.79296875 C-193.89090605 34.69024427 -195.95316572 34.65344154 -198.0145874 34.64579773 C-198.33514528 34.64395939 -198.33514528 34.64395939 -199.95736241 34.63465625 C-202.11578868 34.62360242 -204.27416683 34.61977255 -206.43261719 34.6159668 C-207.97668105 34.60970289 -209.52074339 34.60305616 -211.06480408 34.59605408 C-216.14866074 34.57498386 -221.23251777 34.56464165 -226.31640625 34.5546875 C-228.0687995 34.55063956 -229.82119259 34.54652262 -231.57358551 34.54233742 C-239.81544033 34.52327087 -248.05728617 34.50904892 -256.29915881 34.50072545 C-265.79238958 34.4909792 -275.28538556 34.46473453 -284.7785337 34.42422456 C-292.12565542 34.39395704 -299.47271032 34.37924611 -306.81989312 34.37594444 C-311.20229771 34.37360394 -315.58445193 34.3647765 -319.96678925 34.33948326 C-324.10040719 34.31601408 -328.23361338 34.312044 -332.36728096 34.32224464 C-333.87399486 34.32273575 -335.38073031 34.31654275 -336.8873806 34.3026886 C-349.47599708 34.19353585 -360.77038046 36.30355973 -372.08203125 42.04296875 C-373.1390625 42.56375 -374.19609375 43.08453125 -375.28515625 43.62109375 C-383.6854955 48.41329263 -390.73716889 55.40456772 -397.49462891 62.22851562 C-398.29588196 63.02947662 -399.09713501 63.83043762 -399.92266846 64.65567017 C-402.53525359 67.26963399 -405.14070829 69.89058056 -407.74609375 72.51171875 C-409.56982282 74.33918314 -411.3939978 76.16620264 -413.21859741 77.99279785 C-417.50731574 82.28833791 -421.79155658 86.58829571 -426.07359445 90.89049387 C-430.95485156 95.7942249 -435.84189337 100.69217391 -440.72939229 105.58968258 C-450.76998416 115.65109343 -460.80341203 125.71962492 -470.83203125 135.79296875 C-466.66377787 140.76509495 -462.32447629 145.4401732 -457.72509766 150.01342773 C-457.04147156 150.69719986 -456.35784546 151.38097198 -455.65350342 152.08546448 C-453.41589825 154.32237858 -451.1747828 156.55573964 -448.93359375 158.7890625 C-447.37253309 160.34825612 -445.81169452 161.90767214 -444.25106812 163.46730042 C-440.15982496 167.55474095 -436.06558667 171.63916835 -431.97070312 175.72296143 C-427.78593635 179.89746545 -423.60402884 184.07483167 -419.421875 188.25195312 C-411.22804574 196.43508486 -403.03104733 204.61503414 -394.83203125 212.79296875 C-393.72035317 211.84875124 -392.6099123 210.903077 -391.49998474 209.95680237 C-390.88147361 209.43033898 -390.26296247 208.9038756 -389.62570858 208.36145878 C-387.16718532 206.21159093 -384.89255764 203.91205585 -382.6171875 201.5703125 C-381.6741218 200.60973764 -380.73075319 199.64946007 -379.78710938 198.68945312 C-378.33811475 197.20957145 -376.89163041 195.72747473 -375.45043945 194.23999023 C-366.96351882 185.49637089 -359.52183872 178.34102317 -346.85953808 177.54242897 C-345.38199671 177.53199609 -343.9043536 177.53228477 -342.42680359 177.54141235 C-341.60708425 177.53844221 -340.78736491 177.53547208 -339.94280559 177.53241193 C-337.21008922 177.52480462 -334.47758987 177.53125253 -331.74487305 177.53759766 C-329.77979385 177.53484621 -327.81471577 177.53116538 -325.84963989 177.52662659 C-321.62414229 177.51852617 -317.39869758 177.51634323 -313.17319298 177.51857376 C-306.48665942 177.52141112 -299.80023116 177.50703886 -293.11372375 177.48959351 C-274.10195494 177.44260757 -255.09019345 177.41862845 -236.07836914 177.41210938 C-225.57347187 177.40835528 -215.06869396 177.39029843 -204.56384784 177.35701501 C-197.92221213 177.33683123 -191.28088488 177.33441601 -184.63923109 177.34529519 C-180.49999399 177.34790837 -176.36093527 177.33386865 -172.22174454 177.31521416 C-170.308615 177.30990662 -168.39545231 177.31136425 -166.48233604 177.32024956 C-152.08959924 177.38168125 -142.44060798 176.29339136 -131.83203125 165.79296875 C-130.94955341 164.93602291 -130.06707558 164.07907707 -129.15785599 163.19616318 C-125.93781779 160.05401347 -122.75546905 156.8746962 -119.57275391 153.69482422 C-118.35334836 152.48005543 -117.13374865 151.26548152 -115.91397095 150.05108643 C-112.62264525 146.77279222 -109.33458158 143.49124617 -106.04753542 140.20866156 C-103.99224319 138.1563112 -101.93636998 136.10454454 -99.8803215 134.05295181 C-93.44199326 127.6282655 -87.00564593 121.20160457 -80.57219851 114.77203071 C-73.15392613 107.35825045 -65.72913808 99.95107748 -58.29867899 92.54951179 C-52.54547128 86.81789976 -46.79802101 81.08055614 -41.054932 75.33880532 C-37.62797038 71.91289196 -34.19861908 68.48945481 -30.7632637 65.07195663 C-27.53746555 61.86260552 -24.31886417 58.64620963 -21.10567856 55.42423248 C-19.92552167 54.24330379 -18.74279338 53.06493842 -17.55732727 51.88933945 C-15.93993387 50.2846232 -14.33205578 48.67093369 -12.72622681 47.05465698 C-11.8240423 46.15393904 -10.9218578 45.25322109 -9.99233437 44.32520866 C-6.13739554 39.80656964 -5.41795948 35.76376602 -5.58984375 29.99609375 C-6.13759166 25.01335469 -8.4869204 21.8900772 -12.01953125 18.54296875 C-22.65133461 10.11314977 -32.27822055 14.91987359 -41.25922775 23.23756218 Z " fill="#000000" transform="translate(496.83203125,273.20703125)"/>
<path d="M0 0 C0.91910156 0.46921875 1.83820313 0.9384375 2.78515625 1.421875 C9.40839165 5.01124128 14.76441135 9.16630912 20.0793457 14.44360352 C23.70787752 18 23.70787752 18 27 18 C28.68486547 16.56757082 30.29960728 15.05201894 31.875 13.5 C48.92230238 -2.63420786 69.65221395 -8.83841739 92.67578125 -8.28515625 C114.2594527 -7.37392193 133.12966366 2.75053328 148 18 C162.80799121 34.45332357 169.7793311 53.97724361 170 76 C168.11321731 108.07530568 145.38586645 134.96231691 124.45019531 157.43212891 C122.97182413 159.03046219 121.51155591 160.64377743 120.0546875 162.26171875 C113.86996615 169.1038073 107.43157308 175.4623323 100.55175781 181.60107422 C98.93159077 183.06167164 97.33464437 184.54441602 95.7421875 186.03515625 C89.99732973 191.41272402 84.18932138 196.61658473 78.046875 201.54296875 C75.74471342 203.39945546 73.46817659 205.27495624 71.203125 207.17578125 C56.73626192 219.28681764 41.58778305 230.38014781 26 241 C18.50205356 236.38608671 11.40007841 231.44668629 4.4375 226.0625 C3.56931641 225.39798828 2.70113281 224.73347656 1.80664062 224.04882812 C-4.1919592 219.44379728 -10.11070896 214.74373001 -16 210 C-16.94230469 209.24332031 -17.88460937 208.48664063 -18.85546875 207.70703125 C-34.87652545 194.69159993 -50.13742301 180.92223282 -64.78805542 166.38717651 C-66.20506626 164.98205668 -67.62603007 163.58092676 -69.04711914 162.17993164 C-75.13584476 156.09886136 -80.65780623 149.74178217 -86 143 C-86.97608003 141.80713129 -87.95366686 140.61549184 -88.93359375 139.42578125 C-107.07455973 116.86985319 -120.61343553 92.77069659 -118 63 C-114.88165511 41.26054755 -103.30579868 21.21879643 -85.875 7.8125 C-60.63635569 -9.45044913 -27.87336585 -14.90554324 0 0 Z M-81 33 C-91.90013054 45.93430983 -97.12035738 60.06399737 -97 77 C-93.01558878 106.90103198 -67.46859497 132.95840483 -46.99853516 153.20727539 C-45.2313929 154.95591224 -43.47263385 156.7126699 -41.71484375 158.47070312 C-35.97712817 164.19070318 -30.18689705 169.76261979 -24 175 C-22.80803641 176.04475739 -21.61792616 177.09163306 -20.4296875 178.140625 C-5.88140838 190.89544723 9.49040669 202.44406247 25 214 C30.70740907 210.94245943 35.67920527 207.32660933 40.75 203.3125 C41.54567383 202.68746582 42.34134766 202.06243164 43.16113281 201.41845703 C58.04928113 189.69381319 72.47746623 177.50913792 86.31738281 164.56494141 C88.09520172 162.91145632 89.88602748 161.27299896 91.6796875 159.63671875 C102.60570848 149.6433543 102.60570848 149.6433543 107.25 144.05859375 C109.02834065 141.96666178 110.89792227 139.97911935 112.78686523 137.98730469 C126.64865894 123.26775662 139.20420898 106.18811581 146 87 C146.24492187 86.319375 146.48984375 85.63875 146.7421875 84.9375 C150.73857771 71.79868287 147.36089526 57.13265943 141.3125 45.1875 C137.92995394 39.45336021 133.68470298 34.70082932 129 30 C128.38511719 29.36191406 127.77023437 28.72382812 127.13671875 28.06640625 C116.55712872 17.89459485 101.94842031 13.15385872 87.5 12.625 C70.60927831 13.26610768 54.6685461 19.80874784 42.7578125 31.86328125 C35.93507892 39.30078411 30.93336404 48.25449101 26 57 C25.16666667 55.75 24.33333333 54.5 23.5 53.25 C22.94699219 52.42757812 22.39398438 51.60515625 21.82421875 50.7578125 C20.59194701 48.89489206 19.38667545 47.01387033 18.20703125 45.1171875 C7.8478803 28.75613672 -5.09921341 18.56564455 -24 14 C-45.24322634 9.94199907 -66.27750468 17.21869509 -81 33 Z " fill="#000000" transform="translate(302,18)"/>
</svg>
