<?xml version="1.0" encoding="UTF-8"?>
<!-- Generator: visioncortex VTracer 0.6.12 -->
<svg version="1.1" xmlns="http://www.w3.org/2000/svg" width="512" height="512">
<path d="M0 0 C2.65584398 2.38208228 5.12927022 4.77758352 7.49609375 7.4453125 C11.39461195 9.8659213 14.74669418 8.99027204 19 8 C23.82717358 6.66353748 28.57234048 5.11376584 33.3125 3.5 C33.97207703 3.27824097 34.63165405 3.05648193 35.31121826 2.82800293 C50.41091586 -2.26321931 64.76690504 -8.62604527 78.8828125 -16.00390625 C81 -17 81 -17 83 -17 C77.00115314 4.52527402 56.87442116 24.34350962 39 37 C45.75186011 36.43163855 51.88763632 35.11238078 58.375 33.1875 C59.29458496 32.92122803 60.21416992 32.65495605 61.16162109 32.38061523 C66.89415557 30.69776702 72.51185797 28.8470489 78.0390625 26.56640625 C80 26 80 26 83 27 C75.11940461 37.4964924 66.77753381 47.26541135 57.5625 56.625 C57.06129639 57.13933594 56.56009277 57.65367187 56.04370117 58.18359375 C55.53556885 58.69277344 55.02743652 59.20195312 54.50390625 59.7265625 C53.9730542 60.26120117 53.44220215 60.79583984 52.89526367 61.34667969 C51 63 51 63 48.39575195 64.59863281 C44.01154683 67.4209186 41.40194389 69.32091742 40.1550293 74.52978516 C39.83956979 78.08553569 39.8776746 81.62352564 39.99111938 85.18878174 C40.08824008 88.33343281 40.07042178 91.47420743 40.05693054 94.62002563 C40.05023898 96.1986053 40.04852206 97.77721407 40.05183411 99.35580444 C40.07574489 160.74006017 8.54490239 217.6345969 -33.77734375 260.03100586 C-40.11518097 266.26335999 -46.81518725 271.77968525 -54 277 C-55.04414063 277.76570313 -56.08828125 278.53140625 -57.1640625 279.3203125 C-109.44610282 316.55342806 -178.92719215 333.54934149 -242.57421875 323.03515625 C-277.76662013 316.54335405 -315.56933897 304.05691292 -345 283 C-345 282.67 -345 282.34 -345 282 C-344.39961411 281.98160568 -343.79922821 281.96321136 -343.1806488 281.94425964 C-336.80214651 281.74656551 -330.42431934 281.53267439 -324.04663086 281.31030273 C-321.68185361 281.22983984 -319.31694242 281.15320122 -316.9519043 281.08081055 C-279.24809457 279.91884404 -247.85441043 274.768427 -217 252 C-219.81245485 250.59377257 -222.49954562 250.53952486 -225.625 250.1875 C-250.32089873 247.04498192 -274.65021285 237.57414756 -291 218 C-302 202.90239044 -302 202.90239044 -302 196 C-299.85400757 196.14347318 -297.70821331 196.28991125 -295.5625 196.4375 C-294.96501953 196.47810547 -294.96501953 196.47810547 -291.94140625 196.68359375 C-289.17174697 196.90593508 -286.44941859 197.18142032 -283.6953125 197.51953125 C-270.0470126 199.06799608 -256.24024829 198.7958391 -243 195 C-243.55236328 194.82984375 -244.10472656 194.6596875 -244.67382812 194.484375 C-273.12314151 185.62195426 -302.00937316 172.08154912 -316.81640625 144.6328125 C-321.6856319 134.47197055 -323.33816408 126.27213588 -323 115 C-322.32195312 115.38671875 -321.64390625 115.7734375 -320.9453125 116.171875 C-303.2890551 126.05155365 -287.09127165 129.59229066 -267 125 C-267.96679688 124.443125 -268.93359375 123.88625 -269.9296875 123.3125 C-277.79290744 118.72722506 -285.09658971 113.97365806 -292 108 C-292.80695313 107.33742188 -293.61390625 106.67484375 -294.4453125 105.9921875 C-310.39984141 92.43834005 -322.3919374 73.78854268 -324.20703125 52.58105469 C-325.08702084 36.32010419 -323.63266988 19.34297809 -318 4 C-313.85946282 7.23163877 -310.45172504 10.64886724 -307.0390625 14.6328125 C-272.16100722 55.1234284 -223.2528157 83.88474184 -169.33642578 88.21386719 C-163.89404676 88.58063832 -158.45159419 88.82296055 -153 89 C-153.03480469 87.89785156 -153.06960937 86.79570312 -153.10546875 85.66015625 C-153.68972771 58.9799856 -146.24988334 33.96463748 -128 14 C-127.62617188 13.57976562 -127.62617188 13.57976562 -125.734375 11.453125 C-93.61013318 -22.79855005 -38.04351044 -26.37878325 0 0 Z " fill="#000000" transform="translate(387,102)"/>
</svg>
