<?xml version="1.0" encoding="UTF-8"?>
<!-- Generator: visioncortex VTracer 0.6.12 -->
<svg version="1.1" xmlns="http://www.w3.org/2000/svg" width="512" height="512">
<path d="M0 0 C4.12791287 2.8946989 8.2187486 5.87946261 11.4765625 9.7578125 C13 11 13 11 15.06640625 11.06640625 C30.70403077 7.90951491 44.99105358 1.96575664 59.20092773 -5.15551758 C61 -6 61 -6 64 -7 C59.9470773 10.44686723 48.30375414 24.65260338 34 35 C44.65392401 33.11719446 54.74208124 30.40827623 65 27 C65.99257813 26.67386719 66.98515625 26.34773438 68.0078125 26.01171875 C70.00820742 25.35014614 72.00475877 24.67695685 74 24 C70.59483687 33.42588635 62.73280933 40.78952514 56 48 C55.6390625 48.38800781 55.6390625 48.38800781 53.8125 50.3515625 C49.86874484 54.4502509 46.17234635 57.50930052 41.26953125 60.40625 C37.94628006 62.80452405 36.27816844 64.0808026 35.08105469 68.03662109 C34.82976172 71.68983201 34.89029171 75.21732386 35.0625 78.875 C35.09503587 81.57435949 35.08379493 84.27315937 35.07421875 86.97265625 C35.07649475 87.65061752 35.07877075 88.3285788 35.08111572 89.02708435 C35.04467739 137.64492786 10.79030595 188.24876596 -21 224 C-21.61101562 224.72058594 -22.22203125 225.44117188 -22.8515625 226.18359375 C-57.67836734 267.1999966 -109.92005394 291.70432093 -163 297 C-164.04929688 297.11085938 -165.09859375 297.22171875 -166.1796875 297.3359375 C-215.445291 301.70722606 -267.38766586 291.46924634 -309 264 C-309.33 263.34 -309.66 262.68 -310 262 C-309.20118408 262.01571045 -308.40236816 262.0314209 -307.5793457 262.04760742 C-291.1694621 262.32657897 -275.15245606 262.32968746 -259 259 C-258.21157715 258.83902832 -257.4231543 258.67805664 -256.61083984 258.51220703 C-235.4356787 253.9904957 -213.82732547 244.79631653 -197 231 C-198.05316406 230.85304688 -199.10632813 230.70609375 -200.19140625 230.5546875 C-223.31216637 227.06740965 -242.28072514 216.66168803 -256.875 198.125 C-261.70121154 191.39116022 -267 183.47880948 -267 175 C-266.39414062 175.0721875 -265.78828125 175.144375 -265.1640625 175.21875 C-255.35564714 176.30522062 -246.63721491 176.29652781 -237 174 C-238.01578125 173.6596875 -239.0315625 173.319375 -240.078125 172.96875 C-260.79315237 165.77989261 -276.99378508 152.66547221 -287.3125 133.0625 C-292.02622195 123.09821554 -295.18548389 112.69354967 -295.0625 101.625 C-295.05347656 100.56539063 -295.04445313 99.50578125 -295.03515625 98.4140625 C-295.02355469 97.61742187 -295.01195312 96.82078125 -295 96 C-294.07960938 96.39832031 -293.15921875 96.79664063 -292.2109375 97.20703125 C-282.94215878 101.12122812 -273.21588924 105 -263 105 C-263.76183594 104.34515625 -264.52367187 103.6903125 -265.30859375 103.015625 C-276.37875094 93.31348723 -284.69838148 82.90667715 -290 69 C-290.41378906 67.91847656 -290.82757813 66.83695312 -291.25390625 65.72265625 C-297.43982952 46.56138172 -295.52566655 24.98815064 -286.75 7.0625 C-285.84767401 5.36728856 -284.93660194 3.67651747 -284 2 C-280.72344492 3.40526214 -278.84567314 5.02917473 -276.5625 7.75 C-275.9540625 8.46542969 -275.345625 9.18085937 -274.71875 9.91796875 C-273.31528609 11.61807389 -271.93537819 13.33760177 -270.5625 15.0625 C-267.95591904 18.05053183 -265.220301 20.54255026 -262.203125 23.1015625 C-260.72533002 24.37498158 -259.27703089 25.68339051 -257.859375 27.0234375 C-241.68749238 42.26021126 -221.97735943 53.53868101 -202 63 C-200.94167969 63.51175781 -199.88335937 64.02351563 -198.79296875 64.55078125 C-174.54479751 75.64334787 -148.3708795 80.52569526 -122 83 C-122.16008545 82.28175049 -122.3201709 81.56350098 -122.48510742 80.82348633 C-126.3129244 59.83311013 -121.77992848 38.61017472 -110 21 C-106.70200417 16.62065476 -102.94157368 12.79751031 -99 9 C-98.28328125 8.26394531 -97.5665625 7.52789062 -96.828125 6.76953125 C-71.22987596 -18.10696265 -29.12521673 -17.68657403 0 0 Z " fill="#02A9F4" transform="translate(374,108)"/>
</svg>
