<?xml version="1.0" encoding="UTF-8"?>
<!-- Generator: visioncortex VTracer 0.6.12 -->
<svg version="1.1" xmlns="http://www.w3.org/2000/svg" width="512" height="512">
<path d="M0 0 C2.23464419 1.91860166 4.13077635 3.81516024 6.046875 6.03515625 C8.734375 8.34765625 8.734375 8.34765625 12.30859375 8.14453125 C33.25581354 4.78832062 54.2539599 -3.89167688 72.5390625 -14.47265625 C74.734375 -15.65234375 74.734375 -15.65234375 76.734375 -15.65234375 C72.91588533 2.21116542 61.60982029 16.50730359 49.109375 29.22265625 C48.84624512 29.49062012 48.84624512 29.49062012 47.51464844 30.84667969 C43.85156372 34.47785203 39.99488695 37.43934709 35.734375 40.34765625 C42.94244181 39.84206673 49.6963215 38.58352279 56.671875 36.72265625 C57.65953857 36.46339355 58.64720215 36.20413086 59.66479492 35.93701172 C68.03849813 33.67261526 76.11346786 30.81318781 84.19140625 27.66796875 C87.734375 26.34765625 87.734375 26.34765625 89.734375 26.34765625 C88.42428004 34.98609491 78.54899488 43.87435638 72.8359375 50.05859375 C70.98916317 52.07013605 69.23450067 54.12767823 67.484375 56.22265625 C64.34561244 59.81188937 60.96270899 63.09271087 57.484375 66.34765625 C56.98389648 66.82187012 56.48341797 67.29608398 55.96777344 67.78466797 C53.37302567 70.17414019 50.94278033 72.22335531 47.89648438 74.0402832 C40.24920843 78.74320961 40.24920843 78.74320961 38.80761719 83.23583984 C38.52575644 86.71370592 38.57321057 90.04971306 38.734375 93.53515625 C38.74676124 96.14320268 38.75042556 98.75130276 38.74609375 101.359375 C38.75082199 102.02359467 38.75555023 102.68781433 38.76042175 103.37216187 C39.15601108 178.64601851 2.8256157 255.22039356 -49.1328125 308.3828125 C-65.95651208 325.35915314 -65.95651208 325.35915314 -75.265625 332.34765625 C-76.42547385 333.25784849 -77.5842473 334.16941207 -78.7421875 335.08203125 C-140.35250816 383.07646316 -220.84297254 401.5308294 -297.8371582 392.82592773 C-339.688232 387.50177417 -379.67793792 373.76772056 -416.015625 352.34765625 C-416.33503052 352.1607019 -416.33503052 352.1607019 -417.95141602 351.21459961 C-419.42718363 350.31826431 -420.85311514 349.34069348 -422.265625 348.34765625 C-422.265625 347.68765625 -422.265625 347.02765625 -422.265625 346.34765625 C-421.10853027 346.3633667 -419.95143555 346.37907715 -418.75927734 346.39526367 C-375.45986933 346.93111312 -375.45986933 346.93111312 -358.265625 343.34765625 C-357.4195166 343.18136719 -356.5734082 343.01507813 -355.70166016 342.84375 C-324.35467283 336.5708676 -296.023689 323.04702002 -270.265625 304.34765625 C-271.42835938 304.20070313 -272.59109375 304.05375 -273.7890625 303.90234375 C-302.62440597 299.97563505 -329.86129487 287.82463311 -348.109375 264.3203125 C-355.79115591 253.73003121 -363.47311861 242.3581974 -366.265625 229.34765625 C-365.69199219 229.41984375 -365.11835938 229.49203125 -364.52734375 229.56640625 C-350.73573007 231.07322899 -336.89051438 231.08731085 -323.265625 228.34765625 C-323.8232251 228.15244385 -324.3808252 227.95723145 -324.95532227 227.75610352 C-354.40475007 217.32250552 -377.7883592 200.96313714 -392.27490234 172.35449219 C-399.75419911 156.59870866 -403.11876825 140.74229915 -402.265625 123.34765625 C-397.80146618 124.77209777 -393.52169298 126.46997206 -389.203125 128.28515625 C-379.17915632 132.37634426 -369.07852994 134.63981371 -358.265625 135.34765625 C-358.97847656 134.77917969 -359.69132812 134.21070313 -360.42578125 133.625 C-382.08480214 116.16368976 -397.94167925 92.58406141 -401.265625 64.34765625 C-403.75146676 39.87527525 -400.15621846 17.97003225 -388.265625 -3.65234375 C-387.275625 -3.65234375 -386.285625 -3.65234375 -385.265625 -3.65234375 C-383.40380859 -1.65478516 -383.40380859 -1.65478516 -381.2890625 1.12109375 C-376.66486332 6.96071124 -371.64916671 12.27044652 -366.36425781 17.50976562 C-364.89149977 18.97178786 -363.42977455 20.44423113 -361.96875 21.91796875 C-355.73506419 28.16084859 -349.20158067 33.88811808 -342.265625 39.34765625 C-341.6586377 39.83427734 -341.05165039 40.32089844 -340.42626953 40.82226562 C-291.43796186 79.98824028 -233.14346052 99.47576994 -171.265625 105.34765625 C-171.33599976 104.97979004 -171.33599976 104.97979004 -171.69213867 103.11816406 C-176.78461147 74.91991452 -171.80151133 45.9167352 -155.51318359 22.08984375 C-138.12795944 -2.18823053 -113.26653016 -17.57690424 -83.953125 -22.96484375 C-53.46674651 -26.9231251 -24.01702613 -19.24675303 0 0 Z " fill="#000000" transform="translate(422.265625,80.65234375)"/>
</svg>
