<?xml version="1.0" encoding="UTF-8"?>
<!-- Generator: visioncortex VTracer 0.6.12 -->
<svg version="1.1" xmlns="http://www.w3.org/2000/svg" width="512" height="512">
<path d="M0 0 C16.04649786 -0.21043595 32.09254682 -0.36904207 48.1400919 -0.46630955 C55.59166711 -0.51267758 63.04238401 -0.57586658 70.4934082 -0.67895508 C76.98937608 -0.76878691 83.48472233 -0.82675284 89.9812941 -0.84679645 C93.42017751 -0.85851035 96.85728297 -0.88594252 100.29559517 -0.95157051 C104.13823351 -1.024318 107.97914811 -1.02590137 111.82250977 -1.02172852 C112.95683441 -1.054086 114.09115906 -1.08644348 115.25985718 -1.11978149 C122.83003296 -1.03083559 122.83003296 -1.03083559 126.23220158 1.96675014 C128.01990727 4.23695848 129.53693511 6.51132284 131 9 C131.69456299 9.99088623 132.38912598 10.98177246 133.10473633 12.00268555 C133.38973999 12.43730103 133.38973999 12.43730103 134.83203125 14.63671875 C135.47986572 15.61850098 136.1277002 16.6002832 136.79516602 17.61181641 C137.46088623 18.62679199 138.12660645 19.64176758 138.8125 20.6875 C143.87434279 28.34475916 149.00691641 35.9056287 154.390625 43.33984375 C159.79521908 50.85788251 164.92030516 58.57766319 170.12158203 66.23681641 C172.98931602 70.45530006 175.8687197 74.66576135 178.75 78.875 C179.28343018 79.65447998 179.81686035 80.43395996 180.36645508 81.23706055 C183.73825827 86.16220714 187.11703897 91.08251261 190.5 96 C200.08856525 109.94174231 209.65764911 123.89157394 219 138 C223.99116205 133.29771549 228.31767187 128.22914125 232.61328125 122.890625 C234.99370482 120.00762428 237.46679782 117.24921167 240 114.5 C243.29331699 110.92207537 246.44651321 107.28460334 249.5 103.5 C252.55348679 99.71539666 255.70668301 96.07792463 259 92.5 C263.11378909 88.0301488 266.97087297 83.40955107 270.78515625 78.68359375 C273.66480887 75.19449084 276.70693876 71.87003079 279.75390625 68.52734375 C282.06187598 65.93037607 284.25555863 63.26595987 286.4375 60.5625 C290.29825137 55.788597 294.37437075 51.26611572 298.53125 46.75 C300.94378104 44.06262366 303.2325621 41.31034556 305.5 38.5 C309.33719031 33.74404581 313.39385101 29.24495199 317.53125 24.75 C319.94378104 22.06262366 322.2325621 19.31034556 324.5 16.5 C325.20205566 15.65542236 325.90411133 14.81084473 326.62744141 13.94067383 C329 11 329 11 331.00732422 8.08081055 C334.36006891 3.63346894 337.29466186 -0.03238602 342.99511719 -0.88623047 C347.55423818 -1.21347225 352.06974257 -0.96407937 356.625 -0.6875 C358.21727744 -0.63221934 359.80974086 -0.58204738 361.40234375 -0.53710938 C365.27288778 -0.41689257 369.13435612 -0.22778436 373 0 C369.73319159 4.44849305 366.45080353 8.76570844 362.6875 12.8125 C359.52623398 16.26980431 356.50293164 19.79053355 353.5625 23.4375 C349.70174863 28.211403 345.62562925 32.73388428 341.46875 37.25 C339.05621896 39.93737634 336.7674379 42.68965444 334.5 45.5 C330.66280969 50.25595419 326.60614899 54.75504801 322.46875 59.25 C320.05621896 61.93737634 317.7674379 64.68965444 315.5 67.5 C312.44651321 71.28460334 309.29331699 74.92207537 306 78.5 C301.88621091 82.9698512 298.02912703 87.59044893 294.21484375 92.31640625 C291.33519113 95.80550916 288.29306124 99.12996921 285.24609375 102.47265625 C282.93812402 105.06962393 280.74444137 107.73404013 278.5625 110.4375 C274.70174863 115.211403 270.62562925 119.73388428 266.46875 124.25 C264.05621896 126.93737634 261.7674379 129.68965444 259.5 132.5 C255.6749928 137.240854 251.63251624 141.7267496 247.5078125 146.20703125 C243.5027676 150.66747845 239.74681784 155.32100284 236 160 C237.37464538 163.77475925 239.11048646 166.91158985 241.34375 170.24609375 C242.00769775 171.2407666 242.67164551 172.23543945 243.35571289 173.26025391 C244.06332764 174.30874512 244.77094238 175.35723633 245.5 176.4375 C246.22759521 177.52208496 246.95519043 178.60666992 247.70483398 179.72412109 C252.16150878 186.34402356 256.71007327 192.87659866 261.390625 199.33984375 C266.79521908 206.85788251 271.92030516 214.57766319 277.12158203 222.23681641 C279.98931602 226.45530006 282.8687197 230.66576135 285.75 234.875 C286.28343018 235.65447998 286.81686035 236.43395996 287.36645508 237.23706055 C291.18235425 242.81089204 295.007755 248.37814359 298.83691406 253.94287109 C302.9569534 259.9322703 307.06074433 265.93273174 311.1640625 271.93359375 C314.6023128 276.960609 318.04749607 281.98276475 321.5 287 C325.50958738 292.82679803 329.50760903 298.66140652 333.5 304.5 C339.31924338 313.00972322 345.15574869 321.50743862 351 330 C356.84425158 338.49256178 362.68063617 346.99035884 368.5 355.5 C372.66273179 361.5860349 376.82685469 367.6710992 381 373.75 C381.21624023 374.06549805 381.21624023 374.06549805 382.31054688 375.66210938 C382.72369141 376.26345703 383.13683594 376.86480469 383.5625 377.484375 C383.95953125 378.06251953 384.3565625 378.64066406 384.765625 379.23632812 C386.08566894 381.12240357 387.44939701 382.9730031 388.8125 384.828125 C391 388 391 388 391 390 C375.022943 390.35125613 359.04714791 390.6153165 343.06715679 390.77718258 C335.64623739 390.85435813 328.22772383 390.95944893 320.80834961 391.1315918 C314.33723618 391.28166102 307.86786507 391.37799791 301.39505988 391.41132742 C297.97028546 391.43079996 294.55049224 391.47612096 291.12732506 391.58595085 C270.34109977 392.1794076 270.34109977 392.1794076 264.81692886 388.57597733 C261.29887883 385.2014196 259.03344995 381.37609469 256.98401546 376.9881506 C255.32224591 373.63063413 253.14192606 370.62689814 251 367.5625 C250.17104514 366.31000215 249.34362569 365.0564824 248.51953125 363.80078125 C245.95631763 359.91745761 243.32966681 356.0799081 240.6875 352.25 C240.23503906 351.59394775 239.78257812 350.93789551 239.31640625 350.26196289 C238.3729254 348.89401449 237.4294023 347.52609524 236.48583984 346.15820312 C233.81474437 342.27839964 231.15812876 338.38869316 228.5 334.5 C222.68091124 325.99017145 216.84425095 317.49256087 211 309 C204.60088486 299.70113942 198.21296378 290.39480144 191.84301758 281.07592773 C189.2622232 277.30152075 186.67827489 273.52942587 184.08203125 269.765625 C177.96717292 260.90073194 171.94693327 251.97845024 166 243 C162.25111602 244.24962799 161.35380681 245.77896986 158.9375 248.875 C155.74225639 252.88329587 152.48070027 256.73150392 149 260.5 C145.70668301 264.07792463 142.55348679 267.71539666 139.5 271.5 C135.66280969 276.25595419 131.60614899 280.75504801 127.46875 285.25 C125.05621896 287.93737634 122.7674379 290.68965444 120.5 293.5 C116.66280969 298.25595419 112.60614899 302.75504801 108.46875 307.25 C106.05621896 309.93737634 103.7674379 312.68965444 101.5 315.5 C97.66280969 320.25595419 93.60614899 324.75504801 89.46875 329.25 C87.05621896 331.93737634 84.7674379 334.68965444 82.5 337.5 C78.66280969 342.25595419 74.60614899 346.75504801 70.46875 351.25 C68.05621896 353.93737634 65.7674379 356.68965444 63.5 359.5 C59.67150179 364.24518087 55.6254047 368.73513 51.49609375 373.21875 C48.16258934 376.93307729 45.02937726 380.7927195 41.91015625 384.6875 C41.27980469 385.450625 40.64945313 386.21375 40 387 C39.62504395 387.53665283 39.25008789 388.07330566 38.86376953 388.6262207 C35.92680326 390.79105031 32.77299591 390.36746107 29.26953125 390.29296875 C28.89432091 390.29084633 28.89432091 390.29084633 26.99552917 390.28010559 C24.60081974 390.2633245 22.20695466 390.2256749 19.8125 390.1875 C18.1881632 390.17245235 16.5638132 390.15876409 14.93945312 390.14648438 C10.95931052 390.11342305 6.97979837 390.06164594 3 390 C6.26680841 385.55150695 9.54919647 381.23429156 13.3125 377.1875 C16.47376602 373.73019569 19.49706836 370.20946645 22.4375 366.5625 C26.29825137 361.788597 30.37437075 357.26611572 34.53125 352.75 C36.94378104 350.06262366 39.2325621 347.31034556 41.5 344.5 C44.55348679 340.71539666 47.70668301 337.07792463 51 333.5 C55.11378909 329.0301488 58.97087297 324.40955107 62.78515625 319.68359375 C65.66480887 316.19449084 68.70693876 312.87003079 71.75390625 309.52734375 C74.06187598 306.93037607 76.25555863 304.26595987 78.4375 301.5625 C82.29825137 296.788597 86.37437075 292.26611572 90.53125 287.75 C92.94378104 285.06262366 95.2325621 282.31034556 97.5 279.5 C101.33719031 274.74404581 105.39385101 270.24495199 109.53125 265.75 C111.94378104 263.06262366 114.2325621 260.31034556 116.5 257.5 C119.55348679 253.71539666 122.70668301 250.07792463 126 246.5 C130.10120977 242.0438169 133.9478745 237.43848231 137.75 232.7265625 C141.35688653 228.35571736 145.16939044 224.17473051 149 220 C145.99004138 214.01176654 142.37814954 208.62641193 138.43261719 203.21704102 C133.36731495 196.22066098 128.6346508 189.00395882 123.88549805 181.79077148 C120.68857696 176.95448554 117.44017044 172.18451645 114.0078125 167.51171875 C109.09442674 160.8218261 104.56187919 153.89285549 100 146.9609375 C96.7612502 142.0648587 93.47567276 137.23153109 90 132.5 C85.08884278 125.81430355 80.55929242 118.88892481 76 111.9609375 C72.14113681 106.12742166 68.1581551 100.42356547 64.01806641 94.78662109 C60.46011821 89.873674 57.08218578 84.83897612 53.6875 79.8125 C52.18699581 77.59711519 50.68521077 75.38259936 49.18359375 73.16796875 C48.46413574 72.10626465 47.74467773 71.04456055 47.00341797 69.95068359 C44.43337158 66.16545563 41.84630216 62.39225055 39.25 58.625 C34.76639395 52.11752629 30.30099344 45.59778784 25.84155273 39.07373047 C22.79696386 34.62112673 19.74389261 30.17458556 16.6809082 25.73461914 C12.52128489 19.70186662 8.39221844 13.6496295 4.3125 7.5625 C3.87784424 6.91700195 3.44318848 6.27150391 2.99536133 5.60644531 C0 1.11799462 0 1.11799462 0 0 Z M41 21 C42.58494159 25.17092196 44.5293615 28.33543293 47.1875 31.9375 C51.68331596 38.10738823 56.02298024 44.37260238 60.3125 50.6875 C60.95179443 51.62795166 61.59108887 52.56840332 62.24975586 53.53735352 C63.54067337 55.43696468 64.83128381 57.33678455 66.12158203 59.23681641 C68.98931602 63.45530006 71.8687197 67.66576135 74.75 71.875 C75.01671509 72.26473999 75.01671509 72.26473999 76.36645508 74.23706055 C80.18235425 79.81089204 84.007755 85.37814359 87.83691406 90.94287109 C91.9569534 96.9322703 96.06074433 102.93273174 100.1640625 108.93359375 C103.6023128 113.960609 107.04749607 118.98276475 110.5 124 C114.50958738 129.82679803 118.50760903 135.66140652 122.5 141.5 C128.31924338 150.00972322 134.15574869 158.50743862 140 167 C146.40119079 176.3018768 152.79003837 185.61200944 159.16357422 194.93286133 C162.60197218 199.96013108 166.04732974 204.98252305 169.5 210 C174.06666905 216.63635824 178.6170039 223.2837874 183.1640625 229.93359375 C186.6023128 234.960609 190.04749607 239.98276475 193.5 245 C197.50958738 250.82679803 201.50760903 256.66140652 205.5 262.5 C211.31924338 271.00972322 217.15574869 279.50743862 223 288 C229.40119079 297.3018768 235.79003837 306.61200944 242.16357422 315.93286133 C246.04304001 321.60501482 249.93185041 327.27064117 253.8293457 332.93041992 C256.32620543 336.55822354 258.81414931 340.1918723 261.29296875 343.83203125 C261.85757813 344.66025391 262.4221875 345.48847656 263.00390625 346.34179688 C264.08216146 347.92415516 265.15910765 349.50740672 266.234375 351.09179688 C267.23228383 352.55548157 268.24635618 354.0083108 269.27824402 355.44824219 C271 358 271 358 272.48506165 360.82434082 C275.18367198 365.47166904 277.17033816 368.49514926 282.49736023 369.9650116 C286.84395265 370.41472684 291.17284576 370.23884153 295.53125 370.07421875 C297.13401933 370.0536746 298.73685826 370.0380296 300.33972168 370.02705383 C304.53705177 369.98526332 308.73012239 369.87742341 312.92578125 369.75531006 C317.21555961 369.64230874 321.50603394 369.59244504 325.796875 369.53710938 C334.19986092 369.41951204 342.59939914 369.23205842 351 369 C349.89080345 367.24758119 348.78037538 365.49594185 347.66943359 363.74462891 C347.0511972 362.76910065 346.43296082 361.79357239 345.79598999 360.78848267 C343.50935277 357.2382133 341.09220351 353.80085787 338.625 350.375 C331.22003577 339.98833236 324.09730709 329.41127125 316.93896484 318.85400391 C314.38961483 315.10156098 311.82391818 311.36061934 309.25 307.625 C305.32227561 301.92418435 301.40725889 296.21486523 297.5 290.5 C291.68081674 281.99023583 285.84425117 273.49256118 280 265 C273.59880921 255.6981232 267.20996163 246.38799056 260.83642578 237.06713867 C257.39802782 232.03986892 253.95267026 227.01747695 250.5 222 C245.93333095 215.36364176 241.3829961 208.7162126 236.8359375 202.06640625 C233.3976872 197.039391 229.95250393 192.01723525 226.5 187 C222.49041262 181.17320197 218.49239097 175.33859348 214.5 169.5 C208.68075662 160.99027678 202.84425131 152.49256138 197 144 C190.59880921 134.6981232 184.20996163 125.38799056 177.83642578 116.06713867 C174.39802782 111.03986892 170.95267026 106.01747695 167.5 101 C162.93333095 94.36364176 158.3829961 87.7162126 153.8359375 81.06640625 C150.3976872 76.039391 146.95250393 71.01723525 143.5 66 C139.49041214 60.17320127 135.49262032 54.33843715 131.5 48.5 C130.4101801 46.90753576 129.3203365 45.31508774 128.23046875 43.72265625 C126.08434028 40.58660419 123.94161442 37.44826248 121.80078125 34.30859375 C120.80476662 32.85150841 119.80867648 31.39447469 118.8125 29.9375 C118.35488281 29.26460937 117.89726562 28.59171875 117.42578125 27.8984375 C115.73309631 25.42649822 114.12358762 23.12358762 112 21 C109.0640564 20.75949097 109.0640564 20.75949097 105.25537109 20.77294922 C104.56257553 20.77265717 103.86977997 20.77236511 103.1559906 20.77206421 C100.86167966 20.77345969 98.56769184 20.78903081 96.2734375 20.8046875 C94.68446022 20.80841686 93.09548064 20.8112642 91.50650024 20.81326294 C87.32085846 20.82090547 83.1353551 20.84055919 78.94976807 20.8626709 C74.68007276 20.88311604 70.41035513 20.8922618 66.140625 20.90234375 C57.76035309 20.92380457 49.38019375 20.95794789 41 21 Z " fill="#000000" transform="translate(60,61)"/>
</svg>
