<?xml version="1.0" encoding="UTF-8"?>
<!-- Generator: visioncortex VTracer 0.6.12 -->
<svg version="1.1" xmlns="http://www.w3.org/2000/svg" width="512" height="512">
<path d="M0 0 C126.72 0 253.44 0 384 0 C384 126.72 384 253.44 384 384 C257.28 384 130.56 384 0 384 C0 257.28 0 130.56 0 0 Z " fill="#1976D2" transform="translate(64,64)"/>
<path d="M0 0 C0.02941647 4.27081848 0.04693715 8.54161034 0.0625 12.8125 C0.07087891 14.00810547 0.07925781 15.20371094 0.08789062 16.43554688 C0.10764411 23.68507559 -0.18206935 30.79538651 -1 38 C-1.99257813 37.54109375 -2.98515625 37.0821875 -4.0078125 36.609375 C-16.76665149 30.7968039 -28.17588508 26.6870296 -42.3125 26.5 C-43.2317627 26.48138916 -44.15102539 26.46277832 -45.09814453 26.44360352 C-52.79052077 26.51517666 -58.42122566 28.74381617 -64.875 32.8125 C-68.54241636 36.58778155 -70.13469746 40.79179624 -70.4375 46 C-70.17457379 51.24841172 -68.08878335 54.98504515 -64.36987305 58.57250977 C-56.4258385 65.05741597 -47.20606427 69.05637135 -38.01269531 73.44238281 C-18.82918546 82.63395473 -1.85882514 92.79535795 6.375 113.4375 C11.01579632 128.60783418 8.18590361 145.27872657 1.6875 159.4375 C-5.21719651 172.03700662 -16.07016932 178.60748008 -29.5078125 183 C-46.73528326 187.93314599 -65.8694296 187.11655815 -83.5 184.8125 C-84.29720459 184.71171143 -85.09440918 184.61092285 -85.91577148 184.50708008 C-94.9093423 183.16414869 -103.09477663 180.47367316 -112 178 C-112 164.14 -112 150.28 -112 136 C-108.37 137.98 -104.74 139.96 -101 142 C-85.11713768 149.73516022 -66.53656279 155.91745057 -48.8125 150.875 C-43.46274287 148.63189317 -39.17165002 145.34330004 -36.5625 140.125 C-35.60228071 134.7904484 -35.08383203 130.83233594 -37.5625 125.875 C-43.67252016 118.66830956 -50.78026438 114.78766654 -59.12362671 110.65118408 C-62.39565918 109.02487584 -65.64765823 107.35970398 -68.8984375 105.69140625 C-69.2132885 105.52986053 -69.2132885 105.52986053 -70.80662537 104.71234131 C-88.88264725 95.38253029 -105.59543575 83.20386602 -112.15625 63.078125 C-115.61134299 48.78267774 -113.76419287 32.61728599 -106.875 19.75 C-98.73950738 6.77718744 -85.2577133 -0.50132853 -70.56201172 -3.91699219 C-48.21024781 -8.118561 -21.83247769 -5.71878675 0 0 Z " fill="#FDFEFE" transform="translate(419,240)"/>
<path d="M0 0 C46.53 0 93.06 0 141 0 C141 11.55 141 23.1 141 35 C124.5 35 108 35 91 35 C91 86.81 91 138.62 91 192 C77.47 192 63.94 192 50 192 C50 140.19 50 88.38 50 35 C33.5 35 17 35 0 35 C0 23.45 0 11.9 0 0 Z " fill="#FBFCFE" transform="translate(152,235)"/>
</svg>
