<?xml version="1.0" encoding="UTF-8"?>
<!-- Generator: visioncortex VTracer 0.6.12 -->
<svg version="1.1" xmlns="http://www.w3.org/2000/svg" width="512" height="512">
<path d="M0 0 C155.1 0 310.2 0 470 0 C470 95.37 470 190.74 470 289 C314.9 289 159.8 289 0 289 C0 193.63 0 98.26 0 0 Z " fill="#4152B5" transform="translate(21,106)"/>
<path d="M0 0 C155.1 0 310.2 0 470 0 C470 10.56 470 21.12 470 32 C314.9 32 159.8 32 0 32 C0 21.44 0 10.88 0 0 Z " fill="#F34437" transform="translate(21,363)"/>
<path d="M0 0 C155.1 0 310.2 0 470 0 C470 10.56 470 21.12 470 32 C314.9 32 159.8 32 0 32 C0 21.44 0 10.88 0 0 Z " fill="#ECEDEF" transform="translate(21,331)"/>
<path d="M0 0 C155.1 0 310.2 0 470 0 C470 10.56 470 21.12 470 32 C314.9 32 159.8 32 0 32 C0 21.44 0 10.88 0 0 Z " fill="#F34438" transform="translate(21,299)"/>
<path d="M0 0 C155.1 0 310.2 0 470 0 C470 10.56 470 21.12 470 32 C314.9 32 159.8 32 0 32 C0 21.44 0 10.88 0 0 Z " fill="#ECEDEF" transform="translate(21,267)"/>
<path d="M0 0 C81.18 0 162.36 0 246 0 C246 10.89 246 21.78 246 33 C164.82 33 83.64 33 0 33 C0 22.11 0 11.22 0 0 Z " fill="#F3463A" transform="translate(245,106)"/>
<path d="M0 0 C81.18 0 162.36 0 246 0 C246 10.56 246 21.12 246 32 C164.82 32 83.64 32 0 32 C0 21.44 0 10.88 0 0 Z " fill="#F34438" transform="translate(245,235)"/>
<path d="M0 0 C81.18 0 162.36 0 246 0 C246 10.56 246 21.12 246 32 C164.82 32 83.64 32 0 32 C0 21.44 0 10.88 0 0 Z " fill="#EBECEE" transform="translate(245,203)"/>
<path d="M0 0 C81.18 0 162.36 0 246 0 C246 10.56 246 21.12 246 32 C164.82 32 83.64 32 0 32 C0 21.44 0 10.88 0 0 Z " fill="#F34438" transform="translate(245,171)"/>
<path d="M0 0 C81.18 0 162.36 0 246 0 C246 10.56 246 21.12 246 32 C164.82 32 83.64 32 0 32 C0 21.44 0 10.88 0 0 Z " fill="#EBECEE" transform="translate(245,139)"/>
<path d="M0 0 C2.33936818 2.12669835 3.80653848 4.06224856 5 7 C5 7.99 5 8.98 5 10 C6.0725 9.979375 7.145 9.95875 8.25 9.9375 C11.14790424 9.9857984 13.28612141 10.13155885 16 11 C14.91816103 13.52429092 14.05817852 14.9506364 11.9375 16.75 C9.38335669 19.7161019 9.5825233 21.39803592 9.75 25.25 C9.76804688 25.78882813 9.76804688 25.78882813 9.859375 28.515625 C9.90578125 29.33546875 9.9521875 30.1553125 10 31 C9.49210937 30.68804687 8.98421875 30.37609375 8.4609375 30.0546875 C2.78680937 26.84572365 2.78680937 26.84572365 -1.1875 27.625 C-1.6515625 27.851875 -1.6515625 27.851875 -4 29 C-5.66329643 29.67503125 -7.32948893 30.3430259 -9 31 C-8.97679688 30.59587891 -8.97679688 30.59587891 -8.859375 28.55078125 C-8.56194387 19.74469541 -8.56194387 19.74469541 -10.875 15.8125 C-13 14 -13 14 -15 13 C-15 12.34 -15 11.68 -15 11 C-13.185 10.835 -13.185 10.835 -4 10 C-3.71125 9.0925 -3.4225 8.185 -3.125 7.25 C-2.23468224 4.67797092 -1.28505587 2.38653234 0 0 Z " fill="#F6F6FB" transform="translate(130,214)"/>
<path d="M0 0 C0.66 0 1.32 0 2 0 C2.67154933 1.28913487 3.33708859 2.58140204 4 3.875 C4.37125 4.59429687 4.7425 5.31359375 5.125 6.0546875 C6 8 6 8 6 10 C7.815 10.165 7.815 10.165 17 11 C15.47005208 12.72526042 13.94010417 14.45052083 12.41015625 16.17578125 C9.80335127 19.54801927 9.9643531 22.13946539 10.4375 26.1875 C10.53933594 27.08855469 10.64117187 27.98960937 10.74609375 28.91796875 C10.78798828 29.26150391 10.78798828 29.26150391 11 31 C10.74605469 30.84982422 10.74605469 30.84982422 9.4609375 30.08984375 C6.07647221 28.22014851 3.80063847 26.98398723 -0.125 27.0625 C-3.27683807 28.09027328 -6.09436539 29.40881914 -9 31 C-8.84660156 30.21496094 -8.69320312 29.42992187 -8.53515625 28.62109375 C-7.27634383 20.14231589 -7.27634383 20.14231589 -9.4921875 16.64453125 C-11.24887265 14.93370334 -13.0001331 13.41636459 -15 12 C-11.20960634 9.87000003 -8.34263862 9.83297544 -4 10 C-3.71125 9.0925 -3.4225 8.185 -3.125 7.25 C-2.23468224 4.67797092 -1.28505587 2.38653234 0 0 Z " fill="#F6F7FB" transform="translate(87,129)"/>
<path d="M0 0 C2.64465038 3.1254959 3.84414715 6.08788267 5 10 C6.815 10.165 6.815 10.165 16 11 C16 13 16 13 13.5625 15.5625 C12.716875 16.366875 11.87125 17.17125 11 18 C10 19 10 19 9.90234375 21.72265625 C9.91394531 22.82480469 9.92554688 23.92695313 9.9375 25.0625 C9.94652344 26.16722656 9.95554688 27.27195313 9.96484375 28.41015625 C9.97644531 29.26480469 9.98804688 30.11945313 10 31 C9.48050781 30.69964844 8.96101563 30.39929688 8.42578125 30.08984375 C2.72755394 26.98267729 2.72755394 26.98267729 -0.625 27.0625 C-3.51808998 28.2045092 -6.25804091 29.53337072 -9 31 C-8.93039063 30.20335937 -8.86078125 29.40671875 -8.7890625 28.5859375 C-8.35050445 20.00272997 -8.35050445 20.00272997 -10.3359375 16.9375 C-11.81918778 15.54477674 -13.40475873 14.26289934 -15 13 C-15 12.34 -15 11.68 -15 11 C-13.185 10.835 -13.185 10.835 -4 10 C-3.67 8.35 -3.34 6.7 -3 5 C-1.4375 2.1875 -1.4375 2.1875 0 0 Z " fill="#F7F7FB" transform="translate(213,214)"/>
<path d="M0 0 C2.64465038 3.1254959 3.84414715 6.08788267 5 10 C6.815 10.165 6.815 10.165 16 11 C16 13 16 13 13.5625 15.5625 C12.716875 16.366875 11.87125 17.17125 11 18 C10 19 10 19 9.90234375 21.72265625 C9.91394531 22.82480469 9.92554688 23.92695313 9.9375 25.0625 C9.94652344 26.16722656 9.95554688 27.27195313 9.96484375 28.41015625 C9.97644531 29.26480469 9.98804688 30.11945313 10 31 C9.48050781 30.69964844 8.96101563 30.39929688 8.42578125 30.08984375 C2.72755394 26.98267729 2.72755394 26.98267729 -0.625 27.0625 C-3.51808998 28.2045092 -6.25804091 29.53337072 -9 31 C-8.93039063 30.20335937 -8.86078125 29.40671875 -8.7890625 28.5859375 C-8.35050445 20.00272997 -8.35050445 20.00272997 -10.3359375 16.9375 C-11.81918778 15.54477674 -13.40475873 14.26289934 -15 13 C-15 12.34 -15 11.68 -15 11 C-13.185 10.835 -13.185 10.835 -4 10 C-3.67 8.35 -3.34 6.7 -3 5 C-1.4375 2.1875 -1.4375 2.1875 0 0 Z " fill="#F7F7FB" transform="translate(173,214)"/>
<path d="M0 0 C2.64465038 3.1254959 3.84414715 6.08788267 5 10 C6.815 10.165 6.815 10.165 16 11 C16 13 16 13 13.5625 15.5625 C12.716875 16.366875 11.87125 17.17125 11 18 C10 19 10 19 9.90234375 21.72265625 C9.91394531 22.82480469 9.92554687 23.92695313 9.9375 25.0625 C9.94652344 26.16722656 9.95554687 27.27195313 9.96484375 28.41015625 C9.97644531 29.26480469 9.98804687 30.11945313 10 31 C9.48050781 30.69964844 8.96101563 30.39929688 8.42578125 30.08984375 C2.72755394 26.98267729 2.72755394 26.98267729 -0.625 27.0625 C-3.51808998 28.2045092 -6.25804091 29.53337072 -9 31 C-8.93039063 30.20335937 -8.86078125 29.40671875 -8.7890625 28.5859375 C-8.35050445 20.00272997 -8.35050445 20.00272997 -10.3359375 16.9375 C-11.81918778 15.54477674 -13.40475873 14.26289934 -15 13 C-15 12.34 -15 11.68 -15 11 C-13.185 10.835 -13.185 10.835 -4 10 C-3.67 8.35 -3.34 6.7 -3 5 C-1.4375 2.1875 -1.4375 2.1875 0 0 Z " fill="#F7F7FB" transform="translate(45,214)"/>
<path d="M0 0 C3.36591427 2.72478774 4.44226276 6.06856792 6 10 C9.3 10.33 12.6 10.66 16 11 C14 15 14 15 11.890625 16.859375 C9.34670518 19.73968092 9.58574109 21.47204506 9.75 25.25 C9.76804687 25.78882813 9.76804687 25.78882813 9.859375 28.515625 C9.90578125 29.33546875 9.9521875 30.1553125 10 31 C9.2471875 30.68675781 8.494375 30.37351563 7.71875 30.05078125 C4.39856941 28.76755053 1.55914121 28.19066828 -2 28 C-4.8125 29.4375 -4.8125 29.4375 -7 31 C-7.66 31 -8.32 31 -9 31 C-8.93039063 30.21496094 -8.86078125 29.42992187 -8.7890625 28.62109375 C-8.29179726 18.97178012 -8.29179726 18.97178012 -12 14.75 C-12.97265264 13.80436549 -13.96394661 12.8757118 -15 12 C-11.12315913 10.80712589 -8.08378077 10 -4 10 C-3.71125 9.0925 -3.4225 8.185 -3.125 7.25 C-2.23468224 4.67797092 -1.28505587 2.38653234 0 0 Z " fill="#F7F8FC" transform="translate(98,171)"/>
<path d="M0 0 C2.29268825 1.96516136 3.04614242 3.13299873 4.0625 6.0625 C6 9 6 9 8.4140625 9.83203125 C10.94110104 10.32676133 13.4406328 10.72149475 16 11 C15.7834375 11.22494141 15.7834375 11.22494141 14.6875 12.36328125 C10.21980028 17.5238881 9.40229106 21.09729094 9.7890625 27.875 C9.85867187 28.57625 9.92828125 29.2775 10 30 C9.113125 29.690625 8.22625 29.38125 7.3125 29.0625 C6.7659375 28.8871875 6.7659375 28.8871875 4 28 C3.21625 27.71125 2.4325 27.4225 1.625 27.125 C-2.48097207 26.92947752 -5.51277491 28.98381279 -9 31 C-8.93039063 30.14277344 -8.86078125 29.28554687 -8.7890625 28.40234375 C-8.29179726 17.90057542 -8.29179726 17.90057542 -12 13.6875 C-13.6875 12.07421875 -13.6875 12.07421875 -15 11 C-12.24921116 10.08307039 -10.64051087 9.89113917 -7.8125 9.9375 C-7.1834375 9.9478125 -7.1834375 9.9478125 -4 10 C-3.79503906 9.36191406 -3.59007813 8.72382813 -3.37890625 8.06640625 C-3.10949219 7.24011719 -2.84007813 6.41382813 -2.5625 5.5625 C-2.42908203 5.15064453 -2.42908203 5.15064453 -1.75390625 3.06640625 C-1 1 -1 1 0 0 Z " fill="#F7F8FC" transform="translate(130,129)"/>
<path d="M0 0 C1.93044757 2.39007795 3.06051027 4.17797139 4.0625 7.125 C6.3853698 10.57183906 7.24638453 10.59787864 11.1875 11.375 C12.78818595 11.60857649 14.39185505 11.82500486 16 12 C15.566875 12.36609375 15.13375 12.7321875 14.6875 13.109375 C11.7145316 15.99976095 10.13573231 17.9314407 9.6015625 22.13671875 C9.62268414 25.11134924 9.73730851 28.03742374 10 31 C9.2471875 30.68675781 8.494375 30.37351563 7.71875 30.05078125 C4.39856941 28.76755053 1.55914121 28.19066828 -2 28 C-4.8125 29.4375 -4.8125 29.4375 -7 31 C-7.66 31 -8.32 31 -9 31 C-8.93039063 30.21496094 -8.86078125 29.42992187 -8.7890625 28.62109375 C-8.29179726 18.97178012 -8.29179726 18.97178012 -12 14.75 C-12.97265264 13.80436549 -13.96394661 12.8757118 -15 12 C-7.375 10 -7.375 10 -4 10 C-3.79503906 9.36191406 -3.59007812 8.72382813 -3.37890625 8.06640625 C-3.10949219 7.24011719 -2.84007812 6.41382813 -2.5625 5.5625 C-2.42908203 5.15064453 -2.42908203 5.15064453 -1.75390625 3.06640625 C-1 1 -1 1 0 0 Z " fill="#F8F9FC" transform="translate(141,171)"/>
<path d="M0 0 C0.66 0 1.32 0 2 0 C2.17273438 0.62648437 2.34546875 1.25296875 2.5234375 1.8984375 C3.44862999 4.58913493 4.32114284 6.69262597 6 9 C9.2901805 10.37692507 12.45465306 10.79025619 16 11 C14.89665867 13.5744631 14.00344859 14.99700451 11.859375 16.859375 C10 19 10 19 9.828125 22.015625 C9.96734375 23.08296875 10.1065625 24.1503125 10.25 25.25 C10.37890625 26.32765625 10.5078125 27.4053125 10.640625 28.515625 C10.75921875 29.33546875 10.8778125 30.1553125 11 31 C8.3264676 29.94679027 5.71878499 28.86550587 3.125 27.625 C-1.45356346 26.70928731 -3.15728305 28.4874543 -7 31 C-7.66 31 -8.32 31 -9 31 C-8.84660156 30.21496094 -8.69320312 29.42992187 -8.53515625 28.62109375 C-7.27428732 20.12846421 -7.27428732 20.12846421 -9.4921875 16.6796875 C-11.25401324 14.98861782 -13.06773868 13.4889495 -15 12 C-15 11.67 -15 11.34 -15 11 C-14.38511719 10.96261719 -13.77023438 10.92523438 -13.13671875 10.88671875 C-12.32847656 10.82097656 -11.52023438 10.75523437 -10.6875 10.6875 C-9.88699219 10.62949219 -9.08648437 10.57148438 -8.26171875 10.51171875 C-5.55920216 9.90026854 -4.68599216 9.1677042 -3 7 C-2.05078125 5.17578125 -2.05078125 5.17578125 -1.3125 3.3125 C-1.0959375 2.7659375 -1.0959375 2.7659375 0 0 Z " fill="#F8F9FC" transform="translate(87,214)"/>
<path d="M0 0 C2 1 2 1 2.8515625 3.06640625 C3.56770833 5.37760417 4.28385417 7.68880208 5 10 C6.815 10.165 6.815 10.165 16 11 C15.01 11.886875 14.02 12.77375 13 13.6875 C9.02359074 18.20529832 9.51604868 22.63655194 9.7890625 28.40234375 C9.85867187 29.25957031 9.92828125 30.11679688 10 31 C9.48050781 30.69964844 8.96101563 30.39929688 8.42578125 30.08984375 C2.69833729 26.96674584 2.69833729 26.96674584 -0.625 27.125 C-1.40875 27.41375 -2.1925 27.7025 -3 28 C-4.093125 28.350625 -5.18625 28.70125 -6.3125 29.0625 C-6.7559375 29.2171875 -6.7559375 29.2171875 -9 30 C-8.93039063 29.29875 -8.86078125 28.5975 -8.7890625 27.875 C-8.40229106 21.09729094 -9.21980028 17.5238881 -13.6875 12.36328125 C-13.9040625 12.13833984 -13.9040625 12.13833984 -15 11 C-14.66806641 10.98001953 -14.66806641 10.98001953 -12.98828125 10.87890625 C-5.86194648 10.03623017 -5.86194648 10.03623017 -3.22265625 6.86328125 C-2.00290674 4.61116404 -0.93220669 2.38448658 0 0 Z " fill="#F9F9FC" transform="translate(213,129)"/>
<path d="M0 0 C2 1 2 1 2.8515625 3.06640625 C3.56770833 5.37760417 4.28385417 7.68880208 5 10 C6.815 10.165 6.815 10.165 16 11 C15.01 11.886875 14.02 12.77375 13 13.6875 C9.02359074 18.20529832 9.51604868 22.63655194 9.7890625 28.40234375 C9.85867187 29.25957031 9.92828125 30.11679688 10 31 C9.48050781 30.69964844 8.96101563 30.39929688 8.42578125 30.08984375 C2.69833729 26.96674584 2.69833729 26.96674584 -0.625 27.125 C-1.40875 27.41375 -2.1925 27.7025 -3 28 C-4.093125 28.350625 -5.18625 28.70125 -6.3125 29.0625 C-6.7559375 29.2171875 -6.7559375 29.2171875 -9 30 C-8.93039063 29.29875 -8.86078125 28.5975 -8.7890625 27.875 C-8.40229106 21.09729094 -9.21980028 17.5238881 -13.6875 12.36328125 C-13.9040625 12.13833984 -13.9040625 12.13833984 -15 11 C-14.66806641 10.98001953 -14.66806641 10.98001953 -12.98828125 10.87890625 C-5.86194648 10.03623017 -5.86194648 10.03623017 -3.22265625 6.86328125 C-2.00290674 4.61116404 -0.93220669 2.38448658 0 0 Z " fill="#F9F9FC" transform="translate(173,129)"/>
<path d="M0 0 C2 1 2 1 2.8515625 3.06640625 C3.56770833 5.37760417 4.28385417 7.68880208 5 10 C6.815 10.165 6.815 10.165 16 11 C15.01 11.886875 14.02 12.77375 13 13.6875 C9.02359074 18.20529832 9.51604868 22.63655194 9.7890625 28.40234375 C9.85867187 29.25957031 9.92828125 30.11679688 10 31 C9.48050781 30.69964844 8.96101563 30.39929688 8.42578125 30.08984375 C2.69833729 26.96674584 2.69833729 26.96674584 -0.625 27.125 C-1.40875 27.41375 -2.1925 27.7025 -3 28 C-4.093125 28.350625 -5.18625 28.70125 -6.3125 29.0625 C-6.7559375 29.2171875 -6.7559375 29.2171875 -9 30 C-8.93039063 29.29875 -8.86078125 28.5975 -8.7890625 27.875 C-8.40229106 21.09729094 -9.21980028 17.5238881 -13.6875 12.36328125 C-13.9040625 12.13833984 -13.9040625 12.13833984 -15 11 C-14.66806641 10.98001953 -14.66806641 10.98001953 -12.98828125 10.87890625 C-5.86194648 10.03623017 -5.86194648 10.03623017 -3.22265625 6.86328125 C-2.00290674 4.61116404 -0.93220669 2.38448658 0 0 Z " fill="#F9F9FC" transform="translate(45,129)"/>
<path d="M0 0 C0.66 0 1.32 0 2 0 C2.17273438 0.54269531 2.34546875 1.08539063 2.5234375 1.64453125 C3.94138421 5.25444145 4.89401898 7.46781164 8.4921875 9.19921875 C10.98603802 9.92335382 13.44632181 10.53215056 16 11 C15.7834375 11.22494141 15.7834375 11.22494141 14.6875 12.36328125 C10.21980028 17.5238881 9.40229106 21.09729094 9.7890625 27.875 C9.85867187 28.57625 9.92828125 29.2775 10 30 C9.48050781 29.68804687 8.96101563 29.37609375 8.42578125 29.0546875 C2.67318982 25.84344423 2.67318982 25.84344423 -0.6875 26.625 C-1.0690625 26.851875 -1.0690625 26.851875 -3 28 C-4.66050756 28.68186278 -6.32653211 29.35059455 -8 30 C-7.93039063 29.29875 -7.86078125 28.5975 -7.7890625 27.875 C-7.40229106 21.09729094 -8.21980028 17.5238881 -12.6875 12.36328125 C-12.9040625 12.13833984 -12.9040625 12.13833984 -14 11 C-10.52674819 9.8422494 -7.63932552 9.93133348 -4 10 C-3.71125 9.0925 -3.4225 8.185 -3.125 7.25 C-2.23468224 4.67797092 -1.28505587 2.38653234 0 0 Z " fill="#F9F9FC" transform="translate(223,172)"/>
<path d="M0 0 C0.66 0 1.32 0 2 0 C2.17273438 0.54269531 2.34546875 1.08539063 2.5234375 1.64453125 C3.94138421 5.25444145 4.89401898 7.46781164 8.4921875 9.19921875 C10.98603802 9.92335382 13.44632181 10.53215056 16 11 C15.7834375 11.22494141 15.7834375 11.22494141 14.6875 12.36328125 C10.21980028 17.5238881 9.40229106 21.09729094 9.7890625 27.875 C9.85867187 28.57625 9.92828125 29.2775 10 30 C9.48050781 29.68804687 8.96101563 29.37609375 8.42578125 29.0546875 C2.67318982 25.84344423 2.67318982 25.84344423 -0.6875 26.625 C-1.0690625 26.851875 -1.0690625 26.851875 -3 28 C-4.66050756 28.68186278 -6.32653211 29.35059455 -8 30 C-7.93039063 29.29875 -7.86078125 28.5975 -7.7890625 27.875 C-7.40229106 21.09729094 -8.21980028 17.5238881 -12.6875 12.36328125 C-12.9040625 12.13833984 -12.9040625 12.13833984 -14 11 C-10.52674819 9.8422494 -7.63932552 9.93133348 -4 10 C-3.71125 9.0925 -3.4225 8.185 -3.125 7.25 C-2.23468224 4.67797092 -1.28505587 2.38653234 0 0 Z " fill="#F9F9FC" transform="translate(183,172)"/>
<path d="M0 0 C0.66 0 1.32 0 2 0 C2.17273438 0.54269531 2.34546875 1.08539063 2.5234375 1.64453125 C3.94138421 5.25444145 4.89401898 7.46781164 8.4921875 9.19921875 C10.98603802 9.92335382 13.44632181 10.53215056 16 11 C15.7834375 11.22494141 15.7834375 11.22494141 14.6875 12.36328125 C10.21980028 17.5238881 9.40229106 21.09729094 9.7890625 27.875 C9.85867187 28.57625 9.92828125 29.2775 10 30 C9.48050781 29.68804687 8.96101563 29.37609375 8.42578125 29.0546875 C2.67318982 25.84344423 2.67318982 25.84344423 -0.6875 26.625 C-1.0690625 26.851875 -1.0690625 26.851875 -3 28 C-4.66050756 28.68186278 -6.32653211 29.35059455 -8 30 C-7.93039063 29.29875 -7.86078125 28.5975 -7.7890625 27.875 C-7.40229106 21.09729094 -8.21980028 17.5238881 -12.6875 12.36328125 C-12.9040625 12.13833984 -12.9040625 12.13833984 -14 11 C-10.52674819 9.8422494 -7.63932552 9.93133348 -4 10 C-3.71125 9.0925 -3.4225 8.185 -3.125 7.25 C-2.23468224 4.67797092 -1.28505587 2.38653234 0 0 Z " fill="#F9F9FC" transform="translate(55,172)"/>
</svg>
