<?xml version="1.0" encoding="UTF-8"?>
<!-- Generator: visioncortex VTracer 0.6.12 -->
<svg version="1.1" xmlns="http://www.w3.org/2000/svg" width="512" height="512">
<path d="M0 0 C2.48414713 1.95813761 4.88615993 3.98446795 7.27734375 6.0546875 C8.025 6.65796875 8.77265625 7.26125 9.54296875 7.8828125 C28.62261323 23.76027889 40.43579969 48.67163618 43.0612793 73.1328125 C43.49500972 78.99822013 43.5025783 84.87473553 43.51757812 90.75341797 C43.52720586 93.02219434 43.55827429 95.29003182 43.58984375 97.55859375 C43.79494179 125.88826529 34.77034669 150.65635333 16.27734375 172.0546875 C15.62121094 172.81394531 14.96507812 173.57320312 14.2890625 174.35546875 C-4.20220351 194.11380224 -31.13965429 204.07054607 -57.72265625 205.0546875 C-85.23895599 205.53891627 -111.3833282 195.2013991 -131.43774414 176.43359375 C-151.58683525 156.71799994 -162.71427617 130.44851717 -163.0859375 102.23046875 C-163.09377742 100.01566863 -163.08397962 97.80231575 -163.05883789 95.58764648 C-163.03504647 93.35689433 -163.03833976 91.12733349 -163.04492188 88.89648438 C-162.99524823 62.33788465 -155.79843739 38.62791779 -138.72265625 18.0546875 C-138.02527344 17.19359375 -137.32789063 16.3325 -136.609375 15.4453125 C-103.56049933 -23.46414989 -41.14836007 -29.40011954 0 0 Z " fill="#000000" transform="translate(315.72265625,68.9453125)"/>
<path d="M0 0 C0.28673584 0.20141602 0.28673584 0.20141602 1.73779297 1.22070312 C13.00483378 9.26085326 27.27485216 19.58052841 30 34 C30.87929602 44.63804033 29.59465479 52.97413296 22.6875 61.3125 C17.15847908 67.16050289 11.43691625 71.5151144 3.1631701 72.25299966 C2.174483 72.25440851 1.1857959 72.25581736 0.16714859 72.25726891 C-0.98118446 72.2637178 -2.12951751 72.27016669 -3.31264853 72.276811 C-3.93861493 72.2752624 -3.93861493 72.2752624 -7.10638428 72.26742554 C-8.45737278 72.27116384 -9.80835913 72.27576608 -11.15934205 72.28115618 C-14.86622091 72.29337954 -18.57300948 72.2931265 -22.27990389 72.29076743 C-26.28004119 72.29035909 -30.28014961 72.30140007 -34.28027344 72.31088257 C-42.11547021 72.32749017 -49.95063688 72.33299202 -57.78584978 72.33410732 C-64.15576303 72.33505796 -70.52566636 72.33916906 -76.89557648 72.34550858 C-94.96018531 72.36312075 -113.02477038 72.37234755 -131.08938786 72.37084763 C-131.57624531 72.37080767 -131.57624531 72.37080767 -134.04003906 72.37060547 C-135.01494459 72.37052371 -135.98985013 72.37044195 -136.99429825 72.37035771 C-152.79139279 72.36954493 -168.58839196 72.38868045 -184.38545892 72.4168822 C-200.610422 72.445619 -216.83533859 72.45942204 -233.06032777 72.45769465 C-242.16753559 72.457031 -251.27464343 72.46251239 -260.38182831 72.48405075 C-268.13651556 72.50227307 -275.89105752 72.50660131 -283.64575693 72.4930319 C-287.60045958 72.48650738 -291.55488359 72.48636617 -295.50955963 72.5037384 C-299.13437548 72.51949747 -302.75869242 72.51657713 -306.38349631 72.49917014 C-308.3064718 72.49466201 -310.22946293 72.50973542 -312.15237784 72.52564943 C-322.33262823 72.44484455 -330.68368791 70.31631209 -338 63 C-344.6856573 55.37835067 -346.6393175 47.23800182 -346.3359375 37.203125 C-345.27497172 27.08693966 -339.95374258 21.0372352 -333 14 C-332.72220703 13.69191406 -332.72220703 13.69191406 -331.31640625 12.1328125 C-265.28031274 -59.33767275 -136.61900956 -58.11873942 0 0 Z " fill="#000000" transform="translate(414,372)"/>
</svg>
