<?xml version="1.0" encoding="UTF-8"?>
<!-- Generator: visioncortex VTracer 0.6.12 -->
<svg version="1.1" xmlns="http://www.w3.org/2000/svg" width="512" height="512">
<path d="M0 0 C11.8673483 10.44248576 22.96917537 21.53163853 32.36621094 34.26171875 C33.59569396 35.92519306 34.84716212 37.57011927 36.1015625 39.21484375 C72.91642895 88.26970446 87.12771736 152.32395825 78.65625 212.63671875 C72.27692527 253.52008951 56.09433255 291.3763501 30.625 323.96484375 C30.21378906 324.49319824 29.80257813 325.02155273 29.37890625 325.56591797 C17.09642712 341.14955862 2.64414626 355.27628021 -13.375 366.96484375 C-14.29152344 367.66480469 -15.20804687 368.36476563 -16.15234375 369.0859375 C-23.53991163 374.65102167 -31.35322322 379.38572984 -39.375 383.96484375 C-40.02178711 384.33754395 -40.66857422 384.71024414 -41.33496094 385.09423828 C-66.07458788 399.2180263 -93.35419174 407.46892586 -121.375 411.96484375 C-122.0855957 412.0834375 -122.79619141 412.20203125 -123.52832031 412.32421875 C-181.2141595 421.59367928 -244.36588837 405.208922 -291.53271484 371.28808594 C-301.36970195 364.09978582 -310.55506045 356.36918405 -319.375 347.96484375 C-319.97538086 347.39314453 -320.57576172 346.82144531 -321.19433594 346.23242188 C-364.75717703 304.446279 -389.85395739 245.50237168 -391.66015625 185.30078125 C-392.68606077 126.45548193 -374.01360842 69.72301077 -335.375 24.96484375 C-334.70597656 24.18496094 -334.03695312 23.40507813 -333.34765625 22.6015625 C-322.91005024 10.72562717 -311.81042338 -0.37769422 -299.078125 -9.77636719 C-297.41465069 -11.00585021 -295.76972448 -12.25731837 -294.125 -13.51171875 C-214.67624514 -73.13670305 -98.3284785 -72.77018845 0 0 Z M-222.375 -26.03515625 C-223.17454102 -25.7736377 -223.97408203 -25.51211914 -224.79785156 -25.24267578 C-252.47061614 -16.03908626 -277.54015763 -1.01273818 -298.96875 18.74609375 C-301.46522739 21.04804043 -304.01270069 23.28474917 -306.5625 25.52734375 C-310.87284486 29.42271752 -314.71318439 33.45915294 -318.375 37.96484375 C-319.20773437 38.98320313 -320.04046875 40.0015625 -320.8984375 41.05078125 C-356.64719396 85.30751284 -375.43329099 141.95838475 -369.375 198.96484375 C-363.99554504 245.20121955 -346.03280516 286.06135221 -315.375 320.96484375 C-314.14392068 322.40070609 -312.91435592 323.83787111 -311.6875 325.27734375 C-310.924375 326.16421875 -310.16125 327.05109375 -309.375 327.96484375 C-308.7665625 327.62453125 -308.158125 327.28421875 -307.53125 326.93359375 C-304.49187247 325.25299676 -301.4359782 323.60578052 -298.375 321.96484375 C-297.25996094 321.3615625 -296.14492188 320.75828125 -294.99609375 320.13671875 C-280.56653896 312.52351921 -265.14932615 307.17713846 -249.859375 301.57421875 C-213.59016286 288.24837122 -213.59016286 288.24837122 -207.375 275.96484375 C-206.77007177 271.4403076 -206.77536344 266.91445028 -206.76416016 262.35522461 C-206.75009714 260.16745531 -206.68276027 257.98544619 -206.61328125 255.79882812 C-206.42997403 244.08609989 -206.42997403 244.08609989 -210.6640625 239.328125 C-211.88957237 238.19450504 -213.125574 237.07204894 -214.375 235.96484375 C-221.18069091 226.43687648 -225.92159653 215.90763766 -230.12329102 205.02709961 C-231.49611342 201.57454362 -232.56040542 199.32612985 -235.6875 197.27734375 C-243.98064411 190.64984169 -246.89785809 179.04847364 -248.375 168.96484375 C-249.14482962 161.4186127 -248.32674065 155.51838635 -245.34765625 148.53515625 C-242.78825663 141.77176287 -243.77998057 136.53028233 -245.25 129.65234375 C-251.39731816 100.08162364 -251.73526274 66.48015672 -235.54296875 39.96484375 C-233.89825818 37.55690148 -232.17932041 35.25443371 -230.375 32.96484375 C-229.653125 31.95421875 -228.93125 30.94359375 -228.1875 29.90234375 C-212.45526771 11.87900967 -186.33408934 5.74031024 -163.515625 4.18359375 C-146.35884252 3.30837904 -127.82769253 4.74653658 -113.375 14.96484375 C-112.42641604 15.9560889 -111.50625313 16.9757871 -110.625 18.02734375 C-107.73973858 21.25549131 -104.21548758 22.1898778 -100.1875 23.40234375 C-86.07556862 27.66669146 -76.34541534 35.63222656 -69.15698242 48.42358398 C-62.05846739 61.72869992 -59.98524856 76.488272 -60.0625 91.40234375 C-60.06668945 92.52833984 -60.07087891 93.65433594 -60.07519531 94.81445312 C-60.24973015 107.96769545 -61.98078161 120.63162668 -65.22094727 133.36865234 C-67.97434182 144.28904923 -67.97434182 144.28904923 -65.6875 149.33984375 C-64.92205181 150.5515956 -64.151702 151.76027433 -63.375 152.96484375 C-59.63402437 164.11762734 -63.01243704 177.61953331 -67.73046875 187.92578125 C-69.99283989 191.96529647 -72.08412152 194.92032888 -75.875 197.58984375 C-80.15698313 200.91611073 -81.3391912 205.58277861 -83.04174805 210.51489258 C-87.42740082 223.10448124 -93.88604345 234.4758872 -103.375 243.96484375 C-103.69129776 248.39560199 -103.73202133 252.83221092 -103.7800293 257.27270508 C-103.80149936 258.76350221 -103.83547117 260.25417709 -103.88256836 261.74438477 C-104.34969663 276.66422885 -104.34969663 276.66422885 -99.05664062 282.49365234 C-86.98895417 293.05112601 -70.80350543 298.07737588 -55.91751099 303.33279419 C-37.04742594 310.01457756 -18.17043653 316.82824702 -1.375 327.96484375 C39.0227171 285.74330195 60.27800148 230.27866106 59.6015625 171.98828125 C58.2645192 121.21137246 38.27858509 72.72632197 4.625 34.96484375 C4.39087402 34.69986084 4.39087402 34.69986084 3.20605469 33.35888672 C-2.30790991 27.13641338 -7.90995198 21.21701844 -14.375 15.96484375 C-14.6325708 15.75110107 -14.6325708 15.75110107 -15.93603516 14.66943359 C-44.97245471 -9.41213244 -77.51638263 -25.09116415 -114.375 -33.03515625 C-115.19000977 -33.21594727 -116.00501953 -33.39673828 -116.84472656 -33.58300781 C-151.11507775 -40.84110745 -189.42202655 -36.93861722 -222.375 -26.03515625 Z " fill="#000000" transform="translate(411.375,78.03515625)"/>
</svg>
