<?xml version="1.0" encoding="UTF-8"?>
<!-- Generator: visioncortex VTracer 0.6.12 -->
<svg version="1.1" xmlns="http://www.w3.org/2000/svg" width="512" height="512">
<path d="M0 0 C1.4453125 1.46484375 1.4453125 1.46484375 3.4453125 4.46484375 C6.5703125 5.421875 6.5703125 5.421875 10.4453125 6.27734375 C17.26801156 7.93318067 22.73621598 10.27412396 28.4453125 14.46484375 C28.79851562 14.72136719 28.79851562 14.72136719 30.5859375 16.01953125 C42.4959318 25.52025189 47.49170959 40.11106947 49.7578125 54.71484375 C52.20670674 77.41420963 49.14486362 99.41294229 43.33935547 121.39306641 C43.08041504 122.38999512 42.82147461 123.38692383 42.5546875 124.4140625 C42.31717773 125.29408936 42.07966797 126.17411621 41.83496094 127.08081055 C41.41836973 129.62969095 41.54394126 131.06193083 42.4453125 133.46484375 C43.0846875 134.28984375 43.7240625 135.11484375 44.3828125 135.96484375 C49.16653189 143.03489961 48.83516063 151.58856012 47.3828125 159.65234375 C45.50332838 168.8370944 42.34792572 175.37000708 35.19140625 181.46875 C33.4453125 182.46484375 33.4453125 182.46484375 29.4453125 182.46484375 C29.43113281 183.08488281 29.41695313 183.70492187 29.40234375 184.34375 C28.75465946 196.3696719 24.50354745 206.91441813 19.0078125 217.46484375 C18.64880859 218.15852051 18.28980469 218.85219727 17.91992188 219.56689453 C15.35738756 224.29799063 12.41423012 228.78286183 8.4453125 232.46484375 C7.7853125 232.46484375 7.1253125 232.46484375 6.4453125 232.46484375 C6.5650191 236.82085526 6.68933386 241.17670561 6.81762695 245.5324707 C6.86051111 247.00932387 6.90221077 248.486212 6.94262695 249.96313477 C7.72671283 278.50966885 7.72671283 278.50966885 16.9453125 288.52734375 C24.29500159 295.43906254 33.25203065 300.03629783 42.3125 304.2890625 C42.68011696 304.461744 42.68011696 304.461744 44.54048157 305.33561707 C51.72314798 308.66478913 59.04879203 311.56904305 66.43032837 314.42248535 C99.10557399 327.10485057 130.85121788 341.20138374 145.96484375 374.84765625 C149.93319609 384.52265937 151.4453125 393.01298004 151.4453125 403.46484375 C22.7453125 403.46484375 -105.9546875 403.46484375 -238.5546875 403.46484375 C-236.49873112 378.79336724 -228.32698254 360.39459103 -209.59375 343.90625 C-204.21416955 339.5846076 -198.49483862 335.96114891 -192.5546875 332.46484375 C-191.47316406 331.8203125 -190.39164063 331.17578125 -189.27734375 330.51171875 C-178.03096312 324.17355235 -166.01331592 319.6308794 -154.04248047 314.85839844 C-107.39044858 296.21848538 -107.39044858 296.21848538 -95.6796875 278.65234375 C-92.31285203 269.11297658 -93.26722061 257.82783926 -92.9921875 247.77734375 C-92.94887672 246.28579829 -92.90525902 244.7942617 -92.86132812 243.30273438 C-92.75558277 239.69019946 -92.65396784 236.07756281 -92.5546875 232.46484375 C-93.18536133 232.16336426 -93.81603516 231.86188477 -94.46582031 231.55126953 C-104.40053195 226.38419768 -110.0951119 208.56276481 -113.4921875 198.52734375 C-115.19826736 193.12284915 -116.25711991 188.11862795 -116.5546875 182.46484375 C-117.2559375 182.40296875 -117.9571875 182.34109375 -118.6796875 182.27734375 C-123.14387432 181.01572573 -126.12473584 178.5377938 -128.71875 174.77734375 C-133.9933593 165.11393739 -136.45573077 152.89555737 -134.015625 142.07421875 C-132.95890511 138.938896 -131.9152449 136.77890801 -129.40576172 134.59301758 C-127.5546875 132.46484375 -127.5546875 132.46484375 -127.52783203 129.86206055 C-127.74552246 128.88922119 -127.96321289 127.91638184 -128.1875 126.9140625 C-128.41695313 125.82158203 -128.64640625 124.72910156 -128.8828125 123.60351562 C-129.01429688 123.03407227 -129.01429688 123.03407227 -129.6796875 120.15234375 C-132.82053179 105.79057993 -134.91686138 91.81566384 -134.87036133 77.11303711 C-134.86719338 75.03120785 -134.89082345 72.95079705 -134.91601562 70.86914062 C-135.02734184 47.32416373 -128.10139162 25.86352403 -111.75390625 8.55859375 C-86.21748917 -15.50141378 -27.87504935 -24.43928746 0 0 Z " fill="#000000" transform="translate(309.5546875,57.53515625)"/>
</svg>
