<?xml version="1.0" encoding="UTF-8"?>
<!-- Generator: visioncortex VTracer 0.6.12 -->
<svg version="1.1" xmlns="http://www.w3.org/2000/svg" width="512" height="512">
<path d="M0 0 C11.8673483 10.44248576 22.96917537 21.53163853 32.36621094 34.26171875 C33.59569396 35.92519306 34.84716212 37.57011927 36.1015625 39.21484375 C72.24253819 87.37176239 86.89476475 150.50913584 79.1015625 209.875 C72.96581174 251.47969594 56.9968044 291.0461928 30.625 323.96484375 C29.86703125 324.92648437 29.1090625 325.888125 28.328125 326.87890625 C15.85710579 342.17720621 1.65715652 356.42169106 -14.375 367.96484375 C-15.23996094 368.60164063 -16.10492188 369.2384375 -16.99609375 369.89453125 C-47.76671801 392.04938072 -83.03223669 405.99119635 -120.375 411.96484375 C-121.07641113 412.0834375 -121.77782227 412.20203125 -122.50048828 412.32421875 C-181.56158177 421.99739809 -244.41156323 404.76792944 -292.75390625 370.59765625 C-295.68475047 368.45015371 -298.53948483 366.23643293 -301.375 363.96484375 C-302.33664062 363.206875 -303.29828125 362.44890625 -304.2890625 361.66796875 C-319.58736246 349.19694954 -333.83184731 334.99700027 -345.375 318.96484375 C-346.01179688 318.09988281 -346.64859375 317.23492187 -347.3046875 316.34375 C-360.45235242 298.08310427 -370.72320406 278.09054592 -378.375 256.96484375 C-378.65327637 256.19736816 -378.93155273 255.42989258 -379.21826172 254.63916016 C-399.80657741 196.62657962 -394.71922605 131.20235352 -368.75 75.84375 C-359.85417561 57.35115137 -348.79301105 40.50799099 -335.375 24.96484375 C-334.70597656 24.18496094 -334.03695312 23.40507813 -333.34765625 22.6015625 C-322.91005024 10.72562717 -311.81042338 -0.37769422 -299.078125 -9.77636719 C-297.41465069 -11.00585021 -295.76972448 -12.25731837 -294.125 -13.51171875 C-214.67624514 -73.13670305 -98.3284785 -72.77018845 0 0 Z M-222.375 -26.03515625 C-223.17454102 -25.7736377 -223.97408203 -25.51211914 -224.79785156 -25.24267578 C-252.47061614 -16.03908626 -277.54015763 -1.01273818 -298.96875 18.74609375 C-301.46522739 21.04804043 -304.01270069 23.28474917 -306.5625 25.52734375 C-310.87284486 29.42271752 -314.71318439 33.45915294 -318.375 37.96484375 C-319.20773437 38.98320313 -320.04046875 40.0015625 -320.8984375 41.05078125 C-356.64719396 85.30751284 -375.43329099 141.95838475 -369.375 198.96484375 C-363.99554504 245.20121955 -346.03280516 286.06135221 -315.375 320.96484375 C-314.14392068 322.40070609 -312.91435592 323.83787111 -311.6875 325.27734375 C-310.924375 326.16421875 -310.16125 327.05109375 -309.375 327.96484375 C-308.7665625 327.62453125 -308.158125 327.28421875 -307.53125 326.93359375 C-304.49187247 325.25299676 -301.4359782 323.60578052 -298.375 321.96484375 C-297.25996094 321.3615625 -296.14492188 320.75828125 -294.99609375 320.13671875 C-280.56653896 312.52351921 -265.14932615 307.17713846 -249.859375 301.57421875 C-214.90522021 288.73154284 -214.90522021 288.73154284 -208.81396484 278.28857422 C-206.49895832 272.94135691 -206.74062052 267.49467705 -206.70922852 261.76196289 C-206.68763847 259.66578779 -206.60740002 257.5769862 -206.52539062 255.48242188 C-206.39412882 248.91649606 -206.53164446 243.996903 -211.125 238.9609375 C-212.54072618 237.62790671 -213.95732486 236.29580164 -215.375 234.96484375 C-217.15533244 232.53405818 -218.62330046 229.98413575 -220.0625 227.33984375 C-220.43697266 226.66397217 -220.81144531 225.98810059 -221.19726562 225.29174805 C-225.19145904 217.83378595 -228.596529 209.56983494 -229.765625 201.15234375 C-230.375 198.96484375 -230.375 198.96484375 -232.046875 197.8828125 C-232.38976562 197.76228516 -232.38976562 197.76228516 -234.125 197.15234375 C-240.34015632 194.38387519 -242.58476681 189.14925066 -245.0625 183.08984375 C-248.85841511 172.02561392 -250.60693109 159.83778696 -245.375 148.96484375 C-244.84463135 148.39580322 -244.3142627 147.8267627 -243.76782227 147.24047852 C-241.80508586 144.03370094 -242.43414323 142.23149341 -243.140625 138.58203125 C-243.37136719 137.33164063 -243.60210937 136.08125 -243.83984375 134.79296875 C-244.10074048 133.47509742 -244.36246439 132.15738958 -244.625 130.83984375 C-250.45055645 100.20173204 -252.79885429 65.11373686 -234.375 37.96484375 C-218.90557461 18.53524546 -196.91026548 7.79831273 -172.375 4.96484375 C-151.99409453 2.81185831 -131.40408874 3.65752069 -114.36328125 16.31640625 C-112.375 17.96484375 -112.375 17.96484375 -111.078125 19.53125 C-108.39543146 21.78938883 -105.13283285 22.37270331 -101.8125 23.27734375 C-94.97498677 25.29081166 -89.16978252 27.71263031 -83.375 31.96484375 C-82.60800781 32.51527344 -81.84101563 33.06570312 -81.05078125 33.6328125 C-68.76590103 43.41483087 -62.70947623 59.73308564 -60.69140625 74.9140625 C-58.75701673 96.09314781 -60.73235606 117.14103727 -66.703125 137.51953125 C-67.94662737 143.89609572 -66.3569103 148.37376194 -63.375 153.96484375 C-59.87025728 165.4327434 -63.4217118 179.92791445 -68.875 190.27734375 C-71.12747338 194.1506848 -73.6626898 196.46256609 -78.01171875 197.73828125 C-80.375 198.96484375 -80.375 198.96484375 -81.45703125 201.87890625 C-81.69808594 203.10351562 -81.93914062 204.328125 -82.1875 205.58984375 C-84.96111698 217.79494631 -91.69079206 234.34454149 -101.95800781 242.17163086 C-105.01543044 246.04081921 -103.84993261 252.26245392 -103.82104492 257.05126953 C-103.81258222 259.19402633 -103.84121306 261.33407239 -103.87304688 263.4765625 C-103.91837497 272.04225573 -103.48334575 277.35362889 -97.68359375 283.86328125 C-84.41894392 294.33100074 -67.80454924 299.36064384 -52.05380249 304.80859375 C-36.79515614 310.08862309 -22.32157483 315.89357623 -8.40771484 324.17260742 C-3.67479713 326.96484375 -3.67479713 326.96484375 -0.375 326.96484375 C35.51841845 295.3444513 55.76847032 240.40735531 58.99609375 193.859375 C62.45794961 137.19849173 44.95463071 80.96356661 7.3515625 38.03125 C6.44388588 37.00806875 5.53501844 35.98594274 4.625 34.96484375 C4.39087402 34.69986084 4.39087402 34.69986084 3.20605469 33.35888672 C-2.30790991 27.13641338 -7.90995198 21.21701844 -14.375 15.96484375 C-14.6325708 15.75110107 -14.6325708 15.75110107 -15.93603516 14.66943359 C-44.97245471 -9.41213244 -77.51638263 -25.09116415 -114.375 -33.03515625 C-115.19000977 -33.21594727 -116.00501953 -33.39673828 -116.84472656 -33.58300781 C-151.11507775 -40.84110745 -189.42202655 -36.93861722 -222.375 -26.03515625 Z M-214.375 45.96484375 C-228.55742228 63.58960153 -229.86935602 87.60401173 -227.56176758 109.20019531 C-227.50001343 109.7285498 -227.50001343 109.7285498 -227.1875 112.40234375 C-227.12348999 112.96099121 -227.12348999 112.96099121 -226.79956055 115.78808594 C-225.77111383 124.11738065 -224.16117823 132.18343891 -222.0012207 140.29077148 C-219.81094455 148.55983931 -219.81094455 148.55983931 -220.375 152.96484375 C-223.3125 155.21484375 -223.3125 155.21484375 -226.375 156.96484375 C-228.99491062 162.20466499 -227.7565697 169.56333354 -226.0625 174.96484375 C-225.01353725 177.98408046 -223.93832468 180.00081489 -221.375 181.96484375 C-219.11328125 182.4765625 -219.11328125 182.4765625 -216.6875 182.65234375 C-216.28337891 182.68521484 -216.28337891 182.68521484 -214.23828125 182.8515625 C-213.62339844 182.88894531 -213.00851563 182.92632812 -212.375 182.96484375 C-212.36082031 183.58488281 -212.34664063 184.20492187 -212.33203125 184.84375 C-211.44915603 201.23659536 -204.04128084 218.4195277 -191.98046875 229.765625 C-190.20373169 231.0927741 -188.36526873 231.99567163 -186.375 232.96484375 C-186.3500056 238.01448214 -186.33200277 243.06408335 -186.32006836 248.11376953 C-186.31508528 249.82634103 -186.3082964 251.53890838 -186.29956055 253.25146484 C-186.13589349 286.19668105 -186.13589349 286.19668105 -197.12109375 297.96484375 C-212.30822878 311.44112301 -232.61290427 317.70856016 -251.39941406 324.3371582 C-265.12826406 329.19660224 -278.96330175 334.21238416 -291.375 341.96484375 C-289.83836155 346.38912493 -286.34843656 348.54646397 -282.6875 351.15234375 C-282.01904053 351.63356689 -281.35058105 352.11479004 -280.66186523 352.6105957 C-258.02457003 368.68082085 -232.39503024 380.55321334 -205.375 386.96484375 C-204.6025293 387.15030762 -203.83005859 387.33577148 -203.03417969 387.52685547 C-148.99582344 400.19036711 -90.62702547 390.57150577 -43.36328125 361.51953125 C-35.00840115 356.24255073 -26.74562407 350.56193905 -19.375 343.96484375 C-19.375 343.30484375 -19.375 342.64484375 -19.375 341.96484375 C-34.99994814 332.80695085 -51.82072643 326.87339525 -68.78759766 320.72900391 C-110.70681517 305.54324518 -110.70681517 305.54324518 -121.375 286.96484375 C-125.88594278 276.94414408 -124.67447201 264.31053887 -124.7800293 253.47119141 C-124.80186465 251.78576491 -124.83625775 250.10045897 -124.88256836 248.41552734 C-124.94928968 245.95229983 -124.97694226 243.4913443 -124.99609375 241.02734375 C-125.02392441 240.27630371 -125.05175507 239.52526367 -125.08042908 238.75146484 C-125.07202148 236.625 -125.07202148 236.625 -124.375 232.96484375 C-121.453125 230.56835938 -121.453125 230.56835938 -118.375 228.96484375 C-106.35612665 217.92454255 -99.28611485 200.96311138 -98.41796875 184.84375 C-98.40378906 184.22371094 -98.38960937 183.60367188 -98.375 182.96484375 C-97.77171875 182.95066406 -97.1684375 182.93648437 -96.546875 182.921875 C-90.02642333 182.53275127 -90.02642333 182.53275127 -86.9375 179.83984375 C-83.38920653 173.31098377 -82.23843605 166.31841252 -83.375 158.96484375 C-85.8090312 155.74139703 -88.03704565 154.19014665 -91.375 151.96484375 C-90.97916667 150.38151042 -90.58333333 148.79817708 -90.1875 147.21484375 C-89.91679687 146.12558594 -89.64609375 145.03632813 -89.3671875 143.9140625 C-88.63854224 140.99569434 -87.88871229 138.08329726 -87.1328125 135.171875 C-80.96482113 111.27062171 -74.42507211 80.43558979 -87.72265625 57.65625 C-94.18350269 48.54214928 -102.3933389 43.22773149 -113.375 40.96484375 C-115.70800933 40.92596026 -118.04209801 40.91998025 -120.375 40.96484375 C-120.560625 40.26359375 -120.74625 39.56234375 -120.9375 38.83984375 C-124.4251204 31.86460294 -130.51990205 29.17189486 -137.62890625 26.7265625 C-163.27516149 19.61273637 -195.98411337 26.44549476 -214.375 45.96484375 Z " fill="#000000" transform="translate(411.375,78.03515625)"/>
</svg>
