<?xml version="1.0" encoding="UTF-8"?>
<!-- Generator: visioncortex VTracer 0.6.12 -->
<svg version="1.1" xmlns="http://www.w3.org/2000/svg" width="512" height="512">
<path d="M0 0 C0.37513733 -0.00033737 0.37513733 -0.00033737 2.27355957 -0.00204468 C15.31255432 0.01648548 27.97217491 0.84258714 40.8125 3.25 C41.70759277 3.41628906 42.60268555 3.58257812 43.52490234 3.75390625 C65.57830068 8.00326757 86.67112069 15.3633476 106.8125 25.25 C107.53985352 25.60674805 108.26720703 25.96349609 109.01660156 26.33105469 C144.13116234 43.78454033 174.2078298 68.6812668 201.88330078 96.14657593 C202.98508473 97.23964957 204.08823089 98.33135222 205.19287109 99.42153931 C212.2153888 106.3630259 218.65687615 113.51274478 224.8125 121.25 C225.74721331 122.35188434 226.68856395 123.44822579 227.640625 124.53515625 C234.74753446 132.68517662 241.16514002 141.25136004 247.33496094 150.12988281 C248.26852195 151.46944723 249.21079862 152.80301679 250.16503906 154.12792969 C254.64033112 160.35974763 258.31788611 166.02471666 257.70703125 173.9140625 C247.53539706 211.84670702 203.72838269 254.9405414 173.8125 278.25 C172.68509166 279.1754593 171.56024534 280.10404542 170.4375 281.03515625 C161.00706707 288.8115504 151.14055825 295.71832329 140.8125 302.25 C140.46856201 302.467771 140.46856201 302.467771 138.72802734 303.56982422 C108.15766145 322.70665254 74.3773931 334.68320006 38.8125 340.25 C38.05984863 340.36859375 37.30719727 340.4871875 36.53173828 340.609375 C-31.32056466 350.65935243 -101.03823003 330.88511095 -156.05957031 290.88916016 C-159.83248522 288.0882469 -163.51952881 285.18729964 -167.1875 282.25 C-168.10660156 281.52425781 -169.02570313 280.79851562 -169.97265625 280.05078125 C-185.83711176 267.33639029 -201.50417384 252.94070266 -214.0625 236.93359375 C-216.01375053 234.46942258 -218.04360537 232.09465659 -220.10986328 229.72680664 C-229.71851657 218.65508655 -237.83135618 206.54273035 -245.6875 194.1875 C-246.17984131 193.4145459 -246.67218262 192.6415918 -247.17944336 191.84521484 C-257.23667115 175.80712226 -257.23667115 175.80712226 -255.1875 165.25 C-253.11718072 160.5019025 -250.22022828 156.42092696 -247.1875 152.25 C-246.66752441 151.51797363 -246.14754883 150.78594727 -245.61181641 150.03173828 C-238.71145152 140.32566464 -231.51765817 130.96793276 -223.67382812 122.00732422 C-222.56207733 120.69287248 -221.48243735 119.3511425 -220.41992188 117.99658203 C-213.98142329 109.84490679 -206.80079448 102.55843037 -199.44091797 95.24267578 C-197.3163432 93.1288238 -195.20267939 91.00448458 -193.08984375 88.87890625 C-185.75796045 81.53961728 -178.36003001 74.65141473 -170.1875 68.25 C-168.93865791 67.20296581 -167.69462423 66.15015068 -166.45703125 65.08984375 C-126.90761607 31.67203299 -77.81126941 7.57317212 -26.1875 1.25 C-25.46344971 1.1557373 -24.73939941 1.06147461 -23.9934082 0.96435547 C-16.01864147 0.03300801 -8.01865691 0.00651116 0 0 Z M-90.30615234 94.10253906 C-94.95109669 99.40450253 -98.71534216 105.13094155 -102.1875 111.25 C-102.54634277 111.87165039 -102.90518555 112.49330078 -103.27490234 113.13378906 C-118.43102483 139.85732722 -122.44471267 171.8456349 -114.58544922 201.5234375 C-105.91045774 231.98662854 -87.00416869 258.46589448 -59.1875 274.25 C-58.56584961 274.60884277 -57.94419922 274.96768555 -57.30371094 275.33740234 C-30.46202182 290.56053356 1.60191147 294.4989132 31.38037109 286.56591797 C43.77994003 283.03910128 55.00702784 278.28590863 65.8125 271.25 C66.83214844 270.58613281 67.85179687 269.92226563 68.90234375 269.23828125 C83.11279439 259.2242053 95.19748261 246.33409805 103.8125 231.25 C103.99264648 230.93844971 103.99264648 230.93844971 104.90429688 229.36181641 C120.05687957 202.63929151 124.06894698 170.65147374 116.21044922 140.9765625 C107.53545774 110.51337146 88.62916869 84.03410552 60.8125 68.25 C60.19084961 67.89115723 59.56919922 67.53231445 58.92871094 67.16259766 C8.29007904 38.44314804 -52.03995504 52.5553375 -90.30615234 94.10253906 Z " fill="#000000" transform="translate(255.1875,84.75)"/>
<path d="M0 0 C11.40413486 9.4744718 17.95365786 22.39091115 19.3125 37.06640625 C20.32311845 51.46771922 15.37113531 65.41255972 6.125 76.37890625 C-4.35205809 87.29396844 -17.33759093 92.2699214 -32.25 93.31640625 C-46.66739394 93.03753983 -59.97902713 87.61635856 -70.36328125 77.68359375 C-79.90545104 66.93862945 -85.17761454 53.91782786 -84.8984375 39.484375 C-83.58498991 24.42837396 -78.08906926 11.19168045 -66.6875 1.06640625 C-46.25004761 -13.96715835 -20.95783777 -15.07867689 0 0 Z " fill="#000000" transform="translate(288.6875,214.93359375)"/>
</svg>
