<?xml version="1.0" encoding="UTF-8"?>
<!-- Generator: visioncortex VTracer 0.6.12 -->
<svg version="1.1" xmlns="http://www.w3.org/2000/svg" width="512" height="512">
<path d="M0 0 C6.15580826 2.10374727 11.94136623 5.22699093 17.75 8.125 C19.45306713 8.95638668 21.15718428 9.7856256 22.86230469 10.61279297 C26.29863304 12.28127177 29.73079784 13.95787053 33.16015625 15.640625 C39.81349419 18.89592871 46.52853062 22.01357255 53.25 25.125 C55.63957868 26.2390349 58.02889899 27.35362413 60.41796875 28.46875 C64.44637966 30.34754141 68.47687856 32.22173164 72.51025391 34.08984375 C76.4325907 35.90664804 80.35174603 37.730174 84.26916504 39.55755615 C85.78208498 40.26175206 87.29614328 40.9635081 88.81140137 41.66265869 C90.92023117 42.63599644 93.0249152 43.61781799 95.12890625 44.6015625 C95.75146805 44.88640503 96.37402985 45.17124756 97.01545715 45.46472168 C102.48830863 48.04253214 106.72829816 51.09491148 110.125 56.125 C110.60195313 56.80820313 111.07890625 57.49140625 111.5703125 58.1953125 C115.66310006 66.2243329 116.43664082 74.02047918 116.38095093 82.91699219 C116.3856309 84.07820965 116.39031087 85.23942711 116.39513266 86.43583298 C116.40497245 89.6320988 116.40150706 92.82801811 116.39217401 96.02427483 C116.38535274 99.48173668 116.39587991 102.93915367 116.40411377 106.39660645 C116.41742064 113.15912119 116.414587 119.92153578 116.40587585 126.68405437 C116.39908768 132.18240363 116.39818747 137.6807249 116.4014473 143.17907715 C116.401907 143.96303761 116.40236669 144.74699808 116.40284032 145.55471492 C116.40379955 147.14755027 116.40477219 148.74038562 116.4057581 150.33322096 C116.41430307 165.25271038 116.4044919 180.1721444 116.388357 195.09162474 C116.37495462 207.8801213 116.37728297 220.66853616 116.39111328 233.45703125 C116.40718489 248.32485422 116.41347918 263.1926287 116.40427649 278.06045914 C116.40332089 279.64728037 116.40237778 281.23410161 116.4014473 282.82092285 C116.40098447 283.60157317 116.40052164 284.38222349 116.40004479 285.18652987 C116.39745964 290.67526846 116.40181563 296.16397616 116.40888596 301.65270996 C116.41731875 308.34595877 116.41498355 315.0391021 116.39904372 321.73233891 C116.39118484 325.14425521 116.3880284 328.55599594 116.39799118 331.96791077 C116.40620706 335.6731174 116.39588363 339.37783237 116.38095093 343.08300781 C116.38764309 344.15208752 116.39433526 345.22116722 116.40123022 346.32264328 C116.31721117 357.09483276 113.94235799 365.3712034 106.75 373.5625 C98.83786841 380.57552573 88.86468025 384.51662208 79.375 388.9375 C77.75940349 389.69464309 76.14400908 390.45221754 74.52880859 391.21020508 C70.45396457 393.12091021 66.37633119 395.02557164 62.29760742 396.92797852 C60.15423849 397.92803515 58.01150935 398.9294434 55.86914062 399.93164062 C55.22526398 400.23284317 54.58138733 400.53404572 53.91799927 400.84437561 C52.65616445 401.43470751 51.39434383 402.02506975 50.13253784 402.61546326 C47.08897932 404.03869224 44.0437078 405.45801738 40.99462891 406.86938477 C35.26888745 409.52338809 29.56043449 412.20061382 23.8901062 414.97071838 C21.1702886 416.29758338 18.44368317 417.6101547 15.7164917 418.92178345 C14.42629694 419.54717892 13.1394001 420.17943405 11.85626221 420.81918335 C-1.99575266 427.7212739 -1.99575266 427.7212739 -10 426 C-15.18909461 423.41826528 -19.2108296 419.17393142 -23.375 415.1875 C-24.71528528 413.91966257 -26.05642054 412.65272303 -27.3984375 411.38671875 C-27.71409668 411.08854248 -27.71409668 411.08854248 -29.31152344 409.57958984 C-31.17029869 407.84068356 -33.06716641 406.15610632 -35 404.5 C-39.58189235 400.55837208 -43.95533415 396.39263874 -48.36450195 392.26049805 C-52.71459335 388.18787604 -57.10862159 384.171464 -61.55078125 380.19921875 C-65.88876325 376.30402917 -70.17452574 372.3515627 -74.46777344 368.40722656 C-76.97677106 366.10291453 -79.48847057 363.80155179 -82 361.5 C-85.02482361 358.72806824 -88.04900597 355.95545292 -91.0703125 353.1796875 C-95.67349765 348.95233249 -100.28413776 344.73473917 -104.9375 340.5625 C-109.90238091 336.10602289 -114.80134952 331.58051938 -119.69921875 327.05078125 C-126.4078422 320.84683239 -133.1346369 314.66313207 -139.9375 308.5625 C-144.90238091 304.10602289 -149.80134952 299.58051938 -154.69921875 295.05078125 C-177.78482225 273.70185553 -177.78482225 273.70185553 -186 267 C-191.18725693 268.59373647 -194.89887073 271.84806884 -199.0625 275.1875 C-200.68107837 276.46638083 -202.30091492 277.74367055 -203.921875 279.01953125 C-204.75912109 279.67904785 -205.59636719 280.33856445 -206.45898438 281.01806641 C-210.53303592 284.19573267 -214.67054958 287.28666411 -218.8125 290.375 C-226.81101829 296.34389133 -234.76045982 302.37358891 -242.67114258 308.45849609 C-263.19486646 324.17645661 -263.19486646 324.17645661 -275 323 C-282.985139 321.26988655 -288.3879494 315.83031683 -294.30224609 310.50830078 C-295.96320937 309.03268514 -297.6560359 307.6052163 -299.36328125 306.18359375 C-305.44672032 301.0295309 -310.63539327 296.21291084 -312 288 C-312.47647621 280.26809065 -310.60326173 275.12292117 -306 269 C-303.73789844 266.52848788 -301.31232043 264.29069739 -298.8125 262.0625 C-298.47968018 261.75900635 -298.47968018 261.75900635 -296.79541016 260.22314453 C-294.87183473 258.47270486 -292.93775229 256.73471478 -291 255 C-290.09378906 254.18144531 -289.18757813 253.36289062 -288.25390625 252.51953125 C-286.68011654 251.10079471 -285.1033334 249.68537105 -283.5234375 248.2734375 C-280.49121846 245.54162407 -277.49464973 242.77285591 -274.5 240 C-269.88940852 235.73207405 -265.24523251 231.50571497 -260.56640625 227.3125 C-255.6797147 222.90927108 -250.84263474 218.45156286 -246 214 C-247.3625182 210.91625125 -248.87225846 208.92531716 -251.34375 206.64453125 C-252.00793945 206.02674805 -252.67212891 205.40896484 -253.35644531 204.77246094 C-254.06381836 204.12567383 -254.77119141 203.47888672 -255.5 202.8125 C-256.22541992 202.1412207 -256.95083984 201.46994141 -257.69824219 200.77832031 C-262.29305849 196.53553448 -266.92104783 192.32969976 -271.5859375 188.1640625 C-274.36721707 185.67081188 -277.12341129 183.15088966 -279.875 180.625 C-280.37660645 180.16464355 -280.87821289 179.70428711 -281.39501953 179.22998047 C-283.44420961 177.34855267 -285.49259342 175.46624812 -287.54101562 173.58398438 C-288.56313743 172.64498302 -289.58551574 171.70626081 -290.6081543 170.76782227 C-291.61322955 169.84492603 -292.61731218 168.92094751 -293.62036133 167.99584961 C-296.0074911 165.79965866 -298.41642066 163.64023522 -300.87109375 161.51953125 C-301.75925781 160.74996094 -302.64742188 159.98039063 -303.5625 159.1875 C-303.95501953 158.85427734 -303.95501953 158.85427734 -305.94140625 157.16796875 C-310.47089613 152.39782286 -311.7137509 147.25381576 -312.12109375 140.875 C-311.84447032 134.30742426 -309.30021936 128.99839104 -304.75 124.3125 C-303.51566259 123.19085157 -302.26522064 122.08669258 -301 121 C-300.37996094 120.43796875 -299.75992188 119.8759375 -299.12109375 119.296875 C-297.11053568 117.49346533 -295.0629006 115.74324393 -293 114 C-292.19175781 113.30261719 -291.38351562 112.60523438 -290.55078125 111.88671875 C-283.07324276 105.62299202 -277.46138741 102.75155542 -267.6875 102.50390625 C-259.68749323 103.98065169 -253.42331425 109.48322695 -247.1875 114.375 C-245.3213502 115.81905036 -243.45414087 117.26173239 -241.5859375 118.703125 C-240.65104492 119.42564453 -239.71615234 120.14816406 -238.75292969 120.89257812 C-234.65136578 124.03240605 -230.48509662 127.0805901 -226.3125 130.125 C-219.95852851 134.77259756 -213.70050225 139.52463858 -207.5 144.375 C-206.01699469 145.52873274 -204.53392428 146.68238181 -203.05078125 147.8359375 C-200.55292751 149.78033263 -198.072439 151.74321025 -195.60546875 153.7265625 C-194.64253906 154.47679687 -193.67960937 155.22703125 -192.6875 156 C-192.28724609 156.3196875 -192.28724609 156.3196875 -190.26171875 157.9375 C-188 159 -188 159 -185.5078125 158.48046875 C-182.57082477 156.74663954 -180.53377317 154.78764763 -178.1875 152.3125 C-174.66094275 148.67703436 -171.08863159 145.25454136 -167.24609375 141.9609375 C-164.36344906 139.44426335 -161.55699887 136.85045697 -158.75 134.25 C-158.19280273 133.73397217 -157.63560547 133.21794434 -157.06152344 132.6862793 C-155.92847768 131.63679485 -154.79550253 130.58723418 -153.66259766 129.53759766 C-149.6200454 125.79897884 -145.55394696 122.08592966 -141.49267578 118.36767578 C-139.97185124 116.97420848 -138.45252676 115.57912249 -136.93359375 114.18359375 C-132.32926052 109.95476524 -127.71723405 105.73596914 -123.0625 101.5625 C-118.09761909 97.10602289 -113.19865048 92.58051938 -108.30078125 88.05078125 C-101.5921578 81.84683239 -94.8653631 75.66313207 -88.0625 69.5625 C-83.09761909 65.10602289 -78.19865048 60.58051938 -73.30078125 56.05078125 C-66.5921578 49.84683239 -59.8653631 43.66313207 -53.0625 37.5625 C-49.22083055 34.1142175 -45.41558278 30.62915342 -41.625 27.125 C-41.35055054 26.87153809 -41.35055054 26.87153809 -39.96166992 25.58886719 C-37.26685585 23.09915775 -34.57581154 20.60555825 -31.890625 18.10546875 C-10.51416458 -1.73133664 -10.51416458 -1.73133664 0 0 Z M-0.4375 124.125 C-6.37772759 128.96794163 -12.4363714 133.60413652 -18.625 138.125 C-25.53166561 143.17609254 -32.35343062 148.30898701 -39.11914062 153.54785156 C-50.65693829 162.45579815 -62.27896819 171.24192133 -74.04321289 179.84838867 C-80.21185861 184.37815596 -86.24953351 189.06003754 -92.26196289 193.79443359 C-98.53497763 198.70689311 -104.97689653 203.36246591 -111.51586914 207.91430664 C-111.87547729 208.16821167 -111.87547729 208.16821167 -113.6953125 209.453125 C-114.33484863 209.89817383 -114.97438477 210.34322266 -115.63330078 210.80175781 C-116.08431152 211.19717773 -116.53532227 211.59259766 -117 212 C-117 212.66 -117 213.32 -117 214 C-115.4621582 215.35351562 -115.4621582 215.35351562 -113.30078125 216.90625 C-112.90576416 217.19298584 -112.90576416 217.19298584 -110.90673828 218.64404297 C-110.05063965 219.25650879 -109.19454102 219.86897461 -108.3125 220.5 C-106.54482633 221.78282603 -104.7779001 223.06668264 -103.01171875 224.3515625 C-102.14595215 224.9796582 -101.28018555 225.60775391 -100.38818359 226.25488281 C-95.81611403 229.5958308 -91.35795201 233.08112274 -86.88085938 236.54785156 C-76.11431138 244.86034215 -65.28924466 253.09190502 -54.3125 261.125 C-47.36678447 266.20807283 -40.54852355 271.43083558 -33.77758789 276.74389648 C-27.56499718 281.60205131 -21.23217854 286.28197098 -14.86157227 290.93017578 C-9.18933332 295.08220975 -3.63653047 299.36141453 1.81347656 303.80151367 C5.78954586 307 5.78954586 307 8 307 C8 244.96 8 182.92 8 119 C4.52727531 119 2.14451367 121.98497062 -0.4375 124.125 Z " fill="#0288D1" transform="translate(354,43)"/>
<path d="M0 0 C7.49003203 2.27445999 14.30056892 5.41633981 21.3125 8.875 C23.73358713 10.0550465 26.15527074 11.23375356 28.578125 12.41015625 C29.19542984 12.71034164 29.81273468 13.01052704 30.44874573 13.31980896 C36.7844219 16.39423581 43.16924746 19.359891 49.5625 22.3125 C51.86725826 23.38005558 54.17194385 24.44776805 56.4765625 25.515625 C63.37986429 28.71321801 63.37986429 28.71321801 66.1829834 30.00952148 C70.84073186 32.16377689 75.49505128 34.32518941 80.14547729 36.49520874 C81.66052716 37.20069891 83.17672631 37.90372675 84.69412231 38.60415649 C86.81864297 39.58520534 88.93897682 40.57481611 91.05859375 41.56640625 C91.68756561 41.85445129 92.31653748 42.14249634 92.96456909 42.43927002 C98.45726489 45.02815297 102.71496482 48.07516649 106.125 53.125 C106.60195313 53.80820313 107.07890625 54.49140625 107.5703125 55.1953125 C111.66310006 63.2243329 112.43664082 71.02047918 112.38095093 79.91699219 C112.3856309 81.07820965 112.39031087 82.23942711 112.39513266 83.43583298 C112.40497245 86.6320988 112.40150706 89.82801811 112.39217401 93.02427483 C112.38535274 96.48173668 112.39587991 99.93915367 112.40411377 103.39660645 C112.41742064 110.15912119 112.414587 116.92153578 112.40587585 123.68405437 C112.39908768 129.18240363 112.39818747 134.6807249 112.4014473 140.17907715 C112.401907 140.96303761 112.40236669 141.74699808 112.40284032 142.55471492 C112.40379955 144.14755027 112.40477219 145.74038562 112.4057581 147.33322096 C112.41430307 162.25271038 112.4044919 177.1721444 112.388357 192.09162474 C112.37495462 204.8801213 112.37728297 217.66853616 112.39111328 230.45703125 C112.40718489 245.32485422 112.41347918 260.1926287 112.40427649 275.06045914 C112.40332089 276.64728037 112.40237778 278.23410161 112.4014473 279.82092285 C112.40098447 280.60157317 112.40052164 281.38222349 112.40004479 282.18652987 C112.39745964 287.67526846 112.40181563 293.16397616 112.40888596 298.65270996 C112.41731875 305.34595877 112.41498355 312.0391021 112.39904372 318.73233891 C112.39118484 322.14425521 112.3880284 325.55599594 112.39799118 328.96791077 C112.40620706 332.6731174 112.39588363 336.37783237 112.38095093 340.08300781 C112.38764309 341.15208752 112.39433526 342.22116722 112.40123022 343.32264328 C112.31721117 354.09483276 109.94235799 362.3712034 102.75 370.5625 C94.83793773 377.57546429 84.86470972 381.51683542 75.375 385.9375 C73.76380213 386.6924545 72.15280211 387.44783138 70.54199219 388.20361328 C66.46913452 390.11308878 62.39348543 392.01652241 58.3170166 393.91827393 C54.81114162 395.55503232 51.30802218 397.19765732 47.8046875 398.83984375 C41.7062392 401.69711696 35.60068958 404.53878588 29.4921875 407.37451172 C25.94907496 409.02370378 22.4118652 410.6851149 18.875 412.34765625 C16.66684262 413.37798134 14.45851785 414.40794781 12.25 415.4375 C11.23711914 415.91687012 10.22423828 416.39624023 9.18066406 416.89013672 C8.25995117 417.31697754 7.33923828 417.74381836 6.390625 418.18359375 C5.58657227 418.56056396 4.78251953 418.93753418 3.95410156 419.32592773 C3.30924805 419.54837158 2.66439453 419.77081543 2 420 C1.34 419.67 0.68 419.34 0 419 C0.64952385 418.01428261 1.2990477 417.02856522 1.96825409 416.0129776 C5.24923663 409.37744616 4.55143827 402.01460218 4.50793457 394.7923584 C4.51254614 393.1288554 4.51890078 391.46535648 4.52684355 389.80186605 C4.54352484 385.24044019 4.53529596 380.67934954 4.52289867 376.11792254 C4.51384561 371.19486911 4.52781919 366.27187318 4.53881836 361.34883118 C4.5566054 351.7084475 4.55276275 342.06818838 4.5411678 332.42779982 C4.53213449 324.59290331 4.53090903 316.75804171 4.53526306 308.92314148 C4.53587599 307.8080646 4.53648893 306.69298773 4.53712043 305.54412064 C4.53839933 303.27886775 4.53969619 301.01361487 4.5410108 298.748362 C4.55241714 277.50676617 4.53930202 256.26523939 4.51780933 235.02365488 C4.49993831 216.7971481 4.50304241 198.57074322 4.52148438 180.34423828 C4.54289011 159.17868385 4.5513185 138.01318995 4.53903532 116.84762621 C4.53776112 114.59070366 4.53650364 112.33378109 4.53526306 110.07685852 C4.53495451 109.5216331 4.53495451 109.5216331 4.53339306 106.71185598 C4.52993927 98.8863143 4.53576913 91.060811 4.54518127 83.23527527 C4.55639931 73.69862778 4.55336525 64.16211198 4.5320583 54.62547958 C4.52154532 49.75966892 4.51743035 44.89407785 4.53065491 40.02826881 C4.5425794 35.57343087 4.5360153 31.11901594 4.5147447 26.66421634 C4.51027889 25.0532917 4.51254447 23.44233127 4.52224785 21.83142966 C4.60479393 6.98823526 4.60479393 6.98823526 0 0 Z " fill="#28B6F6" transform="translate(358,46)"/>
<path d="M0 0 C0.43183594 -0.00708984 0.43183594 -0.00708984 2.6171875 -0.04296875 C5.36844385 0.20987257 6.77998651 0.75089486 9.125 2.1875 C14.06027967 8.22764112 14.85239236 14.30426037 14.77197266 21.86035156 C14.78073425 22.88751282 14.78949585 23.91467407 14.79852295 24.97296143 C14.8203915 28.34178872 14.80601233 31.70928622 14.7890625 35.078125 C14.79243318 37.42983246 14.79728789 39.78153823 14.80355835 42.13323975 C14.81091183 47.04895705 14.80026887 51.96421865 14.77685547 56.87988281 C14.74830643 63.18065581 14.76482119 69.48036676 14.79471779 75.78110123 C14.81277793 80.63157165 14.80703954 85.48178978 14.79407883 90.33226776 C14.79074456 92.65590287 14.79483256 94.97956092 14.80647659 97.30316925 C14.81917037 100.54680721 14.7998296 103.78871741 14.77197266 107.03222656 C14.78209381 107.99128906 14.79221497 108.95035156 14.80264282 109.93847656 C14.72953369 114.53150541 14.6549428 116.52172268 11.71395874 120.21653748 C10.85960236 120.86695511 10.00524597 121.51737274 9.125 122.1875 C8.78339844 122.46646118 8.78339844 122.46646118 7.0546875 123.87817383 C6.71566406 124.1283728 6.71566406 124.1283728 5 125.39453125 C4.22205078 125.97267578 3.44410156 126.55082031 2.64257812 127.14648438 C1.81177734 127.75814453 0.98097656 128.36980469 0.125 129 C-1.67765367 130.33907631 -3.47971832 131.67894584 -5.28125 133.01953125 C-6.20679688 133.70740723 -7.13234375 134.3952832 -8.0859375 135.10400391 C-12.54096593 138.43201621 -16.95771344 141.80964792 -21.375 145.1875 C-29.00134998 151.01232222 -36.66235944 156.78831717 -44.34667969 162.53637695 C-51.36237386 167.78986459 -58.33451305 173.09919755 -65.30078125 178.41796875 C-71.09455861 182.83885401 -76.90787345 187.23176368 -82.75195312 191.5859375 C-86.66020315 194.50420354 -90.53396697 197.46301451 -94.390625 200.44921875 C-95.34066406 201.18205078 -96.29070312 201.91488281 -97.26953125 202.66992188 C-99.14089791 204.11504702 -101.00824846 205.56539122 -102.87109375 207.02148438 C-103.72316406 207.67826172 -104.57523437 208.33503906 -105.453125 209.01171875 C-106.21012695 209.60041748 -106.96712891 210.18911621 -107.74707031 210.7956543 C-109.87742046 212.18908318 -111.35095329 212.91080232 -113.875 213.1875 C-116.37109375 211.66015625 -116.37109375 211.66015625 -119.3125 209.25 C-120.47425124 208.31775141 -121.63709006 207.38685714 -122.80078125 206.45703125 C-123.4448291 205.93705566 -124.08887695 205.41708008 -124.75244141 204.88134766 C-128.7824131 201.6653431 -132.89608371 198.55818634 -137 195.4375 C-137.89589844 194.75413574 -138.79179687 194.07077148 -139.71484375 193.36669922 C-145.70328361 188.80799937 -151.74099456 184.32224959 -157.8125 179.875 C-163.59498262 175.62609312 -169.36934749 171.368206 -175.0625 167 C-175.35991089 166.77711304 -175.35991089 166.77711304 -176.86499023 165.64916992 C-178.48046875 164.39453125 -178.48046875 164.39453125 -180.875 162.1875 C-180.875 159.1875 -180.875 159.1875 -179.14453125 157.34765625 C-178.73912109 157.00154297 -178.73912109 157.00154297 -176.6875 155.25 C-175.77613281 154.45722656 -174.86476562 153.66445312 -173.92578125 152.84765625 C-173.43158691 152.41984863 -172.93739258 151.99204102 -172.42822266 151.55126953 C-169.69417811 149.15070794 -167.03936996 146.66478631 -164.375 144.1875 C-160.56600665 140.65962951 -156.74160382 137.15237875 -152.875 133.6875 C-147.92909564 129.25379286 -143.05213346 124.7480658 -138.17578125 120.23828125 C-131.4671578 114.03433239 -124.7403631 107.85063207 -117.9375 101.75 C-112.97261909 97.29352289 -108.07365048 92.76801938 -103.17578125 88.23828125 C-96.4671578 82.03433239 -89.7403631 75.85063207 -82.9375 69.75 C-77.97261909 65.29352289 -73.07365048 60.76801938 -68.17578125 56.23828125 C-61.4671578 50.03433239 -54.7403631 43.85063207 -47.9375 37.75 C-44.09583055 34.3017175 -40.29058278 30.81665342 -36.5 27.3125 C-35.95110107 26.80557617 -35.40220215 26.29865234 -34.83666992 25.77636719 C-32.14185585 23.28665775 -29.45081154 20.79305825 -26.765625 18.29296875 C-7.10966373 0.05274231 -7.10966373 0.05274231 0 0 Z " fill="#0277BD" transform="translate(348.875,42.8125)"/>
<path d="M0 0 C4.57782964 1.42696311 7.03107885 3.74461964 10.3125 7.1875 C14.0017053 10.99426256 17.75093167 14.6224662 21.78125 18.06640625 C24.7008623 20.61078669 27.53578804 23.24156954 30.375 25.875 C35.04938187 30.20678159 39.75438591 34.5000252 44.5 38.75390625 C49.01951329 42.81440647 53.5078674 46.90925568 58 51 C56.61479553 54.27532127 55.16818851 55.91082291 52.28125 57.9609375 C51.90226562 58.23421875 51.90226562 58.23421875 49.984375 59.6171875 C49.16453125 60.19726562 48.3446875 60.77734375 47.5 61.375 C45.75889534 62.63070579 44.01934813 63.88857347 42.28125 65.1484375 C41.39695312 65.7887793 40.51265625 66.42912109 39.6015625 67.08886719 C35.66951111 69.97738993 31.83357448 72.98269669 28 76 C19.54933199 82.62726422 10.93297548 89.00870189 2.25878906 95.33935547 C0.05290087 96.96110768 -2.13594004 98.60332412 -4.3203125 100.25390625 C-4.99618408 100.76091064 -5.67205566 101.26791504 -6.3684082 101.7902832 C-7.61898564 102.72927636 -8.86530106 103.6739872 -10.10620117 104.62573242 C-16.47182433 109.37725145 -22.22834085 110.77449524 -30 110 C-37.985139 108.26988655 -43.3879494 102.83031683 -49.30224609 97.50830078 C-50.96320937 96.03268514 -52.6560359 94.6052163 -54.36328125 93.18359375 C-60.44672032 88.0295309 -65.63539327 83.21291084 -67 75 C-67.47647621 67.26809065 -65.60326173 62.12292117 -61 56 C-58.73789844 53.52848788 -56.31232043 51.29069739 -53.8125 49.0625 C-53.14686035 48.4555127 -52.4812207 47.84852539 -51.79541016 47.22314453 C-49.87183473 45.47270486 -47.93775229 43.73471478 -46 42 C-45.09378906 41.18144531 -44.18757813 40.36289062 -43.25390625 39.51953125 C-41.68011654 38.10079471 -40.1033334 36.68537105 -38.5234375 35.2734375 C-35.49121879 32.54162436 -32.49463353 29.77287299 -29.5 27 C-24.9124927 22.75299773 -20.28882522 18.55087805 -15.6328125 14.37890625 C-10.37952137 9.63223816 -5.19399001 4.81136065 0 0 Z " fill="#0176BD" transform="translate(109,256)"/>
</svg>
