<?xml version="1.0" encoding="UTF-8"?>
<!-- Generator: visioncortex VTracer 0.6.12 -->
<svg version="1.1" xmlns="http://www.w3.org/2000/svg" width="512" height="512">
<path d="M0 0 C1.21883377 -0.00623996 2.43766754 -0.01247993 3.69343567 -0.01890898 C7.03695896 -0.03199398 10.3795684 -0.02743469 13.72303391 -0.0149641 C17.34411327 -0.00584578 20.96511761 -0.01991665 24.58618164 -0.03088379 C31.66414479 -0.04860186 38.74193757 -0.04485915 45.81990719 -0.03323323 C51.57607856 -0.0241726 57.33220244 -0.02298623 63.08837891 -0.02732849 C63.90992179 -0.02794142 64.73146467 -0.02855436 65.57790279 -0.02918586 C67.24723436 -0.03046486 68.91656591 -0.03176171 70.58589745 -0.03307623 C86.21226148 -0.04446236 101.8385314 -0.03139928 117.46487999 -0.00987476 C130.85163375 0.00799444 144.23824874 0.00488978 157.625 -0.0135498 C173.19825014 -0.03499136 188.77141795 -0.04336391 204.34468079 -0.03110075 C206.00761921 -0.02982665 207.67055765 -0.02856917 209.33349609 -0.02732849 C210.15153686 -0.02671139 210.96957762 -0.02609429 211.81240749 -0.02545848 C217.55676194 -0.02201543 223.30106385 -0.02781132 229.04541016 -0.0372467 C236.05290288 -0.04850467 243.06021654 -0.04534731 250.06768894 -0.02412373 C253.63800972 -0.01366404 257.20803275 -0.00940363 260.77835083 -0.02272034 C264.65969124 -0.03697737 268.5405519 -0.01987089 272.421875 0 C273.5346431 -0.00892289 274.64741119 -0.01784577 275.79389954 -0.02703905 C290.38500917 0.11710059 302.82208578 5.29294486 313.4609375 15.25793457 C324.49370717 27.03677268 328.84682586 40.33995312 328.71887207 56.29699707 C328.72199205 56.90641396 328.72199205 56.90641396 328.73778105 59.99043274 C328.75086605 63.33395603 328.74630676 66.67656547 328.73383617 70.02003098 C328.72471785 73.64111034 328.73878872 77.26211468 328.74975586 80.88317871 C328.76747393 87.96114186 328.76373122 95.03893464 328.7521053 102.11690426 C328.74304467 107.87307563 328.7418583 113.62919951 328.74620056 119.38537598 C328.74681349 120.20691886 328.74742643 121.02846174 328.74805793 121.87489986 C328.74933693 123.54423143 328.75063378 125.21356298 328.7519483 126.88289452 C328.76333443 142.50925855 328.75027135 158.13552847 328.72874683 173.76187706 C328.71087763 187.14863082 328.71398229 200.53524581 328.73242188 213.92199707 C328.75386343 229.49524721 328.76223598 245.06841502 328.74997282 260.64167786 C328.74869872 262.30461628 328.74744124 263.96755472 328.74620056 265.63049316 C328.74589201 266.03951355 328.74589201 266.03951355 328.74433056 268.10940456 C328.7408875 273.85375901 328.74668339 279.59806092 328.75611877 285.34240723 C328.76737674 292.34989995 328.76421938 299.35721361 328.7429958 306.36468601 C328.73253611 309.93500679 328.7282757 313.50502982 328.74159241 317.0753479 C328.75584944 320.95668831 328.73874296 324.83754897 328.71887207 328.71887207 C328.72779496 329.83164017 328.73671784 330.94440826 328.74591112 332.09089661 C328.60135834 346.72382798 323.41399522 359.22040573 313.3359375 369.82043457 C304.27649489 378.32344309 292.77251802 384.61688067 280.1010828 384.64215565 C279.06308381 384.64661349 278.02508482 384.65107134 276.95563132 384.65566427 C275.81664765 384.6554799 274.67766398 384.65529554 273.50416565 384.65510559 C272.2930217 384.65878228 271.08187775 384.66245897 269.83403248 384.66624707 C266.4704852 384.67536681 263.10698669 384.67998206 259.74343169 384.68263638 C256.11608157 384.68654291 252.48874554 384.69612117 248.86140442 384.70484924 C240.09912344 384.72460628 231.33684131 384.73467998 222.57454363 384.74357703 C218.44549208 384.74796215 214.31644182 384.75332847 210.18739128 384.7585659 C196.45587842 384.77557924 182.72436636 384.79007174 168.99284458 384.79731464 C165.4298814 384.79922446 161.86691823 384.80114481 158.30395508 384.80310059 C157.41842392 384.80358433 156.53289276 384.80406807 155.62052732 384.80456647 C141.28676825 384.81286051 126.95309281 384.83818636 112.61937023 384.87068126 C97.89398756 384.90379103 83.16864731 384.92176704 68.44322723 384.92495888 C60.17928282 384.92712061 51.91546026 384.93581952 43.6515522 384.96142006 C36.6109292 384.98318085 29.57045765 384.99115123 22.52980483 384.98145328 C18.9413009 384.97692374 15.35310909 384.97871531 11.76464844 384.99821472 C7.86315881 385.01923068 3.96209358 385.00881208 0.06056213 384.99568176 C-1.05834504 385.00665101 -2.17725222 385.01762025 -3.33006567 385.0289219 C-17.9832353 384.91046596 -30.48730496 379.72452033 -41.1015625 369.63293457 C-49.60457102 360.57349196 -55.8980086 349.06951509 -55.92328358 336.39807987 C-55.92774142 335.36008088 -55.93219926 334.32208189 -55.93679219 333.25262839 C-55.93660783 332.11364472 -55.93642347 330.97466105 -55.93623352 329.80116272 C-55.93991021 328.59001877 -55.9435869 327.37887483 -55.947375 326.13102955 C-55.95649474 322.76748227 -55.96110999 319.40398376 -55.96376431 316.04042876 C-55.96767084 312.41307864 -55.97724909 308.78574261 -55.98597717 305.15840149 C-56.00573421 296.39612051 -56.01580791 287.63383838 -56.02470496 278.8715407 C-56.02909008 274.74248915 -56.0344564 270.61343889 -56.03969383 266.48438835 C-56.05670717 252.75287549 -56.07119967 239.02136343 -56.07844257 225.28984165 C-56.08035239 221.72687847 -56.08227273 218.1639153 -56.08422852 214.60095215 C-56.08471226 213.71542099 -56.085196 212.82988983 -56.0856944 211.91752439 C-56.09398844 197.58376532 -56.11931429 183.25008988 -56.15180919 168.9163673 C-56.18491896 154.19098463 -56.20289497 139.46564438 -56.20608681 124.7402243 C-56.20824854 116.47627989 -56.21694745 108.21245733 -56.24254799 99.94854927 C-56.26430878 92.90792627 -56.27227916 85.86745472 -56.26258121 78.8268019 C-56.25805167 75.23829797 -56.25984324 71.65010616 -56.27934265 68.06164551 C-56.30035861 64.16015588 -56.28994001 60.25909065 -56.27680969 56.3575592 C-56.28229432 55.79810562 -56.28229432 55.79810562 -56.31004983 52.9669314 C-56.19193115 38.3554808 -51.01751568 25.9111602 -41.0390625 15.25793457 C-29.26022439 4.2251649 -15.95704395 -0.12795379 0 0 Z " fill="#1976D2" transform="translate(119.7890625,63.4920654296875)"/>
<path d="M0 0 C0.75838669 -0.00807175 1.51677338 -0.01614349 2.29814148 -0.02445984 C3.90275805 -0.03828057 5.50740377 -0.04901171 7.11206055 -0.05688477 C8.74821623 -0.06840356 10.38433437 -0.08885404 12.02026367 -0.1184082 C14.38876794 -0.16119378 16.7561567 -0.17726819 19.125 -0.1875 C19.8502034 -0.20500809 20.5754068 -0.22251617 21.32258606 -0.24055481 C26.44721753 -0.21884518 29.30197334 1.04058872 33.26171875 4.23828125 C36.29202569 8.10237086 37.5359495 13.0231316 38.88671875 17.67578125 C43.413872 32.87785616 49.64907244 47.66988006 56.94921875 61.73828125 C57.16259888 62.15271484 57.16259888 62.15271484 58.24243164 64.25 C62.45776464 72.12954756 67.66477049 80.28374978 75.26171875 85.23828125 C78.13671875 85.05078125 78.13671875 85.05078125 80.26171875 84.23828125 C81.20578085 81.40609494 81.39808745 79.61911681 81.42285156 76.68188477 C81.43245911 75.75984756 81.44206665 74.83781036 81.45196533 73.88783264 C81.45621521 72.89101974 81.46046509 71.89420685 81.46484375 70.8671875 C81.47054382 69.83448227 81.4762439 68.80177704 81.4821167 67.73777771 C81.49157129 65.54630559 81.4981025 63.35481921 81.50195312 61.16333008 C81.51159046 57.84495322 81.54258125 54.52721403 81.57421875 51.20898438 C81.70696673 25.47775864 81.70696673 25.47775864 74.51171875 14.86328125 C72.30486081 11.60682014 71.24989464 10.03640878 71.30859375 6.07421875 C72.43474765 2.72344937 73.26620859 2.01425388 76.26171875 0.23828125 C78.75914001 -0.1493988 78.75914001 -0.1493988 81.59350586 -0.16577148 C82.12584587 -0.17211357 82.12584587 -0.17211357 84.81980896 -0.20420837 C85.96466263 -0.20127274 87.1095163 -0.1983371 88.2890625 -0.1953125 C89.47013077 -0.20055435 90.65119904 -0.2057962 91.86805725 -0.2111969 C94.36539931 -0.21761945 96.86277161 -0.21627713 99.36010742 -0.20776367 C103.18137503 -0.19925847 107.0011459 -0.22800708 110.82226562 -0.25976562 C113.24869747 -0.26137782 115.67513196 -0.26079976 118.1015625 -0.2578125 C118.67297722 -0.26342949 118.67297722 -0.26342949 121.56468201 -0.29185486 C122.63251419 -0.28247391 123.70034637 -0.27309296 124.80053711 -0.26342773 C125.73667343 -0.26326157 126.67280975 -0.2630954 127.63731384 -0.26292419 C131.18648848 0.41489257 132.80909115 1.59809938 135.26171875 4.23828125 C135.88749695 7.16003418 135.88749695 7.16003418 135.8894043 10.59570312 C135.89599815 11.23977112 135.89599815 11.23977112 135.92936707 14.49914551 C135.9192854 15.90177575 135.90896989 17.30440432 135.8984375 18.70703125 C135.9064794 20.14906353 135.91699854 21.59108394 135.92988586 23.03308105 C135.95842846 26.82598077 135.95901142 30.61833405 135.95202637 34.41131592 C135.94470188 40.48188266 135.97606637 46.55227252 136.01447487 52.62269592 C136.02331865 54.74106406 136.01802621 56.8590497 136.01091003 58.97741699 C136.01464127 60.26555298 136.0183725 61.55368896 136.0222168 62.88085938 C136.02045944 64.01463013 136.01870209 65.14840088 136.01689148 66.31652832 C136.25845567 69.19933987 136.66838659 70.84811874 138.26171875 73.23828125 C141.87581288 75.04532831 145.46211356 74.25897811 149.26171875 73.23828125 C155.16032048 69.29559211 159.4833262 63.79995345 163.51171875 58.05078125 C164.06472656 57.27105957 164.61773437 56.49133789 165.1875 55.68798828 C172.76833443 44.84126476 179.54308206 33.51087812 185.65625 21.77734375 C185.94145508 21.23376221 185.94145508 21.23376221 187.38476562 18.48291016 C188.48647627 16.36705257 189.5707342 14.24198788 190.63476562 12.10693359 C191.13685547 11.13965332 191.63894531 10.17237305 192.15625 9.17578125 C192.58784424 8.31855469 193.01943848 7.46132812 193.46411133 6.578125 C195.87574498 3.43903808 198.61576599 1.64734539 202.26171875 0.23828125 C205.05415193 -0.12689949 207.43122452 -0.30288204 210.20703125 -0.2578125 C210.93993378 -0.25926773 211.6728363 -0.26072296 212.427948 -0.26222229 C213.96584072 -0.26057305 215.50375165 -0.24912181 217.04150391 -0.22827148 C219.38775921 -0.19920586 221.7317652 -0.20770322 224.078125 -0.22070312 C225.57943799 -0.21446759 227.08074391 -0.20607809 228.58203125 -0.1953125 C228.93000259 -0.19678032 228.93000259 -0.19678032 230.69094849 -0.20420837 C235.4335242 -0.11274944 238.85134494 0.82790744 242.26171875 4.23828125 C242.65504708 10.08111015 241.88600352 14.34583364 239.38671875 19.67578125 C239.22941284 20.02064575 239.22941284 20.02064575 238.43334961 21.76586914 C229.16365845 41.56045222 216.44130744 60.39162217 203.71362305 78.08422852 C200.22462242 83.26052792 200.22462242 83.26052792 200.37109375 87.12109375 C201.44793524 90.89003896 203.0544547 93.06151784 205.51171875 96.11328125 C205.95136963 96.66717529 206.39102051 97.22106934 206.84399414 97.79174805 C209.33639645 100.91688038 211.88473716 103.99576067 214.4296875 107.078125 C241.31279456 139.69796358 241.31279456 139.69796358 242.63671875 151.61328125 C242.26171875 155.23828125 242.26171875 155.23828125 240.27075195 157.92114258 C236.44402623 160.86795425 233.38758434 160.97907873 228.7421875 160.9375 C228.33348671 160.94107765 228.33348671 160.94107765 226.26521301 160.95918274 C224.53969408 160.96694743 222.81407664 160.96197352 221.08862305 160.94506836 C218.46666845 160.92590876 215.85006837 160.96516547 213.22851562 161.00976562 C197.97936196 161.09048855 197.97936196 161.09048855 192.67651367 155.93432617 C192.44307251 155.65447876 192.44307251 155.65447876 191.26171875 154.23828125 C190.80708252 153.73208252 190.35244629 153.22588379 189.8840332 152.7043457 C188.62378419 151.21237114 187.47233553 149.63066844 186.32421875 148.05078125 C185.4740488 146.90391431 184.62245948 145.75809833 183.76953125 144.61328125 C183.3509082 144.04609375 182.93228516 143.47890625 182.50097656 142.89453125 C160.85147047 113.96028197 160.85147047 113.96028197 147.26171875 108.23828125 C143.8972978 107.94142058 140.6276958 107.99446802 137.26171875 108.23828125 C136.463978 111.05171984 136.13761586 113.54768115 136.13574219 116.46850586 C136.13383881 116.88072136 136.13383881 116.88072136 136.12420654 118.96678162 C136.12369293 119.40796577 136.12369293 119.40796577 136.12109375 121.640625 C136.10277191 123.5188924 136.08320218 125.39714796 136.0625 127.27539062 C136.03349924 130.22928972 136.01171765 133.18242371 136.01123047 136.13647461 C136.00789625 138.99271124 135.97335915 141.84719317 135.93359375 144.703125 C135.94066345 145.58346909 135.94773315 146.46381317 135.95501709 147.37083435 C135.86652205 151.83231455 135.70904939 153.67048218 132.86206055 157.28417969 C125.23271283 163.01747225 110.11352469 160.83247919 101.07421875 159.61328125 C66.42750795 152.79910821 39.1433905 124.2899835 20.26171875 96.23828125 C17.05639461 91.3520128 14.11250026 86.33790138 11.26171875 81.23828125 C10.85856445 80.52623535 10.45541016 79.81418945 10.04003906 79.08056641 C-1.14331013 59.18520767 -13.5567865 33.44053988 -13.98828125 10.17578125 C-14.0140625 9.33917969 -14.03984375 8.50257813 -14.06640625 7.640625 C-13.66370945 4.69230918 -12.77782614 3.37789727 -10.73828125 1.23828125 C-7.12108181 0.0325481 -3.76886575 0.03807092 0 0 Z " fill="#FDFEFE" transform="translate(141.73828125,180.76171875)"/>
</svg>
