<?xml version="1.0" encoding="UTF-8"?>
<!-- Generator: visioncortex VTracer 0.6.12 -->
<svg version="1.1" xmlns="http://www.w3.org/2000/svg" width="512" height="512">
<path d="M0 0 C0.77988281 0.66902344 1.55976563 1.33804688 2.36328125 2.02734375 C14.23921658 12.46494976 25.34253797 23.56457662 34.74121094 36.296875 C35.97069396 37.96034931 37.22216212 39.60527552 38.4765625 41.25 C74.66476777 89.46985084 89.19859163 152.54493693 81.48095703 211.97167969 C74.91035525 256.70985444 56.57788551 298.7375875 27 333 C26.33097656 333.77988281 25.66195313 334.55976563 24.97265625 335.36328125 C14.53505024 347.23921658 3.43542338 358.34253797 -9.296875 367.74121094 C-10.96034931 368.97069396 -12.60527552 370.22216212 -14.25 371.4765625 C-63.32703384 408.30806952 -127.35056348 422.43659077 -187.6875 414.0390625 C-231.43989351 407.2213878 -272.4600711 388.95418345 -306 360 C-306.77988281 359.33097656 -307.55976563 358.66195313 -308.36328125 357.97265625 C-320.23921658 347.53505024 -331.34253797 336.43542338 -340.74121094 323.703125 C-341.97069396 322.03965069 -343.22216212 320.39472448 -344.4765625 318.75 C-380.63723472 270.56683624 -395.21919645 207.48966008 -387.48095703 148.10083008 C-380.89870821 103.25062308 -362.67543515 61.37541199 -333 27 C-332.33097656 26.22011719 -331.66195312 25.44023438 -330.97265625 24.63671875 C-320.53505024 12.76078342 -309.43542338 1.65746203 -296.703125 -7.74121094 C-295.03965069 -8.97069396 -293.39472448 -10.22216212 -291.75 -11.4765625 C-212.55551526 -70.91072126 -96.99796264 -70.86160417 0 0 Z M-306 122 C-305.40986588 127.45006215 -303.52082729 131.83258639 -301.25 136.75 C-300.85514404 137.61270508 -300.46028809 138.47541016 -300.0534668 139.36425781 C-283.66980695 174.80837978 -264.99222685 210.37479146 -238 239 C-237.31679687 239.74765625 -236.63359375 240.4953125 -235.9296875 241.265625 C-217.79076964 260.40854201 -192.71325716 271.47903393 -166.43359375 272.1875 C-164.45581778 272.21550967 -162.4779271 272.23633556 -160.5 272.25 C-160.02792114 272.25467285 -160.02792114 272.25467285 -157.63891602 272.27832031 C-152.74333808 272.25557663 -148.5316952 272.08928805 -144 270 C-142.51521242 267.03042485 -142.76297214 264.17976133 -142.625 260.875 C-141.87962591 247.71507585 -141.87962591 247.71507585 -136.8125 242.9375 C-132.15885462 241.38628487 -128.38710265 242.06690105 -123.94140625 243.8046875 C-118.34517004 246.61820809 -113.78735688 250.6129773 -109.09033203 254.69091797 C-98.63526813 263.71186674 -87.72639141 272.03548186 -73.33666992 272.16113281 C-72.88929222 272.16593658 -72.88929222 272.16593658 -70.62528992 272.19024658 C-69.66999893 272.19449646 -68.71470795 272.19874634 -67.73046875 272.203125 C-66.73549881 272.20882507 -65.74052887 272.21452515 -64.71540833 272.22039795 C-62.61326148 272.22982789 -60.51109999 272.23637395 -58.40893555 272.24023438 C-55.20920767 272.24993419 -52.01012402 272.28097465 -48.81054688 272.3125 C-46.76302463 272.3190314 -44.71549781 272.32428133 -42.66796875 272.328125 C-42.1933596 272.3342984 -42.1933596 272.3342984 -39.79154968 272.36553955 C-33.49592753 272.34464425 -27.25743657 271.92384637 -22.3346405 267.50518799 C-20.60557827 265.55517695 -20.14581723 264.62471016 -20 262 C-21.99375881 254.87943281 -26.94296617 250.18068544 -32 245 C-32.61198242 244.37287109 -33.22396484 243.74574219 -33.85449219 243.09960938 C-35.91653028 240.99655063 -37.98708792 238.90235978 -40.0625 236.8125 C-40.7227417 236.14742432 -41.3829834 235.48234863 -42.06323242 234.79711914 C-47.0416093 229.83600047 -52.15926197 225.02539515 -57.68481445 220.67285156 C-62.58760701 216.80323211 -65.6326603 213.48974688 -66.5625 207.1875 C-66.10723303 198.88476487 -59.61257238 191.95708544 -54.4375 185.9375 C-53.18901415 184.44731335 -51.94296833 182.95507944 -50.69921875 181.4609375 C-50.07837402 180.71553711 -49.4575293 179.97013672 -48.81787109 179.20214844 C-36.58977579 164.38917239 -23.73090621 147.28765453 -20 128 C-20.38671875 124.07421875 -20.38671875 124.07421875 -21 121 C-24.64554624 119.34066661 -27.52539594 118.73845676 -31.52124023 118.69360352 C-32.60263779 118.67761612 -33.68403534 118.66162872 -34.79820251 118.64515686 C-35.37741707 118.64247551 -35.37741707 118.64247551 -38.30859375 118.62890625 C-39.50807144 118.61987778 -40.70754913 118.6108493 -41.94337463 118.60154724 C-44.47760525 118.58705356 -47.01187321 118.57816021 -49.54614258 118.57446289 C-53.42007408 118.56255357 -57.29241949 118.5133441 -61.16601562 118.46289062 C-63.63020057 118.45342766 -66.09439528 118.44619202 -68.55859375 118.44140625 C-69.71499863 118.42187393 -70.8714035 118.40234161 -72.06285095 118.38221741 C-81.03034555 118.43247052 -81.03034555 118.43247052 -84.62182617 121.16821289 C-87.06542095 124.07789936 -88.2957141 126.27891279 -89.4921875 129.8671875 C-89.88293457 130.99318359 -90.27368164 132.11917969 -90.67626953 133.27929688 C-91.07185059 134.46587891 -91.46743164 135.65246094 -91.875 136.875 C-98.34146475 155.23927278 -108.42181792 180.71090896 -127 190 C-130.49969899 190.91237289 -133.73057198 191.27447092 -137.3125 190.5 C-140.60259068 187.57547495 -141.81210239 183.71354098 -142.27978516 179.44848633 C-142.39235906 176.43124386 -142.41487632 173.42557681 -142.40625 170.40625 C-142.41708618 169.30075806 -142.42792236 168.19526611 -142.43908691 167.05627441 C-142.48477965 162.34859318 -142.49640763 157.64096858 -142.51123047 152.93310547 C-142.52695989 149.48645637 -142.55996682 146.04026186 -142.59375 142.59375 C-142.59072876 141.53627563 -142.58770752 140.47880127 -142.58459473 139.38928223 C-142.64427108 133.49939234 -143.08151179 129.16939409 -146 124 C-154.22100621 118.0397705 -166.61051873 118.6401833 -176.3125 118.6875 C-177.50004883 118.69241455 -178.68759766 118.6973291 -179.91113281 118.70239258 C-191.29509577 118.85456373 -202.07683263 119.13911446 -211 127 C-208.23113825 129.76886175 -204.96465313 130.91257645 -201.41015625 132.48828125 C-197.76770521 134.77293045 -196.44727039 137.45488412 -195.26953125 141.5234375 C-193.155302 154.71478237 -190.36819716 174.77756473 -197 187 C-200.05192683 189.27408184 -201.46706437 189.98994461 -205.3125 190.0625 C-217.90139761 186.43519052 -225.32936084 172.97612787 -231.46801758 162.19555664 C-236.41515887 153.11899248 -240.01932272 143.55506387 -243.46313477 133.82104492 C-247.16080826 123.63730098 -247.16080826 123.63730098 -252 120 C-254.8415241 119.0528253 -256.64303279 118.86353262 -259.59155273 118.83886719 C-260.51939072 118.82925964 -261.4472287 118.8196521 -262.40318298 118.80975342 C-263.40321854 118.80550354 -264.40325409 118.80125366 -265.43359375 118.796875 C-266.46307632 118.79117493 -267.4925589 118.78547485 -268.55323792 118.77960205 C-270.73120089 118.77015449 -272.90917815 118.76361904 -275.0871582 118.75976562 C-278.42098827 118.75004813 -281.75420495 118.71901723 -285.08789062 118.6875 C-287.20312134 118.68097105 -289.31835646 118.67572015 -291.43359375 118.671875 C-292.43160507 118.6595282 -293.42961639 118.6471814 -294.45787048 118.63446045 C-294.92336555 118.635961 -294.92336555 118.635961 -297.27905273 118.64355469 C-298.09607162 118.63990906 -298.91309052 118.63626343 -299.75486755 118.63250732 C-302.5115158 119.08372705 -303.91321479 120.19132208 -306 122 Z " fill="#000000" transform="translate(409,76)"/>
</svg>
