<?xml version="1.0" encoding="UTF-8"?>
<!-- Generator: visioncortex VTracer 0.6.12 -->
<svg version="1.1" xmlns="http://www.w3.org/2000/svg" width="512" height="512">
<path d="M0 0 C6.62498074 4.59692541 10.11548784 12.37133777 13.98046875 19.2109375 C14.97952388 20.96100649 15.97858796 22.71107045 16.97821045 24.46081543 C18.01034996 26.26910174 19.04000843 28.07878369 20.06933594 29.88867188 C23.2224436 35.42749986 26.416168 40.94290095 29.60546875 46.4609375 C30.85565689 48.62749561 32.10565635 50.79416261 33.35546875 52.9609375 C33.97421875 54.0334375 34.59296875 55.1059375 35.23046875 56.2109375 C85.85546875 143.9609375 85.85546875 143.9609375 87.73071289 147.21142578 C88.97982393 149.37650821 90.22901004 151.54154732 91.47827148 153.70654297 C94.61749184 159.14709456 97.75537438 164.58840966 100.890625 170.03125 C106.91294204 180.48299949 112.95216212 190.92393298 119.04296875 201.3359375 C124.46505574 210.60657681 129.80870887 219.92030449 135.1257019 229.25140381 C139.74030904 237.34801593 144.39631761 245.41882551 149.10546875 253.4609375 C154.50903335 262.68894279 159.83199236 271.9608842 165.12597656 281.25195312 C169.74049771 289.34838046 174.3965788 297.41890926 179.10546875 305.4609375 C214.68689193 366.25034008 214.68689193 366.25034008 211.4921875 378.88671875 C209.12801649 384.25036664 205.07843935 387.50983175 200.10546875 390.4609375 C196.62151058 391.62225689 193.90852085 391.58995558 190.23061085 391.59515858 C189.52380589 391.59751081 188.81700092 391.59986304 188.08877763 391.60228655 C185.70238375 391.60898369 183.31604423 391.60851811 180.92964172 391.60810852 C179.2085867 391.6114067 177.48753245 391.61513217 175.76647919 391.61925 C171.02284313 391.62928332 166.27921973 391.63298893 161.53557456 391.63563931 C156.4249916 391.6395384 151.31441871 391.64911699 146.20384216 391.65785217 C133.8549302 391.6776275 121.5060174 391.68768403 109.15709355 391.69657996 C103.34481727 391.70096101 97.5325419 391.70632828 91.72026634 391.71156883 C72.40427114 391.72858198 53.08827651 391.74307689 33.77227497 391.75031757 C28.75809542 391.75222753 23.74391587 391.75414786 18.72973633 391.75610352 C17.48345434 391.75658726 16.23717235 391.757071 14.95312425 391.7575694 C-5.2427375 391.76587241 -25.43854006 391.79121353 -45.63437595 391.82368419 C-66.35893818 391.85673387 -87.08347031 391.87476443 -107.80805904 391.87796181 C-119.44824028 391.88012882 -131.08833523 391.88890538 -142.72849083 391.91442299 C-152.64036682 391.93610139 -162.55213555 391.94419449 -172.46403255 391.93445621 C-177.52221891 391.92990326 -182.58018383 391.93185555 -187.63834 391.95121765 C-192.26914057 391.96879097 -196.89955719 391.9678991 -201.53036151 391.95232036 C-203.20537409 391.94993541 -204.88041285 391.95431366 -206.55538531 391.96614901 C-222.12930962 392.06937552 -222.12930962 392.06937552 -228.89453125 387.4609375 C-230.953125 385.42578125 -230.953125 385.42578125 -232.33203125 383.3984375 C-232.80511719 382.72683594 -233.27820313 382.05523437 -233.765625 381.36328125 C-237.04078857 375.84423399 -236.84461687 369.62399293 -235.89453125 363.4609375 C-233.69766801 357.42251637 -230.18926623 351.94759336 -226.89453125 346.4609375 C-226.12682573 345.14574349 -225.36114584 343.82936464 -224.59765625 342.51171875 C-222.99412108 339.75652591 -221.37327678 337.0124017 -219.7421875 334.2734375 C-216.34462051 328.55377489 -213.02717608 322.78827669 -209.70703125 317.0234375 C-209.06942871 315.91685791 -208.43182617 314.81027832 -207.77490234 313.67016602 C-206.46642617 311.3988828 -205.15815964 309.1274788 -203.85009766 306.85595703 C-200.70121071 301.3892377 -197.54769861 295.92518863 -194.39453125 290.4609375 C-193.14450775 288.29428439 -191.89450778 286.12761771 -190.64453125 283.9609375 C-148.14453125 210.29427083 -105.64453125 136.62760417 -63.14453125 62.9609375 C-62.52521729 61.88739014 -61.90590332 60.81384277 -61.26782227 59.70776367 C-60.02376333 57.55153537 -58.77946183 55.39544701 -57.53491211 53.23950195 C-54.31696341 47.66428248 -51.10379192 42.08637562 -47.8984375 36.50390625 C-44.77013233 31.05811016 -41.63100596 25.6187662 -38.47753906 20.1875 C-37.50313946 18.50920037 -36.53069789 16.82975993 -35.56152344 15.1484375 C-27.85872183 1.83021027 -27.85872183 1.83021027 -20.14453125 -1.8515625 C-12.83158864 -3.39853113 -6.85609156 -3.00999142 0 0 Z " fill="#F4BB41" transform="translate(267.89453125,56.5390625)"/>
<path d="M0 0 C1.11052734 -0.00644531 2.22105469 -0.01289063 3.36523438 -0.01953125 C11.14509019 0.08289653 14.91527695 1.10277695 20.4375 6.625 C20.91729049 9.73958664 20.76819213 12.91579673 20.75 16.0625 C20.74790527 16.57369385 20.74790527 16.57369385 20.73730469 19.16064453 C20.59746847 29.25116624 19.71790363 39.25887689 18.79077148 49.30053711 C17.42003451 64.22733192 16.35490692 79.17205962 15.3125 94.125 C15.22641479 95.34725281 15.14032959 96.56950562 15.05163574 97.82879639 C14.80056215 101.39613863 14.55212563 104.9636539 14.3046875 108.53125 C14.26496826 109.09741531 14.26496826 109.09741531 14.06396484 111.96255493 C13.71204169 117.09259463 13.39591499 122.21675766 13.20410156 127.35546875 C13.16946808 128.22699585 13.13483459 129.09852295 13.09915161 129.99645996 C13.0407154 131.57816208 12.99362151 133.16034973 12.96115112 134.74279785 C12.7594501 140.20129722 11.37120481 144.13575568 8.0234375 148.4453125 C4.9267464 150.74876253 1.19111546 150.73734412 -2.5625 150.625 C-6.32852367 149.06946848 -8.4144651 147.06185584 -10.5625 143.625 C-11.42429085 141.03962745 -11.74491617 139.28469039 -11.90380859 136.62060547 C-11.95422806 135.81066132 -12.00464752 135.00071716 -12.05659485 134.16622925 C-12.10752792 133.28379547 -12.158461 132.40136169 -12.2109375 131.4921875 C-12.26795334 130.5642337 -12.32496918 129.63627991 -12.38371277 128.6802063 C-12.50695884 126.67150632 -12.62850952 124.66270176 -12.74856567 122.65380859 C-13.06883533 117.30766938 -13.40365934 111.96244468 -13.73828125 106.6171875 C-13.80625412 105.52831238 -13.87422699 104.43943726 -13.94425964 103.31756592 C-14.60855277 92.74872655 -15.34911004 82.18617435 -16.125 71.625 C-16.18730804 70.77043213 -16.24961609 69.91586426 -16.31381226 69.03540039 C-16.95420526 60.27545146 -17.63926862 51.52595565 -18.484375 42.78295898 C-19.30152315 34.22167976 -19.88478275 25.66024743 -20.125 17.0625 C-20.17615967 16.10327637 -20.22731934 15.14405273 -20.2800293 14.15576172 C-20.34142804 9.56115761 -20.08764546 6.41381561 -16.8125 3.01171875 C-11.711622 -0.6275155 -6.02852314 -0.17555396 0 0 Z " fill="#3F3E3D" transform="translate(255.5625,180.375)"/>
<path d="M0 0 C4.29592654 3.16202318 7.83269631 7.37080328 9.8203125 12.33984375 C10.71387387 18.75802012 10.80085617 24.71233429 7.3203125 30.33984375 C2.90145164 35.95633979 -1.95251386 39.25575459 -9.0546875 40.40234375 C-15.45391195 40.72722745 -21.25270761 38.95235472 -26.0703125 34.65234375 C-31.50587256 28.53074212 -32.69638633 23.79953426 -32.55859375 15.60546875 C-31.84009028 9.41300587 -28.71397357 5.52925562 -24.1796875 1.46484375 C-16.69583951 -3.83621525 -8.12480051 -4.62159705 0 0 Z " fill="#272625" transform="translate(267.1796875,354.66015625)"/>
<path d="M0 0 C2.72426311 2.35277269 3.8141763 4.62496331 5 8 C3.0625 7.375 3.0625 7.375 1 6 C0.25 2.875 0.25 2.875 0 0 Z " fill="#F3BF50" transform="translate(294,99)"/>
<path d="M0 0 C0.66 1.32 1.32 2.64 2 4 C1.01 3.67 0.02 3.34 -1 3 C-0.67 2.01 -0.34 1.02 0 0 Z " fill="#F4BF4F" transform="translate(310,126)"/>
</svg>
