<?xml version="1.0" encoding="UTF-8"?>
<!-- Generator: visioncortex VTracer 0.6.12 -->
<svg version="1.1" xmlns="http://www.w3.org/2000/svg" width="512" height="512">
<path d="M0 0 C0.81180725 -0.00979385 1.6236145 -0.01958771 2.46002197 -0.02967834 C20.38996533 -0.20138712 37.8020584 -0.12521586 55.3125 4.23828125 C56.17633301 4.45258789 57.04016602 4.66689453 57.93017578 4.88769531 C106.69782734 17.44753659 148.47723387 48.85560184 174.10107422 92.16894531 C174.50084473 92.85182617 174.90061523 93.53470703 175.3125 94.23828125 C175.70324707 94.90311523 176.09399414 95.56794922 176.49658203 96.25292969 C192.18736146 123.34141754 199.70778423 154.17162945 199.62817383 185.34057617 C199.62502524 187.90522305 199.6485294 190.4686986 199.67382812 193.03320312 C199.73292511 208.28981571 197.86140214 223.20690204 193.75 237.92578125 C193.62584717 238.37373047 193.62584717 238.37373047 192.99755859 240.640625 C188.26572086 256.92511946 181.50541722 272.96462051 172.3125 287.23828125 C171.90950684 287.86605469 171.50651367 288.49382812 171.09130859 289.140625 C145.14959168 329.18004065 106.00853747 358.59300763 59.75 371.05078125 C59.08057373 371.23342529 58.41114746 371.41606934 57.72143555 371.60424805 C42.57079256 375.4170043 27.45235735 376.76460525 11.875 376.61328125 C11.02498413 376.60896088 10.17496826 376.6046405 9.29919434 376.60018921 C-3.23184421 376.5256452 -15.43607414 376.08906706 -27.6875 373.23828125 C-28.45787598 373.0666748 -29.22825195 372.89506836 -30.02197266 372.71826172 C-47.31213374 368.78820073 -63.5977407 362.63306458 -79.39599609 354.61450195 C-92.5251739 348.07053614 -104.94370003 347.99411723 -119 351.86328125 C-119.50837402 351.99645752 -119.50837402 351.99645752 -122.08105469 352.67041016 C-125.28703499 353.51260905 -128.48731912 354.37433388 -131.6875 355.23828125 C-134.91705047 356.09872474 -138.14763853 356.95495675 -141.37963867 357.80615234 C-143.38013155 358.33418663 -145.37907554 358.86813322 -147.3762207 359.40869141 C-147.82719116 359.52881592 -147.82719116 359.52881592 -150.109375 360.13671875 C-150.89924805 360.34989746 -151.68912109 360.56307617 -152.50292969 360.78271484 C-154.6875 361.23828125 -154.6875 361.23828125 -158.6875 361.23828125 C-157.57866814 354.93578294 -156.06406599 348.84035841 -154.3046875 342.6953125 C-154.19468414 342.30705795 -154.19468414 342.30705795 -153.63800049 340.34225464 C-152.71944929 337.10114462 -151.80067216 333.86055028 -150.85009766 330.62866211 C-145.22589411 311.43436466 -145.13509284 296.14617053 -154.9375 278.17578125 C-155.32776367 277.46333252 -155.71802734 276.75088379 -156.12011719 276.0168457 C-162.62806981 264.00369642 -167.32254782 251.3178647 -171 238.17578125 C-171.11516968 237.76960571 -171.11516968 237.76960571 -171.69799805 235.71411133 C-175.6233026 220.89878753 -177.19423993 206.05115436 -177.07861328 190.75878906 C-177.06250065 188.23838243 -177.07859963 185.71957825 -177.09765625 183.19921875 C-177.11711742 168.40900018 -175.34294259 153.82731444 -171.375 139.55078125 C-171.16335205 138.77299316 -170.9517041 137.99520508 -170.73364258 137.19384766 C-162.26948225 106.96426378 -146.6862753 80.31770742 -125.05224609 57.67041016 C-123.73801533 56.29129072 -122.44089339 54.89592912 -121.14453125 53.5 C-105.67444024 37.32778686 -86.78795028 25.74992001 -66.6875 16.23828125 C-65.56859375 15.70203125 -64.4496875 15.16578125 -63.296875 14.61328125 C-43.84706141 5.76407696 -21.37983272 0.21388928 0 0 Z M-93.015625 91.9765625 C-102.96730327 104.67978096 -108.30017996 118.28758292 -108.125 134.48828125 C-108.11670166 135.49189697 -108.10840332 136.4955127 -108.09985352 137.52954102 C-107.90910053 145.98444657 -106.65644403 153.2680803 -103.6875 161.23828125 C-103.45675781 161.86186523 -103.22601563 162.48544922 -102.98828125 163.12792969 C-97.04212139 178.80345428 -87.79710241 192.94790213 -77.6875 206.23828125 C-77.34009766 206.71265625 -77.34009766 206.71265625 -75.58203125 209.11328125 C-65.34374487 223.03010238 -53.98758934 237.43414035 -40.6796875 248.55078125 C-39.27535591 249.74033272 -37.90819187 250.97445424 -36.5703125 252.23828125 C-20.19661771 267.67476118 -0.47173455 278.89863117 20.3125 287.23828125 C21.03244141 287.52944824 21.75238281 287.82061523 22.49414062 288.12060547 C44.09367108 296.75006042 72.22560635 307.25005063 95.2890625 298.48730469 C107.92193896 293.06549507 120.74503254 285.53344102 126.52734375 272.5 C129.15416781 265.59173316 130.46027958 259.07792345 130.6875 251.67578125 C130.71199219 251.12857422 130.71199219 251.12857422 130.8359375 248.359375 C130.12586935 244.12546119 128.55516568 243.03131699 125.3125 240.23828125 C122.5589436 238.55606112 119.69526898 237.15933086 116.78515625 235.76953125 C115.95978867 235.3667395 115.13442108 234.96394775 114.28404236 234.5489502 C112.539032 233.70032568 110.79153754 232.8567925 109.04174805 232.01806641 C106.40857554 230.75439431 103.78497621 229.47240117 101.16210938 228.1875 C75.06526953 215.4947648 75.06526953 215.4947648 69.56103516 216.98144531 C66.55714803 218.66049101 65.20839255 220.66578101 63.25 223.48828125 C59.65948097 228.48115788 55.89632344 233.21039023 51.875 237.86328125 C51.35478271 238.46688477 50.83456543 239.07048828 50.29858398 239.69238281 C44.68289534 246.17109855 44.68289534 246.17109855 42.48461914 246.56982422 C36.12207318 246.67293574 31.44661345 245.09036548 25.75 242.36328125 C24.8844751 241.95980469 24.0189502 241.55632812 23.12719727 241.140625 C10.37791888 235.05225622 -1.06895978 227.57072498 -11.6875 218.23828125 C-12.53828125 217.50867188 -13.3890625 216.7790625 -14.265625 216.02734375 C-24.97864086 206.66167038 -33.37086323 196.05754758 -41.29492188 184.30371094 C-42.2303275 182.91634565 -43.18521846 181.54193809 -44.15820312 180.18066406 C-47.17390391 175.77587466 -48.62201916 172.74227684 -47.6875 167.23828125 C-45.96484375 164.46484375 -45.96484375 164.46484375 -43.625 161.86328125 C-42.80644531 160.92226562 -41.98789063 159.98125 -41.14453125 159.01171875 C-40.73912109 158.55410156 -40.73912109 158.55410156 -38.6875 156.23828125 C-28.438981 143.94005845 -28.438981 143.94005845 -28.89746094 137.11083984 C-29.85396587 132.42231039 -31.47420329 128.29917115 -33.328125 123.90234375 C-33.69218445 123.0235556 -34.0562439 122.14476746 -34.43133545 121.23934937 C-35.20081615 119.38710967 -35.97427174 117.53651685 -36.75146484 115.6875 C-37.92919579 112.88305546 -39.09248779 110.07295207 -40.25390625 107.26171875 C-41.00695767 105.45407073 -41.76083745 103.64676753 -42.515625 101.83984375 C-42.85853577 101.01142975 -43.20144653 100.18301575 -43.55474854 99.32949829 C-50.68962165 82.430744 -50.68962165 82.430744 -57.6875 79.23828125 C-60.50663935 78.73957592 -63.2062474 78.71269741 -66.0625 78.80078125 C-66.44079956 78.80847534 -66.44079956 78.80847534 -68.35522461 78.84741211 C-79.41138438 79.23113222 -85.91265413 83.62222932 -93.015625 91.9765625 Z " fill="#000000" transform="translate(244.6875,67.76171875)"/>
<path d="M0 0 C0.90045044 -0.00705963 1.80090088 -0.01411926 2.7286377 -0.02139282 C40.56271231 -0.2507174 40.56271231 -0.2507174 57.20703125 3.203125 C57.70388428 3.30512207 57.70388428 3.30512207 60.21826172 3.82128906 C82.21378087 8.47295034 102.99514255 15.36588877 123.20703125 25.203125 C123.94405273 25.56132324 124.68107422 25.91952148 125.44042969 26.28857422 C146.6657776 36.74806569 165.58609165 50.6376293 182.74511719 66.84277344 C184.81180318 68.76588204 186.94648642 70.60714557 189.08203125 72.453125 C193.18088484 76.08332564 196.7054409 80.00268783 200.20703125 84.203125 C200.944375 85.05261719 201.68171875 85.90210937 202.44140625 86.77734375 C231.86153935 121.11644815 250.66795535 162.71381082 258.20703125 207.203125 C258.26858398 207.56108154 258.26858398 207.56108154 258.58007812 209.37255859 C267.68603537 263.64460256 256.79817524 318.946266 231.20703125 367.203125 C230.90023437 367.78191406 230.90023437 367.78191406 229.34765625 370.7109375 C221.75421537 384.4858158 212.47763599 397.30286711 202.20703125 409.203125 C201.54960937 409.97140625 200.8921875 410.7396875 200.21484375 411.53125 C189.88233201 423.30641433 178.73845402 434.77192401 166.20703125 444.203125 C165.58699219 444.67782227 164.96695312 445.15251953 164.328125 445.64160156 C152.55966311 454.61309978 140.27962493 462.27737531 127.20703125 469.203125 C126.36833496 469.64785156 125.52963867 470.09257812 124.66552734 470.55078125 C90.22658831 488.51076503 51.70751753 496.89934631 13.01953125 496.640625 C12.04456696 496.63758362 11.06960266 496.63454224 10.06509399 496.63140869 C-5.8588139 496.55831034 -21.18564338 495.59368189 -36.79296875 492.203125 C-37.82067383 491.98350098 -38.84837891 491.76387695 -39.90722656 491.53759766 C-58.44163551 487.46970082 -76.54237804 482.06175447 -93.26489258 472.9597168 C-93.62723999 472.77300415 -93.62723999 472.77300415 -95.4609375 471.828125 C-96.08250732 471.49039062 -96.70407715 471.15265625 -97.34448242 470.8046875 C-106.19999199 468.62899944 -116.85643242 473.1366299 -125.46484375 475.421875 C-127.07652476 475.844629 -128.6883644 476.2667787 -130.300354 476.68835449 C-134.52153637 477.79381453 -138.7407586 478.90657244 -142.95953369 480.0211792 C-149.72429555 481.80686409 -156.492272 483.58034402 -163.25974274 485.35572815 C-165.61609581 485.97485099 -167.97177728 486.59647365 -170.32733154 487.21862793 C-171.7738795 487.59954921 -173.22043277 487.98045036 -174.66699219 488.36132812 C-175.29628632 488.5274762 -175.29628632 488.5274762 -178.480896 489.36828613 C-189.2964727 492.09445324 -199.02569971 492.23538447 -209.140625 486.984375 C-217.45973535 481.84736003 -224.26225257 474.92070736 -227.08860779 465.39718628 C-229.87456701 452.76371432 -226.67812678 441.15801167 -223.1640625 429.0703125 C-222.68883139 427.37793341 -222.21564898 425.68497785 -221.74440002 423.9914856 C-220.51247028 419.57971845 -219.25957188 415.17423482 -217.99987793 410.77032471 C-215.97639416 403.69005773 -213.97675172 396.60319632 -211.99391365 389.51144791 C-211.29987008 387.04620107 -210.59137185 384.58544051 -209.88145447 382.12472534 C-209.45615282 380.61699462 -209.03136577 379.10911862 -208.60717773 377.60107422 C-208.40721695 376.92260941 -208.20725616 376.24414459 -208.00123596 375.54512024 C-206.40547253 369.78285506 -207.14537255 366.10980046 -209.796875 360.89453125 C-210.20389648 360.07686279 -210.61091797 359.25919434 -211.03027344 358.41674805 C-211.46758789 357.54187744 -211.90490234 356.66700684 -212.35546875 355.765625 C-221.32616945 337.29132663 -227.55485622 318.28795453 -231.79296875 298.203125 C-232.00469727 297.23004395 -232.21642578 296.25696289 -232.43457031 295.25439453 C-238.90064835 264.26128356 -238.49072097 229.10516798 -231.79296875 198.203125 C-231.58397949 197.19813965 -231.37499023 196.1931543 -231.15966797 195.15771484 C-219.51129998 140.33621968 -187.93668076 88.90880386 -143.79296875 54.203125 C-142.83003906 53.42324219 -141.86710937 52.64335938 -140.875 51.83984375 C-101.65068283 20.66918866 -50.39913181 0.26472932 0 0 Z M-121.79296875 69.203125 C-122.72882813 69.90953125 -123.6646875 70.6159375 -124.62890625 71.34375 C-131.36302064 76.56959271 -137.613529 82.34178796 -143.79296875 88.203125 C-144.29618652 88.67766113 -144.7994043 89.15219727 -145.31787109 89.64111328 C-153.31688387 97.23361463 -160.20551764 105.36934084 -166.79296875 114.203125 C-167.21819824 114.76225586 -167.64342773 115.32138672 -168.08154297 115.89746094 C-175.33766982 125.45512744 -181.27157704 135.55870076 -186.79296875 146.203125 C-187.18371582 146.95190918 -187.57446289 147.70069336 -187.97705078 148.47216797 C-203.90904592 179.3934762 -211.24953041 213.19208054 -211.10546875 247.828125 C-211.1033136 248.75954315 -211.10115845 249.6909613 -211.09893799 250.65060425 C-211.04910746 264.05948187 -210.68205016 277.06338549 -207.79296875 290.203125 C-207.69363037 290.68313965 -207.69363037 290.68313965 -207.19091797 293.11230469 C-202.75185609 314.32004753 -196.17753342 333.92412115 -185.65380859 352.91040039 C-185.40348877 353.37893433 -185.40348877 353.37893433 -184.13671875 355.75 C-183.68490234 356.56307617 -183.23308594 357.37615234 -182.76757812 358.21386719 C-179.43732692 368.42819479 -183.53535791 378.80424997 -186.3515625 388.70703125 C-186.82130934 390.39717167 -187.28971572 392.08768516 -187.7568512 393.77854919 C-188.98360011 398.20858169 -190.22438341 402.6345425 -191.46948242 407.05944824 C-193.46127669 414.14255495 -195.43668761 421.23017941 -197.40226936 428.32060051 C-198.08771129 430.78228623 -198.78231883 433.24124878 -199.47789001 435.7000885 C-204.87627655 454.95317804 -204.87627655 454.95317804 -202.16796875 460.578125 C-199.69127787 463.31552019 -198.24707686 464.89823971 -194.79296875 466.203125 C-188.90712623 466.07293797 -183.2187029 464.71388948 -177.5703125 463.16186523 C-176.80316925 462.95689423 -176.036026 462.75192322 -175.24563599 462.54074097 C-173.59660516 462.09940293 -171.94834679 461.6551701 -170.30081177 461.20828056 C-167.68662436 460.49983694 -165.07015111 459.80049337 -162.45288086 459.10353088 C-155.01755261 457.12192396 -147.58641546 455.12485337 -140.15722656 453.12036133 C-135.59763404 451.89079361 -131.03522215 450.67218736 -126.47097778 449.46000862 C-124.7412076 448.99819374 -123.01256064 448.53214889 -121.28512573 448.06167412 C-118.86457061 447.40254417 -116.44066514 446.75739109 -114.015625 446.11499023 C-113.31406281 445.92019577 -112.61250061 445.72540131 -111.88967896 445.52470398 C-104.68694427 443.64768062 -97.85354203 443.10087888 -91.0703125 446.546875 C-90.04977783 447.04759521 -89.02924316 447.54831543 -87.9777832 448.06420898 C-87.44197632 448.33463013 -87.44197632 448.33463013 -84.73046875 449.703125 C-30.5679083 475.77940207 30.05118291 478.52320589 86.83691406 459.31347656 C112.7797188 450.15302464 136.42668545 436.15128421 157.20703125 418.203125 C158.01011719 417.51089844 158.81320312 416.81867188 159.640625 416.10546875 C171.3984434 405.73977605 181.85896383 394.7784178 191.20703125 382.203125 C191.4189209 381.92428467 191.4189209 381.92428467 192.49121094 380.51318359 C199.74919455 370.95395613 205.68452204 360.84970363 211.20703125 350.203125 C211.59777832 349.45434082 211.98852539 348.70555664 212.39111328 347.93408203 C228.4700369 316.72761047 235.65995124 282.70093301 235.58203125 247.765625 C235.58148743 246.84381439 235.5809436 245.92200378 235.5803833 244.97225952 C235.53993601 230.01598212 234.56422229 215.82607518 231.20703125 201.203125 C231.00335938 200.26130371 230.7996875 199.31948242 230.58984375 198.34912109 C224.64691462 171.26202048 213.47110107 144.74230837 197.20703125 122.203125 C196.85898437 121.7184375 196.85898437 121.7184375 195.09765625 119.265625 C181.40423172 100.61925969 165.6109232 83.08572812 146.85742188 69.41357422 C145.21982366 68.21250736 143.61140756 66.97923693 142.00390625 65.73828125 C66.14810658 8.20190139 -47.2407786 11.78887317 -121.79296875 69.203125 Z " fill="#000000" transform="translate(243.79296875,7.796875)"/>
</svg>
