<?xml version="1.0" encoding="UTF-8"?>
<!-- Generator: visioncortex VTracer 0.6.12 -->
<svg version="1.1" xmlns="http://www.w3.org/2000/svg" width="512" height="512">
<path d="M0 0 C0.77988281 0.66902344 1.55976563 1.33804688 2.36328125 2.02734375 C14.23921658 12.46494976 25.34253797 23.56457662 34.74121094 36.296875 C35.97069396 37.96034931 37.22216212 39.60527552 38.4765625 41.25 C74.66476777 89.46985084 89.19859163 152.54493693 81.48095703 211.97167969 C74.91035525 256.70985444 56.57788551 298.7375875 27 333 C26.33097656 333.77988281 25.66195313 334.55976563 24.97265625 335.36328125 C14.53505024 347.23921658 3.43542338 358.34253797 -9.296875 367.74121094 C-10.96034931 368.97069396 -12.60527552 370.22216212 -14.25 371.4765625 C-63.3093786 408.29481955 -127.3009878 422.42789925 -187.6171875 414.0390625 C-212.43109405 410.19508498 -235.26400769 402.59914788 -257.91381836 391.94213867 C-258.6022583 391.63123291 -259.29069824 391.32032715 -260 391 C-260.73021866 390.62411743 -261.46043732 390.24823486 -262.21278381 389.86096191 C-265.86128219 388.73395276 -267.99041415 389.3485671 -271.68164062 390.2824707 C-272.33560003 390.44343924 -272.98955944 390.60440777 -273.6633358 390.77025414 C-275.83151529 391.30773834 -277.99355646 391.86666746 -280.15625 392.42578125 C-281.68627582 392.80952645 -283.21664865 393.1918904 -284.74734497 393.57295227 C-287.9906817 394.3833337 -291.23145986 395.2030268 -294.47052002 396.03033447 C-299.49260744 397.31292136 -304.51991104 398.57408315 -309.54833984 399.83154297 C-316.09899323 401.47151534 -322.64765931 403.1191266 -329.19433594 404.77490234 C-338.91454217 407.23301404 -348.63815928 409.67668984 -358.37475586 412.06918335 C-360.5622904 412.60951055 -362.74699947 413.16026852 -364.93164062 413.7121582 C-366.20458984 414.02628662 -367.47753906 414.34041504 -368.7890625 414.6640625 C-369.83787598 414.92654785 -370.88668945 415.1890332 -371.96728516 415.45947266 C-375.99147567 416.17671286 -380.23720569 416.92002412 -383.9609375 414.9765625 C-388.92906396 410.22802174 -388.92906396 410.22802174 -389.18177795 405.8531189 C-388.99087317 401.80653995 -388.20761809 398.21476616 -387.09155273 394.35009766 C-386.88821823 393.61870071 -386.68488373 392.88730377 -386.47538757 392.13374329 C-385.80335212 389.72469085 -385.11855329 387.31946906 -384.43359375 384.9140625 C-383.95632487 383.21298063 -383.47986382 381.51167192 -383.00416565 379.81015015 C-381.74732687 375.32287433 -380.47966391 370.83872718 -379.20965576 366.35516357 C-377.94521832 361.88440623 -376.69079033 357.41084556 -375.43554688 352.9375 C-374.45605081 349.45043042 -373.4761013 345.96348836 -372.49609375 342.4765625 C-372.25666424 341.624394 -372.01723473 340.77222549 -371.77054977 339.8942337 C-369.44120248 331.60725135 -367.10298533 323.32400333 -364.68798828 315.06152344 C-364.35090347 313.89624115 -364.01381866 312.73095886 -363.66651917 311.53036499 C-363.05999358 309.43746587 -362.44477545 307.3470556 -361.81871033 305.25991821 C-361.55892899 304.35865204 -361.29914764 303.45738586 -361.03149414 302.52880859 C-360.80579239 301.7661972 -360.58009064 301.00358582 -360.34754944 300.21786499 C-359.68315253 295.97805768 -361.05656485 292.52269688 -362.96875 288.796875 C-363.37061523 287.99483643 -363.77248047 287.19279785 -364.18652344 286.36645508 C-364.6199707 285.5030249 -365.05341797 284.63959473 -365.5 283.75 C-392.77596601 227.6373313 -397.10893856 161.72242945 -376.6875 102.625 C-366.63737665 74.80874382 -352.34657637 49.41067503 -333 27 C-332.33097656 26.22011719 -331.66195312 25.44023438 -330.97265625 24.63671875 C-320.53505024 12.76078342 -309.43542338 1.65746203 -296.703125 -7.74121094 C-295.03965069 -8.97069396 -293.39472448 -10.22216212 -291.75 -11.4765625 C-212.55551526 -70.91072126 -96.99796264 -70.86160417 0 0 Z M-263.23828125 84.828125 C-274.31860519 100.43656626 -277.10209603 118.47217969 -274.71582031 137.234375 C-270.16578316 162.02170878 -254.16014086 182.75764966 -239 202 C-238.53529297 202.59361328 -238.07058594 203.18722656 -237.59179688 203.79882812 C-224.87179561 219.99356144 -210.24632331 235.34112079 -194 248 C-193.05253906 248.77601563 -192.10507813 249.55203125 -191.12890625 250.3515625 C-160.12883595 275.23059981 -117.19168158 294.9160573 -76.9609375 291.76171875 C-62.28278328 289.33172332 -47.36421653 280.57057987 -38 269 C-32.62082339 261.00957261 -30.8875607 251.0688679 -30.25 241.625 C-30.17265625 240.50351562 -30.0953125 239.38203125 -30.015625 238.2265625 C-31.59105444 233.06265488 -35.41294926 231.47904021 -40 229 C-43.89122035 226.9577114 -47.83325067 225.05175021 -51.8125 223.1875 C-52.89966309 222.67340576 -53.98682617 222.15931152 -55.10693359 221.62963867 C-58.40057134 220.07761113 -61.6997668 218.53794365 -65 217 C-65.98822754 216.5349707 -66.97645508 216.06994141 -67.99462891 215.59082031 C-70.69964924 214.32000539 -73.41066335 213.06327168 -76.125 211.8125 C-76.52384399 211.62538452 -76.52384399 211.62538452 -78.54223633 210.6784668 C-82.98609412 208.6615621 -87.03767523 206.92410562 -92 207 C-96.59808274 210.01194461 -99.53628817 213.70238569 -102.8125 218.125 C-103.67599534 219.27035232 -104.54060148 220.41486793 -105.40625 221.55859375 C-105.83679688 222.13077637 -106.26734375 222.70295898 -106.7109375 223.29248047 C-108.71606577 225.94851591 -110.74853439 228.57658351 -112.8125 231.1875 C-113.49957031 232.06792969 -114.18664062 232.94835937 -114.89453125 233.85546875 C-117.33182109 236.33797732 -118.5825891 237.29935927 -122 238 C-128.483842 237.3821522 -134.26747005 234.81972934 -140.0625 232 C-140.88105469 231.60554687 -141.69960938 231.21109375 -142.54296875 230.8046875 C-155.08102596 224.63270268 -166.51327297 217.26301738 -177 208 C-177.98613281 207.14664063 -178.97226563 206.29328125 -179.98828125 205.4140625 C-191.10987846 195.6368925 -199.81587412 184.27618882 -208 172 C-208.55171875 171.22398437 -209.1034375 170.44796875 -209.671875 169.6484375 C-211.75658255 166.6150709 -212.94436109 164.21460722 -213.875 160.625 C-212.6858321 155.69844727 -210.00418408 153.28749824 -206.52734375 149.6953125 C-202.56678366 145.47153126 -199.20734924 140.8148696 -196 136 C-195.59652344 135.39929688 -195.19304687 134.79859375 -194.77734375 134.1796875 C-191.64770993 125.40413136 -196.33855809 117.68700207 -199.9375 109.8125 C-200.53658668 108.47724834 -201.13431348 107.14138575 -201.73071289 105.80493164 C-202.62973689 103.7906187 -203.52972563 101.77682224 -204.43553162 99.76554871 C-206.25383582 95.71954789 -207.99022937 91.6509156 -209.65625 87.5390625 C-210.0469165 86.58281982 -210.43758301 85.62657715 -210.84008789 84.64135742 C-211.5493643 82.89380764 -212.24729506 81.14159075 -212.93139648 79.3840332 C-215.04401984 74.2562602 -217.04175356 70.88708021 -222 68 C-225.48605232 67.33537838 -228.8362976 67.34529437 -232.375 67.4375 C-232.82875 67.43202148 -232.82875 67.43202148 -235.125 67.40429688 C-248.1329836 67.54487307 -255.4574538 74.99685262 -263.23828125 84.828125 Z " fill="#000000" transform="translate(409,76)"/>
</svg>
