<?xml version="1.0" encoding="UTF-8"?>
<!-- Generator: visioncortex VTracer 0.6.12 -->
<svg version="1.1" xmlns="http://www.w3.org/2000/svg" width="512" height="512">
<path d="M0 0 C1.57618821 1.48734153 3.14070237 2.98528839 4.69677734 4.49365234 C6.1371267 5.88871066 7.59369733 7.26696078 9.05078125 8.64453125 C47.77121298 46.05054945 68.40641294 101.01999925 69.47094727 154.25073242 C69.86437296 199.0979554 57.18070846 243.20187762 31.1875 279.9375 C30.72263184 280.60297852 30.25776367 281.26845703 29.77880859 281.95410156 C22.14441025 292.80201852 13.53903784 302.54194883 4.1875 311.9375 C3.68283203 312.44619629 3.17816406 312.95489258 2.65820312 313.47900391 C-30.27584708 346.22105176 -75.28477287 365.00681239 -120.8125 370.9375 C-121.80636719 371.07027344 -122.80023438 371.20304687 -123.82421875 371.33984375 C-161.40414926 375.34471226 -204.12417836 369.58903649 -237.3984375 351.08984375 C-244.79373171 348.59372042 -253.01055952 351.2786735 -260.34204102 353.25415039 C-260.78908386 353.37126625 -260.78908386 353.37126625 -263.0513916 353.96394348 C-264.97443835 354.46865177 -266.89659967 354.97674387 -268.81793404 355.48793221 C-271.8646914 356.29799415 -274.91396442 357.09787005 -277.96409607 357.89512634 C-286.62944314 360.16217114 -295.28970935 362.44837464 -303.94897461 364.73852539 C-309.26194751 366.14292651 -314.57764934 367.53658541 -319.8950634 368.92407036 C-321.91229208 369.45287832 -323.92841608 369.98591987 -325.94336128 370.52336311 C-328.76383702 371.27565137 -331.58757473 372.0143052 -334.41235352 372.75024414 C-335.23390427 372.97309082 -336.05545502 373.1959375 -336.90190125 373.42553711 C-343.1205951 375.02312233 -349.63366622 376.31960164 -355.6875 373.6875 C-360.64325768 369.60628779 -360.64325768 369.60628779 -361.00424671 366.0468111 C-361.04819678 360.40564539 -360.21490122 355.52534998 -358.65698242 350.11987305 C-358.54234901 349.70457336 -358.54234901 349.70457336 -357.9622345 347.60290527 C-357.20831388 344.88186007 -356.43823037 342.16567878 -355.66796875 339.44921875 C-355.13601345 337.54056201 -354.60513239 335.63160559 -354.07527161 333.72236633 C-352.68091006 328.70840556 -351.27300142 323.6983521 -349.86187744 318.68908691 C-348.15721645 312.62879438 -346.46786205 306.56422201 -344.77689838 300.50009632 C-343.45932344 295.7757832 -342.13936746 291.05218533 -340.81156921 286.33073425 C-339.6624442 282.24201101 -338.52457404 278.15035594 -337.39781952 274.05541229 C-336.8566995 272.09743087 -336.3048896 270.14241221 -335.75213623 268.18768311 C-335.46324524 267.12277649 -335.17435425 266.05786987 -334.87670898 264.96069336 C-334.63170151 264.0757872 -334.38669403 263.19088104 -334.13426208 262.27915955 C-333.55298686 258.04886414 -335.40818481 255.23426765 -337.6875 251.8125 C-338.55331059 250.34829792 -339.41119236 248.8793829 -340.26171875 247.40625 C-340.69532715 246.66632813 -341.12893555 245.92640625 -341.57568359 245.1640625 C-351.90200669 226.5742349 -356.25801872 203.82623633 -358.8125 182.9375 C-358.94398438 181.87402344 -359.07546875 180.81054688 -359.2109375 179.71484375 C-364.06167698 129.96198886 -351.77371346 76.43842886 -321.8125 35.9375 C-321.05710937 34.91140625 -320.30171875 33.8853125 -319.5234375 32.828125 C-308.09380518 17.55109836 -295.73594777 3.86782689 -280.8125 -8.0625 C-280.42835938 -8.38605469 -280.42835938 -8.38605469 -278.484375 -10.0234375 C-247.67268267 -35.69984778 -209.22804949 -49.92801766 -169.8125 -55.0625 C-168.81863281 -55.19527344 -167.82476562 -55.32804687 -166.80078125 -55.46484375 C-106.73815591 -61.86567828 -44.29000017 -40.89628221 0 0 Z " fill="#40C351" transform="translate(401.8125,98.0625)"/>
<path d="M0 0 C1.57618821 1.48734153 3.14070237 2.98528839 4.69677734 4.49365234 C6.1371267 5.88871066 7.59369733 7.26696078 9.05078125 8.64453125 C47.77121298 46.05054945 68.40641294 101.01999925 69.47094727 154.25073242 C69.86437296 199.0979554 57.18070846 243.20187762 31.1875 279.9375 C30.72263184 280.60297852 30.25776367 281.26845703 29.77880859 281.95410156 C22.14441025 292.80201852 13.53903784 302.54194883 4.1875 311.9375 C3.68283203 312.44619629 3.17816406 312.95489258 2.65820312 313.47900391 C-30.27584708 346.22105176 -75.28477287 365.00681239 -120.8125 370.9375 C-121.80636719 371.07027344 -122.80023438 371.20304687 -123.82421875 371.33984375 C-161.40414926 375.34471226 -204.12417836 369.58903649 -237.3984375 351.08984375 C-244.79373171 348.59372042 -253.01055952 351.2786735 -260.34204102 353.25415039 C-260.78908386 353.37126625 -260.78908386 353.37126625 -263.0513916 353.96394348 C-264.97443835 354.46865177 -266.89659967 354.97674387 -268.81793404 355.48793221 C-271.8646914 356.29799415 -274.91396442 357.09787005 -277.96409607 357.89512634 C-286.62944314 360.16217114 -295.28970935 362.44837464 -303.94897461 364.73852539 C-309.26194751 366.14292651 -314.57764934 367.53658541 -319.8950634 368.92407036 C-321.91229208 369.45287832 -323.92841608 369.98591987 -325.94336128 370.52336311 C-328.76383702 371.27565137 -331.58757473 372.0143052 -334.41235352 372.75024414 C-335.23390427 372.97309082 -336.05545502 373.1959375 -336.90190125 373.42553711 C-343.1205951 375.02312233 -349.63366622 376.31960164 -355.6875 373.6875 C-360.64325768 369.60628779 -360.64325768 369.60628779 -361.00424671 366.0468111 C-361.04819678 360.40564539 -360.21490122 355.52534998 -358.65698242 350.11987305 C-358.54234901 349.70457336 -358.54234901 349.70457336 -357.9622345 347.60290527 C-357.20831388 344.88186007 -356.43823037 342.16567878 -355.66796875 339.44921875 C-355.13601345 337.54056201 -354.60513239 335.63160559 -354.07527161 333.72236633 C-352.68091006 328.70840556 -351.27300142 323.6983521 -349.86187744 318.68908691 C-348.15721645 312.62879438 -346.46786205 306.56422201 -344.77689838 300.50009632 C-343.45932344 295.7757832 -342.13936746 291.05218533 -340.81156921 286.33073425 C-339.6624442 282.24201101 -338.52457404 278.15035594 -337.39781952 274.05541229 C-336.8566995 272.09743087 -336.3048896 270.14241221 -335.75213623 268.18768311 C-335.46324524 267.12277649 -335.17435425 266.05786987 -334.87670898 264.96069336 C-334.63170151 264.0757872 -334.38669403 263.19088104 -334.13426208 262.27915955 C-333.55298686 258.04886414 -335.40818481 255.23426765 -337.6875 251.8125 C-338.55331059 250.34829792 -339.41119236 248.8793829 -340.26171875 247.40625 C-340.69532715 246.66632813 -341.12893555 245.92640625 -341.57568359 245.1640625 C-351.90200669 226.5742349 -356.25801872 203.82623633 -358.8125 182.9375 C-358.94398438 181.87402344 -359.07546875 180.81054688 -359.2109375 179.71484375 C-364.06167698 129.96198886 -351.77371346 76.43842886 -321.8125 35.9375 C-321.05710937 34.91140625 -320.30171875 33.8853125 -319.5234375 32.828125 C-308.09380518 17.55109836 -295.73594777 3.86782689 -280.8125 -8.0625 C-280.42835938 -8.38605469 -280.42835938 -8.38605469 -278.484375 -10.0234375 C-247.67268267 -35.69984778 -209.22804949 -49.92801766 -169.8125 -55.0625 C-168.81863281 -55.19527344 -167.82476562 -55.32804687 -166.80078125 -55.46484375 C-106.73815591 -61.86567828 -44.29000017 -40.89628221 0 0 Z M-187.8125 -6.0625 C-188.55790039 -5.85351074 -189.30330078 -5.64452148 -190.07128906 -5.42919922 C-224.57547752 4.43441782 -257.15673223 25.03674959 -278.8125 53.9375 C-279.21146484 54.45957031 -279.21146484 54.45957031 -281.23046875 57.1015625 C-296.35782717 77.28807059 -306.57796553 100.2770829 -311.8125 124.9375 C-311.99868896 125.77659912 -312.18487793 126.61569824 -312.37670898 127.48022461 C-314.10050487 136.26169611 -314.15072394 144.97494024 -314.12817383 153.88891602 C-314.12503488 156.47130453 -314.14847579 159.05251954 -314.17382812 161.63476562 C-314.23196061 176.67334284 -312.69939884 191.60640365 -308.125 206 C-307.87081299 206.81887695 -307.61662598 207.63775391 -307.35473633 208.48144531 C-302.32049733 224.14620096 -294.94079699 239.24505452 -285.8125 252.9375 C-286.21338208 259.78046383 -288.39092013 266.46063617 -290.125 273.0625 C-290.27291992 273.63613281 -290.27291992 273.63613281 -291.02148438 276.5390625 C-292.81330709 283.41223129 -294.76707164 290.21320556 -296.89624023 296.98950195 C-300.8125 309.58977818 -300.8125 309.58977818 -300.8125 314.9375 C-293.5921814 314.31887935 -286.72164806 312.50454807 -279.73339844 310.66381836 C-277.71420122 310.13203217 -275.6932745 309.60732964 -273.671875 309.08398438 C-263.76900174 306.50858437 -253.91050427 303.78498943 -244.11694336 300.81787109 C-236.22127062 298.71430287 -230.57171696 302.38106003 -223.875 306.125 C-209.09571468 314.08642972 -194.69119183 318.90330779 -178.27709961 322.40136719 C-176.7112334 322.74199544 -175.15079234 323.10951625 -173.59985352 323.51269531 C-165.79294811 325.39888252 -157.9467492 325.23957418 -149.96411133 325.19824219 C-147.51553315 325.18756772 -145.06769588 325.19816029 -142.61914062 325.2109375 C-133.48910033 325.2188524 -124.81252222 324.62887921 -115.8125 322.9375 C-114.58917969 322.76089844 -113.36585938 322.58429688 -112.10546875 322.40234375 C-82.84480313 317.43355148 -54.48083961 302.10866086 -32.9609375 281.91015625 C-30.8125 279.9375 -30.8125 279.9375 -28.2421875 277.90625 C-24.61855174 274.9700564 -21.80325643 271.49993019 -18.8125 267.9375 C-18.12027344 267.133125 -17.42804688 266.32875 -16.71484375 265.5 C2.28242128 242.98472293 15.02417234 215.96547624 20.1875 186.9375 C20.35668945 186.12023437 20.52587891 185.30296875 20.70019531 184.4609375 C22.27258207 176.28340921 22.49472065 168.25034963 22.44824219 159.95751953 C22.43758033 157.7044747 22.44816695 155.45223862 22.4609375 153.19921875 C22.4758374 139.63744243 21.31958811 126.35970615 17.625 113.25 C17.3681543 112.33065674 17.11130859 111.41131348 16.84667969 110.46411133 C9.10033868 83.90684575 -4.84479045 60.92464671 -23.8125 40.9375 C-24.25819336 40.4645752 -24.70388672 39.99165039 -25.16308594 39.50439453 C-49.52809571 13.80992815 -80.52666818 -0.83506774 -114.8125 -8.0625 C-115.59947266 -8.25086426 -116.38644531 -8.43922852 -117.19726562 -8.63330078 C-126.58714451 -10.6775176 -136.12524791 -10.4587311 -145.6875 -10.4375 C-146.60290558 -10.43695618 -147.51831116 -10.43641235 -148.4614563 -10.43585205 C-161.94163264 -10.39894797 -174.799727 -9.89237568 -187.8125 -6.0625 Z " fill="#FEFEFE" transform="translate(401.8125,98.0625)"/>
<path d="M0 0 C1.57618821 1.48734153 3.14070237 2.98528839 4.69677734 4.49365234 C6.1371267 5.88871066 7.59369733 7.26696078 9.05078125 8.64453125 C47.77121298 46.05054945 68.40641294 101.01999925 69.47094727 154.25073242 C69.86437296 199.0979554 57.18070846 243.20187762 31.1875 279.9375 C30.72263184 280.60297852 30.25776367 281.26845703 29.77880859 281.95410156 C22.14441025 292.80201852 13.53903784 302.54194883 4.1875 311.9375 C3.68283203 312.44619629 3.17816406 312.95489258 2.65820312 313.47900391 C-30.27584708 346.22105176 -75.28477287 365.00681239 -120.8125 370.9375 C-121.80636719 371.07027344 -122.80023438 371.20304687 -123.82421875 371.33984375 C-161.40414926 375.34471226 -204.12417836 369.58903649 -237.3984375 351.08984375 C-244.79373171 348.59372042 -253.01055952 351.2786735 -260.34204102 353.25415039 C-260.78908386 353.37126625 -260.78908386 353.37126625 -263.0513916 353.96394348 C-264.97443835 354.46865177 -266.89659967 354.97674387 -268.81793404 355.48793221 C-271.8646914 356.29799415 -274.91396442 357.09787005 -277.96409607 357.89512634 C-286.62944314 360.16217114 -295.28970935 362.44837464 -303.94897461 364.73852539 C-309.26194751 366.14292651 -314.57764934 367.53658541 -319.8950634 368.92407036 C-321.91229208 369.45287832 -323.92841608 369.98591987 -325.94336128 370.52336311 C-328.76383702 371.27565137 -331.58757473 372.0143052 -334.41235352 372.75024414 C-335.23390427 372.97309082 -336.05545502 373.1959375 -336.90190125 373.42553711 C-343.1205951 375.02312233 -349.63366622 376.31960164 -355.6875 373.6875 C-360.64325768 369.60628779 -360.64325768 369.60628779 -361.00424671 366.0468111 C-361.04819678 360.40564539 -360.21490122 355.52534998 -358.65698242 350.11987305 C-358.54234901 349.70457336 -358.54234901 349.70457336 -357.9622345 347.60290527 C-357.20831388 344.88186007 -356.43823037 342.16567878 -355.66796875 339.44921875 C-355.13601345 337.54056201 -354.60513239 335.63160559 -354.07527161 333.72236633 C-352.68091006 328.70840556 -351.27300142 323.6983521 -349.86187744 318.68908691 C-348.15721645 312.62879438 -346.46786205 306.56422201 -344.77689838 300.50009632 C-343.45932344 295.7757832 -342.13936746 291.05218533 -340.81156921 286.33073425 C-339.6624442 282.24201101 -338.52457404 278.15035594 -337.39781952 274.05541229 C-336.8566995 272.09743087 -336.3048896 270.14241221 -335.75213623 268.18768311 C-335.46324524 267.12277649 -335.17435425 266.05786987 -334.87670898 264.96069336 C-334.63170151 264.0757872 -334.38669403 263.19088104 -334.13426208 262.27915955 C-333.55298686 258.04886414 -335.40818481 255.23426765 -337.6875 251.8125 C-338.55331059 250.34829792 -339.41119236 248.8793829 -340.26171875 247.40625 C-340.69532715 246.66632813 -341.12893555 245.92640625 -341.57568359 245.1640625 C-351.90200669 226.5742349 -356.25801872 203.82623633 -358.8125 182.9375 C-358.94398438 181.87402344 -359.07546875 180.81054688 -359.2109375 179.71484375 C-364.06167698 129.96198886 -351.77371346 76.43842886 -321.8125 35.9375 C-321.05710937 34.91140625 -320.30171875 33.8853125 -319.5234375 32.828125 C-308.09380518 17.55109836 -295.73594777 3.86782689 -280.8125 -8.0625 C-280.42835938 -8.38605469 -280.42835938 -8.38605469 -278.484375 -10.0234375 C-247.67268267 -35.69984778 -209.22804949 -49.92801766 -169.8125 -55.0625 C-168.81863281 -55.19527344 -167.82476562 -55.32804687 -166.80078125 -55.46484375 C-106.73815591 -61.86567828 -44.29000017 -40.89628221 0 0 Z M-200.3125 -37.875 C-201.3658252 -37.57311768 -202.41915039 -37.27123535 -203.50439453 -36.96020508 C-235.20671735 -27.58978825 -263.52366076 -10.28722478 -287.32080078 12.50878906 C-288.69415496 13.82415218 -290.0789824 15.1275085 -291.46484375 16.4296875 C-298.32771 23.0431921 -304.17405367 30.27795733 -309.8125 37.9375 C-310.22467773 38.49469727 -310.63685547 39.05189453 -311.06152344 39.62597656 C-328.57101309 63.65390635 -340.33749589 91.77553581 -345.8125 120.9375 C-345.99796387 121.90937256 -346.18342773 122.88124512 -346.37451172 123.88256836 C-348.07924224 134.06609018 -348.18478293 144.18958057 -348.18310547 154.4934082 C-348.18745733 157.47080666 -348.22383732 160.44669227 -348.26171875 163.42382812 C-348.33847724 176.6832409 -346.81354708 189.03109191 -343.8125 201.9375 C-343.6523642 202.63587479 -343.49222839 203.33424957 -343.32723999 204.05378723 C-339.4982998 220.57850537 -333.82542227 237.01048484 -324.78662109 251.42089844 C-322.44894743 255.4131065 -321.45393374 258.03741626 -322.328125 262.65234375 C-322.79904526 264.42059313 -323.29593236 266.1820429 -323.8125 267.9375 C-324.34481584 270.07851796 -324.87324415 272.22050502 -325.3984375 274.36328125 C-325.99188484 276.65960735 -326.58828761 278.95517151 -327.1875 281.25 C-327.47882813 282.38373047 -327.77015625 283.51746094 -328.0703125 284.68554688 C-329.83466398 291.47597856 -331.77814184 298.1844285 -333.87060547 304.88061523 C-335.24212323 309.33182672 -336.47550499 313.81567465 -337.6875 318.3125 C-337.93725586 319.23224609 -338.18701172 320.15199219 -338.44433594 321.09960938 C-340.62595783 329.16698021 -342.73491823 337.25323668 -344.80810547 345.34912109 C-345.76630927 349.06621119 -346.73488156 352.71188906 -347.984375 356.34375 C-348.8125 358.9375 -348.8125 358.9375 -348.8125 362.9375 C-343.28453403 362.3361297 -338.03233275 361.38523705 -332.6484375 360.01171875 C-331.89390289 359.82285599 -331.13936829 359.63399323 -330.36196899 359.43940735 C-328.77313911 359.04069866 -327.18487717 358.63972049 -325.59716797 358.23657227 C-323.21582782 357.63218958 -320.8327303 357.03520777 -318.44921875 356.43945312 C-311.53660428 354.70306678 -304.64940551 352.92013229 -297.8046875 350.9296875 C-289.45025583 348.50449947 -281.00909224 346.44998447 -272.5625 344.375 C-269.43157461 343.60573638 -266.30135401 342.83372049 -263.171875 342.05859375 C-262.43118774 341.87630219 -261.69050049 341.69401062 -260.92736816 341.50619507 C-256.16575109 340.32023135 -251.49597215 338.97106946 -246.86425781 337.34008789 C-241.94047651 336.37396279 -238.09169306 338.71183158 -233.875 341 C-186.9152354 365.3117337 -132.05487953 365.97944317 -82.3581543 350.78417969 C-73.17043121 347.86266346 -64.44813053 344.21014554 -55.8125 339.9375 C-55.14250977 339.6060498 -54.47251953 339.27459961 -53.78222656 338.93310547 C-35.15440669 329.5918151 -18.83366492 317.2758847 -3.8125 302.9375 C-2.95914062 302.13699219 -2.10578125 301.33648437 -1.2265625 300.51171875 C5.65794534 293.87696435 11.50126798 286.59785223 17.1875 278.9375 C17.38802979 278.66736084 17.38802979 278.66736084 18.40283203 277.30029297 C35.66220793 253.78321636 46.48174962 227.21736683 53.1875 198.9375 C53.38069824 198.13143311 53.57389648 197.32536621 53.77294922 196.49487305 C64.71360652 149.31118876 53.87017559 96.65771173 29.40234375 55.42578125 C10.10184283 24.57523413 -15.38790397 -0.69517063 -46.8125 -19.0625 C-47.10431152 -19.2368457 -47.10431152 -19.2368457 -48.58105469 -20.11914062 C-60.29950072 -27.06389675 -72.97621406 -31.61899007 -85.8125 -36.0625 C-86.49699219 -36.29984863 -87.18148438 -36.53719727 -87.88671875 -36.78173828 C-91.81695145 -38.10808337 -95.77332938 -39.12569128 -99.8125 -40.0625 C-100.49683105 -40.24151855 -101.18116211 -40.42053711 -101.88623047 -40.60498047 C-116.48463748 -44.3324341 -131.08802902 -44.46473642 -146.0625 -44.5 C-147.04210693 -44.50608276 -148.02171387 -44.51216553 -149.03100586 -44.51843262 C-166.63798807 -44.5898262 -183.35880766 -42.78909308 -200.3125 -37.875 Z " fill="#CFD8DC" transform="translate(401.8125,98.0625)"/>
<path d="M0 0 C0.82822266 -0.01933594 1.65644531 -0.03867188 2.50976562 -0.05859375 C6.43227381 -0.02718856 8.70227095 0.22170288 12.01953125 2.4140625 C18.33764536 11.26157493 22.07981674 21.64253294 26.0625 31.6875 C27.01257892 34.07543294 27.96556604 36.46221147 28.921875 38.84765625 C29.33405273 39.88672119 29.74623047 40.92578613 30.17089844 41.99633789 C31.3125 44.625 31.3125 44.625 33.3125 47.625 C33.82166908 52.34931569 32.98706626 54.89736214 30.375 58.8125 C29.7459375 59.75867188 29.116875 60.70484375 28.46875 61.6796875 C25.55189139 65.66394727 22.34975619 69.36185085 19.03515625 73.01953125 C16.9144582 76.22702694 16.80841044 77.84432829 17.3125 81.625 C27.34187685 108.7085493 56.18605857 129.92053108 81.3125 141.625 C82.36566406 142.17542969 83.41882813 142.72585938 84.50390625 143.29296875 C88.50264859 145.18945156 90.11308655 145.11970648 94.3125 143.625 C100.38108145 138.26970331 105.15108729 131.40766834 109.95043945 124.91699219 C111.94490087 122.2457877 113.50330636 120.49779576 116.3125 118.625 C122.37420523 118.88588352 127.43264073 121.08215116 132.9375 123.5 C133.84032715 123.89203613 134.7431543 124.28407227 135.67333984 124.68798828 C142.5485639 127.72714848 149.26992556 131.03072134 155.9375 134.5 C156.83162598 134.96390137 157.72575195 135.42780273 158.64697266 135.90576172 C165.93194408 139.77365052 165.93194408 139.77365052 168.3125 142.625 C169.95752145 152.79152897 167.30778342 162.95535639 162.5625 171.9375 C162.19125 172.3809375 162.19125 172.3809375 160.3125 174.625 C159.8278125 175.23472656 159.343125 175.84445312 158.84375 176.47265625 C150.67281258 185.77247318 137.58612903 191.78151077 125.3125 192.625 C124.27996094 192.73972656 123.24742187 192.85445312 122.18359375 192.97265625 C89.46780193 194.9831239 51.52913521 173.79861184 27.37109375 153.10546875 C25.72175967 151.62736324 24.08519994 150.13481609 22.46484375 148.625 C20.48380806 146.78418281 18.44812746 145.04775357 16.375 143.3125 C-5.84500611 123.80333463 -32.85856134 89.7956185 -36.6875 59.625 C-37.90028307 40.38021349 -35.13847627 25.27981826 -22.3125 10.3125 C-15.81409471 2.95007453 -9.79496032 -0.23192487 0 0 Z " fill="#FDFEFD" transform="translate(189.6875,161.375)"/>
</svg>
