<?xml version="1.0" encoding="UTF-8"?>
<!-- Generator: visioncortex VTracer 0.6.12 -->
<svg version="1.1" xmlns="http://www.w3.org/2000/svg" width="512" height="512">
<path d="M0 0 C3.52446595 3.11883412 6.94993758 6.33320936 10.35693359 9.57958984 C11.13552734 10.30533203 11.91412109 11.03107422 12.71630859 11.77880859 C27.43979128 25.90186557 38.91917592 43.60696467 48.35693359 61.57958984 C48.70111328 62.23378906 49.04529297 62.88798828 49.39990234 63.56201172 C64.09929039 91.97519665 70.82812796 123.35921353 70.66943359 155.20458984 C70.66727844 155.98917572 70.66512329 156.7737616 70.66290283 157.5821228 C70.4134141 214.44031534 46.79021891 263.99000179 7.66943359 304.51708984 C1.67104499 310.44119499 -4.88344484 315.56196462 -11.64306641 320.57958984 C-12.18334473 320.98064941 -12.72362305 321.38170898 -13.28027344 321.79492188 C-21.97001709 328.1723962 -31.1110429 333.57414811 -40.64306641 338.57958984 C-41.29726563 338.92376953 -41.95146484 339.26794922 -42.62548828 339.62255859 C-71.06485012 354.3354891 -102.45896972 361.04676725 -134.33056641 360.89208984 C-135.11609894 360.89026703 -135.90163147 360.88844421 -136.71096802 360.88656616 C-149.23756376 360.83780724 -161.35077687 360.151461 -173.64306641 357.57958984 C-174.49819824 357.4079834 -175.35333008 357.23637695 -176.234375 357.05957031 C-191.16123705 354.00541807 -205.53264101 349.63119335 -219.21728516 342.87255859 C-220.15314453 342.41067139 -221.08900391 341.94878418 -222.05322266 341.47290039 C-223.85939124 340.56679947 -225.65576768 339.64081563 -227.43994141 338.69213867 C-228.26365234 338.27343506 -229.08736328 337.85473145 -229.93603516 337.42333984 C-230.29451538 337.23352539 -230.29451538 337.23352539 -232.10864258 336.27294922 C-238.41825023 334.54678741 -245.78430039 337.24975906 -251.94897461 338.89624023 C-252.84265244 339.13047195 -253.73633026 339.36470367 -254.65708923 339.60603333 C-256.58374076 340.11173927 -258.50977269 340.61981061 -260.43523598 341.13002205 C-263.4809424 341.93707548 -266.52822643 342.73790615 -269.57597351 343.53721619 C-274.94018325 344.94513578 -280.30293133 346.35853417 -285.66522217 347.77374268 C-294.26512071 350.04332209 -302.86622241 352.30827316 -311.46919823 354.5661602 C-314.47415439 355.35628122 -317.47786258 356.15102453 -320.48152161 356.94606018 C-322.31567293 357.42834833 -324.14987334 357.91044985 -325.98413086 358.39233398 C-326.82104462 358.61518066 -327.65795837 358.83802734 -328.52023315 359.06762695 C-331.63693147 359.882691 -334.40683556 360.57958984 -337.64306641 360.57958984 C-337.05386571 354.65025609 -335.84107734 349.26326497 -334.10766602 343.57177734 C-333.57574346 341.78436279 -333.04417923 339.99684158 -332.51292419 338.20922852 C-332.23242155 337.27227142 -331.95191891 336.33531433 -331.66291618 335.3699646 C-330.17171345 330.35857024 -328.72777193 325.33351543 -327.27783203 320.31005859 C-325.43887449 313.93901824 -323.58572541 307.57372874 -321.66577148 301.2265625 C-320.10930521 296.07649303 -318.61109765 290.91248143 -317.14966011 285.73468018 C-316.58608637 283.77687381 -316.00209049 281.82481604 -315.39655876 279.87957764 C-310.19921994 263.11918968 -310.19921994 263.11918968 -314.05862522 254.71658325 C-315.76050873 251.55390175 -317.67983249 248.58790476 -319.64306641 245.57958984 C-320.60343291 243.58584765 -321.53222042 241.57590057 -322.40087891 239.54052734 C-322.795896 238.62215088 -323.19091309 237.70377441 -323.59790039 236.75756836 C-330.92595633 219.20417587 -335.96775926 201.42222072 -338.64306641 182.57958984 C-338.82740234 181.29052734 -339.01173828 180.00146484 -339.20166016 178.67333984 C-344.97743541 124.17207965 -329.36204632 69.44111944 -295.01806641 26.70458984 C-283.66842472 13.21807068 -271.79838985 1.08699877 -257.64306641 -9.42041016 C-257.10278809 -9.82146973 -256.56250977 -10.2225293 -256.00585938 -10.63574219 C-247.31611572 -17.01321651 -238.17508992 -22.41496843 -228.64306641 -27.42041016 C-227.98886719 -27.76458984 -227.33466797 -28.10876953 -226.66064453 -28.46337891 C-206.1968641 -39.05019098 -184.33397561 -44.91324536 -161.64306641 -48.42041016 C-161.28893677 -48.47640381 -161.28893677 -48.47640381 -159.49682617 -48.75976562 C-102.43381671 -56.44672644 -43.24923012 -37.3884132 0 0 Z M-225.63525391 75.19287109 C-231.18248792 83.41849063 -234.93118722 92.61328123 -235.64306641 102.57958984 C-235.70623047 103.41361328 -235.76939453 104.24763672 -235.83447266 105.10693359 C-237.22199268 138.45217287 -211.28240427 169.524087 -190.14306641 192.70458984 C-162.02129465 223.12211549 -121.81849498 249.05234177 -79.16235352 251.11401367 C-64.50996517 251.31774051 -50.60885888 245.63706249 -40.08056641 235.45458984 C-32.77359329 227.88048008 -30.69889405 218.47569463 -29.89306641 208.20458984 C-29.81572266 207.26873047 -29.73837891 206.33287109 -29.65869141 205.36865234 C-31.83874801 199.19182531 -39.55015263 196.55178267 -45.09619141 193.79833984 C-47.0249002 192.88448944 -48.9573074 191.97840975 -50.89306641 191.07958984 C-51.90361084 190.60473145 -52.91415527 190.12987305 -53.95532227 189.640625 C-55.9492739 188.70483542 -57.94458986 187.77194615 -59.94140625 186.84228516 C-62.24164442 185.76720547 -64.53260732 184.67619141 -66.81884766 183.57177734 C-67.93646484 183.03810547 -69.05408203 182.50443359 -70.20556641 181.95458984 C-70.67027344 181.73158203 -70.67027344 181.73158203 -73.02197266 180.60302734 C-76.05699357 179.41796702 -78.36530604 178.6226616 -81.64306641 178.57958984 C-84.17822266 180.61865234 -84.17822266 180.61865234 -86.64306641 183.57958984 C-87.53750824 184.60831343 -88.43204186 185.63695722 -89.32666016 186.66552734 C-90.24627789 187.76049871 -91.16420821 188.85688918 -92.08056641 189.95458984 C-92.56428711 190.52532227 -93.04800781 191.09605469 -93.54638672 191.68408203 C-95.56627747 194.07073169 -97.55036873 196.45773563 -99.44384766 198.94677734 C-101.72215139 201.9067299 -103.13962894 203.43887751 -106.78759766 204.45849609 C-111.6634026 204.61163688 -114.74051252 203.33567822 -119.08056641 201.26708984 C-119.86334961 200.90389648 -120.64613281 200.54070312 -121.45263672 200.16650391 C-146.43882072 188.2630415 -173.13239996 167.07522819 -183.64306641 140.57958984 C-183.552416 136.03312318 -181.37149447 133.67045215 -178.45556641 130.32958984 C-172.55287119 123.30481679 -172.55287119 123.30481679 -170.08056641 119.89208984 C-169.84273437 119.57046875 -169.84273437 119.57046875 -168.63916016 117.94287109 C-166.62544314 113.16522876 -167.19957541 108.25056479 -168.94067383 103.49365234 C-169.52835772 102.0577605 -170.13171626 100.62820924 -170.74853516 99.20458984 C-171.06961746 98.4358252 -171.39069977 97.66706055 -171.72151184 96.875 C-172.39997313 95.25871249 -173.08528907 93.64528686 -173.77709961 92.03466797 C-174.82495561 89.59266565 -175.84988902 87.14201165 -176.87158203 84.68896484 C-177.5375661 83.11027657 -178.20484226 81.53213263 -178.87353516 79.95458984 C-179.17583542 79.23352051 -179.47813568 78.51245117 -179.78959656 77.76953125 C-186.10864611 63.14145931 -186.10864611 63.14145931 -191.64306641 60.57958984 C-194.52634133 60.28490643 -197.14251169 60.1601225 -200.01806641 60.20458984 C-200.38931641 60.19878906 -200.38931641 60.19878906 -202.26806641 60.16943359 C-213.05764197 60.22662216 -219.39652913 67.00913213 -225.63525391 75.19287109 Z " fill="#000000" transform="translate(390.64306640625,100.42041015625)"/>
</svg>
