<?xml version="1.0" encoding="UTF-8"?>
<!-- Generator: visioncortex VTracer 0.6.12 -->
<svg version="1.1" xmlns="http://www.w3.org/2000/svg" width="512" height="512">
<path d="M0 0 C2.40189258 2.21429706 4.83203049 4.38055796 7.30078125 6.51953125 C9.90800385 8.77912417 12.40929019 11.09089473 14.80078125 13.58203125 C13.38003801 16.82764425 11.66315444 18.94464715 9.1328125 21.41015625 C8.40384766 22.12816406 7.67488281 22.84617187 6.92382812 23.5859375 C6.16134766 24.32714844 5.39886719 25.06835938 4.61328125 25.83203125 C-0.26801261 30.59901901 -4.97296653 35.40127257 -9.41918945 40.57714844 C-13.35071663 45.0053066 -17.65997232 49.07926508 -21.8828125 53.2265625 C-26.5459133 57.83906908 -30.92919754 62.60562981 -35.19921875 67.58203125 C-37.12407016 69.79710802 -38.96620763 71.64675495 -41.19921875 73.58203125 C-44.38307535 73.57522814 -45.46691773 72.33700515 -47.828125 70.17578125 C-48.81173237 69.15000728 -49.78927755 68.11839693 -50.76171875 67.08203125 C-56.23574709 61.43633765 -61.99121202 56.41999512 -68.19921875 51.58203125 C-69.20597656 50.78152344 -70.21273438 49.98101562 -71.25 49.15625 C-84.74383493 38.50519399 -99.03909299 29.65878368 -114.19921875 21.58203125 C-114.83875488 21.23430664 -115.47829102 20.88658203 -116.13720703 20.52832031 C-143.65608175 5.61589811 -174.30031541 -3.13390171 -205.19921875 -7.41796875 C-205.62041992 -7.47654053 -205.62041992 -7.47654053 -207.75195312 -7.77294922 C-230.62637011 -10.7867477 -254.35456824 -10.59472103 -277.19921875 -7.41796875 C-278.09060547 -7.29437988 -278.98199219 -7.17079102 -279.90039062 -7.04345703 C-326.91999551 -0.2379879 -373.27123902 18.36822965 -410.19921875 48.58203125 C-410.65683594 48.94425781 -410.65683594 48.94425781 -412.97265625 50.77734375 C-421.08688436 57.26407625 -429.44775179 64.18541098 -436.328125 72 C-438.19921875 73.58203125 -438.19921875 73.58203125 -440.1171875 73.6484375 C-443.14416888 72.0980324 -445.14456719 69.95364608 -447.51171875 67.51953125 C-447.96353516 67.05998047 -447.96353516 67.05998047 -450.25 64.734375 C-452.42349632 62.45150179 -454.49670396 60.09819841 -456.5546875 57.7109375 C-460.24303824 53.46391382 -464.18515323 49.51919897 -468.19921875 45.58203125 C-472.816494 41.05320955 -477.23258122 36.45544838 -481.45361328 31.5546875 C-484.37285074 28.25574502 -487.50149934 25.17412066 -490.63671875 22.08203125 C-490.95479492 21.76621094 -490.95479492 21.76621094 -492.56445312 20.16796875 C-494.10704681 18.63697351 -495.65279189 17.10915458 -497.19921875 15.58203125 C-493.955418 8.82367772 -487.95725691 4.27824128 -482.34765625 -0.546875 C-480.02871558 -2.56646151 -477.7739329 -4.64762109 -475.51171875 -6.73046875 C-469.67329672 -11.98416262 -463.49275146 -16.73174772 -457.19921875 -21.41796875 C-456.53390137 -21.91844727 -455.86858398 -22.41892578 -455.18310547 -22.93457031 C-443.64219738 -31.59225176 -431.70738557 -39.23812041 -419.19921875 -46.41796875 C-418.39790527 -46.88444824 -417.5965918 -47.35092773 -416.77099609 -47.83154297 C-395.03789105 -60.44407214 -372.10098858 -69.76847237 -348.19921875 -77.41796875 C-347.30847656 -77.70510742 -346.41773438 -77.99224609 -345.5 -78.28808594 C-321.74211736 -85.82839402 -296.98569755 -90.12731846 -272.19921875 -92.41796875 C-271.82474609 -92.45325684 -271.82474609 -92.45325684 -269.9296875 -92.63183594 C-171.9392714 -101.35132212 -71.95069304 -66.7708108 0 0 Z " fill="#000000" transform="translate(497.19921875,164.41796875)"/>
<path d="M0 0 C5.91933771 5.18949205 11.54933166 10.63097982 17 16.3125 C15.00396508 18.64932137 13.00317723 20.98181345 11 23.3125 C10.48252197 23.92029297 9.96504395 24.52808594 9.43188477 25.15429688 C4.34910704 31.05975178 -1.12780546 36.50063095 -6.68359375 41.95703125 C-10.07270533 45.30937127 -13.37184732 48.67732737 -16.48046875 52.29296875 C-20.36209577 56.80542957 -24.56911354 60.95521955 -28.8125 65.125 C-30.32132992 66.60832138 -31.82794327 68.09390176 -33.33203125 69.58203125 C-33.98921143 70.22760986 -34.6463916 70.87318848 -35.32348633 71.53833008 C-37 73.3125 -37 73.3125 -39 76.3125 C-42.97574874 75.77644399 -44.5380164 73.96989793 -47.1875 71.0625 C-58.43249212 59.52028341 -71.67160397 50.57712184 -86 43.3125 C-87.10988281 42.74917969 -88.21976563 42.18585938 -89.36328125 41.60546875 C-124.23928303 24.78493065 -165.03081116 22.52936058 -201.7734375 34.53076172 C-224.89488042 42.6486192 -248.59278601 56.24385486 -264.5859375 75.19140625 C-266 76.3125 -266 76.3125 -267.88720703 76.10327148 C-270.50680277 75.12281498 -271.47181353 73.95155663 -273.21875 71.78125 C-277.06247523 67.18353176 -281.22697986 63.00907971 -285.5 58.8125 C-290.26857774 54.12922776 -294.84975966 49.39283648 -299.20898438 44.32617188 C-302.47191 40.65760446 -305.99848712 37.25137401 -309.5 33.8125 C-314.90930128 28.49996619 -320.09059872 23.09330055 -325 17.3125 C-318.18772166 9.17099661 -310.97112077 2.16637151 -302.61914062 -4.41015625 C-301.51706638 -5.27958515 -300.41956167 -6.15483074 -299.32617188 -7.03515625 C-218.99437151 -71.48010894 -99.89254061 -72.94871442 0 0 Z " fill="#000000" transform="translate(410,250.6875)"/>
<path d="M0 0 C5.23111822 4.36253668 10.22155465 8.99153056 15.1640625 13.67578125 C13.7764807 16.81457506 12.16882842 18.8983292 9.71484375 21.28515625 C9.03099609 21.95804687 8.34714844 22.6309375 7.64257812 23.32421875 C6.92779297 24.01773438 6.21300781 24.71125 5.4765625 25.42578125 C1.40549399 29.39497872 -2.61484764 33.34688467 -6.32421875 37.66015625 C-10.77187466 42.83187863 -15.65617381 47.54395609 -20.51953125 52.3203125 C-23.91512311 55.67906249 -27.22011519 59.05430549 -30.3359375 62.67578125 C-34.78029002 67.84138869 -39.66100838 72.54870418 -44.51953125 77.3203125 C-48.5837453 81.34043019 -52.4424847 85.45014348 -56.17041016 89.78320312 C-58.74532151 92.70913581 -61.49596092 95.44360855 -64.2734375 98.17578125 C-64.81419922 98.71203125 -65.35496094 99.24828125 -65.91210938 99.80078125 C-67.21770367 101.09482161 -68.52646746 102.38566299 -69.8359375 103.67578125 C-72.95918294 102.28948881 -75.07784457 100.68066554 -77.48046875 98.26171875 C-78.15787109 97.58238281 -78.83527344 96.90304687 -79.53320312 96.203125 C-80.23123047 95.49285156 -80.92925781 94.78257812 -81.6484375 94.05078125 C-82.33486328 93.36371094 -83.02128906 92.67664063 -83.72851562 91.96875 C-87.0388638 88.63021532 -90.24871191 85.24692643 -93.31640625 81.68359375 C-97.10767472 77.29143482 -101.19829865 73.23940152 -105.3359375 69.17578125 C-110.10451524 64.49250901 -114.68569716 59.75611773 -119.04492188 54.68945312 C-122.3078475 51.02088571 -125.83442462 47.61465526 -129.3359375 44.17578125 C-134.14445257 39.45328613 -138.77427265 34.67809836 -143.17041016 29.56835938 C-145.74532151 26.64242669 -148.49596092 23.90795395 -151.2734375 21.17578125 C-151.81419922 20.63953125 -152.35496094 20.10328125 -152.91210938 19.55078125 C-154.21770367 18.25674089 -155.52646746 16.96589951 -156.8359375 15.67578125 C-155.27337185 11.75566041 -152.59438461 9.25829903 -149.5234375 6.48828125 C-149.25708496 6.24766968 -149.25708496 6.24766968 -147.90917969 5.0300293 C-106.5959956 -31.54457362 -43.35536467 -35.12487306 0 0 Z " fill="#000000" transform="translate(326.8359375,341.32421875)"/>
</svg>
