<?xml version="1.0" encoding="UTF-8"?>
<!-- Generator: visioncortex VTracer 0.6.12 -->
<svg version="1.1" xmlns="http://www.w3.org/2000/svg" width="512" height="512">
<path d="M0 0 C0.67775956 -0.00382555 1.35551912 -0.00765109 2.05381685 -0.01159257 C4.32384447 -0.02190763 6.59361845 -0.01793333 8.86366272 -0.01396179 C10.4915897 -0.01830909 12.11951464 -0.0234923 13.74743652 -0.02944946 C18.168905 -0.04284862 22.59028805 -0.04341713 27.01177287 -0.04088616 C30.70222175 -0.0398171 34.3926533 -0.04469816 38.08309847 -0.04949158 C46.78893774 -0.06058989 55.49473386 -0.06102232 64.20057678 -0.05497742 C73.18356264 -0.04893602 82.16639192 -0.0612521 91.14935106 -0.08254749 C98.86070885 -0.10015657 106.57201676 -0.10616595 114.28339392 -0.10290974 C118.88954363 -0.10109567 123.49558166 -0.1037454 128.10171318 -0.11762428 C132.43309853 -0.1301868 136.76423958 -0.12827354 141.09562111 -0.11521339 C142.68511919 -0.11284463 144.27463438 -0.11559302 145.86411285 -0.12383652 C148.03444874 -0.13428073 150.20396137 -0.12622292 152.37426758 -0.11352539 C152.981436 -0.11360926 152.981436 -0.11360926 156.05407619 -0.1140337 C159.59560455 0.30113814 161.40071119 1.16010009 164.25062561 3.26069641 C164.84075471 3.67771379 165.43088381 4.09473118 166.03889561 4.52438545 C167.95459548 7.26942823 167.63184499 9.73308213 167.63830566 13.04167175 C167.64099843 13.38829143 167.64099843 13.38829143 167.65462548 15.14239705 C167.6689604 17.47090923 167.66178799 19.79885734 167.65467834 22.12739563 C167.66037911 23.79458576 167.66734222 25.46177199 167.67547607 27.12895203 C167.69345687 31.66207941 167.69222969 36.19501374 167.68653369 40.7281661 C167.6834484 44.51052919 167.68952704 48.29285483 167.69557244 52.0752126 C167.70963271 60.99823742 167.70804439 69.92116654 167.69667053 78.8441925 C167.68519219 88.05271709 167.69925675 97.26095034 167.72606701 106.46943653 C167.74821417 114.3718661 167.75486348 122.27420416 167.7489906 130.17666256 C167.74561692 134.89799097 167.74806307 139.61913268 167.76524162 144.34043503 C167.78069265 148.78103726 167.77677584 153.2212077 167.75793648 157.66179276 C167.75424522 159.29160224 167.75737469 160.92144358 167.76782227 162.55122375 C167.78099833 164.77656659 167.76951673 167.0004729 167.75183105 169.22575378 C167.75162177 170.47088682 167.75141249 171.71601986 167.75119686 172.9988842 C167.15870107 176.85969326 165.96632894 178.50719376 163.25062561 181.26069641 C160.35264012 182.70968916 157.82882886 182.40010347 154.58990479 182.41459656 C153.89751986 182.41897881 153.20513494 182.42336107 152.49176866 182.42787611 C150.160327 182.44128294 147.82892316 182.44744716 145.49745178 182.4535675 C143.83041207 182.46146694 142.16337407 182.46973579 140.49633789 182.47834778 C135.0121067 182.5045845 129.52786781 182.51987625 124.04359436 182.53413391 C122.15727038 182.53949276 120.27094645 182.54487027 118.38462257 182.55026627 C110.53964875 182.57189669 102.694677 182.59063448 94.8496809 182.60188866 C83.59804029 182.61813487 72.34674464 182.651327 61.0952341 182.7082895 C53.18859923 182.7469567 45.28205675 182.76651748 37.37532979 182.77180922 C32.6505473 182.77546689 27.92613259 182.78753206 23.20145226 182.81991196 C18.75673849 182.84993635 14.31261612 182.85632473 9.86782265 182.8445282 C8.23637821 182.84430699 6.60490678 182.85265079 4.97355652 182.87018204 C2.74575545 182.89282013 0.5201087 182.88460676 -1.70770264 182.86869812 C-2.95413449 182.87200827 -4.20056635 182.87531841 -5.48476887 182.87872887 C-9.66126317 182.08806396 -11.12618402 180.53536532 -13.74937439 177.26069641 C-14.88603928 173.85070175 -14.88387863 171.23541714 -14.89654541 167.63830566 C-14.9002221 166.96210609 -14.90389879 166.28590652 -14.90768689 165.58921605 C-14.91871895 163.31848765 -14.92256673 161.04780502 -14.92637634 158.77705383 C-14.93264129 157.15089777 -14.93928812 155.52474315 -14.94628906 153.89859009 C-14.96732583 148.55445858 -14.97769019 143.21032679 -14.98765564 137.86616516 C-14.99170316 136.02660418 -14.99582008 134.18704335 -15.00000572 132.34748268 C-15.01905552 123.70626355 -15.03328773 115.06505295 -15.04161769 106.42381686 C-15.05139369 96.44716747 -15.07772354 86.47073973 -15.11811858 76.49416846 C-15.14826776 68.78367269 -15.16308538 61.07324051 -15.1663987 53.36268693 C-15.16875032 48.75699265 -15.17772537 44.15153524 -15.20285988 39.54590416 C-15.22612508 35.21285448 -15.23038018 30.8801979 -15.2200985 26.54710197 C-15.21960266 24.95801232 -15.2259371 23.36890342 -15.23965454 21.77987289 C-15.25735683 19.60745727 -15.25027729 17.436455 -15.23712158 15.26403809 C-15.23950994 14.04932422 -15.24189829 12.83461035 -15.24435902 11.58308697 C-14.55260345 6.93994852 -12.71773832 3.72360054 -8.92121029 0.90198994 C-5.89561146 0.00859972 -3.15548517 0.00533609 0 0 Z " fill="#0077D4" transform="translate(280.74937438964844,265.7393035888672)"/>
<path d="M0 0 C0.67619957 -0.00367669 1.35239914 -0.00735338 2.04908961 -0.01114148 C4.31981801 -0.02217354 6.59050064 -0.02602132 8.86125183 -0.02983093 C10.48740789 -0.03609588 12.11356252 -0.04274271 13.73971558 -0.04974365 C19.08384708 -0.07078042 24.42797887 -0.08114478 29.7721405 -0.09111023 C31.61170148 -0.09515774 33.45126231 -0.09927467 35.29082298 -0.10346031 C43.93204212 -0.1225101 52.57325271 -0.13674232 61.2144888 -0.14507228 C71.1911382 -0.15484828 81.16756593 -0.18117813 91.1441372 -0.22157317 C98.85463297 -0.25172235 106.56506515 -0.26653997 114.27561873 -0.26985329 C118.88131301 -0.27220491 123.48677042 -0.28117996 128.0924015 -0.30631447 C132.42545118 -0.32957967 136.75810777 -0.33383477 141.09120369 -0.32355309 C142.68029334 -0.32305725 144.26940225 -0.32939169 145.85843277 -0.34310913 C148.0308484 -0.36081142 150.20185067 -0.35373188 152.37426758 -0.34057617 C152.98162451 -0.34177035 152.98162451 -0.34177035 156.0552187 -0.34781361 C160.69835715 0.34394196 163.91470512 2.17880709 166.73631573 5.97533512 C167.62970594 9.00093395 167.63296957 11.74106024 167.63830566 14.89654541 C167.64213121 15.57430497 167.64595676 16.25206453 167.64989823 16.95036227 C167.6602133 19.22038988 167.656239 21.49016386 167.65226746 23.76020813 C167.65661476 25.38813511 167.66179797 27.01606005 167.66775513 28.64398193 C167.68115428 33.06545041 167.68172279 37.48683346 167.67919183 41.90831828 C167.67812276 45.59876716 167.68300382 49.28919871 167.68779725 52.97964388 C167.69889555 61.68548315 167.69932799 70.39127927 167.69328308 79.09712219 C167.68724168 88.08010805 167.69955777 97.06293733 167.72085315 106.04589647 C167.73846224 113.75725426 167.74447161 121.46856217 167.74121541 129.17993933 C167.73940134 133.78608904 167.74205107 138.39212707 167.75592995 142.99825859 C167.76849246 147.32964394 167.7665792 151.66078499 167.75351906 155.99216652 C167.7511503 157.5816646 167.75389869 159.17117979 167.76214218 160.76065826 C167.77258639 162.93099415 167.76452858 165.10050678 167.75183105 167.27081299 C167.7519988 168.48514983 167.75216654 169.69948668 167.75233936 170.9506216 C167.33716752 174.49214996 166.47820557 176.2972566 164.37760925 179.14717102 C163.96059187 179.73730012 163.54357449 180.32742922 163.11392021 180.93544102 C160.36887744 182.85114089 157.90522353 182.5283904 154.59663391 182.53485107 C153.90339456 182.54023661 153.21015522 182.54562215 152.49590862 182.55117089 C150.16739643 182.56550581 147.83944832 182.5583334 145.51091003 182.55122375 C143.8437199 182.55692452 142.17653368 182.56388763 140.50935364 182.57202148 C135.97622626 182.59000228 131.44329193 182.5887751 126.91013956 182.5830791 C123.12777648 182.57999381 119.34545083 182.58607245 115.56309307 182.59211785 C106.64006824 182.60617812 97.71713912 182.6045898 88.79411316 182.59321594 C79.58558857 182.5817376 70.37735532 182.59580216 61.16886914 182.62261242 C53.26643957 182.64475958 45.36410151 182.65140889 37.4616431 182.64553601 C32.74031469 182.64216233 28.01917298 182.64460848 23.29787064 182.66178703 C18.85726841 182.67723806 14.41709796 182.67332125 9.97651291 182.65448189 C8.34670342 182.65079063 6.71686209 182.6539201 5.08708191 182.66436768 C2.86173908 182.67754374 0.63783277 182.66606214 -1.58744812 182.64837646 C-2.83258116 182.64816718 -4.0777142 182.6479579 -5.36057854 182.64774227 C-9.22138759 182.05524648 -10.8688881 180.86287435 -13.62239075 178.14717102 C-15.07138349 175.24918553 -14.7617978 172.72537427 -14.77629089 169.4864502 C-14.78067315 168.79406527 -14.7850554 168.10168035 -14.78957045 167.38831407 C-14.80297728 165.05687241 -14.80914149 162.72546857 -14.81526184 160.39399719 C-14.82316128 158.72695748 -14.83143013 157.05991948 -14.84004211 155.3928833 C-14.86627883 149.90865211 -14.88157059 144.42441322 -14.89582825 138.94013977 C-14.9011871 137.05381579 -14.9065646 135.16749186 -14.9119606 133.28116798 C-14.93359103 125.43619416 -14.95232882 117.59122242 -14.96358299 109.74622631 C-14.9798292 98.4945857 -15.01302134 87.24329005 -15.06998384 75.99177951 C-15.10865104 68.08514464 -15.12821181 60.17860216 -15.13350356 52.2718752 C-15.13716122 47.54709271 -15.1492264 42.822678 -15.18160629 38.09799767 C-15.21163068 33.6532839 -15.21801907 29.20916153 -15.20622253 24.76436806 C-15.20600133 23.13292362 -15.21434513 21.50145219 -15.23187637 19.87010193 C-15.25451447 17.64230086 -15.2463011 15.41665411 -15.23039246 13.18884277 C-15.2337026 11.94241092 -15.23701275 10.69597906 -15.2404232 9.41177654 C-14.44975829 5.23528224 -12.89705966 3.77036139 -9.62239075 1.14717102 C-6.21239608 0.01050613 -3.59711147 0.01266678 0 0 Z " fill="#0076D4" transform="translate(78.62239074707031,265.8528289794922)"/>
<path d="M0 0 C0.34619246 -0.00219113 0.34619246 -0.00219113 2.09813613 -0.01327956 C4.42957778 -0.02668639 6.76098163 -0.0328506 9.092453 -0.03897095 C10.75949271 -0.04687038 12.42653071 -0.05513923 14.09356689 -0.06375122 C19.57779808 -0.08998794 25.06203698 -0.1052797 30.54631042 -0.11953735 C32.43263441 -0.1248962 34.31895834 -0.13027371 36.20528221 -0.13566971 C44.05025603 -0.15730014 51.89522778 -0.17603792 59.74022388 -0.1872921 C70.9918645 -0.20353831 82.24316014 -0.23673045 93.49467069 -0.29369295 C101.40130556 -0.33236014 109.30784803 -0.35192092 117.21457499 -0.35721266 C121.93935748 -0.36087033 126.66377219 -0.37293551 131.38845253 -0.4053154 C135.8331663 -0.43533979 140.27728866 -0.44172817 144.72208214 -0.42993164 C146.35352658 -0.42971044 147.98499801 -0.43805423 149.61634827 -0.45558548 C151.84414934 -0.47822357 154.06979608 -0.4700102 156.29760742 -0.45410156 C157.54403928 -0.45741171 158.79047113 -0.46072186 160.07467365 -0.46413231 C164.25116795 0.3265326 165.7160888 1.87923124 168.33927917 5.15390015 C169.47594406 8.56389481 169.47378341 11.17917942 169.4864502 14.77629089 C169.49012688 15.45249047 169.49380357 16.12869004 169.49759167 16.8253805 C169.50862374 19.09610891 169.51247151 21.36679154 169.51628113 23.63754272 C169.52254608 25.26369878 169.52919291 26.88985341 169.53619385 28.51600647 C169.55723062 33.86013798 169.56759498 39.20426976 169.57756042 44.5484314 C169.58160794 46.38799238 169.58572486 48.22755321 169.58991051 50.06711388 C169.6089603 58.70833301 169.62319251 67.3495436 169.63152248 75.9907797 C169.64129848 85.96742909 169.66762833 95.94385682 169.70802337 105.9204281 C169.73817254 113.63092387 169.75299016 121.34135605 169.75630349 129.05190963 C169.75865511 133.6576039 169.76763016 138.26306132 169.79276466 142.8686924 C169.81602987 147.20174207 169.82028497 151.53439866 169.81000328 155.86749458 C169.80950745 157.45658424 169.81584189 159.04569314 169.82955933 160.63472366 C169.84726161 162.80713929 169.84018207 164.97814156 169.82702637 167.15055847 C169.82941472 168.36527234 169.83180307 169.57998621 169.8342638 170.83150959 C169.14250824 175.47464804 167.3076431 178.69099602 163.51111507 181.51260662 C160.48551625 182.40599683 157.74538995 182.40926047 154.58990479 182.41459656 C153.91214522 182.4184221 153.23438566 182.42224765 152.53608793 182.42618912 C150.26606031 182.43650419 147.99628633 182.43252989 145.72624207 182.42855835 C144.09831508 182.43290565 142.47039015 182.43808886 140.84246826 182.44404602 C136.42099979 182.45744518 131.99961674 182.45801368 127.57813191 182.45548272 C123.88768303 182.45441365 120.19725149 182.45929472 116.50680631 182.46408814 C107.80096705 182.47518645 99.09517092 182.47561888 90.389328 182.46957397 C81.40634215 182.46353258 72.42351286 182.47584866 63.44055372 182.49714404 C55.72919594 182.51475313 48.01788802 182.52076251 40.30651087 182.5175063 C35.70036115 182.51569223 31.09432313 182.51834196 26.4881916 182.53222084 C22.15680626 182.54478335 17.82566521 182.5428701 13.49428368 182.52980995 C11.90478559 182.52744119 10.3152704 182.53018958 8.72579193 182.53843307 C6.55545604 182.54887729 4.38594342 182.54081948 2.21563721 182.52812195 C1.00130036 182.52828969 -0.21303648 182.52845743 -1.46417141 182.52863026 C-5.00569976 182.11345841 -6.8108064 181.25449647 -9.66072083 179.15390015 C-10.25084992 178.73688276 -10.84097902 178.31986538 -11.44899082 177.89021111 C-13.3646907 175.14516833 -13.04194021 172.68151442 -13.04840088 169.3729248 C-13.05378642 168.67968546 -13.05917195 167.98644611 -13.06472069 167.27219951 C-13.07905562 164.94368733 -13.0718832 162.61573922 -13.06477356 160.28720093 C-13.07047432 158.6200108 -13.07743744 156.95282457 -13.08557129 155.28564453 C-13.10355208 150.75251715 -13.10232491 146.21958282 -13.0966289 141.68643045 C-13.09354362 137.90406737 -13.09962225 134.12174173 -13.10566765 130.33938396 C-13.11972792 121.41635914 -13.1181396 112.49343002 -13.10676575 103.57040405 C-13.09528741 94.36187947 -13.10935197 85.15364621 -13.13616222 75.94516003 C-13.15830938 68.04273046 -13.16495869 60.1403924 -13.15908581 52.23793399 C-13.15571213 47.51660559 -13.15815828 42.79546388 -13.17533684 38.07416153 C-13.19078787 33.6335593 -13.18687106 29.19338886 -13.16803169 24.7528038 C-13.16434044 23.12299432 -13.16746991 21.49315298 -13.17791748 19.8633728 C-13.19109355 17.63802997 -13.17961195 15.41412366 -13.16192627 13.18884277 C-13.16182163 12.56627625 -13.16182163 12.56627625 -13.16129208 9.41571236 C-12.56879628 5.5549033 -11.37642416 3.90740279 -8.66072083 1.15390015 C-5.76273533 -0.2950926 -3.23892407 0.01449309 0 0 Z " fill="#0076D4" transform="translate(76.66072082519531,63.846099853515625)"/>
<path d="M0 0 C0.34415068 -0.00183834 0.34415068 -0.00183834 2.08576173 -0.01114148 C4.4033886 -0.0221974 6.72097067 -0.02602536 9.03862 -0.02983093 C10.69580732 -0.03609411 12.35299324 -0.04274078 14.01017761 -0.04974365 C18.52057674 -0.06716614 23.03096525 -0.07770868 27.5413897 -0.08594918 C30.35794971 -0.09109639 33.1745064 -0.09717223 35.99106407 -0.10346031 C44.79940658 -0.12251534 53.60774068 -0.13674616 62.41609985 -0.14507228 C72.59142911 -0.15484875 82.76654107 -0.18117763 92.94179374 -0.22157317 C100.80172167 -0.25170859 108.66158722 -0.26653868 116.52157182 -0.26985329 C121.21834996 -0.27220661 125.91489603 -0.28120349 130.61161232 -0.30631447 C135.03000413 -0.32955546 139.44801042 -0.33384455 143.86644745 -0.32355309 C145.48820717 -0.32305665 147.10998562 -0.32940871 148.73168755 -0.34310913 C150.9461007 -0.36077026 153.15912163 -0.35375202 155.37353516 -0.34057617 C156.61259267 -0.34296453 157.85165018 -0.34535288 159.12825489 -0.34781361 C162.98340424 0.23951992 164.62765626 1.43673286 167.37724304 4.14717102 C168.82209625 7.03687745 168.51326344 9.53985661 168.52441406 12.76992798 C168.52809075 13.45822935 168.53176744 14.14653072 168.53555554 14.8556897 C168.54661146 17.17331658 168.55043942 19.49089865 168.554245 21.80854797 C168.56050818 23.4657353 168.56715484 25.12292122 168.57415771 26.78010559 C168.5915802 31.29050472 168.60212274 35.80089323 168.61036325 40.31131768 C168.61551045 43.12787769 168.62158629 45.94443438 168.62787437 48.76099205 C168.6469294 57.56933456 168.66116022 66.37766866 168.66948634 75.18602782 C168.67926282 85.36135709 168.70559169 95.53646905 168.74598724 105.71172172 C168.77612265 113.57164965 168.79095274 121.4315152 168.79426736 129.29149979 C168.79662067 133.98827794 168.80561755 138.68482401 168.83072853 143.3815403 C168.85396952 147.7999321 168.85825861 152.2179384 168.84796715 156.63637543 C168.84747071 158.25813515 168.85382278 159.87991359 168.86752319 161.50161552 C168.88518432 163.71602868 168.87816608 165.9290496 168.86499023 168.14346313 C168.86737859 169.38252065 168.86976694 170.62157816 168.87222767 171.89818287 C168.28489414 175.75333222 167.0876812 177.39758424 164.37724304 180.14717102 C161.48753662 181.59202423 158.98455745 181.28319142 155.75448608 181.29434204 C155.06618471 181.29801873 154.37788334 181.30169542 153.66872436 181.30548352 C151.35109748 181.31653944 149.03351541 181.3203674 146.71586609 181.32417297 C145.05867876 181.33043615 143.40149284 181.33708282 141.74430847 181.34408569 C137.23390935 181.36150818 132.72352083 181.37205072 128.21309638 181.38029122 C125.39653638 181.38543843 122.57997968 181.39151427 119.76342201 181.39780235 C110.9550795 181.41685738 102.1467454 181.4310882 93.33838624 181.43941432 C83.16305697 181.44919079 72.98794501 181.47551967 62.81269234 181.51591522 C54.95276441 181.54605063 47.09289886 181.56088072 39.23291427 181.56419533 C34.53613613 181.56654865 29.83959005 181.57554553 25.14287376 181.60065651 C20.72448196 181.6238975 16.30647567 181.62818659 11.88803864 181.61789513 C10.26627891 181.61739869 8.64450047 181.62375075 7.02279854 181.63745117 C4.80838538 181.6551123 2.59536446 181.64809406 0.38095093 181.63491821 C-0.23857783 181.63611239 -0.23857783 181.63611239 -3.37376881 181.64215565 C-7.22891816 181.05482212 -8.87317018 179.85760918 -11.62275696 177.14717102 C-13.06761017 174.25746459 -12.75877736 171.75448543 -12.76992798 168.52441406 C-12.77360467 167.83611269 -12.77728135 167.14781132 -12.78106946 166.43865234 C-12.79212538 164.12102546 -12.79595334 161.80344339 -12.79975891 159.48579407 C-12.80602209 157.82860674 -12.81266876 156.17142082 -12.81967163 154.51423645 C-12.83709411 150.00383732 -12.84763665 145.49344881 -12.85587716 140.98302436 C-12.86102437 138.16646435 -12.8671002 135.34990766 -12.87338829 132.53334999 C-12.89244332 123.72500748 -12.90667414 114.91667338 -12.91500026 106.10831422 C-12.92477673 95.93298495 -12.95110561 85.75787299 -12.99150115 75.58262032 C-13.02163657 67.72269239 -13.03646666 59.86282684 -13.03978127 52.00284225 C-13.04213459 47.30606411 -13.05113147 42.60951803 -13.07624245 37.91280174 C-13.09948344 33.49440994 -13.10377253 29.07640365 -13.09348106 24.65796661 C-13.09298463 23.03620689 -13.09933669 21.41442845 -13.11303711 19.79272652 C-13.13069824 17.57831336 -13.12367999 15.36529244 -13.11050415 13.15087891 C-13.1128925 11.91182139 -13.11528086 10.67276388 -13.11774158 9.39615917 C-12.53040806 5.54100982 -11.33319511 3.8967578 -8.62275696 1.14717102 C-5.73305053 -0.29768219 -3.23007137 0.01115062 0 0 Z " fill="#0076D3" transform="translate(279.6227569580078,63.85282897949219)"/>
</svg>
