<?xml version="1.0" encoding="UTF-8"?>
<!-- Generator: visioncortex VTracer 0.6.12 -->
<svg version="1.1" xmlns="http://www.w3.org/2000/svg" width="512" height="512">
<path d="M0 0 C0 63.69 0 127.38 0 193 C-74.25 193 -148.5 193 -225 193 C-225.020625 166.455625 -225.04125 139.91125 -225.0625 112.5625 C-225.071604 104.16627197 -225.08070801 95.77004395 -225.09008789 87.11938477 C-225.09460449 76.9041748 -225.09460449 76.9041748 -225.09544373 72.1292572 C-225.09637925 68.77846115 -225.10014206 65.42768077 -225.10557556 62.07688904 C-225.11240203 57.8109776 -225.11449724 53.54508917 -225.11307228 49.27917278 C-225.11337052 47.70844166 -225.11537264 46.13770979 -225.11921513 44.56698334 C-225.12414323 42.45543822 -225.1230069 40.34398407 -225.12025452 38.23243713 C-225.12117631 37.04608956 -225.1220981 35.85974199 -225.12304783 34.6374445 C-225 32 -225 32 -224 31 C-221.20092858 30.51844137 -218.41148036 30.09422742 -215.5993042 29.7028656 C-214.70767964 29.57542105 -213.81605507 29.4479765 -212.89741158 29.31667 C-209.88626684 28.88734465 -206.87429976 28.464087 -203.86230469 28.04077148 C-201.71261172 27.73556126 -199.56296991 27.42999057 -197.41337585 27.12408447 C-191.55639928 26.29173232 -185.69868052 25.46471538 -179.84079266 24.6388042 C-173.72082543 23.77523318 -167.60145435 22.90745701 -161.48199463 22.04029846 C-151.19919015 20.58386791 -140.91590153 19.1308946 -130.63232422 17.67993164 C-118.73647697 16.00144098 -106.84141484 14.31748516 -94.94675708 12.63058609 C-83.51939237 11.01009059 -72.09147708 9.3935103 -60.66330719 7.77870369 C-55.79401823 7.09059743 -50.92492832 6.4011062 -46.05599213 5.71050835 C-40.32082537 4.89722462 -34.58518573 4.08736196 -28.84916115 3.28015137 C-26.74186475 2.98303629 -24.63473484 2.6847377 -22.52778435 2.38517952 C-19.65517435 1.97696185 -16.7819961 1.57300928 -13.90863037 1.17015076 C-13.4901947 1.11018212 -13.4901947 1.11018212 -11.37265658 0.80670446 C-10.60045441 0.6993359 -9.82825223 0.59196733 -9.03264999 0.48134518 C-8.36982065 0.38771661 -7.70699131 0.29408804 -7.02407622 0.19762224 C-4.69287599 -0.02998629 -2.34228524 0 0 0 Z " fill="#00B0FF" transform="translate(459,53)"/>
<path d="M0 0 C74.25 0 148.5 0 225 0 C225 63.36 225 126.72 225 192 C217.80529794 191.40044149 210.73440365 190.78394054 203.60472107 189.78552246 C202.73903867 189.66695058 201.87335628 189.54837871 200.98144108 189.42621374 C198.12318602 189.03392756 195.26558095 188.63710386 192.40795898 188.24023438 C190.34215414 187.95573118 188.2763114 187.67150304 186.21043396 187.38752747 C180.63219255 186.61987644 175.05451632 185.84819085 169.47695804 185.07559395 C163.63302875 184.26663912 157.78865595 183.46090002 151.9443512 182.65466309 C142.14186351 181.3018532 132.33974654 179.94638219 122.5378418 178.58935547 C111.19899953 177.01958413 99.85955721 175.45420586 88.51979202 173.89111662 C77.60469406 172.38644851 66.69004469 170.87854995 55.7755909 169.36921692 C51.1310606 168.72700345 46.48637142 168.08595701 41.84155083 167.44584656 C36.38203925 166.69332417 30.92292375 165.93799184 25.46410561 165.18045616 C23.45786043 164.90251238 21.45147855 164.62555331 19.44495392 164.34963417 C16.71373615 163.97389905 13.98302897 163.59465198 11.25242615 163.21447754 C10.45225097 163.105235 9.65207579 162.99599246 8.82765287 162.88343954 C5.76351445 162.45370133 2.94292062 161.98097354 0 161 C0 107.87 0 54.74 0 0 Z " fill="#00AFFF" transform="translate(234,267)"/>
<path d="M0 0 C53.13 0 106.26 0 161 0 C161 52.47 161 104.94 161 159 C146.37458968 157.87496844 146.37458968 157.87496844 140.95211792 157.12719727 C140.33532417 157.04309097 140.33532417 157.04309097 137.213974 156.61746216 C135.90956863 156.43561371 134.60516327 156.25376526 133.26123047 156.06640625 C131.83567171 155.87051552 130.41006704 155.67495866 128.98442078 155.47970581 C125.15609939 154.95436533 121.32845959 154.42421117 117.5009551 153.89295578 C113.48153762 153.33575392 109.46156899 152.78255431 105.44168091 152.22875977 C98.70520842 151.30008539 91.96917318 150.36829121 85.23339844 149.43457031 C77.44652572 148.35518134 69.65899513 147.28064392 61.87109649 146.20868397 C54.36196728 145.17499483 46.85329005 144.13805834 39.34482193 143.09957886 C36.15444066 142.65837355 32.96390851 142.21828326 29.77325058 141.77908325 C26.02503774 141.26297462 22.27722976 140.74402014 18.5297184 140.22284317 C17.1539821 140.03197932 15.7781094 139.84209577 14.40209389 139.65325546 C12.52704417 139.39576284 10.65252884 139.13438766 8.77804565 138.87280273 C7.72841581 138.72753647 6.67878597 138.5822702 5.59734917 138.43260193 C3 138 3 138 0 137 C0 91.79 0 46.58 0 0 Z " fill="#00AFFF" transform="translate(53,266)"/>
<path d="M0 0 C0 52.14 0 104.28 0 158 C-53.13 158 -106.26 158 -161 158 C-161 113.12 -161 68.24 -161 22 C-96.16620215 12.54507115 -96.16620215 12.54507115 -68.40129089 8.55780888 C-62.54293876 7.71646294 -56.68494535 6.87275281 -50.82763672 6.02416992 C-45.00882092 5.18122593 -39.18924314 4.34374611 -33.36907959 3.51016045 C-31.18719774 3.19672386 -29.00559012 2.88137155 -26.82427979 2.56398201 C-23.81196526 2.12602973 -20.79872143 1.69511874 -17.78515625 1.26586914 C-16.90750107 1.13660538 -16.02984589 1.00734161 -15.12559509 0.87416077 C-14.30047928 0.75806458 -13.47536346 0.64196838 -12.62524414 0.52235413 C-11.92065567 0.4208307 -11.2160672 0.31930727 -10.49012756 0.21470737 C-7.00561482 -0.08573932 -3.49744153 0 0 0 Z " fill="#00B0FF" transform="translate(214,88)"/>
</svg>
