<?xml version="1.0" encoding="UTF-8"?>
<!-- Generator: visioncortex VTracer 0.6.12 -->
<svg version="1.1" xmlns="http://www.w3.org/2000/svg" width="512" height="512">
<path d="M0 0 C7.96332212 7.20502298 15.08747552 14.98870492 21.64599609 23.48925781 C21.8598999 23.76495605 21.8598999 23.76495605 22.94238281 25.16015625 C58.10600085 70.77029387 73.03967998 127.64761574 66.12451172 184.69775391 C58.74233639 239.17788266 30.39818417 290.73267406 -13.35400391 324.48925781 C-13.90540039 324.91706543 -14.45679688 325.34487305 -15.02490234 325.78564453 C-60.63503996 360.94926257 -117.51236183 375.8829417 -174.5625 368.96777344 C-229.04262876 361.5855981 -280.59742015 333.24144589 -314.35400391 289.48925781 C-314.78181152 288.93786133 -315.20961914 288.38646484 -315.65039062 287.81835938 C-350.81400866 242.20822175 -365.74768779 185.33089989 -358.83251953 128.28076172 C-351.4503442 73.80063296 -323.10619199 22.24584157 -279.35400391 -11.51074219 C-278.80260742 -11.9385498 -278.25121094 -12.36635742 -277.68310547 -12.80712891 C-203.1141295 -70.29686968 -94.31493438 -73.42051332 0 0 Z " fill="#FCFDFE" transform="translate(402.35400390625,99.5107421875)"/>
<path d="M0 0 C1.64004642 0.43059518 3.28069635 0.85889682 4.921875 1.28515625 C30.35116585 8.14695064 55.52165076 20.91358808 74 40 C73.23816406 40.08636719 72.47632813 40.17273438 71.69140625 40.26171875 C64.46187707 41.24551236 59.03428461 42.89283223 53 47 C51.948125 47.70125 50.89625 48.4025 49.8125 49.125 C44.08623296 54.3379882 40.74501894 61.00742075 40.29833984 68.75268555 C39.96074499 82.70149126 46.95660463 94.6827737 54.26290894 106.12850952 C56.17535733 109.13192625 58.04079086 112.16406986 59.90234375 115.19921875 C60.26435379 115.78941299 60.62636383 116.37960724 60.99934387 116.98768616 C63.90867833 121.76990966 66.55774568 126.62217359 68.9375 131.6875 C69.23640137 132.31446777 69.53530273 132.94143555 69.84326172 133.58740234 C73.52302918 141.77083208 74.34406094 149.75006282 74.3125 158.625 C74.32861328 159.50800781 74.34472656 160.39101562 74.36132812 161.30078125 C74.3717208 175.87131057 69.83839976 189.28387856 65.125 202.875 C64.08096274 205.91237628 63.0425178 208.95162011 62.0078125 211.9921875 C61.75371613 212.73783966 61.49961975 213.48349182 61.23782349 214.2517395 C58.58741017 222.0996379 56.29205156 230.04174335 54 238 C53.43861752 239.88392551 52.87408941 241.76692027 52.3046875 243.6484375 C52.06508301 244.44088867 51.82547852 245.23333984 51.57861328 246.04980469 C51.3464209 246.81711914 51.11422852 247.58443359 50.875 248.375 C48.81067488 255.22258198 46.80942541 262.07974143 45 269 C43 268 43 268 41.8478241 265.02128601 C41.40419673 263.64773123 40.96894854 262.27145609 40.53979492 260.89331055 C40.41701959 260.51049455 40.41701959 260.51049455 39.79570198 258.57321358 C39.24928079 256.86786276 38.70616527 255.16145035 38.16579628 253.45417213 C36.61829959 248.5697235 35.04263706 243.69434098 33.47021484 238.81787109 C33.12278008 237.73854844 32.77534533 236.65922579 32.41738224 235.54719639 C27.98082118 221.7922357 23.40614969 208.08313522 18.83515406 194.37241983 C18.11235938 192.20426592 17.38985848 190.03601433 16.66744614 187.867733 C13.96812675 179.76617666 11.26680239 171.66529061 8.56443775 163.5647496 C6.5388426 157.49232776 4.51550458 151.41915559 2.49267036 145.34581357 C0.51299699 139.40225117 -1.46784785 133.45908015 -3.44966918 127.51623362 C-4.62109785 124.00349307 -5.79213971 120.49062497 -6.96210289 116.97739601 C-8.25385809 113.09869465 -9.54807191 109.22081797 -10.8425293 105.34301758 C-11.03185532 104.7740274 -11.03185532 104.7740274 -11.98995972 101.89459229 C-13.5030013 97.36751594 -15.02932807 92.86504704 -16.75984192 88.4160614 C-18 85 -18 85 -18 82 C-17.40985107 81.91435791 -16.81970215 81.82871582 -16.21166992 81.74047852 C-13.53652607 81.35064401 -10.86201571 80.95661986 -8.1875 80.5625 C-7.25873047 80.42779297 -6.32996094 80.29308594 -5.37304688 80.15429688 C-4.48037109 80.02216797 -3.58769531 79.89003906 -2.66796875 79.75390625 C-1.84578857 79.63345947 -1.0236084 79.5130127 -0.17651367 79.38891602 C2 79 2 79 5 78 C6.52150158 74.95699684 6.23899393 72.345915 6 69 C2.76613802 66.84409201 2.25474611 66.78039048 -1.3984375 67.0234375 C-2.32978516 67.07516113 -3.26113281 67.12688477 -4.22070312 67.18017578 C-5.26162109 67.24446777 -6.30253906 67.30875977 -7.375 67.375 C-20.08571975 68.00758515 -32.77502355 68.12802412 -45.5 68.125 C-45.98732605 68.1253273 -45.98732605 68.1253273 -48.45349121 68.12698364 C-61.24867312 68.12791333 -74.01012759 67.98375502 -86.77929688 67.09228516 C-87.2449707 67.06481201 -87.2449707 67.06481201 -89.6015625 66.92578125 C-89.99512939 66.89697876 -89.99512939 66.89697876 -91.98681641 66.7512207 C-94 67 -94 67 -95.75146484 68.31713867 C-97.67202941 70.90580734 -97.39045538 72.87635695 -97 76 C-95.40176139 78.13045682 -94.42957344 78.8965458 -91.82348633 79.52416992 C-91.00130615 79.59224854 -90.17912598 79.66032715 -89.33203125 79.73046875 C-88.88569336 79.77075195 -88.88569336 79.77075195 -86.62695312 79.97460938 C-86.16256836 80.00973633 -86.16256836 80.00973633 -83.8125 80.1875 C-82.87212891 80.26935547 -81.93175781 80.35121094 -80.96289062 80.43554688 C-78.64264537 80.63577108 -76.32195897 80.82112167 -74 81 C-70.33680118 89.52861987 -67.07173312 98.14902955 -63.98828125 106.90234375 C-63.52971017 108.1961216 -63.07081581 109.4897849 -62.61161804 110.78334045 C-61.41772786 114.14879205 -60.22757531 117.51555199 -59.03845215 120.88269043 C-57.12647541 126.29454588 -55.20859852 131.7043134 -53.29088402 137.11413765 C-52.62616421 138.99096881 -51.96312793 140.86839596 -51.30012512 142.74583435 C-50.89597885 143.88794876 -50.49183258 145.03006317 -50.07543945 146.20678711 C-49.72189896 147.20761826 -49.36835846 148.2084494 -49.00410461 149.23960876 C-48 152 -48 152 -46.80778503 154.48707581 C-44.84526037 160.5922591 -48.34011442 167.45184591 -50.29467773 173.28808594 C-50.63298615 174.30987442 -50.97129456 175.3316629 -51.31985474 176.38441467 C-52.43650048 179.75261588 -53.55976098 183.11856558 -54.68359375 186.484375 C-55.46230228 188.82506098 -56.24078734 191.16582131 -57.01905823 193.50665283 C-58.64941488 198.406652 -60.28317177 203.30550145 -61.91918945 208.20361328 C-64.0191292 214.49191568 -66.1095123 220.7833477 -68.19724941 227.0757103 C-69.80151665 231.90681724 -71.41133857 236.73605906 -73.0228138 241.56476593 C-73.79616733 243.88467277 -74.56764828 246.20520469 -75.33724785 248.52635956 C-76.4110857 251.76268075 -77.49248439 254.99637622 -78.57592773 258.22949219 C-78.89444199 259.19470291 -79.21295624 260.15991364 -79.54112244 261.15437317 C-79.836922 262.03193771 -80.13272156 262.90950226 -80.43748474 263.81365967 C-80.56496456 264.19599447 -80.56496456 264.19599447 -81.21008968 266.1308403 C-82 268 -82 268 -84 270 C-92.08925437 245.80224521 -100.17338771 221.60278492 -108.25138855 197.40127087 C-112.00206457 186.16472712 -115.75442925 174.92875254 -119.51074219 163.6940918 C-122.783842 153.90464674 -126.05380139 144.11415943 -129.31995678 134.32239515 C-131.05027371 129.13536329 -132.78218387 123.94887552 -134.51785278 118.76363182 C-136.15015093 113.88703983 -137.77825895 109.00906955 -139.4031105 104.12999153 C-140.00140119 102.33594748 -140.60124438 100.54242033 -141.20272446 98.74944305 C-142.0213756 96.30833535 -142.83450783 93.8654583 -143.64624023 91.42204285 C-143.88747903 90.70706499 -144.12871782 89.99208713 -144.37726688 89.25544327 C-145.32941142 86.372676 -146 84.05891656 -146 81 C-145.70754395 80.97756226 -145.70754395 80.97756226 -144.22753906 80.86401367 C-141.56706843 80.65215747 -138.90873854 80.42004807 -136.25 80.1875 C-135.32960937 80.11724609 -134.40921875 80.04699219 -133.4609375 79.97460938 C-133.01621094 79.93432617 -133.01621094 79.93432617 -130.765625 79.73046875 C-129.94868164 79.66239014 -129.13173828 79.59431152 -128.29003906 79.52416992 C-125.51608472 78.88923602 -124.03658881 77.97924852 -122 76 C-121.625 72.4375 -121.625 72.4375 -122 69 C-124 67 -124 67 -127.09765625 66.76953125 C-128.40605469 66.78371094 -129.71445313 66.79789062 -131.0625 66.8125 C-131.77784912 66.81894531 -132.49319824 66.82539063 -133.23022461 66.83203125 C-138.87223253 66.91079415 -144.48378023 67.25266236 -150.11132812 67.64160156 C-160.0597233 68.27302938 -170.03689284 68.0858547 -180 68 C-165.36665401 37.68323916 -128.68684755 15.98316763 -98.26171875 4.6015625 C-91.64819827 2.29695663 -84.99129976 0.39453463 -78.1875 -1.25 C-77.51855713 -1.41330811 -76.84961426 -1.57661621 -76.16040039 -1.74487305 C-52.77252766 -7.1239978 -22.95514311 -6.71669546 0 0 Z " fill="#02579B" transform="translate(297,90)"/>
<path d="M0 0 C7.96332212 7.20502298 15.08747552 14.98870492 21.64599609 23.48925781 C21.8598999 23.76495605 21.8598999 23.76495605 22.94238281 25.16015625 C58.10600085 70.77029387 73.03967998 127.64761574 66.12451172 184.69775391 C58.74233639 239.17788266 30.39818417 290.73267406 -13.35400391 324.48925781 C-13.90540039 324.91706543 -14.45679688 325.34487305 -15.02490234 325.78564453 C-60.63503996 360.94926257 -117.51236183 375.8829417 -174.5625 368.96777344 C-229.04262876 361.5855981 -280.59742015 333.24144589 -314.35400391 289.48925781 C-314.78181152 288.93786133 -315.20961914 288.38646484 -315.65039062 287.81835938 C-350.81400866 242.20822175 -365.74768779 185.33089989 -358.83251953 128.28076172 C-351.4503442 73.80063296 -323.10619199 22.24584157 -279.35400391 -11.51074219 C-278.80260742 -11.9385498 -278.25121094 -12.36635742 -277.68310547 -12.80712891 C-203.1141295 -70.29686968 -94.31493438 -73.42051332 0 0 Z M-230.35400391 -16.51074219 C-231.07668457 -16.15753906 -231.79936523 -15.80433594 -232.54394531 -15.44042969 C-242.86709329 -10.35545048 -252.21780071 -4.49658125 -261.35400391 2.48925781 C-262.23443359 3.15699219 -263.11486328 3.82472656 -264.02197266 4.51269531 C-270.80679183 9.79816653 -277.09316349 15.60299759 -283.35400391 21.48925781 C-283.67240234 21.78058594 -283.67240234 21.78058594 -285.28369141 23.25488281 C-318.27978722 54.51434201 -337.34412252 103.48102073 -338.60791016 148.29785156 C-339.43822932 204.70790808 -319.50360115 254.11682451 -280.41650391 294.73925781 C-275.01364161 300.01119453 -269.14784235 304.62586992 -263.12011719 309.15429688 C-261.47294526 310.39935301 -259.84804357 311.673721 -258.22509766 312.95019531 C-241.95804638 325.28521088 -222.82629553 334.47329164 -203.35400391 340.48925781 C-202.58958984 340.72580078 -201.82517578 340.96234375 -201.03759766 341.20605469 C-165.80004763 351.82438153 -125.37009205 352.44186482 -90.35400391 340.48925781 C-89.06255346 340.07712134 -87.77087384 339.66570251 -86.47900391 339.25488281 C-38.72098081 323.64775948 1.58943068 289.48520153 24.51708984 244.75683594 C48.11837939 197.35009343 52.38271309 144.58371985 35.88134766 94.15234375 C23.94148713 59.00889328 1.11254864 27.0570409 -28.35400391 4.48925781 C-28.93972168 4.03824707 -29.52543945 3.58723633 -30.12890625 3.12255859 C-55.95502918 -16.54846049 -85.41416923 -28.41181313 -117.35400391 -33.51074219 C-118.4483374 -33.69475586 -119.5426709 -33.87876953 -120.67016602 -34.06835938 C-129.36149881 -35.44096482 -137.87265107 -35.89816594 -146.66650391 -35.88574219 C-147.01169067 -35.88530411 -147.01169067 -35.88530411 -148.75854492 -35.88308716 C-177.23364924 -35.76510767 -204.84681789 -29.17929169 -230.35400391 -16.51074219 Z " fill="#02589B" transform="translate(402.35400390625,99.5107421875)"/>
<path d="M0 0 C0.66 0 1.32 0 2 0 C13.30822391 30.95230306 24.61149539 61.90639028 35.875 92.875 C36.07458313 93.42354141 36.07458313 93.42354141 37.08459473 96.19949341 C38.97684408 101.40072828 40.86615364 106.60297934 42.74902344 111.80761719 C44.34613515 116.21717688 45.96889664 120.61654436 47.60253906 125.01269531 C48.44598549 127.30272629 49.2894106 129.59276512 50.1328125 131.8828125 C50.33406235 132.41805038 50.33406235 132.41805038 51.35250854 135.12667847 C51.71458405 136.11499664 52.07665955 137.10331482 52.44970703 138.12158203 C52.61181168 138.55745132 52.61181168 138.55745132 53.43215942 140.76321411 C54 143 54 143 53 146 C51.23193359 146.84375 51.23193359 146.84375 48.8984375 147.5 C48.02751465 147.7460498 47.1565918 147.99209961 46.25927734 148.24560547 C45.30746582 148.49455566 44.3556543 148.74350586 43.375 149 C42.88298096 149.13027588 42.88298096 149.13027588 40.39306641 149.78955078 C11.16962331 157.19615809 -21.2517835 157.97077227 -50 148 C-48.63448406 141.26448235 -46.73730102 134.92320555 -44.45703125 128.4453125 C-44.27873276 127.93202393 -44.27873276 127.93202393 -43.37643433 125.33447266 C-42.60041286 123.10212704 -41.82213062 120.87056631 -41.0418396 118.63970947 C-39.13144457 113.17784726 -37.23430798 107.7113853 -35.33569527 102.24541855 C-34.65621896 100.28992676 -33.97610045 98.33465921 -33.29588318 96.37942505 C-29.78448904 86.28224744 -26.30373053 76.17472817 -22.8359375 66.0625 C-22.57918684 65.31386562 -22.32243618 64.56523125 -22.0579052 63.79391098 C-20.01752902 57.84391861 -17.97849013 51.89346822 -15.93994522 45.94284821 C-14.27719461 41.08921994 -12.6138522 36.23579537 -10.94921875 31.3828125 C-10.72765673 30.73686253 -10.5060947 30.09091255 -10.27781868 29.42538834 C-6.90551994 19.59771592 -3.49274757 9.785519 0 0 Z " fill="#03589B" transform="translate(258,272)"/>
<path d="M0 0 C0.66 0 1.32 0 2 0 C7.81662891 15.40881259 13.52603159 30.85341474 19.13815308 46.33782959 C21.31697938 52.34870006 23.50066645 58.35780543 25.68359375 64.3671875 C26.12886917 65.59329742 26.57414459 66.81940735 27.03291321 68.08267212 C31.48900454 80.35120286 35.95863747 92.61476505 40.4375 104.875 C40.82081482 105.92427673 41.20412964 106.97355347 41.59906006 108.05462646 C47.58401194 124.43249975 53.60069659 140.7986215 59.63079834 157.15991211 C60.98093752 160.82327731 62.33059269 164.48682053 63.68017578 168.15039062 C70.62722421 187.00503959 70.62722421 187.00503959 73.90457153 195.82711792 C74.97429415 198.70762809 76.04081505 201.58931645 77.10668945 204.47125244 C77.78699428 206.3062047 78.47249849 208.13922673 79.15820312 209.97216797 C79.54556641 211.02033691 79.93292969 212.06850586 80.33203125 213.1484375 C80.65921143 214.02677246 80.9863916 214.90510742 81.32348633 215.81005859 C82 218 82 218 82 221 C76.94263779 219.55615431 72.89839549 217.35340653 68.5 214.5625 C67.80221436 214.12147949 67.10442871 213.68045898 66.38549805 213.22607422 C27.14869989 187.98686045 -0.1128787 149.55272464 -10.125 103.9375 C-10.29386719 103.19951172 -10.46273437 102.46152344 -10.63671875 101.70117188 C-10.71857422 101.33217773 -10.71857422 101.33217773 -11.1328125 99.46484375 C-11.27605957 98.821521 -11.41930664 98.17819824 -11.56689453 97.51538086 C-12.74550182 90.67029017 -13.16524424 83.87093401 -13.203125 76.93359375 C-13.20882507 76.09643326 -13.21452515 75.25927277 -13.22039795 74.39674377 C-13.22978001 72.63454423 -13.23635461 70.87232767 -13.24023438 69.11010742 C-13.2498876 66.46826039 -13.28095481 63.82721044 -13.3125 61.18554688 C-13.39904159 47.38329501 -11.72533844 34.55200312 -7.625 21.3125 C-7.41657471 20.61970947 -7.20814941 19.92691895 -6.9934082 19.21313477 C-4.98676016 12.68197136 -2.5848774 6.32470003 0 0 Z " fill="#03589C" transform="translate(99,188)"/>
<path d="M0 0 C20.42428601 25.85840376 23.80225366 69.46902359 20.27734375 100.88061523 C14.48447009 144.46449873 -7.36691822 186.37659725 -42 214 C-44.92158437 216.21946055 -47.88587775 218.37255505 -50.875 220.5 C-51.23799194 220.75849731 -51.23799194 220.75849731 -53.07495117 222.06665039 C-56.60467843 224.52284269 -59.87716853 226.64189081 -64 228 C-61.92974795 220.9213545 -59.67350219 213.92265133 -57.296875 206.94140625 C-56.94255905 205.89655563 -56.5882431 204.85170502 -56.22319031 203.77519226 C-55.06758741 200.37023454 -53.90902271 196.96629504 -52.75 193.5625 C-52.54991837 192.97406311 -52.54991837 192.97406311 -51.53738403 189.99621582 C-44.75392843 170.05008951 -37.85570746 150.14599008 -30.89077759 130.26264954 C-27.28157599 119.95573983 -23.69400388 109.64132476 -20.11160278 99.32507324 C-19.38629886 97.23707408 -18.66047267 95.14925624 -17.93405151 93.06164551 C-14.29822651 82.61272473 -10.68623274 72.15576911 -7.15234375 61.671875 C-7.01101013 61.25696304 -7.01101013 61.25696304 -6.29577637 59.15725708 C0.27473198 39.53584442 0.5170493 20.46520895 0 0 Z " fill="#04599C" transform="translate(406,175)"/>
</svg>
