<?xml version="1.0" encoding="UTF-8"?>
<!-- Generator: visioncortex VTracer 0.6.12 -->
<svg version="1.1" xmlns="http://www.w3.org/2000/svg" width="512" height="512">
<path d="M0 0 C5.00393089 0.01137003 10.00764831 0.00461225 15.01157188 -0.00687599 C50.23668891 -0.07540774 85.34925225 1.13197281 120.45385742 4.13574219 C120.95963821 4.17820572 120.95963821 4.17820572 123.51919556 4.39309692 C136.16540094 5.46084423 148.79749693 6.62198045 161.39135742 8.19824219 C162.51638672 8.33149902 163.64141602 8.46475586 164.80053711 8.60205078 C182.65942579 11.03834586 197.45352149 18.54857513 209.20385742 32.26074219 C217.46596656 43.2058158 219.74003626 56.6182437 221.76635742 69.88574219 C221.97825233 71.23795873 222.19016676 72.59017222 222.40209961 73.94238281 C231.96030688 135.82512012 229.90860152 197.50806863 221.06973267 259.32156372 C220.87178839 260.70916486 220.67820349 262.09739691 220.48959351 263.48629761 C218.32156116 279.23897529 212.91880495 292.97416959 200.57885742 303.51074219 C192.25040452 309.69686855 183.4322406 314.02702058 173.32495117 316.30371094 C172.59057831 316.47208969 171.85620544 316.64046844 171.09957886 316.81394958 C163.07027976 318.59755611 154.98128368 319.77023771 146.82885742 320.82324219 C146.03872253 320.9274649 145.24858765 321.03168762 144.43450928 321.1390686 C100.85201066 326.8647572 57.02199131 328.62425859 13.09741211 328.52148438 C8.18747958 328.510091 3.27776403 328.51688615 -1.63216114 328.52836132 C-34.53507929 328.59353461 -67.34058141 327.56728089 -100.10864258 324.44824219 C-100.55608826 324.40658432 -100.55608826 324.40658432 -102.82043457 324.19577026 C-115.43283107 323.01271941 -128.00321275 321.59911368 -140.54614258 319.82324219 C-140.88136429 319.77757614 -140.88136429 319.77757614 -142.57778931 319.54647827 C-165.1417985 316.42564375 -183.81777068 308.90282856 -197.92895508 290.47558594 C-211.85034962 268.08684969 -211.0580994 232.90991433 -212.79614258 207.26074219 C-212.82579102 206.8244751 -212.82579102 206.8244751 -212.97583008 204.61669922 C-215.48263972 165.33588745 -214.05291227 125.61853524 -209.85864258 86.51074219 C-209.77932495 85.76635895 -209.70000732 85.02197571 -209.61828613 84.2550354 C-208.72429692 75.99920833 -207.62992302 67.78679124 -206.30395508 59.58886719 C-206.18725967 58.85138245 -206.07056427 58.11389771 -205.95033264 57.35406494 C-204.07102172 46.14908039 -199.50255345 37.57669969 -191.79614258 29.26074219 C-191.22508789 28.63554688 -190.6540332 28.01035156 -190.06567383 27.36621094 C-185.98942444 23.37994498 -181.31292249 20.69233219 -176.29614258 18.07324219 C-175.69866211 17.75210449 -175.10118164 17.4309668 -174.4855957 17.10009766 C-162.22748645 11.03063978 -147.89706462 9.4210229 -134.48364258 7.69824219 C-133.69101013 7.59401947 -132.89837769 7.48979675 -132.08172607 7.38241577 C-88.24539332 1.6376802 -44.17812324 -0.10120674 0 0 Z M-134.61499023 29.80957031 C-137.38505218 30.20243865 -140.15629322 30.55856717 -142.93286133 30.90136719 C-155.89715824 32.64298808 -170.10691516 37.99817225 -178.79614258 48.26074219 C-183.02908936 55.026991 -184.83859876 61.67582338 -185.92114258 69.51074219 C-186.07945557 70.57413818 -186.23776855 71.63753418 -186.40087891 72.7331543 C-188.32971436 86.18452468 -189.6757763 99.72007971 -190.79614258 113.26074219 C-190.89330566 114.36361572 -190.99046875 115.46648926 -191.09057617 116.6027832 C-192.21660151 131.39172103 -192.04071082 146.24992653 -192.04614258 161.07324219 C-192.04673172 161.80847862 -192.04732086 162.54371506 -192.04792786 163.30123138 C-192.06061476 185.73512354 -191.80370779 207.99013513 -188.79614258 230.26074219 C-188.64628906 231.38303223 -188.49643555 232.50532227 -188.34204102 233.66162109 C-187.3800775 240.5761168 -186.2012959 247.42298904 -184.79614258 254.26074219 C-184.70204102 254.72287109 -184.70204102 254.72287109 -184.22583008 257.06152344 C-180.13898842 276.54213533 -180.13898842 276.54213533 -173.79614258 283.26074219 C-173.2109082 283.88851563 -172.62567383 284.51628906 -172.02270508 285.16308594 C-164.18540344 292.72848119 -154.16499012 295.87408724 -143.67114258 297.82324219 C-142.59896484 298.02739746 -141.52678711 298.23155273 -140.42211914 298.44189453 C-118.45117216 302.46020749 -96.30877819 304.45142352 -74.04614258 305.94824219 C-73.14988159 306.00908997 -72.25362061 306.06993774 -71.3302002 306.13262939 C-45.6764779 307.84378012 -20.00325978 308.46940788 5.70385742 308.44824219 C6.96812561 308.44797028 8.2323938 308.44769836 9.53497314 308.44741821 C164.43564184 308.29589944 164.43564184 308.29589944 190.36791992 283.29980469 C200.11355012 272.47593456 199.93128535 253.15344258 201.70385742 239.19824219 C201.75688522 238.78163834 201.75688522 238.78163834 202.02523804 236.67337036 C220.74684012 88.0771197 220.74684012 88.0771197 191.81713867 47.15917969 C178.9446175 32.01137027 159.20183136 30.36321288 140.64135742 28.26074219 C139.91909973 28.17769836 139.19684204 28.09465454 138.45269775 28.00909424 C48.41525909 17.71889229 -44.79878173 16.87985986 -134.61499023 29.80957031 Z " fill="#000000" transform="translate(243.796142578125,91.7392578125)"/>
<path d="M0 0 C3.71460266 0.92865066 6.14458636 2.04118672 9.453125 3.88671875 C10.53480957 4.48814697 11.61649414 5.0895752 12.73095703 5.70922852 C13.90411129 6.36840336 15.07712192 7.02783387 16.25 7.6875 C17.4685084 8.36854928 18.68709676 9.04945552 19.90576172 9.73022461 C28.69025673 14.64944655 37.39726845 19.69606036 46.07714844 24.79760742 C53.1680826 28.95736496 60.31636565 33.00271796 67.5 37 C76.72274553 42.13257745 85.85993545 47.39352851 94.96069336 52.73901367 C103.31682711 57.63384015 111.76033773 62.36216602 120.22241211 67.07080078 C128.25101832 71.55000562 136.16795213 76.18615594 144 81 C142.70370192 84.88889425 141.3996439 85.166712 137.83984375 87.08203125 C136.74849121 87.67701416 135.65713867 88.27199707 134.53271484 88.88500977 C133.94754089 89.19866486 133.36236694 89.51231995 132.75946045 89.83547974 C129.65329394 91.50115125 126.56405164 93.19774532 123.47265625 94.890625 C122.84145874 95.23525284 122.21026123 95.57988068 121.55993652 95.93495178 C115.59841326 99.19824303 109.72951328 102.61119649 103.875 106.0625 C95.80388333 110.80876259 87.68184626 115.44727007 79.5 120 C70.27725447 125.13257745 61.14006455 130.39352851 52.03930664 135.73901367 C43.68157746 140.63477472 35.23890338 145.36872921 26.77099609 150.07080078 C20.1932496 153.73442214 13.6899402 157.49073997 7.32397461 161.51293945 C4.61824583 163.19169997 3.25847359 164 0 164 C0 109.88 0 55.76 0 0 Z M22 36 C22 66.36 22 96.72 22 128 C26.62 125.36 31.24 122.72 36 120 C40.28837704 117.61872624 44.57968679 115.243642 48.875 112.875 C60.82643628 106.2618441 72.63872065 99.42934046 84.41650391 92.51123047 C89.91722905 89.29355057 95.45621657 86.14277863 101 83 C101 82.34 101 81.68 101 81 C100.33170166 80.6282666 99.66340332 80.2565332 98.97485352 79.87353516 C76.50334303 67.36258868 76.50334303 67.36258868 65.76391602 60.98217773 C58.7194105 56.80825112 51.61012969 52.74815947 44.5 48.6875 C43.89658783 48.34261536 43.29317566 47.99773071 42.67147827 47.64239502 C35.8040711 43.71826271 28.91465685 39.84147603 22 36 Z " fill="#000000" transform="translate(194,174)"/>
</svg>
