<?xml version="1.0" encoding="UTF-8"?>
<!-- Generator: visioncortex VTracer 0.6.12 -->
<svg version="1.1" xmlns="http://www.w3.org/2000/svg" width="512" height="512">
<path d="M0 0 C1.85900392 -0.00698122 3.71800762 -0.01402216 5.57701111 -0.02111816 C11.48363545 -0.04038609 17.39022265 -0.04529396 23.296875 -0.046875 C23.79978121 -0.04716957 23.79978121 -0.04716957 26.34479141 -0.04866028 C56.16042504 -0.06098903 85.83617873 0.184389 115.54620361 2.96881104 C118.119943 3.2099715 120.69438529 3.44220492 123.26904297 3.67333984 C134.5467413 4.69672064 145.79968028 5.88835165 157.046875 7.203125 C157.77148926 7.2866925 158.49610352 7.37026001 159.24267578 7.45635986 C164.05596687 8.01210321 168.8645254 8.59806099 173.671875 9.203125 C174.84443848 9.34484131 176.01700195 9.48655762 177.22509766 9.63256836 C194.34668182 11.90242824 210.18068613 17.67357505 221.0234375 31.7734375 C227.79012492 41.88027701 230.6430971 52.48390502 232.546875 64.390625 C232.7540918 65.66075439 232.96130859 66.93088379 233.17480469 68.23950195 C234.94319289 79.41164696 236.17174324 90.63784926 237.296875 101.890625 C237.37977783 102.71404388 237.46268066 103.53746277 237.5480957 104.38583374 C242.64827664 155.71889856 240.20201616 207.97201341 232.046875 258.890625 C231.90523926 259.79707764 231.76360352 260.70353027 231.61767578 261.63745117 C229.83636115 271.93610316 226.36169083 280.85741363 220.046875 289.203125 C219.59570312 289.81929688 219.14453125 290.43546875 218.6796875 291.0703125 C204.84447834 308.65744278 182.2328099 310.1734423 161.671875 312.640625 C160.81091217 312.74540161 159.94994934 312.85017822 159.06289673 312.95812988 C143.8156006 314.80010607 128.54125622 316.21078353 113.234375 317.453125 C112.72673615 317.4945311 112.72673615 317.4945311 110.15777588 317.70407104 C107.19799665 317.94305924 104.23782555 318.17613957 101.27734375 318.40625 C100.43885391 318.47270218 99.60036407 318.53915436 98.73646545 318.60762024 C82.60312464 319.82553972 66.48842422 320.3677833 50.3125 320.40625 C48.47600788 320.41323185 46.63951598 320.42027279 44.80302429 320.42736816 C38.96763811 320.44663522 33.13228953 320.45154417 27.296875 320.453125 C26.30279255 320.45371414 25.3087101 320.45430328 24.28450394 320.45491028 C-5.36802834 320.46731412 -34.86760192 320.1761206 -64.41668701 317.43743896 C-67.03647224 317.19542545 -69.65700603 316.96336158 -72.27783203 316.73291016 C-83.85363804 315.70596899 -95.40752809 314.52616593 -106.953125 313.203125 C-107.68718567 313.1195575 -108.42124634 313.03598999 -109.17755127 312.94989014 C-114.00259975 312.39754712 -118.82222549 311.81079924 -123.640625 311.203125 C-124.22497314 311.13226685 -124.22497314 311.13226685 -127.18212891 310.77368164 C-144.2824586 308.49605051 -160.10105585 302.71431373 -170.9296875 288.6328125 C-176.99774324 279.56946116 -180.24773242 269.86217677 -181.953125 259.140625 C-182.11337158 258.15529785 -182.27361816 257.1699707 -182.4387207 256.15478516 C-186.20203298 231.51322317 -188.633544 206.13044323 -188.953125 181.203125 C-188.96301453 180.51166382 -188.97290405 179.82020264 -188.98309326 179.10778809 C-189.42369079 147.42672782 -188.5800857 116.01237934 -185.015625 84.515625 C-184.93630737 83.81108185 -184.85698975 83.1065387 -184.77526855 82.38064575 C-183.8805526 74.56523516 -182.77951358 66.80172349 -181.43359375 59.05078125 C-181.31323257 58.35213455 -181.1928714 57.65348785 -181.06886292 56.93367004 C-178.370905 41.90434009 -171.44236001 29.27065179 -158.953125 20.203125 C-144.62881433 11.28944984 -128.55742287 9.79833724 -112.140625 7.765625 C-111.30494995 7.66084839 -110.4692749 7.55607178 -109.60827637 7.44812012 C-94.33959689 5.5515894 -79.03969798 4.16857914 -63.703125 2.953125 C-63.18264084 2.9117189 -63.18264084 2.9117189 -60.54867554 2.70217896 C-57.51197248 2.46318738 -54.474894 2.23003302 -51.4375 2 C-50.57395401 1.93354782 -49.71040802 1.86709564 -48.82069397 1.79862976 C-32.55172868 0.6031575 -16.31018455 0.03829106 0 0 Z " fill="#FF3D00" transform="translate(230.953125,95.796875)"/>
<path d="M0 0 C4.54511495 1.51503832 7.60429293 2.76742601 11.578125 5.16796875 C12.64313232 5.80621582 13.70813965 6.44446289 14.80541992 7.10205078 C15.36587006 7.44141663 15.92632019 7.78078247 16.50375366 8.13043213 C19.51730887 9.9546492 22.54267699 11.75912207 25.56640625 13.56640625 C26.18643021 13.93767639 26.80645416 14.30894653 27.44526672 14.69146729 C33.65361532 18.40389963 39.91490002 22.0223198 46.1875 25.625 C57.48981983 32.12404651 68.75856345 38.67858633 80.01464844 45.25732422 C83.05207975 47.03040115 86.09207948 48.79899828 89.1328125 50.56640625 C101.81719639 57.9429471 114.44189718 65.41035464 127 73 C125.69480626 76.91558121 124.29307187 77.25103008 120.7265625 79.23046875 C120.16606201 79.54536255 120.16606201 79.54536255 117.32958984 81.13891602 C116.72701355 81.47206818 116.12443726 81.80522034 115.50360107 82.14846802 C112.28874212 83.92656839 109.09098703 85.73504309 105.890625 87.5390625 C105.23117889 87.90969315 104.57173279 88.28032379 103.89230347 88.66218567 C97.32519695 92.36045704 90.84638148 96.19908098 84.375 100.0625 C74.48690804 105.95222282 64.55073198 111.75027536 54.57348633 117.48754883 C47.2211716 121.71575808 39.88589358 125.97190241 32.5625 130.25 C32.0727771 130.53568848 32.0727771 130.53568848 29.59448242 131.98144531 C24.84156079 134.75434835 20.09203366 137.53281479 15.34765625 140.3203125 C13.60684031 141.33866044 11.86595842 142.35689566 10.125 143.375 C9.32779541 143.84583008 8.53059082 144.31666016 7.70922852 144.80175781 C2.22661448 148 2.22661448 148 0 148 C0 99.16 0 50.32 0 0 Z " fill="#FFFDFC" transform="translate(213,182)"/>
</svg>
