<?xml version="1.0" encoding="UTF-8"?>
<!-- Generator: visioncortex VTracer 0.6.12 -->
<svg version="1.1" xmlns="http://www.w3.org/2000/svg" width="512" height="512">
<path d="M0 0 C1.21883377 -0.00623996 2.43766754 -0.01247993 3.69343567 -0.01890898 C7.03695896 -0.03199398 10.3795684 -0.02743469 13.72303391 -0.0149641 C17.34411327 -0.00584578 20.96511761 -0.01991665 24.58618164 -0.03088379 C31.66414479 -0.04860186 38.74193757 -0.04485915 45.81990719 -0.03323323 C51.57607856 -0.0241726 57.33220244 -0.02298623 63.08837891 -0.02732849 C63.90992179 -0.02794142 64.73146467 -0.02855436 65.57790279 -0.02918586 C67.24723436 -0.03046486 68.91656591 -0.03176171 70.58589745 -0.03307623 C86.21226148 -0.04446236 101.8385314 -0.03139928 117.46487999 -0.00987476 C130.85163375 0.00799444 144.23824874 0.00488978 157.625 -0.0135498 C173.19825014 -0.03499136 188.77141795 -0.04336391 204.34468079 -0.03110075 C206.00761921 -0.02982665 207.67055765 -0.02856917 209.33349609 -0.02732849 C210.15153686 -0.02671139 210.96957762 -0.02609429 211.81240749 -0.02545848 C217.55676194 -0.02201543 223.30106385 -0.02781132 229.04541016 -0.0372467 C236.05290288 -0.04850467 243.06021654 -0.04534731 250.06768894 -0.02412373 C253.63800972 -0.01366404 257.20803275 -0.00940363 260.77835083 -0.02272034 C264.65969124 -0.03697737 268.5405519 -0.01987089 272.421875 0 C273.5346431 -0.00892289 274.64741119 -0.01784577 275.79389954 -0.02703905 C290.38500917 0.11710059 302.82208578 5.29294486 313.4609375 15.25793457 C324.49370717 27.03677268 328.84682586 40.33995312 328.71887207 56.29699707 C328.72199205 56.90641396 328.72199205 56.90641396 328.73778105 59.99043274 C328.75086605 63.33395603 328.74630676 66.67656547 328.73383617 70.02003098 C328.72471785 73.64111034 328.73878872 77.26211468 328.74975586 80.88317871 C328.76747393 87.96114186 328.76373122 95.03893464 328.7521053 102.11690426 C328.74304467 107.87307563 328.7418583 113.62919951 328.74620056 119.38537598 C328.74681349 120.20691886 328.74742643 121.02846174 328.74805793 121.87489986 C328.74933693 123.54423143 328.75063378 125.21356298 328.7519483 126.88289452 C328.76333443 142.50925855 328.75027135 158.13552847 328.72874683 173.76187706 C328.71087763 187.14863082 328.71398229 200.53524581 328.73242188 213.92199707 C328.75386343 229.49524721 328.76223598 245.06841502 328.74997282 260.64167786 C328.74869872 262.30461628 328.74744124 263.96755472 328.74620056 265.63049316 C328.74589201 266.03951355 328.74589201 266.03951355 328.74433056 268.10940456 C328.7408875 273.85375901 328.74668339 279.59806092 328.75611877 285.34240723 C328.76737674 292.34989995 328.76421938 299.35721361 328.7429958 306.36468601 C328.73253611 309.93500679 328.7282757 313.50502982 328.74159241 317.0753479 C328.75584944 320.95668831 328.73874296 324.83754897 328.71887207 328.71887207 C328.72779496 329.83164017 328.73671784 330.94440826 328.74591112 332.09089661 C328.60135834 346.72382798 323.41399522 359.22040573 313.3359375 369.82043457 C304.27649489 378.32344309 292.77251802 384.61688067 280.1010828 384.64215565 C279.06308381 384.64661349 278.02508482 384.65107134 276.95563132 384.65566427 C275.81664765 384.6554799 274.67766398 384.65529554 273.50416565 384.65510559 C272.2930217 384.65878228 271.08187775 384.66245897 269.83403248 384.66624707 C266.4704852 384.67536681 263.10698669 384.67998206 259.74343169 384.68263638 C256.11608157 384.68654291 252.48874554 384.69612117 248.86140442 384.70484924 C240.09912344 384.72460628 231.33684131 384.73467998 222.57454363 384.74357703 C218.44549208 384.74796215 214.31644182 384.75332847 210.18739128 384.7585659 C196.45587842 384.77557924 182.72436636 384.79007174 168.99284458 384.79731464 C165.4298814 384.79922446 161.86691823 384.80114481 158.30395508 384.80310059 C157.41842392 384.80358433 156.53289276 384.80406807 155.62052732 384.80456647 C141.28676825 384.81286051 126.95309281 384.83818636 112.61937023 384.87068126 C97.89398756 384.90379103 83.16864731 384.92176704 68.44322723 384.92495888 C60.17928282 384.92712061 51.91546026 384.93581952 43.6515522 384.96142006 C36.6109292 384.98318085 29.57045765 384.99115123 22.52980483 384.98145328 C18.9413009 384.97692374 15.35310909 384.97871531 11.76464844 384.99821472 C7.86315881 385.01923068 3.96209358 385.00881208 0.06056213 384.99568176 C-1.05834504 385.00665101 -2.17725222 385.01762025 -3.33006567 385.0289219 C-17.9832353 384.91046596 -30.48730496 379.72452033 -41.1015625 369.63293457 C-49.60457102 360.57349196 -55.8980086 349.06951509 -55.92328358 336.39807987 C-55.92774142 335.36008088 -55.93219926 334.32208189 -55.93679219 333.25262839 C-55.93660783 332.11364472 -55.93642347 330.97466105 -55.93623352 329.80116272 C-55.93991021 328.59001877 -55.9435869 327.37887483 -55.947375 326.13102955 C-55.95649474 322.76748227 -55.96110999 319.40398376 -55.96376431 316.04042876 C-55.96767084 312.41307864 -55.97724909 308.78574261 -55.98597717 305.15840149 C-56.00573421 296.39612051 -56.01580791 287.63383838 -56.02470496 278.8715407 C-56.02909008 274.74248915 -56.0344564 270.61343889 -56.03969383 266.48438835 C-56.05670717 252.75287549 -56.07119967 239.02136343 -56.07844257 225.28984165 C-56.08035239 221.72687847 -56.08227273 218.1639153 -56.08422852 214.60095215 C-56.08471226 213.71542099 -56.085196 212.82988983 -56.0856944 211.91752439 C-56.09398844 197.58376532 -56.11931429 183.25008988 -56.15180919 168.9163673 C-56.18491896 154.19098463 -56.20289497 139.46564438 -56.20608681 124.7402243 C-56.20824854 116.47627989 -56.21694745 108.21245733 -56.24254799 99.94854927 C-56.26430878 92.90792627 -56.27227916 85.86745472 -56.26258121 78.8268019 C-56.25805167 75.23829797 -56.25984324 71.65010616 -56.27934265 68.06164551 C-56.30035861 64.16015588 -56.28994001 60.25909065 -56.27680969 56.3575592 C-56.28229432 55.79810562 -56.28229432 55.79810562 -56.31004983 52.9669314 C-56.19193115 38.3554808 -51.01751568 25.9111602 -41.0390625 15.25793457 C-29.26022439 4.2251649 -15.95704395 -0.12795379 0 0 Z " fill="#F44336" transform="translate(119.7890625,63.4920654296875)"/>
<path d="M0 0 C17.73284485 18.15428357 14.16095162 54.62160921 13.9765625 78.08984375 C13.17611084 132.16994546 13.17611084 132.16994546 0.19921875 145.3125 C-10.31466843 155.24228234 -26.76360173 155.87929039 -40.52636719 156.58886719 C-41.32621788 156.63126274 -42.12606857 156.67365829 -42.95015717 156.71733856 C-45.60323032 156.85405837 -48.25656147 156.98319305 -50.91015625 157.109375 C-51.37571301 157.13155972 -51.37571301 157.13155972 -53.73171234 157.24382782 C-76.05484682 158.27742992 -98.36772987 158.36920508 -120.7109375 158.32324219 C-126.31570603 158.31182095 -131.92028512 158.31865974 -137.5250473 158.33011627 C-158.67148203 158.36681973 -179.78756209 158.25389552 -200.91015625 157.171875 C-201.6876548 157.13304451 -202.46515335 157.09421402 -203.26621246 157.05420685 C-241.93923849 155.05969923 -241.93923849 155.05969923 -252.8359375 143.265625 C-263.05077911 129.03882611 -263.48832936 107.84603198 -263.4765625 91.03125 C-263.4804701 89.62422566 -263.48480881 88.21720245 -263.48954773 86.81018066 C-263.49694269 83.87894857 -263.49677036 80.94783702 -263.49145508 78.01660156 C-263.48684081 75.06136791 -263.49368664 72.10654742 -263.51196289 69.15136719 C-263.84404018 14.9938563 -263.84404018 14.9938563 -249.98046875 -0.6484375 C-242.57292012 -6.69415268 -234.86987604 -8.78935718 -225.5 -9.67578125 C-224.40975021 -9.79166092 -223.31950043 -9.90754059 -222.19621277 -10.02693176 C-211.14450933 -11.14801055 -200.08709959 -11.74343137 -188.98828125 -12.125 C-187.92037354 -12.16452789 -186.85246582 -12.20405579 -185.75219727 -12.24478149 C-20.48021478 -18.23731873 -20.48021478 -18.23731873 0 0 Z " fill="#FEFCFC" transform="translate(381.17578125,257.9375)"/>
<path d="M0 0 C5.94 0 11.88 0 18 0 C18.33 11.88 18.66 23.76 19 36 C21.31 33.69 23.62 31.38 26 29 C30.62120312 25.95197241 34.59645198 25.22032975 40 26 C44.8833879 27.72354867 48.51851799 30.41211318 51 35 C53.48835286 43.51896371 53.31079817 52.40258005 53.30078125 61.1953125 C53.30467969 62.63776775 53.30901667 64.08022187 53.31376648 65.52267456 C53.32117451 68.52638495 53.32097574 71.52997767 53.31567383 74.53369141 C53.30986484 78.36090042 53.32687066 82.18762774 53.3500185 86.01475716 C53.36482261 88.98667154 53.36561889 91.95847137 53.36250877 94.93041611 C53.36301793 96.34085931 53.36817835 97.75130963 53.37832069 99.16171646 C53.48896781 116.6846977 53.48896781 116.6846977 47.625 123.9375 C42.85457533 127.68569081 39.06946513 128.61723374 33 128 C27.42009807 125.96394111 22.71729083 122.53796813 18 119 C17.34 121.97 16.68 124.94 16 128 C10.72 128 5.44 128 0 128 C0 85.76 0 43.52 0 0 Z " fill="#F44538" transform="translate(256,267)"/>
<path d="M0 0 C5.08902294 4.11968524 8.85214921 8.95301531 10.640625 15.328125 C11.09340051 19.82531448 11.08484367 24.30320707 11.07421875 28.8203125 C11.0794606 30.1208255 11.08470245 31.4213385 11.09010315 32.76126099 C11.09900473 35.50646716 11.09664611 38.25138197 11.08666992 40.99658203 C11.07519629 44.49228389 11.09538039 47.98697309 11.12458706 51.48254204 C11.14748682 54.84518324 11.14047599 58.2075955 11.13671875 61.5703125 C11.14233574 62.1923204 11.14233574 62.1923204 11.17076111 65.34005737 C11.10174052 74.00701289 9.43298629 79.84040149 4.890625 87.140625 C-1.55622493 93.40839577 -9.73149342 94.77366197 -18.4453125 94.66796875 C-24.89002113 93.91637404 -30.32595964 90.78773406 -34.796875 86.140625 C-40.63690684 78.22704201 -40.81735491 68.93921718 -40.79296875 59.453125 C-40.7982106 58.2480127 -40.80345245 57.04290039 -40.80885315 55.80126953 C-40.81524438 53.26660936 -40.81397422 50.73191942 -40.80541992 48.19726562 C-40.79689969 44.33930285 -40.82573196 40.48281734 -40.85742188 36.625 C-40.85903398 34.15104211 -40.85845617 31.67708162 -40.85546875 29.203125 C-40.86670273 28.06117676 -40.87793671 26.91922852 -40.88951111 25.74267578 C-40.82282913 18.00799574 -39.94664007 10.49050678 -34.71482849 4.41992188 C-26.07621999 -3.80890384 -10.4170422 -6.43139127 0 0 Z " fill="#FEFBFB" transform="translate(265.359375,129.671875)"/>
<path d="M0 0 C3.9631951 2.85855987 5.93707113 6.81793939 7.625 11.3125 C8.11519719 14.36427303 8.09624082 17.32177063 8.015625 20.40625 C8.00996521 21.23838013 8.00430542 22.07051025 7.99847412 22.92785645 C7.97628184 25.5566841 7.92612133 28.18409217 7.875 30.8125 C7.85491268 32.60675099 7.83666584 34.40102359 7.8203125 36.1953125 C7.7798932 40.56868035 7.7015784 44.93902247 7.625 49.3125 C-3.925 49.3125 -15.475 49.3125 -27.375 49.3125 C-27.271875 54.200625 -27.16875 59.08875 -27.0625 64.125 C-27.03760498 65.66389893 -27.01270996 67.20279785 -26.98706055 68.78833008 C-26.95394775 69.99900146 -26.92083496 71.20967285 -26.88671875 72.45703125 C-26.86053467 73.69815674 -26.83435059 74.93928223 -26.80737305 76.21801758 C-26.375 79.3125 -26.375 79.3125 -25.05395508 81.1862793 C-22.23435225 83.07763132 -19.71889253 83.19719336 -16.375 83.3125 C-13.5 82.5625 -13.5 82.5625 -11.375 80.3125 C-10.63553147 76.59324717 -10.50966373 73.12797222 -10.375 69.3125 C-4.435 69.3125 1.505 69.3125 7.625 69.3125 C8.12282332 77.27767314 7.91066592 82.17385625 2.625 88.3125 C-3.38731736 94.46146094 -9.88131404 96.42530734 -18.3125 96.75 C-26.39811974 96.5133979 -33.91998002 93.91029758 -39.7923584 88.18333435 C-46.1477498 80.67065142 -45.9644816 71.20752478 -45.90625 61.87109375 C-45.90895227 60.49446846 -45.91284076 59.11784504 -45.91784668 57.7412262 C-45.92370542 54.87262589 -45.9152965 52.00452771 -45.89648438 49.13598633 C-45.8736742 45.48228542 -45.88685247 41.8297589 -45.91077423 38.17610073 C-45.92531315 35.33880457 -45.92058999 32.50178132 -45.91026306 29.66447639 C-45.90634601 27.66998138 -45.91836599 25.6754752 -45.93078613 23.68101501 C-45.84455958 15.2807103 -44.85060676 8.70352353 -39.55078125 2.0078125 C-27.95202714 -7.76723814 -12.72058151 -8.6452841 0 0 Z " fill="#F44539" transform="translate(365.375,298.6875)"/>
<path d="M0 0 C5.94 0 11.88 0 18 0 C18.33 28.05 18.66 56.1 19 85 C25.93872873 85 26.99559177 84.98077928 32 81 C32.54280106 80.61269211 33.08560211 80.22538422 33.64485168 79.82633972 C35.74888502 76.99072416 35.43924737 73.98835322 35.43237305 70.59106445 C35.4425647 69.83960144 35.45275635 69.08813843 35.46325684 68.31390381 C35.49344888 65.83028773 35.502662 63.34705693 35.51171875 60.86328125 C35.52856088 59.14119682 35.54671049 57.41912471 35.56611633 55.69706726 C35.61367326 51.16466118 35.64344568 46.63230506 35.66955566 42.09973145 C35.69933255 37.47459033 35.7458727 32.84962152 35.79101562 28.22460938 C35.87711362 19.14980975 35.94288069 10.07502834 36 1 C41.61 1 47.22 1 53 1 C53 34 53 67 53 101 C47.72 101 42.44 101 37 101 C35.71682108 97.15046324 35.93356363 94.05261865 36 90 C35.34 90 34.68 90 34 90 C33.835 90.495 33.835 90.495 33 93 C27.31189434 97.68719437 20.80500153 101.53271911 13.4375 102.4375 C9.24240126 101.90357834 7.22315728 100.71038226 4 98 C0.14845226 92.55470836 -0.14162975 87.89193813 -0.11352539 81.39770508 C-0.11367142 80.51944565 -0.11381744 79.64118622 -0.1139679 78.73631287 C-0.11327072 75.83069395 -0.10548739 72.92513898 -0.09765625 70.01953125 C-0.09579138 68.00599706 -0.0943678 65.99246242 -0.09336853 63.97892761 C-0.08954879 58.67708078 -0.07972312 53.37526131 -0.06866455 48.07342529 C-0.05843877 42.66418833 -0.0538684 37.25494696 -0.04882812 31.84570312 C-0.03810039 21.23045479 -0.02050796 10.61523395 0 0 Z " fill="#F44438" transform="translate(192,293)"/>
<path d="M0 0 C6.6 0 13.2 0 20 0 C21.2288059 5.68805749 22.45623623 11.37637998 23.68041992 17.06542969 C24.09567204 18.99332867 24.51166484 20.9210683 24.9284668 22.84863281 C32 55.55979242 32 55.55979242 32 61 C32.66 61 33.32 61 34 61 C34.05156754 60.3923732 34.10313507 59.7847464 34.15626526 59.15870667 C34.71269037 53.07613029 35.60893908 47.14494563 36.77734375 41.15234375 C36.94875381 40.2556044 37.12016388 39.35886505 37.29676819 38.43495178 C37.65697475 36.5547916 38.01925746 34.67502806 38.38354492 32.7956543 C38.93661114 29.94208611 39.48351899 27.08739211 40.02929688 24.23242188 C40.38245531 22.39316055 40.73595932 20.55396553 41.08984375 18.71484375 C41.25137436 17.87396713 41.41290497 17.03309052 41.57933044 16.16673279 C41.73611771 15.3588179 41.89290497 14.55090302 42.05444336 13.71850586 C42.18910507 13.02252792 42.32376678 12.32654999 42.46250916 11.60948181 C43.26164268 7.72974244 44.14069818 3.8668582 45 0 C51.6 0 58.2 0 65 0 C63.27421047 9.49184242 61.04861889 18.63046349 58.33349609 27.88549805 C56.57873664 33.89341909 54.97994843 39.91884496 53.5 46 C51.52610119 54.09928995 49.31012675 62.11128175 46.96679688 70.11132812 C46.72509766 70.93955078 46.48339844 71.76777344 46.234375 72.62109375 C46.02006836 73.3473999 45.80576172 74.07370605 45.58496094 74.82202148 C44.50829057 78.83077621 43.87475333 82.63779157 43.79467773 86.7902832 C43.77473251 87.71086014 43.75478729 88.63143707 43.73423767 89.57991028 C43.72588142 90.07010399 43.72588142 90.07010399 43.68359375 92.55078125 C43.66281265 93.56472458 43.64203156 94.57866791 43.62062073 95.62333679 C43.55538886 98.85299085 43.49636298 102.08272421 43.4375 105.3125 C43.39428971 107.50586748 43.35067462 109.69922703 43.30664062 111.89257812 C43.19897501 117.26163874 43.09970533 122.63076206 43 128 C36.4 128 29.8 128 23 128 C23.00902344 125.22078125 23.01804688 122.4415625 23.02734375 119.578125 C22.97007374 97.5871398 21.73738273 78.05945338 15 57 C14.54007235 55.45735845 14.0851159 53.91321996 13.63671875 52.3671875 C13.04916045 50.34327117 12.45907254 48.32106719 11.84692383 46.30444336 C9.10578962 37.24692874 6.9505998 28.0275217 4.69775391 18.83935547 C3.68619635 14.72304534 2.65583347 10.6115154 1.625 6.5 C1.08875 4.355 0.5525 2.21 0 0 Z " fill="#FEFBFB" transform="translate(160,96)"/>
<path d="M0 0 C5.94 0 11.88 0 18 0 C18.02505615 2.32732178 18.0501123 4.65464355 18.07592773 7.05249023 C18.15923604 14.72399665 18.24794293 22.39543369 18.33933926 30.0668478 C18.39461007 34.72007769 18.44803658 39.37331381 18.49731445 44.02661133 C18.54489685 48.51350117 18.59723717 53.00031212 18.65294075 57.48710823 C18.67339216 59.20278025 18.69210053 60.91847393 18.70907402 62.63418388 C18.73305665 65.02890769 18.76311912 67.42348102 18.79467773 69.81811523 C18.79755547 70.17632103 18.79755547 70.17632103 18.81211853 71.98905945 C18.88594784 76.88594784 18.88594784 76.88594784 20 78 C24.11783151 77.84162187 26.41445675 77.45791069 29.69316101 74.89387512 C32.5754432 71.27812008 32.63533589 69.40773555 32.65942383 64.82299805 C32.66466568 64.47150444 32.66466568 64.47150444 32.69119263 62.69273376 C32.71986707 60.38194223 32.71366092 58.07265577 32.70703125 55.76171875 C32.72015107 54.15458811 32.73545617 52.54747394 32.75285339 50.94038391 C32.79268385 46.72023816 32.80289251 42.50052394 32.80688477 38.2802124 C32.81621998 33.96987839 32.8536359 29.65979754 32.88867188 25.34960938 C32.95322806 16.89969174 32.98388763 8.45014902 33 0 C38.61 0 44.22 0 50 0 C50 31.68 50 63.36 50 96 C45.05 96 40.1 96 35 96 C34.34 93.03 33.68 90.06 33 87 C30.27204811 87 29.41855963 88.11192926 27.3125 89.8125 C21.1321979 94.52289241 15.77919952 96.98783486 8 96 C4.80369606 94.28542637 2.57944143 92.08186031 0.85012817 88.85310364 C-0.27775974 85.06781432 -0.26282368 81.44911251 -0.22705078 77.5378418 C-0.22734283 76.6983046 -0.22763489 75.8587674 -0.22793579 74.99378967 C-0.22654647 72.22882624 -0.21100402 69.4641349 -0.1953125 66.69921875 C-0.19158096 64.77822517 -0.18873465 62.85722969 -0.18673706 60.93623352 C-0.17911175 55.88755003 -0.15947269 50.83898215 -0.1373291 45.79034424 C-0.11684695 40.63563603 -0.10773027 35.48090908 -0.09765625 30.32617188 C-0.07622577 20.21738903 -0.04105257 10.10872223 0 0 Z " fill="#FEFCFC" transform="translate(291,128)"/>
<path d="M0 0 C17.49 0 34.98 0 53 0 C53 5.61 53 11.22 53 17 C47.06 17 41.12 17 35 17 C35 53.63 35 90.26 35 128 C29.06 128 23.12 128 17 128 C17 91.7 17 55.4 17 18 C11.39 18 5.78 18 0 18 C0 12.06 0 6.12 0 0 Z " fill="#F4473A" transform="translate(139,267)"/>
<path d="M0 0 C2.61593153 1.83115207 2.96989455 2.90968366 4 6 C4.10819548 7.85431016 4.15881948 9.71220509 4.17700195 11.56958008 C4.18983719 12.71119095 4.20267242 13.85280182 4.21589661 15.02900696 C4.22328354 16.26337997 4.23067047 17.49775299 4.23828125 18.76953125 C4.246353 20.03842697 4.25442474 21.30732269 4.26274109 22.6146698 C4.27658158 25.30215099 4.28759815 27.98950953 4.29516602 30.67700195 C4.30622236 34.1102494 4.34061869 37.54284726 4.38033772 40.97586536 C4.41285373 44.26118926 4.41728678 47.54657098 4.42578125 50.83203125 C4.44328934 52.06033157 4.46079742 53.2886319 4.47883606 54.55415344 C4.45089364 65.54812545 4.45089364 65.54812545 0 70 C-4.93340824 70.79571101 -8.4208582 70.65566869 -12.69036865 67.70614624 C-15.84442137 63.59714626 -14.81955291 57.33010007 -14.76171875 52.40625 C-14.76322171 51.05391094 -14.76665306 49.70157277 -14.77192688 48.34924316 C-14.77625584 45.51770605 -14.75944327 42.68730882 -14.72729492 39.85595703 C-14.68751013 36.23045299 -14.69681294 32.60708583 -14.72152996 28.98151398 C-14.73572789 26.18978424 -14.72561537 23.39855187 -14.70801735 20.6068573 C-14.69934041 18.62158654 -14.70972618 16.6362621 -14.72038269 14.65100098 C-14.71088844 14.04697449 -14.71088844 14.04697449 -14.6628418 10.99023438 C-14.65584763 9.92752319 -14.64885345 8.86481201 -14.64164734 7.76989746 C-13.78157618 4.05709641 -12.12722607 3.04333454 -9 1 C-5.95016004 -0.52491998 -3.3576631 -0.23562548 0 0 Z " fill="#FEFAF9" transform="translate(288,309)"/>
<path d="M0 0 C2.18540955 1.17726135 2.18540955 1.17726135 4 3 C4.5146637 5.53575134 4.5146637 5.53575134 4.53344727 8.60131836 C4.54136543 9.17535149 4.54136543 9.17535149 4.58143616 12.08030701 C4.57647629 13.32095413 4.57151642 14.56160126 4.56640625 15.83984375 C4.57260483 17.11348282 4.57880341 18.38712189 4.58518982 19.69935608 C4.59230137 22.39574775 4.59102963 25.09065232 4.57641602 27.78686523 C4.55923729 31.23857023 4.58270571 34.68860915 4.61790562 38.14012814 C4.6451761 41.43588671 4.63514307 44.73150416 4.62890625 48.02734375 C4.64216446 49.26596664 4.65542267 50.50458954 4.66908264 51.78074646 C4.65654953 52.93196487 4.64401642 54.08318329 4.63110352 55.26928711 C4.63062263 55.77550346 4.63062263 55.77550346 4.62818909 58.33726501 C3.76590582 61.99226616 2.11490085 63.0302709 -1 65 C-4.0625 65.5625 -4.0625 65.5625 -7 65 C-9.73660258 62.77573367 -10.86888357 60.90951313 -11.37353516 57.40890503 C-11.53117347 54.06700609 -11.55407949 50.74792935 -11.53125 47.40234375 C-11.5350769 46.17592667 -11.53890381 44.94950958 -11.54284668 43.68592834 C-11.54556603 41.09619322 -11.53820341 38.50643063 -11.52148438 35.91674805 C-11.50005904 31.94843503 -11.52129714 27.98192892 -11.546875 24.01367188 C-11.54423209 21.49739183 -11.53910788 18.98111291 -11.53125 16.46484375 C-11.53934692 15.27624252 -11.54744385 14.0876413 -11.55578613 12.86302185 C-11.54317749 11.75830032 -11.53056885 10.6535788 -11.51757812 9.51538086 C-11.51439575 8.54451035 -11.51121338 7.57363983 -11.50793457 6.573349 C-10.24301975 0.16491081 -5.86735778 -0.73341972 0 0 Z " fill="#F4483B" transform="translate(254,143)"/>
<path d="M0 0 C2.75329021 1.79562405 4.52627461 3.05254922 6 6 C6.08471364 7.81341842 6.10721083 9.62994161 6.09765625 11.4453125 C6.09443359 12.52167969 6.09121094 13.59804688 6.08789062 14.70703125 C6.07951172 15.83496094 6.07113281 16.96289062 6.0625 18.125 C6.05798828 19.26066406 6.05347656 20.39632813 6.04882812 21.56640625 C6.03701628 24.37762647 6.01908041 27.18881972 6 30 C0.06 30 -5.88 30 -12 30 C-12.13471647 25.74894682 -12.23400579 21.50214354 -12.3125 17.25 C-12.35439453 16.0434375 -12.39628906 14.836875 -12.43945312 13.59375 C-12.45556641 12.43359375 -12.47167969 11.2734375 -12.48828125 10.078125 C-12.51446533 9.00981445 -12.54064941 7.94150391 -12.56762695 6.84082031 C-12 4 -12 4 -9.68823242 1.65136719 C-6.15112362 -0.52146034 -4.08740277 -0.58391468 0 0 Z " fill="#FEF9F8" transform="translate(350,306)"/>
</svg>
