<?xml version="1.0" encoding="UTF-8"?>
<!-- Generator: visioncortex VTracer 0.6.12 -->
<svg version="1.1" xmlns="http://www.w3.org/2000/svg" width="512" height="512">
<path d="M0 0 C40.73258691 37.09857902 66.02515215 90.53183589 68.75683594 145.60009766 C71.35658136 205.24748248 50.85149524 260.57794808 10.75683594 304.60009766 C-27.93161451 345.99314124 -82.40228689 369.90666696 -138.90722656 371.81884766 C-198.08328558 373.11538802 -253.02557579 351.0823785 -295.70410156 310.33056641 C-335.85961751 271.24795203 -358.30392739 216.78829495 -359.52661133 160.9831543 C-360.09627253 102.0016777 -337.31308052 47.55856006 -296.32836914 5.44873047 C-227.86859712 -63.56894457 -117.13368472 -75.618845 0 0 Z " fill="#F44336" transform="translate(401.2431640625,98.39990234375)"/>
<path d="M0 0 C0.34611328 0.09667969 0.34611328 0.09667969 2.09765625 0.5859375 C17.95664746 5.11707785 32.63075131 11.93615645 45 23 C45.82757813 23.69738281 46.65515625 24.39476562 47.5078125 25.11328125 C67.86177909 42.63512099 82.95858509 69.87447355 85 97 C85.61615768 110.24739012 85.64909363 123.172883 82 136 C81.90332031 136.34611328 81.90332031 136.34611328 81.4140625 138.09765625 C76.88265141 153.95759505 70.06303717 168.62912317 59 181 C58.31421875 181.81597656 57.6284375 182.63195312 56.921875 183.47265625 C39.41833577 203.84098337 12.0974115 218.94672762 -15 221 C-19.02109355 221.1577331 -23.03854404 221.22151127 -27.0625 221.25 C-27.56523437 221.25471313 -27.56523437 221.25471313 -30.109375 221.27856445 C-46.87527433 221.20596701 -63.12844811 216.5972168 -78 209 C-78.95777344 208.525625 -79.91554687 208.05125 -80.90234375 207.5625 C-87.60852734 204.10124395 -93.28984109 199.91381346 -99 195 C-99.82371094 194.31035156 -100.64742187 193.62070312 -101.49609375 192.91015625 C-121.83542183 175.36312282 -136.94538092 148.11518426 -139 121 C-139.1577331 116.97890645 -139.22151127 112.96145596 -139.25 108.9375 C-139.25942627 107.93203125 -139.26885254 106.9265625 -139.27856445 105.890625 C-139.24897275 99.05661594 -138.43827052 92.6746602 -137 86 C-136.75121094 84.783125 -136.50242188 83.56625 -136.24609375 82.3125 C-132.24294853 65.91314182 -124.62828642 51.07569532 -114 38 C-113.58492187 37.48759766 -113.58492187 37.48759766 -111.484375 34.89453125 C-84.75295275 3.96131359 -39.72806008 -11.30194813 0 0 Z " fill="#F44336" transform="translate(283,147)"/>
<path d="M0 0 C0.34611328 0.09667969 0.34611328 0.09667969 2.09765625 0.5859375 C17.95664746 5.11707785 32.63075131 11.93615645 45 23 C45.82757813 23.69738281 46.65515625 24.39476562 47.5078125 25.11328125 C67.86177909 42.63512099 82.95858509 69.87447355 85 97 C85.61615768 110.24739012 85.64909363 123.172883 82 136 C81.90332031 136.34611328 81.90332031 136.34611328 81.4140625 138.09765625 C76.88265141 153.95759505 70.06303717 168.62912317 59 181 C58.31421875 181.81597656 57.6284375 182.63195312 56.921875 183.47265625 C39.41833577 203.84098337 12.0974115 218.94672762 -15 221 C-19.02109355 221.1577331 -23.03854404 221.22151127 -27.0625 221.25 C-27.56523437 221.25471313 -27.56523437 221.25471313 -30.109375 221.27856445 C-46.87527433 221.20596701 -63.12844811 216.5972168 -78 209 C-78.95777344 208.525625 -79.91554687 208.05125 -80.90234375 207.5625 C-87.60852734 204.10124395 -93.28984109 199.91381346 -99 195 C-99.82371094 194.31035156 -100.64742187 193.62070312 -101.49609375 192.91015625 C-121.83542183 175.36312282 -136.94538092 148.11518426 -139 121 C-139.1577331 116.97890645 -139.22151127 112.96145596 -139.25 108.9375 C-139.25942627 107.93203125 -139.26885254 106.9265625 -139.27856445 105.890625 C-139.24897275 99.05661594 -138.43827052 92.6746602 -137 86 C-136.75121094 84.783125 -136.50242188 83.56625 -136.24609375 82.3125 C-132.24294853 65.91314182 -124.62828642 51.07569532 -114 38 C-113.58492187 37.48759766 -113.58492187 37.48759766 -111.484375 34.89453125 C-84.75295275 3.96131359 -39.72806008 -11.30194813 0 0 Z M-58 12 C-59.12148437 12.350625 -60.24296875 12.70125 -61.3984375 13.0625 C-86.47965006 21.80752327 -107.31100157 41.3161228 -119 65 C-130.29882617 90.02338904 -131.68709783 118.45163656 -122.1875 144.3125 C-112.02585929 170.52631312 -93.37552029 190.57031805 -67.91796875 202.34765625 C-62.11327693 204.8812116 -56.16899155 206.59795647 -50 208 C-49.08734375 208.22429687 -48.1746875 208.44859375 -47.234375 208.6796875 C-21.32512294 214.08361722 7.14223639 208.39178348 29.28198242 194.10400391 C52.31139347 178.4220578 67.10528093 155.12731955 73 128 C77.39420669 100.4592396 72.2096519 72.82236328 56 50 C39.3696473 27.73820512 16.04701323 12.86905489 -11.51171875 8.4375 C-27.29113831 6.65953723 -42.84864152 7.15156529 -58 12 Z " fill="#FEF9F9" transform="translate(283,147)"/>
<path d="M0 0 C8.9943556 4.4971778 8.9943556 4.4971778 12.09375 6.48828125 C12.80104248 6.93921143 13.50833496 7.3901416 14.23706055 7.85473633 C14.98383057 8.33579834 15.73060059 8.81686035 16.5 9.3125 C18.18320353 10.38602874 19.86681696 11.458915 21.55078125 12.53125 C22.43588379 13.09585938 23.32098633 13.66046875 24.23291016 14.2421875 C29.03438025 17.29235378 33.86145476 20.30142474 38.6875 23.3125 C40.71486585 24.5780896 42.74220935 25.84371499 44.76953125 27.109375 C45.78869629 27.74552734 46.80786133 28.38167969 47.85791016 29.03710938 C51.07738038 31.04834019 54.29480774 33.06280364 57.51171875 35.078125 C58.57753174 35.74545654 59.64334473 36.41278809 60.74145508 37.1003418 C62.76386606 38.36673191 64.78586885 39.63377425 66.80737305 40.90161133 C67.73461182 41.48193115 68.66185059 42.06225098 69.6171875 42.66015625 C70.50631836 43.21719238 71.39544922 43.77422852 72.31152344 44.34814453 C75.898958 46.55233834 79.54434972 48.65357337 83.20361328 50.73608398 C83.7964209 51.15317627 84.38922852 51.57026855 85 52 C85 52.66 85 53.32 85 54 C83.51318359 55.10644531 83.51318359 55.10644531 81.3984375 56.328125 C80.60985352 56.79065674 79.82126953 57.25318848 79.00878906 57.72973633 C78.13963867 58.23142334 77.27048828 58.73311035 76.375 59.25 C68.91127496 63.63991561 61.5391641 68.13831526 54.25 72.8125 C39.11293989 82.5011344 23.87815451 92.03361363 8.5625 101.4375 C7.80485352 101.90438232 7.04720703 102.37126465 6.26660156 102.85229492 C1.11834427 106 1.11834427 106 0 106 C0 71.02 0 36.04 0 0 Z " fill="#FEFDFD" transform="translate(224,203)"/>
</svg>
