<?xml version="1.0" encoding="UTF-8"?>
<!-- Generator: visioncortex VTracer 0.6.12 -->
<svg version="1.1" xmlns="http://www.w3.org/2000/svg" width="512" height="512">
<path d="M0 0 C1.08179079 -0.00445784 2.16358157 -0.00891569 3.2781539 -0.01350862 C3.869535 -0.01341644 3.869535 -0.01341644 6.8622818 -0.01294994 C8.1232828 -0.01662663 9.3842838 -0.02030332 10.68349695 -0.02409142 C14.18159171 -0.03408937 17.67966932 -0.03782466 21.17777634 -0.04048073 C24.95166754 -0.04439038 28.72554524 -0.05396831 32.4994278 -0.0626936 C41.61279608 -0.0824401 50.72616545 -0.09252225 59.83954978 -0.10142139 C64.13446611 -0.10580755 68.42938121 -0.11117354 72.72429657 -0.11641026 C87.0074386 -0.13342127 101.29057987 -0.1479143 115.57373047 -0.155159 C119.27884166 -0.1570688 122.98395285 -0.15898914 126.68906403 -0.16094494 C127.60991706 -0.16142868 128.5307701 -0.16191242 129.47952777 -0.16241082 C144.38874255 -0.17070687 159.29787699 -0.19603718 174.2070567 -0.22852562 C189.52459747 -0.26163092 204.84209745 -0.27961092 220.15967417 -0.28280324 C228.75559631 -0.2849652 237.35140131 -0.29366772 245.94728851 -0.31926441 C253.26968879 -0.34101894 260.59194346 -0.34899857 267.91437238 -0.33929763 C271.64667261 -0.33476654 275.37867273 -0.33656904 279.1109314 -0.35605907 C283.16790544 -0.37706065 287.22421999 -0.36666186 291.28122711 -0.35352612 C292.44614355 -0.36449536 293.61105998 -0.37546461 294.81127691 -0.38676625 C306.05871856 -0.29923817 316.48139792 2.36291226 325.57968903 9.13422108 C326.59031403 9.83547108 327.60093903 10.53672108 328.64218903 11.25922108 C336.08883871 17.72926096 341.06870203 27.84199931 341.86153221 37.60479832 C341.97691657 41.87364733 341.99720926 46.13331609 341.98374176 50.40326405 C341.98945185 52.04189995 341.99641858 53.68053187 342.00453949 55.3191576 C342.02241645 59.74903184 342.02131272 64.1787074 342.01559711 68.60860682 C342.012497 72.31614568 342.01860689 76.02364683 342.02463585 79.73118031 C342.03866184 88.48290968 342.03713614 97.23454139 342.02573395 105.98627186 C342.0142574 114.99371955 342.02832499 124.00086933 342.05513042 133.00827777 C342.07733346 140.76145447 342.08391436 148.51453797 342.07805401 156.26774418 C342.07469389 160.88968965 342.07703623 165.51144425 342.09430504 170.13336277 C342.10984547 174.48213865 342.10574054 178.83047552 342.08699989 183.1792345 C342.08333341 184.76782749 342.08636535 186.35645352 342.09688568 187.94501591 C342.18589508 202.50614173 339.26294945 213.00915165 329.57968903 224.13422108 C321.66373403 231.93473506 310.18255639 236.24730519 299.15937805 236.26844215 C298.61848266 236.27067108 298.61848266 236.27067108 295.88122416 236.28195077 C294.69846195 236.28176641 293.51569974 236.28158205 292.29709625 236.2813921 C291.03609525 236.28506879 289.77509425 236.28874547 288.4758811 236.29253358 C284.97778634 236.30253152 281.47970874 236.30626681 277.98160172 236.30892289 C274.20771051 236.31283254 270.43383282 236.32241046 266.65995026 236.33113575 C257.54658197 236.35088225 248.4332126 236.3609644 239.31982827 236.36986354 C235.02491194 236.37424971 230.72999684 236.37961569 226.43508148 236.38485241 C212.15193945 236.40186343 197.86879818 236.41635646 183.58564758 236.42360115 C179.88053639 236.42551095 176.1754252 236.4274313 172.47031403 236.42938709 C172.00988751 236.42962896 172.00988751 236.42962896 169.67985028 236.43085297 C154.7706355 236.43914903 139.86150107 236.46447933 124.95232135 236.49696777 C109.63478059 236.53007307 94.3172806 236.54805308 78.99970388 236.55124539 C70.40378174 236.55340735 61.80797674 236.56210988 53.21208954 236.58770657 C45.88968927 236.60946109 38.56743459 236.61744072 31.24500567 236.60773978 C27.51270544 236.60320869 23.78070532 236.60501119 20.04844666 236.62450123 C15.99147262 236.6455028 11.93515806 236.63510401 7.87815094 236.62196827 C6.71323451 236.63293752 5.54831807 236.64390676 4.34810114 236.65520841 C-6.89934051 236.56768032 -17.32201987 233.9055299 -26.42031097 227.13422108 C-27.43093597 226.43297108 -28.44156097 225.73172108 -29.48281097 225.00922108 C-36.92946065 218.53918119 -41.90932398 208.42644284 -42.70215416 198.66364384 C-42.81753852 194.39479483 -42.83783121 190.13512607 -42.82436371 185.86517811 C-42.8300738 184.22654221 -42.83704053 182.58791028 -42.84516144 180.94928455 C-42.8630384 176.51941031 -42.86193467 172.08973475 -42.85621905 167.65983534 C-42.85311895 163.95229648 -42.85922884 160.24479532 -42.8652578 156.53726184 C-42.87928379 147.78553248 -42.87775809 139.03390076 -42.8663559 130.2821703 C-42.85487935 121.2747226 -42.86894693 112.26757282 -42.89575237 103.26016438 C-42.91795541 95.50698768 -42.92453631 87.75390418 -42.91867596 80.00069797 C-42.91531584 75.3787525 -42.91765818 70.75699791 -42.93492699 66.13507938 C-42.95046742 61.7863035 -42.94636249 57.43796663 -42.92762184 53.08920765 C-42.92395536 51.50061466 -42.9269873 49.91198863 -42.93750763 48.32342625 C-43.02651703 33.76230042 -40.1035714 23.2592905 -30.42031097 12.13422108 C-22.50435598 4.3337071 -11.02317833 0.02113696 0 0 Z M151.57968903 44.13422108 C151.57968903 92.31422108 151.57968903 140.49422108 151.57968903 190.13422108 C157.51968903 190.13422108 163.45968903 190.13422108 169.57968903 190.13422108 C170.23968903 187.16422108 170.89968903 184.19422108 171.57968903 181.13422108 C172.23968903 181.85609608 172.89968903 182.57797108 173.57968903 183.32172108 C179.02966433 188.77169638 185.07603481 192.18175807 192.82968903 192.44672108 C197.8471285 192.34785527 201.59979603 191.24088861 205.57968903 188.13422108 C214.99991581 177.86148508 215.73083777 163.47934335 215.74765778 150.22015858 C215.75098618 149.28805561 215.75431458 148.35595264 215.75774384 147.39560413 C215.76278265 145.4307145 215.76515311 143.46581639 215.76499176 141.5009203 C215.76716738 138.53869487 215.785326 135.57684903 215.8042984 132.61468983 C215.89847416 101.43891011 215.89847416 101.43891011 207.39218903 90.25922108 C202.94172462 86.89664797 198.64616178 84.98643926 192.98593903 85.25922108 C183.67354415 86.82998648 179.80646224 90.86965233 173.57968903 98.13422108 C173.24968903 80.31422108 172.91968903 62.49422108 172.57968903 44.13422108 C165.64968903 44.13422108 158.71968903 44.13422108 151.57968903 44.13422108 Z M11.57968903 49.13422108 C11.57968903 55.07422108 11.57968903 61.01422108 11.57968903 67.13422108 C19.16968903 67.13422108 26.75968903 67.13422108 34.57968903 67.13422108 C34.57968903 107.72422108 34.57968903 148.31422108 34.57968903 190.13422108 C41.83968903 190.13422108 49.09968903 190.13422108 56.57968903 190.13422108 C56.57968903 149.54422108 56.57968903 108.95422108 56.57968903 67.13422108 C64.16968903 67.13422108 71.75968903 67.13422108 79.57968903 67.13422108 C79.57968903 61.19422108 79.57968903 55.25422108 79.57968903 49.13422108 C57.13968903 49.13422108 34.69968903 49.13422108 11.57968903 49.13422108 Z M234.82968903 94.75922108 C221.96158276 111.87336914 225.03835011 142.91571428 227.32968903 162.82172108 C228.98380927 172.54110348 231.57362477 181.78612909 239.57968903 188.13422108 C248.76164365 193.39595806 259.76450564 193.54033219 269.89218903 191.13422108 C276.02916608 188.98729181 281.31162455 184.75568796 284.77109528 179.23187733 C287.48867105 173.2322052 287.689032 167.58545677 287.57968903 161.13422108 C284.98711233 160.27002885 283.23931195 159.95841176 280.56797028 159.81781483 C279.81064606 159.7759203 279.05332184 159.73402576 278.2730484 159.6908617 C277.48736481 159.6515453 276.70168121 159.61222889 275.89218903 159.57172108 C275.09490387 159.52853748 274.29761871 159.48535389 273.4761734 159.4408617 C271.51087456 159.33494739 269.54530406 159.23409557 267.57968903 159.13422108 C267.47011871 160.02625233 267.3605484 160.91828358 267.24765778 161.83734608 C267.16838043 162.42258045 267.16838043 162.42258045 266.76718903 165.38422108 C266.61636871 166.54437733 266.4655484 167.70453358 266.31015778 168.89984608 C265.57229725 172.16695043 264.98517429 173.82966527 262.57968903 176.13422108 C259.87344298 176.82715101 257.32070689 176.62062299 254.57968903 176.13422108 C252.40492501 174.59084016 251.76136266 173.49756835 250.57968903 171.13422108 C250.35780109 169.25081731 250.18779115 167.36116917 250.04453278 165.47015858 C249.9658194 164.46001698 249.88710602 163.44987537 249.80600739 162.40912342 C249.71069733 161.12215565 249.61538727 159.83518787 249.51718903 158.50922108 C249.20781403 154.42547108 248.89843903 150.34172108 248.57968903 146.13422108 C261.44968903 146.13422108 274.31968903 146.13422108 287.57968903 146.13422108 C287.64156403 140.77172108 287.70343903 135.40922108 287.76718903 129.88422108 C287.79450104 128.21843006 287.82181305 126.55263905 287.8499527 124.83636951 C287.95881976 113.43496581 287.54516568 101.12144735 279.57968903 92.13422108 C267.0258637 80.71899851 246.32245767 83.78885101 234.82968903 94.75922108 Z M73.57968903 87.13422108 C73.51174554 98.17451411 73.45677635 109.21466687 73.42425251 120.25512218 C73.40863786 125.3823817 73.38747671 130.50948998 73.35337067 135.63666248 C73.32062693 140.59038867 73.30280445 145.54396995 73.2950573 150.49779606 C73.28954065 152.38191093 73.27876832 154.26601844 73.26249886 156.15007114 C73.06590778 179.87265551 73.06590778 179.87265551 80.88437653 188.75922108 C85.38215146 192.407186 90.16956586 192.5735789 95.73593903 192.43890858 C103.64515141 191.59149296 108.37997397 187.92979699 113.36484528 181.93890858 C114.57968903 180.13422108 114.57968903 180.13422108 114.57968903 178.13422108 C115.23968903 178.13422108 115.89968903 178.13422108 116.57968903 178.13422108 C117.23968903 182.09422108 117.89968903 186.05422108 118.57968903 190.13422108 C124.18968903 190.13422108 129.79968903 190.13422108 135.57968903 190.13422108 C135.57968903 156.14422108 135.57968903 122.15422108 135.57968903 87.13422108 C128.31968903 87.13422108 121.05968903 87.13422108 113.57968903 87.13422108 C113.57034332 89.65788319 113.56099762 92.1815453 113.55136871 94.78168201 C113.5176156 103.11583429 113.46207609 111.44973851 113.39578629 119.78369236 C113.35626132 124.837072 113.3240975 129.89027608 113.30869293 134.94379139 C113.29355936 139.81990112 113.25917274 144.69552834 113.21138 149.57142353 C113.19653208 151.43252083 113.18864606 153.293687 113.18780518 155.15484333 C113.18544398 157.76014743 113.15843407 160.36410885 113.12558746 162.96918201 C113.12810265 163.35472248 113.12810265 163.35472248 113.14083099 165.3057909 C113.07190085 168.83477481 112.86224996 170.76887159 110.67276764 173.59985828 C107.23301493 176.1214208 104.82695298 176.06680419 100.57968903 176.13422108 C98.64218903 175.07172108 98.64218903 175.07172108 97.57968903 173.13422108 C96.59193179 168.46010559 96.41206714 163.86807615 96.37436676 159.10931873 C96.36446716 158.32815693 96.35456757 157.54699512 96.34436798 156.74216175 C96.31295146 154.17756581 96.28807463 151.61295138 96.26328278 149.04828358 C96.24269608 147.26323452 96.22169917 145.47819014 96.20030975 143.69315052 C96.14526624 139.00789671 96.09577922 134.3226002 96.04746246 129.63727283 C95.99711761 124.85106094 95.94149949 120.06491061 95.88632965 115.27875233 C95.77896497 105.89729269 95.67795999 96.51578039 95.57968903 87.13422108 C88.31968903 87.13422108 81.05968903 87.13422108 73.57968903 87.13422108 Z " fill="#000000" transform="translate(106.4203109741211,233.86577892303467)"/>
<path d="M0 0 C9.24 0 18.48 0 28 0 C28.01981934 2.83070068 28.03963867 5.66140137 28.06005859 8.57788086 C28.1270836 17.94969132 28.2047213 27.32139248 28.28752708 36.69307613 C28.33738883 42.37291477 28.38371965 48.05273572 28.421875 53.73266602 C28.45885577 59.21814277 28.50525016 64.7034678 28.55806351 70.18881416 C28.57653961 72.27745453 28.59167237 74.36612734 28.60334396 76.45481682 C28.62032289 79.38922406 28.64938539 82.32328891 28.68115234 85.25756836 C28.68331253 86.11353104 28.68547272 86.96949371 28.68769836 87.85139465 C28.76476421 93.45498922 29.57936607 98.58046708 31 104 C39.16135663 104.52415211 39.16135663 104.52415211 43 102.125 C46.81215326 98.07458716 46.17180484 94.07155339 46.20532227 88.77685547 C46.21522186 87.8207135 46.22512146 86.86457153 46.23532104 85.87945557 C46.2669912 82.70872501 46.29171527 79.53797946 46.31640625 76.3671875 C46.33697101 74.1728577 46.35796735 71.9785319 46.37937927 69.78421021 C46.43464927 64.00070432 46.48403679 58.21716239 46.53222656 52.43359375 C46.58240565 46.53512351 46.63811044 40.63670579 46.69335938 34.73828125 C46.80100122 23.15889731 46.90192236 11.57946891 47 0 C56.57 0 66.14 0 76 0 C76 40.92 76 81.84 76 124 C68.41 124 60.82 124 53 124 C52.01 119.71 51.02 115.42 50 111 C49.175 112.216875 48.35 113.43375 47.5 114.6875 C42.73927345 121.01646589 36.80118344 124.52046521 29 126 C21.69958341 126.68137221 14.22411385 126.30214691 8.24609375 121.62890625 C1.06440483 114.12323136 -0.60663917 104.1071266 -0.45410156 94.11254883 C-0.45468567 93.08681763 -0.45526978 92.06108643 -0.45587158 91.00427246 C-0.45311189 87.65483301 -0.42212013 84.30631287 -0.390625 80.95703125 C-0.3831551 78.61863186 -0.37746571 76.28022616 -0.37347412 73.94181824 C-0.35827694 67.81792606 -0.31904618 61.69441958 -0.2746582 55.57067871 C-0.23357756 49.30954199 -0.21543585 43.04834232 -0.1953125 36.78710938 C-0.15254605 24.52454376 -0.08224467 12.26236445 0 0 Z " fill="#000000" transform="translate(296,88)"/>
<path d="M0 0 C11.63640605 10.01272148 15.07493674 21.43018262 16.6875 36.3125 C17.11452788 43.1710703 17.07982786 50.03757636 17.02368164 56.90649414 C16.99995189 60.00628517 17.00316446 63.1052182 17.00976562 66.20507812 C16.95877051 104.01002036 16.95877051 104.01002036 5.40625 115.88671875 C-4.48054908 124.08826799 -15.87684211 125.04670858 -28.3125 124.3125 C-37.46083143 123.28024822 -45.26290965 120.50660745 -51.3125 113.3125 C-57.43599354 105.14174892 -59.63260567 95.97748945 -60.5 85.9375 C-60.57895508 85.05392822 -60.65791016 84.17035645 -60.73925781 83.26000977 C-65.33794065 25.32357374 -65.33794065 25.32357374 -50.23828125 5.40625 C-38.13532299 -7.75234153 -15.04109657 -7.66244542 0 0 Z M-28.3125 18.3125 C-32.26837708 25.76873101 -31.75162106 34.15064677 -31.7109375 42.34765625 C-31.71296298 43.79536587 -31.71587836 45.24307448 -31.71963501 46.69078064 C-31.72403469 49.71070156 -31.71770315 52.73035459 -31.70361328 55.75024414 C-31.68650706 59.60230063 -31.69638619 63.45373053 -31.71433067 67.3057642 C-31.72521959 70.29052879 -31.72169918 73.27514708 -31.7139473 76.25991631 C-31.71196016 77.67955031 -31.71435172 79.09919803 -31.72138596 80.51881599 C-31.7860079 97.21872283 -31.7860079 97.21872283 -26.5625 103.375 C-23.14431972 104.79924178 -20.83270028 104.27255462 -17.3125 103.3125 C-13.78684789 100.27314473 -13.04239714 95.74958244 -12.3125 91.3125 C-12.0131522 86.56351436 -12.00840521 81.82371447 -12.01171875 77.06640625 C-12.00782325 75.68692396 -12.00348685 74.30744286 -11.99873352 72.92796326 C-11.9913061 70.04755756 -11.99153735 67.16727451 -11.99682617 64.28686523 C-12.00261939 60.61762237 -11.9856769 56.94888454 -11.9624815 53.27972507 C-11.94766536 50.43390528 -11.94688303 47.58820498 -11.94999123 44.74235344 C-11.94923667 42.73898464 -11.93543217 40.73563423 -11.92131042 38.73231506 C-11.99996101 23.14048874 -11.99996101 23.14048874 -16.76811218 17.63038635 C-20.80790464 14.18307391 -24.55530838 14.95080223 -28.3125 18.3125 Z " fill="#000000" transform="translate(265.3125,89.6875)"/>
<path d="M0 0 C9.24 0 18.48 0 28 0 C31.56446871 13.65372759 34.48850256 27.41892276 37.3737793 41.23046875 C38.05712969 44.50103744 38.74331216 47.77098088 39.43130016 51.04057503 C40.09500556 54.19601012 40.7564831 57.35191144 41.41796875 60.5078125 C41.6627446 61.67345734 41.90752045 62.83910217 42.15971375 64.04006958 C42.38697647 65.12915619 42.6142392 66.2182428 42.84838867 67.34033203 C43.04728195 68.29134796 43.24617523 69.24236389 43.45109558 70.22219849 C44.02762022 73.13977567 44.52516261 76.06430609 45 79 C46.84475671 72.92656698 48.16650076 66.78564119 49.4609375 60.57421875 C49.6927774 59.47261917 49.92461731 58.37101959 50.16348267 57.23603821 C50.90302443 53.72035158 51.63921273 50.20397413 52.375 46.6875 C57.96710837 20.02073823 57.96710837 20.02073823 60.2890625 9.45703125 C60.3694426 9.08746056 60.3694426 9.08746056 60.7762146 7.21720886 C61.88145494 2.23709012 61.88145494 2.23709012 63 0 C72.24 0 81.48 0 91 0 C89.87500198 8.99998412 89.87500198 8.99998412 89.0022583 12.10580444 C88.80616974 12.81440613 88.61008118 13.52300781 88.40805054 14.25308228 C88.19508331 15.00020477 87.98211609 15.74732727 87.76269531 16.51708984 C87.53649506 17.32815186 87.3102948 18.13921387 87.07723999 18.97485352 C86.33294456 21.6384306 85.58058308 24.29965599 84.828125 26.9609375 C84.30293993 28.8343816 83.77827039 30.70797029 83.25408936 32.58169556 C81.87353871 37.51137735 80.48616623 42.43911342 79.09729004 47.36645508 C77.70149817 52.32261216 76.31186872 57.28049553 74.921875 62.23828125 C73.10760674 68.707819 71.29228024 75.17704969 69.47012424 81.64437103 C68.99705462 83.3273972 68.52602946 85.0109995 68.05715084 86.69519806 C66.93259251 90.72936419 65.78007943 94.75021255 64.5584259 98.75613403 C61.74626536 108.11105775 60.26004414 116.60157015 60.29296875 126.4453125 C60.27784744 127.70721405 60.26272614 128.9691156 60.24714661 130.26925659 C60.2048411 134.221361 60.1954869 138.17269341 60.1875 142.125 C60.16702619 144.83729197 60.13947181 147.54949665 60.11132812 150.26171875 C60.0450073 156.84154865 60.02345671 163.41932678 60 170 C50.43 170 40.86 170 31 170 C31.12503906 166.52082031 31.25007813 163.04164063 31.37890625 159.45703125 C32.23984764 122.87721361 26.33433124 93.08242315 15.26806641 58.26074219 C12.00471155 47.92981397 9.14088684 37.49019192 6.28820801 27.03988647 C5.45720073 24.0093452 4.6113042 20.98335632 3.76074219 17.95825195 C3.2556734 16.1480011 2.75077953 14.33770142 2.24609375 12.52734375 C2.01568893 11.71379425 1.78528412 10.90024475 1.54789734 10.06204224 C0.57799985 6.54869733 0 3.67309365 0 0 Z " fill="#000000" transform="translate(121,42)"/>
<path d="M0 0 C4.01859526 2.79069115 5.14731978 6.35882589 6 11 C6.29296379 14.91500668 6.30411467 18.81747952 6.30078125 22.7421875 C6.30506638 23.86513214 6.3093515 24.98807678 6.31376648 26.14505005 C6.31949319 28.51352262 6.32002231 30.88201278 6.31567383 33.25048828 C6.31251655 36.85610248 6.33598571 40.46089347 6.36132812 44.06640625 C6.36360168 46.37499897 6.36430435 48.68359388 6.36328125 50.9921875 C6.372491 52.06121307 6.38170074 53.13023865 6.39118958 54.23165894 C6.34942992 61.05532767 6.03817879 68.15699369 1.63813782 73.72262573 C-0.74497755 75.58091275 -3.06635957 75.40478418 -5.99609375 75.296875 C-8.85690359 74.87305132 -10.74742081 73.77475936 -13 72 C-14.33842177 69.32315646 -14.14189968 67.25014579 -14.16113281 64.25268555 C-14.17074036 63.0477092 -14.1803479 61.84273285 -14.19024658 60.60124207 C-14.19449646 59.29294937 -14.19874634 57.98465668 -14.203125 56.63671875 C-14.20887745 55.28392027 -14.21463518 53.9311218 -14.22039795 52.57832336 C-14.23090851 49.73946757 -14.23675048 46.90064009 -14.24023438 44.06176758 C-14.24571261 40.43010363 -14.26972551 36.79881585 -14.29820633 33.16726971 C-14.31686454 30.37137269 -14.32204003 27.57556559 -14.32357025 24.77961159 C-14.32805764 22.79156274 -14.34669097 20.80356209 -14.36553955 18.81559753 C-14.36253845 17.6011647 -14.35953735 16.38673187 -14.35644531 15.13549805 C-14.36009094 14.06897507 -14.36373657 13.00245209 -14.36749268 11.90361023 C-13.79901024 7.41195224 -11.83621794 4.83621794 -8.6875 1.6875 C-5.42358423 -0.36193549 -3.7870547 -0.64460505 0 0 Z " fill="#000000" transform="translate(293,335)"/>
<path d="M0 0 C3.20698541 3.1000859 3.92717606 6.29545 4.11352539 10.65722656 C4.10828857 11.64174805 4.10305176 12.62626953 4.09765625 13.640625 C4.09443359 14.71054687 4.09121094 15.78046875 4.08789062 16.8828125 C4.07951172 17.99398438 4.07113281 19.10515625 4.0625 20.25 C4.05798828 21.37664062 4.05347656 22.50328125 4.04882812 23.6640625 C4.03705411 26.44273106 4.019119 29.22137227 4 32 C-1.94 32 -7.88 32 -14 32 C-14.19875776 5.16770186 -14.19875776 5.16770186 -10 0 C-6.20519658 -1.26493447 -3.87641726 -0.89988258 0 0 Z " fill="#000000" transform="translate(369,335)"/>
</svg>
