<?xml version="1.0" encoding="UTF-8"?>
<!-- Generator: visioncortex VTracer 0.6.12 -->
<svg version="1.1" xmlns="http://www.w3.org/2000/svg" width="512" height="512">
<path d="M0 0 C1.27616684 -0.0049649 2.55233368 -0.00992981 3.86717224 -0.01504517 C7.34720957 -0.02807281 10.82722768 -0.0345961 14.30728555 -0.03905582 C16.4923218 -0.04200456 18.67735302 -0.04611276 20.8623867 -0.05056 C27.72988142 -0.06421475 34.59736437 -0.07388909 41.4648717 -0.07776189 C49.33355787 -0.08222616 57.2020689 -0.09970628 65.0707019 -0.12876248 C71.19004475 -0.15055666 77.30933902 -0.16047564 83.42872018 -0.16180301 C87.0655842 -0.16283924 90.70228323 -0.16848806 94.33910561 -0.18662262 C113.39976197 -0.27629915 132.43741038 -0.10906926 150.80737305 5.66113281 C151.2084729 5.78544678 151.2084729 5.78544678 153.23828125 6.41455078 C176.18782718 13.91986886 195.80690058 26.38178971 212.99487305 43.16113281 C213.76959961 43.87398437 214.54432617 44.58683594 215.3425293 45.32128906 C232.35093527 61.369785 244.36893935 83.75150004 251.24487305 105.91113281 C251.36193604 106.27924072 251.36193604 106.27924072 251.9543457 108.14208984 C257.3237451 126.3980478 257.4501472 144.85773914 257.39784956 163.72234535 C257.39012181 167.39559154 257.39733418 171.06881808 257.40200806 174.74206543 C257.40742821 180.90442003 257.40037345 187.06666591 257.38598633 193.22900391 C257.36966706 200.29947041 257.37495824 207.36967715 257.39146554 214.44013739 C257.40518829 220.56902674 257.40694801 226.69783904 257.39914954 232.82673883 C257.39453161 236.46171973 257.3936819 240.09657957 257.403759 243.73155212 C257.51613766 290.74232074 245.27708483 330.03276311 211.99487305 364.16113281 C191.61440621 384.60335864 164.37466402 398.85984723 135.99487305 404.16113281 C135.55718849 404.2454229 135.55718849 404.2454229 133.34223938 404.67198181 C120.00096445 406.82945394 106.51725659 406.47265903 93.04116535 406.46271539 C90.12939029 406.461633 87.21763644 406.4665611 84.305866 406.47132081 C77.4225626 406.48235438 70.53931379 406.48288874 63.65600586 406.47680664 C56.61062704 406.47077596 49.5654484 406.48306902 42.52010369 406.50437671 C36.42102823 406.5221282 30.32201568 406.52797286 24.22291541 406.52473897 C20.60239433 406.52294692 16.98201597 406.52534937 13.36151886 406.53945351 C-5.6630104 406.60730561 -23.99599814 405.98030323 -42.38012695 400.59863281 C-42.8088208 400.47375488 -42.8088208 400.47375488 -44.97827148 399.84179688 C-81.69551336 388.54932394 -112.80030346 362.18279036 -131.16918945 328.66894531 C-136.00707053 319.42550445 -140.15837598 310.39128494 -143.25512695 300.41113281 C-143.37218994 300.0430249 -143.37218994 300.0430249 -143.96459961 298.18017578 C-149.35330359 279.85858226 -149.46017915 261.32999038 -149.40810347 242.39799118 C-149.40037699 238.69671781 -149.40758775 234.99546398 -149.41226196 231.29418945 C-149.41768247 225.08475672 -149.4106264 218.87543188 -149.39624023 212.66601562 C-149.3799209 205.54101822 -149.38521206 198.4162786 -149.40171945 191.29128742 C-149.41544116 185.11568949 -149.41720241 178.94016804 -149.40940344 172.76455975 C-149.40478496 169.1016335 -149.40393743 165.4388274 -149.41401291 161.77590942 C-149.45886521 142.91974558 -149.11397665 124.44717341 -143.44262695 106.28613281 C-143.19287109 105.47571533 -142.94311523 104.66529785 -142.68579102 103.83032227 C-130.390405 65.86377083 -103.29196328 34.63283928 -68.12133789 16.17236328 C-46.70866562 5.28749522 -23.94429926 0.02250747 0 0 Z " fill="#EDEDEE" transform="translate(202.005126953125,52.8388671875)"/>
<path d="M0 0 C0.33 0.165 0.33 0.165 2 1 C1.42894531 1.52464844 0.85789062 2.04929687 0.26953125 2.58984375 C-22.04072369 23.90695539 -39.58766516 53.73556845 -49 83 C-49.25475098 83.77408203 -49.50950195 84.54816406 -49.77197266 85.34570312 C-50.59593709 87.87073941 -51.39635915 90.40199838 -52.1875 92.9375 C-52.42581543 93.68733154 -52.66413086 94.43716309 -52.90966797 95.2097168 C-57.87459878 111.7472916 -58.47606294 127.76702451 -58.39111328 144.9519043 C-58.37518933 148.76713727 -58.39094851 152.58128571 -58.41015625 156.39648438 C-58.43135792 180.29626196 -56.53650073 203.67985825 -50.54931641 226.86328125 C-50.10538317 228.59008287 -49.69404446 230.32524388 -49.29296875 232.0625 C-44.10486693 253.48433977 -33.82011143 274.33765826 -21.17236328 292.29638672 C-15.69967833 300.0771862 -14.98683066 306.84449156 -16.3125 316.20703125 C-16.7654106 318.19255895 -17.33787718 320.07416847 -18 322 C-18.25652344 322.79019531 -18.51304688 323.58039063 -18.77734375 324.39453125 C-21.40109449 331.72526829 -25.43138875 337.77065813 -31.21875 343.0078125 C-33 345 -33 345 -33 349 C-16.03297925 349.57988552 -0.9121682 347.7041025 14.92504883 341.33764648 C23.48723468 338.02402467 30.74507854 337.99342662 39.1640625 341.671875 C41.2063334 342.62831041 43.24204761 343.59879145 45.2734375 344.578125 C63.68036166 353.2499971 83.83276138 357.82370695 104 360 C104.88252441 360.10151367 105.76504883 360.20302734 106.67431641 360.30761719 C163.79615968 366.66228443 231.14835973 362.82544936 281.6640625 333.15234375 C282.43492187 332.77207031 283.20578125 332.39179688 284 332 C284.66 332.33 285.32 332.66 286 333 C262.98231551 363.64090476 231.0521404 385.89193978 193 393 C192.56231544 393.08429008 192.56231544 393.08429008 190.34736633 393.510849 C177.0060914 395.66832112 163.52238354 395.31152622 150.0462923 395.30158257 C147.13451724 395.30050018 144.22276339 395.30542829 141.31099296 395.310188 C134.42768955 395.32122157 127.54444074 395.32175593 120.66113281 395.31567383 C113.615754 395.30964315 106.57057535 395.32193621 99.52523065 395.3432439 C93.42615518 395.36099539 87.32714264 395.36684005 81.22804236 395.36360615 C77.60752129 395.3618141 73.98714292 395.36421656 70.36664581 395.37832069 C51.34211655 395.4461728 33.00912881 394.81917041 14.625 389.4375 C14.19630615 389.31262207 14.19630615 389.31262207 12.02685547 388.68066406 C-24.69038641 377.38819113 -55.79517651 351.02165755 -74.1640625 317.5078125 C-79.00194357 308.26437164 -83.15324903 299.23015212 -86.25 289.25 C-86.36706299 288.88189209 -86.36706299 288.88189209 -86.95947266 287.01904297 C-92.34817663 268.69744945 -92.45505219 250.16885757 -92.40297651 231.23685837 C-92.39525004 227.535585 -92.40246079 223.83433116 -92.40713501 220.13305664 C-92.41255552 213.92362391 -92.40549944 207.71429907 -92.39111328 201.50488281 C-92.37479394 194.37988541 -92.3800851 187.25514578 -92.3965925 180.13015461 C-92.41031421 173.95455668 -92.41207546 167.77903522 -92.40427649 161.60342693 C-92.39965801 157.94050069 -92.39881048 154.27769458 -92.40888596 150.61477661 C-92.45373826 131.75861276 -92.1088497 113.28604059 -86.4375 95.125 C-86.18774414 94.31458252 -85.93798828 93.50416504 -85.68066406 92.66918945 C-73.41289896 54.7879278 -46.30132062 23.33211591 -11.10302734 5.01269531 C-7.46718113 3.18292134 -3.83433246 1.37153416 0 0 Z " fill="#2962FE" transform="translate(145,64)"/>
<path d="M0 0 C0.99 0.66 1.98 1.32 3 2 C3.33 0.68 3.66 -0.64 4 -2 C9.28 -2 14.56 -2 20 -2 C20 23.41 20 48.82 20 75 C15.71 75 11.42 75 7 75 C4.1709277 72.1709277 3.62388892 71.61855575 3 68 C2.67966797 68.16886719 2.67966797 68.16886719 1.05859375 69.0234375 C-9.39529455 74.41396709 -19.54827993 77.33600329 -31.29296875 74.08984375 C-41.3750553 70.11578936 -50.64570884 63.98055188 -55.4453125 53.9921875 C-60.12414835 42.89666247 -62.46739949 32.10237565 -57.875 20.5625 C-52.04775382 8.36784155 -43.72847081 0.75318442 -31.1953125 -4.08203125 C-20.31257338 -7.20849053 -9.92410194 -4.90262521 0 0 Z " fill="#2B63FE" transform="translate(284,213)"/>
<path d="M0 0 C10.22838741 6.30233972 16.2783592 15.25549362 19.5703125 26.6796875 C20.87744207 38.69152028 18.69491039 49.18227437 11.6953125 59.1171875 C4.21638436 68.1796642 -5.14357865 73.81179297 -16.97265625 75.05078125 C-30.453817 75.29641869 -40.24149938 71.22604615 -50.07421875 62.1640625 C-57.54795415 54.36867267 -60.75311293 43.26746366 -60.81689453 32.72436523 C-60.58590316 21.85609142 -55.28119295 12.61399728 -47.7734375 5 C-34.21000823 -7.3920422 -15.92669853 -8.65470113 0 0 Z " fill="#2C64FE" transform="translate(412.4296875,213.3203125)"/>
<path d="M0 0 C28.38 0 56.76 0 86 0 C84.87468309 9.00253531 84.87468309 9.00253531 82.25 12.0625 C81.61964844 12.81273437 80.98929687 13.56296875 80.33984375 14.3359375 C79.56769531 15.21507812 78.79554688 16.09421875 78 17 C77.02115744 18.13717976 76.04336728 19.27526589 75.06640625 20.4140625 C72.85352834 22.98520944 70.62993565 25.54656219 68.3984375 28.1015625 C65.2239481 31.73753361 62.07542064 35.39495504 58.9375 39.0625 C58.44677002 39.63572998 57.95604004 40.20895996 57.45043945 40.79956055 C56.46145999 41.9549681 55.4726087 43.11048538 54.48388672 44.26611328 C52.49063207 46.59518445 50.49552186 48.92266193 48.50024414 51.25 C47.50578045 52.41001884 46.51147519 53.57017353 45.51733398 54.73046875 C42.92036975 57.76132695 40.32117807 60.79023767 37.71875 63.81640625 C37.17992187 64.44353516 36.64109375 65.07066406 36.0859375 65.71679688 C35.06058367 66.91009659 34.03458586 68.10284338 33.0078125 69.29492188 C32.54117188 69.83826172 32.07453125 70.38160156 31.59375 70.94140625 C31.18833984 71.41263916 30.78292969 71.88387207 30.36523438 72.36938477 C28.54006764 74.54933624 26.77609295 76.77988382 25 79 C43.15 79.33 61.3 79.66 80 80 C80 84.29 80 88.58 80 93 C76.715178 96.284822 75.84364476 96.34699415 71.4229126 96.3732605 C70.66693787 96.36247467 69.91096313 96.35168884 69.13208008 96.34057617 C68.33184921 96.34101425 67.53161835 96.34145233 66.70713806 96.34190369 C64.06102128 96.33981297 61.4155374 96.31646894 58.76953125 96.29296875 C56.93536221 96.28737379 55.10118868 96.28310322 53.26701355 96.28010559 C48.43852367 96.26864891 43.61030434 96.23917465 38.78192139 96.20599365 C33.85530253 96.17531051 28.92863998 96.16160401 24.00195312 96.14648438 C14.33451652 96.11430574 4.66728075 96.06309943 -5 96 C-5.12234637 88.26368715 -5.12234637 88.26368715 -2.8125 85.5 C-2.26464844 84.83226562 -1.71679688 84.16453125 -1.15234375 83.4765625 C-0.44207031 82.65929687 0.26820313 81.84203125 1 81 C1.95726848 79.88301577 2.91427795 78.76580953 3.87109375 77.6484375 C6.09175034 75.06698383 8.32495771 72.4970096 10.56640625 69.93359375 C13.75432047 66.28732174 16.91418712 62.61798066 20.0625 58.9375 C20.55314941 58.36435059 21.04379883 57.79120117 21.54931641 57.20068359 C22.53838399 56.04520043 23.52731671 54.88960181 24.51611328 53.73388672 C27.00895524 50.82105954 29.50462737 47.91065914 32 45 C32.99220091 43.84245942 33.98438839 42.68490731 34.9765625 41.52734375 C41.984375 33.3515625 48.9921875 25.17578125 56 17 C37.52 16.67 19.04 16.34 0 16 C0 10.72 0 5.44 0 0 Z " fill="#2A63FE" transform="translate(141,192)"/>
<path d="M0 0 C5.55419366 3.8109066 10.09397894 9.01088622 12.140625 15.46875 C13.309496 23.47859234 11.74549187 29.84053253 7.140625 36.46875 C2.42949069 41.88884142 -3.20835476 44.8679005 -10.30859375 45.78515625 C-16.3406825 46.07151881 -20.99127647 45.1198239 -25.859375 41.46875 C-32.49382404 35.26953964 -35.80740954 30.23583396 -36.234375 21.09375 C-36.06149574 14.36965668 -34.40452533 10.14210753 -29.765625 5.26953125 C-21.0360648 -2.83441047 -11.14510397 -5.61264228 0 0 Z " fill="#EBECEE" transform="translate(403.859375,226.53125)"/>
<path d="M0 0 C5.55419366 3.8109066 10.09397894 9.01088622 12.140625 15.46875 C13.309496 23.47859234 11.74549187 29.84053253 7.140625 36.46875 C2.42949069 41.88884142 -3.20835476 44.8679005 -10.30859375 45.78515625 C-16.3406825 46.07151881 -20.99127647 45.1198239 -25.859375 41.46875 C-32.49382404 35.26953964 -35.80740954 30.23583396 -36.234375 21.09375 C-36.06149574 14.36965668 -34.40452533 10.14210753 -29.765625 5.26953125 C-21.0360648 -2.83441047 -11.14510397 -5.61264228 0 0 Z " fill="#EBECEE" transform="translate(275.859375,226.53125)"/>
<path d="M0 0 C5.28 0 10.56 0 16 0 C16 31.68 16 63.36 16 96 C11.71 96 7.42 96 3 96 C-0.41570642 92.58429358 -0.34896198 91.35971399 -0.3732605 86.72483826 C-0.36786758 86.29542183 -0.36786758 86.29542183 -0.34057617 84.12231445 C-0.34101425 83.21479431 -0.34145233 82.30727417 -0.34190369 81.37225342 C-0.33981169 78.36904474 -0.31646112 75.36639255 -0.29296875 72.36328125 C-0.28737426 70.28248906 -0.28310347 68.20169293 -0.28010559 66.12089539 C-0.26864526 60.64139924 -0.23916773 55.16214124 -0.20599365 49.68273926 C-0.17531844 44.09256207 -0.1616057 38.50234645 -0.14648438 32.91210938 C-0.11429927 21.94130155 -0.06308847 10.97067057 0 0 Z " fill="#2962FE" transform="translate(320,192)"/>
</svg>
