<svg xmlns="http://www.w3.org/2000/svg" viewBox="0 0 24 24" fill="none" stroke="#000" stroke-width="1.2" stroke-linecap="round" stroke-linejoin="round">
  <path d="M16 4h2a2 2 0 0 1 2 2v14a2 2 0 0 1-2 2H6a2 2 0 0 1-2-2V6a2 2 0 0 1 2-2h2" fill="#000" opacity="0.2" stroke="none"/>
  <path d="M16 4h2a2 2 0 0 1 2 2v14a2 2 0 0 1-2 2H6a2 2 0 0 1-2-2V6a2 2 0 0 1 2-2h2"/>
  <rect x="9" y="2" width="6" height="3" rx="1" fill="#000" opacity="0.2" stroke="none"/>
  <rect x="9" y="2" width="6" height="3" rx="1"/>
  <line x1="8" y1="10" x2="16" y2="10"/>
  <line x1="8" y1="14" x2="16" y2="14"/>
  <line x1="8" y1="18" x2="12" y2="18"/>
</svg>
