<svg xmlns="http://www.w3.org/2000/svg" viewBox="0 0 24 24" fill-rule="evenodd">
  <path d="M12 1.5a.6.6 0 0 1 .6.6v.82A6.75 6.75 0 0 1 18.75 9.75c0 3.08.58 5.37 1.15 6.85.28.74.57 1.26.78 1.58.1.16.19.27.24.33l.05.06H3.03l.05-.06c.05-.06.14-.17.24-.33.21-.32.5-.84.78-1.58.57-1.48 1.15-3.77 1.15-6.85a6.75 6.75 0 0 1 6.15-6.83v-.82A.6.6 0 0 1 12 1.5zM5.75 17.3h12.5c-.24-.75-.50-1.76-.71-3.01A22.2 22.2 0 0 1 17.15 9.75a5.15 5.15 0 1 0-10.3 0c0 1.79-.15 3.33-.39 4.54-.21 1.25-.47 2.26-.71 3.01z" fill="#000"/>
  <path d="M9.3 19.5a.6.6 0 0 1 .82.22 1 1 0 0 0 .84.48h1.68a1 1 0 0 0 .84-.48.6.6 0 1 1 1.03.61A2.5 2.5 0 0 1 12.84 21.75h-1.68a2.5 2.5 0 0 1-2.13-1.22.6.6 0 0 1 .22-.82z" fill="#000"/>
</svg>
