<svg xmlns="http://www.w3.org/2000/svg" viewBox="0 0 24 24" fill-rule="evenodd">
  <path d="M6.5 20C4.01 20 2 17.99 2 15.5c0-2.07 1.4-3.82 3.3-4.35C6.08 7.97 8.82 5.5 12.15 5.5c2.77 0 5.16 1.72 6.13 4.15C20.86 10.12 22 11.57 22 13.5c0 2.49-2.01 4.5-4.5 4.5H8c-.52 0-1.02-.03-1.5-.04zM12.15 6.7c-2.58 0-4.73 1.89-5.14 4.37l-.16 1.0-.96.28C5.0 12.64 3.2 13.84 3.2 15.5c0 1.38 1.37 2.5 2.75 2.5h11.6c1.8 0 3.25-1.12 3.25-2.5 0-1.17-.82-2.17-1.95-2.42l-.9-.2-.24-.9C16.6 9.38 14.56 6.7 12.15 6.7z" fill="#000"/>
</svg>
