<svg xmlns="http://www.w3.org/2000/svg" viewBox="0 0 24 24" fill-rule="evenodd">
  <rect x="11.25" y="3" width="1.5" height="12" rx="0.75" fill="#000"/>
  <path d="M12.53 15.53a.75.75 0 0 1-1.06 0l-4-4a.75.75 0 1 1 1.06-1.06L12 13.94l3.47-3.47a.75.75 0 1 1 1.06 1.06l-4 4z" fill="#000"/>
  <path d="M4 16.25a.75.75 0 0 1 .75.75v2c0 .69.56 1.25 1.25 1.25h12c.69 0 1.25-.56 1.25-1.25v-2a.75.75 0 0 1 1.5 0v2A2.75 2.75 0 0 1 18 21.75H6A2.75 2.75 0 0 1 3.25 19v-2a.75.75 0 0 1 .75-.75z" fill="#000"/>
</svg>
