<svg xmlns="http://www.w3.org/2000/svg" viewBox="0 0 24 24" fill-rule="evenodd">
  <path d="M15.5 2A5.5 5.5 0 0 0 10.26 6.2l-7.55 7.55a.6.6 0 0 0-.17.33l-.42 2.95a.6.6 0 0 0 .17.51l1.6 1.6a.6.6 0 0 0 .43.18h2.43v-2h2v-2h2l1.71-1.71A5.5 5.5 0 1 0 15.5 2zm0 1.2a4.3 4.3 0 1 1 0 8.6c-.26 0-.51-.03-.76-.08l-.72-.16-.52.52-2.29 2.29a.3.3 0 0 0-.09.22V16.6h-2v2H7.06v2H5.21l-1.1-1.1.3-2.05 7.44-7.45.52-.52-.16-.72A4.3 4.3 0 0 1 15.5 3.2zm1.25 2.8a1.25 1.25 0 1 0 0 2.5 1.25 1.25 0 0 0 0-2.5z" fill="#000"/>
</svg>
