<svg xmlns="http://www.w3.org/2000/svg" viewBox="0 0 24 24" fill-rule="evenodd">
  <path d="M7 11 L17 11 C18.1 11 19 11.9 19 13 L19 19 C19 20.1 18.1 21 17 21 L7 21 C5.9 21 5 20.1 5 19 L5 13 C5 11.9 5.9 11 7 11 Z
            M7 12.2 C6.56 12.2 6.2 12.56 6.2 13 L6.2 19 C6.2 19.44 6.56 19.8 7 19.8 L17 19.8 C17.44 19.8 17.8 19.44 17.8 19 L17.8 13 C17.8 12.56 17.44 12.2 17 12.2 Z" fill="#000"/>
  <path d="M7.25 11.5 L7.25 7 C7.25 4.38 9.38 2.25 12 2.25 C14.62 2.25 16.75 4.38 16.75 7 L16.75 11.5 L15.55 11.5 L15.55 7 C15.55 5.04 13.96 3.45 12 3.45 C10.04 3.45 8.45 5.04 8.45 7 L8.45 11.5 Z" fill="#000"/>
  <circle cx="12" cy="15.5" r="1.5" fill="#000"/>
  <rect x="11.4" y="15.5" width="1.2" height="3" rx="0.6" fill="#000"/>
</svg>
