<svg xmlns="http://www.w3.org/2000/svg" viewBox="0 0 24 24" fill-rule="evenodd">
  <path d="M8 3.5H6A2.5 2.5 0 0 0 3.5 6v14A2.5 2.5 0 0 0 6 22.5h12a2.5 2.5 0 0 0 2.5-2.5V6A2.5 2.5 0 0 0 18 3.5h-2V4a1 1 0 0 1-1 1h-6a1 1 0 0 1-1-1v-.5zM4.7 6a1.3 1.3 0 0 1 1.3-1.3h1.17A2.5 2.5 0 0 0 9.5 6.5h5A2.5 2.5 0 0 0 16.83 4.7H18a1.3 1.3 0 0 1 1.3 1.3v14a1.3 1.3 0 0 1-1.3 1.3H6a1.3 1.3 0 0 1-1.3-1.3V6z" fill="#000"/>
  <path d="M9 1.5a1.5 1.5 0 0 0-1.5 1.5v1A1.5 1.5 0 0 0 9 5.5h6A1.5 1.5 0 0 0 16.5 4V3A1.5 1.5 0 0 0 15 1.5H9zM8.7 2.7h6.6v1.6H8.7V2.7z" fill="#000"/>
  <rect x="8" y="9.4" width="8" height="1.2" rx="0.6" fill="#000"/>
  <rect x="8" y="13.4" width="8" height="1.2" rx="0.6" fill="#000"/>
  <rect x="8" y="17.4" width="4" height="1.2" rx="0.6" fill="#000"/>
</svg>
