<svg xmlns="http://www.w3.org/2000/svg" viewBox="0 0 24 24" fill-rule="evenodd">
  <path d="M12 3.25 C14.62 3.25 16.75 5.38 16.75 8 C16.75 10.62 14.62 12.75 12 12.75 C9.38 12.75 7.25 10.62 7.25 8 C7.25 5.38 9.38 3.25 12 3.25 Z
            M12 4.75 C10.21 4.75 8.75 6.21 8.75 8 C8.75 9.79 10.21 11.25 12 11.25 C13.79 11.25 15.25 9.79 15.25 8 C15.25 6.21 13.79 4.75 12 4.75 Z" fill="#000"/>
  <path d="M3.25 21.75 L3.25 20 C3.25 16.27 6.27 13.25 10 13.25 L14 13.25 C17.73 13.25 20.75 16.27 20.75 20 L20.75 21.75 Z
            M4.75 20.25 L19.25 20.25 L19.25 20 C19.25 17.1 16.9 14.75 14 14.75 L10 14.75 C7.1 14.75 4.75 17.1 4.75 20 Z" fill="#000"/>
</svg>
